<?xml version="1.0" encoding="UTF-8" standalone="no"?>
<!DOCTYPE svg PUBLIC "-//W3C//DTD SVG 1.1//EN"
 "http://www.w3.org/Graphics/SVG/1.1/DTD/svg11.dtd">
<!-- Generated by graphviz version 2.38.0 (20140413.2041)
 -->
<!-- Title: View Pages: 1 -->
<svg width="108pt" height="140pt"
 viewBox="0.00 0.00 107.50 140.00" xmlns="http://www.w3.org/2000/svg" xmlns:xlink="http://www.w3.org/1999/xlink">
<g id="graph0" class="graph" transform="scale(1 1) rotate(0) translate(4 136)">
<title>View</title>
<polygon fill="white" stroke="none" points="-4,4 -4,-136 103.5,-136 103.5,4 -4,4"/>
<!-- Node1 -->
<g id="node1" class="node"><title>Node1</title>
<polygon fill="#bfbfbf" stroke="black" points="31.5,-112.5 31.5,-131.5 70.5,-131.5 70.5,-112.5 31.5,-112.5"/>
<text text-anchor="middle" x="51" y="-119.5" font-family="Helvetica,sans-Serif" font-size="10.00">View</text>
</g>
<!-- Node2 -->
<g id="node2" class="node"><title>Node2</title>
<g id="a_node2"><a xlink:href="../../d8/d00/classImage.html" target="_top" xlink:title="Image">
<polygon fill="white" stroke="black" points="28,-56.5 28,-75.5 74,-75.5 74,-56.5 28,-56.5"/>
<text text-anchor="middle" x="51" y="-63.5" font-family="Helvetica,sans-Serif" font-size="10.00">Image</text>
</a>
</g>
</g>
<!-- Node1&#45;&gt;Node2 -->
<g id="edge1" class="edge"><title>Node1&#45;&gt;Node2</title>
<path fill="none" stroke="midnightblue" d="M51,-101.805C51,-92.9102 51,-82.7798 51,-75.7511"/>
<polygon fill="midnightblue" stroke="midnightblue" points="47.5001,-102.083 51,-112.083 54.5001,-102.083 47.5001,-102.083"/>
</g>
<!-- Node3 -->
<g id="node3" class="node"><title>Node3</title>
<g id="a_node3"><a xlink:href="../../df/d3d/interfaceRASF.html" target="_top" xlink:title="RASF">
<polygon fill="white" stroke="black" points="0,-0.5 0,-19.5 44,-19.5 44,-0.5 0,-0.5"/>
<text text-anchor="middle" x="22" y="-7.5" font-family="Helvetica,sans-Serif" font-size="10.00">RASF</text>
</a>
</g>
</g>
<!-- Node2&#45;&gt;Node3 -->
<g id="edge2" class="edge"><title>Node2&#45;&gt;Node3</title>
<path fill="none" stroke="midnightblue" d="M41.3241,-46.9827C36.4016,-37.8168 30.6421,-27.0922 26.6997,-19.7511"/>
<polygon fill="midnightblue" stroke="midnightblue" points="38.3964,-48.929 46.2112,-56.083 44.5634,-45.6171 38.3964,-48.929"/>
</g>
<!-- Node4 -->
<g id="node4" class="node"><title>Node4</title>
<g id="a_node4"><a xlink:href="../../d4/dc6/interfaceRLE.html" target="_top" xlink:title="RLE">
<polygon fill="white" stroke="black" points="62.5,-0.5 62.5,-19.5 99.5,-19.5 99.5,-0.5 62.5,-0.5"/>
<text text-anchor="middle" x="81" y="-7.5" font-family="Helvetica,sans-Serif" font-size="10.00">RLE</text>
</a>
</g>
</g>
<!-- Node2&#45;&gt;Node4 -->
<g id="edge3" class="edge"><title>Node2&#45;&gt;Node4</title>
<path fill="none" stroke="midnightblue" d="M60.8474,-47.2747C65.9748,-38.0454 72.0165,-27.1703 76.1383,-19.7511"/>
<polygon fill="midnightblue" stroke="midnightblue" points="57.7508,-45.6416 55.9539,-56.083 63.8699,-49.0412 57.7508,-45.6416"/>
</g>
</g>
</svg>
