<?xml version="1.0" encoding="UTF-8" standalone="no"?>
<!DOCTYPE svg PUBLIC "-//W3C//DTD SVG 1.1//EN"
 "http://www.w3.org/Graphics/SVG/1.1/DTD/svg11.dtd">
<!-- Generated by graphviz version 2.38.0 (20140413.2041)
 -->
<!-- Title: rle_box Pages: 1 -->
<svg width="279pt" height="104pt"
 viewBox="0.00 0.00 279.00 104.00" xmlns="http://www.w3.org/2000/svg" xmlns:xlink="http://www.w3.org/1999/xlink">
<g id="graph0" class="graph" transform="scale(1 1) rotate(0) translate(4 100)">
<title>rle_box</title>
<polygon fill="white" stroke="none" points="-4,4 -4,-100 275,-100 275,4 -4,4"/>
<!-- Node1 -->
<g id="node1" class="node"><title>Node1</title>
<polygon fill="#bfbfbf" stroke="black" points="0,-38.5 0,-57.5 51,-57.5 51,-38.5 0,-38.5"/>
<text text-anchor="middle" x="25.5" y="-45.5" font-family="Helvetica,sans-Serif" font-size="10.00">rle_box</text>
</g>
<!-- Node2 -->
<g id="node2" class="node"><title>Node2</title>
<g id="a_node2"><a xlink:href="../../df/d6e/rle__raw__alc_8c.html#a3f4a119f9ef60eb2599166c98946c339" target="_top" xlink:title="rle_raw_alloc">
<polygon fill="white" stroke="black" points="87,-38.5 87,-57.5 167,-57.5 167,-38.5 87,-38.5"/>
<text text-anchor="middle" x="127" y="-45.5" font-family="Helvetica,sans-Serif" font-size="10.00">rle_raw_alloc</text>
</a>
</g>
</g>
<!-- Node1&#45;&gt;Node2 -->
<g id="edge1" class="edge"><title>Node1&#45;&gt;Node2</title>
<path fill="none" stroke="midnightblue" d="M51.0955,-48C58.9563,-48 67.954,-48 76.9226,-48"/>
<polygon fill="midnightblue" stroke="midnightblue" points="76.974,-51.5001 86.9739,-48 76.9739,-44.5001 76.974,-51.5001"/>
</g>
<!-- Node5 -->
<g id="node5" class="node"><title>Node5</title>
<g id="a_node5"><a xlink:href="../../df/dce/rle__getraw_8c.html#a5ed570d65cead1b5587e84134c31e246" target="_top" xlink:title="rle_getraw">
<polygon fill="white" stroke="black" points="93.5,-76.5 93.5,-95.5 160.5,-95.5 160.5,-76.5 93.5,-76.5"/>
<text text-anchor="middle" x="127" y="-83.5" font-family="Helvetica,sans-Serif" font-size="10.00">rle_getraw</text>
</a>
</g>
</g>
<!-- Node1&#45;&gt;Node5 -->
<g id="edge4" class="edge"><title>Node1&#45;&gt;Node5</title>
<path fill="none" stroke="midnightblue" d="M51.0955,-57.3933C63.321,-62.0623 78.2966,-67.7816 91.6355,-72.8759"/>
<polygon fill="midnightblue" stroke="midnightblue" points="90.4057,-76.1527 100.996,-76.4509 92.9031,-69.6134 90.4057,-76.1527"/>
</g>
<!-- Node7 -->
<g id="node7" class="node"><title>Node7</title>
<g id="a_node7"><a xlink:href="../../df/d6e/rle__raw__alc_8c.html#a817fc2f8cdfed47915112d5aa3951afa" target="_top" xlink:title="rle_raw_free">
<polygon fill="white" stroke="black" points="88.5,-0.5 88.5,-19.5 165.5,-19.5 165.5,-0.5 88.5,-0.5"/>
<text text-anchor="middle" x="127" y="-7.5" font-family="Helvetica,sans-Serif" font-size="10.00">rle_raw_free</text>
</a>
</g>
</g>
<!-- Node1&#45;&gt;Node7 -->
<g id="edge7" class="edge"><title>Node1&#45;&gt;Node7</title>
<path fill="none" stroke="midnightblue" d="M51.0955,-38.6067C63.321,-33.9377 78.2966,-28.2184 91.6355,-23.1241"/>
<polygon fill="midnightblue" stroke="midnightblue" points="92.9031,-26.3866 100.996,-19.5491 90.4057,-19.8473 92.9031,-26.3866"/>
</g>
<!-- Node3 -->
<g id="node3" class="node"><title>Node3</title>
<g id="a_node3"><a xlink:href="../../d0/dcc/rletorla_8c.html#ab7e36af3707843f77cc5b4e831c2fa6d" target="_top" xlink:title="malloc">
<polygon fill="white" stroke="black" points="213.5,-38.5 213.5,-57.5 260.5,-57.5 260.5,-38.5 213.5,-38.5"/>
<text text-anchor="middle" x="237" y="-45.5" font-family="Helvetica,sans-Serif" font-size="10.00">malloc</text>
</a>
</g>
</g>
<!-- Node2&#45;&gt;Node3 -->
<g id="edge2" class="edge"><title>Node2&#45;&gt;Node3</title>
<path fill="none" stroke="midnightblue" d="M167.296,-48C178.997,-48 191.694,-48 202.953,-48"/>
<polygon fill="midnightblue" stroke="midnightblue" points="203.228,-51.5001 213.228,-48 203.228,-44.5001 203.228,-51.5001"/>
</g>
<!-- Node4 -->
<g id="node4" class="node"><title>Node4</title>
<g id="a_node4"><a xlink:href="../../d0/dcc/rletorla_8c.html#aafde19f7d36ca163a143579c1b125b6d" target="_top" xlink:title="free">
<polygon fill="white" stroke="black" points="219.5,-0.5 219.5,-19.5 254.5,-19.5 254.5,-0.5 219.5,-0.5"/>
<text text-anchor="middle" x="237" y="-7.5" font-family="Helvetica,sans-Serif" font-size="10.00">free</text>
</a>
</g>
</g>
<!-- Node2&#45;&gt;Node4 -->
<g id="edge3" class="edge"><title>Node2&#45;&gt;Node4</title>
<path fill="none" stroke="midnightblue" d="M155.253,-38.411C171.916,-32.5481 193.125,-25.0858 209.624,-19.2803"/>
<polygon fill="midnightblue" stroke="midnightblue" points="210.935,-22.5295 219.207,-15.9088 208.612,-15.9264 210.935,-22.5295"/>
</g>
<!-- Node5&#45;&gt;Node3 -->
<g id="edge5" class="edge"><title>Node5&#45;&gt;Node3</title>
<path fill="none" stroke="midnightblue" d="M155.253,-76.411C170.016,-71.2166 188.347,-64.7668 203.81,-59.3261"/>
<polygon fill="midnightblue" stroke="midnightblue" points="205.22,-62.5405 213.491,-55.9198 202.896,-55.9373 205.22,-62.5405"/>
</g>
<!-- Node6 -->
<g id="node6" class="node"><title>Node6</title>
<g id="a_node6"><a xlink:href="../../d8/d7c/rle__getskip_8c.html#af6b1e1dc0867e9340f90668591c7c5b3" target="_top" xlink:title="rle_getskip">
<polygon fill="white" stroke="black" points="203,-76.5 203,-95.5 271,-95.5 271,-76.5 203,-76.5"/>
<text text-anchor="middle" x="237" y="-83.5" font-family="Helvetica,sans-Serif" font-size="10.00">rle_getskip</text>
</a>
</g>
</g>
<!-- Node5&#45;&gt;Node6 -->
<g id="edge6" class="edge"><title>Node5&#45;&gt;Node6</title>
<path fill="none" stroke="midnightblue" d="M160.697,-86C170.661,-86 181.778,-86 192.346,-86"/>
<polygon fill="midnightblue" stroke="midnightblue" points="192.668,-89.5001 202.668,-86 192.668,-82.5001 192.668,-89.5001"/>
</g>
<!-- Node7&#45;&gt;Node4 -->
<g id="edge8" class="edge"><title>Node7&#45;&gt;Node4</title>
<path fill="none" stroke="midnightblue" d="M165.773,-10C180.03,-10 195.95,-10 209.023,-10"/>
<polygon fill="midnightblue" stroke="midnightblue" points="209.236,-13.5001 219.236,-10 209.236,-6.5001 209.236,-13.5001"/>
</g>
</g>
</svg>
