<?xml version="1.0" encoding="UTF-8" standalone="no"?>
<!DOCTYPE svg PUBLIC "-//W3C//DTD SVG 1.1//EN"
 "http://www.w3.org/Graphics/SVG/1.1/DTD/svg11.dtd">
<!-- Generated by graphviz version 2.38.0 (20140413.2041)
 -->
<!-- Title: cnv/tifftorle.c Pages: 1 -->
<svg width="282pt" height="196pt"
 viewBox="0.00 0.00 281.50 196.00" xmlns="http://www.w3.org/2000/svg" xmlns:xlink="http://www.w3.org/1999/xlink">
<g id="graph0" class="graph" transform="scale(1 1) rotate(0) translate(4 192)">
<title>cnv/tifftorle.c</title>
<polygon fill="white" stroke="none" points="-4,4 -4,-192 277.5,-192 277.5,4 -4,4"/>
<!-- Node1 -->
<g id="node1" class="node"><title>Node1</title>
<polygon fill="#bfbfbf" stroke="black" points="123.5,-168.5 123.5,-187.5 199.5,-187.5 199.5,-168.5 123.5,-168.5"/>
<text text-anchor="middle" x="161.5" y="-175.5" font-family="Helvetica,sans-Serif" font-size="10.00">cnv/tifftorle.c</text>
</g>
<!-- Node2 -->
<g id="node2" class="node"><title>Node2</title>
<g id="a_node2"><a xlink:href="../../d7/d27/rle_8h.html" target="_top" xlink:title="rle.h">
<polygon fill="white" stroke="black" points="70,-112.5 70,-131.5 107,-131.5 107,-112.5 70,-112.5"/>
<text text-anchor="middle" x="88.5" y="-119.5" font-family="Helvetica,sans-Serif" font-size="10.00">rle.h</text>
</a>
</g>
</g>
<!-- Node1&#45;&gt;Node2 -->
<g id="edge1" class="edge"><title>Node1&#45;&gt;Node2</title>
<path fill="none" stroke="midnightblue" d="M149.771,-168.324C138.663,-160.107 121.758,-147.602 108.517,-137.807"/>
<polygon fill="midnightblue" stroke="midnightblue" points="110.563,-134.967 100.442,-131.834 106.4,-140.595 110.563,-134.967"/>
</g>
<!-- Node6 -->
<g id="node6" class="node"><title>Node6</title>
<polygon fill="white" stroke="#bfbfbf" points="112,-56.5 112,-75.5 159,-75.5 159,-56.5 112,-56.5"/>
<text text-anchor="middle" x="135.5" y="-63.5" font-family="Helvetica,sans-Serif" font-size="10.00">stdio.h</text>
</g>
<!-- Node1&#45;&gt;Node6 -->
<g id="edge7" class="edge"><title>Node1&#45;&gt;Node6</title>
<path fill="none" stroke="midnightblue" d="M159.46,-168.368C155.264,-150.617 145.585,-109.666 139.896,-85.5974"/>
<polygon fill="midnightblue" stroke="midnightblue" points="143.237,-84.5182 137.531,-75.5914 136.425,-86.1284 143.237,-84.5182"/>
</g>
<!-- Node7 -->
<g id="node7" class="node"><title>Node7</title>
<polygon fill="white" stroke="#bfbfbf" points="163.5,-112.5 163.5,-131.5 211.5,-131.5 211.5,-112.5 163.5,-112.5"/>
<text text-anchor="middle" x="187.5" y="-119.5" font-family="Helvetica,sans-Serif" font-size="10.00">math.h</text>
</g>
<!-- Node1&#45;&gt;Node7 -->
<g id="edge6" class="edge"><title>Node1&#45;&gt;Node7</title>
<path fill="none" stroke="midnightblue" d="M165.793,-168.083C169.352,-160.691 174.522,-149.953 178.924,-140.811"/>
<polygon fill="midnightblue" stroke="midnightblue" points="182.102,-142.279 183.287,-131.751 175.795,-139.243 182.102,-142.279"/>
</g>
<!-- Node8 -->
<g id="node8" class="node"><title>Node8</title>
<polygon fill="white" stroke="#bfbfbf" points="229.5,-112.5 229.5,-131.5 273.5,-131.5 273.5,-112.5 229.5,-112.5"/>
<text text-anchor="middle" x="251.5" y="-119.5" font-family="Helvetica,sans-Serif" font-size="10.00">tiffio.h</text>
</g>
<!-- Node1&#45;&gt;Node8 -->
<g id="edge8" class="edge"><title>Node1&#45;&gt;Node8</title>
<path fill="none" stroke="midnightblue" d="M175.96,-168.324C190,-159.9 211.548,-146.971 228.043,-137.074"/>
<polygon fill="midnightblue" stroke="midnightblue" points="230.302,-139.801 237.076,-131.655 226.7,-133.798 230.302,-139.801"/>
</g>
<!-- Node3 -->
<g id="node3" class="node"><title>Node3</title>
<g id="a_node3"><a xlink:href="../../df/dad/rle__config_8h.html" target="_top" xlink:title="rle_config.h">
<polygon fill="white" stroke="black" points="23,-56.5 23,-75.5 94,-75.5 94,-56.5 23,-56.5"/>
<text text-anchor="middle" x="58.5" y="-63.5" font-family="Helvetica,sans-Serif" font-size="10.00">rle_config.h</text>
</a>
</g>
</g>
<!-- Node2&#45;&gt;Node3 -->
<g id="edge2" class="edge"><title>Node2&#45;&gt;Node3</title>
<path fill="none" stroke="midnightblue" d="M83.5461,-112.083C79.3959,-104.613 73.3469,-93.7244 68.2333,-84.5199"/>
<polygon fill="midnightblue" stroke="midnightblue" points="71.2777,-82.7929 63.3617,-75.7511 65.1586,-86.1924 71.2777,-82.7929"/>
</g>
<!-- Node2&#45;&gt;Node6 -->
<g id="edge5" class="edge"><title>Node2&#45;&gt;Node6</title>
<path fill="none" stroke="midnightblue" d="M96.2611,-112.083C103.037,-104.298 113.043,-92.8015 121.255,-83.3665"/>
<polygon fill="midnightblue" stroke="midnightblue" points="123.958,-85.592 127.883,-75.7511 118.678,-80.9963 123.958,-85.592"/>
</g>
<!-- Node4 -->
<g id="node4" class="node"><title>Node4</title>
<polygon fill="white" stroke="#bfbfbf" points="0,-0.5 0,-19.5 49,-19.5 49,-0.5 0,-0.5"/>
<text text-anchor="middle" x="24.5" y="-7.5" font-family="Helvetica,sans-Serif" font-size="10.00">stdlib.h</text>
</g>
<!-- Node3&#45;&gt;Node4 -->
<g id="edge3" class="edge"><title>Node3&#45;&gt;Node4</title>
<path fill="none" stroke="midnightblue" d="M52.8856,-56.083C48.1326,-48.5341 41.1819,-37.4948 35.3484,-28.2298"/>
<polygon fill="midnightblue" stroke="midnightblue" points="38.2999,-26.3486 30.0099,-19.7511 32.3763,-30.0783 38.2999,-26.3486"/>
</g>
<!-- Node5 -->
<g id="node5" class="node"><title>Node5</title>
<polygon fill="white" stroke="#bfbfbf" points="67,-0.5 67,-19.5 118,-19.5 118,-0.5 67,-0.5"/>
<text text-anchor="middle" x="92.5" y="-7.5" font-family="Helvetica,sans-Serif" font-size="10.00">string.h</text>
</g>
<!-- Node3&#45;&gt;Node5 -->
<g id="edge4" class="edge"><title>Node3&#45;&gt;Node5</title>
<path fill="none" stroke="midnightblue" d="M64.1144,-56.083C68.8674,-48.5341 75.8181,-37.4948 81.6516,-28.2298"/>
<polygon fill="midnightblue" stroke="midnightblue" points="84.6237,-30.0783 86.9901,-19.7511 78.7001,-26.3486 84.6237,-30.0783"/>
</g>
</g>
</svg>
