<?xml version="1.0" encoding="UTF-8" standalone="no"?>
<!DOCTYPE svg PUBLIC "-//W3C//DTD SVG 1.1//EN"
 "http://www.w3.org/Graphics/SVG/1.1/DTD/svg11.dtd">
<!-- Generated by graphviz version 2.38.0 (20140413.2041)
 -->
<!-- Title: tifftorle.c Pages: 1 -->
<svg width="240pt" height="84pt"
 viewBox="0.00 0.00 239.50 84.00" xmlns="http://www.w3.org/2000/svg" xmlns:xlink="http://www.w3.org/1999/xlink">
<g id="graph0" class="graph" transform="scale(1 1) rotate(0) translate(4 80)">
<title>tifftorle.c</title>
<polygon fill="white" stroke="none" points="-4,4 -4,-80 235.5,-80 235.5,4 -4,4"/>
<!-- Node1 -->
<g id="node1" class="node"><title>Node1</title>
<polygon fill="#bfbfbf" stroke="black" points="84.5,-56.5 84.5,-75.5 140.5,-75.5 140.5,-56.5 84.5,-56.5"/>
<text text-anchor="middle" x="112.5" y="-63.5" font-family="Helvetica,sans-Serif" font-size="10.00">tifftorle.c</text>
</g>
<!-- Node2 -->
<g id="node2" class="node"><title>Node2</title>
<polygon fill="white" stroke="#bfbfbf" points="0,-0.5 0,-19.5 37,-19.5 37,-0.5 0,-0.5"/>
<text text-anchor="middle" x="18.5" y="-7.5" font-family="Helvetica,sans-Serif" font-size="10.00">rle.h</text>
</g>
<!-- Node1&#45;&gt;Node2 -->
<g id="edge1" class="edge"><title>Node1&#45;&gt;Node2</title>
<path fill="none" stroke="midnightblue" d="M97.3973,-56.324C82.5967,-47.8215 59.8058,-34.7288 42.5178,-24.7975"/>
<polygon fill="midnightblue" stroke="midnightblue" points="43.9798,-21.6009 33.5652,-19.6545 40.4929,-27.6707 43.9798,-21.6009"/>
</g>
<!-- Node3 -->
<g id="node3" class="node"><title>Node3</title>
<polygon fill="white" stroke="#bfbfbf" points="55.5,-0.5 55.5,-19.5 103.5,-19.5 103.5,-0.5 55.5,-0.5"/>
<text text-anchor="middle" x="79.5" y="-7.5" font-family="Helvetica,sans-Serif" font-size="10.00">math.h</text>
</g>
<!-- Node1&#45;&gt;Node3 -->
<g id="edge2" class="edge"><title>Node1&#45;&gt;Node3</title>
<path fill="none" stroke="midnightblue" d="M107.051,-56.083C102.486,-48.6127 95.8316,-37.7244 90.2066,-28.5199"/>
<polygon fill="midnightblue" stroke="midnightblue" points="93.0489,-26.4588 84.8479,-19.7511 87.0759,-30.109 93.0489,-26.4588"/>
</g>
<!-- Node4 -->
<g id="node4" class="node"><title>Node4</title>
<polygon fill="white" stroke="#bfbfbf" points="122,-0.5 122,-19.5 169,-19.5 169,-0.5 122,-0.5"/>
<text text-anchor="middle" x="145.5" y="-7.5" font-family="Helvetica,sans-Serif" font-size="10.00">stdio.h</text>
</g>
<!-- Node1&#45;&gt;Node4 -->
<g id="edge3" class="edge"><title>Node1&#45;&gt;Node4</title>
<path fill="none" stroke="midnightblue" d="M117.949,-56.083C122.514,-48.6127 129.168,-37.7244 134.793,-28.5199"/>
<polygon fill="midnightblue" stroke="midnightblue" points="137.924,-30.109 140.152,-19.7511 131.951,-26.4588 137.924,-30.109"/>
</g>
<!-- Node5 -->
<g id="node5" class="node"><title>Node5</title>
<polygon fill="white" stroke="#bfbfbf" points="187.5,-0.5 187.5,-19.5 231.5,-19.5 231.5,-0.5 187.5,-0.5"/>
<text text-anchor="middle" x="209.5" y="-7.5" font-family="Helvetica,sans-Serif" font-size="10.00">tiffio.h</text>
</g>
<!-- Node1&#45;&gt;Node5 -->
<g id="edge4" class="edge"><title>Node1&#45;&gt;Node5</title>
<path fill="none" stroke="midnightblue" d="M128.085,-56.324C143.499,-47.7428 167.312,-34.486 185.21,-24.5224"/>
<polygon fill="midnightblue" stroke="midnightblue" points="186.919,-27.5767 193.954,-19.6545 183.514,-21.4606 186.919,-27.5767"/>
</g>
</g>
</svg>
