<?xml version="1.0" encoding="UTF-8" standalone="no"?>
<!DOCTYPE svg PUBLIC "-//W3C//DTD SVG 1.1//EN"
 "http://www.w3.org/Graphics/SVG/1.1/DTD/svg11.dtd">
<!-- Generated by graphviz version 2.38.0 (20140413.2041)
 -->
<!-- Title: main Pages: 1 -->
<svg width="523pt" height="474pt"
 viewBox="0.00 0.00 523.00 474.00" xmlns="http://www.w3.org/2000/svg" xmlns:xlink="http://www.w3.org/1999/xlink">
<g id="graph0" class="graph" transform="scale(1 1) rotate(0) translate(4 470)">
<title>main</title>
<polygon fill="white" stroke="none" points="-4,4 -4,-470 519,-470 519,4 -4,4"/>
<!-- Node1 -->
<g id="node1" class="node"><title>Node1</title>
<polygon fill="#bfbfbf" stroke="black" points="0,-227.5 0,-246.5 39,-246.5 39,-227.5 0,-227.5"/>
<text text-anchor="middle" x="19.5" y="-234.5" font-family="Helvetica,sans-Serif" font-size="10.00">main</text>
</g>
<!-- Node2 -->
<g id="node2" class="node"><title>Node2</title>
<g id="a_node2"><a xlink:href="../../d4/db0/scanargs_8c.html#a7ea6d702c0484056c8504d6ce7fede08" target="_top" xlink:title="scanargs">
<polygon fill="white" stroke="black" points="85,-446.5 85,-465.5 145,-465.5 145,-446.5 85,-446.5"/>
<text text-anchor="middle" x="115" y="-453.5" font-family="Helvetica,sans-Serif" font-size="10.00">scanargs</text>
</a>
</g>
</g>
<!-- Node1&#45;&gt;Node2 -->
<g id="edge1" class="edge"><title>Node1&#45;&gt;Node2</title>
<path fill="none" stroke="midnightblue" d="M20.7822,-246.596C22.1324,-276.919 29.9365,-372.207 75,-432 77.4074,-435.194 80.375,-438.06 83.5895,-440.603"/>
<polygon fill="midnightblue" stroke="midnightblue" points="81.6732,-443.533 91.9103,-446.263 85.61,-437.744 81.6732,-443.533"/>
</g>
<!-- Node4 -->
<g id="node4" class="node"><title>Node4</title>
<g id="a_node4"><a xlink:href="../../d2/df3/rle__hdr_8c.html#a8ba0e5b11d1e39ab7227f1686e676c86" target="_top" xlink:title="rle_hdr_init">
<polygon fill="white" stroke="black" points="80,-199.5 80,-218.5 150,-218.5 150,-199.5 80,-199.5"/>
<text text-anchor="middle" x="115" y="-206.5" font-family="Helvetica,sans-Serif" font-size="10.00">rle_hdr_init</text>
</a>
</g>
</g>
<!-- Node1&#45;&gt;Node4 -->
<g id="edge3" class="edge"><title>Node1&#45;&gt;Node4</title>
<path fill="none" stroke="midnightblue" d="M39.4211,-231.334C48.9136,-228.491 60.8128,-224.928 72.3004,-221.488"/>
<polygon fill="midnightblue" stroke="midnightblue" points="73.6432,-224.739 82.2188,-218.517 71.635,-218.033 73.6432,-224.739"/>
</g>
<!-- Node9 -->
<g id="node9" class="node"><title>Node9</title>
<g id="a_node9"><a xlink:href="../../d2/df3/rle__hdr_8c.html#a82e79385f2d45cc3b80ce0f4f369eae5" target="_top" xlink:title="rle_names">
<polygon fill="white" stroke="black" points="329,-218.5 329,-237.5 395,-237.5 395,-218.5 329,-218.5"/>
<text text-anchor="middle" x="362" y="-225.5" font-family="Helvetica,sans-Serif" font-size="10.00">rle_names</text>
</a>
</g>
</g>
<!-- Node1&#45;&gt;Node9 -->
<g id="edge12" class="edge"><title>Node1&#45;&gt;Node9</title>
<path fill="none" stroke="midnightblue" d="M39.2918,-236.503C92.2456,-235.104 243.676,-231.101 318.335,-229.128"/>
<polygon fill="midnightblue" stroke="midnightblue" points="318.868,-232.615 328.772,-228.852 318.683,-225.617 318.868,-232.615"/>
</g>
<!-- Node10 -->
<g id="node10" class="node"><title>Node10</title>
<g id="a_node10"><a xlink:href="../../d8/d30/cmd__name_8c.html#a271249070fdd12c176777c77d76f888f" target="_top" xlink:title="cmd_name">
<polygon fill="white" stroke="black" points="81,-76.5 81,-95.5 149,-95.5 149,-76.5 81,-76.5"/>
<text text-anchor="middle" x="115" y="-83.5" font-family="Helvetica,sans-Serif" font-size="10.00">cmd_name</text>
</a>
</g>
</g>
<!-- Node1&#45;&gt;Node10 -->
<g id="edge13" class="edge"><title>Node1&#45;&gt;Node10</title>
<path fill="none" stroke="midnightblue" d="M22.5238,-227.328C27.7045,-204.549 43.3255,-146.683 75,-110 77.8057,-106.751 81.1631,-103.804 84.7145,-101.177"/>
<polygon fill="midnightblue" stroke="midnightblue" points="86.7324,-104.04 93.1851,-95.6367 82.9005,-98.1818 86.7324,-104.04"/>
</g>
<!-- Node11 -->
<g id="node11" class="node"><title>Node11</title>
<g id="a_node11"><a xlink:href="../../de/d4e/rle__open__f_8c.html#a89733a45961817885603ae01210290b7" target="_top" xlink:title="rle_open_f">
<polygon fill="white" stroke="black" points="199,-370.5 199,-389.5 267,-389.5 267,-370.5 199,-370.5"/>
<text text-anchor="middle" x="233" y="-377.5" font-family="Helvetica,sans-Serif" font-size="10.00">rle_open_f</text>
</a>
</g>
</g>
<!-- Node1&#45;&gt;Node11 -->
<g id="edge14" class="edge"><title>Node1&#45;&gt;Node11</title>
<path fill="none" stroke="midnightblue" d="M22.5378,-246.756C27.5021,-267.98 42.2914,-318.481 75,-344 107.469,-369.332 154.536,-377.433 188.662,-379.743"/>
<polygon fill="midnightblue" stroke="midnightblue" points="188.633,-383.247 198.807,-380.287 189.008,-376.257 188.633,-383.247"/>
</g>
<!-- Node14 -->
<g id="node14" class="node"><title>Node14</title>
<g id="a_node14"><a xlink:href="../../d8/def/rle__addhist_8c.html#a4f9433d6e4e203d0ecea1c7d3837afc3" target="_top" xlink:title="rle_addhist">
<polygon fill="white" stroke="black" points="80.5,-152.5 80.5,-171.5 149.5,-171.5 149.5,-152.5 80.5,-152.5"/>
<text text-anchor="middle" x="115" y="-159.5" font-family="Helvetica,sans-Serif" font-size="10.00">rle_addhist</text>
</a>
</g>
</g>
<!-- Node1&#45;&gt;Node14 -->
<g id="edge19" class="edge"><title>Node1&#45;&gt;Node14</title>
<path fill="none" stroke="midnightblue" d="M31.1188,-227.347C41.9326,-217.636 59.2955,-202.369 75,-190 80.3284,-185.803 86.21,-181.445 91.7546,-177.453"/>
<polygon fill="midnightblue" stroke="midnightblue" points="93.9341,-180.198 100.062,-171.555 89.8821,-174.49 93.9341,-180.198"/>
</g>
<!-- Node17 -->
<g id="node17" class="node"><title>Node17</title>
<g id="a_node17"><a xlink:href="../../df/da5/rle__putcom_8c.html#a6fa8528c32d14763efe2a534e409e321" target="_top" xlink:title="rle_putcom">
<polygon fill="white" stroke="black" points="199,-66.5 199,-85.5 267,-85.5 267,-66.5 199,-66.5"/>
<text text-anchor="middle" x="233" y="-73.5" font-family="Helvetica,sans-Serif" font-size="10.00">rle_putcom</text>
</a>
</g>
</g>
<!-- Node1&#45;&gt;Node17 -->
<g id="edge26" class="edge"><title>Node1&#45;&gt;Node17</title>
<path fill="none" stroke="midnightblue" d="M23.7189,-227.397C30.4262,-208.729 47.5923,-167.251 75,-143 84.7033,-134.414 154.413,-106.293 197.619,-89.3332"/>
<polygon fill="midnightblue" stroke="midnightblue" points="199.155,-92.4907 207.192,-85.5875 196.604,-85.9719 199.155,-92.4907"/>
</g>
<!-- Node19 -->
<g id="node19" class="node"><title>Node19</title>
<g id="a_node19"><a xlink:href="../../df/d6e/rle__raw__alc_8c.html#a3f4a119f9ef60eb2599166c98946c339" target="_top" xlink:title="rle_raw_alloc">
<polygon fill="white" stroke="black" points="322,-256.5 322,-275.5 402,-275.5 402,-256.5 322,-256.5"/>
<text text-anchor="middle" x="362" y="-263.5" font-family="Helvetica,sans-Serif" font-size="10.00">rle_raw_alloc</text>
</a>
</g>
</g>
<!-- Node1&#45;&gt;Node19 -->
<g id="edge27" class="edge"><title>Node1&#45;&gt;Node19</title>
<path fill="none" stroke="midnightblue" d="M39.0603,-241.4C49.551,-243.722 62.9419,-246.411 75,-248 157.654,-258.891 254.642,-263.236 311.786,-264.939"/>
<polygon fill="midnightblue" stroke="midnightblue" points="311.884,-268.443 321.979,-265.227 312.082,-261.446 311.884,-268.443"/>
</g>
<!-- Node20 -->
<g id="node20" class="node"><title>Node20</title>
<g id="a_node20"><a xlink:href="../../d9/d2a/rle__putrow_8c.html#af88a82b331cd6f425d2a2cc1623944c6" target="_top" xlink:title="rle_put_setup">
<polygon fill="white" stroke="black" points="75,-38.5 75,-57.5 155,-57.5 155,-38.5 75,-38.5"/>
<text text-anchor="middle" x="115" y="-45.5" font-family="Helvetica,sans-Serif" font-size="10.00">rle_put_setup</text>
</a>
</g>
</g>
<!-- Node1&#45;&gt;Node20 -->
<g id="edge30" class="edge"><title>Node1&#45;&gt;Node20</title>
<path fill="none" stroke="midnightblue" d="M21.0188,-227.271C23.0115,-199.075 32.385,-116.195 75,-67 76.0171,-65.8259 77.1234,-64.7176 78.298,-63.6722"/>
<polygon fill="midnightblue" stroke="midnightblue" points="80.67,-66.2819 86.8185,-57.6536 76.6313,-60.5644 80.67,-66.2819"/>
</g>
<!-- Node22 -->
<g id="node22" class="node"><title>Node22</title>
<g id="a_node22"><a xlink:href="../../d6/d8c/rle__putraw_8c.html#ab36032e464af1d1505cdc69948fe9f17" target="_top" xlink:title="rle_putraw">
<polygon fill="white" stroke="black" points="82,-0.5 82,-19.5 148,-19.5 148,-0.5 82,-0.5"/>
<text text-anchor="middle" x="115" y="-7.5" font-family="Helvetica,sans-Serif" font-size="10.00">rle_putraw</text>
</a>
</g>
</g>
<!-- Node1&#45;&gt;Node22 -->
<g id="edge32" class="edge"><title>Node1&#45;&gt;Node22</title>
<path fill="none" stroke="midnightblue" d="M20.3297,-227.479C20.2573,-195.589 24.1064,-91.0602 75,-29 75.985,-27.7989 77.0645,-26.6679 78.2167,-25.6037"/>
<polygon fill="midnightblue" stroke="midnightblue" points="80.5934,-28.2045 86.6489,-19.5108 76.4936,-22.5307 80.5934,-28.2045"/>
</g>
<!-- Node23 -->
<g id="node23" class="node"><title>Node23</title>
<g id="a_node23"><a xlink:href="../../df/d6e/rle__raw__alc_8c.html#a817fc2f8cdfed47915112d5aa3951afa" target="_top" xlink:title="rle_raw_free">
<polygon fill="white" stroke="black" points="194.5,-332.5 194.5,-351.5 271.5,-351.5 271.5,-332.5 194.5,-332.5"/>
<text text-anchor="middle" x="233" y="-339.5" font-family="Helvetica,sans-Serif" font-size="10.00">rle_raw_free</text>
</a>
</g>
</g>
<!-- Node1&#45;&gt;Node23 -->
<g id="edge33" class="edge"><title>Node1&#45;&gt;Node23</title>
<path fill="none" stroke="midnightblue" d="M23.9687,-246.661C30.7786,-264.107 47.6599,-300.664 75,-318 107.464,-338.586 151.131,-343.868 184.171,-344.409"/>
<polygon fill="midnightblue" stroke="midnightblue" points="184.489,-347.91 194.497,-344.432 184.505,-340.91 184.489,-347.91"/>
</g>
<!-- Node24 -->
<g id="node24" class="node"><title>Node24</title>
<g id="a_node24"><a xlink:href="../../d9/d2a/rle__putrow_8c.html#af4fab734a5d227ad2ae95840f56fff3b" target="_top" xlink:title="rle_puteof">
<polygon fill="white" stroke="black" points="330,-408.5 330,-427.5 394,-427.5 394,-408.5 330,-408.5"/>
<text text-anchor="middle" x="362" y="-415.5" font-family="Helvetica,sans-Serif" font-size="10.00">rle_puteof</text>
</a>
</g>
</g>
<!-- Node1&#45;&gt;Node24 -->
<g id="edge35" class="edge"><title>Node1&#45;&gt;Node24</title>
<path fill="none" stroke="midnightblue" d="M21.3581,-246.651C24.1221,-271.672 35.0949,-339.041 75,-373 144.295,-431.97 258.601,-430.042 319.609,-423.855"/>
<polygon fill="midnightblue" stroke="midnightblue" points="320.086,-427.324 329.643,-422.75 319.319,-420.366 320.086,-427.324"/>
</g>
<!-- Node3 -->
<g id="node3" class="node"><title>Node3</title>
<g id="a_node3"><a xlink:href="../../d4/db0/scanargs_8c.html#a862219039664df6eb3cfced58addf830" target="_top" xlink:title="_do_scanargs">
<polygon fill="white" stroke="black" points="191,-446.5 191,-465.5 275,-465.5 275,-446.5 191,-446.5"/>
<text text-anchor="middle" x="233" y="-453.5" font-family="Helvetica,sans-Serif" font-size="10.00">_do_scanargs</text>
</a>
</g>
</g>
<!-- Node2&#45;&gt;Node3 -->
<g id="edge2" class="edge"><title>Node2&#45;&gt;Node3</title>
<path fill="none" stroke="midnightblue" d="M145.272,-456C156.073,-456 168.654,-456 180.827,-456"/>
<polygon fill="midnightblue" stroke="midnightblue" points="180.909,-459.5 190.909,-456 180.909,-452.5 180.909,-459.5"/>
</g>
<!-- Node5 -->
<g id="node5" class="node"><title>Node5</title>
<g id="a_node5"><a xlink:href="../../d2/df3/rle__hdr_8c.html#a16c4da6201b3b8cf55127b9ca968d253" target="_top" xlink:title="rle_hdr_clear">
<polygon fill="white" stroke="black" points="322,-294.5 322,-313.5 402,-313.5 402,-294.5 322,-294.5"/>
<text text-anchor="middle" x="362" y="-301.5" font-family="Helvetica,sans-Serif" font-size="10.00">rle_hdr_clear</text>
</a>
</g>
</g>
<!-- Node4&#45;&gt;Node5 -->
<g id="edge4" class="edge"><title>Node4&#45;&gt;Node5</title>
<path fill="none" stroke="midnightblue" d="M140.295,-218.545C177.16,-233.011 249.454,-261.313 311,-285 315.911,-286.89 321.099,-288.875 326.199,-290.819"/>
<polygon fill="midnightblue" stroke="midnightblue" points="325.213,-294.189 335.804,-294.473 327.702,-287.646 325.213,-294.189"/>
</g>
<!-- Node7 -->
<g id="node7" class="node"><title>Node7</title>
<g id="a_node7"><a xlink:href="../../d2/df3/rle__hdr_8c.html#afc916e29aea8788e0878ca315ff69821" target="_top" xlink:title="rle_hdr_cp">
<polygon fill="white" stroke="black" points="199,-180.5 199,-199.5 267,-199.5 267,-180.5 199,-180.5"/>
<text text-anchor="middle" x="233" y="-187.5" font-family="Helvetica,sans-Serif" font-size="10.00">rle_hdr_cp</text>
</a>
</g>
</g>
<!-- Node4&#45;&gt;Node7 -->
<g id="edge6" class="edge"><title>Node4&#45;&gt;Node7</title>
<path fill="none" stroke="midnightblue" d="M140.035,-199.47C154.104,-196.075 172.289,-192.777 188.77,-190.529"/>
<polygon fill="midnightblue" stroke="midnightblue" points="189.273,-193.994 198.759,-189.274 188.401,-187.048 189.273,-193.994"/>
</g>
<!-- Node6 -->
<g id="node6" class="node"><title>Node6</title>
<g id="a_node6"><a xlink:href="../../d0/dcc/rletorla_8c.html#aafde19f7d36ca163a143579c1b125b6d" target="_top" xlink:title="free">
<polygon fill="white" stroke="black" points="464.5,-313.5 464.5,-332.5 499.5,-332.5 499.5,-313.5 464.5,-313.5"/>
<text text-anchor="middle" x="482" y="-320.5" font-family="Helvetica,sans-Serif" font-size="10.00">free</text>
</a>
</g>
</g>
<!-- Node5&#45;&gt;Node6 -->
<g id="edge5" class="edge"><title>Node5&#45;&gt;Node6</title>
<path fill="none" stroke="midnightblue" d="M402.292,-310.327C419.397,-313.081 438.998,-316.237 454.361,-318.711"/>
<polygon fill="midnightblue" stroke="midnightblue" points="453.807,-322.166 464.236,-320.301 454.92,-315.256 453.807,-322.166"/>
</g>
<!-- Node7&#45;&gt;Node4 -->
<g id="edge7" class="edge"><title>Node7&#45;&gt;Node4</title>
<path fill="none" stroke="midnightblue" d="M207.991,-199.523C194.284,-202.833 176.663,-206.05 160.517,-208.294"/>
<polygon fill="midnightblue" stroke="midnightblue" points="159.651,-204.876 150.176,-209.618 160.54,-211.819 159.651,-204.876"/>
</g>
<!-- Node8 -->
<g id="node8" class="node"><title>Node8</title>
<g id="a_node8"><a xlink:href="../../d0/dcc/rletorla_8c.html#ab7e36af3707843f77cc5b4e831c2fa6d" target="_top" xlink:title="malloc">
<polygon fill="white" stroke="black" points="458.5,-199.5 458.5,-218.5 505.5,-218.5 505.5,-199.5 458.5,-199.5"/>
<text text-anchor="middle" x="482" y="-206.5" font-family="Helvetica,sans-Serif" font-size="10.00">malloc</text>
</a>
</g>
</g>
<!-- Node7&#45;&gt;Node8 -->
<g id="edge8" class="edge"><title>Node7&#45;&gt;Node8</title>
<path fill="none" stroke="midnightblue" d="M267.055,-192.543C314.474,-196.19 401.271,-202.867 448.423,-206.494"/>
<polygon fill="midnightblue" stroke="midnightblue" points="448.168,-209.985 458.407,-207.262 448.705,-203.005 448.168,-209.985"/>
</g>
<!-- Node7&#45;&gt;Node9 -->
<g id="edge9" class="edge"><title>Node7&#45;&gt;Node9</title>
<path fill="none" stroke="midnightblue" d="M266.047,-199.589C282.141,-204.404 301.841,-210.299 319.117,-215.468"/>
<polygon fill="midnightblue" stroke="midnightblue" points="318.379,-218.901 328.963,-218.414 320.386,-212.194 318.379,-218.901"/>
</g>
<!-- Node9&#45;&gt;Node6 -->
<g id="edge10" class="edge"><title>Node9&#45;&gt;Node6</title>
<path fill="none" stroke="midnightblue" d="M395.082,-237.577C401.3,-240.142 407.566,-243.266 413,-247 436.024,-262.82 456.498,-288.009 468.819,-305.009"/>
<polygon fill="midnightblue" stroke="midnightblue" points="466.175,-307.333 474.79,-313.499 471.9,-303.306 466.175,-307.333"/>
</g>
<!-- Node9&#45;&gt;Node8 -->
<g id="edge11" class="edge"><title>Node9&#45;&gt;Node8</title>
<path fill="none" stroke="midnightblue" d="M395.244,-222.808C411.589,-220.176 431.41,-216.985 447.877,-214.333"/>
<polygon fill="midnightblue" stroke="midnightblue" points="448.827,-217.726 458.144,-212.68 447.714,-210.815 448.827,-217.726"/>
</g>
<!-- Node12 -->
<g id="node12" class="node"><title>Node12</title>
<g id="a_node12"><a xlink:href="../../de/d4e/rle__open__f_8c.html#a5a0e62a00f907fce26e93b2f72adb2b0" target="_top" xlink:title="rle_open_f_noexit">
<polygon fill="white" stroke="black" points="311,-370.5 311,-389.5 413,-389.5 413,-370.5 311,-370.5"/>
<text text-anchor="middle" x="362" y="-377.5" font-family="Helvetica,sans-Serif" font-size="10.00">rle_open_f_noexit</text>
</a>
</g>
</g>
<!-- Node11&#45;&gt;Node12 -->
<g id="edge15" class="edge"><title>Node11&#45;&gt;Node12</title>
<path fill="none" stroke="midnightblue" d="M267.036,-380C277.382,-380 289.141,-380 300.755,-380"/>
<polygon fill="midnightblue" stroke="midnightblue" points="300.885,-383.5 310.885,-380 300.885,-376.5 300.885,-383.5"/>
</g>
<!-- Node12&#45;&gt;Node6 -->
<g id="edge18" class="edge"><title>Node12&#45;&gt;Node6</title>
<path fill="none" stroke="midnightblue" d="M382.96,-370.443C392.118,-366.052 403.114,-360.771 413,-356 426.938,-349.273 442.466,-341.74 455.16,-335.572"/>
<polygon fill="midnightblue" stroke="midnightblue" points="456.779,-338.677 464.243,-331.157 453.719,-332.381 456.779,-338.677"/>
</g>
<!-- Node12&#45;&gt;Node8 -->
<g id="edge17" class="edge"><title>Node12&#45;&gt;Node8</title>
<path fill="none" stroke="midnightblue" d="M372.428,-370.37C382.938,-359.391 400.145,-340.67 413,-323 436.265,-291.021 458.895,-250.689 471.287,-227.573"/>
<polygon fill="midnightblue" stroke="midnightblue" points="474.493,-228.999 476.085,-218.525 468.308,-225.72 474.493,-228.999"/>
</g>
<!-- Node13 -->
<g id="node13" class="node"><title>Node13</title>
<g id="a_node13"><a xlink:href="../../de/d4e/rle__open__f_8c.html#a84fda810ae9b9bde82a6391d0b264ead" target="_top" xlink:title="my_popen">
<polygon fill="white" stroke="black" points="449,-370.5 449,-389.5 515,-389.5 515,-370.5 449,-370.5"/>
<text text-anchor="middle" x="482" y="-377.5" font-family="Helvetica,sans-Serif" font-size="10.00">my_popen</text>
</a>
</g>
</g>
<!-- Node12&#45;&gt;Node13 -->
<g id="edge16" class="edge"><title>Node12&#45;&gt;Node13</title>
<path fill="none" stroke="midnightblue" d="M413.043,-380C421.523,-380 430.255,-380 438.518,-380"/>
<polygon fill="midnightblue" stroke="midnightblue" points="438.678,-383.5 448.678,-380 438.678,-376.5 438.678,-383.5"/>
</g>
<!-- Node14&#45;&gt;Node8 -->
<g id="edge22" class="edge"><title>Node14&#45;&gt;Node8</title>
<path fill="none" stroke="midnightblue" d="M149.574,-162.979C181.805,-164.137 231.826,-166.503 275,-171 336.706,-177.427 352.173,-179.796 413,-192 424.693,-194.346 437.398,-197.387 448.627,-200.247"/>
<polygon fill="midnightblue" stroke="midnightblue" points="447.895,-203.673 458.454,-202.798 449.654,-196.898 447.895,-203.673"/>
</g>
<!-- Node15 -->
<g id="node15" class="node"><title>Node15</title>
<g id="a_node15"><a xlink:href="../../db/db2/rle__getcom_8c.html#a9cefd612c381bf82c9cdf1f3a3b12dd6" target="_top" xlink:title="rle_getcom">
<polygon fill="white" stroke="black" points="198.5,-104.5 198.5,-123.5 267.5,-123.5 267.5,-104.5 198.5,-104.5"/>
<text text-anchor="middle" x="233" y="-111.5" font-family="Helvetica,sans-Serif" font-size="10.00">rle_getcom</text>
</a>
</g>
</g>
<!-- Node14&#45;&gt;Node15 -->
<g id="edge20" class="edge"><title>Node14&#45;&gt;Node15</title>
<path fill="none" stroke="midnightblue" d="M139.196,-152.402C156.503,-145.24 180.372,-135.363 199.569,-127.42"/>
<polygon fill="midnightblue" stroke="midnightblue" points="200.943,-130.639 208.845,-123.582 198.266,-124.171 200.943,-130.639"/>
</g>
<!-- Node14&#45;&gt;Node17 -->
<g id="edge23" class="edge"><title>Node14&#45;&gt;Node17</title>
<path fill="none" stroke="midnightblue" d="M134.304,-152.383C141.135,-148.381 148.744,-143.406 155,-138 173.858,-121.702 171.216,-110.161 191,-95 193.07,-93.4133 195.295,-91.9183 197.598,-90.5179"/>
<polygon fill="midnightblue" stroke="midnightblue" points="199.58,-93.425 206.714,-85.5917 196.253,-87.2667 199.58,-93.425"/>
</g>
<!-- Node16 -->
<g id="node16" class="node"><title>Node16</title>
<g id="a_node16"><a xlink:href="../../db/db2/rle__getcom_8c.html#a7502c8b599724ce86fee5df1311a2337" target="_top" xlink:title="match">
<polygon fill="white" stroke="black" points="339.5,-104.5 339.5,-123.5 384.5,-123.5 384.5,-104.5 339.5,-104.5"/>
<text text-anchor="middle" x="362" y="-111.5" font-family="Helvetica,sans-Serif" font-size="10.00">match</text>
</a>
</g>
</g>
<!-- Node15&#45;&gt;Node16 -->
<g id="edge21" class="edge"><title>Node15&#45;&gt;Node16</title>
<path fill="none" stroke="midnightblue" d="M267.7,-114C286.709,-114 310.325,-114 329.041,-114"/>
<polygon fill="midnightblue" stroke="midnightblue" points="329.148,-117.5 339.148,-114 329.148,-110.5 329.148,-117.5"/>
</g>
<!-- Node17&#45;&gt;Node8 -->
<g id="edge24" class="edge"><title>Node17&#45;&gt;Node8</title>
<path fill="none" stroke="midnightblue" d="M267.237,-71.1586C305.51,-67.359 368.781,-66.697 413,-95 447.46,-117.056 466.828,-163.349 475.464,-189.654"/>
<polygon fill="midnightblue" stroke="midnightblue" points="472.139,-190.75 478.433,-199.273 478.828,-188.685 472.139,-190.75"/>
</g>
<!-- Node18 -->
<g id="node18" class="node"><title>Node18</title>
<g id="a_node18"><a xlink:href="../../df/da5/rle__putcom_8c.html#a7502c8b599724ce86fee5df1311a2337" target="_top" xlink:title="match">
<polygon fill="white" stroke="black" points="339.5,-28.5 339.5,-47.5 384.5,-47.5 384.5,-28.5 339.5,-28.5"/>
<text text-anchor="middle" x="362" y="-35.5" font-family="Helvetica,sans-Serif" font-size="10.00">match</text>
</a>
</g>
</g>
<!-- Node17&#45;&gt;Node18 -->
<g id="edge25" class="edge"><title>Node17&#45;&gt;Node18</title>
<path fill="none" stroke="midnightblue" d="M266.047,-66.411C285.481,-60.5962 310.173,-53.2081 329.506,-47.4235"/>
<polygon fill="midnightblue" stroke="midnightblue" points="330.771,-50.6982 339.348,-44.4785 328.765,-43.992 330.771,-50.6982"/>
</g>
<!-- Node19&#45;&gt;Node6 -->
<g id="edge29" class="edge"><title>Node19&#45;&gt;Node6</title>
<path fill="none" stroke="midnightblue" d="M390.288,-275.543C397.745,-278.373 405.762,-281.625 413,-285 427.893,-291.945 443.967,-300.858 456.747,-308.306"/>
<polygon fill="midnightblue" stroke="midnightblue" points="455.016,-311.349 465.406,-313.422 458.576,-305.322 455.016,-311.349"/>
</g>
<!-- Node19&#45;&gt;Node8 -->
<g id="edge28" class="edge"><title>Node19&#45;&gt;Node8</title>
<path fill="none" stroke="midnightblue" d="M390.288,-256.457C397.745,-253.627 405.762,-250.375 413,-247 427.893,-240.055 443.967,-231.142 456.747,-223.694"/>
<polygon fill="midnightblue" stroke="midnightblue" points="458.576,-226.678 465.406,-218.578 455.016,-220.651 458.576,-226.678"/>
</g>
<!-- Node21 -->
<g id="node21" class="node"><title>Node21</title>
<g id="a_node21"><a xlink:href="../../d9/d2a/rle__putrow_8c.html#a46d9789104d5d1f09253a808fdad5346" target="_top" xlink:title="rle_put_init">
<polygon fill="white" stroke="black" points="199,-28.5 199,-47.5 267,-47.5 267,-28.5 199,-28.5"/>
<text text-anchor="middle" x="233" y="-35.5" font-family="Helvetica,sans-Serif" font-size="10.00">rle_put_init</text>
</a>
</g>
</g>
<!-- Node20&#45;&gt;Node21 -->
<g id="edge31" class="edge"><title>Node20&#45;&gt;Node21</title>
<path fill="none" stroke="midnightblue" d="M155.272,-44.6145C166.031,-43.687 177.753,-42.6765 188.722,-41.7308"/>
<polygon fill="midnightblue" stroke="midnightblue" points="189.291,-45.1949 198.953,-40.8489 188.689,-38.2208 189.291,-45.1949"/>
</g>
<!-- Node23&#45;&gt;Node6 -->
<g id="edge34" class="edge"><title>Node23&#45;&gt;Node6</title>
<path fill="none" stroke="midnightblue" d="M271.514,-339.114C321.883,-335.24 410.135,-328.451 454.275,-325.056"/>
<polygon fill="midnightblue" stroke="midnightblue" points="454.545,-328.545 464.247,-324.289 454.008,-321.566 454.545,-328.545"/>
</g>
<!-- Node24&#45;&gt;Node6 -->
<g id="edge36" class="edge"><title>Node24&#45;&gt;Node6</title>
<path fill="none" stroke="midnightblue" d="M394.032,-408.852C400.591,-406.208 407.26,-402.944 413,-399 419.312,-394.663 448.157,-361.468 466.191,-340.408"/>
<polygon fill="midnightblue" stroke="midnightblue" points="468.891,-342.635 472.723,-332.758 463.568,-338.09 468.891,-342.635"/>
</g>
</g>
</svg>
