<?xml version="1.0" encoding="UTF-8" standalone="no"?>
<!DOCTYPE svg PUBLIC "-//W3C//DTD SVG 1.1//EN"
 "http://www.w3.org/Graphics/SVG/1.1/DTD/svg11.dtd">
<!-- Generated by graphviz version 2.38.0 (20140413.2041)
 -->
<!-- Title: tools/rlehdr.c Pages: 1 -->
<svg width="245pt" height="196pt"
 viewBox="0.00 0.00 244.50 196.00" xmlns="http://www.w3.org/2000/svg" xmlns:xlink="http://www.w3.org/1999/xlink">
<g id="graph0" class="graph" transform="scale(1 1) rotate(0) translate(4 192)">
<title>tools/rlehdr.c</title>
<polygon fill="white" stroke="none" points="-4,4 -4,-192 240.5,-192 240.5,4 -4,4"/>
<!-- Node1 -->
<g id="node1" class="node"><title>Node1</title>
<polygon fill="#bfbfbf" stroke="black" points="50,-168.5 50,-187.5 127,-187.5 127,-168.5 50,-168.5"/>
<text text-anchor="middle" x="88.5" y="-175.5" font-family="Helvetica,sans-Serif" font-size="10.00">tools/rlehdr.c</text>
</g>
<!-- Node2 -->
<g id="node2" class="node"><title>Node2</title>
<polygon fill="white" stroke="#bfbfbf" points="0,-56.5 0,-75.5 47,-75.5 47,-56.5 0,-56.5"/>
<text text-anchor="middle" x="23.5" y="-63.5" font-family="Helvetica,sans-Serif" font-size="10.00">stdio.h</text>
</g>
<!-- Node1&#45;&gt;Node2 -->
<g id="edge1" class="edge"><title>Node1&#45;&gt;Node2</title>
<path fill="none" stroke="midnightblue" d="M66.6919,-168.447C51.5551,-161.221 32.5453,-149.264 23.5,-132 16.0532,-117.787 16.8786,-99.3107 19.0844,-85.6912"/>
<polygon fill="midnightblue" stroke="midnightblue" points="22.5747,-86.0866 21.1106,-75.5934 15.7115,-84.7094 22.5747,-86.0866"/>
</g>
<!-- Node3 -->
<g id="node3" class="node"><title>Node3</title>
<polygon fill="white" stroke="#bfbfbf" points="32.5,-112.5 32.5,-131.5 82.5,-131.5 82.5,-112.5 32.5,-112.5"/>
<text text-anchor="middle" x="57.5" y="-119.5" font-family="Helvetica,sans-Serif" font-size="10.00">stdint.h</text>
</g>
<!-- Node1&#45;&gt;Node3 -->
<g id="edge2" class="edge"><title>Node1&#45;&gt;Node3</title>
<path fill="none" stroke="midnightblue" d="M83.381,-168.083C79.0925,-160.613 72.8418,-149.724 67.5577,-140.52"/>
<polygon fill="midnightblue" stroke="midnightblue" points="70.5379,-138.681 62.5238,-131.751 64.4671,-142.166 70.5379,-138.681"/>
</g>
<!-- Node4 -->
<g id="node4" class="node"><title>Node4</title>
<g id="a_node4"><a xlink:href="../../d7/d27/rle_8h.html" target="_top" xlink:title="rle.h">
<polygon fill="white" stroke="black" points="101,-112.5 101,-131.5 138,-131.5 138,-112.5 101,-112.5"/>
<text text-anchor="middle" x="119.5" y="-119.5" font-family="Helvetica,sans-Serif" font-size="10.00">rle.h</text>
</a>
</g>
</g>
<!-- Node1&#45;&gt;Node4 -->
<g id="edge3" class="edge"><title>Node1&#45;&gt;Node4</title>
<path fill="none" stroke="midnightblue" d="M93.619,-168.083C97.9075,-160.613 104.158,-149.724 109.442,-140.52"/>
<polygon fill="midnightblue" stroke="midnightblue" points="112.533,-142.166 114.476,-131.751 106.462,-138.681 112.533,-142.166"/>
</g>
<!-- Node8 -->
<g id="node8" class="node"><title>Node8</title>
<polygon fill="white" stroke="#bfbfbf" points="156.5,-112.5 156.5,-131.5 236.5,-131.5 236.5,-112.5 156.5,-112.5"/>
<text text-anchor="middle" x="196.5" y="-119.5" font-family="Helvetica,sans-Serif" font-size="10.00">../patchlevel.h</text>
</g>
<!-- Node1&#45;&gt;Node8 -->
<g id="edge8" class="edge"><title>Node1&#45;&gt;Node8</title>
<path fill="none" stroke="midnightblue" d="M105.852,-168.324C123.172,-159.664 150.015,-146.242 170.002,-136.249"/>
<polygon fill="midnightblue" stroke="midnightblue" points="171.812,-139.257 179.191,-131.655 168.681,-132.996 171.812,-139.257"/>
</g>
<!-- Node4&#45;&gt;Node2 -->
<g id="edge7" class="edge"><title>Node4&#45;&gt;Node2</title>
<path fill="none" stroke="midnightblue" d="M104.076,-112.324C88.9605,-103.822 65.6846,-90.7288 48.0288,-80.7975"/>
<polygon fill="midnightblue" stroke="midnightblue" points="49.3175,-77.5066 38.8858,-75.6545 45.8856,-83.6077 49.3175,-77.5066"/>
</g>
<!-- Node5 -->
<g id="node5" class="node"><title>Node5</title>
<g id="a_node5"><a xlink:href="../../df/dad/rle__config_8h.html" target="_top" xlink:title="rle_config.h">
<polygon fill="white" stroke="black" points="84,-56.5 84,-75.5 155,-75.5 155,-56.5 84,-56.5"/>
<text text-anchor="middle" x="119.5" y="-63.5" font-family="Helvetica,sans-Serif" font-size="10.00">rle_config.h</text>
</a>
</g>
</g>
<!-- Node4&#45;&gt;Node5 -->
<g id="edge4" class="edge"><title>Node4&#45;&gt;Node5</title>
<path fill="none" stroke="midnightblue" d="M119.5,-112.083C119.5,-105.006 119.5,-94.8611 119.5,-85.9865"/>
<polygon fill="midnightblue" stroke="midnightblue" points="123,-85.751 119.5,-75.7511 116,-85.7511 123,-85.751"/>
</g>
<!-- Node6 -->
<g id="node6" class="node"><title>Node6</title>
<polygon fill="white" stroke="#bfbfbf" points="61,-0.5 61,-19.5 110,-19.5 110,-0.5 61,-0.5"/>
<text text-anchor="middle" x="85.5" y="-7.5" font-family="Helvetica,sans-Serif" font-size="10.00">stdlib.h</text>
</g>
<!-- Node5&#45;&gt;Node6 -->
<g id="edge5" class="edge"><title>Node5&#45;&gt;Node6</title>
<path fill="none" stroke="midnightblue" d="M113.886,-56.083C109.133,-48.5341 102.182,-37.4948 96.3484,-28.2298"/>
<polygon fill="midnightblue" stroke="midnightblue" points="99.2999,-26.3486 91.0099,-19.7511 93.3763,-30.0783 99.2999,-26.3486"/>
</g>
<!-- Node7 -->
<g id="node7" class="node"><title>Node7</title>
<polygon fill="white" stroke="#bfbfbf" points="128,-0.5 128,-19.5 179,-19.5 179,-0.5 128,-0.5"/>
<text text-anchor="middle" x="153.5" y="-7.5" font-family="Helvetica,sans-Serif" font-size="10.00">string.h</text>
</g>
<!-- Node5&#45;&gt;Node7 -->
<g id="edge6" class="edge"><title>Node5&#45;&gt;Node7</title>
<path fill="none" stroke="midnightblue" d="M125.114,-56.083C129.867,-48.5341 136.818,-37.4948 142.652,-28.2298"/>
<polygon fill="midnightblue" stroke="midnightblue" points="145.624,-30.0783 147.99,-19.7511 139.7,-26.3486 145.624,-30.0783"/>
</g>
</g>
</svg>
