<?xml version="1.0" encoding="UTF-8" standalone="no"?>
<!DOCTYPE svg PUBLIC "-//W3C//DTD SVG 1.1//EN"
 "http://www.w3.org/Graphics/SVG/1.1/DTD/svg11.dtd">
<!-- Generated by graphviz version 2.38.0 (20140413.2041)
 -->
<!-- Title: rle_get_setup Pages: 1 -->
<svg width="376pt" height="142pt"
 viewBox="0.00 0.00 376.00 142.00" xmlns="http://www.w3.org/2000/svg" xmlns:xlink="http://www.w3.org/1999/xlink">
<g id="graph0" class="graph" transform="scale(1 1) rotate(0) translate(4 138)">
<title>rle_get_setup</title>
<polygon fill="white" stroke="none" points="-4,4 -4,-138 372,-138 372,4 -4,4"/>
<!-- Node1 -->
<g id="node1" class="node"><title>Node1</title>
<polygon fill="#bfbfbf" stroke="black" points="0,-57.5 0,-76.5 81,-76.5 81,-57.5 0,-57.5"/>
<text text-anchor="middle" x="40.5" y="-64.5" font-family="Helvetica,sans-Serif" font-size="10.00">rle_get_setup</text>
</g>
<!-- Node2 -->
<g id="node2" class="node"><title>Node2</title>
<g id="a_node2"><a xlink:href="../../dc/d11/getami_8c.html#a3a79557c0de5078d1ea9206ce5eb3e77" target="_top" xlink:title="display_rle">
<polygon fill="white" stroke="black" points="131,-114.5 131,-133.5 199,-133.5 199,-114.5 131,-114.5"/>
<text text-anchor="middle" x="165" y="-121.5" font-family="Helvetica,sans-Serif" font-size="10.00">display_rle</text>
</a>
</g>
</g>
<!-- Node1&#45;&gt;Node2 -->
<g id="edge1" class="edge"><title>Node1&#45;&gt;Node2</title>
<path fill="none" stroke="midnightblue" d="M68.8275,-81.4347C83.0556,-88.776 100.817,-97.6714 117,-105 124.055,-108.195 131.814,-111.439 138.958,-114.32"/>
<polygon fill="midnightblue" stroke="midnightblue" points="70.0916,-78.1472 59.6047,-76.6389 66.8622,-84.3577 70.0916,-78.1472"/>
</g>
<!-- Node3 -->
<g id="node3" class="node"><title>Node3</title>
<g id="a_node3"><a xlink:href="../../dc/d11/getami_8c.html#aa654afe741816fa93d1cd7e49ef583ec" target="_top" xlink:title="find_most_used">
<polygon fill="white" stroke="black" points="119.5,-76.5 119.5,-95.5 210.5,-95.5 210.5,-76.5 119.5,-76.5"/>
<text text-anchor="middle" x="165" y="-83.5" font-family="Helvetica,sans-Serif" font-size="10.00">find_most_used</text>
</a>
</g>
</g>
<!-- Node1&#45;&gt;Node3 -->
<g id="edge2" class="edge"><title>Node1&#45;&gt;Node3</title>
<path fill="none" stroke="midnightblue" d="M91.1898,-74.707C100.503,-76.1514 110.186,-77.6533 119.335,-79.0723"/>
<polygon fill="midnightblue" stroke="midnightblue" points="91.6906,-71.2429 81.2722,-73.1688 90.6176,-78.1602 91.6906,-71.2429"/>
</g>
<!-- Node4 -->
<g id="node4" class="node"><title>Node4</title>
<g id="a_node4"><a xlink:href="../../d4/dc6/interfaceRLE.html#a151be2ba0debedc4c36f7305a74354ec" target="_top" xlink:title="&#45;[RLE open:]">
<polygon fill="white" stroke="black" points="127.5,-38.5 127.5,-57.5 202.5,-57.5 202.5,-38.5 127.5,-38.5"/>
<text text-anchor="middle" x="165" y="-45.5" font-family="Helvetica,sans-Serif" font-size="10.00">&#45;[RLE open:]</text>
</a>
</g>
</g>
<!-- Node1&#45;&gt;Node4 -->
<g id="edge3" class="edge"><title>Node1&#45;&gt;Node4</title>
<path fill="none" stroke="midnightblue" d="M91.2239,-59.2877C103.296,-57.4153 115.988,-55.4467 127.332,-53.6874"/>
<polygon fill="midnightblue" stroke="midnightblue" points="90.6176,-55.8398 81.2722,-60.8312 91.6906,-62.7571 90.6176,-55.8398"/>
</g>
<!-- Node6 -->
<g id="node6" class="node"><title>Node6</title>
<g id="a_node6"><a xlink:href="../../d1/d55/rletoppm_8c.html#a613466880d5af08f3e98a3d2068ce8bc" target="_top" xlink:title="read_rle_header">
<polygon fill="white" stroke="black" points="117,-0.5 117,-19.5 213,-19.5 213,-0.5 117,-0.5"/>
<text text-anchor="middle" x="165" y="-7.5" font-family="Helvetica,sans-Serif" font-size="10.00">read_rle_header</text>
</a>
</g>
</g>
<!-- Node1&#45;&gt;Node6 -->
<g id="edge5" class="edge"><title>Node1&#45;&gt;Node6</title>
<path fill="none" stroke="midnightblue" d="M68.8275,-52.5653C83.0556,-45.224 100.817,-36.3286 117,-29 124.055,-25.8049 131.814,-22.5613 138.958,-19.6801"/>
<polygon fill="midnightblue" stroke="midnightblue" points="66.8622,-49.6423 59.6047,-57.3611 70.0916,-55.8528 66.8622,-49.6423"/>
</g>
<!-- Node5 -->
<g id="node5" class="node"><title>Node5</title>
<g id="a_node5"><a xlink:href="../../dd/d24/classMyapp.html#a9f791114f47990ec39e577e3c2af34b6" target="_top" xlink:title="&#45;[Myapp appOpenFile\l:type:]">
<polygon fill="white" stroke="black" points="249,-33 249,-63 368,-63 368,-33 249,-33"/>
<text text-anchor="start" x="257" y="-51" font-family="Helvetica,sans-Serif" font-size="10.00">&#45;[Myapp appOpenFile</text>
<text text-anchor="middle" x="308.5" y="-40" font-family="Helvetica,sans-Serif" font-size="10.00">:type:]</text>
</a>
</g>
</g>
<!-- Node4&#45;&gt;Node5 -->
<g id="edge4" class="edge"><title>Node4&#45;&gt;Node5</title>
<path fill="none" stroke="midnightblue" d="M213.058,-48C224.552,-48 236.989,-48 248.947,-48"/>
<polygon fill="midnightblue" stroke="midnightblue" points="212.808,-44.5001 202.808,-48 212.808,-51.5001 212.808,-44.5001"/>
</g>
</g>
</svg>
