<?xml version="1.0" encoding="UTF-8" standalone="no"?>
<!DOCTYPE svg PUBLIC "-//W3C//DTD SVG 1.1//EN"
 "http://www.w3.org/Graphics/SVG/1.1/DTD/svg11.dtd">
<!-- Generated by graphviz version 2.38.0 (20140413.2041)
 -->
<!-- Title: sig_block Pages: 1 -->
<svg width="478pt" height="256pt"
 viewBox="0.00 0.00 478.00 256.00" xmlns="http://www.w3.org/2000/svg" xmlns:xlink="http://www.w3.org/1999/xlink">
<g id="graph0" class="graph" transform="scale(1 1) rotate(0) translate(4 252)">
<title>sig_block</title>
<polygon fill="white" stroke="none" points="-4,4 -4,-252 474,-252 474,4 -4,4"/>
<!-- Node1 -->
<g id="node1" class="node"><title>Node1</title>
<polygon fill="#bfbfbf" stroke="black" points="0,-190.5 0,-209.5 60,-209.5 60,-190.5 0,-190.5"/>
<text text-anchor="middle" x="30" y="-197.5" font-family="Helvetica,sans-Serif" font-size="10.00">sig_block</text>
</g>
<!-- Node2 -->
<g id="node2" class="node"><title>Node2</title>
<g id="a_node2"><a xlink:href="../../d9/dea/getcx3d_8c.html#ac43e38fef452c4a15d14abb67019a1b5" target="_top" xlink:title="getcx3d">
<polygon fill="white" stroke="black" points="96,-228.5 96,-247.5 150,-247.5 150,-228.5 96,-228.5"/>
<text text-anchor="middle" x="123" y="-235.5" font-family="Helvetica,sans-Serif" font-size="10.00">getcx3d</text>
</a>
</g>
</g>
<!-- Node1&#45;&gt;Node2 -->
<g id="edge1" class="edge"><title>Node1&#45;&gt;Node2</title>
<path fill="none" stroke="midnightblue" d="M63.4694,-213.559C75.234,-218.471 88.268,-223.914 99.0442,-228.414"/>
<polygon fill="midnightblue" stroke="midnightblue" points="64.5396,-210.213 53.9631,-209.589 61.8422,-216.672 64.5396,-210.213"/>
</g>
<!-- Node3 -->
<g id="node3" class="node"><title>Node3</title>
<g id="a_node3"><a xlink:href="../../d9/dea/getcx3d_8c.html#a0708a0954f39ecdc7aa901286295ad01" target="_top" xlink:title="main">
<polygon fill="white" stroke="black" points="431,-190.5 431,-209.5 470,-209.5 470,-190.5 431,-190.5"/>
<text text-anchor="middle" x="450.5" y="-197.5" font-family="Helvetica,sans-Serif" font-size="10.00">main</text>
</a>
</g>
</g>
<!-- Node1&#45;&gt;Node3 -->
<g id="edge12" class="edge"><title>Node1&#45;&gt;Node3</title>
<path fill="none" stroke="midnightblue" d="M70.1619,-200C157.793,-200 366.994,-200 430.742,-200"/>
<polygon fill="midnightblue" stroke="midnightblue" points="70.0959,-196.5 60.0958,-200 70.0958,-203.5 70.0959,-196.5"/>
</g>
<!-- Node4 -->
<g id="node4" class="node"><title>Node4</title>
<g id="a_node4"><a xlink:href="../../d9/dea/getcx3d_8c.html#af4152c13a06d002f268af780c0433c3a" target="_top" xlink:title="done">
<polygon fill="white" stroke="black" points="102.5,-95.5 102.5,-114.5 143.5,-114.5 143.5,-95.5 102.5,-95.5"/>
<text text-anchor="middle" x="123" y="-102.5" font-family="Helvetica,sans-Serif" font-size="10.00">done</text>
</a>
</g>
</g>
<!-- Node1&#45;&gt;Node4 -->
<g id="edge3" class="edge"><title>Node1&#45;&gt;Node4</title>
<path fill="none" stroke="midnightblue" d="M47.3158,-182.967C66.433,-163.01 97.4423,-130.637 112.791,-114.614"/>
<polygon fill="midnightblue" stroke="midnightblue" points="44.7858,-180.549 40.3959,-190.191 49.8408,-185.391 44.7858,-180.549"/>
</g>
<!-- Node2&#45;&gt;Node3 -->
<g id="edge2" class="edge"><title>Node2&#45;&gt;Node3</title>
<path fill="none" stroke="midnightblue" d="M160.459,-236.66C212.723,-234.312 311.815,-228.27 395,-214 407.132,-211.919 420.524,-208.495 430.997,-205.554"/>
<polygon fill="midnightblue" stroke="midnightblue" points="160.185,-233.168 150.344,-237.094 160.485,-240.162 160.185,-233.168"/>
</g>
<!-- Node5 -->
<g id="node5" class="node"><title>Node5</title>
<g id="a_node5"><a xlink:href="../../dc/d11/getami_8c.html#a7be6d508b8d11374d4aef0a66817d9f0" target="_top" xlink:title="main">
<polygon fill="white" stroke="black" points="222,-152.5 222,-171.5 261,-171.5 261,-152.5 222,-152.5"/>
<text text-anchor="middle" x="241.5" y="-159.5" font-family="Helvetica,sans-Serif" font-size="10.00">main</text>
</a>
</g>
</g>
<!-- Node4&#45;&gt;Node5 -->
<g id="edge4" class="edge"><title>Node4&#45;&gt;Node5</title>
<path fill="none" stroke="midnightblue" d="M146.33,-120.296C157.847,-127.765 172.318,-136.514 186,-143 197.59,-148.494 211.215,-153.244 221.942,-156.62"/>
<polygon fill="midnightblue" stroke="midnightblue" points="148.069,-117.25 137.798,-114.649 144.205,-123.087 148.069,-117.25"/>
</g>
<!-- Node6 -->
<g id="node6" class="node"><title>Node6</title>
<g id="a_node6"><a xlink:href="../../d1/dad/giftorle_8c.html#acfacce8960cdd8b90157249854f90f14" target="_top" xlink:title="GetCode">
<polygon fill="white" stroke="black" points="212,-114.5 212,-133.5 271,-133.5 271,-114.5 212,-114.5"/>
<text text-anchor="middle" x="241.5" y="-121.5" font-family="Helvetica,sans-Serif" font-size="10.00">GetCode</text>
</a>
</g>
</g>
<!-- Node4&#45;&gt;Node6 -->
<g id="edge5" class="edge"><title>Node4&#45;&gt;Node6</title>
<path fill="none" stroke="midnightblue" d="M153.664,-109.838C171.544,-112.754 194.202,-116.449 211.889,-119.334"/>
<polygon fill="midnightblue" stroke="midnightblue" points="154.196,-106.378 143.763,-108.223 153.069,-113.287 154.196,-106.378"/>
</g>
<!-- Node7 -->
<g id="node7" class="node"><title>Node7</title>
<g id="a_node7"><a xlink:href="../../da/d12/sig_8c.html#a7e0322bc0848d568cedd96d41c44706c" target="_top" xlink:title="sig_handler">
<polygon fill="white" stroke="black" points="205.5,-76.5 205.5,-95.5 277.5,-95.5 277.5,-76.5 205.5,-76.5"/>
<text text-anchor="middle" x="241.5" y="-83.5" font-family="Helvetica,sans-Serif" font-size="10.00">sig_handler</text>
</a>
</g>
</g>
<!-- Node4&#45;&gt;Node7 -->
<g id="edge6" class="edge"><title>Node4&#45;&gt;Node7</title>
<path fill="none" stroke="midnightblue" d="M153.915,-100.121C169.522,-97.5758 188.717,-94.4453 205.064,-91.7792"/>
<polygon fill="midnightblue" stroke="midnightblue" points="153.069,-96.7128 143.763,-101.777 154.196,-103.622 153.069,-96.7128"/>
</g>
<!-- Node9 -->
<g id="node9" class="node"><title>Node9</title>
<g id="a_node9"><a xlink:href="../../de/d5e/vcrtorle_8c.html#a66a07ca95e40cad3e7371fa5b9702470" target="_top" xlink:title="ParseVICARHeader">
<polygon fill="white" stroke="black" points="186,-38.5 186,-57.5 297,-57.5 297,-38.5 186,-38.5"/>
<text text-anchor="middle" x="241.5" y="-45.5" font-family="Helvetica,sans-Serif" font-size="10.00">ParseVICARHeader</text>
</a>
</g>
</g>
<!-- Node4&#45;&gt;Node9 -->
<g id="edge9" class="edge"><title>Node4&#45;&gt;Node9</title>
<path fill="none" stroke="midnightblue" d="M146.33,-89.7036C157.847,-82.2352 172.318,-73.4858 186,-67 193.425,-63.4805 201.685,-60.2663 209.483,-57.5229"/>
<polygon fill="midnightblue" stroke="midnightblue" points="144.205,-86.9127 137.798,-95.3508 148.069,-92.7499 144.205,-86.9127"/>
</g>
<!-- Node11 -->
<g id="node11" class="node"><title>Node11</title>
<g id="a_node11"><a xlink:href="../../dd/d17/x11__stuff_8c.html#aa8509763c57678ec28bcda93fed61e59" target="_top" xlink:title="init_color">
<polygon fill="white" stroke="black" points="212,-0.5 212,-19.5 271,-19.5 271,-0.5 212,-0.5"/>
<text text-anchor="middle" x="241.5" y="-7.5" font-family="Helvetica,sans-Serif" font-size="10.00">init_color</text>
</a>
</g>
</g>
<!-- Node4&#45;&gt;Node11 -->
<g id="edge11" class="edge"><title>Node4&#45;&gt;Node11</title>
<path fill="none" stroke="midnightblue" d="M134.658,-86.8289C145.562,-69.6966 163.993,-44.4127 186,-29 193.715,-23.5966 203.112,-19.5996 211.916,-16.7047"/>
<polygon fill="midnightblue" stroke="midnightblue" points="131.649,-85.0405 129.4,-95.3938 137.615,-88.7028 131.649,-85.0405"/>
</g>
<!-- Node8 -->
<g id="node8" class="node"><title>Node8</title>
<g id="a_node8"><a xlink:href="../../de/d62/sig_8h.html#a009d6e3ff0c93e9e7a7d4dcab40b8dad" target="_top" xlink:title="sig_setup">
<polygon fill="white" stroke="black" points="333,-114.5 333,-133.5 395,-133.5 395,-114.5 333,-114.5"/>
<text text-anchor="middle" x="364" y="-121.5" font-family="Helvetica,sans-Serif" font-size="10.00">sig_setup</text>
</a>
</g>
</g>
<!-- Node7&#45;&gt;Node8 -->
<g id="edge7" class="edge"><title>Node7&#45;&gt;Node8</title>
<path fill="none" stroke="midnightblue" d="M282.71,-98.6804C298.992,-103.815 317.477,-109.644 332.602,-114.414"/>
<polygon fill="midnightblue" stroke="midnightblue" points="283.497,-95.2586 272.907,-95.589 281.392,-101.935 283.497,-95.2586"/>
</g>
<!-- Node8&#45;&gt;Node3 -->
<g id="edge8" class="edge"><title>Node8&#45;&gt;Node3</title>
<path fill="none" stroke="midnightblue" d="M383.337,-140.493C400.311,-155.759 424.961,-177.93 438.885,-190.453"/>
<polygon fill="midnightblue" stroke="midnightblue" points="385.478,-137.71 375.702,-133.625 380.797,-142.915 385.478,-137.71"/>
</g>
<!-- Node10 -->
<g id="node10" class="node"><title>Node10</title>
<g id="a_node10"><a xlink:href="../../de/d5e/vcrtorle_8c.html#afced8478b91af5c169926dfa4426333d" target="_top" xlink:title="main">
<polygon fill="white" stroke="black" points="344.5,-38.5 344.5,-57.5 383.5,-57.5 383.5,-38.5 344.5,-38.5"/>
<text text-anchor="middle" x="364" y="-45.5" font-family="Helvetica,sans-Serif" font-size="10.00">main</text>
</a>
</g>
</g>
<!-- Node9&#45;&gt;Node10 -->
<g id="edge10" class="edge"><title>Node9&#45;&gt;Node10</title>
<path fill="none" stroke="midnightblue" d="M307.459,-48C320.973,-48 334.168,-48 344.304,-48"/>
<polygon fill="midnightblue" stroke="midnightblue" points="307.109,-44.5001 297.109,-48 307.109,-51.5001 307.109,-44.5001"/>
</g>
</g>
</svg>
