<?xml version="1.0" encoding="UTF-8" standalone="no"?>
<!DOCTYPE svg PUBLIC "-//W3C//DTD SVG 1.1//EN"
 "http://www.w3.org/Graphics/SVG/1.1/DTD/svg11.dtd">
<!-- Generated by graphviz version 2.38.0 (20140413.2041)
 -->
<!-- Title: main Pages: 1 -->
<svg width="403pt" height="446pt"
 viewBox="0.00 0.00 403.00 446.00" xmlns="http://www.w3.org/2000/svg" xmlns:xlink="http://www.w3.org/1999/xlink">
<g id="graph0" class="graph" transform="scale(1 1) rotate(0) translate(4 442)">
<title>main</title>
<polygon fill="white" stroke="none" points="-4,4 -4,-442 399,-442 399,4 -4,4"/>
<!-- Node1 -->
<g id="node1" class="node"><title>Node1</title>
<polygon fill="#bfbfbf" stroke="black" points="0,-171.5 0,-190.5 39,-190.5 39,-171.5 0,-171.5"/>
<text text-anchor="middle" x="19.5" y="-178.5" font-family="Helvetica,sans-Serif" font-size="10.00">main</text>
</g>
<!-- Node2 -->
<g id="node2" class="node"><title>Node2</title>
<g id="a_node2"><a xlink:href="../../d4/db0/scanargs_8c.html#a7ea6d702c0484056c8504d6ce7fede08" target="_top" xlink:title="scanargs">
<polygon fill="white" stroke="black" points="85,-399.5 85,-418.5 145,-418.5 145,-399.5 85,-399.5"/>
<text text-anchor="middle" x="115" y="-406.5" font-family="Helvetica,sans-Serif" font-size="10.00">scanargs</text>
</a>
</g>
</g>
<!-- Node1&#45;&gt;Node2 -->
<g id="edge1" class="edge"><title>Node1&#45;&gt;Node2</title>
<path fill="none" stroke="midnightblue" d="M21.5156,-190.788C24.9133,-220.078 37.8434,-308.853 75,-371 79.8117,-379.048 86.7494,-386.564 93.4434,-392.752"/>
<polygon fill="midnightblue" stroke="midnightblue" points="91.2032,-395.442 101.048,-399.359 95.7943,-390.158 91.2032,-395.442"/>
</g>
<!-- Node4 -->
<g id="node4" class="node"><title>Node4</title>
<g id="a_node4"><a xlink:href="../../d8/d30/cmd__name_8c.html#a271249070fdd12c176777c77d76f888f" target="_top" xlink:title="cmd_name">
<polygon fill="white" stroke="black" points="81,-342.5 81,-361.5 149,-361.5 149,-342.5 81,-342.5"/>
<text text-anchor="middle" x="115" y="-349.5" font-family="Helvetica,sans-Serif" font-size="10.00">cmd_name</text>
</a>
</g>
</g>
<!-- Node1&#45;&gt;Node4 -->
<g id="edge3" class="edge"><title>Node1&#45;&gt;Node4</title>
<path fill="none" stroke="midnightblue" d="M21.4683,-190.825C24.538,-217.078 36.264,-289.791 75,-333 76.1752,-334.311 77.4609,-335.541 78.8272,-336.694"/>
<polygon fill="midnightblue" stroke="midnightblue" points="77.0887,-339.744 87.3244,-342.479 81.0285,-333.958 77.0887,-339.744"/>
</g>
<!-- Node5 -->
<g id="node5" class="node"><title>Node5</title>
<g id="a_node5"><a xlink:href="../../d8/def/rle__addhist_8c.html#a4f9433d6e4e203d0ecea1c7d3837afc3" target="_top" xlink:title="rle_addhist">
<polygon fill="white" stroke="black" points="80.5,-304.5 80.5,-323.5 149.5,-323.5 149.5,-304.5 80.5,-304.5"/>
<text text-anchor="middle" x="115" y="-311.5" font-family="Helvetica,sans-Serif" font-size="10.00">rle_addhist</text>
</a>
</g>
</g>
<!-- Node1&#45;&gt;Node5 -->
<g id="edge4" class="edge"><title>Node1&#45;&gt;Node5</title>
<path fill="none" stroke="midnightblue" d="M27.2243,-190.565C42.7155,-212.601 81.1269,-267.239 101.247,-295.859"/>
<polygon fill="midnightblue" stroke="midnightblue" points="98.4699,-297.995 107.084,-304.163 104.196,-293.969 98.4699,-297.995"/>
</g>
<!-- Node11 -->
<g id="node11" class="node"><title>Node11</title>
<g id="a_node11"><a xlink:href="../../de/d4e/rle__open__f_8c.html#a89733a45961817885603ae01210290b7" target="_top" xlink:title="rle_open_f">
<polygon fill="white" stroke="black" points="81,-114.5 81,-133.5 149,-133.5 149,-114.5 81,-114.5"/>
<text text-anchor="middle" x="115" y="-121.5" font-family="Helvetica,sans-Serif" font-size="10.00">rle_open_f</text>
</a>
</g>
</g>
<!-- Node1&#45;&gt;Node11 -->
<g id="edge11" class="edge"><title>Node1&#45;&gt;Node11</title>
<path fill="none" stroke="midnightblue" d="M36.361,-171.331C50.9559,-162.433 72.8209,-149.104 89.632,-138.855"/>
<polygon fill="midnightblue" stroke="midnightblue" points="91.6566,-141.72 98.3732,-133.526 88.0129,-135.743 91.6566,-141.72"/>
</g>
<!-- Node15 -->
<g id="node15" class="node"><title>Node15</title>
<g id="a_node15"><a xlink:href="../../d9/d2a/rle__putrow_8c.html#af88a82b331cd6f425d2a2cc1623944c6" target="_top" xlink:title="rle_put_setup">
<polygon fill="white" stroke="black" points="75,-76.5 75,-95.5 155,-95.5 155,-76.5 75,-76.5"/>
<text text-anchor="middle" x="115" y="-83.5" font-family="Helvetica,sans-Serif" font-size="10.00">rle_put_setup</text>
</a>
</g>
</g>
<!-- Node1&#45;&gt;Node15 -->
<g id="edge16" class="edge"><title>Node1&#45;&gt;Node15</title>
<path fill="none" stroke="midnightblue" d="M25.3196,-171.43C33.6089,-155.772 51.9217,-124.478 75,-105 76.7303,-103.54 78.592,-102.16 80.5304,-100.863"/>
<polygon fill="midnightblue" stroke="midnightblue" points="82.4854,-103.774 89.3503,-95.7043 78.9513,-97.7318 82.4854,-103.774"/>
</g>
<!-- Node17 -->
<g id="node17" class="node"><title>Node17</title>
<g id="a_node17"><a xlink:href="../../da/dbc/rle__row__alc_8c.html#abf83029f1ab364a8cb72524f58d70a3b" target="_top" xlink:title="rle_row_alloc">
<polygon fill="white" stroke="black" points="202,-190.5 202,-209.5 282,-209.5 282,-190.5 202,-190.5"/>
<text text-anchor="middle" x="242" y="-197.5" font-family="Helvetica,sans-Serif" font-size="10.00">rle_row_alloc</text>
</a>
</g>
</g>
<!-- Node1&#45;&gt;Node17 -->
<g id="edge18" class="edge"><title>Node1&#45;&gt;Node17</title>
<path fill="none" stroke="midnightblue" d="M39.2997,-182.62C72.6771,-185.496 143.297,-191.581 191.459,-195.731"/>
<polygon fill="midnightblue" stroke="midnightblue" points="191.411,-199.24 201.674,-196.611 192.012,-192.266 191.411,-199.24"/>
</g>
<!-- Node18 -->
<g id="node18" class="node"><title>Node18</title>
<g id="a_node18"><a xlink:href="../../de/dc5/hilbert_8c.html#a144cb0e1a8acd65d46a4709ea66f8e60" target="_top" xlink:title="hilbert_c2i">
<polygon fill="white" stroke="black" points="82.5,-38.5 82.5,-57.5 147.5,-57.5 147.5,-38.5 82.5,-38.5"/>
<text text-anchor="middle" x="115" y="-45.5" font-family="Helvetica,sans-Serif" font-size="10.00">hilbert_c2i</text>
</a>
</g>
</g>
<!-- Node1&#45;&gt;Node18 -->
<g id="edge21" class="edge"><title>Node1&#45;&gt;Node18</title>
<path fill="none" stroke="midnightblue" d="M22.7457,-171.491C28.2132,-150.203 44.0911,-98.1381 75,-67 76.3928,-65.5969 77.91,-64.2817 79.5115,-63.0512"/>
<polygon fill="midnightblue" stroke="midnightblue" points="81.5038,-65.9316 88.0352,-57.5895 77.7271,-60.0378 81.5038,-65.9316"/>
</g>
<!-- Node20 -->
<g id="node20" class="node"><title>Node20</title>
<g id="a_node20"><a xlink:href="../../de/dc5/hilbert_8c.html#a8629ab16dabd2e38edaf7ae55462ed38" target="_top" xlink:title="hilbert_i2c">
<polygon fill="white" stroke="black" points="82.5,-0.5 82.5,-19.5 147.5,-19.5 147.5,-0.5 82.5,-0.5"/>
<text text-anchor="middle" x="115" y="-7.5" font-family="Helvetica,sans-Serif" font-size="10.00">hilbert_i2c</text>
</a>
</g>
</g>
<!-- Node1&#45;&gt;Node20 -->
<g id="edge23" class="edge"><title>Node1&#45;&gt;Node20</title>
<path fill="none" stroke="midnightblue" d="M21.4683,-171.175C24.538,-144.922 36.264,-72.2091 75,-29 76.1752,-27.6891 77.4609,-26.4592 78.8272,-25.3065"/>
<polygon fill="midnightblue" stroke="midnightblue" points="81.0285,-28.0419 87.3244,-19.5206 77.0887,-22.2559 81.0285,-28.0419"/>
</g>
<!-- Node21 -->
<g id="node21" class="node"><title>Node21</title>
<g id="a_node21"><a xlink:href="../../d9/d2a/rle__putrow_8c.html#aa26532b01bc4f49b7383765cdc23ea72" target="_top" xlink:title="rle_putrow">
<polygon fill="white" stroke="black" points="82,-228.5 82,-247.5 148,-247.5 148,-228.5 82,-228.5"/>
<text text-anchor="middle" x="115" y="-235.5" font-family="Helvetica,sans-Serif" font-size="10.00">rle_putrow</text>
</a>
</g>
</g>
<!-- Node1&#45;&gt;Node21 -->
<g id="edge25" class="edge"><title>Node1&#45;&gt;Node21</title>
<path fill="none" stroke="midnightblue" d="M36.361,-190.669C50.9559,-199.567 72.8209,-212.896 89.632,-223.145"/>
<polygon fill="midnightblue" stroke="midnightblue" points="88.0129,-226.257 98.3732,-228.474 91.6566,-220.28 88.0129,-226.257"/>
</g>
<!-- Node23 -->
<g id="node23" class="node"><title>Node23</title>
<g id="a_node23"><a xlink:href="../../d9/d2a/rle__putrow_8c.html#af4fab734a5d227ad2ae95840f56fff3b" target="_top" xlink:title="rle_puteof">
<polygon fill="white" stroke="black" points="210,-152.5 210,-171.5 274,-171.5 274,-152.5 210,-152.5"/>
<text text-anchor="middle" x="242" y="-159.5" font-family="Helvetica,sans-Serif" font-size="10.00">rle_puteof</text>
</a>
</g>
</g>
<!-- Node1&#45;&gt;Node23 -->
<g id="edge28" class="edge"><title>Node1&#45;&gt;Node23</title>
<path fill="none" stroke="midnightblue" d="M39.2997,-179.38C74.6176,-176.337 151.635,-169.7 199.62,-165.566"/>
<polygon fill="midnightblue" stroke="midnightblue" points="200.023,-169.044 209.686,-164.698 199.422,-162.07 200.023,-169.044"/>
</g>
<!-- Node3 -->
<g id="node3" class="node"><title>Node3</title>
<g id="a_node3"><a xlink:href="../../d4/db0/scanargs_8c.html#a862219039664df6eb3cfced58addf830" target="_top" xlink:title="_do_scanargs">
<polygon fill="white" stroke="black" points="200,-418.5 200,-437.5 284,-437.5 284,-418.5 200,-418.5"/>
<text text-anchor="middle" x="242" y="-425.5" font-family="Helvetica,sans-Serif" font-size="10.00">_do_scanargs</text>
</a>
</g>
</g>
<!-- Node2&#45;&gt;Node3 -->
<g id="edge2" class="edge"><title>Node2&#45;&gt;Node3</title>
<path fill="none" stroke="midnightblue" d="M145.307,-413.455C158.44,-415.451 174.328,-417.866 189.353,-420.15"/>
<polygon fill="midnightblue" stroke="midnightblue" points="189.16,-423.66 199.572,-421.703 190.212,-416.74 189.16,-423.66"/>
</g>
<!-- Node6 -->
<g id="node6" class="node"><title>Node6</title>
<g id="a_node6"><a xlink:href="../../db/db2/rle__getcom_8c.html#a9cefd612c381bf82c9cdf1f3a3b12dd6" target="_top" xlink:title="rle_getcom">
<polygon fill="white" stroke="black" points="207.5,-380.5 207.5,-399.5 276.5,-399.5 276.5,-380.5 207.5,-380.5"/>
<text text-anchor="middle" x="242" y="-387.5" font-family="Helvetica,sans-Serif" font-size="10.00">rle_getcom</text>
</a>
</g>
</g>
<!-- Node5&#45;&gt;Node6 -->
<g id="edge5" class="edge"><title>Node5&#45;&gt;Node6</title>
<path fill="none" stroke="midnightblue" d="M139.066,-323.54C144.511,-326.244 150.142,-329.436 155,-333 173.759,-346.76 171.64,-358.099 191,-371 193.869,-372.912 196.957,-374.669 200.141,-376.275"/>
<polygon fill="midnightblue" stroke="midnightblue" points="198.71,-379.469 209.264,-380.409 201.6,-373.094 198.71,-379.469"/>
</g>
<!-- Node8 -->
<g id="node8" class="node"><title>Node8</title>
<g id="a_node8"><a xlink:href="../../d0/dcc/rletorla_8c.html#ab7e36af3707843f77cc5b4e831c2fa6d" target="_top" xlink:title="malloc">
<polygon fill="white" stroke="black" points="338.5,-266.5 338.5,-285.5 385.5,-285.5 385.5,-266.5 338.5,-266.5"/>
<text text-anchor="middle" x="362" y="-273.5" font-family="Helvetica,sans-Serif" font-size="10.00">malloc</text>
</a>
</g>
</g>
<!-- Node5&#45;&gt;Node8 -->
<g id="edge7" class="edge"><title>Node5&#45;&gt;Node8</title>
<path fill="none" stroke="midnightblue" d="M149.707,-310.124C185.396,-305.858 243.325,-298.471 293,-290 304.644,-288.014 317.338,-285.497 328.572,-283.147"/>
<polygon fill="midnightblue" stroke="midnightblue" points="329.353,-286.559 338.406,-281.055 327.897,-279.712 329.353,-286.559"/>
</g>
<!-- Node9 -->
<g id="node9" class="node"><title>Node9</title>
<g id="a_node9"><a xlink:href="../../df/da5/rle__putcom_8c.html#a6fa8528c32d14763efe2a534e409e321" target="_top" xlink:title="rle_putcom">
<polygon fill="white" stroke="black" points="208,-342.5 208,-361.5 276,-361.5 276,-342.5 208,-342.5"/>
<text text-anchor="middle" x="242" y="-349.5" font-family="Helvetica,sans-Serif" font-size="10.00">rle_putcom</text>
</a>
</g>
</g>
<!-- Node5&#45;&gt;Node9 -->
<g id="edge8" class="edge"><title>Node5&#45;&gt;Node9</title>
<path fill="none" stroke="midnightblue" d="M147.543,-323.589C163.383,-328.404 182.773,-334.299 199.776,-339.468"/>
<polygon fill="midnightblue" stroke="midnightblue" points="198.882,-342.854 209.467,-342.414 200.918,-336.157 198.882,-342.854"/>
</g>
<!-- Node7 -->
<g id="node7" class="node"><title>Node7</title>
<g id="a_node7"><a xlink:href="../../db/db2/rle__getcom_8c.html#a7502c8b599724ce86fee5df1311a2337" target="_top" xlink:title="match">
<polygon fill="white" stroke="black" points="339.5,-380.5 339.5,-399.5 384.5,-399.5 384.5,-380.5 339.5,-380.5"/>
<text text-anchor="middle" x="362" y="-387.5" font-family="Helvetica,sans-Serif" font-size="10.00">match</text>
</a>
</g>
</g>
<!-- Node6&#45;&gt;Node7 -->
<g id="edge6" class="edge"><title>Node6&#45;&gt;Node7</title>
<path fill="none" stroke="midnightblue" d="M276.814,-390C293.35,-390 313.136,-390 329.37,-390"/>
<polygon fill="midnightblue" stroke="midnightblue" points="329.456,-393.5 339.456,-390 329.456,-386.5 329.456,-393.5"/>
</g>
<!-- Node9&#45;&gt;Node8 -->
<g id="edge9" class="edge"><title>Node9&#45;&gt;Node8</title>
<path fill="none" stroke="midnightblue" d="M265.421,-342.433C274.232,-338.368 284.3,-333.336 293,-328 310.459,-317.291 328.827,-303.043 342.066,-292.169"/>
<polygon fill="midnightblue" stroke="midnightblue" points="344.526,-294.675 349.963,-285.582 340.042,-289.299 344.526,-294.675"/>
</g>
<!-- Node10 -->
<g id="node10" class="node"><title>Node10</title>
<g id="a_node10"><a xlink:href="../../df/da5/rle__putcom_8c.html#a7502c8b599724ce86fee5df1311a2337" target="_top" xlink:title="match">
<polygon fill="white" stroke="black" points="339.5,-342.5 339.5,-361.5 384.5,-361.5 384.5,-342.5 339.5,-342.5"/>
<text text-anchor="middle" x="362" y="-349.5" font-family="Helvetica,sans-Serif" font-size="10.00">match</text>
</a>
</g>
</g>
<!-- Node9&#45;&gt;Node10 -->
<g id="edge10" class="edge"><title>Node9&#45;&gt;Node10</title>
<path fill="none" stroke="midnightblue" d="M276.184,-352C292.735,-352 312.664,-352 329.044,-352"/>
<polygon fill="midnightblue" stroke="midnightblue" points="329.224,-355.5 339.224,-352 329.224,-348.5 329.224,-355.5"/>
</g>
<!-- Node12 -->
<g id="node12" class="node"><title>Node12</title>
<g id="a_node12"><a xlink:href="../../de/d4e/rle__open__f_8c.html#a5a0e62a00f907fce26e93b2f72adb2b0" target="_top" xlink:title="rle_open_f_noexit">
<polygon fill="white" stroke="black" points="191,-114.5 191,-133.5 293,-133.5 293,-114.5 191,-114.5"/>
<text text-anchor="middle" x="242" y="-121.5" font-family="Helvetica,sans-Serif" font-size="10.00">rle_open_f_noexit</text>
</a>
</g>
</g>
<!-- Node11&#45;&gt;Node12 -->
<g id="edge12" class="edge"><title>Node11&#45;&gt;Node12</title>
<path fill="none" stroke="midnightblue" d="M149.17,-124C158.816,-124 169.669,-124 180.444,-124"/>
<polygon fill="midnightblue" stroke="midnightblue" points="180.709,-127.5 190.709,-124 180.709,-120.5 180.709,-127.5"/>
</g>
<!-- Node12&#45;&gt;Node8 -->
<g id="edge14" class="edge"><title>Node12&#45;&gt;Node8</title>
<path fill="none" stroke="midnightblue" d="M278.235,-133.577C283.569,-136.062 288.712,-139.158 293,-143 327.953,-174.321 347.47,-227.827 355.908,-256.497"/>
<polygon fill="midnightblue" stroke="midnightblue" points="352.637,-257.798 358.693,-266.492 359.381,-255.919 352.637,-257.798"/>
</g>
<!-- Node13 -->
<g id="node13" class="node"><title>Node13</title>
<g id="a_node13"><a xlink:href="../../de/d4e/rle__open__f_8c.html#a84fda810ae9b9bde82a6391d0b264ead" target="_top" xlink:title="my_popen">
<polygon fill="white" stroke="black" points="329,-114.5 329,-133.5 395,-133.5 395,-114.5 329,-114.5"/>
<text text-anchor="middle" x="362" y="-121.5" font-family="Helvetica,sans-Serif" font-size="10.00">my_popen</text>
</a>
</g>
</g>
<!-- Node12&#45;&gt;Node13 -->
<g id="edge13" class="edge"><title>Node12&#45;&gt;Node13</title>
<path fill="none" stroke="midnightblue" d="M293.043,-124C301.523,-124 310.255,-124 318.518,-124"/>
<polygon fill="midnightblue" stroke="midnightblue" points="318.678,-127.5 328.678,-124 318.678,-120.5 318.678,-127.5"/>
</g>
<!-- Node14 -->
<g id="node14" class="node"><title>Node14</title>
<g id="a_node14"><a xlink:href="../../d0/dcc/rletorla_8c.html#aafde19f7d36ca163a143579c1b125b6d" target="_top" xlink:title="free">
<polygon fill="white" stroke="black" points="344.5,-152.5 344.5,-171.5 379.5,-171.5 379.5,-152.5 344.5,-152.5"/>
<text text-anchor="middle" x="362" y="-159.5" font-family="Helvetica,sans-Serif" font-size="10.00">free</text>
</a>
</g>
</g>
<!-- Node12&#45;&gt;Node14 -->
<g id="edge15" class="edge"><title>Node12&#45;&gt;Node14</title>
<path fill="none" stroke="midnightblue" d="M272.776,-133.589C291.813,-139.72 316.281,-147.599 334.618,-153.504"/>
<polygon fill="midnightblue" stroke="midnightblue" points="333.768,-156.907 344.359,-156.641 335.914,-150.244 333.768,-156.907"/>
</g>
<!-- Node16 -->
<g id="node16" class="node"><title>Node16</title>
<g id="a_node16"><a xlink:href="../../d9/d2a/rle__putrow_8c.html#a46d9789104d5d1f09253a808fdad5346" target="_top" xlink:title="rle_put_init">
<polygon fill="white" stroke="black" points="208,-76.5 208,-95.5 276,-95.5 276,-76.5 208,-76.5"/>
<text text-anchor="middle" x="242" y="-83.5" font-family="Helvetica,sans-Serif" font-size="10.00">rle_put_init</text>
</a>
</g>
</g>
<!-- Node15&#45;&gt;Node16 -->
<g id="edge17" class="edge"><title>Node15&#45;&gt;Node16</title>
<path fill="none" stroke="midnightblue" d="M155.208,-86C168.673,-86 183.821,-86 197.599,-86"/>
<polygon fill="midnightblue" stroke="midnightblue" points="197.818,-89.5001 207.818,-86 197.818,-82.5001 197.818,-89.5001"/>
</g>
<!-- Node17&#45;&gt;Node8 -->
<g id="edge19" class="edge"><title>Node17&#45;&gt;Node8</title>
<path fill="none" stroke="midnightblue" d="M273.104,-209.572C279.851,-212.223 286.832,-215.383 293,-219 312.147,-230.229 331.284,-246.876 344.355,-259.284"/>
<polygon fill="midnightblue" stroke="midnightblue" points="342.044,-261.918 351.656,-266.375 346.921,-256.897 342.044,-261.918"/>
</g>
<!-- Node17&#45;&gt;Node14 -->
<g id="edge20" class="edge"><title>Node17&#45;&gt;Node14</title>
<path fill="none" stroke="midnightblue" d="M272.776,-190.411C291.813,-184.28 316.281,-176.401 334.618,-170.496"/>
<polygon fill="midnightblue" stroke="midnightblue" points="335.914,-173.756 344.359,-167.359 333.768,-167.093 335.914,-173.756"/>
</g>
<!-- Node19 -->
<g id="node19" class="node"><title>Node19</title>
<g id="a_node19"><a xlink:href="../../de/dc5/hilbert_8c.html#a688ca0dd1118e26d6008de17026a0e7d" target="_top" xlink:title="calctables">
<polygon fill="white" stroke="black" points="210.5,-19.5 210.5,-38.5 273.5,-38.5 273.5,-19.5 210.5,-19.5"/>
<text text-anchor="middle" x="242" y="-26.5" font-family="Helvetica,sans-Serif" font-size="10.00">calctables</text>
</a>
</g>
</g>
<!-- Node18&#45;&gt;Node19 -->
<g id="edge22" class="edge"><title>Node18&#45;&gt;Node19</title>
<path fill="none" stroke="midnightblue" d="M147.543,-43.2055C163.475,-40.7839 182.997,-37.8165 200.071,-35.2212"/>
<polygon fill="midnightblue" stroke="midnightblue" points="200.971,-38.6247 210.332,-33.6616 199.919,-31.7042 200.971,-38.6247"/>
</g>
<!-- Node20&#45;&gt;Node19 -->
<g id="edge24" class="edge"><title>Node20&#45;&gt;Node19</title>
<path fill="none" stroke="midnightblue" d="M147.543,-14.7945C163.475,-17.2161 182.997,-20.1835 200.071,-22.7788"/>
<polygon fill="midnightblue" stroke="midnightblue" points="199.919,-26.2958 210.332,-24.3384 200.971,-19.3753 199.919,-26.2958"/>
</g>
<!-- Node21&#45;&gt;Node8 -->
<g id="edge26" class="edge"><title>Node21&#45;&gt;Node8</title>
<path fill="none" stroke="midnightblue" d="M148.275,-247.206C161.437,-250.69 176.859,-254.431 191,-257 238.195,-265.574 293.51,-270.892 327.91,-273.65"/>
<polygon fill="midnightblue" stroke="midnightblue" points="328.067,-277.172 338.308,-274.456 328.608,-270.193 328.067,-277.172"/>
</g>
<!-- Node22 -->
<g id="node22" class="node"><title>Node22</title>
<g id="a_node22"><a xlink:href="../../d9/d2a/rle__putrow_8c.html#aaa4133bf4a6cbf287444448497631f26" target="_top" xlink:title="findruns">
<polygon fill="white" stroke="black" points="215,-228.5 215,-247.5 269,-247.5 269,-228.5 215,-228.5"/>
<text text-anchor="middle" x="242" y="-235.5" font-family="Helvetica,sans-Serif" font-size="10.00">findruns</text>
</a>
</g>
</g>
<!-- Node21&#45;&gt;Node22 -->
<g id="edge27" class="edge"><title>Node21&#45;&gt;Node22</title>
<path fill="none" stroke="midnightblue" d="M148.191,-238C165.485,-238 186.864,-238 204.743,-238"/>
<polygon fill="midnightblue" stroke="midnightblue" points="204.808,-241.5 214.808,-238 204.808,-234.5 204.808,-241.5"/>
</g>
<!-- Node23&#45;&gt;Node14 -->
<g id="edge29" class="edge"><title>Node23&#45;&gt;Node14</title>
<path fill="none" stroke="midnightblue" d="M274.003,-162C292.752,-162 316.411,-162 334.322,-162"/>
<polygon fill="midnightblue" stroke="midnightblue" points="334.379,-165.5 344.379,-162 334.379,-158.5 334.379,-165.5"/>
</g>
</g>
</svg>
