<?xml version="1.0" encoding="UTF-8" standalone="no"?>
<!DOCTYPE svg PUBLIC "-//W3C//DTD SVG 1.1//EN"
 "http://www.w3.org/Graphics/SVG/1.1/DTD/svg11.dtd">
<!-- Generated by graphviz version 2.38.0 (20140413.2041)
 -->
<!-- Title: cnv/rlatorle.c Pages: 1 -->
<svg width="373pt" height="196pt"
 viewBox="0.00 0.00 372.50 196.00" xmlns="http://www.w3.org/2000/svg" xmlns:xlink="http://www.w3.org/1999/xlink">
<g id="graph0" class="graph" transform="scale(1 1) rotate(0) translate(4 192)">
<title>cnv/rlatorle.c</title>
<polygon fill="white" stroke="none" points="-4,4 -4,-192 368.5,-192 368.5,4 -4,4"/>
<!-- Node1 -->
<g id="node1" class="node"><title>Node1</title>
<polygon fill="#bfbfbf" stroke="black" points="159,-168.5 159,-187.5 236,-187.5 236,-168.5 159,-168.5"/>
<text text-anchor="middle" x="197.5" y="-175.5" font-family="Helvetica,sans-Serif" font-size="10.00">cnv/rlatorle.c</text>
</g>
<!-- Node2 -->
<g id="node2" class="node"><title>Node2</title>
<g id="a_node2"><a xlink:href="../../d7/d27/rle_8h.html" target="_top" xlink:title="rle.h">
<polygon fill="white" stroke="black" points="94,-112.5 94,-131.5 131,-131.5 131,-112.5 94,-112.5"/>
<text text-anchor="middle" x="112.5" y="-119.5" font-family="Helvetica,sans-Serif" font-size="10.00">rle.h</text>
</a>
</g>
</g>
<!-- Node1&#45;&gt;Node2 -->
<g id="edge1" class="edge"><title>Node1&#45;&gt;Node2</title>
<path fill="none" stroke="midnightblue" d="M183.843,-168.324C170.584,-159.9 150.232,-146.971 134.654,-137.074"/>
<polygon fill="midnightblue" stroke="midnightblue" points="136.44,-134.063 126.123,-131.655 132.687,-139.971 136.44,-134.063"/>
</g>
<!-- Node5 -->
<g id="node5" class="node"><title>Node5</title>
<polygon fill="white" stroke="#bfbfbf" points="108,-0.5 108,-19.5 159,-19.5 159,-0.5 108,-0.5"/>
<text text-anchor="middle" x="133.5" y="-7.5" font-family="Helvetica,sans-Serif" font-size="10.00">string.h</text>
</g>
<!-- Node1&#45;&gt;Node5 -->
<g id="edge6" class="edge"><title>Node1&#45;&gt;Node5</title>
<path fill="none" stroke="midnightblue" d="M194.059,-168.075C183.941,-141.832 154.144,-64.5453 140.485,-29.1165"/>
<polygon fill="midnightblue" stroke="midnightblue" points="143.666,-27.6396 136.803,-19.5681 137.135,-30.1578 143.666,-27.6396"/>
</g>
<!-- Node7 -->
<g id="node7" class="node"><title>Node7</title>
<g id="a_node7"><a xlink:href="../../de/d08/rla__header_8h.html" target="_top" xlink:title="rla_header.h">
<polygon fill="white" stroke="black" points="193,-112.5 193,-131.5 270,-131.5 270,-112.5 193,-112.5"/>
<text text-anchor="middle" x="231.5" y="-119.5" font-family="Helvetica,sans-Serif" font-size="10.00">rla_header.h</text>
</a>
</g>
</g>
<!-- Node1&#45;&gt;Node7 -->
<g id="edge7" class="edge"><title>Node1&#45;&gt;Node7</title>
<path fill="none" stroke="midnightblue" d="M203.114,-168.083C207.867,-160.534 214.818,-149.495 220.652,-140.23"/>
<polygon fill="midnightblue" stroke="midnightblue" points="223.624,-142.078 225.99,-131.751 217.7,-138.349 223.624,-142.078"/>
</g>
<!-- Node8 -->
<g id="node8" class="node"><title>Node8</title>
<g id="a_node8"><a xlink:href="../../de/d3b/rlb__header_8h.html" target="_top" xlink:title="rlb_header.h">
<polygon fill="white" stroke="black" points="288.5,-112.5 288.5,-131.5 364.5,-131.5 364.5,-112.5 288.5,-112.5"/>
<text text-anchor="middle" x="326.5" y="-119.5" font-family="Helvetica,sans-Serif" font-size="10.00">rlb_header.h</text>
</a>
</g>
</g>
<!-- Node1&#45;&gt;Node8 -->
<g id="edge8" class="edge"><title>Node1&#45;&gt;Node8</title>
<path fill="none" stroke="midnightblue" d="M217.94,-168.444C239.17,-159.557 272.599,-145.563 296.755,-135.451"/>
<polygon fill="midnightblue" stroke="midnightblue" points="298.282,-138.606 306.155,-131.516 295.579,-132.149 298.282,-138.606"/>
</g>
<!-- Node3 -->
<g id="node3" class="node"><title>Node3</title>
<g id="a_node3"><a xlink:href="../../df/dad/rle__config_8h.html" target="_top" xlink:title="rle_config.h">
<polygon fill="white" stroke="black" points="0,-56.5 0,-75.5 71,-75.5 71,-56.5 0,-56.5"/>
<text text-anchor="middle" x="35.5" y="-63.5" font-family="Helvetica,sans-Serif" font-size="10.00">rle_config.h</text>
</a>
</g>
</g>
<!-- Node2&#45;&gt;Node3 -->
<g id="edge2" class="edge"><title>Node2&#45;&gt;Node3</title>
<path fill="none" stroke="midnightblue" d="M100.129,-112.324C88.3415,-104.058 70.3677,-91.4527 56.3645,-81.6322"/>
<polygon fill="midnightblue" stroke="midnightblue" points="58.0376,-78.5307 47.8407,-75.6545 54.0184,-84.2619 58.0376,-78.5307"/>
</g>
<!-- Node6 -->
<g id="node6" class="node"><title>Node6</title>
<polygon fill="white" stroke="#bfbfbf" points="89,-56.5 89,-75.5 136,-75.5 136,-56.5 89,-56.5"/>
<text text-anchor="middle" x="112.5" y="-63.5" font-family="Helvetica,sans-Serif" font-size="10.00">stdio.h</text>
</g>
<!-- Node2&#45;&gt;Node6 -->
<g id="edge5" class="edge"><title>Node2&#45;&gt;Node6</title>
<path fill="none" stroke="midnightblue" d="M112.5,-112.083C112.5,-105.006 112.5,-94.8611 112.5,-85.9865"/>
<polygon fill="midnightblue" stroke="midnightblue" points="116,-85.751 112.5,-75.7511 109,-85.7511 116,-85.751"/>
</g>
<!-- Node4 -->
<g id="node4" class="node"><title>Node4</title>
<polygon fill="white" stroke="#bfbfbf" points="11,-0.5 11,-19.5 60,-19.5 60,-0.5 11,-0.5"/>
<text text-anchor="middle" x="35.5" y="-7.5" font-family="Helvetica,sans-Serif" font-size="10.00">stdlib.h</text>
</g>
<!-- Node3&#45;&gt;Node4 -->
<g id="edge3" class="edge"><title>Node3&#45;&gt;Node4</title>
<path fill="none" stroke="midnightblue" d="M35.5,-56.083C35.5,-49.0059 35.5,-38.8611 35.5,-29.9865"/>
<polygon fill="midnightblue" stroke="midnightblue" points="39.0001,-29.751 35.5,-19.7511 32.0001,-29.7511 39.0001,-29.751"/>
</g>
<!-- Node3&#45;&gt;Node5 -->
<g id="edge4" class="edge"><title>Node3&#45;&gt;Node5</title>
<path fill="none" stroke="midnightblue" d="M51.2454,-56.324C66.8187,-47.7428 90.8773,-34.486 108.959,-24.5224"/>
<polygon fill="midnightblue" stroke="midnightblue" points="110.724,-27.546 117.794,-19.6545 107.346,-21.4152 110.724,-27.546"/>
</g>
</g>
</svg>
