<?xml version="1.0" encoding="UTF-8" standalone="no"?>
<!DOCTYPE svg PUBLIC "-//W3C//DTD SVG 1.1//EN"
 "http://www.w3.org/Graphics/SVG/1.1/DTD/svg11.dtd">
<!-- Generated by graphviz version 2.38.0 (20140413.2041)
 -->
<!-- Title: tools/into.c Pages: 1 -->
<svg width="620pt" height="140pt"
 viewBox="0.00 0.00 620.00 140.00" xmlns="http://www.w3.org/2000/svg" xmlns:xlink="http://www.w3.org/1999/xlink">
<g id="graph0" class="graph" transform="scale(1 1) rotate(0) translate(4 136)">
<title>tools/into.c</title>
<polygon fill="white" stroke="none" points="-4,4 -4,-136 616,-136 616,4 -4,4"/>
<!-- Node1 -->
<g id="node1" class="node"><title>Node1</title>
<polygon fill="#bfbfbf" stroke="black" points="224,-112.5 224,-131.5 291,-131.5 291,-112.5 224,-112.5"/>
<text text-anchor="middle" x="257.5" y="-119.5" font-family="Helvetica,sans-Serif" font-size="10.00">tools/into.c</text>
</g>
<!-- Node2 -->
<g id="node2" class="node"><title>Node2</title>
<g id="a_node2"><a xlink:href="../../df/dad/rle__config_8h.html" target="_top" xlink:title="rle_config.h">
<polygon fill="white" stroke="black" points="38,-56.5 38,-75.5 109,-75.5 109,-56.5 38,-56.5"/>
<text text-anchor="middle" x="73.5" y="-63.5" font-family="Helvetica,sans-Serif" font-size="10.00">rle_config.h</text>
</a>
</g>
</g>
<!-- Node1&#45;&gt;Node2 -->
<g id="edge1" class="edge"><title>Node1&#45;&gt;Node2</title>
<path fill="none" stroke="midnightblue" d="M228.345,-112.444C196.987,-103.241 146.969,-88.5617 112.303,-78.3879"/>
<polygon fill="midnightblue" stroke="midnightblue" points="113.1,-74.9742 102.519,-75.5164 111.129,-81.6909 113.1,-74.9742"/>
</g>
<!-- Node3 -->
<g id="node3" class="node"><title>Node3</title>
<polygon fill="white" stroke="#bfbfbf" points="0,-0.5 0,-19.5 49,-19.5 49,-0.5 0,-0.5"/>
<text text-anchor="middle" x="24.5" y="-7.5" font-family="Helvetica,sans-Serif" font-size="10.00">stdlib.h</text>
</g>
<!-- Node1&#45;&gt;Node3 -->
<g id="edge5" class="edge"><title>Node1&#45;&gt;Node3</title>
<path fill="none" stroke="midnightblue" d="M223.836,-119.286C166.52,-115.607 53.7215,-104.808 28.5,-76 17.6872,-63.6495 17.8525,-44.4009 20.0216,-30.051"/>
<polygon fill="midnightblue" stroke="midnightblue" points="23.5383,-30.3037 22.0194,-19.8183 16.668,-28.9624 23.5383,-30.3037"/>
</g>
<!-- Node4 -->
<g id="node4" class="node"><title>Node4</title>
<polygon fill="white" stroke="#bfbfbf" points="97,-0.5 97,-19.5 148,-19.5 148,-0.5 97,-0.5"/>
<text text-anchor="middle" x="122.5" y="-7.5" font-family="Helvetica,sans-Serif" font-size="10.00">string.h</text>
</g>
<!-- Node1&#45;&gt;Node4 -->
<g id="edge11" class="edge"><title>Node1&#45;&gt;Node4</title>
<path fill="none" stroke="midnightblue" d="M225.137,-112.392C203.884,-105.414 176.586,-93.7757 157.5,-76 143.748,-63.1923 134.267,-43.7329 128.676,-29.4428"/>
<polygon fill="midnightblue" stroke="midnightblue" points="131.85,-27.9281 125.153,-19.7186 125.269,-30.3128 131.85,-27.9281"/>
</g>
<!-- Node5 -->
<g id="node5" class="node"><title>Node5</title>
<polygon fill="white" stroke="#bfbfbf" points="166,-56.5 166,-75.5 213,-75.5 213,-56.5 166,-56.5"/>
<text text-anchor="middle" x="189.5" y="-63.5" font-family="Helvetica,sans-Serif" font-size="10.00">stdio.h</text>
</g>
<!-- Node1&#45;&gt;Node5 -->
<g id="edge4" class="edge"><title>Node1&#45;&gt;Node5</title>
<path fill="none" stroke="midnightblue" d="M246.575,-112.324C236.325,-104.185 220.779,-91.8395 208.499,-82.0874"/>
<polygon fill="midnightblue" stroke="midnightblue" points="210.632,-79.3119 200.624,-75.8339 206.279,-84.7937 210.632,-79.3119"/>
</g>
<!-- Node6 -->
<g id="node6" class="node"><title>Node6</title>
<polygon fill="white" stroke="#bfbfbf" points="231,-56.5 231,-75.5 284,-75.5 284,-56.5 231,-56.5"/>
<text text-anchor="middle" x="257.5" y="-63.5" font-family="Helvetica,sans-Serif" font-size="10.00">unistd.h</text>
</g>
<!-- Node1&#45;&gt;Node6 -->
<g id="edge6" class="edge"><title>Node1&#45;&gt;Node6</title>
<path fill="none" stroke="midnightblue" d="M257.5,-112.083C257.5,-105.006 257.5,-94.8611 257.5,-85.9865"/>
<polygon fill="midnightblue" stroke="midnightblue" points="261,-85.751 257.5,-75.7511 254,-85.7511 261,-85.751"/>
</g>
<!-- Node7 -->
<g id="node7" class="node"><title>Node7</title>
<polygon fill="white" stroke="#bfbfbf" points="302.5,-56.5 302.5,-75.5 352.5,-75.5 352.5,-56.5 302.5,-56.5"/>
<text text-anchor="middle" x="327.5" y="-63.5" font-family="Helvetica,sans-Serif" font-size="10.00">errno.h</text>
</g>
<!-- Node1&#45;&gt;Node7 -->
<g id="edge7" class="edge"><title>Node1&#45;&gt;Node7</title>
<path fill="none" stroke="midnightblue" d="M268.747,-112.324C279.297,-104.185 295.301,-91.8395 307.942,-82.0874"/>
<polygon fill="midnightblue" stroke="midnightblue" points="310.269,-84.7132 316.049,-75.8339 305.993,-79.1707 310.269,-84.7132"/>
</g>
<!-- Node8 -->
<g id="node8" class="node"><title>Node8</title>
<polygon fill="white" stroke="#bfbfbf" points="371,-56.5 371,-75.5 440,-75.5 440,-56.5 371,-56.5"/>
<text text-anchor="middle" x="405.5" y="-63.5" font-family="Helvetica,sans-Serif" font-size="10.00">sys/types.h</text>
</g>
<!-- Node1&#45;&gt;Node8 -->
<g id="edge8" class="edge"><title>Node1&#45;&gt;Node8</title>
<path fill="none" stroke="midnightblue" d="M280.951,-112.444C305.633,-103.438 344.685,-89.1891 372.477,-79.049"/>
<polygon fill="midnightblue" stroke="midnightblue" points="373.964,-82.2321 382.159,-75.5164 371.565,-75.6561 373.964,-82.2321"/>
</g>
<!-- Node9 -->
<g id="node9" class="node"><title>Node9</title>
<polygon fill="white" stroke="#bfbfbf" points="458.5,-56.5 458.5,-75.5 532.5,-75.5 532.5,-56.5 458.5,-56.5"/>
<text text-anchor="middle" x="495.5" y="-63.5" font-family="Helvetica,sans-Serif" font-size="10.00">sys/param.h</text>
</g>
<!-- Node1&#45;&gt;Node9 -->
<g id="edge9" class="edge"><title>Node1&#45;&gt;Node9</title>
<path fill="none" stroke="midnightblue" d="M291.095,-113.378C332.16,-104.06 401.904,-88.2362 448.334,-77.7016"/>
<polygon fill="midnightblue" stroke="midnightblue" points="449.179,-81.0987 458.157,-75.4728 447.631,-74.2723 449.179,-81.0987"/>
</g>
<!-- Node10 -->
<g id="node10" class="node"><title>Node10</title>
<polygon fill="white" stroke="#bfbfbf" points="551,-56.5 551,-75.5 612,-75.5 612,-56.5 551,-56.5"/>
<text text-anchor="middle" x="581.5" y="-63.5" font-family="Helvetica,sans-Serif" font-size="10.00">sys/stat.h</text>
</g>
<!-- Node1&#45;&gt;Node10 -->
<g id="edge10" class="edge"><title>Node1&#45;&gt;Node10</title>
<path fill="none" stroke="midnightblue" d="M291.285,-116.363C342.851,-109.129 444.49,-94.2612 541.04,-75.9774"/>
<polygon fill="midnightblue" stroke="midnightblue" points="541.801,-79.3954 550.967,-74.0817 540.488,-72.5196 541.801,-79.3954"/>
</g>
<!-- Node2&#45;&gt;Node3 -->
<g id="edge2" class="edge"><title>Node2&#45;&gt;Node3</title>
<path fill="none" stroke="midnightblue" d="M65.4086,-56.083C58.3446,-48.2982 47.9124,-36.8015 39.3511,-27.3665"/>
<polygon fill="midnightblue" stroke="midnightblue" points="41.7527,-24.8047 32.4408,-19.7511 36.5688,-29.5087 41.7527,-24.8047"/>
</g>
<!-- Node2&#45;&gt;Node4 -->
<g id="edge3" class="edge"><title>Node2&#45;&gt;Node4</title>
<path fill="none" stroke="midnightblue" d="M81.5914,-56.083C88.6554,-48.2982 99.0876,-36.8015 107.649,-27.3665"/>
<polygon fill="midnightblue" stroke="midnightblue" points="110.431,-29.5087 114.559,-19.7511 105.247,-24.8047 110.431,-29.5087"/>
</g>
</g>
</svg>
