<?xml version="1.0" encoding="UTF-8" standalone="no"?>
<!DOCTYPE svg PUBLIC "-//W3C//DTD SVG 1.1//EN"
 "http://www.w3.org/Graphics/SVG/1.1/DTD/svg11.dtd">
<!-- Generated by graphviz version 2.38.0 (20140413.2041)
 -->
<!-- Title: main Pages: 1 -->
<svg width="694pt" height="830pt"
 viewBox="0.00 0.00 694.00 830.50" xmlns="http://www.w3.org/2000/svg" xmlns:xlink="http://www.w3.org/1999/xlink">
<g id="graph0" class="graph" transform="scale(1 1) rotate(0) translate(4 826.496)">
<title>main</title>
<polygon fill="white" stroke="none" points="-4,4 -4,-826.496 690,-826.496 690,4 -4,4"/>
<!-- Node1 -->
<g id="node1" class="node"><title>Node1</title>
<polygon fill="#bfbfbf" stroke="black" points="0,-384.996 0,-403.996 39,-403.996 39,-384.996 0,-384.996"/>
<text text-anchor="middle" x="19.5" y="-391.996" font-family="Helvetica,sans-Serif" font-size="10.00">main</text>
</g>
<!-- Node2 -->
<g id="node2" class="node"><title>Node2</title>
<g id="a_node2"><a xlink:href="../../d8/d30/cmd__name_8c.html#a271249070fdd12c176777c77d76f888f" target="_top" xlink:title="cmd_name">
<polygon fill="white" stroke="black" points="90,-802.996 90,-821.996 158,-821.996 158,-802.996 90,-802.996"/>
<text text-anchor="middle" x="124" y="-809.996" font-family="Helvetica,sans-Serif" font-size="10.00">cmd_name</text>
</a>
</g>
</g>
<!-- Node1&#45;&gt;Node2 -->
<g id="edge1" class="edge"><title>Node1&#45;&gt;Node2</title>
<path fill="none" stroke="midnightblue" d="M20.6463,-404.218C21.6366,-458.515 28.8108,-724.111 75,-788.496 77.505,-791.988 80.6656,-795.001 84.1641,-797.594"/>
<polygon fill="midnightblue" stroke="midnightblue" points="82.4418,-800.643 92.7915,-802.909 86.1139,-794.684 82.4418,-800.643"/>
</g>
<!-- Node3 -->
<g id="node3" class="node"><title>Node3</title>
<g id="a_node3"><a xlink:href="../../d2/df3/rle__hdr_8c.html#a8ba0e5b11d1e39ab7227f1686e676c86" target="_top" xlink:title="rle_hdr_init">
<polygon fill="white" stroke="black" points="216,-650.996 216,-669.996 286,-669.996 286,-650.996 216,-650.996"/>
<text text-anchor="middle" x="251" y="-657.996" font-family="Helvetica,sans-Serif" font-size="10.00">rle_hdr_init</text>
</a>
</g>
</g>
<!-- Node1&#45;&gt;Node3 -->
<g id="edge2" class="edge"><title>Node1&#45;&gt;Node3</title>
<path fill="none" stroke="midnightblue" d="M19.9924,-404.346C18.8529,-437.283 19.722,-544.81 75,-603.496 109.061,-639.657 166.292,-652.919 205.99,-657.759"/>
<polygon fill="midnightblue" stroke="midnightblue" points="205.612,-661.238 215.932,-658.841 206.369,-654.28 205.612,-661.238"/>
</g>
<!-- Node5 -->
<g id="node5" class="node"><title>Node5</title>
<g id="a_node5"><a xlink:href="../../d0/dcc/rletorla_8c.html#aafde19f7d36ca163a143579c1b125b6d" target="_top" xlink:title="free">
<polygon fill="white" stroke="black" points="617.5,-498.996 617.5,-517.996 652.5,-517.996 652.5,-498.996 617.5,-498.996"/>
<text text-anchor="middle" x="635" y="-505.996" font-family="Helvetica,sans-Serif" font-size="10.00">free</text>
</a>
</g>
</g>
<!-- Node1&#45;&gt;Node5 -->
<g id="edge44" class="edge"><title>Node1&#45;&gt;Node5</title>
<path fill="none" stroke="midnightblue" d="M21.2241,-384.794C23.6644,-359.689 33.9232,-292.402 75,-261.496 137.517,-214.46 171.765,-242.496 250,-242.496 250,-242.496 250,-242.496 370.5,-242.496 509.68,-242.496 600.372,-428.572 626.324,-489.463"/>
<polygon fill="midnightblue" stroke="midnightblue" points="623.1,-490.827 630.175,-498.714 629.563,-488.137 623.1,-490.827"/>
</g>
<!-- Node8 -->
<g id="node8" class="node"><title>Node8</title>
<g id="a_node8"><a xlink:href="../../d2/df3/rle__hdr_8c.html#a82e79385f2d45cc3b80ce0f4f369eae5" target="_top" xlink:title="rle_names">
<polygon fill="white" stroke="black" points="464,-650.996 464,-669.996 530,-669.996 530,-650.996 464,-650.996"/>
<text text-anchor="middle" x="497" y="-657.996" font-family="Helvetica,sans-Serif" font-size="10.00">rle_names</text>
</a>
</g>
</g>
<!-- Node1&#45;&gt;Node8 -->
<g id="edge18" class="edge"><title>Node1&#45;&gt;Node8</title>
<path fill="none" stroke="midnightblue" d="M20.643,-404.054C21.5747,-452.088 28.3302,-666.478 75,-708.496 102.216,-733 377.627,-727.251 410,-717.496 436.289,-709.575 461.928,-690.705 478.271,-676.837"/>
<polygon fill="midnightblue" stroke="midnightblue" points="480.713,-679.35 485.924,-670.125 476.098,-674.087 480.713,-679.35"/>
</g>
<!-- Node9 -->
<g id="node9" class="node"><title>Node9</title>
<g id="a_node9"><a xlink:href="../../d4/db0/scanargs_8c.html#a7ea6d702c0484056c8504d6ce7fede08" target="_top" xlink:title="scanargs">
<polygon fill="white" stroke="black" points="94,-679.996 94,-698.996 154,-698.996 154,-679.996 94,-679.996"/>
<text text-anchor="middle" x="124" y="-686.996" font-family="Helvetica,sans-Serif" font-size="10.00">scanargs</text>
</a>
</g>
</g>
<!-- Node1&#45;&gt;Node9 -->
<g id="edge11" class="edge"><title>Node1&#45;&gt;Node9</title>
<path fill="none" stroke="midnightblue" d="M20.51,-404.413C20.9652,-439.844 26.1783,-562.525 75,-646.496 81.1138,-657.012 90.6918,-666.351 99.689,-673.617"/>
<polygon fill="midnightblue" stroke="midnightblue" points="97.592,-676.419 107.672,-679.68 101.826,-670.845 97.592,-676.419"/>
</g>
<!-- Node11 -->
<g id="node11" class="node"><title>Node11</title>
<g id="a_node11"><a xlink:href="../../de/d4e/rle__open__f_8c.html#a89733a45961817885603ae01210290b7" target="_top" xlink:title="rle_open_f">
<polygon fill="white" stroke="black" points="335.5,-764.996 335.5,-783.996 403.5,-783.996 403.5,-764.996 335.5,-764.996"/>
<text text-anchor="middle" x="369.5" y="-771.996" font-family="Helvetica,sans-Serif" font-size="10.00">rle_open_f</text>
</a>
</g>
</g>
<!-- Node1&#45;&gt;Node11 -->
<g id="edge13" class="edge"><title>Node1&#45;&gt;Node11</title>
<path fill="none" stroke="midnightblue" d="M20.4425,-404.252C20.353,-456.409 22.743,-701.791 75,-750.496 110.201,-783.305 252.328,-780.84 325.099,-777.238"/>
<polygon fill="midnightblue" stroke="midnightblue" points="325.508,-780.721 335.311,-776.702 325.141,-773.731 325.508,-780.721"/>
</g>
<!-- Node14 -->
<g id="node14" class="node"><title>Node14</title>
<g id="a_node14"><a xlink:href="../../db/d53/rle__getrow_8c.html#a2d56ca99b896abbcb4d2f3f97c93a3ce" target="_top" xlink:title="rle_get_setup_ok">
<polygon fill="white" stroke="black" points="75,-574.996 75,-593.996 173,-593.996 173,-574.996 75,-574.996"/>
<text text-anchor="middle" x="124" y="-581.996" font-family="Helvetica,sans-Serif" font-size="10.00">rle_get_setup_ok</text>
</a>
</g>
</g>
<!-- Node1&#45;&gt;Node14 -->
<g id="edge19" class="edge"><title>Node1&#45;&gt;Node14</title>
<path fill="none" stroke="midnightblue" d="M21.1473,-404.375C23.4626,-432.234 33.5714,-512.51 75,-560.496 78.0271,-564.003 81.689,-567.052 85.6248,-569.69"/>
<polygon fill="midnightblue" stroke="midnightblue" points="84.1264,-572.866 94.5385,-574.826 87.6208,-566.801 84.1264,-572.866"/>
</g>
<!-- Node15 -->
<g id="node15" class="node"><title>Node15</title>
<g id="a_node15"><a xlink:href="../../d7/d24/rle__error_8c.html#af931d686cf3ca715c9b900527f0961c0" target="_top" xlink:title="rle_get_error">
<polygon fill="white" stroke="black" points="211.5,-536.996 211.5,-555.996 290.5,-555.996 290.5,-536.996 211.5,-536.996"/>
<text text-anchor="middle" x="251" y="-543.996" font-family="Helvetica,sans-Serif" font-size="10.00">rle_get_error</text>
</a>
</g>
</g>
<!-- Node1&#45;&gt;Node15 -->
<g id="edge48" class="edge"><title>Node1&#45;&gt;Node15</title>
<path fill="none" stroke="midnightblue" d="M21.4422,-404.134C24.3741,-428.441 35.6518,-492.442 75,-522.496 110.753,-549.805 163.001,-553.696 201.095,-552.041"/>
<polygon fill="midnightblue" stroke="midnightblue" points="201.658,-555.514 211.439,-551.441 201.254,-548.526 201.658,-555.514"/>
</g>
<!-- Node16 -->
<g id="node16" class="node"><title>Node16</title>
<g id="a_node16"><a xlink:href="../../db/d53/rle__getrow_8c.html#a619b27463c26e0a4a3d9648a9869ee52" target="_top" xlink:title="rle_get_setup">
<polygon fill="white" stroke="black" points="329,-574.996 329,-593.996 410,-593.996 410,-574.996 329,-574.996"/>
<text text-anchor="middle" x="369.5" y="-581.996" font-family="Helvetica,sans-Serif" font-size="10.00">rle_get_setup</text>
</a>
</g>
</g>
<!-- Node1&#45;&gt;Node16 -->
<g id="edge32" class="edge"><title>Node1&#45;&gt;Node16</title>
<path fill="none" stroke="midnightblue" d="M24.0282,-404.196C30.935,-421.748 47.9678,-458.699 75,-477.496 156.612,-534.248 202.898,-485.51 293,-527.496 314.902,-537.702 336.566,-555.004 351.032,-567.874"/>
<polygon fill="midnightblue" stroke="midnightblue" points="348.923,-570.688 358.665,-574.853 353.647,-565.522 348.923,-570.688"/>
</g>
<!-- Node18 -->
<g id="node18" class="node"><title>Node18</title>
<g id="a_node18"><a xlink:href="../../db/db2/rle__getcom_8c.html#a9cefd612c381bf82c9cdf1f3a3b12dd6" target="_top" xlink:title="rle_getcom">
<polygon fill="white" stroke="black" points="89.5,-422.996 89.5,-441.996 158.5,-441.996 158.5,-422.996 89.5,-422.996"/>
<text text-anchor="middle" x="124" y="-429.996" font-family="Helvetica,sans-Serif" font-size="10.00">rle_getcom</text>
</a>
</g>
</g>
<!-- Node1&#45;&gt;Node18 -->
<g id="edge29" class="edge"><title>Node1&#45;&gt;Node18</title>
<path fill="none" stroke="midnightblue" d="M39.3001,-401.466C52.7969,-406.47 71.3946,-413.365 87.632,-419.384"/>
<polygon fill="midnightblue" stroke="midnightblue" points="86.7774,-422.8 97.3704,-422.995 89.2107,-416.237 86.7774,-422.8"/>
</g>
<!-- Node20 -->
<g id="node20" class="node"><title>Node20</title>
<g id="a_node20"><a xlink:href="../../dc/d11/getami_8c.html#a8f31580e06aae736fd6f1ed3c414ed94" target="_top" xlink:title="buildmap">
<polygon fill="white" stroke="black" points="95,-384.996 95,-403.996 153,-403.996 153,-384.996 95,-384.996"/>
<text text-anchor="middle" x="124" y="-391.996" font-family="Helvetica,sans-Serif" font-size="10.00">buildmap</text>
</a>
</g>
</g>
<!-- Node1&#45;&gt;Node20 -->
<g id="edge31" class="edge"><title>Node1&#45;&gt;Node20</title>
<path fill="none" stroke="midnightblue" d="M39.3001,-394.496C51.8849,-394.496 68.9044,-394.496 84.3102,-394.496"/>
<polygon fill="midnightblue" stroke="midnightblue" points="84.6437,-397.996 94.6436,-394.496 84.6436,-390.996 84.6437,-397.996"/>
</g>
<!-- Node21 -->
<g id="node21" class="node"><title>Node21</title>
<g id="a_node21"><a xlink:href="../../dc/d5c/rlequant_8c.html#af2e1dc2ab453a36c9a4820fe88b90404" target="_top" xlink:title="copy_hdr">
<polygon fill="white" stroke="black" points="93.5,-346.996 93.5,-365.996 154.5,-365.996 154.5,-346.996 93.5,-346.996"/>
<text text-anchor="middle" x="124" y="-353.996" font-family="Helvetica,sans-Serif" font-size="10.00">copy_hdr</text>
</a>
</g>
</g>
<!-- Node1&#45;&gt;Node21 -->
<g id="edge33" class="edge"><title>Node1&#45;&gt;Node21</title>
<path fill="none" stroke="midnightblue" d="M39.3001,-387.527C52.7969,-382.523 71.3946,-375.628 87.632,-369.608"/>
<polygon fill="midnightblue" stroke="midnightblue" points="89.2107,-372.756 97.3704,-365.998 86.7774,-366.192 89.2107,-372.756"/>
</g>
<!-- Node22 -->
<g id="node22" class="node"><title>Node22</title>
<g id="a_node22"><a xlink:href="../../dc/d5c/rlequant_8c.html#a87905411441e57d77974c5b79c883a8f" target="_top" xlink:title="mem_alloc">
<polygon fill="white" stroke="black" points="90.5,-308.996 90.5,-327.996 157.5,-327.996 157.5,-308.996 90.5,-308.996"/>
<text text-anchor="middle" x="124" y="-315.996" font-family="Helvetica,sans-Serif" font-size="10.00">mem_alloc</text>
</a>
</g>
</g>
<!-- Node1&#45;&gt;Node22 -->
<g id="edge34" class="edge"><title>Node1&#45;&gt;Node22</title>
<path fill="none" stroke="midnightblue" d="M27.6095,-384.792C37.161,-372.35 55.2359,-350.797 75,-337.496 77.7511,-335.645 80.7097,-333.932 83.7582,-332.356"/>
<polygon fill="midnightblue" stroke="midnightblue" points="85.4615,-335.424 93.0565,-328.037 82.5127,-329.075 85.4615,-335.424"/>
</g>
<!-- Node23 -->
<g id="node23" class="node"><title>Node23</title>
<g id="a_node23"><a xlink:href="../../dc/d5c/rlequant_8c.html#a6ca9a54e56391b71481b16713b7203a5" target="_top" xlink:title="read_input">
<polygon fill="white" stroke="black" points="90.5,-270.996 90.5,-289.996 157.5,-289.996 157.5,-270.996 90.5,-270.996"/>
<text text-anchor="middle" x="124" y="-277.996" font-family="Helvetica,sans-Serif" font-size="10.00">read_input</text>
</a>
</g>
</g>
<!-- Node1&#45;&gt;Node23 -->
<g id="edge35" class="edge"><title>Node1&#45;&gt;Node23</title>
<path fill="none" stroke="midnightblue" d="M23.6337,-384.727C30.1917,-365.746 47.1083,-323.637 75,-299.496 76.9568,-297.803 79.0828,-296.249 81.315,-294.826"/>
<polygon fill="midnightblue" stroke="midnightblue" points="83.1836,-297.795 90.3173,-289.962 79.8557,-291.637 83.1836,-297.795"/>
</g>
<!-- Node24 -->
<g id="node24" class="node"><title>Node24</title>
<g id="a_node24"><a xlink:href="../../de/dbf/colorquant_8c.html#af7e23053060bba6342204f086e5bdd13" target="_top" xlink:title="colorquant">
<polygon fill="white" stroke="black" points="464,-194.996 464,-213.996 530,-213.996 530,-194.996 464,-194.996"/>
<text text-anchor="middle" x="497" y="-201.996" font-family="Helvetica,sans-Serif" font-size="10.00">colorquant</text>
</a>
</g>
</g>
<!-- Node1&#45;&gt;Node24 -->
<g id="edge36" class="edge"><title>Node1&#45;&gt;Node24</title>
<path fill="none" stroke="midnightblue" d="M20.3549,-384.876C19.7851,-332.348 19.985,-80.8292 75,-33.4963 205.776,79.0185 420.332,-125.471 480.106,-187.481"/>
<polygon fill="midnightblue" stroke="midnightblue" points="477.769,-190.102 487.2,-194.931 482.838,-185.275 477.769,-190.102"/>
</g>
<!-- Node28 -->
<g id="node28" class="node"><title>Node28</title>
<g id="a_node28"><a xlink:href="../../dc/d5c/rlequant_8c.html#a9050aef3e4f2bfea40e60aea443b243b" target="_top" xlink:title="add_cube">
<polygon fill="white" stroke="black" points="93,-194.996 93,-213.996 155,-213.996 155,-194.996 93,-194.996"/>
<text text-anchor="middle" x="124" y="-201.996" font-family="Helvetica,sans-Serif" font-size="10.00">add_cube</text>
</a>
</g>
</g>
<!-- Node1&#45;&gt;Node28 -->
<g id="edge42" class="edge"><title>Node1&#45;&gt;Node28</title>
<path fill="none" stroke="midnightblue" d="M21.1473,-384.617C23.4626,-356.759 33.5714,-276.483 75,-228.496 78.0271,-224.99 81.689,-221.94 85.6248,-219.302"/>
<polygon fill="midnightblue" stroke="midnightblue" points="87.6208,-222.192 94.5385,-214.167 84.1264,-216.126 87.6208,-222.192"/>
</g>
<!-- Node29 -->
<g id="node29" class="node"><title>Node29</title>
<g id="a_node29"><a xlink:href="../../de/dbf/colorquant_8c.html#ae5a3402dd91ddff893ffac062ddb7996" target="_top" xlink:title="inv_cmap">
<polygon fill="white" stroke="black" points="93,-156.996 93,-175.996 155,-175.996 155,-156.996 93,-156.996"/>
<text text-anchor="middle" x="124" y="-163.996" font-family="Helvetica,sans-Serif" font-size="10.00">inv_cmap</text>
</a>
</g>
</g>
<!-- Node1&#45;&gt;Node29 -->
<g id="edge43" class="edge"><title>Node1&#45;&gt;Node29</title>
<path fill="none" stroke="midnightblue" d="M20.1344,-384.777C19.4443,-352.25 21.5684,-245.868 75,-185.496 77.5244,-182.644 80.5336,-180.215 83.797,-178.147"/>
<polygon fill="midnightblue" stroke="midnightblue" points="85.5818,-181.165 92.8708,-173.476 82.3778,-174.942 85.5818,-181.165"/>
</g>
<!-- Node30 -->
<g id="node30" class="node"><title>Node30</title>
<g id="a_node30"><a xlink:href="../../dc/d5c/rlequant_8c.html#a9898913a1432e5a862e616e956db345f" target="_top" xlink:title="setup_output">
<polygon fill="white" stroke="black" points="85.5,-118.996 85.5,-137.996 162.5,-137.996 162.5,-118.996 85.5,-118.996"/>
<text text-anchor="middle" x="124" y="-125.996" font-family="Helvetica,sans-Serif" font-size="10.00">setup_output</text>
</a>
</g>
</g>
<!-- Node1&#45;&gt;Node30 -->
<g id="edge45" class="edge"><title>Node1&#45;&gt;Node30</title>
<path fill="none" stroke="midnightblue" d="M21.4281,-384.825C25.5396,-343.815 43.3216,-184.687 75,-147.496 76.017,-146.302 77.1193,-145.183 78.2904,-144.133"/>
<polygon fill="midnightblue" stroke="midnightblue" points="80.6425,-146.76 86.8449,-138.17 76.6397,-141.017 80.6425,-146.76"/>
</g>
<!-- Node31 -->
<g id="node31" class="node"><title>Node31</title>
<g id="a_node31"><a xlink:href="../../dc/d5c/rlequant_8c.html#a3d9787d3ebd3f350140118409a097092" target="_top" xlink:title="write_output">
<polygon fill="white" stroke="black" points="87,-80.9963 87,-99.9963 161,-99.9963 161,-80.9963 87,-80.9963"/>
<text text-anchor="middle" x="124" y="-87.9963" font-family="Helvetica,sans-Serif" font-size="10.00">write_output</text>
</a>
</g>
</g>
<!-- Node1&#45;&gt;Node31 -->
<g id="edge46" class="edge"><title>Node1&#45;&gt;Node31</title>
<path fill="none" stroke="midnightblue" d="M21.1143,-384.892C24.1483,-340.225 38.8638,-153.154 75,-109.496 76.0001,-108.288 77.0877,-107.156 78.2463,-106.096"/>
<polygon fill="midnightblue" stroke="midnightblue" points="80.6007,-108.718 86.7456,-100.087 76.5596,-103.002 80.6007,-108.718"/>
</g>
<!-- Node32 -->
<g id="node32" class="node"><title>Node32</title>
<g id="a_node32"><a xlink:href="../../dc/d5c/rlequant_8c.html#a11dd4a9e2db51e1ca13d5a75a5825cc7" target="_top" xlink:title="free_mem">
<polygon fill="white" stroke="black" points="92,-42.9963 92,-61.9963 156,-61.9963 156,-42.9963 92,-42.9963"/>
<text text-anchor="middle" x="124" y="-49.9963" font-family="Helvetica,sans-Serif" font-size="10.00">free_mem</text>
</a>
</g>
</g>
<!-- Node1&#45;&gt;Node32 -->
<g id="edge47" class="edge"><title>Node1&#45;&gt;Node32</title>
<path fill="none" stroke="midnightblue" d="M20.8762,-384.932C22.947,-336.828 34.3875,-121.665 75,-71.4963 77.1429,-68.8492 79.7072,-66.5694 82.5207,-64.606"/>
<polygon fill="midnightblue" stroke="midnightblue" points="84.4825,-67.5205 91.536,-59.6148 81.092,-61.3964 84.4825,-67.5205"/>
</g>
<!-- Node33 -->
<g id="node33" class="node"><title>Node33</title>
<g id="a_node33"><a xlink:href="../../d9/d2a/rle__putrow_8c.html#af4fab734a5d227ad2ae95840f56fff3b" target="_top" xlink:title="rle_puteof">
<polygon fill="white" stroke="black" points="337.5,-460.996 337.5,-479.996 401.5,-479.996 401.5,-460.996 337.5,-460.996"/>
<text text-anchor="middle" x="369.5" y="-467.996" font-family="Helvetica,sans-Serif" font-size="10.00">rle_puteof</text>
</a>
</g>
</g>
<!-- Node1&#45;&gt;Node33 -->
<g id="edge49" class="edge"><title>Node1&#45;&gt;Node33</title>
<path fill="none" stroke="midnightblue" d="M26.4436,-404.279C35.1914,-417.664 52.9117,-441.199 75,-451.496 157.733,-490.065 268.04,-484.033 327.068,-476.883"/>
<polygon fill="midnightblue" stroke="midnightblue" points="327.655,-480.337 337.128,-475.593 326.764,-473.393 327.655,-480.337"/>
</g>
<!-- Node4 -->
<g id="node4" class="node"><title>Node4</title>
<g id="a_node4"><a xlink:href="../../d2/df3/rle__hdr_8c.html#a16c4da6201b3b8cf55127b9ca968d253" target="_top" xlink:title="rle_hdr_clear">
<polygon fill="white" stroke="black" points="457,-574.996 457,-593.996 537,-593.996 537,-574.996 457,-574.996"/>
<text text-anchor="middle" x="497" y="-581.996" font-family="Helvetica,sans-Serif" font-size="10.00">rle_hdr_clear</text>
</a>
</g>
</g>
<!-- Node3&#45;&gt;Node4 -->
<g id="edge3" class="edge"><title>Node3&#45;&gt;Node4</title>
<path fill="none" stroke="midnightblue" d="M282.903,-650.871C326.721,-637.223 406.964,-612.229 455.497,-597.112"/>
<polygon fill="midnightblue" stroke="midnightblue" points="456.841,-600.359 465.348,-594.044 454.76,-593.676 456.841,-600.359"/>
</g>
<!-- Node6 -->
<g id="node6" class="node"><title>Node6</title>
<g id="a_node6"><a xlink:href="../../d2/df3/rle__hdr_8c.html#afc916e29aea8788e0878ca315ff69821" target="_top" xlink:title="rle_hdr_cp">
<polygon fill="white" stroke="black" points="335.5,-688.996 335.5,-707.996 403.5,-707.996 403.5,-688.996 335.5,-688.996"/>
<text text-anchor="middle" x="369.5" y="-695.996" font-family="Helvetica,sans-Serif" font-size="10.00">rle_hdr_cp</text>
</a>
</g>
</g>
<!-- Node3&#45;&gt;Node6 -->
<g id="edge5" class="edge"><title>Node3&#45;&gt;Node6</title>
<path fill="none" stroke="midnightblue" d="M286.01,-665.389C304.586,-670.557 327.166,-678.116 344.002,-684.885"/>
<polygon fill="midnightblue" stroke="midnightblue" points="343.082,-688.296 353.656,-688.97 345.81,-681.85 343.082,-688.296"/>
</g>
<!-- Node4&#45;&gt;Node5 -->
<g id="edge4" class="edge"><title>Node4&#45;&gt;Node5</title>
<path fill="none" stroke="midnightblue" d="M526.508,-574.915C533.661,-572.173 541.226,-568.974 548,-565.496 571.476,-553.446 596.413,-536.388 613.355,-524.077"/>
<polygon fill="midnightblue" stroke="midnightblue" points="615.461,-526.873 621.435,-518.124 611.308,-521.238 615.461,-526.873"/>
</g>
<!-- Node6&#45;&gt;Node3 -->
<g id="edge6" class="edge"><title>Node6&#45;&gt;Node3</title>
<path fill="none" stroke="midnightblue" d="M335.121,-693.779C316.428,-688.608 293.527,-680.955 276.501,-674.108"/>
<polygon fill="midnightblue" stroke="midnightblue" points="277.804,-670.86 267.23,-670.195 275.082,-677.309 277.804,-670.86"/>
</g>
<!-- Node7 -->
<g id="node7" class="node"><title>Node7</title>
<g id="a_node7"><a xlink:href="../../d0/dcc/rletorla_8c.html#ab7e36af3707843f77cc5b4e831c2fa6d" target="_top" xlink:title="malloc">
<polygon fill="white" stroke="black" points="611.5,-650.996 611.5,-669.996 658.5,-669.996 658.5,-650.996 611.5,-650.996"/>
<text text-anchor="middle" x="635" y="-657.996" font-family="Helvetica,sans-Serif" font-size="10.00">malloc</text>
</a>
</g>
</g>
<!-- Node6&#45;&gt;Node7 -->
<g id="edge7" class="edge"><title>Node6&#45;&gt;Node7</title>
<path fill="none" stroke="midnightblue" d="M403.688,-696.049C439.459,-693.154 497.992,-687.671 548,-679.496 565.825,-676.582 585.511,-672.312 601.545,-668.558"/>
<polygon fill="midnightblue" stroke="midnightblue" points="602.583,-671.909 611.498,-666.185 600.959,-665.1 602.583,-671.909"/>
</g>
<!-- Node6&#45;&gt;Node8 -->
<g id="edge8" class="edge"><title>Node6&#45;&gt;Node8</title>
<path fill="none" stroke="midnightblue" d="M402.169,-688.907C418.073,-684.092 437.54,-678.197 454.611,-673.028"/>
<polygon fill="midnightblue" stroke="midnightblue" points="455.785,-676.33 464.341,-670.082 453.756,-669.63 455.785,-676.33"/>
</g>
<!-- Node8&#45;&gt;Node5 -->
<g id="edge9" class="edge"><title>Node8&#45;&gt;Node5</title>
<path fill="none" stroke="midnightblue" d="M506.507,-650.988C528.928,-625.93 589.876,-557.812 618.614,-525.693"/>
<polygon fill="midnightblue" stroke="midnightblue" points="621.436,-527.787 625.496,-518.001 616.219,-523.12 621.436,-527.787"/>
</g>
<!-- Node8&#45;&gt;Node7 -->
<g id="edge10" class="edge"><title>Node8&#45;&gt;Node7</title>
<path fill="none" stroke="midnightblue" d="M530.23,-660.496C551.598,-660.496 579.555,-660.496 601.066,-660.496"/>
<polygon fill="midnightblue" stroke="midnightblue" points="601.354,-663.996 611.354,-660.496 601.354,-656.996 601.354,-663.996"/>
</g>
<!-- Node10 -->
<g id="node10" class="node"><title>Node10</title>
<g id="a_node10"><a xlink:href="../../d4/db0/scanargs_8c.html#a862219039664df6eb3cfced58addf830" target="_top" xlink:title="_do_scanargs">
<polygon fill="white" stroke="black" points="209,-688.996 209,-707.996 293,-707.996 293,-688.996 209,-688.996"/>
<text text-anchor="middle" x="251" y="-695.996" font-family="Helvetica,sans-Serif" font-size="10.00">_do_scanargs</text>
</a>
</g>
</g>
<!-- Node9&#45;&gt;Node10 -->
<g id="edge12" class="edge"><title>Node9&#45;&gt;Node10</title>
<path fill="none" stroke="midnightblue" d="M154.307,-691.606C167.44,-692.552 183.328,-693.696 198.353,-694.778"/>
<polygon fill="midnightblue" stroke="midnightblue" points="198.347,-698.286 208.572,-695.514 198.849,-691.304 198.347,-698.286"/>
</g>
<!-- Node12 -->
<g id="node12" class="node"><title>Node12</title>
<g id="a_node12"><a xlink:href="../../de/d4e/rle__open__f_8c.html#a5a0e62a00f907fce26e93b2f72adb2b0" target="_top" xlink:title="rle_open_f_noexit">
<polygon fill="white" stroke="black" points="446,-726.996 446,-745.996 548,-745.996 548,-726.996 446,-726.996"/>
<text text-anchor="middle" x="497" y="-733.996" font-family="Helvetica,sans-Serif" font-size="10.00">rle_open_f_noexit</text>
</a>
</g>
</g>
<!-- Node11&#45;&gt;Node12 -->
<g id="edge14" class="edge"><title>Node11&#45;&gt;Node12</title>
<path fill="none" stroke="midnightblue" d="M402.169,-764.907C418.073,-760.092 437.54,-754.197 454.611,-749.028"/>
<polygon fill="midnightblue" stroke="midnightblue" points="455.785,-752.33 464.341,-746.082 453.756,-745.63 455.785,-752.33"/>
</g>
<!-- Node12&#45;&gt;Node5 -->
<g id="edge17" class="edge"><title>Node12&#45;&gt;Node5</title>
<path fill="none" stroke="midnightblue" d="M508.057,-726.639C518.808,-715.756 535.935,-697.398 548,-679.496 582.706,-628 612.569,-560.565 626.167,-527.903"/>
<polygon fill="midnightblue" stroke="midnightblue" points="629.577,-528.812 630.138,-518.232 623.101,-526.153 629.577,-528.812"/>
</g>
<!-- Node12&#45;&gt;Node7 -->
<g id="edge16" class="edge"><title>Node12&#45;&gt;Node7</title>
<path fill="none" stroke="midnightblue" d="M519.148,-726.897C528.141,-722.674 538.683,-717.534 548,-712.496 569.497,-700.873 593.214,-686.403 610.287,-675.68"/>
<polygon fill="midnightblue" stroke="midnightblue" points="612.451,-678.453 619.033,-670.15 608.71,-672.537 612.451,-678.453"/>
</g>
<!-- Node13 -->
<g id="node13" class="node"><title>Node13</title>
<g id="a_node13"><a xlink:href="../../de/d4e/rle__open__f_8c.html#a84fda810ae9b9bde82a6391d0b264ead" target="_top" xlink:title="my_popen">
<polygon fill="white" stroke="black" points="602,-726.996 602,-745.996 668,-745.996 668,-726.996 602,-726.996"/>
<text text-anchor="middle" x="635" y="-733.996" font-family="Helvetica,sans-Serif" font-size="10.00">my_popen</text>
</a>
</g>
</g>
<!-- Node12&#45;&gt;Node13 -->
<g id="edge15" class="edge"><title>Node12&#45;&gt;Node13</title>
<path fill="none" stroke="midnightblue" d="M548.255,-736.496C562.485,-736.496 577.83,-736.496 591.551,-736.496"/>
<polygon fill="midnightblue" stroke="midnightblue" points="591.681,-739.996 601.681,-736.496 591.681,-732.996 591.681,-739.996"/>
</g>
<!-- Node14&#45;&gt;Node3 -->
<g id="edge20" class="edge"><title>Node14&#45;&gt;Node3</title>
<path fill="none" stroke="midnightblue" d="M140.106,-594.003C156.868,-604.517 184.755,-621.899 209,-636.496 213.946,-639.474 219.253,-642.618 224.353,-645.615"/>
<polygon fill="midnightblue" stroke="midnightblue" points="222.789,-648.754 233.188,-650.781 226.323,-642.712 222.789,-648.754"/>
</g>
<!-- Node14&#45;&gt;Node8 -->
<g id="edge21" class="edge"><title>Node14&#45;&gt;Node8</title>
<path fill="none" stroke="midnightblue" d="M171.612,-594.045C244.361,-608.948 383.795,-637.511 453.763,-651.844"/>
<polygon fill="midnightblue" stroke="midnightblue" points="453.471,-655.357 463.97,-653.935 454.876,-648.499 453.471,-655.357"/>
</g>
<!-- Node14&#45;&gt;Node15 -->
<g id="edge22" class="edge"><title>Node14&#45;&gt;Node15</title>
<path fill="none" stroke="midnightblue" d="M156.543,-574.907C172.383,-570.092 191.773,-564.197 208.776,-559.028"/>
<polygon fill="midnightblue" stroke="midnightblue" points="209.918,-562.34 218.467,-556.082 207.882,-555.642 209.918,-562.34"/>
</g>
<!-- Node14&#45;&gt;Node16 -->
<g id="edge23" class="edge"><title>Node14&#45;&gt;Node16</title>
<path fill="none" stroke="midnightblue" d="M173.108,-584.496C215.234,-584.496 276.201,-584.496 318.795,-584.496"/>
<polygon fill="midnightblue" stroke="midnightblue" points="318.935,-587.996 328.935,-584.496 318.935,-580.996 318.935,-587.996"/>
</g>
<!-- Node16&#45;&gt;Node4 -->
<g id="edge24" class="edge"><title>Node16&#45;&gt;Node4</title>
<path fill="none" stroke="midnightblue" d="M410.209,-584.496C421.878,-584.496 434.782,-584.496 446.962,-584.496"/>
<polygon fill="midnightblue" stroke="midnightblue" points="446.979,-587.996 456.979,-584.496 446.979,-580.996 446.979,-587.996"/>
</g>
<!-- Node16&#45;&gt;Node5 -->
<g id="edge27" class="edge"><title>Node16&#45;&gt;Node5</title>
<path fill="none" stroke="midnightblue" d="M379.676,-574.818C392.914,-561.557 418.783,-538.169 446,-527.496 500.343,-506.187 569.967,-505.321 607.376,-506.775"/>
<polygon fill="midnightblue" stroke="midnightblue" points="607.312,-510.275 617.467,-507.255 607.645,-503.283 607.312,-510.275"/>
</g>
<!-- Node16&#45;&gt;Node7 -->
<g id="edge26" class="edge"><title>Node16&#45;&gt;Node7</title>
<path fill="none" stroke="midnightblue" d="M403.606,-594.045C454.426,-608.703 551.067,-636.576 601.513,-651.126"/>
<polygon fill="midnightblue" stroke="midnightblue" points="600.673,-654.527 611.251,-653.935 602.613,-647.801 600.673,-654.527"/>
</g>
<!-- Node16&#45;&gt;Node8 -->
<g id="edge25" class="edge"><title>Node16&#45;&gt;Node8</title>
<path fill="none" stroke="midnightblue" d="M387.297,-594.123C394.418,-598.351 402.733,-603.487 410,-608.496 426.689,-620 428.765,-625.828 446,-636.496 451.695,-640.022 457.987,-643.403 464.131,-646.459"/>
<polygon fill="midnightblue" stroke="midnightblue" points="463.025,-649.81 473.557,-650.966 466.045,-643.494 463.025,-649.81"/>
</g>
<!-- Node17 -->
<g id="node17" class="node"><title>Node17</title>
<g id="a_node17"><a xlink:href="../../db/d53/rle__getrow_8c.html#a0ea68aa2ebeef9d4cade7282553b03d6" target="_top" xlink:title="vax_gshort">
<polygon fill="white" stroke="black" points="462.5,-536.996 462.5,-555.996 531.5,-555.996 531.5,-536.996 462.5,-536.996"/>
<text text-anchor="middle" x="497" y="-543.996" font-family="Helvetica,sans-Serif" font-size="10.00">vax_gshort</text>
</a>
</g>
</g>
<!-- Node16&#45;&gt;Node17 -->
<g id="edge28" class="edge"><title>Node16&#45;&gt;Node17</title>
<path fill="none" stroke="midnightblue" d="M402.169,-574.907C418.073,-570.092 437.54,-564.197 454.611,-559.028"/>
<polygon fill="midnightblue" stroke="midnightblue" points="455.785,-562.33 464.341,-556.082 453.756,-555.63 455.785,-562.33"/>
</g>
<!-- Node19 -->
<g id="node19" class="node"><title>Node19</title>
<g id="a_node19"><a xlink:href="../../db/db2/rle__getcom_8c.html#a7502c8b599724ce86fee5df1311a2337" target="_top" xlink:title="match">
<polygon fill="white" stroke="black" points="228.5,-422.996 228.5,-441.996 273.5,-441.996 273.5,-422.996 228.5,-422.996"/>
<text text-anchor="middle" x="251" y="-429.996" font-family="Helvetica,sans-Serif" font-size="10.00">match</text>
</a>
</g>
</g>
<!-- Node18&#45;&gt;Node19 -->
<g id="edge30" class="edge"><title>Node18&#45;&gt;Node19</title>
<path fill="none" stroke="midnightblue" d="M158.827,-432.496C177.322,-432.496 200.094,-432.496 218.252,-432.496"/>
<polygon fill="midnightblue" stroke="midnightblue" points="218.344,-435.996 228.344,-432.496 218.344,-428.996 218.344,-435.996"/>
</g>
<!-- Node24&#45;&gt;Node5 -->
<g id="edge41" class="edge"><title>Node24&#45;&gt;Node5</title>
<path fill="none" stroke="midnightblue" d="M527.977,-214.012C535.355,-217.563 542.661,-222.293 548,-228.496 615.858,-307.343 630.182,-438.969 633.198,-488.678"/>
<polygon fill="midnightblue" stroke="midnightblue" points="629.706,-488.933 633.717,-498.739 636.697,-488.572 629.706,-488.933"/>
</g>
<!-- Node24&#45;&gt;Node7 -->
<g id="edge37" class="edge"><title>Node24&#45;&gt;Node7</title>
<path fill="none" stroke="midnightblue" d="M500.19,-214.109C509.214,-253.382 544.889,-405.359 584,-527.496 597.224,-568.792 615.862,-616.084 626.244,-641.667"/>
<polygon fill="midnightblue" stroke="midnightblue" points="623.007,-642.999 630.029,-650.933 629.487,-640.352 623.007,-642.999"/>
</g>
<!-- Node25 -->
<g id="node25" class="node"><title>Node25</title>
<g id="a_node25"><a xlink:href="../../de/dbf/colorquant_8c.html#a1b278b5575a6dd444c2d8bfd1c3273df" target="_top" xlink:title="QuantHistogram">
<polygon fill="white" stroke="black" points="588.5,-232.996 588.5,-251.996 681.5,-251.996 681.5,-232.996 588.5,-232.996"/>
<text text-anchor="middle" x="635" y="-239.996" font-family="Helvetica,sans-Serif" font-size="10.00">QuantHistogram</text>
</a>
</g>
</g>
<!-- Node24&#45;&gt;Node25 -->
<g id="edge38" class="edge"><title>Node24&#45;&gt;Node25</title>
<path fill="none" stroke="midnightblue" d="M530.23,-213.502C548.023,-218.473 570.383,-224.721 589.786,-230.142"/>
<polygon fill="midnightblue" stroke="midnightblue" points="589.051,-233.571 599.624,-232.891 590.935,-226.829 589.051,-233.571"/>
</g>
<!-- Node26 -->
<g id="node26" class="node"><title>Node26</title>
<g id="a_node26"><a xlink:href="../../de/dbf/colorquant_8c.html#a8d4d713b29edf0061f02f75826cbb616" target="_top" xlink:title="CutBoxes">
<polygon fill="white" stroke="black" points="604,-194.996 604,-213.996 666,-213.996 666,-194.996 604,-194.996"/>
<text text-anchor="middle" x="635" y="-201.996" font-family="Helvetica,sans-Serif" font-size="10.00">CutBoxes</text>
</a>
</g>
</g>
<!-- Node24&#45;&gt;Node26 -->
<g id="edge39" class="edge"><title>Node24&#45;&gt;Node26</title>
<path fill="none" stroke="midnightblue" d="M530.23,-204.496C549.227,-204.496 573.43,-204.496 593.682,-204.496"/>
<polygon fill="midnightblue" stroke="midnightblue" points="593.865,-207.996 603.865,-204.496 593.865,-200.996 593.865,-207.996"/>
</g>
<!-- Node27 -->
<g id="node27" class="node"><title>Node27</title>
<g id="a_node27"><a xlink:href="../../de/dbf/colorquant_8c.html#a0233005d5a3719522750cc8e091ec3d1" target="_top" xlink:title="ComputeRGBMap">
<polygon fill="white" stroke="black" points="584,-156.996 584,-175.996 686,-175.996 686,-156.996 584,-156.996"/>
<text text-anchor="middle" x="635" y="-163.996" font-family="Helvetica,sans-Serif" font-size="10.00">ComputeRGBMap</text>
</a>
</g>
</g>
<!-- Node24&#45;&gt;Node27 -->
<g id="edge40" class="edge"><title>Node24&#45;&gt;Node27</title>
<path fill="none" stroke="midnightblue" d="M530.23,-195.491C548.023,-190.519 570.383,-184.272 589.786,-178.85"/>
<polygon fill="midnightblue" stroke="midnightblue" points="590.935,-182.163 599.624,-176.101 589.051,-175.422 590.935,-182.163"/>
</g>
<!-- Node33&#45;&gt;Node5 -->
<g id="edge50" class="edge"><title>Node33&#45;&gt;Node5</title>
<path fill="none" stroke="midnightblue" d="M401.638,-474.448C437.109,-479.01 496.79,-486.867 548,-494.496 567.76,-497.44 590.021,-501.073 606.943,-503.9"/>
<polygon fill="midnightblue" stroke="midnightblue" points="606.77,-507.42 617.212,-505.626 607.931,-500.517 606.77,-507.42"/>
</g>
</g>
</svg>
