<?xml version="1.0" encoding="UTF-8" standalone="no"?>
<!DOCTYPE svg PUBLIC "-//W3C//DTD SVG 1.1//EN"
 "http://www.w3.org/Graphics/SVG/1.1/DTD/svg11.dtd">
<!-- Generated by graphviz version 2.38.0 (20140413.2041)
 -->
<!-- Title: copy_hdr Pages: 1 -->
<svg width="467pt" height="218pt"
 viewBox="0.00 0.00 467.00 218.00" xmlns="http://www.w3.org/2000/svg" xmlns:xlink="http://www.w3.org/1999/xlink">
<g id="graph0" class="graph" transform="scale(1 1) rotate(0) translate(4 214)">
<title>copy_hdr</title>
<polygon fill="white" stroke="none" points="-4,4 -4,-214 463,-214 463,4 -4,4"/>
<!-- Node1 -->
<g id="node1" class="node"><title>Node1</title>
<polygon fill="#bfbfbf" stroke="black" points="0,-114.5 0,-133.5 61,-133.5 61,-114.5 0,-114.5"/>
<text text-anchor="middle" x="30.5" y="-121.5" font-family="Helvetica,sans-Serif" font-size="10.00">copy_hdr</text>
</g>
<!-- Node2 -->
<g id="node2" class="node"><title>Node2</title>
<g id="a_node2"><a xlink:href="../../d2/df3/rle__hdr_8c.html#afc916e29aea8788e0878ca315ff69821" target="_top" xlink:title="rle_hdr_cp">
<polygon fill="white" stroke="black" points="97.5,-152.5 97.5,-171.5 165.5,-171.5 165.5,-152.5 97.5,-152.5"/>
<text text-anchor="middle" x="131.5" y="-159.5" font-family="Helvetica,sans-Serif" font-size="10.00">rle_hdr_cp</text>
</a>
</g>
</g>
<!-- Node1&#45;&gt;Node2 -->
<g id="edge1" class="edge"><title>Node1&#45;&gt;Node2</title>
<path fill="none" stroke="midnightblue" d="M56.4819,-133.589C68.4411,-138.179 82.9548,-143.75 95.951,-148.739"/>
<polygon fill="midnightblue" stroke="midnightblue" points="94.936,-152.098 105.526,-152.414 97.4445,-145.563 94.936,-152.098"/>
</g>
<!-- Node8 -->
<g id="node8" class="node"><title>Node8</title>
<g id="a_node8"><a xlink:href="../../d8/def/rle__addhist_8c.html#a4f9433d6e4e203d0ecea1c7d3837afc3" target="_top" xlink:title="rle_addhist">
<polygon fill="white" stroke="black" points="97,-57.5 97,-76.5 166,-76.5 166,-57.5 97,-57.5"/>
<text text-anchor="middle" x="131.5" y="-64.5" font-family="Helvetica,sans-Serif" font-size="10.00">rle_addhist</text>
</a>
</g>
</g>
<!-- Node1&#45;&gt;Node8 -->
<g id="edge10" class="edge"><title>Node1&#45;&gt;Node8</title>
<path fill="none" stroke="midnightblue" d="M48.294,-114.331C63.8905,-105.351 87.328,-91.8566 105.192,-81.5715"/>
<polygon fill="midnightblue" stroke="midnightblue" points="107.034,-84.5494 113.954,-76.5265 103.541,-78.483 107.034,-84.5494"/>
</g>
<!-- Node3 -->
<g id="node3" class="node"><title>Node3</title>
<g id="a_node3"><a xlink:href="../../d2/df3/rle__hdr_8c.html#a8ba0e5b11d1e39ab7227f1686e676c86" target="_top" xlink:title="rle_hdr_init">
<polygon fill="white" stroke="black" points="202,-190.5 202,-209.5 272,-209.5 272,-190.5 202,-190.5"/>
<text text-anchor="middle" x="237" y="-197.5" font-family="Helvetica,sans-Serif" font-size="10.00">rle_hdr_init</text>
</a>
</g>
</g>
<!-- Node2&#45;&gt;Node3 -->
<g id="edge2" class="edge"><title>Node2&#45;&gt;Node3</title>
<path fill="none" stroke="midnightblue" d="M165.533,-167.787C181.147,-172.808 199.389,-179.723 213.4,-186.013"/>
<polygon fill="midnightblue" stroke="midnightblue" points="212.221,-189.327 222.757,-190.446 215.219,-183.001 212.221,-189.327"/>
</g>
<!-- Node6 -->
<g id="node6" class="node"><title>Node6</title>
<g id="a_node6"><a xlink:href="../../d0/dcc/rletorla_8c.html#ab7e36af3707843f77cc5b4e831c2fa6d" target="_top" xlink:title="malloc">
<polygon fill="white" stroke="black" points="324.5,-95.5 324.5,-114.5 371.5,-114.5 371.5,-95.5 324.5,-95.5"/>
<text text-anchor="middle" x="348" y="-102.5" font-family="Helvetica,sans-Serif" font-size="10.00">malloc</text>
</a>
</g>
</g>
<!-- Node2&#45;&gt;Node6 -->
<g id="edge6" class="edge"><title>Node2&#45;&gt;Node6</title>
<path fill="none" stroke="midnightblue" d="M165.711,-152.844C177.198,-149.698 190.158,-146.17 202,-143 240.678,-132.645 285.24,-121.011 314.643,-113.375"/>
<polygon fill="midnightblue" stroke="midnightblue" points="315.576,-116.749 324.376,-110.85 313.818,-109.974 315.576,-116.749"/>
</g>
<!-- Node7 -->
<g id="node7" class="node"><title>Node7</title>
<g id="a_node7"><a xlink:href="../../d2/df3/rle__hdr_8c.html#a82e79385f2d45cc3b80ce0f4f369eae5" target="_top" xlink:title="rle_names">
<polygon fill="white" stroke="black" points="204,-152.5 204,-171.5 270,-171.5 270,-152.5 204,-152.5"/>
<text text-anchor="middle" x="237" y="-159.5" font-family="Helvetica,sans-Serif" font-size="10.00">rle_names</text>
</a>
</g>
</g>
<!-- Node2&#45;&gt;Node7 -->
<g id="edge7" class="edge"><title>Node2&#45;&gt;Node7</title>
<path fill="none" stroke="midnightblue" d="M165.533,-162C174.569,-162 184.486,-162 193.953,-162"/>
<polygon fill="midnightblue" stroke="midnightblue" points="193.987,-165.5 203.987,-162 193.987,-158.5 193.987,-165.5"/>
</g>
<!-- Node3&#45;&gt;Node2 -->
<g id="edge5" class="edge"><title>Node3&#45;&gt;Node2</title>
<path fill="none" stroke="midnightblue" d="M201.98,-193.894C186.629,-188.915 168.909,-182.18 155.207,-176.036"/>
<polygon fill="midnightblue" stroke="midnightblue" points="156.568,-172.808 146.031,-171.699 153.577,-179.136 156.568,-172.808"/>
</g>
<!-- Node4 -->
<g id="node4" class="node"><title>Node4</title>
<g id="a_node4"><a xlink:href="../../d2/df3/rle__hdr_8c.html#a16c4da6201b3b8cf55127b9ca968d253" target="_top" xlink:title="rle_hdr_clear">
<polygon fill="white" stroke="black" points="308,-190.5 308,-209.5 388,-209.5 388,-190.5 308,-190.5"/>
<text text-anchor="middle" x="348" y="-197.5" font-family="Helvetica,sans-Serif" font-size="10.00">rle_hdr_clear</text>
</a>
</g>
</g>
<!-- Node3&#45;&gt;Node4 -->
<g id="edge3" class="edge"><title>Node3&#45;&gt;Node4</title>
<path fill="none" stroke="midnightblue" d="M272.189,-200C280.356,-200 289.234,-200 297.925,-200"/>
<polygon fill="midnightblue" stroke="midnightblue" points="297.989,-203.5 307.989,-200 297.989,-196.5 297.989,-203.5"/>
</g>
<!-- Node5 -->
<g id="node5" class="node"><title>Node5</title>
<g id="a_node5"><a xlink:href="../../d0/dcc/rletorla_8c.html#aafde19f7d36ca163a143579c1b125b6d" target="_top" xlink:title="free">
<polygon fill="white" stroke="black" points="424,-171.5 424,-190.5 459,-190.5 459,-171.5 424,-171.5"/>
<text text-anchor="middle" x="441.5" y="-178.5" font-family="Helvetica,sans-Serif" font-size="10.00">free</text>
</a>
</g>
</g>
<!-- Node4&#45;&gt;Node5 -->
<g id="edge4" class="edge"><title>Node4&#45;&gt;Node5</title>
<path fill="none" stroke="midnightblue" d="M388.07,-191.887C396.716,-190.092 405.687,-188.229 413.712,-186.562"/>
<polygon fill="midnightblue" stroke="midnightblue" points="414.531,-189.967 423.611,-184.507 413.108,-183.113 414.531,-189.967"/>
</g>
<!-- Node7&#45;&gt;Node5 -->
<g id="edge8" class="edge"><title>Node7&#45;&gt;Node5</title>
<path fill="none" stroke="midnightblue" d="M270.087,-165.011C309.774,-168.734 376.62,-175.006 413.697,-178.485"/>
<polygon fill="midnightblue" stroke="midnightblue" points="413.468,-181.979 423.752,-179.429 414.122,-175.01 413.468,-181.979"/>
</g>
<!-- Node7&#45;&gt;Node6 -->
<g id="edge9" class="edge"><title>Node7&#45;&gt;Node6</title>
<path fill="none" stroke="midnightblue" d="M256.49,-152.331C273.82,-143.269 299.941,-129.609 319.675,-119.289"/>
<polygon fill="midnightblue" stroke="midnightblue" points="321.543,-122.262 328.783,-114.526 318.299,-116.059 321.543,-122.262"/>
</g>
<!-- Node8&#45;&gt;Node6 -->
<g id="edge13" class="edge"><title>Node8&#45;&gt;Node6</title>
<path fill="none" stroke="midnightblue" d="M166.016,-72.9375C206.468,-80.104 274.047,-92.0759 314.184,-99.1864"/>
<polygon fill="midnightblue" stroke="midnightblue" points="313.791,-102.671 324.248,-100.969 315.012,-95.7785 313.791,-102.671"/>
</g>
<!-- Node9 -->
<g id="node9" class="node"><title>Node9</title>
<g id="a_node9"><a xlink:href="../../db/db2/rle__getcom_8c.html#a9cefd612c381bf82c9cdf1f3a3b12dd6" target="_top" xlink:title="rle_getcom">
<polygon fill="white" stroke="black" points="202.5,-0.5 202.5,-19.5 271.5,-19.5 271.5,-0.5 202.5,-0.5"/>
<text text-anchor="middle" x="237" y="-7.5" font-family="Helvetica,sans-Serif" font-size="10.00">rle_getcom</text>
</a>
</g>
</g>
<!-- Node8&#45;&gt;Node9 -->
<g id="edge11" class="edge"><title>Node8&#45;&gt;Node9</title>
<path fill="none" stroke="midnightblue" d="M150.057,-57.3307C166.438,-48.3097 191.091,-34.7327 209.798,-24.4302"/>
<polygon fill="midnightblue" stroke="midnightblue" points="211.631,-27.4164 218.702,-19.5265 208.254,-21.2848 211.631,-27.4164"/>
</g>
<!-- Node11 -->
<g id="node11" class="node"><title>Node11</title>
<g id="a_node11"><a xlink:href="../../df/da5/rle__putcom_8c.html#a6fa8528c32d14763efe2a534e409e321" target="_top" xlink:title="rle_putcom">
<polygon fill="white" stroke="black" points="203,-38.5 203,-57.5 271,-57.5 271,-38.5 203,-38.5"/>
<text text-anchor="middle" x="237" y="-45.5" font-family="Helvetica,sans-Serif" font-size="10.00">rle_putcom</text>
</a>
</g>
</g>
<!-- Node8&#45;&gt;Node11 -->
<g id="edge14" class="edge"><title>Node8&#45;&gt;Node11</title>
<path fill="none" stroke="midnightblue" d="M166.103,-60.8312C174.681,-59.2567 184.019,-57.5423 192.997,-55.8944"/>
<polygon fill="midnightblue" stroke="midnightblue" points="193.715,-59.3211 202.918,-54.0729 192.451,-52.4361 193.715,-59.3211"/>
</g>
<!-- Node10 -->
<g id="node10" class="node"><title>Node10</title>
<g id="a_node10"><a xlink:href="../../db/db2/rle__getcom_8c.html#a7502c8b599724ce86fee5df1311a2337" target="_top" xlink:title="match">
<polygon fill="white" stroke="black" points="325.5,-0.5 325.5,-19.5 370.5,-19.5 370.5,-0.5 325.5,-0.5"/>
<text text-anchor="middle" x="348" y="-7.5" font-family="Helvetica,sans-Serif" font-size="10.00">match</text>
</a>
</g>
</g>
<!-- Node9&#45;&gt;Node10 -->
<g id="edge12" class="edge"><title>Node9&#45;&gt;Node10</title>
<path fill="none" stroke="midnightblue" d="M271.593,-10C285.413,-10 301.347,-10 314.998,-10"/>
<polygon fill="midnightblue" stroke="midnightblue" points="315.371,-13.5001 325.371,-10 315.371,-6.5001 315.371,-13.5001"/>
</g>
<!-- Node11&#45;&gt;Node6 -->
<g id="edge15" class="edge"><title>Node11&#45;&gt;Node6</title>
<path fill="none" stroke="midnightblue" d="M256.49,-57.6693C273.82,-66.7315 299.941,-80.3914 319.675,-90.7108"/>
<polygon fill="midnightblue" stroke="midnightblue" points="318.299,-93.941 328.783,-95.4735 321.543,-87.738 318.299,-93.941"/>
</g>
<!-- Node12 -->
<g id="node12" class="node"><title>Node12</title>
<g id="a_node12"><a xlink:href="../../df/da5/rle__putcom_8c.html#a7502c8b599724ce86fee5df1311a2337" target="_top" xlink:title="match">
<polygon fill="white" stroke="black" points="325.5,-38.5 325.5,-57.5 370.5,-57.5 370.5,-38.5 325.5,-38.5"/>
<text text-anchor="middle" x="348" y="-45.5" font-family="Helvetica,sans-Serif" font-size="10.00">match</text>
</a>
</g>
</g>
<!-- Node11&#45;&gt;Node12 -->
<g id="edge16" class="edge"><title>Node11&#45;&gt;Node12</title>
<path fill="none" stroke="midnightblue" d="M271.296,-48C285.265,-48 301.436,-48 315.237,-48"/>
<polygon fill="midnightblue" stroke="midnightblue" points="315.253,-51.5001 325.253,-48 315.253,-44.5001 315.253,-51.5001"/>
</g>
</g>
</svg>
