<?xml version="1.0" encoding="UTF-8" standalone="no"?>
<!DOCTYPE svg PUBLIC "-//W3C//DTD SVG 1.1//EN"
 "http://www.w3.org/Graphics/SVG/1.1/DTD/svg11.dtd">
<!-- Generated by graphviz version 2.38.0 (20140413.2041)
 -->
<!-- Title: rle_rawrow.c Pages: 1 -->
<svg width="124pt" height="84pt"
 viewBox="0.00 0.00 123.50 84.00" xmlns="http://www.w3.org/2000/svg" xmlns:xlink="http://www.w3.org/1999/xlink">
<g id="graph0" class="graph" transform="scale(1 1) rotate(0) translate(4 80)">
<title>rle_rawrow.c</title>
<polygon fill="white" stroke="none" points="-4,4 -4,-80 119.5,-80 119.5,4 -4,4"/>
<!-- Node1 -->
<g id="node1" class="node"><title>Node1</title>
<polygon fill="#bfbfbf" stroke="black" points="13,-56.5 13,-75.5 90,-75.5 90,-56.5 13,-56.5"/>
<text text-anchor="middle" x="51.5" y="-63.5" font-family="Helvetica,sans-Serif" font-size="10.00">rle_rawrow.c</text>
</g>
<!-- Node2 -->
<g id="node2" class="node"><title>Node2</title>
<polygon fill="white" stroke="#bfbfbf" points="0,-0.5 0,-19.5 37,-19.5 37,-0.5 0,-0.5"/>
<text text-anchor="middle" x="18.5" y="-7.5" font-family="Helvetica,sans-Serif" font-size="10.00">rle.h</text>
</g>
<!-- Node1&#45;&gt;Node2 -->
<g id="edge1" class="edge"><title>Node1&#45;&gt;Node2</title>
<path fill="none" stroke="midnightblue" d="M46.0507,-56.083C41.4855,-48.6127 34.8316,-37.7244 29.2066,-28.5199"/>
<polygon fill="midnightblue" stroke="midnightblue" points="32.0489,-26.4588 23.8479,-19.7511 26.0759,-30.109 32.0489,-26.4588"/>
</g>
<!-- Node3 -->
<g id="node3" class="node"><title>Node3</title>
<polygon fill="white" stroke="#bfbfbf" points="55.5,-0.5 55.5,-19.5 115.5,-19.5 115.5,-0.5 55.5,-0.5"/>
<text text-anchor="middle" x="85.5" y="-7.5" font-family="Helvetica,sans-Serif" font-size="10.00">rle_raw.h</text>
</g>
<!-- Node1&#45;&gt;Node3 -->
<g id="edge2" class="edge"><title>Node1&#45;&gt;Node3</title>
<path fill="none" stroke="midnightblue" d="M57.1144,-56.083C61.8674,-48.5341 68.8181,-37.4948 74.6516,-28.2298"/>
<polygon fill="midnightblue" stroke="midnightblue" points="77.6237,-30.0783 79.9901,-19.7511 71.7001,-26.3486 77.6237,-30.0783"/>
</g>
</g>
</svg>
