<?xml version="1.0" encoding="UTF-8" standalone="no"?>
<!DOCTYPE svg PUBLIC "-//W3C//DTD SVG 1.1//EN"
 "http://www.w3.org/Graphics/SVG/1.1/DTD/svg11.dtd">
<!-- Generated by graphviz version 2.38.0 (20140413.2041)
 -->
<!-- Title: getcx3d.c Pages: 1 -->
<svg width="434pt" height="84pt"
 viewBox="0.00 0.00 433.50 84.00" xmlns="http://www.w3.org/2000/svg" xmlns:xlink="http://www.w3.org/1999/xlink">
<g id="graph0" class="graph" transform="scale(1 1) rotate(0) translate(4 80)">
<title>getcx3d.c</title>
<polygon fill="white" stroke="none" points="-4,4 -4,-80 429.5,-80 429.5,4 -4,4"/>
<!-- Node1 -->
<g id="node1" class="node"><title>Node1</title>
<polygon fill="#bfbfbf" stroke="black" points="175.5,-56.5 175.5,-75.5 237.5,-75.5 237.5,-56.5 175.5,-56.5"/>
<text text-anchor="middle" x="206.5" y="-63.5" font-family="Helvetica,sans-Serif" font-size="10.00">getcx3d.c</text>
</g>
<!-- Node2 -->
<g id="node2" class="node"><title>Node2</title>
<polygon fill="white" stroke="#bfbfbf" points="0,-0.5 0,-19.5 37,-19.5 37,-0.5 0,-0.5"/>
<text text-anchor="middle" x="18.5" y="-7.5" font-family="Helvetica,sans-Serif" font-size="10.00">rle.h</text>
</g>
<!-- Node1&#45;&gt;Node2 -->
<g id="edge1" class="edge"><title>Node1&#45;&gt;Node2</title>
<path fill="none" stroke="midnightblue" d="M175.202,-56.7415C144.633,-48.5681 96.5836,-35.437 46.7133,-20.2738"/>
<polygon fill="midnightblue" stroke="midnightblue" points="47.6391,-16.897 37.0526,-17.3175 45.5907,-23.5906 47.6391,-16.897"/>
</g>
<!-- Node3 -->
<g id="node3" class="node"><title>Node3</title>
<polygon fill="white" stroke="#bfbfbf" points="55,-0.5 55,-19.5 102,-19.5 102,-0.5 55,-0.5"/>
<text text-anchor="middle" x="78.5" y="-7.5" font-family="Helvetica,sans-Serif" font-size="10.00">stdio.h</text>
</g>
<!-- Node1&#45;&gt;Node3 -->
<g id="edge2" class="edge"><title>Node1&#45;&gt;Node3</title>
<path fill="none" stroke="midnightblue" d="M186.218,-56.4435C165.153,-47.5566 131.983,-33.5632 108.014,-23.4514"/>
<polygon fill="midnightblue" stroke="midnightblue" points="109.261,-20.1787 98.6871,-19.5164 106.54,-26.6283 109.261,-20.1787"/>
</g>
<!-- Node4 -->
<g id="node4" class="node"><title>Node4</title>
<polygon fill="white" stroke="#bfbfbf" points="120,-0.5 120,-19.5 199,-19.5 199,-0.5 120,-0.5"/>
<text text-anchor="middle" x="159.5" y="-7.5" font-family="Helvetica,sans-Serif" font-size="10.00">cx3d_types.h</text>
</g>
<!-- Node1&#45;&gt;Node4 -->
<g id="edge3" class="edge"><title>Node1&#45;&gt;Node4</title>
<path fill="none" stroke="midnightblue" d="M198.739,-56.083C191.963,-48.2982 181.957,-36.8015 173.745,-27.3665"/>
<polygon fill="midnightblue" stroke="midnightblue" points="176.322,-24.9963 167.117,-19.7511 171.042,-29.592 176.322,-24.9963"/>
</g>
<!-- Node5 -->
<g id="node5" class="node"><title>Node5</title>
<polygon fill="white" stroke="#bfbfbf" points="217,-0.5 217,-19.5 292,-19.5 292,-0.5 217,-0.5"/>
<text text-anchor="middle" x="254.5" y="-7.5" font-family="Helvetica,sans-Serif" font-size="10.00">cx3d_solid.h</text>
</g>
<!-- Node1&#45;&gt;Node5 -->
<g id="edge4" class="edge"><title>Node1&#45;&gt;Node5</title>
<path fill="none" stroke="midnightblue" d="M214.426,-56.083C221.346,-48.2982 231.565,-36.8015 239.952,-27.3665"/>
<polygon fill="midnightblue" stroke="midnightblue" points="242.694,-29.5505 246.721,-19.7511 237.462,-24.8999 242.694,-29.5505"/>
</g>
<!-- Node6 -->
<g id="node6" class="node"><title>Node6</title>
<g id="a_node6"><a xlink:href="../../da/d41/gamma_8h.html" target="_top" xlink:title="gamma.h">
<polygon fill="white" stroke="black" points="310,-0.5 310,-19.5 369,-19.5 369,-0.5 310,-0.5"/>
<text text-anchor="middle" x="339.5" y="-7.5" font-family="Helvetica,sans-Serif" font-size="10.00">gamma.h</text>
</a>
</g>
</g>
<!-- Node1&#45;&gt;Node6 -->
<g id="edge5" class="edge"><title>Node1&#45;&gt;Node6</title>
<path fill="none" stroke="midnightblue" d="M227.574,-56.4435C249.56,-47.5171 284.234,-33.4387 309.164,-23.3168"/>
<polygon fill="midnightblue" stroke="midnightblue" points="310.576,-26.5213 318.524,-19.5164 307.942,-20.0355 310.576,-26.5213"/>
</g>
<!-- Node7 -->
<g id="node7" class="node"><title>Node7</title>
<g id="a_node7"><a xlink:href="../../de/d62/sig_8h.html" target="_top" xlink:title="sig.h">
<polygon fill="white" stroke="black" points="387.5,-0.5 387.5,-19.5 425.5,-19.5 425.5,-0.5 387.5,-0.5"/>
<text text-anchor="middle" x="406.5" y="-7.5" font-family="Helvetica,sans-Serif" font-size="10.00">sig.h</text>
</a>
</g>
</g>
<!-- Node1&#45;&gt;Node7 -->
<g id="edge6" class="edge"><title>Node1&#45;&gt;Node7</title>
<path fill="none" stroke="midnightblue" d="M237.714,-57.3833C270.327,-49.3049 323.183,-35.8751 377.473,-20.1867"/>
<polygon fill="midnightblue" stroke="midnightblue" points="378.64,-23.4923 387.263,-17.337 376.684,-16.7712 378.64,-23.4923"/>
</g>
</g>
</svg>
