<?xml version="1.0" encoding="UTF-8" standalone="no"?>
<!DOCTYPE svg PUBLIC "-//W3C//DTD SVG 1.1//EN"
 "http://www.w3.org/Graphics/SVG/1.1/DTD/svg11.dtd">
<!-- Generated by graphviz version 2.38.0 (20140413.2041)
 -->
<!-- Title: was_op Pages: 1 -->
<svg width="64pt" height="106pt"
 viewBox="0.00 0.00 63.50 106.00" xmlns="http://www.w3.org/2000/svg" xmlns:xlink="http://www.w3.org/1999/xlink">
<g id="graph0" class="graph" transform="scale(1 1) rotate(0) translate(4 102)">
<title>was_op</title>
<polygon fill="white" stroke="none" points="-4,4 -4,-102 59.5,-102 59.5,4 -4,4"/>
<!-- Node1 -->
<g id="node1" class="node"><title>Node1</title>
<polygon fill="#bfbfbf" stroke="black" points="-3.55271e-15,-0.5 -3.55271e-15,-19.5 53,-19.5 53,-0.5 -3.55271e-15,-0.5"/>
<text text-anchor="middle" x="26.5" y="-7.5" font-family="Helvetica,sans-Serif" font-size="10.00">was_op</text>
</g>
<!-- Node2 -->
<g id="node2" class="node"><title>Node2</title>
<polygon fill="white" stroke="#bfbfbf" points="7.5,-78.5 7.5,-97.5 45.5,-97.5 45.5,-78.5 7.5,-78.5"/>
<text text-anchor="middle" x="26.5" y="-85.5" font-family="Helvetica,sans-Serif" font-size="10.00">char</text>
</g>
<!-- Node2&#45;&gt;Node1 -->
<g id="edge1" class="edge"><title>Node2&#45;&gt;Node1</title>
<path fill="none" stroke="#9a32cd" stroke-dasharray="5,2" d="M26.5,-68.2239C26.5,-52.6974 26.5,-31.3582 26.5,-19.6165"/>
<polygon fill="#9a32cd" stroke="#9a32cd" points="23.0001,-68.2818 26.5,-78.2818 30.0001,-68.2819 23.0001,-68.2818"/>
<text text-anchor="middle" x="41" y="-52" font-family="Helvetica,sans-Serif" font-size="10.00"> count</text>
<text text-anchor="middle" x="41" y="-41" font-family="Helvetica,sans-Serif" font-size="10.00">data</text>
</g>
</g>
</svg>
