<?xml version="1.0" encoding="UTF-8" standalone="no"?>
<!DOCTYPE svg PUBLIC "-//W3C//DTD SVG 1.1//EN"
 "http://www.w3.org/Graphics/SVG/1.1/DTD/svg11.dtd">
<!-- Generated by graphviz version 2.38.0 (20140413.2041)
 -->
<!-- Title: move_t Pages: 1 -->
<svg width="94pt" height="106pt"
 viewBox="0.00 0.00 93.50 106.00" xmlns="http://www.w3.org/2000/svg" xmlns:xlink="http://www.w3.org/1999/xlink">
<g id="graph0" class="graph" transform="scale(1 1) rotate(0) translate(4 102)">
<title>move_t</title>
<polygon fill="white" stroke="none" points="-4,4 -4,-102 89.5,-102 89.5,4 -4,4"/>
<!-- Node1 -->
<g id="node1" class="node"><title>Node1</title>
<polygon fill="#bfbfbf" stroke="black" points="19.5,-0.5 19.5,-19.5 70.5,-19.5 70.5,-0.5 19.5,-0.5"/>
<text text-anchor="middle" x="45" y="-7.5" font-family="Helvetica,sans-Serif" font-size="10.00">move_t</text>
</g>
<!-- Node2 -->
<g id="node2" class="node"><title>Node2</title>
<polygon fill="white" stroke="#bfbfbf" points="0,-78.5 0,-97.5 38,-97.5 38,-78.5 0,-78.5"/>
<text text-anchor="middle" x="19" y="-85.5" font-family="Helvetica,sans-Serif" font-size="10.00">char</text>
</g>
<!-- Node2&#45;&gt;Node1 -->
<g id="edge1" class="edge"><title>Node2&#45;&gt;Node1</title>
<path fill="none" stroke="#9a32cd" stroke-dasharray="5,2" d="M19.0617,-68.1617C19.6462,-58.8092 21.206,-47.5073 25,-38 27.681,-31.2817 32.4572,-24.7371 36.6698,-19.7741"/>
<polygon fill="#9a32cd" stroke="#9a32cd" points="15.5574,-68.2481 18.7477,-78.3511 22.5541,-68.4637 15.5574,-68.2481"/>
<text text-anchor="middle" x="37" y="-46.5" font-family="Helvetica,sans-Serif" font-size="10.00"> type</text>
</g>
<!-- Node3 -->
<g id="node3" class="node"><title>Node3</title>
<polygon fill="white" stroke="#bfbfbf" points="56.5,-78.5 56.5,-97.5 85.5,-97.5 85.5,-78.5 56.5,-78.5"/>
<text text-anchor="middle" x="71" y="-85.5" font-family="Helvetica,sans-Serif" font-size="10.00">int</text>
</g>
<!-- Node3&#45;&gt;Node1 -->
<g id="edge2" class="edge"><title>Node3&#45;&gt;Node1</title>
<path fill="none" stroke="#9a32cd" stroke-dasharray="5,2" d="M64.7307,-68.6744C59.407,-53.1127 52.0036,-31.4722 47.9477,-19.6165"/>
<polygon fill="#9a32cd" stroke="#9a32cd" points="61.469,-69.9531 68.0175,-78.2818 68.0921,-67.6873 61.469,-69.9531"/>
<text text-anchor="middle" x="66.5" y="-52" font-family="Helvetica,sans-Serif" font-size="10.00"> x</text>
<text text-anchor="middle" x="66.5" y="-41" font-family="Helvetica,sans-Serif" font-size="10.00">y</text>
</g>
</g>
</svg>
