<?xml version="1.0" encoding="UTF-8" standalone="no"?>
<!DOCTYPE svg PUBLIC "-//W3C//DTD SVG 1.1//EN"
 "http://www.w3.org/Graphics/SVG/1.1/DTD/svg11.dtd">
<!-- Generated by graphviz version 2.38.0 (20140413.2041)
 -->
<!-- Title: get/next/Image.h Pages: 1 -->
<svg width="275pt" height="84pt"
 viewBox="0.00 0.00 274.50 84.00" xmlns="http://www.w3.org/2000/svg" xmlns:xlink="http://www.w3.org/1999/xlink">
<g id="graph0" class="graph" transform="scale(1 1) rotate(0) translate(4 80)">
<title>get/next/Image.h</title>
<polygon fill="white" stroke="none" points="-4,4 -4,-80 270.5,-80 270.5,4 -4,4"/>
<!-- Node1 -->
<g id="node1" class="node"><title>Node1</title>
<polygon fill="#bfbfbf" stroke="black" points="70.5,-56.5 70.5,-75.5 165.5,-75.5 165.5,-56.5 70.5,-56.5"/>
<text text-anchor="middle" x="118" y="-63.5" font-family="Helvetica,sans-Serif" font-size="10.00">get/next/Image.h</text>
</g>
<!-- Node2 -->
<g id="node2" class="node"><title>Node2</title>
<polygon fill="white" stroke="#bfbfbf" points="0,-0.5 0,-19.5 48,-19.5 48,-0.5 0,-0.5"/>
<text text-anchor="middle" x="24" y="-7.5" font-family="Helvetica,sans-Serif" font-size="10.00">zone.h</text>
</g>
<!-- Node1&#45;&gt;Node2 -->
<g id="edge1" class="edge"><title>Node1&#45;&gt;Node2</title>
<path fill="none" stroke="midnightblue" d="M102.897,-56.324C88.0967,-47.8215 65.3058,-34.7288 48.0178,-24.7975"/>
<polygon fill="midnightblue" stroke="midnightblue" points="49.4798,-21.6009 39.0652,-19.6545 45.9929,-27.6707 49.4798,-21.6009"/>
</g>
<!-- Node3 -->
<g id="node3" class="node"><title>Node3</title>
<polygon fill="white" stroke="#bfbfbf" points="66.5,-0.5 66.5,-19.5 169.5,-19.5 169.5,-0.5 66.5,-0.5"/>
<text text-anchor="middle" x="118" y="-7.5" font-family="Helvetica,sans-Serif" font-size="10.00">streams/streams.h</text>
</g>
<!-- Node1&#45;&gt;Node3 -->
<g id="edge2" class="edge"><title>Node1&#45;&gt;Node3</title>
<path fill="none" stroke="midnightblue" d="M118,-56.083C118,-49.0059 118,-38.8611 118,-29.9865"/>
<polygon fill="midnightblue" stroke="midnightblue" points="121.5,-29.751 118,-19.7511 114.5,-29.7511 121.5,-29.751"/>
</g>
<!-- Node4 -->
<g id="node4" class="node"><title>Node4</title>
<polygon fill="white" stroke="#bfbfbf" points="187.5,-0.5 187.5,-19.5 266.5,-19.5 266.5,-0.5 187.5,-0.5"/>
<text text-anchor="middle" x="227" y="-7.5" font-family="Helvetica,sans-Serif" font-size="10.00">appkit/View.h</text>
</g>
<!-- Node1&#45;&gt;Node4 -->
<g id="edge3" class="edge"><title>Node1&#45;&gt;Node4</title>
<path fill="none" stroke="midnightblue" d="M135.513,-56.324C153.072,-47.6247 180.331,-34.1202 200.531,-24.113"/>
<polygon fill="midnightblue" stroke="midnightblue" points="202.124,-27.23 209.531,-19.6545 199.016,-20.9575 202.124,-27.23"/>
</g>
</g>
</svg>
