<?xml version="1.0" encoding="UTF-8" standalone="no"?>
<!DOCTYPE svg PUBLIC "-//W3C//DTD SVG 1.1//EN"
 "http://www.w3.org/Graphics/SVG/1.1/DTD/svg11.dtd">
<!-- Generated by graphviz version 2.38.0 (20140413.2041)
 -->
<!-- Title: qcr.h Pages: 1 -->
<svg width="194pt" height="84pt"
 viewBox="0.00 0.00 194.00 84.00" xmlns="http://www.w3.org/2000/svg" xmlns:xlink="http://www.w3.org/1999/xlink">
<g id="graph0" class="graph" transform="scale(1 1) rotate(0) translate(4 80)">
<title>qcr.h</title>
<polygon fill="white" stroke="none" points="-4,4 -4,-80 190,-80 190,4 -4,4"/>
<!-- Node1 -->
<g id="node1" class="node"><title>Node1</title>
<polygon fill="#bfbfbf" stroke="black" points="72,-56.5 72,-75.5 112,-75.5 112,-56.5 72,-56.5"/>
<text text-anchor="middle" x="92" y="-63.5" font-family="Helvetica,sans-Serif" font-size="10.00">qcr.h</text>
</g>
<!-- Node2 -->
<g id="node2" class="node"><title>Node2</title>
<g id="a_node2"><a xlink:href="../../d3/d22/getqcr_8c.html" target="_top" xlink:title="getqcr.c">
<polygon fill="white" stroke="black" points="0,-0.5 0,-19.5 54,-19.5 54,-0.5 0,-0.5"/>
<text text-anchor="middle" x="27" y="-7.5" font-family="Helvetica,sans-Serif" font-size="10.00">getqcr.c</text>
</a>
</g>
</g>
<!-- Node1&#45;&gt;Node2 -->
<g id="edge1" class="edge"><title>Node1&#45;&gt;Node2</title>
<path fill="none" stroke="midnightblue" d="M73.7274,-49.8197C62.0822,-40.1452 47.4005,-27.9481 37.6334,-19.8339"/>
<polygon fill="midnightblue" stroke="midnightblue" points="71.6281,-52.6259 81.5566,-56.324 76.1013,-47.2416 71.6281,-52.6259"/>
</g>
<!-- Node3 -->
<g id="node3" class="node"><title>Node3</title>
<g id="a_node3"><a xlink:href="../../d8/d32/qcr_8c.html" target="_top" xlink:title="qcr.c">
<polygon fill="white" stroke="black" points="72.5,-0.5 72.5,-19.5 111.5,-19.5 111.5,-0.5 72.5,-0.5"/>
<text text-anchor="middle" x="92" y="-7.5" font-family="Helvetica,sans-Serif" font-size="10.00">qcr.c</text>
</a>
</g>
</g>
<!-- Node1&#45;&gt;Node3 -->
<g id="edge2" class="edge"><title>Node1&#45;&gt;Node3</title>
<path fill="none" stroke="midnightblue" d="M92,-45.8045C92,-36.9102 92,-26.7798 92,-19.7511"/>
<polygon fill="midnightblue" stroke="midnightblue" points="88.5001,-46.083 92,-56.083 95.5001,-46.083 88.5001,-46.083"/>
</g>
<!-- Node4 -->
<g id="node4" class="node"><title>Node4</title>
<g id="a_node4"><a xlink:href="../../dd/d2b/wedge_8c.html" target="_top" xlink:title="wedge.c">
<polygon fill="white" stroke="black" points="130,-0.5 130,-19.5 186,-19.5 186,-0.5 130,-0.5"/>
<text text-anchor="middle" x="158" y="-7.5" font-family="Helvetica,sans-Serif" font-size="10.00">wedge.c</text>
</a>
</g>
</g>
<!-- Node1&#45;&gt;Node4 -->
<g id="edge3" class="edge"><title>Node1&#45;&gt;Node4</title>
<path fill="none" stroke="midnightblue" d="M110.554,-49.8197C122.378,-40.1452 137.286,-27.9481 147.203,-19.8339"/>
<polygon fill="midnightblue" stroke="midnightblue" points="108.127,-47.2827 102.604,-56.324 112.56,-52.7004 108.127,-47.2827"/>
</g>
</g>
</svg>
