<?xml version="1.0" encoding="UTF-8" standalone="no"?>
<!DOCTYPE svg PUBLIC "-//W3C//DTD SVG 1.1//EN"
 "http://www.w3.org/Graphics/SVG/1.1/DTD/svg11.dtd">
<!-- Generated by graphviz version 2.38.0 (20140413.2041)
 -->
<!-- Title: get/qcr/qcr.h Pages: 1 -->
<svg width="302pt" height="84pt"
 viewBox="0.00 0.00 302.00 84.00" xmlns="http://www.w3.org/2000/svg" xmlns:xlink="http://www.w3.org/1999/xlink">
<g id="graph0" class="graph" transform="scale(1 1) rotate(0) translate(4 80)">
<title>get/qcr/qcr.h</title>
<polygon fill="white" stroke="none" points="-4,4 -4,-80 298,-80 298,4 -4,4"/>
<!-- Node1 -->
<g id="node1" class="node"><title>Node1</title>
<polygon fill="#bfbfbf" stroke="black" points="108,-56.5 108,-75.5 184,-75.5 184,-56.5 108,-56.5"/>
<text text-anchor="middle" x="146" y="-63.5" font-family="Helvetica,sans-Serif" font-size="10.00">get/qcr/qcr.h</text>
</g>
<!-- Node2 -->
<g id="node2" class="node"><title>Node2</title>
<g id="a_node2"><a xlink:href="../../d3/d22/getqcr_8c.html" target="_top" xlink:title="get/qcr/getqcr.c">
<polygon fill="white" stroke="black" points="0,-0.5 0,-19.5 90,-19.5 90,-0.5 0,-0.5"/>
<text text-anchor="middle" x="45" y="-7.5" font-family="Helvetica,sans-Serif" font-size="10.00">get/qcr/getqcr.c</text>
</a>
</g>
</g>
<!-- Node1&#45;&gt;Node2 -->
<g id="edge1" class="edge"><title>Node1&#45;&gt;Node2</title>
<path fill="none" stroke="midnightblue" d="M120.917,-51.5895C102.243,-41.6052 77.296,-28.2672 61.1871,-19.6545"/>
<polygon fill="midnightblue" stroke="midnightblue" points="119.304,-54.6955 129.773,-56.324 122.604,-48.5224 119.304,-54.6955"/>
</g>
<!-- Node3 -->
<g id="node3" class="node"><title>Node3</title>
<g id="a_node3"><a xlink:href="../../d8/d32/qcr_8c.html" target="_top" xlink:title="get/qcr/qcr.c">
<polygon fill="white" stroke="black" points="108.5,-0.5 108.5,-19.5 183.5,-19.5 183.5,-0.5 108.5,-0.5"/>
<text text-anchor="middle" x="146" y="-7.5" font-family="Helvetica,sans-Serif" font-size="10.00">get/qcr/qcr.c</text>
</a>
</g>
</g>
<!-- Node1&#45;&gt;Node3 -->
<g id="edge2" class="edge"><title>Node1&#45;&gt;Node3</title>
<path fill="none" stroke="midnightblue" d="M146,-45.8045C146,-36.9102 146,-26.7798 146,-19.7511"/>
<polygon fill="midnightblue" stroke="midnightblue" points="142.5,-46.083 146,-56.083 149.5,-46.083 142.5,-46.083"/>
</g>
<!-- Node4 -->
<g id="node4" class="node"><title>Node4</title>
<g id="a_node4"><a xlink:href="../../dd/d2b/wedge_8c.html" target="_top" xlink:title="get/qcr/wedge.c">
<polygon fill="white" stroke="black" points="202,-0.5 202,-19.5 294,-19.5 294,-0.5 202,-0.5"/>
<text text-anchor="middle" x="248" y="-7.5" font-family="Helvetica,sans-Serif" font-size="10.00">get/qcr/wedge.c</text>
</a>
</g>
</g>
<!-- Node1&#45;&gt;Node4 -->
<g id="edge3" class="edge"><title>Node1&#45;&gt;Node4</title>
<path fill="none" stroke="midnightblue" d="M171.331,-51.5895C190.19,-41.6052 215.384,-28.2672 231.653,-19.6545"/>
<polygon fill="midnightblue" stroke="midnightblue" points="169.588,-48.5518 162.388,-56.324 172.864,-54.7383 169.588,-48.5518"/>
</g>
</g>
</svg>
