<?xml version="1.0" encoding="UTF-8" standalone="no"?>
<!DOCTYPE svg PUBLIC "-//W3C//DTD SVG 1.1//EN"
 "http://www.w3.org/Graphics/SVG/1.1/DTD/svg11.dtd">
<!-- Generated by graphviz version 2.38.0 (20140413.2041)
 -->
<!-- Title: set_resolution Pages: 1 -->
<svg width="288pt" height="66pt"
 viewBox="0.00 0.00 288.00 66.00" xmlns="http://www.w3.org/2000/svg" xmlns:xlink="http://www.w3.org/1999/xlink">
<g id="graph0" class="graph" transform="scale(1 1) rotate(0) translate(4 62)">
<title>set_resolution</title>
<polygon fill="white" stroke="none" points="-4,4 -4,-62 284,-62 284,4 -4,4"/>
<!-- Node1 -->
<g id="node1" class="node"><title>Node1</title>
<polygon fill="#bfbfbf" stroke="black" points="0,-19.5 0,-38.5 83,-38.5 83,-19.5 0,-19.5"/>
<text text-anchor="middle" x="41.5" y="-26.5" font-family="Helvetica,sans-Serif" font-size="10.00">set_resolution</text>
</g>
<!-- Node2 -->
<g id="node2" class="node"><title>Node2</title>
<g id="a_node2"><a xlink:href="../../d8/d32/qcr_8c.html#a2b2ff927916d4377498b463521638ce0" target="_top" xlink:title="set_up_qcr">
<polygon fill="white" stroke="black" points="127.5,-38.5 127.5,-57.5 196.5,-57.5 196.5,-38.5 127.5,-38.5"/>
<text text-anchor="middle" x="162" y="-45.5" font-family="Helvetica,sans-Serif" font-size="10.00">set_up_qcr</text>
</a>
</g>
</g>
<!-- Node1&#45;&gt;Node2 -->
<g id="edge1" class="edge"><title>Node1&#45;&gt;Node2</title>
<path fill="none" stroke="midnightblue" d="M93.2207,-37.1324C104.71,-38.9747 116.637,-40.8869 127.224,-42.5844"/>
<polygon fill="midnightblue" stroke="midnightblue" points="93.709,-33.6661 83.281,-35.5387 92.6007,-40.5778 93.709,-33.6661"/>
</g>
<!-- Node4 -->
<g id="node4" class="node"><title>Node4</title>
<g id="a_node4"><a xlink:href="../../d8/d32/qcr_8c.html#a0470cb39dc27723f662f2481e429e118" target="_top" xlink:title="set_up_qcr_nc">
<polygon fill="white" stroke="black" points="119,-0.5 119,-19.5 205,-19.5 205,-0.5 119,-0.5"/>
<text text-anchor="middle" x="162" y="-7.5" font-family="Helvetica,sans-Serif" font-size="10.00">set_up_qcr_nc</text>
</a>
</g>
</g>
<!-- Node1&#45;&gt;Node4 -->
<g id="edge3" class="edge"><title>Node1&#45;&gt;Node4</title>
<path fill="none" stroke="midnightblue" d="M93.198,-20.8712C101.779,-19.4953 110.605,-18.0802 118.935,-16.7447"/>
<polygon fill="midnightblue" stroke="midnightblue" points="92.6007,-17.4222 83.281,-22.4613 93.709,-24.3339 92.6007,-17.4222"/>
</g>
<!-- Node3 -->
<g id="node3" class="node"><title>Node3</title>
<g id="a_node3"><a xlink:href="../../d3/d22/getqcr_8c.html#a5ea466849f21e6c2be4ef9b2eb8868d3" target="_top" xlink:title="main">
<polygon fill="white" stroke="black" points="241,-19.5 241,-38.5 280,-38.5 280,-19.5 241,-19.5"/>
<text text-anchor="middle" x="260.5" y="-26.5" font-family="Helvetica,sans-Serif" font-size="10.00">main</text>
</a>
</g>
</g>
<!-- Node2&#45;&gt;Node3 -->
<g id="edge2" class="edge"><title>Node2&#45;&gt;Node3</title>
<path fill="none" stroke="midnightblue" d="M206.674,-39.4009C218.673,-37.0386 231.052,-34.6012 240.808,-32.6803"/>
<polygon fill="midnightblue" stroke="midnightblue" points="205.886,-35.9887 196.751,-41.3547 207.239,-42.8569 205.886,-35.9887"/>
</g>
<!-- Node4&#45;&gt;Node3 -->
<g id="edge4" class="edge"><title>Node4&#45;&gt;Node3</title>
<path fill="none" stroke="midnightblue" d="M214.976,-20.2336C224.12,-22.0341 233.085,-23.7992 240.546,-25.2682"/>
<polygon fill="midnightblue" stroke="midnightblue" points="215.533,-16.7762 205.046,-18.2784 214.181,-23.6444 215.533,-16.7762"/>
</g>
</g>
</svg>
