<?xml version="1.0" encoding="UTF-8" standalone="no"?>
<!DOCTYPE svg PUBLIC "-//W3C//DTD SVG 1.1//EN"
 "http://www.w3.org/Graphics/SVG/1.1/DTD/svg11.dtd">
<!-- Generated by graphviz version 2.38.0 (20140413.2041)
 -->
<!-- Title: qcr_ld_lut12 Pages: 1 -->
<svg width="204pt" height="66pt"
 viewBox="0.00 0.00 204.00 66.00" xmlns="http://www.w3.org/2000/svg" xmlns:xlink="http://www.w3.org/1999/xlink">
<g id="graph0" class="graph" transform="scale(1 1) rotate(0) translate(4 62)">
<title>qcr_ld_lut12</title>
<polygon fill="white" stroke="none" points="-4,4 -4,-62 200,-62 200,4 -4,4"/>
<!-- Node1 -->
<g id="node1" class="node"><title>Node1</title>
<polygon fill="#bfbfbf" stroke="black" points="0,-19.5 0,-38.5 74,-38.5 74,-19.5 0,-19.5"/>
<text text-anchor="middle" x="37" y="-26.5" font-family="Helvetica,sans-Serif" font-size="10.00">qcr_ld_lut12</text>
</g>
<!-- Node2 -->
<g id="node2" class="node"><title>Node2</title>
<g id="a_node2"><a xlink:href="../../d8/d32/qcr_8c.html#a2a438a836aea68e6d1d03876f915fd34" target="_top" xlink:title="write_qcr_cmd">
<polygon fill="white" stroke="black" points="110,-38.5 110,-57.5 196,-57.5 196,-38.5 110,-38.5"/>
<text text-anchor="middle" x="153" y="-45.5" font-family="Helvetica,sans-Serif" font-size="10.00">write_qcr_cmd</text>
</a>
</g>
</g>
<!-- Node1&#45;&gt;Node2 -->
<g id="edge1" class="edge"><title>Node1&#45;&gt;Node2</title>
<path fill="none" stroke="midnightblue" d="M74.0703,-35.0117C82.2283,-36.3714 91.0505,-37.8418 99.7257,-39.2876"/>
<polygon fill="midnightblue" stroke="midnightblue" points="99.3542,-42.7739 109.794,-40.9656 100.505,-35.8691 99.3542,-42.7739"/>
</g>
<!-- Node3 -->
<g id="node3" class="node"><title>Node3</title>
<g id="a_node3"><a xlink:href="../../d8/d32/qcr_8c.html#a3f79487ca7f975f79879b953f719e20d" target="_top" xlink:title="write_data">
<polygon fill="white" stroke="black" points="120,-0.5 120,-19.5 186,-19.5 186,-0.5 120,-0.5"/>
<text text-anchor="middle" x="153" y="-7.5" font-family="Helvetica,sans-Serif" font-size="10.00">write_data</text>
</a>
</g>
</g>
<!-- Node1&#45;&gt;Node3 -->
<g id="edge2" class="edge"><title>Node1&#45;&gt;Node3</title>
<path fill="none" stroke="midnightblue" d="M74.0703,-22.9883C85.3716,-21.1047 97.9477,-19.0087 109.642,-17.0597"/>
<polygon fill="midnightblue" stroke="midnightblue" points="110.349,-20.4903 119.637,-15.3938 109.198,-13.5855 110.349,-20.4903"/>
</g>
</g>
</svg>
