<?xml version="1.0" encoding="UTF-8" standalone="no"?>
<!DOCTYPE svg PUBLIC "-//W3C//DTD SVG 1.1//EN"
 "http://www.w3.org/Graphics/SVG/1.1/DTD/svg11.dtd">
<!-- Generated by graphviz version 2.38.0 (20140413.2041)
 -->
<!-- Title: set_up_qcr_nc Pages: 1 -->
<svg width="335pt" height="47pt"
 viewBox="0.00 0.00 335.00 47.00" xmlns="http://www.w3.org/2000/svg" xmlns:xlink="http://www.w3.org/1999/xlink">
<g id="graph0" class="graph" transform="scale(1 1) rotate(0) translate(4 43)">
<title>set_up_qcr_nc</title>
<polygon fill="white" stroke="none" points="-4,4 -4,-43 331,-43 331,4 -4,4"/>
<!-- Node1 -->
<g id="node1" class="node"><title>Node1</title>
<polygon fill="#bfbfbf" stroke="black" points="0,-0.5 0,-19.5 86,-19.5 86,-0.5 0,-0.5"/>
<text text-anchor="middle" x="43" y="-7.5" font-family="Helvetica,sans-Serif" font-size="10.00">set_up_qcr_nc</text>
</g>
<!-- Node2 -->
<g id="node2" class="node"><title>Node2</title>
<g id="a_node2"><a xlink:href="../../d8/d32/qcr_8c.html#abea42a43ce2ab8e6ae64cf47c8f278a6" target="_top" xlink:title="set_resolution">
<polygon fill="white" stroke="black" points="122,-19.5 122,-38.5 205,-38.5 205,-19.5 122,-19.5"/>
<text text-anchor="middle" x="163.5" y="-26.5" font-family="Helvetica,sans-Serif" font-size="10.00">set_resolution</text>
</a>
</g>
</g>
<!-- Node1&#45;&gt;Node2 -->
<g id="edge1" class="edge"><title>Node1&#45;&gt;Node2</title>
<path fill="none" stroke="midnightblue" d="M86.1123,-16.7522C94.432,-18.0861 103.245,-19.4992 111.814,-20.8731"/>
<polygon fill="midnightblue" stroke="midnightblue" points="111.288,-24.3335 121.716,-22.4609 112.397,-17.4218 111.288,-24.3335"/>
</g>
<!-- Node3 -->
<g id="node3" class="node"><title>Node3</title>
<g id="a_node3"><a xlink:href="../../d8/d32/qcr_8c.html#a2a438a836aea68e6d1d03876f915fd34" target="_top" xlink:title="write_qcr_cmd">
<polygon fill="white" stroke="black" points="241,-0.5 241,-19.5 327,-19.5 327,-0.5 241,-0.5"/>
<text text-anchor="middle" x="284" y="-7.5" font-family="Helvetica,sans-Serif" font-size="10.00">write_qcr_cmd</text>
</a>
</g>
</g>
<!-- Node1&#45;&gt;Node3 -->
<g id="edge3" class="edge"><title>Node1&#45;&gt;Node3</title>
<path fill="none" stroke="midnightblue" d="M86.1782,-10C126.498,-10 187.4,-10 230.769,-10"/>
<polygon fill="midnightblue" stroke="midnightblue" points="230.842,-13.5001 240.842,-10 230.842,-6.5001 230.842,-13.5001"/>
</g>
<!-- Node2&#45;&gt;Node3 -->
<g id="edge2" class="edge"><title>Node2&#45;&gt;Node3</title>
<path fill="none" stroke="midnightblue" d="M205.281,-22.4613C213.558,-21.1342 222.368,-19.7215 230.973,-18.3419"/>
<polygon fill="midnightblue" stroke="midnightblue" points="231.615,-21.7838 240.935,-16.7447 230.507,-14.872 231.615,-21.7838"/>
</g>
</g>
</svg>
