<?xml version="1.0" encoding="UTF-8" standalone="no"?>
<!DOCTYPE svg PUBLIC "-//W3C//DTD SVG 1.1//EN"
 "http://www.w3.org/Graphics/SVG/1.1/DTD/svg11.dtd">
<!-- Generated by graphviz version 2.38.0 (20140413.2041)
 -->
<!-- Title: qcr_wait_srq Pages: 1 -->
<svg width="298pt" height="104pt"
 viewBox="0.00 0.00 298.00 104.00" xmlns="http://www.w3.org/2000/svg" xmlns:xlink="http://www.w3.org/1999/xlink">
<g id="graph0" class="graph" transform="scale(1 1) rotate(0) translate(4 100)">
<title>qcr_wait_srq</title>
<polygon fill="white" stroke="none" points="-4,4 -4,-100 294,-100 294,4 -4,4"/>
<!-- Node1 -->
<g id="node1" class="node"><title>Node1</title>
<polygon fill="#bfbfbf" stroke="black" points="0,-38.5 0,-57.5 77,-57.5 77,-38.5 0,-38.5"/>
<text text-anchor="middle" x="38.5" y="-45.5" font-family="Helvetica,sans-Serif" font-size="10.00">qcr_wait_srq</text>
</g>
<!-- Node2 -->
<g id="node2" class="node"><title>Node2</title>
<g id="a_node2"><a xlink:href="../../d8/d32/qcr_8c.html#ab203a14bb2545e56ab088e6f1ab171e8" target="_top" xlink:title="send_pixel_image">
<polygon fill="white" stroke="black" points="113,-76.5 113,-95.5 215,-95.5 215,-76.5 113,-76.5"/>
<text text-anchor="middle" x="164" y="-83.5" font-family="Helvetica,sans-Serif" font-size="10.00">send_pixel_image</text>
</a>
</g>
</g>
<!-- Node1&#45;&gt;Node2 -->
<g id="edge1" class="edge"><title>Node1&#45;&gt;Node2</title>
<path fill="none" stroke="midnightblue" d="M80.2397,-60.5353C97.0405,-65.7048 116.197,-71.5991 131.846,-76.4141"/>
<polygon fill="midnightblue" stroke="midnightblue" points="81.2514,-57.1847 70.6643,-57.589 79.1927,-63.8752 81.2514,-57.1847"/>
</g>
<!-- Node4 -->
<g id="node4" class="node"><title>Node4</title>
<g id="a_node4"><a xlink:href="../../d8/d32/qcr_8c.html#a5ab6d018ed647b902498996056b032bf" target="_top" xlink:title="send_rle_image">
<polygon fill="white" stroke="black" points="118,-38.5 118,-57.5 210,-57.5 210,-38.5 118,-38.5"/>
<text text-anchor="middle" x="164" y="-45.5" font-family="Helvetica,sans-Serif" font-size="10.00">send_rle_image</text>
</a>
</g>
</g>
<!-- Node1&#45;&gt;Node4 -->
<g id="edge3" class="edge"><title>Node1&#45;&gt;Node4</title>
<path fill="none" stroke="midnightblue" d="M87.3779,-48C97.3416,-48 107.814,-48 117.682,-48"/>
<polygon fill="midnightblue" stroke="midnightblue" points="87.2252,-44.5001 77.2251,-48 87.2251,-51.5001 87.2252,-44.5001"/>
</g>
<!-- Node5 -->
<g id="node5" class="node"><title>Node5</title>
<g id="a_node5"><a xlink:href="../../d5/dd9/rleClock_8c.html#acdef7a1fd863a6d3770c1268cb06add3" target="_top" xlink:title="main">
<polygon fill="white" stroke="black" points="144.5,-0.5 144.5,-19.5 183.5,-19.5 183.5,-0.5 144.5,-0.5"/>
<text text-anchor="middle" x="164" y="-7.5" font-family="Helvetica,sans-Serif" font-size="10.00">main</text>
</a>
</g>
</g>
<!-- Node1&#45;&gt;Node5 -->
<g id="edge4" class="edge"><title>Node1&#45;&gt;Node5</title>
<path fill="none" stroke="midnightblue" d="M80.2505,-35.4614C101.805,-28.8292 127.235,-21.0048 144.159,-15.7972"/>
<polygon fill="midnightblue" stroke="midnightblue" points="79.1927,-32.1248 70.6643,-38.411 81.2514,-38.8153 79.1927,-32.1248"/>
</g>
<!-- Node3 -->
<g id="node3" class="node"><title>Node3</title>
<g id="a_node3"><a xlink:href="../../d3/d22/getqcr_8c.html#a5ea466849f21e6c2be4ef9b2eb8868d3" target="_top" xlink:title="main">
<polygon fill="white" stroke="black" points="251,-76.5 251,-95.5 290,-95.5 290,-76.5 251,-76.5"/>
<text text-anchor="middle" x="270.5" y="-83.5" font-family="Helvetica,sans-Serif" font-size="10.00">main</text>
</a>
</g>
</g>
<!-- Node2&#45;&gt;Node3 -->
<g id="edge2" class="edge"><title>Node2&#45;&gt;Node3</title>
<path fill="none" stroke="midnightblue" d="M225.271,-86C234.565,-86 243.512,-86 250.898,-86"/>
<polygon fill="midnightblue" stroke="midnightblue" points="225.108,-82.5001 215.107,-86 225.107,-89.5001 225.108,-82.5001"/>
</g>
</g>
</svg>
