<?xml version="1.0" encoding="UTF-8" standalone="no"?>
<!DOCTYPE svg PUBLIC "-//W3C//DTD SVG 1.1//EN"
 "http://www.w3.org/Graphics/SVG/1.1/DTD/svg11.dtd">
<!-- Generated by graphviz version 2.38.0 (20140413.2041)
 -->
<!-- Title: write_data Pages: 1 -->
<svg width="287pt" height="180pt"
 viewBox="0.00 0.00 287.00 180.00" xmlns="http://www.w3.org/2000/svg" xmlns:xlink="http://www.w3.org/1999/xlink">
<g id="graph0" class="graph" transform="scale(1 1) rotate(0) translate(4 176)">
<title>write_data</title>
<polygon fill="white" stroke="none" points="-4,4 -4,-176 283,-176 283,4 -4,4"/>
<!-- Node1 -->
<g id="node1" class="node"><title>Node1</title>
<polygon fill="#bfbfbf" stroke="black" points="0,-76.5 0,-95.5 66,-95.5 66,-76.5 0,-76.5"/>
<text text-anchor="middle" x="33" y="-83.5" font-family="Helvetica,sans-Serif" font-size="10.00">write_data</text>
</g>
<!-- Node2 -->
<g id="node2" class="node"><title>Node2</title>
<g id="a_node2"><a xlink:href="../../d8/d32/qcr_8c.html#ab203a14bb2545e56ab088e6f1ab171e8" target="_top" xlink:title="send_pixel_image">
<polygon fill="white" stroke="black" points="102,-152.5 102,-171.5 204,-171.5 204,-152.5 102,-152.5"/>
<text text-anchor="middle" x="153" y="-159.5" font-family="Helvetica,sans-Serif" font-size="10.00">send_pixel_image</text>
</a>
</g>
</g>
<!-- Node1&#45;&gt;Node2 -->
<g id="edge1" class="edge"><title>Node1&#45;&gt;Node2</title>
<path fill="none" stroke="midnightblue" d="M50.6451,-102.716C63.7165,-115.124 82.8527,-131.771 102,-143 108.168,-146.617 115.149,-149.777 121.896,-152.428"/>
<polygon fill="midnightblue" stroke="midnightblue" points="52.9559,-100.082 43.3442,-95.6246 48.0786,-105.103 52.9559,-100.082"/>
</g>
<!-- Node4 -->
<g id="node4" class="node"><title>Node4</title>
<g id="a_node4"><a xlink:href="../../d8/d32/qcr_8c.html#a98781104105a9cde9e694bf83b7b1308" target="_top" xlink:title="send_3pass_rle">
<polygon fill="white" stroke="black" points="107,-114.5 107,-133.5 199,-133.5 199,-114.5 107,-114.5"/>
<text text-anchor="middle" x="153" y="-121.5" font-family="Helvetica,sans-Serif" font-size="10.00">send_3pass_rle</text>
</a>
</g>
</g>
<!-- Node1&#45;&gt;Node4 -->
<g id="edge3" class="edge"><title>Node1&#45;&gt;Node4</title>
<path fill="none" stroke="midnightblue" d="M73.3761,-98.6804C89.3198,-103.815 107.421,-109.644 122.233,-114.414"/>
<polygon fill="midnightblue" stroke="midnightblue" points="74.3679,-95.3229 63.7764,-95.589 72.2221,-101.986 74.3679,-95.3229"/>
</g>
<!-- Node5 -->
<g id="node5" class="node"><title>Node5</title>
<g id="a_node5"><a xlink:href="../../d8/d32/qcr_8c.html#a9ba2c39c0c04e87fb4c355c4362be6d8" target="_top" xlink:title="qcr_ld_lut12">
<polygon fill="white" stroke="black" points="116,-76.5 116,-95.5 190,-95.5 190,-76.5 116,-76.5"/>
<text text-anchor="middle" x="153" y="-83.5" font-family="Helvetica,sans-Serif" font-size="10.00">qcr_ld_lut12</text>
</a>
</g>
</g>
<!-- Node1&#45;&gt;Node5 -->
<g id="edge4" class="edge"><title>Node1&#45;&gt;Node5</title>
<path fill="none" stroke="midnightblue" d="M76.27,-86C89.1468,-86 103.183,-86 115.633,-86"/>
<polygon fill="midnightblue" stroke="midnightblue" points="76.2441,-82.5001 66.244,-86 76.244,-89.5001 76.2441,-82.5001"/>
</g>
<!-- Node7 -->
<g id="node7" class="node"><title>Node7</title>
<g id="a_node7"><a xlink:href="../../d8/d32/qcr_8c.html#a1955c7178ed4c8eaecb6bcb8c0b07036" target="_top" xlink:title="qcr_load_i_luts">
<polygon fill="white" stroke="black" points="109,-38.5 109,-57.5 197,-57.5 197,-38.5 109,-38.5"/>
<text text-anchor="middle" x="153" y="-45.5" font-family="Helvetica,sans-Serif" font-size="10.00">qcr_load_i_luts</text>
</a>
</g>
</g>
<!-- Node1&#45;&gt;Node7 -->
<g id="edge6" class="edge"><title>Node1&#45;&gt;Node7</title>
<path fill="none" stroke="midnightblue" d="M73.3761,-73.3196C89.3198,-68.1852 107.421,-62.3559 122.233,-57.5859"/>
<polygon fill="midnightblue" stroke="midnightblue" points="72.2221,-70.0141 63.7764,-76.411 74.3679,-76.6771 72.2221,-70.0141"/>
</g>
<!-- Node8 -->
<g id="node8" class="node"><title>Node8</title>
<g id="a_node8"><a xlink:href="../../d5/dd9/rleClock_8c.html#acdef7a1fd863a6d3770c1268cb06add3" target="_top" xlink:title="main">
<polygon fill="white" stroke="black" points="133.5,-0.5 133.5,-19.5 172.5,-19.5 172.5,-0.5 133.5,-0.5"/>
<text text-anchor="middle" x="153" y="-7.5" font-family="Helvetica,sans-Serif" font-size="10.00">main</text>
</a>
</g>
</g>
<!-- Node1&#45;&gt;Node8 -->
<g id="edge8" class="edge"><title>Node1&#45;&gt;Node8</title>
<path fill="none" stroke="midnightblue" d="M50.6451,-69.2837C63.7165,-56.8755 82.8527,-40.2287 102,-29 111.773,-23.269 123.586,-18.6852 133.276,-15.4568"/>
<polygon fill="midnightblue" stroke="midnightblue" points="48.0786,-66.8972 43.3442,-76.3754 52.9559,-71.9184 48.0786,-66.8972"/>
</g>
<!-- Node3 -->
<g id="node3" class="node"><title>Node3</title>
<g id="a_node3"><a xlink:href="../../d3/d22/getqcr_8c.html#a5ea466849f21e6c2be4ef9b2eb8868d3" target="_top" xlink:title="main">
<polygon fill="white" stroke="black" points="240,-152.5 240,-171.5 279,-171.5 279,-152.5 240,-152.5"/>
<text text-anchor="middle" x="259.5" y="-159.5" font-family="Helvetica,sans-Serif" font-size="10.00">main</text>
</a>
</g>
</g>
<!-- Node2&#45;&gt;Node3 -->
<g id="edge2" class="edge"><title>Node2&#45;&gt;Node3</title>
<path fill="none" stroke="midnightblue" d="M214.271,-162C223.565,-162 232.512,-162 239.898,-162"/>
<polygon fill="midnightblue" stroke="midnightblue" points="214.108,-158.5 204.107,-162 214.107,-165.5 214.108,-158.5"/>
</g>
<!-- Node6 -->
<g id="node6" class="node"><title>Node6</title>
<g id="a_node6"><a xlink:href="../../d8/d32/qcrldmap_8c.html#a5ea466849f21e6c2be4ef9b2eb8868d3" target="_top" xlink:title="main">
<polygon fill="white" stroke="black" points="240,-57.5 240,-76.5 279,-76.5 279,-57.5 240,-57.5"/>
<text text-anchor="middle" x="259.5" y="-64.5" font-family="Helvetica,sans-Serif" font-size="10.00">main</text>
</a>
</g>
</g>
<!-- Node5&#45;&gt;Node6 -->
<g id="edge5" class="edge"><title>Node5&#45;&gt;Node6</title>
<path fill="none" stroke="midnightblue" d="M200.284,-77.5847C214.278,-75.0404 228.849,-72.3911 239.913,-70.3794"/>
<polygon fill="midnightblue" stroke="midnightblue" points="199.468,-74.1756 190.256,-79.408 200.721,-81.0627 199.468,-74.1756"/>
</g>
<!-- Node7&#45;&gt;Node6 -->
<g id="edge7" class="edge"><title>Node7&#45;&gt;Node6</title>
<path fill="none" stroke="midnightblue" d="M207.016,-57.6393C218.862,-59.793 230.654,-61.9371 239.959,-63.6288"/>
<polygon fill="midnightblue" stroke="midnightblue" points="207.572,-54.1831 197.107,-55.8377 206.32,-61.0702 207.572,-54.1831"/>
</g>
</g>
</svg>
