<?xml version="1.0" encoding="UTF-8" standalone="no"?>
<!DOCTYPE svg PUBLIC "-//W3C//DTD SVG 1.1//EN"
 "http://www.w3.org/Graphics/SVG/1.1/DTD/svg11.dtd">
<!-- Generated by graphviz version 2.38.0 (20140413.2041)
 -->
<!-- Title: send_pixel_image Pages: 1 -->
<svg width="232pt" height="104pt"
 viewBox="0.00 0.00 232.00 104.00" xmlns="http://www.w3.org/2000/svg" xmlns:xlink="http://www.w3.org/1999/xlink">
<g id="graph0" class="graph" transform="scale(1 1) rotate(0) translate(4 100)">
<title>send_pixel_image</title>
<polygon fill="white" stroke="none" points="-4,4 -4,-100 228,-100 228,4 -4,4"/>
<!-- Node1 -->
<g id="node1" class="node"><title>Node1</title>
<polygon fill="#bfbfbf" stroke="black" points="0,-38.5 0,-57.5 102,-57.5 102,-38.5 0,-38.5"/>
<text text-anchor="middle" x="51" y="-45.5" font-family="Helvetica,sans-Serif" font-size="10.00">send_pixel_image</text>
</g>
<!-- Node2 -->
<g id="node2" class="node"><title>Node2</title>
<g id="a_node2"><a xlink:href="../../d8/d32/qcr_8c.html#a2a438a836aea68e6d1d03876f915fd34" target="_top" xlink:title="write_qcr_cmd">
<polygon fill="white" stroke="black" points="138,-76.5 138,-95.5 224,-95.5 224,-76.5 138,-76.5"/>
<text text-anchor="middle" x="181" y="-83.5" font-family="Helvetica,sans-Serif" font-size="10.00">write_qcr_cmd</text>
</a>
</g>
</g>
<!-- Node1&#45;&gt;Node2 -->
<g id="edge1" class="edge"><title>Node1&#45;&gt;Node2</title>
<path fill="none" stroke="midnightblue" d="M84.2998,-57.589C100.52,-62.4044 120.375,-68.2988 137.787,-73.468"/>
<polygon fill="midnightblue" stroke="midnightblue" points="137.128,-76.9233 147.711,-76.4141 139.12,-70.2127 137.128,-76.9233"/>
</g>
<!-- Node3 -->
<g id="node3" class="node"><title>Node3</title>
<g id="a_node3"><a xlink:href="../../d8/d32/qcr_8c.html#a3f79487ca7f975f79879b953f719e20d" target="_top" xlink:title="write_data">
<polygon fill="white" stroke="black" points="148,-38.5 148,-57.5 214,-57.5 214,-38.5 148,-38.5"/>
<text text-anchor="middle" x="181" y="-45.5" font-family="Helvetica,sans-Serif" font-size="10.00">write_data</text>
</a>
</g>
</g>
<!-- Node1&#45;&gt;Node3 -->
<g id="edge2" class="edge"><title>Node1&#45;&gt;Node3</title>
<path fill="none" stroke="midnightblue" d="M102.222,-48C114.019,-48 126.472,-48 137.872,-48"/>
<polygon fill="midnightblue" stroke="midnightblue" points="137.997,-51.5001 147.997,-48 137.997,-44.5001 137.997,-51.5001"/>
</g>
<!-- Node4 -->
<g id="node4" class="node"><title>Node4</title>
<g id="a_node4"><a xlink:href="../../d8/d32/qcr_8c.html#ad653841390566b3e838ac4d414cf7b80" target="_top" xlink:title="qcr_wait_srq">
<polygon fill="white" stroke="black" points="142.5,-0.5 142.5,-19.5 219.5,-19.5 219.5,-0.5 142.5,-0.5"/>
<text text-anchor="middle" x="181" y="-7.5" font-family="Helvetica,sans-Serif" font-size="10.00">qcr_wait_srq</text>
</a>
</g>
</g>
<!-- Node1&#45;&gt;Node4 -->
<g id="edge3" class="edge"><title>Node1&#45;&gt;Node4</title>
<path fill="none" stroke="midnightblue" d="M84.2998,-38.411C100.52,-33.5956 120.375,-27.7012 137.787,-22.532"/>
<polygon fill="midnightblue" stroke="midnightblue" points="139.12,-25.7873 147.711,-19.5859 137.128,-19.0767 139.12,-25.7873"/>
</g>
</g>
</svg>
