<?xml version="1.0" encoding="UTF-8" standalone="no"?>
<!DOCTYPE svg PUBLIC "-//W3C//DTD SVG 1.1//EN"
 "http://www.w3.org/Graphics/SVG/1.1/DTD/svg11.dtd">
<!-- Generated by graphviz version 2.38.0 (20140413.2041)
 -->
<!-- Title: set_up_qcr Pages: 1 -->
<svg width="318pt" height="47pt"
 viewBox="0.00 0.00 318.00 47.00" xmlns="http://www.w3.org/2000/svg" xmlns:xlink="http://www.w3.org/1999/xlink">
<g id="graph0" class="graph" transform="scale(1 1) rotate(0) translate(4 43)">
<title>set_up_qcr</title>
<polygon fill="white" stroke="none" points="-4,4 -4,-43 314,-43 314,4 -4,4"/>
<!-- Node1 -->
<g id="node1" class="node"><title>Node1</title>
<polygon fill="#bfbfbf" stroke="black" points="0,-0.5 0,-19.5 69,-19.5 69,-0.5 0,-0.5"/>
<text text-anchor="middle" x="34.5" y="-7.5" font-family="Helvetica,sans-Serif" font-size="10.00">set_up_qcr</text>
</g>
<!-- Node2 -->
<g id="node2" class="node"><title>Node2</title>
<g id="a_node2"><a xlink:href="../../d8/d32/qcr_8c.html#abea42a43ce2ab8e6ae64cf47c8f278a6" target="_top" xlink:title="set_resolution">
<polygon fill="white" stroke="black" points="105,-19.5 105,-38.5 188,-38.5 188,-19.5 105,-19.5"/>
<text text-anchor="middle" x="146.5" y="-26.5" font-family="Helvetica,sans-Serif" font-size="10.00">set_resolution</text>
</a>
</g>
</g>
<!-- Node1&#45;&gt;Node2 -->
<g id="edge1" class="edge"><title>Node1&#45;&gt;Node2</title>
<path fill="none" stroke="midnightblue" d="M69.1013,-15.8039C77.1846,-17.2001 85.9985,-18.7225 94.6731,-20.2208"/>
<polygon fill="midnightblue" stroke="midnightblue" points="94.2905,-23.7065 104.74,-21.9597 95.482,-16.8086 94.2905,-23.7065"/>
</g>
<!-- Node3 -->
<g id="node3" class="node"><title>Node3</title>
<g id="a_node3"><a xlink:href="../../d8/d32/qcr_8c.html#a2a438a836aea68e6d1d03876f915fd34" target="_top" xlink:title="write_qcr_cmd">
<polygon fill="white" stroke="black" points="224,-0.5 224,-19.5 310,-19.5 310,-0.5 224,-0.5"/>
<text text-anchor="middle" x="267" y="-7.5" font-family="Helvetica,sans-Serif" font-size="10.00">write_qcr_cmd</text>
</a>
</g>
</g>
<!-- Node1&#45;&gt;Node3 -->
<g id="edge3" class="edge"><title>Node1&#45;&gt;Node3</title>
<path fill="none" stroke="midnightblue" d="M69.0167,-10C107.011,-10 169.423,-10 213.808,-10"/>
<polygon fill="midnightblue" stroke="midnightblue" points="213.832,-13.5001 223.832,-10 213.832,-6.5001 213.832,-13.5001"/>
</g>
<!-- Node2&#45;&gt;Node3 -->
<g id="edge2" class="edge"><title>Node2&#45;&gt;Node3</title>
<path fill="none" stroke="midnightblue" d="M188.281,-22.4613C196.558,-21.1342 205.368,-19.7215 213.973,-18.3419"/>
<polygon fill="midnightblue" stroke="midnightblue" points="214.615,-21.7838 223.935,-16.7447 213.507,-14.872 214.615,-21.7838"/>
</g>
</g>
</svg>
