<?xml version="1.0" encoding="UTF-8" standalone="no"?>
<!DOCTYPE svg PUBLIC "-//W3C//DTD SVG 1.1//EN"
 "http://www.w3.org/Graphics/SVG/1.1/DTD/svg11.dtd">
<!-- Generated by graphviz version 2.38.0 (20140413.2041)
 -->
<!-- Title: qcr_load_i_luts Pages: 1 -->
<svg width="218pt" height="66pt"
 viewBox="0.00 0.00 218.00 66.00" xmlns="http://www.w3.org/2000/svg" xmlns:xlink="http://www.w3.org/1999/xlink">
<g id="graph0" class="graph" transform="scale(1 1) rotate(0) translate(4 62)">
<title>qcr_load_i_luts</title>
<polygon fill="white" stroke="none" points="-4,4 -4,-62 214,-62 214,4 -4,4"/>
<!-- Node1 -->
<g id="node1" class="node"><title>Node1</title>
<polygon fill="#bfbfbf" stroke="black" points="0,-19.5 0,-38.5 88,-38.5 88,-19.5 0,-19.5"/>
<text text-anchor="middle" x="44" y="-26.5" font-family="Helvetica,sans-Serif" font-size="10.00">qcr_load_i_luts</text>
</g>
<!-- Node2 -->
<g id="node2" class="node"><title>Node2</title>
<g id="a_node2"><a xlink:href="../../d8/d32/qcr_8c.html#a2a438a836aea68e6d1d03876f915fd34" target="_top" xlink:title="write_qcr_cmd">
<polygon fill="white" stroke="black" points="124,-38.5 124,-57.5 210,-57.5 210,-38.5 124,-38.5"/>
<text text-anchor="middle" x="167" y="-45.5" font-family="Helvetica,sans-Serif" font-size="10.00">write_qcr_cmd</text>
</a>
</g>
</g>
<!-- Node1&#45;&gt;Node2 -->
<g id="edge1" class="edge"><title>Node1&#45;&gt;Node2</title>
<path fill="none" stroke="midnightblue" d="M88.0008,-35.7522C96.3983,-37.0708 105.288,-38.4667 113.943,-39.8257"/>
<polygon fill="midnightblue" stroke="midnightblue" points="113.529,-43.3035 123.951,-41.3972 114.615,-36.3883 113.529,-43.3035"/>
</g>
<!-- Node3 -->
<g id="node3" class="node"><title>Node3</title>
<g id="a_node3"><a xlink:href="../../d8/d32/qcr_8c.html#a3f79487ca7f975f79879b953f719e20d" target="_top" xlink:title="write_data">
<polygon fill="white" stroke="black" points="134,-0.5 134,-19.5 200,-19.5 200,-0.5 134,-0.5"/>
<text text-anchor="middle" x="167" y="-7.5" font-family="Helvetica,sans-Serif" font-size="10.00">write_data</text>
</a>
</g>
</g>
<!-- Node1&#45;&gt;Node3 -->
<g id="edge2" class="edge"><title>Node1&#45;&gt;Node3</title>
<path fill="none" stroke="midnightblue" d="M88.0008,-22.2478C99.6641,-20.4164 112.277,-18.4359 123.89,-16.6122"/>
<polygon fill="midnightblue" stroke="midnightblue" points="124.454,-20.0667 133.79,-15.0577 123.368,-13.1514 124.454,-20.0667"/>
</g>
</g>
</svg>
