<?xml version="1.0" encoding="UTF-8" standalone="no"?>
<!DOCTYPE svg PUBLIC "-//W3C//DTD SVG 1.1//EN"
 "http://www.w3.org/Graphics/SVG/1.1/DTD/svg11.dtd">
<!-- Generated by graphviz version 2.38.0 (20140413.2041)
 -->
<!-- Title: &#45;[RLE open:] Pages: 1 -->
<svg width="239pt" height="256pt"
 viewBox="0.00 0.00 239.00 256.00" xmlns="http://www.w3.org/2000/svg" xmlns:xlink="http://www.w3.org/1999/xlink">
<g id="graph0" class="graph" transform="scale(1 1) rotate(0) translate(4 252)">
<title>&#45;[RLE open:]</title>
<polygon fill="white" stroke="none" points="-4,4 -4,-252 235,-252 235,4 -4,4"/>
<!-- Node1 -->
<g id="node1" class="node"><title>Node1</title>
<polygon fill="#bfbfbf" stroke="black" points="0,-114.5 0,-133.5 75,-133.5 75,-114.5 0,-114.5"/>
<text text-anchor="middle" x="37.5" y="-121.5" font-family="Helvetica,sans-Serif" font-size="10.00">&#45;[RLE open:]</text>
</g>
<!-- Node2 -->
<g id="node2" class="node"><title>Node2</title>
<g id="a_node2"><a xlink:href="../../d8/d00/classImage.html#a3c43825b4cfc3809c7f84344e28d7b81" target="_top" xlink:title="&#45;[Image displayImage]">
<polygon fill="white" stroke="black" points="111,-228.5 111,-247.5 231,-247.5 231,-228.5 111,-228.5"/>
<text text-anchor="middle" x="171" y="-235.5" font-family="Helvetica,sans-Serif" font-size="10.00">&#45;[Image displayImage]</text>
</a>
</g>
</g>
<!-- Node1&#45;&gt;Node2 -->
<g id="edge1" class="edge"><title>Node1&#45;&gt;Node2</title>
<path fill="none" stroke="midnightblue" d="M43.2599,-133.634C53.1893,-152.752 77.9612,-195.65 111,-219 113.724,-220.925 116.654,-222.663 119.699,-224.23"/>
<polygon fill="midnightblue" stroke="midnightblue" points="118.535,-227.544 129.093,-228.438 121.397,-221.156 118.535,-227.544"/>
</g>
<!-- Node3 -->
<g id="node3" class="node"><title>Node3</title>
<g id="a_node3"><a xlink:href="../../db/d53/rle__getrow_8c.html#a619b27463c26e0a4a3d9648a9869ee52" target="_top" xlink:title="rle_get_setup">
<polygon fill="white" stroke="black" points="130.5,-190.5 130.5,-209.5 211.5,-209.5 211.5,-190.5 130.5,-190.5"/>
<text text-anchor="middle" x="171" y="-197.5" font-family="Helvetica,sans-Serif" font-size="10.00">rle_get_setup</text>
</a>
</g>
</g>
<!-- Node1&#45;&gt;Node3 -->
<g id="edge2" class="edge"><title>Node1&#45;&gt;Node3</title>
<path fill="none" stroke="midnightblue" d="M48.4797,-133.771C61.7503,-146.285 86.4045,-167.915 111,-181 115.009,-183.133 119.3,-185.079 123.671,-186.842"/>
<polygon fill="midnightblue" stroke="midnightblue" points="122.695,-190.213 133.288,-190.41 125.13,-183.65 122.695,-190.213"/>
</g>
<!-- Node4 -->
<g id="node4" class="node"><title>Node4</title>
<g id="a_node4"><a xlink:href="../../db/d53/rle__getrow_8c.html#a3602e1158189cba5e5b0f9b983cba776" target="_top" xlink:title="rle_getrow">
<polygon fill="white" stroke="black" points="137.5,-152.5 137.5,-171.5 204.5,-171.5 204.5,-152.5 137.5,-152.5"/>
<text text-anchor="middle" x="171" y="-159.5" font-family="Helvetica,sans-Serif" font-size="10.00">rle_getrow</text>
</a>
</g>
</g>
<!-- Node1&#45;&gt;Node4 -->
<g id="edge3" class="edge"><title>Node1&#45;&gt;Node4</title>
<path fill="none" stroke="midnightblue" d="M71.683,-133.589C88.6311,-138.487 109.441,-144.5 127.545,-149.732"/>
<polygon fill="midnightblue" stroke="midnightblue" points="126.705,-153.132 137.283,-152.546 128.648,-146.407 126.705,-153.132"/>
</g>
<!-- Node5 -->
<g id="node5" class="node"><title>Node5</title>
<g id="a_node5"><a xlink:href="../../d2/df3/rle__hdr_8c.html#a231008fb07b3bdc4d89c30d48b659909" target="_top" xlink:title="rle_names">
<polygon fill="white" stroke="black" points="138,-114.5 138,-133.5 204,-133.5 204,-114.5 138,-114.5"/>
<text text-anchor="middle" x="171" y="-121.5" font-family="Helvetica,sans-Serif" font-size="10.00">rle_names</text>
</a>
</g>
</g>
<!-- Node1&#45;&gt;Node5 -->
<g id="edge4" class="edge"><title>Node1&#45;&gt;Node5</title>
<path fill="none" stroke="midnightblue" d="M75.1301,-124C91.367,-124 110.573,-124 127.443,-124"/>
<polygon fill="midnightblue" stroke="midnightblue" points="127.597,-127.5 137.597,-124 127.597,-120.5 127.597,-127.5"/>
</g>
<!-- Node6 -->
<g id="node6" class="node"><title>Node6</title>
<g id="a_node6"><a xlink:href="../../de/d4e/rle__open__f_8c.html#a5a0e62a00f907fce26e93b2f72adb2b0" target="_top" xlink:title="rle_open_f_noexit">
<polygon fill="white" stroke="black" points="120,-76.5 120,-95.5 222,-95.5 222,-76.5 120,-76.5"/>
<text text-anchor="middle" x="171" y="-83.5" font-family="Helvetica,sans-Serif" font-size="10.00">rle_open_f_noexit</text>
</a>
</g>
</g>
<!-- Node1&#45;&gt;Node6 -->
<g id="edge5" class="edge"><title>Node1&#45;&gt;Node6</title>
<path fill="none" stroke="midnightblue" d="M71.683,-114.411C88.5027,-109.551 109.126,-103.591 127.134,-98.3873"/>
<polygon fill="midnightblue" stroke="midnightblue" points="128.192,-101.725 136.828,-95.5859 126.249,-94.9997 128.192,-101.725"/>
</g>
<!-- Node7 -->
<g id="node7" class="node"><title>Node7</title>
<g id="a_node7"><a xlink:href="../../da/dbc/rle__row__alc_8c.html#abf83029f1ab364a8cb72524f58d70a3b" target="_top" xlink:title="rle_row_alloc">
<polygon fill="white" stroke="black" points="131,-38.5 131,-57.5 211,-57.5 211,-38.5 131,-38.5"/>
<text text-anchor="middle" x="171" y="-45.5" font-family="Helvetica,sans-Serif" font-size="10.00">rle_row_alloc</text>
</a>
</g>
</g>
<!-- Node1&#45;&gt;Node7 -->
<g id="edge6" class="edge"><title>Node1&#45;&gt;Node7</title>
<path fill="none" stroke="midnightblue" d="M48.4797,-114.229C61.7503,-101.715 86.4045,-80.0845 111,-67 115.009,-64.867 119.3,-62.9209 123.671,-61.1581"/>
<polygon fill="midnightblue" stroke="midnightblue" points="125.13,-64.35 133.288,-57.5902 122.695,-57.7871 125.13,-64.35"/>
</g>
<!-- Node8 -->
<g id="node8" class="node"><title>Node8</title>
<g id="a_node8"><a xlink:href="../../da/dbc/rle__row__alc_8c.html#a4fa936a985e542d42e91d272f9f6092d" target="_top" xlink:title="rle_row_free">
<polygon fill="white" stroke="black" points="132.5,-0.5 132.5,-19.5 209.5,-19.5 209.5,-0.5 132.5,-0.5"/>
<text text-anchor="middle" x="171" y="-7.5" font-family="Helvetica,sans-Serif" font-size="10.00">rle_row_free</text>
</a>
</g>
</g>
<!-- Node1&#45;&gt;Node8 -->
<g id="edge7" class="edge"><title>Node1&#45;&gt;Node8</title>
<path fill="none" stroke="midnightblue" d="M43.2599,-114.366C53.1893,-95.2482 77.9612,-52.3499 111,-29 114.709,-26.3789 118.798,-24.1056 123.042,-22.1367"/>
<polygon fill="midnightblue" stroke="midnightblue" points="124.545,-25.3038 132.491,-18.2958 121.909,-18.8191 124.545,-25.3038"/>
</g>
</g>
</svg>
