<?xml version="1.0" encoding="UTF-8" standalone="no"?>
<!DOCTYPE svg PUBLIC "-//W3C//DTD SVG 1.1//EN"
 "http://www.w3.org/Graphics/SVG/1.1/DTD/svg11.dtd">
<!-- Generated by graphviz version 2.38.0 (20140413.2041)
 -->
<!-- Title: tools/applymap.c Pages: 1 -->
<svg width="267pt" height="196pt"
 viewBox="0.00 0.00 266.50 196.00" xmlns="http://www.w3.org/2000/svg" xmlns:xlink="http://www.w3.org/1999/xlink">
<g id="graph0" class="graph" transform="scale(1 1) rotate(0) translate(4 192)">
<title>tools/applymap.c</title>
<polygon fill="white" stroke="none" points="-4,4 -4,-192 262.5,-192 262.5,4 -4,4"/>
<!-- Node1 -->
<g id="node1" class="node"><title>Node1</title>
<polygon fill="#bfbfbf" stroke="black" points="85,-168.5 85,-187.5 180,-187.5 180,-168.5 85,-168.5"/>
<text text-anchor="middle" x="132.5" y="-175.5" font-family="Helvetica,sans-Serif" font-size="10.00">tools/applymap.c</text>
</g>
<!-- Node2 -->
<g id="node2" class="node"><title>Node2</title>
<polygon fill="white" stroke="#bfbfbf" points="0,-56.5 0,-75.5 47,-75.5 47,-56.5 0,-56.5"/>
<text text-anchor="middle" x="23.5" y="-63.5" font-family="Helvetica,sans-Serif" font-size="10.00">stdio.h</text>
</g>
<!-- Node1&#45;&gt;Node2 -->
<g id="edge1" class="edge"><title>Node1&#45;&gt;Node2</title>
<path fill="none" stroke="midnightblue" d="M118.77,-168.332C106.015,-159.918 86.8807,-146.345 72.5,-132 57.705,-117.241 43.6527,-97.8447 34.4217,-84.0928"/>
<polygon fill="midnightblue" stroke="midnightblue" points="37.2626,-82.0425 28.8513,-75.6004 31.4094,-85.8818 37.2626,-82.0425"/>
</g>
<!-- Node3 -->
<g id="node3" class="node"><title>Node3</title>
<g id="a_node3"><a xlink:href="../../d7/d27/rle_8h.html" target="_top" xlink:title="rle.h">
<polygon fill="white" stroke="black" points="82,-112.5 82,-131.5 119,-131.5 119,-112.5 82,-112.5"/>
<text text-anchor="middle" x="100.5" y="-119.5" font-family="Helvetica,sans-Serif" font-size="10.00">rle.h</text>
</a>
</g>
</g>
<!-- Node1&#45;&gt;Node3 -->
<g id="edge2" class="edge"><title>Node1&#45;&gt;Node3</title>
<path fill="none" stroke="midnightblue" d="M127.216,-168.083C122.789,-160.613 116.337,-149.724 110.882,-140.52"/>
<polygon fill="midnightblue" stroke="midnightblue" points="113.795,-138.57 105.686,-131.751 107.773,-142.138 113.795,-138.57"/>
</g>
<!-- Node5 -->
<g id="node5" class="node"><title>Node5</title>
<polygon fill="white" stroke="#bfbfbf" points="140,-0.5 140,-19.5 189,-19.5 189,-0.5 140,-0.5"/>
<text text-anchor="middle" x="164.5" y="-7.5" font-family="Helvetica,sans-Serif" font-size="10.00">stdlib.h</text>
</g>
<!-- Node1&#45;&gt;Node5 -->
<g id="edge9" class="edge"><title>Node1&#45;&gt;Node5</title>
<path fill="none" stroke="midnightblue" d="M134.22,-168.075C139.258,-141.945 154.05,-65.2106 160.919,-29.577"/>
<polygon fill="midnightblue" stroke="midnightblue" points="164.392,-30.0499 162.848,-19.5681 157.519,-28.7248 164.392,-30.0499"/>
</g>
<!-- Node7 -->
<g id="node7" class="node"><title>Node7</title>
<g id="a_node7"><a xlink:href="../../d3/d5d/rle__raw_8h.html" target="_top" xlink:title="rle_raw.h">
<polygon fill="white" stroke="black" points="193.5,-112.5 193.5,-131.5 253.5,-131.5 253.5,-112.5 193.5,-112.5"/>
<text text-anchor="middle" x="223.5" y="-119.5" font-family="Helvetica,sans-Serif" font-size="10.00">rle_raw.h</text>
</a>
</g>
</g>
<!-- Node1&#45;&gt;Node7 -->
<g id="edge7" class="edge"><title>Node1&#45;&gt;Node7</title>
<path fill="none" stroke="midnightblue" d="M147.121,-168.324C161.449,-159.822 183.513,-146.729 200.249,-136.797"/>
<polygon fill="midnightblue" stroke="midnightblue" points="202.102,-139.768 208.916,-131.655 198.53,-133.748 202.102,-139.768"/>
</g>
<!-- Node3&#45;&gt;Node2 -->
<g id="edge6" class="edge"><title>Node3&#45;&gt;Node2</title>
<path fill="none" stroke="midnightblue" d="M88.1286,-112.324C76.3415,-104.058 58.3677,-91.4527 44.3645,-81.6322"/>
<polygon fill="midnightblue" stroke="midnightblue" points="46.0376,-78.5307 35.8407,-75.6545 42.0184,-84.2619 46.0376,-78.5307"/>
</g>
<!-- Node4 -->
<g id="node4" class="node"><title>Node4</title>
<g id="a_node4"><a xlink:href="../../df/dad/rle__config_8h.html" target="_top" xlink:title="rle_config.h">
<polygon fill="white" stroke="black" points="65,-56.5 65,-75.5 136,-75.5 136,-56.5 65,-56.5"/>
<text text-anchor="middle" x="100.5" y="-63.5" font-family="Helvetica,sans-Serif" font-size="10.00">rle_config.h</text>
</a>
</g>
</g>
<!-- Node3&#45;&gt;Node4 -->
<g id="edge3" class="edge"><title>Node3&#45;&gt;Node4</title>
<path fill="none" stroke="midnightblue" d="M100.5,-112.083C100.5,-105.006 100.5,-94.8611 100.5,-85.9865"/>
<polygon fill="midnightblue" stroke="midnightblue" points="104,-85.751 100.5,-75.7511 97.0001,-85.7511 104,-85.751"/>
</g>
<!-- Node4&#45;&gt;Node5 -->
<g id="edge4" class="edge"><title>Node4&#45;&gt;Node5</title>
<path fill="none" stroke="midnightblue" d="M110.783,-56.324C120.336,-48.2631 134.78,-36.0765 146.284,-26.3695"/>
<polygon fill="midnightblue" stroke="midnightblue" points="148.644,-28.9577 154.03,-19.8339 144.13,-23.6076 148.644,-28.9577"/>
</g>
<!-- Node6 -->
<g id="node6" class="node"><title>Node6</title>
<polygon fill="white" stroke="#bfbfbf" points="71,-0.5 71,-19.5 122,-19.5 122,-0.5 71,-0.5"/>
<text text-anchor="middle" x="96.5" y="-7.5" font-family="Helvetica,sans-Serif" font-size="10.00">string.h</text>
</g>
<!-- Node4&#45;&gt;Node6 -->
<g id="edge5" class="edge"><title>Node4&#45;&gt;Node6</title>
<path fill="none" stroke="midnightblue" d="M99.8395,-56.083C99.3152,-49.0059 98.5638,-38.8611 97.9064,-29.9865"/>
<polygon fill="midnightblue" stroke="midnightblue" points="101.377,-29.4652 97.1482,-19.7511 94.3966,-29.9823 101.377,-29.4652"/>
</g>
<!-- Node8 -->
<g id="node8" class="node"><title>Node8</title>
<g id="a_node8"><a xlink:href="../../da/d8d/rle__code_8h.html" target="_top" xlink:title="rle_code.h">
<polygon fill="white" stroke="black" points="192.5,-56.5 192.5,-75.5 258.5,-75.5 258.5,-56.5 192.5,-56.5"/>
<text text-anchor="middle" x="225.5" y="-63.5" font-family="Helvetica,sans-Serif" font-size="10.00">rle_code.h</text>
</a>
</g>
</g>
<!-- Node7&#45;&gt;Node8 -->
<g id="edge8" class="edge"><title>Node7&#45;&gt;Node8</title>
<path fill="none" stroke="midnightblue" d="M223.83,-112.083C224.092,-105.006 224.468,-94.8611 224.797,-85.9865"/>
<polygon fill="midnightblue" stroke="midnightblue" points="228.303,-85.8738 225.176,-75.7511 221.308,-85.6147 228.303,-85.8738"/>
</g>
</g>
</svg>
