<?xml version="1.0" encoding="UTF-8" standalone="no"?>
<!DOCTYPE svg PUBLIC "-//W3C//DTD SVG 1.1//EN"
 "http://www.w3.org/Graphics/SVG/1.1/DTD/svg11.dtd">
<!-- Generated by graphviz version 2.38.0 (20140413.2041)
 -->
<!-- Title: RLA_HEADER Pages: 1 -->
<svg width="336pt" height="351pt"
 viewBox="0.00 0.00 335.78 351.00" xmlns="http://www.w3.org/2000/svg" xmlns:xlink="http://www.w3.org/1999/xlink">
<g id="graph0" class="graph" transform="scale(1 1) rotate(0) translate(4 347)">
<title>RLA_HEADER</title>
<polygon fill="white" stroke="none" points="-4,4 -4,-347 331.78,-347 331.78,4 -4,4"/>
<!-- Node1 -->
<g id="node1" class="node"><title>Node1</title>
<polygon fill="#bfbfbf" stroke="black" points="71.7801,-0.5 71.7801,-19.5 157.78,-19.5 157.78,-0.5 71.7801,-0.5"/>
<text text-anchor="middle" x="114.78" y="-7.5" font-family="Helvetica,sans-Serif" font-size="10.00">RLA_HEADER</text>
</g>
<!-- Node2 -->
<g id="node2" class="node"><title>Node2</title>
<polygon fill="white" stroke="#bfbfbf" points="0.780142,-200.5 0.780142,-219.5 38.7801,-219.5 38.7801,-200.5 0.780142,-200.5"/>
<text text-anchor="middle" x="19.7801" y="-207.5" font-family="Helvetica,sans-Serif" font-size="10.00">char</text>
</g>
<!-- Node2&#45;&gt;Node1 -->
<g id="edge1" class="edge"><title>Node2&#45;&gt;Node1</title>
<path fill="none" stroke="#9a32cd" stroke-dasharray="5,2" d="M13.514,-190.905C3.03888,-157.055 -13.6823,-83.4774 20.7801,-38 32.5733,-22.4374 52.74,-15.4083 71.3774,-12.3864"/>
<polygon fill="#9a32cd" stroke="#9a32cd" points="10.1883,-191.996 16.6227,-200.413 16.8417,-189.82 10.1883,-191.996"/>
<text text-anchor="middle" x="43.7801" y="-151" font-family="Helvetica,sans-Serif" font-size="10.00"> space</text>
<text text-anchor="middle" x="43.7801" y="-140" font-family="Helvetica,sans-Serif" font-size="10.00">chan</text>
<text text-anchor="middle" x="43.7801" y="-129" font-family="Helvetica,sans-Serif" font-size="10.00">gamma</text>
<text text-anchor="middle" x="43.7801" y="-118" font-family="Helvetica,sans-Serif" font-size="10.00">desc</text>
<text text-anchor="middle" x="43.7801" y="-107" font-family="Helvetica,sans-Serif" font-size="10.00">red_pri</text>
<text text-anchor="middle" x="43.7801" y="-96" font-family="Helvetica,sans-Serif" font-size="10.00">green_pri</text>
<text text-anchor="middle" x="43.7801" y="-85" font-family="Helvetica,sans-Serif" font-size="10.00">blue_pri</text>
<text text-anchor="middle" x="43.7801" y="-74" font-family="Helvetica,sans-Serif" font-size="10.00">aspect</text>
<text text-anchor="middle" x="43.7801" y="-63" font-family="Helvetica,sans-Serif" font-size="10.00">machine</text>
<text text-anchor="middle" x="43.7801" y="-52" font-family="Helvetica,sans-Serif" font-size="10.00">white_pt</text>
<text text-anchor="middle" x="43.7801" y="-41" font-family="Helvetica,sans-Serif" font-size="10.00">...</text>
</g>
<!-- Node3 -->
<g id="node3" class="node"><title>Node3</title>
<polygon fill="white" stroke="#bfbfbf" points="98.2801,-323.5 98.2801,-342.5 139.28,-342.5 139.28,-323.5 98.2801,-323.5"/>
<text text-anchor="middle" x="118.78" y="-330.5" font-family="Helvetica,sans-Serif" font-size="10.00">short</text>
</g>
<!-- Node3&#45;&gt;Node1 -->
<g id="edge2" class="edge"><title>Node3&#45;&gt;Node1</title>
<path fill="none" stroke="#9a32cd" stroke-dasharray="5,2" d="M110.966,-313.786C103.826,-296.085 93.7907,-268.253 89.7801,-243 76.0555,-156.579 103.289,-50.8295 112.135,-19.8925"/>
<polygon fill="#9a32cd" stroke="#9a32cd" points="107.886,-315.494 114.957,-323.384 114.349,-312.807 107.886,-315.494"/>
<text text-anchor="middle" x="122.78" y="-235" font-family="Helvetica,sans-Serif" font-size="10.00"> storage_type</text>
<text text-anchor="middle" x="122.78" y="-224" font-family="Helvetica,sans-Serif" font-size="10.00">aux_mask</text>
<text text-anchor="middle" x="122.78" y="-213" font-family="Helvetica,sans-Serif" font-size="10.00">num_chan</text>
<text text-anchor="middle" x="122.78" y="-202" font-family="Helvetica,sans-Serif" font-size="10.00">frame</text>
<text text-anchor="middle" x="122.78" y="-191" font-family="Helvetica,sans-Serif" font-size="10.00">num_aux</text>
<text text-anchor="middle" x="122.78" y="-180" font-family="Helvetica,sans-Serif" font-size="10.00">num_matte</text>
</g>
<!-- Node5 -->
<g id="node5" class="node"><title>Node5</title>
<g id="a_node5"><a xlink:href="../../d3/df0/structWINDOW__S.html" target="_top" xlink:title="WINDOW_S">
<polygon fill="white" stroke="black" points="165.28,-200.5 165.28,-219.5 240.28,-219.5 240.28,-200.5 165.28,-200.5"/>
<text text-anchor="middle" x="202.78" y="-207.5" font-family="Helvetica,sans-Serif" font-size="10.00">WINDOW_S</text>
</a>
</g>
</g>
<!-- Node3&#45;&gt;Node5 -->
<g id="edge5" class="edge"><title>Node3&#45;&gt;Node5</title>
<path fill="none" stroke="#9a32cd" stroke-dasharray="5,2" d="M130.756,-314.749C148.99,-288.483 183.044,-239.429 196.794,-219.623"/>
<polygon fill="#9a32cd" stroke="#9a32cd" points="127.649,-313.087 124.821,-323.298 133.399,-317.079 127.649,-313.087"/>
<text text-anchor="middle" x="182.78" y="-297" font-family="Helvetica,sans-Serif" font-size="10.00"> right</text>
<text text-anchor="middle" x="182.78" y="-286" font-family="Helvetica,sans-Serif" font-size="10.00">left</text>
<text text-anchor="middle" x="182.78" y="-275" font-family="Helvetica,sans-Serif" font-size="10.00">bottom</text>
<text text-anchor="middle" x="182.78" y="-264" font-family="Helvetica,sans-Serif" font-size="10.00">top</text>
</g>
<!-- Node4 -->
<g id="node4" class="node"><title>Node4</title>
<polygon fill="white" stroke="#bfbfbf" points="258.28,-200.5 258.28,-219.5 295.28,-219.5 295.28,-200.5 258.28,-200.5"/>
<text text-anchor="middle" x="276.78" y="-207.5" font-family="Helvetica,sans-Serif" font-size="10.00">long</text>
</g>
<!-- Node4&#45;&gt;Node1 -->
<g id="edge3" class="edge"><title>Node4&#45;&gt;Node1</title>
<path fill="none" stroke="#9a32cd" stroke-dasharray="5,2" d="M280.562,-190.27C286.433,-155.312 293.303,-79.8911 253.78,-38 240.875,-24.3212 193.745,-17.3486 157.91,-13.9522"/>
<polygon fill="#9a32cd" stroke="#9a32cd" points="277.054,-189.998 278.678,-200.467 283.937,-191.27 277.054,-189.998"/>
<text text-anchor="middle" x="306.28" y="-96" font-family="Helvetica,sans-Serif" font-size="10.00"> job_num</text>
</g>
<!-- Node5&#45;&gt;Node1 -->
<g id="edge4" class="edge"><title>Node5&#45;&gt;Node1</title>
<path fill="none" stroke="#9a32cd" stroke-dasharray="5,2" d="M194.864,-191.188C176.595,-150.084 132.035,-49.8228 118.646,-19.6991"/>
<polygon fill="#9a32cd" stroke="#9a32cd" points="191.739,-192.776 198.999,-200.492 198.136,-189.933 191.739,-192.776"/>
<text text-anchor="middle" x="214.78" y="-101.5" font-family="Helvetica,sans-Serif" font-size="10.00"> window</text>
<text text-anchor="middle" x="214.78" y="-90.5" font-family="Helvetica,sans-Serif" font-size="10.00">active_window</text>
</g>
</g>
</svg>
