<?xml version="1.0" encoding="UTF-8" standalone="no"?>
<!DOCTYPE svg PUBLIC "-//W3C//DTD SVG 1.1//EN"
 "http://www.w3.org/Graphics/SVG/1.1/DTD/svg11.dtd">
<!-- Generated by graphviz version 2.38.0 (20140413.2041)
 -->
<!-- Title: Myapp.m Pages: 1 -->
<svg width="1222pt" height="196pt"
 viewBox="0.00 0.00 1222.00 196.00" xmlns="http://www.w3.org/2000/svg" xmlns:xlink="http://www.w3.org/1999/xlink">
<g id="graph0" class="graph" transform="scale(1 1) rotate(0) translate(4 192)">
<title>Myapp.m</title>
<polygon fill="white" stroke="none" points="-4,4 -4,-192 1218,-192 1218,4 -4,4"/>
<!-- Node1 -->
<g id="node1" class="node"><title>Node1</title>
<polygon fill="#bfbfbf" stroke="black" points="442.5,-168.5 442.5,-187.5 501.5,-187.5 501.5,-168.5 442.5,-168.5"/>
<text text-anchor="middle" x="472" y="-175.5" font-family="Helvetica,sans-Serif" font-size="10.00">Myapp.m</text>
</g>
<!-- Node2 -->
<g id="node2" class="node"><title>Node2</title>
<g id="a_node2"><a xlink:href="../../d4/d6f/Myapp_8h.html" target="_top" xlink:title="Myapp.h">
<polygon fill="white" stroke="black" points="25.5,-112.5 25.5,-131.5 82.5,-131.5 82.5,-112.5 25.5,-112.5"/>
<text text-anchor="middle" x="54" y="-119.5" font-family="Helvetica,sans-Serif" font-size="10.00">Myapp.h</text>
</a>
</g>
</g>
<!-- Node1&#45;&gt;Node2 -->
<g id="edge1" class="edge"><title>Node1&#45;&gt;Node2</title>
<path fill="none" stroke="midnightblue" d="M442.222,-174.314C378.599,-168.381 224.789,-153 97,-132 95.5418,-131.76 94.0581,-131.505 92.5609,-131.239"/>
<polygon fill="midnightblue" stroke="midnightblue" points="93.0935,-127.778 82.6161,-129.351 91.7878,-134.655 93.0935,-127.778"/>
</g>
<!-- Node4 -->
<g id="node4" class="node"><title>Node4</title>
<g id="a_node4"><a xlink:href="../../d8/d0f/RLE_8h.html" target="_top" xlink:title="RLE.h">
<polygon fill="white" stroke="black" points="139.5,-112.5 139.5,-131.5 184.5,-131.5 184.5,-112.5 139.5,-112.5"/>
<text text-anchor="middle" x="162" y="-119.5" font-family="Helvetica,sans-Serif" font-size="10.00">RLE.h</text>
</a>
</g>
</g>
<!-- Node1&#45;&gt;Node4 -->
<g id="edge3" class="edge"><title>Node1&#45;&gt;Node4</title>
<path fill="none" stroke="midnightblue" d="M442.167,-173.304C392.734,-166.937 290.594,-152.75 194.52,-131.886"/>
<polygon fill="midnightblue" stroke="midnightblue" points="195.164,-128.444 184.645,-129.712 193.659,-135.28 195.164,-128.444"/>
</g>
<!-- Node5 -->
<g id="node5" class="node"><title>Node5</title>
<polygon fill="white" stroke="#bfbfbf" points="131.5,-56.5 131.5,-75.5 168.5,-75.5 168.5,-56.5 131.5,-56.5"/>
<text text-anchor="middle" x="150" y="-63.5" font-family="Helvetica,sans-Serif" font-size="10.00">rle.h</text>
</g>
<!-- Node1&#45;&gt;Node5 -->
<g id="edge11" class="edge"><title>Node1&#45;&gt;Node5</title>
<path fill="none" stroke="midnightblue" d="M442.318,-175.299C362.962,-170.45 150.509,-155.384 130,-132 118.249,-118.602 127.308,-98.4071 136.722,-84.0877"/>
<polygon fill="midnightblue" stroke="midnightblue" points="139.78,-85.8283 142.745,-75.6568 134.084,-81.7594 139.78,-85.8283"/>
</g>
<!-- Node10 -->
<g id="node10" class="node"><title>Node10</title>
<g id="a_node10"><a xlink:href="../../d6/daf/RASF_8h.html" target="_top" xlink:title="RASF.h">
<polygon fill="white" stroke="black" points="203,-112.5 203,-131.5 255,-131.5 255,-112.5 203,-112.5"/>
<text text-anchor="middle" x="229" y="-119.5" font-family="Helvetica,sans-Serif" font-size="10.00">RASF.h</text>
</a>
</g>
</g>
<!-- Node1&#45;&gt;Node10 -->
<g id="edge9" class="edge"><title>Node1&#45;&gt;Node10</title>
<path fill="none" stroke="midnightblue" d="M442.456,-170.877C404.04,-162.851 334.628,-148.126 265.128,-131.969"/>
<polygon fill="midnightblue" stroke="midnightblue" points="265.857,-128.546 255.323,-129.681 264.266,-135.362 265.857,-128.546"/>
</g>
<!-- Node11 -->
<g id="node11" class="node"><title>Node11</title>
<polygon fill="white" stroke="#bfbfbf" points="273.5,-112.5 273.5,-131.5 320.5,-131.5 320.5,-112.5 273.5,-112.5"/>
<text text-anchor="middle" x="297" y="-119.5" font-family="Helvetica,sans-Serif" font-size="10.00">stdio.h</text>
</g>
<!-- Node1&#45;&gt;Node11 -->
<g id="edge12" class="edge"><title>Node1&#45;&gt;Node11</title>
<path fill="none" stroke="midnightblue" d="M444.271,-168.444C413.352,-158.903 363.359,-143.477 330.335,-133.286"/>
<polygon fill="midnightblue" stroke="midnightblue" points="331.258,-129.908 320.671,-130.304 329.194,-136.597 331.258,-129.908"/>
</g>
<!-- Node12 -->
<g id="node12" class="node"><title>Node12</title>
<polygon fill="white" stroke="#bfbfbf" points="338.5,-112.5 338.5,-131.5 387.5,-131.5 387.5,-112.5 338.5,-112.5"/>
<text text-anchor="middle" x="363" y="-119.5" font-family="Helvetica,sans-Serif" font-size="10.00">stdlib.h</text>
</g>
<!-- Node1&#45;&gt;Node12 -->
<g id="edge13" class="edge"><title>Node1&#45;&gt;Node12</title>
<path fill="none" stroke="midnightblue" d="M454.487,-168.324C436.928,-159.625 409.669,-146.12 389.469,-136.113"/>
<polygon fill="midnightblue" stroke="midnightblue" points="390.984,-132.958 380.469,-131.655 387.876,-139.23 390.984,-132.958"/>
</g>
<!-- Node13 -->
<g id="node13" class="node"><title>Node13</title>
<polygon fill="white" stroke="#bfbfbf" points="406,-112.5 406,-131.5 446,-131.5 446,-112.5 406,-112.5"/>
<text text-anchor="middle" x="426" y="-119.5" font-family="Helvetica,sans-Serif" font-size="10.00">libc.h</text>
</g>
<!-- Node1&#45;&gt;Node13 -->
<g id="edge14" class="edge"><title>Node1&#45;&gt;Node13</title>
<path fill="none" stroke="midnightblue" d="M464.404,-168.083C457.773,-160.298 447.979,-148.801 439.942,-139.367"/>
<polygon fill="midnightblue" stroke="midnightblue" points="442.604,-137.094 433.455,-131.751 437.275,-141.633 442.604,-137.094"/>
</g>
<!-- Node14 -->
<g id="node14" class="node"><title>Node14</title>
<polygon fill="white" stroke="#bfbfbf" points="464,-112.5 464,-131.5 574,-131.5 574,-112.5 464,-112.5"/>
<text text-anchor="middle" x="519" y="-119.5" font-family="Helvetica,sans-Serif" font-size="10.00">appkit/OpenPanel.h</text>
</g>
<!-- Node1&#45;&gt;Node14 -->
<g id="edge15" class="edge"><title>Node1&#45;&gt;Node14</title>
<path fill="none" stroke="midnightblue" d="M479.761,-168.083C486.537,-160.298 496.543,-148.801 504.755,-139.367"/>
<polygon fill="midnightblue" stroke="midnightblue" points="507.458,-141.592 511.383,-131.751 502.178,-136.996 507.458,-141.592"/>
</g>
<!-- Node15 -->
<g id="node15" class="node"><title>Node15</title>
<polygon fill="white" stroke="#bfbfbf" points="592.5,-112.5 592.5,-131.5 699.5,-131.5 699.5,-112.5 592.5,-112.5"/>
<text text-anchor="middle" x="646" y="-119.5" font-family="Helvetica,sans-Serif" font-size="10.00">appkit/SavePanel.h</text>
</g>
<!-- Node1&#45;&gt;Node15 -->
<g id="edge16" class="edge"><title>Node1&#45;&gt;Node15</title>
<path fill="none" stroke="midnightblue" d="M499.571,-168.444C529.097,-159.28 576.118,-144.688 608.883,-134.519"/>
<polygon fill="midnightblue" stroke="midnightblue" points="610.045,-137.823 618.558,-131.516 607.97,-131.138 610.045,-137.823"/>
</g>
<!-- Node16 -->
<g id="node16" class="node"><title>Node16</title>
<polygon fill="white" stroke="#bfbfbf" points="717.5,-112.5 717.5,-131.5 822.5,-131.5 822.5,-112.5 717.5,-112.5"/>
<text text-anchor="middle" x="770" y="-119.5" font-family="Helvetica,sans-Serif" font-size="10.00">appkit/PopUpList.h</text>
</g>
<!-- Node1&#45;&gt;Node16 -->
<g id="edge17" class="edge"><title>Node1&#45;&gt;Node16</title>
<path fill="none" stroke="midnightblue" d="M501.663,-171.625C550.751,-162.73 649.709,-144.798 712.763,-133.372"/>
<polygon fill="midnightblue" stroke="midnightblue" points="713.73,-136.754 722.945,-131.527 712.482,-129.866 713.73,-136.754"/>
</g>
<!-- Node17 -->
<g id="node17" class="node"><title>Node17</title>
<polygon fill="white" stroke="#bfbfbf" points="840.5,-112.5 840.5,-131.5 931.5,-131.5 931.5,-112.5 840.5,-112.5"/>
<text text-anchor="middle" x="886" y="-119.5" font-family="Helvetica,sans-Serif" font-size="10.00">appkit/Control.h</text>
</g>
<!-- Node1&#45;&gt;Node17 -->
<g id="edge18" class="edge"><title>Node1&#45;&gt;Node17</title>
<path fill="none" stroke="midnightblue" d="M501.925,-173.678C562.142,-166.902 702.472,-150.66 830.385,-132.19"/>
<polygon fill="midnightblue" stroke="midnightblue" points="830.962,-135.643 840.355,-130.742 829.956,-128.716 830.962,-135.643"/>
</g>
<!-- Node18 -->
<g id="node18" class="node"><title>Node18</title>
<polygon fill="white" stroke="#bfbfbf" points="950,-112.5 950,-131.5 1054,-131.5 1054,-112.5 950,-112.5"/>
<text text-anchor="middle" x="1002" y="-119.5" font-family="Helvetica,sans-Serif" font-size="10.00">appkit/ActionCell.h</text>
</g>
<!-- Node1&#45;&gt;Node18 -->
<g id="edge19" class="edge"><title>Node1&#45;&gt;Node18</title>
<path fill="none" stroke="midnightblue" d="M501.688,-174.679C574.474,-168.875 767.803,-152.782 939.789,-132.093"/>
<polygon fill="midnightblue" stroke="midnightblue" points="940.274,-135.56 949.78,-130.883 939.432,-128.611 940.274,-135.56"/>
</g>
<!-- Node19 -->
<g id="node19" class="node"><title>Node19</title>
<polygon fill="white" stroke="#bfbfbf" points="1072,-112.5 1072,-131.5 1128,-131.5 1128,-112.5 1072,-112.5"/>
<text text-anchor="middle" x="1100" y="-119.5" font-family="Helvetica,sans-Serif" font-size="10.00">strings.h</text>
</g>
<!-- Node1&#45;&gt;Node19 -->
<g id="edge20" class="edge"><title>Node1&#45;&gt;Node19</title>
<path fill="none" stroke="midnightblue" d="M501.715,-176.442C587.294,-174.477 841.715,-166.111 1061.7,-131.95"/>
<polygon fill="midnightblue" stroke="midnightblue" points="1062.48,-135.369 1071.81,-130.356 1061.39,-128.455 1062.48,-135.369"/>
</g>
<!-- Node20 -->
<g id="node20" class="node"><title>Node20</title>
<polygon fill="white" stroke="#bfbfbf" points="1146,-112.5 1146,-131.5 1214,-131.5 1214,-112.5 1146,-112.5"/>
<text text-anchor="middle" x="1180" y="-119.5" font-family="Helvetica,sans-Serif" font-size="10.00">appkit/tiff.h</text>
</g>
<!-- Node1&#45;&gt;Node20 -->
<g id="edge21" class="edge"><title>Node1&#45;&gt;Node20</title>
<path fill="none" stroke="midnightblue" d="M501.646,-176.459C594.077,-174.462 885.303,-165.84 1135.79,-131.974"/>
<polygon fill="midnightblue" stroke="midnightblue" points="1136.37,-135.427 1145.81,-130.603 1135.42,-128.492 1136.37,-135.427"/>
</g>
<!-- Node3 -->
<g id="node3" class="node"><title>Node3</title>
<polygon fill="white" stroke="#bfbfbf" points="0,-56.5 0,-75.5 108,-75.5 108,-56.5 0,-56.5"/>
<text text-anchor="middle" x="54" y="-63.5" font-family="Helvetica,sans-Serif" font-size="10.00">appkit/Application.h</text>
</g>
<!-- Node2&#45;&gt;Node3 -->
<g id="edge2" class="edge"><title>Node2&#45;&gt;Node3</title>
<path fill="none" stroke="midnightblue" d="M54,-112.083C54,-105.006 54,-94.8611 54,-85.9865"/>
<polygon fill="midnightblue" stroke="midnightblue" points="57.5001,-85.751 54,-75.7511 50.5001,-85.7511 57.5001,-85.751"/>
</g>
<!-- Node4&#45;&gt;Node5 -->
<g id="edge4" class="edge"><title>Node4&#45;&gt;Node5</title>
<path fill="none" stroke="midnightblue" d="M160.018,-112.083C158.428,-104.927 156.141,-94.6353 154.154,-85.6911"/>
<polygon fill="midnightblue" stroke="midnightblue" points="157.531,-84.7537 151.945,-75.7511 150.697,-86.2722 157.531,-84.7537"/>
</g>
<!-- Node6 -->
<g id="node6" class="node"><title>Node6</title>
<g id="a_node6"><a xlink:href="../../d8/d0f/Image_8h.html" target="_top" xlink:title="Image.h">
<polygon fill="white" stroke="black" points="197,-56.5 197,-75.5 251,-75.5 251,-56.5 197,-56.5"/>
<text text-anchor="middle" x="224" y="-63.5" font-family="Helvetica,sans-Serif" font-size="10.00">Image.h</text>
</a>
</g>
</g>
<!-- Node4&#45;&gt;Node6 -->
<g id="edge5" class="edge"><title>Node4&#45;&gt;Node6</title>
<path fill="none" stroke="midnightblue" d="M171.961,-112.324C181.127,-104.341 194.937,-92.3128 206.028,-82.6529"/>
<polygon fill="midnightblue" stroke="midnightblue" points="208.615,-85.041 213.857,-75.8339 204.018,-79.7624 208.615,-85.041"/>
</g>
<!-- Node7 -->
<g id="node7" class="node"><title>Node7</title>
<polygon fill="white" stroke="#bfbfbf" points="102.5,-0.5 102.5,-19.5 181.5,-19.5 181.5,-0.5 102.5,-0.5"/>
<text text-anchor="middle" x="142" y="-7.5" font-family="Helvetica,sans-Serif" font-size="10.00">appkit/View.h</text>
</g>
<!-- Node6&#45;&gt;Node7 -->
<g id="edge6" class="edge"><title>Node6&#45;&gt;Node7</title>
<path fill="none" stroke="midnightblue" d="M210.825,-56.324C198.153,-47.979 178.767,-35.2122 163.794,-25.3524"/>
<polygon fill="midnightblue" stroke="midnightblue" points="165.419,-22.2313 155.142,-19.6545 161.569,-28.0776 165.419,-22.2313"/>
</g>
<!-- Node8 -->
<g id="node8" class="node"><title>Node8</title>
<polygon fill="white" stroke="#bfbfbf" points="200,-0.5 200,-19.5 248,-19.5 248,-0.5 200,-0.5"/>
<text text-anchor="middle" x="224" y="-7.5" font-family="Helvetica,sans-Serif" font-size="10.00">zone.h</text>
</g>
<!-- Node6&#45;&gt;Node8 -->
<g id="edge7" class="edge"><title>Node6&#45;&gt;Node8</title>
<path fill="none" stroke="midnightblue" d="M224,-56.083C224,-49.0059 224,-38.8611 224,-29.9865"/>
<polygon fill="midnightblue" stroke="midnightblue" points="227.5,-29.751 224,-19.7511 220.5,-29.7511 227.5,-29.751"/>
</g>
<!-- Node9 -->
<g id="node9" class="node"><title>Node9</title>
<polygon fill="white" stroke="#bfbfbf" points="266.5,-0.5 266.5,-19.5 369.5,-19.5 369.5,-0.5 266.5,-0.5"/>
<text text-anchor="middle" x="318" y="-7.5" font-family="Helvetica,sans-Serif" font-size="10.00">streams/streams.h</text>
</g>
<!-- Node6&#45;&gt;Node9 -->
<g id="edge8" class="edge"><title>Node6&#45;&gt;Node9</title>
<path fill="none" stroke="midnightblue" d="M239.103,-56.324C253.903,-47.8215 276.694,-34.7288 293.982,-24.7975"/>
<polygon fill="midnightblue" stroke="midnightblue" points="296.007,-27.6707 302.935,-19.6545 292.52,-21.6009 296.007,-27.6707"/>
</g>
<!-- Node10&#45;&gt;Node6 -->
<g id="edge10" class="edge"><title>Node10&#45;&gt;Node6</title>
<path fill="none" stroke="midnightblue" d="M228.174,-112.083C227.519,-105.006 226.58,-94.8611 225.758,-85.9865"/>
<polygon fill="midnightblue" stroke="midnightblue" points="229.217,-85.3858 224.81,-75.7511 222.247,-86.0312 229.217,-85.3858"/>
</g>
</g>
</svg>
