<?xml version="1.0" encoding="UTF-8" standalone="no"?>
<!DOCTYPE svg PUBLIC "-//W3C//DTD SVG 1.1//EN"
 "http://www.w3.org/Graphics/SVG/1.1/DTD/svg11.dtd">
<!-- Generated by graphviz version 2.38.0 (20140413.2041)
 -->
<!-- Title: main Pages: 1 -->
<svg width="522pt" height="427pt"
 viewBox="0.00 0.00 522.00 427.00" xmlns="http://www.w3.org/2000/svg" xmlns:xlink="http://www.w3.org/1999/xlink">
<g id="graph0" class="graph" transform="scale(1 1) rotate(0) translate(4 423)">
<title>main</title>
<polygon fill="white" stroke="none" points="-4,4 -4,-423 518,-423 518,4 -4,4"/>
<!-- Node1 -->
<g id="node1" class="node"><title>Node1</title>
<polygon fill="#bfbfbf" stroke="black" points="0,-209.5 0,-228.5 39,-228.5 39,-209.5 0,-209.5"/>
<text text-anchor="middle" x="19.5" y="-216.5" font-family="Helvetica,sans-Serif" font-size="10.00">main</text>
</g>
<!-- Node2 -->
<g id="node2" class="node"><title>Node2</title>
<g id="a_node2"><a xlink:href="../../d8/d30/cmd__name_8c.html#a271249070fdd12c176777c77d76f888f" target="_top" xlink:title="cmd_name">
<polygon fill="white" stroke="black" points="80.5,-399.5 80.5,-418.5 148.5,-418.5 148.5,-399.5 80.5,-399.5"/>
<text text-anchor="middle" x="114.5" y="-406.5" font-family="Helvetica,sans-Serif" font-size="10.00">cmd_name</text>
</a>
</g>
</g>
<!-- Node1&#45;&gt;Node2 -->
<g id="edge1" class="edge"><title>Node1&#45;&gt;Node2</title>
<path fill="none" stroke="midnightblue" d="M21.0131,-228.775C22.9903,-257.106 32.3261,-340.397 75,-390 76.0026,-391.165 77.0935,-392.266 78.2521,-393.306"/>
<polygon fill="midnightblue" stroke="midnightblue" points="76.4851,-396.344 86.6593,-399.3 80.5491,-390.645 76.4851,-396.344"/>
</g>
<!-- Node3 -->
<g id="node3" class="node"><title>Node3</title>
<g id="a_node3"><a xlink:href="../../d4/db0/scanargs_8c.html#a7ea6d702c0484056c8504d6ce7fede08" target="_top" xlink:title="scanargs">
<polygon fill="white" stroke="black" points="84.5,-361.5 84.5,-380.5 144.5,-380.5 144.5,-361.5 84.5,-361.5"/>
<text text-anchor="middle" x="114.5" y="-368.5" font-family="Helvetica,sans-Serif" font-size="10.00">scanargs</text>
</a>
</g>
</g>
<!-- Node1&#45;&gt;Node3 -->
<g id="edge2" class="edge"><title>Node1&#45;&gt;Node3</title>
<path fill="none" stroke="midnightblue" d="M22.5169,-228.736C27.6828,-251.668 43.274,-309.936 75,-347 77.7658,-350.231 81.0778,-353.167 84.5825,-355.788"/>
<polygon fill="midnightblue" stroke="midnightblue" points="82.6736,-358.722 92.9437,-361.325 86.5385,-352.886 82.6736,-358.722"/>
</g>
<!-- Node5 -->
<g id="node5" class="node"><title>Node5</title>
<g id="a_node5"><a xlink:href="../../d2/df3/rle__hdr_8c.html#a8ba0e5b11d1e39ab7227f1686e676c86" target="_top" xlink:title="rle_hdr_init">
<polygon fill="white" stroke="black" points="79.5,-266.5 79.5,-285.5 149.5,-285.5 149.5,-266.5 79.5,-266.5"/>
<text text-anchor="middle" x="114.5" y="-273.5" font-family="Helvetica,sans-Serif" font-size="10.00">rle_hdr_init</text>
</a>
</g>
</g>
<!-- Node1&#45;&gt;Node5 -->
<g id="edge4" class="edge"><title>Node1&#45;&gt;Node5</title>
<path fill="none" stroke="midnightblue" d="M36.2762,-228.669C50.7931,-237.567 72.5411,-250.896 89.2623,-261.145"/>
<polygon fill="midnightblue" stroke="midnightblue" points="87.6018,-264.232 97.9568,-266.474 91.2598,-258.264 87.6018,-264.232"/>
</g>
<!-- Node9 -->
<g id="node9" class="node"><title>Node9</title>
<g id="a_node9"><a xlink:href="../../d0/dcc/rletorla_8c.html#ab7e36af3707843f77cc5b4e831c2fa6d" target="_top" xlink:title="malloc">
<polygon fill="white" stroke="black" points="457.5,-228.5 457.5,-247.5 504.5,-247.5 504.5,-228.5 457.5,-228.5"/>
<text text-anchor="middle" x="481" y="-235.5" font-family="Helvetica,sans-Serif" font-size="10.00">malloc</text>
</a>
</g>
</g>
<!-- Node1&#45;&gt;Node9 -->
<g id="edge26" class="edge"><title>Node1&#45;&gt;Node9</title>
<path fill="none" stroke="midnightblue" d="M24.0274,-228.74C30.8287,-245.871 47.5569,-280.91 75,-295 208.242,-363.412 271.204,-345.089 412,-294 433.192,-286.31 452.524,-268.909 465.113,-255.53"/>
<polygon fill="midnightblue" stroke="midnightblue" points="467.945,-257.615 472.035,-247.842 462.743,-252.931 467.945,-257.615"/>
</g>
<!-- Node10 -->
<g id="node10" class="node"><title>Node10</title>
<g id="a_node10"><a xlink:href="../../d2/df3/rle__hdr_8c.html#a82e79385f2d45cc3b80ce0f4f369eae5" target="_top" xlink:title="rle_names">
<polygon fill="white" stroke="black" points="328,-247.5 328,-266.5 394,-266.5 394,-247.5 328,-247.5"/>
<text text-anchor="middle" x="361" y="-254.5" font-family="Helvetica,sans-Serif" font-size="10.00">rle_names</text>
</a>
</g>
</g>
<!-- Node1&#45;&gt;Node10 -->
<g id="edge13" class="edge"><title>Node1&#45;&gt;Node10</title>
<path fill="none" stroke="midnightblue" d="M39.2366,-221.097C92.1431,-227.019 243.64,-243.976 317.917,-252.29"/>
<polygon fill="midnightblue" stroke="midnightblue" points="317.539,-255.769 327.867,-253.403 318.318,-248.813 317.539,-255.769"/>
</g>
<!-- Node11 -->
<g id="node11" class="node"><title>Node11</title>
<g id="a_node11"><a xlink:href="../../de/d4e/rle__open__f_8c.html#a89733a45961817885603ae01210290b7" target="_top" xlink:title="rle_open_f">
<polygon fill="white" stroke="black" points="80.5,-76.5 80.5,-95.5 148.5,-95.5 148.5,-76.5 80.5,-76.5"/>
<text text-anchor="middle" x="114.5" y="-83.5" font-family="Helvetica,sans-Serif" font-size="10.00">rle_open_f</text>
</a>
</g>
</g>
<!-- Node1&#45;&gt;Node11 -->
<g id="edge14" class="edge"><title>Node1&#45;&gt;Node11</title>
<path fill="none" stroke="midnightblue" d="M22.8402,-209.181C28.4076,-187.718 44.3248,-136.061 75,-105 76.3748,-103.608 77.8725,-102.301 79.4534,-101.078"/>
<polygon fill="midnightblue" stroke="midnightblue" points="81.3715,-104.006 87.8677,-95.636 77.57,-98.1278 81.3715,-104.006"/>
</g>
<!-- Node14 -->
<g id="node14" class="node"><title>Node14</title>
<g id="a_node14"><a xlink:href="../../db/d53/rle__getrow_8c.html#a619b27463c26e0a4a3d9648a9869ee52" target="_top" xlink:title="rle_get_setup">
<polygon fill="white" stroke="black" points="191.5,-152.5 191.5,-171.5 272.5,-171.5 272.5,-152.5 191.5,-152.5"/>
<text text-anchor="middle" x="232" y="-159.5" font-family="Helvetica,sans-Serif" font-size="10.00">rle_get_setup</text>
</a>
</g>
</g>
<!-- Node1&#45;&gt;Node14 -->
<g id="edge19" class="edge"><title>Node1&#45;&gt;Node14</title>
<path fill="none" stroke="midnightblue" d="M33.2001,-209.321C43.8025,-201.747 59.6139,-191.591 75,-186 109.245,-173.556 150.002,-167.564 181.268,-164.679"/>
<polygon fill="midnightblue" stroke="midnightblue" points="181.815,-168.145 191.484,-163.815 181.225,-161.17 181.815,-168.145"/>
</g>
<!-- Node16 -->
<g id="node16" class="node"><title>Node16</title>
<g id="a_node16"><a xlink:href="../../d7/d24/rle__error_8c.html#af931d686cf3ca715c9b900527f0961c0" target="_top" xlink:title="rle_get_error">
<polygon fill="white" stroke="black" points="75,-114.5 75,-133.5 154,-133.5 154,-114.5 75,-114.5"/>
<text text-anchor="middle" x="114.5" y="-121.5" font-family="Helvetica,sans-Serif" font-size="10.00">rle_get_error</text>
</a>
</g>
</g>
<!-- Node1&#45;&gt;Node16 -->
<g id="edge25" class="edge"><title>Node1&#45;&gt;Node16</title>
<path fill="none" stroke="midnightblue" d="M26.2783,-209.395C35.3444,-194.871 54.0538,-167.002 75,-148 78.5074,-144.818 82.491,-141.807 86.5336,-139.062"/>
<polygon fill="midnightblue" stroke="midnightblue" points="88.7304,-141.814 95.3158,-133.514 84.9921,-135.896 88.7304,-141.814"/>
</g>
<!-- Node17 -->
<g id="node17" class="node"><title>Node17</title>
<g id="a_node17"><a xlink:href="../../da/dbc/rle__row__alc_8c.html#abf83029f1ab364a8cb72524f58d70a3b" target="_top" xlink:title="rle_row_alloc">
<polygon fill="white" stroke="black" points="321,-171.5 321,-190.5 401,-190.5 401,-171.5 321,-171.5"/>
<text text-anchor="middle" x="361" y="-178.5" font-family="Helvetica,sans-Serif" font-size="10.00">rle_row_alloc</text>
</a>
</g>
</g>
<!-- Node1&#45;&gt;Node17 -->
<g id="edge27" class="edge"><title>Node1&#45;&gt;Node17</title>
<path fill="none" stroke="midnightblue" d="M39.2366,-216.903C90.4172,-211.174 233.861,-195.119 310.407,-186.551"/>
<polygon fill="midnightblue" stroke="midnightblue" points="311.199,-189.984 320.747,-185.394 310.42,-183.028 311.199,-189.984"/>
</g>
<!-- Node18 -->
<g id="node18" class="node"><title>Node18</title>
<g id="a_node18"><a xlink:href="../../db/d53/rle__getrow_8c.html#a3602e1158189cba5e5b0f9b983cba776" target="_top" xlink:title="rle_getrow">
<polygon fill="white" stroke="black" points="81,-38.5 81,-57.5 148,-57.5 148,-38.5 81,-38.5"/>
<text text-anchor="middle" x="114.5" y="-45.5" font-family="Helvetica,sans-Serif" font-size="10.00">rle_getrow</text>
</a>
</g>
</g>
<!-- Node1&#45;&gt;Node18 -->
<g id="edge30" class="edge"><title>Node1&#45;&gt;Node18</title>
<path fill="none" stroke="midnightblue" d="M21.4804,-209.186C24.5802,-182.96 36.3744,-110.308 75,-67 76.1597,-65.6997 77.4286,-64.4785 78.7771,-63.3327"/>
<polygon fill="midnightblue" stroke="midnightblue" points="80.9041,-66.1179 87.1645,-57.5705 76.9403,-60.3483 80.9041,-66.1179"/>
</g>
<!-- Node4 -->
<g id="node4" class="node"><title>Node4</title>
<g id="a_node4"><a xlink:href="../../d4/db0/scanargs_8c.html#a862219039664df6eb3cfced58addf830" target="_top" xlink:title="_do_scanargs">
<polygon fill="white" stroke="black" points="190,-361.5 190,-380.5 274,-380.5 274,-361.5 190,-361.5"/>
<text text-anchor="middle" x="232" y="-368.5" font-family="Helvetica,sans-Serif" font-size="10.00">_do_scanargs</text>
</a>
</g>
</g>
<!-- Node3&#45;&gt;Node4 -->
<g id="edge3" class="edge"><title>Node3&#45;&gt;Node4</title>
<path fill="none" stroke="midnightblue" d="M144.646,-371C155.19,-371 167.436,-371 179.334,-371"/>
<polygon fill="midnightblue" stroke="midnightblue" points="179.648,-374.5 189.648,-371 179.648,-367.5 179.648,-374.5"/>
</g>
<!-- Node6 -->
<g id="node6" class="node"><title>Node6</title>
<g id="a_node6"><a xlink:href="../../d2/df3/rle__hdr_8c.html#a16c4da6201b3b8cf55127b9ca968d253" target="_top" xlink:title="rle_hdr_clear">
<polygon fill="white" stroke="black" points="321,-57.5 321,-76.5 401,-76.5 401,-57.5 321,-57.5"/>
<text text-anchor="middle" x="361" y="-64.5" font-family="Helvetica,sans-Serif" font-size="10.00">rle_hdr_clear</text>
</a>
</g>
</g>
<!-- Node5&#45;&gt;Node6 -->
<g id="edge5" class="edge"><title>Node5&#45;&gt;Node6</title>
<path fill="none" stroke="midnightblue" d="M118.539,-266.274C126.499,-242.251 150.14,-179.417 190,-143 224.688,-111.308 274.782,-91.1049 311.609,-79.5606"/>
<polygon fill="midnightblue" stroke="midnightblue" points="313.062,-82.7776 321.62,-76.5317 311.035,-76.0775 313.062,-82.7776"/>
</g>
<!-- Node8 -->
<g id="node8" class="node"><title>Node8</title>
<g id="a_node8"><a xlink:href="../../d2/df3/rle__hdr_8c.html#afc916e29aea8788e0878ca315ff69821" target="_top" xlink:title="rle_hdr_cp">
<polygon fill="white" stroke="black" points="198,-266.5 198,-285.5 266,-285.5 266,-266.5 198,-266.5"/>
<text text-anchor="middle" x="232" y="-273.5" font-family="Helvetica,sans-Serif" font-size="10.00">rle_hdr_cp</text>
</a>
</g>
</g>
<!-- Node5&#45;&gt;Node8 -->
<g id="edge7" class="edge"><title>Node5&#45;&gt;Node8</title>
<path fill="none" stroke="midnightblue" d="M149.529,-269.784C161.382,-269.22 174.848,-269.103 187.371,-269.433"/>
<polygon fill="midnightblue" stroke="midnightblue" points="187.488,-272.939 197.612,-269.815 187.75,-265.944 187.488,-272.939"/>
</g>
<!-- Node7 -->
<g id="node7" class="node"><title>Node7</title>
<g id="a_node7"><a xlink:href="../../d0/dcc/rletorla_8c.html#aafde19f7d36ca163a143579c1b125b6d" target="_top" xlink:title="free">
<polygon fill="white" stroke="black" points="463.5,-95.5 463.5,-114.5 498.5,-114.5 498.5,-95.5 463.5,-95.5"/>
<text text-anchor="middle" x="481" y="-102.5" font-family="Helvetica,sans-Serif" font-size="10.00">free</text>
</a>
</g>
</g>
<!-- Node6&#45;&gt;Node7 -->
<g id="edge6" class="edge"><title>Node6&#45;&gt;Node7</title>
<path fill="none" stroke="midnightblue" d="M391.776,-76.589C410.813,-82.7195 435.281,-90.5988 453.618,-96.504"/>
<polygon fill="midnightblue" stroke="midnightblue" points="452.768,-99.9073 463.359,-99.6411 454.914,-93.2443 452.768,-99.9073"/>
</g>
<!-- Node8&#45;&gt;Node5 -->
<g id="edge8" class="edge"><title>Node8&#45;&gt;Node5</title>
<path fill="none" stroke="midnightblue" d="M197.612,-282.185C185.818,-282.765 172.365,-282.899 159.809,-282.585"/>
<polygon fill="midnightblue" stroke="midnightblue" points="159.648,-279.077 149.529,-282.216 159.397,-286.072 159.648,-279.077"/>
</g>
<!-- Node8&#45;&gt;Node9 -->
<g id="edge9" class="edge"><title>Node8&#45;&gt;Node9</title>
<path fill="none" stroke="midnightblue" d="M266.296,-280.938C302.726,-285.211 362.53,-288.885 412,-276 428.85,-271.611 445.951,-262.025 458.789,-253.58"/>
<polygon fill="midnightblue" stroke="midnightblue" points="461.056,-256.269 467.318,-247.723 457.093,-250.498 461.056,-256.269"/>
</g>
<!-- Node8&#45;&gt;Node10 -->
<g id="edge10" class="edge"><title>Node8&#45;&gt;Node10</title>
<path fill="none" stroke="midnightblue" d="M266.036,-271.058C281.739,-268.708 300.699,-265.872 317.463,-263.364"/>
<polygon fill="midnightblue" stroke="midnightblue" points="318.197,-266.793 327.569,-261.852 317.161,-259.87 318.197,-266.793"/>
</g>
<!-- Node10&#45;&gt;Node7 -->
<g id="edge11" class="edge"><title>Node10&#45;&gt;Node7</title>
<path fill="none" stroke="midnightblue" d="M371.159,-247.166C381.427,-236.003 398.419,-217.119 412,-200 432.583,-174.055 454.573,-142.559 467.801,-123.148"/>
<polygon fill="midnightblue" stroke="midnightblue" points="470.836,-124.909 473.547,-114.667 465.041,-120.983 470.836,-124.909"/>
</g>
<!-- Node10&#45;&gt;Node9 -->
<g id="edge12" class="edge"><title>Node10&#45;&gt;Node9</title>
<path fill="none" stroke="midnightblue" d="M394.244,-251.808C410.589,-249.176 430.41,-245.985 446.877,-243.333"/>
<polygon fill="midnightblue" stroke="midnightblue" points="447.827,-246.726 457.144,-241.68 446.714,-239.815 447.827,-246.726"/>
</g>
<!-- Node12 -->
<g id="node12" class="node"><title>Node12</title>
<g id="a_node12"><a xlink:href="../../de/d4e/rle__open__f_8c.html#a5a0e62a00f907fce26e93b2f72adb2b0" target="_top" xlink:title="rle_open_f_noexit">
<polygon fill="white" stroke="black" points="310,-19.5 310,-38.5 412,-38.5 412,-19.5 310,-19.5"/>
<text text-anchor="middle" x="361" y="-26.5" font-family="Helvetica,sans-Serif" font-size="10.00">rle_open_f_noexit</text>
</a>
</g>
</g>
<!-- Node11&#45;&gt;Node12 -->
<g id="edge15" class="edge"><title>Node11&#45;&gt;Node12</title>
<path fill="none" stroke="midnightblue" d="M148.713,-85.5252C181.3,-84.2503 232.067,-80.0847 274,-67 291.27,-61.611 293.513,-55.4494 310,-48 314.371,-46.0248 319.014,-44.0732 323.641,-42.2159"/>
<polygon fill="midnightblue" stroke="midnightblue" points="324.978,-45.4515 333.025,-38.5591 322.436,-38.9293 324.978,-45.4515"/>
</g>
<!-- Node12&#45;&gt;Node7 -->
<g id="edge18" class="edge"><title>Node12&#45;&gt;Node7</title>
<path fill="none" stroke="midnightblue" d="M392.104,-38.572C398.851,-41.2228 405.832,-44.3829 412,-48 431.147,-59.2287 450.284,-75.8755 463.355,-88.2837"/>
<polygon fill="midnightblue" stroke="midnightblue" points="461.044,-90.9184 470.656,-95.3754 465.921,-85.8972 461.044,-90.9184"/>
</g>
<!-- Node12&#45;&gt;Node9 -->
<g id="edge17" class="edge"><title>Node12&#45;&gt;Node9</title>
<path fill="none" stroke="midnightblue" d="M398.695,-38.6152C403.6,-41.0765 408.229,-44.1547 412,-48 436.598,-73.0813 464.387,-175.464 475.272,-218.645"/>
<polygon fill="midnightblue" stroke="midnightblue" points="471.909,-219.625 477.717,-228.486 478.703,-217.937 471.909,-219.625"/>
</g>
<!-- Node13 -->
<g id="node13" class="node"><title>Node13</title>
<g id="a_node13"><a xlink:href="../../de/d4e/rle__open__f_8c.html#a84fda810ae9b9bde82a6391d0b264ead" target="_top" xlink:title="my_popen">
<polygon fill="white" stroke="black" points="448,-19.5 448,-38.5 514,-38.5 514,-19.5 448,-19.5"/>
<text text-anchor="middle" x="481" y="-26.5" font-family="Helvetica,sans-Serif" font-size="10.00">my_popen</text>
</a>
</g>
</g>
<!-- Node12&#45;&gt;Node13 -->
<g id="edge16" class="edge"><title>Node12&#45;&gt;Node13</title>
<path fill="none" stroke="midnightblue" d="M412.043,-29C420.523,-29 429.255,-29 437.518,-29"/>
<polygon fill="midnightblue" stroke="midnightblue" points="437.678,-32.5001 447.678,-29 437.678,-25.5001 437.678,-32.5001"/>
</g>
<!-- Node14&#45;&gt;Node6 -->
<g id="edge20" class="edge"><title>Node14&#45;&gt;Node6</title>
<path fill="none" stroke="midnightblue" d="M252.814,-152.44C259.904,-148.51 267.694,-143.569 274,-138 293.723,-120.583 289.579,-107.593 310,-91 314.596,-87.2657 319.869,-83.9405 325.229,-81.0434"/>
<polygon fill="midnightblue" stroke="midnightblue" points="326.827,-84.1576 334.227,-76.5752 323.714,-77.888 326.827,-84.1576"/>
</g>
<!-- Node14&#45;&gt;Node7 -->
<g id="edge23" class="edge"><title>Node14&#45;&gt;Node7</title>
<path fill="none" stroke="midnightblue" d="M248.275,-152.467C263.363,-143.543 287.396,-130.619 310,-124 359.12,-109.616 419.153,-105.988 453.142,-105.153"/>
<polygon fill="midnightblue" stroke="midnightblue" points="453.28,-108.651 463.215,-104.97 453.153,-101.652 453.28,-108.651"/>
</g>
<!-- Node14&#45;&gt;Node9 -->
<g id="edge22" class="edge"><title>Node14&#45;&gt;Node9</title>
<path fill="none" stroke="midnightblue" d="M249.62,-171.653C264.884,-180.162 288.351,-192.362 310,-200 356.393,-216.368 412.469,-227.278 447.189,-233.057"/>
<polygon fill="midnightblue" stroke="midnightblue" points="446.814,-236.542 457.245,-234.687 447.933,-229.632 446.814,-236.542"/>
</g>
<!-- Node14&#45;&gt;Node10 -->
<g id="edge21" class="edge"><title>Node14&#45;&gt;Node10</title>
<path fill="none" stroke="midnightblue" d="M241.718,-171.71C255.25,-186.371 282.615,-214.418 310,-233 315.386,-236.655 321.413,-240.052 327.368,-243.074"/>
<polygon fill="midnightblue" stroke="midnightblue" points="326.034,-246.317 336.563,-247.496 329.068,-240.008 326.034,-246.317"/>
</g>
<!-- Node15 -->
<g id="node15" class="node"><title>Node15</title>
<g id="a_node15"><a xlink:href="../../db/d53/rle__getrow_8c.html#a0ea68aa2ebeef9d4cade7282553b03d6" target="_top" xlink:title="vax_gshort">
<polygon fill="white" stroke="black" points="326.5,-133.5 326.5,-152.5 395.5,-152.5 395.5,-133.5 326.5,-133.5"/>
<text text-anchor="middle" x="361" y="-140.5" font-family="Helvetica,sans-Serif" font-size="10.00">vax_gshort</text>
</a>
</g>
</g>
<!-- Node14&#45;&gt;Node15 -->
<g id="edge24" class="edge"><title>Node14&#45;&gt;Node15</title>
<path fill="none" stroke="midnightblue" d="M272.835,-156.04C286.65,-153.974 302.208,-151.646 316.316,-149.535"/>
<polygon fill="midnightblue" stroke="midnightblue" points="316.915,-152.985 326.287,-148.044 315.879,-146.062 316.915,-152.985"/>
</g>
<!-- Node17&#45;&gt;Node7 -->
<g id="edge29" class="edge"><title>Node17&#45;&gt;Node7</title>
<path fill="none" stroke="midnightblue" d="M392.104,-171.428C398.851,-168.777 405.832,-165.617 412,-162 431.147,-150.771 450.284,-134.124 463.355,-121.716"/>
<polygon fill="midnightblue" stroke="midnightblue" points="465.921,-124.103 470.656,-114.625 461.044,-119.082 465.921,-124.103"/>
</g>
<!-- Node17&#45;&gt;Node9 -->
<g id="edge28" class="edge"><title>Node17&#45;&gt;Node9</title>
<path fill="none" stroke="midnightblue" d="M381.96,-190.557C391.118,-194.948 402.114,-200.229 412,-205 424.869,-211.211 439.093,-218.109 451.191,-223.985"/>
<polygon fill="midnightblue" stroke="midnightblue" points="449.847,-227.224 460.371,-228.447 452.907,-220.928 449.847,-227.224"/>
</g>
<!-- Node19 -->
<g id="node19" class="node"><title>Node19</title>
<g id="a_node19"><a xlink:href="../../db/d53/rle__getrow_8c.html#a61ac0da96b0dd8bc3cbc98afcd9b5c44" target="_top" xlink:title="bfill">
<polygon fill="white" stroke="black" points="216,-38.5 216,-57.5 248,-57.5 248,-38.5 216,-38.5"/>
<text text-anchor="middle" x="232" y="-45.5" font-family="Helvetica,sans-Serif" font-size="10.00">bfill</text>
</a>
</g>
</g>
<!-- Node18&#45;&gt;Node19 -->
<g id="edge31" class="edge"><title>Node18&#45;&gt;Node19</title>
<path fill="none" stroke="midnightblue" d="M148.289,-48C166.452,-48 188.695,-48 205.538,-48"/>
<polygon fill="midnightblue" stroke="midnightblue" points="205.73,-51.5001 215.73,-48 205.73,-44.5001 205.73,-51.5001"/>
</g>
<!-- Node20 -->
<g id="node20" class="node"><title>Node20</title>
<g id="a_node20"><a xlink:href="../../d8/d7c/rle__getskip_8c.html#af6b1e1dc0867e9340f90668591c7c5b3" target="_top" xlink:title="rle_getskip">
<polygon fill="white" stroke="black" points="198,-0.5 198,-19.5 266,-19.5 266,-0.5 198,-0.5"/>
<text text-anchor="middle" x="232" y="-7.5" font-family="Helvetica,sans-Serif" font-size="10.00">rle_getskip</text>
</a>
</g>
</g>
<!-- Node18&#45;&gt;Node20 -->
<g id="edge32" class="edge"><title>Node18&#45;&gt;Node20</title>
<path fill="none" stroke="midnightblue" d="M144.646,-38.411C159.008,-33.6856 176.529,-27.9211 192.026,-22.8226"/>
<polygon fill="midnightblue" stroke="midnightblue" points="193.459,-26.0359 201.864,-19.5859 191.271,-19.3866 193.459,-26.0359"/>
</g>
</g>
</svg>
