<?xml version="1.0" encoding="UTF-8" standalone="no"?>
<!DOCTYPE svg PUBLIC "-//W3C//DTD SVG 1.1//EN"
 "http://www.w3.org/Graphics/SVG/1.1/DTD/svg11.dtd">
<!-- Generated by graphviz version 2.38.0 (20140413.2041)
 -->
<!-- Title: rle_open_f Pages: 1 -->
<svg width="263pt" height="294pt"
 viewBox="0.00 0.00 263.00 294.00" xmlns="http://www.w3.org/2000/svg" xmlns:xlink="http://www.w3.org/1999/xlink">
<g id="graph0" class="graph" transform="scale(1 1) rotate(0) translate(4 290)">
<title>rle_open_f</title>
<polygon fill="white" stroke="none" points="-4,4 -4,-290 259,-290 259,4 -4,4"/>
<!-- Node1 -->
<g id="node1" class="node"><title>Node1</title>
<polygon fill="#bfbfbf" stroke="black" points="0,-133.5 0,-152.5 68,-152.5 68,-133.5 0,-133.5"/>
<text text-anchor="middle" x="34" y="-140.5" font-family="Helvetica,sans-Serif" font-size="10.00">rle_open_f</text>
</g>
<!-- Node2 -->
<g id="node2" class="node"><title>Node2</title>
<g id="a_node2"><a xlink:href="../../dd/dc5/prototypes_8h.html#a70db8bd1d499619f7ff9c1ca2ff3c8df" target="_top" xlink:title="main">
<polygon fill="white" stroke="black" points="122.5,-266.5 122.5,-285.5 161.5,-285.5 161.5,-266.5 122.5,-266.5"/>
<text text-anchor="middle" x="142" y="-273.5" font-family="Helvetica,sans-Serif" font-size="10.00">main</text>
</a>
</g>
</g>
<!-- Node1&#45;&gt;Node2 -->
<g id="edge1" class="edge"><title>Node1&#45;&gt;Node2</title>
<path fill="none" stroke="midnightblue" d="M42.6181,-162.093C53.2325,-186.687 74.5378,-229.528 104,-257 109.281,-261.925 116.082,-265.901 122.41,-268.919"/>
<polygon fill="midnightblue" stroke="midnightblue" points="45.8093,-160.652 38.7311,-152.769 39.3482,-163.345 45.8093,-160.652"/>
</g>
<!-- Node3 -->
<g id="node3" class="node"><title>Node3</title>
<g id="a_node3"><a xlink:href="../../d6/de6/gifencod_8c.html#a55f5152af2c1b50961405efdc844c5b8" target="_top" xlink:title="GIFEncode">
<polygon fill="white" stroke="black" points="107,-228.5 107,-247.5 177,-247.5 177,-228.5 107,-228.5"/>
<text text-anchor="middle" x="142" y="-235.5" font-family="Helvetica,sans-Serif" font-size="10.00">GIFEncode</text>
</a>
</g>
</g>
<!-- Node1&#45;&gt;Node3 -->
<g id="edge2" class="edge"><title>Node1&#45;&gt;Node3</title>
<path fill="none" stroke="midnightblue" d="M48.4464,-161.227C61.3401,-177.8 82.0419,-202.168 104,-219 108.585,-222.515 113.917,-225.688 119.083,-228.39"/>
<polygon fill="midnightblue" stroke="midnightblue" points="50.9675,-158.76 42.1282,-152.919 45.3957,-162.998 50.9675,-158.76"/>
</g>
<!-- Node4 -->
<g id="node4" class="node"><title>Node4</title>
<g id="a_node4"><a xlink:href="../../d1/dad/giftorle_8c.html#a6fb0f50af9c697efbab2c74b8919760d" target="_top" xlink:title="ReadGIF">
<polygon fill="white" stroke="black" points="112.5,-190.5 112.5,-209.5 171.5,-209.5 171.5,-190.5 112.5,-190.5"/>
<text text-anchor="middle" x="142" y="-197.5" font-family="Helvetica,sans-Serif" font-size="10.00">ReadGIF</text>
</a>
</g>
</g>
<!-- Node1&#45;&gt;Node4 -->
<g id="edge3" class="edge"><title>Node1&#45;&gt;Node4</title>
<path fill="none" stroke="midnightblue" d="M60.7579,-157.417C73.6877,-164.595 89.6211,-173.351 104,-181 109.865,-184.12 116.293,-187.451 122.122,-190.439"/>
<polygon fill="midnightblue" stroke="midnightblue" points="62.3789,-154.313 51.939,-152.508 58.9741,-160.43 62.3789,-154.313"/>
</g>
<!-- Node5 -->
<g id="node5" class="node"><title>Node5</title>
<g id="a_node5"><a xlink:href="../../d7/d7d/rleldmap_8c.html#a15a93d3e423e21c7d212870525a98592" target="_top" xlink:title="filemap">
<polygon fill="white" stroke="black" points="117,-152.5 117,-171.5 167,-171.5 167,-152.5 117,-152.5"/>
<text text-anchor="middle" x="142" y="-159.5" font-family="Helvetica,sans-Serif" font-size="10.00">filemap</text>
</a>
</g>
</g>
<!-- Node1&#45;&gt;Node5 -->
<g id="edge4" class="edge"><title>Node1&#45;&gt;Node5</title>
<path fill="none" stroke="midnightblue" d="M78.1482,-150.734C91.3859,-153.107 105.473,-155.632 116.949,-157.689"/>
<polygon fill="midnightblue" stroke="midnightblue" points="78.7089,-147.279 68.2482,-148.96 77.4738,-154.169 78.7089,-147.279"/>
</g>
<!-- Node6 -->
<g id="node6" class="node"><title>Node6</title>
<g id="a_node6"><a xlink:href="../../d7/d7d/rleldmap_8c.html#ad9fec2c62836213e6eaa08c40a2bd653" target="_top" xlink:title="mfilemap">
<polygon fill="white" stroke="black" points="112.5,-114.5 112.5,-133.5 171.5,-133.5 171.5,-114.5 112.5,-114.5"/>
<text text-anchor="middle" x="142" y="-121.5" font-family="Helvetica,sans-Serif" font-size="10.00">mfilemap</text>
</a>
</g>
</g>
<!-- Node1&#45;&gt;Node6 -->
<g id="edge5" class="edge"><title>Node1&#45;&gt;Node6</title>
<path fill="none" stroke="midnightblue" d="M78.1003,-135.274C89.5632,-133.22 101.667,-131.05 112.162,-129.169"/>
<polygon fill="midnightblue" stroke="midnightblue" points="77.4738,-131.831 68.2482,-137.04 78.7089,-138.721 77.4738,-131.831"/>
</g>
<!-- Node7 -->
<g id="node7" class="node"><title>Node7</title>
<g id="a_node7"><a xlink:href="../../d7/d7d/rleldmap_8c.html#a46c3c4a1e84c992d331d569094ab0cf2" target="_top" xlink:title="get_rle_map">
<polygon fill="white" stroke="black" points="104,-76.5 104,-95.5 180,-95.5 180,-76.5 104,-76.5"/>
<text text-anchor="middle" x="142" y="-83.5" font-family="Helvetica,sans-Serif" font-size="10.00">get_rle_map</text>
</a>
</g>
</g>
<!-- Node1&#45;&gt;Node7 -->
<g id="edge6" class="edge"><title>Node1&#45;&gt;Node7</title>
<path fill="none" stroke="midnightblue" d="M60.7579,-128.583C73.6877,-121.405 89.6211,-112.649 104,-105 109.865,-101.88 116.293,-98.5485 122.122,-95.5607"/>
<polygon fill="midnightblue" stroke="midnightblue" points="58.9741,-125.57 51.939,-133.492 62.3789,-131.687 58.9741,-125.57"/>
</g>
<!-- Node8 -->
<g id="node8" class="node"><title>Node8</title>
<g id="a_node8"><a xlink:href="../../d1/d70/smush_8c.html#ae22f338bd00e39e5d88b945931097a70" target="_top" xlink:title="read_mask">
<polygon fill="white" stroke="black" points="107.5,-38.5 107.5,-57.5 176.5,-57.5 176.5,-38.5 107.5,-38.5"/>
<text text-anchor="middle" x="142" y="-45.5" font-family="Helvetica,sans-Serif" font-size="10.00">read_mask</text>
</a>
</g>
</g>
<!-- Node1&#45;&gt;Node8 -->
<g id="edge7" class="edge"><title>Node1&#45;&gt;Node8</title>
<path fill="none" stroke="midnightblue" d="M48.4464,-124.773C61.3401,-108.2 82.0419,-83.8323 104,-67 108.585,-63.4855 113.917,-60.3121 119.083,-57.6098"/>
<polygon fill="midnightblue" stroke="midnightblue" points="45.3957,-123.002 42.1282,-133.081 50.9675,-127.24 45.3957,-123.002"/>
</g>
<!-- Node10 -->
<g id="node10" class="node"><title>Node10</title>
<g id="a_node10"><a xlink:href="../../df/dfb/unslice_8c.html#a7090aec632931a42b5d606b6db234b9d" target="_top" xlink:title="do_slice">
<polygon fill="white" stroke="black" points="114,-0.5 114,-19.5 170,-19.5 170,-0.5 114,-0.5"/>
<text text-anchor="middle" x="142" y="-7.5" font-family="Helvetica,sans-Serif" font-size="10.00">do_slice</text>
</a>
</g>
</g>
<!-- Node1&#45;&gt;Node10 -->
<g id="edge9" class="edge"><title>Node1&#45;&gt;Node10</title>
<path fill="none" stroke="midnightblue" d="M42.6181,-123.907C53.2325,-99.3133 74.5378,-56.4721 104,-29 107.908,-25.3558 112.649,-22.2308 117.413,-19.6294"/>
<polygon fill="midnightblue" stroke="midnightblue" points="39.3482,-122.655 38.7311,-133.231 45.8093,-125.348 39.3482,-122.655"/>
</g>
<!-- Node9 -->
<g id="node9" class="node"><title>Node9</title>
<g id="a_node9"><a xlink:href="../../d1/d70/smush_8c.html#ade521a0600ded19f1720b6f6df59b480" target="_top" xlink:title="main">
<polygon fill="white" stroke="black" points="216,-38.5 216,-57.5 255,-57.5 255,-38.5 216,-38.5"/>
<text text-anchor="middle" x="235.5" y="-45.5" font-family="Helvetica,sans-Serif" font-size="10.00">main</text>
</a>
</g>
</g>
<!-- Node8&#45;&gt;Node9 -->
<g id="edge8" class="edge"><title>Node8&#45;&gt;Node9</title>
<path fill="none" stroke="midnightblue" d="M186.697,-48C196.966,-48 207.372,-48 215.842,-48"/>
<polygon fill="midnightblue" stroke="midnightblue" points="186.552,-44.5001 176.552,-48 186.552,-51.5001 186.552,-44.5001"/>
</g>
</g>
</svg>
