<?xml version="1.0" encoding="UTF-8" standalone="no"?>
<!DOCTYPE svg PUBLIC "-//W3C//DTD SVG 1.1//EN"
 "http://www.w3.org/Graphics/SVG/1.1/DTD/svg11.dtd">
<!-- Generated by graphviz version 2.38.0 (20140413.2041)
 -->
<!-- Title: main Pages: 1 -->
<svg width="523pt" height="910pt"
 viewBox="0.00 0.00 523.00 910.49" xmlns="http://www.w3.org/2000/svg" xmlns:xlink="http://www.w3.org/1999/xlink">
<g id="graph0" class="graph" transform="scale(1 1) rotate(0) translate(4 906.493)">
<title>main</title>
<polygon fill="white" stroke="none" points="-4,4 -4,-906.493 519,-906.493 519,4 -4,4"/>
<!-- Node1 -->
<g id="node1" class="node"><title>Node1</title>
<polygon fill="#bfbfbf" stroke="black" points="0,-399.5 0,-418.5 39,-418.5 39,-399.5 0,-399.5"/>
<text text-anchor="middle" x="19.5" y="-406.5" font-family="Helvetica,sans-Serif" font-size="10.00">main</text>
</g>
<!-- Node2 -->
<g id="node2" class="node"><title>Node2</title>
<g id="a_node2"><a xlink:href="../../d2/df3/rle__hdr_8c.html#a8ba0e5b11d1e39ab7227f1686e676c86" target="_top" xlink:title="rle_hdr_init">
<polygon fill="white" stroke="black" points="80,-494.5 80,-513.5 150,-513.5 150,-494.5 80,-494.5"/>
<text text-anchor="middle" x="115" y="-501.5" font-family="Helvetica,sans-Serif" font-size="10.00">rle_hdr_init</text>
</a>
</g>
</g>
<!-- Node1&#45;&gt;Node2 -->
<g id="edge1" class="edge"><title>Node1&#45;&gt;Node2</title>
<path fill="none" stroke="midnightblue" d="M26.2645,-418.62C35.3128,-433.164 53.999,-461.058 75,-480 78.4813,-483.14 82.4281,-486.107 86.4412,-488.814"/>
<polygon fill="midnightblue" stroke="midnightblue" points="84.8458,-491.944 95.1776,-494.29 88.5639,-486.013 84.8458,-491.944"/>
</g>
<!-- Node4 -->
<g id="node4" class="node"><title>Node4</title>
<g id="a_node4"><a xlink:href="../../d0/dcc/rletorla_8c.html#aafde19f7d36ca163a143579c1b125b6d" target="_top" xlink:title="free">
<polygon fill="white" stroke="black" points="464.5,-722.5 464.5,-741.5 499.5,-741.5 499.5,-722.5 464.5,-722.5"/>
<text text-anchor="middle" x="482" y="-729.5" font-family="Helvetica,sans-Serif" font-size="10.00">free</text>
</a>
</g>
</g>
<!-- Node1&#45;&gt;Node4 -->
<g id="edge51" class="edge"><title>Node1&#45;&gt;Node4</title>
<path fill="none" stroke="midnightblue" d="M21.4174,-418.544C25.485,-459.012 43.1129,-615.989 75,-652 173.983,-763.784 379.837,-746.793 453.8,-736.442"/>
<polygon fill="midnightblue" stroke="midnightblue" points="454.734,-739.842 464.116,-734.918 453.712,-732.917 454.734,-739.842"/>
</g>
<!-- Node5 -->
<g id="node5" class="node"><title>Node5</title>
<g id="a_node5"><a xlink:href="../../d2/df3/rle__hdr_8c.html#afc916e29aea8788e0878ca315ff69821" target="_top" xlink:title="rle_hdr_cp">
<polygon fill="white" stroke="black" points="199,-456.5 199,-475.5 267,-475.5 267,-456.5 199,-456.5"/>
<text text-anchor="middle" x="233" y="-463.5" font-family="Helvetica,sans-Serif" font-size="10.00">rle_hdr_cp</text>
</a>
</g>
</g>
<!-- Node1&#45;&gt;Node5 -->
<g id="edge25" class="edge"><title>Node1&#45;&gt;Node5</title>
<path fill="none" stroke="midnightblue" d="M33.1986,-418.683C43.8003,-426.259 59.6112,-436.416 75,-442 112.071,-455.451 156.724,-461.364 188.916,-463.962"/>
<polygon fill="midnightblue" stroke="midnightblue" points="188.675,-467.454 198.904,-464.695 189.187,-460.473 188.675,-467.454"/>
</g>
<!-- Node6 -->
<g id="node6" class="node"><title>Node6</title>
<g id="a_node6"><a xlink:href="../../d0/dcc/rletorla_8c.html#ab7e36af3707843f77cc5b4e831c2fa6d" target="_top" xlink:title="malloc">
<polygon fill="white" stroke="black" points="458.5,-456.5 458.5,-475.5 505.5,-475.5 505.5,-456.5 458.5,-456.5"/>
<text text-anchor="middle" x="482" y="-463.5" font-family="Helvetica,sans-Serif" font-size="10.00">malloc</text>
</a>
</g>
</g>
<!-- Node1&#45;&gt;Node6 -->
<g id="edge33" class="edge"><title>Node1&#45;&gt;Node6</title>
<path fill="none" stroke="midnightblue" d="M39.1225,-411.305C109.297,-419.991 358.329,-450.816 448.284,-461.951"/>
<polygon fill="midnightblue" stroke="midnightblue" points="448.089,-465.453 458.443,-463.208 448.949,-458.506 448.089,-465.453"/>
</g>
<!-- Node7 -->
<g id="node7" class="node"><title>Node7</title>
<g id="a_node7"><a xlink:href="../../d2/df3/rle__hdr_8c.html#a82e79385f2d45cc3b80ce0f4f369eae5" target="_top" xlink:title="rle_names">
<polygon fill="white" stroke="black" points="329,-532.5 329,-551.5 395,-551.5 395,-532.5 329,-532.5"/>
<text text-anchor="middle" x="362" y="-539.5" font-family="Helvetica,sans-Serif" font-size="10.00">rle_names</text>
</a>
</g>
</g>
<!-- Node1&#45;&gt;Node7 -->
<g id="edge18" class="edge"><title>Node1&#45;&gt;Node7</title>
<path fill="none" stroke="midnightblue" d="M21.0112,-418.59C22.9461,-444.024 32.1057,-513.221 75,-542 113.631,-567.918 248.937,-555.895 318.697,-547.587"/>
<polygon fill="midnightblue" stroke="midnightblue" points="319.398,-551.027 328.9,-546.342 318.55,-544.079 319.398,-551.027"/>
</g>
<!-- Node8 -->
<g id="node8" class="node"><title>Node8</title>
<g id="a_node8"><a xlink:href="../../d4/db0/scanargs_8c.html#a7ea6d702c0484056c8504d6ce7fede08" target="_top" xlink:title="scanargs">
<polygon fill="white" stroke="black" points="85,-228.5 85,-247.5 145,-247.5 145,-228.5 85,-228.5"/>
<text text-anchor="middle" x="115" y="-235.5" font-family="Helvetica,sans-Serif" font-size="10.00">scanargs</text>
</a>
</g>
</g>
<!-- Node1&#45;&gt;Node8 -->
<g id="edge10" class="edge"><title>Node1&#45;&gt;Node8</title>
<path fill="none" stroke="midnightblue" d="M21.8549,-399.328C25.8177,-374.118 39.4355,-305.347 75,-262 77.5923,-258.84 80.7161,-255.982 84.0534,-253.431"/>
<polygon fill="midnightblue" stroke="midnightblue" points="86.229,-256.187 92.6078,-247.728 82.3459,-250.363 86.229,-256.187"/>
</g>
<!-- Node10 -->
<g id="node10" class="node"><title>Node10</title>
<g id="a_node10"><a xlink:href="../../de/d4e/rle__open__f_8c.html#a89733a45961817885603ae01210290b7" target="_top" xlink:title="rle_open_f">
<polygon fill="white" stroke="black" points="199,-608.5 199,-627.5 267,-627.5 267,-608.5 199,-608.5"/>
<text text-anchor="middle" x="233" y="-615.5" font-family="Helvetica,sans-Serif" font-size="10.00">rle_open_f</text>
</a>
</g>
</g>
<!-- Node1&#45;&gt;Node10 -->
<g id="edge12" class="edge"><title>Node1&#45;&gt;Node10</title>
<path fill="none" stroke="midnightblue" d="M20.0502,-418.934C19.2273,-450.167 21.2885,-547.081 75,-594 105.864,-620.961 153.809,-624.706 188.598,-623.104"/>
<polygon fill="midnightblue" stroke="midnightblue" points="189.178,-626.575 198.939,-622.456 188.74,-619.589 189.178,-626.575"/>
</g>
<!-- Node13 -->
<g id="node13" class="node"><title>Node13</title>
<g id="a_node13"><a xlink:href="../../d8/d30/cmd__name_8c.html#a271249070fdd12c176777c77d76f888f" target="_top" xlink:title="cmd_name">
<polygon fill="white" stroke="black" points="81,-190.5 81,-209.5 149,-209.5 149,-190.5 81,-190.5"/>
<text text-anchor="middle" x="115" y="-197.5" font-family="Helvetica,sans-Serif" font-size="10.00">cmd_name</text>
</a>
</g>
</g>
<!-- Node1&#45;&gt;Node13 -->
<g id="edge17" class="edge"><title>Node1&#45;&gt;Node13</title>
<path fill="none" stroke="midnightblue" d="M20.6184,-399.457C21.4823,-369.338 28.0012,-274.98 75,-219 75.9988,-217.81 77.0898,-216.689 78.2517,-215.633"/>
<polygon fill="midnightblue" stroke="midnightblue" points="80.6265,-218.237 86.7219,-209.571 76.5528,-212.545 80.6265,-218.237"/>
</g>
<!-- Node14 -->
<g id="node14" class="node"><title>Node14</title>
<g id="a_node14"><a xlink:href="../../db/d53/rle__getrow_8c.html#a619b27463c26e0a4a3d9648a9869ee52" target="_top" xlink:title="rle_get_setup">
<polygon fill="white" stroke="black" points="192.5,-646.5 192.5,-665.5 273.5,-665.5 273.5,-646.5 192.5,-646.5"/>
<text text-anchor="middle" x="233" y="-653.5" font-family="Helvetica,sans-Serif" font-size="10.00">rle_get_setup</text>
</a>
</g>
</g>
<!-- Node1&#45;&gt;Node14 -->
<g id="edge19" class="edge"><title>Node1&#45;&gt;Node14</title>
<path fill="none" stroke="midnightblue" d="M21.6363,-418.724C26.2462,-456.501 44.7629,-592.868 75,-622 103.121,-649.093 147.446,-656.72 181.838,-658.071"/>
<polygon fill="midnightblue" stroke="midnightblue" points="182.087,-661.577 192.163,-658.303 182.244,-654.579 182.087,-661.577"/>
</g>
<!-- Node16 -->
<g id="node16" class="node"><title>Node16</title>
<g id="a_node16"><a xlink:href="../../d8/def/rle__addhist_8c.html#a4f9433d6e4e203d0ecea1c7d3837afc3" target="_top" xlink:title="rle_addhist">
<polygon fill="white" stroke="black" points="80.5,-304.5 80.5,-323.5 149.5,-323.5 149.5,-304.5 80.5,-304.5"/>
<text text-anchor="middle" x="115" y="-311.5" font-family="Helvetica,sans-Serif" font-size="10.00">rle_addhist</text>
</a>
</g>
</g>
<!-- Node1&#45;&gt;Node16 -->
<g id="edge26" class="edge"><title>Node1&#45;&gt;Node16</title>
<path fill="none" stroke="midnightblue" d="M26.2645,-399.38C35.3128,-384.836 53.999,-356.942 75,-338 78.4813,-334.86 82.4281,-331.893 86.4412,-329.186"/>
<polygon fill="midnightblue" stroke="midnightblue" points="88.5639,-331.987 95.1776,-323.71 84.8458,-326.056 88.5639,-331.987"/>
</g>
<!-- Node17 -->
<g id="node17" class="node"><title>Node17</title>
<g id="a_node17"><a xlink:href="../../db/db2/rle__getcom_8c.html#a9cefd612c381bf82c9cdf1f3a3b12dd6" target="_top" xlink:title="rle_getcom">
<polygon fill="white" stroke="black" points="198.5,-228.5 198.5,-247.5 267.5,-247.5 267.5,-228.5 198.5,-228.5"/>
<text text-anchor="middle" x="233" y="-235.5" font-family="Helvetica,sans-Serif" font-size="10.00">rle_getcom</text>
</a>
</g>
</g>
<!-- Node1&#45;&gt;Node17 -->
<g id="edge34" class="edge"><title>Node1&#45;&gt;Node17</title>
<path fill="none" stroke="midnightblue" d="M22.517,-399.252C27.5164,-377.474 42.4985,-324.472 75,-295 92.0306,-279.557 148.195,-261.377 188.482,-249.775"/>
<polygon fill="midnightblue" stroke="midnightblue" points="189.686,-253.072 198.349,-246.973 187.773,-246.338 189.686,-253.072"/>
</g>
<!-- Node19 -->
<g id="node19" class="node"><title>Node19</title>
<g id="a_node19"><a xlink:href="../../df/da5/rle__putcom_8c.html#a6fa8528c32d14763efe2a534e409e321" target="_top" xlink:title="rle_putcom">
<polygon fill="white" stroke="black" points="199,-304.5 199,-323.5 267,-323.5 267,-304.5 199,-304.5"/>
<text text-anchor="middle" x="233" y="-311.5" font-family="Helvetica,sans-Serif" font-size="10.00">rle_putcom</text>
</a>
</g>
</g>
<!-- Node1&#45;&gt;Node19 -->
<g id="edge36" class="edge"><title>Node1&#45;&gt;Node19</title>
<path fill="none" stroke="midnightblue" d="M32.4702,-399.279C43.1417,-390.957 59.437,-379.074 75,-371 111.973,-351.819 156.883,-336.217 189.184,-326.217"/>
<polygon fill="midnightblue" stroke="midnightblue" points="190.233,-329.556 198.78,-323.296 188.194,-322.86 190.233,-329.556"/>
</g>
<!-- Node21 -->
<g id="node21" class="node"><title>Node21</title>
<g id="a_node21"><a xlink:href="../../d0/daf/rlesortmap_8c.html#a0905e4d9bb4015242234599eef6bc988" target="_top" xlink:title="pcompar">
<polygon fill="white" stroke="black" points="86,-152.5 86,-171.5 144,-171.5 144,-152.5 86,-152.5"/>
<text text-anchor="middle" x="115" y="-159.5" font-family="Helvetica,sans-Serif" font-size="10.00">pcompar</text>
</a>
</g>
</g>
<!-- Node1&#45;&gt;Node21 -->
<g id="edge35" class="edge"><title>Node1&#45;&gt;Node21</title>
<path fill="none" stroke="midnightblue" d="M20.0472,-399.063C19.0114,-364.746 19.9944,-249.573 75,-181 75.9425,-179.825 76.9758,-178.718 78.0799,-177.674"/>
<polygon fill="midnightblue" stroke="midnightblue" points="80.2211,-180.444 86.1834,-171.686 76.0609,-174.815 80.2211,-180.444"/>
</g>
<!-- Node22 -->
<g id="node22" class="node"><title>Node22</title>
<g id="a_node22"><a xlink:href="../../df/d6e/rle__raw__alc_8c.html#a3f4a119f9ef60eb2599166c98946c339" target="_top" xlink:title="rle_raw_alloc">
<polygon fill="white" stroke="black" points="322,-494.5 322,-513.5 402,-513.5 402,-494.5 322,-494.5"/>
<text text-anchor="middle" x="362" y="-501.5" font-family="Helvetica,sans-Serif" font-size="10.00">rle_raw_alloc</text>
</a>
</g>
</g>
<!-- Node1&#45;&gt;Node22 -->
<g id="edge37" class="edge"><title>Node1&#45;&gt;Node22</title>
<path fill="none" stroke="midnightblue" d="M21.6965,-418.582C25.1315,-441.484 37.3272,-499.254 75,-523 113.118,-547.027 240.424,-527.553 311.661,-514.099"/>
<polygon fill="midnightblue" stroke="midnightblue" points="312.586,-517.486 321.747,-512.164 311.267,-510.611 312.586,-517.486"/>
</g>
<!-- Node23 -->
<g id="node23" class="node"><title>Node23</title>
<g id="a_node23"><a xlink:href="../../d9/d2a/rle__putrow_8c.html#af88a82b331cd6f425d2a2cc1623944c6" target="_top" xlink:title="rle_put_setup">
<polygon fill="white" stroke="black" points="75,-114.5 75,-133.5 155,-133.5 155,-114.5 75,-114.5"/>
<text text-anchor="middle" x="115" y="-121.5" font-family="Helvetica,sans-Serif" font-size="10.00">rle_put_setup</text>
</a>
</g>
</g>
<!-- Node1&#45;&gt;Node23 -->
<g id="edge40" class="edge"><title>Node1&#45;&gt;Node23</title>
<path fill="none" stroke="midnightblue" d="M21.3509,-399.24C25.2612,-356.316 42.7111,-184.623 75,-143 75.9233,-141.81 76.9403,-140.69 78.0309,-139.636"/>
<polygon fill="midnightblue" stroke="midnightblue" points="80.176,-142.402 86.0795,-133.604 75.9782,-136.8 80.176,-142.402"/>
</g>
<!-- Node25 -->
<g id="node25" class="node"><title>Node25</title>
<g id="a_node25"><a xlink:href="../../df/dce/rle__getraw_8c.html#a5ed570d65cead1b5587e84134c31e246" target="_top" xlink:title="rle_getraw">
<polygon fill="white" stroke="black" points="81.5,-380.5 81.5,-399.5 148.5,-399.5 148.5,-380.5 81.5,-380.5"/>
<text text-anchor="middle" x="115" y="-387.5" font-family="Helvetica,sans-Serif" font-size="10.00">rle_getraw</text>
</a>
</g>
</g>
<!-- Node1&#45;&gt;Node25 -->
<g id="edge42" class="edge"><title>Node1&#45;&gt;Node25</title>
<path fill="none" stroke="midnightblue" d="M39.4211,-405.155C48.6543,-403.279 60.1645,-400.94 71.3581,-398.665"/>
<polygon fill="midnightblue" stroke="midnightblue" points="72.3719,-402.031 81.4746,-396.609 70.9779,-395.171 72.3719,-402.031"/>
</g>
<!-- Node27 -->
<g id="node27" class="node"><title>Node27</title>
<g id="a_node27"><a xlink:href="../../d9/d2a/rle__putrow_8c.html#a018d4b7d6fe20504c07c24b9bd8fc304" target="_top" xlink:title="rle_skiprow">
<polygon fill="white" stroke="black" points="79.5,-76.5 79.5,-95.5 150.5,-95.5 150.5,-76.5 79.5,-76.5"/>
<text text-anchor="middle" x="115" y="-83.5" font-family="Helvetica,sans-Serif" font-size="10.00">rle_skiprow</text>
</a>
</g>
</g>
<!-- Node1&#45;&gt;Node27 -->
<g id="edge45" class="edge"><title>Node1&#45;&gt;Node27</title>
<path fill="none" stroke="midnightblue" d="M21.0644,-399.445C23.9601,-353.252 38.4563,-153.329 75,-105 75.9085,-103.798 76.9131,-102.669 77.9932,-101.607"/>
<polygon fill="midnightblue" stroke="midnightblue" points="80.1411,-104.371 85.9997,-95.5431 75.9148,-98.7905 80.1411,-104.371"/>
</g>
<!-- Node28 -->
<g id="node28" class="node"><title>Node28</title>
<g id="a_node28"><a xlink:href="../../d6/d8c/rle__putraw_8c.html#ab36032e464af1d1505cdc69948fe9f17" target="_top" xlink:title="rle_putraw">
<polygon fill="white" stroke="black" points="82,-38.5 82,-57.5 148,-57.5 148,-38.5 82,-38.5"/>
<text text-anchor="middle" x="115" y="-45.5" font-family="Helvetica,sans-Serif" font-size="10.00">rle_putraw</text>
</a>
</g>
</g>
<!-- Node1&#45;&gt;Node28 -->
<g id="edge46" class="edge"><title>Node1&#45;&gt;Node28</title>
<path fill="none" stroke="midnightblue" d="M20.862,-399.271C22.893,-349.325 34.281,-121.948 75,-67 75.7819,-65.9448 76.6383,-64.9452 77.5553,-63.9986"/>
<polygon fill="midnightblue" stroke="midnightblue" points="79.8357,-66.6582 85.5444,-57.7328 75.5158,-61.1501 79.8357,-66.6582"/>
</g>
<!-- Node29 -->
<g id="node29" class="node"><title>Node29</title>
<g id="a_node29"><a xlink:href="../../df/dce/rle__getraw_8c.html#ad4a764bcb2dc8e45f3f57171022dbf2b" target="_top" xlink:title="rle_freeraw">
<polygon fill="white" stroke="black" points="326.5,-874.5 326.5,-893.5 397.5,-893.5 397.5,-874.5 326.5,-874.5"/>
<text text-anchor="middle" x="362" y="-881.5" font-family="Helvetica,sans-Serif" font-size="10.00">rle_freeraw</text>
</a>
</g>
</g>
<!-- Node1&#45;&gt;Node29 -->
<g id="edge47" class="edge"><title>Node1&#45;&gt;Node29</title>
<path fill="none" stroke="midnightblue" d="M20.9891,-418.688C24.2049,-480.597 43.1813,-819.263 75,-851 138.357,-914.194 252.976,-905.139 316.17,-893.981"/>
<polygon fill="midnightblue" stroke="midnightblue" points="317.037,-897.38 326.228,-892.111 315.757,-890.498 317.037,-897.38"/>
</g>
<!-- Node30 -->
<g id="node30" class="node"><title>Node30</title>
<g id="a_node30"><a xlink:href="../../d9/d2a/rle__putrow_8c.html#af4fab734a5d227ad2ae95840f56fff3b" target="_top" xlink:title="rle_puteof">
<polygon fill="white" stroke="black" points="201,-836.5 201,-855.5 265,-855.5 265,-836.5 201,-836.5"/>
<text text-anchor="middle" x="233" y="-843.5" font-family="Helvetica,sans-Serif" font-size="10.00">rle_puteof</text>
</a>
</g>
</g>
<!-- Node1&#45;&gt;Node30 -->
<g id="edge49" class="edge"><title>Node1&#45;&gt;Node30</title>
<path fill="none" stroke="midnightblue" d="M20.2782,-418.705C19.1958,-475.318 16.6679,-762.46 75,-822 104.594,-852.206 155.075,-854.835 190.796,-852.086"/>
<polygon fill="midnightblue" stroke="midnightblue" points="191.28,-855.557 200.909,-851.137 190.626,-848.587 191.28,-855.557"/>
</g>
<!-- Node31 -->
<g id="node31" class="node"><title>Node31</title>
<g id="a_node31"><a xlink:href="../../df/d6e/rle__raw__alc_8c.html#a817fc2f8cdfed47915112d5aa3951afa" target="_top" xlink:title="rle_raw_free">
<polygon fill="white" stroke="black" points="323.5,-798.5 323.5,-817.5 400.5,-817.5 400.5,-798.5 323.5,-798.5"/>
<text text-anchor="middle" x="362" y="-805.5" font-family="Helvetica,sans-Serif" font-size="10.00">rle_raw_free</text>
</a>
</g>
</g>
<!-- Node1&#45;&gt;Node31 -->
<g id="edge52" class="edge"><title>Node1&#45;&gt;Node31</title>
<path fill="none" stroke="midnightblue" d="M20.3639,-418.56C19.818,-471.907 20.0264,-732.261 75,-784 108.287,-815.328 240.769,-814.078 313.16,-810.856"/>
<polygon fill="midnightblue" stroke="midnightblue" points="313.563,-814.341 323.386,-810.37 313.231,-807.349 313.563,-814.341"/>
</g>
<!-- Node32 -->
<g id="node32" class="node"><title>Node32</title>
<g id="a_node32"><a xlink:href="../../d7/d24/rle__error_8c.html#af931d686cf3ca715c9b900527f0961c0" target="_top" xlink:title="rle_get_error">
<polygon fill="white" stroke="black" points="75.5,-0.5 75.5,-19.5 154.5,-19.5 154.5,-0.5 75.5,-0.5"/>
<text text-anchor="middle" x="115" y="-7.5" font-family="Helvetica,sans-Serif" font-size="10.00">rle_get_error</text>
</a>
</g>
</g>
<!-- Node1&#45;&gt;Node32 -->
<g id="edge54" class="edge"><title>Node1&#45;&gt;Node32</title>
<path fill="none" stroke="midnightblue" d="M20.6906,-399.268C21.9071,-346.078 30.0446,-90.6636 75,-29 75.7737,-27.9388 76.6229,-26.9339 77.5338,-25.9828"/>
<polygon fill="midnightblue" stroke="midnightblue" points="79.8158,-28.6405 85.4939,-19.6957 75.4771,-23.1473 79.8158,-28.6405"/>
</g>
<!-- Node3 -->
<g id="node3" class="node"><title>Node3</title>
<g id="a_node3"><a xlink:href="../../d2/df3/rle__hdr_8c.html#a16c4da6201b3b8cf55127b9ca968d253" target="_top" xlink:title="rle_hdr_clear">
<polygon fill="white" stroke="black" points="322,-646.5 322,-665.5 402,-665.5 402,-646.5 322,-646.5"/>
<text text-anchor="middle" x="362" y="-653.5" font-family="Helvetica,sans-Serif" font-size="10.00">rle_hdr_clear</text>
</a>
</g>
</g>
<!-- Node2&#45;&gt;Node3 -->
<g id="edge2" class="edge"><title>Node2&#45;&gt;Node3</title>
<path fill="none" stroke="midnightblue" d="M135.7,-513.538C166.888,-529.113 228.826,-562.004 275,-599 293.156,-613.547 291.64,-624.099 311,-637 313.869,-638.912 316.957,-640.669 320.141,-642.275"/>
<polygon fill="midnightblue" stroke="midnightblue" points="318.71,-645.469 329.264,-646.409 321.6,-639.094 318.71,-645.469"/>
</g>
<!-- Node2&#45;&gt;Node5 -->
<g id="edge4" class="edge"><title>Node2&#45;&gt;Node5</title>
<path fill="none" stroke="midnightblue" d="M131.165,-494.301C145.837,-487.718 168.771,-479.601 189.063,-473.522"/>
<polygon fill="midnightblue" stroke="midnightblue" points="190.13,-476.857 198.764,-470.717 188.185,-470.133 190.13,-476.857"/>
</g>
<!-- Node3&#45;&gt;Node4 -->
<g id="edge3" class="edge"><title>Node3&#45;&gt;Node4</title>
<path fill="none" stroke="midnightblue" d="M393.104,-665.572C399.851,-668.223 406.832,-671.383 413,-675 432.147,-686.229 451.284,-702.876 464.355,-715.284"/>
<polygon fill="midnightblue" stroke="midnightblue" points="462.044,-717.918 471.656,-722.375 466.921,-712.897 462.044,-717.918"/>
</g>
<!-- Node5&#45;&gt;Node2 -->
<g id="edge5" class="edge"><title>Node5&#45;&gt;Node2</title>
<path fill="none" stroke="midnightblue" d="M216.998,-475.626C202.546,-482.126 179.97,-490.14 159.825,-496.211"/>
<polygon fill="midnightblue" stroke="midnightblue" points="158.799,-492.864 150.176,-499.02 160.756,-499.585 158.799,-492.864"/>
</g>
<!-- Node5&#45;&gt;Node6 -->
<g id="edge6" class="edge"><title>Node5&#45;&gt;Node6</title>
<path fill="none" stroke="midnightblue" d="M267.055,-466C314.374,-466 400.906,-466 448.125,-466"/>
<polygon fill="midnightblue" stroke="midnightblue" points="448.407,-469.5 458.407,-466 448.407,-462.5 448.407,-469.5"/>
</g>
<!-- Node5&#45;&gt;Node7 -->
<g id="edge7" class="edge"><title>Node5&#45;&gt;Node7</title>
<path fill="none" stroke="midnightblue" d="M244.823,-475.526C259.159,-487.776 285.605,-509.12 311,-523 314.667,-525.004 318.589,-526.891 322.565,-528.639"/>
<polygon fill="midnightblue" stroke="midnightblue" points="321.261,-531.887 331.84,-532.459 323.926,-525.415 321.261,-531.887"/>
</g>
<!-- Node7&#45;&gt;Node4 -->
<g id="edge8" class="edge"><title>Node7&#45;&gt;Node4</title>
<path fill="none" stroke="midnightblue" d="M373.034,-551.873C383.765,-562.769 400.875,-581.138 413,-599 438.845,-637.074 461.532,-686.267 473.021,-712.871"/>
<polygon fill="midnightblue" stroke="midnightblue" points="469.852,-714.361 476.986,-722.193 476.293,-711.621 469.852,-714.361"/>
</g>
<!-- Node7&#45;&gt;Node6 -->
<g id="edge9" class="edge"><title>Node7&#45;&gt;Node6</title>
<path fill="none" stroke="midnightblue" d="M393.104,-532.428C399.851,-529.777 406.832,-526.617 413,-523 432.147,-511.771 451.284,-495.124 464.355,-482.716"/>
<polygon fill="midnightblue" stroke="midnightblue" points="466.921,-485.103 471.656,-475.625 462.044,-480.082 466.921,-485.103"/>
</g>
<!-- Node9 -->
<g id="node9" class="node"><title>Node9</title>
<g id="a_node9"><a xlink:href="../../d4/db0/scanargs_8c.html#a862219039664df6eb3cfced58addf830" target="_top" xlink:title="_do_scanargs">
<polygon fill="white" stroke="black" points="191,-190.5 191,-209.5 275,-209.5 275,-190.5 191,-190.5"/>
<text text-anchor="middle" x="233" y="-197.5" font-family="Helvetica,sans-Serif" font-size="10.00">_do_scanargs</text>
</a>
</g>
</g>
<!-- Node8&#45;&gt;Node9 -->
<g id="edge11" class="edge"><title>Node8&#45;&gt;Node9</title>
<path fill="none" stroke="midnightblue" d="M145.272,-228.411C159.697,-223.686 177.293,-217.921 192.857,-212.823"/>
<polygon fill="midnightblue" stroke="midnightblue" points="194.324,-216.025 202.738,-209.586 192.145,-209.373 194.324,-216.025"/>
</g>
<!-- Node11 -->
<g id="node11" class="node"><title>Node11</title>
<g id="a_node11"><a xlink:href="../../de/d4e/rle__open__f_8c.html#a5a0e62a00f907fce26e93b2f72adb2b0" target="_top" xlink:title="rle_open_f_noexit">
<polygon fill="white" stroke="black" points="311,-608.5 311,-627.5 413,-627.5 413,-608.5 311,-608.5"/>
<text text-anchor="middle" x="362" y="-615.5" font-family="Helvetica,sans-Serif" font-size="10.00">rle_open_f_noexit</text>
</a>
</g>
</g>
<!-- Node10&#45;&gt;Node11 -->
<g id="edge13" class="edge"><title>Node10&#45;&gt;Node11</title>
<path fill="none" stroke="midnightblue" d="M267.036,-618C277.382,-618 289.141,-618 300.755,-618"/>
<polygon fill="midnightblue" stroke="midnightblue" points="300.885,-621.5 310.885,-618 300.885,-614.5 300.885,-621.5"/>
</g>
<!-- Node11&#45;&gt;Node4 -->
<g id="edge16" class="edge"><title>Node11&#45;&gt;Node4</title>
<path fill="none" stroke="midnightblue" d="M396.458,-627.569C402.297,-630.093 408.071,-633.203 413,-637 440.05,-657.836 460.929,-692.348 472.056,-713.541"/>
<polygon fill="midnightblue" stroke="midnightblue" points="468.953,-715.161 476.594,-722.5 475.198,-711.998 468.953,-715.161"/>
</g>
<!-- Node11&#45;&gt;Node6 -->
<g id="edge15" class="edge"><title>Node11&#45;&gt;Node6</title>
<path fill="none" stroke="midnightblue" d="M390.92,-608.383C398.713,-604.749 406.749,-600.001 413,-594 445.531,-562.77 465.84,-512.537 475.097,-485.211"/>
<polygon fill="midnightblue" stroke="midnightblue" points="478.446,-486.231 478.201,-475.638 471.787,-484.071 478.446,-486.231"/>
</g>
<!-- Node12 -->
<g id="node12" class="node"><title>Node12</title>
<g id="a_node12"><a xlink:href="../../de/d4e/rle__open__f_8c.html#a84fda810ae9b9bde82a6391d0b264ead" target="_top" xlink:title="my_popen">
<polygon fill="white" stroke="black" points="449,-608.5 449,-627.5 515,-627.5 515,-608.5 449,-608.5"/>
<text text-anchor="middle" x="482" y="-615.5" font-family="Helvetica,sans-Serif" font-size="10.00">my_popen</text>
</a>
</g>
</g>
<!-- Node11&#45;&gt;Node12 -->
<g id="edge14" class="edge"><title>Node11&#45;&gt;Node12</title>
<path fill="none" stroke="midnightblue" d="M413.043,-618C421.523,-618 430.255,-618 438.518,-618"/>
<polygon fill="midnightblue" stroke="midnightblue" points="438.678,-621.5 448.678,-618 438.678,-614.5 438.678,-621.5"/>
</g>
<!-- Node14&#45;&gt;Node3 -->
<g id="edge20" class="edge"><title>Node14&#45;&gt;Node3</title>
<path fill="none" stroke="midnightblue" d="M273.835,-656C285.77,-656 299.006,-656 311.484,-656"/>
<polygon fill="midnightblue" stroke="midnightblue" points="311.742,-659.5 321.742,-656 311.742,-652.5 311.742,-659.5"/>
</g>
<!-- Node14&#45;&gt;Node4 -->
<g id="edge23" class="edge"><title>Node14&#45;&gt;Node4</title>
<path fill="none" stroke="midnightblue" d="M243.414,-665.636C256.982,-678.847 283.444,-702.176 311,-713 358.889,-731.81 419.82,-733.863 454.207,-733.224"/>
<polygon fill="midnightblue" stroke="midnightblue" points="454.49,-736.717 464.389,-732.94 454.295,-729.72 454.49,-736.717"/>
</g>
<!-- Node14&#45;&gt;Node6 -->
<g id="edge22" class="edge"><title>Node14&#45;&gt;Node6</title>
<path fill="none" stroke="midnightblue" d="M258.694,-646.397C264.284,-643.73 270.031,-640.571 275,-637 293.891,-623.422 291.598,-611.837 311,-599 351.345,-572.306 374.578,-590.396 413,-561 440.118,-540.253 460.975,-505.713 472.08,-484.491"/>
<polygon fill="midnightblue" stroke="midnightblue" points="475.227,-486.022 476.608,-475.518 468.978,-482.868 475.227,-486.022"/>
</g>
<!-- Node14&#45;&gt;Node7 -->
<g id="edge21" class="edge"><title>Node14&#45;&gt;Node7</title>
<path fill="none" stroke="midnightblue" d="M261.648,-646.304C266.47,-643.782 271.162,-640.705 275,-637 300.455,-612.428 285.712,-590.744 311,-566 314.774,-562.307 319.226,-559.094 323.893,-556.326"/>
<polygon fill="midnightblue" stroke="midnightblue" points="325.78,-559.289 333.007,-551.542 322.526,-553.091 325.78,-559.289"/>
</g>
<!-- Node15 -->
<g id="node15" class="node"><title>Node15</title>
<g id="a_node15"><a xlink:href="../../db/d53/rle__getrow_8c.html#a0ea68aa2ebeef9d4cade7282553b03d6" target="_top" xlink:title="vax_gshort">
<polygon fill="white" stroke="black" points="327.5,-684.5 327.5,-703.5 396.5,-703.5 396.5,-684.5 327.5,-684.5"/>
<text text-anchor="middle" x="362" y="-691.5" font-family="Helvetica,sans-Serif" font-size="10.00">vax_gshort</text>
</a>
</g>
</g>
<!-- Node14&#45;&gt;Node15 -->
<g id="edge24" class="edge"><title>Node14&#45;&gt;Node15</title>
<path fill="none" stroke="midnightblue" d="M266.047,-665.589C282.141,-670.404 301.841,-676.299 319.117,-681.468"/>
<polygon fill="midnightblue" stroke="midnightblue" points="318.379,-684.901 328.963,-684.414 320.386,-678.194 318.379,-684.901"/>
</g>
<!-- Node16&#45;&gt;Node6 -->
<g id="edge29" class="edge"><title>Node16&#45;&gt;Node6</title>
<path fill="none" stroke="midnightblue" d="M137.372,-304.482C189.639,-282.793 325.993,-235.965 413,-295 464.033,-329.626 476.767,-409.258 479.944,-446.337"/>
<polygon fill="midnightblue" stroke="midnightblue" points="476.458,-446.653 480.655,-456.381 483.44,-446.159 476.458,-446.653"/>
</g>
<!-- Node16&#45;&gt;Node17 -->
<g id="edge27" class="edge"><title>Node16&#45;&gt;Node17</title>
<path fill="none" stroke="midnightblue" d="M132.574,-304.348C139.603,-300.116 147.814,-294.984 155,-290 171.656,-278.449 174.217,-273.367 191,-262 195.695,-258.82 200.825,-255.617 205.818,-252.633"/>
<polygon fill="midnightblue" stroke="midnightblue" points="207.659,-255.611 214.534,-247.55 204.133,-249.565 207.659,-255.611"/>
</g>
<!-- Node16&#45;&gt;Node19 -->
<g id="edge30" class="edge"><title>Node16&#45;&gt;Node19</title>
<path fill="none" stroke="midnightblue" d="M149.552,-314C161.801,-314 175.831,-314 188.802,-314"/>
<polygon fill="midnightblue" stroke="midnightblue" points="188.924,-317.5 198.924,-314 188.924,-310.5 188.924,-317.5"/>
</g>
<!-- Node18 -->
<g id="node18" class="node"><title>Node18</title>
<g id="a_node18"><a xlink:href="../../db/db2/rle__getcom_8c.html#a7502c8b599724ce86fee5df1311a2337" target="_top" xlink:title="match">
<polygon fill="white" stroke="black" points="339.5,-228.5 339.5,-247.5 384.5,-247.5 384.5,-228.5 339.5,-228.5"/>
<text text-anchor="middle" x="362" y="-235.5" font-family="Helvetica,sans-Serif" font-size="10.00">match</text>
</a>
</g>
</g>
<!-- Node17&#45;&gt;Node18 -->
<g id="edge28" class="edge"><title>Node17&#45;&gt;Node18</title>
<path fill="none" stroke="midnightblue" d="M267.7,-238C286.709,-238 310.325,-238 329.041,-238"/>
<polygon fill="midnightblue" stroke="midnightblue" points="329.148,-241.5 339.148,-238 329.148,-234.5 329.148,-241.5"/>
</g>
<!-- Node19&#45;&gt;Node6 -->
<g id="edge31" class="edge"><title>Node19&#45;&gt;Node6</title>
<path fill="none" stroke="midnightblue" d="M267.132,-322.966C312.034,-335.538 389.325,-358.789 413,-376 439.272,-395.099 460.045,-427.228 471.417,-447.487"/>
<polygon fill="midnightblue" stroke="midnightblue" points="468.387,-449.242 476.227,-456.369 474.542,-445.909 468.387,-449.242"/>
</g>
<!-- Node20 -->
<g id="node20" class="node"><title>Node20</title>
<g id="a_node20"><a xlink:href="../../df/da5/rle__putcom_8c.html#a7502c8b599724ce86fee5df1311a2337" target="_top" xlink:title="match">
<polygon fill="white" stroke="black" points="339.5,-304.5 339.5,-323.5 384.5,-323.5 384.5,-304.5 339.5,-304.5"/>
<text text-anchor="middle" x="362" y="-311.5" font-family="Helvetica,sans-Serif" font-size="10.00">match</text>
</a>
</g>
</g>
<!-- Node19&#45;&gt;Node20 -->
<g id="edge32" class="edge"><title>Node19&#45;&gt;Node20</title>
<path fill="none" stroke="midnightblue" d="M267.036,-314C286.171,-314 310.142,-314 329.083,-314"/>
<polygon fill="midnightblue" stroke="midnightblue" points="329.302,-317.5 339.302,-314 329.302,-310.5 329.302,-317.5"/>
</g>
<!-- Node22&#45;&gt;Node4 -->
<g id="edge39" class="edge"><title>Node22&#45;&gt;Node4</title>
<path fill="none" stroke="midnightblue" d="M400.08,-513.617C404.871,-516.075 409.366,-519.152 413,-523 449.48,-561.631 432.519,-586.488 449,-637 457.569,-663.262 467.814,-693.48 474.363,-712.652"/>
<polygon fill="midnightblue" stroke="midnightblue" points="471.119,-713.982 477.668,-722.31 477.741,-711.716 471.119,-713.982"/>
</g>
<!-- Node22&#45;&gt;Node6 -->
<g id="edge38" class="edge"><title>Node22&#45;&gt;Node6</title>
<path fill="none" stroke="midnightblue" d="M392.776,-494.411C409.784,-488.934 431.127,-482.061 448.559,-476.447"/>
<polygon fill="midnightblue" stroke="midnightblue" points="449.864,-479.704 458.31,-473.307 447.718,-473.041 449.864,-479.704"/>
</g>
<!-- Node24 -->
<g id="node24" class="node"><title>Node24</title>
<g id="a_node24"><a xlink:href="../../d9/d2a/rle__putrow_8c.html#a46d9789104d5d1f09253a808fdad5346" target="_top" xlink:title="rle_put_init">
<polygon fill="white" stroke="black" points="199,-114.5 199,-133.5 267,-133.5 267,-114.5 199,-114.5"/>
<text text-anchor="middle" x="233" y="-121.5" font-family="Helvetica,sans-Serif" font-size="10.00">rle_put_init</text>
</a>
</g>
</g>
<!-- Node23&#45;&gt;Node24 -->
<g id="edge41" class="edge"><title>Node23&#45;&gt;Node24</title>
<path fill="none" stroke="midnightblue" d="M155.272,-124C166.031,-124 177.753,-124 188.722,-124"/>
<polygon fill="midnightblue" stroke="midnightblue" points="188.953,-127.5 198.953,-124 188.953,-120.5 188.953,-127.5"/>
</g>
<!-- Node25&#45;&gt;Node6 -->
<g id="edge43" class="edge"><title>Node25&#45;&gt;Node6</title>
<path fill="none" stroke="midnightblue" d="M146.324,-380.495C159.85,-376.731 176.072,-372.862 191,-371 228.046,-366.38 238.092,-365.383 275,-371 338.511,-380.666 355.942,-384.48 413,-414 431.407,-423.524 449.939,-438.102 462.997,-449.402"/>
<polygon fill="midnightblue" stroke="midnightblue" points="460.929,-452.247 470.731,-456.268 465.576,-447.012 460.929,-452.247"/>
</g>
<!-- Node26 -->
<g id="node26" class="node"><title>Node26</title>
<g id="a_node26"><a xlink:href="../../d8/d7c/rle__getskip_8c.html#af6b1e1dc0867e9340f90668591c7c5b3" target="_top" xlink:title="rle_getskip">
<polygon fill="white" stroke="black" points="199,-380.5 199,-399.5 267,-399.5 267,-380.5 199,-380.5"/>
<text text-anchor="middle" x="233" y="-387.5" font-family="Helvetica,sans-Serif" font-size="10.00">rle_getskip</text>
</a>
</g>
</g>
<!-- Node25&#45;&gt;Node26 -->
<g id="edge44" class="edge"><title>Node25&#45;&gt;Node26</title>
<path fill="none" stroke="midnightblue" d="M148.621,-390C160.994,-390 175.287,-390 188.505,-390"/>
<polygon fill="midnightblue" stroke="midnightblue" points="188.819,-393.5 198.819,-390 188.818,-386.5 188.819,-393.5"/>
</g>
<!-- Node29&#45;&gt;Node4 -->
<g id="edge48" class="edge"><title>Node29&#45;&gt;Node4</title>
<path fill="none" stroke="midnightblue" d="M390.92,-874.383C398.713,-870.749 406.749,-866.001 413,-860 445.531,-828.77 465.84,-778.537 475.097,-751.211"/>
<polygon fill="midnightblue" stroke="midnightblue" points="478.446,-752.231 478.201,-741.638 471.787,-750.071 478.446,-752.231"/>
</g>
<!-- Node30&#45;&gt;Node4 -->
<g id="edge50" class="edge"><title>Node30&#45;&gt;Node4</title>
<path fill="none" stroke="midnightblue" d="M265.158,-850.035C302.849,-853.348 366.964,-853.828 413,-827 442.803,-809.632 463.018,-773.414 473.232,-751.056"/>
<polygon fill="midnightblue" stroke="midnightblue" points="476.562,-752.173 477.33,-741.606 470.14,-749.388 476.562,-752.173"/>
</g>
<!-- Node31&#45;&gt;Node4 -->
<g id="edge53" class="edge"><title>Node31&#45;&gt;Node4</title>
<path fill="none" stroke="midnightblue" d="M385.421,-798.433C394.232,-794.368 404.3,-789.336 413,-784 430.459,-773.291 448.827,-759.043 462.066,-748.169"/>
<polygon fill="midnightblue" stroke="midnightblue" points="464.526,-750.675 469.963,-741.582 460.042,-745.299 464.526,-750.675"/>
</g>
</g>
</svg>
