<?xml version="1.0" encoding="UTF-8" standalone="no"?>
<!DOCTYPE svg PUBLIC "-//W3C//DTD SVG 1.1//EN"
 "http://www.w3.org/Graphics/SVG/1.1/DTD/svg11.dtd">
<!-- Generated by graphviz version 2.38.0 (20140413.2041)
 -->
<!-- Title: getfb.c Pages: 1 -->
<svg width="193pt" height="84pt"
 viewBox="0.00 0.00 193.00 84.00" xmlns="http://www.w3.org/2000/svg" xmlns:xlink="http://www.w3.org/1999/xlink">
<g id="graph0" class="graph" transform="scale(1 1) rotate(0) translate(4 80)">
<title>getfb.c</title>
<polygon fill="white" stroke="none" points="-4,4 -4,-80 189,-80 189,4 -4,4"/>
<!-- Node1 -->
<g id="node1" class="node"><title>Node1</title>
<polygon fill="#bfbfbf" stroke="black" points="74,-56.5 74,-75.5 121,-75.5 121,-56.5 74,-56.5"/>
<text text-anchor="middle" x="97.5" y="-63.5" font-family="Helvetica,sans-Serif" font-size="10.00">getfb.c</text>
</g>
<!-- Node2 -->
<g id="node2" class="node"><title>Node2</title>
<polygon fill="white" stroke="#bfbfbf" points="0,-0.5 0,-19.5 47,-19.5 47,-0.5 0,-0.5"/>
<text text-anchor="middle" x="23.5" y="-7.5" font-family="Helvetica,sans-Serif" font-size="10.00">stdio.h</text>
</g>
<!-- Node1&#45;&gt;Node2 -->
<g id="edge1" class="edge"><title>Node1&#45;&gt;Node2</title>
<path fill="none" stroke="midnightblue" d="M85.6106,-56.324C74.3498,-48.1066 57.2134,-35.6017 43.7909,-25.8069"/>
<polygon fill="midnightblue" stroke="midnightblue" points="45.7468,-22.9014 35.6057,-19.8339 41.6205,-28.5559 45.7468,-22.9014"/>
</g>
<!-- Node3 -->
<g id="node3" class="node"><title>Node3</title>
<polygon fill="white" stroke="#bfbfbf" points="65,-0.5 65,-19.5 130,-19.5 130,-0.5 65,-0.5"/>
<text text-anchor="middle" x="97.5" y="-7.5" font-family="Helvetica,sans-Serif" font-size="10.00">brlcad/fb.h</text>
</g>
<!-- Node1&#45;&gt;Node3 -->
<g id="edge2" class="edge"><title>Node1&#45;&gt;Node3</title>
<path fill="none" stroke="midnightblue" d="M97.5,-56.083C97.5,-49.0059 97.5,-38.8611 97.5,-29.9865"/>
<polygon fill="midnightblue" stroke="midnightblue" points="101,-29.751 97.5,-19.7511 94.0001,-29.7511 101,-29.751"/>
</g>
<!-- Node4 -->
<g id="node4" class="node"><title>Node4</title>
<polygon fill="white" stroke="#bfbfbf" points="148,-0.5 148,-19.5 185,-19.5 185,-0.5 148,-0.5"/>
<text text-anchor="middle" x="166.5" y="-7.5" font-family="Helvetica,sans-Serif" font-size="10.00">rle.h</text>
</g>
<!-- Node1&#45;&gt;Node4 -->
<g id="edge3" class="edge"><title>Node1&#45;&gt;Node4</title>
<path fill="none" stroke="midnightblue" d="M108.586,-56.324C118.986,-48.1849 134.761,-35.8395 147.222,-26.0874"/>
<polygon fill="midnightblue" stroke="midnightblue" points="149.494,-28.7533 155.212,-19.8339 145.18,-23.2407 149.494,-28.7533"/>
</g>
</g>
</svg>
