<?xml version="1.0" encoding="UTF-8" standalone="no"?>
<!DOCTYPE svg PUBLIC "-//W3C//DTD SVG 1.1//EN"
 "http://www.w3.org/Graphics/SVG/1.1/DTD/svg11.dtd">
<!-- Generated by graphviz version 2.38.0 (20140413.2041)
 -->
<!-- Title: main Pages: 1 -->
<svg width="658pt" height="398pt"
 viewBox="0.00 0.00 658.00 398.00" xmlns="http://www.w3.org/2000/svg" xmlns:xlink="http://www.w3.org/1999/xlink">
<g id="graph0" class="graph" transform="scale(1 1) rotate(0) translate(4 394)">
<title>main</title>
<polygon fill="white" stroke="none" points="-4,4 -4,-394 654,-394 654,4 -4,4"/>
<!-- Node1 -->
<g id="node1" class="node"><title>Node1</title>
<polygon fill="#bfbfbf" stroke="black" points="0,-228.5 0,-247.5 39,-247.5 39,-228.5 0,-228.5"/>
<text text-anchor="middle" x="19.5" y="-235.5" font-family="Helvetica,sans-Serif" font-size="10.00">main</text>
</g>
<!-- Node2 -->
<g id="node2" class="node"><title>Node2</title>
<g id="a_node2"><a xlink:href="../../d4/db0/scanargs_8c.html#a7ea6d702c0484056c8504d6ce7fede08" target="_top" xlink:title="scanargs">
<polygon fill="white" stroke="black" points="94,-370.5 94,-389.5 154,-389.5 154,-370.5 94,-370.5"/>
<text text-anchor="middle" x="124" y="-377.5" font-family="Helvetica,sans-Serif" font-size="10.00">scanargs</text>
</a>
</g>
</g>
<!-- Node1&#45;&gt;Node2 -->
<g id="edge1" class="edge"><title>Node1&#45;&gt;Node2</title>
<path fill="none" stroke="midnightblue" d="M22.6731,-247.818C27.992,-269.802 43.5854,-323.597 75,-356 78.4656,-359.575 82.5758,-362.703 86.9106,-365.415"/>
<polygon fill="midnightblue" stroke="midnightblue" points="85.5401,-368.655 95.989,-370.407 88.9133,-362.522 85.5401,-368.655"/>
</g>
<!-- Node4 -->
<g id="node4" class="node"><title>Node4</title>
<g id="a_node4"><a xlink:href="../../d2/df3/rle__hdr_8c.html#a8ba0e5b11d1e39ab7227f1686e676c86" target="_top" xlink:title="rle_hdr_init">
<polygon fill="white" stroke="black" points="216,-247.5 216,-266.5 286,-266.5 286,-247.5 216,-247.5"/>
<text text-anchor="middle" x="251" y="-254.5" font-family="Helvetica,sans-Serif" font-size="10.00">rle_hdr_init</text>
</a>
</g>
</g>
<!-- Node1&#45;&gt;Node4 -->
<g id="edge3" class="edge"><title>Node1&#45;&gt;Node4</title>
<path fill="none" stroke="midnightblue" d="M39.2809,-239.555C75.3609,-242.542 155.246,-249.155 205.633,-253.327"/>
<polygon fill="midnightblue" stroke="midnightblue" points="205.656,-256.841 215.911,-254.178 206.234,-249.865 205.656,-256.841"/>
</g>
<!-- Node9 -->
<g id="node9" class="node"><title>Node9</title>
<g id="a_node9"><a xlink:href="../../d2/df3/rle__hdr_8c.html#a82e79385f2d45cc3b80ce0f4f369eae5" target="_top" xlink:title="rle_names">
<polygon fill="white" stroke="black" points="464,-256.5 464,-275.5 530,-275.5 530,-256.5 464,-256.5"/>
<text text-anchor="middle" x="497" y="-263.5" font-family="Helvetica,sans-Serif" font-size="10.00">rle_names</text>
</a>
</g>
</g>
<!-- Node1&#45;&gt;Node9 -->
<g id="edge12" class="edge"><title>Node1&#45;&gt;Node9</title>
<path fill="none" stroke="midnightblue" d="M39.2521,-247.006C49.5751,-251.594 62.7448,-256.854 75,-260 219.615,-297.119 261.579,-301.2 410,-285 424.433,-283.425 439.991,-280.404 453.853,-277.227"/>
<polygon fill="midnightblue" stroke="midnightblue" points="454.69,-280.626 463.607,-274.904 453.069,-273.816 454.69,-280.626"/>
</g>
<!-- Node10 -->
<g id="node10" class="node"><title>Node10</title>
<g id="a_node10"><a xlink:href="../../d8/d30/cmd__name_8c.html#a271249070fdd12c176777c77d76f888f" target="_top" xlink:title="cmd_name">
<polygon fill="white" stroke="black" points="90,-57.5 90,-76.5 158,-76.5 158,-57.5 90,-57.5"/>
<text text-anchor="middle" x="124" y="-64.5" font-family="Helvetica,sans-Serif" font-size="10.00">cmd_name</text>
</a>
</g>
</g>
<!-- Node1&#45;&gt;Node10 -->
<g id="edge13" class="edge"><title>Node1&#45;&gt;Node10</title>
<path fill="none" stroke="midnightblue" d="M21.6406,-228.145C25.0863,-202.491 37.5631,-132.741 75,-91 78.2504,-87.376 82.1735,-84.2315 86.3593,-81.5218"/>
<polygon fill="midnightblue" stroke="midnightblue" points="88.1885,-84.5087 95.1889,-76.556 84.7571,-78.4074 88.1885,-84.5087"/>
</g>
<!-- Node11 -->
<g id="node11" class="node"><title>Node11</title>
<g id="a_node11"><a xlink:href="../../de/d4e/rle__open__f_8c.html#a89733a45961817885603ae01210290b7" target="_top" xlink:title="rle_open_f">
<polygon fill="white" stroke="black" points="335.5,-76.5 335.5,-95.5 403.5,-95.5 403.5,-76.5 335.5,-76.5"/>
<text text-anchor="middle" x="369.5" y="-83.5" font-family="Helvetica,sans-Serif" font-size="10.00">rle_open_f</text>
</a>
</g>
</g>
<!-- Node1&#45;&gt;Node11 -->
<g id="edge14" class="edge"><title>Node1&#45;&gt;Node11</title>
<path fill="none" stroke="midnightblue" d="M32.5675,-228.461C43.3013,-220.256 59.6335,-208.442 75,-200 159.918,-153.348 267.943,-116.648 326.371,-98.4831"/>
<polygon fill="midnightblue" stroke="midnightblue" points="327.472,-101.806 335.999,-95.5182 325.412,-95.1163 327.472,-101.806"/>
</g>
<!-- Node14 -->
<g id="node14" class="node"><title>Node14</title>
<g id="a_node14"><a xlink:href="../../db/d53/rle__getrow_8c.html#a2d56ca99b896abbcb4d2f3f97c93a3ce" target="_top" xlink:title="rle_get_setup_ok">
<polygon fill="white" stroke="black" points="75,-209.5 75,-228.5 173,-228.5 173,-209.5 75,-209.5"/>
<text text-anchor="middle" x="124" y="-216.5" font-family="Helvetica,sans-Serif" font-size="10.00">rle_get_setup_ok</text>
</a>
</g>
</g>
<!-- Node1&#45;&gt;Node14 -->
<g id="edge19" class="edge"><title>Node1&#45;&gt;Node14</title>
<path fill="none" stroke="midnightblue" d="M39.3001,-234.515C46.6852,-233.146 55.5974,-231.494 64.8145,-229.786"/>
<polygon fill="midnightblue" stroke="midnightblue" points="65.6833,-233.184 74.8779,-227.92 64.4074,-226.302 65.6833,-233.184"/>
</g>
<!-- Node18 -->
<g id="node18" class="node"><title>Node18</title>
<g id="a_node18"><a xlink:href="../../da/dbc/rle__row__alc_8c.html#abf83029f1ab364a8cb72524f58d70a3b" target="_top" xlink:title="rle_row_alloc">
<polygon fill="white" stroke="black" points="457,-332.5 457,-351.5 537,-351.5 537,-332.5 457,-332.5"/>
<text text-anchor="middle" x="497" y="-339.5" font-family="Helvetica,sans-Serif" font-size="10.00">rle_row_alloc</text>
</a>
</g>
</g>
<!-- Node1&#45;&gt;Node18 -->
<g id="edge29" class="edge"><title>Node1&#45;&gt;Node18</title>
<path fill="none" stroke="midnightblue" d="M28.6285,-247.742C38.411,-258.744 55.9196,-276.252 75,-285 199.48,-342.074 364.843,-346.343 446.313,-344.381"/>
<polygon fill="midnightblue" stroke="midnightblue" points="446.871,-347.867 456.767,-344.083 446.672,-340.87 446.871,-347.867"/>
</g>
<!-- Node19 -->
<g id="node19" class="node"><title>Node19</title>
<g id="a_node19"><a xlink:href="../../db/d53/rle__getrow_8c.html#a3602e1158189cba5e5b0f9b983cba776" target="_top" xlink:title="rle_getrow">
<polygon fill="white" stroke="black" points="90.5,-19.5 90.5,-38.5 157.5,-38.5 157.5,-19.5 90.5,-19.5"/>
<text text-anchor="middle" x="124" y="-26.5" font-family="Helvetica,sans-Serif" font-size="10.00">rle_getrow</text>
</a>
</g>
</g>
<!-- Node1&#45;&gt;Node19 -->
<g id="edge32" class="edge"><title>Node1&#45;&gt;Node19</title>
<path fill="none" stroke="midnightblue" d="M20.4402,-228.302C20.7753,-197.721 25.8968,-102.144 75,-48 76.9756,-45.8216 79.2333,-43.8895 81.6684,-42.1763"/>
<polygon fill="midnightblue" stroke="midnightblue" points="83.5234,-45.1477 90.4785,-37.1554 80.0573,-39.066 83.5234,-45.1477"/>
</g>
<!-- Node3 -->
<g id="node3" class="node"><title>Node3</title>
<g id="a_node3"><a xlink:href="../../d4/db0/scanargs_8c.html#a862219039664df6eb3cfced58addf830" target="_top" xlink:title="_do_scanargs">
<polygon fill="white" stroke="black" points="209,-370.5 209,-389.5 293,-389.5 293,-370.5 209,-370.5"/>
<text text-anchor="middle" x="251" y="-377.5" font-family="Helvetica,sans-Serif" font-size="10.00">_do_scanargs</text>
</a>
</g>
</g>
<!-- Node2&#45;&gt;Node3 -->
<g id="edge2" class="edge"><title>Node2&#45;&gt;Node3</title>
<path fill="none" stroke="midnightblue" d="M154.307,-380C167.44,-380 183.328,-380 198.353,-380"/>
<polygon fill="midnightblue" stroke="midnightblue" points="198.572,-383.5 208.572,-380 198.572,-376.5 198.572,-383.5"/>
</g>
<!-- Node5 -->
<g id="node5" class="node"><title>Node5</title>
<g id="a_node5"><a xlink:href="../../d2/df3/rle__hdr_8c.html#a16c4da6201b3b8cf55127b9ca968d253" target="_top" xlink:title="rle_hdr_clear">
<polygon fill="white" stroke="black" points="457,-218.5 457,-237.5 537,-237.5 537,-218.5 457,-218.5"/>
<text text-anchor="middle" x="497" y="-225.5" font-family="Helvetica,sans-Serif" font-size="10.00">rle_hdr_clear</text>
</a>
</g>
</g>
<!-- Node4&#45;&gt;Node5 -->
<g id="edge4" class="edge"><title>Node4&#45;&gt;Node5</title>
<path fill="none" stroke="midnightblue" d="M286.1,-252.453C299.471,-250.701 314.95,-248.712 329,-247 368.467,-242.192 413.23,-237.12 446.471,-233.427"/>
<polygon fill="midnightblue" stroke="midnightblue" points="447.284,-236.858 456.838,-232.278 446.513,-229.901 447.284,-236.858"/>
</g>
<!-- Node7 -->
<g id="node7" class="node"><title>Node7</title>
<g id="a_node7"><a xlink:href="../../d2/df3/rle__hdr_8c.html#afc916e29aea8788e0878ca315ff69821" target="_top" xlink:title="rle_hdr_cp">
<polygon fill="white" stroke="black" points="335.5,-256.5 335.5,-275.5 403.5,-275.5 403.5,-256.5 335.5,-256.5"/>
<text text-anchor="middle" x="369.5" y="-263.5" font-family="Helvetica,sans-Serif" font-size="10.00">rle_hdr_cp</text>
</a>
</g>
</g>
<!-- Node4&#45;&gt;Node7 -->
<g id="edge6" class="edge"><title>Node4&#45;&gt;Node7</title>
<path fill="none" stroke="midnightblue" d="M286.01,-253.426C298.305,-253.786 312.353,-254.757 325.329,-256.12"/>
<polygon fill="midnightblue" stroke="midnightblue" points="325.115,-259.619 335.452,-257.293 325.921,-252.665 325.115,-259.619"/>
</g>
<!-- Node6 -->
<g id="node6" class="node"><title>Node6</title>
<g id="a_node6"><a xlink:href="../../d0/dcc/rletorla_8c.html#aafde19f7d36ca163a143579c1b125b6d" target="_top" xlink:title="free">
<polygon fill="white" stroke="black" points="599.5,-218.5 599.5,-237.5 634.5,-237.5 634.5,-218.5 599.5,-218.5"/>
<text text-anchor="middle" x="617" y="-225.5" font-family="Helvetica,sans-Serif" font-size="10.00">free</text>
</a>
</g>
</g>
<!-- Node5&#45;&gt;Node6 -->
<g id="edge5" class="edge"><title>Node5&#45;&gt;Node6</title>
<path fill="none" stroke="midnightblue" d="M537.292,-228C554.232,-228 573.621,-228 588.916,-228"/>
<polygon fill="midnightblue" stroke="midnightblue" points="589.236,-231.5 599.236,-228 589.236,-224.5 589.236,-231.5"/>
</g>
<!-- Node7&#45;&gt;Node4 -->
<g id="edge7" class="edge"><title>Node7&#45;&gt;Node4</title>
<path fill="none" stroke="midnightblue" d="M335.452,-269.601C323.251,-269.273 309.222,-268.328 296.192,-266.986"/>
<polygon fill="midnightblue" stroke="midnightblue" points="296.341,-263.481 286.01,-265.828 295.55,-270.436 296.341,-263.481"/>
</g>
<!-- Node8 -->
<g id="node8" class="node"><title>Node8</title>
<g id="a_node8"><a xlink:href="../../d0/dcc/rletorla_8c.html#ab7e36af3707843f77cc5b4e831c2fa6d" target="_top" xlink:title="malloc">
<polygon fill="white" stroke="black" points="593.5,-256.5 593.5,-275.5 640.5,-275.5 640.5,-256.5 593.5,-256.5"/>
<text text-anchor="middle" x="617" y="-263.5" font-family="Helvetica,sans-Serif" font-size="10.00">malloc</text>
</a>
</g>
</g>
<!-- Node7&#45;&gt;Node8 -->
<g id="edge8" class="edge"><title>Node7&#45;&gt;Node8</title>
<path fill="none" stroke="midnightblue" d="M401.031,-275.505C414.647,-279.269 430.977,-283.139 446,-285 490.989,-290.574 503.087,-291.157 548,-285 559.808,-283.381 572.456,-280.251 583.603,-276.991"/>
<polygon fill="midnightblue" stroke="midnightblue" points="584.817,-280.28 593.35,-274.001 582.764,-273.588 584.817,-280.28"/>
</g>
<!-- Node7&#45;&gt;Node9 -->
<g id="edge9" class="edge"><title>Node7&#45;&gt;Node9</title>
<path fill="none" stroke="midnightblue" d="M403.802,-266C419.052,-266 437.302,-266 453.526,-266"/>
<polygon fill="midnightblue" stroke="midnightblue" points="453.844,-269.5 463.844,-266 453.844,-262.5 453.844,-269.5"/>
</g>
<!-- Node9&#45;&gt;Node6 -->
<g id="edge10" class="edge"><title>Node9&#45;&gt;Node6</title>
<path fill="none" stroke="midnightblue" d="M527.776,-256.411C546.813,-250.28 571.281,-242.401 589.618,-236.496"/>
<polygon fill="midnightblue" stroke="midnightblue" points="590.914,-239.756 599.359,-233.359 588.768,-233.093 590.914,-239.756"/>
</g>
<!-- Node9&#45;&gt;Node8 -->
<g id="edge11" class="edge"><title>Node9&#45;&gt;Node8</title>
<path fill="none" stroke="midnightblue" d="M530.244,-266C546.589,-266 566.41,-266 582.877,-266"/>
<polygon fill="midnightblue" stroke="midnightblue" points="583.144,-269.5 593.144,-266 583.143,-262.5 583.144,-269.5"/>
</g>
<!-- Node12 -->
<g id="node12" class="node"><title>Node12</title>
<g id="a_node12"><a xlink:href="../../de/d4e/rle__open__f_8c.html#a5a0e62a00f907fce26e93b2f72adb2b0" target="_top" xlink:title="rle_open_f_noexit">
<polygon fill="white" stroke="black" points="446,-66.5 446,-85.5 548,-85.5 548,-66.5 446,-66.5"/>
<text text-anchor="middle" x="497" y="-73.5" font-family="Helvetica,sans-Serif" font-size="10.00">rle_open_f_noexit</text>
</a>
</g>
</g>
<!-- Node11&#45;&gt;Node12 -->
<g id="edge15" class="edge"><title>Node11&#45;&gt;Node12</title>
<path fill="none" stroke="midnightblue" d="M403.802,-83.3464C413.699,-82.5579 424.859,-81.6686 435.909,-80.7881"/>
<polygon fill="midnightblue" stroke="midnightblue" points="436.296,-84.2685 445.986,-79.9852 435.74,-77.2906 436.296,-84.2685"/>
</g>
<!-- Node12&#45;&gt;Node6 -->
<g id="edge18" class="edge"><title>Node12&#45;&gt;Node6</title>
<path fill="none" stroke="midnightblue" d="M533.235,-85.5769C538.569,-88.0621 543.712,-91.1577 548,-95 582.953,-126.321 602.47,-179.827 610.908,-208.497"/>
<polygon fill="midnightblue" stroke="midnightblue" points="607.637,-209.798 613.693,-218.492 614.381,-207.919 607.637,-209.798"/>
</g>
<!-- Node12&#45;&gt;Node8 -->
<g id="edge17" class="edge"><title>Node12&#45;&gt;Node8</title>
<path fill="none" stroke="midnightblue" d="M535.59,-85.5122C540.249,-87.9827 544.571,-91.0908 548,-95 593.783,-147.189 542.888,-191.058 584,-247 584.775,-248.054 585.627,-249.061 586.54,-250.02"/>
<polygon fill="midnightblue" stroke="midnightblue" points="584.481,-252.857 594.439,-256.473 588.909,-247.436 584.481,-252.857"/>
</g>
<!-- Node13 -->
<g id="node13" class="node"><title>Node13</title>
<g id="a_node13"><a xlink:href="../../de/d4e/rle__open__f_8c.html#a84fda810ae9b9bde82a6391d0b264ead" target="_top" xlink:title="my_popen">
<polygon fill="white" stroke="black" points="584,-66.5 584,-85.5 650,-85.5 650,-66.5 584,-66.5"/>
<text text-anchor="middle" x="617" y="-73.5" font-family="Helvetica,sans-Serif" font-size="10.00">my_popen</text>
</a>
</g>
</g>
<!-- Node12&#45;&gt;Node13 -->
<g id="edge16" class="edge"><title>Node12&#45;&gt;Node13</title>
<path fill="none" stroke="midnightblue" d="M548.043,-76C556.523,-76 565.255,-76 573.518,-76"/>
<polygon fill="midnightblue" stroke="midnightblue" points="573.678,-79.5001 583.678,-76 573.678,-72.5001 573.678,-79.5001"/>
</g>
<!-- Node14&#45;&gt;Node4 -->
<g id="edge20" class="edge"><title>Node14&#45;&gt;Node4</title>
<path fill="none" stroke="midnightblue" d="M156.543,-228.589C172.383,-233.404 191.773,-239.299 208.776,-244.468"/>
<polygon fill="midnightblue" stroke="midnightblue" points="207.882,-247.854 218.467,-247.414 209.918,-241.157 207.882,-247.854"/>
</g>
<!-- Node14&#45;&gt;Node9 -->
<g id="edge21" class="edge"><title>Node14&#45;&gt;Node9</title>
<path fill="none" stroke="midnightblue" d="M173.129,-221.967C229.972,-225.877 327.266,-233.845 410,-247 424.46,-249.299 440.136,-252.537 454.094,-255.689"/>
<polygon fill="midnightblue" stroke="midnightblue" points="453.381,-259.116 463.912,-257.955 454.955,-252.296 453.381,-259.116"/>
</g>
<!-- Node15 -->
<g id="node15" class="node"><title>Node15</title>
<g id="a_node15"><a xlink:href="../../d7/d24/rle__error_8c.html#af931d686cf3ca715c9b900527f0961c0" target="_top" xlink:title="rle_get_error">
<polygon fill="white" stroke="black" points="211.5,-171.5 211.5,-190.5 290.5,-190.5 290.5,-171.5 211.5,-171.5"/>
<text text-anchor="middle" x="251" y="-178.5" font-family="Helvetica,sans-Serif" font-size="10.00">rle_get_error</text>
</a>
</g>
</g>
<!-- Node14&#45;&gt;Node15 -->
<g id="edge22" class="edge"><title>Node14&#45;&gt;Node15</title>
<path fill="none" stroke="midnightblue" d="M156.543,-209.411C172.383,-204.596 191.773,-198.701 208.776,-193.532"/>
<polygon fill="midnightblue" stroke="midnightblue" points="209.918,-196.843 218.467,-190.586 207.882,-190.146 209.918,-196.843"/>
</g>
<!-- Node16 -->
<g id="node16" class="node"><title>Node16</title>
<g id="a_node16"><a xlink:href="../../db/d53/rle__getrow_8c.html#a619b27463c26e0a4a3d9648a9869ee52" target="_top" xlink:title="rle_get_setup">
<polygon fill="white" stroke="black" points="329,-142.5 329,-161.5 410,-161.5 410,-142.5 329,-142.5"/>
<text text-anchor="middle" x="369.5" y="-149.5" font-family="Helvetica,sans-Serif" font-size="10.00">rle_get_setup</text>
</a>
</g>
</g>
<!-- Node14&#45;&gt;Node16 -->
<g id="edge23" class="edge"><title>Node14&#45;&gt;Node16</title>
<path fill="none" stroke="midnightblue" d="M135.375,-209.176C150.301,-195.741 179.316,-172.148 209,-162 244.298,-149.933 286.514,-147.783 318.645,-148.461"/>
<polygon fill="midnightblue" stroke="midnightblue" points="318.598,-151.961 328.701,-148.772 318.814,-144.965 318.598,-151.961"/>
</g>
<!-- Node16&#45;&gt;Node5 -->
<g id="edge24" class="edge"><title>Node16&#45;&gt;Node5</title>
<path fill="none" stroke="midnightblue" d="M387.297,-161.626C394.418,-165.855 402.733,-170.991 410,-176 426.689,-187.504 428.765,-193.331 446,-204 451.695,-207.525 457.987,-210.907 464.131,-213.963"/>
<polygon fill="midnightblue" stroke="midnightblue" points="463.025,-217.313 473.557,-218.47 466.045,-210.998 463.025,-217.313"/>
</g>
<!-- Node16&#45;&gt;Node6 -->
<g id="edge27" class="edge"><title>Node16&#45;&gt;Node6</title>
<path fill="none" stroke="midnightblue" d="M410.085,-151.608C447.087,-152.552 503.199,-157.395 548,-176 567.591,-184.136 586.475,-199.365 599.35,-211.248"/>
<polygon fill="midnightblue" stroke="midnightblue" points="597.246,-214.079 606.89,-218.465 602.086,-209.022 597.246,-214.079"/>
</g>
<!-- Node16&#45;&gt;Node8 -->
<g id="edge26" class="edge"><title>Node16&#45;&gt;Node8</title>
<path fill="none" stroke="midnightblue" d="M400.677,-161.587C450.912,-177.56 546.386,-207.985 548,-209 567.691,-221.389 565.824,-232.478 584,-247 585.59,-248.27 587.273,-249.516 589.003,-250.723"/>
<polygon fill="midnightblue" stroke="midnightblue" points="587.511,-253.925 597.817,-256.382 591.293,-248.034 587.511,-253.925"/>
</g>
<!-- Node16&#45;&gt;Node9 -->
<g id="edge25" class="edge"><title>Node16&#45;&gt;Node9</title>
<path fill="none" stroke="midnightblue" d="M390.96,-161.548C397.616,-165.361 404.657,-170.23 410,-176 434.04,-201.959 419.691,-223.344 446,-247 448.635,-249.369 451.595,-251.454 454.725,-253.287"/>
<polygon fill="midnightblue" stroke="midnightblue" points="453.352,-256.512 463.866,-257.812 456.457,-250.239 453.352,-256.512"/>
</g>
<!-- Node17 -->
<g id="node17" class="node"><title>Node17</title>
<g id="a_node17"><a xlink:href="../../db/d53/rle__getrow_8c.html#a0ea68aa2ebeef9d4cade7282553b03d6" target="_top" xlink:title="vax_gshort">
<polygon fill="white" stroke="black" points="462.5,-104.5 462.5,-123.5 531.5,-123.5 531.5,-104.5 462.5,-104.5"/>
<text text-anchor="middle" x="497" y="-111.5" font-family="Helvetica,sans-Serif" font-size="10.00">vax_gshort</text>
</a>
</g>
</g>
<!-- Node16&#45;&gt;Node17 -->
<g id="edge28" class="edge"><title>Node16&#45;&gt;Node17</title>
<path fill="none" stroke="midnightblue" d="M402.169,-142.411C418.073,-137.596 437.54,-131.701 454.611,-126.532"/>
<polygon fill="midnightblue" stroke="midnightblue" points="455.785,-129.834 464.341,-123.586 453.756,-123.134 455.785,-129.834"/>
</g>
<!-- Node18&#45;&gt;Node6 -->
<g id="edge31" class="edge"><title>Node18&#45;&gt;Node6</title>
<path fill="none" stroke="midnightblue" d="M506.408,-332.389C526.304,-309.695 575.26,-254.147 584,-247 586.057,-245.318 588.279,-243.686 590.56,-242.132"/>
<polygon fill="midnightblue" stroke="midnightblue" points="592.808,-244.853 599.423,-236.577 589.091,-238.922 592.808,-244.853"/>
</g>
<!-- Node18&#45;&gt;Node8 -->
<g id="edge30" class="edge"><title>Node18&#45;&gt;Node8</title>
<path fill="none" stroke="midnightblue" d="M520.421,-332.433C529.232,-328.368 539.3,-323.336 548,-318 565.459,-307.291 583.827,-293.043 597.066,-282.169"/>
<polygon fill="midnightblue" stroke="midnightblue" points="599.526,-284.675 604.963,-275.582 595.042,-279.299 599.526,-284.675"/>
</g>
<!-- Node20 -->
<g id="node20" class="node"><title>Node20</title>
<g id="a_node20"><a xlink:href="../../db/d53/rle__getrow_8c.html#a61ac0da96b0dd8bc3cbc98afcd9b5c44" target="_top" xlink:title="bfill">
<polygon fill="white" stroke="black" points="235,-38.5 235,-57.5 267,-57.5 267,-38.5 235,-38.5"/>
<text text-anchor="middle" x="251" y="-45.5" font-family="Helvetica,sans-Serif" font-size="10.00">bfill</text>
</a>
</g>
</g>
<!-- Node19&#45;&gt;Node20 -->
<g id="edge33" class="edge"><title>Node19&#45;&gt;Node20</title>
<path fill="none" stroke="midnightblue" d="M157.516,-33.9424C178.512,-37.1338 205.425,-41.2245 224.798,-44.1693"/>
<polygon fill="midnightblue" stroke="midnightblue" points="224.287,-47.6318 234.7,-45.6744 225.339,-40.7113 224.287,-47.6318"/>
</g>
<!-- Node21 -->
<g id="node21" class="node"><title>Node21</title>
<g id="a_node21"><a xlink:href="../../d8/d7c/rle__getskip_8c.html#af6b1e1dc0867e9340f90668591c7c5b3" target="_top" xlink:title="rle_getskip">
<polygon fill="white" stroke="black" points="217,-0.5 217,-19.5 285,-19.5 285,-0.5 217,-0.5"/>
<text text-anchor="middle" x="251" y="-7.5" font-family="Helvetica,sans-Serif" font-size="10.00">rle_getskip</text>
</a>
</g>
</g>
<!-- Node19&#45;&gt;Node21 -->
<g id="edge34" class="edge"><title>Node19&#45;&gt;Node21</title>
<path fill="none" stroke="midnightblue" d="M157.516,-24.0576C172.47,-21.7846 190.424,-19.0555 206.519,-16.6091"/>
<polygon fill="midnightblue" stroke="midnightblue" points="207.416,-20.013 216.777,-15.0499 206.364,-13.0925 207.416,-20.013"/>
</g>
</g>
</svg>
