<?xml version="1.0" encoding="UTF-8" standalone="no"?>
<!DOCTYPE svg PUBLIC "-//W3C//DTD SVG 1.1//EN"
 "http://www.w3.org/Graphics/SVG/1.1/DTD/svg11.dtd">
<!-- Generated by graphviz version 2.38.0 (20140413.2041)
 -->
<!-- Title: main Pages: 1 -->
<svg width="540pt" height="560pt"
 viewBox="0.00 0.00 540.00 560.00" xmlns="http://www.w3.org/2000/svg" xmlns:xlink="http://www.w3.org/1999/xlink">
<g id="graph0" class="graph" transform="scale(1 1) rotate(0) translate(4 556)">
<title>main</title>
<polygon fill="white" stroke="none" points="-4,4 -4,-556 536,-556 536,4 -4,4"/>
<!-- Node1 -->
<g id="node1" class="node"><title>Node1</title>
<polygon fill="#bfbfbf" stroke="black" points="0,-247.5 0,-266.5 39,-266.5 39,-247.5 0,-247.5"/>
<text text-anchor="middle" x="19.5" y="-254.5" font-family="Helvetica,sans-Serif" font-size="10.00">main</text>
</g>
<!-- Node2 -->
<g id="node2" class="node"><title>Node2</title>
<g id="a_node2"><a xlink:href="../../d4/db0/scanargs_8c.html#a7ea6d702c0484056c8504d6ce7fede08" target="_top" xlink:title="scanargs">
<polygon fill="white" stroke="black" points="93.5,-418.5 93.5,-437.5 153.5,-437.5 153.5,-418.5 93.5,-418.5"/>
<text text-anchor="middle" x="123.5" y="-425.5" font-family="Helvetica,sans-Serif" font-size="10.00">scanargs</text>
</a>
</g>
</g>
<!-- Node1&#45;&gt;Node2 -->
<g id="edge1" class="edge"><title>Node1&#45;&gt;Node2</title>
<path fill="none" stroke="midnightblue" d="M22.6378,-266.527C28.1627,-289.577 44.6478,-349.444 75,-390 81.3871,-398.534 90.122,-406.246 98.3603,-412.458"/>
<polygon fill="midnightblue" stroke="midnightblue" points="96.4706,-415.409 106.646,-418.359 100.531,-409.707 96.4706,-415.409"/>
</g>
<!-- Node4 -->
<g id="node4" class="node"><title>Node4</title>
<g id="a_node4"><a xlink:href="../../dd/dcd/rlatorle_8c.html#afc2931f895bb0a8a7e26c04c4363d167" target="_top" xlink:title="read_rla_header">
<polygon fill="white" stroke="black" points="75.5,-361.5 75.5,-380.5 171.5,-380.5 171.5,-361.5 75.5,-361.5"/>
<text text-anchor="middle" x="123.5" y="-368.5" font-family="Helvetica,sans-Serif" font-size="10.00">read_rla_header</text>
</a>
</g>
</g>
<!-- Node1&#45;&gt;Node4 -->
<g id="edge3" class="edge"><title>Node1&#45;&gt;Node4</title>
<path fill="none" stroke="midnightblue" d="M23.6414,-266.761C30.2127,-285.726 47.1517,-327.809 75,-352 76.9361,-353.682 79.0398,-355.226 81.2486,-356.642"/>
<polygon fill="midnightblue" stroke="midnightblue" points="79.7002,-359.784 90.1568,-361.49 83.0464,-353.636 79.7002,-359.784"/>
</g>
<!-- Node5 -->
<g id="node5" class="node"><title>Node5</title>
<g id="a_node5"><a xlink:href="../../d2/df3/rle__hdr_8c.html#a8ba0e5b11d1e39ab7227f1686e676c86" target="_top" xlink:title="rle_hdr_init">
<polygon fill="white" stroke="black" points="88.5,-209.5 88.5,-228.5 158.5,-228.5 158.5,-209.5 88.5,-209.5"/>
<text text-anchor="middle" x="123.5" y="-216.5" font-family="Helvetica,sans-Serif" font-size="10.00">rle_hdr_init</text>
</a>
</g>
</g>
<!-- Node1&#45;&gt;Node5 -->
<g id="edge4" class="edge"><title>Node1&#45;&gt;Node5</title>
<path fill="none" stroke="midnightblue" d="M39.2084,-250.03C52.6394,-245.026 71.1463,-238.132 87.3046,-232.112"/>
<polygon fill="midnightblue" stroke="midnightblue" points="88.8465,-235.273 96.9955,-228.502 86.4027,-228.713 88.8465,-235.273"/>
</g>
<!-- Node10 -->
<g id="node10" class="node"><title>Node10</title>
<g id="a_node10"><a xlink:href="../../d2/df3/rle__hdr_8c.html#a82e79385f2d45cc3b80ce0f4f369eae5" target="_top" xlink:title="rle_names">
<polygon fill="white" stroke="black" points="346,-228.5 346,-247.5 412,-247.5 412,-228.5 346,-228.5"/>
<text text-anchor="middle" x="379" y="-235.5" font-family="Helvetica,sans-Serif" font-size="10.00">rle_names</text>
</a>
</g>
</g>
<!-- Node1&#45;&gt;Node10 -->
<g id="edge19" class="edge"><title>Node1&#45;&gt;Node10</title>
<path fill="none" stroke="midnightblue" d="M39.2174,-256.005C94.3777,-253.074 257.317,-244.414 335.374,-240.265"/>
<polygon fill="midnightblue" stroke="midnightblue" points="336.004,-243.737 345.804,-239.711 335.633,-236.747 336.004,-243.737"/>
</g>
<!-- Node11 -->
<g id="node11" class="node"><title>Node11</title>
<g id="a_node11"><a xlink:href="../../de/d4e/rle__open__f_8c.html#a89733a45961817885603ae01210290b7" target="_top" xlink:title="rle_open_f">
<polygon fill="white" stroke="black" points="89.5,-323.5 89.5,-342.5 157.5,-342.5 157.5,-323.5 89.5,-323.5"/>
<text text-anchor="middle" x="123.5" y="-330.5" font-family="Helvetica,sans-Serif" font-size="10.00">rle_open_f</text>
</a>
</g>
</g>
<!-- Node1&#45;&gt;Node11 -->
<g id="edge13" class="edge"><title>Node1&#45;&gt;Node11</title>
<path fill="none" stroke="midnightblue" d="M29.0305,-266.716C39.1907,-277.892 57.0536,-296.326 75,-309 79.9315,-312.483 85.4403,-315.751 90.9102,-318.688"/>
<polygon fill="midnightblue" stroke="midnightblue" points="89.4703,-321.882 99.9704,-323.296 92.6438,-315.643 89.4703,-321.882"/>
</g>
<!-- Node14 -->
<g id="node14" class="node"><title>Node14</title>
<g id="a_node14"><a xlink:href="../../d8/d30/cmd__name_8c.html#a271249070fdd12c176777c77d76f888f" target="_top" xlink:title="cmd_name">
<polygon fill="white" stroke="black" points="89.5,-48.5 89.5,-67.5 157.5,-67.5 157.5,-48.5 89.5,-48.5"/>
<text text-anchor="middle" x="123.5" y="-55.5" font-family="Helvetica,sans-Serif" font-size="10.00">cmd_name</text>
</a>
</g>
</g>
<!-- Node1&#45;&gt;Node14 -->
<g id="edge18" class="edge"><title>Node1&#45;&gt;Node14</title>
<path fill="none" stroke="midnightblue" d="M20.6304,-247.397C21.5424,-217.979 28.2161,-128.017 75,-77 76.7334,-75.1098 78.68,-73.4043 80.7697,-71.8659"/>
<polygon fill="midnightblue" stroke="midnightblue" points="82.596,-74.852 89.3909,-66.723 79.0098,-68.8404 82.596,-74.852"/>
</g>
<!-- Node15 -->
<g id="node15" class="node"><title>Node15</title>
<g id="a_node15"><a xlink:href="../../d8/def/rle__addhist_8c.html#a4f9433d6e4e203d0ecea1c7d3837afc3" target="_top" xlink:title="rle_addhist">
<polygon fill="white" stroke="black" points="89,-143.5 89,-162.5 158,-162.5 158,-143.5 89,-143.5"/>
<text text-anchor="middle" x="123.5" y="-150.5" font-family="Helvetica,sans-Serif" font-size="10.00">rle_addhist</text>
</a>
</g>
</g>
<!-- Node1&#45;&gt;Node15 -->
<g id="edge20" class="edge"><title>Node1&#45;&gt;Node15</title>
<path fill="none" stroke="midnightblue" d="M29.6763,-247.239C40.4431,-235.825 58.8754,-216.403 75,-200 84.9384,-189.89 96.2123,-178.722 105.282,-169.81"/>
<polygon fill="midnightblue" stroke="midnightblue" points="107.903,-172.142 112.596,-162.643 103.004,-167.142 107.903,-172.142"/>
</g>
<!-- Node20 -->
<g id="node20" class="node"><title>Node20</title>
<g id="a_node20"><a xlink:href="../../dd/dcd/rlatorle_8c.html#a01b94ac6df1d57a85105d5ebeff06d5e" target="_top" xlink:title="write_rle_header">
<polygon fill="white" stroke="black" points="75,-86.5 75,-105.5 172,-105.5 172,-86.5 75,-86.5"/>
<text text-anchor="middle" x="123.5" y="-93.5" font-family="Helvetica,sans-Serif" font-size="10.00">write_rle_header</text>
</a>
</g>
</g>
<!-- Node1&#45;&gt;Node20 -->
<g id="edge27" class="edge"><title>Node1&#45;&gt;Node20</title>
<path fill="none" stroke="midnightblue" d="M23.0895,-247.229C29.261,-225.261 46.4861,-171.001 75,-134 81.5068,-125.557 90.2669,-117.864 98.4919,-111.642"/>
<polygon fill="midnightblue" stroke="midnightblue" points="100.664,-114.392 106.753,-105.722 96.5857,-108.703 100.664,-114.392"/>
</g>
<!-- Node23 -->
<g id="node23" class="node"><title>Node23</title>
<g id="a_node23"><a xlink:href="../../dd/dcd/rlatorle_8c.html#a59dedbceac7b3b0556882c5e2755cbae" target="_top" xlink:title="write_rle_data">
<polygon fill="white" stroke="black" points="208,-323.5 208,-342.5 292,-342.5 292,-323.5 208,-323.5"/>
<text text-anchor="middle" x="250" y="-330.5" font-family="Helvetica,sans-Serif" font-size="10.00">write_rle_data</text>
</a>
</g>
</g>
<!-- Node1&#45;&gt;Node23 -->
<g id="edge31" class="edge"><title>Node1&#45;&gt;Node23</title>
<path fill="none" stroke="midnightblue" d="M39.1991,-263.219C76.4933,-275.624 160.796,-303.663 210.439,-320.175"/>
<polygon fill="midnightblue" stroke="midnightblue" points="209.586,-323.579 220.18,-323.414 211.795,-316.937 209.586,-323.579"/>
</g>
<!-- Node3 -->
<g id="node3" class="node"><title>Node3</title>
<g id="a_node3"><a xlink:href="../../d4/db0/scanargs_8c.html#a862219039664df6eb3cfced58addf830" target="_top" xlink:title="_do_scanargs">
<polygon fill="white" stroke="black" points="208,-437.5 208,-456.5 292,-456.5 292,-437.5 208,-437.5"/>
<text text-anchor="middle" x="250" y="-444.5" font-family="Helvetica,sans-Serif" font-size="10.00">_do_scanargs</text>
</a>
</g>
</g>
<!-- Node2&#45;&gt;Node3 -->
<g id="edge2" class="edge"><title>Node2&#45;&gt;Node3</title>
<path fill="none" stroke="midnightblue" d="M153.69,-432.455C166.77,-434.451 182.595,-436.866 197.559,-439.15"/>
<polygon fill="midnightblue" stroke="midnightblue" points="197.324,-442.654 207.738,-440.703 198.38,-435.734 197.324,-442.654"/>
</g>
<!-- Node6 -->
<g id="node6" class="node"><title>Node6</title>
<g id="a_node6"><a xlink:href="../../d2/df3/rle__hdr_8c.html#a16c4da6201b3b8cf55127b9ca968d253" target="_top" xlink:title="rle_hdr_clear">
<polygon fill="white" stroke="black" points="210,-361.5 210,-380.5 290,-380.5 290,-361.5 210,-361.5"/>
<text text-anchor="middle" x="250" y="-368.5" font-family="Helvetica,sans-Serif" font-size="10.00">rle_hdr_clear</text>
</a>
</g>
</g>
<!-- Node5&#45;&gt;Node6 -->
<g id="edge5" class="edge"><title>Node5&#45;&gt;Node6</title>
<path fill="none" stroke="midnightblue" d="M128.27,-228.683C138.021,-252.61 166.262,-315.24 208,-352 209.722,-353.517 211.586,-354.935 213.537,-356.257"/>
<polygon fill="midnightblue" stroke="midnightblue" points="212.07,-359.453 222.475,-361.449 215.586,-353.4 212.07,-359.453"/>
</g>
<!-- Node8 -->
<g id="node8" class="node"><title>Node8</title>
<g id="a_node8"><a xlink:href="../../d2/df3/rle__hdr_8c.html#afc916e29aea8788e0878ca315ff69821" target="_top" xlink:title="rle_hdr_cp">
<polygon fill="white" stroke="black" points="216,-209.5 216,-228.5 284,-228.5 284,-209.5 216,-209.5"/>
<text text-anchor="middle" x="250" y="-216.5" font-family="Helvetica,sans-Serif" font-size="10.00">rle_hdr_cp</text>
</a>
</g>
</g>
<!-- Node5&#45;&gt;Node8 -->
<g id="edge7" class="edge"><title>Node5&#45;&gt;Node8</title>
<path fill="none" stroke="midnightblue" d="M158.52,-212.909C173.027,-212.183 190.13,-212.057 205.538,-212.531"/>
<polygon fill="midnightblue" stroke="midnightblue" points="205.746,-216.042 215.882,-212.955 206.033,-209.048 205.746,-216.042"/>
</g>
<!-- Node7 -->
<g id="node7" class="node"><title>Node7</title>
<g id="a_node7"><a xlink:href="../../d0/dcc/rletorla_8c.html#aafde19f7d36ca163a143579c1b125b6d" target="_top" xlink:title="free">
<polygon fill="white" stroke="black" points="481.5,-456.5 481.5,-475.5 516.5,-475.5 516.5,-456.5 481.5,-456.5"/>
<text text-anchor="middle" x="499" y="-463.5" font-family="Helvetica,sans-Serif" font-size="10.00">free</text>
</a>
</g>
</g>
<!-- Node6&#45;&gt;Node7 -->
<g id="edge6" class="edge"><title>Node6&#45;&gt;Node7</title>
<path fill="none" stroke="midnightblue" d="M273.328,-380.672C279.995,-384.393 286.882,-389.176 292,-395 319.08,-425.819 293.798,-457.342 328,-480 371.592,-508.878 435.924,-491.26 471.648,-477.547"/>
<polygon fill="midnightblue" stroke="midnightblue" points="473.371,-480.627 481.344,-473.649 470.76,-474.132 473.371,-480.627"/>
</g>
<!-- Node8&#45;&gt;Node5 -->
<g id="edge8" class="edge"><title>Node8&#45;&gt;Node5</title>
<path fill="none" stroke="midnightblue" d="M215.882,-225.045C201.484,-225.796 184.402,-225.947 168.926,-225.498"/>
<polygon fill="midnightblue" stroke="midnightblue" points="168.649,-221.984 158.52,-225.091 168.376,-228.979 168.649,-221.984"/>
</g>
<!-- Node9 -->
<g id="node9" class="node"><title>Node9</title>
<g id="a_node9"><a xlink:href="../../d0/dcc/rletorla_8c.html#ab7e36af3707843f77cc5b4e831c2fa6d" target="_top" xlink:title="malloc">
<polygon fill="white" stroke="black" points="475.5,-228.5 475.5,-247.5 522.5,-247.5 522.5,-228.5 475.5,-228.5"/>
<text text-anchor="middle" x="499" y="-235.5" font-family="Helvetica,sans-Serif" font-size="10.00">malloc</text>
</a>
</g>
</g>
<!-- Node8&#45;&gt;Node9 -->
<g id="edge9" class="edge"><title>Node8&#45;&gt;Node9</title>
<path fill="none" stroke="midnightblue" d="M284.174,-216.318C320.246,-214.025 379.507,-212.078 430,-219 441.808,-220.619 454.456,-223.749 465.603,-227.009"/>
<polygon fill="midnightblue" stroke="midnightblue" points="464.764,-230.412 475.35,-229.999 466.817,-223.72 464.764,-230.412"/>
</g>
<!-- Node8&#45;&gt;Node10 -->
<g id="edge10" class="edge"><title>Node8&#45;&gt;Node10</title>
<path fill="none" stroke="midnightblue" d="M284.036,-223.942C299.739,-226.292 318.699,-229.128 335.463,-231.636"/>
<polygon fill="midnightblue" stroke="midnightblue" points="335.161,-235.13 345.569,-233.148 336.197,-228.207 335.161,-235.13"/>
</g>
<!-- Node10&#45;&gt;Node7 -->
<g id="edge11" class="edge"><title>Node10&#45;&gt;Node7</title>
<path fill="none" stroke="midnightblue" d="M390.364,-247.66C401.379,-258.373 418.729,-276.587 430,-295 461.17,-345.922 483.068,-413.621 492.622,-446.468"/>
<polygon fill="midnightblue" stroke="midnightblue" points="489.286,-447.533 495.384,-456.197 496.019,-445.621 489.286,-447.533"/>
</g>
<!-- Node10&#45;&gt;Node9 -->
<g id="edge12" class="edge"><title>Node10&#45;&gt;Node9</title>
<path fill="none" stroke="midnightblue" d="M412.244,-238C428.589,-238 448.41,-238 464.877,-238"/>
<polygon fill="midnightblue" stroke="midnightblue" points="465.144,-241.5 475.144,-238 465.143,-234.5 465.144,-241.5"/>
</g>
<!-- Node12 -->
<g id="node12" class="node"><title>Node12</title>
<g id="a_node12"><a xlink:href="../../de/d4e/rle__open__f_8c.html#a5a0e62a00f907fce26e93b2f72adb2b0" target="_top" xlink:title="rle_open_f_noexit">
<polygon fill="white" stroke="black" points="328,-532.5 328,-551.5 430,-551.5 430,-532.5 328,-532.5"/>
<text text-anchor="middle" x="379" y="-539.5" font-family="Helvetica,sans-Serif" font-size="10.00">rle_open_f_noexit</text>
</a>
</g>
</g>
<!-- Node11&#45;&gt;Node12 -->
<g id="edge14" class="edge"><title>Node11&#45;&gt;Node12</title>
<path fill="none" stroke="midnightblue" d="M154.143,-342.557C160.299,-345.163 166.562,-348.308 172,-352 191.247,-365.068 189.047,-376.509 208,-390 241.382,-413.762 262.547,-399.512 292,-428 318.002,-453.15 305.506,-472.669 328,-501 335.512,-510.461 345.543,-519.212 354.648,-526.179"/>
<polygon fill="midnightblue" stroke="midnightblue" points="352.845,-529.196 362.982,-532.277 356.978,-523.547 352.845,-529.196"/>
</g>
<!-- Node12&#45;&gt;Node7 -->
<g id="edge17" class="edge"><title>Node12&#45;&gt;Node7</title>
<path fill="none" stroke="midnightblue" d="M402.421,-532.433C411.232,-528.368 421.3,-523.336 430,-518 447.459,-507.291 465.827,-493.043 479.066,-482.169"/>
<polygon fill="midnightblue" stroke="midnightblue" points="481.526,-484.675 486.963,-475.582 477.042,-479.299 481.526,-484.675"/>
</g>
<!-- Node12&#45;&gt;Node9 -->
<g id="edge16" class="edge"><title>Node12&#45;&gt;Node9</title>
<path fill="none" stroke="midnightblue" d="M386.107,-532.397C396.503,-515.665 417.705,-479.811 430,-447 454.36,-381.99 440.762,-359.675 466,-295 471.297,-281.426 479.33,-267.131 486.022,-256.251"/>
<polygon fill="midnightblue" stroke="midnightblue" points="489.06,-257.995 491.455,-247.674 483.147,-254.249 489.06,-257.995"/>
</g>
<!-- Node13 -->
<g id="node13" class="node"><title>Node13</title>
<g id="a_node13"><a xlink:href="../../de/d4e/rle__open__f_8c.html#a84fda810ae9b9bde82a6391d0b264ead" target="_top" xlink:title="my_popen">
<polygon fill="white" stroke="black" points="466,-532.5 466,-551.5 532,-551.5 532,-532.5 466,-532.5"/>
<text text-anchor="middle" x="499" y="-539.5" font-family="Helvetica,sans-Serif" font-size="10.00">my_popen</text>
</a>
</g>
</g>
<!-- Node12&#45;&gt;Node13 -->
<g id="edge15" class="edge"><title>Node12&#45;&gt;Node13</title>
<path fill="none" stroke="midnightblue" d="M430.043,-542C438.523,-542 447.255,-542 455.518,-542"/>
<polygon fill="midnightblue" stroke="midnightblue" points="455.678,-545.5 465.678,-542 455.678,-538.5 455.678,-545.5"/>
</g>
<!-- Node15&#45;&gt;Node9 -->
<g id="edge23" class="edge"><title>Node15&#45;&gt;Node9</title>
<path fill="none" stroke="midnightblue" d="M158.031,-156.955C214.835,-164.162 333.249,-181.388 430,-210 442.913,-213.819 456.727,-219.243 468.509,-224.303"/>
<polygon fill="midnightblue" stroke="midnightblue" points="467.301,-227.595 477.864,-228.423 470.123,-221.189 467.301,-227.595"/>
</g>
<!-- Node16 -->
<g id="node16" class="node"><title>Node16</title>
<g id="a_node16"><a xlink:href="../../db/db2/rle__getcom_8c.html#a9cefd612c381bf82c9cdf1f3a3b12dd6" target="_top" xlink:title="rle_getcom">
<polygon fill="white" stroke="black" points="215.5,-114.5 215.5,-133.5 284.5,-133.5 284.5,-114.5 215.5,-114.5"/>
<text text-anchor="middle" x="250" y="-121.5" font-family="Helvetica,sans-Serif" font-size="10.00">rle_getcom</text>
</a>
</g>
</g>
<!-- Node15&#45;&gt;Node16 -->
<g id="edge21" class="edge"><title>Node15&#45;&gt;Node16</title>
<path fill="none" stroke="midnightblue" d="M158.191,-145.152C172.724,-141.767 189.907,-137.765 205.394,-134.157"/>
<polygon fill="midnightblue" stroke="midnightblue" points="206.336,-137.532 215.282,-131.854 204.748,-130.714 206.336,-137.532"/>
</g>
<!-- Node18 -->
<g id="node18" class="node"><title>Node18</title>
<g id="a_node18"><a xlink:href="../../df/da5/rle__putcom_8c.html#a6fa8528c32d14763efe2a534e409e321" target="_top" xlink:title="rle_putcom">
<polygon fill="white" stroke="black" points="216,-76.5 216,-95.5 284,-95.5 284,-76.5 216,-76.5"/>
<text text-anchor="middle" x="250" y="-83.5" font-family="Helvetica,sans-Serif" font-size="10.00">rle_putcom</text>
</a>
</g>
</g>
<!-- Node15&#45;&gt;Node18 -->
<g id="edge24" class="edge"><title>Node15&#45;&gt;Node18</title>
<path fill="none" stroke="midnightblue" d="M140.277,-143.376C156.898,-133.37 183.946,-117.457 208,-105 211.331,-103.275 214.848,-101.532 218.365,-99.8369"/>
<polygon fill="midnightblue" stroke="midnightblue" points="219.994,-102.939 227.548,-95.5105 217.01,-96.6062 219.994,-102.939"/>
</g>
<!-- Node17 -->
<g id="node17" class="node"><title>Node17</title>
<g id="a_node17"><a xlink:href="../../db/db2/rle__getcom_8c.html#a7502c8b599724ce86fee5df1311a2337" target="_top" xlink:title="match">
<polygon fill="white" stroke="black" points="356.5,-114.5 356.5,-133.5 401.5,-133.5 401.5,-114.5 356.5,-114.5"/>
<text text-anchor="middle" x="379" y="-121.5" font-family="Helvetica,sans-Serif" font-size="10.00">match</text>
</a>
</g>
</g>
<!-- Node16&#45;&gt;Node17 -->
<g id="edge22" class="edge"><title>Node16&#45;&gt;Node17</title>
<path fill="none" stroke="midnightblue" d="M284.7,-124C303.709,-124 327.325,-124 346.041,-124"/>
<polygon fill="midnightblue" stroke="midnightblue" points="346.148,-127.5 356.148,-124 346.148,-120.5 346.148,-127.5"/>
</g>
<!-- Node18&#45;&gt;Node9 -->
<g id="edge25" class="edge"><title>Node18&#45;&gt;Node9</title>
<path fill="none" stroke="midnightblue" d="M284.229,-80.6912C322.782,-76.3853 386.598,-75.1821 430,-105 469.044,-131.824 486.991,-188.082 494.069,-218.114"/>
<polygon fill="midnightblue" stroke="midnightblue" points="490.722,-219.197 496.27,-228.223 497.562,-217.707 490.722,-219.197"/>
</g>
<!-- Node19 -->
<g id="node19" class="node"><title>Node19</title>
<g id="a_node19"><a xlink:href="../../df/da5/rle__putcom_8c.html#a7502c8b599724ce86fee5df1311a2337" target="_top" xlink:title="match">
<polygon fill="white" stroke="black" points="356.5,-38.5 356.5,-57.5 401.5,-57.5 401.5,-38.5 356.5,-38.5"/>
<text text-anchor="middle" x="379" y="-45.5" font-family="Helvetica,sans-Serif" font-size="10.00">match</text>
</a>
</g>
</g>
<!-- Node18&#45;&gt;Node19 -->
<g id="edge26" class="edge"><title>Node18&#45;&gt;Node19</title>
<path fill="none" stroke="midnightblue" d="M283.047,-76.411C302.481,-70.5962 327.173,-63.2081 346.506,-57.4235"/>
<polygon fill="midnightblue" stroke="midnightblue" points="347.771,-60.6982 356.348,-54.4785 345.765,-53.992 347.771,-60.6982"/>
</g>
<!-- Node20&#45;&gt;Node18 -->
<g id="edge28" class="edge"><title>Node20&#45;&gt;Node18</title>
<path fill="none" stroke="midnightblue" d="M172.279,-92.1623C183.296,-91.2775 194.953,-90.3412 205.763,-89.4728"/>
<polygon fill="midnightblue" stroke="midnightblue" points="206.133,-92.9545 215.82,-88.665 205.572,-85.977 206.133,-92.9545"/>
</g>
<!-- Node21 -->
<g id="node21" class="node"><title>Node21</title>
<g id="a_node21"><a xlink:href="../../d9/d2a/rle__putrow_8c.html#af88a82b331cd6f425d2a2cc1623944c6" target="_top" xlink:title="rle_put_setup">
<polygon fill="white" stroke="black" points="210,-19.5 210,-38.5 290,-38.5 290,-19.5 210,-19.5"/>
<text text-anchor="middle" x="250" y="-26.5" font-family="Helvetica,sans-Serif" font-size="10.00">rle_put_setup</text>
</a>
</g>
</g>
<!-- Node20&#45;&gt;Node21 -->
<g id="edge29" class="edge"><title>Node20&#45;&gt;Node21</title>
<path fill="none" stroke="midnightblue" d="M151.001,-86.361C157.943,-83.5768 165.345,-80.372 172,-77 191.084,-67.3305 211.591,-54.4112 226.64,-44.4116"/>
<polygon fill="midnightblue" stroke="midnightblue" points="228.903,-47.1069 235.243,-38.618 224.993,-41.3008 228.903,-47.1069"/>
</g>
<!-- Node22 -->
<g id="node22" class="node"><title>Node22</title>
<g id="a_node22"><a xlink:href="../../d9/d2a/rle__putrow_8c.html#a46d9789104d5d1f09253a808fdad5346" target="_top" xlink:title="rle_put_init">
<polygon fill="white" stroke="black" points="345,-0.5 345,-19.5 413,-19.5 413,-0.5 345,-0.5"/>
<text text-anchor="middle" x="379" y="-7.5" font-family="Helvetica,sans-Serif" font-size="10.00">rle_put_init</text>
</a>
</g>
</g>
<!-- Node21&#45;&gt;Node22 -->
<g id="edge30" class="edge"><title>Node21&#45;&gt;Node22</title>
<path fill="none" stroke="midnightblue" d="M290.14,-23.1443C304.216,-21.0386 320.173,-18.6512 334.59,-16.4944"/>
<polygon fill="midnightblue" stroke="midnightblue" points="335.395,-19.913 344.767,-14.9719 334.359,-12.9901 335.395,-19.913"/>
</g>
<!-- Node23&#45;&gt;Node7 -->
<g id="edge40" class="edge"><title>Node23&#45;&gt;Node7</title>
<path fill="none" stroke="midnightblue" d="M279.4,-342.599C284.038,-345.111 288.472,-348.21 292,-352 322.762,-385.052 292.328,-419.319 328,-447 369.462,-479.175 434.69,-475.982 471.115,-470.919"/>
<polygon fill="midnightblue" stroke="midnightblue" points="472.088,-474.311 481.436,-469.325 471.019,-467.393 472.088,-474.311"/>
</g>
<!-- Node23&#45;&gt;Node9 -->
<g id="edge32" class="edge"><title>Node23&#45;&gt;Node9</title>
<path fill="none" stroke="midnightblue" d="M268.732,-323.395C284.139,-315.258 307.189,-303.578 328,-295 374.816,-275.702 430.778,-257.914 465.358,-247.509"/>
<polygon fill="midnightblue" stroke="midnightblue" points="466.787,-250.735 475.37,-244.523 464.787,-244.027 466.787,-250.735"/>
</g>
<!-- Node24 -->
<g id="node24" class="node"><title>Node24</title>
<g id="a_node24"><a xlink:href="../../d9/d2a/rle__putrow_8c.html#a018d4b7d6fe20504c07c24b9bd8fc304" target="_top" xlink:title="rle_skiprow">
<polygon fill="white" stroke="black" points="343.5,-380.5 343.5,-399.5 414.5,-399.5 414.5,-380.5 343.5,-380.5"/>
<text text-anchor="middle" x="379" y="-387.5" font-family="Helvetica,sans-Serif" font-size="10.00">rle_skiprow</text>
</a>
</g>
</g>
<!-- Node23&#45;&gt;Node24 -->
<g id="edge33" class="edge"><title>Node23&#45;&gt;Node24</title>
<path fill="none" stroke="midnightblue" d="M272.379,-342.654C278.727,-345.588 285.673,-348.867 292,-352 308.213,-360.028 311.513,-363.551 328,-371 332.371,-372.975 337.014,-374.927 341.641,-376.784"/>
<polygon fill="midnightblue" stroke="midnightblue" points="340.436,-380.071 351.025,-380.441 342.978,-373.549 340.436,-380.071"/>
</g>
<!-- Node25 -->
<g id="node25" class="node"><title>Node25</title>
<g id="a_node25"><a xlink:href="../../dd/dcd/rlatorle_8c.html#a9add0756255c3be0a2a0c20e79843847" target="_top" xlink:title="decode">
<polygon fill="white" stroke="black" points="353,-342.5 353,-361.5 405,-361.5 405,-342.5 353,-342.5"/>
<text text-anchor="middle" x="379" y="-349.5" font-family="Helvetica,sans-Serif" font-size="10.00">decode</text>
</a>
</g>
</g>
<!-- Node23&#45;&gt;Node25 -->
<g id="edge34" class="edge"><title>Node23&#45;&gt;Node25</title>
<path fill="none" stroke="midnightblue" d="M292.233,-339.169C308.475,-341.599 326.943,-344.361 342.57,-346.699"/>
<polygon fill="midnightblue" stroke="midnightblue" points="342.466,-350.223 352.873,-348.241 343.501,-343.3 342.466,-350.223"/>
</g>
<!-- Node26 -->
<g id="node26" class="node"><title>Node26</title>
<g id="a_node26"><a xlink:href="../../d9/d2a/rle__putrow_8c.html#aa26532b01bc4f49b7383765cdc23ea72" target="_top" xlink:title="rle_putrow">
<polygon fill="white" stroke="black" points="346,-304.5 346,-323.5 412,-323.5 412,-304.5 346,-304.5"/>
<text text-anchor="middle" x="379" y="-311.5" font-family="Helvetica,sans-Serif" font-size="10.00">rle_putrow</text>
</a>
</g>
</g>
<!-- Node23&#45;&gt;Node26 -->
<g id="edge35" class="edge"><title>Node23&#45;&gt;Node26</title>
<path fill="none" stroke="midnightblue" d="M292.233,-326.831C306.221,-324.739 321.859,-322.399 335.912,-320.297"/>
<polygon fill="midnightblue" stroke="midnightblue" points="336.447,-323.756 345.819,-318.814 335.411,-316.833 336.447,-323.756"/>
</g>
<!-- Node28 -->
<g id="node28" class="node"><title>Node28</title>
<g id="a_node28"><a xlink:href="../../d9/d2a/rle__putrow_8c.html#af4fab734a5d227ad2ae95840f56fff3b" target="_top" xlink:title="rle_puteof">
<polygon fill="white" stroke="black" points="347,-418.5 347,-437.5 411,-437.5 411,-418.5 347,-418.5"/>
<text text-anchor="middle" x="379" y="-425.5" font-family="Helvetica,sans-Serif" font-size="10.00">rle_puteof</text>
</a>
</g>
</g>
<!-- Node23&#45;&gt;Node28 -->
<g id="edge38" class="edge"><title>Node23&#45;&gt;Node28</title>
<path fill="none" stroke="midnightblue" d="M277.517,-342.56C282.656,-345.139 287.756,-348.272 292,-352 314.512,-371.773 304.802,-390.036 328,-409 330.941,-411.404 334.219,-413.525 337.651,-415.392"/>
<polygon fill="midnightblue" stroke="midnightblue" points="336.429,-418.685 346.969,-419.76 339.4,-412.347 336.429,-418.685"/>
</g>
<!-- Node26&#45;&gt;Node9 -->
<g id="edge36" class="edge"><title>Node26&#45;&gt;Node9</title>
<path fill="none" stroke="midnightblue" d="M402.421,-304.433C411.232,-300.368 421.3,-295.336 430,-290 447.459,-279.291 465.827,-265.043 479.066,-254.169"/>
<polygon fill="midnightblue" stroke="midnightblue" points="481.526,-256.675 486.963,-247.582 477.042,-251.299 481.526,-256.675"/>
</g>
<!-- Node27 -->
<g id="node27" class="node"><title>Node27</title>
<g id="a_node27"><a xlink:href="../../d9/d2a/rle__putrow_8c.html#aaa4133bf4a6cbf287444448497631f26" target="_top" xlink:title="findruns">
<polygon fill="white" stroke="black" points="472,-304.5 472,-323.5 526,-323.5 526,-304.5 472,-304.5"/>
<text text-anchor="middle" x="499" y="-311.5" font-family="Helvetica,sans-Serif" font-size="10.00">findruns</text>
</a>
</g>
</g>
<!-- Node26&#45;&gt;Node27 -->
<g id="edge37" class="edge"><title>Node26&#45;&gt;Node27</title>
<path fill="none" stroke="midnightblue" d="M412.244,-314C427.435,-314 445.629,-314 461.342,-314"/>
<polygon fill="midnightblue" stroke="midnightblue" points="461.757,-317.5 471.757,-314 461.757,-310.5 461.757,-317.5"/>
</g>
<!-- Node28&#45;&gt;Node7 -->
<g id="edge39" class="edge"><title>Node28&#45;&gt;Node7</title>
<path fill="none" stroke="midnightblue" d="M409.776,-437.589C428.813,-443.72 453.281,-451.599 471.618,-457.504"/>
<polygon fill="midnightblue" stroke="midnightblue" points="470.768,-460.907 481.359,-460.641 472.914,-454.244 470.768,-460.907"/>
</g>
</g>
</svg>
