<?xml version="1.0" encoding="UTF-8" standalone="no"?>
<!DOCTYPE svg PUBLIC "-//W3C//DTD SVG 1.1//EN"
 "http://www.w3.org/Graphics/SVG/1.1/DTD/svg11.dtd">
<!-- Generated by graphviz version 2.38.0 (20140413.2041)
 -->
<!-- Title: decode Pages: 1 -->
<svg width="255pt" height="28pt"
 viewBox="0.00 0.00 255.00 28.00" xmlns="http://www.w3.org/2000/svg" xmlns:xlink="http://www.w3.org/1999/xlink">
<g id="graph0" class="graph" transform="scale(1 1) rotate(0) translate(4 24)">
<title>decode</title>
<polygon fill="white" stroke="none" points="-4,4 -4,-24 251,-24 251,4 -4,4"/>
<!-- Node1 -->
<g id="node1" class="node"><title>Node1</title>
<polygon fill="#bfbfbf" stroke="black" points="0,-0.5 0,-19.5 52,-19.5 52,-0.5 0,-0.5"/>
<text text-anchor="middle" x="26" y="-7.5" font-family="Helvetica,sans-Serif" font-size="10.00">decode</text>
</g>
<!-- Node2 -->
<g id="node2" class="node"><title>Node2</title>
<g id="a_node2"><a xlink:href="../../dd/dcd/rlatorle_8c.html#a59dedbceac7b3b0556882c5e2755cbae" target="_top" xlink:title="write_rle_data">
<polygon fill="white" stroke="black" points="88,-0.5 88,-19.5 172,-19.5 172,-0.5 88,-0.5"/>
<text text-anchor="middle" x="130" y="-7.5" font-family="Helvetica,sans-Serif" font-size="10.00">write_rle_data</text>
</a>
</g>
</g>
<!-- Node1&#45;&gt;Node2 -->
<g id="edge1" class="edge"><title>Node1&#45;&gt;Node2</title>
<path fill="none" stroke="midnightblue" d="M62.2492,-10C70.4873,-10 79.3334,-10 87.8044,-10"/>
<polygon fill="midnightblue" stroke="midnightblue" points="62.2135,-6.5001 52.2135,-10 62.2135,-13.5001 62.2135,-6.5001"/>
</g>
<!-- Node3 -->
<g id="node3" class="node"><title>Node3</title>
<g id="a_node3"><a xlink:href="../../dd/dcd/rlatorle_8c.html#a3c04138a5bfe5d72780bb7e82a18e627" target="_top" xlink:title="main">
<polygon fill="white" stroke="black" points="208,-0.5 208,-19.5 247,-19.5 247,-0.5 208,-0.5"/>
<text text-anchor="middle" x="227.5" y="-7.5" font-family="Helvetica,sans-Serif" font-size="10.00">main</text>
</a>
</g>
</g>
<!-- Node2&#45;&gt;Node3 -->
<g id="edge2" class="edge"><title>Node2&#45;&gt;Node3</title>
<path fill="none" stroke="midnightblue" d="M182.241,-10C191.261,-10 200.114,-10 207.504,-10"/>
<polygon fill="midnightblue" stroke="midnightblue" points="182.055,-6.5001 172.055,-10 182.055,-13.5001 182.055,-6.5001"/>
</g>
</g>
</svg>
