<?xml version="1.0" encoding="UTF-8" standalone="no"?>
<!DOCTYPE svg PUBLIC "-//W3C//DTD SVG 1.1//EN"
 "http://www.w3.org/Graphics/SVG/1.1/DTD/svg11.dtd">
<!-- Generated by graphviz version 2.38.0 (20140413.2041)
 -->
<!-- Title: main Pages: 1 -->
<!--zoomable 427 -->
<svg id="main" version="1.1" xmlns="http://www.w3.org/2000/svg" xmlns:xlink="http://www.w3.org/1999/xlink" xml:space="preserve" onload="init(evt)">
<style type="text/css"><![CDATA[
.edge:hover path { stroke: red; }
.edge:hover polygon { stroke: red; fill: red; }
]]></style>
<script type="text/javascript"><![CDATA[
var edges = document.getElementsByTagName('g');
if (edges && edges.length) {
  for (var i=0;i<edges.length;i++) {
    if (edges[i].id.substr(0,4)=='edge') {
      edges[i].setAttribute('class','edge');
    }
  }
}
]]></script>
        <defs>
                <circle id="rim" cx="0" cy="0" r="7"/>
                <circle id="rim2" cx="0" cy="0" r="3.5"/>
                <g id="zoomPlus">
                        <use xlink:href="#rim" fill="#404040">
                                <set attributeName="fill" to="#808080" begin="zoomplus.mouseover" end="zoomplus.mouseout"/>
                        </use>
                        <path d="M-4,0h8M0,-4v8" fill="none" stroke="white" stroke-width="1.5" pointer-events="none"/>
                </g>
                <g id="zoomMin">
                        <use xlink:href="#rim" fill="#404040">
                                <set attributeName="fill" to="#808080" begin="zoomminus.mouseover" end="zoomminus.mouseout"/>
                        </use>
                        <path d="M-4,0h8" fill="none" stroke="white" stroke-width="1.5" pointer-events="none"/>
                </g>
                <g id="dirArrow">
                        <path fill="none" stroke="white" stroke-width="1.5" d="M0,-3.0v7 M-2.5,-0.5L0,-3.0L2.5,-0.5"/>
                </g>
               <g id="resetDef">
                       <use xlink:href="#rim2" fill="#404040">
                               <set attributeName="fill" to="#808080" begin="reset.mouseover" end="reset.mouseout"/>
                       </use>
               </g>
        </defs>

<script type="text/javascript">
var viewWidth = 529;
var viewHeight = 427;
var sectionId = 'dynsection-1';
</script>
<script xlink:href="../../svgpan.js"/>
<svg id="graph" class="graph">
<g id="viewport">
<title>main</title>
<polygon fill="white" stroke="none" points="-4,4 -4,-423 525,-423 525,4 -4,4"/>
<!-- Node1 -->
<g id="node1" class="node"><title>Node1</title>
<polygon fill="#bfbfbf" stroke="black" points="0,-209.5 0,-228.5 39,-228.5 39,-209.5 0,-209.5"/>
<text text-anchor="middle" x="19.5" y="-216.5" font-family="Helvetica,sans-Serif" font-size="10.00">main</text>
</g>
<!-- Node2 -->
<g id="node2" class="node"><title>Node2</title>
<g id="a_node2"><a xlink:href="../../d7/d4e/wasatchrle_8c.html#a30357e872a9a5a168f2004cb22938b01" target="_top" xlink:title="open_with_ext">
<polygon fill="white" stroke="black" points="75,-399.5 75,-418.5 161,-418.5 161,-399.5 75,-399.5"/>
<text text-anchor="middle" x="118" y="-406.5" font-family="Helvetica,sans-Serif" font-size="10.00">open_with_ext</text>
</a>
</g>
</g>
<!-- Node1&#45;&gt;Node2 -->
<g id="edge1" class="edge"><title>Node1&#45;&gt;Node2</title>
<path fill="none" stroke="midnightblue" d="M20.933,-228.845C22.6929,-257.366 31.4986,-341.121 75,-390 76.1705,-391.315 77.4501,-392.545 78.8112,-393.694"/>
<polygon fill="midnightblue" stroke="midnightblue" points="77.0612,-396.735 87.3087,-399.425 80.9757,-390.932 77.0612,-396.735"/>
</g>
<!-- Node3 -->
<g id="node3" class="node"><title>Node3</title>
<g id="a_node3"><a xlink:href="../../d4/db0/scanargs_8c.html#a7ea6d702c0484056c8504d6ce7fede08" target="_top" xlink:title="scanargs">
<polygon fill="white" stroke="black" points="88,-361.5 88,-380.5 148,-380.5 148,-361.5 88,-361.5"/>
<text text-anchor="middle" x="118" y="-368.5" font-family="Helvetica,sans-Serif" font-size="10.00">scanargs</text>
</a>
</g>
</g>
<!-- Node1&#45;&gt;Node3 -->
<g id="edge2" class="edge"><title>Node1&#45;&gt;Node3</title>
<path fill="none" stroke="midnightblue" d="M22.423,-228.818C27.386,-251.927 42.5704,-310.55 75,-347 78.0336,-350.41 81.6719,-353.453 85.5215,-356.133"/>
<polygon fill="midnightblue" stroke="midnightblue" points="83.7796,-359.17 94.1335,-361.417 87.4404,-353.204 83.7796,-359.17"/>
</g>
<!-- Node5 -->
<g id="node5" class="node"><title>Node5</title>
<g id="a_node5"><a xlink:href="../../d2/df3/rle__hdr_8c.html#a8ba0e5b11d1e39ab7227f1686e676c86" target="_top" xlink:title="rle_hdr_init">
<polygon fill="white" stroke="black" points="83,-209.5 83,-228.5 153,-228.5 153,-209.5 83,-209.5"/>
<text text-anchor="middle" x="118" y="-216.5" font-family="Helvetica,sans-Serif" font-size="10.00">rle_hdr_init</text>
</a>
</g>
</g>
<!-- Node1&#45;&gt;Node5 -->
<g id="edge4" class="edge"><title>Node1&#45;&gt;Node5</title>
<path fill="none" stroke="midnightblue" d="M39.1062,-219C48.6796,-219 60.7952,-219 72.6012,-219"/>
<polygon fill="midnightblue" stroke="midnightblue" points="72.825,-222.5 82.8249,-219 72.8249,-215.5 72.825,-222.5"/>
</g>
<!-- Node10 -->
<g id="node10" class="node"><title>Node10</title>
<g id="a_node10"><a xlink:href="../../d2/df3/rle__hdr_8c.html#a82e79385f2d45cc3b80ce0f4f369eae5" target="_top" xlink:title="rle_names">
<polygon fill="white" stroke="black" points="335,-228.5 335,-247.5 401,-247.5 401,-228.5 335,-228.5"/>
<text text-anchor="middle" x="368" y="-235.5" font-family="Helvetica,sans-Serif" font-size="10.00">rle_names</text>
</a>
</g>
</g>
<!-- Node1&#45;&gt;Node10 -->
<g id="edge13" class="edge"><title>Node1&#45;&gt;Node10</title>
<path fill="none" stroke="midnightblue" d="M39.2556,-227.291C49.5796,-231.403 62.7492,-235.926 75,-238 162.756,-252.858 267.487,-247.336 324.631,-242.4"/>
<polygon fill="midnightblue" stroke="midnightblue" points="325.087,-245.873 334.733,-241.49 324.459,-238.901 325.087,-245.873"/>
</g>
<!-- Node11 -->
<g id="node11" class="node"><title>Node11</title>
<g id="a_node11"><a xlink:href="../../d8/d30/cmd__name_8c.html#a271249070fdd12c176777c77d76f888f" target="_top" xlink:title="cmd_name">
<polygon fill="white" stroke="black" points="84,-57.5 84,-76.5 152,-76.5 152,-57.5 84,-57.5"/>
<text text-anchor="middle" x="118" y="-64.5" font-family="Helvetica,sans-Serif" font-size="10.00">cmd_name</text>
</a>
</g>
</g>
<!-- Node1&#45;&gt;Node11 -->
<g id="edge14" class="edge"><title>Node1&#45;&gt;Node11</title>
<path fill="none" stroke="midnightblue" d="M22.423,-209.182C27.386,-186.073 42.5704,-127.45 75,-91 78.0336,-87.5903 81.6719,-84.5467 85.5215,-81.8674"/>
<polygon fill="midnightblue" stroke="midnightblue" points="87.4404,-84.7963 94.1335,-76.5833 83.7796,-78.8299 87.4404,-84.7963"/>
</g>
<!-- Node12 -->
<g id="node12" class="node"><title>Node12</title>
<g id="a_node12"><a xlink:href="../../de/d4e/rle__open__f_8c.html#a89733a45961817885603ae01210290b7" target="_top" xlink:title="rle_open_f">
<polygon fill="white" stroke="black" points="205,-323.5 205,-342.5 273,-342.5 273,-323.5 205,-323.5"/>
<text text-anchor="middle" x="239" y="-330.5" font-family="Helvetica,sans-Serif" font-size="10.00">rle_open_f</text>
</a>
</g>
</g>
<!-- Node1&#45;&gt;Node12 -->
<g id="edge15" class="edge"><title>Node1&#45;&gt;Node12</title>
<path fill="none" stroke="midnightblue" d="M28.4528,-228.647C38.3325,-240.101 56.1957,-259.14 75,-271 112.759,-294.815 161.094,-311.764 195.297,-321.856"/>
<polygon fill="midnightblue" stroke="midnightblue" points="194.411,-325.243 204.989,-324.645 196.347,-318.516 194.411,-325.243"/>
</g>
<!-- Node15 -->
<g id="node15" class="node"><title>Node15</title>
<g id="a_node15"><a xlink:href="../../d8/def/rle__addhist_8c.html#a4f9433d6e4e203d0ecea1c7d3837afc3" target="_top" xlink:title="rle_addhist">
<polygon fill="white" stroke="black" points="204.5,-57.5 204.5,-76.5 273.5,-76.5 273.5,-57.5 204.5,-57.5"/>
<text text-anchor="middle" x="239" y="-64.5" font-family="Helvetica,sans-Serif" font-size="10.00">rle_addhist</text>
</a>
</g>
</g>
<!-- Node1&#45;&gt;Node15 -->
<g id="edge20" class="edge"><title>Node1&#45;&gt;Node15</title>
<path fill="none" stroke="midnightblue" d="M23.4504,-209.424C29.7861,-190.411 46.4788,-147.692 75,-124 93.5202,-108.615 152.969,-90.0971 194.695,-78.4339"/>
<polygon fill="midnightblue" stroke="midnightblue" points="195.651,-81.8012 204.359,-75.7662 193.788,-75.0536 195.651,-81.8012"/>
</g>
<!-- Node20 -->
<g id="node20" class="node"><title>Node20</title>
<g id="a_node20"><a xlink:href="../../d9/d2a/rle__putrow_8c.html#af88a82b331cd6f425d2a2cc1623944c6" target="_top" xlink:title="rle_put_setup">
<polygon fill="white" stroke="black" points="78,-19.5 78,-38.5 158,-38.5 158,-19.5 78,-19.5"/>
<text text-anchor="middle" x="118" y="-26.5" font-family="Helvetica,sans-Serif" font-size="10.00">rle_put_setup</text>
</a>
</g>
</g>
<!-- Node1&#45;&gt;Node20 -->
<g id="edge27" class="edge"><title>Node1&#45;&gt;Node20</title>
<path fill="none" stroke="midnightblue" d="M20.933,-209.155C22.6929,-180.634 31.4986,-96.8792 75,-48 76.1705,-46.6848 77.4501,-45.4553 78.8112,-44.3065"/>
<polygon fill="midnightblue" stroke="midnightblue" points="80.9757,-47.0683 87.3087,-38.5746 77.0612,-41.2651 80.9757,-47.0683"/>
</g>
<!-- Node22 -->
<g id="node22" class="node"><title>Node22</title>
<g id="a_node22"><a xlink:href="../../da/dbc/rle__row__alc_8c.html#abf83029f1ab364a8cb72524f58d70a3b" target="_top" xlink:title="rle_row_alloc">
<polygon fill="white" stroke="black" points="328,-190.5 328,-209.5 408,-209.5 408,-190.5 328,-190.5"/>
<text text-anchor="middle" x="368" y="-197.5" font-family="Helvetica,sans-Serif" font-size="10.00">rle_row_alloc</text>
</a>
</g>
</g>
<!-- Node1&#45;&gt;Node22 -->
<g id="edge29" class="edge"><title>Node1&#45;&gt;Node22</title>
<path fill="none" stroke="midnightblue" d="M39.2556,-210.709C49.5796,-206.597 62.7492,-202.074 75,-200 159.402,-185.709 259.505,-190.271 317.873,-195.033"/>
<polygon fill="midnightblue" stroke="midnightblue" points="317.662,-198.527 327.923,-195.889 318.256,-191.553 317.662,-198.527"/>
</g>
<!-- Node23 -->
<g id="node23" class="node"><title>Node23</title>
<g id="a_node23"><a xlink:href="../../d9/d2a/rle__putrow_8c.html#aa26532b01bc4f49b7383765cdc23ea72" target="_top" xlink:title="rle_putrow">
<polygon fill="white" stroke="black" points="85,-133.5 85,-152.5 151,-152.5 151,-133.5 85,-133.5"/>
<text text-anchor="middle" x="118" y="-140.5" font-family="Helvetica,sans-Serif" font-size="10.00">rle_putrow</text>
</a>
</g>
</g>
<!-- Node1&#45;&gt;Node23 -->
<g id="edge32" class="edge"><title>Node1&#45;&gt;Node23</title>
<path fill="none" stroke="midnightblue" d="M29.1478,-209.445C39.4182,-198.422 57.3846,-180.13 75,-167 79.3494,-163.758 84.1778,-160.624 88.9667,-157.75"/>
<polygon fill="midnightblue" stroke="midnightblue" points="91.0513,-160.59 97.9906,-152.584 87.5733,-154.515 91.0513,-160.59"/>
</g>
<!-- Node25 -->
<g id="node25" class="node"><title>Node25</title>
<g id="a_node25"><a xlink:href="../../d9/d2a/rle__putrow_8c.html#af4fab734a5d227ad2ae95840f56fff3b" target="_top" xlink:title="rle_puteof">
<polygon fill="white" stroke="black" points="207,-361.5 207,-380.5 271,-380.5 271,-361.5 207,-361.5"/>
<text text-anchor="middle" x="239" y="-368.5" font-family="Helvetica,sans-Serif" font-size="10.00">rle_puteof</text>
</a>
</g>
</g>
<!-- Node1&#45;&gt;Node25 -->
<g id="edge35" class="edge"><title>Node1&#45;&gt;Node25</title>
<path fill="none" stroke="midnightblue" d="M24.2841,-228.508C31.6069,-245.792 49.291,-282.55 75,-304 110.709,-333.792 161.475,-351.826 196.831,-361.562"/>
<polygon fill="midnightblue" stroke="midnightblue" points="196.259,-365.031 206.821,-364.206 198.049,-358.264 196.259,-365.031"/>
</g>
<!-- Node4 -->
<g id="node4" class="node"><title>Node4</title>
<g id="a_node4"><a xlink:href="../../d4/db0/scanargs_8c.html#a862219039664df6eb3cfced58addf830" target="_top" xlink:title="_do_scanargs">
<polygon fill="white" stroke="black" points="197,-399.5 197,-418.5 281,-418.5 281,-399.5 197,-399.5"/>
<text text-anchor="middle" x="239" y="-406.5" font-family="Helvetica,sans-Serif" font-size="10.00">_do_scanargs</text>
</a>
</g>
</g>
<!-- Node3&#45;&gt;Node4 -->
<g id="edge3" class="edge"><title>Node3&#45;&gt;Node4</title>
<path fill="none" stroke="midnightblue" d="M148.111,-380.296C163.154,-385.1 181.74,-391.035 198.1,-396.259"/>
<polygon fill="midnightblue" stroke="midnightblue" points="197.356,-399.695 207.947,-399.403 199.486,-393.027 197.356,-399.695"/>
</g>
<!-- Node6 -->
<g id="node6" class="node"><title>Node6</title>
<g id="a_node6"><a xlink:href="../../d2/df3/rle__hdr_8c.html#a16c4da6201b3b8cf55127b9ca968d253" target="_top" xlink:title="rle_hdr_clear">
<polygon fill="white" stroke="black" points="328,-266.5 328,-285.5 408,-285.5 408,-266.5 328,-266.5"/>
<text text-anchor="middle" x="368" y="-273.5" font-family="Helvetica,sans-Serif" font-size="10.00">rle_hdr_clear</text>
</a>
</g>
</g>
<!-- Node5&#45;&gt;Node6 -->
<g id="edge5" class="edge"><title>Node5&#45;&gt;Node6</title>
<path fill="none" stroke="midnightblue" d="M153.138,-227.465C166.768,-230.805 182.613,-234.64 197,-238 237.567,-247.474 283.698,-257.755 317.66,-265.231"/>
<polygon fill="midnightblue" stroke="midnightblue" points="317.271,-268.729 327.789,-267.457 318.774,-261.892 317.271,-268.729"/>
</g>
<!-- Node8 -->
<g id="node8" class="node"><title>Node8</title>
<g id="a_node8"><a xlink:href="../../d2/df3/rle__hdr_8c.html#afc916e29aea8788e0878ca315ff69821" target="_top" xlink:title="rle_hdr_cp">
<polygon fill="white" stroke="black" points="205,-209.5 205,-228.5 273,-228.5 273,-209.5 205,-209.5"/>
<text text-anchor="middle" x="239" y="-216.5" font-family="Helvetica,sans-Serif" font-size="10.00">rle_hdr_cp</text>
</a>
</g>
</g>
<!-- Node5&#45;&gt;Node8 -->
<g id="edge7" class="edge"><title>Node5&#45;&gt;Node8</title>
<path fill="none" stroke="midnightblue" d="M153.101,-212.829C166.017,-212.203 180.899,-212.085 194.56,-212.473"/>
<polygon fill="midnightblue" stroke="midnightblue" points="194.587,-215.977 204.716,-212.87 194.86,-208.982 194.587,-215.977"/>
</g>
<!-- Node7 -->
<g id="node7" class="node"><title>Node7</title>
<g id="a_node7"><a xlink:href="../../d0/dcc/rletorla_8c.html#aafde19f7d36ca163a143579c1b125b6d" target="_top" xlink:title="free">
<polygon fill="white" stroke="black" points="470.5,-266.5 470.5,-285.5 505.5,-285.5 505.5,-266.5 470.5,-266.5"/>
<text text-anchor="middle" x="488" y="-273.5" font-family="Helvetica,sans-Serif" font-size="10.00">free</text>
</a>
</g>
</g>
<!-- Node6&#45;&gt;Node7 -->
<g id="edge6" class="edge"><title>Node6&#45;&gt;Node7</title>
<path fill="none" stroke="midnightblue" d="M408.292,-276C425.232,-276 444.621,-276 459.916,-276"/>
<polygon fill="midnightblue" stroke="midnightblue" points="460.236,-279.5 470.236,-276 460.236,-272.5 460.236,-279.5"/>
</g>
<!-- Node8&#45;&gt;Node5 -->
<g id="edge8" class="edge"><title>Node8&#45;&gt;Node5</title>
<path fill="none" stroke="midnightblue" d="M204.716,-225.13C191.884,-225.778 177.019,-225.918 163.308,-225.551"/>
<polygon fill="midnightblue" stroke="midnightblue" points="163.224,-222.045 153.101,-225.171 162.964,-229.04 163.224,-222.045"/>
</g>
<!-- Node9 -->
<g id="node9" class="node"><title>Node9</title>
<g id="a_node9"><a xlink:href="../../d0/dcc/rletorla_8c.html#ab7e36af3707843f77cc5b4e831c2fa6d" target="_top" xlink:title="malloc">
<polygon fill="white" stroke="black" points="464.5,-152.5 464.5,-171.5 511.5,-171.5 511.5,-152.5 464.5,-152.5"/>
<text text-anchor="middle" x="488" y="-159.5" font-family="Helvetica,sans-Serif" font-size="10.00">malloc</text>
</a>
</g>
</g>
<!-- Node8&#45;&gt;Node9 -->
<g id="edge9" class="edge"><title>Node8&#45;&gt;Node9</title>
<path fill="none" stroke="midnightblue" d="M255.275,-209.467C270.363,-200.543 294.396,-187.619 317,-181 363.363,-167.423 419.447,-163.429 454.177,-162.321"/>
<polygon fill="midnightblue" stroke="midnightblue" points="454.329,-165.819 464.236,-162.063 454.149,-158.821 454.329,-165.819"/>
</g>
<!-- Node8&#45;&gt;Node10 -->
<g id="edge10" class="edge"><title>Node8&#45;&gt;Node10</title>
<path fill="none" stroke="midnightblue" d="M273.036,-223.942C288.739,-226.292 307.699,-229.128 324.463,-231.636"/>
<polygon fill="midnightblue" stroke="midnightblue" points="324.161,-235.13 334.569,-233.148 325.197,-228.207 324.161,-235.13"/>
</g>
<!-- Node10&#45;&gt;Node7 -->
<g id="edge11" class="edge"><title>Node10&#45;&gt;Node7</title>
<path fill="none" stroke="midnightblue" d="M398.776,-247.589C417.813,-253.72 442.281,-261.599 460.618,-267.504"/>
<polygon fill="midnightblue" stroke="midnightblue" points="459.768,-270.907 470.359,-270.641 461.914,-264.244 459.768,-270.907"/>
</g>
<!-- Node10&#45;&gt;Node9 -->
<g id="edge12" class="edge"><title>Node10&#45;&gt;Node9</title>
<path fill="none" stroke="midnightblue" d="M399.104,-228.428C405.851,-225.777 412.832,-222.617 419,-219 438.147,-207.771 457.284,-191.124 470.355,-178.716"/>
<polygon fill="midnightblue" stroke="midnightblue" points="472.921,-181.103 477.656,-171.625 468.044,-176.082 472.921,-181.103"/>
</g>
<!-- Node13 -->
<g id="node13" class="node"><title>Node13</title>
<g id="a_node13"><a xlink:href="../../de/d4e/rle__open__f_8c.html#a5a0e62a00f907fce26e93b2f72adb2b0" target="_top" xlink:title="rle_open_f_noexit">
<polygon fill="white" stroke="black" points="317,-304.5 317,-323.5 419,-323.5 419,-304.5 317,-304.5"/>
<text text-anchor="middle" x="368" y="-311.5" font-family="Helvetica,sans-Serif" font-size="10.00">rle_open_f_noexit</text>
</a>
</g>
</g>
<!-- Node12&#45;&gt;Node13 -->
<g id="edge16" class="edge"><title>Node12&#45;&gt;Node13</title>
<path fill="none" stroke="midnightblue" d="M273.036,-328.058C283.382,-326.51 295.141,-324.751 306.755,-323.013"/>
<polygon fill="midnightblue" stroke="midnightblue" points="307.513,-326.439 316.885,-321.498 306.477,-319.516 307.513,-326.439"/>
</g>
<!-- Node13&#45;&gt;Node7 -->
<g id="edge19" class="edge"><title>Node13&#45;&gt;Node7</title>
<path fill="none" stroke="midnightblue" d="M398.776,-304.411C417.813,-298.28 442.281,-290.401 460.618,-284.496"/>
<polygon fill="midnightblue" stroke="midnightblue" points="461.914,-287.756 470.359,-281.359 459.768,-281.093 461.914,-287.756"/>
</g>
<!-- Node13&#45;&gt;Node9 -->
<g id="edge18" class="edge"><title>Node13&#45;&gt;Node9</title>
<path fill="none" stroke="midnightblue" d="M404.235,-304.423C409.569,-301.938 414.712,-298.842 419,-295 453.953,-263.679 473.47,-210.173 481.908,-181.503"/>
<polygon fill="midnightblue" stroke="midnightblue" points="485.381,-182.081 484.693,-171.508 478.637,-180.202 485.381,-182.081"/>
</g>
<!-- Node14 -->
<g id="node14" class="node"><title>Node14</title>
<g id="a_node14"><a xlink:href="../../de/d4e/rle__open__f_8c.html#a84fda810ae9b9bde82a6391d0b264ead" target="_top" xlink:title="my_popen">
<polygon fill="white" stroke="black" points="455,-304.5 455,-323.5 521,-323.5 521,-304.5 455,-304.5"/>
<text text-anchor="middle" x="488" y="-311.5" font-family="Helvetica,sans-Serif" font-size="10.00">my_popen</text>
</a>
</g>
</g>
<!-- Node13&#45;&gt;Node14 -->
<g id="edge17" class="edge"><title>Node13&#45;&gt;Node14</title>
<path fill="none" stroke="midnightblue" d="M419.043,-314C427.523,-314 436.255,-314 444.518,-314"/>
<polygon fill="midnightblue" stroke="midnightblue" points="444.678,-317.5 454.678,-314 444.678,-310.5 444.678,-317.5"/>
</g>
<!-- Node15&#45;&gt;Node9 -->
<g id="edge23" class="edge"><title>Node15&#45;&gt;Node9</title>
<path fill="none" stroke="midnightblue" d="M273.725,-70.845C310.789,-76.0222 371.385,-87.3331 419,-110 437.933,-119.013 456.652,-133.887 469.642,-145.423"/>
<polygon fill="midnightblue" stroke="midnightblue" points="467.556,-148.258 477.296,-152.427 472.281,-143.094 467.556,-148.258"/>
</g>
<!-- Node16 -->
<g id="node16" class="node"><title>Node16</title>
<g id="a_node16"><a xlink:href="../../db/db2/rle__getcom_8c.html#a9cefd612c381bf82c9cdf1f3a3b12dd6" target="_top" xlink:title="rle_getcom">
<polygon fill="white" stroke="black" points="333.5,-0.5 333.5,-19.5 402.5,-19.5 402.5,-0.5 333.5,-0.5"/>
<text text-anchor="middle" x="368" y="-7.5" font-family="Helvetica,sans-Serif" font-size="10.00">rle_getcom</text>
</a>
</g>
</g>
<!-- Node15&#45;&gt;Node16 -->
<g id="edge21" class="edge"><title>Node15&#45;&gt;Node16</title>
<path fill="none" stroke="midnightblue" d="M261.379,-57.3461C267.727,-54.4118 274.673,-51.1332 281,-48 297.213,-39.9717 300.513,-36.4494 317,-29 321.371,-27.0248 326.014,-25.0732 330.641,-23.2159"/>
<polygon fill="midnightblue" stroke="midnightblue" points="331.978,-26.4515 340.025,-19.5591 329.436,-19.9293 331.978,-26.4515"/>
</g>
<!-- Node18 -->
<g id="node18" class="node"><title>Node18</title>
<g id="a_node18"><a xlink:href="../../df/da5/rle__putcom_8c.html#a6fa8528c32d14763efe2a534e409e321" target="_top" xlink:title="rle_putcom">
<polygon fill="white" stroke="black" points="334,-38.5 334,-57.5 402,-57.5 402,-38.5 334,-38.5"/>
<text text-anchor="middle" x="368" y="-45.5" font-family="Helvetica,sans-Serif" font-size="10.00">rle_putcom</text>
</a>
</g>
</g>
<!-- Node15&#45;&gt;Node18 -->
<g id="edge24" class="edge"><title>Node15&#45;&gt;Node18</title>
<path fill="none" stroke="midnightblue" d="M273.7,-61.9582C288.891,-59.6856 307.024,-56.9727 323.248,-54.5456"/>
<polygon fill="midnightblue" stroke="midnightblue" points="324.211,-57.9406 333.583,-52.9994 323.175,-51.0176 324.211,-57.9406"/>
</g>
<!-- Node17 -->
<g id="node17" class="node"><title>Node17</title>
<g id="a_node17"><a xlink:href="../../db/db2/rle__getcom_8c.html#a7502c8b599724ce86fee5df1311a2337" target="_top" xlink:title="match">
<polygon fill="white" stroke="black" points="465.5,-0.5 465.5,-19.5 510.5,-19.5 510.5,-0.5 465.5,-0.5"/>
<text text-anchor="middle" x="488" y="-7.5" font-family="Helvetica,sans-Serif" font-size="10.00">match</text>
</a>
</g>
</g>
<!-- Node16&#45;&gt;Node17 -->
<g id="edge22" class="edge"><title>Node16&#45;&gt;Node17</title>
<path fill="none" stroke="midnightblue" d="M402.814,-10C419.35,-10 439.136,-10 455.37,-10"/>
<polygon fill="midnightblue" stroke="midnightblue" points="455.456,-13.5001 465.456,-10 455.456,-6.5001 455.456,-13.5001"/>
</g>
<!-- Node18&#45;&gt;Node9 -->
<g id="edge25" class="edge"><title>Node18&#45;&gt;Node9</title>
<path fill="none" stroke="midnightblue" d="M394.795,-57.5476C403.025,-61.3091 411.845,-66.1473 419,-72 444.011,-92.4592 465.03,-123.933 476.812,-143.724"/>
<polygon fill="midnightblue" stroke="midnightblue" points="473.795,-145.498 481.832,-152.401 479.854,-141.993 473.795,-145.498"/>
</g>
<!-- Node19 -->
<g id="node19" class="node"><title>Node19</title>
<g id="a_node19"><a xlink:href="../../df/da5/rle__putcom_8c.html#a7502c8b599724ce86fee5df1311a2337" target="_top" xlink:title="match">
<polygon fill="white" stroke="black" points="465.5,-38.5 465.5,-57.5 510.5,-57.5 510.5,-38.5 465.5,-38.5"/>
<text text-anchor="middle" x="488" y="-45.5" font-family="Helvetica,sans-Serif" font-size="10.00">match</text>
</a>
</g>
</g>
<!-- Node18&#45;&gt;Node19 -->
<g id="edge26" class="edge"><title>Node18&#45;&gt;Node19</title>
<path fill="none" stroke="midnightblue" d="M402.184,-48C418.735,-48 438.664,-48 455.044,-48"/>
<polygon fill="midnightblue" stroke="midnightblue" points="455.224,-51.5001 465.224,-48 455.224,-44.5001 455.224,-51.5001"/>
</g>
<!-- Node21 -->
<g id="node21" class="node"><title>Node21</title>
<g id="a_node21"><a xlink:href="../../d9/d2a/rle__putrow_8c.html#a46d9789104d5d1f09253a808fdad5346" target="_top" xlink:title="rle_put_init">
<polygon fill="white" stroke="black" points="205,-19.5 205,-38.5 273,-38.5 273,-19.5 205,-19.5"/>
<text text-anchor="middle" x="239" y="-26.5" font-family="Helvetica,sans-Serif" font-size="10.00">rle_put_init</text>
</a>
</g>
</g>
<!-- Node20&#45;&gt;Node21 -->
<g id="edge28" class="edge"><title>Node20&#45;&gt;Node21</title>
<path fill="none" stroke="midnightblue" d="M158.295,-29C169.919,-29 182.711,-29 194.58,-29"/>
<polygon fill="midnightblue" stroke="midnightblue" points="194.72,-32.5001 204.72,-29 194.72,-25.5001 194.72,-32.5001"/>
</g>
<!-- Node22&#45;&gt;Node7 -->
<g id="edge31" class="edge"><title>Node22&#45;&gt;Node7</title>
<path fill="none" stroke="midnightblue" d="M399.104,-209.572C405.851,-212.223 412.832,-215.383 419,-219 438.147,-230.229 457.284,-246.876 470.355,-259.284"/>
<polygon fill="midnightblue" stroke="midnightblue" points="468.044,-261.918 477.656,-266.375 472.921,-256.897 468.044,-261.918"/>
</g>
<!-- Node22&#45;&gt;Node9 -->
<g id="edge30" class="edge"><title>Node22&#45;&gt;Node9</title>
<path fill="none" stroke="midnightblue" d="M398.776,-190.411C415.784,-184.934 437.127,-178.061 454.559,-172.447"/>
<polygon fill="midnightblue" stroke="midnightblue" points="455.864,-175.704 464.31,-169.307 453.718,-169.041 455.864,-175.704"/>
</g>
<!-- Node23&#45;&gt;Node9 -->
<g id="edge33" class="edge"><title>Node23&#45;&gt;Node9</title>
<path fill="none" stroke="midnightblue" d="M150.563,-133.494C164.634,-129.73 181.501,-125.86 197,-124 290.584,-112.766 400.925,-137.803 454.519,-152.417"/>
<polygon fill="midnightblue" stroke="midnightblue" points="453.887,-155.874 464.459,-155.187 455.766,-149.131 453.887,-155.874"/>
</g>
<!-- Node24 -->
<g id="node24" class="node"><title>Node24</title>
<g id="a_node24"><a xlink:href="../../d9/d2a/rle__putrow_8c.html#aaa4133bf4a6cbf287444448497631f26" target="_top" xlink:title="findruns">
<polygon fill="white" stroke="black" points="212,-133.5 212,-152.5 266,-152.5 266,-133.5 212,-133.5"/>
<text text-anchor="middle" x="239" y="-140.5" font-family="Helvetica,sans-Serif" font-size="10.00">findruns</text>
</a>
</g>
</g>
<!-- Node23&#45;&gt;Node24 -->
<g id="edge34" class="edge"><title>Node23&#45;&gt;Node24</title>
<path fill="none" stroke="midnightblue" d="M151.203,-143C166.787,-143 185.561,-143 201.656,-143"/>
<polygon fill="midnightblue" stroke="midnightblue" points="201.786,-146.5 211.786,-143 201.786,-139.5 201.786,-146.5"/>
</g>
<!-- Node25&#45;&gt;Node7 -->
<g id="edge36" class="edge"><title>Node25&#45;&gt;Node7</title>
<path fill="none" stroke="midnightblue" d="M271.079,-369.955C308.41,-367.497 371.887,-359.403 419,-333 439.295,-321.627 436.824,-309.522 455,-295 457.076,-293.341 459.311,-291.725 461.6,-290.181"/>
<polygon fill="midnightblue" stroke="midnightblue" points="463.845,-292.906 470.475,-284.642 460.139,-286.967 463.845,-292.906"/>
</g>
</g>
</svg>
        <g id="navigator" transform="translate(0 0)" fill="#404254">
                <rect fill="#f2f5e9" fill-opacity="0.5" stroke="#606060" stroke-width=".5" x="0" y="0" width="60" height="60"/>
                <use id="zoomplus" xlink:href="#zoomPlus" x="17" y="9" onmousedown="handleZoom(evt,'in')"/>
                <use id="zoomminus" xlink:href="#zoomMin" x="42" y="9" onmousedown="handleZoom(evt,'out')"/>
                <use id="reset" xlink:href="#resetDef" x="30" y="36" onmousedown="handleReset()"/>
                <g id="arrowUp" xlink:href="#dirArrow" transform="translate(30 24)" onmousedown="handlePan(0,-1)">
                  <use xlink:href="#rim" fill="#404040">
                        <set attributeName="fill" to="#808080" begin="arrowUp.mouseover" end="arrowUp.mouseout"/>
                  </use>
                  <path fill="none" stroke="white" stroke-width="1.5" d="M0,-3.0v7 M-2.5,-0.5L0,-3.0L2.5,-0.5"/>
                </g>
                <g id="arrowRight" xlink:href="#dirArrow" transform="rotate(90) translate(36 -43)" onmousedown="handlePan(1,0)">
                  <use xlink:href="#rim" fill="#404040">
                        <set attributeName="fill" to="#808080" begin="arrowRight.mouseover" end="arrowRight.mouseout"/>
                  </use>
                  <path fill="none" stroke="white" stroke-width="1.5" d="M0,-3.0v7 M-2.5,-0.5L0,-3.0L2.5,-0.5"/>
                </g>
                <g id="arrowDown" xlink:href="#dirArrow" transform="rotate(180) translate(-30 -48)" onmousedown="handlePan(0,1)">
                  <use xlink:href="#rim" fill="#404040">
                        <set attributeName="fill" to="#808080" begin="arrowDown.mouseover" end="arrowDown.mouseout"/>
                  </use>
                  <path fill="none" stroke="white" stroke-width="1.5" d="M0,-3.0v7 M-2.5,-0.5L0,-3.0L2.5,-0.5"/>
                </g>
                <g id="arrowLeft" xlink:href="#dirArrow" transform="rotate(270) translate(-36 17)" onmousedown="handlePan(-1,0)">
                  <use xlink:href="#rim" fill="#404040">
                        <set attributeName="fill" to="#808080" begin="arrowLeft.mouseover" end="arrowLeft.mouseout"/>
                  </use>
                  <path fill="none" stroke="white" stroke-width="1.5" d="M0,-3.0v7 M-2.5,-0.5L0,-3.0L2.5,-0.5"/>
                </g>
        </g>
        <svg viewBox="0 0 15 15" width="100%" height="30px" preserveAspectRatio="xMaxYMin meet">
         <g id="arrow_out" transform="scale(0.3 0.3)">
          <a xlink:href="wasatchrle_8c_a70db8bd1d499619f7ff9c1ca2ff3c8df_cgraph_org.svg" target="_base">
           <rect id="button" ry="5" rx="5" y="6" x="6" height="38" width="38"
                fill="#f2f5e9" fill-opacity="0.5" stroke="#606060" stroke-width="1.0"/>
           <path id="arrow"
             d="M 11.500037,31.436501 C 11.940474,20.09759 22.043105,11.32322 32.158766,21.979434 L 37.068811,17.246167 C 37.068811,17.246167 37.088388,32 37.088388,32 L 22.160133,31.978069 C 22.160133,31.978069 26.997745,27.140456 26.997745,27.140456 C 18.528582,18.264221 13.291696,25.230495 11.500037,31.436501 z"
             style="fill:#404040;"/>
          </a>
         </g>
        </svg>
</svg>
