<?xml version="1.0" encoding="UTF-8" standalone="no"?>
<!DOCTYPE svg PUBLIC "-//W3C//DTD SVG 1.1//EN"
 "http://www.w3.org/Graphics/SVG/1.1/DTD/svg11.dtd">
<!-- Generated by graphviz version 2.38.0 (20140413.2041)
 -->
<!-- Title: ReadGIF Pages: 1 -->
<svg width="435pt" height="180pt"
 viewBox="0.00 0.00 435.00 180.00" xmlns="http://www.w3.org/2000/svg" xmlns:xlink="http://www.w3.org/1999/xlink">
<g id="graph0" class="graph" transform="scale(1 1) rotate(0) translate(4 176)">
<title>ReadGIF</title>
<polygon fill="white" stroke="none" points="-4,4 -4,-176 431,-176 431,4 -4,4"/>
<!-- Node1 -->
<g id="node1" class="node"><title>Node1</title>
<polygon fill="#bfbfbf" stroke="black" points="0,-57.5 0,-76.5 59,-76.5 59,-57.5 0,-57.5"/>
<text text-anchor="middle" x="29.5" y="-64.5" font-family="Helvetica,sans-Serif" font-size="10.00">ReadGIF</text>
</g>
<!-- Node2 -->
<g id="node2" class="node"><title>Node2</title>
<g id="a_node2"><a xlink:href="../../de/d4e/rle__open__f_8c.html#a89733a45961817885603ae01210290b7" target="_top" xlink:title="rle_open_f">
<polygon fill="white" stroke="black" points="107,-114.5 107,-133.5 175,-133.5 175,-114.5 107,-114.5"/>
<text text-anchor="middle" x="141" y="-121.5" font-family="Helvetica,sans-Serif" font-size="10.00">rle_open_f</text>
</a>
</g>
</g>
<!-- Node1&#45;&gt;Node2 -->
<g id="edge1" class="edge"><title>Node1&#45;&gt;Node2</title>
<path fill="none" stroke="midnightblue" d="M45.5592,-76.6448C58.4324,-84.7004 77.5832,-96.2412 95,-105 98.5632,-106.792 102.336,-108.567 106.121,-110.27"/>
<polygon fill="midnightblue" stroke="midnightblue" points="104.877,-113.546 115.443,-114.327 107.67,-107.127 104.877,-113.546"/>
</g>
<!-- Node7 -->
<g id="node7" class="node"><title>Node7</title>
<g id="a_node7"><a xlink:href="../../d1/dad/giftorle_8c.html#abe5c414ff69e598c89b44b589d6e80b5" target="_top" xlink:title="ReadColorMap">
<polygon fill="white" stroke="black" points="96.5,-76.5 96.5,-95.5 185.5,-95.5 185.5,-76.5 96.5,-76.5"/>
<text text-anchor="middle" x="141" y="-83.5" font-family="Helvetica,sans-Serif" font-size="10.00">ReadColorMap</text>
</a>
</g>
</g>
<!-- Node1&#45;&gt;Node7 -->
<g id="edge6" class="edge"><title>Node1&#45;&gt;Node7</title>
<path fill="none" stroke="midnightblue" d="M59.2698,-71.992C67.5529,-73.4293 76.8686,-75.0457 86.1499,-76.6562"/>
<polygon fill="midnightblue" stroke="midnightblue" points="85.7059,-80.1313 96.1571,-78.3926 86.9027,-73.2344 85.7059,-80.1313"/>
</g>
<!-- Node8 -->
<g id="node8" class="node"><title>Node8</title>
<g id="a_node8"><a xlink:href="../../d1/dad/giftorle_8c.html#a23f94d2cdf0f1411ebce17e2defc438e" target="_top" xlink:title="IgnoreExtention">
<polygon fill="white" stroke="black" points="95,-38.5 95,-57.5 187,-57.5 187,-38.5 95,-38.5"/>
<text text-anchor="middle" x="141" y="-45.5" font-family="Helvetica,sans-Serif" font-size="10.00">IgnoreExtention</text>
</a>
</g>
</g>
<!-- Node1&#45;&gt;Node8 -->
<g id="edge7" class="edge"><title>Node1&#45;&gt;Node8</title>
<path fill="none" stroke="midnightblue" d="M59.2698,-62.008C67.1885,-60.634 76.0511,-59.0962 84.925,-57.5564"/>
<polygon fill="midnightblue" stroke="midnightblue" points="85.6448,-60.9839 94.8992,-55.8257 84.448,-54.0869 85.6448,-60.9839"/>
</g>
<!-- Node9 -->
<g id="node9" class="node"><title>Node9</title>
<g id="a_node9"><a xlink:href="../../d1/dad/giftorle_8c.html#a94109df08a1edad75cec1fb0b967651c" target="_top" xlink:title="ReadRaster">
<polygon fill="white" stroke="black" points="104,-0.5 104,-19.5 178,-19.5 178,-0.5 104,-0.5"/>
<text text-anchor="middle" x="141" y="-7.5" font-family="Helvetica,sans-Serif" font-size="10.00">ReadRaster</text>
</a>
</g>
</g>
<!-- Node1&#45;&gt;Node9 -->
<g id="edge8" class="edge"><title>Node1&#45;&gt;Node9</title>
<path fill="none" stroke="midnightblue" d="M45.5592,-57.3552C58.4324,-49.2996 77.5832,-37.7588 95,-29 98.5632,-27.2081 102.336,-25.4333 106.121,-23.7298"/>
<polygon fill="midnightblue" stroke="midnightblue" points="107.67,-26.8728 115.443,-19.6732 104.877,-20.4543 107.67,-26.8728"/>
</g>
<!-- Node3 -->
<g id="node3" class="node"><title>Node3</title>
<g id="a_node3"><a xlink:href="../../de/d4e/rle__open__f_8c.html#a5a0e62a00f907fce26e93b2f72adb2b0" target="_top" xlink:title="rle_open_f_noexit">
<polygon fill="white" stroke="black" points="223,-114.5 223,-133.5 325,-133.5 325,-114.5 223,-114.5"/>
<text text-anchor="middle" x="274" y="-121.5" font-family="Helvetica,sans-Serif" font-size="10.00">rle_open_f_noexit</text>
</a>
</g>
</g>
<!-- Node2&#45;&gt;Node3 -->
<g id="edge2" class="edge"><title>Node2&#45;&gt;Node3</title>
<path fill="none" stroke="midnightblue" d="M175.057,-124C186.48,-124 199.665,-124 212.584,-124"/>
<polygon fill="midnightblue" stroke="midnightblue" points="212.849,-127.5 222.849,-124 212.849,-120.5 212.849,-127.5"/>
</g>
<!-- Node4 -->
<g id="node4" class="node"><title>Node4</title>
<g id="a_node4"><a xlink:href="../../de/d4e/rle__open__f_8c.html#a84fda810ae9b9bde82a6391d0b264ead" target="_top" xlink:title="my_popen">
<polygon fill="white" stroke="black" points="361,-152.5 361,-171.5 427,-171.5 427,-152.5 361,-152.5"/>
<text text-anchor="middle" x="394" y="-159.5" font-family="Helvetica,sans-Serif" font-size="10.00">my_popen</text>
</a>
</g>
</g>
<!-- Node3&#45;&gt;Node4 -->
<g id="edge3" class="edge"><title>Node3&#45;&gt;Node4</title>
<path fill="none" stroke="midnightblue" d="M304.776,-133.589C319.59,-138.359 337.691,-144.189 353.634,-149.323"/>
<polygon fill="midnightblue" stroke="midnightblue" points="352.642,-152.68 363.233,-152.414 354.787,-146.017 352.642,-152.68"/>
</g>
<!-- Node5 -->
<g id="node5" class="node"><title>Node5</title>
<g id="a_node5"><a xlink:href="../../d0/dcc/rletorla_8c.html#ab7e36af3707843f77cc5b4e831c2fa6d" target="_top" xlink:title="malloc">
<polygon fill="white" stroke="black" points="370.5,-114.5 370.5,-133.5 417.5,-133.5 417.5,-114.5 370.5,-114.5"/>
<text text-anchor="middle" x="394" y="-121.5" font-family="Helvetica,sans-Serif" font-size="10.00">malloc</text>
</a>
</g>
</g>
<!-- Node3&#45;&gt;Node5 -->
<g id="edge4" class="edge"><title>Node3&#45;&gt;Node5</title>
<path fill="none" stroke="midnightblue" d="M325.043,-124C336.915,-124 349.282,-124 360.161,-124"/>
<polygon fill="midnightblue" stroke="midnightblue" points="360.471,-127.5 370.471,-124 360.471,-120.5 360.471,-127.5"/>
</g>
<!-- Node6 -->
<g id="node6" class="node"><title>Node6</title>
<g id="a_node6"><a xlink:href="../../d0/dcc/rletorla_8c.html#aafde19f7d36ca163a143579c1b125b6d" target="_top" xlink:title="free">
<polygon fill="white" stroke="black" points="376.5,-76.5 376.5,-95.5 411.5,-95.5 411.5,-76.5 376.5,-76.5"/>
<text text-anchor="middle" x="394" y="-83.5" font-family="Helvetica,sans-Serif" font-size="10.00">free</text>
</a>
</g>
</g>
<!-- Node3&#45;&gt;Node6 -->
<g id="edge5" class="edge"><title>Node3&#45;&gt;Node6</title>
<path fill="none" stroke="midnightblue" d="M304.776,-114.411C323.813,-108.28 348.281,-100.401 366.618,-94.496"/>
<polygon fill="midnightblue" stroke="midnightblue" points="367.914,-97.7557 376.359,-91.3589 365.768,-91.0927 367.914,-97.7557"/>
</g>
</g>
</svg>
