<?xml version="1.0" encoding="UTF-8" standalone="no"?>
<!DOCTYPE svg PUBLIC "-//W3C//DTD SVG 1.1//EN"
 "http://www.w3.org/Graphics/SVG/1.1/DTD/svg11.dtd">
<!-- Generated by graphviz version 2.38.0 (20140413.2041)
 -->
<!-- Title: update_zoom Pages: 1 -->
<svg width="267pt" height="28pt"
 viewBox="0.00 0.00 267.00 28.00" xmlns="http://www.w3.org/2000/svg" xmlns:xlink="http://www.w3.org/1999/xlink">
<g id="graph0" class="graph" transform="scale(1 1) rotate(0) translate(4 24)">
<title>update_zoom</title>
<polygon fill="white" stroke="none" points="-4,4 -4,-24 263,-24 263,4 -4,4"/>
<!-- Node1 -->
<g id="node1" class="node"><title>Node1</title>
<polygon fill="#bfbfbf" stroke="black" points="0,-0.5 0,-19.5 80,-19.5 80,-0.5 0,-0.5"/>
<text text-anchor="middle" x="40" y="-7.5" font-family="Helvetica,sans-Serif" font-size="10.00">update_zoom</text>
</g>
<!-- Node2 -->
<g id="node2" class="node"><title>Node2</title>
<g id="a_node2"><a xlink:href="../../d1/dea/getx10_8c.html#a1bae96cea0104e711670fd46d1f9c815" target="_top" xlink:title="update_pic">
<polygon fill="white" stroke="black" points="116,-0.5 116,-19.5 184,-19.5 184,-0.5 116,-0.5"/>
<text text-anchor="middle" x="150" y="-7.5" font-family="Helvetica,sans-Serif" font-size="10.00">update_pic</text>
</a>
</g>
</g>
<!-- Node1&#45;&gt;Node2 -->
<g id="edge1" class="edge"><title>Node1&#45;&gt;Node2</title>
<path fill="none" stroke="midnightblue" d="M90.3508,-10C99.0252,-10 107.861,-10 115.953,-10"/>
<polygon fill="midnightblue" stroke="midnightblue" points="90.296,-6.5001 80.296,-10 90.296,-13.5001 90.296,-6.5001"/>
</g>
<!-- Node3 -->
<g id="node3" class="node"><title>Node3</title>
<g id="a_node3"><a xlink:href="../../d1/dea/getx10_8c.html#a2e1c56207484e456874379d624fc0e67" target="_top" xlink:title="main">
<polygon fill="white" stroke="black" points="220,-0.5 220,-19.5 259,-19.5 259,-0.5 220,-0.5"/>
<text text-anchor="middle" x="239.5" y="-7.5" font-family="Helvetica,sans-Serif" font-size="10.00">main</text>
</a>
</g>
</g>
<!-- Node2&#45;&gt;Node3 -->
<g id="edge2" class="edge"><title>Node2&#45;&gt;Node3</title>
<path fill="none" stroke="midnightblue" d="M194.101,-10C203.062,-10 212.059,-10 219.588,-10"/>
<polygon fill="midnightblue" stroke="midnightblue" points="194.08,-6.5001 184.08,-10 194.08,-13.5001 194.08,-6.5001"/>
</g>
</g>
</svg>
