<?xml version="1.0" encoding="UTF-8" standalone="no"?>
<!DOCTYPE svg PUBLIC "-//W3C//DTD SVG 1.1//EN"
 "http://www.w3.org/Graphics/SVG/1.1/DTD/svg11.dtd">
<!-- Generated by graphviz version 2.38.0 (20140413.2041)
 -->
<!-- Title: resize_zoom_window Pages: 1 -->
<svg width="429pt" height="66pt"
 viewBox="0.00 0.00 429.00 66.00" xmlns="http://www.w3.org/2000/svg" xmlns:xlink="http://www.w3.org/1999/xlink">
<g id="graph0" class="graph" transform="scale(1 1) rotate(0) translate(4 62)">
<title>resize_zoom_window</title>
<polygon fill="white" stroke="none" points="-4,4 -4,-62 425,-62 425,4 -4,4"/>
<!-- Node1 -->
<g id="node1" class="node"><title>Node1</title>
<polygon fill="#bfbfbf" stroke="black" points="0,-19.5 0,-38.5 118,-38.5 118,-19.5 0,-19.5"/>
<text text-anchor="middle" x="59" y="-26.5" font-family="Helvetica,sans-Serif" font-size="10.00">resize_zoom_window</text>
</g>
<!-- Node2 -->
<g id="node2" class="node"><title>Node2</title>
<g id="a_node2"><a xlink:href="../../d1/dea/getx10_8c.html#a1bae96cea0104e711670fd46d1f9c815" target="_top" xlink:title="update_pic">
<polygon fill="white" stroke="black" points="278,-38.5 278,-57.5 346,-57.5 346,-38.5 278,-38.5"/>
<text text-anchor="middle" x="312" y="-45.5" font-family="Helvetica,sans-Serif" font-size="10.00">update_pic</text>
</a>
</g>
</g>
<!-- Node1&#45;&gt;Node2 -->
<g id="edge1" class="edge"><title>Node1&#45;&gt;Node2</title>
<path fill="none" stroke="midnightblue" d="M128.331,-34.1724C176.831,-37.8438 239.819,-42.6118 277.734,-45.4819"/>
<polygon fill="midnightblue" stroke="midnightblue" points="128.451,-30.6716 118.215,-33.4067 127.923,-37.6517 128.451,-30.6716"/>
</g>
<!-- Node4 -->
<g id="node4" class="node"><title>Node4</title>
<g id="a_node4"><a xlink:href="../../d1/dea/getx10_8c.html#a6e86a1df60d88b3a98b709c7462cf3e4" target="_top" xlink:title="create_window">
<polygon fill="white" stroke="black" points="154,-0.5 154,-19.5 242,-19.5 242,-0.5 154,-0.5"/>
<text text-anchor="middle" x="198" y="-7.5" font-family="Helvetica,sans-Serif" font-size="10.00">create_window</text>
</a>
</g>
</g>
<!-- Node1&#45;&gt;Node4 -->
<g id="edge3" class="edge"><title>Node1&#45;&gt;Node4</title>
<path fill="none" stroke="midnightblue" d="M128.261,-19.5331C136.947,-18.3285 145.638,-17.1232 153.776,-15.9946"/>
<polygon fill="midnightblue" stroke="midnightblue" points="127.525,-16.1017 118.1,-20.9423 128.486,-23.0353 127.525,-16.1017"/>
</g>
<!-- Node3 -->
<g id="node3" class="node"><title>Node3</title>
<g id="a_node3"><a xlink:href="../../d1/dea/getx10_8c.html#a2e1c56207484e456874379d624fc0e67" target="_top" xlink:title="main">
<polygon fill="white" stroke="black" points="382,-19.5 382,-38.5 421,-38.5 421,-19.5 382,-19.5"/>
<text text-anchor="middle" x="401.5" y="-26.5" font-family="Helvetica,sans-Serif" font-size="10.00">main</text>
</a>
</g>
</g>
<!-- Node2&#45;&gt;Node3 -->
<g id="edge2" class="edge"><title>Node2&#45;&gt;Node3</title>
<path fill="none" stroke="midnightblue" d="M356.101,-38.6409C365.062,-36.6952 374.059,-34.7415 381.588,-33.1066"/>
<polygon fill="midnightblue" stroke="midnightblue" points="355.11,-35.2746 346.08,-40.8169 356.595,-42.1152 355.11,-35.2746"/>
</g>
<!-- Node5 -->
<g id="node5" class="node"><title>Node5</title>
<g id="a_node5"><a xlink:href="../../d1/dea/getx10_8c.html#a867bbe68ed06015d6e2bcaf9c1119f17" target="_top" xlink:title="get_pic">
<polygon fill="white" stroke="black" points="286.5,-0.5 286.5,-19.5 337.5,-19.5 337.5,-0.5 286.5,-0.5"/>
<text text-anchor="middle" x="312" y="-7.5" font-family="Helvetica,sans-Serif" font-size="10.00">get_pic</text>
</a>
</g>
</g>
<!-- Node4&#45;&gt;Node5 -->
<g id="edge4" class="edge"><title>Node4&#45;&gt;Node5</title>
<path fill="none" stroke="midnightblue" d="M252.569,-10C264.355,-10 276.284,-10 286.264,-10"/>
<polygon fill="midnightblue" stroke="midnightblue" points="252.302,-6.5001 242.302,-10 252.302,-13.5001 252.302,-6.5001"/>
</g>
<!-- Node5&#45;&gt;Node3 -->
<g id="edge5" class="edge"><title>Node5&#45;&gt;Node3</title>
<path fill="none" stroke="midnightblue" d="M347.72,-17.5392C359.321,-20.0583 371.808,-22.7697 381.722,-24.9226"/>
<polygon fill="midnightblue" stroke="midnightblue" points="348.355,-14.0956 337.84,-15.3938 346.869,-20.9362 348.355,-14.0956"/>
</g>
</g>
</svg>
