<?xml version="1.0" encoding="UTF-8" standalone="no"?>
<!DOCTYPE svg PUBLIC "-//W3C//DTD SVG 1.1//EN"
 "http://www.w3.org/Graphics/SVG/1.1/DTD/svg11.dtd">
<!-- Generated by graphviz version 2.38.0 (20140413.2041)
 -->
<!-- Title: put_scanline Pages: 1 -->
<svg width="263pt" height="66pt"
 viewBox="0.00 0.00 263.00 66.00" xmlns="http://www.w3.org/2000/svg" xmlns:xlink="http://www.w3.org/1999/xlink">
<g id="graph0" class="graph" transform="scale(1 1) rotate(0) translate(4 62)">
<title>put_scanline</title>
<polygon fill="white" stroke="none" points="-4,4 -4,-62 259,-62 259,4 -4,4"/>
<!-- Node1 -->
<g id="node1" class="node"><title>Node1</title>
<polygon fill="#bfbfbf" stroke="black" points="0,-19.5 0,-38.5 76,-38.5 76,-19.5 0,-19.5"/>
<text text-anchor="middle" x="38" y="-26.5" font-family="Helvetica,sans-Serif" font-size="10.00">put_scanline</text>
</g>
<!-- Node2 -->
<g id="node2" class="node"><title>Node2</title>
<g id="a_node2"><a xlink:href="../../d1/dea/getx10_8c.html#a867bbe68ed06015d6e2bcaf9c1119f17" target="_top" xlink:title="get_pic">
<polygon fill="white" stroke="black" points="120.5,-38.5 120.5,-57.5 171.5,-57.5 171.5,-38.5 120.5,-38.5"/>
<text text-anchor="middle" x="146" y="-45.5" font-family="Helvetica,sans-Serif" font-size="10.00">get_pic</text>
</a>
</g>
</g>
<!-- Node1&#45;&gt;Node2 -->
<g id="edge1" class="edge"><title>Node1&#45;&gt;Node2</title>
<path fill="none" stroke="midnightblue" d="M86.2734,-37.4735C98.0598,-39.5862 110.228,-41.7674 120.411,-43.5925"/>
<polygon fill="midnightblue" stroke="midnightblue" points="86.5343,-33.9646 76.0737,-35.6453 85.2992,-40.8548 86.5343,-33.9646"/>
</g>
<!-- Node4 -->
<g id="node4" class="node"><title>Node4</title>
<g id="a_node4"><a xlink:href="../../d1/dea/getx10_8c.html#a1bae96cea0104e711670fd46d1f9c815" target="_top" xlink:title="update_pic">
<polygon fill="white" stroke="black" points="112,-0.5 112,-19.5 180,-19.5 180,-0.5 112,-0.5"/>
<text text-anchor="middle" x="146" y="-7.5" font-family="Helvetica,sans-Serif" font-size="10.00">update_pic</text>
</a>
</g>
</g>
<!-- Node1&#45;&gt;Node4 -->
<g id="edge3" class="edge"><title>Node1&#45;&gt;Node4</title>
<path fill="none" stroke="midnightblue" d="M86.0557,-20.5655C94.6899,-19.0178 103.537,-17.432 111.665,-15.9751"/>
<polygon fill="midnightblue" stroke="midnightblue" points="85.2992,-17.1452 76.0737,-22.3547 86.5343,-24.0354 85.2992,-17.1452"/>
</g>
<!-- Node3 -->
<g id="node3" class="node"><title>Node3</title>
<g id="a_node3"><a xlink:href="../../d1/dea/getx10_8c.html#a2e1c56207484e456874379d624fc0e67" target="_top" xlink:title="main">
<polygon fill="white" stroke="black" points="216,-19.5 216,-38.5 255,-38.5 255,-19.5 216,-19.5"/>
<text text-anchor="middle" x="235.5" y="-26.5" font-family="Helvetica,sans-Serif" font-size="10.00">main</text>
</a>
</g>
</g>
<!-- Node2&#45;&gt;Node3 -->
<g id="edge2" class="edge"><title>Node2&#45;&gt;Node3</title>
<path fill="none" stroke="midnightblue" d="M181.72,-40.4608C193.321,-37.9417 205.808,-35.2303 215.722,-33.0774"/>
<polygon fill="midnightblue" stroke="midnightblue" points="180.869,-37.0638 171.84,-42.6062 182.355,-43.9044 180.869,-37.0638"/>
</g>
<!-- Node4&#45;&gt;Node3 -->
<g id="edge4" class="edge"><title>Node4&#45;&gt;Node3</title>
<path fill="none" stroke="midnightblue" d="M190.101,-19.3591C199.062,-21.3048 208.059,-23.2585 215.588,-24.8934"/>
<polygon fill="midnightblue" stroke="midnightblue" points="190.595,-15.8848 180.08,-17.1831 189.11,-22.7254 190.595,-15.8848"/>
</g>
</g>
</svg>
