<?xml version="1.0" encoding="UTF-8" standalone="no"?>
<!DOCTYPE svg PUBLIC "-//W3C//DTD SVG 1.1//EN"
 "http://www.w3.org/Graphics/SVG/1.1/DTD/svg11.dtd">
<!-- Generated by graphviz version 2.38.0 (20140413.2041)
 -->
<!-- Title: main Pages: 1 -->
<!--zoomable 788 -->
<svg id="main" version="1.1" xmlns="http://www.w3.org/2000/svg" xmlns:xlink="http://www.w3.org/1999/xlink" xml:space="preserve" onload="init(evt)">
<style type="text/css"><![CDATA[
.edge:hover path { stroke: red; }
.edge:hover polygon { stroke: red; fill: red; }
]]></style>
<script type="text/javascript"><![CDATA[
var edges = document.getElementsByTagName('g');
if (edges && edges.length) {
  for (var i=0;i<edges.length;i++) {
    if (edges[i].id.substr(0,4)=='edge') {
      edges[i].setAttribute('class','edge');
    }
  }
}
]]></script>
        <defs>
                <circle id="rim" cx="0" cy="0" r="7"/>
                <circle id="rim2" cx="0" cy="0" r="3.5"/>
                <g id="zoomPlus">
                        <use xlink:href="#rim" fill="#404040">
                                <set attributeName="fill" to="#808080" begin="zoomplus.mouseover" end="zoomplus.mouseout"/>
                        </use>
                        <path d="M-4,0h8M0,-4v8" fill="none" stroke="white" stroke-width="1.5" pointer-events="none"/>
                </g>
                <g id="zoomMin">
                        <use xlink:href="#rim" fill="#404040">
                                <set attributeName="fill" to="#808080" begin="zoomminus.mouseover" end="zoomminus.mouseout"/>
                        </use>
                        <path d="M-4,0h8" fill="none" stroke="white" stroke-width="1.5" pointer-events="none"/>
                </g>
                <g id="dirArrow">
                        <path fill="none" stroke="white" stroke-width="1.5" d="M0,-3.0v7 M-2.5,-0.5L0,-3.0L2.5,-0.5"/>
                </g>
               <g id="resetDef">
                       <use xlink:href="#rim2" fill="#404040">
                               <set attributeName="fill" to="#808080" begin="reset.mouseover" end="reset.mouseout"/>
                       </use>
               </g>
        </defs>

<script type="text/javascript">
var viewWidth = 796;
var viewHeight = 788;
var sectionId = 'dynsection-9';
</script>
<script xlink:href="../../svgpan.js"/>
<svg id="graph" class="graph">
<g id="viewport">
<title>main</title>
<polygon fill="white" stroke="none" points="-4,4 -4,-784 792,-784 792,4 -4,4"/>
<!-- Node1 -->
<g id="node1" class="node"><title>Node1</title>
<polygon fill="#bfbfbf" stroke="black" points="0,-266.5 0,-285.5 39,-285.5 39,-266.5 0,-266.5"/>
<text text-anchor="middle" x="19.5" y="-273.5" font-family="Helvetica,sans-Serif" font-size="10.00">main</text>
</g>
<!-- Node2 -->
<g id="node2" class="node"><title>Node2</title>
<g id="a_node2"><a xlink:href="../../d4/db0/scanargs_8c.html#a7ea6d702c0484056c8504d6ce7fede08" target="_top" xlink:title="scanargs">
<polygon fill="white" stroke="black" points="79,-712.5 79,-731.5 139,-731.5 139,-712.5 79,-712.5"/>
<text text-anchor="middle" x="109" y="-719.5" font-family="Helvetica,sans-Serif" font-size="10.00">scanargs</text>
</a>
</g>
</g>
<!-- Node1&#45;&gt;Node2 -->
<g id="edge1" class="edge"><title>Node1&#45;&gt;Node2</title>
<path fill="none" stroke="midnightblue" d="M21.1714,-285.64C24.2741,-327.856 38.6517,-500.408 75,-637 81.2029,-660.31 91.713,-685.985 99.2052,-702.951"/>
<polygon fill="midnightblue" stroke="midnightblue" points="96.1147,-704.612 103.415,-712.291 102.496,-701.736 96.1147,-704.612"/>
</g>
<!-- Node4 -->
<g id="node4" class="node"><title>Node4</title>
<g id="a_node4"><a xlink:href="../../d2/df3/rle__hdr_8c.html#a8ba0e5b11d1e39ab7227f1686e676c86" target="_top" xlink:title="rle_hdr_init">
<polygon fill="white" stroke="black" points="337,-266.5 337,-285.5 407,-285.5 407,-266.5 337,-266.5"/>
<text text-anchor="middle" x="372" y="-273.5" font-family="Helvetica,sans-Serif" font-size="10.00">rle_hdr_init</text>
</a>
</g>
</g>
<!-- Node1&#45;&gt;Node4 -->
<g id="edge3" class="edge"><title>Node1&#45;&gt;Node4</title>
<path fill="none" stroke="midnightblue" d="M39.3444,-276C93.2589,-276 249.209,-276 326.499,-276"/>
<polygon fill="midnightblue" stroke="midnightblue" points="326.864,-279.5 336.864,-276 326.864,-272.5 326.864,-279.5"/>
</g>
<!-- Node9 -->
<g id="node9" class="node"><title>Node9</title>
<g id="a_node9"><a xlink:href="../../d2/df3/rle__hdr_8c.html#a82e79385f2d45cc3b80ce0f4f369eae5" target="_top" xlink:title="rle_names">
<polygon fill="white" stroke="black" points="602,-304.5 602,-323.5 668,-323.5 668,-304.5 602,-304.5"/>
<text text-anchor="middle" x="635" y="-311.5" font-family="Helvetica,sans-Serif" font-size="10.00">rle_names</text>
</a>
</g>
</g>
<!-- Node1&#45;&gt;Node9 -->
<g id="edge12" class="edge"><title>Node1&#45;&gt;Node9</title>
<path fill="none" stroke="midnightblue" d="M22.4432,-266.322C27.5361,-242.935 43.1344,-182.378 75,-143 125.114,-81.072 147.335,-48 227,-48 227,-48 227,-48 373,-48 511.241,-48 600.54,-233.307 626.291,-294.588"/>
<polygon fill="midnightblue" stroke="midnightblue" points="623.207,-296.293 630.239,-304.217 629.684,-293.637 623.207,-296.293"/>
</g>
<!-- Node10 -->
<g id="node10" class="node"><title>Node10</title>
<g id="a_node10"><a xlink:href="../../d8/d30/cmd__name_8c.html#a271249070fdd12c176777c77d76f888f" target="_top" xlink:title="cmd_name">
<polygon fill="white" stroke="black" points="75,-0.5 75,-19.5 143,-19.5 143,-0.5 75,-0.5"/>
<text text-anchor="middle" x="109" y="-7.5" font-family="Helvetica,sans-Serif" font-size="10.00">cmd_name</text>
</a>
</g>
</g>
<!-- Node1&#45;&gt;Node10 -->
<g id="edge13" class="edge"><title>Node1&#45;&gt;Node10</title>
<path fill="none" stroke="midnightblue" d="M20.3338,-266.298C20.1943,-231.672 23.6481,-112.08 75,-34 76.9074,-31.0998 79.2936,-28.4306 81.9055,-26.0101"/>
<polygon fill="midnightblue" stroke="midnightblue" points="84.4691,-28.4467 90.1648,-19.513 80.1412,-22.9449 84.4691,-28.4467"/>
</g>
<!-- Node11 -->
<g id="node11" class="node"><title>Node11</title>
<g id="a_node11"><a xlink:href="../../de/d4e/rle__open__f_8c.html#a89733a45961817885603ae01210290b7" target="_top" xlink:title="rle_open_f">
<polygon fill="white" stroke="black" points="75,-608.5 75,-627.5 143,-627.5 143,-608.5 75,-608.5"/>
<text text-anchor="middle" x="109" y="-615.5" font-family="Helvetica,sans-Serif" font-size="10.00">rle_open_f</text>
</a>
</g>
</g>
<!-- Node1&#45;&gt;Node11 -->
<g id="edge14" class="edge"><title>Node1&#45;&gt;Node11</title>
<path fill="none" stroke="midnightblue" d="M22.9316,-285.504C34.7789,-331.81 86.549,-534.157 102.978,-598.371"/>
<polygon fill="midnightblue" stroke="midnightblue" points="99.6692,-599.559 105.539,-608.38 106.451,-597.824 99.6692,-599.559"/>
</g>
<!-- Node14 -->
<g id="node14" class="node"><title>Node14</title>
<g id="a_node14"><a xlink:href="../../d1/dea/getx10_8c.html#a867bbe68ed06015d6e2bcaf9c1119f17" target="_top" xlink:title="get_pic">
<polygon fill="white" stroke="black" points="83.5,-437.5 83.5,-456.5 134.5,-456.5 134.5,-437.5 83.5,-437.5"/>
<text text-anchor="middle" x="109" y="-444.5" font-family="Helvetica,sans-Serif" font-size="10.00">get_pic</text>
</a>
</g>
</g>
<!-- Node1&#45;&gt;Node14 -->
<g id="edge19" class="edge"><title>Node1&#45;&gt;Node14</title>
<path fill="none" stroke="midnightblue" d="M25.4551,-285.684C39.5325,-313.195 79.9417,-392.166 98.488,-428.411"/>
<polygon fill="midnightblue" stroke="midnightblue" points="95.4282,-430.115 103.099,-437.423 101.66,-426.926 95.4282,-430.115"/>
</g>
<!-- Node36 -->
<g id="node36" class="node"><title>Node36</title>
<g id="a_node36"><a xlink:href="../../d1/dea/getx10_8c.html#a1bae96cea0104e711670fd46d1f9c815" target="_top" xlink:title="update_pic">
<polygon fill="white" stroke="black" points="75,-152.5 75,-171.5 143,-171.5 143,-152.5 75,-152.5"/>
<text text-anchor="middle" x="109" y="-159.5" font-family="Helvetica,sans-Serif" font-size="10.00">update_pic</text>
</a>
</g>
</g>
<!-- Node1&#45;&gt;Node36 -->
<g id="edge52" class="edge"><title>Node1&#45;&gt;Node36</title>
<path fill="none" stroke="midnightblue" d="M27.9602,-266.28C42.6833,-247.098 75.6681,-204.124 94.3735,-179.753"/>
<polygon fill="midnightblue" stroke="midnightblue" points="97.2464,-181.759 100.559,-171.695 91.6935,-177.497 97.2464,-181.759"/>
</g>
<!-- Node3 -->
<g id="node3" class="node"><title>Node3</title>
<g id="a_node3"><a xlink:href="../../d4/db0/scanargs_8c.html#a862219039664df6eb3cfced58addf830" target="_top" xlink:title="_do_scanargs">
<polygon fill="white" stroke="black" points="186,-760.5 186,-779.5 270,-779.5 270,-760.5 186,-760.5"/>
<text text-anchor="middle" x="228" y="-767.5" font-family="Helvetica,sans-Serif" font-size="10.00">_do_scanargs</text>
</a>
</g>
</g>
<!-- Node2&#45;&gt;Node3 -->
<g id="edge2" class="edge"><title>Node2&#45;&gt;Node3</title>
<path fill="none" stroke="midnightblue" d="M133.395,-731.598C150.852,-738.76 174.927,-748.637 194.289,-756.58"/>
<polygon fill="midnightblue" stroke="midnightblue" points="193.065,-759.861 203.645,-760.418 195.722,-753.385 193.065,-759.861"/>
</g>
<!-- Node5 -->
<g id="node5" class="node"><title>Node5</title>
<g id="a_node5"><a xlink:href="../../d2/df3/rle__hdr_8c.html#a16c4da6201b3b8cf55127b9ca968d253" target="_top" xlink:title="rle_hdr_clear">
<polygon fill="white" stroke="black" points="595,-380.5 595,-399.5 675,-399.5 675,-380.5 595,-380.5"/>
<text text-anchor="middle" x="635" y="-387.5" font-family="Helvetica,sans-Serif" font-size="10.00">rle_hdr_clear</text>
</a>
</g>
</g>
<!-- Node4&#45;&gt;Node5 -->
<g id="edge4" class="edge"><title>Node4&#45;&gt;Node5</title>
<path fill="none" stroke="midnightblue" d="M394.804,-285.523C441.054,-305.725 549.137,-352.933 602.729,-376.341"/>
<polygon fill="midnightblue" stroke="midnightblue" points="601.51,-379.628 612.075,-380.423 604.312,-373.213 601.51,-379.628"/>
</g>
<!-- Node7 -->
<g id="node7" class="node"><title>Node7</title>
<g id="a_node7"><a xlink:href="../../d2/df3/rle__hdr_8c.html#afc916e29aea8788e0878ca315ff69821" target="_top" xlink:title="rle_hdr_cp">
<polygon fill="white" stroke="black" points="473.5,-266.5 473.5,-285.5 541.5,-285.5 541.5,-266.5 473.5,-266.5"/>
<text text-anchor="middle" x="507.5" y="-273.5" font-family="Helvetica,sans-Serif" font-size="10.00">rle_hdr_cp</text>
</a>
</g>
</g>
<!-- Node4&#45;&gt;Node7 -->
<g id="edge6" class="edge"><title>Node4&#45;&gt;Node7</title>
<path fill="none" stroke="midnightblue" d="M407.033,-270.03C424.161,-269.142 445.108,-269.012 463.353,-269.64"/>
<polygon fill="midnightblue" stroke="midnightblue" points="463.308,-273.141 473.452,-270.082 463.614,-266.148 463.308,-273.141"/>
</g>
<!-- Node6 -->
<g id="node6" class="node"><title>Node6</title>
<g id="a_node6"><a xlink:href="../../d0/dcc/rletorla_8c.html#aafde19f7d36ca163a143579c1b125b6d" target="_top" xlink:title="free">
<polygon fill="white" stroke="black" points="737.5,-456.5 737.5,-475.5 772.5,-475.5 772.5,-456.5 737.5,-456.5"/>
<text text-anchor="middle" x="755" y="-463.5" font-family="Helvetica,sans-Serif" font-size="10.00">free</text>
</a>
</g>
</g>
<!-- Node5&#45;&gt;Node6 -->
<g id="edge5" class="edge"><title>Node5&#45;&gt;Node6</title>
<path fill="none" stroke="midnightblue" d="M666.104,-399.572C672.851,-402.223 679.832,-405.383 686,-409 705.147,-420.229 724.284,-436.876 737.355,-449.284"/>
<polygon fill="midnightblue" stroke="midnightblue" points="735.044,-451.918 744.656,-456.375 739.921,-446.897 735.044,-451.918"/>
</g>
<!-- Node7&#45;&gt;Node4 -->
<g id="edge7" class="edge"><title>Node7&#45;&gt;Node4</title>
<path fill="none" stroke="midnightblue" d="M473.452,-281.918C456.473,-282.835 435.551,-282.994 417.203,-282.395"/>
<polygon fill="midnightblue" stroke="midnightblue" points="417.171,-278.891 407.033,-281.97 416.878,-285.885 417.171,-278.891"/>
</g>
<!-- Node8 -->
<g id="node8" class="node"><title>Node8</title>
<g id="a_node8"><a xlink:href="../../d0/dcc/rletorla_8c.html#ab7e36af3707843f77cc5b4e831c2fa6d" target="_top" xlink:title="malloc">
<polygon fill="white" stroke="black" points="731.5,-285.5 731.5,-304.5 778.5,-304.5 778.5,-285.5 731.5,-285.5"/>
<text text-anchor="middle" x="755" y="-292.5" font-family="Helvetica,sans-Serif" font-size="10.00">malloc</text>
</a>
</g>
</g>
<!-- Node7&#45;&gt;Node8 -->
<g id="edge8" class="edge"><title>Node7&#45;&gt;Node8</title>
<path fill="none" stroke="midnightblue" d="M541.609,-278.562C588.6,-282.199 674.127,-288.818 721.037,-292.449"/>
<polygon fill="midnightblue" stroke="midnightblue" points="721.02,-295.958 731.26,-293.24 721.56,-288.979 721.02,-295.958"/>
</g>
<!-- Node7&#45;&gt;Node9 -->
<g id="edge9" class="edge"><title>Node7&#45;&gt;Node9</title>
<path fill="none" stroke="midnightblue" d="M540.169,-285.589C556.073,-290.404 575.54,-296.299 592.611,-301.468"/>
<polygon fill="midnightblue" stroke="midnightblue" points="591.756,-304.866 602.341,-304.414 593.785,-298.166 591.756,-304.866"/>
</g>
<!-- Node9&#45;&gt;Node6 -->
<g id="edge10" class="edge"><title>Node9&#45;&gt;Node6</title>
<path fill="none" stroke="midnightblue" d="M645.159,-323.834C655.427,-334.997 672.419,-353.881 686,-371 706.583,-396.945 728.573,-428.441 741.801,-447.852"/>
<polygon fill="midnightblue" stroke="midnightblue" points="739.041,-450.017 747.547,-456.333 744.836,-446.091 739.041,-450.017"/>
</g>
<!-- Node9&#45;&gt;Node8 -->
<g id="edge11" class="edge"><title>Node9&#45;&gt;Node8</title>
<path fill="none" stroke="midnightblue" d="M668.244,-308.808C684.589,-306.176 704.41,-302.985 720.877,-300.333"/>
<polygon fill="midnightblue" stroke="midnightblue" points="721.827,-303.726 731.144,-298.68 720.714,-296.815 721.827,-303.726"/>
</g>
<!-- Node12 -->
<g id="node12" class="node"><title>Node12</title>
<g id="a_node12"><a xlink:href="../../de/d4e/rle__open__f_8c.html#a5a0e62a00f907fce26e93b2f72adb2b0" target="_top" xlink:title="rle_open_f_noexit">
<polygon fill="white" stroke="black" points="584,-532.5 584,-551.5 686,-551.5 686,-532.5 584,-532.5"/>
<text text-anchor="middle" x="635" y="-539.5" font-family="Helvetica,sans-Serif" font-size="10.00">rle_open_f_noexit</text>
</a>
</g>
</g>
<!-- Node11&#45;&gt;Node12 -->
<g id="edge15" class="edge"><title>Node11&#45;&gt;Node12</title>
<path fill="none" stroke="midnightblue" d="M113.483,-627.598C121.429,-647.866 143.039,-694.674 179,-713 246.279,-747.286 442.361,-760.666 548,-694 596.377,-663.47 620.159,-595.38 629.322,-561.676"/>
<polygon fill="midnightblue" stroke="midnightblue" points="632.795,-562.224 631.883,-551.668 626.013,-560.488 632.795,-562.224"/>
</g>
<!-- Node12&#45;&gt;Node6 -->
<g id="edge18" class="edge"><title>Node12&#45;&gt;Node6</title>
<path fill="none" stroke="midnightblue" d="M658.421,-532.433C667.232,-528.368 677.3,-523.336 686,-518 703.459,-507.291 721.827,-493.043 735.066,-482.169"/>
<polygon fill="midnightblue" stroke="midnightblue" points="737.526,-484.675 742.963,-475.582 733.042,-479.299 737.526,-484.675"/>
</g>
<!-- Node12&#45;&gt;Node8 -->
<g id="edge17" class="edge"><title>Node12&#45;&gt;Node8</title>
<path fill="none" stroke="midnightblue" d="M641.317,-532.394C650.684,-515.363 670.597,-478.679 686,-447 708.968,-399.763 733.586,-343.014 745.943,-314.047"/>
<polygon fill="midnightblue" stroke="midnightblue" points="749.224,-315.274 749.915,-304.702 742.782,-312.536 749.224,-315.274"/>
</g>
<!-- Node13 -->
<g id="node13" class="node"><title>Node13</title>
<g id="a_node13"><a xlink:href="../../de/d4e/rle__open__f_8c.html#a84fda810ae9b9bde82a6391d0b264ead" target="_top" xlink:title="my_popen">
<polygon fill="white" stroke="black" points="722,-532.5 722,-551.5 788,-551.5 788,-532.5 722,-532.5"/>
<text text-anchor="middle" x="755" y="-539.5" font-family="Helvetica,sans-Serif" font-size="10.00">my_popen</text>
</a>
</g>
</g>
<!-- Node12&#45;&gt;Node13 -->
<g id="edge16" class="edge"><title>Node12&#45;&gt;Node13</title>
<path fill="none" stroke="midnightblue" d="M686.043,-542C694.523,-542 703.255,-542 711.518,-542"/>
<polygon fill="midnightblue" stroke="midnightblue" points="711.678,-545.5 721.678,-542 711.678,-538.5 711.678,-545.5"/>
</g>
<!-- Node14&#45;&gt;Node6 -->
<g id="edge51" class="edge"><title>Node14&#45;&gt;Node6</title>
<path fill="none" stroke="midnightblue" d="M134.792,-453.179C172.832,-462.308 248.023,-478.971 313,-485 469.451,-499.517 658.175,-478.593 727.123,-469.686"/>
<polygon fill="midnightblue" stroke="midnightblue" points="727.679,-473.143 737.137,-468.367 726.765,-466.203 727.679,-473.143"/>
</g>
<!-- Node14&#45;&gt;Node8 -->
<g id="edge42" class="edge"><title>Node14&#45;&gt;Node8</title>
<path fill="none" stroke="midnightblue" d="M113.829,-437.334C122.605,-416.176 145.988,-365.089 179,-333 228.095,-285.277 246.798,-274.467 313,-257 461.673,-217.774 647.346,-263.08 721.357,-284.741"/>
<polygon fill="midnightblue" stroke="midnightblue" points="720.46,-288.126 731.043,-287.629 722.46,-281.417 720.46,-288.126"/>
</g>
<!-- Node15 -->
<g id="node15" class="node"><title>Node15</title>
<g id="a_node15"><a xlink:href="../../db/d53/rle__getrow_8c.html#a2d56ca99b896abbcb4d2f3f97c93a3ce" target="_top" xlink:title="rle_get_setup_ok">
<polygon fill="white" stroke="black" points="179,-380.5 179,-399.5 277,-399.5 277,-380.5 179,-380.5"/>
<text text-anchor="middle" x="228" y="-387.5" font-family="Helvetica,sans-Serif" font-size="10.00">rle_get_setup_ok</text>
</a>
</g>
</g>
<!-- Node14&#45;&gt;Node15 -->
<g id="edge20" class="edge"><title>Node14&#45;&gt;Node15</title>
<path fill="none" stroke="midnightblue" d="M126.148,-437.346C139.942,-429.284 160.442,-417.74 179,-409 183.078,-407.079 187.407,-405.18 191.73,-403.368"/>
<polygon fill="midnightblue" stroke="midnightblue" points="193.14,-406.573 201.086,-399.565 190.504,-400.088 193.14,-406.573"/>
</g>
<!-- Node19 -->
<g id="node19" class="node"><title>Node19</title>
<g id="a_node19"><a xlink:href="../../db/d53/rle__getrow_8c.html#a0e01db41714fa588d5458fed1fd0dd55" target="_top" xlink:title="rle_debug">
<polygon fill="white" stroke="black" points="196.5,-570.5 196.5,-589.5 259.5,-589.5 259.5,-570.5 196.5,-570.5"/>
<text text-anchor="middle" x="228" y="-577.5" font-family="Helvetica,sans-Serif" font-size="10.00">rle_debug</text>
</a>
</g>
</g>
<!-- Node14&#45;&gt;Node19 -->
<g id="edge30" class="edge"><title>Node14&#45;&gt;Node19</title>
<path fill="none" stroke="midnightblue" d="M113.955,-456.67C122.818,-477.32 146.105,-526.261 179,-556 182.959,-559.579 187.549,-562.758 192.29,-565.537"/>
<polygon fill="midnightblue" stroke="midnightblue" points="190.991,-568.808 201.467,-570.387 194.262,-562.62 190.991,-568.808"/>
</g>
<!-- Node20 -->
<g id="node20" class="node"><title>Node20</title>
<g id="a_node20"><a xlink:href="../../db/db2/rle__getcom_8c.html#a9cefd612c381bf82c9cdf1f3a3b12dd6" target="_top" xlink:title="rle_getcom">
<polygon fill="white" stroke="black" points="337.5,-665.5 337.5,-684.5 406.5,-684.5 406.5,-665.5 337.5,-665.5"/>
<text text-anchor="middle" x="372" y="-672.5" font-family="Helvetica,sans-Serif" font-size="10.00">rle_getcom</text>
</a>
</g>
</g>
<!-- Node14&#45;&gt;Node20 -->
<g id="edge31" class="edge"><title>Node14&#45;&gt;Node20</title>
<path fill="none" stroke="midnightblue" d="M116.527,-456.731C127.632,-472.618 151.675,-504.235 179,-523 217.509,-549.446 242.792,-529.186 277,-561 304.369,-586.454 288.451,-608.817 313,-637 321.134,-646.338 332.095,-654.307 342.299,-660.499"/>
<polygon fill="midnightblue" stroke="midnightblue" points="340.565,-663.539 350.981,-665.474 344.045,-657.465 340.565,-663.539"/>
</g>
<!-- Node22 -->
<g id="node22" class="node"><title>Node22</title>
<g id="a_node22"><a xlink:href="../../dc/d11/getami_8c.html#a8f31580e06aae736fd6f1ed3c414ed94" target="_top" xlink:title="buildmap">
<polygon fill="white" stroke="black" points="199,-342.5 199,-361.5 257,-361.5 257,-342.5 199,-342.5"/>
<text text-anchor="middle" x="228" y="-349.5" font-family="Helvetica,sans-Serif" font-size="10.00">buildmap</text>
</a>
</g>
</g>
<!-- Node14&#45;&gt;Node22 -->
<g id="edge33" class="edge"><title>Node14&#45;&gt;Node22</title>
<path fill="none" stroke="midnightblue" d="M116.541,-437.291C127.668,-421.434 151.741,-389.86 179,-371 182.305,-368.713 185.925,-366.645 189.648,-364.788"/>
<polygon fill="midnightblue" stroke="midnightblue" points="191.297,-367.884 198.995,-360.605 188.438,-361.495 191.297,-367.884"/>
</g>
<!-- Node23 -->
<g id="node23" class="node"><title>Node23</title>
<g id="a_node23"><a xlink:href="../../d1/dea/getx10_8c.html#a3a4aae99912503bf4aecbbc4d0ebf6fb" target="_top" xlink:title="load_x_map">
<polygon fill="white" stroke="black" points="191,-684.5 191,-703.5 265,-703.5 265,-684.5 191,-684.5"/>
<text text-anchor="middle" x="228" y="-691.5" font-family="Helvetica,sans-Serif" font-size="10.00">load_x_map</text>
</a>
</g>
</g>
<!-- Node14&#45;&gt;Node23 -->
<g id="edge34" class="edge"><title>Node14&#45;&gt;Node23</title>
<path fill="none" stroke="midnightblue" d="M111.781,-456.734C119.116,-495.887 148.055,-641.373 179,-675 180.21,-676.315 181.523,-677.54 182.915,-678.682"/>
<polygon fill="midnightblue" stroke="midnightblue" points="181.306,-681.811 191.592,-684.348 185.133,-675.95 181.306,-681.811"/>
</g>
<!-- Node24 -->
<g id="node24" class="node"><title>Node24</title>
<g id="a_node24"><a xlink:href="../../d1/dea/getx10_8c.html#a20080edecb09c08ac934b8015a55512b" target="_top" xlink:title="init_color">
<polygon fill="white" stroke="black" points="198.5,-494.5 198.5,-513.5 257.5,-513.5 257.5,-494.5 198.5,-494.5"/>
<text text-anchor="middle" x="228" y="-501.5" font-family="Helvetica,sans-Serif" font-size="10.00">init_color</text>
</a>
</g>
</g>
<!-- Node14&#45;&gt;Node24 -->
<g id="edge36" class="edge"><title>Node14&#45;&gt;Node24</title>
<path fill="none" stroke="midnightblue" d="M129.583,-456.541C148.312,-465.665 176.781,-479.534 198.114,-489.927"/>
<polygon fill="midnightblue" stroke="midnightblue" points="196.83,-493.195 207.353,-494.428 199.896,-486.902 196.83,-493.195"/>
</g>
<!-- Node28 -->
<g id="node28" class="node"><title>Node28</title>
<g id="a_node28"><a xlink:href="../../d1/dea/getx10_8c.html#a6e86a1df60d88b3a98b709c7462cf3e4" target="_top" xlink:title="create_window">
<polygon fill="white" stroke="black" points="184,-228.5 184,-247.5 272,-247.5 272,-228.5 184,-228.5"/>
<text text-anchor="middle" x="228" y="-235.5" font-family="Helvetica,sans-Serif" font-size="10.00">create_window</text>
</a>
</g>
</g>
<!-- Node14&#45;&gt;Node28 -->
<g id="edge43" class="edge"><title>Node14&#45;&gt;Node28</title>
<path fill="none" stroke="midnightblue" d="M113.67,-437.342C122.995,-413.279 148.996,-349.066 179,-300 188.715,-284.113 201.753,-267.501 211.789,-255.476"/>
<polygon fill="midnightblue" stroke="midnightblue" points="214.668,-257.493 218.476,-247.606 209.334,-252.96 214.668,-257.493"/>
</g>
<!-- Node30 -->
<g id="node30" class="node"><title>Node30</title>
<g id="a_node30"><a xlink:href="../../db/d53/rle__getrow_8c.html#a3602e1158189cba5e5b0f9b983cba776" target="_top" xlink:title="rle_getrow">
<polygon fill="white" stroke="black" points="194.5,-418.5 194.5,-437.5 261.5,-437.5 261.5,-418.5 194.5,-418.5"/>
<text text-anchor="middle" x="228" y="-425.5" font-family="Helvetica,sans-Serif" font-size="10.00">rle_getrow</text>
</a>
</g>
</g>
<!-- Node14&#45;&gt;Node30 -->
<g id="edge45" class="edge"><title>Node14&#45;&gt;Node30</title>
<path fill="none" stroke="midnightblue" d="M134.527,-443.017C148.844,-440.692 167.315,-437.692 183.98,-434.986"/>
<polygon fill="midnightblue" stroke="midnightblue" points="184.76,-438.405 194.07,-433.348 183.638,-431.496 184.76,-438.405"/>
</g>
<!-- Node33 -->
<g id="node33" class="node"><title>Node33</title>
<g id="a_node33"><a xlink:href="../../d1/dea/getx10_8c.html#a01b374684dcb2599246764941b96bc39" target="_top" xlink:title="map_rgb_to_bw">
<polygon fill="white" stroke="black" points="182,-646.5 182,-665.5 274,-665.5 274,-646.5 182,-646.5"/>
<text text-anchor="middle" x="228" y="-653.5" font-family="Helvetica,sans-Serif" font-size="10.00">map_rgb_to_bw</text>
</a>
</g>
</g>
<!-- Node14&#45;&gt;Node33 -->
<g id="edge48" class="edge"><title>Node14&#45;&gt;Node33</title>
<path fill="none" stroke="midnightblue" d="M110.777,-456.744C113.732,-487.459 126.904,-583.394 179,-637 180.405,-638.446 181.935,-639.785 183.555,-641.024"/>
<polygon fill="midnightblue" stroke="midnightblue" points="181.921,-644.129 192.265,-646.423 185.61,-638.18 181.921,-644.129"/>
</g>
<!-- Node34 -->
<g id="node34" class="node"><title>Node34</title>
<g id="a_node34"><a xlink:href="../../d1/dea/getx10_8c.html#a94f2fc07576b68fed5b631ed776e8c5c" target="_top" xlink:title="map_scanline">
<polygon fill="white" stroke="black" points="187,-608.5 187,-627.5 269,-627.5 269,-608.5 187,-608.5"/>
<text text-anchor="middle" x="228" y="-615.5" font-family="Helvetica,sans-Serif" font-size="10.00">map_scanline</text>
</a>
</g>
</g>
<!-- Node14&#45;&gt;Node34 -->
<g id="edge49" class="edge"><title>Node14&#45;&gt;Node34</title>
<path fill="none" stroke="midnightblue" d="M111.763,-456.644C117.077,-483.07 135.34,-557.438 179,-599 180.635,-600.556 182.413,-601.991 184.29,-603.311"/>
<polygon fill="midnightblue" stroke="midnightblue" points="182.616,-606.387 193.016,-608.404 186.144,-600.341 182.616,-606.387"/>
</g>
<!-- Node35 -->
<g id="node35" class="node"><title>Node35</title>
<g id="a_node35"><a xlink:href="../../d1/dea/getx10_8c.html#aeca6232ea8004e5f859e7069b1067528" target="_top" xlink:title="put_scanline">
<polygon fill="white" stroke="black" points="190,-190.5 190,-209.5 266,-209.5 266,-190.5 190,-190.5"/>
<text text-anchor="middle" x="228" y="-197.5" font-family="Helvetica,sans-Serif" font-size="10.00">put_scanline</text>
</a>
</g>
</g>
<!-- Node14&#45;&gt;Node35 -->
<g id="edge50" class="edge"><title>Node14&#45;&gt;Node35</title>
<path fill="none" stroke="midnightblue" d="M110.085,-437.335C110.906,-402.944 118.231,-285.037 179,-219 180.21,-217.685 181.523,-216.46 182.915,-215.318"/>
<polygon fill="midnightblue" stroke="midnightblue" points="185.133,-218.05 191.592,-209.652 181.306,-212.189 185.133,-218.05"/>
</g>
<!-- Node15&#45;&gt;Node4 -->
<g id="edge21" class="edge"><title>Node15&#45;&gt;Node4</title>
<path fill="none" stroke="midnightblue" d="M262.347,-380.49C267.642,-377.984 272.761,-374.864 277,-371 303.146,-347.164 287.039,-324.037 313,-300 317.303,-296.016 322.36,-292.646 327.663,-289.809"/>
<polygon fill="midnightblue" stroke="midnightblue" points="329.187,-292.96 336.732,-285.522 326.196,-286.631 329.187,-292.96"/>
</g>
<!-- Node15&#45;&gt;Node9 -->
<g id="edge22" class="edge"><title>Node15&#45;&gt;Node9</title>
<path fill="none" stroke="midnightblue" d="M254.032,-380.387C270.562,-374.356 292.818,-366.834 313,-362 411.424,-338.425 529.749,-324.303 591.602,-317.974"/>
<polygon fill="midnightblue" stroke="midnightblue" points="592.155,-321.436 601.755,-316.953 591.455,-314.471 592.155,-321.436"/>
</g>
<!-- Node16 -->
<g id="node16" class="node"><title>Node16</title>
<g id="a_node16"><a xlink:href="../../d7/d24/rle__error_8c.html#af931d686cf3ca715c9b900527f0961c0" target="_top" xlink:title="rle_get_error">
<polygon fill="white" stroke="black" points="332.5,-380.5 332.5,-399.5 411.5,-399.5 411.5,-380.5 332.5,-380.5"/>
<text text-anchor="middle" x="372" y="-387.5" font-family="Helvetica,sans-Serif" font-size="10.00">rle_get_error</text>
</a>
</g>
</g>
<!-- Node15&#45;&gt;Node16 -->
<g id="edge23" class="edge"><title>Node15&#45;&gt;Node16</title>
<path fill="none" stroke="midnightblue" d="M277.075,-390C291.578,-390 307.51,-390 322.068,-390"/>
<polygon fill="midnightblue" stroke="midnightblue" points="322.385,-393.5 332.385,-390 322.385,-386.5 322.385,-393.5"/>
</g>
<!-- Node17 -->
<g id="node17" class="node"><title>Node17</title>
<g id="a_node17"><a xlink:href="../../db/d53/rle__getrow_8c.html#a619b27463c26e0a4a3d9648a9869ee52" target="_top" xlink:title="rle_get_setup">
<polygon fill="white" stroke="black" points="467,-380.5 467,-399.5 548,-399.5 548,-380.5 467,-380.5"/>
<text text-anchor="middle" x="507.5" y="-387.5" font-family="Helvetica,sans-Serif" font-size="10.00">rle_get_setup</text>
</a>
</g>
</g>
<!-- Node15&#45;&gt;Node17 -->
<g id="edge24" class="edge"><title>Node15&#45;&gt;Node17</title>
<path fill="none" stroke="midnightblue" d="M263.037,-380.492C278.199,-376.728 296.358,-372.859 313,-371 365.12,-365.179 378.953,-364.552 431,-371 442.502,-372.425 454.77,-375.027 466,-377.858"/>
<polygon fill="midnightblue" stroke="midnightblue" points="465.407,-381.322 475.969,-380.495 467.197,-374.554 465.407,-381.322"/>
</g>
<!-- Node17&#45;&gt;Node5 -->
<g id="edge25" class="edge"><title>Node17&#45;&gt;Node5</title>
<path fill="none" stroke="midnightblue" d="M548.209,-390C559.878,-390 572.782,-390 584.962,-390"/>
<polygon fill="midnightblue" stroke="midnightblue" points="584.979,-393.5 594.979,-390 584.979,-386.5 584.979,-393.5"/>
</g>
<!-- Node17&#45;&gt;Node6 -->
<g id="edge28" class="edge"><title>Node17&#45;&gt;Node6</title>
<path fill="none" stroke="midnightblue" d="M517.692,-399.638C530.948,-412.852 556.84,-436.184 584,-447 631.8,-466.036 692.762,-468.008 727.179,-467.295"/>
<polygon fill="midnightblue" stroke="midnightblue" points="727.48,-470.787 737.37,-466.987 727.269,-463.79 727.48,-470.787"/>
</g>
<!-- Node17&#45;&gt;Node8 -->
<g id="edge27" class="edge"><title>Node17&#45;&gt;Node8</title>
<path fill="none" stroke="midnightblue" d="M545.312,-380.49C581.764,-370.539 638.807,-353.521 686,-333 701.169,-326.404 717.366,-317.436 730.146,-309.869"/>
<polygon fill="midnightblue" stroke="midnightblue" points="732.028,-312.822 738.784,-304.66 728.413,-306.827 732.028,-312.822"/>
</g>
<!-- Node17&#45;&gt;Node9 -->
<g id="edge26" class="edge"><title>Node17&#45;&gt;Node9</title>
<path fill="none" stroke="midnightblue" d="M521.193,-380.348C535.882,-369.397 561.005,-351.329 584,-338 590.045,-334.496 596.68,-331.05 603.085,-327.911"/>
<polygon fill="midnightblue" stroke="midnightblue" points="604.689,-331.024 612.209,-323.561 601.677,-324.705 604.689,-331.024"/>
</g>
<!-- Node18 -->
<g id="node18" class="node"><title>Node18</title>
<g id="a_node18"><a xlink:href="../../db/d53/rle__getrow_8c.html#a0ea68aa2ebeef9d4cade7282553b03d6" target="_top" xlink:title="vax_gshort">
<polygon fill="white" stroke="black" points="600.5,-418.5 600.5,-437.5 669.5,-437.5 669.5,-418.5 600.5,-418.5"/>
<text text-anchor="middle" x="635" y="-425.5" font-family="Helvetica,sans-Serif" font-size="10.00">vax_gshort</text>
</a>
</g>
</g>
<!-- Node17&#45;&gt;Node18 -->
<g id="edge29" class="edge"><title>Node17&#45;&gt;Node18</title>
<path fill="none" stroke="midnightblue" d="M540.169,-399.589C556.073,-404.404 575.54,-410.299 592.611,-415.468"/>
<polygon fill="midnightblue" stroke="midnightblue" points="591.756,-418.866 602.341,-418.414 593.785,-412.166 591.756,-418.866"/>
</g>
<!-- Node21 -->
<g id="node21" class="node"><title>Node21</title>
<g id="a_node21"><a xlink:href="../../db/db2/rle__getcom_8c.html#a7502c8b599724ce86fee5df1311a2337" target="_top" xlink:title="match">
<polygon fill="white" stroke="black" points="485,-665.5 485,-684.5 530,-684.5 530,-665.5 485,-665.5"/>
<text text-anchor="middle" x="507.5" y="-672.5" font-family="Helvetica,sans-Serif" font-size="10.00">match</text>
</a>
</g>
</g>
<!-- Node20&#45;&gt;Node21 -->
<g id="edge32" class="edge"><title>Node20&#45;&gt;Node21</title>
<path fill="none" stroke="midnightblue" d="M406.688,-675C427.605,-675 454.317,-675 474.843,-675"/>
<polygon fill="midnightblue" stroke="midnightblue" points="474.949,-678.5 484.949,-675 474.949,-671.5 474.949,-678.5"/>
</g>
<!-- Node23&#45;&gt;Node20 -->
<g id="edge35" class="edge"><title>Node23&#45;&gt;Node20</title>
<path fill="none" stroke="midnightblue" d="M265.2,-689.156C284.093,-686.628 307.353,-683.516 327.248,-680.854"/>
<polygon fill="midnightblue" stroke="midnightblue" points="327.857,-684.304 337.304,-679.509 326.929,-677.366 327.857,-684.304"/>
</g>
<!-- Node25 -->
<g id="node25" class="node"><title>Node25</title>
<g id="a_node25"><a xlink:href="../../d9/dbb/dither_8c.html#af497d70ad3165f9bd58878047ba22f03" target="_top" xlink:title="dithermap">
<polygon fill="white" stroke="black" points="340,-608.5 340,-627.5 404,-627.5 404,-608.5 340,-608.5"/>
<text text-anchor="middle" x="372" y="-615.5" font-family="Helvetica,sans-Serif" font-size="10.00">dithermap</text>
</a>
</g>
</g>
<!-- Node24&#45;&gt;Node25 -->
<g id="edge37" class="edge"><title>Node24&#45;&gt;Node25</title>
<path fill="none" stroke="midnightblue" d="M255.873,-513.729C263.356,-517.366 271.054,-522.087 277,-528 302.088,-552.947 286.147,-575.964 313,-599 317.961,-603.256 323.899,-606.564 330.055,-609.134"/>
<polygon fill="midnightblue" stroke="midnightblue" points="329.204,-612.546 339.799,-612.595 331.547,-605.95 329.204,-612.546"/>
</g>
<!-- Node26 -->
<g id="node26" class="node"><title>Node26</title>
<g id="a_node26"><a xlink:href="../../d9/dbb/dither_8c.html#a7ff23fcd77b62deab9304ffd3d684f47" target="_top" xlink:title="make_square">
<polygon fill="white" stroke="black" points="467.5,-570.5 467.5,-589.5 547.5,-589.5 547.5,-570.5 467.5,-570.5"/>
<text text-anchor="middle" x="507.5" y="-577.5" font-family="Helvetica,sans-Serif" font-size="10.00">make_square</text>
</a>
</g>
</g>
<!-- Node24&#45;&gt;Node26 -->
<g id="edge41" class="edge"><title>Node24&#45;&gt;Node26</title>
<path fill="none" stroke="midnightblue" d="M257.652,-511.847C305.987,-525.085 404.071,-551.947 461.611,-567.706"/>
<polygon fill="midnightblue" stroke="midnightblue" points="460.948,-571.153 471.517,-570.419 462.797,-564.402 460.948,-571.153"/>
</g>
<!-- Node27 -->
<g id="node27" class="node"><title>Node27</title>
<g id="a_node27"><a xlink:href="../../d9/dbb/dither_8c.html#afad378428af71918afb13247f60d0594" target="_top" xlink:title="bwdithermap">
<polygon fill="white" stroke="black" points="333.5,-570.5 333.5,-589.5 410.5,-589.5 410.5,-570.5 333.5,-570.5"/>
<text text-anchor="middle" x="372" y="-577.5" font-family="Helvetica,sans-Serif" font-size="10.00">bwdithermap</text>
</a>
</g>
</g>
<!-- Node24&#45;&gt;Node27 -->
<g id="edge39" class="edge"><title>Node24&#45;&gt;Node27</title>
<path fill="none" stroke="midnightblue" d="M250.521,-513.64C258.979,-517.715 268.645,-522.734 277,-528 294.148,-538.807 295.477,-545.811 313,-556 319.606,-559.841 326.945,-563.379 334.12,-566.491"/>
<polygon fill="midnightblue" stroke="midnightblue" points="333.139,-569.873 343.717,-570.46 335.814,-563.404 333.139,-569.873"/>
</g>
<!-- Node25&#45;&gt;Node26 -->
<g id="edge38" class="edge"><title>Node25&#45;&gt;Node26</title>
<path fill="none" stroke="midnightblue" d="M404.3,-609.091C421.888,-604.084 444.102,-597.761 463.324,-592.29"/>
<polygon fill="midnightblue" stroke="midnightblue" points="464.403,-595.622 473.063,-589.518 462.486,-588.889 464.403,-595.622"/>
</g>
<!-- Node27&#45;&gt;Node26 -->
<g id="edge40" class="edge"><title>Node27&#45;&gt;Node26</title>
<path fill="none" stroke="midnightblue" d="M410.542,-580C424.954,-580 441.629,-580 456.995,-580"/>
<polygon fill="midnightblue" stroke="midnightblue" points="457.38,-583.5 467.38,-580 457.38,-576.5 457.38,-583.5"/>
</g>
<!-- Node29 -->
<g id="node29" class="node"><title>Node29</title>
<g id="a_node29"><a xlink:href="../../d1/dea/getx10_8c.html#ad1e851f3e8d2fc01b6ccd9a382633bc4" target="_top" xlink:title="resize_zoom_window">
<polygon fill="white" stroke="black" points="313,-171.5 313,-190.5 431,-190.5 431,-171.5 313,-171.5"/>
<text text-anchor="middle" x="372" y="-178.5" font-family="Helvetica,sans-Serif" font-size="10.00">resize_zoom_window</text>
</a>
</g>
</g>
<!-- Node28&#45;&gt;Node29 -->
<g id="edge44" class="edge"><title>Node28&#45;&gt;Node29</title>
<path fill="none" stroke="midnightblue" d="M253.432,-228.368C260.992,-225.378 269.344,-222.063 277,-219 297.271,-210.891 319.965,-201.719 337.975,-194.419"/>
<polygon fill="midnightblue" stroke="midnightblue" points="339.503,-197.576 347.454,-190.574 336.872,-191.089 339.503,-197.576"/>
</g>
<!-- Node31 -->
<g id="node31" class="node"><title>Node31</title>
<g id="a_node31"><a xlink:href="../../db/d53/rle__getrow_8c.html#a61ac0da96b0dd8bc3cbc98afcd9b5c44" target="_top" xlink:title="bfill">
<polygon fill="white" stroke="black" points="356,-418.5 356,-437.5 388,-437.5 388,-418.5 356,-418.5"/>
<text text-anchor="middle" x="372" y="-425.5" font-family="Helvetica,sans-Serif" font-size="10.00">bfill</text>
</a>
</g>
</g>
<!-- Node30&#45;&gt;Node31 -->
<g id="edge46" class="edge"><title>Node30&#45;&gt;Node31</title>
<path fill="none" stroke="midnightblue" d="M261.578,-428C287.166,-428 322.283,-428 345.764,-428"/>
<polygon fill="midnightblue" stroke="midnightblue" points="345.96,-431.5 355.96,-428 345.96,-424.5 345.96,-431.5"/>
</g>
<!-- Node32 -->
<g id="node32" class="node"><title>Node32</title>
<g id="a_node32"><a xlink:href="../../d8/d7c/rle__getskip_8c.html#af6b1e1dc0867e9340f90668591c7c5b3" target="_top" xlink:title="rle_getskip">
<polygon fill="white" stroke="black" points="338,-456.5 338,-475.5 406,-475.5 406,-456.5 338,-456.5"/>
<text text-anchor="middle" x="372" y="-463.5" font-family="Helvetica,sans-Serif" font-size="10.00">rle_getskip</text>
</a>
</g>
</g>
<!-- Node30&#45;&gt;Node32 -->
<g id="edge47" class="edge"><title>Node30&#45;&gt;Node32</title>
<path fill="none" stroke="midnightblue" d="M261.578,-436.718C281.229,-441.977 306.499,-448.739 327.803,-454.44"/>
<polygon fill="midnightblue" stroke="midnightblue" points="327.023,-457.855 337.588,-457.059 328.833,-451.093 327.023,-457.855"/>
</g>
<!-- Node36&#45;&gt;Node8 -->
<g id="edge54" class="edge"><title>Node36&#45;&gt;Node8</title>
<path fill="none" stroke="midnightblue" d="M118.202,-152.311C130.082,-139.036 153.467,-115.631 179,-105 258.162,-72.0389 285.25,-86 371,-86 371,-86 371,-86 508.5,-86 625.522,-86 715.14,-225.386 744.069,-276.499"/>
<polygon fill="midnightblue" stroke="midnightblue" points="741.133,-278.421 749.036,-285.477 747.258,-275.032 741.133,-278.421"/>
</g>
<!-- Node36&#45;&gt;Node29 -->
<g id="edge55" class="edge"><title>Node36&#45;&gt;Node29</title>
<path fill="none" stroke="midnightblue" d="M143.056,-164.406C183.05,-167.318 251.412,-172.294 302.865,-176.04"/>
<polygon fill="midnightblue" stroke="midnightblue" points="302.688,-179.536 312.916,-176.772 303.197,-172.555 302.688,-179.536"/>
</g>
<!-- Node36&#45;&gt;Node35 -->
<g id="edge56" class="edge"><title>Node36&#45;&gt;Node35</title>
<path fill="none" stroke="midnightblue" d="M139.524,-171.589C154.212,-176.359 172.16,-182.189 187.968,-187.323"/>
<polygon fill="midnightblue" stroke="midnightblue" points="186.893,-190.654 197.485,-190.414 189.056,-183.996 186.893,-190.654"/>
</g>
<!-- Node37 -->
<g id="node37" class="node"><title>Node37</title>
<g id="a_node37"><a xlink:href="../../d1/dea/getx10_8c.html#a11ccf24fe2bcdf332dc700645999d488" target="_top" xlink:title="update_zoom">
<polygon fill="white" stroke="black" points="188,-114.5 188,-133.5 268,-133.5 268,-114.5 188,-114.5"/>
<text text-anchor="middle" x="228" y="-121.5" font-family="Helvetica,sans-Serif" font-size="10.00">update_zoom</text>
</a>
</g>
</g>
<!-- Node36&#45;&gt;Node37 -->
<g id="edge53" class="edge"><title>Node36&#45;&gt;Node37</title>
<path fill="none" stroke="midnightblue" d="M139.524,-152.411C154.212,-147.641 172.16,-141.811 187.968,-136.677"/>
<polygon fill="midnightblue" stroke="midnightblue" points="189.056,-140.004 197.485,-133.586 186.893,-133.346 189.056,-140.004"/>
</g>
</g>
</svg>
        <g id="navigator" transform="translate(0 0)" fill="#404254">
                <rect fill="#f2f5e9" fill-opacity="0.5" stroke="#606060" stroke-width=".5" x="0" y="0" width="60" height="60"/>
                <use id="zoomplus" xlink:href="#zoomPlus" x="17" y="9" onmousedown="handleZoom(evt,'in')"/>
                <use id="zoomminus" xlink:href="#zoomMin" x="42" y="9" onmousedown="handleZoom(evt,'out')"/>
                <use id="reset" xlink:href="#resetDef" x="30" y="36" onmousedown="handleReset()"/>
                <g id="arrowUp" xlink:href="#dirArrow" transform="translate(30 24)" onmousedown="handlePan(0,-1)">
                  <use xlink:href="#rim" fill="#404040">
                        <set attributeName="fill" to="#808080" begin="arrowUp.mouseover" end="arrowUp.mouseout"/>
                  </use>
                  <path fill="none" stroke="white" stroke-width="1.5" d="M0,-3.0v7 M-2.5,-0.5L0,-3.0L2.5,-0.5"/>
                </g>
                <g id="arrowRight" xlink:href="#dirArrow" transform="rotate(90) translate(36 -43)" onmousedown="handlePan(1,0)">
                  <use xlink:href="#rim" fill="#404040">
                        <set attributeName="fill" to="#808080" begin="arrowRight.mouseover" end="arrowRight.mouseout"/>
                  </use>
                  <path fill="none" stroke="white" stroke-width="1.5" d="M0,-3.0v7 M-2.5,-0.5L0,-3.0L2.5,-0.5"/>
                </g>
                <g id="arrowDown" xlink:href="#dirArrow" transform="rotate(180) translate(-30 -48)" onmousedown="handlePan(0,1)">
                  <use xlink:href="#rim" fill="#404040">
                        <set attributeName="fill" to="#808080" begin="arrowDown.mouseover" end="arrowDown.mouseout"/>
                  </use>
                  <path fill="none" stroke="white" stroke-width="1.5" d="M0,-3.0v7 M-2.5,-0.5L0,-3.0L2.5,-0.5"/>
                </g>
                <g id="arrowLeft" xlink:href="#dirArrow" transform="rotate(270) translate(-36 17)" onmousedown="handlePan(-1,0)">
                  <use xlink:href="#rim" fill="#404040">
                        <set attributeName="fill" to="#808080" begin="arrowLeft.mouseover" end="arrowLeft.mouseout"/>
                  </use>
                  <path fill="none" stroke="white" stroke-width="1.5" d="M0,-3.0v7 M-2.5,-0.5L0,-3.0L2.5,-0.5"/>
                </g>
        </g>
        <svg viewBox="0 0 15 15" width="100%" height="30px" preserveAspectRatio="xMaxYMin meet">
         <g id="arrow_out" transform="scale(0.3 0.3)">
          <a xlink:href="getx10_8c_a2e1c56207484e456874379d624fc0e67_cgraph_org.svg" target="_base">
           <rect id="button" ry="5" rx="5" y="6" x="6" height="38" width="38"
                fill="#f2f5e9" fill-opacity="0.5" stroke="#606060" stroke-width="1.0"/>
           <path id="arrow"
             d="M 11.500037,31.436501 C 11.940474,20.09759 22.043105,11.32322 32.158766,21.979434 L 37.068811,17.246167 C 37.068811,17.246167 37.088388,32 37.088388,32 L 22.160133,31.978069 C 22.160133,31.978069 26.997745,27.140456 26.997745,27.140456 C 18.528582,18.264221 13.291696,25.230495 11.500037,31.436501 z"
             style="fill:#404040;"/>
          </a>
         </g>
        </svg>
</svg>
