<?xml version="1.0" encoding="UTF-8" standalone="no"?>
<!DOCTYPE svg PUBLIC "-//W3C//DTD SVG 1.1//EN"
 "http://www.w3.org/Graphics/SVG/1.1/DTD/svg11.dtd">
<!-- Generated by graphviz version 2.38.0 (20140413.2041)
 -->
<!-- Title: init_color Pages: 1 -->
<svg width="296pt" height="104pt"
 viewBox="0.00 0.00 296.00 104.00" xmlns="http://www.w3.org/2000/svg" xmlns:xlink="http://www.w3.org/1999/xlink">
<g id="graph0" class="graph" transform="scale(1 1) rotate(0) translate(4 100)">
<title>init_color</title>
<polygon fill="white" stroke="none" points="-4,4 -4,-100 292,-100 292,4 -4,4"/>
<!-- Node1 -->
<g id="node1" class="node"><title>Node1</title>
<polygon fill="#bfbfbf" stroke="black" points="0,-38.5 0,-57.5 59,-57.5 59,-38.5 0,-38.5"/>
<text text-anchor="middle" x="29.5" y="-45.5" font-family="Helvetica,sans-Serif" font-size="10.00">init_color</text>
</g>
<!-- Node2 -->
<g id="node2" class="node"><title>Node2</title>
<g id="a_node2"><a xlink:href="../../d9/dbb/dither_8c.html#af497d70ad3165f9bd58878047ba22f03" target="_top" xlink:title="dithermap">
<polygon fill="white" stroke="black" points="101.5,-76.5 101.5,-95.5 165.5,-95.5 165.5,-76.5 101.5,-76.5"/>
<text text-anchor="middle" x="133.5" y="-83.5" font-family="Helvetica,sans-Serif" font-size="10.00">dithermap</text>
</a>
</g>
</g>
<!-- Node1&#45;&gt;Node2 -->
<g id="edge1" class="edge"><title>Node1&#45;&gt;Node2</title>
<path fill="none" stroke="midnightblue" d="M56.2389,-57.589C68.6813,-62.2244 83.8075,-67.8596 97.2975,-72.8853"/>
<polygon fill="midnightblue" stroke="midnightblue" points="96.1766,-76.2027 106.769,-76.4141 98.6204,-69.6431 96.1766,-76.2027"/>
</g>
<!-- Node3 -->
<g id="node3" class="node"><title>Node3</title>
<g id="a_node3"><a xlink:href="../../d9/dbb/dither_8c.html#a7ff23fcd77b62deab9304ffd3d684f47" target="_top" xlink:title="make_square">
<polygon fill="white" stroke="black" points="208,-38.5 208,-57.5 288,-57.5 288,-38.5 208,-38.5"/>
<text text-anchor="middle" x="248" y="-45.5" font-family="Helvetica,sans-Serif" font-size="10.00">make_square</text>
</a>
</g>
</g>
<!-- Node1&#45;&gt;Node3 -->
<g id="edge5" class="edge"><title>Node1&#45;&gt;Node3</title>
<path fill="none" stroke="midnightblue" d="M59.2495,-48C94.5286,-48 154.915,-48 197.668,-48"/>
<polygon fill="midnightblue" stroke="midnightblue" points="197.86,-51.5001 207.86,-48 197.86,-44.5001 197.86,-51.5001"/>
</g>
<!-- Node4 -->
<g id="node4" class="node"><title>Node4</title>
<g id="a_node4"><a xlink:href="../../d9/dbb/dither_8c.html#afad378428af71918afb13247f60d0594" target="_top" xlink:title="bwdithermap">
<polygon fill="white" stroke="black" points="95,-0.5 95,-19.5 172,-19.5 172,-0.5 95,-0.5"/>
<text text-anchor="middle" x="133.5" y="-7.5" font-family="Helvetica,sans-Serif" font-size="10.00">bwdithermap</text>
</a>
</g>
</g>
<!-- Node1&#45;&gt;Node4 -->
<g id="edge3" class="edge"><title>Node1&#45;&gt;Node4</title>
<path fill="none" stroke="midnightblue" d="M56.2389,-38.411C68.6813,-33.7756 83.8075,-28.1404 97.2975,-23.1147"/>
<polygon fill="midnightblue" stroke="midnightblue" points="98.6204,-26.3569 106.769,-19.5859 96.1766,-19.7973 98.6204,-26.3569"/>
</g>
<!-- Node2&#45;&gt;Node3 -->
<g id="edge2" class="edge"><title>Node2&#45;&gt;Node3</title>
<path fill="none" stroke="midnightblue" d="M162.889,-76.411C176.878,-71.6856 193.944,-65.9211 209.038,-60.8226"/>
<polygon fill="midnightblue" stroke="midnightblue" points="210.267,-64.1021 218.621,-57.5859 208.026,-57.4702 210.267,-64.1021"/>
</g>
<!-- Node4&#45;&gt;Node3 -->
<g id="edge4" class="edge"><title>Node4&#45;&gt;Node3</title>
<path fill="none" stroke="midnightblue" d="M162.889,-19.589C176.878,-24.3144 193.944,-30.0789 209.038,-35.1774"/>
<polygon fill="midnightblue" stroke="midnightblue" points="208.026,-38.5298 218.621,-38.4141 210.267,-31.8979 208.026,-38.5298"/>
</g>
</g>
</svg>
