<?xml version="1.0" encoding="UTF-8" standalone="no"?>
<!DOCTYPE svg PUBLIC "-//W3C//DTD SVG 1.1//EN"
 "http://www.w3.org/Graphics/SVG/1.1/DTD/svg11.dtd">
<!-- Generated by graphviz version 2.38.0 (20140413.2041)
 -->
<!-- Title: lib/Runput.c Pages: 1 -->
<svg width="240pt" height="252pt"
 viewBox="0.00 0.00 239.50 252.00" xmlns="http://www.w3.org/2000/svg" xmlns:xlink="http://www.w3.org/1999/xlink">
<g id="graph0" class="graph" transform="scale(1 1) rotate(0) translate(4 248)">
<title>lib/Runput.c</title>
<polygon fill="white" stroke="none" points="-4,4 -4,-248 235.5,-248 235.5,4 -4,4"/>
<!-- Node1 -->
<g id="node1" class="node"><title>Node1</title>
<polygon fill="#bfbfbf" stroke="black" points="73.5,-224.5 73.5,-243.5 143.5,-243.5 143.5,-224.5 73.5,-224.5"/>
<text text-anchor="middle" x="108.5" y="-231.5" font-family="Helvetica,sans-Serif" font-size="10.00">lib/Runput.c</text>
</g>
<!-- Node2 -->
<g id="node2" class="node"><title>Node2</title>
<polygon fill="white" stroke="#bfbfbf" points="0,-56.5 0,-75.5 47,-75.5 47,-56.5 0,-56.5"/>
<text text-anchor="middle" x="23.5" y="-63.5" font-family="Helvetica,sans-Serif" font-size="10.00">stdio.h</text>
</g>
<!-- Node1&#45;&gt;Node2 -->
<g id="edge1" class="edge"><title>Node1&#45;&gt;Node2</title>
<path fill="none" stroke="midnightblue" d="M87.786,-224.388C72.7249,-217.005 53.1766,-204.877 42.5,-188 22.487,-156.365 21.0136,-111.021 22.0456,-85.7812"/>
<polygon fill="midnightblue" stroke="midnightblue" points="25.544,-85.9093 22.6384,-75.7207 18.5561,-85.4974 25.544,-85.9093"/>
</g>
<!-- Node3 -->
<g id="node3" class="node"><title>Node3</title>
<g id="a_node3"><a xlink:href="../../d0/d6e/rle__put_8h.html" target="_top" xlink:title="rle_put.h">
<polygon fill="white" stroke="black" points="52,-168.5 52,-187.5 109,-187.5 109,-168.5 52,-168.5"/>
<text text-anchor="middle" x="80.5" y="-175.5" font-family="Helvetica,sans-Serif" font-size="10.00">rle_put.h</text>
</a>
</g>
</g>
<!-- Node1&#45;&gt;Node3 -->
<g id="edge2" class="edge"><title>Node1&#45;&gt;Node3</title>
<path fill="none" stroke="midnightblue" d="M103.876,-224.083C100.044,-216.691 94.4758,-205.953 89.7354,-196.811"/>
<polygon fill="midnightblue" stroke="midnightblue" points="92.748,-195.018 85.0376,-187.751 86.5337,-198.24 92.748,-195.018"/>
</g>
<!-- Node4 -->
<g id="node4" class="node"><title>Node4</title>
<g id="a_node4"><a xlink:href="../../d7/d27/rle_8h.html" target="_top" xlink:title="rle.h">
<polygon fill="white" stroke="black" points="72,-112.5 72,-131.5 109,-131.5 109,-112.5 72,-112.5"/>
<text text-anchor="middle" x="90.5" y="-119.5" font-family="Helvetica,sans-Serif" font-size="10.00">rle.h</text>
</a>
</g>
</g>
<!-- Node1&#45;&gt;Node4 -->
<g id="edge8" class="edge"><title>Node1&#45;&gt;Node4</title>
<path fill="none" stroke="midnightblue" d="M112.114,-224.44C116.908,-211.868 124.146,-187.761 118.5,-168 115.598,-157.844 109.668,-147.747 104.01,-139.699"/>
<polygon fill="midnightblue" stroke="midnightblue" points="106.719,-137.479 97.9124,-131.589 101.124,-141.685 106.719,-137.479"/>
</g>
<!-- Node8 -->
<g id="node8" class="node"><title>Node8</title>
<g id="a_node8"><a xlink:href="../../da/d8d/rle__code_8h.html" target="_top" xlink:title="rle_code.h">
<polygon fill="white" stroke="black" points="165.5,-168.5 165.5,-187.5 231.5,-187.5 231.5,-168.5 165.5,-168.5"/>
<text text-anchor="middle" x="198.5" y="-175.5" font-family="Helvetica,sans-Serif" font-size="10.00">rle_code.h</text>
</a>
</g>
</g>
<!-- Node1&#45;&gt;Node8 -->
<g id="edge9" class="edge"><title>Node1&#45;&gt;Node8</title>
<path fill="none" stroke="midnightblue" d="M122.96,-224.324C137,-215.9 158.548,-202.971 175.043,-193.074"/>
<polygon fill="midnightblue" stroke="midnightblue" points="177.302,-195.801 184.076,-187.655 173.7,-189.798 177.302,-195.801"/>
</g>
<!-- Node3&#45;&gt;Node4 -->
<g id="edge3" class="edge"><title>Node3&#45;&gt;Node4</title>
<path fill="none" stroke="midnightblue" d="M82.1513,-168.083C83.4764,-160.927 85.3824,-150.635 87.0387,-141.691"/>
<polygon fill="midnightblue" stroke="midnightblue" points="90.4999,-142.221 88.8794,-131.751 83.617,-140.947 90.4999,-142.221"/>
</g>
<!-- Node4&#45;&gt;Node2 -->
<g id="edge7" class="edge"><title>Node4&#45;&gt;Node2</title>
<path fill="none" stroke="midnightblue" d="M79.7353,-112.324C69.7339,-104.263 54.6135,-92.0765 42.5695,-82.3695"/>
<polygon fill="midnightblue" stroke="midnightblue" points="44.4429,-79.3841 34.4606,-75.8339 40.0502,-84.8343 44.4429,-79.3841"/>
</g>
<!-- Node5 -->
<g id="node5" class="node"><title>Node5</title>
<g id="a_node5"><a xlink:href="../../df/dad/rle__config_8h.html" target="_top" xlink:title="rle_config.h">
<polygon fill="white" stroke="black" points="65,-56.5 65,-75.5 136,-75.5 136,-56.5 65,-56.5"/>
<text text-anchor="middle" x="100.5" y="-63.5" font-family="Helvetica,sans-Serif" font-size="10.00">rle_config.h</text>
</a>
</g>
</g>
<!-- Node4&#45;&gt;Node5 -->
<g id="edge4" class="edge"><title>Node4&#45;&gt;Node5</title>
<path fill="none" stroke="midnightblue" d="M92.1513,-112.083C93.4764,-104.927 95.3824,-94.6353 97.0387,-85.6911"/>
<polygon fill="midnightblue" stroke="midnightblue" points="100.5,-86.2212 98.8794,-75.7511 93.617,-84.9466 100.5,-86.2212"/>
</g>
<!-- Node6 -->
<g id="node6" class="node"><title>Node6</title>
<polygon fill="white" stroke="#bfbfbf" points="42,-0.5 42,-19.5 91,-19.5 91,-0.5 42,-0.5"/>
<text text-anchor="middle" x="66.5" y="-7.5" font-family="Helvetica,sans-Serif" font-size="10.00">stdlib.h</text>
</g>
<!-- Node5&#45;&gt;Node6 -->
<g id="edge5" class="edge"><title>Node5&#45;&gt;Node6</title>
<path fill="none" stroke="midnightblue" d="M94.8856,-56.083C90.1326,-48.5341 83.1819,-37.4948 77.3484,-28.2298"/>
<polygon fill="midnightblue" stroke="midnightblue" points="80.2999,-26.3486 72.0099,-19.7511 74.3763,-30.0783 80.2999,-26.3486"/>
</g>
<!-- Node7 -->
<g id="node7" class="node"><title>Node7</title>
<polygon fill="white" stroke="#bfbfbf" points="109,-0.5 109,-19.5 160,-19.5 160,-0.5 109,-0.5"/>
<text text-anchor="middle" x="134.5" y="-7.5" font-family="Helvetica,sans-Serif" font-size="10.00">string.h</text>
</g>
<!-- Node5&#45;&gt;Node7 -->
<g id="edge6" class="edge"><title>Node5&#45;&gt;Node7</title>
<path fill="none" stroke="midnightblue" d="M106.114,-56.083C110.867,-48.5341 117.818,-37.4948 123.652,-28.2298"/>
<polygon fill="midnightblue" stroke="midnightblue" points="126.624,-30.0783 128.99,-19.7511 120.7,-26.3486 126.624,-30.0783"/>
</g>
</g>
</svg>
