<?xml version="1.0" encoding="UTF-8" standalone="no"?>
<!DOCTYPE svg PUBLIC "-//W3C//DTD SVG 1.1//EN"
 "http://www.w3.org/Graphics/SVG/1.1/DTD/svg11.dtd">
<!-- Generated by graphviz version 2.38.0 (20140413.2041)
 -->
<!-- Title: get/next/RLE.m Pages: 1 -->
<!--zoomable 252 -->
<svg id="main" version="1.1" xmlns="http://www.w3.org/2000/svg" xmlns:xlink="http://www.w3.org/1999/xlink" xml:space="preserve" onload="init(evt)">
<style type="text/css"><![CDATA[
.edge:hover path { stroke: red; }
.edge:hover polygon { stroke: red; fill: red; }
]]></style>
<script type="text/javascript"><![CDATA[
var edges = document.getElementsByTagName('g');
if (edges && edges.length) {
  for (var i=0;i<edges.length;i++) {
    if (edges[i].id.substr(0,4)=='edge') {
      edges[i].setAttribute('class','edge');
    }
  }
}
]]></script>
        <defs>
                <circle id="rim" cx="0" cy="0" r="7"/>
                <circle id="rim2" cx="0" cy="0" r="3.5"/>
                <g id="zoomPlus">
                        <use xlink:href="#rim" fill="#404040">
                                <set attributeName="fill" to="#808080" begin="zoomplus.mouseover" end="zoomplus.mouseout"/>
                        </use>
                        <path d="M-4,0h8M0,-4v8" fill="none" stroke="white" stroke-width="1.5" pointer-events="none"/>
                </g>
                <g id="zoomMin">
                        <use xlink:href="#rim" fill="#404040">
                                <set attributeName="fill" to="#808080" begin="zoomminus.mouseover" end="zoomminus.mouseout"/>
                        </use>
                        <path d="M-4,0h8" fill="none" stroke="white" stroke-width="1.5" pointer-events="none"/>
                </g>
                <g id="dirArrow">
                        <path fill="none" stroke="white" stroke-width="1.5" d="M0,-3.0v7 M-2.5,-0.5L0,-3.0L2.5,-0.5"/>
                </g>
               <g id="resetDef">
                       <use xlink:href="#rim2" fill="#404040">
                               <set attributeName="fill" to="#808080" begin="reset.mouseover" end="reset.mouseout"/>
                       </use>
               </g>
        </defs>

<script type="text/javascript">
var viewWidth = 903;
var viewHeight = 252;
var sectionId = 'dynsection-0';
</script>
<script xlink:href="../../svgpan.js"/>
<svg id="graph" class="graph">
<g id="viewport">
<title>get/next/RLE.m</title>
<polygon fill="white" stroke="none" points="-4,4 -4,-248 898.719,-248 898.719,4 -4,4"/>
<!-- Node1 -->
<g id="node1" class="node"><title>Node1</title>
<polygon fill="#bfbfbf" stroke="black" points="438.219,-224.5 438.219,-243.5 527.219,-243.5 527.219,-224.5 438.219,-224.5"/>
<text text-anchor="middle" x="482.719" y="-231.5" font-family="Helvetica,sans-Serif" font-size="10.00">get/next/RLE.m</text>
</g>
<!-- Node2 -->
<g id="node2" class="node"><title>Node2</title>
<g id="a_node2"><a xlink:href="../../d8/d0f/RLE_8h.html" target="_top" xlink:title="RLE.h">
<polygon fill="white" stroke="black" points="326.219,-168.5 326.219,-187.5 371.219,-187.5 371.219,-168.5 326.219,-168.5"/>
<text text-anchor="middle" x="348.719" y="-175.5" font-family="Helvetica,sans-Serif" font-size="10.00">RLE.h</text>
</a>
</g>
</g>
<!-- Node1&#45;&gt;Node2 -->
<g id="edge1" class="edge"><title>Node1&#45;&gt;Node2</title>
<path fill="none" stroke="midnightblue" d="M461.486,-224.444C439.335,-215.517 404.4,-201.439 379.282,-191.317"/>
<polygon fill="midnightblue" stroke="midnightblue" points="380.435,-188.008 369.852,-187.516 377.819,-194.501 380.435,-188.008"/>
</g>
<!-- Node5 -->
<g id="node5" class="node"><title>Node5</title>
<polygon fill="white" stroke="#bfbfbf" points="166.219,-0.5 166.219,-19.5 215.219,-19.5 215.219,-0.5 166.219,-0.5"/>
<text text-anchor="middle" x="190.719" y="-7.5" font-family="Helvetica,sans-Serif" font-size="10.00">stdlib.h</text>
</g>
<!-- Node1&#45;&gt;Node5 -->
<g id="edge12" class="edge"><title>Node1&#45;&gt;Node5</title>
<path fill="none" stroke="midnightblue" d="M438.008,-228.492C386.299,-222.515 299.015,-210.056 226.719,-188 168.104,-170.118 155.204,-160.05 100.719,-132 57.1422,-109.566 30.0323,-118.556 5.7185,-76 -26.6891,-19.2774 93.4414,-11.0699 155.634,-10.516"/>
<polygon fill="midnightblue" stroke="midnightblue" points="155.815,-14.0156 165.805,-10.4888 155.796,-7.01567 155.815,-14.0156"/>
</g>
<!-- Node6 -->
<g id="node6" class="node"><title>Node6</title>
<polygon fill="white" stroke="#bfbfbf" points="373.219,-0.5 373.219,-19.5 424.219,-19.5 424.219,-0.5 373.219,-0.5"/>
<text text-anchor="middle" x="398.719" y="-7.5" font-family="Helvetica,sans-Serif" font-size="10.00">string.h</text>
</g>
<!-- Node1&#45;&gt;Node6 -->
<g id="edge13" class="edge"><title>Node1&#45;&gt;Node6</title>
<path fill="none" stroke="midnightblue" d="M481.549,-224.441C477.186,-193.259 461.261,-85.9994 444.719,-56 438.358,-44.465 428.098,-34.0097 418.881,-26.0864"/>
<polygon fill="midnightblue" stroke="midnightblue" points="420.819,-23.1517 410.85,-19.5635 416.406,-28.5851 420.819,-23.1517"/>
</g>
<!-- Node7 -->
<g id="node7" class="node"><title>Node7</title>
<polygon fill="white" stroke="#bfbfbf" points="388.219,-56.5 388.219,-75.5 435.219,-75.5 435.219,-56.5 388.219,-56.5"/>
<text text-anchor="middle" x="411.719" y="-63.5" font-family="Helvetica,sans-Serif" font-size="10.00">stdio.h</text>
</g>
<!-- Node1&#45;&gt;Node7 -->
<g id="edge11" class="edge"><title>Node1&#45;&gt;Node7</title>
<path fill="none" stroke="midnightblue" d="M473.25,-224.229C464.626,-215.742 452.138,-202.121 444.719,-188 427.058,-154.387 418.145,-110.422 414.257,-85.8048"/>
<polygon fill="midnightblue" stroke="midnightblue" points="417.687,-85.0693 412.773,-75.6828 410.761,-86.0848 417.687,-85.0693"/>
</g>
<!-- Node9 -->
<g id="node9" class="node"><title>Node9</title>
<polygon fill="white" stroke="#bfbfbf" points="14.7185,-56.5 14.7185,-75.5 62.7185,-75.5 62.7185,-56.5 14.7185,-56.5"/>
<text text-anchor="middle" x="38.7185" y="-63.5" font-family="Helvetica,sans-Serif" font-size="10.00">zone.h</text>
</g>
<!-- Node1&#45;&gt;Node9 -->
<g id="edge15" class="edge"><title>Node1&#45;&gt;Node9</title>
<path fill="none" stroke="midnightblue" d="M437.969,-224.481C370.77,-210.678 240.799,-180.031 138.719,-132 108.823,-117.933 77.3455,-96.15 57.8723,-81.7342"/>
<polygon fill="midnightblue" stroke="midnightblue" points="59.9159,-78.8919 49.8186,-75.6834 55.7112,-84.4884 59.9159,-78.8919"/>
</g>
<!-- Node12 -->
<g id="node12" class="node"><title>Node12</title>
<polygon fill="white" stroke="#bfbfbf" points="486.719,-168.5 486.719,-187.5 526.719,-187.5 526.719,-168.5 486.719,-168.5"/>
<text text-anchor="middle" x="506.719" y="-175.5" font-family="Helvetica,sans-Serif" font-size="10.00">libc.h</text>
</g>
<!-- Node1&#45;&gt;Node12 -->
<g id="edge14" class="edge"><title>Node1&#45;&gt;Node12</title>
<path fill="none" stroke="midnightblue" d="M486.682,-224.083C489.932,-216.77 494.638,-206.181 498.673,-197.103"/>
<polygon fill="midnightblue" stroke="midnightblue" points="501.966,-198.311 502.829,-187.751 495.569,-195.468 501.966,-198.311"/>
</g>
<!-- Node13 -->
<g id="node13" class="node"><title>Node13</title>
<polygon fill="white" stroke="#bfbfbf" points="544.719,-168.5 544.719,-187.5 594.719,-187.5 594.719,-168.5 544.719,-168.5"/>
<text text-anchor="middle" x="569.719" y="-175.5" font-family="Helvetica,sans-Serif" font-size="10.00">mach.h</text>
</g>
<!-- Node1&#45;&gt;Node13 -->
<g id="edge16" class="edge"><title>Node1&#45;&gt;Node13</title>
<path fill="none" stroke="midnightblue" d="M496.697,-224.324C510.268,-215.9 531.099,-202.971 547.043,-193.074"/>
<polygon fill="midnightblue" stroke="midnightblue" points="549.125,-195.902 555.775,-187.655 545.433,-189.954 549.125,-195.902"/>
</g>
<!-- Node14 -->
<g id="node14" class="node"><title>Node14</title>
<polygon fill="white" stroke="#bfbfbf" points="612.719,-168.5 612.719,-187.5 706.719,-187.5 706.719,-168.5 612.719,-168.5"/>
<text text-anchor="middle" x="659.719" y="-175.5" font-family="Helvetica,sans-Serif" font-size="10.00">appkit/Window.h</text>
</g>
<!-- Node1&#45;&gt;Node14 -->
<g id="edge17" class="edge"><title>Node1&#45;&gt;Node14</title>
<path fill="none" stroke="midnightblue" d="M510.765,-224.444C540.8,-215.28 588.631,-200.688 621.961,-190.519"/>
<polygon fill="midnightblue" stroke="midnightblue" points="623.26,-193.782 631.804,-187.516 621.217,-187.087 623.26,-193.782"/>
</g>
<!-- Node15 -->
<g id="node15" class="node"><title>Node15</title>
<polygon fill="white" stroke="#bfbfbf" points="725.219,-168.5 725.219,-187.5 808.219,-187.5 808.219,-168.5 725.219,-168.5"/>
<text text-anchor="middle" x="766.719" y="-175.5" font-family="Helvetica,sans-Serif" font-size="10.00">appkit/Panel.h</text>
</g>
<!-- Node1&#45;&gt;Node15 -->
<g id="edge18" class="edge"><title>Node1&#45;&gt;Node15</title>
<path fill="none" stroke="midnightblue" d="M527.406,-224.503C578.328,-214.821 661.42,-199.022 715.074,-188.82"/>
<polygon fill="midnightblue" stroke="midnightblue" points="715.894,-192.227 725.064,-186.92 714.586,-185.35 715.894,-192.227"/>
</g>
<!-- Node16 -->
<g id="node16" class="node"><title>Node16</title>
<polygon fill="white" stroke="#bfbfbf" points="826.719,-168.5 826.719,-187.5 894.719,-187.5 894.719,-168.5 826.719,-168.5"/>
<text text-anchor="middle" x="860.719" y="-175.5" font-family="Helvetica,sans-Serif" font-size="10.00">appkit/tiff.h</text>
</g>
<!-- Node1&#45;&gt;Node16 -->
<g id="edge19" class="edge"><title>Node1&#45;&gt;Node16</title>
<path fill="none" stroke="midnightblue" d="M527.31,-228.057C589.771,-220.903 707.061,-206.631 816.599,-188.088"/>
<polygon fill="midnightblue" stroke="midnightblue" points="817.226,-191.532 826.494,-186.398 816.047,-184.632 817.226,-191.532"/>
</g>
<!-- Node3 -->
<g id="node3" class="node"><title>Node3</title>
<g id="a_node3"><a xlink:href="../../d7/d27/rle_8h.html" target="_top" xlink:title="rle.h">
<polygon fill="white" stroke="black" points="330.219,-112.5 330.219,-131.5 367.219,-131.5 367.219,-112.5 330.219,-112.5"/>
<text text-anchor="middle" x="348.719" y="-119.5" font-family="Helvetica,sans-Serif" font-size="10.00">rle.h</text>
</a>
</g>
</g>
<!-- Node2&#45;&gt;Node3 -->
<g id="edge2" class="edge"><title>Node2&#45;&gt;Node3</title>
<path fill="none" stroke="midnightblue" d="M348.719,-168.083C348.719,-161.006 348.719,-150.861 348.719,-141.986"/>
<polygon fill="midnightblue" stroke="midnightblue" points="352.219,-141.751 348.719,-131.751 345.219,-141.751 352.219,-141.751"/>
</g>
<!-- Node8 -->
<g id="node8" class="node"><title>Node8</title>
<g id="a_node8"><a xlink:href="../../d8/d0f/Image_8h.html" target="_top" xlink:title="Image.h">
<polygon fill="white" stroke="black" points="147.719,-112.5 147.719,-131.5 201.719,-131.5 201.719,-112.5 147.719,-112.5"/>
<text text-anchor="middle" x="174.719" y="-119.5" font-family="Helvetica,sans-Serif" font-size="10.00">Image.h</text>
</a>
</g>
</g>
<!-- Node2&#45;&gt;Node8 -->
<g id="edge7" class="edge"><title>Node2&#45;&gt;Node8</title>
<path fill="none" stroke="midnightblue" d="M325.971,-169.94C296.878,-160.911 246.125,-145.161 211.504,-134.416"/>
<polygon fill="midnightblue" stroke="midnightblue" points="212.348,-131.013 201.76,-131.392 210.273,-137.699 212.348,-131.013"/>
</g>
<!-- Node4 -->
<g id="node4" class="node"><title>Node4</title>
<g id="a_node4"><a xlink:href="../../df/dad/rle__config_8h.html" target="_top" xlink:title="rle_config.h">
<polygon fill="white" stroke="black" points="299.219,-56.5 299.219,-75.5 370.219,-75.5 370.219,-56.5 299.219,-56.5"/>
<text text-anchor="middle" x="334.719" y="-63.5" font-family="Helvetica,sans-Serif" font-size="10.00">rle_config.h</text>
</a>
</g>
</g>
<!-- Node3&#45;&gt;Node4 -->
<g id="edge3" class="edge"><title>Node3&#45;&gt;Node4</title>
<path fill="none" stroke="midnightblue" d="M346.407,-112.083C344.551,-104.927 341.883,-94.6353 339.564,-85.6911"/>
<polygon fill="midnightblue" stroke="midnightblue" points="342.885,-84.5527 336.987,-75.7511 336.109,-86.3094 342.885,-84.5527"/>
</g>
<!-- Node3&#45;&gt;Node7 -->
<g id="edge6" class="edge"><title>Node3&#45;&gt;Node7</title>
<path fill="none" stroke="midnightblue" d="M358.841,-112.324C368.245,-104.263 382.463,-92.0765 393.787,-82.3695"/>
<polygon fill="midnightblue" stroke="midnightblue" points="396.097,-84.9993 401.412,-75.8339 391.542,-79.6844 396.097,-84.9993"/>
</g>
<!-- Node4&#45;&gt;Node5 -->
<g id="edge4" class="edge"><title>Node4&#45;&gt;Node5</title>
<path fill="none" stroke="midnightblue" d="M311.901,-56.4435C287.887,-47.4381 249.89,-33.1891 222.849,-23.049"/>
<polygon fill="midnightblue" stroke="midnightblue" points="224.021,-19.7506 213.429,-19.5164 221.563,-26.3049 224.021,-19.7506"/>
</g>
<!-- Node4&#45;&gt;Node6 -->
<g id="edge5" class="edge"><title>Node4&#45;&gt;Node6</title>
<path fill="none" stroke="midnightblue" d="M345.001,-56.324C354.555,-48.2631 368.998,-36.0765 380.503,-26.3695"/>
<polygon fill="midnightblue" stroke="midnightblue" points="382.863,-28.9577 388.249,-19.8339 378.349,-23.6076 382.863,-28.9577"/>
</g>
<!-- Node8&#45;&gt;Node9 -->
<g id="edge8" class="edge"><title>Node8&#45;&gt;Node9</title>
<path fill="none" stroke="midnightblue" d="M153.169,-112.444C130.687,-103.517 95.2308,-89.4387 69.7386,-79.3168"/>
<polygon fill="midnightblue" stroke="midnightblue" points="70.7531,-75.9539 60.1673,-75.5164 68.1698,-82.4598 70.7531,-75.9539"/>
</g>
<!-- Node10 -->
<g id="node10" class="node"><title>Node10</title>
<polygon fill="white" stroke="#bfbfbf" points="178.219,-56.5 178.219,-75.5 281.219,-75.5 281.219,-56.5 178.219,-56.5"/>
<text text-anchor="middle" x="229.719" y="-63.5" font-family="Helvetica,sans-Serif" font-size="10.00">streams/streams.h</text>
</g>
<!-- Node8&#45;&gt;Node10 -->
<g id="edge9" class="edge"><title>Node8&#45;&gt;Node10</title>
<path fill="none" stroke="midnightblue" d="M183.801,-112.083C191.89,-104.141 203.914,-92.3354 213.629,-82.7973"/>
<polygon fill="midnightblue" stroke="midnightblue" points="216.122,-85.2545 220.805,-75.7511 211.218,-80.2595 216.122,-85.2545"/>
</g>
<!-- Node11 -->
<g id="node11" class="node"><title>Node11</title>
<polygon fill="white" stroke="#bfbfbf" points="81.2185,-56.5 81.2185,-75.5 160.219,-75.5 160.219,-56.5 81.2185,-56.5"/>
<text text-anchor="middle" x="120.719" y="-63.5" font-family="Helvetica,sans-Serif" font-size="10.00">appkit/View.h</text>
</g>
<!-- Node8&#45;&gt;Node11 -->
<g id="edge10" class="edge"><title>Node8&#45;&gt;Node11</title>
<path fill="none" stroke="midnightblue" d="M165.801,-112.083C157.938,-104.22 146.287,-92.5688 136.8,-83.0813"/>
<polygon fill="midnightblue" stroke="midnightblue" points="139.016,-80.3473 129.47,-75.7511 134.066,-85.2971 139.016,-80.3473"/>
</g>
</g>
</svg>
        <g id="navigator" transform="translate(0 0)" fill="#404254">
                <rect fill="#f2f5e9" fill-opacity="0.5" stroke="#606060" stroke-width=".5" x="0" y="0" width="60" height="60"/>
                <use id="zoomplus" xlink:href="#zoomPlus" x="17" y="9" onmousedown="handleZoom(evt,'in')"/>
                <use id="zoomminus" xlink:href="#zoomMin" x="42" y="9" onmousedown="handleZoom(evt,'out')"/>
                <use id="reset" xlink:href="#resetDef" x="30" y="36" onmousedown="handleReset()"/>
                <g id="arrowUp" xlink:href="#dirArrow" transform="translate(30 24)" onmousedown="handlePan(0,-1)">
                  <use xlink:href="#rim" fill="#404040">
                        <set attributeName="fill" to="#808080" begin="arrowUp.mouseover" end="arrowUp.mouseout"/>
                  </use>
                  <path fill="none" stroke="white" stroke-width="1.5" d="M0,-3.0v7 M-2.5,-0.5L0,-3.0L2.5,-0.5"/>
                </g>
                <g id="arrowRight" xlink:href="#dirArrow" transform="rotate(90) translate(36 -43)" onmousedown="handlePan(1,0)">
                  <use xlink:href="#rim" fill="#404040">
                        <set attributeName="fill" to="#808080" begin="arrowRight.mouseover" end="arrowRight.mouseout"/>
                  </use>
                  <path fill="none" stroke="white" stroke-width="1.5" d="M0,-3.0v7 M-2.5,-0.5L0,-3.0L2.5,-0.5"/>
                </g>
                <g id="arrowDown" xlink:href="#dirArrow" transform="rotate(180) translate(-30 -48)" onmousedown="handlePan(0,1)">
                  <use xlink:href="#rim" fill="#404040">
                        <set attributeName="fill" to="#808080" begin="arrowDown.mouseover" end="arrowDown.mouseout"/>
                  </use>
                  <path fill="none" stroke="white" stroke-width="1.5" d="M0,-3.0v7 M-2.5,-0.5L0,-3.0L2.5,-0.5"/>
                </g>
                <g id="arrowLeft" xlink:href="#dirArrow" transform="rotate(270) translate(-36 17)" onmousedown="handlePan(-1,0)">
                  <use xlink:href="#rim" fill="#404040">
                        <set attributeName="fill" to="#808080" begin="arrowLeft.mouseover" end="arrowLeft.mouseout"/>
                  </use>
                  <path fill="none" stroke="white" stroke-width="1.5" d="M0,-3.0v7 M-2.5,-0.5L0,-3.0L2.5,-0.5"/>
                </g>
        </g>
        <svg viewBox="0 0 15 15" width="100%" height="30px" preserveAspectRatio="xMaxYMin meet">
         <g id="arrow_out" transform="scale(0.3 0.3)">
          <a xlink:href="RLE_8m__incl_org.svg" target="_base">
           <rect id="button" ry="5" rx="5" y="6" x="6" height="38" width="38"
                fill="#f2f5e9" fill-opacity="0.5" stroke="#606060" stroke-width="1.0"/>
           <path id="arrow"
             d="M 11.500037,31.436501 C 11.940474,20.09759 22.043105,11.32322 32.158766,21.979434 L 37.068811,17.246167 C 37.068811,17.246167 37.088388,32 37.088388,32 L 22.160133,31.978069 C 22.160133,31.978069 26.997745,27.140456 26.997745,27.140456 C 18.528582,18.264221 13.291696,25.230495 11.500037,31.436501 z"
             style="fill:#404040;"/>
          </a>
         </g>
        </svg>
</svg>
