<?xml version="1.0" encoding="UTF-8" standalone="no"?>
<!DOCTYPE svg PUBLIC "-//W3C//DTD SVG 1.1//EN"
 "http://www.w3.org/Graphics/SVG/1.1/DTD/svg11.dtd">
<!-- Generated by graphviz version 2.38.0 (20140413.2041)
 -->
<!-- Title: RLE.m Pages: 1 -->
<svg width="879pt" height="196pt"
 viewBox="0.00 0.00 878.50 196.00" xmlns="http://www.w3.org/2000/svg" xmlns:xlink="http://www.w3.org/1999/xlink">
<g id="graph0" class="graph" transform="scale(1 1) rotate(0) translate(4 192)">
<title>RLE.m</title>
<polygon fill="white" stroke="none" points="-4,4 -4,-192 874.5,-192 874.5,4 -4,4"/>
<!-- Node1 -->
<g id="node1" class="node"><title>Node1</title>
<polygon fill="#bfbfbf" stroke="black" points="427,-168.5 427,-187.5 474,-187.5 474,-168.5 427,-168.5"/>
<text text-anchor="middle" x="450.5" y="-175.5" font-family="Helvetica,sans-Serif" font-size="10.00">RLE.m</text>
</g>
<!-- Node2 -->
<g id="node2" class="node"><title>Node2</title>
<g id="a_node2"><a xlink:href="../../d8/d0f/RLE_8h.html" target="_top" xlink:title="RLE.h">
<polygon fill="white" stroke="black" points="136,-112.5 136,-131.5 181,-131.5 181,-112.5 136,-112.5"/>
<text text-anchor="middle" x="158.5" y="-119.5" font-family="Helvetica,sans-Serif" font-size="10.00">RLE.h</text>
</a>
</g>
</g>
<!-- Node1&#45;&gt;Node2 -->
<g id="edge1" class="edge"><title>Node1&#45;&gt;Node2</title>
<path fill="none" stroke="midnightblue" d="M426.604,-172.581C374.436,-162.933 250.29,-139.975 191.045,-129.019"/>
<polygon fill="midnightblue" stroke="midnightblue" points="191.575,-125.557 181.105,-127.18 190.302,-132.441 191.575,-125.557"/>
</g>
<!-- Node6 -->
<g id="node6" class="node"><title>Node6</title>
<polygon fill="white" stroke="#bfbfbf" points="218.5,-0.5 218.5,-19.5 266.5,-19.5 266.5,-0.5 218.5,-0.5"/>
<text text-anchor="middle" x="242.5" y="-7.5" font-family="Helvetica,sans-Serif" font-size="10.00">zone.h</text>
</g>
<!-- Node1&#45;&gt;Node6 -->
<g id="edge11" class="edge"><title>Node1&#45;&gt;Node6</title>
<path fill="none" stroke="midnightblue" d="M426.929,-175.109C379.307,-170.767 274.219,-158.362 251.5,-132 226.832,-103.378 232.315,-55.4599 237.806,-29.339"/>
<polygon fill="midnightblue" stroke="midnightblue" points="241.215,-30.1317 240.073,-19.5986 234.397,-28.5453 241.215,-30.1317"/>
</g>
<!-- Node8 -->
<g id="node8" class="node"><title>Node8</title>
<polygon fill="white" stroke="#bfbfbf" points="261,-112.5 261,-131.5 308,-131.5 308,-112.5 261,-112.5"/>
<text text-anchor="middle" x="284.5" y="-119.5" font-family="Helvetica,sans-Serif" font-size="10.00">stdio.h</text>
</g>
<!-- Node1&#45;&gt;Node8 -->
<g id="edge7" class="edge"><title>Node1&#45;&gt;Node8</title>
<path fill="none" stroke="midnightblue" d="M426.716,-169.263C398.241,-160 350.364,-144.426 318.116,-133.935"/>
<polygon fill="midnightblue" stroke="midnightblue" points="318.832,-130.488 308.24,-130.723 316.666,-137.144 318.832,-130.488"/>
</g>
<!-- Node9 -->
<g id="node9" class="node"><title>Node9</title>
<polygon fill="white" stroke="#bfbfbf" points="326,-112.5 326,-131.5 375,-131.5 375,-112.5 326,-112.5"/>
<text text-anchor="middle" x="350.5" y="-119.5" font-family="Helvetica,sans-Serif" font-size="10.00">stdlib.h</text>
</g>
<!-- Node1&#45;&gt;Node9 -->
<g id="edge8" class="edge"><title>Node1&#45;&gt;Node9</title>
<path fill="none" stroke="midnightblue" d="M434.433,-168.324C418.542,-159.743 393.993,-146.486 375.542,-136.522"/>
<polygon fill="midnightblue" stroke="midnightblue" points="376.989,-133.326 366.527,-131.655 373.663,-139.486 376.989,-133.326"/>
</g>
<!-- Node10 -->
<g id="node10" class="node"><title>Node10</title>
<polygon fill="white" stroke="#bfbfbf" points="393,-112.5 393,-131.5 444,-131.5 444,-112.5 393,-112.5"/>
<text text-anchor="middle" x="418.5" y="-119.5" font-family="Helvetica,sans-Serif" font-size="10.00">string.h</text>
</g>
<!-- Node1&#45;&gt;Node10 -->
<g id="edge9" class="edge"><title>Node1&#45;&gt;Node10</title>
<path fill="none" stroke="midnightblue" d="M445.216,-168.083C440.789,-160.613 434.337,-149.724 428.882,-140.52"/>
<polygon fill="midnightblue" stroke="midnightblue" points="431.795,-138.57 423.686,-131.751 425.773,-142.138 431.795,-138.57"/>
</g>
<!-- Node11 -->
<g id="node11" class="node"><title>Node11</title>
<polygon fill="white" stroke="#bfbfbf" points="462.5,-112.5 462.5,-131.5 502.5,-131.5 502.5,-112.5 462.5,-112.5"/>
<text text-anchor="middle" x="482.5" y="-119.5" font-family="Helvetica,sans-Serif" font-size="10.00">libc.h</text>
</g>
<!-- Node1&#45;&gt;Node11 -->
<g id="edge10" class="edge"><title>Node1&#45;&gt;Node11</title>
<path fill="none" stroke="midnightblue" d="M455.784,-168.083C460.211,-160.613 466.663,-149.724 472.118,-140.52"/>
<polygon fill="midnightblue" stroke="midnightblue" points="475.227,-142.138 477.314,-131.751 469.205,-138.57 475.227,-142.138"/>
</g>
<!-- Node12 -->
<g id="node12" class="node"><title>Node12</title>
<polygon fill="white" stroke="#bfbfbf" points="520.5,-112.5 520.5,-131.5 570.5,-131.5 570.5,-112.5 520.5,-112.5"/>
<text text-anchor="middle" x="545.5" y="-119.5" font-family="Helvetica,sans-Serif" font-size="10.00">mach.h</text>
</g>
<!-- Node1&#45;&gt;Node12 -->
<g id="edge12" class="edge"><title>Node1&#45;&gt;Node12</title>
<path fill="none" stroke="midnightblue" d="M465.763,-168.324C480.721,-159.822 503.755,-146.729 521.227,-136.797"/>
<polygon fill="midnightblue" stroke="midnightblue" points="523.31,-139.639 530.274,-131.655 519.851,-133.553 523.31,-139.639"/>
</g>
<!-- Node13 -->
<g id="node13" class="node"><title>Node13</title>
<polygon fill="white" stroke="#bfbfbf" points="588.5,-112.5 588.5,-131.5 682.5,-131.5 682.5,-112.5 588.5,-112.5"/>
<text text-anchor="middle" x="635.5" y="-119.5" font-family="Helvetica,sans-Serif" font-size="10.00">appkit/Window.h</text>
</g>
<!-- Node1&#45;&gt;Node13 -->
<g id="edge13" class="edge"><title>Node1&#45;&gt;Node13</title>
<path fill="none" stroke="midnightblue" d="M474.307,-170.051C505.171,-161.042 559.41,-145.21 596.37,-134.422"/>
<polygon fill="midnightblue" stroke="midnightblue" points="597.684,-137.684 606.303,-131.522 595.722,-130.965 597.684,-137.684"/>
</g>
<!-- Node14 -->
<g id="node14" class="node"><title>Node14</title>
<polygon fill="white" stroke="#bfbfbf" points="701,-112.5 701,-131.5 784,-131.5 784,-112.5 701,-112.5"/>
<text text-anchor="middle" x="742.5" y="-119.5" font-family="Helvetica,sans-Serif" font-size="10.00">appkit/Panel.h</text>
</g>
<!-- Node1&#45;&gt;Node14 -->
<g id="edge14" class="edge"><title>Node1&#45;&gt;Node14</title>
<path fill="none" stroke="midnightblue" d="M474.396,-172.581C521.522,-163.866 627.387,-144.288 691.083,-132.509"/>
<polygon fill="midnightblue" stroke="midnightblue" points="691.732,-135.948 700.929,-130.688 690.459,-129.065 691.732,-135.948"/>
</g>
<!-- Node15 -->
<g id="node15" class="node"><title>Node15</title>
<polygon fill="white" stroke="#bfbfbf" points="802.5,-112.5 802.5,-131.5 870.5,-131.5 870.5,-112.5 802.5,-112.5"/>
<text text-anchor="middle" x="836.5" y="-119.5" font-family="Helvetica,sans-Serif" font-size="10.00">appkit/tiff.h</text>
</g>
<!-- Node1&#45;&gt;Node15 -->
<g id="edge15" class="edge"><title>Node1&#45;&gt;Node15</title>
<path fill="none" stroke="midnightblue" d="M474.296,-174.508C528.725,-168.673 666.661,-153.131 792.114,-132.126"/>
<polygon fill="midnightblue" stroke="midnightblue" points="793.001,-135.526 802.277,-130.407 791.833,-128.624 793.001,-135.526"/>
</g>
<!-- Node3 -->
<g id="node3" class="node"><title>Node3</title>
<polygon fill="white" stroke="#bfbfbf" points="76,-56.5 76,-75.5 113,-75.5 113,-56.5 76,-56.5"/>
<text text-anchor="middle" x="94.5" y="-63.5" font-family="Helvetica,sans-Serif" font-size="10.00">rle.h</text>
</g>
<!-- Node2&#45;&gt;Node3 -->
<g id="edge2" class="edge"><title>Node2&#45;&gt;Node3</title>
<path fill="none" stroke="midnightblue" d="M148.217,-112.324C138.664,-104.263 124.22,-92.0765 112.716,-82.3695"/>
<polygon fill="midnightblue" stroke="midnightblue" points="114.87,-79.6076 104.97,-75.8339 110.356,-84.9577 114.87,-79.6076"/>
</g>
<!-- Node4 -->
<g id="node4" class="node"><title>Node4</title>
<g id="a_node4"><a xlink:href="../../d8/d0f/Image_8h.html" target="_top" xlink:title="Image.h">
<polygon fill="white" stroke="black" points="131.5,-56.5 131.5,-75.5 185.5,-75.5 185.5,-56.5 131.5,-56.5"/>
<text text-anchor="middle" x="158.5" y="-63.5" font-family="Helvetica,sans-Serif" font-size="10.00">Image.h</text>
</a>
</g>
</g>
<!-- Node2&#45;&gt;Node4 -->
<g id="edge3" class="edge"><title>Node2&#45;&gt;Node4</title>
<path fill="none" stroke="midnightblue" d="M158.5,-112.083C158.5,-105.006 158.5,-94.8611 158.5,-85.9865"/>
<polygon fill="midnightblue" stroke="midnightblue" points="162,-85.751 158.5,-75.7511 155,-85.7511 162,-85.751"/>
</g>
<!-- Node5 -->
<g id="node5" class="node"><title>Node5</title>
<polygon fill="white" stroke="#bfbfbf" points="0,-0.5 0,-19.5 79,-19.5 79,-0.5 0,-0.5"/>
<text text-anchor="middle" x="39.5" y="-7.5" font-family="Helvetica,sans-Serif" font-size="10.00">appkit/View.h</text>
</g>
<!-- Node4&#45;&gt;Node5 -->
<g id="edge4" class="edge"><title>Node4&#45;&gt;Node5</title>
<path fill="none" stroke="midnightblue" d="M139.644,-56.4435C120.234,-47.6356 89.7699,-33.8116 67.5355,-23.722"/>
<polygon fill="midnightblue" stroke="midnightblue" points="68.8203,-20.4615 58.2677,-19.5164 65.9277,-26.836 68.8203,-20.4615"/>
</g>
<!-- Node4&#45;&gt;Node6 -->
<g id="edge5" class="edge"><title>Node4&#45;&gt;Node6</title>
<path fill="none" stroke="midnightblue" d="M171.996,-56.324C185.1,-47.9002 205.212,-34.9709 220.607,-25.0741"/>
<polygon fill="midnightblue" stroke="midnightblue" points="222.518,-28.0063 229.037,-19.6545 218.733,-22.118 222.518,-28.0063"/>
</g>
<!-- Node7 -->
<g id="node7" class="node"><title>Node7</title>
<polygon fill="white" stroke="#bfbfbf" points="97,-0.5 97,-19.5 200,-19.5 200,-0.5 97,-0.5"/>
<text text-anchor="middle" x="148.5" y="-7.5" font-family="Helvetica,sans-Serif" font-size="10.00">streams/streams.h</text>
</g>
<!-- Node4&#45;&gt;Node7 -->
<g id="edge6" class="edge"><title>Node4&#45;&gt;Node7</title>
<path fill="none" stroke="midnightblue" d="M156.849,-56.083C155.524,-48.9272 153.618,-38.6353 151.961,-29.6911"/>
<polygon fill="midnightblue" stroke="midnightblue" points="155.383,-28.9466 150.121,-19.7511 148.5,-30.2212 155.383,-28.9466"/>
</g>
</g>
</svg>
