<?xml version="1.0" encoding="UTF-8" standalone="no"?>
<!DOCTYPE svg PUBLIC "-//W3C//DTD SVG 1.1//EN"
 "http://www.w3.org/Graphics/SVG/1.1/DTD/svg11.dtd">
<!-- Generated by graphviz version 2.38.0 (20140413.2041)
 -->
<!-- Title: main Pages: 1 -->
<!--zoomable 722 -->
<svg id="main" version="1.1" xmlns="http://www.w3.org/2000/svg" xmlns:xlink="http://www.w3.org/1999/xlink" xml:space="preserve" onload="init(evt)">
<style type="text/css"><![CDATA[
.edge:hover path { stroke: red; }
.edge:hover polygon { stroke: red; fill: red; }
]]></style>
<script type="text/javascript"><![CDATA[
var edges = document.getElementsByTagName('g');
if (edges && edges.length) {
  for (var i=0;i<edges.length;i++) {
    if (edges[i].id.substr(0,4)=='edge') {
      edges[i].setAttribute('class','edge');
    }
  }
}
]]></script>
        <defs>
                <circle id="rim" cx="0" cy="0" r="7"/>
                <circle id="rim2" cx="0" cy="0" r="3.5"/>
                <g id="zoomPlus">
                        <use xlink:href="#rim" fill="#404040">
                                <set attributeName="fill" to="#808080" begin="zoomplus.mouseover" end="zoomplus.mouseout"/>
                        </use>
                        <path d="M-4,0h8M0,-4v8" fill="none" stroke="white" stroke-width="1.5" pointer-events="none"/>
                </g>
                <g id="zoomMin">
                        <use xlink:href="#rim" fill="#404040">
                                <set attributeName="fill" to="#808080" begin="zoomminus.mouseover" end="zoomminus.mouseout"/>
                        </use>
                        <path d="M-4,0h8" fill="none" stroke="white" stroke-width="1.5" pointer-events="none"/>
                </g>
                <g id="dirArrow">
                        <path fill="none" stroke="white" stroke-width="1.5" d="M0,-3.0v7 M-2.5,-0.5L0,-3.0L2.5,-0.5"/>
                </g>
               <g id="resetDef">
                       <use xlink:href="#rim2" fill="#404040">
                               <set attributeName="fill" to="#808080" begin="reset.mouseover" end="reset.mouseout"/>
                       </use>
               </g>
        </defs>

<script type="text/javascript">
var viewWidth = 658;
var viewHeight = 722;
var sectionId = 'dynsection-3';
</script>
<script xlink:href="../../svgpan.js"/>
<svg id="graph" class="graph">
<g id="viewport">
<title>main</title>
<polygon fill="white" stroke="none" points="-4,4 -4,-718.155 654,-718.155 654,4 -4,4"/>
<!-- Node1 -->
<g id="node1" class="node"><title>Node1</title>
<polygon fill="#bfbfbf" stroke="black" points="0,-304.5 0,-323.5 39,-323.5 39,-304.5 0,-304.5"/>
<text text-anchor="middle" x="19.5" y="-311.5" font-family="Helvetica,sans-Serif" font-size="10.00">main</text>
</g>
<!-- Node2 -->
<g id="node2" class="node"><title>Node2</title>
<g id="a_node2"><a xlink:href="../../d2/df3/rle__hdr_8c.html#a8ba0e5b11d1e39ab7227f1686e676c86" target="_top" xlink:title="rle_hdr_init">
<polygon fill="white" stroke="black" points="216,-418.5 216,-437.5 286,-437.5 286,-418.5 216,-418.5"/>
<text text-anchor="middle" x="251" y="-425.5" font-family="Helvetica,sans-Serif" font-size="10.00">rle_hdr_init</text>
</a>
</g>
</g>
<!-- Node1&#45;&gt;Node2 -->
<g id="edge1" class="edge"><title>Node1&#45;&gt;Node2</title>
<path fill="none" stroke="midnightblue" d="M23.2378,-323.563C29.1914,-342.459 45.2308,-384.441 75,-404 113.771,-429.474 167.83,-433.222 205.569,-432.026"/>
<polygon fill="midnightblue" stroke="midnightblue" points="205.921,-435.514 215.755,-431.571 205.609,-428.521 205.921,-435.514"/>
</g>
<!-- Node5 -->
<g id="node5" class="node"><title>Node5</title>
<g id="a_node5"><a xlink:href="../../d2/df3/rle__hdr_8c.html#afc916e29aea8788e0878ca315ff69821" target="_top" xlink:title="rle_hdr_cp">
<polygon fill="white" stroke="black" points="335.5,-380.5 335.5,-399.5 403.5,-399.5 403.5,-380.5 335.5,-380.5"/>
<text text-anchor="middle" x="369.5" y="-387.5" font-family="Helvetica,sans-Serif" font-size="10.00">rle_hdr_cp</text>
</a>
</g>
</g>
<!-- Node1&#45;&gt;Node5 -->
<g id="edge32" class="edge"><title>Node1&#45;&gt;Node5</title>
<path fill="none" stroke="midnightblue" d="M27.3026,-323.721C36.5222,-336.01 54.2388,-356.685 75,-366 157.505,-403.019 266.114,-400.34 325.367,-395.148"/>
<polygon fill="midnightblue" stroke="midnightblue" points="325.862,-398.617 335.489,-394.193 325.205,-391.648 325.862,-398.617"/>
</g>
<!-- Node6 -->
<g id="node6" class="node"><title>Node6</title>
<g id="a_node6"><a xlink:href="../../d0/dcc/rletorla_8c.html#ab7e36af3707843f77cc5b4e831c2fa6d" target="_top" xlink:title="malloc">
<polygon fill="white" stroke="black" points="593.5,-342.5 593.5,-361.5 640.5,-361.5 640.5,-342.5 593.5,-342.5"/>
<text text-anchor="middle" x="617" y="-349.5" font-family="Helvetica,sans-Serif" font-size="10.00">malloc</text>
</a>
</g>
</g>
<!-- Node1&#45;&gt;Node6 -->
<g id="edge14" class="edge"><title>Node1&#45;&gt;Node6</title>
<path fill="none" stroke="midnightblue" d="M39.2416,-314C78.3901,-314 171.707,-314 250,-314 250,-314 250,-314 370.5,-314 447.485,-314 536.469,-332.475 583.291,-343.661"/>
<polygon fill="midnightblue" stroke="midnightblue" points="582.623,-347.1 593.167,-346.062 584.277,-340.299 582.623,-347.1"/>
</g>
<!-- Node7 -->
<g id="node7" class="node"><title>Node7</title>
<g id="a_node7"><a xlink:href="../../d2/df3/rle__hdr_8c.html#a82e79385f2d45cc3b80ce0f4f369eae5" target="_top" xlink:title="rle_names">
<polygon fill="white" stroke="black" points="464,-380.5 464,-399.5 530,-399.5 530,-380.5 464,-380.5"/>
<text text-anchor="middle" x="497" y="-387.5" font-family="Helvetica,sans-Serif" font-size="10.00">rle_names</text>
</a>
</g>
</g>
<!-- Node1&#45;&gt;Node7 -->
<g id="edge15" class="edge"><title>Node1&#45;&gt;Node7</title>
<path fill="none" stroke="midnightblue" d="M39.0367,-319.37C49.5201,-322.253 62.9115,-325.681 75,-328 222.422,-356.284 262.119,-345.227 410,-371 424.425,-373.514 440.091,-376.806 454.052,-379.941"/>
<polygon fill="midnightblue" stroke="midnightblue" points="453.345,-383.37 463.874,-382.184 454.904,-376.546 453.345,-383.37"/>
</g>
<!-- Node8 -->
<g id="node8" class="node"><title>Node8</title>
<g id="a_node8"><a xlink:href="../../d4/db0/scanargs_8c.html#a7ea6d702c0484056c8504d6ce7fede08" target="_top" xlink:title="scanargs">
<polygon fill="white" stroke="black" points="94,-190.5 94,-209.5 154,-209.5 154,-190.5 94,-190.5"/>
<text text-anchor="middle" x="124" y="-197.5" font-family="Helvetica,sans-Serif" font-size="10.00">scanargs</text>
</a>
</g>
</g>
<!-- Node1&#45;&gt;Node8 -->
<g id="edge10" class="edge"><title>Node1&#45;&gt;Node8</title>
<path fill="none" stroke="midnightblue" d="M24.1816,-304.396C31.453,-286.514 49.2186,-247.777 75,-224 78.9232,-220.382 83.4938,-217.181 88.2259,-214.393"/>
<polygon fill="midnightblue" stroke="midnightblue" points="90.1975,-217.309 97.3967,-209.536 86.9214,-211.123 90.1975,-217.309"/>
</g>
<!-- Node10 -->
<g id="node10" class="node"><title>Node10</title>
<g id="a_node10"><a xlink:href="../../d8/d30/cmd__name_8c.html#a271249070fdd12c176777c77d76f888f" target="_top" xlink:title="cmd_name">
<polygon fill="white" stroke="black" points="90,-152.5 90,-171.5 158,-171.5 158,-152.5 90,-152.5"/>
<text text-anchor="middle" x="124" y="-159.5" font-family="Helvetica,sans-Serif" font-size="10.00">cmd_name</text>
</a>
</g>
</g>
<!-- Node1&#45;&gt;Node10 -->
<g id="edge12" class="edge"><title>Node1&#45;&gt;Node10</title>
<path fill="none" stroke="midnightblue" d="M21.8503,-304.195C25.6813,-279.992 38.7891,-216.779 75,-181 76.8409,-179.181 78.8771,-177.531 81.0413,-176.034"/>
<polygon fill="midnightblue" stroke="midnightblue" points="82.9279,-178.987 89.8796,-170.992 79.4592,-172.907 82.9279,-178.987"/>
</g>
<!-- Node11 -->
<g id="node11" class="node"><title>Node11</title>
<g id="a_node11"><a xlink:href="../../d4/db0/scanargs_8c.html#adbfbdeb76ff8247a7be05c5666e09d95" target="_top" xlink:title="scan_usage">
<polygon fill="white" stroke="black" points="87,-114.5 87,-133.5 161,-133.5 161,-114.5 87,-114.5"/>
<text text-anchor="middle" x="124" y="-121.5" font-family="Helvetica,sans-Serif" font-size="10.00">scan_usage</text>
</a>
</g>
</g>
<!-- Node1&#45;&gt;Node11 -->
<g id="edge13" class="edge"><title>Node1&#45;&gt;Node11</title>
<path fill="none" stroke="midnightblue" d="M20.8004,-304.461C22.2006,-276.059 30.1273,-191.051 75,-143 76.2196,-141.694 77.5404,-140.476 78.9391,-139.341"/>
<polygon fill="midnightblue" stroke="midnightblue" points="81.1557,-142.075 87.6423,-133.698 77.3475,-136.202 81.1557,-142.075"/>
</g>
<!-- Node12 -->
<g id="node12" class="node"><title>Node12</title>
<g id="a_node12"><a xlink:href="../../de/d4e/rle__open__f_8c.html#a89733a45961817885603ae01210290b7" target="_top" xlink:title="rle_open_f">
<polygon fill="white" stroke="black" points="335.5,-684.5 335.5,-703.5 403.5,-703.5 403.5,-684.5 335.5,-684.5"/>
<text text-anchor="middle" x="369.5" y="-691.5" font-family="Helvetica,sans-Serif" font-size="10.00">rle_open_f</text>
</a>
</g>
</g>
<!-- Node1&#45;&gt;Node12 -->
<g id="edge16" class="edge"><title>Node1&#45;&gt;Node12</title>
<path fill="none" stroke="midnightblue" d="M20.5013,-323.56C20.718,-374.675 24.4419,-615.212 75,-664 141.86,-728.519 261.336,-716.665 325.29,-704.278"/>
<polygon fill="midnightblue" stroke="midnightblue" points="326.333,-707.638 335.436,-702.218 324.939,-700.778 326.333,-707.638"/>
</g>
<!-- Node15 -->
<g id="node15" class="node"><title>Node15</title>
<g id="a_node15"><a xlink:href="../../db/d53/rle__getrow_8c.html#a2d56ca99b896abbcb4d2f3f97c93a3ce" target="_top" xlink:title="rle_get_setup_ok">
<polygon fill="white" stroke="black" points="75,-456.5 75,-475.5 173,-475.5 173,-456.5 75,-456.5"/>
<text text-anchor="middle" x="124" y="-463.5" font-family="Helvetica,sans-Serif" font-size="10.00">rle_get_setup_ok</text>
</a>
</g>
</g>
<!-- Node1&#45;&gt;Node15 -->
<g id="edge21" class="edge"><title>Node1&#45;&gt;Node15</title>
<path fill="none" stroke="midnightblue" d="M22.221,-323.595C26.8204,-346.726 41.406,-406.287 75,-442 78.3355,-445.546 82.309,-448.644 86.5211,-451.33"/>
<polygon fill="midnightblue" stroke="midnightblue" points="84.9369,-454.454 95.3742,-456.274 88.35,-448.342 84.9369,-454.454"/>
</g>
<!-- Node19 -->
<g id="node19" class="node"><title>Node19</title>
<g id="a_node19"><a xlink:href="../../d4/d8c/rleinterp_8c.html#a3aecbbb68dcd31cfc32da90f23abefb8" target="_top" xlink:title="comp_hdr">
<polygon fill="white" stroke="black" points="92,-76.5 92,-95.5 156,-95.5 156,-76.5 92,-76.5"/>
<text text-anchor="middle" x="124" y="-83.5" font-family="Helvetica,sans-Serif" font-size="10.00">comp_hdr</text>
</a>
</g>
</g>
<!-- Node1&#45;&gt;Node19 -->
<g id="edge31" class="edge"><title>Node1&#45;&gt;Node19</title>
<path fill="none" stroke="midnightblue" d="M20.1344,-304.28C19.4443,-271.754 21.5684,-165.372 75,-105 77.3277,-102.37 80.0675,-100.1 83.0387,-98.1412"/>
<polygon fill="midnightblue" stroke="midnightblue" points="84.7143,-101.214 91.875,-93.4055 81.4077,-95.0444 84.7143,-101.214"/>
</g>
<!-- Node20 -->
<g id="node20" class="node"><title>Node20</title>
<g id="a_node20"><a xlink:href="../../da/dbc/rle__row__alc_8c.html#abf83029f1ab364a8cb72524f58d70a3b" target="_top" xlink:title="rle_row_alloc">
<polygon fill="white" stroke="black" points="457,-570.5 457,-589.5 537,-589.5 537,-570.5 457,-570.5"/>
<text text-anchor="middle" x="497" y="-577.5" font-family="Helvetica,sans-Serif" font-size="10.00">rle_row_alloc</text>
</a>
</g>
</g>
<!-- Node1&#45;&gt;Node20 -->
<g id="edge33" class="edge"><title>Node1&#45;&gt;Node20</title>
<path fill="none" stroke="midnightblue" d="M20.8285,-323.513C22.3071,-351.842 30.4302,-436.668 75,-485 171.866,-590.042 358.032,-591.304 446.704,-585.114"/>
<polygon fill="midnightblue" stroke="midnightblue" points="447.061,-588.597 456.767,-584.349 446.531,-581.617 447.061,-588.597"/>
</g>
<!-- Node21 -->
<g id="node21" class="node"><title>Node21</title>
<g id="a_node21"><a xlink:href="../../db/d53/rle__getrow_8c.html#a3602e1158189cba5e5b0f9b983cba776" target="_top" xlink:title="rle_getrow">
<polygon fill="white" stroke="black" points="90.5,-38.5 90.5,-57.5 157.5,-57.5 157.5,-38.5 90.5,-38.5"/>
<text text-anchor="middle" x="124" y="-45.5" font-family="Helvetica,sans-Serif" font-size="10.00">rle_getrow</text>
</a>
</g>
</g>
<!-- Node1&#45;&gt;Node21 -->
<g id="edge36" class="edge"><title>Node1&#45;&gt;Node21</title>
<path fill="none" stroke="midnightblue" d="M21.4281,-304.329C25.5396,-263.319 43.3216,-104.191 75,-67 76.9069,-64.7613 79.1136,-62.7843 81.5118,-61.0387"/>
<polygon fill="midnightblue" stroke="midnightblue" points="83.3667,-64.0088 90.2465,-55.9515 79.8438,-57.9599 83.3667,-64.0088"/>
</g>
<!-- Node24 -->
<g id="node24" class="node"><title>Node24</title>
<g id="a_node24"><a xlink:href="../../d8/def/rle__addhist_8c.html#a4f9433d6e4e203d0ecea1c7d3837afc3" target="_top" xlink:title="rle_addhist">
<polygon fill="white" stroke="black" points="335,-190.5 335,-209.5 404,-209.5 404,-190.5 335,-190.5"/>
<text text-anchor="middle" x="369.5" y="-197.5" font-family="Helvetica,sans-Serif" font-size="10.00">rle_addhist</text>
</a>
</g>
</g>
<!-- Node1&#45;&gt;Node24 -->
<g id="edge39" class="edge"><title>Node1&#45;&gt;Node24</title>
<path fill="none" stroke="midnightblue" d="M27.0928,-304.422C36.3388,-291.711 54.3577,-269.432 75,-257 128.03,-225.063 148.299,-231.143 209,-219 247.862,-211.226 292.733,-206.227 324.963,-203.319"/>
<polygon fill="midnightblue" stroke="midnightblue" points="325.302,-206.803 334.96,-202.447 324.693,-199.829 325.302,-206.803"/>
</g>
<!-- Node29 -->
<g id="node29" class="node"><title>Node29</title>
<g id="a_node29"><a xlink:href="../../d9/d2a/rle__putrow_8c.html#af88a82b331cd6f425d2a2cc1623944c6" target="_top" xlink:title="rle_put_setup">
<polygon fill="white" stroke="black" points="84,-0.5 84,-19.5 164,-19.5 164,-0.5 84,-0.5"/>
<text text-anchor="middle" x="124" y="-7.5" font-family="Helvetica,sans-Serif" font-size="10.00">rle_put_setup</text>
</a>
</g>
</g>
<!-- Node1&#45;&gt;Node29 -->
<g id="edge46" class="edge"><title>Node1&#45;&gt;Node29</title>
<path fill="none" stroke="midnightblue" d="M21.1143,-304.395C24.1483,-259.729 38.8638,-72.6574 75,-29 76.0001,-27.7918 77.0877,-26.6599 78.2463,-25.5997"/>
<polygon fill="midnightblue" stroke="midnightblue" points="80.6007,-28.2216 86.7456,-19.5908 76.5596,-22.5058 80.6007,-28.2216"/>
</g>
<!-- Node31 -->
<g id="node31" class="node"><title>Node31</title>
<g id="a_node31"><a xlink:href="../../d9/d2a/rle__putrow_8c.html#aa26532b01bc4f49b7383765cdc23ea72" target="_top" xlink:title="rle_putrow">
<polygon fill="white" stroke="black" points="91,-266.5 91,-285.5 157,-285.5 157,-266.5 91,-266.5"/>
<text text-anchor="middle" x="124" y="-273.5" font-family="Helvetica,sans-Serif" font-size="10.00">rle_putrow</text>
</a>
</g>
</g>
<!-- Node1&#45;&gt;Node31 -->
<g id="edge48" class="edge"><title>Node1&#45;&gt;Node31</title>
<path fill="none" stroke="midnightblue" d="M39.3001,-307.03C52.7969,-302.026 71.3946,-295.132 87.632,-289.112"/>
<polygon fill="midnightblue" stroke="midnightblue" points="89.2107,-292.26 97.3704,-285.502 86.7774,-285.696 89.2107,-292.26"/>
</g>
<!-- Node33 -->
<g id="node33" class="node"><title>Node33</title>
<g id="a_node33"><a xlink:href="../../d9/d2a/rle__putrow_8c.html#af4fab734a5d227ad2ae95840f56fff3b" target="_top" xlink:title="rle_puteof">
<polygon fill="white" stroke="black" points="337.5,-646.5 337.5,-665.5 401.5,-665.5 401.5,-646.5 337.5,-646.5"/>
<text text-anchor="middle" x="369.5" y="-653.5" font-family="Helvetica,sans-Serif" font-size="10.00">rle_puteof</text>
</a>
</g>
</g>
<!-- Node1&#45;&gt;Node33 -->
<g id="edge51" class="edge"><title>Node1&#45;&gt;Node33</title>
<path fill="none" stroke="midnightblue" d="M20.6621,-323.561C21.6873,-371.617 28.8274,-586.15 75,-629 143.571,-692.637 263.89,-679.152 327.073,-666.242"/>
<polygon fill="midnightblue" stroke="midnightblue" points="328.028,-669.617 337.076,-664.105 326.565,-662.772 328.028,-669.617"/>
</g>
<!-- Node34 -->
<g id="node34" class="node"><title>Node34</title>
<g id="a_node34"><a xlink:href="../../da/dbc/rle__row__alc_8c.html#a4fa936a985e542d42e91d272f9f6092d" target="_top" xlink:title="rle_row_free">
<polygon fill="white" stroke="black" points="331,-608.5 331,-627.5 408,-627.5 408,-608.5 331,-608.5"/>
<text text-anchor="middle" x="369.5" y="-615.5" font-family="Helvetica,sans-Serif" font-size="10.00">rle_row_free</text>
</a>
</g>
</g>
<!-- Node1&#45;&gt;Node34 -->
<g id="edge53" class="edge"><title>Node1&#45;&gt;Node34</title>
<path fill="none" stroke="midnightblue" d="M20.8777,-323.689C22.8459,-368.708 33.4862,-556.843 75,-594 142.619,-654.523 257.573,-642.654 321.711,-629.685"/>
<polygon fill="midnightblue" stroke="midnightblue" points="322.493,-633.097 331.553,-627.605 321.046,-626.249 322.493,-633.097"/>
</g>
<!-- Node3 -->
<g id="node3" class="node"><title>Node3</title>
<g id="a_node3"><a xlink:href="../../d2/df3/rle__hdr_8c.html#a16c4da6201b3b8cf55127b9ca968d253" target="_top" xlink:title="rle_hdr_clear">
<polygon fill="white" stroke="black" points="457,-532.5 457,-551.5 537,-551.5 537,-532.5 457,-532.5"/>
<text text-anchor="middle" x="497" y="-539.5" font-family="Helvetica,sans-Serif" font-size="10.00">rle_hdr_clear</text>
</a>
</g>
</g>
<!-- Node2&#45;&gt;Node3 -->
<g id="edge2" class="edge"><title>Node2&#45;&gt;Node3</title>
<path fill="none" stroke="midnightblue" d="M259.065,-437.522C276.247,-460.56 319.506,-517.795 329,-523 364.826,-542.641 411.419,-546.481 446.285,-545.929"/>
<polygon fill="midnightblue" stroke="midnightblue" points="446.808,-549.415 456.704,-545.629 446.607,-542.418 446.808,-549.415"/>
</g>
<!-- Node2&#45;&gt;Node5 -->
<g id="edge4" class="edge"><title>Node2&#45;&gt;Node5</title>
<path fill="none" stroke="midnightblue" d="M267.23,-418.301C281.965,-411.718 304.999,-403.601 325.378,-397.522"/>
<polygon fill="midnightblue" stroke="midnightblue" points="326.479,-400.847 335.121,-394.717 324.543,-394.12 326.479,-400.847"/>
</g>
<!-- Node4 -->
<g id="node4" class="node"><title>Node4</title>
<g id="a_node4"><a xlink:href="../../d0/dcc/rletorla_8c.html#aafde19f7d36ca163a143579c1b125b6d" target="_top" xlink:title="free">
<polygon fill="white" stroke="black" points="599.5,-570.5 599.5,-589.5 634.5,-589.5 634.5,-570.5 599.5,-570.5"/>
<text text-anchor="middle" x="617" y="-577.5" font-family="Helvetica,sans-Serif" font-size="10.00">free</text>
</a>
</g>
</g>
<!-- Node3&#45;&gt;Node4 -->
<g id="edge3" class="edge"><title>Node3&#45;&gt;Node4</title>
<path fill="none" stroke="midnightblue" d="M527.776,-551.589C546.813,-557.72 571.281,-565.599 589.618,-571.504"/>
<polygon fill="midnightblue" stroke="midnightblue" points="588.768,-574.907 599.359,-574.641 590.914,-568.244 588.768,-574.907"/>
</g>
<!-- Node5&#45;&gt;Node2 -->
<g id="edge5" class="edge"><title>Node5&#45;&gt;Node2</title>
<path fill="none" stroke="midnightblue" d="M353.656,-399.526C339.094,-406.07 316.168,-414.173 295.772,-420.284"/>
<polygon fill="midnightblue" stroke="midnightblue" points="294.643,-416.967 286.01,-423.108 296.589,-423.691 294.643,-416.967"/>
</g>
<!-- Node5&#45;&gt;Node6 -->
<g id="edge6" class="edge"><title>Node5&#45;&gt;Node6</title>
<path fill="none" stroke="midnightblue" d="M403.739,-380.603C416.824,-377.176 432.034,-373.526 446,-371 493.202,-362.463 548.515,-357.135 582.913,-354.365"/>
<polygon fill="midnightblue" stroke="midnightblue" points="583.612,-357.822 593.31,-353.555 583.068,-350.843 583.612,-357.822"/>
</g>
<!-- Node5&#45;&gt;Node7 -->
<g id="edge7" class="edge"><title>Node5&#45;&gt;Node7</title>
<path fill="none" stroke="midnightblue" d="M403.802,-390C419.052,-390 437.302,-390 453.526,-390"/>
<polygon fill="midnightblue" stroke="midnightblue" points="453.844,-393.5 463.844,-390 453.844,-386.5 453.844,-393.5"/>
</g>
<!-- Node7&#45;&gt;Node4 -->
<g id="edge8" class="edge"><title>Node7&#45;&gt;Node4</title>
<path fill="none" stroke="midnightblue" d="M508.034,-399.873C518.765,-410.769 535.875,-429.138 548,-447 573.845,-485.074 596.532,-534.267 608.021,-560.871"/>
<polygon fill="midnightblue" stroke="midnightblue" points="604.852,-562.361 611.986,-570.193 611.293,-559.621 604.852,-562.361"/>
</g>
<!-- Node7&#45;&gt;Node6 -->
<g id="edge9" class="edge"><title>Node7&#45;&gt;Node6</title>
<path fill="none" stroke="midnightblue" d="M527.776,-380.411C544.784,-374.934 566.127,-368.061 583.559,-362.447"/>
<polygon fill="midnightblue" stroke="midnightblue" points="584.864,-365.704 593.31,-359.307 582.718,-359.041 584.864,-365.704"/>
</g>
<!-- Node9 -->
<g id="node9" class="node"><title>Node9</title>
<g id="a_node9"><a xlink:href="../../d4/db0/scanargs_8c.html#a862219039664df6eb3cfced58addf830" target="_top" xlink:title="_do_scanargs">
<polygon fill="white" stroke="black" points="209,-152.5 209,-171.5 293,-171.5 293,-152.5 209,-152.5"/>
<text text-anchor="middle" x="251" y="-159.5" font-family="Helvetica,sans-Serif" font-size="10.00">_do_scanargs</text>
</a>
</g>
</g>
<!-- Node8&#45;&gt;Node9 -->
<g id="edge11" class="edge"><title>Node8&#45;&gt;Node9</title>
<path fill="none" stroke="midnightblue" d="M154.307,-191.091C170.624,-186.13 191.194,-179.877 209.077,-174.441"/>
<polygon fill="midnightblue" stroke="midnightblue" points="210.142,-177.775 218.692,-171.518 208.106,-171.078 210.142,-177.775"/>
</g>
<!-- Node13 -->
<g id="node13" class="node"><title>Node13</title>
<g id="a_node13"><a xlink:href="../../de/d4e/rle__open__f_8c.html#a5a0e62a00f907fce26e93b2f72adb2b0" target="_top" xlink:title="rle_open_f_noexit">
<polygon fill="white" stroke="black" points="446,-684.5 446,-703.5 548,-703.5 548,-684.5 446,-684.5"/>
<text text-anchor="middle" x="497" y="-691.5" font-family="Helvetica,sans-Serif" font-size="10.00">rle_open_f_noexit</text>
</a>
</g>
</g>
<!-- Node12&#45;&gt;Node13 -->
<g id="edge17" class="edge"><title>Node12&#45;&gt;Node13</title>
<path fill="none" stroke="midnightblue" d="M403.802,-694C413.699,-694 424.859,-694 435.909,-694"/>
<polygon fill="midnightblue" stroke="midnightblue" points="435.986,-697.5 445.986,-694 435.986,-690.5 435.986,-697.5"/>
</g>
<!-- Node13&#45;&gt;Node4 -->
<g id="edge20" class="edge"><title>Node13&#45;&gt;Node4</title>
<path fill="none" stroke="midnightblue" d="M523.795,-684.452C532.025,-680.691 540.845,-675.853 548,-670 573.011,-649.541 594.03,-618.067 605.812,-598.276"/>
<polygon fill="midnightblue" stroke="midnightblue" points="608.854,-600.007 610.832,-589.599 602.795,-596.502 608.854,-600.007"/>
</g>
<!-- Node13&#45;&gt;Node6 -->
<g id="edge19" class="edge"><title>Node13&#45;&gt;Node6</title>
<path fill="none" stroke="midnightblue" d="M503.982,-684.349C514.19,-667.545 535.115,-631.584 548,-599 580.43,-516.989 603.417,-413.842 612.134,-371.499"/>
<polygon fill="midnightblue" stroke="midnightblue" points="615.572,-372.159 614.126,-361.663 608.711,-370.769 615.572,-372.159"/>
</g>
<!-- Node14 -->
<g id="node14" class="node"><title>Node14</title>
<g id="a_node14"><a xlink:href="../../de/d4e/rle__open__f_8c.html#a84fda810ae9b9bde82a6391d0b264ead" target="_top" xlink:title="my_popen">
<polygon fill="white" stroke="black" points="584,-684.5 584,-703.5 650,-703.5 650,-684.5 584,-684.5"/>
<text text-anchor="middle" x="617" y="-691.5" font-family="Helvetica,sans-Serif" font-size="10.00">my_popen</text>
</a>
</g>
</g>
<!-- Node13&#45;&gt;Node14 -->
<g id="edge18" class="edge"><title>Node13&#45;&gt;Node14</title>
<path fill="none" stroke="midnightblue" d="M548.043,-694C556.523,-694 565.255,-694 573.518,-694"/>
<polygon fill="midnightblue" stroke="midnightblue" points="573.678,-697.5 583.678,-694 573.678,-690.5 573.678,-697.5"/>
</g>
<!-- Node15&#45;&gt;Node2 -->
<g id="edge22" class="edge"><title>Node15&#45;&gt;Node2</title>
<path fill="none" stroke="midnightblue" d="M156.543,-456.411C172.383,-451.596 191.773,-445.701 208.776,-440.532"/>
<polygon fill="midnightblue" stroke="midnightblue" points="209.918,-443.843 218.467,-437.586 207.882,-437.146 209.918,-443.843"/>
</g>
<!-- Node15&#45;&gt;Node7 -->
<g id="edge23" class="edge"><title>Node15&#45;&gt;Node7</title>
<path fill="none" stroke="midnightblue" d="M173.107,-462.63C206.871,-459.761 252.959,-454.833 293,-447 308.853,-443.899 399.355,-417.975 454.027,-402.176"/>
<polygon fill="midnightblue" stroke="midnightblue" points="455.158,-405.492 463.792,-399.352 453.213,-398.768 455.158,-405.492"/>
</g>
<!-- Node16 -->
<g id="node16" class="node"><title>Node16</title>
<g id="a_node16"><a xlink:href="../../d7/d24/rle__error_8c.html#af931d686cf3ca715c9b900527f0961c0" target="_top" xlink:title="rle_get_error">
<polygon fill="white" stroke="black" points="211.5,-494.5 211.5,-513.5 290.5,-513.5 290.5,-494.5 211.5,-494.5"/>
<text text-anchor="middle" x="251" y="-501.5" font-family="Helvetica,sans-Serif" font-size="10.00">rle_get_error</text>
</a>
</g>
</g>
<!-- Node15&#45;&gt;Node16 -->
<g id="edge24" class="edge"><title>Node15&#45;&gt;Node16</title>
<path fill="none" stroke="midnightblue" d="M156.543,-475.589C172.383,-480.404 191.773,-486.299 208.776,-491.468"/>
<polygon fill="midnightblue" stroke="midnightblue" points="207.882,-494.854 218.467,-494.414 209.918,-488.157 207.882,-494.854"/>
</g>
<!-- Node17 -->
<g id="node17" class="node"><title>Node17</title>
<g id="a_node17"><a xlink:href="../../db/d53/rle__getrow_8c.html#a619b27463c26e0a4a3d9648a9869ee52" target="_top" xlink:title="rle_get_setup">
<polygon fill="white" stroke="black" points="329,-494.5 329,-513.5 410,-513.5 410,-494.5 329,-494.5"/>
<text text-anchor="middle" x="369.5" y="-501.5" font-family="Helvetica,sans-Serif" font-size="10.00">rle_get_setup</text>
</a>
</g>
</g>
<!-- Node15&#45;&gt;Node17 -->
<g id="edge25" class="edge"><title>Node15&#45;&gt;Node17</title>
<path fill="none" stroke="midnightblue" d="M134.796,-475.625C149.467,-489.288 178.676,-513.683 209,-523 250.31,-535.693 300.054,-526.056 332.883,-516.473"/>
<polygon fill="midnightblue" stroke="midnightblue" points="333.965,-519.802 342.501,-513.525 331.914,-513.109 333.965,-519.802"/>
</g>
<!-- Node17&#45;&gt;Node3 -->
<g id="edge26" class="edge"><title>Node17&#45;&gt;Node3</title>
<path fill="none" stroke="midnightblue" d="M402.169,-513.589C418.073,-518.404 437.54,-524.299 454.611,-529.468"/>
<polygon fill="midnightblue" stroke="midnightblue" points="453.756,-532.866 464.341,-532.414 455.785,-526.166 453.756,-532.866"/>
</g>
<!-- Node17&#45;&gt;Node4 -->
<g id="edge29" class="edge"><title>Node17&#45;&gt;Node4</title>
<path fill="none" stroke="midnightblue" d="M410.227,-501.771C447.329,-501.162 503.509,-504.078 548,-523 568.896,-531.887 588.273,-549.438 600.953,-562.729"/>
<polygon fill="midnightblue" stroke="midnightblue" points="598.596,-565.337 607.936,-570.339 603.753,-560.604 598.596,-565.337"/>
</g>
<!-- Node17&#45;&gt;Node6 -->
<g id="edge28" class="edge"><title>Node17&#45;&gt;Node6</title>
<path fill="none" stroke="midnightblue" d="M387.892,-494.427C394.956,-490.287 403.069,-485.203 410,-480 427.358,-466.969 427.488,-458.332 446,-447 487.261,-421.743 506.19,-433.336 548,-409 567.184,-397.834 586.315,-381.179 599.376,-368.752"/>
<polygon fill="midnightblue" stroke="midnightblue" points="601.948,-371.133 606.669,-361.648 597.064,-366.118 601.948,-371.133"/>
</g>
<!-- Node17&#45;&gt;Node7 -->
<g id="edge27" class="edge"><title>Node17&#45;&gt;Node7</title>
<path fill="none" stroke="midnightblue" d="M390.862,-494.359C397.51,-490.539 404.571,-485.689 410,-480 433.069,-455.829 421.769,-437.007 446,-414 449.872,-410.324 454.413,-407.114 459.151,-404.341"/>
<polygon fill="midnightblue" stroke="midnightblue" points="461.125,-407.259 468.381,-399.539 457.894,-401.049 461.125,-407.259"/>
</g>
<!-- Node18 -->
<g id="node18" class="node"><title>Node18</title>
<g id="a_node18"><a xlink:href="../../db/d53/rle__getrow_8c.html#a0ea68aa2ebeef9d4cade7282553b03d6" target="_top" xlink:title="vax_gshort">
<polygon fill="white" stroke="black" points="462.5,-456.5 462.5,-475.5 531.5,-475.5 531.5,-456.5 462.5,-456.5"/>
<text text-anchor="middle" x="497" y="-463.5" font-family="Helvetica,sans-Serif" font-size="10.00">vax_gshort</text>
</a>
</g>
</g>
<!-- Node17&#45;&gt;Node18 -->
<g id="edge30" class="edge"><title>Node17&#45;&gt;Node18</title>
<path fill="none" stroke="midnightblue" d="M402.169,-494.411C418.073,-489.596 437.54,-483.701 454.611,-478.532"/>
<polygon fill="midnightblue" stroke="midnightblue" points="455.785,-481.834 464.341,-475.586 453.756,-475.134 455.785,-481.834"/>
</g>
<!-- Node20&#45;&gt;Node4 -->
<g id="edge35" class="edge"><title>Node20&#45;&gt;Node4</title>
<path fill="none" stroke="midnightblue" d="M537.292,-580C554.232,-580 573.621,-580 588.916,-580"/>
<polygon fill="midnightblue" stroke="midnightblue" points="589.236,-583.5 599.236,-580 589.236,-576.5 589.236,-583.5"/>
</g>
<!-- Node20&#45;&gt;Node6 -->
<g id="edge34" class="edge"><title>Node20&#45;&gt;Node6</title>
<path fill="none" stroke="midnightblue" d="M534.797,-570.483C539.687,-568.008 544.285,-564.9 548,-561 599.72,-506.703 612.106,-412.603 615.069,-371.81"/>
<polygon fill="midnightblue" stroke="midnightblue" points="618.565,-371.989 615.68,-361.794 611.578,-371.563 618.565,-371.989"/>
</g>
<!-- Node22 -->
<g id="node22" class="node"><title>Node22</title>
<g id="a_node22"><a xlink:href="../../db/d53/rle__getrow_8c.html#a61ac0da96b0dd8bc3cbc98afcd9b5c44" target="_top" xlink:title="bfill">
<polygon fill="white" stroke="black" points="235,-76.5 235,-95.5 267,-95.5 267,-76.5 235,-76.5"/>
<text text-anchor="middle" x="251" y="-83.5" font-family="Helvetica,sans-Serif" font-size="10.00">bfill</text>
</a>
</g>
</g>
<!-- Node21&#45;&gt;Node22 -->
<g id="edge37" class="edge"><title>Node21&#45;&gt;Node22</title>
<path fill="none" stroke="midnightblue" d="M156.543,-57.589C177.755,-64.0375 205.332,-72.4208 225.021,-78.4063"/>
<polygon fill="midnightblue" stroke="midnightblue" points="224.204,-81.8161 234.79,-81.3761 226.24,-75.1187 224.204,-81.8161"/>
</g>
<!-- Node23 -->
<g id="node23" class="node"><title>Node23</title>
<g id="a_node23"><a xlink:href="../../d8/d7c/rle__getskip_8c.html#af6b1e1dc0867e9340f90668591c7c5b3" target="_top" xlink:title="rle_getskip">
<polygon fill="white" stroke="black" points="217,-38.5 217,-57.5 285,-57.5 285,-38.5 217,-38.5"/>
<text text-anchor="middle" x="251" y="-45.5" font-family="Helvetica,sans-Serif" font-size="10.00">rle_getskip</text>
</a>
</g>
</g>
<!-- Node21&#45;&gt;Node23 -->
<g id="edge38" class="edge"><title>Node21&#45;&gt;Node23</title>
<path fill="none" stroke="midnightblue" d="M157.516,-48C172.47,-48 190.424,-48 206.519,-48"/>
<polygon fill="midnightblue" stroke="midnightblue" points="206.777,-51.5001 216.777,-48 206.777,-44.5001 206.777,-51.5001"/>
</g>
<!-- Node24&#45;&gt;Node6 -->
<g id="edge42" class="edge"><title>Node24&#45;&gt;Node6</title>
<path fill="none" stroke="midnightblue" d="M404.108,-209.207C448.74,-221.859 524.656,-244.983 548,-262 574.247,-281.133 595.028,-313.252 606.407,-333.499"/>
<polygon fill="midnightblue" stroke="midnightblue" points="603.377,-335.254 611.221,-342.376 609.531,-331.917 603.377,-335.254"/>
</g>
<!-- Node25 -->
<g id="node25" class="node"><title>Node25</title>
<g id="a_node25"><a xlink:href="../../db/db2/rle__getcom_8c.html#a9cefd612c381bf82c9cdf1f3a3b12dd6" target="_top" xlink:title="rle_getcom">
<polygon fill="white" stroke="black" points="462.5,-152.5 462.5,-171.5 531.5,-171.5 531.5,-152.5 462.5,-152.5"/>
<text text-anchor="middle" x="497" y="-159.5" font-family="Helvetica,sans-Serif" font-size="10.00">rle_getcom</text>
</a>
</g>
</g>
<!-- Node24&#45;&gt;Node25 -->
<g id="edge40" class="edge"><title>Node24&#45;&gt;Node25</title>
<path fill="none" stroke="midnightblue" d="M402.169,-190.411C418.073,-185.596 437.54,-179.701 454.611,-174.532"/>
<polygon fill="midnightblue" stroke="midnightblue" points="455.785,-177.834 464.341,-171.586 453.756,-171.134 455.785,-177.834"/>
</g>
<!-- Node27 -->
<g id="node27" class="node"><title>Node27</title>
<g id="a_node27"><a xlink:href="../../df/da5/rle__putcom_8c.html#a6fa8528c32d14763efe2a534e409e321" target="_top" xlink:title="rle_putcom">
<polygon fill="white" stroke="black" points="463,-190.5 463,-209.5 531,-209.5 531,-190.5 463,-190.5"/>
<text text-anchor="middle" x="497" y="-197.5" font-family="Helvetica,sans-Serif" font-size="10.00">rle_putcom</text>
</a>
</g>
</g>
<!-- Node24&#45;&gt;Node27 -->
<g id="edge43" class="edge"><title>Node24&#45;&gt;Node27</title>
<path fill="none" stroke="midnightblue" d="M404.132,-200C419.022,-200 436.722,-200 452.593,-200"/>
<polygon fill="midnightblue" stroke="midnightblue" points="452.711,-203.5 462.711,-200 452.711,-196.5 452.711,-203.5"/>
</g>
<!-- Node26 -->
<g id="node26" class="node"><title>Node26</title>
<g id="a_node26"><a xlink:href="../../db/db2/rle__getcom_8c.html#a7502c8b599724ce86fee5df1311a2337" target="_top" xlink:title="match">
<polygon fill="white" stroke="black" points="594.5,-152.5 594.5,-171.5 639.5,-171.5 639.5,-152.5 594.5,-152.5"/>
<text text-anchor="middle" x="617" y="-159.5" font-family="Helvetica,sans-Serif" font-size="10.00">match</text>
</a>
</g>
</g>
<!-- Node25&#45;&gt;Node26 -->
<g id="edge41" class="edge"><title>Node25&#45;&gt;Node26</title>
<path fill="none" stroke="midnightblue" d="M531.814,-162C548.35,-162 568.136,-162 584.37,-162"/>
<polygon fill="midnightblue" stroke="midnightblue" points="584.456,-165.5 594.456,-162 584.456,-158.5 584.456,-165.5"/>
</g>
<!-- Node27&#45;&gt;Node6 -->
<g id="edge44" class="edge"><title>Node27&#45;&gt;Node6</title>
<path fill="none" stroke="midnightblue" d="M525.92,-209.617C533.713,-213.251 541.749,-217.999 548,-224 580.531,-255.23 600.84,-305.463 610.097,-332.789"/>
<polygon fill="midnightblue" stroke="midnightblue" points="606.787,-333.929 613.201,-342.362 613.446,-331.769 606.787,-333.929"/>
</g>
<!-- Node28 -->
<g id="node28" class="node"><title>Node28</title>
<g id="a_node28"><a xlink:href="../../df/da5/rle__putcom_8c.html#a7502c8b599724ce86fee5df1311a2337" target="_top" xlink:title="match">
<polygon fill="white" stroke="black" points="594.5,-190.5 594.5,-209.5 639.5,-209.5 639.5,-190.5 594.5,-190.5"/>
<text text-anchor="middle" x="617" y="-197.5" font-family="Helvetica,sans-Serif" font-size="10.00">match</text>
</a>
</g>
</g>
<!-- Node27&#45;&gt;Node28 -->
<g id="edge45" class="edge"><title>Node27&#45;&gt;Node28</title>
<path fill="none" stroke="midnightblue" d="M531.184,-200C547.735,-200 567.664,-200 584.044,-200"/>
<polygon fill="midnightblue" stroke="midnightblue" points="584.224,-203.5 594.224,-200 584.224,-196.5 584.224,-203.5"/>
</g>
<!-- Node30 -->
<g id="node30" class="node"><title>Node30</title>
<g id="a_node30"><a xlink:href="../../d9/d2a/rle__putrow_8c.html#a46d9789104d5d1f09253a808fdad5346" target="_top" xlink:title="rle_put_init">
<polygon fill="white" stroke="black" points="217,-0.5 217,-19.5 285,-19.5 285,-0.5 217,-0.5"/>
<text text-anchor="middle" x="251" y="-7.5" font-family="Helvetica,sans-Serif" font-size="10.00">rle_put_init</text>
</a>
</g>
</g>
<!-- Node29&#45;&gt;Node30 -->
<g id="edge47" class="edge"><title>Node29&#45;&gt;Node30</title>
<path fill="none" stroke="midnightblue" d="M164.208,-10C177.673,-10 192.821,-10 206.599,-10"/>
<polygon fill="midnightblue" stroke="midnightblue" points="206.818,-13.5001 216.818,-10 206.818,-6.5001 206.818,-13.5001"/>
</g>
<!-- Node31&#45;&gt;Node6 -->
<g id="edge49" class="edge"><title>Node31&#45;&gt;Node6</title>
<path fill="none" stroke="midnightblue" d="M157.065,-271.607C229.468,-262.995 410.05,-248.898 548,-300 568.081,-307.439 587.1,-322.978 599.89,-335.142"/>
<polygon fill="midnightblue" stroke="midnightblue" points="597.432,-337.633 607.003,-342.177 602.355,-332.657 597.432,-337.633"/>
</g>
<!-- Node32 -->
<g id="node32" class="node"><title>Node32</title>
<g id="a_node32"><a xlink:href="../../d9/d2a/rle__putrow_8c.html#aaa4133bf4a6cbf287444448497631f26" target="_top" xlink:title="findruns">
<polygon fill="white" stroke="black" points="224,-228.5 224,-247.5 278,-247.5 278,-228.5 224,-228.5"/>
<text text-anchor="middle" x="251" y="-235.5" font-family="Helvetica,sans-Serif" font-size="10.00">findruns</text>
</a>
</g>
</g>
<!-- Node31&#45;&gt;Node32 -->
<g id="edge50" class="edge"><title>Node31&#45;&gt;Node32</title>
<path fill="none" stroke="midnightblue" d="M156.543,-266.411C174.118,-261.068 196.062,-254.397 214.269,-248.862"/>
<polygon fill="midnightblue" stroke="midnightblue" points="215.398,-252.177 223.948,-245.92 213.362,-245.48 215.398,-252.177"/>
</g>
<!-- Node33&#45;&gt;Node4 -->
<g id="edge52" class="edge"><title>Node33&#45;&gt;Node4</title>
<path fill="none" stroke="midnightblue" d="M401.801,-652.506C437.933,-647.788 498.712,-637.728 548,-619 564.072,-612.893 580.842,-603.315 593.707,-595.18"/>
<polygon fill="midnightblue" stroke="midnightblue" points="595.842,-597.967 602.318,-589.581 592.027,-592.098 595.842,-597.967"/>
</g>
<!-- Node34&#45;&gt;Node4 -->
<g id="edge54" class="edge"><title>Node34&#45;&gt;Node4</title>
<path fill="none" stroke="midnightblue" d="M408.166,-615.786C444.28,-613.237 500.214,-608.168 548,-599 561.919,-596.33 577.137,-592.195 589.64,-588.465"/>
<polygon fill="midnightblue" stroke="midnightblue" points="590.882,-591.745 599.417,-585.466 588.83,-585.052 590.882,-591.745"/>
</g>
</g>
</svg>
        <g id="navigator" transform="translate(0 0)" fill="#404254">
                <rect fill="#f2f5e9" fill-opacity="0.5" stroke="#606060" stroke-width=".5" x="0" y="0" width="60" height="60"/>
                <use id="zoomplus" xlink:href="#zoomPlus" x="17" y="9" onmousedown="handleZoom(evt,'in')"/>
                <use id="zoomminus" xlink:href="#zoomMin" x="42" y="9" onmousedown="handleZoom(evt,'out')"/>
                <use id="reset" xlink:href="#resetDef" x="30" y="36" onmousedown="handleReset()"/>
                <g id="arrowUp" xlink:href="#dirArrow" transform="translate(30 24)" onmousedown="handlePan(0,-1)">
                  <use xlink:href="#rim" fill="#404040">
                        <set attributeName="fill" to="#808080" begin="arrowUp.mouseover" end="arrowUp.mouseout"/>
                  </use>
                  <path fill="none" stroke="white" stroke-width="1.5" d="M0,-3.0v7 M-2.5,-0.5L0,-3.0L2.5,-0.5"/>
                </g>
                <g id="arrowRight" xlink:href="#dirArrow" transform="rotate(90) translate(36 -43)" onmousedown="handlePan(1,0)">
                  <use xlink:href="#rim" fill="#404040">
                        <set attributeName="fill" to="#808080" begin="arrowRight.mouseover" end="arrowRight.mouseout"/>
                  </use>
                  <path fill="none" stroke="white" stroke-width="1.5" d="M0,-3.0v7 M-2.5,-0.5L0,-3.0L2.5,-0.5"/>
                </g>
                <g id="arrowDown" xlink:href="#dirArrow" transform="rotate(180) translate(-30 -48)" onmousedown="handlePan(0,1)">
                  <use xlink:href="#rim" fill="#404040">
                        <set attributeName="fill" to="#808080" begin="arrowDown.mouseover" end="arrowDown.mouseout"/>
                  </use>
                  <path fill="none" stroke="white" stroke-width="1.5" d="M0,-3.0v7 M-2.5,-0.5L0,-3.0L2.5,-0.5"/>
                </g>
                <g id="arrowLeft" xlink:href="#dirArrow" transform="rotate(270) translate(-36 17)" onmousedown="handlePan(-1,0)">
                  <use xlink:href="#rim" fill="#404040">
                        <set attributeName="fill" to="#808080" begin="arrowLeft.mouseover" end="arrowLeft.mouseout"/>
                  </use>
                  <path fill="none" stroke="white" stroke-width="1.5" d="M0,-3.0v7 M-2.5,-0.5L0,-3.0L2.5,-0.5"/>
                </g>
        </g>
        <svg viewBox="0 0 15 15" width="100%" height="30px" preserveAspectRatio="xMaxYMin meet">
         <g id="arrow_out" transform="scale(0.3 0.3)">
          <a xlink:href="rleinterp_8c_a5ea466849f21e6c2be4ef9b2eb8868d3_cgraph_org.svg" target="_base">
           <rect id="button" ry="5" rx="5" y="6" x="6" height="38" width="38"
                fill="#f2f5e9" fill-opacity="0.5" stroke="#606060" stroke-width="1.0"/>
           <path id="arrow"
             d="M 11.500037,31.436501 C 11.940474,20.09759 22.043105,11.32322 32.158766,21.979434 L 37.068811,17.246167 C 37.068811,17.246167 37.088388,32 37.088388,32 L 22.160133,31.978069 C 22.160133,31.978069 26.997745,27.140456 26.997745,27.140456 C 18.528582,18.264221 13.291696,25.230495 11.500037,31.436501 z"
             style="fill:#404040;"/>
          </a>
         </g>
        </svg>
</svg>
