<?xml version="1.0" encoding="UTF-8" standalone="no"?>
<!DOCTYPE svg PUBLIC "-//W3C//DTD SVG 1.1//EN"
 "http://www.w3.org/Graphics/SVG/1.1/DTD/svg11.dtd">
<!-- Generated by graphviz version 2.38.0 (20140413.2041)
 -->
<!-- Title: lib/colorquant.c Pages: 1 -->
<svg width="303pt" height="140pt"
 viewBox="0.00 0.00 303.00 140.00" xmlns="http://www.w3.org/2000/svg" xmlns:xlink="http://www.w3.org/1999/xlink">
<g id="graph0" class="graph" transform="scale(1 1) rotate(0) translate(4 136)">
<title>lib/colorquant.c</title>
<polygon fill="white" stroke="none" points="-4,4 -4,-136 299,-136 299,4 -4,4"/>
<!-- Node1 -->
<g id="node1" class="node"><title>Node1</title>
<polygon fill="#bfbfbf" stroke="black" points="85,-112.5 85,-131.5 171,-131.5 171,-112.5 85,-112.5"/>
<text text-anchor="middle" x="128" y="-119.5" font-family="Helvetica,sans-Serif" font-size="10.00">lib/colorquant.c</text>
</g>
<!-- Node2 -->
<g id="node2" class="node"><title>Node2</title>
<polygon fill="white" stroke="#bfbfbf" points="0,-56.5 0,-75.5 48,-75.5 48,-56.5 0,-56.5"/>
<text text-anchor="middle" x="24" y="-63.5" font-family="Helvetica,sans-Serif" font-size="10.00">math.h</text>
</g>
<!-- Node1&#45;&gt;Node2 -->
<g id="edge1" class="edge"><title>Node1&#45;&gt;Node2</title>
<path fill="none" stroke="midnightblue" d="M111.291,-112.324C94.6881,-103.703 68.9979,-90.3643 49.7795,-80.3855"/>
<polygon fill="midnightblue" stroke="midnightblue" points="51.1558,-77.1565 40.6679,-75.6545 47.93,-83.3689 51.1558,-77.1565"/>
</g>
<!-- Node3 -->
<g id="node3" class="node"><title>Node3</title>
<polygon fill="white" stroke="#bfbfbf" points="66.5,-56.5 66.5,-75.5 113.5,-75.5 113.5,-56.5 66.5,-56.5"/>
<text text-anchor="middle" x="90" y="-63.5" font-family="Helvetica,sans-Serif" font-size="10.00">stdio.h</text>
</g>
<!-- Node1&#45;&gt;Node3 -->
<g id="edge2" class="edge"><title>Node1&#45;&gt;Node3</title>
<path fill="none" stroke="midnightblue" d="M121.725,-112.083C116.358,-104.455 108.482,-93.2645 101.921,-83.9408"/>
<polygon fill="midnightblue" stroke="midnightblue" points="104.775,-81.9149 96.1582,-75.7511 99.0508,-85.9434 104.775,-81.9149"/>
</g>
<!-- Node4 -->
<g id="node4" class="node"><title>Node4</title>
<g id="a_node4"><a xlink:href="../../df/dad/rle__config_8h.html" target="_top" xlink:title="rle_config.h">
<polygon fill="white" stroke="black" points="131.5,-56.5 131.5,-75.5 202.5,-75.5 202.5,-56.5 131.5,-56.5"/>
<text text-anchor="middle" x="167" y="-63.5" font-family="Helvetica,sans-Serif" font-size="10.00">rle_config.h</text>
</a>
</g>
</g>
<!-- Node1&#45;&gt;Node4 -->
<g id="edge3" class="edge"><title>Node1&#45;&gt;Node4</title>
<path fill="none" stroke="midnightblue" d="M134.44,-112.083C139.949,-104.455 148.031,-93.2645 154.765,-83.9408"/>
<polygon fill="midnightblue" stroke="midnightblue" points="157.662,-85.9071 160.68,-75.7511 151.987,-81.8087 157.662,-85.9071"/>
</g>
<!-- Node7 -->
<g id="node7" class="node"><title>Node7</title>
<g id="a_node7"><a xlink:href="../../d4/dfd/colorquant_8h.html" target="_top" xlink:title="colorquant.h">
<polygon fill="white" stroke="black" points="221,-56.5 221,-75.5 295,-75.5 295,-56.5 221,-56.5"/>
<text text-anchor="middle" x="258" y="-63.5" font-family="Helvetica,sans-Serif" font-size="10.00">colorquant.h</text>
</a>
</g>
</g>
<!-- Node1&#45;&gt;Node7 -->
<g id="edge6" class="edge"><title>Node1&#45;&gt;Node7</title>
<path fill="none" stroke="midnightblue" d="M148.599,-112.444C169.993,-103.557 203.681,-89.5632 228.024,-79.4514"/>
<polygon fill="midnightblue" stroke="midnightblue" points="229.605,-82.5848 237.497,-75.5164 226.92,-76.1203 229.605,-82.5848"/>
</g>
<!-- Node5 -->
<g id="node5" class="node"><title>Node5</title>
<polygon fill="white" stroke="#bfbfbf" points="108.5,-0.5 108.5,-19.5 157.5,-19.5 157.5,-0.5 108.5,-0.5"/>
<text text-anchor="middle" x="133" y="-7.5" font-family="Helvetica,sans-Serif" font-size="10.00">stdlib.h</text>
</g>
<!-- Node4&#45;&gt;Node5 -->
<g id="edge4" class="edge"><title>Node4&#45;&gt;Node5</title>
<path fill="none" stroke="midnightblue" d="M161.386,-56.083C156.633,-48.5341 149.682,-37.4948 143.848,-28.2298"/>
<polygon fill="midnightblue" stroke="midnightblue" points="146.8,-26.3486 138.51,-19.7511 140.876,-30.0783 146.8,-26.3486"/>
</g>
<!-- Node6 -->
<g id="node6" class="node"><title>Node6</title>
<polygon fill="white" stroke="#bfbfbf" points="175.5,-0.5 175.5,-19.5 226.5,-19.5 226.5,-0.5 175.5,-0.5"/>
<text text-anchor="middle" x="201" y="-7.5" font-family="Helvetica,sans-Serif" font-size="10.00">string.h</text>
</g>
<!-- Node4&#45;&gt;Node6 -->
<g id="edge5" class="edge"><title>Node4&#45;&gt;Node6</title>
<path fill="none" stroke="midnightblue" d="M172.614,-56.083C177.367,-48.5341 184.318,-37.4948 190.152,-28.2298"/>
<polygon fill="midnightblue" stroke="midnightblue" points="193.124,-30.0783 195.49,-19.7511 187.2,-26.3486 193.124,-30.0783"/>
</g>
</g>
</svg>
