<?xml version="1.0" encoding="UTF-8" standalone="no"?>
<!DOCTYPE svg PUBLIC "-//W3C//DTD SVG 1.1//EN"
 "http://www.w3.org/Graphics/SVG/1.1/DTD/svg11.dtd">
<!-- Generated by graphviz version 2.38.0 (20140413.2041)
 -->
<!-- Title: rle_to_pyramids Pages: 1 -->
<svg width="417pt" height="408pt"
 viewBox="0.00 0.00 417.00 408.00" xmlns="http://www.w3.org/2000/svg" xmlns:xlink="http://www.w3.org/1999/xlink">
<g id="graph0" class="graph" transform="scale(1 1) rotate(0) translate(4 404)">
<title>rle_to_pyramids</title>
<polygon fill="white" stroke="none" points="-4,4 -4,-404 413,-404 413,4 -4,4"/>
<!-- Node1 -->
<g id="node1" class="node"><title>Node1</title>
<polygon fill="#bfbfbf" stroke="black" points="0,-114.5 0,-133.5 92,-133.5 92,-114.5 0,-114.5"/>
<text text-anchor="middle" x="46" y="-121.5" font-family="Helvetica,sans-Serif" font-size="10.00">rle_to_pyramids</text>
</g>
<!-- Node2 -->
<g id="node2" class="node"><title>Node2</title>
<g id="a_node2"><a xlink:href="../../db/d53/rle__getrow_8c.html#a619b27463c26e0a4a3d9648a9869ee52" target="_top" xlink:title="rle_get_setup">
<polygon fill="white" stroke="black" points="128.5,-285.5 128.5,-304.5 209.5,-304.5 209.5,-285.5 128.5,-285.5"/>
<text text-anchor="middle" x="169" y="-292.5" font-family="Helvetica,sans-Serif" font-size="10.00">rle_get_setup</text>
</a>
</g>
</g>
<!-- Node1&#45;&gt;Node2 -->
<g id="edge1" class="edge"><title>Node1&#45;&gt;Node2</title>
<path fill="none" stroke="midnightblue" d="M53.8522,-133.684C73.4025,-161.313 129.678,-240.842 155.173,-276.873"/>
<polygon fill="midnightblue" stroke="midnightblue" points="152.59,-279.281 161.223,-285.423 158.304,-275.238 152.59,-279.281"/>
</g>
<!-- Node6 -->
<g id="node6" class="node"><title>Node6</title>
<g id="a_node6"><a xlink:href="../../d0/dcc/rletorla_8c.html#ab7e36af3707843f77cc5b4e831c2fa6d" target="_top" xlink:title="malloc">
<polygon fill="white" stroke="black" points="362,-266.5 362,-285.5 409,-285.5 409,-266.5 362,-266.5"/>
<text text-anchor="middle" x="385.5" y="-273.5" font-family="Helvetica,sans-Serif" font-size="10.00">malloc</text>
</a>
</g>
</g>
<!-- Node1&#45;&gt;Node6 -->
<g id="edge10" class="edge"><title>Node1&#45;&gt;Node6</title>
<path fill="none" stroke="midnightblue" d="M57.625,-133.756C72.3034,-146.668 100.142,-169.175 128,-181 210.483,-216.011 246.562,-177.541 326,-219 343.977,-228.382 360.124,-245.068 370.876,-257.971"/>
<polygon fill="midnightblue" stroke="midnightblue" points="368.44,-260.53 377.414,-266.163 373.911,-256.164 368.44,-260.53"/>
</g>
<!-- Node8 -->
<g id="node8" class="node"><title>Node8</title>
<g id="a_node8"><a xlink:href="../../df/d69/pyrlib_8c.html#abf69cef4a5fdee01efc1820cda6f876d" target="_top" xlink:title="alloc_pyramid">
<polygon fill="white" stroke="black" points="128,-152.5 128,-171.5 210,-171.5 210,-152.5 128,-152.5"/>
<text text-anchor="middle" x="169" y="-159.5" font-family="Helvetica,sans-Serif" font-size="10.00">alloc_pyramid</text>
</a>
</g>
</g>
<!-- Node1&#45;&gt;Node8 -->
<g id="edge11" class="edge"><title>Node1&#45;&gt;Node8</title>
<path fill="none" stroke="midnightblue" d="M77.5334,-133.589C92.7234,-138.359 111.285,-144.189 127.633,-149.323"/>
<polygon fill="midnightblue" stroke="midnightblue" points="126.887,-152.757 137.476,-152.414 128.984,-146.079 126.887,-152.757"/>
</g>
<!-- Node9 -->
<g id="node9" class="node"><title>Node9</title>
<g id="a_node9"><a xlink:href="../../db/d53/rle__getrow_8c.html#a3602e1158189cba5e5b0f9b983cba776" target="_top" xlink:title="rle_getrow">
<polygon fill="white" stroke="black" points="135.5,-114.5 135.5,-133.5 202.5,-133.5 202.5,-114.5 135.5,-114.5"/>
<text text-anchor="middle" x="169" y="-121.5" font-family="Helvetica,sans-Serif" font-size="10.00">rle_getrow</text>
</a>
</g>
</g>
<!-- Node1&#45;&gt;Node9 -->
<g id="edge12" class="edge"><title>Node1&#45;&gt;Node9</title>
<path fill="none" stroke="midnightblue" d="M92.0559,-124C102.952,-124 114.565,-124 125.348,-124"/>
<polygon fill="midnightblue" stroke="midnightblue" points="125.38,-127.5 135.38,-124 125.38,-120.5 125.38,-127.5"/>
</g>
<!-- Node12 -->
<g id="node12" class="node"><title>Node12</title>
<g id="a_node12"><a xlink:href="../../df/d69/pyrlib_8c.html#afcf2c6bf53a36b184bde8bf1be80fc7e" target="_top" xlink:title="extrap_level">
<polygon fill="white" stroke="black" points="132,-76.5 132,-95.5 206,-95.5 206,-76.5 132,-76.5"/>
<text text-anchor="middle" x="169" y="-83.5" font-family="Helvetica,sans-Serif" font-size="10.00">extrap_level</text>
</a>
</g>
</g>
<!-- Node1&#45;&gt;Node12 -->
<g id="edge15" class="edge"><title>Node1&#45;&gt;Node12</title>
<path fill="none" stroke="midnightblue" d="M77.5334,-114.411C92.7234,-109.641 111.285,-103.811 127.633,-98.6771"/>
<polygon fill="midnightblue" stroke="midnightblue" points="128.984,-101.921 137.476,-95.5859 126.887,-95.243 128.984,-101.921"/>
</g>
<!-- Node13 -->
<g id="node13" class="node"><title>Node13</title>
<g id="a_node13"><a xlink:href="../../df/d69/pyrlib_8c.html#ad3768238a92de355c119471c164138cc" target="_top" xlink:title="gauss_level">
<polygon fill="white" stroke="black" points="133,-38.5 133,-57.5 205,-57.5 205,-38.5 133,-38.5"/>
<text text-anchor="middle" x="169" y="-45.5" font-family="Helvetica,sans-Serif" font-size="10.00">gauss_level</text>
</a>
</g>
</g>
<!-- Node1&#45;&gt;Node13 -->
<g id="edge16" class="edge"><title>Node1&#45;&gt;Node13</title>
<path fill="none" stroke="midnightblue" d="M59.1892,-114.432C74.6724,-102.515 102.457,-81.909 128,-67 130.855,-65.3335 133.88,-63.6909 136.936,-62.111"/>
<polygon fill="midnightblue" stroke="midnightblue" points="138.65,-65.1679 146.064,-57.5988 135.548,-58.8928 138.65,-65.1679"/>
</g>
<!-- Node14 -->
<g id="node14" class="node"><title>Node14</title>
<g id="a_node14"><a xlink:href="../../df/d69/pyrlib_8c.html#af80f473a379b5fca8cb3ec5215a915eb" target="_top" xlink:title="band_level">
<polygon fill="white" stroke="black" points="135,-0.5 135,-19.5 203,-19.5 203,-0.5 135,-0.5"/>
<text text-anchor="middle" x="169" y="-7.5" font-family="Helvetica,sans-Serif" font-size="10.00">band_level</text>
</a>
</g>
</g>
<!-- Node1&#45;&gt;Node14 -->
<g id="edge17" class="edge"><title>Node1&#45;&gt;Node14</title>
<path fill="none" stroke="midnightblue" d="M53.0801,-114.484C65.3203,-95.949 94.6311,-54.5844 128,-29 130.029,-27.4446 132.205,-25.9728 134.457,-24.5889"/>
<polygon fill="midnightblue" stroke="midnightblue" points="136.281,-27.5803 143.36,-19.6977 132.91,-21.4451 136.281,-27.5803"/>
</g>
<!-- Node3 -->
<g id="node3" class="node"><title>Node3</title>
<g id="a_node3"><a xlink:href="../../d2/df3/rle__hdr_8c.html#a16c4da6201b3b8cf55127b9ca968d253" target="_top" xlink:title="rle_hdr_clear">
<polygon fill="white" stroke="black" points="246,-380.5 246,-399.5 326,-399.5 326,-380.5 246,-380.5"/>
<text text-anchor="middle" x="286" y="-387.5" font-family="Helvetica,sans-Serif" font-size="10.00">rle_hdr_clear</text>
</a>
</g>
</g>
<!-- Node2&#45;&gt;Node3 -->
<g id="edge2" class="edge"><title>Node2&#45;&gt;Node3</title>
<path fill="none" stroke="midnightblue" d="M179.284,-304.846C193.082,-319.197 220.156,-346.291 246,-366 250.054,-369.091 254.524,-372.14 258.947,-374.973"/>
<polygon fill="midnightblue" stroke="midnightblue" points="257.462,-378.169 267.813,-380.431 261.132,-372.208 257.462,-378.169"/>
</g>
<!-- Node4 -->
<g id="node4" class="node"><title>Node4</title>
<g id="a_node4"><a xlink:href="../../d0/dcc/rletorla_8c.html#aafde19f7d36ca163a143579c1b125b6d" target="_top" xlink:title="free">
<polygon fill="white" stroke="black" points="368,-342.5 368,-361.5 403,-361.5 403,-342.5 368,-342.5"/>
<text text-anchor="middle" x="385.5" y="-349.5" font-family="Helvetica,sans-Serif" font-size="10.00">free</text>
</a>
</g>
</g>
<!-- Node2&#45;&gt;Node4 -->
<g id="edge8" class="edge"><title>Node2&#45;&gt;Node4</title>
<path fill="none" stroke="midnightblue" d="M185.38,-304.583C200.302,-313.414 223.874,-326.156 246,-333 283.663,-344.65 329.293,-349.166 357.615,-350.91"/>
<polygon fill="midnightblue" stroke="midnightblue" points="357.745,-354.422 367.92,-351.468 358.124,-347.432 357.745,-354.422"/>
</g>
<!-- Node5 -->
<g id="node5" class="node"><title>Node5</title>
<g id="a_node5"><a xlink:href="../../d2/df3/rle__hdr_8c.html#a82e79385f2d45cc3b80ce0f4f369eae5" target="_top" xlink:title="rle_names">
<polygon fill="white" stroke="black" points="253,-304.5 253,-323.5 319,-323.5 319,-304.5 253,-304.5"/>
<text text-anchor="middle" x="286" y="-311.5" font-family="Helvetica,sans-Serif" font-size="10.00">rle_names</text>
</a>
</g>
</g>
<!-- Node2&#45;&gt;Node5 -->
<g id="edge4" class="edge"><title>Node2&#45;&gt;Node5</title>
<path fill="none" stroke="midnightblue" d="M209.576,-301.539C220.31,-303.312 231.969,-305.238 242.84,-307.034"/>
<polygon fill="midnightblue" stroke="midnightblue" points="242.527,-310.53 252.964,-308.707 243.668,-303.624 242.527,-310.53"/>
</g>
<!-- Node2&#45;&gt;Node6 -->
<g id="edge7" class="edge"><title>Node2&#45;&gt;Node6</title>
<path fill="none" stroke="midnightblue" d="M209.593,-291.493C250.533,-287.867 313.704,-282.271 351.873,-278.89"/>
<polygon fill="midnightblue" stroke="midnightblue" points="352.285,-282.367 361.937,-277.999 351.667,-275.395 352.285,-282.367"/>
</g>
<!-- Node7 -->
<g id="node7" class="node"><title>Node7</title>
<g id="a_node7"><a xlink:href="../../db/d53/rle__getrow_8c.html#a0ea68aa2ebeef9d4cade7282553b03d6" target="_top" xlink:title="vax_gshort">
<polygon fill="white" stroke="black" points="251.5,-228.5 251.5,-247.5 320.5,-247.5 320.5,-228.5 251.5,-228.5"/>
<text text-anchor="middle" x="286" y="-235.5" font-family="Helvetica,sans-Serif" font-size="10.00">vax_gshort</text>
</a>
</g>
</g>
<!-- Node2&#45;&gt;Node7 -->
<g id="edge9" class="edge"><title>Node2&#45;&gt;Node7</title>
<path fill="none" stroke="midnightblue" d="M189.248,-285.459C207.657,-276.335 235.64,-262.466 256.608,-252.073"/>
<polygon fill="midnightblue" stroke="midnightblue" points="258.283,-255.149 265.689,-247.572 255.175,-248.877 258.283,-255.149"/>
</g>
<!-- Node3&#45;&gt;Node4 -->
<g id="edge3" class="edge"><title>Node3&#45;&gt;Node4</title>
<path fill="none" stroke="midnightblue" d="M311.603,-380.411C325.904,-374.837 343.914,-367.818 358.454,-362.151"/>
<polygon fill="midnightblue" stroke="midnightblue" points="359.831,-365.371 367.878,-358.478 357.289,-358.849 359.831,-365.371"/>
</g>
<!-- Node5&#45;&gt;Node4 -->
<g id="edge5" class="edge"><title>Node5&#45;&gt;Node4</title>
<path fill="none" stroke="midnightblue" d="M311.603,-323.589C325.904,-329.163 343.914,-336.182 358.454,-341.849"/>
<polygon fill="midnightblue" stroke="midnightblue" points="357.289,-345.151 367.878,-345.522 359.831,-338.629 357.289,-345.151"/>
</g>
<!-- Node5&#45;&gt;Node6 -->
<g id="edge6" class="edge"><title>Node5&#45;&gt;Node6</title>
<path fill="none" stroke="midnightblue" d="M311.603,-304.411C323.921,-299.61 338.99,-293.737 352.223,-288.58"/>
<polygon fill="midnightblue" stroke="midnightblue" points="353.863,-291.697 361.909,-284.805 351.321,-285.175 353.863,-291.697"/>
</g>
<!-- Node10 -->
<g id="node10" class="node"><title>Node10</title>
<g id="a_node10"><a xlink:href="../../db/d53/rle__getrow_8c.html#a61ac0da96b0dd8bc3cbc98afcd9b5c44" target="_top" xlink:title="bfill">
<polygon fill="white" stroke="black" points="270,-133.5 270,-152.5 302,-152.5 302,-133.5 270,-133.5"/>
<text text-anchor="middle" x="286" y="-140.5" font-family="Helvetica,sans-Serif" font-size="10.00">bfill</text>
</a>
</g>
</g>
<!-- Node9&#45;&gt;Node10 -->
<g id="edge13" class="edge"><title>Node9&#45;&gt;Node10</title>
<path fill="none" stroke="midnightblue" d="M202.647,-129.394C220.732,-132.382 242.878,-136.041 259.648,-138.811"/>
<polygon fill="midnightblue" stroke="midnightblue" points="259.359,-142.311 269.796,-140.488 260.5,-135.405 259.359,-142.311"/>
</g>
<!-- Node11 -->
<g id="node11" class="node"><title>Node11</title>
<g id="a_node11"><a xlink:href="../../d8/d7c/rle__getskip_8c.html#af6b1e1dc0867e9340f90668591c7c5b3" target="_top" xlink:title="rle_getskip">
<polygon fill="white" stroke="black" points="252,-95.5 252,-114.5 320,-114.5 320,-95.5 252,-95.5"/>
<text text-anchor="middle" x="286" y="-102.5" font-family="Helvetica,sans-Serif" font-size="10.00">rle_getskip</text>
</a>
</g>
</g>
<!-- Node9&#45;&gt;Node11 -->
<g id="edge14" class="edge"><title>Node9&#45;&gt;Node11</title>
<path fill="none" stroke="midnightblue" d="M202.647,-118.606C214.803,-116.598 228.794,-114.286 241.754,-112.145"/>
<polygon fill="midnightblue" stroke="midnightblue" points="242.577,-115.557 251.872,-110.473 241.435,-108.65 242.577,-115.557"/>
</g>
</g>
</svg>
