<?xml version="1.0" encoding="UTF-8" standalone="no"?>
<!DOCTYPE svg PUBLIC "-//W3C//DTD SVG 1.1//EN"
 "http://www.w3.org/Graphics/SVG/1.1/DTD/svg11.dtd">
<!-- Generated by graphviz version 2.38.0 (20140413.2041)
 -->
<!-- Title: was_head Pages: 1 -->
<svg width="129pt" height="161pt"
 viewBox="0.00 0.00 129.00 161.00" xmlns="http://www.w3.org/2000/svg" xmlns:xlink="http://www.w3.org/1999/xlink">
<g id="graph0" class="graph" transform="scale(1 1) rotate(0) translate(4 157)">
<title>was_head</title>
<polygon fill="white" stroke="none" points="-4,4 -4,-157 125,-157 125,4 -4,4"/>
<!-- Node1 -->
<g id="node1" class="node"><title>Node1</title>
<polygon fill="#bfbfbf" stroke="black" points="20.5,-0.5 20.5,-19.5 85.5,-19.5 85.5,-0.5 20.5,-0.5"/>
<text text-anchor="middle" x="53" y="-7.5" font-family="Helvetica,sans-Serif" font-size="10.00">was_head</text>
</g>
<!-- Node2 -->
<g id="node2" class="node"><title>Node2</title>
<polygon fill="white" stroke="#bfbfbf" points="0,-133.5 0,-152.5 38,-152.5 38,-133.5 0,-133.5"/>
<text text-anchor="middle" x="19" y="-140.5" font-family="Helvetica,sans-Serif" font-size="10.00">char</text>
</g>
<!-- Node2&#45;&gt;Node1 -->
<g id="edge1" class="edge"><title>Node2&#45;&gt;Node1</title>
<path fill="none" stroke="#9a32cd" stroke-dasharray="5,2" d="M14.666,-123.512C10.5749,-101.855 6.83052,-65.449 20,-38 23.6504,-30.3916 30.5936,-24.2052 37.1732,-19.6832"/>
<polygon fill="#9a32cd" stroke="#9a32cd" points="11.2567,-124.308 16.7492,-133.368 18.1054,-122.86 11.2567,-124.308"/>
<text text-anchor="middle" x="43" y="-74" font-family="Helvetica,sans-Serif" font-size="10.00"> reserved</text>
</g>
<!-- Node3 -->
<g id="node3" class="node"><title>Node3</title>
<polygon fill="white" stroke="#bfbfbf" points="67.5,-133.5 67.5,-152.5 108.5,-152.5 108.5,-133.5 67.5,-133.5"/>
<text text-anchor="middle" x="88" y="-140.5" font-family="Helvetica,sans-Serif" font-size="10.00">short</text>
</g>
<!-- Node3&#45;&gt;Node1 -->
<g id="edge2" class="edge"><title>Node3&#45;&gt;Node1</title>
<path fill="none" stroke="#9a32cd" stroke-dasharray="5,2" d="M85.433,-123.311C82.2184,-102.21 75.8995,-67.0346 66,-38 63.851,-31.697 60.601,-24.947 57.8882,-19.7728"/>
<polygon fill="#9a32cd" stroke="#9a32cd" points="82.0053,-124.062 86.9026,-133.457 88.933,-123.059 82.0053,-124.062"/>
<text text-anchor="middle" x="102.5" y="-107" font-family="Helvetica,sans-Serif" font-size="10.00"> unused</text>
<text text-anchor="middle" x="102.5" y="-96" font-family="Helvetica,sans-Serif" font-size="10.00">bottom</text>
<text text-anchor="middle" x="102.5" y="-85" font-family="Helvetica,sans-Serif" font-size="10.00">y1</text>
<text text-anchor="middle" x="102.5" y="-74" font-family="Helvetica,sans-Serif" font-size="10.00">y2</text>
<text text-anchor="middle" x="102.5" y="-63" font-family="Helvetica,sans-Serif" font-size="10.00">x1</text>
<text text-anchor="middle" x="102.5" y="-52" font-family="Helvetica,sans-Serif" font-size="10.00">top</text>
<text text-anchor="middle" x="102.5" y="-41" font-family="Helvetica,sans-Serif" font-size="10.00">x2</text>
</g>
</g>
</svg>
