<?xml version="1.0" encoding="UTF-8" standalone="no"?>
<!DOCTYPE svg PUBLIC "-//W3C//DTD SVG 1.1//EN"
 "http://www.w3.org/Graphics/SVG/1.1/DTD/svg11.dtd">
<!-- Generated by graphviz version 2.38.0 (20140413.2041)
 -->
<!-- Title: _histogram Pages: 1 -->
<svg width="303pt" height="243pt"
 viewBox="0.00 0.00 302.50 243.00" xmlns="http://www.w3.org/2000/svg" xmlns:xlink="http://www.w3.org/1999/xlink">
<g id="graph0" class="graph" transform="scale(1 1) rotate(0) translate(4 239)">
<title>_histogram</title>
<polygon fill="white" stroke="none" points="-4,4 -4,-239 298.5,-239 298.5,4 -4,4"/>
<!-- Node1 -->
<g id="node1" class="node"><title>Node1</title>
<polygon fill="#bfbfbf" stroke="black" points="0,-109 0,-128 69,-128 69,-109 0,-109"/>
<text text-anchor="middle" x="34.5" y="-116" font-family="Helvetica,sans-Serif" font-size="10.00">_histogram</text>
</g>
<!-- Node3 -->
<g id="node3" class="node"><title>Node3</title>
<g id="a_node3"><a xlink:href="../../da/da4/struct__color__box.html" target="_top" xlink:title="_color_box">
<polygon fill="white" stroke="black" points="76.5,-1.5 76.5,-20.5 144.5,-20.5 144.5,-1.5 76.5,-1.5"/>
<text text-anchor="middle" x="110.5" y="-8.5" font-family="Helvetica,sans-Serif" font-size="10.00">_color_box</text>
</a>
</g>
</g>
<!-- Node1&#45;&gt;Node3 -->
<g id="edge7" class="edge"><title>Node1&#45;&gt;Node3</title>
<path fill="none" stroke="#9a32cd" stroke-dasharray="5,2" d="M22.2611,-100.597C11.693,-83.7428 0.0666224,-57.8595 13.5,-40 27.9345,-20.8095 54.6996,-14.1398 76.4638,-12.0858"/>
<polygon fill="#9a32cd" stroke="#9a32cd" points="19.3743,-102.576 27.8576,-108.923 25.1839,-98.6712 19.3743,-102.576"/>
<text text-anchor="middle" x="23.5" y="-54" font-family="Helvetica,sans-Serif" font-size="10.00"> hist</text>
</g>
<!-- Node2 -->
<g id="node2" class="node"><title>Node2</title>
<polygon fill="white" stroke="#bfbfbf" points="127,-215.5 127,-234.5 156,-234.5 156,-215.5 127,-215.5"/>
<text text-anchor="middle" x="141.5" y="-222.5" font-family="Helvetica,sans-Serif" font-size="10.00">int</text>
</g>
<!-- Node2&#45;&gt;Node1 -->
<g id="edge1" class="edge"><title>Node2&#45;&gt;Node1</title>
<path fill="none" stroke="#9a32cd" stroke-dasharray="5,2" d="M116.715,-221.157C88.6291,-217.368 45.4503,-209.633 35.5,-197 19.5977,-176.81 26.868,-143.606 31.5851,-128.047"/>
<polygon fill="#9a32cd" stroke="#9a32cd" points="116.278,-224.629 126.64,-222.417 117.16,-217.685 116.278,-224.629"/>
<text text-anchor="middle" x="66" y="-189" font-family="Helvetica,sans-Serif" font-size="10.00"> cmap_index</text>
<text text-anchor="middle" x="66" y="-178" font-family="Helvetica,sans-Serif" font-size="10.00">nsamples</text>
<text text-anchor="middle" x="66" y="-167" font-family="Helvetica,sans-Serif" font-size="10.00">color</text>
</g>
<!-- Node2&#45;&gt;Node3 -->
<g id="edge8" class="edge"><title>Node2&#45;&gt;Node3</title>
<path fill="none" stroke="#9a32cd" stroke-dasharray="5,2" d="M135.121,-205.55C129.997,-189.9 123.083,-166.752 119.5,-146 111.407,-99.1284 110.497,-41.8671 110.461,-20.5386"/>
<polygon fill="#9a32cd" stroke="#9a32cd" points="131.956,-207.117 138.464,-215.478 138.59,-204.884 131.956,-207.117"/>
<text text-anchor="middle" x="142.5" y="-138" font-family="Helvetica,sans-Serif" font-size="10.00"> size</text>
<text text-anchor="middle" x="142.5" y="-127" font-family="Helvetica,sans-Serif" font-size="10.00">hsize</text>
<text text-anchor="middle" x="142.5" y="-116" font-family="Helvetica,sans-Serif" font-size="10.00">nsamples</text>
<text text-anchor="middle" x="142.5" y="-105" font-family="Helvetica,sans-Serif" font-size="10.00">cindex</text>
<text text-anchor="middle" x="142.5" y="-94" font-family="Helvetica,sans-Serif" font-size="10.00">axis</text>
</g>
<!-- Node4 -->
<g id="node4" class="node"><title>Node4</title>
<g id="a_node4"><a xlink:href="../../dd/d65/struct__bounds.html" target="_top" xlink:title="_bounds">
<polygon fill="white" stroke="black" points="174.5,-109 174.5,-128 230.5,-128 230.5,-109 174.5,-109"/>
<text text-anchor="middle" x="202.5" y="-116" font-family="Helvetica,sans-Serif" font-size="10.00">_bounds</text>
</a>
</g>
</g>
<!-- Node2&#45;&gt;Node4 -->
<g id="edge4" class="edge"><title>Node2&#45;&gt;Node4</title>
<path fill="none" stroke="#9a32cd" stroke-dasharray="5,2" d="M151.67,-206.577C164.876,-183.954 187.417,-145.338 197.439,-128.17"/>
<polygon fill="#9a32cd" stroke="#9a32cd" points="148.511,-205.048 146.492,-215.448 154.556,-208.576 148.511,-205.048"/>
<text text-anchor="middle" x="186.5" y="-183.5" font-family="Helvetica,sans-Serif" font-size="10.00"> min</text>
<text text-anchor="middle" x="186.5" y="-172.5" font-family="Helvetica,sans-Serif" font-size="10.00">max</text>
</g>
<!-- Node5 -->
<g id="node5" class="node"><title>Node5</title>
<g id="a_node5"><a xlink:href="../../d4/d47/struct__color.html" target="_top" xlink:title="_color">
<polygon fill="white" stroke="black" points="248.5,-109 248.5,-128 294.5,-128 294.5,-109 248.5,-109"/>
<text text-anchor="middle" x="271.5" y="-116" font-family="Helvetica,sans-Serif" font-size="10.00">_color</text>
</a>
</g>
</g>
<!-- Node2&#45;&gt;Node5 -->
<g id="edge6" class="edge"><title>Node2&#45;&gt;Node5</title>
<path fill="none" stroke="#9a32cd" stroke-dasharray="5,2" d="M165.77,-215.46C176.919,-210.912 189.971,-204.664 200.5,-197 228.532,-176.598 254.064,-143.79 265.365,-128.229"/>
<polygon fill="#9a32cd" stroke="#9a32cd" points="164.266,-212.289 156.194,-219.151 166.783,-218.821 164.266,-212.289"/>
<text text-anchor="middle" x="240.5" y="-189" font-family="Helvetica,sans-Serif" font-size="10.00"> g</text>
<text text-anchor="middle" x="240.5" y="-178" font-family="Helvetica,sans-Serif" font-size="10.00">r</text>
<text text-anchor="middle" x="240.5" y="-167" font-family="Helvetica,sans-Serif" font-size="10.00">b</text>
</g>
<!-- Node3&#45;&gt;Node1 -->
<g id="edge2" class="edge"><title>Node3&#45;&gt;Node1</title>
<path fill="none" stroke="#9a32cd" stroke-dasharray="5,2" d="M69.2871,-24.932C62.1616,-28.7887 55.4619,-33.7226 50.5,-40 34.3131,-60.4785 33.3402,-93.2495 33.9144,-108.786"/>
<polygon fill="#9a32cd" stroke="#9a32cd" points="70.8979,-28.0419 78.4417,-20.6027 67.9053,-21.7138 70.8979,-28.0419"/>
<text text-anchor="middle" x="73.5" y="-54" font-family="Helvetica,sans-Serif" font-size="10.00"> color_ptr</text>
</g>
<!-- Node3&#45;&gt;Node3 -->
<g id="edge9" class="edge"><title>Node3&#45;&gt;Node3</title>
<path fill="none" stroke="#9a32cd" stroke-dasharray="5,2" d="M154.648,-17.9015C159.425,-16.5769 162.5,-14.2764 162.5,-11 162.5,-5.75781 154.627,-3.01385 144.508,-2.76813"/>
<polygon fill="#9a32cd" stroke="#9a32cd" points="153.968,-14.4606 144.508,-19.2319 154.879,-21.4011 153.968,-14.4606"/>
<text text-anchor="middle" x="175" y="-14" font-family="Helvetica,sans-Serif" font-size="10.00"> prev</text>
<text text-anchor="middle" x="175" y="-3" font-family="Helvetica,sans-Serif" font-size="10.00">next</text>
</g>
<!-- Node4&#45;&gt;Node3 -->
<g id="edge3" class="edge"><title>Node4&#45;&gt;Node3</title>
<path fill="none" stroke="#9a32cd" stroke-dasharray="5,2" d="M188.219,-101.123C168.47,-78.4765 133.519,-38.3965 118.133,-20.7528"/>
<polygon fill="#9a32cd" stroke="#9a32cd" points="185.761,-103.63 194.971,-108.866 191.037,-99.0293 185.761,-103.63"/>
<text text-anchor="middle" x="167.5" y="-65" font-family="Helvetica,sans-Serif" font-size="10.00"> g</text>
<text text-anchor="middle" x="167.5" y="-54" font-family="Helvetica,sans-Serif" font-size="10.00">r</text>
<text text-anchor="middle" x="167.5" y="-43" font-family="Helvetica,sans-Serif" font-size="10.00">b</text>
</g>
<!-- Node5&#45;&gt;Node3 -->
<g id="edge5" class="edge"><title>Node5&#45;&gt;Node3</title>
<path fill="none" stroke="#9a32cd" stroke-dasharray="5,2" d="M253.121,-102.221C248.67,-98.5373 243.921,-94.6201 239.5,-91 211.627,-68.1778 207.382,-58.5486 176.5,-40 163.482,-32.1814 147.883,-25.4557 135.119,-20.5571"/>
<polygon fill="#9a32cd" stroke="#9a32cd" points="251.216,-105.188 261.148,-108.878 255.685,-99.8 251.216,-105.188"/>
<text text-anchor="middle" x="232" y="-54" font-family="Helvetica,sans-Serif" font-size="10.00"> color</text>
</g>
</g>
</svg>
