<?xml version="1.0" encoding="UTF-8" standalone="no"?>
<!DOCTYPE svg PUBLIC "-//W3C//DTD SVG 1.1//EN"
 "http://www.w3.org/Graphics/SVG/1.1/DTD/svg11.dtd">
<!-- Generated by graphviz version 2.38.0 (20140413.2041)
 -->
<!-- Title: allocate_pixmap Pages: 1 -->
<svg width="327pt" height="66pt"
 viewBox="0.00 0.00 327.00 66.00" xmlns="http://www.w3.org/2000/svg" xmlns:xlink="http://www.w3.org/1999/xlink">
<g id="graph0" class="graph" transform="scale(1 1) rotate(0) translate(4 62)">
<title>allocate_pixmap</title>
<polygon fill="white" stroke="none" points="-4,4 -4,-62 323,-62 323,4 -4,4"/>
<!-- Node1 -->
<g id="node1" class="node"><title>Node1</title>
<polygon fill="#bfbfbf" stroke="black" points="0,-19.5 0,-38.5 93,-38.5 93,-19.5 0,-19.5"/>
<text text-anchor="middle" x="46.5" y="-26.5" font-family="Helvetica,sans-Serif" font-size="10.00">allocate_pixmap</text>
</g>
<!-- Node2 -->
<g id="node2" class="node"><title>Node2</title>
<g id="a_node2"><a xlink:href="../../db/d50/getx11_8c.html#a5f73a6cc2fe97cb264e922a11724b17a" target="_top" xlink:title="mag_pan">
<polygon fill="white" stroke="black" points="141.5,-38.5 141.5,-57.5 202.5,-57.5 202.5,-38.5 141.5,-38.5"/>
<text text-anchor="middle" x="172" y="-45.5" font-family="Helvetica,sans-Serif" font-size="10.00">mag_pan</text>
</a>
</g>
</g>
<!-- Node1&#45;&gt;Node2 -->
<g id="edge1" class="edge"><title>Node1&#45;&gt;Node2</title>
<path fill="none" stroke="midnightblue" d="M103.088,-37.552C116.25,-39.5769 129.79,-41.66 141.282,-43.4281"/>
<polygon fill="midnightblue" stroke="midnightblue" points="103.552,-34.0823 93.136,-36.0209 102.487,-41.0009 103.552,-34.0823"/>
</g>
<!-- Node4 -->
<g id="node4" class="node"><title>Node4</title>
<g id="a_node4"><a xlink:href="../../dd/dc5/prototypes_8h.html#a9881071059141f17e4cb2cb033804f95" target="_top" xlink:title="resize_window">
<polygon fill="white" stroke="black" points="129,-0.5 129,-19.5 215,-19.5 215,-0.5 129,-0.5"/>
<text text-anchor="middle" x="172" y="-7.5" font-family="Helvetica,sans-Serif" font-size="10.00">resize_window</text>
</a>
</g>
</g>
<!-- Node1&#45;&gt;Node4 -->
<g id="edge3" class="edge"><title>Node1&#45;&gt;Node4</title>
<path fill="none" stroke="midnightblue" d="M103.147,-20.4389C111.773,-19.1118 120.559,-17.7601 128.824,-16.4887"/>
<polygon fill="midnightblue" stroke="midnightblue" points="102.487,-16.9991 93.136,-21.9791 103.552,-23.9177 102.487,-16.9991"/>
</g>
<!-- Node3 -->
<g id="node3" class="node"><title>Node3</title>
<g id="a_node3"><a xlink:href="../../db/d50/getx11_8c.html#afd87900bb416432f303847ae3e35c2c6" target="_top" xlink:title="update_pic">
<polygon fill="white" stroke="black" points="251,-19.5 251,-38.5 319,-38.5 319,-19.5 251,-19.5"/>
<text text-anchor="middle" x="285" y="-26.5" font-family="Helvetica,sans-Serif" font-size="10.00">update_pic</text>
</a>
</g>
</g>
<!-- Node2&#45;&gt;Node3 -->
<g id="edge2" class="edge"><title>Node2&#45;&gt;Node3</title>
<path fill="none" stroke="midnightblue" d="M212.827,-41.1827C225.219,-39.0617 238.745,-36.7463 250.647,-34.7091"/>
<polygon fill="midnightblue" stroke="midnightblue" points="212.012,-37.7713 202.746,-42.9083 213.193,-44.6709 212.012,-37.7713"/>
</g>
<!-- Node4&#45;&gt;Node3 -->
<g id="edge4" class="edge"><title>Node4&#45;&gt;Node3</title>
<path fill="none" stroke="midnightblue" d="M225.355,-18.9617C234.02,-20.4449 242.788,-21.9456 250.809,-23.3187"/>
<polygon fill="midnightblue" stroke="midnightblue" points="225.728,-15.4747 215.281,-17.2373 224.547,-22.3744 225.728,-15.4747"/>
</g>
</g>
</svg>
