<?xml version="1.0" encoding="UTF-8" standalone="no"?>
<!DOCTYPE svg PUBLIC "-//W3C//DTD SVG 1.1//EN"
 "http://www.w3.org/Graphics/SVG/1.1/DTD/svg11.dtd">
<!-- Generated by graphviz version 2.38.0 (20140413.2041)
 -->
<!-- Title: allocate_ximage Pages: 1 -->
<svg width="327pt" height="104pt"
 viewBox="0.00 0.00 327.00 104.00" xmlns="http://www.w3.org/2000/svg" xmlns:xlink="http://www.w3.org/1999/xlink">
<g id="graph0" class="graph" transform="scale(1 1) rotate(0) translate(4 100)">
<title>allocate_ximage</title>
<polygon fill="white" stroke="none" points="-4,4 -4,-100 323,-100 323,4 -4,4"/>
<!-- Node1 -->
<g id="node1" class="node"><title>Node1</title>
<polygon fill="#bfbfbf" stroke="black" points="0,-38.5 0,-57.5 93,-57.5 93,-38.5 0,-38.5"/>
<text text-anchor="middle" x="46.5" y="-45.5" font-family="Helvetica,sans-Serif" font-size="10.00">allocate_ximage</text>
</g>
<!-- Node2 -->
<g id="node2" class="node"><title>Node2</title>
<g id="a_node2"><a xlink:href="../../db/d50/getx11_8c.html#a3ed74bd65535ad004b2474fcddb67431" target="_top" xlink:title="get_pic">
<polygon fill="white" stroke="black" points="146.5,-76.5 146.5,-95.5 197.5,-95.5 197.5,-76.5 146.5,-76.5"/>
<text text-anchor="middle" x="172" y="-83.5" font-family="Helvetica,sans-Serif" font-size="10.00">get_pic</text>
</a>
</g>
</g>
<!-- Node1&#45;&gt;Node2 -->
<g id="edge1" class="edge"><title>Node1&#45;&gt;Node2</title>
<path fill="none" stroke="midnightblue" d="M88.3908,-60.5818C107.612,-66.496 129.889,-73.3504 146.462,-78.4498"/>
<polygon fill="midnightblue" stroke="midnightblue" points="89.2514,-57.1847 78.6643,-57.589 87.1927,-63.8752 89.2514,-57.1847"/>
</g>
<!-- Node3 -->
<g id="node3" class="node"><title>Node3</title>
<g id="a_node3"><a xlink:href="../../db/d50/getx11_8c.html#a5f73a6cc2fe97cb264e922a11724b17a" target="_top" xlink:title="mag_pan">
<polygon fill="white" stroke="black" points="141.5,-38.5 141.5,-57.5 202.5,-57.5 202.5,-38.5 141.5,-38.5"/>
<text text-anchor="middle" x="172" y="-45.5" font-family="Helvetica,sans-Serif" font-size="10.00">mag_pan</text>
</a>
</g>
</g>
<!-- Node1&#45;&gt;Node3 -->
<g id="edge2" class="edge"><title>Node1&#45;&gt;Node3</title>
<path fill="none" stroke="midnightblue" d="M103.475,-48C116.515,-48 129.903,-48 141.282,-48"/>
<polygon fill="midnightblue" stroke="midnightblue" points="103.136,-44.5001 93.136,-48 103.136,-51.5001 103.136,-44.5001"/>
</g>
<!-- Node5 -->
<g id="node5" class="node"><title>Node5</title>
<g id="a_node5"><a xlink:href="../../dd/dc5/prototypes_8h.html#a9881071059141f17e4cb2cb033804f95" target="_top" xlink:title="resize_window">
<polygon fill="white" stroke="black" points="129,-0.5 129,-19.5 215,-19.5 215,-0.5 129,-0.5"/>
<text text-anchor="middle" x="172" y="-7.5" font-family="Helvetica,sans-Serif" font-size="10.00">resize_window</text>
</a>
</g>
</g>
<!-- Node1&#45;&gt;Node5 -->
<g id="edge4" class="edge"><title>Node1&#45;&gt;Node5</title>
<path fill="none" stroke="midnightblue" d="M88.2397,-35.4647C105.04,-30.2952 124.197,-24.4009 139.846,-19.5859"/>
<polygon fill="midnightblue" stroke="midnightblue" points="87.1927,-32.1248 78.6643,-38.411 89.2514,-38.8153 87.1927,-32.1248"/>
</g>
<!-- Node4 -->
<g id="node4" class="node"><title>Node4</title>
<g id="a_node4"><a xlink:href="../../db/d50/getx11_8c.html#afd87900bb416432f303847ae3e35c2c6" target="_top" xlink:title="update_pic">
<polygon fill="white" stroke="black" points="251,-19.5 251,-38.5 319,-38.5 319,-19.5 251,-19.5"/>
<text text-anchor="middle" x="285" y="-26.5" font-family="Helvetica,sans-Serif" font-size="10.00">update_pic</text>
</a>
</g>
</g>
<!-- Node3&#45;&gt;Node4 -->
<g id="edge3" class="edge"><title>Node3&#45;&gt;Node4</title>
<path fill="none" stroke="midnightblue" d="M212.827,-41.1827C225.219,-39.0617 238.745,-36.7463 250.647,-34.7091"/>
<polygon fill="midnightblue" stroke="midnightblue" points="212.012,-37.7713 202.746,-42.9083 213.193,-44.6709 212.012,-37.7713"/>
</g>
<!-- Node5&#45;&gt;Node4 -->
<g id="edge5" class="edge"><title>Node5&#45;&gt;Node4</title>
<path fill="none" stroke="midnightblue" d="M225.355,-18.9617C234.02,-20.4449 242.788,-21.9456 250.809,-23.3187"/>
<polygon fill="midnightblue" stroke="midnightblue" points="225.728,-15.4747 215.281,-17.2373 224.547,-22.3744 225.728,-15.4747"/>
</g>
</g>
</svg>
