<?xml version="1.0" encoding="UTF-8" standalone="no"?>
<!DOCTYPE svg PUBLIC "-//W3C//DTD SVG 1.1//EN"
 "http://www.w3.org/Graphics/SVG/1.1/DTD/svg11.dtd">
<!-- Generated by graphviz version 2.38.0 (20140413.2041)
 -->
<!-- Title: put_X_image Pages: 1 -->
<svg width="635pt" height="180pt"
 viewBox="0.00 0.00 635.00 180.00" xmlns="http://www.w3.org/2000/svg" xmlns:xlink="http://www.w3.org/1999/xlink">
<g id="graph0" class="graph" transform="scale(1 1) rotate(0) translate(4 176)">
<title>put_X_image</title>
<polygon fill="white" stroke="none" points="-4,4 -4,-176 631,-176 631,4 -4,4"/>
<!-- Node1 -->
<g id="node1" class="node"><title>Node1</title>
<polygon fill="#bfbfbf" stroke="black" points="0,-76.5 0,-95.5 78,-95.5 78,-76.5 0,-76.5"/>
<text text-anchor="middle" x="39" y="-83.5" font-family="Helvetica,sans-Serif" font-size="10.00">put_X_image</text>
</g>
<!-- Node2 -->
<g id="node2" class="node"><title>Node2</title>
<g id="a_node2"><a xlink:href="../../db/d50/getx11_8c.html#a84e1814bcc6f83ad5491f930d01545c3" target="_top" xlink:title="handle_exposure">
<polygon fill="white" stroke="black" points="114,-76.5 114,-95.5 212,-95.5 212,-76.5 114,-76.5"/>
<text text-anchor="middle" x="163" y="-83.5" font-family="Helvetica,sans-Serif" font-size="10.00">handle_exposure</text>
</a>
</g>
</g>
<!-- Node1&#45;&gt;Node2 -->
<g id="edge1" class="edge"><title>Node1&#45;&gt;Node2</title>
<path fill="none" stroke="midnightblue" d="M88.3434,-86C96.7795,-86 105.553,-86 113.981,-86"/>
<polygon fill="midnightblue" stroke="midnightblue" points="88.2669,-82.5001 78.2668,-86 88.2668,-89.5001 88.2669,-82.5001"/>
</g>
<!-- Node3 -->
<g id="node3" class="node"><title>Node3</title>
<g id="a_node3"><a xlink:href="../../db/d50/getx11_8c.html#a3ed74bd65535ad004b2474fcddb67431" target="_top" xlink:title="get_pic">
<polygon fill="white" stroke="black" points="280.5,-152.5 280.5,-171.5 331.5,-171.5 331.5,-152.5 280.5,-152.5"/>
<text text-anchor="middle" x="306" y="-159.5" font-family="Helvetica,sans-Serif" font-size="10.00">get_pic</text>
</a>
</g>
</g>
<!-- Node1&#45;&gt;Node3 -->
<g id="edge13" class="edge"><title>Node1&#45;&gt;Node3</title>
<path fill="none" stroke="midnightblue" d="M82.9332,-98.3129C138.969,-114.384 235.192,-141.98 280.302,-154.917"/>
<polygon fill="midnightblue" stroke="midnightblue" points="83.8715,-94.941 73.2941,-95.5485 81.9417,-101.67 83.8715,-94.941"/>
</g>
<!-- Node4 -->
<g id="node4" class="node"><title>Node4</title>
<g id="a_node4"><a xlink:href="../../db/d50/getx11_8c.html#a5f73a6cc2fe97cb264e922a11724b17a" target="_top" xlink:title="mag_pan">
<polygon fill="white" stroke="black" points="275.5,-0.5 275.5,-19.5 336.5,-19.5 336.5,-0.5 275.5,-0.5"/>
<text text-anchor="middle" x="306" y="-7.5" font-family="Helvetica,sans-Serif" font-size="10.00">mag_pan</text>
</a>
</g>
</g>
<!-- Node1&#45;&gt;Node4 -->
<g id="edge14" class="edge"><title>Node1&#45;&gt;Node4</title>
<path fill="none" stroke="midnightblue" d="M82.9314,-73.6876C136.977,-58.1877 228.407,-31.9663 275.306,-18.516"/>
<polygon fill="midnightblue" stroke="midnightblue" points="81.9417,-70.3303 73.2941,-76.4515 83.8715,-77.059 81.9417,-70.3303"/>
</g>
<!-- Node2&#45;&gt;Node3 -->
<g id="edge2" class="edge"><title>Node2&#45;&gt;Node3</title>
<path fill="none" stroke="midnightblue" d="M184.148,-102.006C200.586,-114.475 224.804,-131.537 248,-143 258.193,-148.037 270.04,-152.229 280.284,-155.383"/>
<polygon fill="midnightblue" stroke="midnightblue" points="185.926,-98.9574 175.872,-95.6164 181.648,-104.498 185.926,-98.9574"/>
</g>
<!-- Node2&#45;&gt;Node4 -->
<g id="edge3" class="edge"><title>Node2&#45;&gt;Node4</title>
<path fill="none" stroke="midnightblue" d="M186.349,-70.8354C202.962,-59.8948 226.395,-45.1495 248,-34 258.21,-28.7313 269.842,-23.6741 279.925,-19.5721"/>
<polygon fill="midnightblue" stroke="midnightblue" points="184.261,-68.0205 177.876,-76.4751 188.14,-73.8476 184.261,-68.0205"/>
</g>
<!-- Node5 -->
<g id="node5" class="node"><title>Node5</title>
<g id="a_node5"><a xlink:href="../../db/d50/getx11_8c.html#afd87900bb416432f303847ae3e35c2c6" target="_top" xlink:title="update_pic">
<polygon fill="white" stroke="black" points="559,-76.5 559,-95.5 627,-95.5 627,-76.5 559,-76.5"/>
<text text-anchor="middle" x="593" y="-83.5" font-family="Helvetica,sans-Serif" font-size="10.00">update_pic</text>
</a>
</g>
</g>
<!-- Node2&#45;&gt;Node5 -->
<g id="edge12" class="edge"><title>Node2&#45;&gt;Node5</title>
<path fill="none" stroke="midnightblue" d="M207.989,-74.116C220.792,-71.185 234.868,-68.4666 248,-67 361.537,-54.3196 497.145,-71.1372 558.689,-80.4949"/>
<polygon fill="midnightblue" stroke="midnightblue" points="206.95,-70.7656 198.037,-76.4923 208.576,-77.5742 206.95,-70.7656"/>
</g>
<!-- Node6 -->
<g id="node6" class="node"><title>Node6</title>
<g id="a_node6"><a xlink:href="../../dd/dc5/prototypes_8h.html#abf9e83a3bd78c3da1914a25f6755936c" target="_top" xlink:title="action_flip_forward">
<polygon fill="white" stroke="black" points="252.5,-114.5 252.5,-133.5 359.5,-133.5 359.5,-114.5 252.5,-114.5"/>
<text text-anchor="middle" x="306" y="-121.5" font-family="Helvetica,sans-Serif" font-size="10.00">action_flip_forward</text>
</a>
</g>
</g>
<!-- Node2&#45;&gt;Node6 -->
<g id="edge5" class="edge"><title>Node2&#45;&gt;Node6</title>
<path fill="none" stroke="midnightblue" d="M209.44,-98.2462C228.875,-103.484 251.231,-109.509 269.431,-114.414"/>
<polygon fill="midnightblue" stroke="midnightblue" points="210.147,-94.8118 199.58,-95.589 208.325,-101.571 210.147,-94.8118"/>
</g>
<!-- Node8 -->
<g id="node8" class="node"><title>Node8</title>
<g id="a_node8"><a xlink:href="../../dd/dc5/prototypes_8h.html#a4251686895d72cff93ebcf2f4f57f02a" target="_top" xlink:title="action_flip_backward">
<polygon fill="white" stroke="black" points="248,-76.5 248,-95.5 364,-95.5 364,-76.5 248,-76.5"/>
<text text-anchor="middle" x="306" y="-83.5" font-family="Helvetica,sans-Serif" font-size="10.00">action_flip_backward</text>
</a>
</g>
</g>
<!-- Node2&#45;&gt;Node8 -->
<g id="edge9" class="edge"><title>Node2&#45;&gt;Node8</title>
<path fill="none" stroke="midnightblue" d="M222.28,-86C230.727,-86 239.416,-86 247.84,-86"/>
<polygon fill="midnightblue" stroke="midnightblue" points="222.13,-82.5001 212.13,-86 222.13,-89.5001 222.13,-82.5001"/>
</g>
<!-- Node4&#45;&gt;Node5 -->
<g id="edge4" class="edge"><title>Node4&#45;&gt;Node5</title>
<path fill="none" stroke="midnightblue" d="M346.967,-8.23415C391.505,-7.65705 464.894,-10.9104 523,-34 547.255,-43.6383 570.415,-64.1972 582.763,-76.3789"/>
<polygon fill="midnightblue" stroke="midnightblue" points="346.761,-4.73748 336.834,-8.43856 346.903,-11.7361 346.761,-4.73748"/>
</g>
<!-- Node6&#45;&gt;Node5 -->
<g id="edge8" class="edge"><title>Node6&#45;&gt;Node5</title>
<path fill="none" stroke="midnightblue" d="M343.898,-136.48C387.899,-149.297 463.024,-164.569 523,-143 549.318,-133.535 572.739,-109.2 584.326,-95.5857"/>
<polygon fill="midnightblue" stroke="midnightblue" points="344.789,-133.093 334.204,-133.549 342.763,-139.794 344.789,-133.093"/>
</g>
<!-- Node7 -->
<g id="node7" class="node"><title>Node7</title>
<g id="a_node7"><a xlink:href="../../dd/dc5/prototypes_8h.html#a881a8dc113b79054ba77b23f68504be1" target="_top" xlink:title="action_flip_book_cycle">
<polygon fill="white" stroke="black" points="400,-114.5 400,-133.5 523,-133.5 523,-114.5 400,-114.5"/>
<text text-anchor="middle" x="461.5" y="-121.5" font-family="Helvetica,sans-Serif" font-size="10.00">action_flip_book_cycle</text>
</a>
</g>
</g>
<!-- Node6&#45;&gt;Node7 -->
<g id="edge6" class="edge"><title>Node6&#45;&gt;Node7</title>
<path fill="none" stroke="midnightblue" d="M369.992,-124C379.884,-124 390.091,-124 399.927,-124"/>
<polygon fill="midnightblue" stroke="midnightblue" points="369.826,-120.5 359.826,-124 369.826,-127.5 369.826,-120.5"/>
</g>
<!-- Node7&#45;&gt;Node5 -->
<g id="edge7" class="edge"><title>Node7&#45;&gt;Node5</title>
<path fill="none" stroke="midnightblue" d="M505.219,-111.465C522.836,-106.295 542.923,-100.401 559.332,-95.5859"/>
<polygon fill="midnightblue" stroke="midnightblue" points="503.788,-108.237 495.178,-114.411 505.759,-114.954 503.788,-108.237"/>
</g>
<!-- Node8&#45;&gt;Node5 -->
<g id="edge11" class="edge"><title>Node8&#45;&gt;Node5</title>
<path fill="none" stroke="midnightblue" d="M374.524,-86C432.575,-86 513.838,-86 558.792,-86"/>
<polygon fill="midnightblue" stroke="midnightblue" points="374.331,-82.5001 364.331,-86 374.331,-89.5001 374.331,-82.5001"/>
</g>
<!-- Node8&#45;&gt;Node7 -->
<g id="edge10" class="edge"><title>Node8&#45;&gt;Node7</title>
<path fill="none" stroke="midnightblue" d="M355.635,-98.04C377.08,-103.349 401.923,-109.499 422.044,-114.48"/>
<polygon fill="midnightblue" stroke="midnightblue" points="356.283,-94.5947 345.735,-95.589 354.6,-101.39 356.283,-94.5947"/>
</g>
</g>
</svg>
