<?xml version="1.0" encoding="UTF-8" standalone="no"?>
<!DOCTYPE svg PUBLIC "-//W3C//DTD SVG 1.1//EN"
 "http://www.w3.org/Graphics/SVG/1.1/DTD/svg11.dtd">
<!-- Generated by graphviz version 2.38.0 (20140413.2041)
 -->
<!-- Title: set_watch_cursor Pages: 1 -->
<svg width="309pt" height="66pt"
 viewBox="0.00 0.00 309.00 66.00" xmlns="http://www.w3.org/2000/svg" xmlns:xlink="http://www.w3.org/1999/xlink">
<g id="graph0" class="graph" transform="scale(1 1) rotate(0) translate(4 62)">
<title>set_watch_cursor</title>
<polygon fill="white" stroke="none" points="-4,4 -4,-62 305,-62 305,4 -4,4"/>
<!-- Node1 -->
<g id="node1" class="node"><title>Node1</title>
<polygon fill="#bfbfbf" stroke="black" points="0,-19.5 0,-38.5 100,-38.5 100,-19.5 0,-19.5"/>
<text text-anchor="middle" x="50" y="-26.5" font-family="Helvetica,sans-Serif" font-size="10.00">set_watch_cursor</text>
</g>
<!-- Node2 -->
<g id="node2" class="node"><title>Node2</title>
<g id="a_node2"><a xlink:href="../../db/d50/getx11_8c.html#a3ed74bd65535ad004b2474fcddb67431" target="_top" xlink:title="get_pic">
<polygon fill="white" stroke="black" points="141,-38.5 141,-57.5 192,-57.5 192,-38.5 141,-38.5"/>
<text text-anchor="middle" x="166.5" y="-45.5" font-family="Helvetica,sans-Serif" font-size="10.00">get_pic</text>
</a>
</g>
</g>
<!-- Node1&#45;&gt;Node2 -->
<g id="edge1" class="edge"><title>Node1&#45;&gt;Node2</title>
<path fill="none" stroke="midnightblue" d="M110.174,-38.8193C121.03,-40.6207 131.794,-42.4069 140.902,-43.9182"/>
<polygon fill="midnightblue" stroke="midnightblue" points="110.661,-35.3523 100.223,-37.168 109.515,-42.2578 110.661,-35.3523"/>
</g>
<!-- Node3 -->
<g id="node3" class="node"><title>Node3</title>
<g id="a_node3"><a xlink:href="../../db/d50/getx11_8c.html#a5f73a6cc2fe97cb264e922a11724b17a" target="_top" xlink:title="mag_pan">
<polygon fill="white" stroke="black" points="136,-0.5 136,-19.5 197,-19.5 197,-0.5 136,-0.5"/>
<text text-anchor="middle" x="166.5" y="-7.5" font-family="Helvetica,sans-Serif" font-size="10.00">mag_pan</text>
</a>
</g>
</g>
<!-- Node1&#45;&gt;Node3 -->
<g id="edge2" class="edge"><title>Node1&#45;&gt;Node3</title>
<path fill="none" stroke="midnightblue" d="M110.231,-19.1712C119.112,-17.6975 127.93,-16.2344 135.827,-14.9239"/>
<polygon fill="midnightblue" stroke="midnightblue" points="109.515,-15.7422 100.223,-20.832 110.661,-22.6477 109.515,-15.7422"/>
</g>
<!-- Node4 -->
<g id="node4" class="node"><title>Node4</title>
<g id="a_node4"><a xlink:href="../../db/d50/getx11_8c.html#afd87900bb416432f303847ae3e35c2c6" target="_top" xlink:title="update_pic">
<polygon fill="white" stroke="black" points="233,-0.5 233,-19.5 301,-19.5 301,-0.5 233,-0.5"/>
<text text-anchor="middle" x="267" y="-7.5" font-family="Helvetica,sans-Serif" font-size="10.00">update_pic</text>
</a>
</g>
</g>
<!-- Node3&#45;&gt;Node4 -->
<g id="edge3" class="edge"><title>Node3&#45;&gt;Node4</title>
<path fill="none" stroke="midnightblue" d="M207.122,-10C215.595,-10 224.464,-10 232.672,-10"/>
<polygon fill="midnightblue" stroke="midnightblue" points="207.053,-6.5001 197.053,-10 207.053,-13.5001 207.053,-6.5001"/>
</g>
</g>
</svg>
