<?xml version="1.0" encoding="UTF-8" standalone="no"?>
<!DOCTYPE svg PUBLIC "-//W3C//DTD SVG 1.1//EN"
 "http://www.w3.org/Graphics/SVG/1.1/DTD/svg11.dtd">
<!-- Generated by graphviz version 2.38.0 (20140413.2041)
 -->
<!-- Title: get_dither_arrays Pages: 1 -->
<svg width="270pt" height="256pt"
 viewBox="0.00 0.00 270.00 256.00" xmlns="http://www.w3.org/2000/svg" xmlns:xlink="http://www.w3.org/1999/xlink">
<g id="graph0" class="graph" transform="scale(1 1) rotate(0) translate(4 252)">
<title>get_dither_arrays</title>
<polygon fill="white" stroke="none" points="-4,4 -4,-252 266,-252 266,4 -4,4"/>
<!-- Node1 -->
<g id="node1" class="node"><title>Node1</title>
<polygon fill="#bfbfbf" stroke="black" points="0,-114.5 0,-133.5 101,-133.5 101,-114.5 0,-114.5"/>
<text text-anchor="middle" x="50.5" y="-121.5" font-family="Helvetica,sans-Serif" font-size="10.00">get_dither_arrays</text>
</g>
<!-- Node2 -->
<g id="node2" class="node"><title>Node2</title>
<g id="a_node2"><a xlink:href="../../dd/d17/x11__stuff_8c.html#aa8509763c57678ec28bcda93fed61e59" target="_top" xlink:title="init_color">
<polygon fill="white" stroke="black" points="170,-228.5 170,-247.5 229,-247.5 229,-228.5 170,-228.5"/>
<text text-anchor="middle" x="199.5" y="-235.5" font-family="Helvetica,sans-Serif" font-size="10.00">init_color</text>
</a>
</g>
</g>
<!-- Node1&#45;&gt;Node2 -->
<g id="edge1" class="edge"><title>Node1&#45;&gt;Node2</title>
<path fill="none" stroke="midnightblue" d="M63.2395,-142.133C77.9867,-163.513 105.244,-198.698 137,-219 146.886,-225.32 159.009,-229.652 169.87,-232.564"/>
<polygon fill="midnightblue" stroke="midnightblue" points="66.0194,-139.994 57.5404,-133.641 60.2071,-143.895 66.0194,-139.994"/>
</g>
<!-- Node3 -->
<g id="node3" class="node"><title>Node3</title>
<g id="a_node3"><a xlink:href="../../dd/d17/x11__stuff_8c.html#abdff2750647853dba9cc67373d9c9d0c" target="_top" xlink:title="init_separate_color_rw">
<polygon fill="white" stroke="black" points="137,-190.5 137,-209.5 262,-209.5 262,-190.5 137,-190.5"/>
<text text-anchor="middle" x="199.5" y="-197.5" font-family="Helvetica,sans-Serif" font-size="10.00">init_separate_color_rw</text>
</a>
</g>
</g>
<!-- Node1&#45;&gt;Node3 -->
<g id="edge2" class="edge"><title>Node1&#45;&gt;Node3</title>
<path fill="none" stroke="midnightblue" d="M71.522,-139.778C88.2464,-152.343 113.127,-169.649 137,-181 144.67,-184.647 153.206,-187.803 161.419,-190.438"/>
<polygon fill="midnightblue" stroke="midnightblue" points="73.638,-136.99 63.5682,-133.695 69.3859,-142.55 73.638,-136.99"/>
</g>
<!-- Node4 -->
<g id="node4" class="node"><title>Node4</title>
<g id="a_node4"><a xlink:href="../../dd/d17/x11__stuff_8c.html#a81944846c1fed64eee7b11566ffce0cc" target="_top" xlink:title="init_color_rw">
<polygon fill="white" stroke="black" points="161,-152.5 161,-171.5 238,-171.5 238,-152.5 161,-152.5"/>
<text text-anchor="middle" x="199.5" y="-159.5" font-family="Helvetica,sans-Serif" font-size="10.00">init_color_rw</text>
</a>
</g>
</g>
<!-- Node1&#45;&gt;Node4 -->
<g id="edge3" class="edge"><title>Node1&#45;&gt;Node4</title>
<path fill="none" stroke="midnightblue" d="M98.3548,-136.112C118.828,-141.404 142.49,-147.521 161.672,-152.48"/>
<polygon fill="midnightblue" stroke="midnightblue" points="99.152,-132.703 88.5943,-133.589 97.4001,-139.48 99.152,-132.703"/>
</g>
<!-- Node5 -->
<g id="node5" class="node"><title>Node5</title>
<g id="a_node5"><a xlink:href="../../dd/d17/x11__stuff_8c.html#adf61523675f79528c0b09be8e46bea3f" target="_top" xlink:title="init_separate_color_ro">
<polygon fill="white" stroke="black" points="138,-114.5 138,-133.5 261,-133.5 261,-114.5 138,-114.5"/>
<text text-anchor="middle" x="199.5" y="-121.5" font-family="Helvetica,sans-Serif" font-size="10.00">init_separate_color_ro</text>
</a>
</g>
</g>
<!-- Node1&#45;&gt;Node5 -->
<g id="edge4" class="edge"><title>Node1&#45;&gt;Node5</title>
<path fill="none" stroke="midnightblue" d="M111.361,-124C120.089,-124 129.083,-124 137.828,-124"/>
<polygon fill="midnightblue" stroke="midnightblue" points="111.268,-120.5 101.267,-124 111.267,-127.5 111.268,-120.5"/>
</g>
<!-- Node6 -->
<g id="node6" class="node"><title>Node6</title>
<g id="a_node6"><a xlink:href="../../dd/d17/x11__stuff_8c.html#aa2536bbb4df94156f9acb28c302208a2" target="_top" xlink:title="init_color_ro">
<polygon fill="white" stroke="black" points="162,-76.5 162,-95.5 237,-95.5 237,-76.5 162,-76.5"/>
<text text-anchor="middle" x="199.5" y="-83.5" font-family="Helvetica,sans-Serif" font-size="10.00">init_color_ro</text>
</a>
</g>
</g>
<!-- Node1&#45;&gt;Node6 -->
<g id="edge5" class="edge"><title>Node1&#45;&gt;Node6</title>
<path fill="none" stroke="midnightblue" d="M98.393,-111.878C118.948,-106.565 142.712,-100.421 161.927,-95.4543"/>
<polygon fill="midnightblue" stroke="midnightblue" points="97.4001,-108.52 88.5943,-114.411 99.152,-115.297 97.4001,-108.52"/>
</g>
<!-- Node7 -->
<g id="node7" class="node"><title>Node7</title>
<g id="a_node7"><a xlink:href="../../dd/d17/x11__stuff_8c.html#a61dbe43c8c55c80734ca3a480c556eef" target="_top" xlink:title="init_mono_rw">
<polygon fill="white" stroke="black" points="159.5,-38.5 159.5,-57.5 239.5,-57.5 239.5,-38.5 159.5,-38.5"/>
<text text-anchor="middle" x="199.5" y="-45.5" font-family="Helvetica,sans-Serif" font-size="10.00">init_mono_rw</text>
</a>
</g>
</g>
<!-- Node1&#45;&gt;Node7 -->
<g id="edge6" class="edge"><title>Node1&#45;&gt;Node7</title>
<path fill="none" stroke="midnightblue" d="M71.522,-108.222C88.2464,-95.6571 113.127,-78.3505 137,-67 144.67,-63.3532 153.206,-60.1971 161.419,-57.5617"/>
<polygon fill="midnightblue" stroke="midnightblue" points="69.3859,-105.45 63.5682,-114.305 73.638,-111.01 69.3859,-105.45"/>
</g>
<!-- Node8 -->
<g id="node8" class="node"><title>Node8</title>
<g id="a_node8"><a xlink:href="../../dd/d17/x11__stuff_8c.html#a58b120346f31dbeef2ae9c79bcd1ab4c" target="_top" xlink:title="init_mono_ro">
<polygon fill="white" stroke="black" points="160.5,-0.5 160.5,-19.5 238.5,-19.5 238.5,-0.5 160.5,-0.5"/>
<text text-anchor="middle" x="199.5" y="-7.5" font-family="Helvetica,sans-Serif" font-size="10.00">init_mono_ro</text>
</a>
</g>
</g>
<!-- Node1&#45;&gt;Node8 -->
<g id="edge7" class="edge"><title>Node1&#45;&gt;Node8</title>
<path fill="none" stroke="midnightblue" d="M63.2395,-105.867C77.9867,-84.4875 105.244,-49.3016 137,-29 144.062,-24.4856 152.264,-20.9856 160.333,-18.293"/>
<polygon fill="midnightblue" stroke="midnightblue" points="60.2071,-104.105 57.5404,-114.359 66.0194,-108.006 60.2071,-104.105"/>
</g>
</g>
</svg>
