<?xml version="1.0" encoding="UTF-8" standalone="no"?>
<!DOCTYPE svg PUBLIC "-//W3C//DTD SVG 1.1//EN"
 "http://www.w3.org/Graphics/SVG/1.1/DTD/svg11.dtd">
<!-- Generated by graphviz version 2.38.0 (20140413.2041)
 -->
<!-- Title: set_timer Pages: 1 -->
<svg width="483pt" height="66pt"
 viewBox="0.00 0.00 483.00 66.00" xmlns="http://www.w3.org/2000/svg" xmlns:xlink="http://www.w3.org/1999/xlink">
<g id="graph0" class="graph" transform="scale(1 1) rotate(0) translate(4 62)">
<title>set_timer</title>
<polygon fill="white" stroke="none" points="-4,4 -4,-62 479,-62 479,4 -4,4"/>
<!-- Node1 -->
<g id="node1" class="node"><title>Node1</title>
<polygon fill="#bfbfbf" stroke="black" points="0,-19.5 0,-38.5 60,-38.5 60,-19.5 0,-19.5"/>
<text text-anchor="middle" x="30" y="-26.5" font-family="Helvetica,sans-Serif" font-size="10.00">set_timer</text>
</g>
<!-- Node2 -->
<g id="node2" class="node"><title>Node2</title>
<g id="a_node2"><a xlink:href="../../dd/dc5/prototypes_8h.html#abf9e83a3bd78c3da1914a25f6755936c" target="_top" xlink:title="action_flip_forward">
<polygon fill="white" stroke="black" points="100.5,-38.5 100.5,-57.5 207.5,-57.5 207.5,-38.5 100.5,-38.5"/>
<text text-anchor="middle" x="154" y="-45.5" font-family="Helvetica,sans-Serif" font-size="10.00">action_flip_forward</text>
</a>
</g>
</g>
<!-- Node1&#45;&gt;Node2 -->
<g id="edge1" class="edge"><title>Node1&#45;&gt;Node2</title>
<path fill="none" stroke="midnightblue" d="M70.1992,-35.1048C79.739,-36.5905 90.0979,-38.2038 100.156,-39.7701"/>
<polygon fill="midnightblue" stroke="midnightblue" points="70.6416,-31.6316 60.222,-33.551 69.5643,-38.5482 70.6416,-31.6316"/>
</g>
<!-- Node5 -->
<g id="node5" class="node"><title>Node5</title>
<g id="a_node5"><a xlink:href="../../dd/dc5/prototypes_8h.html#a4251686895d72cff93ebcf2f4f57f02a" target="_top" xlink:title="action_flip_backward">
<polygon fill="white" stroke="black" points="96,-0.5 96,-19.5 212,-19.5 212,-0.5 96,-0.5"/>
<text text-anchor="middle" x="154" y="-7.5" font-family="Helvetica,sans-Serif" font-size="10.00">action_flip_backward</text>
</a>
</g>
</g>
<!-- Node1&#45;&gt;Node5 -->
<g id="edge5" class="edge"><title>Node1&#45;&gt;Node5</title>
<path fill="none" stroke="midnightblue" d="M70.1921,-22.8963C78.3584,-21.6245 87.1253,-20.2592 95.7899,-18.9098"/>
<polygon fill="midnightblue" stroke="midnightblue" points="69.5643,-19.4518 60.222,-24.449 70.6416,-26.3684 69.5643,-19.4518"/>
</g>
<!-- Node3 -->
<g id="node3" class="node"><title>Node3</title>
<g id="a_node3"><a xlink:href="../../dd/dc5/prototypes_8h.html#a881a8dc113b79054ba77b23f68504be1" target="_top" xlink:title="action_flip_book_cycle">
<polygon fill="white" stroke="black" points="248,-19.5 248,-38.5 371,-38.5 371,-19.5 248,-19.5"/>
<text text-anchor="middle" x="309.5" y="-26.5" font-family="Helvetica,sans-Serif" font-size="10.00">action_flip_book_cycle</text>
</a>
</g>
</g>
<!-- Node2&#45;&gt;Node3 -->
<g id="edge2" class="edge"><title>Node2&#45;&gt;Node3</title>
<path fill="none" stroke="midnightblue" d="M217.992,-40.203C227.884,-38.9785 238.091,-37.7151 247.927,-36.4976"/>
<polygon fill="midnightblue" stroke="midnightblue" points="217.32,-36.7593 207.826,-41.4613 218.18,-43.7063 217.32,-36.7593"/>
</g>
<!-- Node4 -->
<g id="node4" class="node"><title>Node4</title>
<g id="a_node4"><a xlink:href="../../db/d50/getx11_8c.html#afd87900bb416432f303847ae3e35c2c6" target="_top" xlink:title="update_pic">
<polygon fill="white" stroke="black" points="407,-19.5 407,-38.5 475,-38.5 475,-19.5 407,-19.5"/>
<text text-anchor="middle" x="441" y="-26.5" font-family="Helvetica,sans-Serif" font-size="10.00">update_pic</text>
</a>
</g>
</g>
<!-- Node2&#45;&gt;Node4 -->
<g id="edge4" class="edge"><title>Node2&#45;&gt;Node4</title>
<path fill="none" stroke="midnightblue" d="M217.737,-52.4208C261.006,-54.3907 319.738,-54.9289 371,-48 384.791,-46.136 399.721,-42.2663 412.155,-38.5026"/>
<polygon fill="midnightblue" stroke="midnightblue" points="217.801,-48.9198 207.641,-51.9225 217.456,-55.9112 217.801,-48.9198"/>
</g>
<!-- Node3&#45;&gt;Node4 -->
<g id="edge3" class="edge"><title>Node3&#45;&gt;Node4</title>
<path fill="none" stroke="midnightblue" d="M381.24,-29C390.214,-29 399.033,-29 407,-29"/>
<polygon fill="midnightblue" stroke="midnightblue" points="381.079,-25.5001 371.079,-29 381.079,-32.5001 381.079,-25.5001"/>
</g>
<!-- Node5&#45;&gt;Node3 -->
<g id="edge6" class="edge"><title>Node5&#45;&gt;Node3</title>
<path fill="none" stroke="midnightblue" d="M222.138,-18.3103C230.727,-19.3733 239.478,-20.4566 247.953,-21.5056"/>
<polygon fill="midnightblue" stroke="midnightblue" points="222.512,-14.8299 212.158,-17.0749 221.652,-21.7769 222.512,-14.8299"/>
</g>
<!-- Node5&#45;&gt;Node4 -->
<g id="edge7" class="edge"><title>Node5&#45;&gt;Node4</title>
<path fill="none" stroke="midnightblue" d="M222.144,-5.38598C264.939,-3.58159 321.458,-3.30366 371,-10 384.791,-11.864 399.721,-15.7337 412.155,-19.4974"/>
<polygon fill="midnightblue" stroke="midnightblue" points="221.956,-1.89085 212.127,-5.84657 222.277,-8.88347 221.956,-1.89085"/>
</g>
</g>
</svg>
