<?xml version="1.0" encoding="UTF-8" standalone="no"?>
<!DOCTYPE svg PUBLIC "-//W3C//DTD SVG 1.1//EN"
 "http://www.w3.org/Graphics/SVG/1.1/DTD/svg11.dtd">
<!-- Generated by graphviz version 2.38.0 (20140413.2041)
 -->
<!-- Title: XCopyImage Pages: 1 -->
<svg width="286pt" height="28pt"
 viewBox="0.00 0.00 286.00 28.00" xmlns="http://www.w3.org/2000/svg" xmlns:xlink="http://www.w3.org/1999/xlink">
<g id="graph0" class="graph" transform="scale(1 1) rotate(0) translate(4 24)">
<title>XCopyImage</title>
<polygon fill="white" stroke="none" points="-4,4 -4,-24 282,-24 282,4 -4,4"/>
<!-- Node1 -->
<g id="node1" class="node"><title>Node1</title>
<polygon fill="#bfbfbf" stroke="black" points="0,-0.5 0,-19.5 77,-19.5 77,-0.5 0,-0.5"/>
<text text-anchor="middle" x="38.5" y="-7.5" font-family="Helvetica,sans-Serif" font-size="10.00">XCopyImage</text>
</g>
<!-- Node2 -->
<g id="node2" class="node"><title>Node2</title>
<g id="a_node2"><a xlink:href="../../db/d50/getx11_8c.html#a5f73a6cc2fe97cb264e922a11724b17a" target="_top" xlink:title="mag_pan">
<polygon fill="white" stroke="black" points="113,-0.5 113,-19.5 174,-19.5 174,-0.5 113,-0.5"/>
<text text-anchor="middle" x="143.5" y="-7.5" font-family="Helvetica,sans-Serif" font-size="10.00">mag_pan</text>
</a>
</g>
</g>
<!-- Node1&#45;&gt;Node2 -->
<g id="edge1" class="edge"><title>Node1&#45;&gt;Node2</title>
<path fill="none" stroke="midnightblue" d="M87.3341,-10C96.0137,-10 104.833,-10 112.799,-10"/>
<polygon fill="midnightblue" stroke="midnightblue" points="87.2686,-6.5001 77.2685,-10 87.2685,-13.5001 87.2686,-6.5001"/>
</g>
<!-- Node3 -->
<g id="node3" class="node"><title>Node3</title>
<g id="a_node3"><a xlink:href="../../db/d50/getx11_8c.html#afd87900bb416432f303847ae3e35c2c6" target="_top" xlink:title="update_pic">
<polygon fill="white" stroke="black" points="210,-0.5 210,-19.5 278,-19.5 278,-0.5 210,-0.5"/>
<text text-anchor="middle" x="244" y="-7.5" font-family="Helvetica,sans-Serif" font-size="10.00">update_pic</text>
</a>
</g>
</g>
<!-- Node2&#45;&gt;Node3 -->
<g id="edge2" class="edge"><title>Node2&#45;&gt;Node3</title>
<path fill="none" stroke="midnightblue" d="M184.122,-10C192.595,-10 201.464,-10 209.672,-10"/>
<polygon fill="midnightblue" stroke="midnightblue" points="184.053,-6.5001 174.053,-10 184.053,-13.5001 184.053,-6.5001"/>
</g>
</g>
</svg>
