<?xml version="1.0" encoding="UTF-8" standalone="no"?>
<!DOCTYPE svg PUBLIC "-//W3C//DTD SVG 1.1//EN"
 "http://www.w3.org/Graphics/SVG/1.1/DTD/svg11.dtd">
<!-- Generated by graphviz version 2.38.0 (20140413.2041)
 -->
<!-- Title: main Pages: 1 -->
<!--zoomable 681 -->
<svg id="main" version="1.1" xmlns="http://www.w3.org/2000/svg" xmlns:xlink="http://www.w3.org/1999/xlink" xml:space="preserve" onload="init(evt)">
<style type="text/css"><![CDATA[
.edge:hover path { stroke: red; }
.edge:hover polygon { stroke: red; fill: red; }
]]></style>
<script type="text/javascript"><![CDATA[
var edges = document.getElementsByTagName('g');
if (edges && edges.length) {
  for (var i=0;i<edges.length;i++) {
    if (edges[i].id.substr(0,4)=='edge') {
      edges[i].setAttribute('class','edge');
    }
  }
}
]]></script>
        <defs>
                <circle id="rim" cx="0" cy="0" r="7"/>
                <circle id="rim2" cx="0" cy="0" r="3.5"/>
                <g id="zoomPlus">
                        <use xlink:href="#rim" fill="#404040">
                                <set attributeName="fill" to="#808080" begin="zoomplus.mouseover" end="zoomplus.mouseout"/>
                        </use>
                        <path d="M-4,0h8M0,-4v8" fill="none" stroke="white" stroke-width="1.5" pointer-events="none"/>
                </g>
                <g id="zoomMin">
                        <use xlink:href="#rim" fill="#404040">
                                <set attributeName="fill" to="#808080" begin="zoomminus.mouseover" end="zoomminus.mouseout"/>
                        </use>
                        <path d="M-4,0h8" fill="none" stroke="white" stroke-width="1.5" pointer-events="none"/>
                </g>
                <g id="dirArrow">
                        <path fill="none" stroke="white" stroke-width="1.5" d="M0,-3.0v7 M-2.5,-0.5L0,-3.0L2.5,-0.5"/>
                </g>
               <g id="resetDef">
                       <use xlink:href="#rim2" fill="#404040">
                               <set attributeName="fill" to="#808080" begin="reset.mouseover" end="reset.mouseout"/>
                       </use>
               </g>
        </defs>

<script type="text/javascript">
var viewWidth = 524;
var viewHeight = 681;
var sectionId = 'dynsection-4';
</script>
<script xlink:href="../../svgpan.js"/>
<svg id="graph" class="graph">
<g id="viewport">
<title>main</title>
<polygon fill="white" stroke="none" points="-4,4 -4,-676.967 520,-676.967 520,4 -4,4"/>
<!-- Node1 -->
<g id="node1" class="node"><title>Node1</title>
<polygon fill="#bfbfbf" stroke="black" points="0,-323.5 0,-342.5 39,-342.5 39,-323.5 0,-323.5"/>
<text text-anchor="middle" x="19.5" y="-330.5" font-family="Helvetica,sans-Serif" font-size="10.00">main</text>
</g>
<!-- Node2 -->
<g id="node2" class="node"><title>Node2</title>
<g id="a_node2"><a xlink:href="../../d2/df3/rle__hdr_8c.html#a8ba0e5b11d1e39ab7227f1686e676c86" target="_top" xlink:title="rle_hdr_init">
<polygon fill="white" stroke="black" points="80.5,-456.5 80.5,-475.5 150.5,-475.5 150.5,-456.5 80.5,-456.5"/>
<text text-anchor="middle" x="115.5" y="-463.5" font-family="Helvetica,sans-Serif" font-size="10.00">rle_hdr_init</text>
</a>
</g>
</g>
<!-- Node1&#45;&gt;Node2 -->
<g id="edge1" class="edge"><title>Node1&#45;&gt;Node2</title>
<path fill="none" stroke="midnightblue" d="M23.255,-342.504C29.5393,-362.832 46.6226,-411.184 75,-442 78.0796,-445.344 81.7308,-448.384 85.5498,-451.09"/>
<polygon fill="midnightblue" stroke="midnightblue" points="83.7032,-454.063 94.0212,-456.469 87.4556,-448.154 83.7032,-454.063"/>
</g>
<!-- Node5 -->
<g id="node5" class="node"><title>Node5</title>
<g id="a_node5"><a xlink:href="../../d2/df3/rle__hdr_8c.html#afc916e29aea8788e0878ca315ff69821" target="_top" xlink:title="rle_hdr_cp">
<polygon fill="white" stroke="black" points="200,-418.5 200,-437.5 268,-437.5 268,-418.5 200,-418.5"/>
<text text-anchor="middle" x="234" y="-425.5" font-family="Helvetica,sans-Serif" font-size="10.00">rle_hdr_cp</text>
</a>
</g>
</g>
<!-- Node1&#45;&gt;Node5 -->
<g id="edge20" class="edge"><title>Node1&#45;&gt;Node5</title>
<path fill="none" stroke="midnightblue" d="M24.3179,-342.682C31.4694,-359.397 48.5884,-393.376 75,-409 109.546,-429.435 155.766,-432.796 189.285,-431.88"/>
<polygon fill="midnightblue" stroke="midnightblue" points="189.844,-435.36 199.69,-431.449 189.554,-428.366 189.844,-435.36"/>
</g>
<!-- Node7 -->
<g id="node7" class="node"><title>Node7</title>
<g id="a_node7"><a xlink:href="../../d2/df3/rle__hdr_8c.html#a82e79385f2d45cc3b80ce0f4f369eae5" target="_top" xlink:title="rle_names">
<polygon fill="white" stroke="black" points="330,-456.5 330,-475.5 396,-475.5 396,-456.5 330,-456.5"/>
<text text-anchor="middle" x="363" y="-463.5" font-family="Helvetica,sans-Serif" font-size="10.00">rle_names</text>
</a>
</g>
</g>
<!-- Node1&#45;&gt;Node7 -->
<g id="edge18" class="edge"><title>Node1&#45;&gt;Node7</title>
<path fill="none" stroke="midnightblue" d="M20.4833,-342.677C21.0247,-370.541 26.8566,-451.117 75,-485 113.387,-512.016 250.179,-489.104 320.138,-475.027"/>
<polygon fill="midnightblue" stroke="midnightblue" points="320.858,-478.452 329.955,-473.021 319.457,-471.594 320.858,-478.452"/>
</g>
<!-- Node8 -->
<g id="node8" class="node"><title>Node8</title>
<g id="a_node8"><a xlink:href="../../d4/db0/scanargs_8c.html#a7ea6d702c0484056c8504d6ce7fede08" target="_top" xlink:title="scanargs">
<polygon fill="white" stroke="black" points="85.5,-304.5 85.5,-323.5 145.5,-323.5 145.5,-304.5 85.5,-304.5"/>
<text text-anchor="middle" x="115.5" y="-311.5" font-family="Helvetica,sans-Serif" font-size="10.00">scanargs</text>
</a>
</g>
</g>
<!-- Node1&#45;&gt;Node8 -->
<g id="edge10" class="edge"><title>Node1&#45;&gt;Node8</title>
<path fill="none" stroke="midnightblue" d="M39.0714,-329.246C49.4572,-327.147 62.8095,-324.448 75.3863,-321.906"/>
<polygon fill="midnightblue" stroke="midnightblue" points="76.1266,-325.327 85.2349,-319.915 74.7397,-318.466 76.1266,-325.327"/>
</g>
<!-- Node10 -->
<g id="node10" class="node"><title>Node10</title>
<g id="a_node10"><a xlink:href="../../de/d4e/rle__open__f_8c.html#a89733a45961817885603ae01210290b7" target="_top" xlink:title="rle_open_f">
<polygon fill="white" stroke="black" points="200,-608.5 200,-627.5 268,-627.5 268,-608.5 200,-608.5"/>
<text text-anchor="middle" x="234" y="-615.5" font-family="Helvetica,sans-Serif" font-size="10.00">rle_open_f</text>
</a>
</g>
</g>
<!-- Node1&#45;&gt;Node10 -->
<g id="edge12" class="edge"><title>Node1&#45;&gt;Node10</title>
<path fill="none" stroke="midnightblue" d="M21.0767,-342.544C23.8595,-385.263 37.3442,-558.364 75,-594 105.263,-622.64 154.392,-625.937 189.839,-623.769"/>
<polygon fill="midnightblue" stroke="midnightblue" points="190.206,-627.251 199.904,-622.987 189.663,-620.272 190.206,-627.251"/>
</g>
<!-- Node13 -->
<g id="node13" class="node"><title>Node13</title>
<g id="a_node13"><a xlink:href="../../d8/d30/cmd__name_8c.html#a271249070fdd12c176777c77d76f888f" target="_top" xlink:title="cmd_name">
<polygon fill="white" stroke="black" points="81.5,-266.5 81.5,-285.5 149.5,-285.5 149.5,-266.5 81.5,-266.5"/>
<text text-anchor="middle" x="115.5" y="-273.5" font-family="Helvetica,sans-Serif" font-size="10.00">cmd_name</text>
</a>
</g>
</g>
<!-- Node1&#45;&gt;Node13 -->
<g id="edge17" class="edge"><title>Node1&#45;&gt;Node13</title>
<path fill="none" stroke="midnightblue" d="M33.1093,-323.338C43.9163,-315.272 60.0595,-303.726 75,-295 77.8256,-293.35 80.8163,-291.718 83.8371,-290.145"/>
<polygon fill="midnightblue" stroke="midnightblue" points="85.4715,-293.241 92.8542,-285.642 82.344,-286.978 85.4715,-293.241"/>
</g>
<!-- Node14 -->
<g id="node14" class="node"><title>Node14</title>
<g id="a_node14"><a xlink:href="../../da/d04/rlestereo_8c.html#ad89b8a322a371ce8c48ec030ce00dbbf" target="_top" xlink:title="get_rle_setup">
<polygon fill="white" stroke="black" points="75,-228.5 75,-247.5 156,-247.5 156,-228.5 75,-228.5"/>
<text text-anchor="middle" x="115.5" y="-235.5" font-family="Helvetica,sans-Serif" font-size="10.00">get_rle_setup</text>
</a>
</g>
</g>
<!-- Node1&#45;&gt;Node14 -->
<g id="edge19" class="edge"><title>Node1&#45;&gt;Node14</title>
<path fill="none" stroke="midnightblue" d="M25.3087,-323.417C33.5823,-307.741 51.8731,-276.421 75,-257 76.7519,-255.529 78.6371,-254.141 80.6,-252.838"/>
<polygon fill="midnightblue" stroke="midnightblue" points="82.6332,-255.705 89.5322,-247.664 79.1247,-249.648 82.6332,-255.705"/>
</g>
<!-- Node15 -->
<g id="node15" class="node"><title>Node15</title>
<g id="a_node15"><a xlink:href="../../d8/def/rle__addhist_8c.html#a4f9433d6e4e203d0ecea1c7d3837afc3" target="_top" xlink:title="rle_addhist">
<polygon fill="white" stroke="black" points="199.5,-304.5 199.5,-323.5 268.5,-323.5 268.5,-304.5 199.5,-304.5"/>
<text text-anchor="middle" x="234" y="-311.5" font-family="Helvetica,sans-Serif" font-size="10.00">rle_addhist</text>
</a>
</g>
</g>
<!-- Node1&#45;&gt;Node15 -->
<g id="edge21" class="edge"><title>Node1&#45;&gt;Node15</title>
<path fill="none" stroke="midnightblue" d="M39.4384,-334.435C65.7145,-336.101 114.666,-338.024 156,-333 167.84,-331.561 180.484,-328.92 192.032,-326.056"/>
<polygon fill="midnightblue" stroke="midnightblue" points="193.051,-329.407 201.85,-323.506 191.291,-322.632 193.051,-329.407"/>
</g>
<!-- Node20 -->
<g id="node20" class="node"><title>Node20</title>
<g id="a_node20"><a xlink:href="../../d9/d2a/rle__putrow_8c.html#af88a82b331cd6f425d2a2cc1623944c6" target="_top" xlink:title="rle_put_setup">
<polygon fill="white" stroke="black" points="75.5,-190.5 75.5,-209.5 155.5,-209.5 155.5,-190.5 75.5,-190.5"/>
<text text-anchor="middle" x="115.5" y="-197.5" font-family="Helvetica,sans-Serif" font-size="10.00">rle_put_setup</text>
</a>
</g>
</g>
<!-- Node1&#45;&gt;Node20 -->
<g id="edge28" class="edge"><title>Node1&#45;&gt;Node20</title>
<path fill="none" stroke="midnightblue" d="M22.7345,-323.48C28.1792,-302.169 44.0134,-250.061 75,-219 76.4108,-217.586 77.9476,-216.262 79.5697,-215.025"/>
<polygon fill="midnightblue" stroke="midnightblue" points="81.637,-217.858 88.2029,-209.543 77.8848,-211.948 81.637,-217.858"/>
</g>
<!-- Node22 -->
<g id="node22" class="node"><title>Node22</title>
<g id="a_node22"><a xlink:href="../../da/dbc/rle__row__alc_8c.html#abf83029f1ab364a8cb72524f58d70a3b" target="_top" xlink:title="rle_row_alloc">
<polygon fill="white" stroke="black" points="323,-494.5 323,-513.5 403,-513.5 403,-494.5 323,-494.5"/>
<text text-anchor="middle" x="363" y="-501.5" font-family="Helvetica,sans-Serif" font-size="10.00">rle_row_alloc</text>
</a>
</g>
</g>
<!-- Node1&#45;&gt;Node22 -->
<g id="edge30" class="edge"><title>Node1&#45;&gt;Node22</title>
<path fill="none" stroke="midnightblue" d="M20.0398,-342.592C19.1859,-372.688 21.1654,-465.586 75,-505 149.679,-559.676 267.089,-534.479 325.899,-516.535"/>
<polygon fill="midnightblue" stroke="midnightblue" points="327.013,-519.854 335.498,-513.51 324.909,-513.178 327.013,-519.854"/>
</g>
<!-- Node23 -->
<g id="node23" class="node"><title>Node23</title>
<g id="a_node23"><a xlink:href="../../dc/d11/getami_8c.html#a8f31580e06aae736fd6f1ed3c414ed94" target="_top" xlink:title="buildmap">
<polygon fill="white" stroke="black" points="86.5,-152.5 86.5,-171.5 144.5,-171.5 144.5,-152.5 86.5,-152.5"/>
<text text-anchor="middle" x="115.5" y="-159.5" font-family="Helvetica,sans-Serif" font-size="10.00">buildmap</text>
</a>
</g>
</g>
<!-- Node1&#45;&gt;Node23 -->
<g id="edge33" class="edge"><title>Node1&#45;&gt;Node23</title>
<path fill="none" stroke="midnightblue" d="M21.4564,-323.164C24.4967,-296.885 36.1562,-224.112 75,-181 76.1556,-179.717 77.4167,-178.513 78.7554,-177.383"/>
<polygon fill="midnightblue" stroke="midnightblue" points="80.7957,-180.228 87.0782,-171.696 76.8468,-174.448 80.7957,-180.228"/>
</g>
<!-- Node24 -->
<g id="node24" class="node"><title>Node24</title>
<g id="a_node24"><a xlink:href="../../db/d53/rle__getrow_8c.html#a3602e1158189cba5e5b0f9b983cba776" target="_top" xlink:title="rle_getrow">
<polygon fill="white" stroke="black" points="82,-114.5 82,-133.5 149,-133.5 149,-114.5 82,-114.5"/>
<text text-anchor="middle" x="115.5" y="-121.5" font-family="Helvetica,sans-Serif" font-size="10.00">rle_getrow</text>
</a>
</g>
</g>
<!-- Node1&#45;&gt;Node24 -->
<g id="edge34" class="edge"><title>Node1&#45;&gt;Node24</title>
<path fill="none" stroke="midnightblue" d="M20.6065,-323.447C21.4354,-293.299 27.8615,-198.863 75,-143 76.1134,-141.681 77.3397,-140.446 78.6501,-139.291"/>
<polygon fill="midnightblue" stroke="midnightblue" points="80.6997,-142.128 86.8751,-133.519 76.6789,-136.398 80.6997,-142.128"/>
</g>
<!-- Node26 -->
<g id="node26" class="node"><title>Node26</title>
<g id="a_node26"><a xlink:href="../../d8/d7c/rle__getskip_8c.html#af6b1e1dc0867e9340f90668591c7c5b3" target="_top" xlink:title="rle_getskip">
<polygon fill="white" stroke="black" points="200,-76.5 200,-95.5 268,-95.5 268,-76.5 200,-76.5"/>
<text text-anchor="middle" x="234" y="-83.5" font-family="Helvetica,sans-Serif" font-size="10.00">rle_getskip</text>
</a>
</g>
</g>
<!-- Node1&#45;&gt;Node26 -->
<g id="edge41" class="edge"><title>Node1&#45;&gt;Node26</title>
<path fill="none" stroke="midnightblue" d="M21.3692,-323.327C25.1299,-283.771 41.3499,-134.988 75,-105 105.881,-77.479 154.684,-75.6503 189.883,-78.8752"/>
<polygon fill="midnightblue" stroke="midnightblue" points="189.56,-82.3605 199.879,-79.958 190.314,-75.4013 189.56,-82.3605"/>
</g>
<!-- Node27 -->
<g id="node27" class="node"><title>Node27</title>
<g id="a_node27"><a xlink:href="../../da/d04/rlestereo_8c.html#af24ceb9566d8e764386b7a11c4a0aade" target="_top" xlink:title="convert_line">
<polygon fill="white" stroke="black" points="78.5,-38.5 78.5,-57.5 152.5,-57.5 152.5,-38.5 78.5,-38.5"/>
<text text-anchor="middle" x="115.5" y="-45.5" font-family="Helvetica,sans-Serif" font-size="10.00">convert_line</text>
</a>
</g>
</g>
<!-- Node1&#45;&gt;Node27 -->
<g id="edge37" class="edge"><title>Node1&#45;&gt;Node27</title>
<path fill="none" stroke="midnightblue" d="M21.4684,-323.491C25.878,-281.662 45.1405,-114.241 75,-72 77.3304,-68.7033 80.2705,-65.7754 83.4906,-63.1987"/>
<polygon fill="midnightblue" stroke="midnightblue" points="85.5719,-66.0162 91.8842,-57.507 81.6432,-60.2226 85.5719,-66.0162"/>
</g>
<!-- Node28 -->
<g id="node28" class="node"><title>Node28</title>
<g id="a_node28"><a xlink:href="../../d9/d2a/rle__putrow_8c.html#aa26532b01bc4f49b7383765cdc23ea72" target="_top" xlink:title="rle_putrow">
<polygon fill="white" stroke="black" points="82.5,-380.5 82.5,-399.5 148.5,-399.5 148.5,-380.5 82.5,-380.5"/>
<text text-anchor="middle" x="115.5" y="-387.5" font-family="Helvetica,sans-Serif" font-size="10.00">rle_putrow</text>
</a>
</g>
</g>
<!-- Node1&#45;&gt;Node28 -->
<g id="edge38" class="edge"><title>Node1&#45;&gt;Node28</title>
<path fill="none" stroke="midnightblue" d="M36.4458,-342.669C51.1188,-351.567 73.1007,-364.896 90.0017,-375.145"/>
<polygon fill="midnightblue" stroke="midnightblue" points="88.4241,-378.281 98.7897,-380.474 92.0537,-372.296 88.4241,-378.281"/>
</g>
<!-- Node30 -->
<g id="node30" class="node"><title>Node30</title>
<g id="a_node30"><a xlink:href="../../da/dbc/rle__row__alc_8c.html#a4fa936a985e542d42e91d272f9f6092d" target="_top" xlink:title="rle_row_free">
<polygon fill="white" stroke="black" points="324.5,-570.5 324.5,-589.5 401.5,-589.5 401.5,-570.5 324.5,-570.5"/>
<text text-anchor="middle" x="363" y="-577.5" font-family="Helvetica,sans-Serif" font-size="10.00">rle_row_free</text>
</a>
</g>
</g>
<!-- Node1&#45;&gt;Node30 -->
<g id="edge42" class="edge"><title>Node1&#45;&gt;Node30</title>
<path fill="none" stroke="midnightblue" d="M21.7416,-342.723C26.6064,-379.25 45.5634,-507.525 75,-534 140.751,-593.136 250.973,-592.865 313.969,-586.809"/>
<polygon fill="midnightblue" stroke="midnightblue" points="314.455,-590.278 324.035,-585.753 313.724,-583.316 314.455,-590.278"/>
</g>
<!-- Node31 -->
<g id="node31" class="node"><title>Node31</title>
<g id="a_node31"><a xlink:href="../../d9/d2a/rle__putrow_8c.html#af4fab734a5d227ad2ae95840f56fff3b" target="_top" xlink:title="rle_puteof">
<polygon fill="white" stroke="black" points="331,-646.5 331,-665.5 395,-665.5 395,-646.5 331,-646.5"/>
<text text-anchor="middle" x="363" y="-653.5" font-family="Helvetica,sans-Serif" font-size="10.00">rle_puteof</text>
</a>
</g>
</g>
<!-- Node1&#45;&gt;Node31 -->
<g id="edge44" class="edge"><title>Node1&#45;&gt;Node31</title>
<path fill="none" stroke="midnightblue" d="M20.8528,-342.647C22.7318,-388.351 33.1127,-582.509 75,-622 141.435,-684.633 258.437,-675.403 320.549,-664.827"/>
<polygon fill="midnightblue" stroke="midnightblue" points="321.534,-668.206 330.757,-662.992 320.296,-661.317 321.534,-668.206"/>
</g>
<!-- Node32 -->
<g id="node32" class="node"><title>Node32</title>
<g id="a_node32"><a xlink:href="../../d7/d24/rle__error_8c.html#af931d686cf3ca715c9b900527f0961c0" target="_top" xlink:title="rle_get_error">
<polygon fill="white" stroke="black" points="76,-0.5 76,-19.5 155,-19.5 155,-0.5 76,-0.5"/>
<text text-anchor="middle" x="115.5" y="-7.5" font-family="Helvetica,sans-Serif" font-size="10.00">rle_get_error</text>
</a>
</g>
</g>
<!-- Node1&#45;&gt;Node32 -->
<g id="edge46" class="edge"><title>Node1&#45;&gt;Node32</title>
<path fill="none" stroke="midnightblue" d="M21.0594,-323.441C23.9318,-277.23 38.3357,-77.2373 75,-29 75.803,-27.9436 76.6798,-26.9429 77.6168,-25.9953"/>
<polygon fill="midnightblue" stroke="midnightblue" points="79.9658,-28.6037 85.7471,-19.7252 75.6909,-23.0606 79.9658,-28.6037"/>
</g>
<!-- Node3 -->
<g id="node3" class="node"><title>Node3</title>
<g id="a_node3"><a xlink:href="../../d2/df3/rle__hdr_8c.html#a16c4da6201b3b8cf55127b9ca968d253" target="_top" xlink:title="rle_hdr_clear">
<polygon fill="white" stroke="black" points="323,-532.5 323,-551.5 403,-551.5 403,-532.5 323,-532.5"/>
<text text-anchor="middle" x="363" y="-539.5" font-family="Helvetica,sans-Serif" font-size="10.00">rle_hdr_clear</text>
</a>
</g>
</g>
<!-- Node2&#45;&gt;Node3 -->
<g id="edge2" class="edge"><title>Node2&#45;&gt;Node3</title>
<path fill="none" stroke="midnightblue" d="M147.593,-475.625C191.772,-489.302 272.754,-514.372 321.554,-529.479"/>
<polygon fill="midnightblue" stroke="midnightblue" points="320.572,-532.839 331.16,-532.453 322.642,-526.152 320.572,-532.839"/>
</g>
<!-- Node2&#45;&gt;Node5 -->
<g id="edge4" class="edge"><title>Node2&#45;&gt;Node5</title>
<path fill="none" stroke="midnightblue" d="M131.73,-456.301C146.465,-449.718 169.499,-441.601 189.878,-435.522"/>
<polygon fill="midnightblue" stroke="midnightblue" points="190.979,-438.847 199.621,-432.717 189.043,-432.12 190.979,-438.847"/>
</g>
<!-- Node4 -->
<g id="node4" class="node"><title>Node4</title>
<g id="a_node4"><a xlink:href="../../d0/dcc/rletorla_8c.html#aafde19f7d36ca163a143579c1b125b6d" target="_top" xlink:title="free">
<polygon fill="white" stroke="black" points="465.5,-551.5 465.5,-570.5 500.5,-570.5 500.5,-551.5 465.5,-551.5"/>
<text text-anchor="middle" x="483" y="-558.5" font-family="Helvetica,sans-Serif" font-size="10.00">free</text>
</a>
</g>
</g>
<!-- Node3&#45;&gt;Node4 -->
<g id="edge3" class="edge"><title>Node3&#45;&gt;Node4</title>
<path fill="none" stroke="midnightblue" d="M403.292,-548.327C420.397,-551.081 439.998,-554.237 455.361,-556.711"/>
<polygon fill="midnightblue" stroke="midnightblue" points="454.807,-560.166 465.236,-558.301 455.92,-553.256 454.807,-560.166"/>
</g>
<!-- Node5&#45;&gt;Node2 -->
<g id="edge5" class="edge"><title>Node5&#45;&gt;Node2</title>
<path fill="none" stroke="midnightblue" d="M218.156,-437.526C203.594,-444.07 180.668,-452.173 160.272,-458.284"/>
<polygon fill="midnightblue" stroke="midnightblue" points="159.143,-454.967 150.51,-461.108 161.089,-461.691 159.143,-454.967"/>
</g>
<!-- Node6 -->
<g id="node6" class="node"><title>Node6</title>
<g id="a_node6"><a xlink:href="../../d0/dcc/rletorla_8c.html#ab7e36af3707843f77cc5b4e831c2fa6d" target="_top" xlink:title="malloc">
<polygon fill="white" stroke="black" points="459.5,-418.5 459.5,-437.5 506.5,-437.5 506.5,-418.5 459.5,-418.5"/>
<text text-anchor="middle" x="483" y="-425.5" font-family="Helvetica,sans-Serif" font-size="10.00">malloc</text>
</a>
</g>
</g>
<!-- Node5&#45;&gt;Node6 -->
<g id="edge6" class="edge"><title>Node5&#45;&gt;Node6</title>
<path fill="none" stroke="midnightblue" d="M268.055,-428C315.374,-428 401.906,-428 449.125,-428"/>
<polygon fill="midnightblue" stroke="midnightblue" points="449.407,-431.5 459.407,-428 449.407,-424.5 449.407,-431.5"/>
</g>
<!-- Node5&#45;&gt;Node7 -->
<g id="edge7" class="edge"><title>Node5&#45;&gt;Node7</title>
<path fill="none" stroke="midnightblue" d="M267.047,-437.589C283.141,-442.404 302.841,-448.299 320.117,-453.468"/>
<polygon fill="midnightblue" stroke="midnightblue" points="319.379,-456.901 329.963,-456.414 321.386,-450.194 319.379,-456.901"/>
</g>
<!-- Node7&#45;&gt;Node4 -->
<g id="edge8" class="edge"><title>Node7&#45;&gt;Node4</title>
<path fill="none" stroke="midnightblue" d="M396.082,-475.577C402.3,-478.142 408.566,-481.266 414,-485 437.024,-500.82 457.498,-526.009 469.819,-543.009"/>
<polygon fill="midnightblue" stroke="midnightblue" points="467.175,-545.333 475.79,-551.499 472.9,-541.306 467.175,-545.333"/>
</g>
<!-- Node7&#45;&gt;Node6 -->
<g id="edge9" class="edge"><title>Node7&#45;&gt;Node6</title>
<path fill="none" stroke="midnightblue" d="M393.776,-456.411C410.784,-450.934 432.127,-444.061 449.559,-438.447"/>
<polygon fill="midnightblue" stroke="midnightblue" points="450.864,-441.704 459.31,-435.307 448.718,-435.041 450.864,-441.704"/>
</g>
<!-- Node9 -->
<g id="node9" class="node"><title>Node9</title>
<g id="a_node9"><a xlink:href="../../d4/db0/scanargs_8c.html#a862219039664df6eb3cfced58addf830" target="_top" xlink:title="_do_scanargs">
<polygon fill="white" stroke="black" points="192,-266.5 192,-285.5 276,-285.5 276,-266.5 192,-266.5"/>
<text text-anchor="middle" x="234" y="-273.5" font-family="Helvetica,sans-Serif" font-size="10.00">_do_scanargs</text>
</a>
</g>
</g>
<!-- Node8&#45;&gt;Node9 -->
<g id="edge11" class="edge"><title>Node8&#45;&gt;Node9</title>
<path fill="none" stroke="midnightblue" d="M145.597,-304.509C160.332,-299.703 178.419,-293.803 194.309,-288.62"/>
<polygon fill="midnightblue" stroke="midnightblue" points="195.448,-291.93 203.87,-285.502 193.277,-285.275 195.448,-291.93"/>
</g>
<!-- Node11 -->
<g id="node11" class="node"><title>Node11</title>
<g id="a_node11"><a xlink:href="../../de/d4e/rle__open__f_8c.html#a5a0e62a00f907fce26e93b2f72adb2b0" target="_top" xlink:title="rle_open_f_noexit">
<polygon fill="white" stroke="black" points="312,-608.5 312,-627.5 414,-627.5 414,-608.5 312,-608.5"/>
<text text-anchor="middle" x="363" y="-615.5" font-family="Helvetica,sans-Serif" font-size="10.00">rle_open_f_noexit</text>
</a>
</g>
</g>
<!-- Node10&#45;&gt;Node11 -->
<g id="edge13" class="edge"><title>Node10&#45;&gt;Node11</title>
<path fill="none" stroke="midnightblue" d="M268.036,-618C278.382,-618 290.141,-618 301.755,-618"/>
<polygon fill="midnightblue" stroke="midnightblue" points="301.885,-621.5 311.885,-618 301.885,-614.5 301.885,-621.5"/>
</g>
<!-- Node11&#45;&gt;Node4 -->
<g id="edge16" class="edge"><title>Node11&#45;&gt;Node4</title>
<path fill="none" stroke="midnightblue" d="M391.288,-608.457C398.745,-605.627 406.762,-602.375 414,-599 428.893,-592.055 444.967,-583.142 457.747,-575.694"/>
<polygon fill="midnightblue" stroke="midnightblue" points="459.576,-578.678 466.406,-570.578 456.016,-572.651 459.576,-578.678"/>
</g>
<!-- Node11&#45;&gt;Node6 -->
<g id="edge15" class="edge"><title>Node11&#45;&gt;Node6</title>
<path fill="none" stroke="midnightblue" d="M400.322,-608.392C405.336,-605.926 410.096,-602.844 414,-599 436.416,-576.925 464.587,-487.611 476.392,-447.578"/>
<polygon fill="midnightblue" stroke="midnightblue" points="479.775,-448.479 479.209,-437.899 473.054,-446.523 479.775,-448.479"/>
</g>
<!-- Node12 -->
<g id="node12" class="node"><title>Node12</title>
<g id="a_node12"><a xlink:href="../../de/d4e/rle__open__f_8c.html#a84fda810ae9b9bde82a6391d0b264ead" target="_top" xlink:title="my_popen">
<polygon fill="white" stroke="black" points="450,-608.5 450,-627.5 516,-627.5 516,-608.5 450,-608.5"/>
<text text-anchor="middle" x="483" y="-615.5" font-family="Helvetica,sans-Serif" font-size="10.00">my_popen</text>
</a>
</g>
</g>
<!-- Node11&#45;&gt;Node12 -->
<g id="edge14" class="edge"><title>Node11&#45;&gt;Node12</title>
<path fill="none" stroke="midnightblue" d="M414.043,-618C422.523,-618 431.255,-618 439.518,-618"/>
<polygon fill="midnightblue" stroke="midnightblue" points="439.678,-621.5 449.678,-618 439.678,-614.5 439.678,-621.5"/>
</g>
<!-- Node15&#45;&gt;Node6 -->
<g id="edge24" class="edge"><title>Node15&#45;&gt;Node6</title>
<path fill="none" stroke="midnightblue" d="M268.655,-322.195C305.658,-331.981 366.201,-350.311 414,-376 432.256,-385.811 450.801,-400.364 463.902,-411.581"/>
<polygon fill="midnightblue" stroke="midnightblue" points="461.841,-414.428 471.668,-418.387 466.455,-409.164 461.841,-414.428"/>
</g>
<!-- Node16 -->
<g id="node16" class="node"><title>Node16</title>
<g id="a_node16"><a xlink:href="../../db/db2/rle__getcom_8c.html#a9cefd612c381bf82c9cdf1f3a3b12dd6" target="_top" xlink:title="rle_getcom">
<polygon fill="white" stroke="black" points="328.5,-266.5 328.5,-285.5 397.5,-285.5 397.5,-266.5 328.5,-266.5"/>
<text text-anchor="middle" x="363" y="-273.5" font-family="Helvetica,sans-Serif" font-size="10.00">rle_getcom</text>
</a>
</g>
</g>
<!-- Node15&#45;&gt;Node16 -->
<g id="edge22" class="edge"><title>Node15&#45;&gt;Node16</title>
<path fill="none" stroke="midnightblue" d="M267.047,-304.411C283.141,-299.596 302.841,-293.701 320.117,-288.532"/>
<polygon fill="midnightblue" stroke="midnightblue" points="321.386,-291.806 329.963,-285.586 319.379,-285.099 321.386,-291.806"/>
</g>
<!-- Node18 -->
<g id="node18" class="node"><title>Node18</title>
<g id="a_node18"><a xlink:href="../../df/da5/rle__putcom_8c.html#a6fa8528c32d14763efe2a534e409e321" target="_top" xlink:title="rle_putcom">
<polygon fill="white" stroke="black" points="329,-304.5 329,-323.5 397,-323.5 397,-304.5 329,-304.5"/>
<text text-anchor="middle" x="363" y="-311.5" font-family="Helvetica,sans-Serif" font-size="10.00">rle_putcom</text>
</a>
</g>
</g>
<!-- Node15&#45;&gt;Node18 -->
<g id="edge25" class="edge"><title>Node15&#45;&gt;Node18</title>
<path fill="none" stroke="midnightblue" d="M268.7,-314C283.891,-314 302.024,-314 318.248,-314"/>
<polygon fill="midnightblue" stroke="midnightblue" points="318.583,-317.5 328.583,-314 318.583,-310.5 318.583,-317.5"/>
</g>
<!-- Node17 -->
<g id="node17" class="node"><title>Node17</title>
<g id="a_node17"><a xlink:href="../../db/db2/rle__getcom_8c.html#a7502c8b599724ce86fee5df1311a2337" target="_top" xlink:title="match">
<polygon fill="white" stroke="black" points="460.5,-266.5 460.5,-285.5 505.5,-285.5 505.5,-266.5 460.5,-266.5"/>
<text text-anchor="middle" x="483" y="-273.5" font-family="Helvetica,sans-Serif" font-size="10.00">match</text>
</a>
</g>
</g>
<!-- Node16&#45;&gt;Node17 -->
<g id="edge23" class="edge"><title>Node16&#45;&gt;Node17</title>
<path fill="none" stroke="midnightblue" d="M397.814,-276C414.35,-276 434.136,-276 450.37,-276"/>
<polygon fill="midnightblue" stroke="midnightblue" points="450.456,-279.5 460.456,-276 450.456,-272.5 450.456,-279.5"/>
</g>
<!-- Node18&#45;&gt;Node6 -->
<g id="edge26" class="edge"><title>Node18&#45;&gt;Node6</title>
<path fill="none" stroke="midnightblue" d="M389.795,-323.548C398.025,-327.309 406.845,-332.147 414,-338 439.011,-358.459 460.03,-389.933 471.812,-409.724"/>
<polygon fill="midnightblue" stroke="midnightblue" points="468.795,-411.498 476.832,-418.401 474.854,-407.993 468.795,-411.498"/>
</g>
<!-- Node19 -->
<g id="node19" class="node"><title>Node19</title>
<g id="a_node19"><a xlink:href="../../df/da5/rle__putcom_8c.html#a7502c8b599724ce86fee5df1311a2337" target="_top" xlink:title="match">
<polygon fill="white" stroke="black" points="460.5,-304.5 460.5,-323.5 505.5,-323.5 505.5,-304.5 460.5,-304.5"/>
<text text-anchor="middle" x="483" y="-311.5" font-family="Helvetica,sans-Serif" font-size="10.00">match</text>
</a>
</g>
</g>
<!-- Node18&#45;&gt;Node19 -->
<g id="edge27" class="edge"><title>Node18&#45;&gt;Node19</title>
<path fill="none" stroke="midnightblue" d="M397.184,-314C413.735,-314 433.664,-314 450.044,-314"/>
<polygon fill="midnightblue" stroke="midnightblue" points="450.224,-317.5 460.224,-314 450.224,-310.5 450.224,-317.5"/>
</g>
<!-- Node21 -->
<g id="node21" class="node"><title>Node21</title>
<g id="a_node21"><a xlink:href="../../d9/d2a/rle__putrow_8c.html#a46d9789104d5d1f09253a808fdad5346" target="_top" xlink:title="rle_put_init">
<polygon fill="white" stroke="black" points="200,-190.5 200,-209.5 268,-209.5 268,-190.5 200,-190.5"/>
<text text-anchor="middle" x="234" y="-197.5" font-family="Helvetica,sans-Serif" font-size="10.00">rle_put_init</text>
</a>
</g>
</g>
<!-- Node20&#45;&gt;Node21 -->
<g id="edge29" class="edge"><title>Node20&#45;&gt;Node21</title>
<path fill="none" stroke="midnightblue" d="M155.617,-200C166.437,-200 178.248,-200 189.31,-200"/>
<polygon fill="midnightblue" stroke="midnightblue" points="189.63,-203.5 199.63,-200 189.63,-196.5 189.63,-203.5"/>
</g>
<!-- Node22&#45;&gt;Node4 -->
<g id="edge32" class="edge"><title>Node22&#45;&gt;Node4</title>
<path fill="none" stroke="midnightblue" d="M391.288,-513.543C398.745,-516.373 406.762,-519.625 414,-523 428.893,-529.945 444.967,-538.858 457.747,-546.306"/>
<polygon fill="midnightblue" stroke="midnightblue" points="456.016,-549.349 466.406,-551.422 459.576,-543.322 456.016,-549.349"/>
</g>
<!-- Node22&#45;&gt;Node6 -->
<g id="edge31" class="edge"><title>Node22&#45;&gt;Node6</title>
<path fill="none" stroke="midnightblue" d="M394.104,-494.428C400.851,-491.777 407.832,-488.617 414,-485 433.147,-473.771 452.284,-457.124 465.355,-444.716"/>
<polygon fill="midnightblue" stroke="midnightblue" points="467.921,-447.103 472.656,-437.625 463.044,-442.082 467.921,-447.103"/>
</g>
<!-- Node25 -->
<g id="node25" class="node"><title>Node25</title>
<g id="a_node25"><a xlink:href="../../db/d53/rle__getrow_8c.html#a61ac0da96b0dd8bc3cbc98afcd9b5c44" target="_top" xlink:title="bfill">
<polygon fill="white" stroke="black" points="218,-114.5 218,-133.5 250,-133.5 250,-114.5 218,-114.5"/>
<text text-anchor="middle" x="234" y="-121.5" font-family="Helvetica,sans-Serif" font-size="10.00">bfill</text>
</a>
</g>
</g>
<!-- Node24&#45;&gt;Node25 -->
<g id="edge35" class="edge"><title>Node24&#45;&gt;Node25</title>
<path fill="none" stroke="midnightblue" d="M149.262,-124C167.701,-124 190.385,-124 207.49,-124"/>
<polygon fill="midnightblue" stroke="midnightblue" points="207.825,-127.5 217.825,-124 207.825,-120.5 207.825,-127.5"/>
</g>
<!-- Node24&#45;&gt;Node26 -->
<g id="edge36" class="edge"><title>Node24&#45;&gt;Node26</title>
<path fill="none" stroke="midnightblue" d="M145.898,-114.411C160.385,-109.686 178.058,-103.921 193.689,-98.8226"/>
<polygon fill="midnightblue" stroke="midnightblue" points="195.19,-102.014 203.612,-95.5859 193.019,-95.3595 195.19,-102.014"/>
</g>
<!-- Node28&#45;&gt;Node6 -->
<g id="edge39" class="edge"><title>Node28&#45;&gt;Node6</title>
<path fill="none" stroke="midnightblue" d="M148.615,-393.339C217.709,-400.522 379.827,-417.377 449.375,-424.608"/>
<polygon fill="midnightblue" stroke="midnightblue" points="449.02,-428.09 459.329,-425.643 449.744,-421.128 449.02,-428.09"/>
</g>
<!-- Node29 -->
<g id="node29" class="node"><title>Node29</title>
<g id="a_node29"><a xlink:href="../../d9/d2a/rle__putrow_8c.html#aaa4133bf4a6cbf287444448497631f26" target="_top" xlink:title="findruns">
<polygon fill="white" stroke="black" points="207,-342.5 207,-361.5 261,-361.5 261,-342.5 207,-342.5"/>
<text text-anchor="middle" x="234" y="-349.5" font-family="Helvetica,sans-Serif" font-size="10.00">findruns</text>
</a>
</g>
</g>
<!-- Node28&#45;&gt;Node29 -->
<g id="edge40" class="edge"><title>Node28&#45;&gt;Node29</title>
<path fill="none" stroke="midnightblue" d="M145.898,-380.411C161.416,-375.349 180.589,-369.095 196.993,-363.745"/>
<polygon fill="midnightblue" stroke="midnightblue" points="198.37,-366.977 206.792,-360.549 196.199,-360.322 198.37,-366.977"/>
</g>
<!-- Node30&#45;&gt;Node4 -->
<g id="edge43" class="edge"><title>Node30&#45;&gt;Node4</title>
<path fill="none" stroke="midnightblue" d="M401.66,-573.936C419.087,-571.13 439.385,-567.862 455.218,-565.312"/>
<polygon fill="midnightblue" stroke="midnightblue" points="456.059,-568.722 465.376,-563.677 454.947,-561.811 456.059,-568.722"/>
</g>
<!-- Node31&#45;&gt;Node4 -->
<g id="edge45" class="edge"><title>Node31&#45;&gt;Node4</title>
<path fill="none" stroke="midnightblue" d="M395.032,-646.852C401.591,-644.208 408.26,-640.944 414,-637 420.312,-632.663 449.157,-599.468 467.191,-578.408"/>
<polygon fill="midnightblue" stroke="midnightblue" points="469.891,-580.635 473.723,-570.758 464.568,-576.09 469.891,-580.635"/>
</g>
</g>
</svg>
        <g id="navigator" transform="translate(0 0)" fill="#404254">
                <rect fill="#f2f5e9" fill-opacity="0.5" stroke="#606060" stroke-width=".5" x="0" y="0" width="60" height="60"/>
                <use id="zoomplus" xlink:href="#zoomPlus" x="17" y="9" onmousedown="handleZoom(evt,'in')"/>
                <use id="zoomminus" xlink:href="#zoomMin" x="42" y="9" onmousedown="handleZoom(evt,'out')"/>
                <use id="reset" xlink:href="#resetDef" x="30" y="36" onmousedown="handleReset()"/>
                <g id="arrowUp" xlink:href="#dirArrow" transform="translate(30 24)" onmousedown="handlePan(0,-1)">
                  <use xlink:href="#rim" fill="#404040">
                        <set attributeName="fill" to="#808080" begin="arrowUp.mouseover" end="arrowUp.mouseout"/>
                  </use>
                  <path fill="none" stroke="white" stroke-width="1.5" d="M0,-3.0v7 M-2.5,-0.5L0,-3.0L2.5,-0.5"/>
                </g>
                <g id="arrowRight" xlink:href="#dirArrow" transform="rotate(90) translate(36 -43)" onmousedown="handlePan(1,0)">
                  <use xlink:href="#rim" fill="#404040">
                        <set attributeName="fill" to="#808080" begin="arrowRight.mouseover" end="arrowRight.mouseout"/>
                  </use>
                  <path fill="none" stroke="white" stroke-width="1.5" d="M0,-3.0v7 M-2.5,-0.5L0,-3.0L2.5,-0.5"/>
                </g>
                <g id="arrowDown" xlink:href="#dirArrow" transform="rotate(180) translate(-30 -48)" onmousedown="handlePan(0,1)">
                  <use xlink:href="#rim" fill="#404040">
                        <set attributeName="fill" to="#808080" begin="arrowDown.mouseover" end="arrowDown.mouseout"/>
                  </use>
                  <path fill="none" stroke="white" stroke-width="1.5" d="M0,-3.0v7 M-2.5,-0.5L0,-3.0L2.5,-0.5"/>
                </g>
                <g id="arrowLeft" xlink:href="#dirArrow" transform="rotate(270) translate(-36 17)" onmousedown="handlePan(-1,0)">
                  <use xlink:href="#rim" fill="#404040">
                        <set attributeName="fill" to="#808080" begin="arrowLeft.mouseover" end="arrowLeft.mouseout"/>
                  </use>
                  <path fill="none" stroke="white" stroke-width="1.5" d="M0,-3.0v7 M-2.5,-0.5L0,-3.0L2.5,-0.5"/>
                </g>
        </g>
        <svg viewBox="0 0 15 15" width="100%" height="30px" preserveAspectRatio="xMaxYMin meet">
         <g id="arrow_out" transform="scale(0.3 0.3)">
          <a xlink:href="rlestereo_8c_a70db8bd1d499619f7ff9c1ca2ff3c8df_cgraph_org.svg" target="_base">
           <rect id="button" ry="5" rx="5" y="6" x="6" height="38" width="38"
                fill="#f2f5e9" fill-opacity="0.5" stroke="#606060" stroke-width="1.0"/>
           <path id="arrow"
             d="M 11.500037,31.436501 C 11.940474,20.09759 22.043105,11.32322 32.158766,21.979434 L 37.068811,17.246167 C 37.068811,17.246167 37.088388,32 37.088388,32 L 22.160133,31.978069 C 22.160133,31.978069 26.997745,27.140456 26.997745,27.140456 C 18.528582,18.264221 13.291696,25.230495 11.500037,31.436501 z"
             style="fill:#404040;"/>
          </a>
         </g>
        </svg>
</svg>
