<?xml version="1.0" encoding="UTF-8" standalone="no"?>
<!DOCTYPE svg PUBLIC "-//W3C//DTD SVG 1.1//EN"
 "http://www.w3.org/Graphics/SVG/1.1/DTD/svg11.dtd">
<!-- Generated by graphviz version 2.38.0 (20140413.2041)
 -->
<!-- Title: rle_row_clear Pages: 1 -->
<svg width="157pt" height="66pt"
 viewBox="0.00 0.00 157.00 66.00" xmlns="http://www.w3.org/2000/svg" xmlns:xlink="http://www.w3.org/1999/xlink">
<g id="graph0" class="graph" transform="scale(1 1) rotate(0) translate(4 62)">
<title>rle_row_clear</title>
<polygon fill="white" stroke="none" points="-4,4 -4,-62 153,-62 153,4 -4,4"/>
<!-- Node1 -->
<g id="node1" class="node"><title>Node1</title>
<polygon fill="#bfbfbf" stroke="black" points="0,-19.5 0,-38.5 81,-38.5 81,-19.5 0,-19.5"/>
<text text-anchor="middle" x="40.5" y="-26.5" font-family="Helvetica,sans-Serif" font-size="10.00">rle_row_clear</text>
</g>
<!-- Node2 -->
<g id="node2" class="node"><title>Node2</title>
<g id="a_node2"><a xlink:href="../../de/dd9/rlesplice_8c.html#a61ac0da96b0dd8bc3cbc98afcd9b5c44" target="_top" xlink:title="bfill">
<polygon fill="white" stroke="black" points="117,-38.5 117,-57.5 149,-57.5 149,-38.5 117,-38.5"/>
<text text-anchor="middle" x="133" y="-45.5" font-family="Helvetica,sans-Serif" font-size="10.00">bfill</text>
</a>
</g>
</g>
<!-- Node1&#45;&gt;Node2 -->
<g id="edge1" class="edge"><title>Node1&#45;&gt;Node2</title>
<path fill="none" stroke="midnightblue" d="M81.1946,-37.3337C89.8145,-39.1434 98.7075,-41.0104 106.597,-42.6667"/>
<polygon fill="midnightblue" stroke="midnightblue" points="106.107,-46.1401 116.613,-44.7695 107.545,-39.2895 106.107,-46.1401"/>
</g>
<!-- Node3 -->
<g id="node3" class="node"><title>Node3</title>
<g id="a_node3"><a xlink:href="../../dc/d11/getami_8c.html#a4ffc2c11d17e77ece1d9561ae4f68318" target="_top" xlink:title="if">
<polygon fill="white" stroke="black" points="118.5,-0.5 118.5,-19.5 147.5,-19.5 147.5,-0.5 118.5,-0.5"/>
<text text-anchor="middle" x="133" y="-7.5" font-family="Helvetica,sans-Serif" font-size="10.00">if</text>
</a>
</g>
</g>
<!-- Node1&#45;&gt;Node3 -->
<g id="edge2" class="edge"><title>Node1&#45;&gt;Node3</title>
<path fill="none" stroke="midnightblue" d="M81.1946,-20.6663C90.4408,-18.7251 100.001,-16.718 108.3,-14.9757"/>
<polygon fill="midnightblue" stroke="midnightblue" points="109.283,-18.3458 118.35,-12.8657 107.844,-11.4951 109.283,-18.3458"/>
</g>
</g>
</svg>
