<?xml version="1.0" encoding="UTF-8" standalone="no"?>
<!DOCTYPE svg PUBLIC "-//W3C//DTD SVG 1.1//EN"
 "http://www.w3.org/Graphics/SVG/1.1/DTD/svg11.dtd">
<!-- Generated by graphviz version 2.38.0 (20140413.2041)
 -->
<!-- Title: ComputeCWidths Pages: 1 -->
<svg width="285pt" height="28pt"
 viewBox="0.00 0.00 285.00 28.00" xmlns="http://www.w3.org/2000/svg" xmlns:xlink="http://www.w3.org/1999/xlink">
<g id="graph0" class="graph" transform="scale(1 1) rotate(0) translate(4 24)">
<title>ComputeCWidths</title>
<polygon fill="white" stroke="none" points="-4,4 -4,-24 281,-24 281,4 -4,4"/>
<!-- Node1 -->
<g id="node1" class="node"><title>Node1</title>
<polygon fill="#bfbfbf" stroke="black" points="0,-0.5 0,-19.5 98,-19.5 98,-0.5 0,-0.5"/>
<text text-anchor="middle" x="49" y="-7.5" font-family="Helvetica,sans-Serif" font-size="10.00">ComputeCWidths</text>
</g>
<!-- Node2 -->
<g id="node2" class="node"><title>Node2</title>
<g id="a_node2"><a xlink:href="../../df/d17/dvirle1_8c.html#a54b428c8a5a2ca5b0b8894db1f3fdb06" target="_top" xlink:title="DefineFont">
<polygon fill="white" stroke="black" points="134,-0.5 134,-19.5 202,-19.5 202,-0.5 134,-0.5"/>
<text text-anchor="middle" x="168" y="-7.5" font-family="Helvetica,sans-Serif" font-size="10.00">DefineFont</text>
</a>
</g>
</g>
<!-- Node1&#45;&gt;Node2 -->
<g id="edge1" class="edge"><title>Node1&#45;&gt;Node2</title>
<path fill="none" stroke="midnightblue" d="M108.449,-10C117.164,-10 125.882,-10 133.827,-10"/>
<polygon fill="midnightblue" stroke="midnightblue" points="108.264,-6.5001 98.2639,-10 108.264,-13.5001 108.264,-6.5001"/>
</g>
<!-- Node3 -->
<g id="node3" class="node"><title>Node3</title>
<g id="a_node3"><a xlink:href="../../df/d17/dvirle1_8c.html#a70db8bd1d499619f7ff9c1ca2ff3c8df" target="_top" xlink:title="main">
<polygon fill="white" stroke="black" points="238,-0.5 238,-19.5 277,-19.5 277,-0.5 238,-0.5"/>
<text text-anchor="middle" x="257.5" y="-7.5" font-family="Helvetica,sans-Serif" font-size="10.00">main</text>
</a>
</g>
</g>
<!-- Node2&#45;&gt;Node3 -->
<g id="edge2" class="edge"><title>Node2&#45;&gt;Node3</title>
<path fill="none" stroke="midnightblue" d="M212.101,-10C221.062,-10 230.059,-10 237.588,-10"/>
<polygon fill="midnightblue" stroke="midnightblue" points="212.08,-6.5001 202.08,-10 212.08,-13.5001 212.08,-6.5001"/>
</g>
</g>
</svg>
