<?xml version="1.0" encoding="UTF-8" standalone="no"?>
<!DOCTYPE svg PUBLIC "-//W3C//DTD SVG 1.1//EN"
 "http://www.w3.org/Graphics/SVG/1.1/DTD/svg11.dtd">
<!-- Generated by graphviz version 2.38.0 (20140413.2041)
 -->
<!-- Title: main Pages: 1 -->
<svg width="404pt" height="370pt"
 viewBox="0.00 0.00 404.00 370.00" xmlns="http://www.w3.org/2000/svg" xmlns:xlink="http://www.w3.org/1999/xlink">
<g id="graph0" class="graph" transform="scale(1 1) rotate(0) translate(4 366)">
<title>main</title>
<polygon fill="white" stroke="none" points="-4,4 -4,-366 400,-366 400,4 -4,4"/>
<!-- Node1 -->
<g id="node1" class="node"><title>Node1</title>
<polygon fill="#bfbfbf" stroke="black" points="0,-266.5 0,-285.5 39,-285.5 39,-266.5 0,-266.5"/>
<text text-anchor="middle" x="19.5" y="-273.5" font-family="Helvetica,sans-Serif" font-size="10.00">main</text>
</g>
<!-- Node2 -->
<g id="node2" class="node"><title>Node2</title>
<g id="a_node2"><a xlink:href="../../dc/d53/getopt_8c.html#a1484840539d6adef4a97ad6e239458ea" target="_top" xlink:title="getopt">
<polygon fill="white" stroke="black" points="85.5,-342.5 85.5,-361.5 132.5,-361.5 132.5,-342.5 85.5,-342.5"/>
<text text-anchor="middle" x="109" y="-349.5" font-family="Helvetica,sans-Serif" font-size="10.00">getopt</text>
</a>
</g>
</g>
<!-- Node1&#45;&gt;Node2 -->
<g id="edge1" class="edge"><title>Node1&#45;&gt;Node2</title>
<path fill="none" stroke="midnightblue" d="M29.7912,-285.605C40.3642,-296.356 58.3314,-314.092 75,-328 78.3656,-330.808 82.0321,-333.661 85.6574,-336.373"/>
<polygon fill="midnightblue" stroke="midnightblue" points="83.7356,-339.303 93.8808,-342.357 87.8544,-333.643 83.7356,-339.303"/>
</g>
<!-- Node4 -->
<g id="node4" class="node"><title>Node4</title>
<g id="a_node4"><a xlink:href="../../dc/d7b/aliastorle_8c.html#ac2c29217831f208a3b22bae552c5124f" target="_top" xlink:title="error">
<polygon fill="white" stroke="black" points="334.5,-190.5 334.5,-209.5 374.5,-209.5 374.5,-190.5 334.5,-190.5"/>
<text text-anchor="middle" x="354.5" y="-197.5" font-family="Helvetica,sans-Serif" font-size="10.00">error</text>
</a>
</g>
</g>
<!-- Node1&#45;&gt;Node4 -->
<g id="edge3" class="edge"><title>Node1&#45;&gt;Node4</title>
<path fill="none" stroke="midnightblue" d="M39.0636,-283.378C82.9745,-299.599 195.64,-333.943 277,-295 309.944,-279.231 333.222,-241.588 344.904,-218.703"/>
<polygon fill="midnightblue" stroke="midnightblue" points="348.09,-220.155 349.323,-209.632 341.797,-217.09 348.09,-220.155"/>
</g>
<!-- Node5 -->
<g id="node5" class="node"><title>Node5</title>
<g id="a_node5"><a xlink:href="../../df/d17/dvirle1_8c.html#a54b428c8a5a2ca5b0b8894db1f3fdb06" target="_top" xlink:title="DefineFont">
<polygon fill="white" stroke="black" points="75,-266.5 75,-285.5 143,-285.5 143,-266.5 75,-266.5"/>
<text text-anchor="middle" x="109" y="-273.5" font-family="Helvetica,sans-Serif" font-size="10.00">DefineFont</text>
</a>
</g>
</g>
<!-- Node1&#45;&gt;Node5 -->
<g id="edge4" class="edge"><title>Node1&#45;&gt;Node5</title>
<path fill="none" stroke="midnightblue" d="M39.0565,-276C46.6378,-276 55.7502,-276 64.8293,-276"/>
<polygon fill="midnightblue" stroke="midnightblue" points="64.9824,-279.5 74.9824,-276 64.9823,-272.5 64.9824,-279.5"/>
</g>
<!-- Node7 -->
<g id="node7" class="node"><title>Node7</title>
<g id="a_node7"><a xlink:href="../../d0/dcc/rletorla_8c.html#ab7e36af3707843f77cc5b4e831c2fa6d" target="_top" xlink:title="malloc">
<polygon fill="white" stroke="black" points="85.5,-228.5 85.5,-247.5 132.5,-247.5 132.5,-228.5 85.5,-228.5"/>
<text text-anchor="middle" x="109" y="-235.5" font-family="Helvetica,sans-Serif" font-size="10.00">malloc</text>
</a>
</g>
</g>
<!-- Node1&#45;&gt;Node7 -->
<g id="edge7" class="edge"><title>Node1&#45;&gt;Node7</title>
<path fill="none" stroke="midnightblue" d="M39.0565,-267.941C50.0099,-263.184 64.1592,-257.039 76.7867,-251.555"/>
<polygon fill="midnightblue" stroke="midnightblue" points="78.2901,-254.718 86.0683,-247.525 75.5017,-248.298 78.2901,-254.718"/>
</g>
<!-- Node8 -->
<g id="node8" class="node"><title>Node8</title>
<g id="a_node8"><a xlink:href="../../df/d17/dvirle1_8c.html#a84f52208e247f58a670e16c03272cd3f" target="_top" xlink:title="PageLoop">
<polygon fill="white" stroke="black" points="76.5,-114.5 76.5,-133.5 141.5,-133.5 141.5,-114.5 76.5,-114.5"/>
<text text-anchor="middle" x="109" y="-121.5" font-family="Helvetica,sans-Serif" font-size="10.00">PageLoop</text>
</a>
</g>
</g>
<!-- Node1&#45;&gt;Node8 -->
<g id="edge8" class="edge"><title>Node1&#45;&gt;Node8</title>
<path fill="none" stroke="midnightblue" d="M25.9735,-266.492C40.2142,-241.754 78.614,-175.048 97.3826,-142.444"/>
<polygon fill="midnightblue" stroke="midnightblue" points="100.573,-143.917 102.529,-133.505 94.5062,-140.425 100.573,-143.917"/>
</g>
<!-- Node3 -->
<g id="node3" class="node"><title>Node3</title>
<g id="a_node3"><a xlink:href="../../dc/d53/getopt_8c.html#aa4a0de5bffcb84a01c711ce72ef194a9" target="_top" xlink:title="index">
<polygon fill="white" stroke="black" points="207,-342.5 207,-361.5 249,-361.5 249,-342.5 207,-342.5"/>
<text text-anchor="middle" x="228" y="-349.5" font-family="Helvetica,sans-Serif" font-size="10.00">index</text>
</a>
</g>
</g>
<!-- Node2&#45;&gt;Node3 -->
<g id="edge2" class="edge"><title>Node2&#45;&gt;Node3</title>
<path fill="none" stroke="midnightblue" d="M132.559,-352C150.796,-352 176.642,-352 196.686,-352"/>
<polygon fill="midnightblue" stroke="midnightblue" points="196.854,-355.5 206.854,-352 196.854,-348.5 196.854,-355.5"/>
</g>
<!-- Node5&#45;&gt;Node4 -->
<g id="edge5" class="edge"><title>Node5&#45;&gt;Node4</title>
<path fill="none" stroke="midnightblue" d="M140.839,-266.375C188.311,-251.558 278.622,-223.37 324.78,-208.964"/>
<polygon fill="midnightblue" stroke="midnightblue" points="325.955,-212.264 334.458,-205.943 323.869,-205.582 325.955,-212.264"/>
</g>
<!-- Node6 -->
<g id="node6" class="node"><title>Node6</title>
<g id="a_node6"><a xlink:href="../../df/d17/dvirle1_8c.html#aeea386f7fc8993d78b85346a29f6a0e3" target="_top" xlink:title="ComputeCWidths">
<polygon fill="white" stroke="black" points="179,-266.5 179,-285.5 277,-285.5 277,-266.5 179,-266.5"/>
<text text-anchor="middle" x="228" y="-273.5" font-family="Helvetica,sans-Serif" font-size="10.00">ComputeCWidths</text>
</a>
</g>
</g>
<!-- Node5&#45;&gt;Node6 -->
<g id="edge6" class="edge"><title>Node5&#45;&gt;Node6</title>
<path fill="none" stroke="midnightblue" d="M143.215,-276C151.178,-276 159.916,-276 168.649,-276"/>
<polygon fill="midnightblue" stroke="midnightblue" points="168.852,-279.5 178.852,-276 168.852,-272.5 168.852,-279.5"/>
</g>
<!-- Node9 -->
<g id="node9" class="node"><title>Node9</title>
<g id="a_node9"><a xlink:href="../../df/d17/dvirle1_8c.html#a8b583471d259ed6512b6563fccce9954" target="_top" xlink:title="ExpandArrays">
<polygon fill="white" stroke="black" points="313,-57.5 313,-76.5 396,-76.5 396,-57.5 313,-57.5"/>
<text text-anchor="middle" x="354.5" y="-64.5" font-family="Helvetica,sans-Serif" font-size="10.00">ExpandArrays</text>
</a>
</g>
</g>
<!-- Node8&#45;&gt;Node9 -->
<g id="edge9" class="edge"><title>Node8&#45;&gt;Node9</title>
<path fill="none" stroke="midnightblue" d="M117.674,-114.414C129.261,-100.8 152.682,-76.4647 179,-67 218.698,-52.7236 266.841,-53.9788 302.495,-58.0927"/>
<polygon fill="midnightblue" stroke="midnightblue" points="302.308,-61.5969 312.669,-59.3824 303.188,-54.6525 302.308,-61.5969"/>
</g>
<!-- Node10 -->
<g id="node10" class="node"><title>Node10</title>
<g id="a_node10"><a xlink:href="../../df/d17/dvirle1_8c.html#a6d99d5591b54218da56f49a8a4d06118" target="_top" xlink:title="CheckChar">
<polygon fill="white" stroke="black" points="193,-152.5 193,-171.5 263,-171.5 263,-152.5 193,-152.5"/>
<text text-anchor="middle" x="228" y="-159.5" font-family="Helvetica,sans-Serif" font-size="10.00">CheckChar</text>
</a>
</g>
</g>
<!-- Node8&#45;&gt;Node10 -->
<g id="edge10" class="edge"><title>Node8&#45;&gt;Node10</title>
<path fill="none" stroke="midnightblue" d="M139.524,-133.589C154.212,-138.359 172.16,-144.189 187.968,-149.323"/>
<polygon fill="midnightblue" stroke="midnightblue" points="186.893,-152.654 197.485,-152.414 189.056,-145.996 186.893,-152.654"/>
</g>
<!-- Node11 -->
<g id="node11" class="node"><title>Node11</title>
<g id="a_node11"><a xlink:href="../../df/d17/dvirle1_8c.html#adadb1ac7ace1e33681c95d623ae69340" target="_top" xlink:title="SetRule">
<polygon fill="white" stroke="black" points="201.5,-76.5 201.5,-95.5 254.5,-95.5 254.5,-76.5 201.5,-76.5"/>
<text text-anchor="middle" x="228" y="-83.5" font-family="Helvetica,sans-Serif" font-size="10.00">SetRule</text>
</a>
</g>
</g>
<!-- Node8&#45;&gt;Node11 -->
<g id="edge12" class="edge"><title>Node8&#45;&gt;Node11</title>
<path fill="none" stroke="midnightblue" d="M139.524,-114.411C155.333,-109.276 174.919,-102.915 191.548,-97.5143"/>
<polygon fill="midnightblue" stroke="midnightblue" points="193.03,-100.713 201.459,-94.2952 190.867,-94.0555 193.03,-100.713"/>
</g>
<!-- Node12 -->
<g id="node12" class="node"><title>Node12</title>
<g id="a_node12"><a xlink:href="../../df/d17/dvirle1_8c.html#add3dbee36e4957de15e7e7a43265cf3e" target="_top" xlink:title="BeginPage">
<polygon fill="white" stroke="black" points="194,-114.5 194,-133.5 262,-133.5 262,-114.5 194,-114.5"/>
<text text-anchor="middle" x="228" y="-121.5" font-family="Helvetica,sans-Serif" font-size="10.00">BeginPage</text>
</a>
</g>
</g>
<!-- Node8&#45;&gt;Node12 -->
<g id="edge15" class="edge"><title>Node8&#45;&gt;Node12</title>
<path fill="none" stroke="midnightblue" d="M141.662,-124C154.497,-124 169.533,-124 183.378,-124"/>
<polygon fill="midnightblue" stroke="midnightblue" points="183.677,-127.5 193.677,-124 183.677,-120.5 183.677,-127.5"/>
</g>
<!-- Node13 -->
<g id="node13" class="node"><title>Node13</title>
<g id="a_node13"><a xlink:href="../../df/d17/dvirle1_8c.html#ac76def3f163a834e965ffafdefea4972" target="_top" xlink:title="EndPage">
<polygon fill="white" stroke="black" points="198,-0.5 198,-19.5 258,-19.5 258,-0.5 198,-0.5"/>
<text text-anchor="middle" x="228" y="-7.5" font-family="Helvetica,sans-Serif" font-size="10.00">EndPage</text>
</a>
</g>
</g>
<!-- Node8&#45;&gt;Node13 -->
<g id="edge16" class="edge"><title>Node8&#45;&gt;Node13</title>
<path fill="none" stroke="midnightblue" d="M115.316,-114.45C125.612,-96.6589 149.85,-58.0677 179,-34 183.311,-30.4409 188.238,-27.2317 193.255,-24.404"/>
<polygon fill="midnightblue" stroke="midnightblue" points="195.001,-27.441 202.27,-19.7329 191.781,-21.2258 195.001,-27.441"/>
</g>
<!-- Node15 -->
<g id="node15" class="node"><title>Node15</title>
<g id="a_node15"><a xlink:href="../../df/d17/dvirle1_8c.html#adc983828bf9a40bfa10acf15955bf1cd" target="_top" xlink:title="DoSpecial">
<polygon fill="white" stroke="black" points="195.5,-190.5 195.5,-209.5 260.5,-209.5 260.5,-190.5 195.5,-190.5"/>
<text text-anchor="middle" x="228" y="-197.5" font-family="Helvetica,sans-Serif" font-size="10.00">DoSpecial</text>
</a>
</g>
</g>
<!-- Node8&#45;&gt;Node15 -->
<g id="edge18" class="edge"><title>Node8&#45;&gt;Node15</title>
<path fill="none" stroke="midnightblue" d="M119.538,-133.565C132.212,-145.857 155.724,-167.247 179,-181 182.238,-182.913 185.705,-184.71 189.238,-186.377"/>
<polygon fill="midnightblue" stroke="midnightblue" points="188.069,-189.685 198.634,-190.477 190.868,-183.27 188.069,-189.685"/>
</g>
<!-- Node10&#45;&gt;Node4 -->
<g id="edge11" class="edge"><title>Node10&#45;&gt;Node4</title>
<path fill="none" stroke="midnightblue" d="M260.417,-171.589C280.078,-177.59 305.23,-185.267 324.431,-191.128"/>
<polygon fill="midnightblue" stroke="midnightblue" points="323.555,-194.519 334.141,-194.091 325.598,-187.824 323.555,-194.519"/>
</g>
<!-- Node11&#45;&gt;Node4 -->
<g id="edge13" class="edge"><title>Node11&#45;&gt;Node4</title>
<path fill="none" stroke="midnightblue" d="M254.684,-93.3813C262.295,-96.2805 270.361,-100.11 277,-105 305.683,-126.128 329.705,-160.514 342.805,-181.609"/>
<polygon fill="midnightblue" stroke="midnightblue" points="339.868,-183.517 348.032,-190.27 345.861,-179.9 339.868,-183.517"/>
</g>
<!-- Node11&#45;&gt;Node9 -->
<g id="edge14" class="edge"><title>Node11&#45;&gt;Node9</title>
<path fill="none" stroke="midnightblue" d="M254.796,-82.0632C268.598,-79.9569 286.092,-77.2872 302.505,-74.7823"/>
<polygon fill="midnightblue" stroke="midnightblue" points="303.185,-78.2192 312.543,-73.2505 302.129,-71.2993 303.185,-78.2192"/>
</g>
<!-- Node14 -->
<g id="node14" class="node"><title>Node14</title>
<g id="a_node14"><a xlink:href="../../df/d17/dvirle1_8c.html#a6453f704369ab63e173d502098adbf51" target="_top" xlink:title="SortPage">
<polygon fill="white" stroke="black" points="324,-0.5 324,-19.5 385,-19.5 385,-0.5 324,-0.5"/>
<text text-anchor="middle" x="354.5" y="-7.5" font-family="Helvetica,sans-Serif" font-size="10.00">SortPage</text>
</a>
</g>
</g>
<!-- Node13&#45;&gt;Node14 -->
<g id="edge17" class="edge"><title>Node13&#45;&gt;Node14</title>
<path fill="none" stroke="midnightblue" d="M258.19,-10C274.652,-10 295.459,-10 313.43,-10"/>
<polygon fill="midnightblue" stroke="midnightblue" points="313.628,-13.5001 323.628,-10 313.628,-6.5001 313.628,-13.5001"/>
</g>
<!-- Node15&#45;&gt;Node4 -->
<g id="edge19" class="edge"><title>Node15&#45;&gt;Node4</title>
<path fill="none" stroke="midnightblue" d="M260.739,-200C280.221,-200 305.002,-200 324.048,-200"/>
<polygon fill="midnightblue" stroke="midnightblue" points="324.242,-203.5 334.242,-200 324.242,-196.5 324.242,-203.5"/>
</g>
</g>
</svg>
