<?xml version="1.0" encoding="UTF-8" standalone="no"?>
<!DOCTYPE svg PUBLIC "-//W3C//DTD SVG 1.1//EN"
 "http://www.w3.org/Graphics/SVG/1.1/DTD/svg11.dtd">
<!-- Generated by graphviz version 2.38.0 (20140413.2041)
 -->
<!-- Title: DefineFont Pages: 1 -->
<svg width="210pt" height="66pt"
 viewBox="0.00 0.00 210.00 66.00" xmlns="http://www.w3.org/2000/svg" xmlns:xlink="http://www.w3.org/1999/xlink">
<g id="graph0" class="graph" transform="scale(1 1) rotate(0) translate(4 62)">
<title>DefineFont</title>
<polygon fill="white" stroke="none" points="-4,4 -4,-62 206,-62 206,4 -4,4"/>
<!-- Node1 -->
<g id="node1" class="node"><title>Node1</title>
<polygon fill="#bfbfbf" stroke="black" points="0,-19.5 0,-38.5 68,-38.5 68,-19.5 0,-19.5"/>
<text text-anchor="middle" x="34" y="-26.5" font-family="Helvetica,sans-Serif" font-size="10.00">DefineFont</text>
</g>
<!-- Node2 -->
<g id="node2" class="node"><title>Node2</title>
<g id="a_node2"><a xlink:href="../../dc/d7b/aliastorle_8c.html#ac2c29217831f208a3b22bae552c5124f" target="_top" xlink:title="error">
<polygon fill="white" stroke="black" points="133,-38.5 133,-57.5 173,-57.5 173,-38.5 133,-38.5"/>
<text text-anchor="middle" x="153" y="-45.5" font-family="Helvetica,sans-Serif" font-size="10.00">error</text>
</a>
</g>
</g>
<!-- Node1&#45;&gt;Node2 -->
<g id="edge1" class="edge"><title>Node1&#45;&gt;Node2</title>
<path fill="none" stroke="midnightblue" d="M68.2145,-34.3938C85.3946,-37.1837 106.178,-40.5587 122.746,-43.2494"/>
<polygon fill="midnightblue" stroke="midnightblue" points="122.514,-46.7574 132.946,-44.9057 123.636,-39.8479 122.514,-46.7574"/>
</g>
<!-- Node3 -->
<g id="node3" class="node"><title>Node3</title>
<g id="a_node3"><a xlink:href="../../df/d17/dvirle1_8c.html#aeea386f7fc8993d78b85346a29f6a0e3" target="_top" xlink:title="ComputeCWidths">
<polygon fill="white" stroke="black" points="104,-0.5 104,-19.5 202,-19.5 202,-0.5 104,-0.5"/>
<text text-anchor="middle" x="153" y="-7.5" font-family="Helvetica,sans-Serif" font-size="10.00">ComputeCWidths</text>
</a>
</g>
</g>
<!-- Node1&#45;&gt;Node3 -->
<g id="edge2" class="edge"><title>Node1&#45;&gt;Node3</title>
<path fill="none" stroke="midnightblue" d="M68.2145,-23.6062C76.2646,-22.2989 85.1058,-20.8632 93.9337,-19.4296"/>
<polygon fill="midnightblue" stroke="midnightblue" points="94.5427,-22.8766 103.852,-17.8189 93.4206,-15.9671 94.5427,-22.8766"/>
</g>
</g>
</svg>
