<?xml version="1.0" encoding="UTF-8" standalone="no"?>
<!DOCTYPE svg PUBLIC "-//W3C//DTD SVG 1.1//EN"
 "http://www.w3.org/Graphics/SVG/1.1/DTD/svg11.dtd">
<!-- Generated by graphviz version 2.38.0 (20140413.2041)
 -->
<!-- Title: interp_row Pages: 1 -->
<svg width="220pt" height="66pt"
 viewBox="0.00 0.00 220.00 66.00" xmlns="http://www.w3.org/2000/svg" xmlns:xlink="http://www.w3.org/1999/xlink">
<g id="graph0" class="graph" transform="scale(1 1) rotate(0) translate(4 62)">
<title>interp_row</title>
<polygon fill="white" stroke="none" points="-4,4 -4,-62 216,-62 216,4 -4,4"/>
<!-- Node1 -->
<g id="node1" class="node"><title>Node1</title>
<polygon fill="#bfbfbf" stroke="black" points="0,-19.5 0,-38.5 67,-38.5 67,-19.5 0,-19.5"/>
<text text-anchor="middle" x="33.5" y="-26.5" font-family="Helvetica,sans-Serif" font-size="10.00">interp_row</text>
</g>
<!-- Node2 -->
<g id="node2" class="node"><title>Node2</title>
<g id="a_node2"><a xlink:href="../../dd/ddd/fant_8c.html#a12ac973f4d4ff2b68ef65a0658e69920" target="_top" xlink:title="general_interp_row">
<polygon fill="white" stroke="black" points="103,-38.5 103,-57.5 212,-57.5 212,-38.5 103,-38.5"/>
<text text-anchor="middle" x="157.5" y="-45.5" font-family="Helvetica,sans-Serif" font-size="10.00">general_interp_row</text>
</a>
</g>
</g>
<!-- Node1&#45;&gt;Node2 -->
<g id="edge1" class="edge"><title>Node1&#45;&gt;Node2</title>
<path fill="none" stroke="midnightblue" d="M67.1938,-34.0917C75.1938,-35.3376 84.0284,-36.7134 92.936,-38.1007"/>
<polygon fill="midnightblue" stroke="midnightblue" points="92.564,-41.5849 102.983,-39.6655 93.6412,-34.6682 92.564,-41.5849"/>
</g>
<!-- Node3 -->
<g id="node3" class="node"><title>Node3</title>
<g id="a_node3"><a xlink:href="../../dd/ddd/fant_8c.html#a9242bc5e5cb57bec3aa43b1b2358cf0b" target="_top" xlink:title="fast_interp_row">
<polygon fill="white" stroke="black" points="112.5,-0.5 112.5,-19.5 202.5,-19.5 202.5,-0.5 112.5,-0.5"/>
<text text-anchor="middle" x="157.5" y="-7.5" font-family="Helvetica,sans-Serif" font-size="10.00">fast_interp_row</text>
</a>
</g>
</g>
<!-- Node1&#45;&gt;Node3 -->
<g id="edge2" class="edge"><title>Node1&#45;&gt;Node3</title>
<path fill="none" stroke="midnightblue" d="M67.1938,-23.9083C78.0016,-22.2252 90.3327,-20.3047 102.309,-18.4395"/>
<polygon fill="midnightblue" stroke="midnightblue" points="102.903,-21.8894 112.245,-16.8922 101.825,-14.9728 102.903,-21.8894"/>
</g>
</g>
</svg>
