<?xml version="1.0" encoding="UTF-8" standalone="no"?>
<!DOCTYPE svg PUBLIC "-//W3C//DTD SVG 1.1//EN"
 "http://www.w3.org/Graphics/SVG/1.1/DTD/svg11.dtd">
<!-- Generated by graphviz version 2.38.0 (20140413.2041)
 -->
<!-- Title: get/gettaac.c Pages: 1 -->
<!--zoomable 196 -->
<svg id="main" version="1.1" xmlns="http://www.w3.org/2000/svg" xmlns:xlink="http://www.w3.org/1999/xlink" xml:space="preserve" onload="init(evt)">
<style type="text/css"><![CDATA[
.edge:hover path { stroke: red; }
.edge:hover polygon { stroke: red; fill: red; }
]]></style>
<script type="text/javascript"><![CDATA[
var edges = document.getElementsByTagName('g');
if (edges && edges.length) {
  for (var i=0;i<edges.length;i++) {
    if (edges[i].id.substr(0,4)=='edge') {
      edges[i].setAttribute('class','edge');
    }
  }
}
]]></script>
        <defs>
                <circle id="rim" cx="0" cy="0" r="7"/>
                <circle id="rim2" cx="0" cy="0" r="3.5"/>
                <g id="zoomPlus">
                        <use xlink:href="#rim" fill="#404040">
                                <set attributeName="fill" to="#808080" begin="zoomplus.mouseover" end="zoomplus.mouseout"/>
                        </use>
                        <path d="M-4,0h8M0,-4v8" fill="none" stroke="white" stroke-width="1.5" pointer-events="none"/>
                </g>
                <g id="zoomMin">
                        <use xlink:href="#rim" fill="#404040">
                                <set attributeName="fill" to="#808080" begin="zoomminus.mouseover" end="zoomminus.mouseout"/>
                        </use>
                        <path d="M-4,0h8" fill="none" stroke="white" stroke-width="1.5" pointer-events="none"/>
                </g>
                <g id="dirArrow">
                        <path fill="none" stroke="white" stroke-width="1.5" d="M0,-3.0v7 M-2.5,-0.5L0,-3.0L2.5,-0.5"/>
                </g>
               <g id="resetDef">
                       <use xlink:href="#rim2" fill="#404040">
                               <set attributeName="fill" to="#808080" begin="reset.mouseover" end="reset.mouseout"/>
                       </use>
               </g>
        </defs>

<script type="text/javascript">
var viewWidth = 1466;
var viewHeight = 196;
var sectionId = 'dynsection-0';
</script>
<script xlink:href="../../svgpan.js"/>
<svg id="graph" class="graph">
<g id="viewport">
<title>get/gettaac.c</title>
<polygon fill="white" stroke="none" points="-4,4 -4,-192 1462,-192 1462,4 -4,4"/>
<!-- Node1 -->
<g id="node1" class="node"><title>Node1</title>
<polygon fill="#bfbfbf" stroke="black" points="751.5,-168.5 751.5,-187.5 828.5,-187.5 828.5,-168.5 751.5,-168.5"/>
<text text-anchor="middle" x="790" y="-175.5" font-family="Helvetica,sans-Serif" font-size="10.00">get/gettaac.c</text>
</g>
<!-- Node2 -->
<g id="node2" class="node"><title>Node2</title>
<polygon fill="white" stroke="#bfbfbf" points="0,-112.5 0,-131.5 50,-131.5 50,-112.5 0,-112.5"/>
<text text-anchor="middle" x="25" y="-119.5" font-family="Helvetica,sans-Serif" font-size="10.00">errno.h</text>
</g>
<!-- Node1&#45;&gt;Node2 -->
<g id="edge1" class="edge"><title>Node1&#45;&gt;Node2</title>
<path fill="none" stroke="midnightblue" d="M751.204,-176.839C642.274,-175.906 324.563,-169.876 64,-132 62.7235,-131.814 61.4272,-131.608 60.1204,-131.386"/>
<polygon fill="midnightblue" stroke="midnightblue" points="60.5451,-127.903 50.06,-129.424 59.2048,-134.774 60.5451,-127.903"/>
</g>
<!-- Node3 -->
<g id="node3" class="node"><title>Node3</title>
<polygon fill="white" stroke="#bfbfbf" points="566.5,-56.5 566.5,-75.5 613.5,-75.5 613.5,-56.5 566.5,-56.5"/>
<text text-anchor="middle" x="590" y="-63.5" font-family="Helvetica,sans-Serif" font-size="10.00">stdio.h</text>
</g>
<!-- Node1&#45;&gt;Node3 -->
<g id="edge2" class="edge"><title>Node1&#45;&gt;Node3</title>
<path fill="none" stroke="midnightblue" d="M751.216,-177.494C611.795,-178.868 141.881,-179.89 97,-132 90.9217,-125.514 91.0071,-118.565 97,-112 127.917,-78.1328 449.925,-69.4584 556.187,-67.5098"/>
<polygon fill="midnightblue" stroke="midnightblue" points="556.414,-71.0065 566.351,-67.3321 556.292,-64.0076 556.414,-71.0065"/>
</g>
<!-- Node4 -->
<g id="node4" class="node"><title>Node4</title>
<polygon fill="white" stroke="#bfbfbf" points="106,-112.5 106,-131.5 162,-131.5 162,-112.5 106,-112.5"/>
<text text-anchor="middle" x="134" y="-119.5" font-family="Helvetica,sans-Serif" font-size="10.00">strings.h</text>
</g>
<!-- Node1&#45;&gt;Node4 -->
<g id="edge3" class="edge"><title>Node1&#45;&gt;Node4</title>
<path fill="none" stroke="midnightblue" d="M751.355,-176.415C655.017,-174.483 396.41,-166.388 172.162,-131.921"/>
<polygon fill="midnightblue" stroke="midnightblue" points="172.604,-128.448 162.184,-130.366 171.526,-135.364 172.604,-128.448"/>
</g>
<!-- Node5 -->
<g id="node5" class="node"><title>Node5</title>
<polygon fill="white" stroke="#bfbfbf" points="180.5,-112.5 180.5,-131.5 233.5,-131.5 233.5,-112.5 180.5,-112.5"/>
<text text-anchor="middle" x="207" y="-119.5" font-family="Helvetica,sans-Serif" font-size="10.00">signal.h</text>
</g>
<!-- Node1&#45;&gt;Node5 -->
<g id="edge4" class="edge"><title>Node1&#45;&gt;Node5</title>
<path fill="none" stroke="midnightblue" d="M751.186,-176.073C662.622,-173.474 438.805,-164.174 243.518,-132"/>
<polygon fill="midnightblue" stroke="midnightblue" points="244.093,-128.548 233.653,-130.351 242.939,-135.452 244.093,-128.548"/>
</g>
<!-- Node6 -->
<g id="node6" class="node"><title>Node6</title>
<polygon fill="white" stroke="#bfbfbf" points="251.5,-112.5 251.5,-131.5 350.5,-131.5 350.5,-112.5 251.5,-112.5"/>
<text text-anchor="middle" x="301" y="-119.5" font-family="Helvetica,sans-Serif" font-size="10.00">suntool/sunview.h</text>
</g>
<!-- Node1&#45;&gt;Node6 -->
<g id="edge5" class="edge"><title>Node1&#45;&gt;Node6</title>
<path fill="none" stroke="midnightblue" d="M751.384,-173.574C677.702,-166.903 511.733,-151.239 360.921,-132.059"/>
<polygon fill="midnightblue" stroke="midnightblue" points="360.914,-128.53 350.551,-130.732 360.025,-135.473 360.914,-128.53"/>
</g>
<!-- Node7 -->
<g id="node7" class="node"><title>Node7</title>
<polygon fill="white" stroke="#bfbfbf" points="369,-112.5 369,-131.5 457,-131.5 457,-112.5 369,-112.5"/>
<text text-anchor="middle" x="413" y="-119.5" font-family="Helvetica,sans-Serif" font-size="10.00">suntool/panel.h</text>
</g>
<!-- Node1&#45;&gt;Node7 -->
<g id="edge6" class="edge"><title>Node1&#45;&gt;Node7</title>
<path fill="none" stroke="midnightblue" d="M751.043,-171.976C691.985,-164.275 576.007,-148.822 467.38,-132.176"/>
<polygon fill="midnightblue" stroke="midnightblue" points="467.646,-128.676 457.23,-130.613 466.581,-135.594 467.646,-128.676"/>
</g>
<!-- Node8 -->
<g id="node8" class="node"><title>Node8</title>
<polygon fill="white" stroke="#bfbfbf" points="475.5,-112.5 475.5,-131.5 570.5,-131.5 570.5,-112.5 475.5,-112.5"/>
<text text-anchor="middle" x="523" y="-119.5" font-family="Helvetica,sans-Serif" font-size="10.00">suntool/canvas.h</text>
</g>
<!-- Node1&#45;&gt;Node8 -->
<g id="edge7" class="edge"><title>Node1&#45;&gt;Node8</title>
<path fill="none" stroke="midnightblue" d="M751.461,-169.206C705.023,-159.814 626.799,-143.993 575.034,-133.524"/>
<polygon fill="midnightblue" stroke="midnightblue" points="575.546,-130.057 565.051,-131.505 574.159,-136.918 575.546,-130.057"/>
</g>
<!-- Node9 -->
<g id="node9" class="node"><title>Node9</title>
<polygon fill="white" stroke="#bfbfbf" points="588.5,-112.5 588.5,-131.5 719.5,-131.5 719.5,-112.5 588.5,-112.5"/>
<text text-anchor="middle" x="654" y="-119.5" font-family="Helvetica,sans-Serif" font-size="10.00">sunwindow/win_cursor.h</text>
</g>
<!-- Node1&#45;&gt;Node9 -->
<g id="edge8" class="edge"><title>Node1&#45;&gt;Node9</title>
<path fill="none" stroke="midnightblue" d="M768.45,-168.444C745.969,-159.517 710.512,-145.439 685.02,-135.317"/>
<polygon fill="midnightblue" stroke="midnightblue" points="686.035,-131.954 675.449,-131.516 683.451,-138.46 686.035,-131.954"/>
</g>
<!-- Node10 -->
<g id="node10" class="node"><title>Node10</title>
<polygon fill="white" stroke="#bfbfbf" points="737.5,-112.5 737.5,-131.5 842.5,-131.5 842.5,-112.5 737.5,-112.5"/>
<text text-anchor="middle" x="790" y="-119.5" font-family="Helvetica,sans-Serif" font-size="10.00">sunwindow/notify.h</text>
</g>
<!-- Node1&#45;&gt;Node10 -->
<g id="edge9" class="edge"><title>Node1&#45;&gt;Node10</title>
<path fill="none" stroke="midnightblue" d="M790,-168.083C790,-161.006 790,-150.861 790,-141.986"/>
<polygon fill="midnightblue" stroke="midnightblue" points="793.5,-141.751 790,-131.751 786.5,-141.751 793.5,-141.751"/>
</g>
<!-- Node11 -->
<g id="node11" class="node"><title>Node11</title>
<polygon fill="white" stroke="#bfbfbf" points="860.5,-112.5 860.5,-131.5 929.5,-131.5 929.5,-112.5 860.5,-112.5"/>
<text text-anchor="middle" x="895" y="-119.5" font-family="Helvetica,sans-Serif" font-size="10.00">sys/types.h</text>
</g>
<!-- Node1&#45;&gt;Node11 -->
<g id="edge10" class="edge"><title>Node1&#45;&gt;Node11</title>
<path fill="none" stroke="midnightblue" d="M806.87,-168.324C823.709,-159.664 849.807,-146.242 869.238,-136.249"/>
<polygon fill="midnightblue" stroke="midnightblue" points="870.88,-139.341 878.172,-131.655 867.678,-133.116 870.88,-139.341"/>
</g>
<!-- Node12 -->
<g id="node12" class="node"><title>Node12</title>
<polygon fill="white" stroke="#bfbfbf" points="948,-112.5 948,-131.5 1004,-131.5 1004,-112.5 948,-112.5"/>
<text text-anchor="middle" x="976" y="-119.5" font-family="Helvetica,sans-Serif" font-size="10.00">sys/dir.h</text>
</g>
<!-- Node1&#45;&gt;Node12 -->
<g id="edge11" class="edge"><title>Node1&#45;&gt;Node12</title>
<path fill="none" stroke="midnightblue" d="M819.472,-168.444C851.544,-159.132 902.924,-144.216 938.005,-134.031"/>
<polygon fill="midnightblue" stroke="midnightblue" points="939.256,-137.312 947.883,-131.163 937.304,-130.59 939.256,-137.312"/>
</g>
<!-- Node13 -->
<g id="node13" class="node"><title>Node13</title>
<polygon fill="white" stroke="#bfbfbf" points="1022.5,-112.5 1022.5,-131.5 1079.5,-131.5 1079.5,-112.5 1022.5,-112.5"/>
<text text-anchor="middle" x="1051" y="-119.5" font-family="Helvetica,sans-Serif" font-size="10.00">sys/file.h</text>
</g>
<!-- Node1&#45;&gt;Node13 -->
<g id="edge12" class="edge"><title>Node1&#45;&gt;Node13</title>
<path fill="none" stroke="midnightblue" d="M828.757,-169.587C871.304,-161.359 941.872,-147.447 1012.44,-132.064"/>
<polygon fill="midnightblue" stroke="midnightblue" points="1013.37,-135.443 1022.39,-129.884 1011.87,-128.605 1013.37,-135.443"/>
</g>
<!-- Node14 -->
<g id="node14" class="node"><title>Node14</title>
<polygon fill="white" stroke="#bfbfbf" points="1098,-112.5 1098,-131.5 1142,-131.5 1142,-112.5 1098,-112.5"/>
<text text-anchor="middle" x="1120" y="-119.5" font-family="Helvetica,sans-Serif" font-size="10.00">pwd.h</text>
</g>
<!-- Node1&#45;&gt;Node14 -->
<g id="edge13" class="edge"><title>Node1&#45;&gt;Node14</title>
<path fill="none" stroke="midnightblue" d="M828.854,-172.697C884.164,-166.23 988.898,-152.726 1087.85,-131.77"/>
<polygon fill="midnightblue" stroke="midnightblue" points="1088.67,-135.173 1097.71,-129.651 1087.2,-128.329 1088.67,-135.173"/>
</g>
<!-- Node15 -->
<g id="node15" class="node"><title>Node15</title>
<g id="a_node15"><a xlink:href="../../d7/d27/rle_8h.html" target="_top" xlink:title="rle.h">
<polygon fill="white" stroke="black" points="1160.5,-112.5 1160.5,-131.5 1197.5,-131.5 1197.5,-112.5 1160.5,-112.5"/>
<text text-anchor="middle" x="1179" y="-119.5" font-family="Helvetica,sans-Serif" font-size="10.00">rle.h</text>
</a>
</g>
</g>
<!-- Node1&#45;&gt;Node15 -->
<g id="edge14" class="edge"><title>Node1&#45;&gt;Node15</title>
<path fill="none" stroke="midnightblue" d="M828.605,-174.566C893.337,-169.973 1027.88,-158.23 1150.52,-131.684"/>
<polygon fill="midnightblue" stroke="midnightblue" points="1151.44,-135.065 1160.46,-129.495 1149.94,-128.229 1151.44,-135.065"/>
</g>
<!-- Node19 -->
<g id="node19" class="node"><title>Node19</title>
<polygon fill="white" stroke="#bfbfbf" points="1215.5,-112.5 1215.5,-131.5 1276.5,-131.5 1276.5,-112.5 1215.5,-112.5"/>
<text text-anchor="middle" x="1246" y="-119.5" font-family="Helvetica,sans-Serif" font-size="10.00">sys/stat.h</text>
</g>
<!-- Node1&#45;&gt;Node19 -->
<g id="edge19" class="edge"><title>Node1&#45;&gt;Node19</title>
<path fill="none" stroke="midnightblue" d="M828.73,-174.372C900.985,-169.134 1061.37,-155.931 1205.5,-132.083"/>
<polygon fill="midnightblue" stroke="midnightblue" points="1206.13,-135.527 1215.41,-130.422 1204.97,-128.623 1206.13,-135.527"/>
</g>
<!-- Node20 -->
<g id="node20" class="node"><title>Node20</title>
<polygon fill="white" stroke="#bfbfbf" points="1294.5,-112.5 1294.5,-131.5 1365.5,-131.5 1365.5,-112.5 1294.5,-112.5"/>
<text text-anchor="middle" x="1330" y="-119.5" font-family="Helvetica,sans-Serif" font-size="10.00">taac1/taio.h</text>
</g>
<!-- Node1&#45;&gt;Node20 -->
<g id="edge20" class="edge"><title>Node1&#45;&gt;Node20</title>
<path fill="none" stroke="midnightblue" d="M828.761,-174.956C910.987,-170.302 1109.09,-157.417 1284.14,-132.142"/>
<polygon fill="midnightblue" stroke="midnightblue" points="1284.65,-135.604 1294.04,-130.695 1283.64,-128.678 1284.65,-135.604"/>
</g>
<!-- Node21 -->
<g id="node21" class="node"><title>Node21</title>
<polygon fill="white" stroke="#bfbfbf" points="1384,-112.5 1384,-131.5 1458,-131.5 1458,-112.5 1384,-112.5"/>
<text text-anchor="middle" x="1421" y="-119.5" font-family="Helvetica,sans-Serif" font-size="10.00">gettaac.icon</text>
</g>
<!-- Node1&#45;&gt;Node21 -->
<g id="edge21" class="edge"><title>Node1&#45;&gt;Node21</title>
<path fill="none" stroke="midnightblue" d="M828.841,-175.577C921.451,-171.849 1162.66,-160.168 1373.87,-131.997"/>
<polygon fill="midnightblue" stroke="midnightblue" points="1374.46,-135.448 1383.9,-130.643 1373.53,-128.511 1374.46,-135.448"/>
</g>
<!-- Node15&#45;&gt;Node3 -->
<g id="edge18" class="edge"><title>Node15&#45;&gt;Node3</title>
<path fill="none" stroke="midnightblue" d="M1160.48,-114.388C1157.35,-113.46 1154.11,-112.615 1151,-112 953.87,-72.9583 711.388,-67.6035 623.665,-67.007"/>
<polygon fill="midnightblue" stroke="midnightblue" points="623.529,-63.5064 613.511,-66.9551 623.493,-70.5063 623.529,-63.5064"/>
</g>
<!-- Node16 -->
<g id="node16" class="node"><title>Node16</title>
<g id="a_node16"><a xlink:href="../../df/dad/rle__config_8h.html" target="_top" xlink:title="rle_config.h">
<polygon fill="white" stroke="black" points="1143.5,-56.5 1143.5,-75.5 1214.5,-75.5 1214.5,-56.5 1143.5,-56.5"/>
<text text-anchor="middle" x="1179" y="-63.5" font-family="Helvetica,sans-Serif" font-size="10.00">rle_config.h</text>
</a>
</g>
</g>
<!-- Node15&#45;&gt;Node16 -->
<g id="edge15" class="edge"><title>Node15&#45;&gt;Node16</title>
<path fill="none" stroke="midnightblue" d="M1179,-112.083C1179,-105.006 1179,-94.8611 1179,-85.9865"/>
<polygon fill="midnightblue" stroke="midnightblue" points="1182.5,-85.751 1179,-75.7511 1175.5,-85.7511 1182.5,-85.751"/>
</g>
<!-- Node17 -->
<g id="node17" class="node"><title>Node17</title>
<polygon fill="white" stroke="#bfbfbf" points="1120.5,-0.5 1120.5,-19.5 1169.5,-19.5 1169.5,-0.5 1120.5,-0.5"/>
<text text-anchor="middle" x="1145" y="-7.5" font-family="Helvetica,sans-Serif" font-size="10.00">stdlib.h</text>
</g>
<!-- Node16&#45;&gt;Node17 -->
<g id="edge16" class="edge"><title>Node16&#45;&gt;Node17</title>
<path fill="none" stroke="midnightblue" d="M1173.39,-56.083C1168.63,-48.5341 1161.68,-37.4948 1155.85,-28.2298"/>
<polygon fill="midnightblue" stroke="midnightblue" points="1158.8,-26.3486 1150.51,-19.7511 1152.88,-30.0783 1158.8,-26.3486"/>
</g>
<!-- Node18 -->
<g id="node18" class="node"><title>Node18</title>
<polygon fill="white" stroke="#bfbfbf" points="1187.5,-0.5 1187.5,-19.5 1238.5,-19.5 1238.5,-0.5 1187.5,-0.5"/>
<text text-anchor="middle" x="1213" y="-7.5" font-family="Helvetica,sans-Serif" font-size="10.00">string.h</text>
</g>
<!-- Node16&#45;&gt;Node18 -->
<g id="edge17" class="edge"><title>Node16&#45;&gt;Node18</title>
<path fill="none" stroke="midnightblue" d="M1184.61,-56.083C1189.37,-48.5341 1196.32,-37.4948 1202.15,-28.2298"/>
<polygon fill="midnightblue" stroke="midnightblue" points="1205.12,-30.0783 1207.49,-19.7511 1199.2,-26.3486 1205.12,-30.0783"/>
</g>
</g>
</svg>
        <g id="navigator" transform="translate(0 0)" fill="#404254">
                <rect fill="#f2f5e9" fill-opacity="0.5" stroke="#606060" stroke-width=".5" x="0" y="0" width="60" height="60"/>
                <use id="zoomplus" xlink:href="#zoomPlus" x="17" y="9" onmousedown="handleZoom(evt,'in')"/>
                <use id="zoomminus" xlink:href="#zoomMin" x="42" y="9" onmousedown="handleZoom(evt,'out')"/>
                <use id="reset" xlink:href="#resetDef" x="30" y="36" onmousedown="handleReset()"/>
                <g id="arrowUp" xlink:href="#dirArrow" transform="translate(30 24)" onmousedown="handlePan(0,-1)">
                  <use xlink:href="#rim" fill="#404040">
                        <set attributeName="fill" to="#808080" begin="arrowUp.mouseover" end="arrowUp.mouseout"/>
                  </use>
                  <path fill="none" stroke="white" stroke-width="1.5" d="M0,-3.0v7 M-2.5,-0.5L0,-3.0L2.5,-0.5"/>
                </g>
                <g id="arrowRight" xlink:href="#dirArrow" transform="rotate(90) translate(36 -43)" onmousedown="handlePan(1,0)">
                  <use xlink:href="#rim" fill="#404040">
                        <set attributeName="fill" to="#808080" begin="arrowRight.mouseover" end="arrowRight.mouseout"/>
                  </use>
                  <path fill="none" stroke="white" stroke-width="1.5" d="M0,-3.0v7 M-2.5,-0.5L0,-3.0L2.5,-0.5"/>
                </g>
                <g id="arrowDown" xlink:href="#dirArrow" transform="rotate(180) translate(-30 -48)" onmousedown="handlePan(0,1)">
                  <use xlink:href="#rim" fill="#404040">
                        <set attributeName="fill" to="#808080" begin="arrowDown.mouseover" end="arrowDown.mouseout"/>
                  </use>
                  <path fill="none" stroke="white" stroke-width="1.5" d="M0,-3.0v7 M-2.5,-0.5L0,-3.0L2.5,-0.5"/>
                </g>
                <g id="arrowLeft" xlink:href="#dirArrow" transform="rotate(270) translate(-36 17)" onmousedown="handlePan(-1,0)">
                  <use xlink:href="#rim" fill="#404040">
                        <set attributeName="fill" to="#808080" begin="arrowLeft.mouseover" end="arrowLeft.mouseout"/>
                  </use>
                  <path fill="none" stroke="white" stroke-width="1.5" d="M0,-3.0v7 M-2.5,-0.5L0,-3.0L2.5,-0.5"/>
                </g>
        </g>
        <svg viewBox="0 0 15 15" width="100%" height="30px" preserveAspectRatio="xMaxYMin meet">
         <g id="arrow_out" transform="scale(0.3 0.3)">
          <a xlink:href="gettaac_8c__incl_org.svg" target="_base">
           <rect id="button" ry="5" rx="5" y="6" x="6" height="38" width="38"
                fill="#f2f5e9" fill-opacity="0.5" stroke="#606060" stroke-width="1.0"/>
           <path id="arrow"
             d="M 11.500037,31.436501 C 11.940474,20.09759 22.043105,11.32322 32.158766,21.979434 L 37.068811,17.246167 C 37.068811,17.246167 37.088388,32 37.088388,32 L 22.160133,31.978069 C 22.160133,31.978069 26.997745,27.140456 26.997745,27.140456 C 18.528582,18.264221 13.291696,25.230495 11.500037,31.436501 z"
             style="fill:#404040;"/>
          </a>
         </g>
        </svg>
</svg>
