<?xml version="1.0" encoding="UTF-8" standalone="no"?>
<!DOCTYPE svg PUBLIC "-//W3C//DTD SVG 1.1//EN"
 "http://www.w3.org/Graphics/SVG/1.1/DTD/svg11.dtd">
<!-- Generated by graphviz version 2.38.0 (20140413.2041)
 -->
<!-- Title: gettaac.c Pages: 1 -->
<svg width="1494pt" height="84pt"
 viewBox="0.00 0.00 1494.00 84.00" xmlns="http://www.w3.org/2000/svg" xmlns:xlink="http://www.w3.org/1999/xlink">
<g id="graph0" class="graph" transform="scale(1 1) rotate(0) translate(4 80)">
<title>gettaac.c</title>
<polygon fill="white" stroke="none" points="-4,4 -4,-80 1490,-80 1490,4 -4,4"/>
<!-- Node1 -->
<g id="node1" class="node"><title>Node1</title>
<polygon fill="#bfbfbf" stroke="black" points="788.5,-56.5 788.5,-75.5 847.5,-75.5 847.5,-56.5 788.5,-56.5"/>
<text text-anchor="middle" x="818" y="-63.5" font-family="Helvetica,sans-Serif" font-size="10.00">gettaac.c</text>
</g>
<!-- Node2 -->
<g id="node2" class="node"><title>Node2</title>
<polygon fill="white" stroke="#bfbfbf" points="0,-0.5 0,-19.5 50,-19.5 50,-0.5 0,-0.5"/>
<text text-anchor="middle" x="25" y="-7.5" font-family="Helvetica,sans-Serif" font-size="10.00">errno.h</text>
</g>
<!-- Node1&#45;&gt;Node2 -->
<g id="edge1" class="edge"><title>Node1&#45;&gt;Node2</title>
<path fill="none" stroke="midnightblue" d="M788.466,-65.3565C687.712,-66.1317 348.286,-65.1148 60.3514,-19.8783"/>
<polygon fill="midnightblue" stroke="midnightblue" points="60.557,-16.367 50.1309,-18.2504 59.4559,-23.2799 60.557,-16.367"/>
</g>
<!-- Node3 -->
<g id="node3" class="node"><title>Node3</title>
<polygon fill="white" stroke="#bfbfbf" points="68.5,-0.5 68.5,-19.5 115.5,-19.5 115.5,-0.5 68.5,-0.5"/>
<text text-anchor="middle" x="92" y="-7.5" font-family="Helvetica,sans-Serif" font-size="10.00">stdio.h</text>
</g>
<!-- Node1&#45;&gt;Node3 -->
<g id="edge2" class="edge"><title>Node1&#45;&gt;Node3</title>
<path fill="none" stroke="midnightblue" d="M788.373,-65.1977C693.256,-65.3877 387.095,-62.5424 125.726,-19.7385"/>
<polygon fill="midnightblue" stroke="midnightblue" points="126.105,-16.2535 115.666,-18.0674 124.957,-23.1589 126.105,-16.2535"/>
</g>
<!-- Node4 -->
<g id="node4" class="node"><title>Node4</title>
<polygon fill="white" stroke="#bfbfbf" points="134,-0.5 134,-19.5 190,-19.5 190,-0.5 134,-0.5"/>
<text text-anchor="middle" x="162" y="-7.5" font-family="Helvetica,sans-Serif" font-size="10.00">strings.h</text>
</g>
<!-- Node1&#45;&gt;Node4 -->
<g id="edge3" class="edge"><title>Node1&#45;&gt;Node4</title>
<path fill="none" stroke="midnightblue" d="M788.483,-64.589C700.388,-62.9971 431.628,-55.4894 200.136,-19.9167"/>
<polygon fill="midnightblue" stroke="midnightblue" points="200.604,-16.4475 190.184,-18.3664 199.527,-23.3641 200.604,-16.4475"/>
</g>
<!-- Node5 -->
<g id="node5" class="node"><title>Node5</title>
<polygon fill="white" stroke="#bfbfbf" points="208.5,-0.5 208.5,-19.5 261.5,-19.5 261.5,-0.5 208.5,-0.5"/>
<text text-anchor="middle" x="235" y="-7.5" font-family="Helvetica,sans-Serif" font-size="10.00">signal.h</text>
</g>
<!-- Node1&#45;&gt;Node5 -->
<g id="edge4" class="edge"><title>Node1&#45;&gt;Node5</title>
<path fill="none" stroke="midnightblue" d="M788.377,-64.3323C707.097,-62.1279 473.719,-53.2985 271.559,-20.0062"/>
<polygon fill="midnightblue" stroke="midnightblue" points="272.093,-16.5469 261.653,-18.3508 270.939,-23.4512 272.093,-16.5469"/>
</g>
<!-- Node6 -->
<g id="node6" class="node"><title>Node6</title>
<polygon fill="white" stroke="#bfbfbf" points="279.5,-0.5 279.5,-19.5 378.5,-19.5 378.5,-0.5 279.5,-0.5"/>
<text text-anchor="middle" x="329" y="-7.5" font-family="Helvetica,sans-Serif" font-size="10.00">suntool/sunview.h</text>
</g>
<!-- Node1&#45;&gt;Node6 -->
<g id="edge5" class="edge"><title>Node1&#45;&gt;Node6</title>
<path fill="none" stroke="midnightblue" d="M788.489,-62.3947C720.222,-56.2648 545.905,-40.0223 388.868,-20.0524"/>
<polygon fill="midnightblue" stroke="midnightblue" points="388.914,-16.5298 378.551,-18.7317 388.025,-23.4732 388.914,-16.5298"/>
</g>
<!-- Node7 -->
<g id="node7" class="node"><title>Node7</title>
<polygon fill="white" stroke="#bfbfbf" points="397,-0.5 397,-19.5 485,-19.5 485,-0.5 397,-0.5"/>
<text text-anchor="middle" x="441" y="-7.5" font-family="Helvetica,sans-Serif" font-size="10.00">suntool/panel.h</text>
</g>
<!-- Node1&#45;&gt;Node7 -->
<g id="edge6" class="edge"><title>Node1&#45;&gt;Node7</title>
<path fill="none" stroke="midnightblue" d="M788.472,-61.2025C733.083,-54.0136 609.579,-37.6758 495.206,-20.1488"/>
<polygon fill="midnightblue" stroke="midnightblue" points="495.646,-16.6755 485.23,-18.6135 494.581,-23.5941 495.646,-16.6755"/>
</g>
<!-- Node8 -->
<g id="node8" class="node"><title>Node8</title>
<polygon fill="white" stroke="#bfbfbf" points="503.5,-0.5 503.5,-19.5 598.5,-19.5 598.5,-0.5 503.5,-0.5"/>
<text text-anchor="middle" x="551" y="-7.5" font-family="Helvetica,sans-Serif" font-size="10.00">suntool/canvas.h</text>
</g>
<!-- Node1&#45;&gt;Node8 -->
<g id="edge7" class="edge"><title>Node1&#45;&gt;Node8</title>
<path fill="none" stroke="midnightblue" d="M788.406,-59.0147C743.797,-49.9927 658.68,-32.7781 603.413,-21.6003"/>
<polygon fill="midnightblue" stroke="midnightblue" points="603.952,-18.1386 593.457,-19.5868 602.564,-24.9997 603.952,-18.1386"/>
</g>
<!-- Node9 -->
<g id="node9" class="node"><title>Node9</title>
<polygon fill="white" stroke="#bfbfbf" points="616.5,-0.5 616.5,-19.5 747.5,-19.5 747.5,-0.5 616.5,-0.5"/>
<text text-anchor="middle" x="682" y="-7.5" font-family="Helvetica,sans-Serif" font-size="10.00">sunwindow/win_cursor.h</text>
</g>
<!-- Node1&#45;&gt;Node9 -->
<g id="edge8" class="edge"><title>Node1&#45;&gt;Node9</title>
<path fill="none" stroke="midnightblue" d="M796.45,-56.4435C773.969,-47.5171 738.512,-33.4387 713.02,-23.3168"/>
<polygon fill="midnightblue" stroke="midnightblue" points="714.035,-19.9539 703.449,-19.5164 711.451,-26.4598 714.035,-19.9539"/>
</g>
<!-- Node10 -->
<g id="node10" class="node"><title>Node10</title>
<polygon fill="white" stroke="#bfbfbf" points="765.5,-0.5 765.5,-19.5 870.5,-19.5 870.5,-0.5 765.5,-0.5"/>
<text text-anchor="middle" x="818" y="-7.5" font-family="Helvetica,sans-Serif" font-size="10.00">sunwindow/notify.h</text>
</g>
<!-- Node1&#45;&gt;Node10 -->
<g id="edge9" class="edge"><title>Node1&#45;&gt;Node10</title>
<path fill="none" stroke="midnightblue" d="M818,-56.083C818,-49.0059 818,-38.8611 818,-29.9865"/>
<polygon fill="midnightblue" stroke="midnightblue" points="821.5,-29.751 818,-19.7511 814.5,-29.7511 821.5,-29.751"/>
</g>
<!-- Node11 -->
<g id="node11" class="node"><title>Node11</title>
<polygon fill="white" stroke="#bfbfbf" points="888.5,-0.5 888.5,-19.5 957.5,-19.5 957.5,-0.5 888.5,-0.5"/>
<text text-anchor="middle" x="923" y="-7.5" font-family="Helvetica,sans-Serif" font-size="10.00">sys/types.h</text>
</g>
<!-- Node1&#45;&gt;Node11 -->
<g id="edge10" class="edge"><title>Node1&#45;&gt;Node11</title>
<path fill="none" stroke="midnightblue" d="M834.87,-56.324C851.709,-47.6641 877.807,-34.2424 897.238,-24.249"/>
<polygon fill="midnightblue" stroke="midnightblue" points="898.88,-27.3405 906.172,-19.6545 895.678,-21.1155 898.88,-27.3405"/>
</g>
<!-- Node12 -->
<g id="node12" class="node"><title>Node12</title>
<polygon fill="white" stroke="#bfbfbf" points="976,-0.5 976,-19.5 1032,-19.5 1032,-0.5 976,-0.5"/>
<text text-anchor="middle" x="1004" y="-7.5" font-family="Helvetica,sans-Serif" font-size="10.00">sys/dir.h</text>
</g>
<!-- Node1&#45;&gt;Node12 -->
<g id="edge11" class="edge"><title>Node1&#45;&gt;Node12</title>
<path fill="none" stroke="midnightblue" d="M847.472,-56.4435C879.544,-47.1323 930.924,-32.2155 966.005,-22.0308"/>
<polygon fill="midnightblue" stroke="midnightblue" points="967.256,-25.3123 975.883,-19.1629 965.304,-18.5899 967.256,-25.3123"/>
</g>
<!-- Node13 -->
<g id="node13" class="node"><title>Node13</title>
<polygon fill="white" stroke="#bfbfbf" points="1050.5,-0.5 1050.5,-19.5 1107.5,-19.5 1107.5,-0.5 1050.5,-0.5"/>
<text text-anchor="middle" x="1079" y="-7.5" font-family="Helvetica,sans-Serif" font-size="10.00">sys/file.h</text>
</g>
<!-- Node1&#45;&gt;Node13 -->
<g id="edge12" class="edge"><title>Node1&#45;&gt;Node13</title>
<path fill="none" stroke="midnightblue" d="M847.645,-59.3451C888.593,-51.4629 965.01,-36.499 1040.26,-20.1012"/>
<polygon fill="midnightblue" stroke="midnightblue" points="1041.37,-23.442 1050.39,-17.8843 1039.87,-16.604 1041.37,-23.442"/>
</g>
<!-- Node14 -->
<g id="node14" class="node"><title>Node14</title>
<polygon fill="white" stroke="#bfbfbf" points="1126,-0.5 1126,-19.5 1170,-19.5 1170,-0.5 1126,-0.5"/>
<text text-anchor="middle" x="1148" y="-7.5" font-family="Helvetica,sans-Serif" font-size="10.00">pwd.h</text>
</g>
<!-- Node1&#45;&gt;Node14 -->
<g id="edge13" class="edge"><title>Node1&#45;&gt;Node14</title>
<path fill="none" stroke="midnightblue" d="M847.522,-61.8784C899.761,-56.0718 1012.02,-42.3248 1115.73,-20.0313"/>
<polygon fill="midnightblue" stroke="midnightblue" points="1116.72,-23.399 1125.74,-17.8472 1115.22,-16.5599 1116.72,-23.399"/>
</g>
<!-- Node15 -->
<g id="node15" class="node"><title>Node15</title>
<polygon fill="white" stroke="#bfbfbf" points="1188.5,-0.5 1188.5,-19.5 1225.5,-19.5 1225.5,-0.5 1188.5,-0.5"/>
<text text-anchor="middle" x="1207" y="-7.5" font-family="Helvetica,sans-Serif" font-size="10.00">rle.h</text>
</g>
<!-- Node1&#45;&gt;Node15 -->
<g id="edge14" class="edge"><title>Node1&#45;&gt;Node15</title>
<path fill="none" stroke="midnightblue" d="M847.8,-63.1775C908.398,-59.0692 1050.37,-47.3951 1178.47,-19.6929"/>
<polygon fill="midnightblue" stroke="midnightblue" points="1179.44,-23.0635 1188.46,-17.4951 1177.94,-16.2272 1179.44,-23.0635"/>
</g>
<!-- Node16 -->
<g id="node16" class="node"><title>Node16</title>
<polygon fill="white" stroke="#bfbfbf" points="1243.5,-0.5 1243.5,-19.5 1304.5,-19.5 1304.5,-0.5 1243.5,-0.5"/>
<text text-anchor="middle" x="1274" y="-7.5" font-family="Helvetica,sans-Serif" font-size="10.00">sys/stat.h</text>
</g>
<!-- Node1&#45;&gt;Node16 -->
<g id="edge15" class="edge"><title>Node1&#45;&gt;Node16</title>
<path fill="none" stroke="midnightblue" d="M847.744,-63.015C914.813,-58.2785 1083.07,-44.9375 1233.1,-20.1487"/>
<polygon fill="midnightblue" stroke="midnightblue" points="1234.13,-23.5256 1243.41,-18.4219 1232.97,-16.6218 1234.13,-23.5256"/>
</g>
<!-- Node17 -->
<g id="node17" class="node"><title>Node17</title>
<polygon fill="white" stroke="#bfbfbf" points="1322.5,-0.5 1322.5,-19.5 1393.5,-19.5 1393.5,-0.5 1322.5,-0.5"/>
<text text-anchor="middle" x="1358" y="-7.5" font-family="Helvetica,sans-Serif" font-size="10.00">taac1/taio.h</text>
</g>
<!-- Node1&#45;&gt;Node17 -->
<g id="edge16" class="edge"><title>Node1&#45;&gt;Node17</title>
<path fill="none" stroke="midnightblue" d="M847.767,-63.4577C923.635,-59.281 1130.55,-46.3499 1312.05,-20.1545"/>
<polygon fill="midnightblue" stroke="midnightblue" points="1312.65,-23.6038 1322.04,-18.6951 1311.64,-16.6773 1312.65,-23.6038"/>
</g>
<!-- Node18 -->
<g id="node18" class="node"><title>Node18</title>
<polygon fill="white" stroke="#bfbfbf" points="1412,-0.5 1412,-19.5 1486,-19.5 1486,-0.5 1412,-0.5"/>
<text text-anchor="middle" x="1449" y="-7.5" font-family="Helvetica,sans-Serif" font-size="10.00">gettaac.icon</text>
</g>
<!-- Node1&#45;&gt;Node18 -->
<g id="edge17" class="edge"><title>Node1&#45;&gt;Node18</title>
<path fill="none" stroke="midnightblue" d="M847.652,-63.94C932.481,-60.6493 1183.53,-49.111 1401.86,-19.9975"/>
<polygon fill="midnightblue" stroke="midnightblue" points="1402.46,-23.4482 1411.9,-18.6426 1401.53,-16.5111 1402.46,-23.4482"/>
</g>
</g>
</svg>
