<?xml version="1.0" encoding="UTF-8" standalone="no"?>
<!DOCTYPE svg PUBLIC "-//W3C//DTD SVG 1.1//EN"
 "http://www.w3.org/Graphics/SVG/1.1/DTD/svg11.dtd">
<!-- Generated by graphviz version 2.38.0 (20140413.2041)
 -->
<!-- Title: getbyte Pages: 1 -->
<svg width="250pt" height="28pt"
 viewBox="0.00 0.00 250.00 28.00" xmlns="http://www.w3.org/2000/svg" xmlns:xlink="http://www.w3.org/1999/xlink">
<g id="graph0" class="graph" transform="scale(1 1) rotate(0) translate(4 24)">
<title>getbyte</title>
<polygon fill="white" stroke="none" points="-4,4 -4,-24 246,-24 246,4 -4,4"/>
<!-- Node1 -->
<g id="node1" class="node"><title>Node1</title>
<polygon fill="#bfbfbf" stroke="black" points="0,-0.5 0,-19.5 51,-19.5 51,-0.5 0,-0.5"/>
<text text-anchor="middle" x="25.5" y="-7.5" font-family="Helvetica,sans-Serif" font-size="10.00">getbyte</text>
</g>
<!-- Node2 -->
<g id="node2" class="node"><title>Node2</title>
<g id="a_node2"><a xlink:href="../../d8/d35/targatorle_8c.html#a2cc73e25ebe91ab4a927e0881045bbea" target="_top" xlink:title="targa_getrow">
<polygon fill="white" stroke="black" points="87,-0.5 87,-19.5 167,-19.5 167,-0.5 87,-0.5"/>
<text text-anchor="middle" x="127" y="-7.5" font-family="Helvetica,sans-Serif" font-size="10.00">targa_getrow</text>
</a>
</g>
</g>
<!-- Node1&#45;&gt;Node2 -->
<g id="edge1" class="edge"><title>Node1&#45;&gt;Node2</title>
<path fill="none" stroke="midnightblue" d="M61.2212,-10C69.5392,-10 78.4757,-10 86.9739,-10"/>
<polygon fill="midnightblue" stroke="midnightblue" points="61.0955,-6.5001 51.0955,-10 61.0955,-13.5001 61.0955,-6.5001"/>
</g>
<!-- Node3 -->
<g id="node3" class="node"><title>Node3</title>
<g id="a_node3"><a xlink:href="../../d8/d35/targatorle_8c.html#ade521a0600ded19f1720b6f6df59b480" target="_top" xlink:title="main">
<polygon fill="white" stroke="black" points="203,-0.5 203,-19.5 242,-19.5 242,-0.5 203,-0.5"/>
<text text-anchor="middle" x="222.5" y="-7.5" font-family="Helvetica,sans-Serif" font-size="10.00">main</text>
</a>
</g>
</g>
<!-- Node2&#45;&gt;Node3 -->
<g id="edge2" class="edge"><title>Node2&#45;&gt;Node3</title>
<path fill="none" stroke="midnightblue" d="M177.382,-10C186.496,-10 195.475,-10 202.93,-10"/>
<polygon fill="midnightblue" stroke="midnightblue" points="177.111,-6.5001 167.111,-10 177.111,-13.5001 177.111,-6.5001"/>
</g>
</g>
</svg>
