<?xml version="1.0" encoding="UTF-8" standalone="no"?>
<!DOCTYPE svg PUBLIC "-//W3C//DTD SVG 1.1//EN"
 "http://www.w3.org/Graphics/SVG/1.1/DTD/svg11.dtd">
<!-- Generated by graphviz version 2.38.0 (20140413.2041)
 -->
<!-- Title: main Pages: 1 -->
<!--zoomable 522 -->
<svg id="main" version="1.1" xmlns="http://www.w3.org/2000/svg" xmlns:xlink="http://www.w3.org/1999/xlink" xml:space="preserve" onload="init(evt)">
<style type="text/css"><![CDATA[
.edge:hover path { stroke: red; }
.edge:hover polygon { stroke: red; fill: red; }
]]></style>
<script type="text/javascript"><![CDATA[
var edges = document.getElementsByTagName('g');
if (edges && edges.length) {
  for (var i=0;i<edges.length;i++) {
    if (edges[i].id.substr(0,4)=='edge') {
      edges[i].setAttribute('class','edge');
    }
  }
}
]]></script>
        <defs>
                <circle id="rim" cx="0" cy="0" r="7"/>
                <circle id="rim2" cx="0" cy="0" r="3.5"/>
                <g id="zoomPlus">
                        <use xlink:href="#rim" fill="#404040">
                                <set attributeName="fill" to="#808080" begin="zoomplus.mouseover" end="zoomplus.mouseout"/>
                        </use>
                        <path d="M-4,0h8M0,-4v8" fill="none" stroke="white" stroke-width="1.5" pointer-events="none"/>
                </g>
                <g id="zoomMin">
                        <use xlink:href="#rim" fill="#404040">
                                <set attributeName="fill" to="#808080" begin="zoomminus.mouseover" end="zoomminus.mouseout"/>
                        </use>
                        <path d="M-4,0h8" fill="none" stroke="white" stroke-width="1.5" pointer-events="none"/>
                </g>
                <g id="dirArrow">
                        <path fill="none" stroke="white" stroke-width="1.5" d="M0,-3.0v7 M-2.5,-0.5L0,-3.0L2.5,-0.5"/>
                </g>
               <g id="resetDef">
                       <use xlink:href="#rim2" fill="#404040">
                               <set attributeName="fill" to="#808080" begin="reset.mouseover" end="reset.mouseout"/>
                       </use>
               </g>
        </defs>

<script type="text/javascript">
var viewWidth = 523;
var viewHeight = 522;
var sectionId = 'dynsection-3';
</script>
<script xlink:href="../../svgpan.js"/>
<svg id="graph" class="graph">
<g id="viewport">
<title>main</title>
<polygon fill="white" stroke="none" points="-4,4 -4,-518 519,-518 519,4 -4,4"/>
<!-- Node1 -->
<g id="node1" class="node"><title>Node1</title>
<polygon fill="#bfbfbf" stroke="black" points="0,-228.5 0,-247.5 39,-247.5 39,-228.5 0,-228.5"/>
<text text-anchor="middle" x="19.5" y="-235.5" font-family="Helvetica,sans-Serif" font-size="10.00">main</text>
</g>
<!-- Node2 -->
<g id="node2" class="node"><title>Node2</title>
<g id="a_node2"><a xlink:href="../../d4/db0/scanargs_8c.html#a7ea6d702c0484056c8504d6ce7fede08" target="_top" xlink:title="scanargs">
<polygon fill="white" stroke="black" points="85,-494.5 85,-513.5 145,-513.5 145,-494.5 85,-494.5"/>
<text text-anchor="middle" x="115" y="-501.5" font-family="Helvetica,sans-Serif" font-size="10.00">scanargs</text>
</a>
</g>
</g>
<!-- Node1&#45;&gt;Node2 -->
<g id="edge1" class="edge"><title>Node1&#45;&gt;Node2</title>
<path fill="none" stroke="midnightblue" d="M20.1268,-247.844C19.2886,-282.949 20.6754,-403.958 75,-480 77.3252,-483.255 80.2428,-486.157 83.4301,-488.72"/>
<polygon fill="midnightblue" stroke="midnightblue" points="81.4963,-491.638 91.7251,-494.398 85.4505,-485.861 81.4963,-491.638"/>
</g>
<!-- Node4 -->
<g id="node4" class="node"><title>Node4</title>
<g id="a_node4"><a xlink:href="../../d2/df3/rle__hdr_8c.html#a8ba0e5b11d1e39ab7227f1686e676c86" target="_top" xlink:title="rle_hdr_init">
<polygon fill="white" stroke="black" points="80,-304.5 80,-323.5 150,-323.5 150,-304.5 80,-304.5"/>
<text text-anchor="middle" x="115" y="-311.5" font-family="Helvetica,sans-Serif" font-size="10.00">rle_hdr_init</text>
</a>
</g>
</g>
<!-- Node1&#45;&gt;Node4 -->
<g id="edge3" class="edge"><title>Node1&#45;&gt;Node4</title>
<path fill="none" stroke="midnightblue" d="M29.5969,-247.847C39.9958,-258.816 57.8074,-276.745 75,-290 79.0374,-293.113 83.4992,-296.172 87.9195,-299.009"/>
<polygon fill="midnightblue" stroke="midnightblue" points="86.4345,-302.205 96.785,-304.467 90.1042,-296.244 86.4345,-302.205"/>
</g>
<!-- Node6 -->
<g id="node6" class="node"><title>Node6</title>
<g id="a_node6"><a xlink:href="../../d0/dcc/rletorla_8c.html#aafde19f7d36ca163a143579c1b125b6d" target="_top" xlink:title="free">
<polygon fill="white" stroke="black" points="464.5,-380.5 464.5,-399.5 499.5,-399.5 499.5,-380.5 464.5,-380.5"/>
<text text-anchor="middle" x="482" y="-387.5" font-family="Helvetica,sans-Serif" font-size="10.00">free</text>
</a>
</g>
</g>
<!-- Node1&#45;&gt;Node6 -->
<g id="edge37" class="edge"><title>Node1&#45;&gt;Node6</title>
<path fill="none" stroke="midnightblue" d="M21.7892,-247.813C25.4302,-271.356 38.0484,-331.291 75,-361 193.249,-456.073 262.676,-429.606 413,-409 426.947,-407.088 442.065,-403.068 454.497,-399.216"/>
<polygon fill="midnightblue" stroke="midnightblue" points="455.786,-402.477 464.224,-396.069 453.632,-395.817 455.786,-402.477"/>
</g>
<!-- Node8 -->
<g id="node8" class="node"><title>Node8</title>
<g id="a_node8"><a xlink:href="../../d0/dcc/rletorla_8c.html#ab7e36af3707843f77cc5b4e831c2fa6d" target="_top" xlink:title="malloc">
<polygon fill="white" stroke="black" points="458.5,-228.5 458.5,-247.5 505.5,-247.5 505.5,-228.5 458.5,-228.5"/>
<text text-anchor="middle" x="482" y="-235.5" font-family="Helvetica,sans-Serif" font-size="10.00">malloc</text>
</a>
</g>
</g>
<!-- Node1&#45;&gt;Node8 -->
<g id="edge19" class="edge"><title>Node1&#45;&gt;Node8</title>
<path fill="none" stroke="midnightblue" d="M39.1225,-238C109.297,-238 358.329,-238 448.284,-238"/>
<polygon fill="midnightblue" stroke="midnightblue" points="448.443,-241.5 458.443,-238 448.443,-234.5 448.443,-241.5"/>
</g>
<!-- Node9 -->
<g id="node9" class="node"><title>Node9</title>
<g id="a_node9"><a xlink:href="../../d2/df3/rle__hdr_8c.html#a82e79385f2d45cc3b80ce0f4f369eae5" target="_top" xlink:title="rle_names">
<polygon fill="white" stroke="black" points="329,-342.5 329,-361.5 395,-361.5 395,-342.5 329,-342.5"/>
<text text-anchor="middle" x="362" y="-349.5" font-family="Helvetica,sans-Serif" font-size="10.00">rle_names</text>
</a>
</g>
</g>
<!-- Node1&#45;&gt;Node9 -->
<g id="edge12" class="edge"><title>Node1&#45;&gt;Node9</title>
<path fill="none" stroke="midnightblue" d="M22.7871,-247.651C28.0806,-267.599 43.2264,-313.162 75,-333 150.259,-379.989 259.415,-370.742 318.747,-360.799"/>
<polygon fill="midnightblue" stroke="midnightblue" points="319.637,-364.196 328.877,-359.012 318.422,-357.302 319.637,-364.196"/>
</g>
<!-- Node10 -->
<g id="node10" class="node"><title>Node10</title>
<g id="a_node10"><a xlink:href="../../d8/d30/cmd__name_8c.html#a271249070fdd12c176777c77d76f888f" target="_top" xlink:title="cmd_name">
<polygon fill="white" stroke="black" points="81,-114.5 81,-133.5 149,-133.5 149,-114.5 81,-114.5"/>
<text text-anchor="middle" x="115" y="-121.5" font-family="Helvetica,sans-Serif" font-size="10.00">cmd_name</text>
</a>
</g>
</g>
<!-- Node1&#45;&gt;Node10 -->
<g id="edge13" class="edge"><title>Node1&#45;&gt;Node10</title>
<path fill="none" stroke="midnightblue" d="M24.5021,-228.328C32.1793,-210.672 50.4182,-172.758 75,-148 78.2383,-144.738 82.003,-141.726 85.8912,-139.016"/>
<polygon fill="midnightblue" stroke="midnightblue" points="87.8752,-141.903 94.4437,-133.59 84.1248,-135.992 87.8752,-141.903"/>
</g>
<!-- Node11 -->
<g id="node11" class="node"><title>Node11</title>
<g id="a_node11"><a xlink:href="../../de/d4e/rle__open__f_8c.html#a89733a45961817885603ae01210290b7" target="_top" xlink:title="rle_open_f">
<polygon fill="white" stroke="black" points="199,-266.5 199,-285.5 267,-285.5 267,-266.5 199,-266.5"/>
<text text-anchor="middle" x="233" y="-273.5" font-family="Helvetica,sans-Serif" font-size="10.00">rle_open_f</text>
</a>
</g>
</g>
<!-- Node1&#45;&gt;Node11 -->
<g id="edge14" class="edge"><title>Node1&#45;&gt;Node11</title>
<path fill="none" stroke="midnightblue" d="M39.059,-243.258C49.5493,-246.106 62.9403,-249.536 75,-252 113.106,-259.787 156.884,-266.279 188.515,-270.539"/>
<polygon fill="midnightblue" stroke="midnightblue" points="188.377,-274.051 198.751,-271.897 189.298,-267.112 188.377,-274.051"/>
</g>
<!-- Node14 -->
<g id="node14" class="node"><title>Node14</title>
<g id="a_node14"><a xlink:href="../../d8/def/rle__addhist_8c.html#a4f9433d6e4e203d0ecea1c7d3837afc3" target="_top" xlink:title="rle_addhist">
<polygon fill="white" stroke="black" points="198.5,-114.5 198.5,-133.5 267.5,-133.5 267.5,-114.5 198.5,-114.5"/>
<text text-anchor="middle" x="233" y="-121.5" font-family="Helvetica,sans-Serif" font-size="10.00">rle_addhist</text>
</a>
</g>
</g>
<!-- Node1&#45;&gt;Node14 -->
<g id="edge20" class="edge"><title>Node1&#45;&gt;Node14</title>
<path fill="none" stroke="midnightblue" d="M27.5515,-228.208C37.0402,-215.671 55.0474,-194.016 75,-181 110.106,-158.098 155.621,-142.886 188.599,-133.982"/>
<polygon fill="midnightblue" stroke="midnightblue" points="189.615,-137.334 198.405,-131.419 187.845,-130.561 189.615,-137.334"/>
</g>
<!-- Node19 -->
<g id="node19" class="node"><title>Node19</title>
<g id="a_node19"><a xlink:href="../../d9/d2a/rle__putrow_8c.html#af88a82b331cd6f425d2a2cc1623944c6" target="_top" xlink:title="rle_put_setup">
<polygon fill="white" stroke="black" points="75,-76.5 75,-95.5 155,-95.5 155,-76.5 75,-76.5"/>
<text text-anchor="middle" x="115" y="-83.5" font-family="Helvetica,sans-Serif" font-size="10.00">rle_put_setup</text>
</a>
</g>
</g>
<!-- Node1&#45;&gt;Node19 -->
<g id="edge27" class="edge"><title>Node1&#45;&gt;Node19</title>
<path fill="none" stroke="midnightblue" d="M22.0228,-228.363C26.2474,-204.543 40.1825,-142.136 75,-105 76.2041,-103.716 77.5135,-102.507 78.8989,-101.372"/>
<polygon fill="midnightblue" stroke="midnightblue" points="81.0945,-104.114 87.4607,-95.6456 77.2027,-98.296 81.0945,-104.114"/>
</g>
<!-- Node21 -->
<g id="node21" class="node"><title>Node21</title>
<g id="a_node21"><a xlink:href="../../d8/d35/targatorle_8c.html#a1bc3ec119867b44d66513943dc1ebff1" target="_top" xlink:title="init_comp">
<polygon fill="white" stroke="black" points="84,-38.5 84,-57.5 146,-57.5 146,-38.5 84,-38.5"/>
<text text-anchor="middle" x="115" y="-45.5" font-family="Helvetica,sans-Serif" font-size="10.00">init_comp</text>
</a>
</g>
</g>
<!-- Node1&#45;&gt;Node21 -->
<g id="edge29" class="edge"><title>Node1&#45;&gt;Node21</title>
<path fill="none" stroke="midnightblue" d="M21.0009,-228.215C22.9449,-199.855 32.1997,-116.494 75,-67 76.0161,-65.825 77.1216,-64.716 78.2955,-63.67"/>
<polygon fill="midnightblue" stroke="midnightblue" points="80.6676,-66.2794 86.8132,-57.6491 76.627,-60.5633 80.6676,-66.2794"/>
</g>
<!-- Node22 -->
<g id="node22" class="node"><title>Node22</title>
<g id="a_node22"><a xlink:href="../../d8/d35/targatorle_8c.html#a2cc73e25ebe91ab4a927e0881045bbea" target="_top" xlink:title="targa_getrow">
<polygon fill="white" stroke="black" points="75,-0.5 75,-19.5 155,-19.5 155,-0.5 75,-0.5"/>
<text text-anchor="middle" x="115" y="-7.5" font-family="Helvetica,sans-Serif" font-size="10.00">targa_getrow</text>
</a>
</g>
</g>
<!-- Node1&#45;&gt;Node22 -->
<g id="edge30" class="edge"><title>Node1&#45;&gt;Node22</title>
<path fill="none" stroke="midnightblue" d="M20.3149,-228.434C20.1956,-196.393 23.914,-91.3695 75,-29 75.9843,-27.7983 77.0632,-26.6669 78.215,-25.6022"/>
<polygon fill="midnightblue" stroke="midnightblue" points="80.5917,-28.2029 86.6452,-19.5077 76.4906,-22.53 80.5917,-28.2029"/>
</g>
<!-- Node24 -->
<g id="node24" class="node"><title>Node24</title>
<g id="a_node24"><a xlink:href="../../d9/d2a/rle__putrow_8c.html#aa26532b01bc4f49b7383765cdc23ea72" target="_top" xlink:title="rle_putrow">
<polygon fill="white" stroke="black" points="82,-190.5 82,-209.5 148,-209.5 148,-190.5 82,-190.5"/>
<text text-anchor="middle" x="115" y="-197.5" font-family="Helvetica,sans-Serif" font-size="10.00">rle_putrow</text>
</a>
</g>
</g>
<!-- Node1&#45;&gt;Node24 -->
<g id="edge32" class="edge"><title>Node1&#45;&gt;Node24</title>
<path fill="none" stroke="midnightblue" d="M39.4211,-230.31C51.3874,-225.447 67.1782,-219.029 81.1479,-213.352"/>
<polygon fill="midnightblue" stroke="midnightblue" points="82.5125,-216.575 90.4588,-209.568 79.8769,-210.09 82.5125,-216.575"/>
</g>
<!-- Node26 -->
<g id="node26" class="node"><title>Node26</title>
<g id="a_node26"><a xlink:href="../../d9/d2a/rle__putrow_8c.html#af4fab734a5d227ad2ae95840f56fff3b" target="_top" xlink:title="rle_puteof">
<polygon fill="white" stroke="black" points="330,-456.5 330,-475.5 394,-475.5 394,-456.5 330,-456.5"/>
<text text-anchor="middle" x="362" y="-463.5" font-family="Helvetica,sans-Serif" font-size="10.00">rle_puteof</text>
</a>
</g>
</g>
<!-- Node1&#45;&gt;Node26 -->
<g id="edge35" class="edge"><title>Node1&#45;&gt;Node26</title>
<path fill="none" stroke="midnightblue" d="M21.626,-247.684C26.1342,-284.663 44.1435,-416.182 75,-442 111.076,-472.185 249.508,-470.9 319.691,-468.146"/>
<polygon fill="midnightblue" stroke="midnightblue" points="320.093,-471.633 329.936,-467.715 319.798,-464.639 320.093,-471.633"/>
</g>
<!-- Node3 -->
<g id="node3" class="node"><title>Node3</title>
<g id="a_node3"><a xlink:href="../../d4/db0/scanargs_8c.html#a862219039664df6eb3cfced58addf830" target="_top" xlink:title="_do_scanargs">
<polygon fill="white" stroke="black" points="191,-494.5 191,-513.5 275,-513.5 275,-494.5 191,-494.5"/>
<text text-anchor="middle" x="233" y="-501.5" font-family="Helvetica,sans-Serif" font-size="10.00">_do_scanargs</text>
</a>
</g>
</g>
<!-- Node2&#45;&gt;Node3 -->
<g id="edge2" class="edge"><title>Node2&#45;&gt;Node3</title>
<path fill="none" stroke="midnightblue" d="M145.272,-504C156.073,-504 168.654,-504 180.827,-504"/>
<polygon fill="midnightblue" stroke="midnightblue" points="180.909,-507.5 190.909,-504 180.909,-500.5 180.909,-507.5"/>
</g>
<!-- Node5 -->
<g id="node5" class="node"><title>Node5</title>
<g id="a_node5"><a xlink:href="../../d2/df3/rle__hdr_8c.html#a16c4da6201b3b8cf55127b9ca968d253" target="_top" xlink:title="rle_hdr_clear">
<polygon fill="white" stroke="black" points="322,-380.5 322,-399.5 402,-399.5 402,-380.5 322,-380.5"/>
<text text-anchor="middle" x="362" y="-387.5" font-family="Helvetica,sans-Serif" font-size="10.00">rle_hdr_clear</text>
</a>
</g>
</g>
<!-- Node4&#45;&gt;Node5 -->
<g id="edge4" class="edge"><title>Node4&#45;&gt;Node5</title>
<path fill="none" stroke="midnightblue" d="M147.029,-323.625C191.119,-337.302 271.936,-362.372 320.637,-377.479"/>
<polygon fill="midnightblue" stroke="midnightblue" points="319.635,-380.833 330.223,-380.453 321.708,-374.147 319.635,-380.833"/>
</g>
<!-- Node7 -->
<g id="node7" class="node"><title>Node7</title>
<g id="a_node7"><a xlink:href="../../d2/df3/rle__hdr_8c.html#afc916e29aea8788e0878ca315ff69821" target="_top" xlink:title="rle_hdr_cp">
<polygon fill="white" stroke="black" points="199,-304.5 199,-323.5 267,-323.5 267,-304.5 199,-304.5"/>
<text text-anchor="middle" x="233" y="-311.5" font-family="Helvetica,sans-Serif" font-size="10.00">rle_hdr_cp</text>
</a>
</g>
</g>
<!-- Node4&#45;&gt;Node7 -->
<g id="edge6" class="edge"><title>Node4&#45;&gt;Node7</title>
<path fill="none" stroke="midnightblue" d="M150.176,-307.784C162.185,-307.215 175.843,-307.101 188.513,-307.441"/>
<polygon fill="midnightblue" stroke="midnightblue" points="188.74,-310.952 198.866,-307.835 189.006,-303.958 188.74,-310.952"/>
</g>
<!-- Node5&#45;&gt;Node6 -->
<g id="edge5" class="edge"><title>Node5&#45;&gt;Node6</title>
<path fill="none" stroke="midnightblue" d="M402.292,-390C419.232,-390 438.621,-390 453.916,-390"/>
<polygon fill="midnightblue" stroke="midnightblue" points="454.236,-393.5 464.236,-390 454.236,-386.5 454.236,-393.5"/>
</g>
<!-- Node7&#45;&gt;Node4 -->
<g id="edge7" class="edge"><title>Node7&#45;&gt;Node4</title>
<path fill="none" stroke="midnightblue" d="M198.866,-320.165C186.836,-320.767 173.046,-320.904 160.212,-320.578"/>
<polygon fill="midnightblue" stroke="midnightblue" points="160.296,-317.078 150.176,-320.216 160.044,-324.074 160.296,-317.078"/>
</g>
<!-- Node7&#45;&gt;Node8 -->
<g id="edge8" class="edge"><title>Node7&#45;&gt;Node8</title>
<path fill="none" stroke="midnightblue" d="M265.283,-304.375C312.328,-289.899 400.852,-262.661 448.565,-247.98"/>
<polygon fill="midnightblue" stroke="midnightblue" points="449.847,-251.247 458.376,-244.961 447.789,-244.557 449.847,-251.247"/>
</g>
<!-- Node7&#45;&gt;Node9 -->
<g id="edge9" class="edge"><title>Node7&#45;&gt;Node9</title>
<path fill="none" stroke="midnightblue" d="M266.047,-323.589C282.141,-328.404 301.841,-334.299 319.117,-339.468"/>
<polygon fill="midnightblue" stroke="midnightblue" points="318.379,-342.901 328.963,-342.414 320.386,-336.194 318.379,-342.901"/>
</g>
<!-- Node9&#45;&gt;Node6 -->
<g id="edge10" class="edge"><title>Node9&#45;&gt;Node6</title>
<path fill="none" stroke="midnightblue" d="M392.776,-361.589C411.813,-367.72 436.281,-375.599 454.618,-381.504"/>
<polygon fill="midnightblue" stroke="midnightblue" points="453.768,-384.907 464.359,-384.641 455.914,-378.244 453.768,-384.907"/>
</g>
<!-- Node9&#45;&gt;Node8 -->
<g id="edge11" class="edge"><title>Node9&#45;&gt;Node8</title>
<path fill="none" stroke="midnightblue" d="M395.15,-342.987C401.431,-340.368 407.703,-337.08 413,-333 440.05,-312.164 460.929,-277.652 472.056,-256.459"/>
<polygon fill="midnightblue" stroke="midnightblue" points="475.198,-258.002 476.594,-247.5 468.953,-254.839 475.198,-258.002"/>
</g>
<!-- Node12 -->
<g id="node12" class="node"><title>Node12</title>
<g id="a_node12"><a xlink:href="../../de/d4e/rle__open__f_8c.html#a5a0e62a00f907fce26e93b2f72adb2b0" target="_top" xlink:title="rle_open_f_noexit">
<polygon fill="white" stroke="black" points="311,-304.5 311,-323.5 413,-323.5 413,-304.5 311,-304.5"/>
<text text-anchor="middle" x="362" y="-311.5" font-family="Helvetica,sans-Serif" font-size="10.00">rle_open_f_noexit</text>
</a>
</g>
</g>
<!-- Node11&#45;&gt;Node12 -->
<g id="edge15" class="edge"><title>Node11&#45;&gt;Node12</title>
<path fill="none" stroke="midnightblue" d="M266.047,-285.589C282.141,-290.404 301.841,-296.299 319.117,-301.468"/>
<polygon fill="midnightblue" stroke="midnightblue" points="318.379,-304.901 328.963,-304.414 320.386,-298.194 318.379,-304.901"/>
</g>
<!-- Node12&#45;&gt;Node6 -->
<g id="edge18" class="edge"><title>Node12&#45;&gt;Node6</title>
<path fill="none" stroke="midnightblue" d="M393.104,-323.572C399.851,-326.223 406.832,-329.383 413,-333 432.147,-344.229 451.284,-360.876 464.355,-373.284"/>
<polygon fill="midnightblue" stroke="midnightblue" points="462.044,-375.918 471.656,-380.375 466.921,-370.897 462.044,-375.918"/>
</g>
<!-- Node12&#45;&gt;Node8 -->
<g id="edge17" class="edge"><title>Node12&#45;&gt;Node8</title>
<path fill="none" stroke="midnightblue" d="M385.421,-304.433C394.232,-300.368 404.3,-295.336 413,-290 430.459,-279.291 448.827,-265.043 462.066,-254.169"/>
<polygon fill="midnightblue" stroke="midnightblue" points="464.526,-256.675 469.963,-247.582 460.042,-251.299 464.526,-256.675"/>
</g>
<!-- Node13 -->
<g id="node13" class="node"><title>Node13</title>
<g id="a_node13"><a xlink:href="../../de/d4e/rle__open__f_8c.html#a84fda810ae9b9bde82a6391d0b264ead" target="_top" xlink:title="my_popen">
<polygon fill="white" stroke="black" points="449,-304.5 449,-323.5 515,-323.5 515,-304.5 449,-304.5"/>
<text text-anchor="middle" x="482" y="-311.5" font-family="Helvetica,sans-Serif" font-size="10.00">my_popen</text>
</a>
</g>
</g>
<!-- Node12&#45;&gt;Node13 -->
<g id="edge16" class="edge"><title>Node12&#45;&gt;Node13</title>
<path fill="none" stroke="midnightblue" d="M413.043,-314C421.523,-314 430.255,-314 438.518,-314"/>
<polygon fill="midnightblue" stroke="midnightblue" points="438.678,-317.5 448.678,-314 438.678,-310.5 438.678,-317.5"/>
</g>
<!-- Node14&#45;&gt;Node8 -->
<g id="edge23" class="edge"><title>Node14&#45;&gt;Node8</title>
<path fill="none" stroke="midnightblue" d="M267.655,-132.195C304.658,-141.981 365.201,-160.311 413,-186 431.256,-195.811 449.801,-210.364 462.902,-221.581"/>
<polygon fill="midnightblue" stroke="midnightblue" points="460.841,-224.428 470.668,-228.387 465.455,-219.164 460.841,-224.428"/>
</g>
<!-- Node15 -->
<g id="node15" class="node"><title>Node15</title>
<g id="a_node15"><a xlink:href="../../db/db2/rle__getcom_8c.html#a9cefd612c381bf82c9cdf1f3a3b12dd6" target="_top" xlink:title="rle_getcom">
<polygon fill="white" stroke="black" points="327.5,-76.5 327.5,-95.5 396.5,-95.5 396.5,-76.5 327.5,-76.5"/>
<text text-anchor="middle" x="362" y="-83.5" font-family="Helvetica,sans-Serif" font-size="10.00">rle_getcom</text>
</a>
</g>
</g>
<!-- Node14&#45;&gt;Node15 -->
<g id="edge21" class="edge"><title>Node14&#45;&gt;Node15</title>
<path fill="none" stroke="midnightblue" d="M266.047,-114.411C282.141,-109.596 301.841,-103.701 319.117,-98.532"/>
<polygon fill="midnightblue" stroke="midnightblue" points="320.386,-101.806 328.963,-95.5859 318.379,-95.0994 320.386,-101.806"/>
</g>
<!-- Node17 -->
<g id="node17" class="node"><title>Node17</title>
<g id="a_node17"><a xlink:href="../../df/da5/rle__putcom_8c.html#a6fa8528c32d14763efe2a534e409e321" target="_top" xlink:title="rle_putcom">
<polygon fill="white" stroke="black" points="328,-114.5 328,-133.5 396,-133.5 396,-114.5 328,-114.5"/>
<text text-anchor="middle" x="362" y="-121.5" font-family="Helvetica,sans-Serif" font-size="10.00">rle_putcom</text>
</a>
</g>
</g>
<!-- Node14&#45;&gt;Node17 -->
<g id="edge24" class="edge"><title>Node14&#45;&gt;Node17</title>
<path fill="none" stroke="midnightblue" d="M267.7,-124C282.891,-124 301.024,-124 317.248,-124"/>
<polygon fill="midnightblue" stroke="midnightblue" points="317.583,-127.5 327.583,-124 317.583,-120.5 317.583,-127.5"/>
</g>
<!-- Node16 -->
<g id="node16" class="node"><title>Node16</title>
<g id="a_node16"><a xlink:href="../../db/db2/rle__getcom_8c.html#a7502c8b599724ce86fee5df1311a2337" target="_top" xlink:title="match">
<polygon fill="white" stroke="black" points="459.5,-76.5 459.5,-95.5 504.5,-95.5 504.5,-76.5 459.5,-76.5"/>
<text text-anchor="middle" x="482" y="-83.5" font-family="Helvetica,sans-Serif" font-size="10.00">match</text>
</a>
</g>
</g>
<!-- Node15&#45;&gt;Node16 -->
<g id="edge22" class="edge"><title>Node15&#45;&gt;Node16</title>
<path fill="none" stroke="midnightblue" d="M396.814,-86C413.35,-86 433.136,-86 449.37,-86"/>
<polygon fill="midnightblue" stroke="midnightblue" points="449.456,-89.5001 459.456,-86 449.456,-82.5001 449.456,-89.5001"/>
</g>
<!-- Node17&#45;&gt;Node8 -->
<g id="edge25" class="edge"><title>Node17&#45;&gt;Node8</title>
<path fill="none" stroke="midnightblue" d="M388.795,-133.548C397.025,-137.309 405.845,-142.147 413,-148 438.011,-168.459 459.03,-199.933 470.812,-219.724"/>
<polygon fill="midnightblue" stroke="midnightblue" points="467.795,-221.498 475.832,-228.401 473.854,-217.993 467.795,-221.498"/>
</g>
<!-- Node18 -->
<g id="node18" class="node"><title>Node18</title>
<g id="a_node18"><a xlink:href="../../df/da5/rle__putcom_8c.html#a7502c8b599724ce86fee5df1311a2337" target="_top" xlink:title="match">
<polygon fill="white" stroke="black" points="459.5,-114.5 459.5,-133.5 504.5,-133.5 504.5,-114.5 459.5,-114.5"/>
<text text-anchor="middle" x="482" y="-121.5" font-family="Helvetica,sans-Serif" font-size="10.00">match</text>
</a>
</g>
</g>
<!-- Node17&#45;&gt;Node18 -->
<g id="edge26" class="edge"><title>Node17&#45;&gt;Node18</title>
<path fill="none" stroke="midnightblue" d="M396.184,-124C412.735,-124 432.664,-124 449.044,-124"/>
<polygon fill="midnightblue" stroke="midnightblue" points="449.224,-127.5 459.224,-124 449.224,-120.5 449.224,-127.5"/>
</g>
<!-- Node20 -->
<g id="node20" class="node"><title>Node20</title>
<g id="a_node20"><a xlink:href="../../d9/d2a/rle__putrow_8c.html#a46d9789104d5d1f09253a808fdad5346" target="_top" xlink:title="rle_put_init">
<polygon fill="white" stroke="black" points="199,-76.5 199,-95.5 267,-95.5 267,-76.5 199,-76.5"/>
<text text-anchor="middle" x="233" y="-83.5" font-family="Helvetica,sans-Serif" font-size="10.00">rle_put_init</text>
</a>
</g>
</g>
<!-- Node19&#45;&gt;Node20 -->
<g id="edge28" class="edge"><title>Node19&#45;&gt;Node20</title>
<path fill="none" stroke="midnightblue" d="M155.272,-86C166.031,-86 177.753,-86 188.722,-86"/>
<polygon fill="midnightblue" stroke="midnightblue" points="188.953,-89.5001 198.953,-86 188.953,-82.5001 188.953,-89.5001"/>
</g>
<!-- Node23 -->
<g id="node23" class="node"><title>Node23</title>
<g id="a_node23"><a xlink:href="../../d8/d35/targatorle_8c.html#a2c2d80513bb62ecfdea74306efb9ac25" target="_top" xlink:title="getbyte">
<polygon fill="white" stroke="black" points="207.5,-0.5 207.5,-19.5 258.5,-19.5 258.5,-0.5 207.5,-0.5"/>
<text text-anchor="middle" x="233" y="-7.5" font-family="Helvetica,sans-Serif" font-size="10.00">getbyte</text>
</a>
</g>
</g>
<!-- Node22&#45;&gt;Node23 -->
<g id="edge31" class="edge"><title>Node22&#45;&gt;Node23</title>
<path fill="none" stroke="midnightblue" d="M155.272,-10C168.86,-10 183.985,-10 197.189,-10"/>
<polygon fill="midnightblue" stroke="midnightblue" points="197.302,-13.5001 207.302,-10 197.302,-6.5001 197.302,-13.5001"/>
</g>
<!-- Node24&#45;&gt;Node8 -->
<g id="edge33" class="edge"><title>Node24&#45;&gt;Node8</title>
<path fill="none" stroke="midnightblue" d="M148.227,-201.31C202.902,-203.822 317.235,-210.325 413,-224 424.693,-225.67 437.399,-228.113 448.629,-230.492"/>
<polygon fill="midnightblue" stroke="midnightblue" points="447.939,-233.924 458.455,-232.636 449.431,-227.085 447.939,-233.924"/>
</g>
<!-- Node25 -->
<g id="node25" class="node"><title>Node25</title>
<g id="a_node25"><a xlink:href="../../d9/d2a/rle__putrow_8c.html#aaa4133bf4a6cbf287444448497631f26" target="_top" xlink:title="findruns">
<polygon fill="white" stroke="black" points="206,-152.5 206,-171.5 260,-171.5 260,-152.5 206,-152.5"/>
<text text-anchor="middle" x="233" y="-159.5" font-family="Helvetica,sans-Serif" font-size="10.00">findruns</text>
</a>
</g>
</g>
<!-- Node24&#45;&gt;Node25 -->
<g id="edge34" class="edge"><title>Node24&#45;&gt;Node25</title>
<path fill="none" stroke="midnightblue" d="M145.272,-190.411C160.723,-185.349 179.814,-179.095 196.148,-173.745"/>
<polygon fill="midnightblue" stroke="midnightblue" points="197.491,-176.988 205.904,-170.549 195.311,-170.336 197.491,-176.988"/>
</g>
<!-- Node26&#45;&gt;Node6 -->
<g id="edge36" class="edge"><title>Node26&#45;&gt;Node6</title>
<path fill="none" stroke="midnightblue" d="M385.421,-456.433C394.232,-452.368 404.3,-447.336 413,-442 430.459,-431.291 448.827,-417.043 462.066,-406.169"/>
<polygon fill="midnightblue" stroke="midnightblue" points="464.526,-408.675 469.963,-399.582 460.042,-403.299 464.526,-408.675"/>
</g>
</g>
</svg>
        <g id="navigator" transform="translate(0 0)" fill="#404254">
                <rect fill="#f2f5e9" fill-opacity="0.5" stroke="#606060" stroke-width=".5" x="0" y="0" width="60" height="60"/>
                <use id="zoomplus" xlink:href="#zoomPlus" x="17" y="9" onmousedown="handleZoom(evt,'in')"/>
                <use id="zoomminus" xlink:href="#zoomMin" x="42" y="9" onmousedown="handleZoom(evt,'out')"/>
                <use id="reset" xlink:href="#resetDef" x="30" y="36" onmousedown="handleReset()"/>
                <g id="arrowUp" xlink:href="#dirArrow" transform="translate(30 24)" onmousedown="handlePan(0,-1)">
                  <use xlink:href="#rim" fill="#404040">
                        <set attributeName="fill" to="#808080" begin="arrowUp.mouseover" end="arrowUp.mouseout"/>
                  </use>
                  <path fill="none" stroke="white" stroke-width="1.5" d="M0,-3.0v7 M-2.5,-0.5L0,-3.0L2.5,-0.5"/>
                </g>
                <g id="arrowRight" xlink:href="#dirArrow" transform="rotate(90) translate(36 -43)" onmousedown="handlePan(1,0)">
                  <use xlink:href="#rim" fill="#404040">
                        <set attributeName="fill" to="#808080" begin="arrowRight.mouseover" end="arrowRight.mouseout"/>
                  </use>
                  <path fill="none" stroke="white" stroke-width="1.5" d="M0,-3.0v7 M-2.5,-0.5L0,-3.0L2.5,-0.5"/>
                </g>
                <g id="arrowDown" xlink:href="#dirArrow" transform="rotate(180) translate(-30 -48)" onmousedown="handlePan(0,1)">
                  <use xlink:href="#rim" fill="#404040">
                        <set attributeName="fill" to="#808080" begin="arrowDown.mouseover" end="arrowDown.mouseout"/>
                  </use>
                  <path fill="none" stroke="white" stroke-width="1.5" d="M0,-3.0v7 M-2.5,-0.5L0,-3.0L2.5,-0.5"/>
                </g>
                <g id="arrowLeft" xlink:href="#dirArrow" transform="rotate(270) translate(-36 17)" onmousedown="handlePan(-1,0)">
                  <use xlink:href="#rim" fill="#404040">
                        <set attributeName="fill" to="#808080" begin="arrowLeft.mouseover" end="arrowLeft.mouseout"/>
                  </use>
                  <path fill="none" stroke="white" stroke-width="1.5" d="M0,-3.0v7 M-2.5,-0.5L0,-3.0L2.5,-0.5"/>
                </g>
        </g>
        <svg viewBox="0 0 15 15" width="100%" height="30px" preserveAspectRatio="xMaxYMin meet">
         <g id="arrow_out" transform="scale(0.3 0.3)">
          <a xlink:href="targatorle_8c_ade521a0600ded19f1720b6f6df59b480_cgraph_org.svg" target="_base">
           <rect id="button" ry="5" rx="5" y="6" x="6" height="38" width="38"
                fill="#f2f5e9" fill-opacity="0.5" stroke="#606060" stroke-width="1.0"/>
           <path id="arrow"
             d="M 11.500037,31.436501 C 11.940474,20.09759 22.043105,11.32322 32.158766,21.979434 L 37.068811,17.246167 C 37.068811,17.246167 37.088388,32 37.088388,32 L 22.160133,31.978069 C 22.160133,31.978069 26.997745,27.140456 26.997745,27.140456 C 18.528582,18.264221 13.291696,25.230495 11.500037,31.436501 z"
             style="fill:#404040;"/>
          </a>
         </g>
        </svg>
</svg>
