<?xml version="1.0" encoding="UTF-8" standalone="no"?>
<!DOCTYPE svg PUBLIC "-//W3C//DTD SVG 1.1//EN"
 "http://www.w3.org/Graphics/SVG/1.1/DTD/svg11.dtd">
<!-- Generated by graphviz version 2.38.0 (20140413.2041)
 -->
<!-- Title: main Pages: 1 -->
<!--zoomable 783 -->
<svg id="main" version="1.1" xmlns="http://www.w3.org/2000/svg" xmlns:xlink="http://www.w3.org/1999/xlink" xml:space="preserve" onload="init(evt)">
<style type="text/css"><![CDATA[
.edge:hover path { stroke: red; }
.edge:hover polygon { stroke: red; fill: red; }
]]></style>
<script type="text/javascript"><![CDATA[
var edges = document.getElementsByTagName('g');
if (edges && edges.length) {
  for (var i=0;i<edges.length;i++) {
    if (edges[i].id.substr(0,4)=='edge') {
      edges[i].setAttribute('class','edge');
    }
  }
}
]]></script>
        <defs>
                <circle id="rim" cx="0" cy="0" r="7"/>
                <circle id="rim2" cx="0" cy="0" r="3.5"/>
                <g id="zoomPlus">
                        <use xlink:href="#rim" fill="#404040">
                                <set attributeName="fill" to="#808080" begin="zoomplus.mouseover" end="zoomplus.mouseout"/>
                        </use>
                        <path d="M-4,0h8M0,-4v8" fill="none" stroke="white" stroke-width="1.5" pointer-events="none"/>
                </g>
                <g id="zoomMin">
                        <use xlink:href="#rim" fill="#404040">
                                <set attributeName="fill" to="#808080" begin="zoomminus.mouseover" end="zoomminus.mouseout"/>
                        </use>
                        <path d="M-4,0h8" fill="none" stroke="white" stroke-width="1.5" pointer-events="none"/>
                </g>
                <g id="dirArrow">
                        <path fill="none" stroke="white" stroke-width="1.5" d="M0,-3.0v7 M-2.5,-0.5L0,-3.0L2.5,-0.5"/>
                </g>
               <g id="resetDef">
                       <use xlink:href="#rim2" fill="#404040">
                               <set attributeName="fill" to="#808080" begin="reset.mouseover" end="reset.mouseout"/>
                       </use>
               </g>
        </defs>

<script type="text/javascript">
var viewWidth = 658;
var viewHeight = 783;
var sectionId = 'dynsection-1';
</script>
<script xlink:href="../../svgpan.js"/>
<svg id="graph" class="graph">
<g id="viewport">
<title>main</title>
<polygon fill="white" stroke="none" points="-4,4 -4,-778.752 654,-778.752 654,4 -4,4"/>
<!-- Node1 -->
<g id="node1" class="node"><title>Node1</title>
<polygon fill="#bfbfbf" stroke="black" points="0,-361.5 0,-380.5 39,-380.5 39,-361.5 0,-361.5"/>
<text text-anchor="middle" x="19.5" y="-368.5" font-family="Helvetica,sans-Serif" font-size="10.00">main</text>
</g>
<!-- Node2 -->
<g id="node2" class="node"><title>Node2</title>
<g id="a_node2"><a xlink:href="../../d2/df3/rle__hdr_8c.html#a8ba0e5b11d1e39ab7227f1686e676c86" target="_top" xlink:title="rle_hdr_init">
<polygon fill="white" stroke="black" points="216,-437.5 216,-456.5 286,-456.5 286,-437.5 216,-437.5"/>
<text text-anchor="middle" x="251" y="-444.5" font-family="Helvetica,sans-Serif" font-size="10.00">rle_hdr_init</text>
</a>
</g>
</g>
<!-- Node1&#45;&gt;Node2 -->
<g id="edge1" class="edge"><title>Node1&#45;&gt;Node2</title>
<path fill="none" stroke="midnightblue" d="M27.3834,-380.547C36.6904,-392.648 54.5013,-413.12 75,-423 116.235,-442.874 168.879,-447.731 205.609,-448.327"/>
<polygon fill="midnightblue" stroke="midnightblue" points="205.974,-451.829 215.994,-448.389 206.016,-444.829 205.974,-451.829"/>
</g>
<!-- Node4 -->
<g id="node4" class="node"><title>Node4</title>
<g id="a_node4"><a xlink:href="../../d0/dcc/rletorla_8c.html#aafde19f7d36ca163a143579c1b125b6d" target="_top" xlink:title="free">
<polygon fill="white" stroke="black" points="599.5,-589.5 599.5,-608.5 634.5,-608.5 634.5,-589.5 599.5,-589.5"/>
<text text-anchor="middle" x="617" y="-596.5" font-family="Helvetica,sans-Serif" font-size="10.00">free</text>
</a>
</g>
</g>
<!-- Node1&#45;&gt;Node4 -->
<g id="edge54" class="edge"><title>Node1&#45;&gt;Node4</title>
<path fill="none" stroke="midnightblue" d="M21.4596,-380.55C25.7646,-421.789 44.4328,-584.308 75,-624 128.24,-693.134 162.742,-713 250,-713 250,-713 250,-713 370.5,-713 452.705,-713 476.342,-701.283 548,-661 568.722,-649.351 588.328,-630.298 601.115,-616.383"/>
<polygon fill="midnightblue" stroke="midnightblue" points="603.765,-618.67 607.812,-608.879 598.542,-614.009 603.765,-618.67"/>
</g>
<!-- Node5 -->
<g id="node5" class="node"><title>Node5</title>
<g id="a_node5"><a xlink:href="../../d2/df3/rle__hdr_8c.html#afc916e29aea8788e0878ca315ff69821" target="_top" xlink:title="rle_hdr_cp">
<polygon fill="white" stroke="black" points="335.5,-437.5 335.5,-456.5 403.5,-456.5 403.5,-437.5 335.5,-437.5"/>
<text text-anchor="middle" x="369.5" y="-444.5" font-family="Helvetica,sans-Serif" font-size="10.00">rle_hdr_cp</text>
</a>
</g>
</g>
<!-- Node1&#45;&gt;Node5 -->
<g id="edge34" class="edge"><title>Node1&#45;&gt;Node5</title>
<path fill="none" stroke="midnightblue" d="M39.1022,-376.057C49.606,-378.843 62.9961,-382.277 75,-385 171.308,-406.85 196.638,-406.387 293,-428 303.494,-430.354 314.759,-433.08 325.301,-435.72"/>
<polygon fill="midnightblue" stroke="midnightblue" points="324.586,-439.149 335.139,-438.209 326.303,-432.363 324.586,-439.149"/>
</g>
<!-- Node6 -->
<g id="node6" class="node"><title>Node6</title>
<g id="a_node6"><a xlink:href="../../d0/dcc/rletorla_8c.html#ab7e36af3707843f77cc5b4e831c2fa6d" target="_top" xlink:title="malloc">
<polygon fill="white" stroke="black" points="593.5,-333.5 593.5,-352.5 640.5,-352.5 640.5,-333.5 593.5,-333.5"/>
<text text-anchor="middle" x="617" y="-340.5" font-family="Helvetica,sans-Serif" font-size="10.00">malloc</text>
</a>
</g>
</g>
<!-- Node1&#45;&gt;Node6 -->
<g id="edge12" class="edge"><title>Node1&#45;&gt;Node6</title>
<path fill="none" stroke="midnightblue" d="M36.2603,-361.383C46.9064,-355.199 61.4403,-347.348 75,-342 149.917,-312.451 169.466,-295 250,-295 250,-295 250,-295 370.5,-295 448.02,-295 536.793,-318.337 583.438,-332.466"/>
<polygon fill="midnightblue" stroke="midnightblue" points="582.688,-335.897 593.275,-335.5 584.75,-329.208 582.688,-335.897"/>
</g>
<!-- Node7 -->
<g id="node7" class="node"><title>Node7</title>
<g id="a_node7"><a xlink:href="../../d2/df3/rle__hdr_8c.html#a82e79385f2d45cc3b80ce0f4f369eae5" target="_top" xlink:title="rle_names">
<polygon fill="white" stroke="black" points="464,-437.5 464,-456.5 530,-456.5 530,-437.5 464,-437.5"/>
<text text-anchor="middle" x="497" y="-444.5" font-family="Helvetica,sans-Serif" font-size="10.00">rle_names</text>
</a>
</g>
</g>
<!-- Node1&#45;&gt;Node7 -->
<g id="edge19" class="edge"><title>Node1&#45;&gt;Node7</title>
<path fill="none" stroke="midnightblue" d="M39.3423,-372.194C68.2035,-374.145 125.055,-378.463 173,-385 279.072,-399.463 305.048,-406.893 410,-428 424.355,-430.887 440.003,-434.272 453.969,-437.38"/>
<polygon fill="midnightblue" stroke="midnightblue" points="453.276,-440.811 463.799,-439.582 454.806,-433.98 453.276,-440.811"/>
</g>
<!-- Node8 -->
<g id="node8" class="node"><title>Node8</title>
<g id="a_node8"><a xlink:href="../../d4/db0/scanargs_8c.html#a7ea6d702c0484056c8504d6ce7fede08" target="_top" xlink:title="scanargs">
<polygon fill="white" stroke="black" points="94,-152.5 94,-171.5 154,-171.5 154,-152.5 94,-152.5"/>
<text text-anchor="middle" x="124" y="-159.5" font-family="Helvetica,sans-Serif" font-size="10.00">scanargs</text>
</a>
</g>
</g>
<!-- Node1&#45;&gt;Node8 -->
<g id="edge10" class="edge"><title>Node1&#45;&gt;Node8</title>
<path fill="none" stroke="midnightblue" d="M20.7392,-361.308C21.9646,-331.584 29.4441,-240.436 75,-186 77.9729,-182.448 81.6016,-179.37 85.5191,-176.716"/>
<polygon fill="midnightblue" stroke="midnightblue" points="87.5145,-179.605 94.4144,-171.565 84.0067,-173.548 87.5145,-179.605"/>
</g>
<!-- Node10 -->
<g id="node10" class="node"><title>Node10</title>
<g id="a_node10"><a xlink:href="../../d8/d30/cmd__name_8c.html#a271249070fdd12c176777c77d76f888f" target="_top" xlink:title="cmd_name">
<polygon fill="white" stroke="black" points="90,-114.5 90,-133.5 158,-133.5 158,-114.5 90,-114.5"/>
<text text-anchor="middle" x="124" y="-121.5" font-family="Helvetica,sans-Serif" font-size="10.00">cmd_name</text>
</a>
</g>
</g>
<!-- Node1&#45;&gt;Node10 -->
<g id="edge13" class="edge"><title>Node1&#45;&gt;Node10</title>
<path fill="none" stroke="midnightblue" d="M21.6256,-361.285C26.3284,-322.209 45.5408,-176.98 75,-143 76.7466,-140.985 78.7355,-139.182 80.8868,-137.569"/>
<polygon fill="midnightblue" stroke="midnightblue" points="83.025,-140.369 89.8201,-132.24 79.4389,-134.357 83.025,-140.369"/>
</g>
<!-- Node11 -->
<g id="node11" class="node"><title>Node11</title>
<g id="a_node11"><a xlink:href="../../de/d4e/rle__open__f_8c.html#a89733a45961817885603ae01210290b7" target="_top" xlink:title="rle_open_f">
<polygon fill="white" stroke="black" points="335.5,-551.5 335.5,-570.5 403.5,-570.5 403.5,-551.5 335.5,-551.5"/>
<text text-anchor="middle" x="369.5" y="-558.5" font-family="Helvetica,sans-Serif" font-size="10.00">rle_open_f</text>
</a>
</g>
</g>
<!-- Node1&#45;&gt;Node11 -->
<g id="edge14" class="edge"><title>Node1&#45;&gt;Node11</title>
<path fill="none" stroke="midnightblue" d="M21.5849,-380.675C24.8515,-405.135 36.8502,-469.92 75,-504 144.855,-566.402 262.063,-569.152 325.157,-565.341"/>
<polygon fill="midnightblue" stroke="midnightblue" points="325.437,-568.83 335.174,-564.653 324.957,-561.847 325.437,-568.83"/>
</g>
<!-- Node14 -->
<g id="node14" class="node"><title>Node14</title>
<g id="a_node14"><a xlink:href="../../db/d53/rle__getrow_8c.html#a619b27463c26e0a4a3d9648a9869ee52" target="_top" xlink:title="rle_get_setup">
<polygon fill="white" stroke="black" points="329,-589.5 329,-608.5 410,-608.5 410,-589.5 329,-589.5"/>
<text text-anchor="middle" x="369.5" y="-596.5" font-family="Helvetica,sans-Serif" font-size="10.00">rle_get_setup</text>
</a>
</g>
</g>
<!-- Node1&#45;&gt;Node14 -->
<g id="edge20" class="edge"><title>Node1&#45;&gt;Node14</title>
<path fill="none" stroke="midnightblue" d="M20.5378,-380.8C21.2047,-409.929 27.2946,-496.76 75,-542 140.962,-604.552 254.032,-608.196 318.886,-604.256"/>
<polygon fill="midnightblue" stroke="midnightblue" points="319.131,-607.747 328.866,-603.566 318.649,-600.764 319.131,-607.747"/>
</g>
<!-- Node16 -->
<g id="node16" class="node"><title>Node16</title>
<g id="a_node16"><a xlink:href="../../db/d53/rle__getrow_8c.html#a2d56ca99b896abbcb4d2f3f97c93a3ce" target="_top" xlink:title="rle_get_setup_ok">
<polygon fill="white" stroke="black" points="75,-475.5 75,-494.5 173,-494.5 173,-475.5 75,-475.5"/>
<text text-anchor="middle" x="124" y="-482.5" font-family="Helvetica,sans-Serif" font-size="10.00">rle_get_setup_ok</text>
</a>
</g>
</g>
<!-- Node1&#45;&gt;Node16 -->
<g id="edge26" class="edge"><title>Node1&#45;&gt;Node16</title>
<path fill="none" stroke="midnightblue" d="M24.1816,-380.604C31.453,-398.486 49.2186,-437.223 75,-461 78.9232,-464.618 83.4938,-467.819 88.2259,-470.607"/>
<polygon fill="midnightblue" stroke="midnightblue" points="86.9214,-473.877 97.3967,-475.464 90.1975,-467.691 86.9214,-473.877"/>
</g>
<!-- Node18 -->
<g id="node18" class="node"><title>Node18</title>
<g id="a_node18"><a xlink:href="../../da/dbc/rle__row__alc_8c.html#abf83029f1ab364a8cb72524f58d70a3b" target="_top" xlink:title="rle_row_alloc">
<polygon fill="white" stroke="black" points="457,-333.5 457,-352.5 537,-352.5 537,-333.5 457,-333.5"/>
<text text-anchor="middle" x="497" y="-340.5" font-family="Helvetica,sans-Serif" font-size="10.00">rle_row_alloc</text>
</a>
</g>
</g>
<!-- Node1&#45;&gt;Node18 -->
<g id="edge31" class="edge"><title>Node1&#45;&gt;Node18</title>
<path fill="none" stroke="midnightblue" d="M39.2121,-365.115C49.6351,-362.111 62.9123,-358.732 75,-357 208.365,-337.887 367.81,-339.033 446.73,-341.177"/>
<polygon fill="midnightblue" stroke="midnightblue" points="446.766,-344.68 456.863,-341.471 446.969,-337.683 446.766,-344.68"/>
</g>
<!-- Node19 -->
<g id="node19" class="node"><title>Node19</title>
<g id="a_node19"><a xlink:href="../../d8/def/rle__addhist_8c.html#a4f9433d6e4e203d0ecea1c7d3837afc3" target="_top" xlink:title="rle_addhist">
<polygon fill="white" stroke="black" points="335,-166.5 335,-185.5 404,-185.5 404,-166.5 335,-166.5"/>
<text text-anchor="middle" x="369.5" y="-173.5" font-family="Helvetica,sans-Serif" font-size="10.00">rle_addhist</text>
</a>
</g>
</g>
<!-- Node1&#45;&gt;Node19 -->
<g id="edge35" class="edge"><title>Node1&#45;&gt;Node19</title>
<path fill="none" stroke="midnightblue" d="M21.5149,-361.246C24.6172,-336.598 36.262,-271.41 75,-238 145.834,-176.909 261.747,-171.022 324.616,-172.948"/>
<polygon fill="midnightblue" stroke="midnightblue" points="324.847,-176.46 334.976,-173.352 325.12,-169.465 324.847,-176.46"/>
</g>
<!-- Node24 -->
<g id="node24" class="node"><title>Node24</title>
<g id="a_node24"><a xlink:href="../../d9/d2a/rle__putrow_8c.html#af88a82b331cd6f425d2a2cc1623944c6" target="_top" xlink:title="rle_put_setup">
<polygon fill="white" stroke="black" points="84,-76.5 84,-95.5 164,-95.5 164,-76.5 84,-76.5"/>
<text text-anchor="middle" x="124" y="-83.5" font-family="Helvetica,sans-Serif" font-size="10.00">rle_put_setup</text>
</a>
</g>
</g>
<!-- Node1&#45;&gt;Node24 -->
<g id="edge42" class="edge"><title>Node1&#45;&gt;Node24</title>
<path fill="none" stroke="midnightblue" d="M21.2513,-361.466C24.7906,-318.769 41.0687,-145.449 75,-105 76.008,-103.798 77.1025,-102.672 78.2669,-101.617"/>
<polygon fill="midnightblue" stroke="midnightblue" points="80.6202,-104.241 86.792,-95.6294 76.597,-98.5128 80.6202,-104.241"/>
</g>
<!-- Node26 -->
<g id="node26" class="node"><title>Node26</title>
<g id="a_node26"><a xlink:href="../../db/d53/rle__getrow_8c.html#a3602e1158189cba5e5b0f9b983cba776" target="_top" xlink:title="rle_getrow">
<polygon fill="white" stroke="black" points="90.5,-38.5 90.5,-57.5 157.5,-57.5 157.5,-38.5 90.5,-38.5"/>
<text text-anchor="middle" x="124" y="-45.5" font-family="Helvetica,sans-Serif" font-size="10.00">rle_getrow</text>
</a>
</g>
</g>
<!-- Node1&#45;&gt;Node26 -->
<g id="edge44" class="edge"><title>Node1&#45;&gt;Node26</title>
<path fill="none" stroke="midnightblue" d="M20.9894,-361.386C23.5336,-314.916 36.6365,-113.897 75,-67 76.862,-64.7238 79.0353,-62.7189 81.4094,-60.9533"/>
<polygon fill="midnightblue" stroke="midnightblue" points="83.2634,-63.9232 90.0948,-55.8249 79.7043,-57.8955 83.2634,-63.9232"/>
</g>
<!-- Node29 -->
<g id="node29" class="node"><title>Node29</title>
<g id="a_node29"><a xlink:href="../../d9/d2a/rle__putrow_8c.html#aa26532b01bc4f49b7383765cdc23ea72" target="_top" xlink:title="rle_putrow">
<polygon fill="white" stroke="black" points="91,-247.5 91,-266.5 157,-266.5 157,-247.5 91,-247.5"/>
<text text-anchor="middle" x="124" y="-254.5" font-family="Helvetica,sans-Serif" font-size="10.00">rle_putrow</text>
</a>
</g>
</g>
<!-- Node1&#45;&gt;Node29 -->
<g id="edge47" class="edge"><title>Node1&#45;&gt;Node29</title>
<path fill="none" stroke="midnightblue" d="M24.1816,-361.396C31.453,-343.514 49.2186,-304.777 75,-281 78.9232,-277.382 83.4938,-274.181 88.2259,-271.393"/>
<polygon fill="midnightblue" stroke="midnightblue" points="90.1975,-274.309 97.3967,-266.536 86.9214,-268.123 90.1975,-274.309"/>
</g>
<!-- Node31 -->
<g id="node31" class="node"><title>Node31</title>
<g id="a_node31"><a xlink:href="../../d9/d2a/rle__putrow_8c.html#af4fab734a5d227ad2ae95840f56fff3b" target="_top" xlink:title="rle_puteof">
<polygon fill="white" stroke="black" points="337.5,-665.5 337.5,-684.5 401.5,-684.5 401.5,-665.5 337.5,-665.5"/>
<text text-anchor="middle" x="369.5" y="-672.5" font-family="Helvetica,sans-Serif" font-size="10.00">rle_puteof</text>
</a>
</g>
</g>
<!-- Node1&#45;&gt;Node31 -->
<g id="edge50" class="edge"><title>Node1&#45;&gt;Node31</title>
<path fill="none" stroke="midnightblue" d="M19.9882,-380.853C18.8356,-413.803 19.668,-521.365 75,-580 142.376,-651.398 263.734,-669.256 327.231,-673.641"/>
<polygon fill="midnightblue" stroke="midnightblue" points="327.084,-677.139 337.278,-674.255 327.511,-670.152 327.084,-677.139"/>
</g>
<!-- Node32 -->
<g id="node32" class="node"><title>Node32</title>
<g id="a_node32"><a xlink:href="../../da/dbc/rle__row__alc_8c.html#a4fa936a985e542d42e91d272f9f6092d" target="_top" xlink:title="rle_row_free">
<polygon fill="white" stroke="black" points="331,-741.5 331,-760.5 408,-760.5 408,-741.5 331,-741.5"/>
<text text-anchor="middle" x="369.5" y="-748.5" font-family="Helvetica,sans-Serif" font-size="10.00">rle_row_free</text>
</a>
</g>
</g>
<!-- Node1&#45;&gt;Node32 -->
<g id="edge52" class="edge"><title>Node1&#45;&gt;Node32</title>
<path fill="none" stroke="midnightblue" d="M20.4425,-380.755C20.353,-432.912 22.743,-678.294 75,-727 141.918,-789.37 258.671,-776.279 322.906,-762.743"/>
<polygon fill="midnightblue" stroke="midnightblue" points="323.734,-766.145 332.749,-760.579 322.231,-759.308 323.734,-766.145"/>
</g>
<!-- Node3 -->
<g id="node3" class="node"><title>Node3</title>
<g id="a_node3"><a xlink:href="../../d2/df3/rle__hdr_8c.html#a16c4da6201b3b8cf55127b9ca968d253" target="_top" xlink:title="rle_hdr_clear">
<polygon fill="white" stroke="black" points="457,-551.5 457,-570.5 537,-570.5 537,-551.5 457,-551.5"/>
<text text-anchor="middle" x="497" y="-558.5" font-family="Helvetica,sans-Serif" font-size="10.00">rle_hdr_clear</text>
</a>
</g>
</g>
<!-- Node2&#45;&gt;Node3 -->
<g id="edge2" class="edge"><title>Node2&#45;&gt;Node3</title>
<path fill="none" stroke="midnightblue" d="M270.193,-456.611C304.242,-474.44 380.114,-513.422 446,-542 450.502,-543.953 455.276,-545.909 460.017,-547.784"/>
<polygon fill="midnightblue" stroke="midnightblue" points="459.018,-551.15 469.608,-551.491 461.542,-544.621 459.018,-551.15"/>
</g>
<!-- Node2&#45;&gt;Node5 -->
<g id="edge4" class="edge"><title>Node2&#45;&gt;Node5</title>
<path fill="none" stroke="midnightblue" d="M286.01,-440.799C298.305,-440.209 312.353,-440.095 325.329,-440.455"/>
<polygon fill="midnightblue" stroke="midnightblue" points="325.324,-443.957 335.452,-440.846 325.594,-436.963 325.324,-443.957"/>
</g>
<!-- Node3&#45;&gt;Node4 -->
<g id="edge3" class="edge"><title>Node3&#45;&gt;Node4</title>
<path fill="none" stroke="midnightblue" d="M527.776,-570.589C546.813,-576.72 571.281,-584.599 589.618,-590.504"/>
<polygon fill="midnightblue" stroke="midnightblue" points="588.768,-593.907 599.359,-593.641 590.914,-587.244 588.768,-593.907"/>
</g>
<!-- Node5&#45;&gt;Node2 -->
<g id="edge5" class="edge"><title>Node5&#45;&gt;Node2</title>
<path fill="none" stroke="midnightblue" d="M335.452,-453.154C323.251,-453.768 309.222,-453.908 296.192,-453.572"/>
<polygon fill="midnightblue" stroke="midnightblue" points="296.131,-450.068 286.01,-453.201 295.876,-457.063 296.131,-450.068"/>
</g>
<!-- Node5&#45;&gt;Node6 -->
<g id="edge6" class="edge"><title>Node5&#45;&gt;Node6</title>
<path fill="none" stroke="midnightblue" d="M393.156,-437.402C437.002,-418.828 533.567,-377.921 583.964,-356.571"/>
<polygon fill="midnightblue" stroke="midnightblue" points="585.556,-359.698 593.399,-352.574 582.826,-353.252 585.556,-359.698"/>
</g>
<!-- Node5&#45;&gt;Node7 -->
<g id="edge7" class="edge"><title>Node5&#45;&gt;Node7</title>
<path fill="none" stroke="midnightblue" d="M403.802,-447C419.052,-447 437.302,-447 453.526,-447"/>
<polygon fill="midnightblue" stroke="midnightblue" points="453.844,-450.5 463.844,-447 453.844,-443.5 453.844,-450.5"/>
</g>
<!-- Node7&#45;&gt;Node4 -->
<g id="edge8" class="edge"><title>Node7&#45;&gt;Node4</title>
<path fill="none" stroke="midnightblue" d="M507.159,-456.834C517.427,-467.997 534.419,-486.881 548,-504 568.583,-529.945 590.573,-561.441 603.801,-580.852"/>
<polygon fill="midnightblue" stroke="midnightblue" points="601.041,-583.017 609.547,-589.333 606.836,-579.091 601.041,-583.017"/>
</g>
<!-- Node7&#45;&gt;Node6 -->
<g id="edge9" class="edge"><title>Node7&#45;&gt;Node6</title>
<path fill="none" stroke="midnightblue" d="M509.577,-437.162C519.75,-428.49 534.925,-415.485 548,-404 564.972,-389.092 584.109,-371.889 597.748,-359.561"/>
<polygon fill="midnightblue" stroke="midnightblue" points="600.396,-361.884 605.461,-352.578 595.698,-356.695 600.396,-361.884"/>
</g>
<!-- Node9 -->
<g id="node9" class="node"><title>Node9</title>
<g id="a_node9"><a xlink:href="../../d4/db0/scanargs_8c.html#a862219039664df6eb3cfced58addf830" target="_top" xlink:title="_do_scanargs">
<polygon fill="white" stroke="black" points="209,-133.5 209,-152.5 293,-152.5 293,-133.5 209,-133.5"/>
<text text-anchor="middle" x="251" y="-140.5" font-family="Helvetica,sans-Serif" font-size="10.00">_do_scanargs</text>
</a>
</g>
</g>
<!-- Node8&#45;&gt;Node9 -->
<g id="edge11" class="edge"><title>Node8&#45;&gt;Node9</title>
<path fill="none" stroke="midnightblue" d="M154.307,-157.545C167.44,-155.549 183.328,-153.134 198.353,-150.85"/>
<polygon fill="midnightblue" stroke="midnightblue" points="199.212,-154.26 208.572,-149.297 198.16,-147.34 199.212,-154.26"/>
</g>
<!-- Node12 -->
<g id="node12" class="node"><title>Node12</title>
<g id="a_node12"><a xlink:href="../../de/d4e/rle__open__f_8c.html#a5a0e62a00f907fce26e93b2f72adb2b0" target="_top" xlink:title="rle_open_f_noexit">
<polygon fill="white" stroke="black" points="446,-513.5 446,-532.5 548,-532.5 548,-513.5 446,-513.5"/>
<text text-anchor="middle" x="497" y="-520.5" font-family="Helvetica,sans-Serif" font-size="10.00">rle_open_f_noexit</text>
</a>
</g>
</g>
<!-- Node11&#45;&gt;Node12 -->
<g id="edge15" class="edge"><title>Node11&#45;&gt;Node12</title>
<path fill="none" stroke="midnightblue" d="M402.169,-551.411C418.073,-546.596 437.54,-540.701 454.611,-535.532"/>
<polygon fill="midnightblue" stroke="midnightblue" points="455.785,-538.834 464.341,-532.586 453.756,-532.134 455.785,-538.834"/>
</g>
<!-- Node12&#45;&gt;Node4 -->
<g id="edge18" class="edge"><title>Node12&#45;&gt;Node4</title>
<path fill="none" stroke="midnightblue" d="M528.104,-532.572C534.851,-535.223 541.832,-538.383 548,-542 567.147,-553.229 586.284,-569.876 599.355,-582.284"/>
<polygon fill="midnightblue" stroke="midnightblue" points="597.044,-584.918 606.656,-589.375 601.921,-579.897 597.044,-584.918"/>
</g>
<!-- Node12&#45;&gt;Node6 -->
<g id="edge17" class="edge"><title>Node12&#45;&gt;Node6</title>
<path fill="none" stroke="midnightblue" d="M526.739,-513.439C534.373,-509.842 542.119,-505.1 548,-499 586.156,-459.427 604.769,-394.971 612.091,-362.707"/>
<polygon fill="midnightblue" stroke="midnightblue" points="615.555,-363.241 614.223,-352.731 608.71,-361.778 615.555,-363.241"/>
</g>
<!-- Node13 -->
<g id="node13" class="node"><title>Node13</title>
<g id="a_node13"><a xlink:href="../../de/d4e/rle__open__f_8c.html#a84fda810ae9b9bde82a6391d0b264ead" target="_top" xlink:title="my_popen">
<polygon fill="white" stroke="black" points="584,-513.5 584,-532.5 650,-532.5 650,-513.5 584,-513.5"/>
<text text-anchor="middle" x="617" y="-520.5" font-family="Helvetica,sans-Serif" font-size="10.00">my_popen</text>
</a>
</g>
</g>
<!-- Node12&#45;&gt;Node13 -->
<g id="edge16" class="edge"><title>Node12&#45;&gt;Node13</title>
<path fill="none" stroke="midnightblue" d="M548.043,-523C556.523,-523 565.255,-523 573.518,-523"/>
<polygon fill="midnightblue" stroke="midnightblue" points="573.678,-526.5 583.678,-523 573.678,-519.5 573.678,-526.5"/>
</g>
<!-- Node14&#45;&gt;Node3 -->
<g id="edge21" class="edge"><title>Node14&#45;&gt;Node3</title>
<path fill="none" stroke="midnightblue" d="M402.169,-589.411C418.073,-584.596 437.54,-578.701 454.611,-573.532"/>
<polygon fill="midnightblue" stroke="midnightblue" points="455.785,-576.834 464.341,-570.586 453.756,-570.134 455.785,-576.834"/>
</g>
<!-- Node14&#45;&gt;Node4 -->
<g id="edge24" class="edge"><title>Node14&#45;&gt;Node4</title>
<path fill="none" stroke="midnightblue" d="M401.031,-608.505C414.647,-612.269 430.977,-616.139 446,-618 490.989,-623.574 503.087,-624.157 548,-618 561.947,-616.088 577.065,-612.068 589.497,-608.216"/>
<polygon fill="midnightblue" stroke="midnightblue" points="590.786,-611.477 599.224,-605.069 588.632,-604.817 590.786,-611.477"/>
</g>
<!-- Node14&#45;&gt;Node6 -->
<g id="edge23" class="edge"><title>Node14&#45;&gt;Node6</title>
<path fill="none" stroke="midnightblue" d="M396.808,-589.468C401.59,-586.91 406.245,-583.778 410,-580 436.35,-553.493 418.463,-529.271 446,-504 481.643,-471.29 511.35,-497.578 548,-466 580.818,-437.723 600.822,-389.509 610.001,-362.611"/>
<polygon fill="midnightblue" stroke="midnightblue" points="613.422,-363.407 613.184,-352.815 606.765,-361.244 613.422,-363.407"/>
</g>
<!-- Node14&#45;&gt;Node7 -->
<g id="edge22" class="edge"><title>Node14&#45;&gt;Node7</title>
<path fill="none" stroke="midnightblue" d="M398,-589.373C402.455,-586.864 406.686,-583.773 410,-580 443.668,-541.669 412.316,-509.318 446,-471 449.208,-467.35 453.095,-464.207 457.268,-461.512"/>
<polygon fill="midnightblue" stroke="midnightblue" points="459.073,-464.513 466.109,-456.591 455.669,-458.396 459.073,-464.513"/>
</g>
<!-- Node15 -->
<g id="node15" class="node"><title>Node15</title>
<g id="a_node15"><a xlink:href="../../db/d53/rle__getrow_8c.html#a0ea68aa2ebeef9d4cade7282553b03d6" target="_top" xlink:title="vax_gshort">
<polygon fill="white" stroke="black" points="462.5,-589.5 462.5,-608.5 531.5,-608.5 531.5,-589.5 462.5,-589.5"/>
<text text-anchor="middle" x="497" y="-596.5" font-family="Helvetica,sans-Serif" font-size="10.00">vax_gshort</text>
</a>
</g>
</g>
<!-- Node14&#45;&gt;Node15 -->
<g id="edge25" class="edge"><title>Node14&#45;&gt;Node15</title>
<path fill="none" stroke="midnightblue" d="M410.209,-599C423.6,-599 438.616,-599 452.298,-599"/>
<polygon fill="midnightblue" stroke="midnightblue" points="452.451,-602.5 462.451,-599 452.451,-595.5 452.451,-602.5"/>
</g>
<!-- Node16&#45;&gt;Node2 -->
<g id="edge27" class="edge"><title>Node16&#45;&gt;Node2</title>
<path fill="none" stroke="midnightblue" d="M156.543,-475.411C172.383,-470.596 191.773,-464.701 208.776,-459.532"/>
<polygon fill="midnightblue" stroke="midnightblue" points="209.918,-462.843 218.467,-456.586 207.882,-456.146 209.918,-462.843"/>
</g>
<!-- Node16&#45;&gt;Node7 -->
<g id="edge28" class="edge"><title>Node16&#45;&gt;Node7</title>
<path fill="none" stroke="midnightblue" d="M173.135,-484.003C229.985,-482.315 327.284,-477.826 410,-466 424.495,-463.928 440.178,-460.747 454.134,-457.578"/>
<polygon fill="midnightblue" stroke="midnightblue" points="455.005,-460.969 463.948,-455.288 453.415,-454.152 455.005,-460.969"/>
</g>
<!-- Node16&#45;&gt;Node14 -->
<g id="edge30" class="edge"><title>Node16&#45;&gt;Node14</title>
<path fill="none" stroke="midnightblue" d="M136.917,-494.526C152.677,-506.775 181.656,-528.12 209,-542 246.427,-560.998 291.702,-576.531 324.439,-586.556"/>
<polygon fill="midnightblue" stroke="midnightblue" points="323.589,-589.956 334.174,-589.489 325.608,-583.253 323.589,-589.956"/>
</g>
<!-- Node17 -->
<g id="node17" class="node"><title>Node17</title>
<g id="a_node17"><a xlink:href="../../d7/d24/rle__error_8c.html#af931d686cf3ca715c9b900527f0961c0" target="_top" xlink:title="rle_get_error">
<polygon fill="white" stroke="black" points="211.5,-513.5 211.5,-532.5 290.5,-532.5 290.5,-513.5 211.5,-513.5"/>
<text text-anchor="middle" x="251" y="-520.5" font-family="Helvetica,sans-Serif" font-size="10.00">rle_get_error</text>
</a>
</g>
</g>
<!-- Node16&#45;&gt;Node17 -->
<g id="edge29" class="edge"><title>Node16&#45;&gt;Node17</title>
<path fill="none" stroke="midnightblue" d="M156.543,-494.589C172.383,-499.404 191.773,-505.299 208.776,-510.468"/>
<polygon fill="midnightblue" stroke="midnightblue" points="207.882,-513.854 218.467,-513.414 209.918,-507.157 207.882,-513.854"/>
</g>
<!-- Node18&#45;&gt;Node4 -->
<g id="edge33" class="edge"><title>Node18&#45;&gt;Node4</title>
<path fill="none" stroke="midnightblue" d="M504.6,-352.559C514.964,-367.9 535.189,-399.22 548,-428 569.607,-476.541 562.883,-493.244 584,-542 589.791,-555.37 597.822,-569.667 604.39,-580.597"/>
<polygon fill="midnightblue" stroke="midnightblue" points="601.475,-582.54 609.692,-589.228 607.44,-578.876 601.475,-582.54"/>
</g>
<!-- Node18&#45;&gt;Node6 -->
<g id="edge32" class="edge"><title>Node18&#45;&gt;Node6</title>
<path fill="none" stroke="midnightblue" d="M537.292,-343C552.145,-343 568.879,-343 583.087,-343"/>
<polygon fill="midnightblue" stroke="midnightblue" points="583.386,-346.5 593.386,-343 583.386,-339.5 583.386,-346.5"/>
</g>
<!-- Node19&#45;&gt;Node6 -->
<g id="edge38" class="edge"><title>Node19&#45;&gt;Node6</title>
<path fill="none" stroke="midnightblue" d="M404.324,-184.107C449.207,-195.355 525.412,-216.309 548,-234 578.439,-257.84 598.834,-299.373 608.831,-323.706"/>
<polygon fill="midnightblue" stroke="midnightblue" points="605.672,-325.237 612.585,-333.265 612.188,-322.678 605.672,-325.237"/>
</g>
<!-- Node20 -->
<g id="node20" class="node"><title>Node20</title>
<g id="a_node20"><a xlink:href="../../db/db2/rle__getcom_8c.html#a9cefd612c381bf82c9cdf1f3a3b12dd6" target="_top" xlink:title="rle_getcom">
<polygon fill="white" stroke="black" points="462.5,-124.5 462.5,-143.5 531.5,-143.5 531.5,-124.5 462.5,-124.5"/>
<text text-anchor="middle" x="497" y="-131.5" font-family="Helvetica,sans-Serif" font-size="10.00">rle_getcom</text>
</a>
</g>
</g>
<!-- Node19&#45;&gt;Node20 -->
<g id="edge36" class="edge"><title>Node19&#45;&gt;Node20</title>
<path fill="none" stroke="midnightblue" d="M398.978,-166.47C416.345,-160.658 438.764,-153.155 457.676,-146.826"/>
<polygon fill="midnightblue" stroke="midnightblue" points="458.828,-150.131 467.2,-143.638 456.607,-143.493 458.828,-150.131"/>
</g>
<!-- Node22 -->
<g id="node22" class="node"><title>Node22</title>
<g id="a_node22"><a xlink:href="../../df/da5/rle__putcom_8c.html#a6fa8528c32d14763efe2a534e409e321" target="_top" xlink:title="rle_putcom">
<polygon fill="white" stroke="black" points="463,-162.5 463,-181.5 531,-181.5 531,-162.5 463,-162.5"/>
<text text-anchor="middle" x="497" y="-169.5" font-family="Helvetica,sans-Serif" font-size="10.00">rle_putcom</text>
</a>
</g>
</g>
<!-- Node19&#45;&gt;Node22 -->
<g id="edge39" class="edge"><title>Node19&#45;&gt;Node22</title>
<path fill="none" stroke="midnightblue" d="M404.132,-174.928C419.022,-174.453 436.722,-173.889 452.593,-173.383"/>
<polygon fill="midnightblue" stroke="midnightblue" points="452.827,-176.878 462.711,-173.061 452.604,-169.881 452.827,-176.878"/>
</g>
<!-- Node21 -->
<g id="node21" class="node"><title>Node21</title>
<g id="a_node21"><a xlink:href="../../db/db2/rle__getcom_8c.html#a7502c8b599724ce86fee5df1311a2337" target="_top" xlink:title="match">
<polygon fill="white" stroke="black" points="594.5,-124.5 594.5,-143.5 639.5,-143.5 639.5,-124.5 594.5,-124.5"/>
<text text-anchor="middle" x="617" y="-131.5" font-family="Helvetica,sans-Serif" font-size="10.00">match</text>
</a>
</g>
</g>
<!-- Node20&#45;&gt;Node21 -->
<g id="edge37" class="edge"><title>Node20&#45;&gt;Node21</title>
<path fill="none" stroke="midnightblue" d="M531.814,-134C548.35,-134 568.136,-134 584.37,-134"/>
<polygon fill="midnightblue" stroke="midnightblue" points="584.456,-137.5 594.456,-134 584.456,-130.5 584.456,-137.5"/>
</g>
<!-- Node22&#45;&gt;Node6 -->
<g id="edge40" class="edge"><title>Node22&#45;&gt;Node6</title>
<path fill="none" stroke="midnightblue" d="M526.391,-181.524C534.107,-185.137 541.984,-189.897 548,-196 584.394,-232.917 603.636,-292.899 611.555,-323.58"/>
<polygon fill="midnightblue" stroke="midnightblue" points="608.196,-324.578 613.971,-333.461 614.996,-322.916 608.196,-324.578"/>
</g>
<!-- Node23 -->
<g id="node23" class="node"><title>Node23</title>
<g id="a_node23"><a xlink:href="../../df/da5/rle__putcom_8c.html#a7502c8b599724ce86fee5df1311a2337" target="_top" xlink:title="match">
<polygon fill="white" stroke="black" points="594.5,-162.5 594.5,-181.5 639.5,-181.5 639.5,-162.5 594.5,-162.5"/>
<text text-anchor="middle" x="617" y="-169.5" font-family="Helvetica,sans-Serif" font-size="10.00">match</text>
</a>
</g>
</g>
<!-- Node22&#45;&gt;Node23 -->
<g id="edge41" class="edge"><title>Node22&#45;&gt;Node23</title>
<path fill="none" stroke="midnightblue" d="M531.184,-172C547.735,-172 567.664,-172 584.044,-172"/>
<polygon fill="midnightblue" stroke="midnightblue" points="584.224,-175.5 594.224,-172 584.224,-168.5 584.224,-175.5"/>
</g>
<!-- Node25 -->
<g id="node25" class="node"><title>Node25</title>
<g id="a_node25"><a xlink:href="../../d9/d2a/rle__putrow_8c.html#a46d9789104d5d1f09253a808fdad5346" target="_top" xlink:title="rle_put_init">
<polygon fill="white" stroke="black" points="217,-76.5 217,-95.5 285,-95.5 285,-76.5 217,-76.5"/>
<text text-anchor="middle" x="251" y="-83.5" font-family="Helvetica,sans-Serif" font-size="10.00">rle_put_init</text>
</a>
</g>
</g>
<!-- Node24&#45;&gt;Node25 -->
<g id="edge43" class="edge"><title>Node24&#45;&gt;Node25</title>
<path fill="none" stroke="midnightblue" d="M164.208,-86C177.673,-86 192.821,-86 206.599,-86"/>
<polygon fill="midnightblue" stroke="midnightblue" points="206.818,-89.5001 216.818,-86 206.818,-82.5001 206.818,-89.5001"/>
</g>
<!-- Node27 -->
<g id="node27" class="node"><title>Node27</title>
<g id="a_node27"><a xlink:href="../../db/d53/rle__getrow_8c.html#a61ac0da96b0dd8bc3cbc98afcd9b5c44" target="_top" xlink:title="bfill">
<polygon fill="white" stroke="black" points="235,-38.5 235,-57.5 267,-57.5 267,-38.5 235,-38.5"/>
<text text-anchor="middle" x="251" y="-45.5" font-family="Helvetica,sans-Serif" font-size="10.00">bfill</text>
</a>
</g>
</g>
<!-- Node26&#45;&gt;Node27 -->
<g id="edge45" class="edge"><title>Node26&#45;&gt;Node27</title>
<path fill="none" stroke="midnightblue" d="M157.516,-48C178.415,-48 205.175,-48 224.528,-48"/>
<polygon fill="midnightblue" stroke="midnightblue" points="224.7,-51.5001 234.7,-48 224.7,-44.5001 224.7,-51.5001"/>
</g>
<!-- Node28 -->
<g id="node28" class="node"><title>Node28</title>
<g id="a_node28"><a xlink:href="../../d8/d7c/rle__getskip_8c.html#af6b1e1dc0867e9340f90668591c7c5b3" target="_top" xlink:title="rle_getskip">
<polygon fill="white" stroke="black" points="217,-0.5 217,-19.5 285,-19.5 285,-0.5 217,-0.5"/>
<text text-anchor="middle" x="251" y="-7.5" font-family="Helvetica,sans-Serif" font-size="10.00">rle_getskip</text>
</a>
</g>
</g>
<!-- Node26&#45;&gt;Node28 -->
<g id="edge46" class="edge"><title>Node26&#45;&gt;Node28</title>
<path fill="none" stroke="midnightblue" d="M156.543,-38.411C172.383,-33.5956 191.773,-27.7012 208.776,-22.532"/>
<polygon fill="midnightblue" stroke="midnightblue" points="209.918,-25.8433 218.467,-19.5859 207.882,-19.1459 209.918,-25.8433"/>
</g>
<!-- Node29&#45;&gt;Node6 -->
<g id="edge48" class="edge"><title>Node29&#45;&gt;Node6</title>
<path fill="none" stroke="midnightblue" d="M157.024,-247.996C172.575,-244.077 191.615,-239.942 209,-238 359.935,-221.143 411.455,-214.507 548,-281 569.613,-291.525 589.311,-311.096 601.879,-325.444"/>
<polygon fill="midnightblue" stroke="midnightblue" points="599.288,-327.801 608.415,-333.18 604.635,-323.283 599.288,-327.801"/>
</g>
<!-- Node30 -->
<g id="node30" class="node"><title>Node30</title>
<g id="a_node30"><a xlink:href="../../d9/d2a/rle__putrow_8c.html#aaa4133bf4a6cbf287444448497631f26" target="_top" xlink:title="findruns">
<polygon fill="white" stroke="black" points="224,-247.5 224,-266.5 278,-266.5 278,-247.5 224,-247.5"/>
<text text-anchor="middle" x="251" y="-254.5" font-family="Helvetica,sans-Serif" font-size="10.00">findruns</text>
</a>
</g>
</g>
<!-- Node29&#45;&gt;Node30 -->
<g id="edge49" class="edge"><title>Node29&#45;&gt;Node30</title>
<path fill="none" stroke="midnightblue" d="M157.191,-257C174.485,-257 195.864,-257 213.743,-257"/>
<polygon fill="midnightblue" stroke="midnightblue" points="213.808,-260.5 223.808,-257 213.808,-253.5 213.808,-260.5"/>
</g>
<!-- Node31&#45;&gt;Node4 -->
<g id="edge51" class="edge"><title>Node31&#45;&gt;Node4</title>
<path fill="none" stroke="midnightblue" d="M401.638,-670.222C437.619,-664.152 498.257,-652.224 548,-634 562.902,-628.54 578.713,-620.549 591.335,-613.58"/>
<polygon fill="midnightblue" stroke="midnightblue" points="593.318,-616.479 600.298,-608.509 589.871,-610.387 593.318,-616.479"/>
</g>
<!-- Node32&#45;&gt;Node4 -->
<g id="edge53" class="edge"><title>Node32&#45;&gt;Node4</title>
<path fill="none" stroke="midnightblue" d="M408.001,-755.315C446.564,-757.756 506.664,-755.794 548,-727 585.533,-700.855 604.049,-647.302 611.631,-618.447"/>
<polygon fill="midnightblue" stroke="midnightblue" points="615.038,-619.251 614.019,-608.706 608.239,-617.585 615.038,-619.251"/>
</g>
</g>
</svg>
        <g id="navigator" transform="translate(0 0)" fill="#404254">
                <rect fill="#f2f5e9" fill-opacity="0.5" stroke="#606060" stroke-width=".5" x="0" y="0" width="60" height="60"/>
                <use id="zoomplus" xlink:href="#zoomPlus" x="17" y="9" onmousedown="handleZoom(evt,'in')"/>
                <use id="zoomminus" xlink:href="#zoomMin" x="42" y="9" onmousedown="handleZoom(evt,'out')"/>
                <use id="reset" xlink:href="#resetDef" x="30" y="36" onmousedown="handleReset()"/>
                <g id="arrowUp" xlink:href="#dirArrow" transform="translate(30 24)" onmousedown="handlePan(0,-1)">
                  <use xlink:href="#rim" fill="#404040">
                        <set attributeName="fill" to="#808080" begin="arrowUp.mouseover" end="arrowUp.mouseout"/>
                  </use>
                  <path fill="none" stroke="white" stroke-width="1.5" d="M0,-3.0v7 M-2.5,-0.5L0,-3.0L2.5,-0.5"/>
                </g>
                <g id="arrowRight" xlink:href="#dirArrow" transform="rotate(90) translate(36 -43)" onmousedown="handlePan(1,0)">
                  <use xlink:href="#rim" fill="#404040">
                        <set attributeName="fill" to="#808080" begin="arrowRight.mouseover" end="arrowRight.mouseout"/>
                  </use>
                  <path fill="none" stroke="white" stroke-width="1.5" d="M0,-3.0v7 M-2.5,-0.5L0,-3.0L2.5,-0.5"/>
                </g>
                <g id="arrowDown" xlink:href="#dirArrow" transform="rotate(180) translate(-30 -48)" onmousedown="handlePan(0,1)">
                  <use xlink:href="#rim" fill="#404040">
                        <set attributeName="fill" to="#808080" begin="arrowDown.mouseover" end="arrowDown.mouseout"/>
                  </use>
                  <path fill="none" stroke="white" stroke-width="1.5" d="M0,-3.0v7 M-2.5,-0.5L0,-3.0L2.5,-0.5"/>
                </g>
                <g id="arrowLeft" xlink:href="#dirArrow" transform="rotate(270) translate(-36 17)" onmousedown="handlePan(-1,0)">
                  <use xlink:href="#rim" fill="#404040">
                        <set attributeName="fill" to="#808080" begin="arrowLeft.mouseover" end="arrowLeft.mouseout"/>
                  </use>
                  <path fill="none" stroke="white" stroke-width="1.5" d="M0,-3.0v7 M-2.5,-0.5L0,-3.0L2.5,-0.5"/>
                </g>
        </g>
        <svg viewBox="0 0 15 15" width="100%" height="30px" preserveAspectRatio="xMaxYMin meet">
         <g id="arrow_out" transform="scale(0.3 0.3)">
          <a xlink:href="rlepatch_8c_a70db8bd1d499619f7ff9c1ca2ff3c8df_cgraph_org.svg" target="_base">
           <rect id="button" ry="5" rx="5" y="6" x="6" height="38" width="38"
                fill="#f2f5e9" fill-opacity="0.5" stroke="#606060" stroke-width="1.0"/>
           <path id="arrow"
             d="M 11.500037,31.436501 C 11.940474,20.09759 22.043105,11.32322 32.158766,21.979434 L 37.068811,17.246167 C 37.068811,17.246167 37.088388,32 37.088388,32 L 22.160133,31.978069 C 22.160133,31.978069 26.997745,27.140456 26.997745,27.140456 C 18.528582,18.264221 13.291696,25.230495 11.500037,31.436501 z"
             style="fill:#404040;"/>
          </a>
         </g>
        </svg>
</svg>
