<?xml version="1.0" encoding="UTF-8" standalone="no"?>
<!DOCTYPE svg PUBLIC "-//W3C//DTD SVG 1.1//EN"
 "http://www.w3.org/Graphics/SVG/1.1/DTD/svg11.dtd">
<!-- Generated by graphviz version 2.38.0 (20140413.2041)
 -->
<!-- Title: main Pages: 1 -->
<svg width="244pt" height="256pt"
 viewBox="0.00 0.00 244.00 256.00" xmlns="http://www.w3.org/2000/svg" xmlns:xlink="http://www.w3.org/1999/xlink">
<g id="graph0" class="graph" transform="scale(1 1) rotate(0) translate(4 252)">
<title>main</title>
<polygon fill="white" stroke="none" points="-4,4 -4,-252 240,-252 240,4 -4,4"/>
<!-- Node1 -->
<g id="node1" class="node"><title>Node1</title>
<polygon fill="#bfbfbf" stroke="black" points="0,-114.5 0,-133.5 39,-133.5 39,-114.5 0,-114.5"/>
<text text-anchor="middle" x="19.5" y="-121.5" font-family="Helvetica,sans-Serif" font-size="10.00">main</text>
</g>
<!-- Node2 -->
<g id="node2" class="node"><title>Node2</title>
<g id="a_node2"><a xlink:href="../../dc/d53/getopt_8c.html#a1484840539d6adef4a97ad6e239458ea" target="_top" xlink:title="getopt">
<polygon fill="white" stroke="black" points="93,-228.5 93,-247.5 140,-247.5 140,-228.5 93,-228.5"/>
<text text-anchor="middle" x="116.5" y="-235.5" font-family="Helvetica,sans-Serif" font-size="10.00">getopt</text>
</a>
</g>
</g>
<!-- Node1&#45;&gt;Node2 -->
<g id="edge1" class="edge"><title>Node1&#45;&gt;Node2</title>
<path fill="none" stroke="midnightblue" d="M23.7672,-133.62C30.5591,-152.339 47.8667,-194.01 75,-219 77.6511,-221.442 80.6719,-223.622 83.8412,-225.557"/>
<polygon fill="midnightblue" stroke="midnightblue" points="82.5034,-228.808 92.9829,-230.367 85.7631,-222.613 82.5034,-228.808"/>
</g>
<!-- Node4 -->
<g id="node4" class="node"><title>Node4</title>
<g id="a_node4"><a xlink:href="../../d3/d42/rletoabA62_8c.html#a1552665e8f67b2afc2131818fce65e85" target="_top" xlink:title="rasterInit">
<polygon fill="white" stroke="black" points="87,-190.5 87,-209.5 146,-209.5 146,-190.5 87,-190.5"/>
<text text-anchor="middle" x="116.5" y="-197.5" font-family="Helvetica,sans-Serif" font-size="10.00">rasterInit</text>
</a>
</g>
</g>
<!-- Node1&#45;&gt;Node4 -->
<g id="edge3" class="edge"><title>Node1&#45;&gt;Node4</title>
<path fill="none" stroke="midnightblue" d="M27.7388,-133.518C37.43,-145.76 55.6559,-167.095 75,-181 77.2289,-182.602 79.6144,-184.124 82.0706,-185.557"/>
<polygon fill="midnightblue" stroke="midnightblue" points="80.6465,-188.764 91.1227,-190.345 83.9192,-182.576 80.6465,-188.764"/>
</g>
<!-- Node5 -->
<g id="node5" class="node"><title>Node5</title>
<g id="a_node5"><a xlink:href="../../d3/d42/rletoabA62_8c.html#ad269b7d420d5d79d8249504c42e957cf" target="_top" xlink:title="rasterRowGet">
<polygon fill="white" stroke="black" points="75,-152.5 75,-171.5 158,-171.5 158,-152.5 75,-152.5"/>
<text text-anchor="middle" x="116.5" y="-159.5" font-family="Helvetica,sans-Serif" font-size="10.00">rasterRowGet</text>
</a>
</g>
</g>
<!-- Node1&#45;&gt;Node5 -->
<g id="edge4" class="edge"><title>Node1&#45;&gt;Node5</title>
<path fill="none" stroke="midnightblue" d="M39.2689,-131.508C51.4829,-136.393 67.7566,-142.903 82.1309,-148.652"/>
<polygon fill="midnightblue" stroke="midnightblue" points="81.121,-152.018 91.7056,-152.482 83.7207,-145.519 81.121,-152.018"/>
</g>
<!-- Node6 -->
<g id="node6" class="node"><title>Node6</title>
<g id="a_node6"><a xlink:href="../../d3/d42/rletoabA62_8c.html#a04e25d465d045078118761bc5bb0b87d" target="_top" xlink:title="filterY">
<polygon fill="white" stroke="black" points="94.5,-114.5 94.5,-133.5 138.5,-133.5 138.5,-114.5 94.5,-114.5"/>
<text text-anchor="middle" x="116.5" y="-121.5" font-family="Helvetica,sans-Serif" font-size="10.00">filterY</text>
</a>
</g>
</g>
<!-- Node1&#45;&gt;Node6 -->
<g id="edge5" class="edge"><title>Node1&#45;&gt;Node6</title>
<path fill="none" stroke="midnightblue" d="M39.2689,-124C52.0617,-124 69.308,-124 84.1608,-124"/>
<polygon fill="midnightblue" stroke="midnightblue" points="84.4551,-127.5 94.4551,-124 84.4551,-120.5 84.4551,-127.5"/>
</g>
<!-- Node7 -->
<g id="node7" class="node"><title>Node7</title>
<g id="a_node7"><a xlink:href="../../d3/d42/rletoabA62_8c.html#a6f715c5ba894bc214f2c9358ca9aa549" target="_top" xlink:title="filterIQ">
<polygon fill="white" stroke="black" points="92.5,-76.5 92.5,-95.5 140.5,-95.5 140.5,-76.5 92.5,-76.5"/>
<text text-anchor="middle" x="116.5" y="-83.5" font-family="Helvetica,sans-Serif" font-size="10.00">filterIQ</text>
</a>
</g>
</g>
<!-- Node1&#45;&gt;Node7 -->
<g id="edge6" class="edge"><title>Node1&#45;&gt;Node7</title>
<path fill="none" stroke="midnightblue" d="M39.2689,-116.492C51.6587,-111.537 68.2257,-104.91 82.7502,-99.0999"/>
<polygon fill="midnightblue" stroke="midnightblue" points="84.4178,-102.203 92.4027,-95.2389 81.8181,-95.7032 84.4178,-102.203"/>
</g>
<!-- Node8 -->
<g id="node8" class="node"><title>Node8</title>
<g id="a_node8"><a xlink:href="../../d3/d42/rletoabA62_8c.html#aaef6decd42262d27d9a406fff77e813b" target="_top" xlink:title="dump2">
<polygon fill="white" stroke="black" points="92.5,-38.5 92.5,-57.5 140.5,-57.5 140.5,-38.5 92.5,-38.5"/>
<text text-anchor="middle" x="116.5" y="-45.5" font-family="Helvetica,sans-Serif" font-size="10.00">dump2</text>
</a>
</g>
</g>
<!-- Node1&#45;&gt;Node8 -->
<g id="edge7" class="edge"><title>Node1&#45;&gt;Node8</title>
<path fill="none" stroke="midnightblue" d="M27.7388,-114.482C37.43,-102.24 55.6559,-80.9046 75,-67 77.6487,-65.0961 80.5184,-63.3055 83.4653,-61.6423"/>
<polygon fill="midnightblue" stroke="midnightblue" points="85.1028,-64.736 92.3938,-57.0488 81.9004,-58.5114 85.1028,-64.736"/>
</g>
<!-- Node9 -->
<g id="node9" class="node"><title>Node9</title>
<g id="a_node9"><a xlink:href="../../d3/d42/rletoabA62_8c.html#a43d044677a76689911162e6a1bc57566" target="_top" xlink:title="dump1">
<polygon fill="white" stroke="black" points="92.5,-0.5 92.5,-19.5 140.5,-19.5 140.5,-0.5 92.5,-0.5"/>
<text text-anchor="middle" x="116.5" y="-7.5" font-family="Helvetica,sans-Serif" font-size="10.00">dump1</text>
</a>
</g>
</g>
<!-- Node1&#45;&gt;Node9 -->
<g id="edge8" class="edge"><title>Node1&#45;&gt;Node9</title>
<path fill="none" stroke="midnightblue" d="M23.7672,-114.38C30.5591,-95.6611 47.8667,-53.99 75,-29 77.4565,-26.7375 80.2304,-24.6991 83.1458,-22.8732"/>
<polygon fill="midnightblue" stroke="midnightblue" points="85.0006,-25.8495 92.1405,-18.0218 81.6775,-19.6885 85.0006,-25.8495"/>
</g>
<!-- Node3 -->
<g id="node3" class="node"><title>Node3</title>
<g id="a_node3"><a xlink:href="../../dc/d53/getopt_8c.html#aa4a0de5bffcb84a01c711ce72ef194a9" target="_top" xlink:title="index">
<polygon fill="white" stroke="black" points="194,-228.5 194,-247.5 236,-247.5 236,-228.5 194,-228.5"/>
<text text-anchor="middle" x="215" y="-235.5" font-family="Helvetica,sans-Serif" font-size="10.00">index</text>
</a>
</g>
</g>
<!-- Node2&#45;&gt;Node3 -->
<g id="edge2" class="edge"><title>Node2&#45;&gt;Node3</title>
<path fill="none" stroke="midnightblue" d="M140.369,-238C153.338,-238 169.727,-238 183.748,-238"/>
<polygon fill="midnightblue" stroke="midnightblue" points="183.914,-241.5 193.914,-238 183.914,-234.5 183.914,-241.5"/>
</g>
</g>
</svg>
