<?xml version="1.0" encoding="UTF-8" standalone="no"?>
<!DOCTYPE svg PUBLIC "-//W3C//DTD SVG 1.1//EN"
 "http://www.w3.org/Graphics/SVG/1.1/DTD/svg11.dtd">
<!-- Generated by graphviz version 2.38.0 (20140413.2041)
 -->
<!-- Title: get_rle_map Pages: 1 -->
<svg width="441pt" height="218pt"
 viewBox="0.00 0.00 441.00 218.00" xmlns="http://www.w3.org/2000/svg" xmlns:xlink="http://www.w3.org/1999/xlink">
<g id="graph0" class="graph" transform="scale(1 1) rotate(0) translate(4 214)">
<title>get_rle_map</title>
<polygon fill="white" stroke="none" points="-4,4 -4,-214 437,-214 437,4 -4,4"/>
<!-- Node1 -->
<g id="node1" class="node"><title>Node1</title>
<polygon fill="#bfbfbf" stroke="black" points="0,-133.5 0,-152.5 76,-152.5 76,-133.5 0,-133.5"/>
<text text-anchor="middle" x="38" y="-140.5" font-family="Helvetica,sans-Serif" font-size="10.00">get_rle_map</text>
</g>
<!-- Node2 -->
<g id="node2" class="node"><title>Node2</title>
<g id="a_node2"><a xlink:href="../../de/d4e/rle__open__f_8c.html#a89733a45961817885603ae01210290b7" target="_top" xlink:title="rle_open_f">
<polygon fill="white" stroke="black" points="118.5,-171.5 118.5,-190.5 186.5,-190.5 186.5,-171.5 118.5,-171.5"/>
<text text-anchor="middle" x="152.5" y="-178.5" font-family="Helvetica,sans-Serif" font-size="10.00">rle_open_f</text>
</a>
</g>
</g>
<!-- Node1&#45;&gt;Node2 -->
<g id="edge1" class="edge"><title>Node1&#45;&gt;Node2</title>
<path fill="none" stroke="midnightblue" d="M67.3885,-152.589C81.3782,-157.314 98.444,-163.079 113.538,-168.177"/>
<polygon fill="midnightblue" stroke="midnightblue" points="112.526,-171.53 123.121,-171.414 114.767,-164.898 112.526,-171.53"/>
</g>
<!-- Node7 -->
<g id="node7" class="node"><title>Node7</title>
<g id="a_node7"><a xlink:href="../../db/d53/rle__getrow_8c.html#a619b27463c26e0a4a3d9648a9869ee52" target="_top" xlink:title="rle_get_setup">
<polygon fill="white" stroke="black" points="112,-95.5 112,-114.5 193,-114.5 193,-95.5 112,-95.5"/>
<text text-anchor="middle" x="152.5" y="-102.5" font-family="Helvetica,sans-Serif" font-size="10.00">rle_get_setup</text>
</a>
</g>
</g>
<!-- Node1&#45;&gt;Node7 -->
<g id="edge6" class="edge"><title>Node1&#45;&gt;Node7</title>
<path fill="none" stroke="midnightblue" d="M67.3885,-133.411C81.3782,-128.686 98.444,-122.921 113.538,-117.823"/>
<polygon fill="midnightblue" stroke="midnightblue" points="114.767,-121.102 123.121,-114.586 112.526,-114.47 114.767,-121.102"/>
</g>
<!-- Node3 -->
<g id="node3" class="node"><title>Node3</title>
<g id="a_node3"><a xlink:href="../../de/d4e/rle__open__f_8c.html#a5a0e62a00f907fce26e93b2f72adb2b0" target="_top" xlink:title="rle_open_f_noexit">
<polygon fill="white" stroke="black" points="229,-190.5 229,-209.5 331,-209.5 331,-190.5 229,-190.5"/>
<text text-anchor="middle" x="280" y="-197.5" font-family="Helvetica,sans-Serif" font-size="10.00">rle_open_f_noexit</text>
</a>
</g>
</g>
<!-- Node2&#45;&gt;Node3 -->
<g id="edge2" class="edge"><title>Node2&#45;&gt;Node3</title>
<path fill="none" stroke="midnightblue" d="M186.802,-186.042C196.699,-187.54 207.859,-189.23 218.909,-190.903"/>
<polygon fill="midnightblue" stroke="midnightblue" points="218.575,-194.392 228.986,-192.428 219.623,-187.471 218.575,-194.392"/>
</g>
<!-- Node4 -->
<g id="node4" class="node"><title>Node4</title>
<g id="a_node4"><a xlink:href="../../de/d4e/rle__open__f_8c.html#a84fda810ae9b9bde82a6391d0b264ead" target="_top" xlink:title="my_popen">
<polygon fill="white" stroke="black" points="367,-190.5 367,-209.5 433,-209.5 433,-190.5 367,-190.5"/>
<text text-anchor="middle" x="400" y="-197.5" font-family="Helvetica,sans-Serif" font-size="10.00">my_popen</text>
</a>
</g>
</g>
<!-- Node3&#45;&gt;Node4 -->
<g id="edge3" class="edge"><title>Node3&#45;&gt;Node4</title>
<path fill="none" stroke="midnightblue" d="M331.043,-200C339.523,-200 348.255,-200 356.518,-200"/>
<polygon fill="midnightblue" stroke="midnightblue" points="356.678,-203.5 366.678,-200 356.678,-196.5 356.678,-203.5"/>
</g>
<!-- Node5 -->
<g id="node5" class="node"><title>Node5</title>
<g id="a_node5"><a xlink:href="../../d0/dcc/rletorla_8c.html#ab7e36af3707843f77cc5b4e831c2fa6d" target="_top" xlink:title="malloc">
<polygon fill="white" stroke="black" points="376.5,-152.5 376.5,-171.5 423.5,-171.5 423.5,-152.5 376.5,-152.5"/>
<text text-anchor="middle" x="400" y="-159.5" font-family="Helvetica,sans-Serif" font-size="10.00">malloc</text>
</a>
</g>
</g>
<!-- Node3&#45;&gt;Node5 -->
<g id="edge4" class="edge"><title>Node3&#45;&gt;Node5</title>
<path fill="none" stroke="midnightblue" d="M310.776,-190.411C327.784,-184.934 349.127,-178.061 366.559,-172.447"/>
<polygon fill="midnightblue" stroke="midnightblue" points="367.864,-175.704 376.31,-169.307 365.718,-169.041 367.864,-175.704"/>
</g>
<!-- Node6 -->
<g id="node6" class="node"><title>Node6</title>
<g id="a_node6"><a xlink:href="../../d0/dcc/rletorla_8c.html#aafde19f7d36ca163a143579c1b125b6d" target="_top" xlink:title="free">
<polygon fill="white" stroke="black" points="382.5,-76.5 382.5,-95.5 417.5,-95.5 417.5,-76.5 382.5,-76.5"/>
<text text-anchor="middle" x="400" y="-83.5" font-family="Helvetica,sans-Serif" font-size="10.00">free</text>
</a>
</g>
</g>
<!-- Node3&#45;&gt;Node6 -->
<g id="edge5" class="edge"><title>Node3&#45;&gt;Node6</title>
<path fill="none" stroke="midnightblue" d="M291.061,-190.28C311.177,-170.846 356.573,-126.989 381.609,-102.801"/>
<polygon fill="midnightblue" stroke="midnightblue" points="384.205,-105.16 388.965,-95.695 379.341,-100.126 384.205,-105.16"/>
</g>
<!-- Node7&#45;&gt;Node5 -->
<g id="edge12" class="edge"><title>Node7&#45;&gt;Node5</title>
<path fill="none" stroke="midnightblue" d="M168.451,-114.54C183.224,-123.469 206.775,-136.397 229,-143 275.438,-156.797 331.72,-160.725 366.446,-161.76"/>
<polygon fill="midnightblue" stroke="midnightblue" points="366.417,-165.26 376.496,-161.996 366.581,-158.262 366.417,-165.26"/>
</g>
<!-- Node7&#45;&gt;Node6 -->
<g id="edge13" class="edge"><title>Node7&#45;&gt;Node6</title>
<path fill="none" stroke="midnightblue" d="M167.478,-95.4399C182.078,-86.0811 206.014,-72.4584 229,-67 273.107,-56.5262 286.087,-60.8433 331,-67 344.947,-68.9118 360.065,-72.9321 372.497,-76.7843"/>
<polygon fill="midnightblue" stroke="midnightblue" points="371.632,-80.1829 382.224,-79.9306 373.786,-73.5226 371.632,-80.1829"/>
</g>
<!-- Node8 -->
<g id="node8" class="node"><title>Node8</title>
<g id="a_node8"><a xlink:href="../../d2/df3/rle__hdr_8c.html#a16c4da6201b3b8cf55127b9ca968d253" target="_top" xlink:title="rle_hdr_clear">
<polygon fill="white" stroke="black" points="240,-0.5 240,-19.5 320,-19.5 320,-0.5 240,-0.5"/>
<text text-anchor="middle" x="280" y="-7.5" font-family="Helvetica,sans-Serif" font-size="10.00">rle_hdr_clear</text>
</a>
</g>
</g>
<!-- Node7&#45;&gt;Node8 -->
<g id="edge7" class="edge"><title>Node7&#45;&gt;Node8</title>
<path fill="none" stroke="midnightblue" d="M162.009,-95.2746C175.226,-80.5928 201.993,-52.5204 229,-34 234.315,-30.3549 240.27,-26.9751 246.165,-23.9711"/>
<polygon fill="midnightblue" stroke="midnightblue" points="247.793,-27.0717 255.281,-19.5758 244.753,-20.7664 247.793,-27.0717"/>
</g>
<!-- Node9 -->
<g id="node9" class="node"><title>Node9</title>
<g id="a_node9"><a xlink:href="../../d2/df3/rle__hdr_8c.html#a82e79385f2d45cc3b80ce0f4f369eae5" target="_top" xlink:title="rle_names">
<polygon fill="white" stroke="black" points="247,-114.5 247,-133.5 313,-133.5 313,-114.5 247,-114.5"/>
<text text-anchor="middle" x="280" y="-121.5" font-family="Helvetica,sans-Serif" font-size="10.00">rle_names</text>
</a>
</g>
</g>
<!-- Node7&#45;&gt;Node9 -->
<g id="edge9" class="edge"><title>Node7&#45;&gt;Node9</title>
<path fill="none" stroke="midnightblue" d="M193.209,-111.012C207.078,-113.111 222.69,-115.475 236.757,-117.605"/>
<polygon fill="midnightblue" stroke="midnightblue" points="236.269,-121.071 246.681,-119.107 237.317,-114.149 236.269,-121.071"/>
</g>
<!-- Node10 -->
<g id="node10" class="node"><title>Node10</title>
<g id="a_node10"><a xlink:href="../../db/d53/rle__getrow_8c.html#a0ea68aa2ebeef9d4cade7282553b03d6" target="_top" xlink:title="vax_gshort">
<polygon fill="white" stroke="black" points="245.5,-76.5 245.5,-95.5 314.5,-95.5 314.5,-76.5 245.5,-76.5"/>
<text text-anchor="middle" x="280" y="-83.5" font-family="Helvetica,sans-Serif" font-size="10.00">vax_gshort</text>
</a>
</g>
</g>
<!-- Node7&#45;&gt;Node10 -->
<g id="edge14" class="edge"><title>Node7&#45;&gt;Node10</title>
<path fill="none" stroke="midnightblue" d="M193.209,-98.9883C206.6,-96.961 221.616,-94.6876 235.298,-92.6163"/>
<polygon fill="midnightblue" stroke="midnightblue" points="236.087,-96.0367 245.451,-91.0792 235.039,-89.1156 236.087,-96.0367"/>
</g>
<!-- Node8&#45;&gt;Node6 -->
<g id="edge8" class="edge"><title>Node8&#45;&gt;Node6</title>
<path fill="none" stroke="midnightblue" d="M303.421,-19.567C312.232,-23.6317 322.3,-28.6636 331,-34 348.459,-44.7085 366.827,-58.9572 380.066,-69.8311"/>
<polygon fill="midnightblue" stroke="midnightblue" points="378.042,-72.7011 387.963,-76.4184 382.526,-67.3254 378.042,-72.7011"/>
</g>
<!-- Node9&#45;&gt;Node5 -->
<g id="edge11" class="edge"><title>Node9&#45;&gt;Node5</title>
<path fill="none" stroke="midnightblue" d="M310.776,-133.589C327.784,-139.066 349.127,-145.939 366.559,-151.553"/>
<polygon fill="midnightblue" stroke="midnightblue" points="365.718,-154.959 376.31,-154.693 367.864,-148.296 365.718,-154.959"/>
</g>
<!-- Node9&#45;&gt;Node6 -->
<g id="edge10" class="edge"><title>Node9&#45;&gt;Node6</title>
<path fill="none" stroke="midnightblue" d="M310.776,-114.411C329.813,-108.28 354.281,-100.401 372.618,-94.496"/>
<polygon fill="midnightblue" stroke="midnightblue" points="373.914,-97.7557 382.359,-91.3589 371.768,-91.0927 373.914,-97.7557"/>
</g>
</g>
</svg>
