<?xml version="1.0" encoding="UTF-8" standalone="no"?>
<!DOCTYPE svg PUBLIC "-//W3C//DTD SVG 1.1//EN"
 "http://www.w3.org/Graphics/SVG/1.1/DTD/svg11.dtd">
<!-- Generated by graphviz version 2.38.0 (20140413.2041)
 -->
<!-- Title: put_line_mono Pages: 1 -->
<svg width="330pt" height="28pt"
 viewBox="0.00 0.00 330.00 28.00" xmlns="http://www.w3.org/2000/svg" xmlns:xlink="http://www.w3.org/1999/xlink">
<g id="graph0" class="graph" transform="scale(1 1) rotate(0) translate(4 24)">
<title>put_line_mono</title>
<polygon fill="white" stroke="none" points="-4,4 -4,-24 326,-24 326,4 -4,4"/>
<!-- Node1 -->
<g id="node1" class="node"><title>Node1</title>
<polygon fill="#bfbfbf" stroke="black" points="0,-0.5 0,-19.5 86,-19.5 86,-0.5 0,-0.5"/>
<text text-anchor="middle" x="43" y="-7.5" font-family="Helvetica,sans-Serif" font-size="10.00">put_line_mono</text>
</g>
<!-- Node2 -->
<g id="node2" class="node"><title>Node2</title>
<g id="a_node2"><a xlink:href="../../d9/d3b/get__orion_8c.html#a8a99ff3e7ba5142a96a1f38fd6c7d47c" target="_top" xlink:title="write_scanline">
<polygon fill="white" stroke="black" points="122,-0.5 122,-19.5 206,-19.5 206,-0.5 122,-0.5"/>
<text text-anchor="middle" x="164" y="-7.5" font-family="Helvetica,sans-Serif" font-size="10.00">write_scanline</text>
</a>
</g>
</g>
<!-- Node1&#45;&gt;Node2 -->
<g id="edge1" class="edge"><title>Node1&#45;&gt;Node2</title>
<path fill="none" stroke="midnightblue" d="M86.29,-10C94.459,-10 103.101,-10 111.525,-10"/>
<polygon fill="midnightblue" stroke="midnightblue" points="111.646,-13.5001 121.646,-10 111.646,-6.5001 111.646,-13.5001"/>
</g>
<!-- Node3 -->
<g id="node3" class="node"><title>Node3</title>
<g id="a_node3"><a xlink:href="../../d9/d3b/get__orion_8c.html#a9f96586153606bade642a223bd85134d" target="_top" xlink:title="translate_bits">
<polygon fill="white" stroke="black" points="242,-0.5 242,-19.5 322,-19.5 322,-0.5 242,-0.5"/>
<text text-anchor="middle" x="282" y="-7.5" font-family="Helvetica,sans-Serif" font-size="10.00">translate_bits</text>
</a>
</g>
</g>
<!-- Node2&#45;&gt;Node3 -->
<g id="edge2" class="edge"><title>Node2&#45;&gt;Node3</title>
<path fill="none" stroke="midnightblue" d="M206.224,-10C214.465,-10 223.2,-10 231.682,-10"/>
<polygon fill="midnightblue" stroke="midnightblue" points="231.852,-13.5001 241.852,-10 231.851,-6.5001 231.852,-13.5001"/>
</g>
</g>
</svg>
