<?xml version="1.0" encoding="UTF-8" standalone="no"?>
<!DOCTYPE svg PUBLIC "-//W3C//DTD SVG 1.1//EN"
 "http://www.w3.org/Graphics/SVG/1.1/DTD/svg11.dtd">
<!-- Generated by graphviz version 2.38.0 (20140413.2041)
 -->
<!-- Title: init_8_bit_colour_map Pages: 1 -->
<svg width="343pt" height="66pt"
 viewBox="0.00 0.00 343.00 66.00" xmlns="http://www.w3.org/2000/svg" xmlns:xlink="http://www.w3.org/1999/xlink">
<g id="graph0" class="graph" transform="scale(1 1) rotate(0) translate(4 62)">
<title>init_8_bit_colour_map</title>
<polygon fill="white" stroke="none" points="-4,4 -4,-62 339,-62 339,4 -4,4"/>
<!-- Node1 -->
<g id="node1" class="node"><title>Node1</title>
<polygon fill="#bfbfbf" stroke="black" points="0,-19.5 0,-38.5 119,-38.5 119,-19.5 0,-19.5"/>
<text text-anchor="middle" x="59.5" y="-26.5" font-family="Helvetica,sans-Serif" font-size="10.00">init_8_bit_colour_map</text>
</g>
<!-- Node2 -->
<g id="node2" class="node"><title>Node2</title>
<g id="a_node2"><a xlink:href="../../d4/df0/gamma_8c.html#aa61041b3d539ebd857f6d831c93a967b" target="_top" xlink:title="gamma">
<polygon fill="white" stroke="black" points="161.5,-38.5 161.5,-57.5 212.5,-57.5 212.5,-38.5 161.5,-38.5"/>
<text text-anchor="middle" x="187" y="-45.5" font-family="Helvetica,sans-Serif" font-size="10.00">gamma</text>
</a>
</g>
</g>
<!-- Node1&#45;&gt;Node2 -->
<g id="edge1" class="edge"><title>Node1&#45;&gt;Node2</title>
<path fill="none" stroke="midnightblue" d="M119.208,-37.8881C130.193,-39.5511 141.343,-41.2392 151.306,-42.7474"/>
<polygon fill="midnightblue" stroke="midnightblue" points="150.789,-46.2091 161.201,-44.2455 151.837,-39.288 150.789,-46.2091"/>
</g>
<!-- Node3 -->
<g id="node3" class="node"><title>Node3</title>
<g id="a_node3"><a xlink:href="../../d9/dbb/dither_8c.html#af497d70ad3165f9bd58878047ba22f03" target="_top" xlink:title="dithermap">
<polygon fill="white" stroke="black" points="155,-0.5 155,-19.5 219,-19.5 219,-0.5 155,-0.5"/>
<text text-anchor="middle" x="187" y="-7.5" font-family="Helvetica,sans-Serif" font-size="10.00">dithermap</text>
</a>
</g>
</g>
<!-- Node1&#45;&gt;Node3 -->
<g id="edge2" class="edge"><title>Node1&#45;&gt;Node3</title>
<path fill="none" stroke="midnightblue" d="M119.208,-20.1119C127.82,-18.8081 136.534,-17.4888 144.698,-16.2529"/>
<polygon fill="midnightblue" stroke="midnightblue" points="145.332,-19.6969 154.695,-14.7394 144.284,-12.7758 145.332,-19.6969"/>
</g>
<!-- Node4 -->
<g id="node4" class="node"><title>Node4</title>
<g id="a_node4"><a xlink:href="../../d9/dbb/dither_8c.html#a7ff23fcd77b62deab9304ffd3d684f47" target="_top" xlink:title="make_square">
<polygon fill="white" stroke="black" points="255,-0.5 255,-19.5 335,-19.5 335,-0.5 255,-0.5"/>
<text text-anchor="middle" x="295" y="-7.5" font-family="Helvetica,sans-Serif" font-size="10.00">make_square</text>
</a>
</g>
</g>
<!-- Node3&#45;&gt;Node4 -->
<g id="edge3" class="edge"><title>Node3&#45;&gt;Node4</title>
<path fill="none" stroke="midnightblue" d="M219.23,-10C227.219,-10 236.006,-10 244.662,-10"/>
<polygon fill="midnightblue" stroke="midnightblue" points="244.708,-13.5001 254.708,-10 244.708,-6.5001 244.708,-13.5001"/>
</g>
</g>
</svg>
