<?xml version="1.0" encoding="UTF-8" standalone="no"?>
<!DOCTYPE svg PUBLIC "-//W3C//DTD SVG 1.1//EN"
 "http://www.w3.org/Graphics/SVG/1.1/DTD/svg11.dtd">
<!-- Generated by graphviz version 2.38.0 (20140413.2041)
 -->
<!-- Title: put_line_8 Pages: 1 -->
<svg width="309pt" height="28pt"
 viewBox="0.00 0.00 309.00 28.00" xmlns="http://www.w3.org/2000/svg" xmlns:xlink="http://www.w3.org/1999/xlink">
<g id="graph0" class="graph" transform="scale(1 1) rotate(0) translate(4 24)">
<title>put_line_8</title>
<polygon fill="white" stroke="none" points="-4,4 -4,-24 305,-24 305,4 -4,4"/>
<!-- Node1 -->
<g id="node1" class="node"><title>Node1</title>
<polygon fill="#bfbfbf" stroke="black" points="0,-0.5 0,-19.5 65,-19.5 65,-0.5 0,-0.5"/>
<text text-anchor="middle" x="32.5" y="-7.5" font-family="Helvetica,sans-Serif" font-size="10.00">put_line_8</text>
</g>
<!-- Node2 -->
<g id="node2" class="node"><title>Node2</title>
<g id="a_node2"><a xlink:href="../../d9/d3b/get__orion_8c.html#a8a99ff3e7ba5142a96a1f38fd6c7d47c" target="_top" xlink:title="write_scanline">
<polygon fill="white" stroke="black" points="101,-0.5 101,-19.5 185,-19.5 185,-0.5 101,-0.5"/>
<text text-anchor="middle" x="143" y="-7.5" font-family="Helvetica,sans-Serif" font-size="10.00">write_scanline</text>
</a>
</g>
</g>
<!-- Node1&#45;&gt;Node2 -->
<g id="edge1" class="edge"><title>Node1&#45;&gt;Node2</title>
<path fill="none" stroke="midnightblue" d="M65.1744,-10C73.1768,-10 81.9768,-10 90.6763,-10"/>
<polygon fill="midnightblue" stroke="midnightblue" points="90.7886,-13.5001 100.789,-10 90.7886,-6.5001 90.7886,-13.5001"/>
</g>
<!-- Node3 -->
<g id="node3" class="node"><title>Node3</title>
<g id="a_node3"><a xlink:href="../../d9/d3b/get__orion_8c.html#a9f96586153606bade642a223bd85134d" target="_top" xlink:title="translate_bits">
<polygon fill="white" stroke="black" points="221,-0.5 221,-19.5 301,-19.5 301,-0.5 221,-0.5"/>
<text text-anchor="middle" x="261" y="-7.5" font-family="Helvetica,sans-Serif" font-size="10.00">translate_bits</text>
</a>
</g>
</g>
<!-- Node2&#45;&gt;Node3 -->
<g id="edge2" class="edge"><title>Node2&#45;&gt;Node3</title>
<path fill="none" stroke="midnightblue" d="M185.224,-10C193.465,-10 202.2,-10 210.682,-10"/>
<polygon fill="midnightblue" stroke="midnightblue" points="210.852,-13.5001 220.852,-10 210.851,-6.5001 210.852,-13.5001"/>
</g>
</g>
</svg>
