<?xml version="1.0" encoding="UTF-8" standalone="no"?>
<!DOCTYPE svg PUBLIC "-//W3C//DTD SVG 1.1//EN"
 "http://www.w3.org/Graphics/SVG/1.1/DTD/svg11.dtd">
<!-- Generated by graphviz version 2.38.0 (20140413.2041)
 -->
<!-- Title: translate_bits Pages: 1 -->
<svg width="405pt" height="66pt"
 viewBox="0.00 0.00 405.00 66.00" xmlns="http://www.w3.org/2000/svg" xmlns:xlink="http://www.w3.org/1999/xlink">
<g id="graph0" class="graph" transform="scale(1 1) rotate(0) translate(4 62)">
<title>translate_bits</title>
<polygon fill="white" stroke="none" points="-4,4 -4,-62 401,-62 401,4 -4,4"/>
<!-- Node1 -->
<g id="node1" class="node"><title>Node1</title>
<polygon fill="#bfbfbf" stroke="black" points="0,-19.5 0,-38.5 80,-38.5 80,-19.5 0,-19.5"/>
<text text-anchor="middle" x="40" y="-26.5" font-family="Helvetica,sans-Serif" font-size="10.00">translate_bits</text>
</g>
<!-- Node2 -->
<g id="node2" class="node"><title>Node2</title>
<g id="a_node2"><a xlink:href="../../d9/d3b/get__orion_8c.html#a8a99ff3e7ba5142a96a1f38fd6c7d47c" target="_top" xlink:title="write_scanline">
<polygon fill="white" stroke="black" points="116,-19.5 116,-38.5 200,-38.5 200,-19.5 116,-19.5"/>
<text text-anchor="middle" x="158" y="-26.5" font-family="Helvetica,sans-Serif" font-size="10.00">write_scanline</text>
</a>
</g>
</g>
<!-- Node1&#45;&gt;Node2 -->
<g id="edge1" class="edge"><title>Node1&#45;&gt;Node2</title>
<path fill="none" stroke="midnightblue" d="M90.413,-29C98.8686,-29 107.573,-29 115.786,-29"/>
<polygon fill="midnightblue" stroke="midnightblue" points="90.2723,-25.5001 80.2723,-29 90.2723,-32.5001 90.2723,-25.5001"/>
</g>
<!-- Node3 -->
<g id="node3" class="node"><title>Node3</title>
<g id="a_node3"><a xlink:href="../../d9/d3b/get__orion_8c.html#a2342d0ec0b45c159f7b36119bfcaa3cd" target="_top" xlink:title="put_line_8">
<polygon fill="white" stroke="black" points="246.5,-38.5 246.5,-57.5 311.5,-57.5 311.5,-38.5 246.5,-38.5"/>
<text text-anchor="middle" x="279" y="-45.5" font-family="Helvetica,sans-Serif" font-size="10.00">put_line_8</text>
</a>
</g>
</g>
<!-- Node2&#45;&gt;Node3 -->
<g id="edge2" class="edge"><title>Node2&#45;&gt;Node3</title>
<path fill="none" stroke="midnightblue" d="M210.355,-37.1996C222.526,-39.1428 235.16,-41.16 246.169,-42.9177"/>
<polygon fill="midnightblue" stroke="midnightblue" points="210.713,-33.7125 200.286,-35.592 209.61,-40.6249 210.713,-33.7125"/>
</g>
<!-- Node5 -->
<g id="node5" class="node"><title>Node5</title>
<g id="a_node5"><a xlink:href="../../d9/d3b/get__orion_8c.html#a3d4d50345552a372121b5952a80c439e" target="_top" xlink:title="put_line_mono">
<polygon fill="white" stroke="black" points="236,-0.5 236,-19.5 322,-19.5 322,-0.5 236,-0.5"/>
<text text-anchor="middle" x="279" y="-7.5" font-family="Helvetica,sans-Serif" font-size="10.00">put_line_mono</text>
</a>
</g>
</g>
<!-- Node2&#45;&gt;Node5 -->
<g id="edge4" class="edge"><title>Node2&#45;&gt;Node5</title>
<path fill="none" stroke="midnightblue" d="M210.225,-20.8213C218.82,-19.4489 227.651,-18.039 235.98,-16.7091"/>
<polygon fill="midnightblue" stroke="midnightblue" points="209.61,-17.3751 200.286,-22.408 210.713,-24.2875 209.61,-17.3751"/>
</g>
<!-- Node4 -->
<g id="node4" class="node"><title>Node4</title>
<g id="a_node4"><a xlink:href="../../d9/d3b/get__orion_8c.html#a0708a0954f39ecdc7aa901286295ad01" target="_top" xlink:title="main">
<polygon fill="white" stroke="black" points="358,-19.5 358,-38.5 397,-38.5 397,-19.5 358,-19.5"/>
<text text-anchor="middle" x="377.5" y="-26.5" font-family="Helvetica,sans-Serif" font-size="10.00">main</text>
</a>
</g>
</g>
<!-- Node3&#45;&gt;Node4 -->
<g id="edge3" class="edge"><title>Node3&#45;&gt;Node4</title>
<path fill="none" stroke="midnightblue" d="M321.539,-39.8214C334.187,-37.3311 347.462,-34.7172 357.797,-32.6824"/>
<polygon fill="midnightblue" stroke="midnightblue" points="320.733,-36.4127 311.598,-41.7787 322.086,-43.2809 320.733,-36.4127"/>
</g>
<!-- Node5&#45;&gt;Node4 -->
<g id="edge5" class="edge"><title>Node5&#45;&gt;Node4</title>
<path fill="none" stroke="midnightblue" d="M331.976,-20.2336C341.12,-22.0341 350.085,-23.7992 357.546,-25.2682"/>
<polygon fill="midnightblue" stroke="midnightblue" points="332.533,-16.7762 322.046,-18.2784 331.181,-23.6444 332.533,-16.7762"/>
</g>
</g>
</svg>
