<?xml version="1.0" encoding="UTF-8" standalone="no"?>
<!DOCTYPE svg PUBLIC "-//W3C//DTD SVG 1.1//EN"
 "http://www.w3.org/Graphics/SVG/1.1/DTD/svg11.dtd">
<!-- Generated by graphviz version 2.38.0 (20140413.2041)
 -->
<!-- Title: main Pages: 1 -->
<!--zoomable 759 -->
<svg id="main" version="1.1" xmlns="http://www.w3.org/2000/svg" xmlns:xlink="http://www.w3.org/1999/xlink" xml:space="preserve" onload="init(evt)">
<style type="text/css"><![CDATA[
.edge:hover path { stroke: red; }
.edge:hover polygon { stroke: red; fill: red; }
]]></style>
<script type="text/javascript"><![CDATA[
var edges = document.getElementsByTagName('g');
if (edges && edges.length) {
  for (var i=0;i<edges.length;i++) {
    if (edges[i].id.substr(0,4)=='edge') {
      edges[i].setAttribute('class','edge');
    }
  }
}
]]></script>
        <defs>
                <circle id="rim" cx="0" cy="0" r="7"/>
                <circle id="rim2" cx="0" cy="0" r="3.5"/>
                <g id="zoomPlus">
                        <use xlink:href="#rim" fill="#404040">
                                <set attributeName="fill" to="#808080" begin="zoomplus.mouseover" end="zoomplus.mouseout"/>
                        </use>
                        <path d="M-4,0h8M0,-4v8" fill="none" stroke="white" stroke-width="1.5" pointer-events="none"/>
                </g>
                <g id="zoomMin">
                        <use xlink:href="#rim" fill="#404040">
                                <set attributeName="fill" to="#808080" begin="zoomminus.mouseover" end="zoomminus.mouseout"/>
                        </use>
                        <path d="M-4,0h8" fill="none" stroke="white" stroke-width="1.5" pointer-events="none"/>
                </g>
                <g id="dirArrow">
                        <path fill="none" stroke="white" stroke-width="1.5" d="M0,-3.0v7 M-2.5,-0.5L0,-3.0L2.5,-0.5"/>
                </g>
               <g id="resetDef">
                       <use xlink:href="#rim2" fill="#404040">
                               <set attributeName="fill" to="#808080" begin="reset.mouseover" end="reset.mouseout"/>
                       </use>
               </g>
        </defs>

<script type="text/javascript">
var viewWidth = 601;
var viewHeight = 759;
var sectionId = 'dynsection-9';
</script>
<script xlink:href="../../svgpan.js"/>
<svg id="graph" class="graph">
<g id="viewport">
<title>main</title>
<polygon fill="white" stroke="none" points="-4,4 -4,-755 597,-755 597,4 -4,4"/>
<!-- Node1 -->
<g id="node1" class="node"><title>Node1</title>
<polygon fill="#bfbfbf" stroke="black" points="0,-323.5 0,-342.5 39,-342.5 39,-323.5 0,-323.5"/>
<text text-anchor="middle" x="19.5" y="-330.5" font-family="Helvetica,sans-Serif" font-size="10.00">main</text>
</g>
<!-- Node2 -->
<g id="node2" class="node"><title>Node2</title>
<g id="a_node2"><a xlink:href="../../d2/df3/rle__hdr_8c.html#a8ba0e5b11d1e39ab7227f1686e676c86" target="_top" xlink:title="rle_hdr_init">
<polygon fill="white" stroke="black" points="119,-551.5 119,-570.5 189,-570.5 189,-551.5 119,-551.5"/>
<text text-anchor="middle" x="154" y="-558.5" font-family="Helvetica,sans-Serif" font-size="10.00">rle_hdr_init</text>
</a>
</g>
</g>
<!-- Node1&#45;&gt;Node2 -->
<g id="edge1" class="edge"><title>Node1&#45;&gt;Node2</title>
<path fill="none" stroke="midnightblue" d="M20.0385,-342.654C19.0449,-374.929 20.3214,-480.235 75,-537 83.9967,-546.34 96.5314,-552.069 108.924,-555.576"/>
<polygon fill="midnightblue" stroke="midnightblue" points="108.221,-559.006 118.762,-557.938 109.855,-552.2 108.221,-559.006"/>
</g>
<!-- Node7 -->
<g id="node7" class="node"><title>Node7</title>
<g id="a_node7"><a xlink:href="../../d2/df3/rle__hdr_8c.html#a82e79385f2d45cc3b80ce0f4f369eae5" target="_top" xlink:title="rle_names">
<polygon fill="white" stroke="black" points="407,-579.5 407,-598.5 473,-598.5 473,-579.5 407,-579.5"/>
<text text-anchor="middle" x="440" y="-586.5" font-family="Helvetica,sans-Serif" font-size="10.00">rle_names</text>
</a>
</g>
</g>
<!-- Node1&#45;&gt;Node7 -->
<g id="edge12" class="edge"><title>Node1&#45;&gt;Node7</title>
<path fill="none" stroke="midnightblue" d="M21.0996,-342.703C23.9028,-384.548 37.2114,-548.864 75,-580 122.887,-619.456 311.38,-603.691 396.674,-594.195"/>
<polygon fill="midnightblue" stroke="midnightblue" points="397.25,-597.652 406.79,-593.044 396.458,-590.697 397.25,-597.652"/>
</g>
<!-- Node8 -->
<g id="node8" class="node"><title>Node8</title>
<g id="a_node8"><a xlink:href="../../d4/db0/scanargs_8c.html#a7ea6d702c0484056c8504d6ce7fede08" target="_top" xlink:title="scanargs">
<polygon fill="white" stroke="black" points="124,-475.5 124,-494.5 184,-494.5 184,-475.5 124,-475.5"/>
<text text-anchor="middle" x="154" y="-482.5" font-family="Helvetica,sans-Serif" font-size="10.00">scanargs</text>
</a>
</g>
</g>
<!-- Node1&#45;&gt;Node8 -->
<g id="edge10" class="edge"><title>Node1&#45;&gt;Node8</title>
<path fill="none" stroke="midnightblue" d="M21.5098,-342.76C24.6003,-367.422 36.2198,-432.639 75,-466 85.6931,-475.199 100.122,-480.094 113.661,-482.65"/>
<polygon fill="midnightblue" stroke="midnightblue" points="113.353,-486.144 123.765,-484.182 114.403,-479.223 113.353,-486.144"/>
</g>
<!-- Node10 -->
<g id="node10" class="node"><title>Node10</title>
<g id="a_node10"><a xlink:href="../../d8/d30/cmd__name_8c.html#a271249070fdd12c176777c77d76f888f" target="_top" xlink:title="cmd_name">
<polygon fill="white" stroke="black" points="120,-437.5 120,-456.5 188,-456.5 188,-437.5 120,-437.5"/>
<text text-anchor="middle" x="154" y="-444.5" font-family="Helvetica,sans-Serif" font-size="10.00">cmd_name</text>
</a>
</g>
</g>
<!-- Node1&#45;&gt;Node10 -->
<g id="edge13" class="edge"><title>Node1&#45;&gt;Node10</title>
<path fill="none" stroke="midnightblue" d="M23.1682,-342.52C29.0874,-361.818 45.2065,-405.611 75,-428 85.0106,-435.523 97.6018,-440.105 109.729,-442.885"/>
<polygon fill="midnightblue" stroke="midnightblue" points="109.258,-446.359 119.74,-444.821 110.587,-439.486 109.258,-446.359"/>
</g>
<!-- Node11 -->
<g id="node11" class="node"><title>Node11</title>
<g id="a_node11"><a xlink:href="../../de/d4e/rle__open__f_8c.html#a89733a45961817885603ae01210290b7" target="_top" xlink:title="rle_open_f">
<polygon fill="white" stroke="black" points="277,-513.5 277,-532.5 345,-532.5 345,-513.5 277,-513.5"/>
<text text-anchor="middle" x="311" y="-520.5" font-family="Helvetica,sans-Serif" font-size="10.00">rle_open_f</text>
</a>
</g>
</g>
<!-- Node1&#45;&gt;Node11 -->
<g id="edge14" class="edge"><title>Node1&#45;&gt;Node11</title>
<path fill="none" stroke="midnightblue" d="M20.1933,-342.776C19.8469,-372.603 23.2836,-462.904 75,-504 129.414,-547.24 215.032,-541.478 266.52,-532.695"/>
<polygon fill="midnightblue" stroke="midnightblue" points="267.442,-536.085 276.655,-530.852 266.19,-529.198 267.442,-536.085"/>
</g>
<!-- Node14 -->
<g id="node14" class="node"><title>Node14</title>
<g id="a_node14"><a xlink:href="../../db/d53/rle__getrow_8c.html#a619b27463c26e0a4a3d9648a9869ee52" target="_top" xlink:title="rle_get_setup">
<polygon fill="white" stroke="black" points="270.5,-646.5 270.5,-665.5 351.5,-665.5 351.5,-646.5 270.5,-646.5"/>
<text text-anchor="middle" x="311" y="-653.5" font-family="Helvetica,sans-Serif" font-size="10.00">rle_get_setup</text>
</a>
</g>
</g>
<!-- Node1&#45;&gt;Node14 -->
<g id="edge19" class="edge"><title>Node1&#45;&gt;Node14</title>
<path fill="none" stroke="midnightblue" d="M20.9612,-342.6C23.3053,-387.219 35.3832,-573.827 75,-613 123.525,-660.981 206.746,-665.049 260.02,-661.831"/>
<polygon fill="midnightblue" stroke="midnightblue" points="260.531,-665.303 270.257,-661.101 260.033,-658.321 260.531,-665.303"/>
</g>
<!-- Node16 -->
<g id="node16" class="node"><title>Node16</title>
<g id="a_node16"><a xlink:href="../../db/d53/rle__getrow_8c.html#a0e01db41714fa588d5458fed1fd0dd55" target="_top" xlink:title="rle_debug">
<polygon fill="white" stroke="black" points="122.5,-399.5 122.5,-418.5 185.5,-418.5 185.5,-399.5 122.5,-399.5"/>
<text text-anchor="middle" x="154" y="-406.5" font-family="Helvetica,sans-Serif" font-size="10.00">rle_debug</text>
</a>
</g>
</g>
<!-- Node1&#45;&gt;Node16 -->
<g id="edge25" class="edge"><title>Node1&#45;&gt;Node16</title>
<path fill="none" stroke="midnightblue" d="M27.0258,-342.692C36.1958,-355.531 54.1289,-377.956 75,-390 86.3353,-396.541 99.849,-400.84 112.418,-403.661"/>
<polygon fill="midnightblue" stroke="midnightblue" points="111.744,-407.096 122.236,-405.622 113.115,-400.231 111.744,-407.096"/>
</g>
<!-- Node17 -->
<g id="node17" class="node"><title>Node17</title>
<g id="a_node17"><a xlink:href="../../d9/d3b/get__orion_8c.html#a32f158b665043b4437b7ab6e14352cf5" target="_top" xlink:title="init_gamma_map">
<polygon fill="white" stroke="black" points="105.5,-361.5 105.5,-380.5 202.5,-380.5 202.5,-361.5 105.5,-361.5"/>
<text text-anchor="middle" x="154" y="-368.5" font-family="Helvetica,sans-Serif" font-size="10.00">init_gamma_map</text>
</a>
</g>
</g>
<!-- Node1&#45;&gt;Node17 -->
<g id="edge26" class="edge"><title>Node1&#45;&gt;Node17</title>
<path fill="none" stroke="midnightblue" d="M39.0212,-339.956C49.4998,-343.765 62.8915,-348.424 75,-352 83.3522,-354.467 92.274,-356.861 100.99,-359.072"/>
<polygon fill="midnightblue" stroke="midnightblue" points="100.153,-362.47 110.701,-361.484 101.84,-355.677 100.153,-362.47"/>
</g>
<!-- Node18 -->
<g id="node18" class="node"><title>Node18</title>
<g id="a_node18"><a xlink:href="../../dc/d11/getami_8c.html#a4ffc2c11d17e77ece1d9561ae4f68318" target="_top" xlink:title="if">
<polygon fill="white" stroke="black" points="139.5,-323.5 139.5,-342.5 168.5,-342.5 168.5,-323.5 139.5,-323.5"/>
<text text-anchor="middle" x="154" y="-330.5" font-family="Helvetica,sans-Serif" font-size="10.00">if</text>
</a>
</g>
</g>
<!-- Node1&#45;&gt;Node18 -->
<g id="edge27" class="edge"><title>Node1&#45;&gt;Node18</title>
<path fill="none" stroke="midnightblue" d="M39.203,-333C62.7972,-333 103.397,-333 129.185,-333"/>
<polygon fill="midnightblue" stroke="midnightblue" points="129.237,-336.5 139.237,-333 129.237,-329.5 129.237,-336.5"/>
</g>
<!-- Node19 -->
<g id="node19" class="node"><title>Node19</title>
<g id="a_node19"><a xlink:href="../../d9/d3b/get__orion_8c.html#a08786fe2a42c0696925051109f0f60d4" target="_top" xlink:title="init_monochrome_colour_map">
<polygon fill="white" stroke="black" points="75,-285.5 75,-304.5 233,-304.5 233,-285.5 75,-285.5"/>
<text text-anchor="middle" x="154" y="-292.5" font-family="Helvetica,sans-Serif" font-size="10.00">init_monochrome_colour_map</text>
</a>
</g>
</g>
<!-- Node1&#45;&gt;Node19 -->
<g id="edge28" class="edge"><title>Node1&#45;&gt;Node19</title>
<path fill="none" stroke="midnightblue" d="M39.0212,-326.044C49.4998,-322.235 62.8915,-317.576 75,-314 83.3522,-311.533 92.274,-309.139 100.99,-306.928"/>
<polygon fill="midnightblue" stroke="midnightblue" points="101.84,-310.323 110.701,-304.516 100.153,-303.53 101.84,-310.323"/>
</g>
<!-- Node23 -->
<g id="node23" class="node"><title>Node23</title>
<g id="a_node23"><a xlink:href="../../d9/d3b/get__orion_8c.html#a540189416f2acd807fc246eec5a72b9a" target="_top" xlink:title="init_24_bit_colour_map">
<polygon fill="white" stroke="black" points="91.5,-209.5 91.5,-228.5 216.5,-228.5 216.5,-209.5 91.5,-209.5"/>
<text text-anchor="middle" x="154" y="-216.5" font-family="Helvetica,sans-Serif" font-size="10.00">init_24_bit_colour_map</text>
</a>
</g>
</g>
<!-- Node1&#45;&gt;Node23 -->
<g id="edge32" class="edge"><title>Node1&#45;&gt;Node23</title>
<path fill="none" stroke="midnightblue" d="M23.1682,-323.48C29.0874,-304.182 45.2065,-260.389 75,-238 77.4826,-236.134 80.124,-234.45 82.8776,-232.928"/>
<polygon fill="midnightblue" stroke="midnightblue" points="84.4606,-236.051 91.9971,-228.605 81.4618,-229.726 84.4606,-236.051"/>
</g>
<!-- Node24 -->
<g id="node24" class="node"><title>Node24</title>
<g id="a_node24"><a xlink:href="../../d9/d3b/get__orion_8c.html#a406deb1e377243ebdf719c427deba5d3" target="_top" xlink:title="init_8_bit_colour_map">
<polygon fill="white" stroke="black" points="94.5,-247.5 94.5,-266.5 213.5,-266.5 213.5,-247.5 94.5,-247.5"/>
<text text-anchor="middle" x="154" y="-254.5" font-family="Helvetica,sans-Serif" font-size="10.00">init_8_bit_colour_map</text>
</a>
</g>
</g>
<!-- Node1&#45;&gt;Node24 -->
<g id="edge33" class="edge"><title>Node1&#45;&gt;Node24</title>
<path fill="none" stroke="midnightblue" d="M27.0258,-323.308C36.1958,-310.469 54.1289,-288.044 75,-276 78.9083,-273.745 83.0755,-271.756 87.3737,-270.002"/>
<polygon fill="midnightblue" stroke="midnightblue" points="88.7382,-273.231 96.9427,-266.527 86.3486,-266.651 88.7382,-273.231"/>
</g>
<!-- Node26 -->
<g id="node26" class="node"><title>Node26</title>
<g id="a_node26"><a xlink:href="../../d9/d3b/get__orion_8c.html#a864d59e56f38c6a3d12b5a503737c767" target="_top" xlink:title="write_colour_map">
<polygon fill="white" stroke="black" points="104,-171.5 104,-190.5 204,-190.5 204,-171.5 104,-171.5"/>
<text text-anchor="middle" x="154" y="-178.5" font-family="Helvetica,sans-Serif" font-size="10.00">write_colour_map</text>
</a>
</g>
</g>
<!-- Node1&#45;&gt;Node26 -->
<g id="edge37" class="edge"><title>Node1&#45;&gt;Node26</title>
<path fill="none" stroke="midnightblue" d="M21.5098,-323.24C24.6003,-298.578 36.2198,-233.361 75,-200 80.5934,-195.188 87.2088,-191.554 94.1845,-188.816"/>
<polygon fill="midnightblue" stroke="midnightblue" points="95.4657,-192.079 103.858,-185.612 93.2645,-185.434 95.4657,-192.079"/>
</g>
<!-- Node27 -->
<g id="node27" class="node"><title>Node27</title>
<g id="a_node27"><a xlink:href="../../db/d53/rle__getrow_8c.html#a3602e1158189cba5e5b0f9b983cba776" target="_top" xlink:title="rle_getrow">
<polygon fill="white" stroke="black" points="120.5,-133.5 120.5,-152.5 187.5,-152.5 187.5,-133.5 120.5,-133.5"/>
<text text-anchor="middle" x="154" y="-140.5" font-family="Helvetica,sans-Serif" font-size="10.00">rle_getrow</text>
</a>
</g>
</g>
<!-- Node1&#45;&gt;Node27 -->
<g id="edge38" class="edge"><title>Node1&#45;&gt;Node27</title>
<path fill="none" stroke="midnightblue" d="M20.5033,-323.163C21.0737,-293.932 26.9218,-206.843 75,-162 84.5704,-153.074 97.6139,-148.139 110.295,-145.469"/>
<polygon fill="midnightblue" stroke="midnightblue" points="111.035,-148.894 120.314,-143.781 109.872,-141.991 111.035,-148.894"/>
</g>
<!-- Node30 -->
<g id="node30" class="node"><title>Node30</title>
<g id="a_node30"><a xlink:href="../../d9/d3b/get__orion_8c.html#a3d4d50345552a372121b5952a80c439e" target="_top" xlink:title="put_line_mono">
<polygon fill="white" stroke="black" points="111,-95.5 111,-114.5 197,-114.5 197,-95.5 111,-95.5"/>
<text text-anchor="middle" x="154" y="-102.5" font-family="Helvetica,sans-Serif" font-size="10.00">put_line_mono</text>
</a>
</g>
</g>
<!-- Node1&#45;&gt;Node30 -->
<g id="edge41" class="edge"><title>Node1&#45;&gt;Node30</title>
<path fill="none" stroke="midnightblue" d="M21.6859,-323.48C26.4813,-286.488 45.5988,-152.93 75,-124 82.1529,-116.962 91.4523,-112.379 101.125,-109.429"/>
<polygon fill="midnightblue" stroke="midnightblue" points="102.006,-112.816 110.856,-106.991 100.305,-106.026 102.006,-112.816"/>
</g>
<!-- Node33 -->
<g id="node33" class="node"><title>Node33</title>
<g id="a_node33"><a xlink:href="../../d9/d3b/get__orion_8c.html#a2342d0ec0b45c159f7b36119bfcaa3cd" target="_top" xlink:title="put_line_8">
<polygon fill="white" stroke="black" points="121.5,-57.5 121.5,-76.5 186.5,-76.5 186.5,-57.5 121.5,-57.5"/>
<text text-anchor="middle" x="154" y="-64.5" font-family="Helvetica,sans-Serif" font-size="10.00">put_line_8</text>
</a>
</g>
</g>
<!-- Node1&#45;&gt;Node33 -->
<g id="edge44" class="edge"><title>Node1&#45;&gt;Node33</title>
<path fill="none" stroke="midnightblue" d="M21.2763,-323.49C24.8168,-282.447 40.7565,-120.997 75,-86 84.5541,-76.2356 98.2264,-71.163 111.463,-68.6209"/>
<polygon fill="midnightblue" stroke="midnightblue" points="112.05,-72.072 121.424,-67.1343 111.017,-65.1487 112.05,-72.072"/>
</g>
<!-- Node34 -->
<g id="node34" class="node"><title>Node34</title>
<g id="a_node34"><a xlink:href="../../d9/d3b/get__orion_8c.html#a2bb4ef53c2b77f2313fe0db9fc952450" target="_top" xlink:title="EventLoop">
<polygon fill="white" stroke="black" points="120,-19.5 120,-38.5 188,-38.5 188,-19.5 120,-19.5"/>
<text text-anchor="middle" x="154" y="-26.5" font-family="Helvetica,sans-Serif" font-size="10.00">EventLoop</text>
</a>
</g>
</g>
<!-- Node1&#45;&gt;Node34 -->
<g id="edge46" class="edge"><title>Node1&#45;&gt;Node34</title>
<path fill="none" stroke="midnightblue" d="M20.9857,-323.281C23.4403,-278.101 35.9404,-89.0627 75,-48 84.0199,-38.5176 96.9167,-33.4351 109.633,-30.8006"/>
<polygon fill="midnightblue" stroke="midnightblue" points="110.399,-34.2223 119.715,-29.1753 109.285,-27.3115 110.399,-34.2223"/>
</g>
<!-- Node3 -->
<g id="node3" class="node"><title>Node3</title>
<g id="a_node3"><a xlink:href="../../d2/df3/rle__hdr_8c.html#a16c4da6201b3b8cf55127b9ca968d253" target="_top" xlink:title="rle_hdr_clear">
<polygon fill="white" stroke="black" points="400,-731.5 400,-750.5 480,-750.5 480,-731.5 400,-731.5"/>
<text text-anchor="middle" x="440" y="-738.5" font-family="Helvetica,sans-Serif" font-size="10.00">rle_hdr_clear</text>
</a>
</g>
</g>
<!-- Node2&#45;&gt;Node3 -->
<g id="edge2" class="edge"><title>Node2&#45;&gt;Node3</title>
<path fill="none" stroke="midnightblue" d="M162.254,-570.579C178.925,-592.012 222.155,-644.352 269,-675 307.263,-700.033 356.459,-717.827 392.074,-728.582"/>
<polygon fill="midnightblue" stroke="midnightblue" points="391.157,-731.961 401.739,-731.429 393.135,-725.246 391.157,-731.961"/>
</g>
<!-- Node5 -->
<g id="node5" class="node"><title>Node5</title>
<g id="a_node5"><a xlink:href="../../d2/df3/rle__hdr_8c.html#afc916e29aea8788e0878ca315ff69821" target="_top" xlink:title="rle_hdr_cp">
<polygon fill="white" stroke="black" points="277,-551.5 277,-570.5 345,-570.5 345,-551.5 277,-551.5"/>
<text text-anchor="middle" x="311" y="-558.5" font-family="Helvetica,sans-Serif" font-size="10.00">rle_hdr_cp</text>
</a>
</g>
</g>
<!-- Node2&#45;&gt;Node5 -->
<g id="edge4" class="edge"><title>Node2&#45;&gt;Node5</title>
<path fill="none" stroke="midnightblue" d="M189.015,-555.301C211.862,-554.061 242.164,-553.918 266.726,-554.873"/>
<polygon fill="midnightblue" stroke="midnightblue" points="266.709,-558.376 276.862,-555.349 267.038,-551.384 266.709,-558.376"/>
</g>
<!-- Node4 -->
<g id="node4" class="node"><title>Node4</title>
<g id="a_node4"><a xlink:href="../../d0/dcc/rletorla_8c.html#aafde19f7d36ca163a143579c1b125b6d" target="_top" xlink:title="free">
<polygon fill="white" stroke="black" points="542.5,-636.5 542.5,-655.5 577.5,-655.5 577.5,-636.5 542.5,-636.5"/>
<text text-anchor="middle" x="560" y="-643.5" font-family="Helvetica,sans-Serif" font-size="10.00">free</text>
</a>
</g>
</g>
<!-- Node3&#45;&gt;Node4 -->
<g id="edge3" class="edge"><title>Node3&#45;&gt;Node4</title>
<path fill="none" stroke="midnightblue" d="M473.082,-731.423C479.3,-728.858 485.566,-725.734 491,-722 514.024,-706.18 534.498,-680.991 546.819,-663.991"/>
<polygon fill="midnightblue" stroke="midnightblue" points="549.9,-665.694 552.79,-655.501 544.175,-661.667 549.9,-665.694"/>
</g>
<!-- Node5&#45;&gt;Node2 -->
<g id="edge5" class="edge"><title>Node5&#45;&gt;Node2</title>
<path fill="none" stroke="midnightblue" d="M276.862,-566.651C254.209,-567.919 223.932,-568.09 199.225,-567.163"/>
<polygon fill="midnightblue" stroke="midnightblue" points="199.164,-563.657 189.015,-566.699 198.846,-570.65 199.164,-563.657"/>
</g>
<!-- Node6 -->
<g id="node6" class="node"><title>Node6</title>
<g id="a_node6"><a xlink:href="../../d0/dcc/rletorla_8c.html#ab7e36af3707843f77cc5b4e831c2fa6d" target="_top" xlink:title="malloc">
<polygon fill="white" stroke="black" points="536.5,-560.5 536.5,-579.5 583.5,-579.5 583.5,-560.5 536.5,-560.5"/>
<text text-anchor="middle" x="560" y="-567.5" font-family="Helvetica,sans-Serif" font-size="10.00">malloc</text>
</a>
</g>
</g>
<!-- Node5&#45;&gt;Node6 -->
<g id="edge6" class="edge"><title>Node5&#45;&gt;Node6</title>
<path fill="none" stroke="midnightblue" d="M345.055,-562.204C392.374,-563.929 478.906,-567.082 526.125,-568.802"/>
<polygon fill="midnightblue" stroke="midnightblue" points="526.286,-572.31 536.407,-569.177 526.541,-565.315 526.286,-572.31"/>
</g>
<!-- Node5&#45;&gt;Node7 -->
<g id="edge7" class="edge"><title>Node5&#45;&gt;Node7</title>
<path fill="none" stroke="midnightblue" d="M345.036,-568.284C360.739,-571.746 379.699,-575.926 396.463,-579.622"/>
<polygon fill="midnightblue" stroke="midnightblue" points="396.05,-583.115 406.569,-581.85 397.557,-576.279 396.05,-583.115"/>
</g>
<!-- Node7&#45;&gt;Node4 -->
<g id="edge8" class="edge"><title>Node7&#45;&gt;Node4</title>
<path fill="none" stroke="midnightblue" d="M460.751,-598.541C480.639,-608.148 511.418,-623.016 533.22,-633.547"/>
<polygon fill="midnightblue" stroke="midnightblue" points="531.717,-636.708 542.244,-637.906 534.762,-630.405 531.717,-636.708"/>
</g>
<!-- Node7&#45;&gt;Node6 -->
<g id="edge9" class="edge"><title>Node7&#45;&gt;Node6</title>
<path fill="none" stroke="midnightblue" d="M473.244,-583.808C489.589,-581.176 509.41,-577.985 525.877,-575.333"/>
<polygon fill="midnightblue" stroke="midnightblue" points="526.827,-578.726 536.144,-573.68 525.714,-571.815 526.827,-578.726"/>
</g>
<!-- Node9 -->
<g id="node9" class="node"><title>Node9</title>
<g id="a_node9"><a xlink:href="../../d4/db0/scanargs_8c.html#a862219039664df6eb3cfced58addf830" target="_top" xlink:title="_do_scanargs">
<polygon fill="white" stroke="black" points="269,-475.5 269,-494.5 353,-494.5 353,-475.5 269,-475.5"/>
<text text-anchor="middle" x="311" y="-482.5" font-family="Helvetica,sans-Serif" font-size="10.00">_do_scanargs</text>
</a>
</g>
</g>
<!-- Node8&#45;&gt;Node9 -->
<g id="edge11" class="edge"><title>Node8&#45;&gt;Node9</title>
<path fill="none" stroke="midnightblue" d="M184.154,-485C205.102,-485 233.897,-485 258.656,-485"/>
<polygon fill="midnightblue" stroke="midnightblue" points="258.986,-488.5 268.986,-485 258.986,-481.5 258.986,-488.5"/>
</g>
<!-- Node12 -->
<g id="node12" class="node"><title>Node12</title>
<g id="a_node12"><a xlink:href="../../de/d4e/rle__open__f_8c.html#a5a0e62a00f907fce26e93b2f72adb2b0" target="_top" xlink:title="rle_open_f_noexit">
<polygon fill="white" stroke="black" points="389,-503.5 389,-522.5 491,-522.5 491,-503.5 389,-503.5"/>
<text text-anchor="middle" x="440" y="-510.5" font-family="Helvetica,sans-Serif" font-size="10.00">rle_open_f_noexit</text>
</a>
</g>
</g>
<!-- Node11&#45;&gt;Node12 -->
<g id="edge15" class="edge"><title>Node11&#45;&gt;Node12</title>
<path fill="none" stroke="midnightblue" d="M345.036,-520.399C355.382,-519.584 367.141,-518.658 378.755,-517.744"/>
<polygon fill="midnightblue" stroke="midnightblue" points="379.19,-521.22 388.885,-516.946 378.641,-514.242 379.19,-521.22"/>
</g>
<!-- Node12&#45;&gt;Node4 -->
<g id="edge18" class="edge"><title>Node12&#45;&gt;Node4</title>
<path fill="none" stroke="midnightblue" d="M449.486,-522.565C469.206,-544.791 518.355,-600.188 543.559,-628.597"/>
<polygon fill="midnightblue" stroke="midnightblue" points="541.017,-631.005 550.272,-636.163 546.254,-626.36 541.017,-631.005"/>
</g>
<!-- Node12&#45;&gt;Node6 -->
<g id="edge17" class="edge"><title>Node12&#45;&gt;Node6</title>
<path fill="none" stroke="midnightblue" d="M460.96,-522.557C470.118,-526.948 481.114,-532.229 491,-537 503.869,-543.211 518.093,-550.109 530.191,-555.985"/>
<polygon fill="midnightblue" stroke="midnightblue" points="528.847,-559.224 539.371,-560.447 531.907,-552.928 528.847,-559.224"/>
</g>
<!-- Node13 -->
<g id="node13" class="node"><title>Node13</title>
<g id="a_node13"><a xlink:href="../../de/d4e/rle__open__f_8c.html#a84fda810ae9b9bde82a6391d0b264ead" target="_top" xlink:title="my_popen">
<polygon fill="white" stroke="black" points="527,-503.5 527,-522.5 593,-522.5 593,-503.5 527,-503.5"/>
<text text-anchor="middle" x="560" y="-510.5" font-family="Helvetica,sans-Serif" font-size="10.00">my_popen</text>
</a>
</g>
</g>
<!-- Node12&#45;&gt;Node13 -->
<g id="edge16" class="edge"><title>Node12&#45;&gt;Node13</title>
<path fill="none" stroke="midnightblue" d="M491.043,-513C499.523,-513 508.255,-513 516.518,-513"/>
<polygon fill="midnightblue" stroke="midnightblue" points="516.678,-516.5 526.678,-513 516.678,-509.5 516.678,-516.5"/>
</g>
<!-- Node14&#45;&gt;Node3 -->
<g id="edge20" class="edge"><title>Node14&#45;&gt;Node3</title>
<path fill="none" stroke="midnightblue" d="M321.125,-665.718C334.753,-679.762 361.751,-705.818 389,-722 392.362,-723.997 395.971,-725.851 399.655,-727.555"/>
<polygon fill="midnightblue" stroke="midnightblue" points="398.295,-730.78 408.867,-731.478 401.038,-724.339 398.295,-730.78"/>
</g>
<!-- Node14&#45;&gt;Node4 -->
<g id="edge23" class="edge"><title>Node14&#45;&gt;Node4</title>
<path fill="none" stroke="midnightblue" d="M351.685,-654.393C402.348,-652.342 488.643,-648.848 532.184,-647.086"/>
<polygon fill="midnightblue" stroke="midnightblue" points="532.435,-650.578 542.285,-646.677 532.151,-643.584 532.435,-650.578"/>
</g>
<!-- Node14&#45;&gt;Node6 -->
<g id="edge22" class="edge"><title>Node14&#45;&gt;Node6</title>
<path fill="none" stroke="midnightblue" d="M351.669,-648.32C388.561,-640.492 444.646,-626.826 491,-608 506.527,-601.694 522.956,-592.588 535.775,-584.872"/>
<polygon fill="midnightblue" stroke="midnightblue" points="537.726,-587.781 544.407,-579.558 534.056,-581.82 537.726,-587.781"/>
</g>
<!-- Node14&#45;&gt;Node7 -->
<g id="edge21" class="edge"><title>Node14&#45;&gt;Node7</title>
<path fill="none" stroke="midnightblue" d="M328.362,-646.476C343.841,-637.558 367.796,-623.996 389,-613 395.432,-609.664 402.403,-606.216 409.04,-603.009"/>
<polygon fill="midnightblue" stroke="midnightblue" points="410.91,-605.995 418.424,-598.526 407.892,-599.679 410.91,-605.995"/>
</g>
<!-- Node15 -->
<g id="node15" class="node"><title>Node15</title>
<g id="a_node15"><a xlink:href="../../db/d53/rle__getrow_8c.html#a0ea68aa2ebeef9d4cade7282553b03d6" target="_top" xlink:title="vax_gshort">
<polygon fill="white" stroke="black" points="405.5,-693.5 405.5,-712.5 474.5,-712.5 474.5,-693.5 405.5,-693.5"/>
<text text-anchor="middle" x="440" y="-700.5" font-family="Helvetica,sans-Serif" font-size="10.00">vax_gshort</text>
</a>
</g>
</g>
<!-- Node14&#45;&gt;Node15 -->
<g id="edge24" class="edge"><title>Node14&#45;&gt;Node15</title>
<path fill="none" stroke="midnightblue" d="M337.7,-665.511C356.597,-672.504 382.515,-682.096 403.404,-689.827"/>
<polygon fill="midnightblue" stroke="midnightblue" points="402.309,-693.153 412.902,-693.342 404.738,-686.588 402.309,-693.153"/>
</g>
<!-- Node20 -->
<g id="node20" class="node"><title>Node20</title>
<g id="a_node20"><a xlink:href="../../d4/df0/gamma_8c.html#aa61041b3d539ebd857f6d831c93a967b" target="_top" xlink:title="gamma">
<polygon fill="white" stroke="black" points="285.5,-266.5 285.5,-285.5 336.5,-285.5 336.5,-266.5 285.5,-266.5"/>
<text text-anchor="middle" x="311" y="-273.5" font-family="Helvetica,sans-Serif" font-size="10.00">gamma</text>
</a>
</g>
</g>
<!-- Node19&#45;&gt;Node20 -->
<g id="edge29" class="edge"><title>Node19&#45;&gt;Node20</title>
<path fill="none" stroke="midnightblue" d="M232.954,-285.444C247.796,-283.625 262.615,-281.808 275.235,-280.261"/>
<polygon fill="midnightblue" stroke="midnightblue" points="275.771,-283.722 285.271,-279.031 274.919,-276.774 275.771,-283.722"/>
</g>
<!-- Node21 -->
<g id="node21" class="node"><title>Node21</title>
<g id="a_node21"><a xlink:href="../../d9/dbb/dither_8c.html#afad378428af71918afb13247f60d0594" target="_top" xlink:title="bwdithermap">
<polygon fill="white" stroke="black" points="272.5,-304.5 272.5,-323.5 349.5,-323.5 349.5,-304.5 272.5,-304.5"/>
<text text-anchor="middle" x="311" y="-311.5" font-family="Helvetica,sans-Serif" font-size="10.00">bwdithermap</text>
</a>
</g>
</g>
<!-- Node19&#45;&gt;Node21 -->
<g id="edge30" class="edge"><title>Node19&#45;&gt;Node21</title>
<path fill="none" stroke="midnightblue" d="M232.954,-304.556C242.923,-305.778 252.882,-306.998 262.17,-308.137"/>
<polygon fill="midnightblue" stroke="midnightblue" points="261.987,-311.641 272.338,-309.383 262.838,-304.693 261.987,-311.641"/>
</g>
<!-- Node22 -->
<g id="node22" class="node"><title>Node22</title>
<g id="a_node22"><a xlink:href="../../d9/dbb/dither_8c.html#a7ff23fcd77b62deab9304ffd3d684f47" target="_top" xlink:title="make_square">
<polygon fill="white" stroke="black" points="400,-266.5 400,-285.5 480,-285.5 480,-266.5 400,-266.5"/>
<text text-anchor="middle" x="440" y="-273.5" font-family="Helvetica,sans-Serif" font-size="10.00">make_square</text>
</a>
</g>
</g>
<!-- Node21&#45;&gt;Node22 -->
<g id="edge31" class="edge"><title>Node21&#45;&gt;Node22</title>
<path fill="none" stroke="midnightblue" d="M344.047,-304.411C360.141,-299.596 379.841,-293.701 397.117,-288.532"/>
<polygon fill="midnightblue" stroke="midnightblue" points="398.386,-291.806 406.963,-285.586 396.379,-285.099 398.386,-291.806"/>
</g>
<!-- Node24&#45;&gt;Node20 -->
<g id="edge34" class="edge"><title>Node24&#45;&gt;Node20</title>
<path fill="none" stroke="midnightblue" d="M213.599,-264.183C234.381,-266.731 257.095,-269.515 275.252,-271.741"/>
<polygon fill="midnightblue" stroke="midnightblue" points="275.016,-275.238 285.368,-272.981 275.868,-268.29 275.016,-275.238"/>
</g>
<!-- Node25 -->
<g id="node25" class="node"><title>Node25</title>
<g id="a_node25"><a xlink:href="../../d9/dbb/dither_8c.html#af497d70ad3165f9bd58878047ba22f03" target="_top" xlink:title="dithermap">
<polygon fill="white" stroke="black" points="279,-228.5 279,-247.5 343,-247.5 343,-228.5 279,-228.5"/>
<text text-anchor="middle" x="311" y="-235.5" font-family="Helvetica,sans-Serif" font-size="10.00">dithermap</text>
</a>
</g>
</g>
<!-- Node24&#45;&gt;Node25 -->
<g id="edge35" class="edge"><title>Node24&#45;&gt;Node25</title>
<path fill="none" stroke="midnightblue" d="M213.599,-249.817C231.915,-247.572 251.732,-245.143 268.607,-243.074"/>
<polygon fill="midnightblue" stroke="midnightblue" points="269.195,-246.528 278.695,-241.837 268.343,-239.58 269.195,-246.528"/>
</g>
<!-- Node25&#45;&gt;Node22 -->
<g id="edge36" class="edge"><title>Node25&#45;&gt;Node22</title>
<path fill="none" stroke="midnightblue" d="M343.068,-247.296C359.274,-252.145 379.332,-258.147 396.911,-263.406"/>
<polygon fill="midnightblue" stroke="midnightblue" points="396.343,-266.89 406.927,-266.403 398.35,-260.184 396.343,-266.89"/>
</g>
<!-- Node28 -->
<g id="node28" class="node"><title>Node28</title>
<g id="a_node28"><a xlink:href="../../db/d53/rle__getrow_8c.html#a61ac0da96b0dd8bc3cbc98afcd9b5c44" target="_top" xlink:title="bfill">
<polygon fill="white" stroke="black" points="295,-166.5 295,-185.5 327,-185.5 327,-166.5 295,-166.5"/>
<text text-anchor="middle" x="311" y="-173.5" font-family="Helvetica,sans-Serif" font-size="10.00">bfill</text>
</a>
</g>
</g>
<!-- Node27&#45;&gt;Node28 -->
<g id="edge39" class="edge"><title>Node27&#45;&gt;Node28</title>
<path fill="none" stroke="midnightblue" d="M187.872,-149.998C216.77,-156.151 258.227,-164.977 284.631,-170.599"/>
<polygon fill="midnightblue" stroke="midnightblue" points="284.106,-174.066 294.616,-172.725 285.564,-167.219 284.106,-174.066"/>
</g>
<!-- Node29 -->
<g id="node29" class="node"><title>Node29</title>
<g id="a_node29"><a xlink:href="../../d8/d7c/rle__getskip_8c.html#af6b1e1dc0867e9340f90668591c7c5b3" target="_top" xlink:title="rle_getskip">
<polygon fill="white" stroke="black" points="277,-128.5 277,-147.5 345,-147.5 345,-128.5 277,-128.5"/>
<text text-anchor="middle" x="311" y="-135.5" font-family="Helvetica,sans-Serif" font-size="10.00">rle_getskip</text>
</a>
</g>
</g>
<!-- Node27&#45;&gt;Node29 -->
<g id="edge40" class="edge"><title>Node27&#45;&gt;Node29</title>
<path fill="none" stroke="midnightblue" d="M187.872,-141.94C210.81,-141.2 241.66,-140.205 266.615,-139.4"/>
<polygon fill="midnightblue" stroke="midnightblue" points="267.027,-142.888 276.909,-139.067 266.801,-135.892 267.027,-142.888"/>
</g>
<!-- Node31 -->
<g id="node31" class="node"><title>Node31</title>
<g id="a_node31"><a xlink:href="../../d9/d3b/get__orion_8c.html#a8a99ff3e7ba5142a96a1f38fd6c7d47c" target="_top" xlink:title="write_scanline">
<polygon fill="white" stroke="black" points="269,-81.5 269,-100.5 353,-100.5 353,-81.5 269,-81.5"/>
<text text-anchor="middle" x="311" y="-88.5" font-family="Helvetica,sans-Serif" font-size="10.00">write_scanline</text>
</a>
</g>
</g>
<!-- Node30&#45;&gt;Node31 -->
<g id="edge42" class="edge"><title>Node30&#45;&gt;Node31</title>
<path fill="none" stroke="midnightblue" d="M197.354,-101.174C216.284,-99.4647 238.763,-97.4343 258.642,-95.6388"/>
<polygon fill="midnightblue" stroke="midnightblue" points="259.124,-99.1096 268.768,-94.7242 258.494,-92.138 259.124,-99.1096"/>
</g>
<!-- Node32 -->
<g id="node32" class="node"><title>Node32</title>
<g id="a_node32"><a xlink:href="../../d9/d3b/get__orion_8c.html#a9f96586153606bade642a223bd85134d" target="_top" xlink:title="translate_bits">
<polygon fill="white" stroke="black" points="400,-81.5 400,-100.5 480,-100.5 480,-81.5 400,-81.5"/>
<text text-anchor="middle" x="440" y="-88.5" font-family="Helvetica,sans-Serif" font-size="10.00">translate_bits</text>
</a>
</g>
</g>
<!-- Node31&#45;&gt;Node32 -->
<g id="edge43" class="edge"><title>Node31&#45;&gt;Node32</title>
<path fill="none" stroke="midnightblue" d="M353.233,-91C364.773,-91 377.436,-91 389.406,-91"/>
<polygon fill="midnightblue" stroke="midnightblue" points="389.701,-94.5001 399.701,-91 389.701,-87.5001 389.701,-94.5001"/>
</g>
<!-- Node33&#45;&gt;Node31 -->
<g id="edge45" class="edge"><title>Node33&#45;&gt;Node31</title>
<path fill="none" stroke="midnightblue" d="M186.741,-71.9147C207.51,-75.1306 235.111,-79.4042 258.928,-83.0921"/>
<polygon fill="midnightblue" stroke="midnightblue" points="258.455,-86.5605 268.873,-84.6319 259.526,-79.6429 258.455,-86.5605"/>
</g>
<!-- Node35 -->
<g id="node35" class="node"><title>Node35</title>
<g id="a_node35"><a xlink:href="../../d9/d3b/get__orion_8c.html#a8489741a9ae76cfba4574caf7e155074" target="_top" xlink:title="MyClose">
<polygon fill="white" stroke="black" points="282,-38.5 282,-57.5 340,-57.5 340,-38.5 282,-38.5"/>
<text text-anchor="middle" x="311" y="-45.5" font-family="Helvetica,sans-Serif" font-size="10.00">MyClose</text>
</a>
</g>
</g>
<!-- Node34&#45;&gt;Node35 -->
<g id="edge47" class="edge"><title>Node34&#45;&gt;Node35</title>
<path fill="none" stroke="midnightblue" d="M188.251,-33.076C212.8,-36.0852 246.257,-40.1864 271.887,-43.3281"/>
<polygon fill="midnightblue" stroke="midnightblue" points="271.639,-46.8238 281.991,-44.5666 272.491,-39.8759 271.639,-46.8238"/>
</g>
<!-- Node36 -->
<g id="node36" class="node"><title>Node36</title>
<g id="a_node36"><a xlink:href="../../d9/d3b/get__orion_8c.html#a964d0ba2a7f71781e3042578556c120a" target="_top" xlink:title="MyActivate">
<polygon fill="white" stroke="black" points="277,-0.5 277,-19.5 345,-19.5 345,-0.5 277,-0.5"/>
<text text-anchor="middle" x="311" y="-7.5" font-family="Helvetica,sans-Serif" font-size="10.00">MyActivate</text>
</a>
</g>
</g>
<!-- Node34&#45;&gt;Node36 -->
<g id="edge48" class="edge"><title>Node34&#45;&gt;Node36</title>
<path fill="none" stroke="midnightblue" d="M188.251,-24.924C211.135,-22.119 241.758,-18.3651 266.567,-15.3241"/>
<polygon fill="midnightblue" stroke="midnightblue" points="267.304,-18.76 276.804,-14.0692 266.452,-11.812 267.304,-18.76"/>
</g>
</g>
</svg>
        <g id="navigator" transform="translate(0 0)" fill="#404254">
                <rect fill="#f2f5e9" fill-opacity="0.5" stroke="#606060" stroke-width=".5" x="0" y="0" width="60" height="60"/>
                <use id="zoomplus" xlink:href="#zoomPlus" x="17" y="9" onmousedown="handleZoom(evt,'in')"/>
                <use id="zoomminus" xlink:href="#zoomMin" x="42" y="9" onmousedown="handleZoom(evt,'out')"/>
                <use id="reset" xlink:href="#resetDef" x="30" y="36" onmousedown="handleReset()"/>
                <g id="arrowUp" xlink:href="#dirArrow" transform="translate(30 24)" onmousedown="handlePan(0,-1)">
                  <use xlink:href="#rim" fill="#404040">
                        <set attributeName="fill" to="#808080" begin="arrowUp.mouseover" end="arrowUp.mouseout"/>
                  </use>
                  <path fill="none" stroke="white" stroke-width="1.5" d="M0,-3.0v7 M-2.5,-0.5L0,-3.0L2.5,-0.5"/>
                </g>
                <g id="arrowRight" xlink:href="#dirArrow" transform="rotate(90) translate(36 -43)" onmousedown="handlePan(1,0)">
                  <use xlink:href="#rim" fill="#404040">
                        <set attributeName="fill" to="#808080" begin="arrowRight.mouseover" end="arrowRight.mouseout"/>
                  </use>
                  <path fill="none" stroke="white" stroke-width="1.5" d="M0,-3.0v7 M-2.5,-0.5L0,-3.0L2.5,-0.5"/>
                </g>
                <g id="arrowDown" xlink:href="#dirArrow" transform="rotate(180) translate(-30 -48)" onmousedown="handlePan(0,1)">
                  <use xlink:href="#rim" fill="#404040">
                        <set attributeName="fill" to="#808080" begin="arrowDown.mouseover" end="arrowDown.mouseout"/>
                  </use>
                  <path fill="none" stroke="white" stroke-width="1.5" d="M0,-3.0v7 M-2.5,-0.5L0,-3.0L2.5,-0.5"/>
                </g>
                <g id="arrowLeft" xlink:href="#dirArrow" transform="rotate(270) translate(-36 17)" onmousedown="handlePan(-1,0)">
                  <use xlink:href="#rim" fill="#404040">
                        <set attributeName="fill" to="#808080" begin="arrowLeft.mouseover" end="arrowLeft.mouseout"/>
                  </use>
                  <path fill="none" stroke="white" stroke-width="1.5" d="M0,-3.0v7 M-2.5,-0.5L0,-3.0L2.5,-0.5"/>
                </g>
        </g>
        <svg viewBox="0 0 15 15" width="100%" height="30px" preserveAspectRatio="xMaxYMin meet">
         <g id="arrow_out" transform="scale(0.3 0.3)">
          <a xlink:href="get__orion_8c_a0708a0954f39ecdc7aa901286295ad01_cgraph_org.svg" target="_base">
           <rect id="button" ry="5" rx="5" y="6" x="6" height="38" width="38"
                fill="#f2f5e9" fill-opacity="0.5" stroke="#606060" stroke-width="1.0"/>
           <path id="arrow"
             d="M 11.500037,31.436501 C 11.940474,20.09759 22.043105,11.32322 32.158766,21.979434 L 37.068811,17.246167 C 37.068811,17.246167 37.088388,32 37.088388,32 L 22.160133,31.978069 C 22.160133,31.978069 26.997745,27.140456 26.997745,27.140456 C 18.528582,18.264221 13.291696,25.230495 11.500037,31.436501 z"
             style="fill:#404040;"/>
          </a>
         </g>
        </svg>
</svg>
