<?xml version="1.0" encoding="UTF-8" standalone="no"?>
<!DOCTYPE svg PUBLIC "-//W3C//DTD SVG 1.1//EN"
 "http://www.w3.org/Graphics/SVG/1.1/DTD/svg11.dtd">
<!-- Generated by graphviz version 2.38.0 (20140413.2041)
 -->
<!-- Title: write_rle Pages: 1 -->
<svg width="336pt" height="256pt"
 viewBox="0.00 0.00 336.00 256.00" xmlns="http://www.w3.org/2000/svg" xmlns:xlink="http://www.w3.org/1999/xlink">
<g id="graph0" class="graph" transform="scale(1 1) rotate(0) translate(4 252)">
<title>write_rle</title>
<polygon fill="white" stroke="none" points="-4,4 -4,-252 332,-252 332,4 -4,4"/>
<!-- Node1 -->
<g id="node1" class="node"><title>Node1</title>
<polygon fill="#bfbfbf" stroke="black" points="0,-114.5 0,-133.5 57,-133.5 57,-114.5 0,-114.5"/>
<text text-anchor="middle" x="28.5" y="-121.5" font-family="Helvetica,sans-Serif" font-size="10.00">write_rle</text>
</g>
<!-- Node2 -->
<g id="node2" class="node"><title>Node2</title>
<g id="a_node2"><a xlink:href="../../dc/d7b/aliastorle_8c.html#a384685ece560573096a376533d96b64a" target="_top" xlink:title="bitmapcmap_to_rlecmap">
<polygon fill="white" stroke="black" points="93,-228.5 93,-247.5 224,-247.5 224,-228.5 93,-228.5"/>
<text text-anchor="middle" x="158.5" y="-235.5" font-family="Helvetica,sans-Serif" font-size="10.00">bitmapcmap_to_rlecmap</text>
</a>
</g>
</g>
<!-- Node1&#45;&gt;Node2 -->
<g id="edge1" class="edge"><title>Node1&#45;&gt;Node2</title>
<path fill="none" stroke="midnightblue" d="M33.8318,-133.578C42.5167,-151.762 63.7601,-191.48 93,-214 98.406,-218.164 104.61,-221.664 110.987,-224.59"/>
<polygon fill="midnightblue" stroke="midnightblue" points="109.802,-227.887 120.38,-228.475 112.478,-221.419 109.802,-227.887"/>
</g>
<!-- Node3 -->
<g id="node3" class="node"><title>Node3</title>
<g id="a_node3"><a xlink:href="../../dc/d7b/aliastorle_8c.html#aebf7c8907c7157b430ee288f22563a9d" target="_top" xlink:title="Malloc">
<polygon fill="white" stroke="black" points="270.5,-209.5 270.5,-228.5 317.5,-228.5 317.5,-209.5 270.5,-209.5"/>
<text text-anchor="middle" x="294" y="-216.5" font-family="Helvetica,sans-Serif" font-size="10.00">Malloc</text>
</a>
</g>
</g>
<!-- Node1&#45;&gt;Node3 -->
<g id="edge5" class="edge"><title>Node1&#45;&gt;Node3</title>
<path fill="none" stroke="midnightblue" d="M37.3819,-133.832C48.3819,-146.829 69.6329,-169.433 93,-181 147.519,-207.987 219.136,-215.862 260.214,-218.126"/>
<polygon fill="midnightblue" stroke="midnightblue" points="260.308,-221.635 270.461,-218.608 260.637,-214.642 260.308,-221.635"/>
</g>
<!-- Node4 -->
<g id="node4" class="node"><title>Node4</title>
<g id="a_node4"><a xlink:href="../../d9/d2a/rle__putrow_8c.html#af88a82b331cd6f425d2a2cc1623944c6" target="_top" xlink:title="rle_put_setup">
<polygon fill="white" stroke="black" points="118.5,-152.5 118.5,-171.5 198.5,-171.5 198.5,-152.5 118.5,-152.5"/>
<text text-anchor="middle" x="158.5" y="-159.5" font-family="Helvetica,sans-Serif" font-size="10.00">rle_put_setup</text>
</a>
</g>
</g>
<!-- Node1&#45;&gt;Node4 -->
<g id="edge3" class="edge"><title>Node1&#45;&gt;Node4</title>
<path fill="none" stroke="midnightblue" d="M57.3113,-132.349C68.4101,-135.674 81.3068,-139.528 93,-143 100.236,-145.148 107.932,-147.424 115.394,-149.625"/>
<polygon fill="midnightblue" stroke="midnightblue" points="114.429,-152.989 125.01,-152.459 116.407,-146.275 114.429,-152.989"/>
</g>
<!-- Node6 -->
<g id="node6" class="node"><title>Node6</title>
<g id="a_node6"><a xlink:href="../../dc/d7b/aliastorle_8c.html#ac2c29217831f208a3b22bae552c5124f" target="_top" xlink:title="error">
<polygon fill="white" stroke="black" points="138.5,-114.5 138.5,-133.5 178.5,-133.5 178.5,-114.5 138.5,-114.5"/>
<text text-anchor="middle" x="158.5" y="-121.5" font-family="Helvetica,sans-Serif" font-size="10.00">error</text>
</a>
</g>
</g>
<!-- Node1&#45;&gt;Node6 -->
<g id="edge6" class="edge"><title>Node1&#45;&gt;Node6</title>
<path fill="none" stroke="midnightblue" d="M57.2741,-124C78.2827,-124 107.057,-124 128.386,-124"/>
<polygon fill="midnightblue" stroke="midnightblue" points="128.486,-127.5 138.486,-124 128.486,-120.5 128.486,-127.5"/>
</g>
<!-- Node7 -->
<g id="node7" class="node"><title>Node7</title>
<g id="a_node7"><a xlink:href="../../d9/d2a/rle__putrow_8c.html#aa26532b01bc4f49b7383765cdc23ea72" target="_top" xlink:title="rle_putrow">
<polygon fill="white" stroke="black" points="125.5,-76.5 125.5,-95.5 191.5,-95.5 191.5,-76.5 125.5,-76.5"/>
<text text-anchor="middle" x="158.5" y="-83.5" font-family="Helvetica,sans-Serif" font-size="10.00">rle_putrow</text>
</a>
</g>
</g>
<!-- Node1&#45;&gt;Node7 -->
<g id="edge7" class="edge"><title>Node1&#45;&gt;Node7</title>
<path fill="none" stroke="midnightblue" d="M57.3113,-115.651C68.4101,-112.326 81.3068,-108.472 93,-105 100.314,-102.828 108.098,-100.527 115.635,-98.3042"/>
<polygon fill="midnightblue" stroke="midnightblue" points="116.737,-101.628 125.34,-95.4442 114.759,-94.9136 116.737,-101.628"/>
</g>
<!-- Node10 -->
<g id="node10" class="node"><title>Node10</title>
<g id="a_node10"><a xlink:href="../../d0/dcc/rletorla_8c.html#aafde19f7d36ca163a143579c1b125b6d" target="_top" xlink:title="free">
<polygon fill="white" stroke="black" points="276.5,-19.5 276.5,-38.5 311.5,-38.5 311.5,-19.5 276.5,-19.5"/>
<text text-anchor="middle" x="294" y="-26.5" font-family="Helvetica,sans-Serif" font-size="10.00">free</text>
</a>
</g>
</g>
<!-- Node1&#45;&gt;Node10 -->
<g id="edge10" class="edge"><title>Node1&#45;&gt;Node10</title>
<path fill="none" stroke="midnightblue" d="M37.3819,-114.168C48.3819,-101.171 69.6329,-78.5666 93,-67 150.183,-38.695 226.174,-31.4136 266.01,-29.5805"/>
<polygon fill="midnightblue" stroke="midnightblue" points="266.381,-33.0691 276.242,-29.195 266.117,-26.0741 266.381,-33.0691"/>
</g>
<!-- Node11 -->
<g id="node11" class="node"><title>Node11</title>
<g id="a_node11"><a xlink:href="../../d9/d2a/rle__putrow_8c.html#af4fab734a5d227ad2ae95840f56fff3b" target="_top" xlink:title="rle_puteof">
<polygon fill="white" stroke="black" points="126.5,-0.5 126.5,-19.5 190.5,-19.5 190.5,-0.5 126.5,-0.5"/>
<text text-anchor="middle" x="158.5" y="-7.5" font-family="Helvetica,sans-Serif" font-size="10.00">rle_puteof</text>
</a>
</g>
</g>
<!-- Node1&#45;&gt;Node11 -->
<g id="edge11" class="edge"><title>Node1&#45;&gt;Node11</title>
<path fill="none" stroke="midnightblue" d="M33.8318,-114.422C42.5167,-96.2376 63.7601,-56.5197 93,-34 100.084,-28.5442 108.538,-24.2272 116.956,-20.8494"/>
<polygon fill="midnightblue" stroke="midnightblue" points="118.169,-24.1326 126.37,-17.4243 115.776,-17.5545 118.169,-24.1326"/>
</g>
<!-- Node2&#45;&gt;Node3 -->
<g id="edge2" class="edge"><title>Node2&#45;&gt;Node3</title>
<path fill="none" stroke="midnightblue" d="M224.295,-228.778C236.881,-226.987 249.559,-225.183 260.539,-223.62"/>
<polygon fill="midnightblue" stroke="midnightblue" points="261.08,-227.078 270.487,-222.204 260.093,-220.148 261.08,-227.078"/>
</g>
<!-- Node5 -->
<g id="node5" class="node"><title>Node5</title>
<g id="a_node5"><a xlink:href="../../d9/d2a/rle__putrow_8c.html#a46d9789104d5d1f09253a808fdad5346" target="_top" xlink:title="rle_put_init">
<polygon fill="white" stroke="black" points="260,-152.5 260,-171.5 328,-171.5 328,-152.5 260,-152.5"/>
<text text-anchor="middle" x="294" y="-159.5" font-family="Helvetica,sans-Serif" font-size="10.00">rle_put_init</text>
</a>
</g>
</g>
<!-- Node4&#45;&gt;Node5 -->
<g id="edge4" class="edge"><title>Node4&#45;&gt;Node5</title>
<path fill="none" stroke="midnightblue" d="M198.832,-162C214.732,-162 233.143,-162 249.446,-162"/>
<polygon fill="midnightblue" stroke="midnightblue" points="249.807,-165.5 259.807,-162 249.807,-158.5 249.807,-165.5"/>
</g>
<!-- Node8 -->
<g id="node8" class="node"><title>Node8</title>
<g id="a_node8"><a xlink:href="../../d0/dcc/rletorla_8c.html#ab7e36af3707843f77cc5b4e831c2fa6d" target="_top" xlink:title="malloc">
<polygon fill="white" stroke="black" points="270.5,-104.5 270.5,-123.5 317.5,-123.5 317.5,-104.5 270.5,-104.5"/>
<text text-anchor="middle" x="294" y="-111.5" font-family="Helvetica,sans-Serif" font-size="10.00">malloc</text>
</a>
</g>
</g>
<!-- Node7&#45;&gt;Node8 -->
<g id="edge8" class="edge"><title>Node7&#45;&gt;Node8</title>
<path fill="none" stroke="midnightblue" d="M191.817,-92.778C212.545,-97.1256 239.374,-102.753 260.197,-107.12"/>
<polygon fill="midnightblue" stroke="midnightblue" points="259.673,-110.586 270.179,-109.213 261.11,-103.735 259.673,-110.586"/>
</g>
<!-- Node9 -->
<g id="node9" class="node"><title>Node9</title>
<g id="a_node9"><a xlink:href="../../d9/d2a/rle__putrow_8c.html#aaa4133bf4a6cbf287444448497631f26" target="_top" xlink:title="findruns">
<polygon fill="white" stroke="black" points="267,-66.5 267,-85.5 321,-85.5 321,-66.5 267,-66.5"/>
<text text-anchor="middle" x="294" y="-73.5" font-family="Helvetica,sans-Serif" font-size="10.00">findruns</text>
</a>
</g>
</g>
<!-- Node7&#45;&gt;Node9 -->
<g id="edge9" class="edge"><title>Node7&#45;&gt;Node9</title>
<path fill="none" stroke="midnightblue" d="M191.817,-83.5793C211.399,-82.1124 236.426,-80.2377 256.69,-78.7198"/>
<polygon fill="midnightblue" stroke="midnightblue" points="257.088,-82.1999 266.799,-77.9626 256.565,-75.2195 257.088,-82.1999"/>
</g>
<!-- Node11&#45;&gt;Node10 -->
<g id="edge12" class="edge"><title>Node11&#45;&gt;Node10</title>
<path fill="none" stroke="midnightblue" d="M190.8,-14.4547C213.611,-17.7012 244.204,-22.0553 265.957,-25.1512"/>
<polygon fill="midnightblue" stroke="midnightblue" points="265.753,-28.6573 276.146,-26.6013 266.739,-21.7271 265.753,-28.6573"/>
</g>
</g>
</svg>
