<?xml version="1.0" encoding="UTF-8" standalone="no"?>
<!DOCTYPE svg PUBLIC "-//W3C//DTD SVG 1.1//EN"
 "http://www.w3.org/Graphics/SVG/1.1/DTD/svg11.dtd">
<!-- Generated by graphviz version 2.38.0 (20140413.2041)
 -->
<!-- Title: read_file Pages: 1 -->
<svg width="149pt" height="66pt"
 viewBox="0.00 0.00 149.00 66.00" xmlns="http://www.w3.org/2000/svg" xmlns:xlink="http://www.w3.org/1999/xlink">
<g id="graph0" class="graph" transform="scale(1 1) rotate(0) translate(4 62)">
<title>read_file</title>
<polygon fill="white" stroke="none" points="-4,4 -4,-62 145,-62 145,4 -4,4"/>
<!-- Node1 -->
<g id="node1" class="node"><title>Node1</title>
<polygon fill="#bfbfbf" stroke="black" points="0,-19.5 0,-38.5 58,-38.5 58,-19.5 0,-19.5"/>
<text text-anchor="middle" x="29" y="-26.5" font-family="Helvetica,sans-Serif" font-size="10.00">read_file</text>
</g>
<!-- Node2 -->
<g id="node2" class="node"><title>Node2</title>
<g id="a_node2"><a xlink:href="../../dc/d7b/aliastorle_8c.html#af10a86a61ba4b55f464bd4a25a74dbde" target="_top" xlink:title="filelen">
<polygon fill="white" stroke="black" points="95.5,-38.5 95.5,-57.5 139.5,-57.5 139.5,-38.5 95.5,-38.5"/>
<text text-anchor="middle" x="117.5" y="-45.5" font-family="Helvetica,sans-Serif" font-size="10.00">filelen</text>
</a>
</g>
</g>
<!-- Node1&#45;&gt;Node2 -->
<g id="edge1" class="edge"><title>Node1&#45;&gt;Node2</title>
<path fill="none" stroke="midnightblue" d="M58.3233,-35.2213C66.9643,-37.1193 76.5114,-39.2164 85.33,-41.1534"/>
<polygon fill="midnightblue" stroke="midnightblue" points="84.7316,-44.6053 95.2497,-43.3323 86.2335,-37.7683 84.7316,-44.6053"/>
</g>
<!-- Node3 -->
<g id="node3" class="node"><title>Node3</title>
<g id="a_node3"><a xlink:href="../../dc/d7b/aliastorle_8c.html#aebf7c8907c7157b430ee288f22563a9d" target="_top" xlink:title="Malloc">
<polygon fill="white" stroke="black" points="94,-0.5 94,-19.5 141,-19.5 141,-0.5 94,-0.5"/>
<text text-anchor="middle" x="117.5" y="-7.5" font-family="Helvetica,sans-Serif" font-size="10.00">Malloc</text>
</a>
</g>
</g>
<!-- Node1&#45;&gt;Node3 -->
<g id="edge2" class="edge"><title>Node1&#45;&gt;Node3</title>
<path fill="none" stroke="midnightblue" d="M58.3233,-22.7787C66.5201,-20.9782 75.5322,-18.9987 83.9644,-17.1465"/>
<polygon fill="midnightblue" stroke="midnightblue" points="84.8522,-20.5351 93.8685,-14.9711 83.3504,-13.698 84.8522,-20.5351"/>
</g>
</g>
</svg>
