<?xml version="1.0" encoding="UTF-8" standalone="no"?>
<!DOCTYPE svg PUBLIC "-//W3C//DTD SVG 1.1//EN"
 "http://www.w3.org/Graphics/SVG/1.1/DTD/svg11.dtd">
<!-- Generated by graphviz version 2.38.0 (20140413.2041)
 -->
<!-- Title: read_alias Pages: 1 -->
<svg width="216pt" height="370pt"
 viewBox="0.00 0.00 216.00 370.00" xmlns="http://www.w3.org/2000/svg" xmlns:xlink="http://www.w3.org/1999/xlink">
<g id="graph0" class="graph" transform="scale(1 1) rotate(0) translate(4 366)">
<title>read_alias</title>
<polygon fill="white" stroke="none" points="-4,4 -4,-366 212,-366 212,4 -4,4"/>
<!-- Node1 -->
<g id="node1" class="node"><title>Node1</title>
<polygon fill="#bfbfbf" stroke="black" points="0,-171.5 0,-190.5 66,-190.5 66,-171.5 0,-171.5"/>
<text text-anchor="middle" x="33" y="-178.5" font-family="Helvetica,sans-Serif" font-size="10.00">read_alias</text>
</g>
<!-- Node2 -->
<g id="node2" class="node"><title>Node2</title>
<g id="a_node2"><a xlink:href="../../dc/d7b/aliastorle_8c.html#ac2c29217831f208a3b22bae552c5124f" target="_top" xlink:title="error">
<polygon fill="white" stroke="black" points="135,-342.5 135,-361.5 175,-361.5 175,-342.5 135,-342.5"/>
<text text-anchor="middle" x="155" y="-349.5" font-family="Helvetica,sans-Serif" font-size="10.00">error</text>
</a>
</g>
</g>
<!-- Node1&#45;&gt;Node2 -->
<g id="edge1" class="edge"><title>Node1&#45;&gt;Node2</title>
<path fill="none" stroke="midnightblue" d="M35.636,-190.703C40.6138,-217.282 58.0118,-292.002 102,-333 108.398,-338.963 116.819,-343.088 125.015,-345.928"/>
<polygon fill="midnightblue" stroke="midnightblue" points="124.169,-349.327 134.75,-348.791 126.144,-342.611 124.169,-349.327"/>
</g>
<!-- Node3 -->
<g id="node3" class="node"><title>Node3</title>
<g id="a_node3"><a xlink:href="../../dc/d7b/aliastorle_8c.html#a8274f02e7a62caa541e232f73c7a9393" target="_top" xlink:title="read_file">
<polygon fill="white" stroke="black" points="126,-304.5 126,-323.5 184,-323.5 184,-304.5 126,-304.5"/>
<text text-anchor="middle" x="155" y="-311.5" font-family="Helvetica,sans-Serif" font-size="10.00">read_file</text>
</a>
</g>
</g>
<!-- Node1&#45;&gt;Node3 -->
<g id="edge2" class="edge"><title>Node1&#45;&gt;Node3</title>
<path fill="none" stroke="midnightblue" d="M37.2421,-190.759C44.9653,-212.559 66.5011,-265.604 102,-295 106.303,-298.563 111.333,-301.488 116.537,-303.88"/>
<polygon fill="midnightblue" stroke="midnightblue" points="115.389,-307.19 125.975,-307.635 117.977,-300.686 115.389,-307.19"/>
</g>
<!-- Node4 -->
<g id="node4" class="node"><title>Node4</title>
<g id="a_node4"><a xlink:href="../../dc/d7b/aliastorle_8c.html#acbefa4040b3c901c13682193af830070" target="_top" xlink:title="read_alias_header">
<polygon fill="white" stroke="black" points="102,-266.5 102,-285.5 208,-285.5 208,-266.5 102,-266.5"/>
<text text-anchor="middle" x="155" y="-273.5" font-family="Helvetica,sans-Serif" font-size="10.00">read_alias_header</text>
</a>
</g>
</g>
<!-- Node1&#45;&gt;Node4 -->
<g id="edge3" class="edge"><title>Node1&#45;&gt;Node4</title>
<path fill="none" stroke="midnightblue" d="M40.1839,-190.539C50.942,-206.435 74.5927,-238.426 102,-257 104.872,-258.946 107.967,-260.721 111.167,-262.335"/>
<polygon fill="midnightblue" stroke="midnightblue" points="109.802,-265.559 120.358,-266.463 112.67,-259.173 109.802,-265.559"/>
</g>
<!-- Node5 -->
<g id="node5" class="node"><title>Node5</title>
<g id="a_node5"><a xlink:href="../../dc/d7b/aliastorle_8c.html#aebf7c8907c7157b430ee288f22563a9d" target="_top" xlink:title="Malloc">
<polygon fill="white" stroke="black" points="131.5,-228.5 131.5,-247.5 178.5,-247.5 178.5,-228.5 131.5,-228.5"/>
<text text-anchor="middle" x="155" y="-235.5" font-family="Helvetica,sans-Serif" font-size="10.00">Malloc</text>
</a>
</g>
</g>
<!-- Node1&#45;&gt;Node5 -->
<g id="edge4" class="edge"><title>Node1&#45;&gt;Node5</title>
<path fill="none" stroke="midnightblue" d="M49.5664,-190.638C63.1148,-198.797 83.4376,-210.488 102,-219 108.34,-221.907 115.263,-224.693 121.93,-227.192"/>
<polygon fill="midnightblue" stroke="midnightblue" points="120.823,-230.513 131.417,-230.63 123.208,-223.932 120.823,-230.513"/>
</g>
<!-- Node6 -->
<g id="node6" class="node"><title>Node6</title>
<g id="a_node6"><a xlink:href="../../dc/d7b/aliastorle_8c.html#a436a6224e03e9d07212639e92c6db20d" target="_top" xlink:title="create_alias_cmap">
<polygon fill="white" stroke="black" points="102,-190.5 102,-209.5 208,-209.5 208,-190.5 102,-190.5"/>
<text text-anchor="middle" x="155" y="-197.5" font-family="Helvetica,sans-Serif" font-size="10.00">create_alias_cmap</text>
</a>
</g>
</g>
<!-- Node1&#45;&gt;Node6 -->
<g id="edge5" class="edge"><title>Node1&#45;&gt;Node6</title>
<path fill="none" stroke="midnightblue" d="M66.1578,-186.092C74.1275,-187.354 82.9394,-188.749 91.8151,-190.154"/>
<polygon fill="midnightblue" stroke="midnightblue" points="91.3973,-193.631 101.822,-191.738 92.4921,-186.718 91.3973,-193.631"/>
</g>
<!-- Node7 -->
<g id="node7" class="node"><title>Node7</title>
<g id="a_node7"><a xlink:href="../../dc/d7b/aliastorle_8c.html#aa46a1e023b0476481fbefd6b763af638" target="_top" xlink:title="uncode_alias24">
<polygon fill="white" stroke="black" points="109.5,-152.5 109.5,-171.5 200.5,-171.5 200.5,-152.5 109.5,-152.5"/>
<text text-anchor="middle" x="155" y="-159.5" font-family="Helvetica,sans-Serif" font-size="10.00">uncode_alias24</text>
</a>
</g>
</g>
<!-- Node1&#45;&gt;Node7 -->
<g id="edge6" class="edge"><title>Node1&#45;&gt;Node7</title>
<path fill="none" stroke="midnightblue" d="M66.1578,-175.908C76.2569,-174.309 87.7083,-172.496 98.9282,-170.72"/>
<polygon fill="midnightblue" stroke="midnightblue" points="99.7922,-174.127 109.122,-169.106 98.6974,-167.213 99.7922,-174.127"/>
</g>
<!-- Node8 -->
<g id="node8" class="node"><title>Node8</title>
<g id="a_node8"><a xlink:href="../../dc/d7b/aliastorle_8c.html#aae1b401f0b6fb8d096300bc6d41dec99" target="_top" xlink:title="uncode_alias">
<polygon fill="white" stroke="black" points="115.5,-114.5 115.5,-133.5 194.5,-133.5 194.5,-114.5 115.5,-114.5"/>
<text text-anchor="middle" x="155" y="-121.5" font-family="Helvetica,sans-Serif" font-size="10.00">uncode_alias</text>
</a>
</g>
</g>
<!-- Node1&#45;&gt;Node8 -->
<g id="edge7" class="edge"><title>Node1&#45;&gt;Node8</title>
<path fill="none" stroke="midnightblue" d="M49.5664,-171.362C63.1148,-163.203 83.4376,-151.512 102,-143 106.409,-140.978 111.101,-139.015 115.793,-137.166"/>
<polygon fill="midnightblue" stroke="midnightblue" points="117.222,-140.367 125.332,-133.549 114.74,-133.822 117.222,-140.367"/>
</g>
<!-- Node9 -->
<g id="node9" class="node"><title>Node9</title>
<g id="a_node9"><a xlink:href="../../d0/dcc/rletorla_8c.html#aafde19f7d36ca163a143579c1b125b6d" target="_top" xlink:title="free">
<polygon fill="white" stroke="black" points="137.5,-76.5 137.5,-95.5 172.5,-95.5 172.5,-76.5 137.5,-76.5"/>
<text text-anchor="middle" x="155" y="-83.5" font-family="Helvetica,sans-Serif" font-size="10.00">free</text>
</a>
</g>
</g>
<!-- Node1&#45;&gt;Node9 -->
<g id="edge8" class="edge"><title>Node1&#45;&gt;Node9</title>
<path fill="none" stroke="midnightblue" d="M40.1839,-171.461C50.942,-155.565 74.5927,-123.574 102,-105 109.663,-99.8067 118.92,-95.8317 127.488,-92.8935"/>
<polygon fill="midnightblue" stroke="midnightblue" points="128.58,-96.2192 137.091,-89.9095 126.503,-89.5345 128.58,-96.2192"/>
</g>
<!-- Node10 -->
<g id="node10" class="node"><title>Node10</title>
<g id="a_node10"><a xlink:href="../../dc/d7b/aliastorle_8c.html#ab93f387e92d58014f819bb362f887606" target="_top" xlink:title="read_line_alias24">
<polygon fill="white" stroke="black" points="104.5,-38.5 104.5,-57.5 205.5,-57.5 205.5,-38.5 104.5,-38.5"/>
<text text-anchor="middle" x="155" y="-45.5" font-family="Helvetica,sans-Serif" font-size="10.00">read_line_alias24</text>
</a>
</g>
</g>
<!-- Node1&#45;&gt;Node10 -->
<g id="edge9" class="edge"><title>Node1&#45;&gt;Node10</title>
<path fill="none" stroke="midnightblue" d="M37.2421,-171.241C44.9653,-149.441 66.5011,-96.3964 102,-67 104.04,-65.3104 106.244,-63.7643 108.553,-62.3505"/>
<polygon fill="midnightblue" stroke="midnightblue" points="110.584,-65.2398 117.85,-57.529 107.361,-59.0256 110.584,-65.2398"/>
</g>
<!-- Node11 -->
<g id="node11" class="node"><title>Node11</title>
<g id="a_node11"><a xlink:href="../../dc/d7b/aliastorle_8c.html#aa4e8463877c452ecf28ca77a8d23e059" target="_top" xlink:title="read_line_alias">
<polygon fill="white" stroke="black" points="110.5,-0.5 110.5,-19.5 199.5,-19.5 199.5,-0.5 110.5,-0.5"/>
<text text-anchor="middle" x="155" y="-7.5" font-family="Helvetica,sans-Serif" font-size="10.00">read_line_alias</text>
</a>
</g>
</g>
<!-- Node1&#45;&gt;Node11 -->
<g id="edge10" class="edge"><title>Node1&#45;&gt;Node11</title>
<path fill="none" stroke="midnightblue" d="M35.636,-171.297C40.6138,-144.718 58.0118,-69.9976 102,-29 103.685,-27.4293 105.511,-25.9861 107.436,-24.6604"/>
<polygon fill="midnightblue" stroke="midnightblue" points="109.423,-27.5568 116.383,-19.5688 105.96,-21.4729 109.423,-27.5568"/>
</g>
</g>
</svg>
