<?xml version="1.0" encoding="UTF-8" standalone="no"?>
<!DOCTYPE svg PUBLIC "-//W3C//DTD SVG 1.1//EN"
 "http://www.w3.org/Graphics/SVG/1.1/DTD/svg11.dtd">
<!-- Generated by graphviz version 2.38.0 (20140413.2041)
 -->
<!-- Title: clear_scan Pages: 1 -->
<svg width="241pt" height="28pt"
 viewBox="0.00 0.00 241.00 28.00" xmlns="http://www.w3.org/2000/svg" xmlns:xlink="http://www.w3.org/1999/xlink">
<g id="graph0" class="graph" transform="scale(1 1) rotate(0) translate(4 24)">
<title>clear_scan</title>
<polygon fill="white" stroke="none" points="-4,4 -4,-24 237,-24 237,4 -4,4"/>
<!-- Node1 -->
<g id="node1" class="node"><title>Node1</title>
<polygon fill="#bfbfbf" stroke="black" points="0,-0.5 0,-19.5 68,-19.5 68,-0.5 0,-0.5"/>
<text text-anchor="middle" x="34" y="-7.5" font-family="Helvetica,sans-Serif" font-size="10.00">clear_scan</text>
</g>
<!-- Node2 -->
<g id="node2" class="node"><title>Node2</title>
<g id="a_node2"><a xlink:href="../../d9/dea/getcx3d_8c.html#ac43e38fef452c4a15d14abb67019a1b5" target="_top" xlink:title="getcx3d">
<polygon fill="white" stroke="black" points="104,-0.5 104,-19.5 158,-19.5 158,-0.5 104,-0.5"/>
<text text-anchor="middle" x="131" y="-7.5" font-family="Helvetica,sans-Serif" font-size="10.00">getcx3d</text>
</a>
</g>
</g>
<!-- Node1&#45;&gt;Node2 -->
<g id="edge1" class="edge"><title>Node1&#45;&gt;Node2</title>
<path fill="none" stroke="midnightblue" d="M78.2976,-10C87.0117,-10 95.9159,-10 103.825,-10"/>
<polygon fill="midnightblue" stroke="midnightblue" points="78.2264,-6.5001 68.2264,-10 78.2264,-13.5001 78.2264,-6.5001"/>
</g>
<!-- Node3 -->
<g id="node3" class="node"><title>Node3</title>
<g id="a_node3"><a xlink:href="../../d9/dea/getcx3d_8c.html#a0708a0954f39ecdc7aa901286295ad01" target="_top" xlink:title="main">
<polygon fill="white" stroke="black" points="194,-0.5 194,-19.5 233,-19.5 233,-0.5 194,-0.5"/>
<text text-anchor="middle" x="213.5" y="-7.5" font-family="Helvetica,sans-Serif" font-size="10.00">main</text>
</a>
</g>
</g>
<!-- Node2&#45;&gt;Node3 -->
<g id="edge2" class="edge"><title>Node2&#45;&gt;Node3</title>
<path fill="none" stroke="midnightblue" d="M168.503,-10C177.326,-10 186.392,-10 193.984,-10"/>
<polygon fill="midnightblue" stroke="midnightblue" points="168.359,-6.5001 158.359,-10 168.359,-13.5001 168.359,-6.5001"/>
</g>
</g>
</svg>
