<?xml version="1.0" encoding="UTF-8" standalone="no"?>
<!DOCTYPE svg PUBLIC "-//W3C//DTD SVG 1.1//EN"
 "http://www.w3.org/Graphics/SVG/1.1/DTD/svg11.dtd">
<!-- Generated by graphviz version 2.38.0 (20140413.2041)
 -->
<!-- Title: scanline Pages: 1 -->
<svg width="132pt" height="66pt"
 viewBox="0.00 0.00 132.00 66.00" xmlns="http://www.w3.org/2000/svg" xmlns:xlink="http://www.w3.org/1999/xlink">
<g id="graph0" class="graph" transform="scale(1 1) rotate(0) translate(4 62)">
<title>scanline</title>
<polygon fill="white" stroke="none" points="-4,4 -4,-62 128,-62 128,4 -4,4"/>
<!-- Node1 -->
<g id="node1" class="node"><title>Node1</title>
<polygon fill="#bfbfbf" stroke="black" points="0,-19.5 0,-38.5 56,-38.5 56,-19.5 0,-19.5"/>
<text text-anchor="middle" x="28" y="-26.5" font-family="Helvetica,sans-Serif" font-size="10.00">scanline</text>
</g>
<!-- Node2 -->
<g id="node2" class="node"><title>Node2</title>
<g id="a_node2"><a xlink:href="../../d9/dea/getcx3d_8c.html#a444359d41bbb943d5561a505afcf600c" target="_top" xlink:title="run">
<polygon fill="white" stroke="black" points="92,-38.5 92,-57.5 124,-57.5 124,-38.5 92,-38.5"/>
<text text-anchor="middle" x="108" y="-45.5" font-family="Helvetica,sans-Serif" font-size="10.00">run</text>
</a>
</g>
</g>
<!-- Node1&#45;&gt;Node2 -->
<g id="edge1" class="edge"><title>Node1&#45;&gt;Node2</title>
<path fill="none" stroke="midnightblue" d="M56.2806,-35.6453C64.6825,-37.6919 73.8844,-39.9334 82.1163,-41.9386"/>
<polygon fill="midnightblue" stroke="midnightblue" points="81.3472,-45.3535 91.8915,-44.3197 83.0039,-38.5524 81.3472,-45.3535"/>
</g>
<!-- Node3 -->
<g id="node3" class="node"><title>Node3</title>
<g id="a_node3"><a xlink:href="../../d9/dea/getcx3d_8c.html#a72c3b09a4378a5da93577407cf69d2ba" target="_top" xlink:title="go">
<polygon fill="white" stroke="black" points="93.5,-0.5 93.5,-19.5 122.5,-19.5 122.5,-0.5 93.5,-0.5"/>
<text text-anchor="middle" x="108" y="-7.5" font-family="Helvetica,sans-Serif" font-size="10.00">go</text>
</a>
</g>
</g>
<!-- Node1&#45;&gt;Node3 -->
<g id="edge2" class="edge"><title>Node1&#45;&gt;Node3</title>
<path fill="none" stroke="midnightblue" d="M56.2806,-22.3547C65.1507,-20.1941 74.9123,-17.8162 83.483,-15.7285"/>
<polygon fill="midnightblue" stroke="midnightblue" points="84.3192,-19.1272 93.2067,-13.3599 82.6624,-12.3261 84.3192,-19.1272"/>
</g>
</g>
</svg>
