<?xml version="1.0" encoding="UTF-8" standalone="no"?>
<!DOCTYPE svg PUBLIC "-//W3C//DTD SVG 1.1//EN"
 "http://www.w3.org/Graphics/SVG/1.1/DTD/svg11.dtd">
<!-- Generated by graphviz version 2.38.0 (20140413.2041)
 -->
<!-- Title: run Pages: 1 -->
<svg width="297pt" height="28pt"
 viewBox="0.00 0.00 297.00 28.00" xmlns="http://www.w3.org/2000/svg" xmlns:xlink="http://www.w3.org/1999/xlink">
<g id="graph0" class="graph" transform="scale(1 1) rotate(0) translate(4 24)">
<title>run</title>
<polygon fill="white" stroke="none" points="-4,4 -4,-24 293,-24 293,4 -4,4"/>
<!-- Node1 -->
<g id="node1" class="node"><title>Node1</title>
<polygon fill="#bfbfbf" stroke="black" points="0,-0.5 0,-19.5 32,-19.5 32,-0.5 0,-0.5"/>
<text text-anchor="middle" x="16" y="-7.5" font-family="Helvetica,sans-Serif" font-size="10.00">run</text>
</g>
<!-- Node2 -->
<g id="node2" class="node"><title>Node2</title>
<g id="a_node2"><a xlink:href="../../d9/dea/getcx3d_8c.html#afd26bddc4f95a3c5a42a7a9b7b69da52" target="_top" xlink:title="scanline">
<polygon fill="white" stroke="black" points="68,-0.5 68,-19.5 124,-19.5 124,-0.5 68,-0.5"/>
<text text-anchor="middle" x="96" y="-7.5" font-family="Helvetica,sans-Serif" font-size="10.00">scanline</text>
</a>
</g>
</g>
<!-- Node1&#45;&gt;Node2 -->
<g id="edge1" class="edge"><title>Node1&#45;&gt;Node2</title>
<path fill="none" stroke="midnightblue" d="M42.0941,-10C50.2633,-10 59.369,-10 67.692,-10"/>
<polygon fill="midnightblue" stroke="midnightblue" points="42.0392,-6.5001 32.0392,-10 42.0391,-13.5001 42.0392,-6.5001"/>
</g>
<!-- Node3 -->
<g id="node3" class="node"><title>Node3</title>
<g id="a_node3"><a xlink:href="../../d9/dea/getcx3d_8c.html#ac43e38fef452c4a15d14abb67019a1b5" target="_top" xlink:title="getcx3d">
<polygon fill="white" stroke="black" points="160,-0.5 160,-19.5 214,-19.5 214,-0.5 160,-0.5"/>
<text text-anchor="middle" x="187" y="-7.5" font-family="Helvetica,sans-Serif" font-size="10.00">getcx3d</text>
</a>
</g>
</g>
<!-- Node2&#45;&gt;Node3 -->
<g id="edge2" class="edge"><title>Node2&#45;&gt;Node3</title>
<path fill="none" stroke="midnightblue" d="M134.385,-10C142.966,-10 151.91,-10 159.895,-10"/>
<polygon fill="midnightblue" stroke="midnightblue" points="134.187,-6.5001 124.187,-10 134.186,-13.5001 134.187,-6.5001"/>
</g>
<!-- Node4 -->
<g id="node4" class="node"><title>Node4</title>
<g id="a_node4"><a xlink:href="../../d9/dea/getcx3d_8c.html#a0708a0954f39ecdc7aa901286295ad01" target="_top" xlink:title="main">
<polygon fill="white" stroke="black" points="250,-0.5 250,-19.5 289,-19.5 289,-0.5 250,-0.5"/>
<text text-anchor="middle" x="269.5" y="-7.5" font-family="Helvetica,sans-Serif" font-size="10.00">main</text>
</a>
</g>
</g>
<!-- Node3&#45;&gt;Node4 -->
<g id="edge3" class="edge"><title>Node3&#45;&gt;Node4</title>
<path fill="none" stroke="midnightblue" d="M224.503,-10C233.326,-10 242.392,-10 249.984,-10"/>
<polygon fill="midnightblue" stroke="midnightblue" points="224.359,-6.5001 214.359,-10 224.359,-13.5001 224.359,-6.5001"/>
</g>
</g>
</svg>
