<?xml version="1.0" encoding="UTF-8" standalone="no"?>
<!DOCTYPE svg PUBLIC "-//W3C//DTD SVG 1.1//EN"
 "http://www.w3.org/Graphics/SVG/1.1/DTD/svg11.dtd">
<!-- Generated by graphviz version 2.38.0 (20140413.2041)
 -->
<!-- Title: getcx3d Pages: 1 -->
<!--zoomable 608 -->
<svg id="main" version="1.1" xmlns="http://www.w3.org/2000/svg" xmlns:xlink="http://www.w3.org/1999/xlink" xml:space="preserve" onload="init(evt)">
<style type="text/css"><![CDATA[
.edge:hover path { stroke: red; }
.edge:hover polygon { stroke: red; fill: red; }
]]></style>
<script type="text/javascript"><![CDATA[
var edges = document.getElementsByTagName('g');
if (edges && edges.length) {
  for (var i=0;i<edges.length;i++) {
    if (edges[i].id.substr(0,4)=='edge') {
      edges[i].setAttribute('class','edge');
    }
  }
}
]]></script>
        <defs>
                <circle id="rim" cx="0" cy="0" r="7"/>
                <circle id="rim2" cx="0" cy="0" r="3.5"/>
                <g id="zoomPlus">
                        <use xlink:href="#rim" fill="#404040">
                                <set attributeName="fill" to="#808080" begin="zoomplus.mouseover" end="zoomplus.mouseout"/>
                        </use>
                        <path d="M-4,0h8M0,-4v8" fill="none" stroke="white" stroke-width="1.5" pointer-events="none"/>
                </g>
                <g id="zoomMin">
                        <use xlink:href="#rim" fill="#404040">
                                <set attributeName="fill" to="#808080" begin="zoomminus.mouseover" end="zoomminus.mouseout"/>
                        </use>
                        <path d="M-4,0h8" fill="none" stroke="white" stroke-width="1.5" pointer-events="none"/>
                </g>
                <g id="dirArrow">
                        <path fill="none" stroke="white" stroke-width="1.5" d="M0,-3.0v7 M-2.5,-0.5L0,-3.0L2.5,-0.5"/>
                </g>
               <g id="resetDef">
                       <use xlink:href="#rim2" fill="#404040">
                               <set attributeName="fill" to="#808080" begin="reset.mouseover" end="reset.mouseout"/>
                       </use>
               </g>
        </defs>

<script type="text/javascript">
var viewWidth = 526;
var viewHeight = 608;
var sectionId = 'dynsection-9';
</script>
<script xlink:href="../../svgpan.js"/>
<svg id="graph" class="graph">
<g id="viewport">
<title>getcx3d</title>
<polygon fill="white" stroke="none" points="-4,4 -4,-603.863 522,-603.863 522,4 -4,4"/>
<!-- Node1 -->
<g id="node1" class="node"><title>Node1</title>
<polygon fill="#bfbfbf" stroke="black" points="0,-266.5 0,-285.5 54,-285.5 54,-266.5 0,-266.5"/>
<text text-anchor="middle" x="27" y="-273.5" font-family="Helvetica,sans-Serif" font-size="10.00">getcx3d</text>
</g>
<!-- Node2 -->
<g id="node2" class="node"><title>Node2</title>
<g id="a_node2"><a xlink:href="../../de/d4e/rle__open__f_8c.html#a5a0e62a00f907fce26e93b2f72adb2b0" target="_top" xlink:title="rle_open_f_noexit">
<polygon fill="white" stroke="black" points="314,-570.5 314,-589.5 416,-589.5 416,-570.5 314,-570.5"/>
<text text-anchor="middle" x="365" y="-577.5" font-family="Helvetica,sans-Serif" font-size="10.00">rle_open_f_noexit</text>
</a>
</g>
</g>
<!-- Node1&#45;&gt;Node2 -->
<g id="edge1" class="edge"><title>Node1&#45;&gt;Node2</title>
<path fill="none" stroke="midnightblue" d="M28.655,-285.698C31.909,-330.761 47.8944,-519.061 90,-556 151.758,-610.18 254.261,-602.375 314.85,-591.43"/>
<polygon fill="midnightblue" stroke="midnightblue" points="315.76,-594.82 324.929,-589.51 314.45,-587.943 315.76,-594.82"/>
</g>
<!-- Node4 -->
<g id="node4" class="node"><title>Node4</title>
<g id="a_node4"><a xlink:href="../../d0/dcc/rletorla_8c.html#ab7e36af3707843f77cc5b4e831c2fa6d" target="_top" xlink:title="malloc">
<polygon fill="white" stroke="black" points="461.5,-323.5 461.5,-342.5 508.5,-342.5 508.5,-323.5 461.5,-323.5"/>
<text text-anchor="middle" x="485" y="-330.5" font-family="Helvetica,sans-Serif" font-size="10.00">malloc</text>
</a>
</g>
</g>
<!-- Node1&#45;&gt;Node4 -->
<g id="edge21" class="edge"><title>Node1&#45;&gt;Node4</title>
<path fill="none" stroke="midnightblue" d="M27.9986,-266.416C28.5773,-236.351 34.9256,-143.614 90,-105 158.415,-57.0323 201.598,-71.1723 278,-105 377.752,-149.166 449.586,-268.258 474.453,-314.39"/>
<polygon fill="midnightblue" stroke="midnightblue" points="471.397,-316.099 479.161,-323.308 477.588,-312.831 471.397,-316.099"/>
</g>
<!-- Node5 -->
<g id="node5" class="node"><title>Node5</title>
<g id="a_node5"><a xlink:href="../../d0/dcc/rletorla_8c.html#aafde19f7d36ca163a143579c1b125b6d" target="_top" xlink:title="free">
<polygon fill="white" stroke="black" points="467.5,-494.5 467.5,-513.5 502.5,-513.5 502.5,-494.5 467.5,-494.5"/>
<text text-anchor="middle" x="485" y="-501.5" font-family="Helvetica,sans-Serif" font-size="10.00">free</text>
</a>
</g>
</g>
<!-- Node1&#45;&gt;Node5 -->
<g id="edge36" class="edge"><title>Node1&#45;&gt;Node5</title>
<path fill="none" stroke="midnightblue" d="M29.3564,-285.638C33.5494,-312.073 48.611,-386.632 90,-430 164.422,-507.981 207.944,-503.717 314,-523 358.602,-531.109 371.087,-529.157 416,-523 429.947,-521.088 445.065,-517.068 457.497,-513.216"/>
<polygon fill="midnightblue" stroke="midnightblue" points="458.786,-516.477 467.224,-510.069 456.632,-509.817 458.786,-516.477"/>
</g>
<!-- Node6 -->
<g id="node6" class="node"><title>Node6</title>
<g id="a_node6"><a xlink:href="../../d2/df3/rle__hdr_8c.html#a8ba0e5b11d1e39ab7227f1686e676c86" target="_top" xlink:title="rle_hdr_init">
<polygon fill="white" stroke="black" points="90.5,-342.5 90.5,-361.5 160.5,-361.5 160.5,-342.5 90.5,-342.5"/>
<text text-anchor="middle" x="125.5" y="-349.5" font-family="Helvetica,sans-Serif" font-size="10.00">rle_hdr_init</text>
</a>
</g>
</g>
<!-- Node1&#45;&gt;Node6 -->
<g id="edge5" class="edge"><title>Node1&#45;&gt;Node6</title>
<path fill="none" stroke="midnightblue" d="M38.7321,-285.509C50.9055,-296.175 71.4752,-313.834 90,-328 93.7528,-330.87 97.8143,-333.823 101.788,-336.634"/>
<polygon fill="midnightblue" stroke="midnightblue" points="99.9845,-339.643 110.194,-342.474 103.978,-333.894 99.9845,-339.643"/>
</g>
<!-- Node9 -->
<g id="node9" class="node"><title>Node9</title>
<g id="a_node9"><a xlink:href="../../d2/df3/rle__hdr_8c.html#a82e79385f2d45cc3b80ce0f4f369eae5" target="_top" xlink:title="rle_names">
<polygon fill="white" stroke="black" points="332,-342.5 332,-361.5 398,-361.5 398,-342.5 332,-342.5"/>
<text text-anchor="middle" x="365" y="-349.5" font-family="Helvetica,sans-Serif" font-size="10.00">rle_names</text>
</a>
</g>
</g>
<!-- Node1&#45;&gt;Node9 -->
<g id="edge14" class="edge"><title>Node1&#45;&gt;Node9</title>
<path fill="none" stroke="midnightblue" d="M30.8249,-285.56C37.3731,-305.757 55.709,-352.432 90,-371 163.475,-410.786 194.938,-380.066 278,-371 292.433,-369.425 307.991,-366.404 321.853,-363.227"/>
<polygon fill="midnightblue" stroke="midnightblue" points="322.69,-366.626 331.607,-360.904 321.069,-359.816 322.69,-366.626"/>
</g>
<!-- Node10 -->
<g id="node10" class="node"><title>Node10</title>
<g id="a_node10"><a xlink:href="../../db/d53/rle__getrow_8c.html#a619b27463c26e0a4a3d9648a9869ee52" target="_top" xlink:title="rle_get_setup">
<polygon fill="white" stroke="black" points="197,-418.5 197,-437.5 278,-437.5 278,-418.5 197,-418.5"/>
<text text-anchor="middle" x="237.5" y="-425.5" font-family="Helvetica,sans-Serif" font-size="10.00">rle_get_setup</text>
</a>
</g>
</g>
<!-- Node1&#45;&gt;Node10 -->
<g id="edge15" class="edge"><title>Node1&#45;&gt;Node10</title>
<path fill="none" stroke="midnightblue" d="M29.5713,-285.612C34.0783,-309.859 49.4311,-373.728 90,-404 117.559,-424.564 156.184,-430.212 186.855,-430.907"/>
<polygon fill="midnightblue" stroke="midnightblue" points="186.903,-434.407 196.924,-430.966 186.945,-427.407 186.903,-434.407"/>
</g>
<!-- Node12 -->
<g id="node12" class="node"><title>Node12</title>
<g id="a_node12"><a xlink:href="../../da/d12/sig_8c.html#aa189be24085654e9f5fa0718698ae248" target="_top" xlink:title="sig_block">
<polygon fill="white" stroke="black" points="95.5,-266.5 95.5,-285.5 155.5,-285.5 155.5,-266.5 95.5,-266.5"/>
<text text-anchor="middle" x="125.5" y="-273.5" font-family="Helvetica,sans-Serif" font-size="10.00">sig_block</text>
</a>
</g>
</g>
<!-- Node1&#45;&gt;Node12 -->
<g id="edge22" class="edge"><title>Node1&#45;&gt;Node12</title>
<path fill="none" stroke="midnightblue" d="M54.1143,-276C63.6592,-276 74.6796,-276 85.1253,-276"/>
<polygon fill="midnightblue" stroke="midnightblue" points="85.3034,-279.5 95.3034,-276 85.3033,-272.5 85.3034,-279.5"/>
</g>
<!-- Node13 -->
<g id="node13" class="node"><title>Node13</title>
<g id="a_node13"><a xlink:href="../../d9/dea/getcx3d_8c.html#aa278a6966e018f741e2bab11f58794b6" target="_top" xlink:title="background">
<polygon fill="white" stroke="black" points="90,-228.5 90,-247.5 161,-247.5 161,-228.5 90,-228.5"/>
<text text-anchor="middle" x="125.5" y="-235.5" font-family="Helvetica,sans-Serif" font-size="10.00">background</text>
</a>
</g>
</g>
<!-- Node1&#45;&gt;Node13 -->
<g id="edge23" class="edge"><title>Node1&#45;&gt;Node13</title>
<path fill="none" stroke="midnightblue" d="M52.351,-266.411C64.0082,-261.821 78.1554,-256.25 90.8235,-251.261"/>
<polygon fill="midnightblue" stroke="midnightblue" points="92.1346,-254.507 100.157,-247.586 89.5698,-247.993 92.1346,-254.507"/>
</g>
<!-- Node15 -->
<g id="node15" class="node"><title>Node15</title>
<g id="a_node15"><a xlink:href="../../da/d12/sig_8c.html#a876ea614f05be10012ec5531eadd304a" target="_top" xlink:title="sig_unblock">
<polygon fill="white" stroke="black" points="90,-190.5 90,-209.5 161,-209.5 161,-190.5 90,-190.5"/>
<text text-anchor="middle" x="125.5" y="-197.5" font-family="Helvetica,sans-Serif" font-size="10.00">sig_unblock</text>
</a>
</g>
</g>
<!-- Node1&#45;&gt;Node15 -->
<g id="edge25" class="edge"><title>Node1&#45;&gt;Node15</title>
<path fill="none" stroke="midnightblue" d="M37.0501,-266.359C48.6126,-254.366 69.5816,-233.682 90,-219 91.8945,-217.638 93.8969,-216.301 95.9449,-215.007"/>
<polygon fill="midnightblue" stroke="midnightblue" points="98.179,-217.754 105.021,-209.664 94.6279,-211.721 98.179,-217.754"/>
</g>
<!-- Node16 -->
<g id="node16" class="node"><title>Node16</title>
<g id="a_node16"><a xlink:href="../../d9/dea/getcx3d_8c.html#a24b0f857404e7d3390aee539455f5dd9" target="_top" xlink:title="colormap">
<polygon fill="white" stroke="black" points="95.5,-152.5 95.5,-171.5 155.5,-171.5 155.5,-152.5 95.5,-152.5"/>
<text text-anchor="middle" x="125.5" y="-159.5" font-family="Helvetica,sans-Serif" font-size="10.00">colormap</text>
</a>
</g>
</g>
<!-- Node1&#45;&gt;Node16 -->
<g id="edge26" class="edge"><title>Node1&#45;&gt;Node16</title>
<path fill="none" stroke="midnightblue" d="M32.3539,-266.269C41.0464,-247.72 62.1358,-206.854 90,-181 91.4662,-179.64 93.0477,-178.342 94.6991,-177.111"/>
<polygon fill="midnightblue" stroke="midnightblue" points="96.8371,-179.896 103.327,-171.522 93.0314,-174.021 96.8371,-179.896"/>
</g>
<!-- Node17 -->
<g id="node17" class="node"><title>Node17</title>
<g id="a_node17"><a xlink:href="../../d9/dea/getcx3d_8c.html#aa43c1ebae3731d15470a44bbde61fff9" target="_top" xlink:title="clear_scan">
<polygon fill="white" stroke="black" points="331,-266.5 331,-285.5 399,-285.5 399,-266.5 331,-266.5"/>
<text text-anchor="middle" x="365" y="-273.5" font-family="Helvetica,sans-Serif" font-size="10.00">clear_scan</text>
</a>
</g>
</g>
<!-- Node1&#45;&gt;Node17 -->
<g id="edge28" class="edge"><title>Node1&#45;&gt;Node17</title>
<path fill="none" stroke="midnightblue" d="M53.2451,-285.6C64.3439,-289.331 77.6415,-293.149 90,-295 171.073,-307.144 266.828,-294.408 320.981,-284.732"/>
<polygon fill="midnightblue" stroke="midnightblue" points="321.715,-288.156 330.918,-282.907 320.45,-281.271 321.715,-288.156"/>
</g>
<!-- Node18 -->
<g id="node18" class="node"><title>Node18</title>
<g id="a_node18"><a xlink:href="../../db/d53/rle__getrow_8c.html#a3602e1158189cba5e5b0f9b983cba776" target="_top" xlink:title="rle_getrow">
<polygon fill="white" stroke="black" points="92,-38.5 92,-57.5 159,-57.5 159,-38.5 92,-38.5"/>
<text text-anchor="middle" x="125.5" y="-45.5" font-family="Helvetica,sans-Serif" font-size="10.00">rle_getrow</text>
</a>
</g>
</g>
<!-- Node1&#45;&gt;Node18 -->
<g id="edge30" class="edge"><title>Node1&#45;&gt;Node18</title>
<path fill="none" stroke="midnightblue" d="M28.7337,-266.063C31.4952,-234.642 43.6114,-135.754 90,-72 92.2349,-68.9284 94.9877,-66.1135 97.9553,-63.578"/>
<polygon fill="midnightblue" stroke="midnightblue" points="100.157,-66.3026 106.104,-57.5343 95.9871,-60.6802 100.157,-66.3026"/>
</g>
<!-- Node21 -->
<g id="node21" class="node"><title>Node21</title>
<g id="a_node21"><a xlink:href="../../d9/dea/getcx3d_8c.html#afd26bddc4f95a3c5a42a7a9b7b69da52" target="_top" xlink:title="scanline">
<polygon fill="white" stroke="black" points="97.5,-114.5 97.5,-133.5 153.5,-133.5 153.5,-114.5 97.5,-114.5"/>
<text text-anchor="middle" x="125.5" y="-121.5" font-family="Helvetica,sans-Serif" font-size="10.00">scanline</text>
</a>
</g>
</g>
<!-- Node1&#45;&gt;Node21 -->
<g id="edge33" class="edge"><title>Node1&#45;&gt;Node21</title>
<path fill="none" stroke="midnightblue" d="M30.2417,-266.466C36.21,-242.879 54.506,-180.962 90,-143 91.1879,-141.729 92.4804,-140.524 93.8449,-139.383"/>
<polygon fill="midnightblue" stroke="midnightblue" points="96.0146,-142.137 102.222,-133.551 92.0149,-136.392 96.0146,-142.137"/>
</g>
<!-- Node3 -->
<g id="node3" class="node"><title>Node3</title>
<g id="a_node3"><a xlink:href="../../de/d4e/rle__open__f_8c.html#a84fda810ae9b9bde82a6391d0b264ead" target="_top" xlink:title="my_popen">
<polygon fill="white" stroke="black" points="452,-570.5 452,-589.5 518,-589.5 518,-570.5 452,-570.5"/>
<text text-anchor="middle" x="485" y="-577.5" font-family="Helvetica,sans-Serif" font-size="10.00">my_popen</text>
</a>
</g>
</g>
<!-- Node2&#45;&gt;Node3 -->
<g id="edge2" class="edge"><title>Node2&#45;&gt;Node3</title>
<path fill="none" stroke="midnightblue" d="M416.043,-580C424.523,-580 433.255,-580 441.518,-580"/>
<polygon fill="midnightblue" stroke="midnightblue" points="441.678,-583.5 451.678,-580 441.678,-576.5 441.678,-583.5"/>
</g>
<!-- Node2&#45;&gt;Node4 -->
<g id="edge3" class="edge"><title>Node2&#45;&gt;Node4</title>
<path fill="none" stroke="midnightblue" d="M376.489,-570.415C387.611,-559.766 405.051,-541.606 416,-523 449.83,-465.51 470.952,-388.439 479.557,-352.712"/>
<polygon fill="midnightblue" stroke="midnightblue" points="483.042,-353.177 481.911,-342.643 476.226,-351.583 483.042,-353.177"/>
</g>
<!-- Node2&#45;&gt;Node5 -->
<g id="edge4" class="edge"><title>Node2&#45;&gt;Node5</title>
<path fill="none" stroke="midnightblue" d="M388.421,-570.433C397.232,-566.368 407.3,-561.336 416,-556 433.459,-545.291 451.827,-531.043 465.066,-520.169"/>
<polygon fill="midnightblue" stroke="midnightblue" points="467.526,-522.675 472.963,-513.582 463.042,-517.299 467.526,-522.675"/>
</g>
<!-- Node7 -->
<g id="node7" class="node"><title>Node7</title>
<g id="a_node7"><a xlink:href="../../d2/df3/rle__hdr_8c.html#a16c4da6201b3b8cf55127b9ca968d253" target="_top" xlink:title="rle_hdr_clear">
<polygon fill="white" stroke="black" points="325,-494.5 325,-513.5 405,-513.5 405,-494.5 325,-494.5"/>
<text text-anchor="middle" x="365" y="-501.5" font-family="Helvetica,sans-Serif" font-size="10.00">rle_hdr_clear</text>
</a>
</g>
</g>
<!-- Node6&#45;&gt;Node7 -->
<g id="edge6" class="edge"><title>Node6&#45;&gt;Node7</title>
<path fill="none" stroke="midnightblue" d="M131.091,-361.589C140.68,-380.625 164.654,-423.384 197,-447 232.018,-472.567 279.359,-487.286 314.694,-495.337"/>
<polygon fill="midnightblue" stroke="midnightblue" points="314.269,-498.827 324.784,-497.531 315.756,-491.986 314.269,-498.827"/>
</g>
<!-- Node8 -->
<g id="node8" class="node"><title>Node8</title>
<g id="a_node8"><a xlink:href="../../d2/df3/rle__hdr_8c.html#afc916e29aea8788e0878ca315ff69821" target="_top" xlink:title="rle_hdr_cp">
<polygon fill="white" stroke="black" points="203.5,-342.5 203.5,-361.5 271.5,-361.5 271.5,-342.5 203.5,-342.5"/>
<text text-anchor="middle" x="237.5" y="-349.5" font-family="Helvetica,sans-Serif" font-size="10.00">rle_hdr_cp</text>
</a>
</g>
</g>
<!-- Node6&#45;&gt;Node8 -->
<g id="edge8" class="edge"><title>Node6&#45;&gt;Node8</title>
<path fill="none" stroke="midnightblue" d="M160.702,-345.699C171.025,-345.232 182.495,-345.129 193.323,-345.391"/>
<polygon fill="midnightblue" stroke="midnightblue" points="193.331,-348.893 203.45,-345.752 193.581,-341.897 193.331,-348.893"/>
</g>
<!-- Node7&#45;&gt;Node5 -->
<g id="edge7" class="edge"><title>Node7&#45;&gt;Node5</title>
<path fill="none" stroke="midnightblue" d="M405.292,-504C422.232,-504 441.621,-504 456.916,-504"/>
<polygon fill="midnightblue" stroke="midnightblue" points="457.236,-507.5 467.236,-504 457.236,-500.5 457.236,-507.5"/>
</g>
<!-- Node8&#45;&gt;Node4 -->
<g id="edge10" class="edge"><title>Node8&#45;&gt;Node4</title>
<path fill="none" stroke="midnightblue" d="M269.031,-342.495C282.647,-338.731 298.977,-334.861 314,-333 361.309,-327.139 416.594,-328.674 450.957,-330.605"/>
<polygon fill="midnightblue" stroke="midnightblue" points="451.148,-334.123 461.342,-331.237 451.573,-327.136 451.148,-334.123"/>
</g>
<!-- Node8&#45;&gt;Node6 -->
<g id="edge9" class="edge"><title>Node8&#45;&gt;Node6</title>
<path fill="none" stroke="midnightblue" d="M203.45,-358.248C193.214,-358.741 181.766,-358.871 170.892,-358.637"/>
<polygon fill="midnightblue" stroke="midnightblue" points="170.812,-355.133 160.702,-358.301 170.581,-362.129 170.812,-355.133"/>
</g>
<!-- Node8&#45;&gt;Node9 -->
<g id="edge11" class="edge"><title>Node8&#45;&gt;Node9</title>
<path fill="none" stroke="midnightblue" d="M271.802,-352C287.052,-352 305.302,-352 321.526,-352"/>
<polygon fill="midnightblue" stroke="midnightblue" points="321.844,-355.5 331.844,-352 321.844,-348.5 321.844,-355.5"/>
</g>
<!-- Node9&#45;&gt;Node4 -->
<g id="edge13" class="edge"><title>Node9&#45;&gt;Node4</title>
<path fill="none" stroke="midnightblue" d="M398.244,-346.808C414.589,-344.176 434.41,-340.985 450.877,-338.333"/>
<polygon fill="midnightblue" stroke="midnightblue" points="451.827,-341.726 461.144,-336.68 450.714,-334.815 451.827,-341.726"/>
</g>
<!-- Node9&#45;&gt;Node5 -->
<g id="edge12" class="edge"><title>Node9&#45;&gt;Node5</title>
<path fill="none" stroke="midnightblue" d="M375.159,-361.834C385.427,-372.997 402.419,-391.881 416,-409 436.583,-434.945 458.573,-466.441 471.801,-485.852"/>
<polygon fill="midnightblue" stroke="midnightblue" points="469.041,-488.017 477.547,-494.333 474.836,-484.091 469.041,-488.017"/>
</g>
<!-- Node10&#45;&gt;Node4 -->
<g id="edge18" class="edge"><title>Node10&#45;&gt;Node4</title>
<path fill="none" stroke="midnightblue" d="M275.312,-418.49C311.764,-408.539 368.807,-391.521 416,-371 431.169,-364.404 447.366,-355.436 460.146,-347.869"/>
<polygon fill="midnightblue" stroke="midnightblue" points="462.028,-350.822 468.784,-342.66 458.413,-344.827 462.028,-350.822"/>
</g>
<!-- Node10&#45;&gt;Node5 -->
<g id="edge19" class="edge"><title>Node10&#45;&gt;Node5</title>
<path fill="none" stroke="midnightblue" d="M269.593,-437.625C318.311,-452.707 411.782,-481.643 457.501,-495.797"/>
<polygon fill="midnightblue" stroke="midnightblue" points="456.684,-499.208 467.272,-498.822 458.754,-492.521 456.684,-499.208"/>
</g>
<!-- Node10&#45;&gt;Node7 -->
<g id="edge16" class="edge"><title>Node10&#45;&gt;Node7</title>
<path fill="none" stroke="midnightblue" d="M251.193,-437.652C265.882,-448.603 291.005,-466.671 314,-480 320.045,-483.504 326.68,-486.95 333.085,-490.089"/>
<polygon fill="midnightblue" stroke="midnightblue" points="331.677,-493.295 342.209,-494.439 334.689,-486.976 331.677,-493.295"/>
</g>
<!-- Node10&#45;&gt;Node9 -->
<g id="edge17" class="edge"><title>Node10&#45;&gt;Node9</title>
<path fill="none" stroke="midnightblue" d="M255.297,-418.374C262.418,-414.145 270.733,-409.009 278,-404 294.689,-392.496 296.765,-386.669 314,-376 319.695,-372.475 325.987,-369.093 332.131,-366.037"/>
<polygon fill="midnightblue" stroke="midnightblue" points="334.045,-369.002 341.557,-361.53 331.025,-362.687 334.045,-369.002"/>
</g>
<!-- Node11 -->
<g id="node11" class="node"><title>Node11</title>
<g id="a_node11"><a xlink:href="../../db/d53/rle__getrow_8c.html#a0ea68aa2ebeef9d4cade7282553b03d6" target="_top" xlink:title="vax_gshort">
<polygon fill="white" stroke="black" points="330.5,-418.5 330.5,-437.5 399.5,-437.5 399.5,-418.5 330.5,-418.5"/>
<text text-anchor="middle" x="365" y="-425.5" font-family="Helvetica,sans-Serif" font-size="10.00">vax_gshort</text>
</a>
</g>
</g>
<!-- Node10&#45;&gt;Node11 -->
<g id="edge20" class="edge"><title>Node10&#45;&gt;Node11</title>
<path fill="none" stroke="midnightblue" d="M278.209,-428C291.6,-428 306.616,-428 320.298,-428"/>
<polygon fill="midnightblue" stroke="midnightblue" points="320.451,-431.5 330.451,-428 320.451,-424.5 320.451,-431.5"/>
</g>
<!-- Node14 -->
<g id="node14" class="node"><title>Node14</title>
<g id="a_node14"><a xlink:href="../../d9/dea/getcx3d_8c.html#a72c3b09a4378a5da93577407cf69d2ba" target="_top" xlink:title="go">
<polygon fill="white" stroke="black" points="223,-152.5 223,-171.5 252,-171.5 252,-152.5 223,-152.5"/>
<text text-anchor="middle" x="237.5" y="-159.5" font-family="Helvetica,sans-Serif" font-size="10.00">go</text>
</a>
</g>
</g>
<!-- Node13&#45;&gt;Node14 -->
<g id="edge24" class="edge"><title>Node13&#45;&gt;Node14</title>
<path fill="none" stroke="midnightblue" d="M145.049,-228.42C150.296,-225.54 155.95,-222.273 161,-219 180.701,-206.232 201.941,-189.951 216.858,-178.061"/>
<polygon fill="midnightblue" stroke="midnightblue" points="219.256,-180.624 224.852,-171.627 214.867,-175.171 219.256,-180.624"/>
</g>
<!-- Node16&#45;&gt;Node14 -->
<g id="edge27" class="edge"><title>Node16&#45;&gt;Node14</title>
<path fill="none" stroke="midnightblue" d="M155.689,-162C173.546,-162 196.096,-162 212.835,-162"/>
<polygon fill="midnightblue" stroke="midnightblue" points="212.889,-165.5 222.889,-162 212.889,-158.5 212.889,-165.5"/>
</g>
<!-- Node17&#45;&gt;Node4 -->
<g id="edge29" class="edge"><title>Node17&#45;&gt;Node4</title>
<path fill="none" stroke="midnightblue" d="M385.96,-285.557C395.118,-289.948 406.114,-295.229 416,-300 428.869,-306.211 443.093,-313.109 455.191,-318.985"/>
<polygon fill="midnightblue" stroke="midnightblue" points="453.847,-322.224 464.371,-323.447 456.907,-315.928 453.847,-322.224"/>
</g>
<!-- Node19 -->
<g id="node19" class="node"><title>Node19</title>
<g id="a_node19"><a xlink:href="../../db/d53/rle__getrow_8c.html#a61ac0da96b0dd8bc3cbc98afcd9b5c44" target="_top" xlink:title="bfill">
<polygon fill="white" stroke="black" points="221.5,-38.5 221.5,-57.5 253.5,-57.5 253.5,-38.5 221.5,-38.5"/>
<text text-anchor="middle" x="237.5" y="-45.5" font-family="Helvetica,sans-Serif" font-size="10.00">bfill</text>
</a>
</g>
</g>
<!-- Node18&#45;&gt;Node19 -->
<g id="edge31" class="edge"><title>Node18&#45;&gt;Node19</title>
<path fill="none" stroke="midnightblue" d="M159.206,-48C175.819,-48 195.699,-48 211.137,-48"/>
<polygon fill="midnightblue" stroke="midnightblue" points="211.483,-51.5001 221.483,-48 211.483,-44.5001 211.483,-51.5001"/>
</g>
<!-- Node20 -->
<g id="node20" class="node"><title>Node20</title>
<g id="a_node20"><a xlink:href="../../d8/d7c/rle__getskip_8c.html#af6b1e1dc0867e9340f90668591c7c5b3" target="_top" xlink:title="rle_getskip">
<polygon fill="white" stroke="black" points="203.5,-0.5 203.5,-19.5 271.5,-19.5 271.5,-0.5 203.5,-0.5"/>
<text text-anchor="middle" x="237.5" y="-7.5" font-family="Helvetica,sans-Serif" font-size="10.00">rle_getskip</text>
</a>
</g>
</g>
<!-- Node18&#45;&gt;Node20 -->
<g id="edge32" class="edge"><title>Node18&#45;&gt;Node20</title>
<path fill="none" stroke="midnightblue" d="M154.258,-38.411C167.806,-33.7306 184.305,-28.0308 198.96,-22.9685"/>
<polygon fill="midnightblue" stroke="midnightblue" points="200.442,-26.1594 208.751,-19.5859 198.156,-19.543 200.442,-26.1594"/>
</g>
<!-- Node21&#45;&gt;Node14 -->
<g id="edge35" class="edge"><title>Node21&#45;&gt;Node14</title>
<path fill="none" stroke="midnightblue" d="M153.691,-133.393C171.921,-139.691 195.681,-147.899 213.073,-153.907"/>
<polygon fill="midnightblue" stroke="midnightblue" points="212.377,-157.37 222.972,-157.327 214.663,-150.753 212.377,-157.37"/>
</g>
<!-- Node22 -->
<g id="node22" class="node"><title>Node22</title>
<g id="a_node22"><a xlink:href="../../d9/dea/getcx3d_8c.html#a444359d41bbb943d5561a505afcf600c" target="_top" xlink:title="run">
<polygon fill="white" stroke="black" points="221.5,-114.5 221.5,-133.5 253.5,-133.5 253.5,-114.5 221.5,-114.5"/>
<text text-anchor="middle" x="237.5" y="-121.5" font-family="Helvetica,sans-Serif" font-size="10.00">run</text>
</a>
</g>
</g>
<!-- Node21&#45;&gt;Node22 -->
<g id="edge34" class="edge"><title>Node21&#45;&gt;Node22</title>
<path fill="none" stroke="midnightblue" d="M153.691,-124C171.227,-124 193.88,-124 211.06,-124"/>
<polygon fill="midnightblue" stroke="midnightblue" points="211.45,-127.5 221.45,-124 211.45,-120.5 211.45,-127.5"/>
</g>
</g>
</svg>
        <g id="navigator" transform="translate(0 0)" fill="#404254">
                <rect fill="#f2f5e9" fill-opacity="0.5" stroke="#606060" stroke-width=".5" x="0" y="0" width="60" height="60"/>
                <use id="zoomplus" xlink:href="#zoomPlus" x="17" y="9" onmousedown="handleZoom(evt,'in')"/>
                <use id="zoomminus" xlink:href="#zoomMin" x="42" y="9" onmousedown="handleZoom(evt,'out')"/>
                <use id="reset" xlink:href="#resetDef" x="30" y="36" onmousedown="handleReset()"/>
                <g id="arrowUp" xlink:href="#dirArrow" transform="translate(30 24)" onmousedown="handlePan(0,-1)">
                  <use xlink:href="#rim" fill="#404040">
                        <set attributeName="fill" to="#808080" begin="arrowUp.mouseover" end="arrowUp.mouseout"/>
                  </use>
                  <path fill="none" stroke="white" stroke-width="1.5" d="M0,-3.0v7 M-2.5,-0.5L0,-3.0L2.5,-0.5"/>
                </g>
                <g id="arrowRight" xlink:href="#dirArrow" transform="rotate(90) translate(36 -43)" onmousedown="handlePan(1,0)">
                  <use xlink:href="#rim" fill="#404040">
                        <set attributeName="fill" to="#808080" begin="arrowRight.mouseover" end="arrowRight.mouseout"/>
                  </use>
                  <path fill="none" stroke="white" stroke-width="1.5" d="M0,-3.0v7 M-2.5,-0.5L0,-3.0L2.5,-0.5"/>
                </g>
                <g id="arrowDown" xlink:href="#dirArrow" transform="rotate(180) translate(-30 -48)" onmousedown="handlePan(0,1)">
                  <use xlink:href="#rim" fill="#404040">
                        <set attributeName="fill" to="#808080" begin="arrowDown.mouseover" end="arrowDown.mouseout"/>
                  </use>
                  <path fill="none" stroke="white" stroke-width="1.5" d="M0,-3.0v7 M-2.5,-0.5L0,-3.0L2.5,-0.5"/>
                </g>
                <g id="arrowLeft" xlink:href="#dirArrow" transform="rotate(270) translate(-36 17)" onmousedown="handlePan(-1,0)">
                  <use xlink:href="#rim" fill="#404040">
                        <set attributeName="fill" to="#808080" begin="arrowLeft.mouseover" end="arrowLeft.mouseout"/>
                  </use>
                  <path fill="none" stroke="white" stroke-width="1.5" d="M0,-3.0v7 M-2.5,-0.5L0,-3.0L2.5,-0.5"/>
                </g>
        </g>
        <svg viewBox="0 0 15 15" width="100%" height="30px" preserveAspectRatio="xMaxYMin meet">
         <g id="arrow_out" transform="scale(0.3 0.3)">
          <a xlink:href="getcx3d_8c_ac43e38fef452c4a15d14abb67019a1b5_cgraph_org.svg" target="_base">
           <rect id="button" ry="5" rx="5" y="6" x="6" height="38" width="38"
                fill="#f2f5e9" fill-opacity="0.5" stroke="#606060" stroke-width="1.0"/>
           <path id="arrow"
             d="M 11.500037,31.436501 C 11.940474,20.09759 22.043105,11.32322 32.158766,21.979434 L 37.068811,17.246167 C 37.068811,17.246167 37.088388,32 37.088388,32 L 22.160133,31.978069 C 22.160133,31.978069 26.997745,27.140456 26.997745,27.140456 C 18.528582,18.264221 13.291696,25.230495 11.500037,31.436501 z"
             style="fill:#404040;"/>
          </a>
         </g>
        </svg>
</svg>
