<?xml version="1.0" encoding="UTF-8" standalone="no"?>
<!DOCTYPE svg PUBLIC "-//W3C//DTD SVG 1.1//EN"
 "http://www.w3.org/Graphics/SVG/1.1/DTD/svg11.dtd">
<!-- Generated by graphviz version 2.38.0 (20140413.2041)
 -->
<!-- Title: done Pages: 1 -->
<svg width="369pt" height="180pt"
 viewBox="0.00 0.00 369.00 180.00" xmlns="http://www.w3.org/2000/svg" xmlns:xlink="http://www.w3.org/1999/xlink">
<g id="graph0" class="graph" transform="scale(1 1) rotate(0) translate(4 176)">
<title>done</title>
<polygon fill="white" stroke="none" points="-4,4 -4,-176 365,-176 365,4 -4,4"/>
<!-- Node1 -->
<g id="node1" class="node"><title>Node1</title>
<polygon fill="#bfbfbf" stroke="black" points="0,-76.5 0,-95.5 41,-95.5 41,-76.5 0,-76.5"/>
<text text-anchor="middle" x="20.5" y="-83.5" font-family="Helvetica,sans-Serif" font-size="10.00">done</text>
</g>
<!-- Node2 -->
<g id="node2" class="node"><title>Node2</title>
<g id="a_node2"><a xlink:href="../../dc/d11/getami_8c.html#a7be6d508b8d11374d4aef0a66817d9f0" target="_top" xlink:title="main">
<polygon fill="white" stroke="black" points="113,-152.5 113,-171.5 152,-171.5 152,-152.5 113,-152.5"/>
<text text-anchor="middle" x="132.5" y="-159.5" font-family="Helvetica,sans-Serif" font-size="10.00">main</text>
</a>
</g>
</g>
<!-- Node1&#45;&gt;Node2 -->
<g id="edge1" class="edge"><title>Node1&#45;&gt;Node2</title>
<path fill="none" stroke="midnightblue" d="M35.0104,-103.74C45.3248,-116.223 60.53,-132.511 77,-143 87.9874,-149.998 101.87,-154.788 112.874,-157.808"/>
<polygon fill="midnightblue" stroke="midnightblue" points="37.6679,-101.459 28.6956,-95.8244 32.1957,-105.824 37.6679,-101.459"/>
</g>
<!-- Node3 -->
<g id="node3" class="node"><title>Node3</title>
<g id="a_node3"><a xlink:href="../../d1/dad/giftorle_8c.html#acfacce8960cdd8b90157249854f90f14" target="_top" xlink:title="GetCode">
<polygon fill="white" stroke="black" points="103,-114.5 103,-133.5 162,-133.5 162,-114.5 103,-114.5"/>
<text text-anchor="middle" x="132.5" y="-121.5" font-family="Helvetica,sans-Serif" font-size="10.00">GetCode</text>
</a>
</g>
</g>
<!-- Node1&#45;&gt;Node3 -->
<g id="edge2" class="edge"><title>Node1&#45;&gt;Node3</title>
<path fill="none" stroke="midnightblue" d="M50.806,-96.1239C67.2233,-101.795 87.5803,-108.828 103.74,-114.41"/>
<polygon fill="midnightblue" stroke="midnightblue" points="51.7605,-92.7507 41.1658,-92.7936 49.4749,-99.3671 51.7605,-92.7507"/>
</g>
<!-- Node4 -->
<g id="node4" class="node"><title>Node4</title>
<g id="a_node4"><a xlink:href="../../da/d12/sig_8c.html#a7e0322bc0848d568cedd96d41c44706c" target="_top" xlink:title="sig_handler">
<polygon fill="white" stroke="black" points="96.5,-76.5 96.5,-95.5 168.5,-95.5 168.5,-76.5 96.5,-76.5"/>
<text text-anchor="middle" x="132.5" y="-83.5" font-family="Helvetica,sans-Serif" font-size="10.00">sig_handler</text>
</a>
</g>
</g>
<!-- Node1&#45;&gt;Node4 -->
<g id="edge3" class="edge"><title>Node1&#45;&gt;Node4</title>
<path fill="none" stroke="midnightblue" d="M51.2088,-86C65.1559,-86 81.8767,-86 96.4402,-86"/>
<polygon fill="midnightblue" stroke="midnightblue" points="51.1658,-82.5001 41.1658,-86 51.1658,-89.5001 51.1658,-82.5001"/>
</g>
<!-- Node7 -->
<g id="node7" class="node"><title>Node7</title>
<g id="a_node7"><a xlink:href="../../de/d5e/vcrtorle_8c.html#a66a07ca95e40cad3e7371fa5b9702470" target="_top" xlink:title="ParseVICARHeader">
<polygon fill="white" stroke="black" points="77,-38.5 77,-57.5 188,-57.5 188,-38.5 77,-38.5"/>
<text text-anchor="middle" x="132.5" y="-45.5" font-family="Helvetica,sans-Serif" font-size="10.00">ParseVICARHeader</text>
</a>
</g>
</g>
<!-- Node1&#45;&gt;Node7 -->
<g id="edge6" class="edge"><title>Node1&#45;&gt;Node7</title>
<path fill="none" stroke="midnightblue" d="M50.806,-75.8761C67.2233,-70.2047 87.5803,-63.1723 103.74,-57.5898"/>
<polygon fill="midnightblue" stroke="midnightblue" points="49.4749,-72.6329 41.1658,-79.2064 51.7605,-79.2493 49.4749,-72.6329"/>
</g>
<!-- Node9 -->
<g id="node9" class="node"><title>Node9</title>
<g id="a_node9"><a xlink:href="../../dd/d17/x11__stuff_8c.html#aa8509763c57678ec28bcda93fed61e59" target="_top" xlink:title="init_color">
<polygon fill="white" stroke="black" points="103,-0.5 103,-19.5 162,-19.5 162,-0.5 103,-0.5"/>
<text text-anchor="middle" x="132.5" y="-7.5" font-family="Helvetica,sans-Serif" font-size="10.00">init_color</text>
</a>
</g>
</g>
<!-- Node1&#45;&gt;Node9 -->
<g id="edge8" class="edge"><title>Node1&#45;&gt;Node9</title>
<path fill="none" stroke="midnightblue" d="M35.0104,-68.2596C45.3248,-55.7768 60.53,-39.4893 77,-29 84.8602,-23.9941 94.202,-20.1178 102.912,-17.211"/>
<polygon fill="midnightblue" stroke="midnightblue" points="32.1957,-66.1755 28.6956,-76.1756 37.6679,-70.5408 32.1957,-66.1755"/>
</g>
<!-- Node5 -->
<g id="node5" class="node"><title>Node5</title>
<g id="a_node5"><a xlink:href="../../de/d62/sig_8h.html#a009d6e3ff0c93e9e7a7d4dcab40b8dad" target="_top" xlink:title="sig_setup">
<polygon fill="white" stroke="black" points="224,-76.5 224,-95.5 286,-95.5 286,-76.5 224,-76.5"/>
<text text-anchor="middle" x="255" y="-83.5" font-family="Helvetica,sans-Serif" font-size="10.00">sig_setup</text>
</a>
</g>
</g>
<!-- Node4&#45;&gt;Node5 -->
<g id="edge4" class="edge"><title>Node4&#45;&gt;Node5</title>
<path fill="none" stroke="midnightblue" d="M178.837,-86C193.89,-86 210.268,-86 223.882,-86"/>
<polygon fill="midnightblue" stroke="midnightblue" points="178.678,-82.5001 168.678,-86 178.677,-89.5001 178.678,-82.5001"/>
</g>
<!-- Node6 -->
<g id="node6" class="node"><title>Node6</title>
<g id="a_node6"><a xlink:href="../../d9/dea/getcx3d_8c.html#a0708a0954f39ecdc7aa901286295ad01" target="_top" xlink:title="main">
<polygon fill="white" stroke="black" points="322,-76.5 322,-95.5 361,-95.5 361,-76.5 322,-76.5"/>
<text text-anchor="middle" x="341.5" y="-83.5" font-family="Helvetica,sans-Serif" font-size="10.00">main</text>
</a>
</g>
</g>
<!-- Node5&#45;&gt;Node6 -->
<g id="edge5" class="edge"><title>Node5&#45;&gt;Node6</title>
<path fill="none" stroke="midnightblue" d="M296.068,-86C305.087,-86 314.239,-86 321.874,-86"/>
<polygon fill="midnightblue" stroke="midnightblue" points="296.029,-82.5001 286.029,-86 296.029,-89.5001 296.029,-82.5001"/>
</g>
<!-- Node8 -->
<g id="node8" class="node"><title>Node8</title>
<g id="a_node8"><a xlink:href="../../de/d5e/vcrtorle_8c.html#afced8478b91af5c169926dfa4426333d" target="_top" xlink:title="main">
<polygon fill="white" stroke="black" points="235.5,-38.5 235.5,-57.5 274.5,-57.5 274.5,-38.5 235.5,-38.5"/>
<text text-anchor="middle" x="255" y="-45.5" font-family="Helvetica,sans-Serif" font-size="10.00">main</text>
</a>
</g>
</g>
<!-- Node7&#45;&gt;Node8 -->
<g id="edge7" class="edge"><title>Node7&#45;&gt;Node8</title>
<path fill="none" stroke="midnightblue" d="M198.459,-48C211.973,-48 225.168,-48 235.304,-48"/>
<polygon fill="midnightblue" stroke="midnightblue" points="198.109,-44.5001 188.109,-48 198.109,-51.5001 198.109,-44.5001"/>
</g>
</g>
</svg>
