<?xml version="1.0" encoding="UTF-8" standalone="no"?>
<!DOCTYPE svg PUBLIC "-//W3C//DTD SVG 1.1//EN"
 "http://www.w3.org/Graphics/SVG/1.1/DTD/svg11.dtd">
<!-- Generated by graphviz version 2.38.0 (20140413.2041)
 -->
<!-- Title: resize_window Pages: 1 -->
<svg width="225pt" height="104pt"
 viewBox="0.00 0.00 225.00 104.00" xmlns="http://www.w3.org/2000/svg" xmlns:xlink="http://www.w3.org/1999/xlink">
<g id="graph0" class="graph" transform="scale(1 1) rotate(0) translate(4 100)">
<title>resize_window</title>
<polygon fill="white" stroke="none" points="-4,4 -4,-100 221,-100 221,4 -4,4"/>
<!-- Node1 -->
<g id="node1" class="node"><title>Node1</title>
<polygon fill="#bfbfbf" stroke="black" points="0,-38.5 0,-57.5 86,-57.5 86,-38.5 0,-38.5"/>
<text text-anchor="middle" x="43" y="-45.5" font-family="Helvetica,sans-Serif" font-size="10.00">resize_window</text>
</g>
<!-- Node2 -->
<g id="node2" class="node"><title>Node2</title>
<g id="a_node2"><a xlink:href="../../d7/dd0/fn__decls_8h.html#a979234879b917c0b6db4dd6b7ca62df1" target="_top" xlink:title="calc_view_origin">
<polygon fill="white" stroke="black" points="122,-76.5 122,-95.5 217,-95.5 217,-76.5 122,-76.5"/>
<text text-anchor="middle" x="169.5" y="-83.5" font-family="Helvetica,sans-Serif" font-size="10.00">calc_view_origin</text>
</a>
</g>
</g>
<!-- Node1&#45;&gt;Node2 -->
<g id="edge1" class="edge"><title>Node1&#45;&gt;Node2</title>
<path fill="none" stroke="midnightblue" d="M75.4166,-57.589C91.1935,-62.4044 110.505,-68.2988 127.441,-73.468"/>
<polygon fill="midnightblue" stroke="midnightblue" points="126.507,-76.8423 137.093,-76.4141 128.551,-70.1472 126.507,-76.8423"/>
</g>
<!-- Node3 -->
<g id="node3" class="node"><title>Node3</title>
<g id="a_node3"><a xlink:href="../../d7/dd0/fn__decls_8h.html#a750e37688aa062ebb21c1e38ebee5845" target="_top" xlink:title="allocate_ximage">
<polygon fill="white" stroke="black" points="123,-38.5 123,-57.5 216,-57.5 216,-38.5 123,-38.5"/>
<text text-anchor="middle" x="169.5" y="-45.5" font-family="Helvetica,sans-Serif" font-size="10.00">allocate_ximage</text>
</a>
</g>
</g>
<!-- Node1&#45;&gt;Node3 -->
<g id="edge2" class="edge"><title>Node1&#45;&gt;Node3</title>
<path fill="none" stroke="midnightblue" d="M86.15,-48C94.7608,-48 103.946,-48 112.943,-48"/>
<polygon fill="midnightblue" stroke="midnightblue" points="112.98,-51.5001 122.98,-48 112.98,-44.5001 112.98,-51.5001"/>
</g>
<!-- Node4 -->
<g id="node4" class="node"><title>Node4</title>
<g id="a_node4"><a xlink:href="../../d7/dd0/fn__decls_8h.html#ace8a9cbad01abe8ce603602fae7c500b" target="_top" xlink:title="allocate_pixmap">
<polygon fill="white" stroke="black" points="123,-0.5 123,-19.5 216,-19.5 216,-0.5 123,-0.5"/>
<text text-anchor="middle" x="169.5" y="-7.5" font-family="Helvetica,sans-Serif" font-size="10.00">allocate_pixmap</text>
</a>
</g>
</g>
<!-- Node1&#45;&gt;Node4 -->
<g id="edge3" class="edge"><title>Node1&#45;&gt;Node4</title>
<path fill="none" stroke="midnightblue" d="M75.4166,-38.411C91.1935,-33.5956 110.505,-27.7012 127.441,-22.532"/>
<polygon fill="midnightblue" stroke="midnightblue" points="128.551,-25.8528 137.093,-19.5859 126.507,-19.1577 128.551,-25.8528"/>
</g>
</g>
</svg>
