<?xml version="1.0" encoding="UTF-8" standalone="no"?>
<!DOCTYPE svg PUBLIC "-//W3C//DTD SVG 1.1//EN"
 "http://www.w3.org/Graphics/SVG/1.1/DTD/svg11.dtd">
<!-- Generated by graphviz version 2.38.0 (20140413.2041)
 -->
<!-- Title: mag_pan Pages: 1 -->
<svg width="319pt" height="294pt"
 viewBox="0.00 0.00 319.00 294.00" xmlns="http://www.w3.org/2000/svg" xmlns:xlink="http://www.w3.org/1999/xlink">
<g id="graph0" class="graph" transform="scale(1 1) rotate(0) translate(4 290)">
<title>mag_pan</title>
<polygon fill="white" stroke="none" points="-4,4 -4,-290 315,-290 315,4 -4,4"/>
<!-- Node1 -->
<g id="node1" class="node"><title>Node1</title>
<polygon fill="#bfbfbf" stroke="black" points="0,-133.5 0,-152.5 61,-152.5 61,-133.5 0,-133.5"/>
<text text-anchor="middle" x="30.5" y="-140.5" font-family="Helvetica,sans-Serif" font-size="10.00">mag_pan</text>
</g>
<!-- Node2 -->
<g id="node2" class="node"><title>Node2</title>
<g id="a_node2"><a xlink:href="../../d7/dd0/fn__decls_8h.html#a750e37688aa062ebb21c1e38ebee5845" target="_top" xlink:title="allocate_ximage">
<polygon fill="white" stroke="black" points="100.5,-266.5 100.5,-285.5 193.5,-285.5 193.5,-266.5 100.5,-266.5"/>
<text text-anchor="middle" x="147" y="-273.5" font-family="Helvetica,sans-Serif" font-size="10.00">allocate_ximage</text>
</a>
</g>
</g>
<!-- Node1&#45;&gt;Node2 -->
<g id="edge1" class="edge"><title>Node1&#45;&gt;Node2</title>
<path fill="none" stroke="midnightblue" d="M34.5599,-152.709C41.8702,-174.407 62.3675,-227.257 97,-257 98.9381,-258.664 101.038,-260.192 103.242,-261.593"/>
<polygon fill="midnightblue" stroke="midnightblue" points="101.669,-264.721 112.132,-266.389 104.993,-258.56 101.669,-264.721"/>
</g>
<!-- Node3 -->
<g id="node3" class="node"><title>Node3</title>
<g id="a_node3"><a xlink:href="../../d7/dd0/fn__decls_8h.html#ace8a9cbad01abe8ce603602fae7c500b" target="_top" xlink:title="allocate_pixmap">
<polygon fill="white" stroke="black" points="100.5,-228.5 100.5,-247.5 193.5,-247.5 193.5,-228.5 100.5,-228.5"/>
<text text-anchor="middle" x="147" y="-235.5" font-family="Helvetica,sans-Serif" font-size="10.00">allocate_pixmap</text>
</a>
</g>
</g>
<!-- Node1&#45;&gt;Node3 -->
<g id="edge2" class="edge"><title>Node1&#45;&gt;Node3</title>
<path fill="none" stroke="midnightblue" d="M37.5768,-152.749C47.9483,-168.662 70.5319,-200.316 97,-219 99.6462,-220.868 102.501,-222.583 105.455,-224.152"/>
<polygon fill="midnightblue" stroke="midnightblue" points="103.971,-227.322 114.508,-228.427 106.96,-220.992 103.971,-227.322"/>
</g>
<!-- Node4 -->
<g id="node4" class="node"><title>Node4</title>
<g id="a_node4"><a xlink:href="../../d7/dd0/fn__decls_8h.html#a979234879b917c0b6db4dd6b7ca62df1" target="_top" xlink:title="calc_view_origin">
<polygon fill="white" stroke="black" points="99.5,-190.5 99.5,-209.5 194.5,-209.5 194.5,-190.5 99.5,-190.5"/>
<text text-anchor="middle" x="147" y="-197.5" font-family="Helvetica,sans-Serif" font-size="10.00">calc_view_origin</text>
</a>
</g>
</g>
<!-- Node1&#45;&gt;Node4 -->
<g id="edge3" class="edge"><title>Node1&#45;&gt;Node4</title>
<path fill="none" stroke="midnightblue" d="M46.487,-152.596C59.5327,-160.728 79.1059,-172.405 97,-181 101.089,-182.964 105.438,-184.882 109.792,-186.698"/>
<polygon fill="midnightblue" stroke="midnightblue" points="108.647,-190.01 119.231,-190.487 111.255,-183.513 108.647,-190.01"/>
</g>
<!-- Node5 -->
<g id="node5" class="node"><title>Node5</title>
<g id="a_node5"><a xlink:href="../../d7/dd0/fn__decls_8h.html#a90475046e2b91f556574189093f310cf" target="_top" xlink:title="set_watch_cursor">
<polygon fill="white" stroke="black" points="97,-152.5 97,-171.5 197,-171.5 197,-152.5 97,-152.5"/>
<text text-anchor="middle" x="147" y="-159.5" font-family="Helvetica,sans-Serif" font-size="10.00">set_watch_cursor</text>
</a>
</g>
</g>
<!-- Node1&#45;&gt;Node5 -->
<g id="edge4" class="edge"><title>Node1&#45;&gt;Node5</title>
<path fill="none" stroke="midnightblue" d="M61.2846,-147.942C69.1801,-149.253 77.9889,-150.714 86.8583,-152.186"/>
<polygon fill="midnightblue" stroke="midnightblue" points="86.4144,-155.66 96.8525,-153.845 87.5604,-148.755 86.4144,-155.66"/>
</g>
<!-- Node6 -->
<g id="node6" class="node"><title>Node6</title>
<g id="a_node6"><a xlink:href="../../d7/dd0/fn__decls_8h.html#a27dca554b48dde6ba1f31aff18e6db48" target="_top" xlink:title="XCopyImage">
<polygon fill="white" stroke="black" points="108.5,-114.5 108.5,-133.5 185.5,-133.5 185.5,-114.5 108.5,-114.5"/>
<text text-anchor="middle" x="147" y="-121.5" font-family="Helvetica,sans-Serif" font-size="10.00">XCopyImage</text>
</a>
</g>
</g>
<!-- Node1&#45;&gt;Node6 -->
<g id="edge5" class="edge"><title>Node1&#45;&gt;Node6</title>
<path fill="none" stroke="midnightblue" d="M61.2846,-138.058C72.5781,-136.184 85.7402,-133.999 98.2755,-131.919"/>
<polygon fill="midnightblue" stroke="midnightblue" points="98.8543,-135.371 108.146,-130.281 97.7083,-128.466 98.8543,-135.371"/>
</g>
<!-- Node7 -->
<g id="node7" class="node"><title>Node7</title>
<g id="a_node7"><a xlink:href="../../d7/dd0/fn__decls_8h.html#aa865a828176f9dd02f835f9b7063691d" target="_top" xlink:title="put_X_image">
<polygon fill="white" stroke="black" points="233,-57.5 233,-76.5 311,-76.5 311,-57.5 233,-57.5"/>
<text text-anchor="middle" x="272" y="-64.5" font-family="Helvetica,sans-Serif" font-size="10.00">put_X_image</text>
</a>
</g>
</g>
<!-- Node1&#45;&gt;Node7 -->
<g id="edge6" class="edge"><title>Node1&#45;&gt;Node7</title>
<path fill="none" stroke="midnightblue" d="M45.4202,-133.199C58.2575,-124.591 78.1268,-112.328 97,-105 137.925,-89.1098 186.978,-79.1566 222.554,-73.4428"/>
<polygon fill="midnightblue" stroke="midnightblue" points="223.33,-76.8645 232.675,-71.8731 222.257,-69.9472 223.33,-76.8645"/>
</g>
<!-- Node8 -->
<g id="node8" class="node"><title>Node8</title>
<g id="a_node8"><a xlink:href="../../db/d50/getx11_8c.html#a84e1814bcc6f83ad5491f930d01545c3" target="_top" xlink:title="handle_exposure">
<polygon fill="white" stroke="black" points="98,-38.5 98,-57.5 196,-57.5 196,-38.5 98,-38.5"/>
<text text-anchor="middle" x="147" y="-45.5" font-family="Helvetica,sans-Serif" font-size="10.00">handle_exposure</text>
</a>
</g>
</g>
<!-- Node1&#45;&gt;Node8 -->
<g id="edge7" class="edge"><title>Node1&#45;&gt;Node8</title>
<path fill="none" stroke="midnightblue" d="M38.6206,-133.205C49.7465,-118.432 72.5283,-90.2416 97,-72 101.865,-68.3733 107.364,-65.0588 112.875,-62.1273"/>
<polygon fill="midnightblue" stroke="midnightblue" points="114.652,-65.1525 122.05,-57.568 111.537,-58.8838 114.652,-65.1525"/>
</g>
<!-- Node9 -->
<g id="node9" class="node"><title>Node9</title>
<g id="a_node9"><a xlink:href="../../d7/dd0/fn__decls_8h.html#adfe9a8a1503f46391d94cad3e2181cb6" target="_top" xlink:title="set_circle_cursor">
<polygon fill="white" stroke="black" points="98.5,-0.5 98.5,-19.5 195.5,-19.5 195.5,-0.5 98.5,-0.5"/>
<text text-anchor="middle" x="147" y="-7.5" font-family="Helvetica,sans-Serif" font-size="10.00">set_circle_cursor</text>
</a>
</g>
</g>
<!-- Node1&#45;&gt;Node9 -->
<g id="edge9" class="edge"><title>Node1&#45;&gt;Node9</title>
<path fill="none" stroke="midnightblue" d="M34.5599,-133.291C41.8702,-111.593 62.3675,-58.7435 97,-29 98.9381,-27.3355 101.038,-25.8078 103.242,-24.4069"/>
<polygon fill="midnightblue" stroke="midnightblue" points="104.993,-27.4395 112.132,-19.6111 101.669,-21.2789 104.993,-27.4395"/>
</g>
<!-- Node8&#45;&gt;Node7 -->
<g id="edge8" class="edge"><title>Node8&#45;&gt;Node7</title>
<path fill="none" stroke="midnightblue" d="M196.26,-55.4548C204.967,-56.7998 214.046,-58.2023 222.753,-59.5472"/>
<polygon fill="midnightblue" stroke="midnightblue" points="222.342,-63.0251 232.759,-61.0928 223.41,-56.1072 222.342,-63.0251"/>
</g>
</g>
</svg>
