<?xml version="1.0" encoding="UTF-8" standalone="no"?>
<!DOCTYPE svg PUBLIC "-//W3C//DTD SVG 1.1//EN"
 "http://www.w3.org/Graphics/SVG/1.1/DTD/svg11.dtd">
<!-- Generated by graphviz version 2.38.0 (20140413.2041)
 -->
<!-- Title: handle_exposure Pages: 1 -->
<svg width="521pt" height="200pt"
 viewBox="0.00 0.00 521.00 200.28" xmlns="http://www.w3.org/2000/svg" xmlns:xlink="http://www.w3.org/1999/xlink">
<g id="graph0" class="graph" transform="scale(1 1) rotate(0) translate(4 196.284)">
<title>handle_exposure</title>
<polygon fill="white" stroke="none" points="-4,4 -4,-196.284 517,-196.284 517,4 -4,4"/>
<!-- Node1 -->
<g id="node1" class="node"><title>Node1</title>
<polygon fill="#bfbfbf" stroke="black" points="0,-96.7842 0,-115.784 98,-115.784 98,-96.7842 0,-96.7842"/>
<text text-anchor="middle" x="49" y="-103.784" font-family="Helvetica,sans-Serif" font-size="10.00">handle_exposure</text>
</g>
<!-- Node2 -->
<g id="node2" class="node"><title>Node2</title>
<g id="a_node2"><a xlink:href="../../db/d50/getx11_8c.html#a3ed74bd65535ad004b2474fcddb67431" target="_top" xlink:title="get_pic">
<polygon fill="white" stroke="black" points="166.5,-172.784 166.5,-191.784 217.5,-191.784 217.5,-172.784 166.5,-172.784"/>
<text text-anchor="middle" x="192" y="-179.784" font-family="Helvetica,sans-Serif" font-size="10.00">get_pic</text>
</a>
</g>
</g>
<!-- Node1&#45;&gt;Node2 -->
<g id="edge1" class="edge"><title>Node1&#45;&gt;Node2</title>
<path fill="none" stroke="midnightblue" d="M72.349,-121.449C88.9618,-132.389 112.395,-147.135 134,-158.284 144.4,-163.651 156.278,-168.799 166.489,-172.941"/>
<polygon fill="midnightblue" stroke="midnightblue" points="74.1402,-118.437 63.8763,-115.809 70.2614,-124.264 74.1402,-118.437"/>
</g>
<!-- Node3 -->
<g id="node3" class="node"><title>Node3</title>
<g id="a_node3"><a xlink:href="../../db/d50/getx11_8c.html#a5f73a6cc2fe97cb264e922a11724b17a" target="_top" xlink:title="mag_pan">
<polygon fill="white" stroke="black" points="317,-134.784 317,-153.784 378,-153.784 378,-134.784 317,-134.784"/>
<text text-anchor="middle" x="347.5" y="-141.784" font-family="Helvetica,sans-Serif" font-size="10.00">mag_pan</text>
</a>
</g>
</g>
<!-- Node1&#45;&gt;Node3 -->
<g id="edge2" class="edge"><title>Node1&#45;&gt;Node3</title>
<path fill="none" stroke="midnightblue" d="M108.331,-116.413C116.928,-117.788 125.686,-119.123 134,-120.284 199.083,-129.377 275.752,-137.369 316.874,-141.436"/>
<polygon fill="midnightblue" stroke="midnightblue" points="108.782,-112.941 98.35,-114.79 107.658,-119.85 108.782,-112.941"/>
</g>
<!-- Node4 -->
<g id="node4" class="node"><title>Node4</title>
<g id="a_node4"><a xlink:href="../../db/d50/getx11_8c.html#afd87900bb416432f303847ae3e35c2c6" target="_top" xlink:title="update_pic">
<polygon fill="white" stroke="black" points="445,-58.7842 445,-77.7842 513,-77.7842 513,-58.7842 445,-58.7842"/>
<text text-anchor="middle" x="479" y="-65.7842" font-family="Helvetica,sans-Serif" font-size="10.00">update_pic</text>
</a>
</g>
</g>
<!-- Node1&#45;&gt;Node4 -->
<g id="edge11" class="edge"><title>Node1&#45;&gt;Node4</title>
<path fill="none" stroke="midnightblue" d="M108.224,-104.778C179.435,-102.388 303.523,-96.446 409,-82.2842 420.751,-80.7064 433.503,-78.3143 444.811,-75.9515"/>
<polygon fill="midnightblue" stroke="midnightblue" points="107.991,-101.284 98.11,-105.106 108.218,-108.28 107.991,-101.284"/>
</g>
<!-- Node5 -->
<g id="node5" class="node"><title>Node5</title>
<g id="a_node5"><a xlink:href="../../dd/dc5/prototypes_8h.html#abf9e83a3bd78c3da1914a25f6755936c" target="_top" xlink:title="action_flip_forward">
<polygon fill="white" stroke="black" points="138.5,-58.7842 138.5,-77.7842 245.5,-77.7842 245.5,-58.7842 138.5,-58.7842"/>
<text text-anchor="middle" x="192" y="-65.7842" font-family="Helvetica,sans-Serif" font-size="10.00">action_flip_forward</text>
</a>
</g>
</g>
<!-- Node1&#45;&gt;Node5 -->
<g id="edge4" class="edge"><title>Node1&#45;&gt;Node5</title>
<path fill="none" stroke="midnightblue" d="M95.4398,-94.038C114.875,-88.8001 137.231,-82.7751 155.431,-77.8701"/>
<polygon fill="midnightblue" stroke="midnightblue" points="94.325,-90.7135 85.5803,-96.6952 96.1465,-97.4723 94.325,-90.7135"/>
</g>
<!-- Node7 -->
<g id="node7" class="node"><title>Node7</title>
<g id="a_node7"><a xlink:href="../../dd/dc5/prototypes_8h.html#a4251686895d72cff93ebcf2f4f57f02a" target="_top" xlink:title="action_flip_backward">
<polygon fill="white" stroke="black" points="134,-20.7842 134,-39.7842 250,-39.7842 250,-20.7842 134,-20.7842"/>
<text text-anchor="middle" x="192" y="-27.7842" font-family="Helvetica,sans-Serif" font-size="10.00">action_flip_backward</text>
</a>
</g>
</g>
<!-- Node1&#45;&gt;Node7 -->
<g id="edge8" class="edge"><title>Node1&#45;&gt;Node7</title>
<path fill="none" stroke="midnightblue" d="M70.1482,-90.2778C86.5865,-77.8089 110.804,-60.7471 134,-49.2842 141.294,-45.6796 149.435,-42.5077 157.23,-39.8394"/>
<polygon fill="midnightblue" stroke="midnightblue" points="67.6484,-87.7861 61.872,-96.6678 71.9263,-93.3268 67.6484,-87.7861"/>
</g>
<!-- Node3&#45;&gt;Node4 -->
<g id="edge3" class="edge"><title>Node3&#45;&gt;Node4</title>
<path fill="none" stroke="midnightblue" d="M386.656,-130.956C394.233,-127.81 402.003,-124.214 409,-120.284 430.972,-107.944 453.821,-89.4057 466.934,-78.1189"/>
<polygon fill="midnightblue" stroke="midnightblue" points="385.242,-127.751 377.236,-134.69 387.822,-134.258 385.242,-127.751"/>
</g>
<!-- Node5&#45;&gt;Node4 -->
<g id="edge7" class="edge"><title>Node5&#45;&gt;Node4</title>
<path fill="none" stroke="midnightblue" d="M255.811,-68.2842C314.12,-68.2842 398.666,-68.2842 444.84,-68.2842"/>
<polygon fill="midnightblue" stroke="midnightblue" points="255.606,-64.7843 245.606,-68.2842 255.605,-71.7843 255.606,-64.7843"/>
</g>
<!-- Node6 -->
<g id="node6" class="node"><title>Node6</title>
<g id="a_node6"><a xlink:href="../../dd/dc5/prototypes_8h.html#a881a8dc113b79054ba77b23f68504be1" target="_top" xlink:title="action_flip_book_cycle">
<polygon fill="white" stroke="black" points="286,-20.7842 286,-39.7842 409,-39.7842 409,-20.7842 286,-20.7842"/>
<text text-anchor="middle" x="347.5" y="-27.7842" font-family="Helvetica,sans-Serif" font-size="10.00">action_flip_book_cycle</text>
</a>
</g>
</g>
<!-- Node5&#45;&gt;Node6 -->
<g id="edge5" class="edge"><title>Node5&#45;&gt;Node6</title>
<path fill="none" stroke="midnightblue" d="M241.635,-56.2442C263.08,-50.9354 287.923,-44.7854 308.044,-39.8042"/>
<polygon fill="midnightblue" stroke="midnightblue" points="240.6,-52.8946 231.735,-58.6952 242.283,-59.6895 240.6,-52.8946"/>
</g>
<!-- Node6&#45;&gt;Node4 -->
<g id="edge6" class="edge"><title>Node6&#45;&gt;Node4</title>
<path fill="none" stroke="midnightblue" d="M391.219,-42.8195C408.836,-47.9889 428.923,-53.8833 445.332,-58.6982"/>
<polygon fill="midnightblue" stroke="midnightblue" points="391.759,-39.3305 381.178,-39.8732 389.788,-46.0473 391.759,-39.3305"/>
</g>
<!-- Node7&#45;&gt;Node4 -->
<g id="edge10" class="edge"><title>Node7&#45;&gt;Node4</title>
<path fill="none" stroke="midnightblue" d="M229.898,-17.8038C273.899,-4.98735 349.024,10.2849 409,-11.2842 435.318,-20.7488 458.739,-45.0838 470.326,-58.6984"/>
<polygon fill="midnightblue" stroke="midnightblue" points="228.763,-14.4905 220.204,-20.7355 230.789,-21.1908 228.763,-14.4905"/>
</g>
<!-- Node7&#45;&gt;Node6 -->
<g id="edge9" class="edge"><title>Node7&#45;&gt;Node6</title>
<path fill="none" stroke="midnightblue" d="M260.418,-30.2842C268.917,-30.2842 277.57,-30.2842 285.953,-30.2842"/>
<polygon fill="midnightblue" stroke="midnightblue" points="260.158,-26.7843 250.158,-30.2842 260.158,-33.7843 260.158,-26.7843"/>
</g>
</g>
</svg>
