<?xml version="1.0" encoding="UTF-8" standalone="no"?>
<!DOCTYPE svg PUBLIC "-//W3C//DTD SVG 1.1//EN"
 "http://www.w3.org/Graphics/SVG/1.1/DTD/svg11.dtd">
<!-- Generated by graphviz version 2.38.0 (20140413.2041)
 -->
<!-- Title: update_pic Pages: 1 -->
<!--zoomable 591 -->
<svg id="main" version="1.1" xmlns="http://www.w3.org/2000/svg" xmlns:xlink="http://www.w3.org/1999/xlink" xml:space="preserve" onload="init(evt)">
<style type="text/css"><![CDATA[
.edge:hover path { stroke: red; }
.edge:hover polygon { stroke: red; fill: red; }
]]></style>
<script type="text/javascript"><![CDATA[
var edges = document.getElementsByTagName('g');
if (edges && edges.length) {
  for (var i=0;i<edges.length;i++) {
    if (edges[i].id.substr(0,4)=='edge') {
      edges[i].setAttribute('class','edge');
    }
  }
}
]]></script>
        <defs>
                <circle id="rim" cx="0" cy="0" r="7"/>
                <circle id="rim2" cx="0" cy="0" r="3.5"/>
                <g id="zoomPlus">
                        <use xlink:href="#rim" fill="#404040">
                                <set attributeName="fill" to="#808080" begin="zoomplus.mouseover" end="zoomplus.mouseout"/>
                        </use>
                        <path d="M-4,0h8M0,-4v8" fill="none" stroke="white" stroke-width="1.5" pointer-events="none"/>
                </g>
                <g id="zoomMin">
                        <use xlink:href="#rim" fill="#404040">
                                <set attributeName="fill" to="#808080" begin="zoomminus.mouseover" end="zoomminus.mouseout"/>
                        </use>
                        <path d="M-4,0h8" fill="none" stroke="white" stroke-width="1.5" pointer-events="none"/>
                </g>
                <g id="dirArrow">
                        <path fill="none" stroke="white" stroke-width="1.5" d="M0,-3.0v7 M-2.5,-0.5L0,-3.0L2.5,-0.5"/>
                </g>
               <g id="resetDef">
                       <use xlink:href="#rim2" fill="#404040">
                               <set attributeName="fill" to="#808080" begin="reset.mouseover" end="reset.mouseout"/>
                       </use>
               </g>
        </defs>

<script type="text/javascript">
var viewWidth = 635;
var viewHeight = 591;
var sectionId = 'dynsection-18';
</script>
<script xlink:href="../../svgpan.js"/>
<svg id="graph" class="graph">
<g id="viewport">
<title>update_pic</title>
<polygon fill="white" stroke="none" points="-4,4 -4,-587.272 631,-587.272 631,4 -4,4"/>
<!-- Node1 -->
<g id="node1" class="node"><title>Node1</title>
<polygon fill="#bfbfbf" stroke="black" points="0,-285.5 0,-304.5 68,-304.5 68,-285.5 0,-285.5"/>
<text text-anchor="middle" x="34" y="-292.5" font-family="Helvetica,sans-Serif" font-size="10.00">update_pic</text>
</g>
<!-- Node2 -->
<g id="node2" class="node"><title>Node2</title>
<g id="a_node2"><a xlink:href="../../db/d50/getx11_8c.html#a84e1814bcc6f83ad5491f930d01545c3" target="_top" xlink:title="handle_exposure">
<polygon fill="white" stroke="black" points="415,-342.5 415,-361.5 513,-361.5 513,-342.5 415,-342.5"/>
<text text-anchor="middle" x="464" y="-349.5" font-family="Helvetica,sans-Serif" font-size="10.00">handle_exposure</text>
</a>
</g>
</g>
<!-- Node1&#45;&gt;Node2 -->
<g id="edge1" class="edge"><title>Node1&#45;&gt;Node2</title>
<path fill="none" stroke="midnightblue" d="M68.1713,-287.354C107.755,-279.913 175.098,-272.675 227,-295 248.371,-304.192 242.088,-322.806 263,-333 307.076,-354.486 363.059,-358.103 404.578,-356.998"/>
<polygon fill="midnightblue" stroke="midnightblue" points="404.941,-360.487 414.806,-356.623 404.684,-353.492 404.941,-360.487"/>
</g>
<!-- Node4 -->
<g id="node4" class="node"><title>Node4</title>
<g id="a_node4"><a xlink:href="../../d7/dd0/fn__decls_8h.html#ad04fee96697b390edcfb88fc76c1aa76" target="_top" xlink:title="set_left_ptr_cursor">
<polygon fill="white" stroke="black" points="113,-532.5 113,-551.5 218,-551.5 218,-532.5 113,-532.5"/>
<text text-anchor="middle" x="165.5" y="-539.5" font-family="Helvetica,sans-Serif" font-size="10.00">set_left_ptr_cursor</text>
</a>
</g>
</g>
<!-- Node1&#45;&gt;Node4 -->
<g id="edge3" class="edge"><title>Node1&#45;&gt;Node4</title>
<path fill="none" stroke="midnightblue" d="M34.921,-304.821C35.1883,-339.742 40.8737,-459.212 104,-523 105.452,-524.467 107.016,-525.821 108.667,-527.071"/>
<polygon fill="midnightblue" stroke="midnightblue" points="107.185,-530.267 117.544,-532.492 110.833,-524.293 107.185,-530.267"/>
</g>
<!-- Node5 -->
<g id="node5" class="node"><title>Node5</title>
<g id="a_node5"><a xlink:href="../../d7/dd0/fn__decls_8h.html#aabe85266810632187b9201572a9910e0" target="_top" xlink:title="MapPixWindow">
<polygon fill="white" stroke="black" points="121,-494.5 121,-513.5 210,-513.5 210,-494.5 121,-494.5"/>
<text text-anchor="middle" x="165.5" y="-501.5" font-family="Helvetica,sans-Serif" font-size="10.00">MapPixWindow</text>
</a>
</g>
</g>
<!-- Node1&#45;&gt;Node5 -->
<g id="edge4" class="edge"><title>Node1&#45;&gt;Node5</title>
<path fill="none" stroke="midnightblue" d="M35.615,-304.907C38.0898,-336.107 49.9924,-433.321 104,-485 106.386,-487.283 109.044,-489.293 111.877,-491.06"/>
<polygon fill="midnightblue" stroke="midnightblue" points="110.314,-494.192 120.805,-495.673 113.527,-487.973 110.314,-494.192"/>
</g>
<!-- Node6 -->
<g id="node6" class="node"><title>Node6</title>
<g id="a_node6"><a xlink:href="../../d7/dd0/fn__decls_8h.html#a22db042f4a1d5c4dc4b436c338db7673" target="_top" xlink:title="DrawPixWindow">
<polygon fill="white" stroke="black" points="119,-456.5 119,-475.5 212,-475.5 212,-456.5 119,-456.5"/>
<text text-anchor="middle" x="165.5" y="-463.5" font-family="Helvetica,sans-Serif" font-size="10.00">DrawPixWindow</text>
</a>
</g>
</g>
<!-- Node1&#45;&gt;Node6 -->
<g id="edge5" class="edge"><title>Node1&#45;&gt;Node6</title>
<path fill="none" stroke="midnightblue" d="M36.6068,-304.814C41.5217,-331.675 58.86,-407.05 104,-447 105.912,-448.692 107.973,-450.233 110.142,-451.637"/>
<polygon fill="midnightblue" stroke="midnightblue" points="108.487,-454.721 118.948,-456.401 111.818,-448.564 108.487,-454.721"/>
</g>
<!-- Node7 -->
<g id="node7" class="node"><title>Node7</title>
<g id="a_node7"><a xlink:href="../../d7/dd0/fn__decls_8h.html#adfe9a8a1503f46391d94cad3e2181cb6" target="_top" xlink:title="set_circle_cursor">
<polygon fill="white" stroke="black" points="272.5,-304.5 272.5,-323.5 369.5,-323.5 369.5,-304.5 272.5,-304.5"/>
<text text-anchor="middle" x="321" y="-311.5" font-family="Helvetica,sans-Serif" font-size="10.00">set_circle_cursor</text>
</a>
</g>
</g>
<!-- Node1&#45;&gt;Node7 -->
<g id="edge6" class="edge"><title>Node1&#45;&gt;Node7</title>
<path fill="none" stroke="midnightblue" d="M49.899,-285.455C63.4103,-277.404 84.1869,-266.494 104,-262 157.312,-249.907 175.292,-244.259 227,-262 246.173,-268.578 245.509,-279.757 263,-290 269.497,-293.805 276.712,-297.326 283.764,-300.434"/>
<polygon fill="midnightblue" stroke="midnightblue" points="282.621,-303.75 293.196,-304.403 285.336,-297.298 282.621,-303.75"/>
</g>
<!-- Node8 -->
<g id="node8" class="node"><title>Node8</title>
<g id="a_node8"><a xlink:href="../../d7/dd0/fn__decls_8h.html#aad01417711f89b0c5fe00be02009a66c" target="_top" xlink:title="UnmapPixWindow">
<polygon fill="white" stroke="black" points="114.5,-380.5 114.5,-399.5 216.5,-399.5 216.5,-380.5 114.5,-380.5"/>
<text text-anchor="middle" x="165.5" y="-387.5" font-family="Helvetica,sans-Serif" font-size="10.00">UnmapPixWindow</text>
</a>
</g>
</g>
<!-- Node1&#45;&gt;Node8 -->
<g id="edge7" class="edge"><title>Node1&#45;&gt;Node8</title>
<path fill="none" stroke="midnightblue" d="M41.217,-304.674C52.0483,-320.769 75.9246,-353.045 104,-371 107.297,-373.108 110.845,-374.998 114.51,-376.688"/>
<polygon fill="midnightblue" stroke="midnightblue" points="113.208,-379.937 123.788,-380.491 115.863,-373.46 113.208,-379.937"/>
</g>
<!-- Node9 -->
<g id="node9" class="node"><title>Node9</title>
<g id="a_node9"><a xlink:href="../../d7/dd0/fn__decls_8h.html#ade9c8df0d55c8d8a1d4a0964cef7adf9" target="_top" xlink:title="DrawSpeedWindow">
<polygon fill="white" stroke="black" points="110.5,-342.5 110.5,-361.5 220.5,-361.5 220.5,-342.5 110.5,-342.5"/>
<text text-anchor="middle" x="165.5" y="-349.5" font-family="Helvetica,sans-Serif" font-size="10.00">DrawSpeedWindow</text>
</a>
</g>
</g>
<!-- Node1&#45;&gt;Node9 -->
<g id="edge8" class="edge"><title>Node1&#45;&gt;Node9</title>
<path fill="none" stroke="midnightblue" d="M54.1694,-304.602C67.9256,-311.386 86.9645,-320.558 104,-328 112.351,-331.648 121.445,-335.38 129.984,-338.78"/>
<polygon fill="midnightblue" stroke="midnightblue" points="128.734,-342.049 139.321,-342.456 131.299,-335.536 128.734,-342.049"/>
</g>
<!-- Node10 -->
<g id="node10" class="node"><title>Node10</title>
<g id="a_node10"><a xlink:href="../../db/d50/getx11_8c.html#a4251686895d72cff93ebcf2f4f57f02a" target="_top" xlink:title="action_flip_backward">
<polygon fill="white" stroke="black" points="263,-380.5 263,-399.5 379,-399.5 379,-380.5 263,-380.5"/>
<text text-anchor="middle" x="321" y="-387.5" font-family="Helvetica,sans-Serif" font-size="10.00">action_flip_backward</text>
</a>
</g>
</g>
<!-- Node1&#45;&gt;Node10 -->
<g id="edge9" class="edge"><title>Node1&#45;&gt;Node10</title>
<path fill="none" stroke="midnightblue" d="M68.3484,-296.173C108.104,-298.76 175.615,-306.984 227,-333 246.365,-342.804 244.729,-354.283 263,-366 269.012,-369.855 275.748,-373.328 282.426,-376.355"/>
<polygon fill="midnightblue" stroke="midnightblue" points="281.505,-379.767 292.077,-380.466 284.248,-373.327 281.505,-379.767"/>
</g>
<!-- Node13 -->
<g id="node13" class="node"><title>Node13</title>
<g id="a_node13"><a xlink:href="../../db/d50/getx11_8c.html#abf9e83a3bd78c3da1914a25f6755936c" target="_top" xlink:title="action_flip_forward">
<polygon fill="white" stroke="black" points="267.5,-418.5 267.5,-437.5 374.5,-437.5 374.5,-418.5 267.5,-418.5"/>
<text text-anchor="middle" x="321" y="-425.5" font-family="Helvetica,sans-Serif" font-size="10.00">action_flip_forward</text>
</a>
</g>
</g>
<!-- Node1&#45;&gt;Node13 -->
<g id="edge13" class="edge"><title>Node1&#45;&gt;Node13</title>
<path fill="none" stroke="midnightblue" d="M35.9531,-304.603C40.5122,-348.369 61.644,-528.229 104,-561 147.237,-594.452 178.518,-586.258 227,-561 273.269,-536.895 301.26,-478.078 313.207,-447.375"/>
<polygon fill="midnightblue" stroke="midnightblue" points="316.566,-448.384 316.768,-437.791 310.004,-445.946 316.566,-448.384"/>
</g>
<!-- Node14 -->
<g id="node14" class="node"><title>Node14</title>
<g id="a_node14"><a xlink:href="../../db/d50/getx11_8c.html#a881a8dc113b79054ba77b23f68504be1" target="_top" xlink:title="action_flip_book_cycle">
<polygon fill="white" stroke="black" points="104,-418.5 104,-437.5 227,-437.5 227,-418.5 104,-418.5"/>
<text text-anchor="middle" x="165.5" y="-425.5" font-family="Helvetica,sans-Serif" font-size="10.00">action_flip_book_cycle</text>
</a>
</g>
</g>
<!-- Node1&#45;&gt;Node14 -->
<g id="edge17" class="edge"><title>Node1&#45;&gt;Node14</title>
<path fill="none" stroke="midnightblue" d="M38.1207,-304.55C45.7454,-326.387 67.4196,-380.292 104,-409 106.314,-410.816 108.804,-412.46 111.408,-413.948"/>
<polygon fill="midnightblue" stroke="midnightblue" points="110.088,-417.198 120.611,-418.43 113.153,-410.905 110.088,-417.198"/>
</g>
<!-- Node15 -->
<g id="node15" class="node"><title>Node15</title>
<g id="a_node15"><a xlink:href="../../db/d50/getx11_8c.html#a5f73a6cc2fe97cb264e922a11724b17a" target="_top" xlink:title="mag_pan">
<polygon fill="white" stroke="black" points="135,-190.5 135,-209.5 196,-209.5 196,-190.5 135,-190.5"/>
<text text-anchor="middle" x="165.5" y="-197.5" font-family="Helvetica,sans-Serif" font-size="10.00">mag_pan</text>
</a>
</g>
</g>
<!-- Node1&#45;&gt;Node15 -->
<g id="edge20" class="edge"><title>Node1&#45;&gt;Node15</title>
<path fill="none" stroke="midnightblue" d="M42.062,-285.478C53.5589,-270.557 77.6967,-241.561 104,-224 110.608,-219.588 118.15,-215.79 125.614,-212.6"/>
<polygon fill="midnightblue" stroke="midnightblue" points="126.954,-215.834 134.952,-208.885 124.366,-209.33 126.954,-215.834"/>
</g>
<!-- Node21 -->
<g id="node21" class="node"><title>Node21</title>
<g id="a_node21"><a xlink:href="../../db/d50/getx11_8c.html#a9881071059141f17e4cb2cb033804f95" target="_top" xlink:title="resize_window">
<polygon fill="white" stroke="black" points="122.5,-152.5 122.5,-171.5 208.5,-171.5 208.5,-152.5 122.5,-152.5"/>
<text text-anchor="middle" x="165.5" y="-159.5" font-family="Helvetica,sans-Serif" font-size="10.00">resize_window</text>
</a>
</g>
</g>
<!-- Node1&#45;&gt;Node21 -->
<g id="edge29" class="edge"><title>Node1&#45;&gt;Node21</title>
<path fill="none" stroke="midnightblue" d="M38.1207,-285.45C45.7454,-263.613 67.4196,-209.708 104,-181 106.813,-178.792 109.887,-176.839 113.109,-175.11"/>
<polygon fill="midnightblue" stroke="midnightblue" points="114.858,-178.159 122.492,-170.813 111.943,-171.795 114.858,-178.159"/>
</g>
<!-- Node22 -->
<g id="node22" class="node"><title>Node22</title>
<g id="a_node22"><a xlink:href="../../d0/dcc/rletorla_8c.html#aafde19f7d36ca163a143579c1b125b6d" target="_top" xlink:title="free">
<polygon fill="white" stroke="black" points="148,-114.5 148,-133.5 183,-133.5 183,-114.5 148,-114.5"/>
<text text-anchor="middle" x="165.5" y="-121.5" font-family="Helvetica,sans-Serif" font-size="10.00">free</text>
</a>
</g>
</g>
<!-- Node1&#45;&gt;Node22 -->
<g id="edge33" class="edge"><title>Node1&#45;&gt;Node22</title>
<path fill="none" stroke="midnightblue" d="M36.6068,-285.186C41.5217,-258.325 58.86,-182.95 104,-143 113.342,-134.732 126.267,-130.061 137.773,-127.423"/>
<polygon fill="midnightblue" stroke="midnightblue" points="138.622,-130.824 147.797,-125.526 137.321,-123.946 138.622,-130.824"/>
</g>
<!-- Node23 -->
<g id="node23" class="node"><title>Node23</title>
<g id="a_node23"><a xlink:href="../../d7/dd0/fn__decls_8h.html#af440965bce1598533216c3216613c890" target="_top" xlink:title="destroy_X_image">
<polygon fill="white" stroke="black" points="116,-76.5 116,-95.5 215,-95.5 215,-76.5 116,-76.5"/>
<text text-anchor="middle" x="165.5" y="-83.5" font-family="Helvetica,sans-Serif" font-size="10.00">destroy_X_image</text>
</a>
</g>
</g>
<!-- Node1&#45;&gt;Node23 -->
<g id="edge34" class="edge"><title>Node1&#45;&gt;Node23</title>
<path fill="none" stroke="midnightblue" d="M35.615,-285.093C38.0898,-253.893 49.9924,-156.679 104,-105 105.648,-103.423 107.426,-101.977 109.301,-100.651"/>
<polygon fill="midnightblue" stroke="midnightblue" points="111.16,-103.618 118.051,-95.5706 107.645,-97.5648 111.16,-103.618"/>
</g>
<!-- Node24 -->
<g id="node24" class="node"><title>Node24</title>
<g id="a_node24"><a xlink:href="../../d7/dd0/fn__decls_8h.html#a0a340f763ec8c56d8692eb296cb3b64f" target="_top" xlink:title="free_X_pixmap">
<polygon fill="white" stroke="black" points="121.5,-38.5 121.5,-57.5 209.5,-57.5 209.5,-38.5 121.5,-38.5"/>
<text text-anchor="middle" x="165.5" y="-45.5" font-family="Helvetica,sans-Serif" font-size="10.00">free_X_pixmap</text>
</a>
</g>
</g>
<!-- Node1&#45;&gt;Node24 -->
<g id="edge35" class="edge"><title>Node1&#45;&gt;Node24</title>
<path fill="none" stroke="midnightblue" d="M34.921,-285.179C35.1883,-250.258 40.8737,-130.788 104,-67 106.476,-64.4984 109.276,-62.3253 112.283,-60.4376"/>
<polygon fill="midnightblue" stroke="midnightblue" points="113.916,-63.5331 121.199,-55.8379 110.707,-57.3122 113.916,-63.5331"/>
</g>
<!-- Node25 -->
<g id="node25" class="node"><title>Node25</title>
<g id="a_node25"><a xlink:href="../../d7/dd0/fn__decls_8h.html#ab6fdc1344d5d9ca4b1e65312e84a673e" target="_top" xlink:title="free_image_colors">
<polygon fill="white" stroke="black" points="113.5,-0.5 113.5,-19.5 217.5,-19.5 217.5,-0.5 113.5,-0.5"/>
<text text-anchor="middle" x="165.5" y="-7.5" font-family="Helvetica,sans-Serif" font-size="10.00">free_image_colors</text>
</a>
</g>
</g>
<!-- Node1&#45;&gt;Node25 -->
<g id="edge36" class="edge"><title>Node1&#45;&gt;Node25</title>
<path fill="none" stroke="midnightblue" d="M36.239,-285.386C41.9674,-242.338 67.1822,-67.7253 104,-29 105.394,-27.5339 106.899,-26.1804 108.493,-24.9308"/>
<polygon fill="midnightblue" stroke="midnightblue" points="110.499,-27.8036 117.092,-19.5097 106.766,-21.8823 110.499,-27.8036"/>
</g>
<!-- Node3 -->
<g id="node3" class="node"><title>Node3</title>
<g id="a_node3"><a xlink:href="../../d7/dd0/fn__decls_8h.html#aa865a828176f9dd02f835f9b7063691d" target="_top" xlink:title="put_X_image">
<polygon fill="white" stroke="black" points="549,-247.5 549,-266.5 627,-266.5 627,-247.5 549,-247.5"/>
<text text-anchor="middle" x="588" y="-254.5" font-family="Helvetica,sans-Serif" font-size="10.00">put_X_image</text>
</a>
</g>
</g>
<!-- Node2&#45;&gt;Node3 -->
<g id="edge2" class="edge"><title>Node2&#45;&gt;Node3</title>
<path fill="none" stroke="midnightblue" d="M477.597,-342.191C498.618,-325.822 541.043,-292.786 566.443,-273.008"/>
<polygon fill="midnightblue" stroke="midnightblue" points="568.914,-275.519 574.654,-266.614 564.613,-269.996 568.914,-275.519"/>
</g>
<!-- Node10&#45;&gt;Node2 -->
<g id="edge11" class="edge"><title>Node10&#45;&gt;Node2</title>
<path fill="none" stroke="midnightblue" d="M357.58,-380.411C375.782,-375.506 398.138,-369.48 417.572,-364.243"/>
<polygon fill="midnightblue" stroke="midnightblue" points="418.686,-367.568 427.431,-361.586 416.865,-360.809 418.686,-367.568"/>
</g>
<!-- Node11 -->
<g id="node11" class="node"><title>Node11</title>
<g id="a_node11"><a xlink:href="../../d7/dd0/fn__decls_8h.html#af2a9f1fee798207986fcdd6a51543e42" target="_top" xlink:title="set_timer">
<polygon fill="white" stroke="black" points="434,-418.5 434,-437.5 494,-437.5 494,-418.5 434,-418.5"/>
<text text-anchor="middle" x="464" y="-425.5" font-family="Helvetica,sans-Serif" font-size="10.00">set_timer</text>
</a>
</g>
</g>
<!-- Node10&#45;&gt;Node11 -->
<g id="edge10" class="edge"><title>Node10&#45;&gt;Node11</title>
<path fill="none" stroke="midnightblue" d="M357.58,-399.589C377.772,-405.031 403.076,-411.85 423.832,-417.444"/>
<polygon fill="midnightblue" stroke="midnightblue" points="423.047,-420.857 433.613,-420.08 424.869,-414.099 423.047,-420.857"/>
</g>
<!-- Node12 -->
<g id="node12" class="node"><title>Node12</title>
<g id="a_node12"><a xlink:href="../../d7/dd0/fn__decls_8h.html#a775d833c85eb59a7b5f094ab1b344c95" target="_top" xlink:title="wait_timer">
<polygon fill="white" stroke="black" points="431.5,-380.5 431.5,-399.5 496.5,-399.5 496.5,-380.5 431.5,-380.5"/>
<text text-anchor="middle" x="464" y="-387.5" font-family="Helvetica,sans-Serif" font-size="10.00">wait_timer</text>
</a>
</g>
</g>
<!-- Node10&#45;&gt;Node12 -->
<g id="edge12" class="edge"><title>Node10&#45;&gt;Node12</title>
<path fill="none" stroke="midnightblue" d="M379.35,-390C393.307,-390 407.978,-390 421.067,-390"/>
<polygon fill="midnightblue" stroke="midnightblue" points="421.181,-393.5 431.181,-390 421.181,-386.5 421.181,-393.5"/>
</g>
<!-- Node13&#45;&gt;Node2 -->
<g id="edge15" class="edge"><title>Node13&#45;&gt;Node2</title>
<path fill="none" stroke="midnightblue" d="M359.392,-418.474C366.191,-415.937 373.017,-412.81 379,-409 398.623,-396.503 395.729,-384.033 415,-371 417.747,-369.142 420.702,-367.425 423.749,-365.845"/>
<polygon fill="midnightblue" stroke="midnightblue" points="425.453,-368.913 433.044,-361.521 422.5,-362.566 425.453,-368.913"/>
</g>
<!-- Node13&#45;&gt;Node11 -->
<g id="edge14" class="edge"><title>Node13&#45;&gt;Node11</title>
<path fill="none" stroke="midnightblue" d="M374.503,-428C390.789,-428 408.448,-428 423.677,-428"/>
<polygon fill="midnightblue" stroke="midnightblue" points="423.785,-431.5 433.785,-428 423.785,-424.5 423.785,-431.5"/>
</g>
<!-- Node13&#45;&gt;Node12 -->
<g id="edge16" class="edge"><title>Node13&#45;&gt;Node12</title>
<path fill="none" stroke="midnightblue" d="M357.58,-418.411C376.982,-413.182 401.105,-406.681 421.376,-401.218"/>
<polygon fill="midnightblue" stroke="midnightblue" points="422.535,-404.53 431.28,-398.549 420.714,-397.771 422.535,-404.53"/>
</g>
<!-- Node14&#45;&gt;Node10 -->
<g id="edge19" class="edge"><title>Node14&#45;&gt;Node10</title>
<path fill="none" stroke="midnightblue" d="M205.235,-418.411C225.399,-413.419 250.248,-407.268 271.661,-401.967"/>
<polygon fill="midnightblue" stroke="midnightblue" points="272.678,-405.321 281.544,-399.52 270.996,-398.526 272.678,-405.321"/>
</g>
<!-- Node14&#45;&gt;Node13 -->
<g id="edge18" class="edge"><title>Node14&#45;&gt;Node13</title>
<path fill="none" stroke="midnightblue" d="M227.167,-428C236.994,-428 247.189,-428 257.069,-428"/>
<polygon fill="midnightblue" stroke="midnightblue" points="257.221,-431.5 267.221,-428 257.221,-424.5 257.221,-431.5"/>
</g>
<!-- Node15&#45;&gt;Node2 -->
<g id="edge27" class="edge"><title>Node15&#45;&gt;Node2</title>
<path fill="none" stroke="midnightblue" d="M180.366,-209.501C198.66,-221.723 232.156,-243.039 263,-257 312.424,-279.372 330.301,-271.091 379,-295 402.226,-306.403 426.439,-323.473 442.868,-335.961"/>
<polygon fill="midnightblue" stroke="midnightblue" points="441.088,-339.009 451.139,-342.362 445.373,-333.473 441.088,-339.009"/>
</g>
<!-- Node15&#45;&gt;Node3 -->
<g id="edge26" class="edge"><title>Node15&#45;&gt;Node3</title>
<path fill="none" stroke="midnightblue" d="M196.271,-192.583C215.234,-188.246 240.397,-183.204 263,-181 314.312,-175.997 328.233,-172.016 379,-181 445.834,-192.828 519.405,-224.485 558.639,-242.998"/>
<polygon fill="midnightblue" stroke="midnightblue" points="557.317,-246.245 567.848,-247.401 560.336,-239.93 557.317,-246.245"/>
</g>
<!-- Node15&#45;&gt;Node7 -->
<g id="edge28" class="edge"><title>Node15&#45;&gt;Node7</title>
<path fill="none" stroke="midnightblue" d="M196.161,-207.205C206.789,-210.894 218.285,-216.286 227,-224 252.02,-246.146 238.213,-267.594 263,-290 267.388,-293.967 272.528,-297.338 277.892,-300.186"/>
<polygon fill="midnightblue" stroke="midnightblue" points="276.501,-303.399 287.038,-304.498 279.486,-297.067 276.501,-303.399"/>
</g>
<!-- Node16 -->
<g id="node16" class="node"><title>Node16</title>
<g id="a_node16"><a xlink:href="../../d7/dd0/fn__decls_8h.html#a750e37688aa062ebb21c1e38ebee5845" target="_top" xlink:title="allocate_ximage">
<polygon fill="white" stroke="black" points="274.5,-38.5 274.5,-57.5 367.5,-57.5 367.5,-38.5 274.5,-38.5"/>
<text text-anchor="middle" x="321" y="-45.5" font-family="Helvetica,sans-Serif" font-size="10.00">allocate_ximage</text>
</a>
</g>
</g>
<!-- Node15&#45;&gt;Node16 -->
<g id="edge21" class="edge"><title>Node15&#45;&gt;Node16</title>
<path fill="none" stroke="midnightblue" d="M196.277,-196.492C207.172,-193.831 218.82,-189.167 227,-181 264.6,-143.459 225.729,-104.868 263,-67 264.427,-65.5503 265.967,-64.2113 267.595,-62.9744"/>
<polygon fill="midnightblue" stroke="midnightblue" points="269.656,-65.816 276.348,-57.6022 265.995,-59.8499 269.656,-65.816"/>
</g>
<!-- Node17 -->
<g id="node17" class="node"><title>Node17</title>
<g id="a_node17"><a xlink:href="../../d7/dd0/fn__decls_8h.html#ace8a9cbad01abe8ce603602fae7c500b" target="_top" xlink:title="allocate_pixmap">
<polygon fill="white" stroke="black" points="274.5,-114.5 274.5,-133.5 367.5,-133.5 367.5,-114.5 274.5,-114.5"/>
<text text-anchor="middle" x="321" y="-121.5" font-family="Helvetica,sans-Serif" font-size="10.00">allocate_pixmap</text>
</a>
</g>
</g>
<!-- Node15&#45;&gt;Node17 -->
<g id="edge22" class="edge"><title>Node15&#45;&gt;Node17</title>
<path fill="none" stroke="midnightblue" d="M196.201,-193.471C206.371,-190.52 217.558,-186.445 227,-181 245.802,-170.156 244.729,-159.717 263,-148 269.012,-144.145 275.748,-140.672 282.426,-137.645"/>
<polygon fill="midnightblue" stroke="midnightblue" points="284.248,-140.673 292.077,-133.534 281.505,-134.233 284.248,-140.673"/>
</g>
<!-- Node18 -->
<g id="node18" class="node"><title>Node18</title>
<g id="a_node18"><a xlink:href="../../d7/dd0/fn__decls_8h.html#a979234879b917c0b6db4dd6b7ca62df1" target="_top" xlink:title="calc_view_origin">
<polygon fill="white" stroke="black" points="273.5,-76.5 273.5,-95.5 368.5,-95.5 368.5,-76.5 273.5,-76.5"/>
<text text-anchor="middle" x="321" y="-83.5" font-family="Helvetica,sans-Serif" font-size="10.00">calc_view_origin</text>
</a>
</g>
</g>
<!-- Node15&#45;&gt;Node18 -->
<g id="edge23" class="edge"><title>Node15&#45;&gt;Node18</title>
<path fill="none" stroke="midnightblue" d="M196.025,-195.811C206.761,-193.064 218.365,-188.518 227,-181 255.189,-156.458 235.026,-129.788 263,-105 264.913,-103.305 266.981,-101.761 269.159,-100.353"/>
<polygon fill="midnightblue" stroke="midnightblue" points="270.862,-103.411 277.995,-95.5767 267.533,-97.2533 270.862,-103.411"/>
</g>
<!-- Node19 -->
<g id="node19" class="node"><title>Node19</title>
<g id="a_node19"><a xlink:href="../../d7/dd0/fn__decls_8h.html#a90475046e2b91f556574189093f310cf" target="_top" xlink:title="set_watch_cursor">
<polygon fill="white" stroke="black" points="271,-228.5 271,-247.5 371,-247.5 371,-228.5 271,-228.5"/>
<text text-anchor="middle" x="321" y="-235.5" font-family="Helvetica,sans-Serif" font-size="10.00">set_watch_cursor</text>
</a>
</g>
</g>
<!-- Node15&#45;&gt;Node19 -->
<g id="edge24" class="edge"><title>Node15&#45;&gt;Node19</title>
<path fill="none" stroke="midnightblue" d="M196.096,-207.327C217.459,-212.615 246.78,-219.874 271.536,-226.002"/>
<polygon fill="midnightblue" stroke="midnightblue" points="270.928,-229.457 281.476,-228.463 272.61,-222.663 270.928,-229.457"/>
</g>
<!-- Node20 -->
<g id="node20" class="node"><title>Node20</title>
<g id="a_node20"><a xlink:href="../../d7/dd0/fn__decls_8h.html#a27dca554b48dde6ba1f31aff18e6db48" target="_top" xlink:title="XCopyImage">
<polygon fill="white" stroke="black" points="282.5,-190.5 282.5,-209.5 359.5,-209.5 359.5,-190.5 282.5,-190.5"/>
<text text-anchor="middle" x="321" y="-197.5" font-family="Helvetica,sans-Serif" font-size="10.00">XCopyImage</text>
</a>
</g>
</g>
<!-- Node15&#45;&gt;Node20 -->
<g id="edge25" class="edge"><title>Node15&#45;&gt;Node20</title>
<path fill="none" stroke="midnightblue" d="M196.096,-200C217.593,-200 247.148,-200 272.001,-200"/>
<polygon fill="midnightblue" stroke="midnightblue" points="272.327,-203.5 282.327,-200 272.327,-196.5 272.327,-203.5"/>
</g>
<!-- Node21&#45;&gt;Node16 -->
<g id="edge31" class="edge"><title>Node21&#45;&gt;Node16</title>
<path fill="none" stroke="midnightblue" d="M208.579,-153.776C215.248,-151.127 221.686,-147.627 227,-143 255.189,-118.458 235.026,-91.7875 263,-67 264.913,-65.3051 266.981,-63.7606 269.159,-62.3532"/>
<polygon fill="midnightblue" stroke="midnightblue" points="270.862,-65.4111 277.995,-57.5767 267.533,-59.2533 270.862,-65.4111"/>
</g>
<!-- Node21&#45;&gt;Node17 -->
<g id="edge32" class="edge"><title>Node21&#45;&gt;Node17</title>
<path fill="none" stroke="midnightblue" d="M205.235,-152.411C225.399,-147.419 250.248,-141.268 271.661,-135.967"/>
<polygon fill="midnightblue" stroke="midnightblue" points="272.678,-139.321 281.544,-133.52 270.996,-132.526 272.678,-139.321"/>
</g>
<!-- Node21&#45;&gt;Node18 -->
<g id="edge30" class="edge"><title>Node21&#45;&gt;Node18</title>
<path fill="none" stroke="midnightblue" d="M206.826,-152.499C213.831,-149.977 220.837,-146.85 227,-143 246.731,-130.675 243.377,-117.497 263,-105 266.178,-102.976 269.595,-101.145 273.119,-99.4921"/>
<polygon fill="midnightblue" stroke="midnightblue" points="274.732,-102.611 282.608,-95.5257 272.032,-96.1528 274.732,-102.611"/>
</g>
</g>
</svg>
        <g id="navigator" transform="translate(0 0)" fill="#404254">
                <rect fill="#f2f5e9" fill-opacity="0.5" stroke="#606060" stroke-width=".5" x="0" y="0" width="60" height="60"/>
                <use id="zoomplus" xlink:href="#zoomPlus" x="17" y="9" onmousedown="handleZoom(evt,'in')"/>
                <use id="zoomminus" xlink:href="#zoomMin" x="42" y="9" onmousedown="handleZoom(evt,'out')"/>
                <use id="reset" xlink:href="#resetDef" x="30" y="36" onmousedown="handleReset()"/>
                <g id="arrowUp" xlink:href="#dirArrow" transform="translate(30 24)" onmousedown="handlePan(0,-1)">
                  <use xlink:href="#rim" fill="#404040">
                        <set attributeName="fill" to="#808080" begin="arrowUp.mouseover" end="arrowUp.mouseout"/>
                  </use>
                  <path fill="none" stroke="white" stroke-width="1.5" d="M0,-3.0v7 M-2.5,-0.5L0,-3.0L2.5,-0.5"/>
                </g>
                <g id="arrowRight" xlink:href="#dirArrow" transform="rotate(90) translate(36 -43)" onmousedown="handlePan(1,0)">
                  <use xlink:href="#rim" fill="#404040">
                        <set attributeName="fill" to="#808080" begin="arrowRight.mouseover" end="arrowRight.mouseout"/>
                  </use>
                  <path fill="none" stroke="white" stroke-width="1.5" d="M0,-3.0v7 M-2.5,-0.5L0,-3.0L2.5,-0.5"/>
                </g>
                <g id="arrowDown" xlink:href="#dirArrow" transform="rotate(180) translate(-30 -48)" onmousedown="handlePan(0,1)">
                  <use xlink:href="#rim" fill="#404040">
                        <set attributeName="fill" to="#808080" begin="arrowDown.mouseover" end="arrowDown.mouseout"/>
                  </use>
                  <path fill="none" stroke="white" stroke-width="1.5" d="M0,-3.0v7 M-2.5,-0.5L0,-3.0L2.5,-0.5"/>
                </g>
                <g id="arrowLeft" xlink:href="#dirArrow" transform="rotate(270) translate(-36 17)" onmousedown="handlePan(-1,0)">
                  <use xlink:href="#rim" fill="#404040">
                        <set attributeName="fill" to="#808080" begin="arrowLeft.mouseover" end="arrowLeft.mouseout"/>
                  </use>
                  <path fill="none" stroke="white" stroke-width="1.5" d="M0,-3.0v7 M-2.5,-0.5L0,-3.0L2.5,-0.5"/>
                </g>
        </g>
        <svg viewBox="0 0 15 15" width="100%" height="30px" preserveAspectRatio="xMaxYMin meet">
         <g id="arrow_out" transform="scale(0.3 0.3)">
          <a xlink:href="getx11_8c_afd87900bb416432f303847ae3e35c2c6_cgraph_org.svg" target="_base">
           <rect id="button" ry="5" rx="5" y="6" x="6" height="38" width="38"
                fill="#f2f5e9" fill-opacity="0.5" stroke="#606060" stroke-width="1.0"/>
           <path id="arrow"
             d="M 11.500037,31.436501 C 11.940474,20.09759 22.043105,11.32322 32.158766,21.979434 L 37.068811,17.246167 C 37.068811,17.246167 37.088388,32 37.088388,32 L 22.160133,31.978069 C 22.160133,31.978069 26.997745,27.140456 26.997745,27.140456 C 18.528582,18.264221 13.291696,25.230495 11.500037,31.436501 z"
             style="fill:#404040;"/>
          </a>
         </g>
        </svg>
</svg>
