<?xml version="1.0" encoding="UTF-8" standalone="no"?>
<!DOCTYPE svg PUBLIC "-//W3C//DTD SVG 1.1//EN"
 "http://www.w3.org/Graphics/SVG/1.1/DTD/svg11.dtd">
<!-- Generated by graphviz version 2.38.0 (20140413.2041)
 -->
<!-- Title: action_flip_backward Pages: 1 -->
<svg width="387pt" height="47pt"
 viewBox="0.00 0.00 387.00 47.00" xmlns="http://www.w3.org/2000/svg" xmlns:xlink="http://www.w3.org/1999/xlink">
<g id="graph0" class="graph" transform="scale(1 1) rotate(0) translate(4 43)">
<title>action_flip_backward</title>
<polygon fill="white" stroke="none" points="-4,4 -4,-43 383,-43 383,4 -4,4"/>
<!-- Node1 -->
<g id="node1" class="node"><title>Node1</title>
<polygon fill="#bfbfbf" stroke="black" points="0,-0.5 0,-19.5 116,-19.5 116,-0.5 0,-0.5"/>
<text text-anchor="middle" x="58" y="-7.5" font-family="Helvetica,sans-Serif" font-size="10.00">action_flip_backward</text>
</g>
<!-- Node2 -->
<g id="node2" class="node"><title>Node2</title>
<g id="a_node2"><a xlink:href="../../dd/dc5/prototypes_8h.html#a881a8dc113b79054ba77b23f68504be1" target="_top" xlink:title="action_flip_book_cycle">
<polygon fill="white" stroke="black" points="152,-19.5 152,-38.5 275,-38.5 275,-19.5 152,-19.5"/>
<text text-anchor="middle" x="213.5" y="-26.5" font-family="Helvetica,sans-Serif" font-size="10.00">action_flip_book_cycle</text>
</a>
</g>
</g>
<!-- Node1&#45;&gt;Node2 -->
<g id="edge1" class="edge"><title>Node1&#45;&gt;Node2</title>
<path fill="none" stroke="midnightblue" d="M126.138,-18.3103C134.727,-19.3733 143.478,-20.4566 151.953,-21.5056"/>
<polygon fill="midnightblue" stroke="midnightblue" points="126.512,-14.8299 116.158,-17.0749 125.652,-21.7769 126.512,-14.8299"/>
</g>
<!-- Node3 -->
<g id="node3" class="node"><title>Node3</title>
<g id="a_node3"><a xlink:href="../../db/d50/getx11_8c.html#afd87900bb416432f303847ae3e35c2c6" target="_top" xlink:title="update_pic">
<polygon fill="white" stroke="black" points="311,-0.5 311,-19.5 379,-19.5 379,-0.5 311,-0.5"/>
<text text-anchor="middle" x="345" y="-7.5" font-family="Helvetica,sans-Serif" font-size="10.00">update_pic</text>
</a>
</g>
</g>
<!-- Node1&#45;&gt;Node3 -->
<g id="edge3" class="edge"><title>Node1&#45;&gt;Node3</title>
<path fill="none" stroke="midnightblue" d="M126.524,-10C184.575,-10 265.838,-10 310.792,-10"/>
<polygon fill="midnightblue" stroke="midnightblue" points="126.331,-6.5001 116.331,-10 126.331,-13.5001 126.331,-6.5001"/>
</g>
<!-- Node2&#45;&gt;Node3 -->
<g id="edge2" class="edge"><title>Node2&#45;&gt;Node3</title>
<path fill="none" stroke="midnightblue" d="M285.24,-18.6212C294.214,-17.3046 303.033,-16.0106 311,-14.8417"/>
<polygon fill="midnightblue" stroke="midnightblue" points="284.465,-15.1973 275.079,-20.1119 285.481,-22.1231 284.465,-15.1973"/>
</g>
</g>
</svg>
