<?xml version="1.0" encoding="UTF-8" standalone="no"?>
<!DOCTYPE svg PUBLIC "-//W3C//DTD SVG 1.1//EN"
 "http://www.w3.org/Graphics/SVG/1.1/DTD/svg11.dtd">
<!-- Generated by graphviz version 2.38.0 (20140413.2041)
 -->
<!-- Title: Box Pages: 1 -->
<svg width="238pt" height="106pt"
 viewBox="0.00 0.00 238.00 106.00" xmlns="http://www.w3.org/2000/svg" xmlns:xlink="http://www.w3.org/1999/xlink">
<g id="graph0" class="graph" transform="scale(1 1) rotate(0) translate(4 102)">
<title>Box</title>
<polygon fill="white" stroke="none" points="-4,4 -4,-102 234,-102 234,4 -4,4"/>
<!-- Node1 -->
<g id="node1" class="node"><title>Node1</title>
<polygon fill="#bfbfbf" stroke="black" points="116,-0.5 116,-19.5 151,-19.5 151,-0.5 116,-0.5"/>
<text text-anchor="middle" x="133.5" y="-7.5" font-family="Helvetica,sans-Serif" font-size="10.00">Box</text>
</g>
<!-- Node2 -->
<g id="node2" class="node"><title>Node2</title>
<polygon fill="white" stroke="#bfbfbf" points="0,-78.5 0,-97.5 47,-97.5 47,-78.5 0,-78.5"/>
<text text-anchor="middle" x="23.5" y="-85.5" font-family="Helvetica,sans-Serif" font-size="10.00">double</text>
</g>
<!-- Node2&#45;&gt;Node1 -->
<g id="edge1" class="edge"><title>Node2&#45;&gt;Node1</title>
<path fill="none" stroke="#9a32cd" stroke-dasharray="5,2" d="M25.3271,-68.4121C27.2699,-58.1611 31.2703,-45.9394 39.5,-38 60.2737,-17.9592 94.9093,-12.6287 115.836,-11.3089"/>
<polygon fill="#9a32cd" stroke="#9a32cd" points="21.8398,-68.0783 23.9238,-78.4661 28.7726,-69.046 21.8398,-68.0783"/>
<text text-anchor="middle" x="70" y="-46.5" font-family="Helvetica,sans-Serif" font-size="10.00"> weightedvar</text>
</g>
<!-- Node3 -->
<g id="node3" class="node"><title>Node3</title>
<polygon fill="white" stroke="#bfbfbf" points="89,-78.5 89,-97.5 126,-97.5 126,-78.5 89,-78.5"/>
<text text-anchor="middle" x="107.5" y="-85.5" font-family="Helvetica,sans-Serif" font-size="10.00">float</text>
</g>
<!-- Node3&#45;&gt;Node1 -->
<g id="edge2" class="edge"><title>Node3&#45;&gt;Node1</title>
<path fill="none" stroke="#9a32cd" stroke-dasharray="5,2" d="M104.802,-68.0903C104.224,-58.72 104.696,-47.4237 108.5,-38 111.417,-30.7729 117.232,-24.3021 122.52,-19.5081"/>
<polygon fill="#9a32cd" stroke="#9a32cd" points="101.35,-68.73 105.876,-78.3094 108.312,-67.9984 101.35,-68.73"/>
<text text-anchor="middle" x="123.5" y="-46.5" font-family="Helvetica,sans-Serif" font-size="10.00"> mean</text>
</g>
<!-- Node4 -->
<g id="node4" class="node"><title>Node4</title>
<polygon fill="white" stroke="#bfbfbf" points="146,-78.5 146,-97.5 175,-97.5 175,-78.5 146,-78.5"/>
<text text-anchor="middle" x="160.5" y="-85.5" font-family="Helvetica,sans-Serif" font-size="10.00">int</text>
</g>
<!-- Node4&#45;&gt;Node1 -->
<g id="edge3" class="edge"><title>Node4&#45;&gt;Node1</title>
<path fill="none" stroke="#9a32cd" stroke-dasharray="5,2" d="M153.99,-68.6744C148.461,-53.1127 140.773,-31.4722 136.561,-19.6165"/>
<polygon fill="#9a32cd" stroke="#9a32cd" points="150.757,-70.0305 157.403,-78.2818 157.353,-67.6871 150.757,-70.0305"/>
<text text-anchor="middle" x="161.5" y="-52" font-family="Helvetica,sans-Serif" font-size="10.00"> high</text>
<text text-anchor="middle" x="161.5" y="-41" font-family="Helvetica,sans-Serif" font-size="10.00">low</text>
</g>
<!-- Node5 -->
<g id="node5" class="node"><title>Node5</title>
<polygon fill="white" stroke="#bfbfbf" points="193,-78.5 193,-97.5 230,-97.5 230,-78.5 193,-78.5"/>
<text text-anchor="middle" x="211.5" y="-85.5" font-family="Helvetica,sans-Serif" font-size="10.00">long</text>
</g>
<!-- Node5&#45;&gt;Node1 -->
<g id="edge4" class="edge"><title>Node5&#45;&gt;Node1</title>
<path fill="none" stroke="#9a32cd" stroke-dasharray="5,2" d="M201.841,-69.5217C195.741,-59.5132 187.194,-47.1634 177.5,-38 169.684,-30.6119 159.528,-24.2175 150.942,-19.5086"/>
<polygon fill="#9a32cd" stroke="#9a32cd" points="198.846,-71.3333 206.898,-78.2197 204.898,-67.8153 198.846,-71.3333"/>
<text text-anchor="middle" x="210" y="-52" font-family="Helvetica,sans-Serif" font-size="10.00"> freq</text>
<text text-anchor="middle" x="210" y="-41" font-family="Helvetica,sans-Serif" font-size="10.00">weight</text>
</g>
</g>
</svg>
