<?xml version="1.0" encoding="UTF-8" standalone="no"?>
<!DOCTYPE svg PUBLIC "-//W3C//DTD SVG 1.1//EN"
 "http://www.w3.org/Graphics/SVG/1.1/DTD/svg11.dtd">
<!-- Generated by graphviz version 2.38.0 (20140413.2041)
 -->
<!-- Title: main Pages: 1 -->
<svg width="550pt" height="674pt"
 viewBox="0.00 0.00 550.00 674.00" xmlns="http://www.w3.org/2000/svg" xmlns:xlink="http://www.w3.org/1999/xlink">
<g id="graph0" class="graph" transform="scale(1 1) rotate(0) translate(4 670)">
<title>main</title>
<polygon fill="white" stroke="none" points="-4,4 -4,-670 546,-670 546,4 -4,4"/>
<!-- Node1 -->
<g id="node1" class="node"><title>Node1</title>
<polygon fill="#bfbfbf" stroke="black" points="0,-285.5 0,-304.5 39,-304.5 39,-285.5 0,-285.5"/>
<text text-anchor="middle" x="19.5" y="-292.5" font-family="Helvetica,sans-Serif" font-size="10.00">main</text>
</g>
<!-- Node2 -->
<g id="node2" class="node"><title>Node2</title>
<g id="a_node2"><a xlink:href="../../d2/df3/rle__hdr_8c.html#a8ba0e5b11d1e39ab7227f1686e676c86" target="_top" xlink:title="rle_hdr_init">
<polygon fill="white" stroke="black" points="93.5,-456.5 93.5,-475.5 163.5,-475.5 163.5,-456.5 93.5,-456.5"/>
<text text-anchor="middle" x="128.5" y="-463.5" font-family="Helvetica,sans-Serif" font-size="10.00">rle_hdr_init</text>
</a>
</g>
</g>
<!-- Node1&#45;&gt;Node2 -->
<g id="edge1" class="edge"><title>Node1&#45;&gt;Node2</title>
<path fill="none" stroke="midnightblue" d="M21.5113,-304.558C24.688,-330.085 36.6558,-400.719 75,-442 78.4912,-445.759 82.6853,-448.974 87.1615,-451.712"/>
<polygon fill="midnightblue" stroke="midnightblue" points="85.5332,-454.811 96.0067,-456.409 88.8161,-448.628 85.5332,-454.811"/>
</g>
<!-- Node7 -->
<g id="node7" class="node"><title>Node7</title>
<g id="a_node7"><a xlink:href="../../d2/df3/rle__hdr_8c.html#a82e79385f2d45cc3b80ce0f4f369eae5" target="_top" xlink:title="rle_names">
<polygon fill="white" stroke="black" points="356,-456.5 356,-475.5 422,-475.5 422,-456.5 356,-456.5"/>
<text text-anchor="middle" x="389" y="-463.5" font-family="Helvetica,sans-Serif" font-size="10.00">rle_names</text>
</a>
</g>
</g>
<!-- Node1&#45;&gt;Node7 -->
<g id="edge12" class="edge"><title>Node1&#45;&gt;Node7</title>
<path fill="none" stroke="midnightblue" d="M21.7713,-304.828C26.6101,-340.537 45.1262,-462.491 75,-485 155.576,-545.713 201.707,-495.947 302,-485 316.433,-483.425 331.991,-480.404 345.853,-477.227"/>
<polygon fill="midnightblue" stroke="midnightblue" points="346.69,-480.626 355.607,-474.904 345.069,-473.816 346.69,-480.626"/>
</g>
<!-- Node8 -->
<g id="node8" class="node"><title>Node8</title>
<g id="a_node8"><a xlink:href="../../d4/db0/scanargs_8c.html#a7ea6d702c0484056c8504d6ce7fede08" target="_top" xlink:title="scanargs">
<polygon fill="white" stroke="black" points="98.5,-380.5 98.5,-399.5 158.5,-399.5 158.5,-380.5 98.5,-380.5"/>
<text text-anchor="middle" x="128.5" y="-387.5" font-family="Helvetica,sans-Serif" font-size="10.00">scanargs</text>
</a>
</g>
</g>
<!-- Node1&#45;&gt;Node8 -->
<g id="edge10" class="edge"><title>Node1&#45;&gt;Node8</title>
<path fill="none" stroke="midnightblue" d="M24.9676,-304.593C32.87,-320.569 50.7919,-352.675 75,-371 79.1915,-374.173 83.9633,-376.854 88.8814,-379.11"/>
<polygon fill="midnightblue" stroke="midnightblue" points="87.8217,-382.456 98.4055,-382.94 90.4335,-375.961 87.8217,-382.456"/>
</g>
<!-- Node10 -->
<g id="node10" class="node"><title>Node10</title>
<g id="a_node10"><a xlink:href="../../d8/d30/cmd__name_8c.html#a271249070fdd12c176777c77d76f888f" target="_top" xlink:title="cmd_name">
<polygon fill="white" stroke="black" points="94.5,-342.5 94.5,-361.5 162.5,-361.5 162.5,-342.5 94.5,-342.5"/>
<text text-anchor="middle" x="128.5" y="-349.5" font-family="Helvetica,sans-Serif" font-size="10.00">cmd_name</text>
</a>
</g>
</g>
<!-- Node1&#45;&gt;Node10 -->
<g id="edge13" class="edge"><title>Node1&#45;&gt;Node10</title>
<path fill="none" stroke="midnightblue" d="M32.4682,-304.725C43.1383,-313.05 59.4329,-324.934 75,-333 78.9805,-335.062 83.2363,-337 87.538,-338.79"/>
<polygon fill="midnightblue" stroke="midnightblue" points="86.3514,-342.084 96.9394,-342.465 88.9002,-335.565 86.3514,-342.084"/>
</g>
<!-- Node11 -->
<g id="node11" class="node"><title>Node11</title>
<g id="a_node11"><a xlink:href="../../de/d4e/rle__open__f_8c.html#a89733a45961817885603ae01210290b7" target="_top" xlink:title="rle_open_f">
<polygon fill="white" stroke="black" points="226,-418.5 226,-437.5 294,-437.5 294,-418.5 226,-418.5"/>
<text text-anchor="middle" x="260" y="-425.5" font-family="Helvetica,sans-Serif" font-size="10.00">rle_open_f</text>
</a>
</g>
</g>
<!-- Node1&#45;&gt;Node11 -->
<g id="edge14" class="edge"><title>Node1&#45;&gt;Node11</title>
<path fill="none" stroke="midnightblue" d="M21.9167,-304.67C25.7859,-327.253 38.7775,-383.474 75,-409 116.053,-437.93 175.614,-438.605 215.75,-434.749"/>
<polygon fill="midnightblue" stroke="midnightblue" points="216.204,-438.221 225.765,-433.655 215.444,-431.262 216.204,-438.221"/>
</g>
<!-- Node14 -->
<g id="node14" class="node"><title>Node14</title>
<g id="a_node14"><a xlink:href="../../db/d53/rle__getrow_8c.html#a619b27463c26e0a4a3d9648a9869ee52" target="_top" xlink:title="rle_get_setup">
<polygon fill="white" stroke="black" points="219.5,-570.5 219.5,-589.5 300.5,-589.5 300.5,-570.5 219.5,-570.5"/>
<text text-anchor="middle" x="260" y="-577.5" font-family="Helvetica,sans-Serif" font-size="10.00">rle_get_setup</text>
</a>
</g>
</g>
<!-- Node1&#45;&gt;Node14 -->
<g id="edge19" class="edge"><title>Node1&#45;&gt;Node14</title>
<path fill="none" stroke="midnightblue" d="M21.0592,-304.563C23.7663,-347.362 36.9714,-520.762 75,-556 110.617,-589.003 168.078,-591.463 209.314,-587.905"/>
<polygon fill="midnightblue" stroke="midnightblue" points="209.826,-591.371 219.425,-586.886 209.124,-584.407 209.826,-591.371"/>
</g>
<!-- Node16 -->
<g id="node16" class="node"><title>Node16</title>
<g id="a_node16"><a xlink:href="../../da/dbc/rle__row__alc_8c.html#abf83029f1ab364a8cb72524f58d70a3b" target="_top" xlink:title="rle_row_alloc">
<polygon fill="white" stroke="black" points="349,-532.5 349,-551.5 429,-551.5 429,-532.5 349,-532.5"/>
<text text-anchor="middle" x="389" y="-539.5" font-family="Helvetica,sans-Serif" font-size="10.00">rle_row_alloc</text>
</a>
</g>
</g>
<!-- Node1&#45;&gt;Node16 -->
<g id="edge25" class="edge"><title>Node1&#45;&gt;Node16</title>
<path fill="none" stroke="midnightblue" d="M21.443,-304.536C25.4376,-342.859 42.2831,-484.93 75,-513 113.449,-545.988 260.762,-546.381 338.808,-544.106"/>
<polygon fill="midnightblue" stroke="midnightblue" points="339.001,-547.602 348.885,-543.786 338.779,-540.605 339.001,-547.602"/>
</g>
<!-- Node17 -->
<g id="node17" class="node"><title>Node17</title>
<g id="a_node17"><a xlink:href="../../da/d92/getap_8c.html#ad9e57406e222c8cab5141848ac1988b5" target="_top" xlink:title="borrow_setup">
<polygon fill="white" stroke="black" points="88.5,-304.5 88.5,-323.5 168.5,-323.5 168.5,-304.5 88.5,-304.5"/>
<text text-anchor="middle" x="128.5" y="-311.5" font-family="Helvetica,sans-Serif" font-size="10.00">borrow_setup</text>
</a>
</g>
</g>
<!-- Node1&#45;&gt;Node17 -->
<g id="edge28" class="edge"><title>Node1&#45;&gt;Node17</title>
<path fill="none" stroke="midnightblue" d="M39.138,-298.31C50.0269,-300.243 64.3284,-302.783 78.2446,-305.254"/>
<polygon fill="midnightblue" stroke="midnightblue" points="77.7973,-308.729 88.2552,-307.031 79.0212,-301.837 77.7973,-308.729"/>
</g>
<!-- Node18 -->
<g id="node18" class="node"><title>Node18</title>
<g id="a_node18"><a xlink:href="../../da/d92/getap_8c.html#abac493fab5ee875fea54ff0a9f0e3fb4" target="_top" xlink:title="borrow_color_map">
<polygon fill="white" stroke="black" points="76.5,-266.5 76.5,-285.5 180.5,-285.5 180.5,-266.5 76.5,-266.5"/>
<text text-anchor="middle" x="128.5" y="-273.5" font-family="Helvetica,sans-Serif" font-size="10.00">borrow_color_map</text>
</a>
</g>
</g>
<!-- Node1&#45;&gt;Node18 -->
<g id="edge29" class="edge"><title>Node1&#45;&gt;Node18</title>
<path fill="none" stroke="midnightblue" d="M39.138,-291.69C46.9517,-290.303 56.5227,-288.603 66.4476,-286.841"/>
<polygon fill="midnightblue" stroke="midnightblue" points="67.2045,-290.262 76.4385,-285.067 65.9806,-283.369 67.2045,-290.262"/>
</g>
<!-- Node19 -->
<g id="node19" class="node"><title>Node19</title>
<g id="a_node19"><a xlink:href="../../da/d92/getap_8c.html#a83b2f1ea0b2786081a2367c2f8da5b3a" target="_top" xlink:title="setup_scr">
<polygon fill="white" stroke="black" points="97.5,-228.5 97.5,-247.5 159.5,-247.5 159.5,-228.5 97.5,-228.5"/>
<text text-anchor="middle" x="128.5" y="-235.5" font-family="Helvetica,sans-Serif" font-size="10.00">setup_scr</text>
</a>
</g>
</g>
<!-- Node1&#45;&gt;Node19 -->
<g id="edge30" class="edge"><title>Node1&#45;&gt;Node19</title>
<path fill="none" stroke="midnightblue" d="M32.4682,-285.275C43.1383,-276.95 59.4329,-265.066 75,-257 79.08,-254.886 83.4492,-252.903 87.8607,-251.076"/>
<polygon fill="midnightblue" stroke="midnightblue" points="89.4373,-254.218 97.4896,-247.333 86.9009,-247.694 89.4373,-254.218"/>
</g>
<!-- Node20 -->
<g id="node20" class="node"><title>Node20</title>
<g id="a_node20"><a xlink:href="../../da/d92/getap_8c.html#afed4e945848223d47bf479a910ce4a50" target="_top" xlink:title="window_color_map">
<polygon fill="white" stroke="black" points="75,-190.5 75,-209.5 182,-209.5 182,-190.5 75,-190.5"/>
<text text-anchor="middle" x="128.5" y="-197.5" font-family="Helvetica,sans-Serif" font-size="10.00">window_color_map</text>
</a>
</g>
</g>
<!-- Node1&#45;&gt;Node20 -->
<g id="edge31" class="edge"><title>Node1&#45;&gt;Node20</title>
<path fill="none" stroke="midnightblue" d="M24.9676,-285.407C32.87,-269.431 50.7919,-237.325 75,-219 77.4333,-217.158 80.0621,-215.482 82.8016,-213.958"/>
<polygon fill="midnightblue" stroke="midnightblue" points="84.3441,-217.1 91.8241,-209.597 81.2976,-210.798 84.3441,-217.1"/>
</g>
<!-- Node23 -->
<g id="node23" class="node"><title>Node23</title>
<g id="a_node23"><a xlink:href="../../db/d53/rle__getrow_8c.html#a3602e1158189cba5e5b0f9b983cba776" target="_top" xlink:title="rle_getrow">
<polygon fill="white" stroke="black" points="95,-152.5 95,-171.5 162,-171.5 162,-152.5 95,-152.5"/>
<text text-anchor="middle" x="128.5" y="-159.5" font-family="Helvetica,sans-Serif" font-size="10.00">rle_getrow</text>
</a>
</g>
</g>
<!-- Node1&#45;&gt;Node23 -->
<g id="edge35" class="edge"><title>Node1&#45;&gt;Node23</title>
<path fill="none" stroke="midnightblue" d="M22.5149,-285.25C27.5099,-263.467 42.4835,-210.455 75,-181 78.1519,-178.145 81.7656,-175.71 85.59,-173.636"/>
<polygon fill="midnightblue" stroke="midnightblue" points="87.1483,-176.772 94.7785,-169.421 84.2298,-170.409 87.1483,-176.772"/>
</g>
<!-- Node26 -->
<g id="node26" class="node"><title>Node26</title>
<g id="a_node26"><a xlink:href="../../da/d92/getap_8c.html#afb213c204a03164db4a8d5f07b47c5ac" target="_top" xlink:title="put_line_borrow">
<polygon fill="white" stroke="black" points="82.5,-114.5 82.5,-133.5 174.5,-133.5 174.5,-114.5 82.5,-114.5"/>
<text text-anchor="middle" x="128.5" y="-121.5" font-family="Helvetica,sans-Serif" font-size="10.00">put_line_borrow</text>
</a>
</g>
</g>
<!-- Node1&#45;&gt;Node26 -->
<g id="edge38" class="edge"><title>Node1&#45;&gt;Node26</title>
<path fill="none" stroke="midnightblue" d="M21.1873,-285.328C23.5825,-258.829 33.8295,-184.293 75,-143 76.4629,-141.533 78.0475,-140.178 79.7233,-138.927"/>
<polygon fill="midnightblue" stroke="midnightblue" points="81.9653,-141.663 88.7209,-133.501 78.3501,-135.668 81.9653,-141.663"/>
</g>
<!-- Node27 -->
<g id="node27" class="node"><title>Node27</title>
<g id="a_node27"><a xlink:href="../../da/d92/getap_8c.html#a417409057cd230821dc1b38a1be5ea79" target="_top" xlink:title="put_linebw">
<polygon fill="white" stroke="black" points="95.5,-76.5 95.5,-95.5 161.5,-95.5 161.5,-76.5 95.5,-76.5"/>
<text text-anchor="middle" x="128.5" y="-83.5" font-family="Helvetica,sans-Serif" font-size="10.00">put_linebw</text>
</a>
</g>
</g>
<!-- Node1&#45;&gt;Node27 -->
<g id="edge39" class="edge"><title>Node1&#45;&gt;Node27</title>
<path fill="none" stroke="midnightblue" d="M20.3727,-285.24C20.5074,-254.475 25.099,-158.41 75,-105 78.1371,-101.642 81.9127,-98.8767 85.9826,-96.5989"/>
<polygon fill="midnightblue" stroke="midnightblue" points="87.6032,-99.7062 95.2293,-92.3514 84.6811,-93.3452 87.6032,-99.7062"/>
</g>
<!-- Node28 -->
<g id="node28" class="node"><title>Node28</title>
<g id="a_node28"><a xlink:href="../../da/d92/getap_8c.html#a62d8de2bf7b86df4aeebb4e2bf65aff5" target="_top" xlink:title="put_line4">
<polygon fill="white" stroke="black" points="99,-38.5 99,-57.5 158,-57.5 158,-38.5 99,-38.5"/>
<text text-anchor="middle" x="128.5" y="-45.5" font-family="Helvetica,sans-Serif" font-size="10.00">put_line4</text>
</a>
</g>
</g>
<!-- Node1&#45;&gt;Node28 -->
<g id="edge40" class="edge"><title>Node1&#45;&gt;Node28</title>
<path fill="none" stroke="midnightblue" d="M21.5976,-285.261C26.1915,-246.089 45.04,-100.539 75,-67 78.9714,-62.5542 84.0645,-59.148 89.5113,-56.5383"/>
<polygon fill="midnightblue" stroke="midnightblue" points="90.8506,-59.7726 98.876,-52.8558 88.2888,-53.2582 90.8506,-59.7726"/>
</g>
<!-- Node29 -->
<g id="node29" class="node"><title>Node29</title>
<g id="a_node29"><a xlink:href="../../da/d92/getap_8c.html#ac903edef396ee53ecf14726e66192a88" target="_top" xlink:title="put_line8">
<polygon fill="white" stroke="black" points="99,-0.5 99,-19.5 158,-19.5 158,-0.5 99,-0.5"/>
<text text-anchor="middle" x="128.5" y="-7.5" font-family="Helvetica,sans-Serif" font-size="10.00">put_line8</text>
</a>
</g>
</g>
<!-- Node1&#45;&gt;Node29 -->
<g id="edge41" class="edge"><title>Node1&#45;&gt;Node29</title>
<path fill="none" stroke="midnightblue" d="M21.2233,-285.443C24.6416,-242.642 40.4725,-68.9417 75,-29 78.8985,-24.4902 83.9538,-21.0507 89.3851,-18.4275"/>
<polygon fill="midnightblue" stroke="midnightblue" points="90.7231,-21.6622 98.7427,-14.7386 88.1559,-15.1499 90.7231,-21.6622"/>
</g>
<!-- Node3 -->
<g id="node3" class="node"><title>Node3</title>
<g id="a_node3"><a xlink:href="../../d2/df3/rle__hdr_8c.html#a16c4da6201b3b8cf55127b9ca968d253" target="_top" xlink:title="rle_hdr_clear">
<polygon fill="white" stroke="black" points="349,-646.5 349,-665.5 429,-665.5 429,-646.5 349,-646.5"/>
<text text-anchor="middle" x="389" y="-653.5" font-family="Helvetica,sans-Serif" font-size="10.00">rle_hdr_clear</text>
</a>
</g>
</g>
<!-- Node2&#45;&gt;Node3 -->
<g id="edge2" class="edge"><title>Node2&#45;&gt;Node3</title>
<path fill="none" stroke="midnightblue" d="M133.263,-475.616C143.264,-499.939 172.861,-564.429 218,-599 253.466,-626.162 302.591,-640.784 338.916,-648.389"/>
<polygon fill="midnightblue" stroke="midnightblue" points="338.31,-651.836 348.8,-650.352 339.674,-644.971 338.31,-651.836"/>
</g>
<!-- Node5 -->
<g id="node5" class="node"><title>Node5</title>
<g id="a_node5"><a xlink:href="../../d2/df3/rle__hdr_8c.html#afc916e29aea8788e0878ca315ff69821" target="_top" xlink:title="rle_hdr_cp">
<polygon fill="white" stroke="black" points="226,-456.5 226,-475.5 294,-475.5 294,-456.5 226,-456.5"/>
<text text-anchor="middle" x="260" y="-463.5" font-family="Helvetica,sans-Serif" font-size="10.00">rle_hdr_cp</text>
</a>
</g>
</g>
<!-- Node2&#45;&gt;Node5 -->
<g id="edge4" class="edge"><title>Node2&#45;&gt;Node5</title>
<path fill="none" stroke="midnightblue" d="M163.525,-459.977C179.412,-459.165 198.511,-459.033 215.439,-459.582"/>
<polygon fill="midnightblue" stroke="midnightblue" points="215.512,-463.088 225.651,-460.012 215.807,-456.094 215.512,-463.088"/>
</g>
<!-- Node4 -->
<g id="node4" class="node"><title>Node4</title>
<g id="a_node4"><a xlink:href="../../d0/dcc/rletorla_8c.html#aafde19f7d36ca163a143579c1b125b6d" target="_top" xlink:title="free">
<polygon fill="white" stroke="black" points="491.5,-532.5 491.5,-551.5 526.5,-551.5 526.5,-532.5 491.5,-532.5"/>
<text text-anchor="middle" x="509" y="-539.5" font-family="Helvetica,sans-Serif" font-size="10.00">free</text>
</a>
</g>
</g>
<!-- Node3&#45;&gt;Node4 -->
<g id="edge3" class="edge"><title>Node3&#45;&gt;Node4</title>
<path fill="none" stroke="midnightblue" d="M415.795,-646.452C424.025,-642.691 432.845,-637.853 440,-632 465.011,-611.541 486.03,-580.067 497.812,-560.276"/>
<polygon fill="midnightblue" stroke="midnightblue" points="500.854,-562.007 502.832,-551.599 494.795,-558.502 500.854,-562.007"/>
</g>
<!-- Node5&#45;&gt;Node2 -->
<g id="edge5" class="edge"><title>Node5&#45;&gt;Node2</title>
<path fill="none" stroke="midnightblue" d="M225.651,-471.988C209.856,-472.82 190.772,-472.97 173.784,-472.441"/>
<polygon fill="midnightblue" stroke="midnightblue" points="173.659,-468.933 163.525,-472.023 173.374,-475.927 173.659,-468.933"/>
</g>
<!-- Node6 -->
<g id="node6" class="node"><title>Node6</title>
<g id="a_node6"><a xlink:href="../../d0/dcc/rletorla_8c.html#ab7e36af3707843f77cc5b4e831c2fa6d" target="_top" xlink:title="malloc">
<polygon fill="white" stroke="black" points="485.5,-456.5 485.5,-475.5 532.5,-475.5 532.5,-456.5 485.5,-456.5"/>
<text text-anchor="middle" x="509" y="-463.5" font-family="Helvetica,sans-Serif" font-size="10.00">malloc</text>
</a>
</g>
</g>
<!-- Node5&#45;&gt;Node6 -->
<g id="edge6" class="edge"><title>Node5&#45;&gt;Node6</title>
<path fill="none" stroke="midnightblue" d="M292.15,-456.494C306.04,-452.73 322.691,-448.861 338,-447 383.002,-441.53 395.087,-440.843 440,-447 451.808,-448.619 464.456,-451.749 475.603,-455.009"/>
<polygon fill="midnightblue" stroke="midnightblue" points="474.764,-458.412 485.35,-457.999 476.817,-451.72 474.764,-458.412"/>
</g>
<!-- Node5&#45;&gt;Node7 -->
<g id="edge7" class="edge"><title>Node5&#45;&gt;Node7</title>
<path fill="none" stroke="midnightblue" d="M294.036,-466C309.739,-466 328.699,-466 345.463,-466"/>
<polygon fill="midnightblue" stroke="midnightblue" points="345.569,-469.5 355.569,-466 345.569,-462.5 345.569,-469.5"/>
</g>
<!-- Node7&#45;&gt;Node4 -->
<g id="edge8" class="edge"><title>Node7&#45;&gt;Node4</title>
<path fill="none" stroke="midnightblue" d="M404.945,-475.625C425.071,-488.588 461.089,-511.786 484.765,-527.035"/>
<polygon fill="midnightblue" stroke="midnightblue" points="482.874,-529.98 493.177,-532.453 486.665,-524.095 482.874,-529.98"/>
</g>
<!-- Node7&#45;&gt;Node6 -->
<g id="edge9" class="edge"><title>Node7&#45;&gt;Node6</title>
<path fill="none" stroke="midnightblue" d="M422.244,-466C438.589,-466 458.41,-466 474.877,-466"/>
<polygon fill="midnightblue" stroke="midnightblue" points="475.144,-469.5 485.144,-466 475.143,-462.5 475.144,-469.5"/>
</g>
<!-- Node9 -->
<g id="node9" class="node"><title>Node9</title>
<g id="a_node9"><a xlink:href="../../d4/db0/scanargs_8c.html#a862219039664df6eb3cfced58addf830" target="_top" xlink:title="_do_scanargs">
<polygon fill="white" stroke="black" points="218,-380.5 218,-399.5 302,-399.5 302,-380.5 218,-380.5"/>
<text text-anchor="middle" x="260" y="-387.5" font-family="Helvetica,sans-Serif" font-size="10.00">_do_scanargs</text>
</a>
</g>
</g>
<!-- Node8&#45;&gt;Node9 -->
<g id="edge11" class="edge"><title>Node8&#45;&gt;Node9</title>
<path fill="none" stroke="midnightblue" d="M158.562,-390C173.013,-390 190.912,-390 207.58,-390"/>
<polygon fill="midnightblue" stroke="midnightblue" points="207.757,-393.5 217.757,-390 207.757,-386.5 207.757,-393.5"/>
</g>
<!-- Node12 -->
<g id="node12" class="node"><title>Node12</title>
<g id="a_node12"><a xlink:href="../../de/d4e/rle__open__f_8c.html#a5a0e62a00f907fce26e93b2f72adb2b0" target="_top" xlink:title="rle_open_f_noexit">
<polygon fill="white" stroke="black" points="338,-380.5 338,-399.5 440,-399.5 440,-380.5 338,-380.5"/>
<text text-anchor="middle" x="389" y="-387.5" font-family="Helvetica,sans-Serif" font-size="10.00">rle_open_f_noexit</text>
</a>
</g>
</g>
<!-- Node11&#45;&gt;Node12 -->
<g id="edge15" class="edge"><title>Node11&#45;&gt;Node12</title>
<path fill="none" stroke="midnightblue" d="M293.047,-418.411C309.141,-413.596 328.841,-407.701 346.117,-402.532"/>
<polygon fill="midnightblue" stroke="midnightblue" points="347.386,-405.806 355.963,-399.586 345.379,-399.099 347.386,-405.806"/>
</g>
<!-- Node12&#45;&gt;Node4 -->
<g id="edge18" class="edge"><title>Node12&#45;&gt;Node4</title>
<path fill="none" stroke="midnightblue" d="M399.159,-399.834C409.427,-410.997 426.419,-429.881 440,-447 460.583,-472.945 482.573,-504.441 495.801,-523.852"/>
<polygon fill="midnightblue" stroke="midnightblue" points="493.041,-526.017 501.547,-532.333 498.836,-522.091 493.041,-526.017"/>
</g>
<!-- Node12&#45;&gt;Node6 -->
<g id="edge17" class="edge"><title>Node12&#45;&gt;Node6</title>
<path fill="none" stroke="midnightblue" d="M412.421,-399.567C421.232,-403.632 431.3,-408.664 440,-414 457.459,-424.709 475.827,-438.957 489.066,-449.831"/>
<polygon fill="midnightblue" stroke="midnightblue" points="487.042,-452.701 496.963,-456.418 491.526,-447.325 487.042,-452.701"/>
</g>
<!-- Node13 -->
<g id="node13" class="node"><title>Node13</title>
<g id="a_node13"><a xlink:href="../../de/d4e/rle__open__f_8c.html#a84fda810ae9b9bde82a6391d0b264ead" target="_top" xlink:title="my_popen">
<polygon fill="white" stroke="black" points="476,-380.5 476,-399.5 542,-399.5 542,-380.5 476,-380.5"/>
<text text-anchor="middle" x="509" y="-387.5" font-family="Helvetica,sans-Serif" font-size="10.00">my_popen</text>
</a>
</g>
</g>
<!-- Node12&#45;&gt;Node13 -->
<g id="edge16" class="edge"><title>Node12&#45;&gt;Node13</title>
<path fill="none" stroke="midnightblue" d="M440.043,-390C448.523,-390 457.255,-390 465.518,-390"/>
<polygon fill="midnightblue" stroke="midnightblue" points="465.678,-393.5 475.678,-390 465.678,-386.5 465.678,-393.5"/>
</g>
<!-- Node14&#45;&gt;Node3 -->
<g id="edge20" class="edge"><title>Node14&#45;&gt;Node3</title>
<path fill="none" stroke="midnightblue" d="M273.976,-589.625C288.985,-600.552 314.632,-618.597 338,-632 344.061,-635.476 350.703,-638.91 357.11,-642.046"/>
<polygon fill="midnightblue" stroke="midnightblue" points="355.701,-645.252 366.233,-646.398 358.714,-638.934 355.701,-645.252"/>
</g>
<!-- Node14&#45;&gt;Node4 -->
<g id="edge23" class="edge"><title>Node14&#45;&gt;Node4</title>
<path fill="none" stroke="midnightblue" d="M286.167,-589.512C321.605,-601.4 387.723,-618.012 440,-599 461.58,-591.152 481.084,-573.118 493.613,-559.421"/>
<polygon fill="midnightblue" stroke="midnightblue" points="496.519,-561.414 500.469,-551.582 491.251,-556.805 496.519,-561.414"/>
</g>
<!-- Node14&#45;&gt;Node6 -->
<g id="edge22" class="edge"><title>Node14&#45;&gt;Node6</title>
<path fill="none" stroke="midnightblue" d="M271.74,-570.318C285.986,-557.9 312.335,-536.374 338,-523 362.291,-510.342 433.526,-488.15 475.681,-475.514"/>
<polygon fill="midnightblue" stroke="midnightblue" points="476.889,-478.806 485.472,-472.594 474.889,-472.098 476.889,-478.806"/>
</g>
<!-- Node14&#45;&gt;Node7 -->
<g id="edge21" class="edge"><title>Node14&#45;&gt;Node7</title>
<path fill="none" stroke="midnightblue" d="M267.162,-570.449C279.036,-552.655 306.697,-514.06 338,-490 342.793,-486.316 348.242,-482.996 353.737,-480.082"/>
<polygon fill="midnightblue" stroke="midnightblue" points="355.489,-483.121 362.922,-475.57 352.403,-476.838 355.489,-483.121"/>
</g>
<!-- Node15 -->
<g id="node15" class="node"><title>Node15</title>
<g id="a_node15"><a xlink:href="../../db/d53/rle__getrow_8c.html#a0ea68aa2ebeef9d4cade7282553b03d6" target="_top" xlink:title="vax_gshort">
<polygon fill="white" stroke="black" points="354.5,-570.5 354.5,-589.5 423.5,-589.5 423.5,-570.5 354.5,-570.5"/>
<text text-anchor="middle" x="389" y="-577.5" font-family="Helvetica,sans-Serif" font-size="10.00">vax_gshort</text>
</a>
</g>
</g>
<!-- Node14&#45;&gt;Node15 -->
<g id="edge24" class="edge"><title>Node14&#45;&gt;Node15</title>
<path fill="none" stroke="midnightblue" d="M300.835,-580C314.516,-580 329.906,-580 343.905,-580"/>
<polygon fill="midnightblue" stroke="midnightblue" points="344.287,-583.5 354.287,-580 344.287,-576.5 344.287,-583.5"/>
</g>
<!-- Node16&#45;&gt;Node4 -->
<g id="edge27" class="edge"><title>Node16&#45;&gt;Node4</title>
<path fill="none" stroke="midnightblue" d="M429.292,-542C446.232,-542 465.621,-542 480.916,-542"/>
<polygon fill="midnightblue" stroke="midnightblue" points="481.236,-545.5 491.236,-542 481.236,-538.5 481.236,-545.5"/>
</g>
<!-- Node16&#45;&gt;Node6 -->
<g id="edge26" class="edge"><title>Node16&#45;&gt;Node6</title>
<path fill="none" stroke="midnightblue" d="M412.421,-532.433C421.232,-528.368 431.3,-523.336 440,-518 457.459,-507.291 475.827,-493.043 489.066,-482.169"/>
<polygon fill="midnightblue" stroke="midnightblue" points="491.526,-484.675 496.963,-475.582 487.042,-479.299 491.526,-484.675"/>
</g>
<!-- Node21 -->
<g id="node21" class="node"><title>Node21</title>
<g id="a_node21"><a xlink:href="../../d9/dbb/dither_8c.html#a7ff23fcd77b62deab9304ffd3d684f47" target="_top" xlink:title="make_square">
<polygon fill="white" stroke="black" points="349,-209.5 349,-228.5 429,-228.5 429,-209.5 349,-209.5"/>
<text text-anchor="middle" x="389" y="-216.5" font-family="Helvetica,sans-Serif" font-size="10.00">make_square</text>
</a>
</g>
</g>
<!-- Node20&#45;&gt;Node21 -->
<g id="edge32" class="edge"><title>Node20&#45;&gt;Node21</title>
<path fill="none" stroke="midnightblue" d="M165.39,-209.509C181.371,-213.273 200.498,-217.142 218,-219 258.428,-223.291 304.57,-222.964 338.571,-221.747"/>
<polygon fill="midnightblue" stroke="midnightblue" points="338.86,-225.238 348.714,-221.344 338.583,-218.243 338.86,-225.238"/>
</g>
<!-- Node22 -->
<g id="node22" class="node"><title>Node22</title>
<g id="a_node22"><a xlink:href="../../d9/dbb/dither_8c.html#afad378428af71918afb13247f60d0594" target="_top" xlink:title="bwdithermap">
<polygon fill="white" stroke="black" points="221.5,-190.5 221.5,-209.5 298.5,-209.5 298.5,-190.5 221.5,-190.5"/>
<text text-anchor="middle" x="260" y="-197.5" font-family="Helvetica,sans-Serif" font-size="10.00">bwdithermap</text>
</a>
</g>
</g>
<!-- Node20&#45;&gt;Node22 -->
<g id="edge33" class="edge"><title>Node20&#45;&gt;Node22</title>
<path fill="none" stroke="midnightblue" d="M182.173,-200C191.84,-200 201.881,-200 211.39,-200"/>
<polygon fill="midnightblue" stroke="midnightblue" points="211.456,-203.5 221.456,-200 211.456,-196.5 211.456,-203.5"/>
</g>
<!-- Node22&#45;&gt;Node21 -->
<g id="edge34" class="edge"><title>Node22&#45;&gt;Node21</title>
<path fill="none" stroke="midnightblue" d="M298.76,-205.649C311.346,-207.532 325.555,-209.658 338.874,-211.65"/>
<polygon fill="midnightblue" stroke="midnightblue" points="338.435,-215.124 348.843,-213.142 339.471,-208.201 338.435,-215.124"/>
</g>
<!-- Node24 -->
<g id="node24" class="node"><title>Node24</title>
<g id="a_node24"><a xlink:href="../../db/d53/rle__getrow_8c.html#a61ac0da96b0dd8bc3cbc98afcd9b5c44" target="_top" xlink:title="bfill">
<polygon fill="white" stroke="black" points="244,-152.5 244,-171.5 276,-171.5 276,-152.5 244,-152.5"/>
<text text-anchor="middle" x="260" y="-159.5" font-family="Helvetica,sans-Serif" font-size="10.00">bfill</text>
</a>
</g>
</g>
<!-- Node23&#45;&gt;Node24 -->
<g id="edge36" class="edge"><title>Node23&#45;&gt;Node24</title>
<path fill="none" stroke="midnightblue" d="M162.178,-162C184.408,-162 213.385,-162 233.826,-162"/>
<polygon fill="midnightblue" stroke="midnightblue" points="233.931,-165.5 243.931,-162 233.931,-158.5 233.931,-165.5"/>
</g>
<!-- Node25 -->
<g id="node25" class="node"><title>Node25</title>
<g id="a_node25"><a xlink:href="../../d8/d7c/rle__getskip_8c.html#af6b1e1dc0867e9340f90668591c7c5b3" target="_top" xlink:title="rle_getskip">
<polygon fill="white" stroke="black" points="226,-114.5 226,-133.5 294,-133.5 294,-114.5 226,-114.5"/>
<text text-anchor="middle" x="260" y="-121.5" font-family="Helvetica,sans-Serif" font-size="10.00">rle_getskip</text>
</a>
</g>
</g>
<!-- Node23&#45;&gt;Node25 -->
<g id="edge37" class="edge"><title>Node23&#45;&gt;Node25</title>
<path fill="none" stroke="midnightblue" d="M162.178,-152.411C178.589,-147.596 198.676,-141.701 216.292,-136.532"/>
<polygon fill="midnightblue" stroke="midnightblue" points="217.722,-139.76 226.332,-133.586 215.751,-133.043 217.722,-139.76"/>
</g>
</g>
</svg>
