<?xml version="1.0" encoding="UTF-8" standalone="no"?>
<!DOCTYPE svg PUBLIC "-//W3C//DTD SVG 1.1//EN"
 "http://www.w3.org/Graphics/SVG/1.1/DTD/svg11.dtd">
<!-- Generated by graphviz version 2.38.0 (20140413.2041)
 -->
<!-- Title: window_color_map Pages: 1 -->
<svg width="344pt" height="47pt"
 viewBox="0.00 0.00 344.00 47.00" xmlns="http://www.w3.org/2000/svg" xmlns:xlink="http://www.w3.org/1999/xlink">
<g id="graph0" class="graph" transform="scale(1 1) rotate(0) translate(4 43)">
<title>window_color_map</title>
<polygon fill="white" stroke="none" points="-4,4 -4,-43 340,-43 340,4 -4,4"/>
<!-- Node1 -->
<g id="node1" class="node"><title>Node1</title>
<polygon fill="#bfbfbf" stroke="black" points="0,-19.5 0,-38.5 107,-38.5 107,-19.5 0,-19.5"/>
<text text-anchor="middle" x="53.5" y="-26.5" font-family="Helvetica,sans-Serif" font-size="10.00">window_color_map</text>
</g>
<!-- Node2 -->
<g id="node2" class="node"><title>Node2</title>
<g id="a_node2"><a xlink:href="../../d9/dbb/dither_8c.html#a7ff23fcd77b62deab9304ffd3d684f47" target="_top" xlink:title="make_square">
<polygon fill="white" stroke="black" points="256,-19.5 256,-38.5 336,-38.5 336,-19.5 256,-19.5"/>
<text text-anchor="middle" x="296" y="-26.5" font-family="Helvetica,sans-Serif" font-size="10.00">make_square</text>
</a>
</g>
</g>
<!-- Node1&#45;&gt;Node2 -->
<g id="edge1" class="edge"><title>Node1&#45;&gt;Node2</title>
<path fill="none" stroke="midnightblue" d="M107.279,-29C148.491,-29 205.337,-29 245.648,-29"/>
<polygon fill="midnightblue" stroke="midnightblue" points="245.778,-32.5001 255.778,-29 245.778,-25.5001 245.778,-32.5001"/>
</g>
<!-- Node3 -->
<g id="node3" class="node"><title>Node3</title>
<g id="a_node3"><a xlink:href="../../d9/dbb/dither_8c.html#afad378428af71918afb13247f60d0594" target="_top" xlink:title="bwdithermap">
<polygon fill="white" stroke="black" points="143,-0.5 143,-19.5 220,-19.5 220,-0.5 143,-0.5"/>
<text text-anchor="middle" x="181.5" y="-7.5" font-family="Helvetica,sans-Serif" font-size="10.00">bwdithermap</text>
</a>
</g>
</g>
<!-- Node1&#45;&gt;Node3 -->
<g id="edge2" class="edge"><title>Node1&#45;&gt;Node3</title>
<path fill="none" stroke="midnightblue" d="M107.205,-21.0524C115.739,-19.7655 124.532,-18.4396 132.934,-17.1726"/>
<polygon fill="midnightblue" stroke="midnightblue" points="133.58,-20.6149 142.946,-15.6628 132.536,-13.6931 133.58,-20.6149"/>
</g>
<!-- Node3&#45;&gt;Node2 -->
<g id="edge3" class="edge"><title>Node3&#45;&gt;Node2</title>
<path fill="none" stroke="midnightblue" d="M220.274,-16.3796C228.532,-17.7743 237.388,-19.27 246.013,-20.7266"/>
<polygon fill="midnightblue" stroke="midnightblue" points="245.538,-24.1959 255.981,-22.4101 246.704,-17.2936 245.538,-24.1959"/>
</g>
</g>
</svg>
