<?xml version="1.0" encoding="UTF-8" standalone="no"?>
<!DOCTYPE svg PUBLIC "-//W3C//DTD SVG 1.1//EN"
 "http://www.w3.org/Graphics/SVG/1.1/DTD/svg11.dtd">
<!-- Generated by graphviz version 2.38.0 (20140413.2041)
 -->
<!-- Title: tools/rlenoise.c Pages: 1 -->
<svg width="184pt" height="196pt"
 viewBox="0.00 0.00 184.00 196.00" xmlns="http://www.w3.org/2000/svg" xmlns:xlink="http://www.w3.org/1999/xlink">
<g id="graph0" class="graph" transform="scale(1 1) rotate(0) translate(4 192)">
<title>tools/rlenoise.c</title>
<polygon fill="white" stroke="none" points="-4,4 -4,-192 180,-192 180,4 -4,4"/>
<!-- Node1 -->
<g id="node1" class="node"><title>Node1</title>
<polygon fill="#bfbfbf" stroke="black" points="14,-168.5 14,-187.5 101,-187.5 101,-168.5 14,-168.5"/>
<text text-anchor="middle" x="57.5" y="-175.5" font-family="Helvetica,sans-Serif" font-size="10.00">tools/rlenoise.c</text>
</g>
<!-- Node2 -->
<g id="node2" class="node"><title>Node2</title>
<polygon fill="white" stroke="#bfbfbf" points="0,-56.5 0,-75.5 47,-75.5 47,-56.5 0,-56.5"/>
<text text-anchor="middle" x="23.5" y="-63.5" font-family="Helvetica,sans-Serif" font-size="10.00">stdio.h</text>
</g>
<!-- Node1&#45;&gt;Node2 -->
<g id="edge1" class="edge"><title>Node1&#45;&gt;Node2</title>
<path fill="none" stroke="midnightblue" d="M49.1659,-168.186C41.6998,-159.668 31.2211,-146.026 26.5,-132 21.483,-117.095 21.0355,-99.1776 21.6712,-85.9328"/>
<polygon fill="midnightblue" stroke="midnightblue" points="25.1816,-85.9182 22.4211,-75.6893 18.2003,-85.407 25.1816,-85.9182"/>
</g>
<!-- Node3 -->
<g id="node3" class="node"><title>Node3</title>
<polygon fill="white" stroke="#bfbfbf" points="35.5,-112.5 35.5,-131.5 79.5,-131.5 79.5,-112.5 35.5,-112.5"/>
<text text-anchor="middle" x="57.5" y="-119.5" font-family="Helvetica,sans-Serif" font-size="10.00">time.h</text>
</g>
<!-- Node1&#45;&gt;Node3 -->
<g id="edge2" class="edge"><title>Node1&#45;&gt;Node3</title>
<path fill="none" stroke="midnightblue" d="M57.5,-168.083C57.5,-161.006 57.5,-150.861 57.5,-141.986"/>
<polygon fill="midnightblue" stroke="midnightblue" points="61.0001,-141.751 57.5,-131.751 54.0001,-141.751 61.0001,-141.751"/>
</g>
<!-- Node4 -->
<g id="node4" class="node"><title>Node4</title>
<g id="a_node4"><a xlink:href="../../d7/d27/rle_8h.html" target="_top" xlink:title="rle.h">
<polygon fill="white" stroke="black" points="98,-112.5 98,-131.5 135,-131.5 135,-112.5 98,-112.5"/>
<text text-anchor="middle" x="116.5" y="-119.5" font-family="Helvetica,sans-Serif" font-size="10.00">rle.h</text>
</a>
</g>
</g>
<!-- Node1&#45;&gt;Node4 -->
<g id="edge3" class="edge"><title>Node1&#45;&gt;Node4</title>
<path fill="none" stroke="midnightblue" d="M66.9794,-168.324C75.7011,-160.341 88.8435,-148.313 99.3978,-138.653"/>
<polygon fill="midnightblue" stroke="midnightblue" points="101.834,-141.167 106.848,-131.834 97.1083,-136.004 101.834,-141.167"/>
</g>
<!-- Node4&#45;&gt;Node2 -->
<g id="edge7" class="edge"><title>Node4&#45;&gt;Node2</title>
<path fill="none" stroke="midnightblue" d="M101.558,-112.324C86.9148,-103.822 64.3663,-90.7288 47.2623,-80.7975"/>
<polygon fill="midnightblue" stroke="midnightblue" points="48.8104,-77.6491 38.405,-75.6545 45.2954,-83.7027 48.8104,-77.6491"/>
</g>
<!-- Node5 -->
<g id="node5" class="node"><title>Node5</title>
<g id="a_node5"><a xlink:href="../../df/dad/rle__config_8h.html" target="_top" xlink:title="rle_config.h">
<polygon fill="white" stroke="black" points="81,-56.5 81,-75.5 152,-75.5 152,-56.5 81,-56.5"/>
<text text-anchor="middle" x="116.5" y="-63.5" font-family="Helvetica,sans-Serif" font-size="10.00">rle_config.h</text>
</a>
</g>
</g>
<!-- Node4&#45;&gt;Node5 -->
<g id="edge4" class="edge"><title>Node4&#45;&gt;Node5</title>
<path fill="none" stroke="midnightblue" d="M116.5,-112.083C116.5,-105.006 116.5,-94.8611 116.5,-85.9865"/>
<polygon fill="midnightblue" stroke="midnightblue" points="120,-85.751 116.5,-75.7511 113,-85.7511 120,-85.751"/>
</g>
<!-- Node6 -->
<g id="node6" class="node"><title>Node6</title>
<polygon fill="white" stroke="#bfbfbf" points="58,-0.5 58,-19.5 107,-19.5 107,-0.5 58,-0.5"/>
<text text-anchor="middle" x="82.5" y="-7.5" font-family="Helvetica,sans-Serif" font-size="10.00">stdlib.h</text>
</g>
<!-- Node5&#45;&gt;Node6 -->
<g id="edge5" class="edge"><title>Node5&#45;&gt;Node6</title>
<path fill="none" stroke="midnightblue" d="M110.886,-56.083C106.133,-48.5341 99.1819,-37.4948 93.3484,-28.2298"/>
<polygon fill="midnightblue" stroke="midnightblue" points="96.2999,-26.3486 88.0099,-19.7511 90.3763,-30.0783 96.2999,-26.3486"/>
</g>
<!-- Node7 -->
<g id="node7" class="node"><title>Node7</title>
<polygon fill="white" stroke="#bfbfbf" points="125,-0.5 125,-19.5 176,-19.5 176,-0.5 125,-0.5"/>
<text text-anchor="middle" x="150.5" y="-7.5" font-family="Helvetica,sans-Serif" font-size="10.00">string.h</text>
</g>
<!-- Node5&#45;&gt;Node7 -->
<g id="edge6" class="edge"><title>Node5&#45;&gt;Node7</title>
<path fill="none" stroke="midnightblue" d="M122.114,-56.083C126.867,-48.5341 133.818,-37.4948 139.652,-28.2298"/>
<polygon fill="midnightblue" stroke="midnightblue" points="142.624,-30.0783 144.99,-19.7511 136.7,-26.3486 142.624,-30.0783"/>
</g>
</g>
</svg>
