<?xml version="1.0" encoding="UTF-8" standalone="no"?>
<!DOCTYPE svg PUBLIC "-//W3C//DTD SVG 1.1//EN"
 "http://www.w3.org/Graphics/SVG/1.1/DTD/svg11.dtd">
<!-- Generated by graphviz version 2.38.0 (20140413.2041)
 -->
<!-- Title: rle_row_alloc Pages: 1 -->
<svg width="327pt" height="484pt"
 viewBox="0.00 0.00 327.00 484.00" xmlns="http://www.w3.org/2000/svg" xmlns:xlink="http://www.w3.org/1999/xlink">
<g id="graph0" class="graph" transform="scale(1 1) rotate(0) translate(4 480)">
<title>rle_row_alloc</title>
<polygon fill="white" stroke="none" points="-4,4 -4,-480 323,-480 323,4 -4,4"/>
<!-- Node1 -->
<g id="node1" class="node"><title>Node1</title>
<polygon fill="#bfbfbf" stroke="black" points="0,-228.5 0,-247.5 80,-247.5 80,-228.5 0,-228.5"/>
<text text-anchor="middle" x="40" y="-235.5" font-family="Helvetica,sans-Serif" font-size="10.00">rle_row_alloc</text>
</g>
<!-- Node2 -->
<g id="node2" class="node"><title>Node2</title>
<g id="a_node2"><a xlink:href="../../d6/dcb/avg4_8c.html#ade521a0600ded19f1720b6f6df59b480" target="_top" xlink:title="main">
<polygon fill="white" stroke="black" points="160.5,-456.5 160.5,-475.5 199.5,-475.5 199.5,-456.5 160.5,-456.5"/>
<text text-anchor="middle" x="180" y="-463.5" font-family="Helvetica,sans-Serif" font-size="10.00">main</text>
</a>
</g>
</g>
<!-- Node1&#45;&gt;Node2 -->
<g id="edge1" class="edge"><title>Node1&#45;&gt;Node2</title>
<path fill="none" stroke="midnightblue" d="M42.3142,-257.579C46.1382,-298.705 60.809,-394.587 116,-447 127.929,-458.328 146.371,-462.924 160.225,-464.777"/>
<polygon fill="midnightblue" stroke="midnightblue" points="45.7949,-257.198 41.4986,-247.513 38.8177,-257.763 45.7949,-257.198"/>
</g>
<!-- Node3 -->
<g id="node3" class="node"><title>Node3</title>
<g id="a_node3"><a xlink:href="../../d5/da5/pgmtorle_8c.html#a59dedbceac7b3b0556882c5e2755cbae" target="_top" xlink:title="write_rle_data">
<polygon fill="white" stroke="black" points="138,-418.5 138,-437.5 222,-437.5 222,-418.5 138,-418.5"/>
<text text-anchor="middle" x="180" y="-425.5" font-family="Helvetica,sans-Serif" font-size="10.00">write_rle_data</text>
</a>
</g>
</g>
<!-- Node1&#45;&gt;Node3 -->
<g id="edge2" class="edge"><title>Node1&#45;&gt;Node3</title>
<path fill="none" stroke="midnightblue" d="M44.1516,-257.869C50.8405,-293.432 69.8096,-368.062 116,-409 122.156,-414.456 129.832,-418.345 137.687,-421.119"/>
<polygon fill="midnightblue" stroke="midnightblue" points="47.5594,-257.038 42.3925,-247.788 40.6636,-258.241 47.5594,-257.038"/>
</g>
<!-- Node5 -->
<g id="node5" class="node"><title>Node5</title>
<g id="a_node5"><a xlink:href="../../df/d69/pyrlib_8c.html#a8ea97ad59589726a4ef46f30e636d1c5" target="_top" xlink:title="dump_pyramid">
<polygon fill="white" stroke="black" points="137,-380.5 137,-399.5 223,-399.5 223,-380.5 137,-380.5"/>
<text text-anchor="middle" x="180" y="-387.5" font-family="Helvetica,sans-Serif" font-size="10.00">dump_pyramid</text>
</a>
</g>
</g>
<!-- Node1&#45;&gt;Node5 -->
<g id="edge4" class="edge"><title>Node1&#45;&gt;Node5</title>
<path fill="none" stroke="midnightblue" d="M46.7718,-257.462C56.3732,-286.479 78.3842,-340.884 116,-371 122.064,-375.855 129.352,-379.472 136.785,-382.165"/>
<polygon fill="midnightblue" stroke="midnightblue" points="50.0359,-256.175 43.693,-247.689 43.3593,-258.278 50.0359,-256.175"/>
</g>
<!-- Node6 -->
<g id="node6" class="node"><title>Node6</title>
<g id="a_node6"><a xlink:href="../../d4/dc6/interfaceRLE.html#a151be2ba0debedc4c36f7305a74354ec" target="_top" xlink:title="&#45;[RLE open:]">
<polygon fill="white" stroke="black" points="142.5,-342.5 142.5,-361.5 217.5,-361.5 217.5,-342.5 142.5,-342.5"/>
<text text-anchor="middle" x="180" y="-349.5" font-family="Helvetica,sans-Serif" font-size="10.00">&#45;[RLE open:]</text>
</a>
</g>
</g>
<!-- Node1&#45;&gt;Node6 -->
<g id="edge5" class="edge"><title>Node1&#45;&gt;Node6</title>
<path fill="none" stroke="midnightblue" d="M50.905,-256.495C63.3338,-277.973 86.6267,-313.003 116,-333 123.838,-338.336 133.216,-342.209 142.312,-345.007"/>
<polygon fill="midnightblue" stroke="midnightblue" points="53.9125,-254.702 45.9761,-247.683 47.8033,-258.12 53.9125,-254.702"/>
</g>
<!-- Node7 -->
<g id="node7" class="node"><title>Node7</title>
<g id="a_node7"><a xlink:href="../../d1/d2c/rlehdr_8c.html#af162404c5103b31d3afbd772f64f520a" target="_top" xlink:title="print_codes">
<polygon fill="white" stroke="black" points="144,-304.5 144,-323.5 216,-323.5 216,-304.5 144,-304.5"/>
<text text-anchor="middle" x="180" y="-311.5" font-family="Helvetica,sans-Serif" font-size="10.00">print_codes</text>
</a>
</g>
</g>
<!-- Node1&#45;&gt;Node7 -->
<g id="edge6" class="edge"><title>Node1&#45;&gt;Node7</title>
<path fill="none" stroke="midnightblue" d="M59.0216,-254.664C73.4843,-267.269 94.8063,-284.197 116,-295 124.651,-299.41 134.503,-302.986 143.804,-305.796"/>
<polygon fill="midnightblue" stroke="midnightblue" points="61.1435,-251.866 51.3517,-247.82 56.4832,-257.09 61.1435,-251.866"/>
</g>
<!-- Node8 -->
<g id="node8" class="node"><title>Node8</title>
<g id="a_node8"><a xlink:href="../../dc/d5c/rlequant_8c.html#a5604f25bd6ab3d0090cf527ca35441b3" target="_top" xlink:title="mem_alloc">
<polygon fill="white" stroke="black" points="146.5,-266.5 146.5,-285.5 213.5,-285.5 213.5,-266.5 146.5,-266.5"/>
<text text-anchor="middle" x="180" y="-273.5" font-family="Helvetica,sans-Serif" font-size="10.00">mem_alloc</text>
</a>
</g>
</g>
<!-- Node1&#45;&gt;Node8 -->
<g id="edge7" class="edge"><title>Node1&#45;&gt;Node8</title>
<path fill="none" stroke="midnightblue" d="M85.507,-250.256C105.203,-255.679 127.958,-261.945 146.088,-266.937"/>
<polygon fill="midnightblue" stroke="midnightblue" points="86.3936,-246.869 75.8232,-247.589 84.5352,-253.618 86.3936,-246.869"/>
</g>
<!-- Node9 -->
<g id="node9" class="node"><title>Node9</title>
<g id="a_node9"><a xlink:href="../../d6/d10/rletoalias_8c.html#a86cf5e03c7b351c5a62a6951d179f6a5" target="_top" xlink:title="read_rle">
<polygon fill="white" stroke="black" points="152,-228.5 152,-247.5 208,-247.5 208,-228.5 152,-228.5"/>
<text text-anchor="middle" x="180" y="-235.5" font-family="Helvetica,sans-Serif" font-size="10.00">read_rle</text>
</a>
</g>
</g>
<!-- Node1&#45;&gt;Node9 -->
<g id="edge8" class="edge"><title>Node1&#45;&gt;Node9</title>
<path fill="none" stroke="midnightblue" d="M90.428,-238C111.169,-238 134.482,-238 151.982,-238"/>
<polygon fill="midnightblue" stroke="midnightblue" points="90.1762,-234.5 80.1761,-238 90.1761,-241.5 90.1762,-234.5"/>
</g>
<!-- Node10 -->
<g id="node10" class="node"><title>Node10</title>
<g id="a_node10"><a xlink:href="../../dc/d21/rletocgm_8c.html#a243dc5135972069e1dc4456356c8b498" target="_top" xlink:title="process_indexed_page">
<polygon fill="white" stroke="black" points="116,-190.5 116,-209.5 244,-209.5 244,-190.5 116,-190.5"/>
<text text-anchor="middle" x="180" y="-197.5" font-family="Helvetica,sans-Serif" font-size="10.00">process_indexed_page</text>
</a>
</g>
</g>
<!-- Node1&#45;&gt;Node10 -->
<g id="edge9" class="edge"><title>Node1&#45;&gt;Node10</title>
<path fill="none" stroke="midnightblue" d="M85.473,-225.754C104.495,-220.516 126.375,-214.491 144.188,-209.586"/>
<polygon fill="midnightblue" stroke="midnightblue" points="84.5352,-222.382 75.8232,-228.411 86.3936,-229.131 84.5352,-222.382"/>
</g>
<!-- Node12 -->
<g id="node12" class="node"><title>Node12</title>
<g id="a_node12"><a xlink:href="../../dc/d21/rletocgm_8c.html#a2aa020f076ba227eadc417c63ef8c5fa" target="_top" xlink:title="process_direct_page">
<polygon fill="white" stroke="black" points="122,-152.5 122,-171.5 238,-171.5 238,-152.5 122,-152.5"/>
<text text-anchor="middle" x="180" y="-159.5" font-family="Helvetica,sans-Serif" font-size="10.00">process_direct_page</text>
</a>
</g>
</g>
<!-- Node1&#45;&gt;Node12 -->
<g id="edge11" class="edge"><title>Node1&#45;&gt;Node12</title>
<path fill="none" stroke="midnightblue" d="M59.0216,-221.336C73.4843,-208.731 94.8063,-191.803 116,-181 123.328,-177.265 131.518,-174.128 139.504,-171.548"/>
<polygon fill="midnightblue" stroke="midnightblue" points="56.4832,-218.91 51.3517,-228.18 61.1435,-224.134 56.4832,-218.91"/>
</g>
<!-- Node13 -->
<g id="node13" class="node"><title>Node13</title>
<g id="a_node13"><a xlink:href="../../d7/d4a/rletogif_8c.html#ae6289c0f5ad8df9d34452253a23b385b" target="_top" xlink:title="get_scanlines">
<polygon fill="white" stroke="black" points="139,-114.5 139,-133.5 221,-133.5 221,-114.5 139,-114.5"/>
<text text-anchor="middle" x="180" y="-121.5" font-family="Helvetica,sans-Serif" font-size="10.00">get_scanlines</text>
</a>
</g>
</g>
<!-- Node1&#45;&gt;Node13 -->
<g id="edge13" class="edge"><title>Node1&#45;&gt;Node13</title>
<path fill="none" stroke="midnightblue" d="M50.905,-219.505C63.3338,-198.027 86.6267,-162.997 116,-143 122.799,-138.371 130.757,-134.843 138.685,-132.163"/>
<polygon fill="midnightblue" stroke="midnightblue" points="47.8033,-217.88 45.9761,-228.317 53.9125,-221.298 47.8033,-217.88"/>
</g>
<!-- Node15 -->
<g id="node15" class="node"><title>Node15</title>
<g id="a_node15"><a xlink:href="../../d1/d55/rletoppm_8c.html#acc32e62ee705887470ad5627ec215e24" target="_top" xlink:title="write_ppm_data">
<polygon fill="white" stroke="black" points="134,-76.5 134,-95.5 226,-95.5 226,-76.5 134,-76.5"/>
<text text-anchor="middle" x="180" y="-83.5" font-family="Helvetica,sans-Serif" font-size="10.00">write_ppm_data</text>
</a>
</g>
</g>
<!-- Node1&#45;&gt;Node15 -->
<g id="edge15" class="edge"><title>Node1&#45;&gt;Node15</title>
<path fill="none" stroke="midnightblue" d="M46.7718,-218.538C56.3732,-189.521 78.3842,-135.116 116,-105 121.262,-100.787 127.444,-97.5074 133.844,-94.9538"/>
<polygon fill="midnightblue" stroke="midnightblue" points="43.3593,-217.722 43.693,-228.311 50.0359,-219.825 43.3593,-217.722"/>
</g>
<!-- Node17 -->
<g id="node17" class="node"><title>Node17</title>
<g id="a_node17"><a xlink:href="../../d0/dcc/rletorla_8c.html#a0f0bafd2d10f5ddf5abbdc19c3d33aee" target="_top" xlink:title="write_rlb_data">
<polygon fill="white" stroke="black" points="138.5,-38.5 138.5,-57.5 221.5,-57.5 221.5,-38.5 138.5,-38.5"/>
<text text-anchor="middle" x="180" y="-45.5" font-family="Helvetica,sans-Serif" font-size="10.00">write_rlb_data</text>
</a>
</g>
</g>
<!-- Node1&#45;&gt;Node17 -->
<g id="edge17" class="edge"><title>Node1&#45;&gt;Node17</title>
<path fill="none" stroke="midnightblue" d="M44.1516,-218.131C50.8405,-182.568 69.8096,-107.938 116,-67 122.327,-61.3928 130.26,-57.4396 138.342,-54.6528"/>
<polygon fill="midnightblue" stroke="midnightblue" points="40.6636,-217.759 42.3925,-228.212 47.5594,-218.962 40.6636,-217.759"/>
</g>
<!-- Node19 -->
<g id="node19" class="node"><title>Node19</title>
<g id="a_node19"><a xlink:href="../../d5/d42/rlezoom_8c.html#ae2388617c7379e059ac295622b6e7414" target="_top" xlink:title="float_zoom">
<polygon fill="white" stroke="black" points="146,-0.5 146,-19.5 214,-19.5 214,-0.5 146,-0.5"/>
<text text-anchor="middle" x="180" y="-7.5" font-family="Helvetica,sans-Serif" font-size="10.00">float_zoom</text>
</a>
</g>
</g>
<!-- Node1&#45;&gt;Node19 -->
<g id="edge19" class="edge"><title>Node1&#45;&gt;Node19</title>
<path fill="none" stroke="midnightblue" d="M42.3142,-218.421C46.1382,-177.295 60.809,-81.4128 116,-29 124.118,-21.2905 135.253,-16.6992 145.906,-13.9685"/>
<polygon fill="midnightblue" stroke="midnightblue" points="38.8177,-218.237 41.4986,-228.487 45.7949,-218.802 38.8177,-218.237"/>
</g>
<!-- Node4 -->
<g id="node4" class="node"><title>Node4</title>
<g id="a_node4"><a xlink:href="../../d5/da5/pgmtorle_8c.html#a3c04138a5bfe5d72780bb7e82a18e627" target="_top" xlink:title="main">
<polygon fill="white" stroke="black" points="280,-418.5 280,-437.5 319,-437.5 319,-418.5 280,-418.5"/>
<text text-anchor="middle" x="299.5" y="-425.5" font-family="Helvetica,sans-Serif" font-size="10.00">main</text>
</a>
</g>
</g>
<!-- Node3&#45;&gt;Node4 -->
<g id="edge3" class="edge"><title>Node3&#45;&gt;Node4</title>
<path fill="none" stroke="midnightblue" d="M232.473,-428C249.391,-428 267.126,-428 279.951,-428"/>
<polygon fill="midnightblue" stroke="midnightblue" points="232.096,-424.5 222.096,-428 232.096,-431.5 232.096,-424.5"/>
</g>
<!-- Node11 -->
<g id="node11" class="node"><title>Node11</title>
<g id="a_node11"><a xlink:href="../../dc/d21/rletocgm_8c.html#a5ea466849f21e6c2be4ef9b2eb8868d3" target="_top" xlink:title="main">
<polygon fill="white" stroke="black" points="280,-171.5 280,-190.5 319,-190.5 319,-171.5 280,-171.5"/>
<text text-anchor="middle" x="299.5" y="-178.5" font-family="Helvetica,sans-Serif" font-size="10.00">main</text>
</a>
</g>
</g>
<!-- Node10&#45;&gt;Node11 -->
<g id="edge10" class="edge"><title>Node10&#45;&gt;Node11</title>
<path fill="none" stroke="midnightblue" d="M250.171,-188.815C261.042,-187.057 271.42,-185.379 279.754,-184.031"/>
<polygon fill="midnightblue" stroke="midnightblue" points="249.407,-185.393 240.094,-190.444 250.525,-192.303 249.407,-185.393"/>
</g>
<!-- Node12&#45;&gt;Node11 -->
<g id="edge12" class="edge"><title>Node12&#45;&gt;Node11</title>
<path fill="none" stroke="midnightblue" d="M247.909,-172.819C259.597,-174.709 270.847,-176.528 279.757,-177.969"/>
<polygon fill="midnightblue" stroke="midnightblue" points="248.46,-169.363 238.029,-171.222 247.342,-176.273 248.46,-169.363"/>
</g>
<!-- Node14 -->
<g id="node14" class="node"><title>Node14</title>
<g id="a_node14"><a xlink:href="../../d7/d4a/rletogif_8c.html#ade521a0600ded19f1720b6f6df59b480" target="_top" xlink:title="main">
<polygon fill="white" stroke="black" points="280,-114.5 280,-133.5 319,-133.5 319,-114.5 280,-114.5"/>
<text text-anchor="middle" x="299.5" y="-121.5" font-family="Helvetica,sans-Serif" font-size="10.00">main</text>
</a>
</g>
</g>
<!-- Node13&#45;&gt;Node14 -->
<g id="edge14" class="edge"><title>Node13&#45;&gt;Node14</title>
<path fill="none" stroke="midnightblue" d="M231.136,-124C248.447,-124 266.778,-124 279.941,-124"/>
<polygon fill="midnightblue" stroke="midnightblue" points="231.108,-120.5 221.108,-124 231.108,-127.5 231.108,-120.5"/>
</g>
<!-- Node16 -->
<g id="node16" class="node"><title>Node16</title>
<g id="a_node16"><a xlink:href="../../d1/d55/rletoppm_8c.html#a3c04138a5bfe5d72780bb7e82a18e627" target="_top" xlink:title="main">
<polygon fill="white" stroke="black" points="280,-76.5 280,-95.5 319,-95.5 319,-76.5 280,-76.5"/>
<text text-anchor="middle" x="299.5" y="-83.5" font-family="Helvetica,sans-Serif" font-size="10.00">main</text>
</a>
</g>
</g>
<!-- Node15&#45;&gt;Node16 -->
<g id="edge16" class="edge"><title>Node15&#45;&gt;Node16</title>
<path fill="none" stroke="midnightblue" d="M236.281,-86C251.929,-86 267.906,-86 279.752,-86"/>
<polygon fill="midnightblue" stroke="midnightblue" points="236.093,-82.5001 226.093,-86 236.092,-89.5001 236.093,-82.5001"/>
</g>
<!-- Node18 -->
<g id="node18" class="node"><title>Node18</title>
<g id="a_node18"><a xlink:href="../../d0/dcc/rletorla_8c.html#a3c04138a5bfe5d72780bb7e82a18e627" target="_top" xlink:title="main">
<polygon fill="white" stroke="black" points="280,-38.5 280,-57.5 319,-57.5 319,-38.5 280,-38.5"/>
<text text-anchor="middle" x="299.5" y="-45.5" font-family="Helvetica,sans-Serif" font-size="10.00">main</text>
</a>
</g>
</g>
<!-- Node17&#45;&gt;Node18 -->
<g id="edge18" class="edge"><title>Node17&#45;&gt;Node18</title>
<path fill="none" stroke="midnightblue" d="M232.165,-48C249.128,-48 266.948,-48 279.842,-48"/>
<polygon fill="midnightblue" stroke="midnightblue" points="231.766,-44.5001 221.766,-48 231.766,-51.5001 231.766,-44.5001"/>
</g>
</g>
</svg>
