<?xml version="1.0" encoding="UTF-8" standalone="no"?>
<!DOCTYPE svg PUBLIC "-//W3C//DTD SVG 1.1//EN"
 "http://www.w3.org/Graphics/SVG/1.1/DTD/svg11.dtd">
<!-- Generated by graphviz version 2.38.0 (20140413.2041)
 -->
<!-- Title: rle_row_free Pages: 1 -->
<svg width="324pt" height="332pt"
 viewBox="0.00 0.00 324.00 332.00" xmlns="http://www.w3.org/2000/svg" xmlns:xlink="http://www.w3.org/1999/xlink">
<g id="graph0" class="graph" transform="scale(1 1) rotate(0) translate(4 328)">
<title>rle_row_free</title>
<polygon fill="white" stroke="none" points="-4,4 -4,-328 320,-328 320,4 -4,4"/>
<!-- Node1 -->
<g id="node1" class="node"><title>Node1</title>
<polygon fill="#bfbfbf" stroke="black" points="0,-152.5 0,-171.5 77,-171.5 77,-152.5 0,-152.5"/>
<text text-anchor="middle" x="38.5" y="-159.5" font-family="Helvetica,sans-Serif" font-size="10.00">rle_row_free</text>
</g>
<!-- Node2 -->
<g id="node2" class="node"><title>Node2</title>
<g id="a_node2"><a xlink:href="../../d6/dcb/avg4_8c.html#ade521a0600ded19f1720b6f6df59b480" target="_top" xlink:title="main">
<polygon fill="white" stroke="black" points="157.5,-304.5 157.5,-323.5 196.5,-323.5 196.5,-304.5 157.5,-304.5"/>
<text text-anchor="middle" x="177" y="-311.5" font-family="Helvetica,sans-Serif" font-size="10.00">main</text>
</a>
</g>
</g>
<!-- Node1&#45;&gt;Node2 -->
<g id="edge1" class="edge"><title>Node1&#45;&gt;Node2</title>
<path fill="none" stroke="midnightblue" d="M45.0447,-181.458C54.3089,-210.469 75.6935,-264.867 113,-295 125.709,-305.265 143.877,-309.991 157.44,-312.162"/>
<polygon fill="midnightblue" stroke="midnightblue" points="48.3324,-180.239 42.0796,-171.686 41.634,-182.272 48.3324,-180.239"/>
</g>
<!-- Node3 -->
<g id="node3" class="node"><title>Node3</title>
<g id="a_node3"><a xlink:href="../../d5/da5/pgmtorle_8c.html#a59dedbceac7b3b0556882c5e2755cbae" target="_top" xlink:title="write_rle_data">
<polygon fill="white" stroke="black" points="135,-266.5 135,-285.5 219,-285.5 219,-266.5 135,-266.5"/>
<text text-anchor="middle" x="177" y="-273.5" font-family="Helvetica,sans-Serif" font-size="10.00">write_rle_data</text>
</a>
</g>
</g>
<!-- Node1&#45;&gt;Node3 -->
<g id="edge2" class="edge"><title>Node1&#45;&gt;Node3</title>
<path fill="none" stroke="midnightblue" d="M49.1151,-180.499C61.2068,-201.98 83.9484,-237.013 113,-257 119.588,-261.533 127.284,-265.007 134.989,-267.663"/>
<polygon fill="midnightblue" stroke="midnightblue" points="52.1753,-178.8 44.3244,-171.685 46.0252,-182.143 52.1753,-178.8"/>
</g>
<!-- Node5 -->
<g id="node5" class="node"><title>Node5</title>
<g id="a_node5"><a xlink:href="../../d4/dc6/interfaceRLE.html#a151be2ba0debedc4c36f7305a74354ec" target="_top" xlink:title="&#45;[RLE open:]">
<polygon fill="white" stroke="black" points="139.5,-228.5 139.5,-247.5 214.5,-247.5 214.5,-228.5 139.5,-228.5"/>
<text text-anchor="middle" x="177" y="-235.5" font-family="Helvetica,sans-Serif" font-size="10.00">&#45;[RLE open:]</text>
</a>
</g>
</g>
<!-- Node1&#45;&gt;Node5 -->
<g id="edge4" class="edge"><title>Node1&#45;&gt;Node5</title>
<path fill="none" stroke="midnightblue" d="M57.1031,-178.683C71.2449,-191.299 92.1262,-208.232 113,-219 121.224,-223.242 130.55,-226.702 139.459,-229.45"/>
<polygon fill="midnightblue" stroke="midnightblue" points="59.3496,-175.995 49.6064,-171.833 54.6278,-181.162 59.3496,-175.995"/>
</g>
<!-- Node6 -->
<g id="node6" class="node"><title>Node6</title>
<g id="a_node6"><a xlink:href="../../d1/d2c/rlehdr_8c.html#af162404c5103b31d3afbd772f64f520a" target="_top" xlink:title="print_codes">
<polygon fill="white" stroke="black" points="141,-190.5 141,-209.5 213,-209.5 213,-190.5 141,-190.5"/>
<text text-anchor="middle" x="177" y="-197.5" font-family="Helvetica,sans-Serif" font-size="10.00">print_codes</text>
</a>
</g>
</g>
<!-- Node1&#45;&gt;Node6 -->
<g id="edge5" class="edge"><title>Node1&#45;&gt;Node6</title>
<path fill="none" stroke="midnightblue" d="M83.7487,-174.318C102.503,-179.539 124.028,-185.532 141.566,-190.414"/>
<polygon fill="midnightblue" stroke="midnightblue" points="84.5171,-170.899 73.9447,-171.589 82.6397,-177.643 84.5171,-170.899"/>
</g>
<!-- Node7 -->
<g id="node7" class="node"><title>Node7</title>
<g id="a_node7"><a xlink:href="../../dc/d5c/rlequant_8c.html#a647248923911fbf74a8da73b0cb6ee27" target="_top" xlink:title="free_mem">
<polygon fill="white" stroke="black" points="145,-152.5 145,-171.5 209,-171.5 209,-152.5 145,-152.5"/>
<text text-anchor="middle" x="177" y="-159.5" font-family="Helvetica,sans-Serif" font-size="10.00">free_mem</text>
</a>
</g>
</g>
<!-- Node1&#45;&gt;Node7 -->
<g id="edge6" class="edge"><title>Node1&#45;&gt;Node7</title>
<path fill="none" stroke="midnightblue" d="M87.2077,-162C106.343,-162 127.854,-162 144.91,-162"/>
<polygon fill="midnightblue" stroke="midnightblue" points="87.1606,-158.5 77.1606,-162 87.1605,-165.5 87.1606,-158.5"/>
</g>
<!-- Node8 -->
<g id="node8" class="node"><title>Node8</title>
<g id="a_node8"><a xlink:href="../../dc/d21/rletocgm_8c.html#a243dc5135972069e1dc4456356c8b498" target="_top" xlink:title="process_indexed_page">
<polygon fill="white" stroke="black" points="113,-114.5 113,-133.5 241,-133.5 241,-114.5 113,-114.5"/>
<text text-anchor="middle" x="177" y="-121.5" font-family="Helvetica,sans-Serif" font-size="10.00">process_indexed_page</text>
</a>
</g>
</g>
<!-- Node1&#45;&gt;Node8 -->
<g id="edge7" class="edge"><title>Node1&#45;&gt;Node8</title>
<path fill="none" stroke="midnightblue" d="M83.7487,-149.682C102.503,-144.461 124.028,-138.468 141.566,-133.586"/>
<polygon fill="midnightblue" stroke="midnightblue" points="82.6397,-146.357 73.9447,-152.411 84.5171,-153.101 82.6397,-146.357"/>
</g>
<!-- Node10 -->
<g id="node10" class="node"><title>Node10</title>
<g id="a_node10"><a xlink:href="../../dc/d21/rletocgm_8c.html#a2aa020f076ba227eadc417c63ef8c5fa" target="_top" xlink:title="process_direct_page">
<polygon fill="white" stroke="black" points="119,-76.5 119,-95.5 235,-95.5 235,-76.5 119,-76.5"/>
<text text-anchor="middle" x="177" y="-83.5" font-family="Helvetica,sans-Serif" font-size="10.00">process_direct_page</text>
</a>
</g>
</g>
<!-- Node1&#45;&gt;Node10 -->
<g id="edge9" class="edge"><title>Node1&#45;&gt;Node10</title>
<path fill="none" stroke="midnightblue" d="M57.1031,-145.317C71.2449,-132.701 92.1262,-115.768 113,-105 120.208,-101.281 128.264,-98.1639 136.143,-95.6002"/>
<polygon fill="midnightblue" stroke="midnightblue" points="54.6278,-142.838 49.6064,-152.167 59.3496,-148.005 54.6278,-142.838"/>
</g>
<!-- Node11 -->
<g id="node11" class="node"><title>Node11</title>
<g id="a_node11"><a xlink:href="../../d1/d55/rletoppm_8c.html#acc32e62ee705887470ad5627ec215e24" target="_top" xlink:title="write_ppm_data">
<polygon fill="white" stroke="black" points="131,-38.5 131,-57.5 223,-57.5 223,-38.5 131,-38.5"/>
<text text-anchor="middle" x="177" y="-45.5" font-family="Helvetica,sans-Serif" font-size="10.00">write_ppm_data</text>
</a>
</g>
</g>
<!-- Node1&#45;&gt;Node11 -->
<g id="edge11" class="edge"><title>Node1&#45;&gt;Node11</title>
<path fill="none" stroke="midnightblue" d="M49.1151,-143.501C61.2068,-122.02 83.9484,-86.9868 113,-67 118.647,-63.1149 125.108,-60.0073 131.691,-57.5261"/>
<polygon fill="midnightblue" stroke="midnightblue" points="46.0252,-141.857 44.3244,-152.315 52.1753,-145.2 46.0252,-141.857"/>
</g>
<!-- Node13 -->
<g id="node13" class="node"><title>Node13</title>
<g id="a_node13"><a xlink:href="../../d5/d42/rlezoom_8c.html#ae2388617c7379e059ac295622b6e7414" target="_top" xlink:title="float_zoom">
<polygon fill="white" stroke="black" points="143,-0.5 143,-19.5 211,-19.5 211,-0.5 143,-0.5"/>
<text text-anchor="middle" x="177" y="-7.5" font-family="Helvetica,sans-Serif" font-size="10.00">float_zoom</text>
</a>
</g>
</g>
<!-- Node1&#45;&gt;Node13 -->
<g id="edge13" class="edge"><title>Node1&#45;&gt;Node13</title>
<path fill="none" stroke="midnightblue" d="M45.0447,-142.542C54.3089,-113.531 75.6935,-59.1328 113,-29 121.532,-22.1089 132.524,-17.7142 142.932,-14.9127"/>
<polygon fill="midnightblue" stroke="midnightblue" points="41.634,-141.728 42.0796,-152.314 48.3324,-143.761 41.634,-141.728"/>
</g>
<!-- Node4 -->
<g id="node4" class="node"><title>Node4</title>
<g id="a_node4"><a xlink:href="../../d5/da5/pgmtorle_8c.html#a3c04138a5bfe5d72780bb7e82a18e627" target="_top" xlink:title="main">
<polygon fill="white" stroke="black" points="277,-266.5 277,-285.5 316,-285.5 316,-266.5 277,-266.5"/>
<text text-anchor="middle" x="296.5" y="-273.5" font-family="Helvetica,sans-Serif" font-size="10.00">main</text>
</a>
</g>
</g>
<!-- Node3&#45;&gt;Node4 -->
<g id="edge3" class="edge"><title>Node3&#45;&gt;Node4</title>
<path fill="none" stroke="midnightblue" d="M229.473,-276C246.391,-276 264.126,-276 276.951,-276"/>
<polygon fill="midnightblue" stroke="midnightblue" points="229.096,-272.5 219.096,-276 229.096,-279.5 229.096,-272.5"/>
</g>
<!-- Node9 -->
<g id="node9" class="node"><title>Node9</title>
<g id="a_node9"><a xlink:href="../../dc/d21/rletocgm_8c.html#a5ea466849f21e6c2be4ef9b2eb8868d3" target="_top" xlink:title="main">
<polygon fill="white" stroke="black" points="277,-95.5 277,-114.5 316,-114.5 316,-95.5 277,-95.5"/>
<text text-anchor="middle" x="296.5" y="-102.5" font-family="Helvetica,sans-Serif" font-size="10.00">main</text>
</a>
</g>
</g>
<!-- Node8&#45;&gt;Node9 -->
<g id="edge8" class="edge"><title>Node8&#45;&gt;Node9</title>
<path fill="none" stroke="midnightblue" d="M247.171,-112.815C258.042,-111.057 268.42,-109.379 276.754,-108.031"/>
<polygon fill="midnightblue" stroke="midnightblue" points="246.407,-109.393 237.094,-114.444 247.525,-116.303 246.407,-109.393"/>
</g>
<!-- Node10&#45;&gt;Node9 -->
<g id="edge10" class="edge"><title>Node10&#45;&gt;Node9</title>
<path fill="none" stroke="midnightblue" d="M244.909,-96.8193C256.597,-98.7094 267.847,-100.528 276.757,-101.969"/>
<polygon fill="midnightblue" stroke="midnightblue" points="245.46,-93.363 235.029,-95.2217 244.342,-100.273 245.46,-93.363"/>
</g>
<!-- Node12 -->
<g id="node12" class="node"><title>Node12</title>
<g id="a_node12"><a xlink:href="../../d1/d55/rletoppm_8c.html#a3c04138a5bfe5d72780bb7e82a18e627" target="_top" xlink:title="main">
<polygon fill="white" stroke="black" points="277,-38.5 277,-57.5 316,-57.5 316,-38.5 277,-38.5"/>
<text text-anchor="middle" x="296.5" y="-45.5" font-family="Helvetica,sans-Serif" font-size="10.00">main</text>
</a>
</g>
</g>
<!-- Node11&#45;&gt;Node12 -->
<g id="edge12" class="edge"><title>Node11&#45;&gt;Node12</title>
<path fill="none" stroke="midnightblue" d="M233.281,-48C248.929,-48 264.906,-48 276.752,-48"/>
<polygon fill="midnightblue" stroke="midnightblue" points="233.093,-44.5001 223.093,-48 233.092,-51.5001 233.093,-44.5001"/>
</g>
</g>
</svg>
