<?xml version="1.0" encoding="UTF-8" standalone="no"?>
<!DOCTYPE svg PUBLIC "-//W3C//DTD SVG 1.1//EN"
 "http://www.w3.org/Graphics/SVG/1.1/DTD/svg11.dtd">
<!-- Generated by graphviz version 2.38.0 (20140413.2041)
 -->
<!-- Title: main Pages: 1 -->
<svg width="523pt" height="691pt"
 viewBox="0.00 0.00 523.00 690.80" xmlns="http://www.w3.org/2000/svg" xmlns:xlink="http://www.w3.org/1999/xlink">
<g id="graph0" class="graph" transform="scale(1 1) rotate(0) translate(4 686.799)">
<title>main</title>
<polygon fill="white" stroke="none" points="-4,4 -4,-686.799 519,-686.799 519,4 -4,4"/>
<!-- Node1 -->
<g id="node1" class="node"><title>Node1</title>
<polygon fill="#bfbfbf" stroke="black" points="0,-302.299 0,-321.299 39,-321.299 39,-302.299 0,-302.299"/>
<text text-anchor="middle" x="19.5" y="-309.299" font-family="Helvetica,sans-Serif" font-size="10.00">main</text>
</g>
<!-- Node2 -->
<g id="node2" class="node"><title>Node2</title>
<g id="a_node2"><a xlink:href="../../d4/db0/scanargs_8c.html#a7ea6d702c0484056c8504d6ce7fede08" target="_top" xlink:title="scanargs">
<polygon fill="white" stroke="black" points="85,-663.299 85,-682.299 145,-682.299 145,-663.299 85,-663.299"/>
<text text-anchor="middle" x="115" y="-670.299" font-family="Helvetica,sans-Serif" font-size="10.00">scanargs</text>
</a>
</g>
</g>
<!-- Node1&#45;&gt;Node2 -->
<g id="edge1" class="edge"><title>Node1&#45;&gt;Node2</title>
<path fill="none" stroke="midnightblue" d="M20.862,-321.528C22.893,-371.474 34.281,-598.851 75,-653.799 75.7819,-654.854 76.6383,-655.854 77.5553,-656.801"/>
<polygon fill="midnightblue" stroke="midnightblue" points="75.5158,-659.649 85.5444,-663.066 79.8357,-654.141 75.5158,-659.649"/>
</g>
<!-- Node4 -->
<g id="node4" class="node"><title>Node4</title>
<g id="a_node4"><a xlink:href="../../d8/d30/cmd__name_8c.html#a271249070fdd12c176777c77d76f888f" target="_top" xlink:title="cmd_name">
<polygon fill="white" stroke="black" points="81,-625.299 81,-644.299 149,-644.299 149,-625.299 81,-625.299"/>
<text text-anchor="middle" x="115" y="-632.299" font-family="Helvetica,sans-Serif" font-size="10.00">cmd_name</text>
</a>
</g>
</g>
<!-- Node1&#45;&gt;Node4 -->
<g id="edge3" class="edge"><title>Node1&#45;&gt;Node4</title>
<path fill="none" stroke="midnightblue" d="M21.2066,-321.429C24.7117,-367.099 41.4218,-561.688 75,-610.799 77.1454,-613.937 79.8499,-616.74 82.8297,-619.224"/>
<polygon fill="midnightblue" stroke="midnightblue" points="80.9672,-622.192 91.1657,-625.063 84.9834,-616.459 80.9672,-622.192"/>
</g>
<!-- Node5 -->
<g id="node5" class="node"><title>Node5</title>
<g id="a_node5"><a xlink:href="../../d0/dcc/rletorla_8c.html#ab7e36af3707843f77cc5b4e831c2fa6d" target="_top" xlink:title="malloc">
<polygon fill="white" stroke="black" points="458.5,-435.299 458.5,-454.299 505.5,-454.299 505.5,-435.299 458.5,-435.299"/>
<text text-anchor="middle" x="482" y="-442.299" font-family="Helvetica,sans-Serif" font-size="10.00">malloc</text>
</a>
</g>
</g>
<!-- Node1&#45;&gt;Node5 -->
<g id="edge4" class="edge"><title>Node1&#45;&gt;Node5</title>
<path fill="none" stroke="midnightblue" d="M19.9554,-321.56C18.7759,-353.167 19.7164,-453.46 75,-501.799 188.112,-600.703 275.422,-569.204 413,-508.799 435.584,-498.883 455.342,-478.149 467.656,-462.958"/>
<polygon fill="midnightblue" stroke="midnightblue" points="470.64,-464.821 474.011,-454.777 465.112,-460.527 470.64,-464.821"/>
</g>
<!-- Node6 -->
<g id="node6" class="node"><title>Node6</title>
<g id="a_node6"><a xlink:href="../../d2/df3/rle__hdr_8c.html#a8ba0e5b11d1e39ab7227f1686e676c86" target="_top" xlink:title="rle_hdr_init">
<polygon fill="white" stroke="black" points="80,-283.299 80,-302.299 150,-302.299 150,-283.299 80,-283.299"/>
<text text-anchor="middle" x="115" y="-290.299" font-family="Helvetica,sans-Serif" font-size="10.00">rle_hdr_init</text>
</a>
</g>
</g>
<!-- Node1&#45;&gt;Node6 -->
<g id="edge5" class="edge"><title>Node1&#45;&gt;Node6</title>
<path fill="none" stroke="midnightblue" d="M39.4211,-307.954C48.3275,-306.144 59.3525,-303.904 70.1683,-301.706"/>
<polygon fill="midnightblue" stroke="midnightblue" points="70.873,-305.135 79.9757,-299.713 69.479,-298.275 70.873,-305.135"/>
</g>
<!-- Node9 -->
<g id="node9" class="node"><title>Node9</title>
<g id="a_node9"><a xlink:href="../../d2/df3/rle__hdr_8c.html#afc916e29aea8788e0878ca315ff69821" target="_top" xlink:title="rle_hdr_cp">
<polygon fill="white" stroke="black" points="199,-359.299 199,-378.299 267,-378.299 267,-359.299 199,-359.299"/>
<text text-anchor="middle" x="233" y="-366.299" font-family="Helvetica,sans-Serif" font-size="10.00">rle_hdr_cp</text>
</a>
</g>
</g>
<!-- Node1&#45;&gt;Node9 -->
<g id="edge30" class="edge"><title>Node1&#45;&gt;Node9</title>
<path fill="none" stroke="midnightblue" d="M30.8599,-321.384C41.2039,-330.348 57.9735,-343.3 75,-349.799 111.686,-363.803 156.383,-368.09 188.69,-369.146"/>
<polygon fill="midnightblue" stroke="midnightblue" points="188.638,-372.646 198.719,-369.384 188.804,-365.648 188.638,-372.646"/>
</g>
<!-- Node10 -->
<g id="node10" class="node"><title>Node10</title>
<g id="a_node10"><a xlink:href="../../d2/df3/rle__hdr_8c.html#a82e79385f2d45cc3b80ce0f4f369eae5" target="_top" xlink:title="rle_names">
<polygon fill="white" stroke="black" points="329,-397.299 329,-416.299 395,-416.299 395,-397.299 329,-397.299"/>
<text text-anchor="middle" x="362" y="-404.299" font-family="Helvetica,sans-Serif" font-size="10.00">rle_names</text>
</a>
</g>
</g>
<!-- Node1&#45;&gt;Node10 -->
<g id="edge14" class="edge"><title>Node1&#45;&gt;Node10</title>
<path fill="none" stroke="midnightblue" d="M26.1337,-321.4C34.7522,-335.121 52.5936,-359.985 75,-371.799 153.314,-413.092 260.04,-414.018 318.462,-410.656"/>
<polygon fill="midnightblue" stroke="midnightblue" points="319.038,-414.126 328.791,-409.987 318.586,-407.141 319.038,-414.126"/>
</g>
<!-- Node11 -->
<g id="node11" class="node"><title>Node11</title>
<g id="a_node11"><a xlink:href="../../de/d4e/rle__open__f_8c.html#a89733a45961817885603ae01210290b7" target="_top" xlink:title="rle_open_f">
<polygon fill="white" stroke="black" points="199,-587.299 199,-606.299 267,-606.299 267,-587.299 199,-587.299"/>
<text text-anchor="middle" x="233" y="-594.299" font-family="Helvetica,sans-Serif" font-size="10.00">rle_open_f</text>
</a>
</g>
</g>
<!-- Node1&#45;&gt;Node11 -->
<g id="edge15" class="edge"><title>Node1&#45;&gt;Node11</title>
<path fill="none" stroke="midnightblue" d="M21.0775,-321.343C23.8637,-364.058 37.3611,-537.146 75,-572.799 104.971,-601.19 153.587,-604.581 188.787,-602.504"/>
<polygon fill="midnightblue" stroke="midnightblue" points="189.08,-605.992 198.788,-601.748 188.552,-599.012 189.08,-605.992"/>
</g>
<!-- Node14 -->
<g id="node14" class="node"><title>Node14</title>
<g id="a_node14"><a xlink:href="../../db/d53/rle__getrow_8c.html#a619b27463c26e0a4a3d9648a9869ee52" target="_top" xlink:title="rle_get_setup">
<polygon fill="white" stroke="black" points="192.5,-302.299 192.5,-321.299 273.5,-321.299 273.5,-302.299 192.5,-302.299"/>
<text text-anchor="middle" x="233" y="-309.299" font-family="Helvetica,sans-Serif" font-size="10.00">rle_get_setup</text>
</a>
</g>
</g>
<!-- Node1&#45;&gt;Node14 -->
<g id="edge20" class="edge"><title>Node1&#45;&gt;Node14</title>
<path fill="none" stroke="midnightblue" d="M30.3163,-302.11C40.5058,-292.792 57.3932,-279.331 75,-273.799 108.921,-263.141 120.374,-265.72 155,-273.799 174.173,-278.273 194.057,-288.244 208.816,-296.85"/>
<polygon fill="midnightblue" stroke="midnightblue" points="207.348,-300.053 217.715,-302.237 210.972,-294.064 207.348,-300.053"/>
</g>
<!-- Node16 -->
<g id="node16" class="node"><title>Node16</title>
<g id="a_node16"><a xlink:href="../../d7/d24/rle__error_8c.html#af931d686cf3ca715c9b900527f0961c0" target="_top" xlink:title="rle_get_error">
<polygon fill="white" stroke="black" points="75.5,-321.299 75.5,-340.299 154.5,-340.299 154.5,-321.299 75.5,-321.299"/>
<text text-anchor="middle" x="115" y="-328.299" font-family="Helvetica,sans-Serif" font-size="10.00">rle_get_error</text>
</a>
</g>
</g>
<!-- Node1&#45;&gt;Node16 -->
<g id="edge26" class="edge"><title>Node1&#45;&gt;Node16</title>
<path fill="none" stroke="midnightblue" d="M39.4211,-315.644C47.0234,-317.189 56.1694,-319.047 65.4114,-320.926"/>
<polygon fill="midnightblue" stroke="midnightblue" points="64.9123,-324.396 75.409,-322.957 66.3063,-317.536 64.9123,-324.396"/>
</g>
<!-- Node17 -->
<g id="node17" class="node"><title>Node17</title>
<g id="a_node17"><a xlink:href="../../df/d6e/rle__raw__alc_8c.html#a3f4a119f9ef60eb2599166c98946c339" target="_top" xlink:title="rle_raw_alloc">
<polygon fill="white" stroke="black" points="322,-435.299 322,-454.299 402,-454.299 402,-435.299 322,-435.299"/>
<text text-anchor="middle" x="362" y="-442.299" font-family="Helvetica,sans-Serif" font-size="10.00">rle_raw_alloc</text>
</a>
</g>
</g>
<!-- Node1&#45;&gt;Node17 -->
<g id="edge27" class="edge"><title>Node1&#45;&gt;Node17</title>
<path fill="none" stroke="midnightblue" d="M23.6462,-321.445C30.1232,-339.685 46.7579,-379.161 75,-398.799 146.038,-448.195 250.768,-451.973 311.819,-449.139"/>
<polygon fill="midnightblue" stroke="midnightblue" points="312.166,-452.626 321.961,-448.589 311.786,-445.636 312.166,-452.626"/>
</g>
<!-- Node18 -->
<g id="node18" class="node"><title>Node18</title>
<g id="a_node18"><a xlink:href="../../d8/def/rle__addhist_8c.html#a4f9433d6e4e203d0ecea1c7d3837afc3" target="_top" xlink:title="rle_addhist">
<polygon fill="white" stroke="black" points="198.5,-207.299 198.5,-226.299 267.5,-226.299 267.5,-207.299 198.5,-207.299"/>
<text text-anchor="middle" x="233" y="-214.299" font-family="Helvetica,sans-Serif" font-size="10.00">rle_addhist</text>
</a>
</g>
</g>
<!-- Node1&#45;&gt;Node18 -->
<g id="edge31" class="edge"><title>Node1&#45;&gt;Node18</title>
<path fill="none" stroke="midnightblue" d="M28.372,-302.275C38.1722,-291.017 55.957,-272.47 75,-261.799 110.489,-241.913 155.512,-230.183 188.235,-223.713"/>
<polygon fill="midnightblue" stroke="midnightblue" points="189.223,-227.088 198.4,-221.793 187.924,-220.209 189.223,-227.088"/>
</g>
<!-- Node23 -->
<g id="node23" class="node"><title>Node23</title>
<g id="a_node23"><a xlink:href="../../d9/d2a/rle__putrow_8c.html#af88a82b331cd6f425d2a2cc1623944c6" target="_top" xlink:title="rle_put_setup">
<polygon fill="white" stroke="black" points="75,-169.299 75,-188.299 155,-188.299 155,-169.299 75,-169.299"/>
<text text-anchor="middle" x="115" y="-176.299" font-family="Helvetica,sans-Serif" font-size="10.00">rle_put_setup</text>
</a>
</g>
</g>
<!-- Node1&#45;&gt;Node23 -->
<g id="edge38" class="edge"><title>Node1&#45;&gt;Node23</title>
<path fill="none" stroke="midnightblue" d="M23.3649,-301.997C29.7522,-281.516 46.8529,-233.539 75,-202.799 77.9596,-199.567 81.453,-196.614 85.113,-193.97"/>
<polygon fill="midnightblue" stroke="midnightblue" points="87.2786,-196.738 93.7827,-188.374 83.4827,-190.856 87.2786,-196.738"/>
</g>
<!-- Node25 -->
<g id="node25" class="node"><title>Node25</title>
<g id="a_node25"><a xlink:href="../../df/dce/rle__getraw_8c.html#a5ed570d65cead1b5587e84134c31e246" target="_top" xlink:title="rle_getraw">
<polygon fill="white" stroke="black" points="81.5,-473.299 81.5,-492.299 148.5,-492.299 148.5,-473.299 81.5,-473.299"/>
<text text-anchor="middle" x="115" y="-480.299" font-family="Helvetica,sans-Serif" font-size="10.00">rle_getraw</text>
</a>
</g>
</g>
<!-- Node1&#45;&gt;Node25 -->
<g id="edge40" class="edge"><title>Node1&#45;&gt;Node25</title>
<path fill="none" stroke="midnightblue" d="M21.8549,-321.471C25.8177,-346.681 39.4355,-415.452 75,-458.799 77.5923,-461.959 80.7161,-464.817 84.0534,-467.368"/>
<polygon fill="midnightblue" stroke="midnightblue" points="82.3459,-470.436 92.6078,-473.071 86.229,-464.612 82.3459,-470.436"/>
</g>
<!-- Node27 -->
<g id="node27" class="node"><title>Node27</title>
<g id="a_node27"><a xlink:href="../../d9/d2a/rle__putrow_8c.html#a018d4b7d6fe20504c07c24b9bd8fc304" target="_top" xlink:title="rle_skiprow">
<polygon fill="white" stroke="black" points="79.5,-131.299 79.5,-150.299 150.5,-150.299 150.5,-131.299 79.5,-131.299"/>
<text text-anchor="middle" x="115" y="-138.299" font-family="Helvetica,sans-Serif" font-size="10.00">rle_skiprow</text>
</a>
</g>
</g>
<!-- Node1&#45;&gt;Node27 -->
<g id="edge43" class="edge"><title>Node1&#45;&gt;Node27</title>
<path fill="none" stroke="midnightblue" d="M21.4683,-301.974C24.538,-275.721 36.264,-203.008 75,-159.799 76.1752,-158.488 77.4609,-157.258 78.8272,-156.106"/>
<polygon fill="midnightblue" stroke="midnightblue" points="81.0285,-158.841 87.3244,-150.32 77.0887,-153.055 81.0285,-158.841"/>
</g>
<!-- Node28 -->
<g id="node28" class="node"><title>Node28</title>
<g id="a_node28"><a xlink:href="../../d6/d8c/rle__putraw_8c.html#ab36032e464af1d1505cdc69948fe9f17" target="_top" xlink:title="rle_putraw">
<polygon fill="white" stroke="black" points="82,-93.2991 82,-112.299 148,-112.299 148,-93.2991 82,-93.2991"/>
<text text-anchor="middle" x="115" y="-100.299" font-family="Helvetica,sans-Serif" font-size="10.00">rle_putraw</text>
</a>
</g>
</g>
<!-- Node1&#45;&gt;Node28 -->
<g id="edge44" class="edge"><title>Node1&#45;&gt;Node28</title>
<path fill="none" stroke="midnightblue" d="M20.6184,-302.256C21.4823,-272.138 28.0012,-177.78 75,-121.799 75.9988,-120.609 77.0898,-119.488 78.2517,-118.432"/>
<polygon fill="midnightblue" stroke="midnightblue" points="80.6265,-121.036 86.7219,-112.37 76.5528,-115.344 80.6265,-121.036"/>
</g>
<!-- Node29 -->
<g id="node29" class="node"><title>Node29</title>
<g id="a_node29"><a xlink:href="../../df/dce/rle__getraw_8c.html#ad4a764bcb2dc8e45f3f57171022dbf2b" target="_top" xlink:title="rle_freeraw">
<polygon fill="white" stroke="black" points="197.5,-36.2991 197.5,-55.2991 268.5,-55.2991 268.5,-36.2991 197.5,-36.2991"/>
<text text-anchor="middle" x="233" y="-43.2991" font-family="Helvetica,sans-Serif" font-size="10.00">rle_freeraw</text>
</a>
</g>
</g>
<!-- Node1&#45;&gt;Node29 -->
<g id="edge45" class="edge"><title>Node1&#45;&gt;Node29</title>
<path fill="none" stroke="midnightblue" d="M21.1874,-302.229C24.357,-260.942 38.9731,-98.6778 75,-65.7991 104.797,-38.6061 152.053,-36.025 186.943,-38.7701"/>
<polygon fill="midnightblue" stroke="midnightblue" points="187.051,-42.2966 197.341,-39.7716 187.722,-35.3289 187.051,-42.2966"/>
</g>
<!-- Node30 -->
<g id="node30" class="node"><title>Node30</title>
<g id="a_node30"><a xlink:href="../../d9/d2a/rle__putrow_8c.html#af4fab734a5d227ad2ae95840f56fff3b" target="_top" xlink:title="rle_puteof">
<polygon fill="white" stroke="black" points="330,-55.2991 330,-74.2991 394,-74.2991 394,-55.2991 330,-55.2991"/>
<text text-anchor="middle" x="362" y="-62.2991" font-family="Helvetica,sans-Serif" font-size="10.00">rle_puteof</text>
</a>
</g>
</g>
<!-- Node1&#45;&gt;Node30 -->
<g id="edge47" class="edge"><title>Node1&#45;&gt;Node30</title>
<path fill="none" stroke="midnightblue" d="M20.8847,-302.202C22.8842,-257.607 33.6444,-71.2683 75,-34.7991 141.722,24.0395 188.65,-5.41031 275,-26.7991 292.561,-31.149 294.513,-38.3497 311,-45.7991 315.371,-47.7743 320.014,-49.726 324.641,-51.5832"/>
<polygon fill="midnightblue" stroke="midnightblue" points="323.436,-54.8699 334.025,-55.24 325.978,-48.3477 323.436,-54.8699"/>
</g>
<!-- Node31 -->
<g id="node31" class="node"><title>Node31</title>
<g id="a_node31"><a xlink:href="../../df/d6e/rle__raw__alc_8c.html#a817fc2f8cdfed47915112d5aa3951afa" target="_top" xlink:title="rle_raw_free">
<polygon fill="white" stroke="black" points="194.5,-112.299 194.5,-131.299 271.5,-131.299 271.5,-112.299 194.5,-112.299"/>
<text text-anchor="middle" x="233" y="-119.299" font-family="Helvetica,sans-Serif" font-size="10.00">rle_raw_free</text>
</a>
</g>
</g>
<!-- Node1&#45;&gt;Node31 -->
<g id="edge49" class="edge"><title>Node1&#45;&gt;Node31</title>
<path fill="none" stroke="midnightblue" d="M21.252,-302.283C24.5953,-262.692 39.5369,-111.784 75,-83.7991 115.246,-52.0396 178.075,-85.0181 210.709,-106.47"/>
<polygon fill="midnightblue" stroke="midnightblue" points="208.831,-109.426 219.069,-112.152 212.766,-103.636 208.831,-109.426"/>
</g>
<!-- Node3 -->
<g id="node3" class="node"><title>Node3</title>
<g id="a_node3"><a xlink:href="../../d4/db0/scanargs_8c.html#a862219039664df6eb3cfced58addf830" target="_top" xlink:title="_do_scanargs">
<polygon fill="white" stroke="black" points="191,-663.299 191,-682.299 275,-682.299 275,-663.299 191,-663.299"/>
<text text-anchor="middle" x="233" y="-670.299" font-family="Helvetica,sans-Serif" font-size="10.00">_do_scanargs</text>
</a>
</g>
</g>
<!-- Node2&#45;&gt;Node3 -->
<g id="edge2" class="edge"><title>Node2&#45;&gt;Node3</title>
<path fill="none" stroke="midnightblue" d="M145.272,-672.799C156.073,-672.799 168.654,-672.799 180.827,-672.799"/>
<polygon fill="midnightblue" stroke="midnightblue" points="180.909,-676.299 190.909,-672.799 180.909,-669.299 180.909,-676.299"/>
</g>
<!-- Node7 -->
<g id="node7" class="node"><title>Node7</title>
<g id="a_node7"><a xlink:href="../../d2/df3/rle__hdr_8c.html#a16c4da6201b3b8cf55127b9ca968d253" target="_top" xlink:title="rle_hdr_clear">
<polygon fill="white" stroke="black" points="322,-245.299 322,-264.299 402,-264.299 402,-245.299 322,-245.299"/>
<text text-anchor="middle" x="362" y="-252.299" font-family="Helvetica,sans-Serif" font-size="10.00">rle_hdr_clear</text>
</a>
</g>
</g>
<!-- Node6&#45;&gt;Node7 -->
<g id="edge6" class="edge"><title>Node6&#45;&gt;Node7</title>
<path fill="none" stroke="midnightblue" d="M150.066,-287.515C192.082,-280.999 263.817,-269.872 311.808,-262.429"/>
<polygon fill="midnightblue" stroke="midnightblue" points="312.622,-265.845 321.967,-260.853 311.549,-258.927 312.622,-265.845"/>
</g>
<!-- Node6&#45;&gt;Node9 -->
<g id="edge8" class="edge"><title>Node6&#45;&gt;Node9</title>
<path fill="none" stroke="midnightblue" d="M150.228,-300.027C151.856,-300.933 153.455,-301.862 155,-302.799 178.757,-317.211 204.299,-337.087 219.179,-351.66"/>
<polygon fill="midnightblue" stroke="midnightblue" points="216.85,-354.291 226.269,-359.142 221.931,-349.476 216.85,-354.291"/>
</g>
<!-- Node8 -->
<g id="node8" class="node"><title>Node8</title>
<g id="a_node8"><a xlink:href="../../d0/dcc/rletorla_8c.html#aafde19f7d36ca163a143579c1b125b6d" target="_top" xlink:title="free">
<polygon fill="white" stroke="black" points="464.5,-264.299 464.5,-283.299 499.5,-283.299 499.5,-264.299 464.5,-264.299"/>
<text text-anchor="middle" x="482" y="-271.299" font-family="Helvetica,sans-Serif" font-size="10.00">free</text>
</a>
</g>
</g>
<!-- Node7&#45;&gt;Node8 -->
<g id="edge7" class="edge"><title>Node7&#45;&gt;Node8</title>
<path fill="none" stroke="midnightblue" d="M402.292,-261.126C419.397,-263.88 438.998,-267.036 454.361,-269.51"/>
<polygon fill="midnightblue" stroke="midnightblue" points="453.807,-272.966 464.236,-271.1 454.92,-266.055 453.807,-272.966"/>
</g>
<!-- Node9&#45;&gt;Node5 -->
<g id="edge10" class="edge"><title>Node9&#45;&gt;Node5</title>
<path fill="none" stroke="midnightblue" d="M238.223,-378.433C247.744,-398.773 273.055,-445.711 311,-463.799 355.528,-485.026 413.842,-470.708 449.306,-458.035"/>
<polygon fill="midnightblue" stroke="midnightblue" points="450.967,-461.15 459.105,-454.366 448.513,-454.595 450.967,-461.15"/>
</g>
<!-- Node9&#45;&gt;Node6 -->
<g id="edge9" class="edge"><title>Node9&#45;&gt;Node6</title>
<path fill="none" stroke="midnightblue" d="M211.161,-359.262C196.07,-348.791 174.908,-332.876 155,-320.799 147.651,-316.341 139.104,-312.082 131.887,-307.933"/>
<polygon fill="midnightblue" stroke="midnightblue" points="133.422,-304.76 123.108,-302.335 129.658,-310.662 133.422,-304.76"/>
</g>
<!-- Node9&#45;&gt;Node10 -->
<g id="edge11" class="edge"><title>Node9&#45;&gt;Node10</title>
<path fill="none" stroke="midnightblue" d="M266.047,-378.388C282.141,-383.204 301.841,-389.098 319.117,-394.267"/>
<polygon fill="midnightblue" stroke="midnightblue" points="318.379,-397.7 328.963,-397.213 320.386,-390.993 318.379,-397.7"/>
</g>
<!-- Node10&#45;&gt;Node5 -->
<g id="edge13" class="edge"><title>Node10&#45;&gt;Node5</title>
<path fill="none" stroke="midnightblue" d="M392.776,-416.388C409.784,-421.865 431.127,-428.738 448.559,-434.352"/>
<polygon fill="midnightblue" stroke="midnightblue" points="447.718,-437.758 458.31,-437.492 449.864,-431.095 447.718,-437.758"/>
</g>
<!-- Node10&#45;&gt;Node8 -->
<g id="edge12" class="edge"><title>Node10&#45;&gt;Node8</title>
<path fill="none" stroke="midnightblue" d="M371.486,-397.234C391.206,-375.008 440.355,-319.611 465.559,-291.202"/>
<polygon fill="midnightblue" stroke="midnightblue" points="468.254,-293.44 472.272,-283.636 463.017,-288.794 468.254,-293.44"/>
</g>
<!-- Node12 -->
<g id="node12" class="node"><title>Node12</title>
<g id="a_node12"><a xlink:href="../../de/d4e/rle__open__f_8c.html#a5a0e62a00f907fce26e93b2f72adb2b0" target="_top" xlink:title="rle_open_f_noexit">
<polygon fill="white" stroke="black" points="311,-587.299 311,-606.299 413,-606.299 413,-587.299 311,-587.299"/>
<text text-anchor="middle" x="362" y="-594.299" font-family="Helvetica,sans-Serif" font-size="10.00">rle_open_f_noexit</text>
</a>
</g>
</g>
<!-- Node11&#45;&gt;Node12 -->
<g id="edge16" class="edge"><title>Node11&#45;&gt;Node12</title>
<path fill="none" stroke="midnightblue" d="M267.036,-596.799C277.382,-596.799 289.141,-596.799 300.755,-596.799"/>
<polygon fill="midnightblue" stroke="midnightblue" points="300.885,-600.299 310.885,-596.799 300.885,-593.299 300.885,-600.299"/>
</g>
<!-- Node12&#45;&gt;Node5 -->
<g id="edge18" class="edge"><title>Node12&#45;&gt;Node5</title>
<path fill="none" stroke="midnightblue" d="M390.92,-587.183C398.713,-583.549 406.749,-578.801 413,-572.799 445.531,-541.569 465.84,-491.336 475.097,-464.011"/>
<polygon fill="midnightblue" stroke="midnightblue" points="478.446,-465.03 478.201,-454.438 471.787,-462.87 478.446,-465.03"/>
</g>
<!-- Node12&#45;&gt;Node8 -->
<g id="edge19" class="edge"><title>Node12&#45;&gt;Node8</title>
<path fill="none" stroke="midnightblue" d="M366.692,-587.14C375.048,-565.24 396.007,-510.116 413,-463.799 435.867,-401.473 462.139,-327.314 474.246,-292.988"/>
<polygon fill="midnightblue" stroke="midnightblue" points="477.634,-293.903 477.657,-283.308 471.032,-291.576 477.634,-293.903"/>
</g>
<!-- Node13 -->
<g id="node13" class="node"><title>Node13</title>
<g id="a_node13"><a xlink:href="../../de/d4e/rle__open__f_8c.html#a84fda810ae9b9bde82a6391d0b264ead" target="_top" xlink:title="my_popen">
<polygon fill="white" stroke="black" points="449,-587.299 449,-606.299 515,-606.299 515,-587.299 449,-587.299"/>
<text text-anchor="middle" x="482" y="-594.299" font-family="Helvetica,sans-Serif" font-size="10.00">my_popen</text>
</a>
</g>
</g>
<!-- Node12&#45;&gt;Node13 -->
<g id="edge17" class="edge"><title>Node12&#45;&gt;Node13</title>
<path fill="none" stroke="midnightblue" d="M413.043,-596.799C421.523,-596.799 430.255,-596.799 438.518,-596.799"/>
<polygon fill="midnightblue" stroke="midnightblue" points="438.678,-600.299 448.678,-596.799 438.678,-593.299 438.678,-600.299"/>
</g>
<!-- Node14&#45;&gt;Node5 -->
<g id="edge23" class="edge"><title>Node14&#45;&gt;Node5</title>
<path fill="none" stroke="midnightblue" d="M252.113,-321.391C267.563,-329.414 290.47,-340.937 311,-349.799 355.415,-368.973 371.19,-363.463 413,-387.799 432.184,-398.965 451.315,-415.62 464.376,-428.047"/>
<polygon fill="midnightblue" stroke="midnightblue" points="462.064,-430.681 471.669,-435.151 466.948,-425.667 462.064,-430.681"/>
</g>
<!-- Node14&#45;&gt;Node7 -->
<g id="edge21" class="edge"><title>Node14&#45;&gt;Node7</title>
<path fill="none" stroke="midnightblue" d="M255.257,-302.259C275.77,-293.052 307.047,-279.014 330.269,-268.592"/>
<polygon fill="midnightblue" stroke="midnightblue" points="331.984,-271.659 339.674,-264.371 329.117,-265.272 331.984,-271.659"/>
</g>
<!-- Node14&#45;&gt;Node8 -->
<g id="edge24" class="edge"><title>Node14&#45;&gt;Node8</title>
<path fill="none" stroke="midnightblue" d="M273.685,-305.694C324.348,-297.899 410.643,-284.623 454.184,-277.925"/>
<polygon fill="midnightblue" stroke="midnightblue" points="454.933,-281.351 464.285,-276.371 453.869,-274.432 454.933,-281.351"/>
</g>
<!-- Node14&#45;&gt;Node10 -->
<g id="edge22" class="edge"><title>Node14&#45;&gt;Node10</title>
<path fill="none" stroke="midnightblue" d="M244.555,-321.568C265.432,-340.887 310.078,-382.174 311,-382.799 316.386,-386.454 322.413,-389.851 328.368,-392.873"/>
<polygon fill="midnightblue" stroke="midnightblue" points="327.034,-396.116 337.563,-397.296 330.068,-389.807 327.034,-396.116"/>
</g>
<!-- Node15 -->
<g id="node15" class="node"><title>Node15</title>
<g id="a_node15"><a xlink:href="../../db/d53/rle__getrow_8c.html#a0ea68aa2ebeef9d4cade7282553b03d6" target="_top" xlink:title="vax_gshort">
<polygon fill="white" stroke="black" points="327.5,-321.299 327.5,-340.299 396.5,-340.299 396.5,-321.299 327.5,-321.299"/>
<text text-anchor="middle" x="362" y="-328.299" font-family="Helvetica,sans-Serif" font-size="10.00">vax_gshort</text>
</a>
</g>
</g>
<!-- Node14&#45;&gt;Node15 -->
<g id="edge25" class="edge"><title>Node14&#45;&gt;Node15</title>
<path fill="none" stroke="midnightblue" d="M273.835,-317.759C287.65,-319.825 303.208,-322.153 317.316,-324.264"/>
<polygon fill="midnightblue" stroke="midnightblue" points="316.879,-327.737 327.287,-325.755 317.915,-320.814 316.879,-327.737"/>
</g>
<!-- Node17&#45;&gt;Node5 -->
<g id="edge28" class="edge"><title>Node17&#45;&gt;Node5</title>
<path fill="none" stroke="midnightblue" d="M402.292,-444.799C417.145,-444.799 433.879,-444.799 448.087,-444.799"/>
<polygon fill="midnightblue" stroke="midnightblue" points="448.386,-448.299 458.386,-444.799 448.386,-441.299 448.386,-448.299"/>
</g>
<!-- Node17&#45;&gt;Node8 -->
<g id="edge29" class="edge"><title>Node17&#45;&gt;Node8</title>
<path fill="none" stroke="midnightblue" d="M398.667,-435.29C403.886,-432.802 408.881,-429.688 413,-425.799 452.113,-388.874 470.292,-325.33 477.305,-293.366"/>
<polygon fill="midnightblue" stroke="midnightblue" points="480.754,-293.972 479.336,-283.473 473.897,-292.565 480.754,-293.972"/>
</g>
<!-- Node18&#45;&gt;Node5 -->
<g id="edge34" class="edge"><title>Node18&#45;&gt;Node5</title>
<path fill="none" stroke="midnightblue" d="M267.751,-210.37C307.101,-204.919 371.966,-202.549 413,-235.799 443.19,-260.262 468.384,-378.091 477.422,-425.238"/>
<polygon fill="midnightblue" stroke="midnightblue" points="473.994,-425.947 479.279,-435.13 480.874,-424.656 473.994,-425.947"/>
</g>
<!-- Node19 -->
<g id="node19" class="node"><title>Node19</title>
<g id="a_node19"><a xlink:href="../../db/db2/rle__getcom_8c.html#a9cefd612c381bf82c9cdf1f3a3b12dd6" target="_top" xlink:title="rle_getcom">
<polygon fill="white" stroke="black" points="327.5,-17.2991 327.5,-36.2991 396.5,-36.2991 396.5,-17.2991 327.5,-17.2991"/>
<text text-anchor="middle" x="362" y="-24.2991" font-family="Helvetica,sans-Serif" font-size="10.00">rle_getcom</text>
</a>
</g>
</g>
<!-- Node18&#45;&gt;Node19 -->
<g id="edge32" class="edge"><title>Node18&#45;&gt;Node19</title>
<path fill="none" stroke="midnightblue" d="M263.65,-207.094C267.933,-204.624 271.924,-201.567 275,-197.799 318.907,-144.022 265.217,-97.9881 311,-45.7991 313.205,-43.2861 315.778,-41.1041 318.573,-39.2097"/>
<polygon fill="midnightblue" stroke="midnightblue" points="320.377,-42.2125 327.474,-34.3462 317.02,-36.0696 320.377,-42.2125"/>
</g>
<!-- Node21 -->
<g id="node21" class="node"><title>Node21</title>
<g id="a_node21"><a xlink:href="../../df/da5/rle__putcom_8c.html#a6fa8528c32d14763efe2a534e409e321" target="_top" xlink:title="rle_putcom">
<polygon fill="white" stroke="black" points="328,-169.299 328,-188.299 396,-188.299 396,-169.299 328,-169.299"/>
<text text-anchor="middle" x="362" y="-176.299" font-family="Helvetica,sans-Serif" font-size="10.00">rle_putcom</text>
</a>
</g>
</g>
<!-- Node18&#45;&gt;Node21 -->
<g id="edge35" class="edge"><title>Node18&#45;&gt;Node21</title>
<path fill="none" stroke="midnightblue" d="M266.047,-207.21C282.141,-202.395 301.841,-196.5 319.117,-191.331"/>
<polygon fill="midnightblue" stroke="midnightblue" points="320.386,-194.605 328.963,-188.385 318.379,-187.899 320.386,-194.605"/>
</g>
<!-- Node20 -->
<g id="node20" class="node"><title>Node20</title>
<g id="a_node20"><a xlink:href="../../db/db2/rle__getcom_8c.html#a7502c8b599724ce86fee5df1311a2337" target="_top" xlink:title="match">
<polygon fill="white" stroke="black" points="459.5,-17.2991 459.5,-36.2991 504.5,-36.2991 504.5,-17.2991 459.5,-17.2991"/>
<text text-anchor="middle" x="482" y="-24.2991" font-family="Helvetica,sans-Serif" font-size="10.00">match</text>
</a>
</g>
</g>
<!-- Node19&#45;&gt;Node20 -->
<g id="edge33" class="edge"><title>Node19&#45;&gt;Node20</title>
<path fill="none" stroke="midnightblue" d="M396.814,-26.7991C413.35,-26.7991 433.136,-26.7991 449.37,-26.7991"/>
<polygon fill="midnightblue" stroke="midnightblue" points="449.456,-30.2992 459.456,-26.7991 449.456,-23.2992 449.456,-30.2992"/>
</g>
<!-- Node21&#45;&gt;Node5 -->
<g id="edge36" class="edge"><title>Node21&#45;&gt;Node5</title>
<path fill="none" stroke="midnightblue" d="M393.338,-188.355C400.627,-191.893 407.798,-196.606 413,-202.799 441.964,-237.285 468.424,-373.46 477.592,-424.943"/>
<polygon fill="midnightblue" stroke="midnightblue" points="474.196,-425.844 479.369,-435.09 481.091,-424.636 474.196,-425.844"/>
</g>
<!-- Node22 -->
<g id="node22" class="node"><title>Node22</title>
<g id="a_node22"><a xlink:href="../../df/da5/rle__putcom_8c.html#a7502c8b599724ce86fee5df1311a2337" target="_top" xlink:title="match">
<polygon fill="white" stroke="black" points="459.5,-169.299 459.5,-188.299 504.5,-188.299 504.5,-169.299 459.5,-169.299"/>
<text text-anchor="middle" x="482" y="-176.299" font-family="Helvetica,sans-Serif" font-size="10.00">match</text>
</a>
</g>
</g>
<!-- Node21&#45;&gt;Node22 -->
<g id="edge37" class="edge"><title>Node21&#45;&gt;Node22</title>
<path fill="none" stroke="midnightblue" d="M396.184,-178.799C412.735,-178.799 432.664,-178.799 449.044,-178.799"/>
<polygon fill="midnightblue" stroke="midnightblue" points="449.224,-182.299 459.224,-178.799 449.224,-175.299 449.224,-182.299"/>
</g>
<!-- Node24 -->
<g id="node24" class="node"><title>Node24</title>
<g id="a_node24"><a xlink:href="../../d9/d2a/rle__putrow_8c.html#a46d9789104d5d1f09253a808fdad5346" target="_top" xlink:title="rle_put_init">
<polygon fill="white" stroke="black" points="199,-169.299 199,-188.299 267,-188.299 267,-169.299 199,-169.299"/>
<text text-anchor="middle" x="233" y="-176.299" font-family="Helvetica,sans-Serif" font-size="10.00">rle_put_init</text>
</a>
</g>
</g>
<!-- Node23&#45;&gt;Node24 -->
<g id="edge39" class="edge"><title>Node23&#45;&gt;Node24</title>
<path fill="none" stroke="midnightblue" d="M155.272,-178.799C166.031,-178.799 177.753,-178.799 188.722,-178.799"/>
<polygon fill="midnightblue" stroke="midnightblue" points="188.953,-182.299 198.953,-178.799 188.953,-175.299 188.953,-182.299"/>
</g>
<!-- Node25&#45;&gt;Node5 -->
<g id="edge41" class="edge"><title>Node25&#45;&gt;Node5</title>
<path fill="none" stroke="midnightblue" d="M146.324,-492.304C159.85,-496.068 176.072,-499.938 191,-501.799 289.266,-514.053 319.1,-514.251 413,-482.799 429.201,-477.373 445.972,-468.048 458.806,-459.993"/>
<polygon fill="midnightblue" stroke="midnightblue" points="460.904,-462.804 467.39,-454.427 457.095,-456.931 460.904,-462.804"/>
</g>
<!-- Node26 -->
<g id="node26" class="node"><title>Node26</title>
<g id="a_node26"><a xlink:href="../../d8/d7c/rle__getskip_8c.html#af6b1e1dc0867e9340f90668591c7c5b3" target="_top" xlink:title="rle_getskip">
<polygon fill="white" stroke="black" points="199,-473.299 199,-492.299 267,-492.299 267,-473.299 199,-473.299"/>
<text text-anchor="middle" x="233" y="-480.299" font-family="Helvetica,sans-Serif" font-size="10.00">rle_getskip</text>
</a>
</g>
</g>
<!-- Node25&#45;&gt;Node26 -->
<g id="edge42" class="edge"><title>Node25&#45;&gt;Node26</title>
<path fill="none" stroke="midnightblue" d="M148.621,-482.799C160.994,-482.799 175.287,-482.799 188.505,-482.799"/>
<polygon fill="midnightblue" stroke="midnightblue" points="188.819,-486.299 198.819,-482.799 188.818,-479.299 188.819,-486.299"/>
</g>
<!-- Node29&#45;&gt;Node8 -->
<g id="edge46" class="edge"><title>Node29&#45;&gt;Node8</title>
<path fill="none" stroke="midnightblue" d="M251.766,-55.3211C267.195,-63.4069 290.257,-75.0568 311,-83.7991 355.3,-102.47 377.731,-87.1308 413,-119.799 418.326,-124.732 456.351,-214.786 473.106,-254.85"/>
<polygon fill="midnightblue" stroke="midnightblue" points="469.88,-256.208 476.962,-264.088 476.34,-253.511 469.88,-256.208"/>
</g>
<!-- Node30&#45;&gt;Node8 -->
<g id="edge48" class="edge"><title>Node30&#45;&gt;Node8</title>
<path fill="none" stroke="midnightblue" d="M392.891,-74.3905C400.269,-77.9413 407.596,-82.6522 413,-88.7991 446.684,-127.117 431.087,-150.029 449,-197.799 456.351,-217.404 465.747,-239.413 472.452,-254.681"/>
<polygon fill="midnightblue" stroke="midnightblue" points="469.357,-256.335 476.606,-264.061 475.757,-253.5 469.357,-256.335"/>
</g>
<!-- Node31&#45;&gt;Node8 -->
<g id="edge50" class="edge"><title>Node31&#45;&gt;Node8</title>
<path fill="none" stroke="midnightblue" d="M271.749,-121.293C310.582,-122.589 371.145,-129.851 413,-159.799 445.962,-183.384 465.728,-228.369 474.873,-254.218"/>
<polygon fill="midnightblue" stroke="midnightblue" points="471.656,-255.635 478.149,-264.007 478.294,-253.413 471.656,-255.635"/>
</g>
</g>
</svg>
