<?xml version="1.0" encoding="UTF-8" standalone="no"?>
<!DOCTYPE svg PUBLIC "-//W3C//DTD SVG 1.1//EN"
 "http://www.w3.org/Graphics/SVG/1.1/DTD/svg11.dtd">
<!-- Generated by graphviz version 2.38.0 (20140413.2041)
 -->
<!-- Title: float_zoom Pages: 1 -->
<svg width="282pt" height="294pt"
 viewBox="0.00 0.00 282.00 294.00" xmlns="http://www.w3.org/2000/svg" xmlns:xlink="http://www.w3.org/1999/xlink">
<g id="graph0" class="graph" transform="scale(1 1) rotate(0) translate(4 290)">
<title>float_zoom</title>
<polygon fill="white" stroke="none" points="-4,4 -4,-290 278,-290 278,4 -4,4"/>
<!-- Node1 -->
<g id="node1" class="node"><title>Node1</title>
<polygon fill="#bfbfbf" stroke="black" points="0,-133.5 0,-152.5 68,-152.5 68,-133.5 0,-133.5"/>
<text text-anchor="middle" x="34" y="-140.5" font-family="Helvetica,sans-Serif" font-size="10.00">float_zoom</text>
</g>
<!-- Node2 -->
<g id="node2" class="node"><title>Node2</title>
<g id="a_node2"><a xlink:href="../../da/dbc/rle__row__alc_8c.html#abf83029f1ab364a8cb72524f58d70a3b" target="_top" xlink:title="rle_row_alloc">
<polygon fill="white" stroke="black" points="104,-228.5 104,-247.5 184,-247.5 184,-228.5 104,-228.5"/>
<text text-anchor="middle" x="144" y="-235.5" font-family="Helvetica,sans-Serif" font-size="10.00">rle_row_alloc</text>
</a>
</g>
</g>
<!-- Node1&#45;&gt;Node2 -->
<g id="edge1" class="edge"><title>Node1&#45;&gt;Node2</title>
<path fill="none" stroke="midnightblue" d="M43.25,-152.941C55.5535,-167.41 79.8586,-194.65 104,-214 107.904,-217.129 112.246,-220.171 116.574,-222.978"/>
<polygon fill="midnightblue" stroke="midnightblue" points="114.948,-226.087 125.295,-228.365 118.627,-220.132 114.948,-226.087"/>
</g>
<!-- Node4 -->
<g id="node4" class="node"><title>Node4</title>
<g id="a_node4"><a xlink:href="../../d0/dcc/rletorla_8c.html#aafde19f7d36ca163a143579c1b125b6d" target="_top" xlink:title="free">
<polygon fill="white" stroke="black" points="229.5,-171.5 229.5,-190.5 264.5,-190.5 264.5,-171.5 229.5,-171.5"/>
<text text-anchor="middle" x="247" y="-178.5" font-family="Helvetica,sans-Serif" font-size="10.00">free</text>
</a>
</g>
</g>
<!-- Node1&#45;&gt;Node4 -->
<g id="edge14" class="edge"><title>Node1&#45;&gt;Node4</title>
<path fill="none" stroke="midnightblue" d="M47.8918,-152.724C61.1532,-162.069 82.8084,-175.551 104,-181 143.167,-191.072 190.445,-188.236 219.357,-184.899"/>
<polygon fill="midnightblue" stroke="midnightblue" points="220,-188.345 229.484,-183.621 219.124,-181.4 220,-188.345"/>
</g>
<!-- Node5 -->
<g id="node5" class="node"><title>Node5</title>
<g id="a_node5"><a xlink:href="../../d5/d42/rlezoom_8c.html#ad8be084bb75a2f387cb761fc46556d17" target="_top" xlink:title="advance_fp">
<polygon fill="white" stroke="black" points="108,-76.5 108,-95.5 180,-95.5 180,-76.5 108,-76.5"/>
<text text-anchor="middle" x="144" y="-83.5" font-family="Helvetica,sans-Serif" font-size="10.00">advance_fp</text>
</a>
</g>
</g>
<!-- Node1&#45;&gt;Node5 -->
<g id="edge4" class="edge"><title>Node1&#45;&gt;Node5</title>
<path fill="none" stroke="midnightblue" d="M51.8861,-133.392C65.7777,-125.562 86.032,-114.317 104,-105 107.103,-103.391 110.362,-101.741 113.62,-100.118"/>
<polygon fill="midnightblue" stroke="midnightblue" points="115.234,-103.225 122.662,-95.6702 112.144,-96.9432 115.234,-103.225"/>
</g>
<!-- Node6 -->
<g id="node6" class="node"><title>Node6</title>
<g id="a_node6"><a xlink:href="../../d5/d42/rlezoom_8c.html#a0e5323ee1ed801abb8f211ee360f3f92" target="_top" xlink:title="build_row">
<polygon fill="white" stroke="black" points="113.5,-38.5 113.5,-57.5 174.5,-57.5 174.5,-38.5 113.5,-38.5"/>
<text text-anchor="middle" x="144" y="-45.5" font-family="Helvetica,sans-Serif" font-size="10.00">build_row</text>
</a>
</g>
</g>
<!-- Node1&#45;&gt;Node6 -->
<g id="edge5" class="edge"><title>Node1&#45;&gt;Node6</title>
<path fill="none" stroke="midnightblue" d="M42.0787,-133.015C53.5984,-117.328 77.767,-86.6742 104,-67 106.056,-65.4579 108.257,-63.9894 110.528,-62.6021"/>
<polygon fill="midnightblue" stroke="midnightblue" points="112.404,-65.5643 119.472,-57.6711 109.025,-59.4342 112.404,-65.5643"/>
</g>
<!-- Node7 -->
<g id="node7" class="node"><title>Node7</title>
<g id="a_node7"><a xlink:href="../../d9/d2a/rle__putrow_8c.html#aa26532b01bc4f49b7383765cdc23ea72" target="_top" xlink:title="rle_putrow">
<polygon fill="white" stroke="black" points="111,-266.5 111,-285.5 177,-285.5 177,-266.5 111,-266.5"/>
<text text-anchor="middle" x="144" y="-273.5" font-family="Helvetica,sans-Serif" font-size="10.00">rle_putrow</text>
</a>
</g>
</g>
<!-- Node1&#45;&gt;Node7 -->
<g id="edge6" class="edge"><title>Node1&#45;&gt;Node7</title>
<path fill="none" stroke="midnightblue" d="M38.5554,-152.5C46.9361,-173.772 69.8294,-225.804 104,-257 105.502,-258.371 107.121,-259.664 108.815,-260.881"/>
<polygon fill="midnightblue" stroke="midnightblue" points="107.369,-264.099 117.726,-266.33 111.021,-258.127 107.369,-264.099"/>
</g>
<!-- Node9 -->
<g id="node9" class="node"><title>Node9</title>
<g id="a_node9"><a xlink:href="../../d9/d2a/rle__putrow_8c.html#af4fab734a5d227ad2ae95840f56fff3b" target="_top" xlink:title="rle_puteof">
<polygon fill="white" stroke="black" points="112,-152.5 112,-171.5 176,-171.5 176,-152.5 112,-152.5"/>
<text text-anchor="middle" x="144" y="-159.5" font-family="Helvetica,sans-Serif" font-size="10.00">rle_puteof</text>
</a>
</g>
</g>
<!-- Node1&#45;&gt;Node9 -->
<g id="edge9" class="edge"><title>Node1&#45;&gt;Node9</title>
<path fill="none" stroke="midnightblue" d="M68.2848,-148.856C78.9141,-150.726 90.8056,-152.818 101.921,-154.773"/>
<polygon fill="midnightblue" stroke="midnightblue" points="101.397,-158.235 111.853,-156.52 102.61,-151.341 101.397,-158.235"/>
</g>
<!-- Node10 -->
<g id="node10" class="node"><title>Node10</title>
<g id="a_node10"><a xlink:href="../../d8/d7c/rle__getskip_8c.html#af6b1e1dc0867e9340f90668591c7c5b3" target="_top" xlink:title="rle_getskip">
<polygon fill="white" stroke="black" points="110,-0.5 110,-19.5 178,-19.5 178,-0.5 110,-0.5"/>
<text text-anchor="middle" x="144" y="-7.5" font-family="Helvetica,sans-Serif" font-size="10.00">rle_getskip</text>
</a>
</g>
</g>
<!-- Node1&#45;&gt;Node10 -->
<g id="edge11" class="edge"><title>Node1&#45;&gt;Node10</title>
<path fill="none" stroke="midnightblue" d="M38.5554,-133.5C46.9361,-112.228 69.8294,-60.1963 104,-29 105.502,-27.6289 107.121,-26.3357 108.815,-25.1192"/>
<polygon fill="midnightblue" stroke="midnightblue" points="111.021,-27.873 117.726,-19.6702 107.369,-21.901 111.021,-27.873"/>
</g>
<!-- Node11 -->
<g id="node11" class="node"><title>Node11</title>
<g id="a_node11"><a xlink:href="../../da/dbc/rle__row__alc_8c.html#a4fa936a985e542d42e91d272f9f6092d" target="_top" xlink:title="rle_row_free">
<polygon fill="white" stroke="black" points="105.5,-114.5 105.5,-133.5 182.5,-133.5 182.5,-114.5 105.5,-114.5"/>
<text text-anchor="middle" x="144" y="-121.5" font-family="Helvetica,sans-Serif" font-size="10.00">rle_row_free</text>
</a>
</g>
</g>
<!-- Node1&#45;&gt;Node11 -->
<g id="edge12" class="edge"><title>Node1&#45;&gt;Node11</title>
<path fill="none" stroke="midnightblue" d="M68.2848,-137.144C76.9327,-135.623 86.4161,-133.955 95.6374,-132.332"/>
<polygon fill="midnightblue" stroke="midnightblue" points="96.2462,-135.779 105.489,-130.599 95.0333,-128.885 96.2462,-135.779"/>
</g>
<!-- Node3 -->
<g id="node3" class="node"><title>Node3</title>
<g id="a_node3"><a xlink:href="../../d0/dcc/rletorla_8c.html#ab7e36af3707843f77cc5b4e831c2fa6d" target="_top" xlink:title="malloc">
<polygon fill="white" stroke="black" points="223.5,-228.5 223.5,-247.5 270.5,-247.5 270.5,-228.5 223.5,-228.5"/>
<text text-anchor="middle" x="247" y="-235.5" font-family="Helvetica,sans-Serif" font-size="10.00">malloc</text>
</a>
</g>
</g>
<!-- Node2&#45;&gt;Node3 -->
<g id="edge2" class="edge"><title>Node2&#45;&gt;Node3</title>
<path fill="none" stroke="midnightblue" d="M184.049,-238C193.729,-238 204.001,-238 213.339,-238"/>
<polygon fill="midnightblue" stroke="midnightblue" points="213.404,-241.5 223.404,-238 213.404,-234.5 213.404,-241.5"/>
</g>
<!-- Node2&#45;&gt;Node4 -->
<g id="edge3" class="edge"><title>Node2&#45;&gt;Node4</title>
<path fill="none" stroke="midnightblue" d="M162.133,-228.331C178.141,-219.297 202.244,-205.694 220.509,-195.386"/>
<polygon fill="midnightblue" stroke="midnightblue" points="222.466,-198.301 229.454,-190.338 219.025,-192.204 222.466,-198.301"/>
</g>
<!-- Node7&#45;&gt;Node3 -->
<g id="edge7" class="edge"><title>Node7&#45;&gt;Node3</title>
<path fill="none" stroke="midnightblue" d="M170.487,-266.411C183.559,-261.493 199.624,-255.448 213.571,-250.201"/>
<polygon fill="midnightblue" stroke="midnightblue" points="215.152,-253.346 223.279,-246.549 212.687,-246.794 215.152,-253.346"/>
</g>
<!-- Node8 -->
<g id="node8" class="node"><title>Node8</title>
<g id="a_node8"><a xlink:href="../../d9/d2a/rle__putrow_8c.html#aaa4133bf4a6cbf287444448497631f26" target="_top" xlink:title="findruns">
<polygon fill="white" stroke="black" points="220,-266.5 220,-285.5 274,-285.5 274,-266.5 220,-266.5"/>
<text text-anchor="middle" x="247" y="-273.5" font-family="Helvetica,sans-Serif" font-size="10.00">findruns</text>
</a>
</g>
</g>
<!-- Node7&#45;&gt;Node8 -->
<g id="edge8" class="edge"><title>Node7&#45;&gt;Node8</title>
<path fill="none" stroke="midnightblue" d="M177.235,-276C187.54,-276 199.017,-276 209.598,-276"/>
<polygon fill="midnightblue" stroke="midnightblue" points="209.802,-279.5 219.802,-276 209.802,-272.5 209.802,-279.5"/>
</g>
<!-- Node9&#45;&gt;Node4 -->
<g id="edge10" class="edge"><title>Node9&#45;&gt;Node4</title>
<path fill="none" stroke="midnightblue" d="M176.127,-167.856C190.031,-170.471 206.244,-173.521 219.55,-176.024"/>
<polygon fill="midnightblue" stroke="midnightblue" points="219.024,-179.487 229.498,-177.896 220.318,-172.607 219.024,-179.487"/>
</g>
<!-- Node11&#45;&gt;Node4 -->
<g id="edge13" class="edge"><title>Node11&#45;&gt;Node4</title>
<path fill="none" stroke="midnightblue" d="M165.835,-133.691C171.764,-136.572 178.189,-139.813 184,-143 196.927,-150.089 210.962,-158.618 222.404,-165.798"/>
<polygon fill="midnightblue" stroke="midnightblue" points="220.633,-168.819 230.954,-171.214 224.379,-162.906 220.633,-168.819"/>
</g>
</g>
</svg>
