<?xml version="1.0" encoding="UTF-8" standalone="no"?>
<!DOCTYPE svg PUBLIC "-//W3C//DTD SVG 1.1//EN"
 "http://www.w3.org/Graphics/SVG/1.1/DTD/svg11.dtd">
<!-- Generated by graphviz version 2.38.0 (20140413.2041)
 -->
<!-- Title: integer_zoom Pages: 1 -->
<svg width="309pt" height="294pt"
 viewBox="0.00 0.00 309.00 294.00" xmlns="http://www.w3.org/2000/svg" xmlns:xlink="http://www.w3.org/1999/xlink">
<g id="graph0" class="graph" transform="scale(1 1) rotate(0) translate(4 290)">
<title>integer_zoom</title>
<polygon fill="white" stroke="none" points="-4,4 -4,-290 305,-290 305,4 -4,4"/>
<!-- Node1 -->
<g id="node1" class="node"><title>Node1</title>
<polygon fill="#bfbfbf" stroke="black" points="0,-133.5 0,-152.5 81,-152.5 81,-133.5 0,-133.5"/>
<text text-anchor="middle" x="40.5" y="-140.5" font-family="Helvetica,sans-Serif" font-size="10.00">integer_zoom</text>
</g>
<!-- Node2 -->
<g id="node2" class="node"><title>Node2</title>
<g id="a_node2"><a xlink:href="../../df/d6e/rle__raw__alc_8c.html#a3f4a119f9ef60eb2599166c98946c339" target="_top" xlink:title="rle_raw_alloc">
<polygon fill="white" stroke="black" points="117,-228.5 117,-247.5 197,-247.5 197,-228.5 117,-228.5"/>
<text text-anchor="middle" x="157" y="-235.5" font-family="Helvetica,sans-Serif" font-size="10.00">rle_raw_alloc</text>
</a>
</g>
</g>
<!-- Node1&#45;&gt;Node2 -->
<g id="edge1" class="edge"><title>Node1&#45;&gt;Node2</title>
<path fill="none" stroke="midnightblue" d="M49.4526,-152.928C62.3413,-168.538 89.1684,-199.088 117,-219 119.22,-220.589 121.594,-222.108 124.033,-223.547"/>
<polygon fill="midnightblue" stroke="midnightblue" points="122.531,-226.713 132.994,-228.378 125.853,-220.551 122.531,-226.713"/>
</g>
<!-- Node5 -->
<g id="node5" class="node"><title>Node5</title>
<g id="a_node5"><a xlink:href="../../df/dce/rle__getraw_8c.html#a5ed570d65cead1b5587e84134c31e246" target="_top" xlink:title="rle_getraw">
<polygon fill="white" stroke="black" points="123.5,-266.5 123.5,-285.5 190.5,-285.5 190.5,-266.5 123.5,-266.5"/>
<text text-anchor="middle" x="157" y="-273.5" font-family="Helvetica,sans-Serif" font-size="10.00">rle_getraw</text>
</a>
</g>
</g>
<!-- Node1&#45;&gt;Node5 -->
<g id="edge4" class="edge"><title>Node1&#45;&gt;Node5</title>
<path fill="none" stroke="midnightblue" d="M45.7781,-152.808C55.5571,-174.249 81.472,-225.865 117,-257 118.703,-258.492 120.544,-259.896 122.466,-261.212"/>
<polygon fill="midnightblue" stroke="midnightblue" points="120.861,-264.328 131.248,-266.415 124.429,-258.306 120.861,-264.328"/>
</g>
<!-- Node7 -->
<g id="node7" class="node"><title>Node7</title>
<g id="a_node7"><a xlink:href="../../d9/d2a/rle__putrow_8c.html#a018d4b7d6fe20504c07c24b9bd8fc304" target="_top" xlink:title="rle_skiprow">
<polygon fill="white" stroke="black" points="121.5,-190.5 121.5,-209.5 192.5,-209.5 192.5,-190.5 121.5,-190.5"/>
<text text-anchor="middle" x="157" y="-197.5" font-family="Helvetica,sans-Serif" font-size="10.00">rle_skiprow</text>
</a>
</g>
</g>
<!-- Node1&#45;&gt;Node7 -->
<g id="edge7" class="edge"><title>Node1&#45;&gt;Node7</title>
<path fill="none" stroke="midnightblue" d="M60.3931,-152.594C75.6444,-160.318 97.6694,-171.427 117,-181 120.202,-182.586 123.556,-184.236 126.896,-185.873"/>
<polygon fill="midnightblue" stroke="midnightblue" points="125.614,-189.141 136.135,-190.384 128.685,-182.851 125.614,-189.141"/>
</g>
<!-- Node8 -->
<g id="node8" class="node"><title>Node8</title>
<g id="a_node8"><a xlink:href="../../d5/d42/rlezoom_8c.html#ab6ff67901107d6099e68a716f6fac1ed" target="_top" xlink:title="expand_raw">
<polygon fill="white" stroke="black" points="119.5,-152.5 119.5,-171.5 194.5,-171.5 194.5,-152.5 119.5,-152.5"/>
<text text-anchor="middle" x="157" y="-159.5" font-family="Helvetica,sans-Serif" font-size="10.00">expand_raw</text>
</a>
</g>
</g>
<!-- Node1&#45;&gt;Node8 -->
<g id="edge8" class="edge"><title>Node1&#45;&gt;Node8</title>
<path fill="none" stroke="midnightblue" d="M81.2252,-149.592C90.3325,-151.103 100.095,-152.723 109.46,-154.277"/>
<polygon fill="midnightblue" stroke="midnightblue" points="108.979,-157.745 119.417,-155.93 110.125,-150.84 108.979,-157.745"/>
</g>
<!-- Node9 -->
<g id="node9" class="node"><title>Node9</title>
<g id="a_node9"><a xlink:href="../../d6/d8c/rle__putraw_8c.html#ab36032e464af1d1505cdc69948fe9f17" target="_top" xlink:title="rle_putraw">
<polygon fill="white" stroke="black" points="124,-114.5 124,-133.5 190,-133.5 190,-114.5 124,-114.5"/>
<text text-anchor="middle" x="157" y="-121.5" font-family="Helvetica,sans-Serif" font-size="10.00">rle_putraw</text>
</a>
</g>
</g>
<!-- Node1&#45;&gt;Node9 -->
<g id="edge9" class="edge"><title>Node1&#45;&gt;Node9</title>
<path fill="none" stroke="midnightblue" d="M81.2252,-136.408C91.7979,-134.654 103.253,-132.753 113.946,-130.978"/>
<polygon fill="midnightblue" stroke="midnightblue" points="114.618,-134.415 123.91,-129.325 113.472,-127.509 114.618,-134.415"/>
</g>
<!-- Node10 -->
<g id="node10" class="node"><title>Node10</title>
<g id="a_node10"><a xlink:href="../../df/dce/rle__getraw_8c.html#ad4a764bcb2dc8e45f3f57171022dbf2b" target="_top" xlink:title="rle_freeraw">
<polygon fill="white" stroke="black" points="121.5,-76.5 121.5,-95.5 192.5,-95.5 192.5,-76.5 121.5,-76.5"/>
<text text-anchor="middle" x="157" y="-83.5" font-family="Helvetica,sans-Serif" font-size="10.00">rle_freeraw</text>
</a>
</g>
</g>
<!-- Node1&#45;&gt;Node10 -->
<g id="edge10" class="edge"><title>Node1&#45;&gt;Node10</title>
<path fill="none" stroke="midnightblue" d="M60.3931,-133.406C75.6444,-125.682 97.6694,-114.573 117,-105 120.202,-103.414 123.556,-101.764 126.896,-100.127"/>
<polygon fill="midnightblue" stroke="midnightblue" points="128.685,-103.149 136.135,-95.6162 125.614,-96.8589 128.685,-103.149"/>
</g>
<!-- Node11 -->
<g id="node11" class="node"><title>Node11</title>
<g id="a_node11"><a xlink:href="../../d9/d2a/rle__putrow_8c.html#af4fab734a5d227ad2ae95840f56fff3b" target="_top" xlink:title="rle_puteof">
<polygon fill="white" stroke="black" points="125,-38.5 125,-57.5 189,-57.5 189,-38.5 125,-38.5"/>
<text text-anchor="middle" x="157" y="-45.5" font-family="Helvetica,sans-Serif" font-size="10.00">rle_puteof</text>
</a>
</g>
</g>
<!-- Node1&#45;&gt;Node11 -->
<g id="edge12" class="edge"><title>Node1&#45;&gt;Node11</title>
<path fill="none" stroke="midnightblue" d="M49.4526,-133.072C62.3413,-117.462 89.1684,-86.9121 117,-67 119.22,-65.4114 121.594,-63.8917 124.033,-62.4533"/>
<polygon fill="midnightblue" stroke="midnightblue" points="125.853,-65.4485 132.994,-57.622 122.531,-59.287 125.853,-65.4485"/>
</g>
<!-- Node12 -->
<g id="node12" class="node"><title>Node12</title>
<g id="a_node12"><a xlink:href="../../df/d6e/rle__raw__alc_8c.html#a817fc2f8cdfed47915112d5aa3951afa" target="_top" xlink:title="rle_raw_free">
<polygon fill="white" stroke="black" points="118.5,-0.5 118.5,-19.5 195.5,-19.5 195.5,-0.5 118.5,-0.5"/>
<text text-anchor="middle" x="157" y="-7.5" font-family="Helvetica,sans-Serif" font-size="10.00">rle_raw_free</text>
</a>
</g>
</g>
<!-- Node1&#45;&gt;Node12 -->
<g id="edge14" class="edge"><title>Node1&#45;&gt;Node12</title>
<path fill="none" stroke="midnightblue" d="M45.7781,-133.192C55.5571,-111.751 81.472,-60.1345 117,-29 118.703,-27.5077 120.544,-26.1039 122.466,-24.7884"/>
<polygon fill="midnightblue" stroke="midnightblue" points="124.429,-27.6939 131.248,-19.5853 120.861,-21.6716 124.429,-27.6939"/>
</g>
<!-- Node3 -->
<g id="node3" class="node"><title>Node3</title>
<g id="a_node3"><a xlink:href="../../d0/dcc/rletorla_8c.html#ab7e36af3707843f77cc5b4e831c2fa6d" target="_top" xlink:title="malloc">
<polygon fill="white" stroke="black" points="243.5,-228.5 243.5,-247.5 290.5,-247.5 290.5,-228.5 243.5,-228.5"/>
<text text-anchor="middle" x="267" y="-235.5" font-family="Helvetica,sans-Serif" font-size="10.00">malloc</text>
</a>
</g>
</g>
<!-- Node2&#45;&gt;Node3 -->
<g id="edge2" class="edge"><title>Node2&#45;&gt;Node3</title>
<path fill="none" stroke="midnightblue" d="M197.296,-238C208.997,-238 221.694,-238 232.953,-238"/>
<polygon fill="midnightblue" stroke="midnightblue" points="233.228,-241.5 243.228,-238 233.228,-234.5 233.228,-241.5"/>
</g>
<!-- Node4 -->
<g id="node4" class="node"><title>Node4</title>
<g id="a_node4"><a xlink:href="../../d0/dcc/rletorla_8c.html#aafde19f7d36ca163a143579c1b125b6d" target="_top" xlink:title="free">
<polygon fill="white" stroke="black" points="249.5,-57.5 249.5,-76.5 284.5,-76.5 284.5,-57.5 249.5,-57.5"/>
<text text-anchor="middle" x="267" y="-64.5" font-family="Helvetica,sans-Serif" font-size="10.00">free</text>
</a>
</g>
</g>
<!-- Node2&#45;&gt;Node4 -->
<g id="edge3" class="edge"><title>Node2&#45;&gt;Node4</title>
<path fill="none" stroke="midnightblue" d="M184.024,-228.469C188.741,-225.911 193.323,-222.778 197,-219 234.426,-180.542 253.81,-118.195 261.671,-86.6376"/>
<polygon fill="midnightblue" stroke="midnightblue" points="265.091,-87.3858 263.982,-76.8492 258.278,-85.7774 265.091,-87.3858"/>
</g>
<!-- Node5&#45;&gt;Node3 -->
<g id="edge5" class="edge"><title>Node5&#45;&gt;Node3</title>
<path fill="none" stroke="midnightblue" d="M185.253,-266.411C200.016,-261.217 218.347,-254.767 233.81,-249.326"/>
<polygon fill="midnightblue" stroke="midnightblue" points="235.22,-252.541 243.491,-245.92 232.896,-245.937 235.22,-252.541"/>
</g>
<!-- Node6 -->
<g id="node6" class="node"><title>Node6</title>
<g id="a_node6"><a xlink:href="../../d8/d7c/rle__getskip_8c.html#af6b1e1dc0867e9340f90668591c7c5b3" target="_top" xlink:title="rle_getskip">
<polygon fill="white" stroke="black" points="233,-266.5 233,-285.5 301,-285.5 301,-266.5 233,-266.5"/>
<text text-anchor="middle" x="267" y="-273.5" font-family="Helvetica,sans-Serif" font-size="10.00">rle_getskip</text>
</a>
</g>
</g>
<!-- Node5&#45;&gt;Node6 -->
<g id="edge6" class="edge"><title>Node5&#45;&gt;Node6</title>
<path fill="none" stroke="midnightblue" d="M190.697,-276C200.661,-276 211.778,-276 222.346,-276"/>
<polygon fill="midnightblue" stroke="midnightblue" points="222.668,-279.5 232.668,-276 222.668,-272.5 222.668,-279.5"/>
</g>
<!-- Node10&#45;&gt;Node4 -->
<g id="edge11" class="edge"><title>Node10&#45;&gt;Node4</title>
<path fill="none" stroke="midnightblue" d="M192.766,-79.8837C207.901,-77.2211 225.354,-74.1507 239.425,-71.6752"/>
<polygon fill="midnightblue" stroke="midnightblue" points="240.189,-75.0946 249.432,-69.9148 238.977,-68.2005 240.189,-75.0946"/>
</g>
<!-- Node11&#45;&gt;Node4 -->
<g id="edge13" class="edge"><title>Node11&#45;&gt;Node4</title>
<path fill="none" stroke="midnightblue" d="M189.238,-53.4956C204.979,-56.2648 223.878,-59.5897 238.985,-62.2474"/>
<polygon fill="midnightblue" stroke="midnightblue" points="238.761,-65.7615 249.216,-64.0472 239.973,-58.8674 238.761,-65.7615"/>
</g>
<!-- Node12&#45;&gt;Node4 -->
<g id="edge15" class="edge"><title>Node12&#45;&gt;Node4</title>
<path fill="none" stroke="midnightblue" d="M178.338,-19.6702C184.376,-22.605 190.982,-25.8797 197,-29 211.556,-36.548 227.613,-45.3612 240.572,-52.5988"/>
<polygon fill="midnightblue" stroke="midnightblue" points="238.961,-55.7083 249.395,-57.5499 242.387,-49.6038 238.961,-55.7083"/>
</g>
</g>
</svg>
