<?xml version="1.0" encoding="UTF-8" standalone="no"?>
<!DOCTYPE svg PUBLIC "-//W3C//DTD SVG 1.1//EN"
 "http://www.w3.org/Graphics/SVG/1.1/DTD/svg11.dtd">
<!-- Generated by graphviz version 2.38.0 (20140413.2041)
 -->
<!-- Title: main Pages: 1 -->
<svg width="523pt" height="484pt"
 viewBox="0.00 0.00 523.00 484.00" xmlns="http://www.w3.org/2000/svg" xmlns:xlink="http://www.w3.org/1999/xlink">
<g id="graph0" class="graph" transform="scale(1 1) rotate(0) translate(4 480)">
<title>main</title>
<polygon fill="white" stroke="none" points="-4,4 -4,-480 519,-480 519,4 -4,4"/>
<!-- Node1 -->
<g id="node1" class="node"><title>Node1</title>
<polygon fill="#bfbfbf" stroke="black" points="0,-209.5 0,-228.5 39,-228.5 39,-209.5 0,-209.5"/>
<text text-anchor="middle" x="19.5" y="-216.5" font-family="Helvetica,sans-Serif" font-size="10.00">main</text>
</g>
<!-- Node2 -->
<g id="node2" class="node"><title>Node2</title>
<g id="a_node2"><a xlink:href="../../d4/db0/scanargs_8c.html#a7ea6d702c0484056c8504d6ce7fede08" target="_top" xlink:title="scanargs">
<polygon fill="white" stroke="black" points="85,-456.5 85,-475.5 145,-475.5 145,-456.5 85,-456.5"/>
<text text-anchor="middle" x="115" y="-463.5" font-family="Helvetica,sans-Serif" font-size="10.00">scanargs</text>
</a>
</g>
</g>
<!-- Node1&#45;&gt;Node2 -->
<g id="edge1" class="edge"><title>Node1&#45;&gt;Node2</title>
<path fill="none" stroke="midnightblue" d="M20.3642,-228.535C20.3642,-261.496 24.3232,-372.411 75,-442 77.3547,-445.233 80.2902,-448.123 83.4873,-450.679"/>
<polygon fill="midnightblue" stroke="midnightblue" points="81.5597,-453.601 91.7915,-456.351 85.5078,-447.82 81.5597,-453.601"/>
</g>
<!-- Node4 -->
<g id="node4" class="node"><title>Node4</title>
<g id="a_node4"><a xlink:href="../../d2/df3/rle__hdr_8c.html#a8ba0e5b11d1e39ab7227f1686e676c86" target="_top" xlink:title="rle_hdr_init">
<polygon fill="white" stroke="black" points="80,-228.5 80,-247.5 150,-247.5 150,-228.5 80,-228.5"/>
<text text-anchor="middle" x="115" y="-235.5" font-family="Helvetica,sans-Serif" font-size="10.00">rle_hdr_init</text>
</a>
</g>
</g>
<!-- Node1&#45;&gt;Node4 -->
<g id="edge3" class="edge"><title>Node1&#45;&gt;Node4</title>
<path fill="none" stroke="midnightblue" d="M39.4211,-222.845C48.3275,-224.655 59.3525,-226.895 70.1683,-229.093"/>
<polygon fill="midnightblue" stroke="midnightblue" points="69.479,-232.524 79.9757,-231.086 70.873,-225.665 69.479,-232.524"/>
</g>
<!-- Node6 -->
<g id="node6" class="node"><title>Node6</title>
<g id="a_node6"><a xlink:href="../../d0/dcc/rletorla_8c.html#aafde19f7d36ca163a143579c1b125b6d" target="_top" xlink:title="free">
<polygon fill="white" stroke="black" points="464.5,-342.5 464.5,-361.5 499.5,-361.5 499.5,-342.5 464.5,-342.5"/>
<text text-anchor="middle" x="482" y="-349.5" font-family="Helvetica,sans-Serif" font-size="10.00">free</text>
</a>
</g>
</g>
<!-- Node1&#45;&gt;Node6 -->
<g id="edge35" class="edge"><title>Node1&#45;&gt;Node6</title>
<path fill="none" stroke="midnightblue" d="M21.2,-228.845C23.5825,-254.333 33.7134,-322.734 75,-355 190.136,-444.979 385.036,-387.264 455.016,-362.051"/>
<polygon fill="midnightblue" stroke="midnightblue" points="456.238,-365.331 464.41,-358.589 453.817,-358.763 456.238,-365.331"/>
</g>
<!-- Node8 -->
<g id="node8" class="node"><title>Node8</title>
<g id="a_node8"><a xlink:href="../../d0/dcc/rletorla_8c.html#ab7e36af3707843f77cc5b4e831c2fa6d" target="_top" xlink:title="malloc">
<polygon fill="white" stroke="black" points="458.5,-190.5 458.5,-209.5 505.5,-209.5 505.5,-190.5 458.5,-190.5"/>
<text text-anchor="middle" x="482" y="-197.5" font-family="Helvetica,sans-Serif" font-size="10.00">malloc</text>
</a>
</g>
</g>
<!-- Node1&#45;&gt;Node8 -->
<g id="edge26" class="edge"><title>Node1&#45;&gt;Node8</title>
<path fill="none" stroke="midnightblue" d="M39.1225,-218.232C109.297,-215.336 358.329,-205.061 448.284,-201.35"/>
<polygon fill="midnightblue" stroke="midnightblue" points="448.596,-204.84 458.443,-200.931 448.307,-197.846 448.596,-204.84"/>
</g>
<!-- Node9 -->
<g id="node9" class="node"><title>Node9</title>
<g id="a_node9"><a xlink:href="../../d2/df3/rle__hdr_8c.html#a82e79385f2d45cc3b80ce0f4f369eae5" target="_top" xlink:title="rle_names">
<polygon fill="white" stroke="black" points="329,-266.5 329,-285.5 395,-285.5 395,-266.5 329,-266.5"/>
<text text-anchor="middle" x="362" y="-273.5" font-family="Helvetica,sans-Serif" font-size="10.00">rle_names</text>
</a>
</g>
</g>
<!-- Node1&#45;&gt;Node9 -->
<g id="edge12" class="edge"><title>Node1&#45;&gt;Node9</title>
<path fill="none" stroke="midnightblue" d="M30.7853,-228.789C41.0741,-237.903 57.804,-250.963 75,-257 157.437,-285.939 261.322,-284.12 318.46,-280.121"/>
<polygon fill="midnightblue" stroke="midnightblue" points="318.862,-283.601 328.57,-279.356 318.334,-276.621 318.862,-283.601"/>
</g>
<!-- Node10 -->
<g id="node10" class="node"><title>Node10</title>
<g id="a_node10"><a xlink:href="../../d8/d30/cmd__name_8c.html#a271249070fdd12c176777c77d76f888f" target="_top" xlink:title="cmd_name">
<polygon fill="white" stroke="black" points="81,-76.5 81,-95.5 149,-95.5 149,-76.5 81,-76.5"/>
<text text-anchor="middle" x="115" y="-83.5" font-family="Helvetica,sans-Serif" font-size="10.00">cmd_name</text>
</a>
</g>
</g>
<!-- Node1&#45;&gt;Node10 -->
<g id="edge13" class="edge"><title>Node1&#45;&gt;Node10</title>
<path fill="none" stroke="midnightblue" d="M23.3649,-209.198C29.7522,-188.717 46.8529,-140.74 75,-110 77.9596,-106.768 81.453,-103.815 85.113,-101.17"/>
<polygon fill="midnightblue" stroke="midnightblue" points="87.2786,-103.938 93.7827,-95.575 83.4827,-98.057 87.2786,-103.938"/>
</g>
<!-- Node11 -->
<g id="node11" class="node"><title>Node11</title>
<g id="a_node11"><a xlink:href="../../de/d4e/rle__open__f_8c.html#a89733a45961817885603ae01210290b7" target="_top" xlink:title="rle_open_f">
<polygon fill="white" stroke="black" points="199,-342.5 199,-361.5 267,-361.5 267,-342.5 199,-342.5"/>
<text text-anchor="middle" x="233" y="-349.5" font-family="Helvetica,sans-Serif" font-size="10.00">rle_open_f</text>
</a>
</g>
</g>
<!-- Node1&#45;&gt;Node11 -->
<g id="edge14" class="edge"><title>Node1&#45;&gt;Node11</title>
<path fill="none" stroke="midnightblue" d="M22.2724,-228.79C26.7708,-250.574 40.7943,-303.09 75,-328 107.825,-351.904 154.839,-356.248 188.855,-355.626"/>
<polygon fill="midnightblue" stroke="midnightblue" points="189.086,-359.12 198.964,-355.29 188.853,-352.124 189.086,-359.12"/>
</g>
<!-- Node14 -->
<g id="node14" class="node"><title>Node14</title>
<g id="a_node14"><a xlink:href="../../d8/def/rle__addhist_8c.html#a4f9433d6e4e203d0ecea1c7d3837afc3" target="_top" xlink:title="rle_addhist">
<polygon fill="white" stroke="black" points="198.5,-76.5 198.5,-95.5 267.5,-95.5 267.5,-76.5 198.5,-76.5"/>
<text text-anchor="middle" x="233" y="-83.5" font-family="Helvetica,sans-Serif" font-size="10.00">rle_addhist</text>
</a>
</g>
</g>
<!-- Node1&#45;&gt;Node14 -->
<g id="edge19" class="edge"><title>Node1&#45;&gt;Node14</title>
<path fill="none" stroke="midnightblue" d="M24.9696,-209.409C32.875,-193.438 50.8013,-161.338 75,-143 93.323,-129.115 149.179,-110.563 189.044,-98.4521"/>
<polygon fill="midnightblue" stroke="midnightblue" points="190.233,-101.749 198.802,-95.5186 188.218,-95.0458 190.233,-101.749"/>
</g>
<!-- Node19 -->
<g id="node19" class="node"><title>Node19</title>
<g id="a_node19"><a xlink:href="../../d8/d81/rastorle_8c.html#a22a5ce9f932044856244f1127113630b" target="_top" xlink:title="getbit">
<polygon fill="white" stroke="black" points="94,-38.5 94,-57.5 136,-57.5 136,-38.5 94,-38.5"/>
<text text-anchor="middle" x="115" y="-45.5" font-family="Helvetica,sans-Serif" font-size="10.00">getbit</text>
</a>
</g>
</g>
<!-- Node1&#45;&gt;Node19 -->
<g id="edge27" class="edge"><title>Node1&#45;&gt;Node19</title>
<path fill="none" stroke="midnightblue" d="M21.4683,-209.175C24.538,-182.922 36.264,-110.209 75,-67 77.7494,-63.9331 81.1039,-61.3095 84.6794,-59.0797"/>
<polygon fill="midnightblue" stroke="midnightblue" points="86.5566,-62.0481 93.8043,-54.3201 83.3193,-55.8417 86.5566,-62.0481"/>
</g>
<!-- Node20 -->
<g id="node20" class="node"><title>Node20</title>
<g id="a_node20"><a xlink:href="../../d9/d2a/rle__putrow_8c.html#af88a82b331cd6f425d2a2cc1623944c6" target="_top" xlink:title="rle_put_setup">
<polygon fill="white" stroke="black" points="75,-0.5 75,-19.5 155,-19.5 155,-0.5 75,-0.5"/>
<text text-anchor="middle" x="115" y="-7.5" font-family="Helvetica,sans-Serif" font-size="10.00">rle_put_setup</text>
</a>
</g>
</g>
<!-- Node1&#45;&gt;Node20 -->
<g id="edge28" class="edge"><title>Node1&#45;&gt;Node20</title>
<path fill="none" stroke="midnightblue" d="M20.6184,-209.457C21.4823,-179.338 28.0012,-84.9805 75,-29 75.9988,-27.8103 77.0898,-26.689 78.2517,-25.6327"/>
<polygon fill="midnightblue" stroke="midnightblue" points="80.6265,-28.2372 86.7219,-19.5713 76.5528,-22.5446 80.6265,-28.2372"/>
</g>
<!-- Node22 -->
<g id="node22" class="node"><title>Node22</title>
<g id="a_node22"><a xlink:href="../../d9/d2a/rle__putrow_8c.html#aa26532b01bc4f49b7383765cdc23ea72" target="_top" xlink:title="rle_putrow">
<polygon fill="white" stroke="black" points="82,-152.5 82,-171.5 148,-171.5 148,-152.5 82,-152.5"/>
<text text-anchor="middle" x="115" y="-159.5" font-family="Helvetica,sans-Serif" font-size="10.00">rle_putrow</text>
</a>
</g>
</g>
<!-- Node1&#45;&gt;Node22 -->
<g id="edge30" class="edge"><title>Node1&#45;&gt;Node22</title>
<path fill="none" stroke="midnightblue" d="M36.361,-209.331C50.9559,-200.433 72.8209,-187.104 89.632,-176.855"/>
<polygon fill="midnightblue" stroke="midnightblue" points="91.6566,-179.72 98.3732,-171.526 88.0129,-173.743 91.6566,-179.72"/>
</g>
<!-- Node24 -->
<g id="node24" class="node"><title>Node24</title>
<g id="a_node24"><a xlink:href="../../d9/d2a/rle__putrow_8c.html#af4fab734a5d227ad2ae95840f56fff3b" target="_top" xlink:title="rle_puteof">
<polygon fill="white" stroke="black" points="330,-418.5 330,-437.5 394,-437.5 394,-418.5 330,-418.5"/>
<text text-anchor="middle" x="362" y="-425.5" font-family="Helvetica,sans-Serif" font-size="10.00">rle_puteof</text>
</a>
</g>
</g>
<!-- Node1&#45;&gt;Node24 -->
<g id="edge33" class="edge"><title>Node1&#45;&gt;Node24</title>
<path fill="none" stroke="midnightblue" d="M19.9351,-228.649C18.6937,-259.867 19.4657,-358.722 75,-404 111.457,-433.724 249.708,-432.658 319.769,-430.051"/>
<polygon fill="midnightblue" stroke="midnightblue" points="320.145,-433.539 329.997,-429.641 319.865,-426.544 320.145,-433.539"/>
</g>
<!-- Node3 -->
<g id="node3" class="node"><title>Node3</title>
<g id="a_node3"><a xlink:href="../../d4/db0/scanargs_8c.html#a862219039664df6eb3cfced58addf830" target="_top" xlink:title="_do_scanargs">
<polygon fill="white" stroke="black" points="191,-456.5 191,-475.5 275,-475.5 275,-456.5 191,-456.5"/>
<text text-anchor="middle" x="233" y="-463.5" font-family="Helvetica,sans-Serif" font-size="10.00">_do_scanargs</text>
</a>
</g>
</g>
<!-- Node2&#45;&gt;Node3 -->
<g id="edge2" class="edge"><title>Node2&#45;&gt;Node3</title>
<path fill="none" stroke="midnightblue" d="M145.272,-466C156.073,-466 168.654,-466 180.827,-466"/>
<polygon fill="midnightblue" stroke="midnightblue" points="180.909,-469.5 190.909,-466 180.909,-462.5 180.909,-469.5"/>
</g>
<!-- Node5 -->
<g id="node5" class="node"><title>Node5</title>
<g id="a_node5"><a xlink:href="../../d2/df3/rle__hdr_8c.html#a16c4da6201b3b8cf55127b9ca968d253" target="_top" xlink:title="rle_hdr_clear">
<polygon fill="white" stroke="black" points="322,-342.5 322,-361.5 402,-361.5 402,-342.5 322,-342.5"/>
<text text-anchor="middle" x="362" y="-349.5" font-family="Helvetica,sans-Serif" font-size="10.00">rle_hdr_clear</text>
</a>
</g>
</g>
<!-- Node4&#45;&gt;Node5 -->
<g id="edge4" class="edge"><title>Node4&#45;&gt;Node5</title>
<path fill="none" stroke="midnightblue" d="M134.293,-247.601C168.53,-265.414 244.811,-304.371 311,-333 315.504,-334.948 320.279,-336.902 325.021,-338.775"/>
<polygon fill="midnightblue" stroke="midnightblue" points="324.022,-342.141 334.612,-342.481 326.546,-335.612 324.022,-342.141"/>
</g>
<!-- Node7 -->
<g id="node7" class="node"><title>Node7</title>
<g id="a_node7"><a xlink:href="../../d2/df3/rle__hdr_8c.html#afc916e29aea8788e0878ca315ff69821" target="_top" xlink:title="rle_hdr_cp">
<polygon fill="white" stroke="black" points="199,-228.5 199,-247.5 267,-247.5 267,-228.5 199,-228.5"/>
<text text-anchor="middle" x="233" y="-235.5" font-family="Helvetica,sans-Serif" font-size="10.00">rle_hdr_cp</text>
</a>
</g>
</g>
<!-- Node4&#45;&gt;Node7 -->
<g id="edge6" class="edge"><title>Node4&#45;&gt;Node7</title>
<path fill="none" stroke="midnightblue" d="M150.176,-231.784C162.185,-231.215 175.843,-231.101 188.513,-231.441"/>
<polygon fill="midnightblue" stroke="midnightblue" points="188.74,-234.952 198.866,-231.835 189.006,-227.958 188.74,-234.952"/>
</g>
<!-- Node5&#45;&gt;Node6 -->
<g id="edge5" class="edge"><title>Node5&#45;&gt;Node6</title>
<path fill="none" stroke="midnightblue" d="M402.292,-352C419.232,-352 438.621,-352 453.916,-352"/>
<polygon fill="midnightblue" stroke="midnightblue" points="454.236,-355.5 464.236,-352 454.236,-348.5 454.236,-355.5"/>
</g>
<!-- Node7&#45;&gt;Node4 -->
<g id="edge7" class="edge"><title>Node7&#45;&gt;Node4</title>
<path fill="none" stroke="midnightblue" d="M198.866,-244.165C186.836,-244.767 173.046,-244.904 160.212,-244.578"/>
<polygon fill="midnightblue" stroke="midnightblue" points="160.296,-241.078 150.176,-244.216 160.044,-248.074 160.296,-241.078"/>
</g>
<!-- Node7&#45;&gt;Node8 -->
<g id="edge8" class="edge"><title>Node7&#45;&gt;Node8</title>
<path fill="none" stroke="midnightblue" d="M267.096,-234.264C303.101,-230.036 362.304,-222.607 413,-214 424.645,-212.023 437.34,-209.508 448.574,-207.157"/>
<polygon fill="midnightblue" stroke="midnightblue" points="449.356,-210.569 458.408,-205.063 447.898,-203.722 449.356,-210.569"/>
</g>
<!-- Node7&#45;&gt;Node9 -->
<g id="edge9" class="edge"><title>Node7&#45;&gt;Node9</title>
<path fill="none" stroke="midnightblue" d="M266.047,-247.589C282.141,-252.404 301.841,-258.299 319.117,-263.468"/>
<polygon fill="midnightblue" stroke="midnightblue" points="318.379,-266.901 328.963,-266.414 320.386,-260.194 318.379,-266.901"/>
</g>
<!-- Node9&#45;&gt;Node6 -->
<g id="edge10" class="edge"><title>Node9&#45;&gt;Node6</title>
<path fill="none" stroke="midnightblue" d="M394.736,-285.591C401.047,-288.168 407.436,-291.292 413,-295 432.36,-307.901 430.824,-318.478 449,-333 451.076,-334.659 453.311,-336.275 455.6,-337.819"/>
<polygon fill="midnightblue" stroke="midnightblue" points="454.139,-341.033 464.475,-343.358 457.845,-335.094 454.139,-341.033"/>
</g>
<!-- Node9&#45;&gt;Node8 -->
<g id="edge11" class="edge"><title>Node9&#45;&gt;Node8</title>
<path fill="none" stroke="midnightblue" d="M385.421,-266.433C394.232,-262.368 404.3,-257.336 413,-252 430.459,-241.291 448.827,-227.043 462.066,-216.169"/>
<polygon fill="midnightblue" stroke="midnightblue" points="464.526,-218.675 469.963,-209.582 460.042,-213.299 464.526,-218.675"/>
</g>
<!-- Node12 -->
<g id="node12" class="node"><title>Node12</title>
<g id="a_node12"><a xlink:href="../../de/d4e/rle__open__f_8c.html#a5a0e62a00f907fce26e93b2f72adb2b0" target="_top" xlink:title="rle_open_f_noexit">
<polygon fill="white" stroke="black" points="311,-304.5 311,-323.5 413,-323.5 413,-304.5 311,-304.5"/>
<text text-anchor="middle" x="362" y="-311.5" font-family="Helvetica,sans-Serif" font-size="10.00">rle_open_f_noexit</text>
</a>
</g>
</g>
<!-- Node11&#45;&gt;Node12 -->
<g id="edge15" class="edge"><title>Node11&#45;&gt;Node12</title>
<path fill="none" stroke="midnightblue" d="M266.047,-342.411C282.141,-337.596 301.841,-331.701 319.117,-326.532"/>
<polygon fill="midnightblue" stroke="midnightblue" points="320.386,-329.806 328.963,-323.586 318.379,-323.099 320.386,-329.806"/>
</g>
<!-- Node12&#45;&gt;Node6 -->
<g id="edge18" class="edge"><title>Node12&#45;&gt;Node6</title>
<path fill="none" stroke="midnightblue" d="M392.776,-323.589C411.813,-329.72 436.281,-337.599 454.618,-343.504"/>
<polygon fill="midnightblue" stroke="midnightblue" points="453.768,-346.907 464.359,-346.641 455.914,-340.244 453.768,-346.907"/>
</g>
<!-- Node12&#45;&gt;Node8 -->
<g id="edge17" class="edge"><title>Node12&#45;&gt;Node8</title>
<path fill="none" stroke="midnightblue" d="M396.458,-304.431C402.297,-301.907 408.071,-298.797 413,-295 440.05,-274.164 460.929,-239.652 472.056,-218.459"/>
<polygon fill="midnightblue" stroke="midnightblue" points="475.198,-220.002 476.594,-209.5 468.953,-216.839 475.198,-220.002"/>
</g>
<!-- Node13 -->
<g id="node13" class="node"><title>Node13</title>
<g id="a_node13"><a xlink:href="../../de/d4e/rle__open__f_8c.html#a84fda810ae9b9bde82a6391d0b264ead" target="_top" xlink:title="my_popen">
<polygon fill="white" stroke="black" points="449,-304.5 449,-323.5 515,-323.5 515,-304.5 449,-304.5"/>
<text text-anchor="middle" x="482" y="-311.5" font-family="Helvetica,sans-Serif" font-size="10.00">my_popen</text>
</a>
</g>
</g>
<!-- Node12&#45;&gt;Node13 -->
<g id="edge16" class="edge"><title>Node12&#45;&gt;Node13</title>
<path fill="none" stroke="midnightblue" d="M413.043,-314C421.523,-314 430.255,-314 438.518,-314"/>
<polygon fill="midnightblue" stroke="midnightblue" points="438.678,-317.5 448.678,-314 438.678,-310.5 438.678,-317.5"/>
</g>
<!-- Node14&#45;&gt;Node8 -->
<g id="edge22" class="edge"><title>Node14&#45;&gt;Node8</title>
<path fill="none" stroke="midnightblue" d="M267.655,-94.1951C304.658,-103.981 365.201,-122.311 413,-148 431.256,-157.811 449.801,-172.364 462.902,-183.581"/>
<polygon fill="midnightblue" stroke="midnightblue" points="460.841,-186.428 470.668,-190.387 465.455,-181.164 460.841,-186.428"/>
</g>
<!-- Node15 -->
<g id="node15" class="node"><title>Node15</title>
<g id="a_node15"><a xlink:href="../../db/db2/rle__getcom_8c.html#a9cefd612c381bf82c9cdf1f3a3b12dd6" target="_top" xlink:title="rle_getcom">
<polygon fill="white" stroke="black" points="327.5,-38.5 327.5,-57.5 396.5,-57.5 396.5,-38.5 327.5,-38.5"/>
<text text-anchor="middle" x="362" y="-45.5" font-family="Helvetica,sans-Serif" font-size="10.00">rle_getcom</text>
</a>
</g>
</g>
<!-- Node14&#45;&gt;Node15 -->
<g id="edge20" class="edge"><title>Node14&#45;&gt;Node15</title>
<path fill="none" stroke="midnightblue" d="M266.047,-76.411C282.141,-71.5956 301.841,-65.7012 319.117,-60.532"/>
<polygon fill="midnightblue" stroke="midnightblue" points="320.386,-63.8057 328.963,-57.5859 318.379,-57.0994 320.386,-63.8057"/>
</g>
<!-- Node17 -->
<g id="node17" class="node"><title>Node17</title>
<g id="a_node17"><a xlink:href="../../df/da5/rle__putcom_8c.html#a6fa8528c32d14763efe2a534e409e321" target="_top" xlink:title="rle_putcom">
<polygon fill="white" stroke="black" points="328,-76.5 328,-95.5 396,-95.5 396,-76.5 328,-76.5"/>
<text text-anchor="middle" x="362" y="-83.5" font-family="Helvetica,sans-Serif" font-size="10.00">rle_putcom</text>
</a>
</g>
</g>
<!-- Node14&#45;&gt;Node17 -->
<g id="edge23" class="edge"><title>Node14&#45;&gt;Node17</title>
<path fill="none" stroke="midnightblue" d="M267.7,-86C282.891,-86 301.024,-86 317.248,-86"/>
<polygon fill="midnightblue" stroke="midnightblue" points="317.583,-89.5001 327.583,-86 317.583,-82.5001 317.583,-89.5001"/>
</g>
<!-- Node16 -->
<g id="node16" class="node"><title>Node16</title>
<g id="a_node16"><a xlink:href="../../db/db2/rle__getcom_8c.html#a7502c8b599724ce86fee5df1311a2337" target="_top" xlink:title="match">
<polygon fill="white" stroke="black" points="459.5,-38.5 459.5,-57.5 504.5,-57.5 504.5,-38.5 459.5,-38.5"/>
<text text-anchor="middle" x="482" y="-45.5" font-family="Helvetica,sans-Serif" font-size="10.00">match</text>
</a>
</g>
</g>
<!-- Node15&#45;&gt;Node16 -->
<g id="edge21" class="edge"><title>Node15&#45;&gt;Node16</title>
<path fill="none" stroke="midnightblue" d="M396.814,-48C413.35,-48 433.136,-48 449.37,-48"/>
<polygon fill="midnightblue" stroke="midnightblue" points="449.456,-51.5001 459.456,-48 449.456,-44.5001 449.456,-51.5001"/>
</g>
<!-- Node17&#45;&gt;Node8 -->
<g id="edge24" class="edge"><title>Node17&#45;&gt;Node8</title>
<path fill="none" stroke="midnightblue" d="M388.795,-95.5476C397.025,-99.3091 405.845,-104.147 413,-110 438.011,-130.459 459.03,-161.933 470.812,-181.724"/>
<polygon fill="midnightblue" stroke="midnightblue" points="467.795,-183.498 475.832,-190.401 473.854,-179.993 467.795,-183.498"/>
</g>
<!-- Node18 -->
<g id="node18" class="node"><title>Node18</title>
<g id="a_node18"><a xlink:href="../../df/da5/rle__putcom_8c.html#a7502c8b599724ce86fee5df1311a2337" target="_top" xlink:title="match">
<polygon fill="white" stroke="black" points="459.5,-76.5 459.5,-95.5 504.5,-95.5 504.5,-76.5 459.5,-76.5"/>
<text text-anchor="middle" x="482" y="-83.5" font-family="Helvetica,sans-Serif" font-size="10.00">match</text>
</a>
</g>
</g>
<!-- Node17&#45;&gt;Node18 -->
<g id="edge25" class="edge"><title>Node17&#45;&gt;Node18</title>
<path fill="none" stroke="midnightblue" d="M396.184,-86C412.735,-86 432.664,-86 449.044,-86"/>
<polygon fill="midnightblue" stroke="midnightblue" points="449.224,-89.5001 459.224,-86 449.224,-82.5001 449.224,-89.5001"/>
</g>
<!-- Node21 -->
<g id="node21" class="node"><title>Node21</title>
<g id="a_node21"><a xlink:href="../../d9/d2a/rle__putrow_8c.html#a46d9789104d5d1f09253a808fdad5346" target="_top" xlink:title="rle_put_init">
<polygon fill="white" stroke="black" points="199,-0.5 199,-19.5 267,-19.5 267,-0.5 199,-0.5"/>
<text text-anchor="middle" x="233" y="-7.5" font-family="Helvetica,sans-Serif" font-size="10.00">rle_put_init</text>
</a>
</g>
</g>
<!-- Node20&#45;&gt;Node21 -->
<g id="edge29" class="edge"><title>Node20&#45;&gt;Node21</title>
<path fill="none" stroke="midnightblue" d="M155.272,-10C166.031,-10 177.753,-10 188.722,-10"/>
<polygon fill="midnightblue" stroke="midnightblue" points="188.953,-13.5001 198.953,-10 188.953,-6.5001 188.953,-13.5001"/>
</g>
<!-- Node22&#45;&gt;Node8 -->
<g id="edge31" class="edge"><title>Node22&#45;&gt;Node8</title>
<path fill="none" stroke="midnightblue" d="M148.227,-163.31C202.902,-165.822 317.235,-172.325 413,-186 424.693,-187.67 437.399,-190.113 448.629,-192.492"/>
<polygon fill="midnightblue" stroke="midnightblue" points="447.939,-195.924 458.455,-194.636 449.431,-189.085 447.939,-195.924"/>
</g>
<!-- Node23 -->
<g id="node23" class="node"><title>Node23</title>
<g id="a_node23"><a xlink:href="../../d9/d2a/rle__putrow_8c.html#aaa4133bf4a6cbf287444448497631f26" target="_top" xlink:title="findruns">
<polygon fill="white" stroke="black" points="206,-114.5 206,-133.5 260,-133.5 260,-114.5 206,-114.5"/>
<text text-anchor="middle" x="233" y="-121.5" font-family="Helvetica,sans-Serif" font-size="10.00">findruns</text>
</a>
</g>
</g>
<!-- Node22&#45;&gt;Node23 -->
<g id="edge32" class="edge"><title>Node22&#45;&gt;Node23</title>
<path fill="none" stroke="midnightblue" d="M145.272,-152.411C160.723,-147.349 179.814,-141.095 196.148,-135.745"/>
<polygon fill="midnightblue" stroke="midnightblue" points="197.491,-138.988 205.904,-132.549 195.311,-132.336 197.491,-138.988"/>
</g>
<!-- Node24&#45;&gt;Node6 -->
<g id="edge34" class="edge"><title>Node24&#45;&gt;Node6</title>
<path fill="none" stroke="midnightblue" d="M385.421,-418.433C394.232,-414.368 404.3,-409.336 413,-404 430.459,-393.291 448.827,-379.043 462.066,-368.169"/>
<polygon fill="midnightblue" stroke="midnightblue" points="464.526,-370.675 469.963,-361.582 460.042,-365.299 464.526,-370.675"/>
</g>
</g>
</svg>
