<?xml version="1.0" encoding="UTF-8" standalone="no"?>
<!DOCTYPE svg PUBLIC "-//W3C//DTD SVG 1.1//EN"
 "http://www.w3.org/Graphics/SVG/1.1/DTD/svg11.dtd">
<!-- Generated by graphviz version 2.38.0 (20140413.2041)
 -->
<!-- Title: main Pages: 1 -->
<!--zoomable 445 -->
<svg id="main" version="1.1" xmlns="http://www.w3.org/2000/svg" xmlns:xlink="http://www.w3.org/1999/xlink" xml:space="preserve" onload="init(evt)">
<style type="text/css"><![CDATA[
.edge:hover path { stroke: red; }
.edge:hover polygon { stroke: red; fill: red; }
]]></style>
<script type="text/javascript"><![CDATA[
var edges = document.getElementsByTagName('g');
if (edges && edges.length) {
  for (var i=0;i<edges.length;i++) {
    if (edges[i].id.substr(0,4)=='edge') {
      edges[i].setAttribute('class','edge');
    }
  }
}
]]></script>
        <defs>
                <circle id="rim" cx="0" cy="0" r="7"/>
                <circle id="rim2" cx="0" cy="0" r="3.5"/>
                <g id="zoomPlus">
                        <use xlink:href="#rim" fill="#404040">
                                <set attributeName="fill" to="#808080" begin="zoomplus.mouseover" end="zoomplus.mouseout"/>
                        </use>
                        <path d="M-4,0h8M0,-4v8" fill="none" stroke="white" stroke-width="1.5" pointer-events="none"/>
                </g>
                <g id="zoomMin">
                        <use xlink:href="#rim" fill="#404040">
                                <set attributeName="fill" to="#808080" begin="zoomminus.mouseover" end="zoomminus.mouseout"/>
                        </use>
                        <path d="M-4,0h8" fill="none" stroke="white" stroke-width="1.5" pointer-events="none"/>
                </g>
                <g id="dirArrow">
                        <path fill="none" stroke="white" stroke-width="1.5" d="M0,-3.0v7 M-2.5,-0.5L0,-3.0L2.5,-0.5"/>
                </g>
               <g id="resetDef">
                       <use xlink:href="#rim2" fill="#404040">
                               <set attributeName="fill" to="#808080" begin="reset.mouseover" end="reset.mouseout"/>
                       </use>
               </g>
        </defs>

<script type="text/javascript">
var viewWidth = 523;
var viewHeight = 445;
var sectionId = 'dynsection-1';
</script>
<script xlink:href="../../svgpan.js"/>
<svg id="graph" class="graph">
<g id="viewport">
<title>main</title>
<polygon fill="white" stroke="none" points="-4,4 -4,-441.364 519,-441.364 519,4 -4,4"/>
<!-- Node1 -->
<g id="node1" class="node"><title>Node1</title>
<polygon fill="#bfbfbf" stroke="black" points="0,-171.5 0,-190.5 39,-190.5 39,-171.5 0,-171.5"/>
<text text-anchor="middle" x="19.5" y="-178.5" font-family="Helvetica,sans-Serif" font-size="10.00">main</text>
</g>
<!-- Node2 -->
<g id="node2" class="node"><title>Node2</title>
<g id="a_node2"><a xlink:href="../../d2/df3/rle__hdr_8c.html#a8ba0e5b11d1e39ab7227f1686e676c86" target="_top" xlink:title="rle_hdr_init">
<polygon fill="white" stroke="black" points="80,-266.5 80,-285.5 150,-285.5 150,-266.5 80,-266.5"/>
<text text-anchor="middle" x="115" y="-273.5" font-family="Helvetica,sans-Serif" font-size="10.00">rle_hdr_init</text>
</a>
</g>
</g>
<!-- Node1&#45;&gt;Node2 -->
<g id="edge1" class="edge"><title>Node1&#45;&gt;Node2</title>
<path fill="none" stroke="midnightblue" d="M26.2645,-190.62C35.3128,-205.164 53.999,-233.058 75,-252 78.4813,-255.14 82.4281,-258.107 86.4412,-260.814"/>
<polygon fill="midnightblue" stroke="midnightblue" points="84.8458,-263.944 95.1776,-266.29 88.5639,-258.013 84.8458,-263.944"/>
</g>
<!-- Node5 -->
<g id="node5" class="node"><title>Node5</title>
<g id="a_node5"><a xlink:href="../../d2/df3/rle__hdr_8c.html#afc916e29aea8788e0878ca315ff69821" target="_top" xlink:title="rle_hdr_cp">
<polygon fill="white" stroke="black" points="199,-247.5 199,-266.5 267,-266.5 267,-247.5 199,-247.5"/>
<text text-anchor="middle" x="233" y="-254.5" font-family="Helvetica,sans-Serif" font-size="10.00">rle_hdr_cp</text>
</a>
</g>
</g>
<!-- Node1&#45;&gt;Node5 -->
<g id="edge25" class="edge"><title>Node1&#45;&gt;Node5</title>
<path fill="none" stroke="midnightblue" d="M31.8477,-190.816C42.3711,-199.436 58.8035,-211.705 75,-219 111.686,-235.523 156.564,-245.461 188.929,-251.006"/>
<polygon fill="midnightblue" stroke="midnightblue" points="188.536,-254.488 198.971,-252.654 189.67,-247.58 188.536,-254.488"/>
</g>
<!-- Node7 -->
<g id="node7" class="node"><title>Node7</title>
<g id="a_node7"><a xlink:href="../../d2/df3/rle__hdr_8c.html#a82e79385f2d45cc3b80ce0f4f369eae5" target="_top" xlink:title="rle_names">
<polygon fill="white" stroke="black" points="329,-285.5 329,-304.5 395,-304.5 395,-285.5 329,-285.5"/>
<text text-anchor="middle" x="362" y="-292.5" font-family="Helvetica,sans-Serif" font-size="10.00">rle_names</text>
</a>
</g>
</g>
<!-- Node1&#45;&gt;Node7 -->
<g id="edge18" class="edge"><title>Node1&#45;&gt;Node7</title>
<path fill="none" stroke="midnightblue" d="M21.6965,-190.582C25.1315,-213.484 37.3272,-271.254 75,-295 151.081,-342.956 262.671,-323.052 321.439,-307.307"/>
<polygon fill="midnightblue" stroke="midnightblue" points="322.735,-310.58 331.434,-304.532 320.862,-303.835 322.735,-310.58"/>
</g>
<!-- Node8 -->
<g id="node8" class="node"><title>Node8</title>
<g id="a_node8"><a xlink:href="../../d4/db0/scanargs_8c.html#a7ea6d702c0484056c8504d6ce7fede08" target="_top" xlink:title="scanargs">
<polygon fill="white" stroke="black" points="85,-114.5 85,-133.5 145,-133.5 145,-114.5 85,-114.5"/>
<text text-anchor="middle" x="115" y="-121.5" font-family="Helvetica,sans-Serif" font-size="10.00">scanargs</text>
</a>
</g>
</g>
<!-- Node1&#45;&gt;Node8 -->
<g id="edge10" class="edge"><title>Node1&#45;&gt;Node8</title>
<path fill="none" stroke="midnightblue" d="M36.361,-171.331C50.9559,-162.433 72.8209,-149.104 89.632,-138.855"/>
<polygon fill="midnightblue" stroke="midnightblue" points="91.6566,-141.72 98.3732,-133.526 88.0129,-135.743 91.6566,-141.72"/>
</g>
<!-- Node10 -->
<g id="node10" class="node"><title>Node10</title>
<g id="a_node10"><a xlink:href="../../de/d4e/rle__open__f_8c.html#a89733a45961817885603ae01210290b7" target="_top" xlink:title="rle_open_f">
<polygon fill="white" stroke="black" points="81,-190.5 81,-209.5 149,-209.5 149,-190.5 81,-190.5"/>
<text text-anchor="middle" x="115" y="-197.5" font-family="Helvetica,sans-Serif" font-size="10.00">rle_open_f</text>
</a>
</g>
</g>
<!-- Node1&#45;&gt;Node10 -->
<g id="edge12" class="edge"><title>Node1&#45;&gt;Node10</title>
<path fill="none" stroke="midnightblue" d="M39.4211,-184.845C48.4909,-186.688 59.7578,-188.978 70.7635,-191.214"/>
<polygon fill="midnightblue" stroke="midnightblue" points="70.2301,-194.677 80.7268,-193.239 71.6241,-187.817 70.2301,-194.677"/>
</g>
<!-- Node13 -->
<g id="node13" class="node"><title>Node13</title>
<g id="a_node13"><a xlink:href="../../d8/d30/cmd__name_8c.html#a271249070fdd12c176777c77d76f888f" target="_top" xlink:title="cmd_name">
<polygon fill="white" stroke="black" points="81,-76.5 81,-95.5 149,-95.5 149,-76.5 81,-76.5"/>
<text text-anchor="middle" x="115" y="-83.5" font-family="Helvetica,sans-Serif" font-size="10.00">cmd_name</text>
</a>
</g>
</g>
<!-- Node1&#45;&gt;Node13 -->
<g id="edge17" class="edge"><title>Node1&#45;&gt;Node13</title>
<path fill="none" stroke="midnightblue" d="M25.3196,-171.43C33.6089,-155.772 51.9217,-124.478 75,-105 76.7303,-103.54 78.592,-102.16 80.5304,-100.863"/>
<polygon fill="midnightblue" stroke="midnightblue" points="82.4854,-103.774 89.3503,-95.7043 78.9513,-97.7318 82.4854,-103.774"/>
</g>
<!-- Node14 -->
<g id="node14" class="node"><title>Node14</title>
<g id="a_node14"><a xlink:href="../../db/d53/rle__getrow_8c.html#a619b27463c26e0a4a3d9648a9869ee52" target="_top" xlink:title="rle_get_setup">
<polygon fill="white" stroke="black" points="192.5,-361.5 192.5,-380.5 273.5,-380.5 273.5,-361.5 192.5,-361.5"/>
<text text-anchor="middle" x="233" y="-368.5" font-family="Helvetica,sans-Serif" font-size="10.00">rle_get_setup</text>
</a>
</g>
</g>
<!-- Node1&#45;&gt;Node14 -->
<g id="edge19" class="edge"><title>Node1&#45;&gt;Node14</title>
<path fill="none" stroke="midnightblue" d="M20.4323,-190.751C20.8047,-219.689 26.1569,-305.64 75,-347 104.272,-371.788 148.09,-376.723 182.003,-376.062"/>
<polygon fill="midnightblue" stroke="midnightblue" points="182.316,-379.553 192.182,-375.693 182.062,-372.558 182.316,-379.553"/>
</g>
<!-- Node16 -->
<g id="node16" class="node"><title>Node16</title>
<g id="a_node16"><a xlink:href="../../d9/d2a/rle__putrow_8c.html#af88a82b331cd6f425d2a2cc1623944c6" target="_top" xlink:title="rle_put_setup">
<polygon fill="white" stroke="black" points="75,-38.5 75,-57.5 155,-57.5 155,-38.5 75,-38.5"/>
<text text-anchor="middle" x="115" y="-45.5" font-family="Helvetica,sans-Serif" font-size="10.00">rle_put_setup</text>
</a>
</g>
</g>
<!-- Node1&#45;&gt;Node16 -->
<g id="edge26" class="edge"><title>Node1&#45;&gt;Node16</title>
<path fill="none" stroke="midnightblue" d="M22.7457,-171.491C28.2132,-150.203 44.0911,-98.1381 75,-67 76.3928,-65.5969 77.91,-64.2817 79.5115,-63.0512"/>
<polygon fill="midnightblue" stroke="midnightblue" points="81.5038,-65.9316 88.0352,-57.5895 77.7271,-60.0378 81.5038,-65.9316"/>
</g>
<!-- Node18 -->
<g id="node18" class="node"><title>Node18</title>
<g id="a_node18"><a xlink:href="../../d9/dd6/rle__cp_8c.html#a3f1959b9230fb3cb5b4646895b444107" target="_top" xlink:title="rle_cp">
<polygon fill="white" stroke="black" points="210,-152.5 210,-171.5 256,-171.5 256,-152.5 210,-152.5"/>
<text text-anchor="middle" x="233" y="-159.5" font-family="Helvetica,sans-Serif" font-size="10.00">rle_cp</text>
</a>
</g>
</g>
<!-- Node1&#45;&gt;Node18 -->
<g id="edge28" class="edge"><title>Node1&#45;&gt;Node18</title>
<path fill="none" stroke="midnightblue" d="M39.2692,-179.314C75.3966,-176.068 154.98,-168.919 199.76,-164.896"/>
<polygon fill="midnightblue" stroke="midnightblue" points="200.172,-168.373 209.818,-163.993 199.545,-161.402 200.172,-168.373"/>
</g>
<!-- Node21 -->
<g id="node21" class="node"><title>Node21</title>
<g id="a_node21"><a xlink:href="../../d7/d24/rle__error_8c.html#af931d686cf3ca715c9b900527f0961c0" target="_top" xlink:title="rle_get_error">
<polygon fill="white" stroke="black" points="75.5,-0.5 75.5,-19.5 154.5,-19.5 154.5,-0.5 75.5,-0.5"/>
<text text-anchor="middle" x="115" y="-7.5" font-family="Helvetica,sans-Serif" font-size="10.00">rle_get_error</text>
</a>
</g>
</g>
<!-- Node1&#45;&gt;Node21 -->
<g id="edge33" class="edge"><title>Node1&#45;&gt;Node21</title>
<path fill="none" stroke="midnightblue" d="M21.4683,-171.175C24.538,-144.922 36.264,-72.2091 75,-29 76.1752,-27.6891 77.4609,-26.4592 78.8272,-25.3065"/>
<polygon fill="midnightblue" stroke="midnightblue" points="81.0285,-28.0419 87.3244,-19.5206 77.0887,-22.2559 81.0285,-28.0419"/>
</g>
<!-- Node3 -->
<g id="node3" class="node"><title>Node3</title>
<g id="a_node3"><a xlink:href="../../d2/df3/rle__hdr_8c.html#a16c4da6201b3b8cf55127b9ca968d253" target="_top" xlink:title="rle_hdr_clear">
<polygon fill="white" stroke="black" points="322,-323.5 322,-342.5 402,-342.5 402,-323.5 322,-323.5"/>
<text text-anchor="middle" x="362" y="-330.5" font-family="Helvetica,sans-Serif" font-size="10.00">rle_hdr_clear</text>
</a>
</g>
</g>
<!-- Node2&#45;&gt;Node3 -->
<g id="edge2" class="edge"><title>Node2&#45;&gt;Node3</title>
<path fill="none" stroke="midnightblue" d="M150.066,-283.926C192.17,-293.721 264.118,-310.46 312.11,-321.625"/>
<polygon fill="midnightblue" stroke="midnightblue" points="311.434,-325.062 321.967,-323.919 313.021,-318.244 311.434,-325.062"/>
</g>
<!-- Node2&#45;&gt;Node5 -->
<g id="edge4" class="edge"><title>Node2&#45;&gt;Node5</title>
<path fill="none" stroke="midnightblue" d="M140.035,-266.47C154.104,-263.075 172.289,-259.777 188.77,-257.529"/>
<polygon fill="midnightblue" stroke="midnightblue" points="189.273,-260.994 198.759,-256.274 188.401,-254.048 189.273,-260.994"/>
</g>
<!-- Node4 -->
<g id="node4" class="node"><title>Node4</title>
<g id="a_node4"><a xlink:href="../../d0/dcc/rletorla_8c.html#aafde19f7d36ca163a143579c1b125b6d" target="_top" xlink:title="free">
<polygon fill="white" stroke="black" points="464.5,-285.5 464.5,-304.5 499.5,-304.5 499.5,-285.5 464.5,-285.5"/>
<text text-anchor="middle" x="482" y="-292.5" font-family="Helvetica,sans-Serif" font-size="10.00">free</text>
</a>
</g>
</g>
<!-- Node3&#45;&gt;Node4 -->
<g id="edge3" class="edge"><title>Node3&#45;&gt;Node4</title>
<path fill="none" stroke="midnightblue" d="M392.776,-323.411C411.813,-317.28 436.281,-309.401 454.618,-303.496"/>
<polygon fill="midnightblue" stroke="midnightblue" points="455.914,-306.756 464.359,-300.359 453.768,-300.093 455.914,-306.756"/>
</g>
<!-- Node5&#45;&gt;Node2 -->
<g id="edge5" class="edge"><title>Node5&#45;&gt;Node2</title>
<path fill="none" stroke="midnightblue" d="M207.991,-266.523C194.284,-269.833 176.663,-273.05 160.517,-275.294"/>
<polygon fill="midnightblue" stroke="midnightblue" points="159.651,-271.876 150.176,-276.618 160.54,-278.819 159.651,-271.876"/>
</g>
<!-- Node6 -->
<g id="node6" class="node"><title>Node6</title>
<g id="a_node6"><a xlink:href="../../d0/dcc/rletorla_8c.html#ab7e36af3707843f77cc5b4e831c2fa6d" target="_top" xlink:title="malloc">
<polygon fill="white" stroke="black" points="458.5,-247.5 458.5,-266.5 505.5,-266.5 505.5,-247.5 458.5,-247.5"/>
<text text-anchor="middle" x="482" y="-254.5" font-family="Helvetica,sans-Serif" font-size="10.00">malloc</text>
</a>
</g>
</g>
<!-- Node5&#45;&gt;Node6 -->
<g id="edge6" class="edge"><title>Node5&#45;&gt;Node6</title>
<path fill="none" stroke="midnightblue" d="M267.055,-257C314.374,-257 400.906,-257 448.125,-257"/>
<polygon fill="midnightblue" stroke="midnightblue" points="448.407,-260.5 458.407,-257 448.407,-253.5 448.407,-260.5"/>
</g>
<!-- Node5&#45;&gt;Node7 -->
<g id="edge7" class="edge"><title>Node5&#45;&gt;Node7</title>
<path fill="none" stroke="midnightblue" d="M266.047,-266.589C282.141,-271.404 301.841,-277.299 319.117,-282.468"/>
<polygon fill="midnightblue" stroke="midnightblue" points="318.379,-285.901 328.963,-285.414 320.386,-279.194 318.379,-285.901"/>
</g>
<!-- Node7&#45;&gt;Node4 -->
<g id="edge8" class="edge"><title>Node7&#45;&gt;Node4</title>
<path fill="none" stroke="midnightblue" d="M395.244,-295C413.779,-295 436.784,-295 454.299,-295"/>
<polygon fill="midnightblue" stroke="midnightblue" points="454.406,-298.5 464.406,-295 454.406,-291.5 454.406,-298.5"/>
</g>
<!-- Node7&#45;&gt;Node6 -->
<g id="edge9" class="edge"><title>Node7&#45;&gt;Node6</title>
<path fill="none" stroke="midnightblue" d="M392.776,-285.411C409.784,-279.934 431.127,-273.061 448.559,-267.447"/>
<polygon fill="midnightblue" stroke="midnightblue" points="449.864,-270.704 458.31,-264.307 447.718,-264.041 449.864,-270.704"/>
</g>
<!-- Node9 -->
<g id="node9" class="node"><title>Node9</title>
<g id="a_node9"><a xlink:href="../../d4/db0/scanargs_8c.html#a862219039664df6eb3cfced58addf830" target="_top" xlink:title="_do_scanargs">
<polygon fill="white" stroke="black" points="191,-114.5 191,-133.5 275,-133.5 275,-114.5 191,-114.5"/>
<text text-anchor="middle" x="233" y="-121.5" font-family="Helvetica,sans-Serif" font-size="10.00">_do_scanargs</text>
</a>
</g>
</g>
<!-- Node8&#45;&gt;Node9 -->
<g id="edge11" class="edge"><title>Node8&#45;&gt;Node9</title>
<path fill="none" stroke="midnightblue" d="M145.272,-124C156.073,-124 168.654,-124 180.827,-124"/>
<polygon fill="midnightblue" stroke="midnightblue" points="180.909,-127.5 190.909,-124 180.909,-120.5 180.909,-127.5"/>
</g>
<!-- Node11 -->
<g id="node11" class="node"><title>Node11</title>
<g id="a_node11"><a xlink:href="../../de/d4e/rle__open__f_8c.html#a5a0e62a00f907fce26e93b2f72adb2b0" target="_top" xlink:title="rle_open_f_noexit">
<polygon fill="white" stroke="black" points="311,-171.5 311,-190.5 413,-190.5 413,-171.5 311,-171.5"/>
<text text-anchor="middle" x="362" y="-178.5" font-family="Helvetica,sans-Serif" font-size="10.00">rle_open_f_noexit</text>
</a>
</g>
</g>
<!-- Node10&#45;&gt;Node11 -->
<g id="edge13" class="edge"><title>Node10&#45;&gt;Node11</title>
<path fill="none" stroke="midnightblue" d="M149.042,-197.438C187.738,-194.437 252.62,-189.405 300.427,-185.697"/>
<polygon fill="midnightblue" stroke="midnightblue" points="300.959,-189.167 310.658,-184.904 300.417,-182.188 300.959,-189.167"/>
</g>
<!-- Node11&#45;&gt;Node4 -->
<g id="edge16" class="edge"><title>Node11&#45;&gt;Node4</title>
<path fill="none" stroke="midnightblue" d="M398.594,-190.587C403.822,-193.066 408.839,-196.156 413,-200 440.454,-225.361 423.835,-248.366 449,-276 450.998,-278.194 453.31,-280.213 455.758,-282.048"/>
<polygon fill="midnightblue" stroke="midnightblue" points="454.045,-285.108 464.35,-287.571 457.83,-279.22 454.045,-285.108"/>
</g>
<!-- Node11&#45;&gt;Node6 -->
<g id="edge15" class="edge"><title>Node11&#45;&gt;Node6</title>
<path fill="none" stroke="midnightblue" d="M393.104,-190.572C399.851,-193.223 406.832,-196.383 413,-200 432.147,-211.229 451.284,-227.876 464.355,-240.284"/>
<polygon fill="midnightblue" stroke="midnightblue" points="462.044,-242.918 471.656,-247.375 466.921,-237.897 462.044,-242.918"/>
</g>
<!-- Node12 -->
<g id="node12" class="node"><title>Node12</title>
<g id="a_node12"><a xlink:href="../../de/d4e/rle__open__f_8c.html#a84fda810ae9b9bde82a6391d0b264ead" target="_top" xlink:title="my_popen">
<polygon fill="white" stroke="black" points="449,-171.5 449,-190.5 515,-190.5 515,-171.5 449,-171.5"/>
<text text-anchor="middle" x="482" y="-178.5" font-family="Helvetica,sans-Serif" font-size="10.00">my_popen</text>
</a>
</g>
</g>
<!-- Node11&#45;&gt;Node12 -->
<g id="edge14" class="edge"><title>Node11&#45;&gt;Node12</title>
<path fill="none" stroke="midnightblue" d="M413.043,-181C421.523,-181 430.255,-181 438.518,-181"/>
<polygon fill="midnightblue" stroke="midnightblue" points="438.678,-184.5 448.678,-181 438.678,-177.5 438.678,-184.5"/>
</g>
<!-- Node14&#45;&gt;Node3 -->
<g id="edge20" class="edge"><title>Node14&#45;&gt;Node3</title>
<path fill="none" stroke="midnightblue" d="M266.047,-361.411C282.141,-356.596 301.841,-350.701 319.117,-345.532"/>
<polygon fill="midnightblue" stroke="midnightblue" points="320.386,-348.806 328.963,-342.586 318.379,-342.099 320.386,-348.806"/>
</g>
<!-- Node14&#45;&gt;Node4 -->
<g id="edge23" class="edge"><title>Node14&#45;&gt;Node4</title>
<path fill="none" stroke="midnightblue" d="M243.906,-380.627C257.638,-393.229 283.852,-414.692 311,-423 354.349,-436.266 374.146,-446.355 413,-423 452.395,-399.319 470.192,-344.264 477.155,-314.664"/>
<polygon fill="midnightblue" stroke="midnightblue" points="480.62,-315.199 479.316,-304.685 473.779,-313.718 480.62,-315.199"/>
</g>
<!-- Node14&#45;&gt;Node6 -->
<g id="edge22" class="edge"><title>Node14&#45;&gt;Node6</title>
<path fill="none" stroke="midnightblue" d="M252.894,-380.619C288.114,-397.047 364.604,-425.469 413,-390 455.856,-358.592 415.987,-317.633 449,-276 449.813,-274.975 450.697,-273.993 451.637,-273.054"/>
<polygon fill="midnightblue" stroke="midnightblue" points="453.998,-275.649 459.649,-266.687 449.643,-270.168 453.998,-275.649"/>
</g>
<!-- Node14&#45;&gt;Node7 -->
<g id="edge21" class="edge"><title>Node14&#45;&gt;Node7</title>
<path fill="none" stroke="midnightblue" d="M252.488,-361.284C259.727,-357.198 267.965,-352.191 275,-347 292.464,-334.112 292.525,-325.392 311,-314 314.149,-312.058 317.53,-310.26 320.993,-308.609"/>
<polygon fill="midnightblue" stroke="midnightblue" points="322.477,-311.78 330.25,-304.581 319.684,-305.361 322.477,-311.78"/>
</g>
<!-- Node15 -->
<g id="node15" class="node"><title>Node15</title>
<g id="a_node15"><a xlink:href="../../db/d53/rle__getrow_8c.html#a0ea68aa2ebeef9d4cade7282553b03d6" target="_top" xlink:title="vax_gshort">
<polygon fill="white" stroke="black" points="327.5,-361.5 327.5,-380.5 396.5,-380.5 396.5,-361.5 327.5,-361.5"/>
<text text-anchor="middle" x="362" y="-368.5" font-family="Helvetica,sans-Serif" font-size="10.00">vax_gshort</text>
</a>
</g>
</g>
<!-- Node14&#45;&gt;Node15 -->
<g id="edge24" class="edge"><title>Node14&#45;&gt;Node15</title>
<path fill="none" stroke="midnightblue" d="M273.835,-371C287.516,-371 302.906,-371 316.905,-371"/>
<polygon fill="midnightblue" stroke="midnightblue" points="317.287,-374.5 327.287,-371 317.287,-367.5 317.287,-374.5"/>
</g>
<!-- Node17 -->
<g id="node17" class="node"><title>Node17</title>
<g id="a_node17"><a xlink:href="../../d9/d2a/rle__putrow_8c.html#a46d9789104d5d1f09253a808fdad5346" target="_top" xlink:title="rle_put_init">
<polygon fill="white" stroke="black" points="199,-38.5 199,-57.5 267,-57.5 267,-38.5 199,-38.5"/>
<text text-anchor="middle" x="233" y="-45.5" font-family="Helvetica,sans-Serif" font-size="10.00">rle_put_init</text>
</a>
</g>
</g>
<!-- Node16&#45;&gt;Node17 -->
<g id="edge27" class="edge"><title>Node16&#45;&gt;Node17</title>
<path fill="none" stroke="midnightblue" d="M155.272,-48C166.031,-48 177.753,-48 188.722,-48"/>
<polygon fill="midnightblue" stroke="midnightblue" points="188.953,-51.5001 198.953,-48 188.953,-44.5001 188.953,-51.5001"/>
</g>
<!-- Node18&#45;&gt;Node6 -->
<g id="edge32" class="edge"><title>Node18&#45;&gt;Node6</title>
<path fill="none" stroke="midnightblue" d="M255.379,-152.346C261.727,-149.412 268.673,-146.133 275,-143 291.213,-134.972 293.439,-128.35 311,-124 355.004,-113.1 374.693,-99.758 413,-124 444.583,-143.987 431.841,-166.796 449,-200 455.77,-213.1 463.911,-227.587 470.288,-238.677"/>
<polygon fill="midnightblue" stroke="midnightblue" points="467.317,-240.531 475.359,-247.429 473.374,-237.022 467.317,-240.531"/>
</g>
<!-- Node19 -->
<g id="node19" class="node"><title>Node19</title>
<g id="a_node19"><a xlink:href="../../d9/d2a/rle__putrow_8c.html#a018d4b7d6fe20504c07c24b9bd8fc304" target="_top" xlink:title="rle_skiprow">
<polygon fill="white" stroke="black" points="326.5,-133.5 326.5,-152.5 397.5,-152.5 397.5,-133.5 326.5,-133.5"/>
<text text-anchor="middle" x="362" y="-140.5" font-family="Helvetica,sans-Serif" font-size="10.00">rle_skiprow</text>
</a>
</g>
</g>
<!-- Node18&#45;&gt;Node19 -->
<g id="edge29" class="edge"><title>Node18&#45;&gt;Node19</title>
<path fill="none" stroke="midnightblue" d="M256.122,-158.69C272.658,-156.216 295.826,-152.75 316.182,-149.705"/>
<polygon fill="midnightblue" stroke="midnightblue" points="316.841,-153.146 326.213,-148.204 315.805,-146.223 316.841,-153.146"/>
</g>
<!-- Node20 -->
<g id="node20" class="node"><title>Node20</title>
<g id="a_node20"><a xlink:href="../../d9/d2a/rle__putrow_8c.html#af4fab734a5d227ad2ae95840f56fff3b" target="_top" xlink:title="rle_puteof">
<polygon fill="white" stroke="black" points="330,-209.5 330,-228.5 394,-228.5 394,-209.5 330,-209.5"/>
<text text-anchor="middle" x="362" y="-216.5" font-family="Helvetica,sans-Serif" font-size="10.00">rle_puteof</text>
</a>
</g>
</g>
<!-- Node18&#45;&gt;Node20 -->
<g id="edge30" class="edge"><title>Node18&#45;&gt;Node20</title>
<path fill="none" stroke="midnightblue" d="M252.128,-171.557C267.587,-179.559 290.499,-191.07 311,-200 315.448,-201.938 320.164,-203.876 324.852,-205.734"/>
<polygon fill="midnightblue" stroke="midnightblue" points="323.753,-209.061 334.342,-209.408 326.281,-202.533 323.753,-209.061"/>
</g>
<!-- Node20&#45;&gt;Node4 -->
<g id="edge31" class="edge"><title>Node20&#45;&gt;Node4</title>
<path fill="none" stroke="midnightblue" d="M377.163,-228.699C394.094,-240.22 423.361,-259.906 449,-276 451.203,-277.383 453.504,-278.8 455.818,-280.207"/>
<polygon fill="midnightblue" stroke="midnightblue" points="454.25,-283.348 464.626,-285.489 457.85,-277.345 454.25,-283.348"/>
</g>
</g>
</svg>
        <g id="navigator" transform="translate(0 0)" fill="#404254">
                <rect fill="#f2f5e9" fill-opacity="0.5" stroke="#606060" stroke-width=".5" x="0" y="0" width="60" height="60"/>
                <use id="zoomplus" xlink:href="#zoomPlus" x="17" y="9" onmousedown="handleZoom(evt,'in')"/>
                <use id="zoomminus" xlink:href="#zoomMin" x="42" y="9" onmousedown="handleZoom(evt,'out')"/>
                <use id="reset" xlink:href="#resetDef" x="30" y="36" onmousedown="handleReset()"/>
                <g id="arrowUp" xlink:href="#dirArrow" transform="translate(30 24)" onmousedown="handlePan(0,-1)">
                  <use xlink:href="#rim" fill="#404040">
                        <set attributeName="fill" to="#808080" begin="arrowUp.mouseover" end="arrowUp.mouseout"/>
                  </use>
                  <path fill="none" stroke="white" stroke-width="1.5" d="M0,-3.0v7 M-2.5,-0.5L0,-3.0L2.5,-0.5"/>
                </g>
                <g id="arrowRight" xlink:href="#dirArrow" transform="rotate(90) translate(36 -43)" onmousedown="handlePan(1,0)">
                  <use xlink:href="#rim" fill="#404040">
                        <set attributeName="fill" to="#808080" begin="arrowRight.mouseover" end="arrowRight.mouseout"/>
                  </use>
                  <path fill="none" stroke="white" stroke-width="1.5" d="M0,-3.0v7 M-2.5,-0.5L0,-3.0L2.5,-0.5"/>
                </g>
                <g id="arrowDown" xlink:href="#dirArrow" transform="rotate(180) translate(-30 -48)" onmousedown="handlePan(0,1)">
                  <use xlink:href="#rim" fill="#404040">
                        <set attributeName="fill" to="#808080" begin="arrowDown.mouseover" end="arrowDown.mouseout"/>
                  </use>
                  <path fill="none" stroke="white" stroke-width="1.5" d="M0,-3.0v7 M-2.5,-0.5L0,-3.0L2.5,-0.5"/>
                </g>
                <g id="arrowLeft" xlink:href="#dirArrow" transform="rotate(270) translate(-36 17)" onmousedown="handlePan(-1,0)">
                  <use xlink:href="#rim" fill="#404040">
                        <set attributeName="fill" to="#808080" begin="arrowLeft.mouseover" end="arrowLeft.mouseout"/>
                  </use>
                  <path fill="none" stroke="white" stroke-width="1.5" d="M0,-3.0v7 M-2.5,-0.5L0,-3.0L2.5,-0.5"/>
                </g>
        </g>
        <svg viewBox="0 0 15 15" width="100%" height="30px" preserveAspectRatio="xMaxYMin meet">
         <g id="arrow_out" transform="scale(0.3 0.3)">
          <a xlink:href="rleaddeof_8c_a70db8bd1d499619f7ff9c1ca2ff3c8df_cgraph_org.svg" target="_base">
           <rect id="button" ry="5" rx="5" y="6" x="6" height="38" width="38"
                fill="#f2f5e9" fill-opacity="0.5" stroke="#606060" stroke-width="1.0"/>
           <path id="arrow"
             d="M 11.500037,31.436501 C 11.940474,20.09759 22.043105,11.32322 32.158766,21.979434 L 37.068811,17.246167 C 37.068811,17.246167 37.088388,32 37.088388,32 L 22.160133,31.978069 C 22.160133,31.978069 26.997745,27.140456 26.997745,27.140456 C 18.528582,18.264221 13.291696,25.230495 11.500037,31.436501 z"
             style="fill:#404040;"/>
          </a>
         </g>
        </svg>
</svg>
