<?xml version="1.0" encoding="UTF-8" standalone="no"?>
<!DOCTYPE svg PUBLIC "-//W3C//DTD SVG 1.1//EN"
 "http://www.w3.org/Graphics/SVG/1.1/DTD/svg11.dtd">
<!-- Generated by graphviz version 2.38.0 (20140413.2041)
 -->
<!-- Title: quantize_dither_rle Pages: 1 -->
<svg width="322pt" height="199pt"
 viewBox="0.00 0.00 322.00 199.00" xmlns="http://www.w3.org/2000/svg" xmlns:xlink="http://www.w3.org/1999/xlink">
<g id="graph0" class="graph" transform="scale(1 1) rotate(0) translate(4 195)">
<title>quantize_dither_rle</title>
<polygon fill="white" stroke="none" points="-4,4 -4,-195 318,-195 318,4 -4,4"/>
<!-- Node1 -->
<g id="node1" class="node"><title>Node1</title>
<polygon fill="#bfbfbf" stroke="black" points="0,-57.5 0,-76.5 107,-76.5 107,-57.5 0,-57.5"/>
<text text-anchor="middle" x="53.5" y="-64.5" font-family="Helvetica,sans-Serif" font-size="10.00">quantize_dither_rle</text>
</g>
<!-- Node2 -->
<g id="node2" class="node"><title>Node2</title>
<g id="a_node2"><a xlink:href="../../d0/dcc/rletorla_8c.html#ab7e36af3707843f77cc5b4e831c2fa6d" target="_top" xlink:title="malloc">
<polygon fill="white" stroke="black" points="256.5,-95.5 256.5,-114.5 303.5,-114.5 303.5,-95.5 256.5,-95.5"/>
<text text-anchor="middle" x="280" y="-102.5" font-family="Helvetica,sans-Serif" font-size="10.00">malloc</text>
</a>
</g>
</g>
<!-- Node1&#45;&gt;Node2 -->
<g id="edge1" class="edge"><title>Node1&#45;&gt;Node2</title>
<path fill="none" stroke="midnightblue" d="M95.7994,-76.517C110.637,-79.7636 127.526,-83.2617 143,-86 178.025,-92.1978 218.417,-97.6249 246.025,-101.074"/>
<polygon fill="midnightblue" stroke="midnightblue" points="245.948,-104.591 256.301,-102.341 246.804,-97.6439 245.948,-104.591"/>
</g>
<!-- Node3 -->
<g id="node3" class="node"><title>Node3</title>
<g id="a_node3"><a xlink:href="../../db/d53/rle__getrow_8c.html#a3602e1158189cba5e5b0f9b983cba776" target="_top" xlink:title="rle_getrow">
<polygon fill="white" stroke="black" points="143,-133.5 143,-152.5 210,-152.5 210,-133.5 143,-133.5"/>
<text text-anchor="middle" x="176.5" y="-140.5" font-family="Helvetica,sans-Serif" font-size="10.00">rle_getrow</text>
</a>
</g>
</g>
<!-- Node1&#45;&gt;Node3 -->
<g id="edge2" class="edge"><title>Node1&#45;&gt;Node3</title>
<path fill="none" stroke="midnightblue" d="M69.8247,-76.6255C90.463,-89.5883 127.396,-112.786 151.675,-128.035"/>
<polygon fill="midnightblue" stroke="midnightblue" points="149.97,-131.098 160.3,-133.453 153.693,-125.17 149.97,-131.098"/>
</g>
<!-- Node6 -->
<g id="node6" class="node"><title>Node6</title>
<g id="a_node6"><a xlink:href="../../d9/d2a/rle__putrow_8c.html#aa26532b01bc4f49b7383765cdc23ea72" target="_top" xlink:title="rle_putrow">
<polygon fill="white" stroke="black" points="143.5,-57.5 143.5,-76.5 209.5,-76.5 209.5,-57.5 143.5,-57.5"/>
<text text-anchor="middle" x="176.5" y="-64.5" font-family="Helvetica,sans-Serif" font-size="10.00">rle_putrow</text>
</a>
</g>
</g>
<!-- Node1&#45;&gt;Node6 -->
<g id="edge5" class="edge"><title>Node1&#45;&gt;Node6</title>
<path fill="none" stroke="midnightblue" d="M107.22,-67C116.004,-67 125.01,-67 133.481,-67"/>
<polygon fill="midnightblue" stroke="midnightblue" points="133.498,-70.5001 143.498,-67 133.498,-63.5001 133.498,-70.5001"/>
</g>
<!-- Node8 -->
<g id="node8" class="node"><title>Node8</title>
<g id="a_node8"><a xlink:href="../../d9/d2a/rle__putrow_8c.html#af4fab734a5d227ad2ae95840f56fff3b" target="_top" xlink:title="rle_puteof">
<polygon fill="white" stroke="black" points="144.5,-19.5 144.5,-38.5 208.5,-38.5 208.5,-19.5 144.5,-19.5"/>
<text text-anchor="middle" x="176.5" y="-26.5" font-family="Helvetica,sans-Serif" font-size="10.00">rle_puteof</text>
</a>
</g>
</g>
<!-- Node1&#45;&gt;Node8 -->
<g id="edge8" class="edge"><title>Node1&#45;&gt;Node8</title>
<path fill="none" stroke="midnightblue" d="M85.0334,-57.411C100.223,-52.6406 118.785,-46.8112 135.133,-41.6771"/>
<polygon fill="midnightblue" stroke="midnightblue" points="136.484,-44.9214 144.976,-38.5859 134.387,-38.243 136.484,-44.9214"/>
</g>
<!-- Node9 -->
<g id="node9" class="node"><title>Node9</title>
<g id="a_node9"><a xlink:href="../../d0/dcc/rletorla_8c.html#aafde19f7d36ca163a143579c1b125b6d" target="_top" xlink:title="free">
<polygon fill="white" stroke="black" points="262.5,-0.5 262.5,-19.5 297.5,-19.5 297.5,-0.5 262.5,-0.5"/>
<text text-anchor="middle" x="280" y="-7.5" font-family="Helvetica,sans-Serif" font-size="10.00">free</text>
</a>
</g>
</g>
<!-- Node1&#45;&gt;Node9 -->
<g id="edge10" class="edge"><title>Node1&#45;&gt;Node9</title>
<path fill="none" stroke="midnightblue" d="M64.9242,-57.3664C80.5088,-43.6921 111.441,-19.2836 143,-10 179.594,0.764855 224.164,-2.05711 252.069,-5.60448"/>
<polygon fill="midnightblue" stroke="midnightblue" points="251.855,-9.10848 262.243,-7.02541 252.823,-2.17577 251.855,-9.10848"/>
</g>
<!-- Node4 -->
<g id="node4" class="node"><title>Node4</title>
<g id="a_node4"><a xlink:href="../../db/d53/rle__getrow_8c.html#a61ac0da96b0dd8bc3cbc98afcd9b5c44" target="_top" xlink:title="bfill">
<polygon fill="white" stroke="black" points="264,-171.5 264,-190.5 296,-190.5 296,-171.5 264,-171.5"/>
<text text-anchor="middle" x="280" y="-178.5" font-family="Helvetica,sans-Serif" font-size="10.00">bfill</text>
</a>
</g>
</g>
<!-- Node3&#45;&gt;Node4 -->
<g id="edge3" class="edge"><title>Node3&#45;&gt;Node4</title>
<path fill="none" stroke="midnightblue" d="M203.113,-152.589C218.818,-158.469 238.82,-165.957 254.345,-171.77"/>
<polygon fill="midnightblue" stroke="midnightblue" points="253.219,-175.085 263.811,-175.314 255.673,-168.53 253.219,-175.085"/>
</g>
<!-- Node5 -->
<g id="node5" class="node"><title>Node5</title>
<g id="a_node5"><a xlink:href="../../d8/d7c/rle__getskip_8c.html#af6b1e1dc0867e9340f90668591c7c5b3" target="_top" xlink:title="rle_getskip">
<polygon fill="white" stroke="black" points="246,-133.5 246,-152.5 314,-152.5 314,-133.5 246,-133.5"/>
<text text-anchor="middle" x="280" y="-140.5" font-family="Helvetica,sans-Serif" font-size="10.00">rle_getskip</text>
</a>
</g>
</g>
<!-- Node3&#45;&gt;Node5 -->
<g id="edge4" class="edge"><title>Node3&#45;&gt;Node5</title>
<path fill="none" stroke="midnightblue" d="M210.174,-143C218.249,-143 227.027,-143 235.527,-143"/>
<polygon fill="midnightblue" stroke="midnightblue" points="235.69,-146.5 245.69,-143 235.69,-139.5 235.69,-146.5"/>
</g>
<!-- Node6&#45;&gt;Node2 -->
<g id="edge6" class="edge"><title>Node6&#45;&gt;Node2</title>
<path fill="none" stroke="midnightblue" d="M203.113,-76.589C216.25,-81.5075 232.395,-87.5516 246.41,-92.7989"/>
<polygon fill="midnightblue" stroke="midnightblue" points="245.574,-96.2229 256.166,-96.4513 248.028,-89.6673 245.574,-96.2229"/>
</g>
<!-- Node7 -->
<g id="node7" class="node"><title>Node7</title>
<g id="a_node7"><a xlink:href="../../d9/d2a/rle__putrow_8c.html#aaa4133bf4a6cbf287444448497631f26" target="_top" xlink:title="findruns">
<polygon fill="white" stroke="black" points="253,-57.5 253,-76.5 307,-76.5 307,-57.5 253,-57.5"/>
<text text-anchor="middle" x="280" y="-64.5" font-family="Helvetica,sans-Serif" font-size="10.00">findruns</text>
</a>
</g>
</g>
<!-- Node6&#45;&gt;Node7 -->
<g id="edge7" class="edge"><title>Node6&#45;&gt;Node7</title>
<path fill="none" stroke="midnightblue" d="M209.615,-67C220.178,-67 231.992,-67 242.835,-67"/>
<polygon fill="midnightblue" stroke="midnightblue" points="242.861,-70.5001 252.861,-67 242.861,-63.5001 242.861,-70.5001"/>
</g>
<!-- Node8&#45;&gt;Node9 -->
<g id="edge9" class="edge"><title>Node8&#45;&gt;Node9</title>
<path fill="none" stroke="midnightblue" d="M208.505,-23.1961C222.489,-20.5783 238.844,-17.5169 252.278,-15.0022"/>
<polygon fill="midnightblue" stroke="midnightblue" points="253.139,-18.4018 262.325,-13.1215 251.851,-11.5213 253.139,-18.4018"/>
</g>
</g>
</svg>
