<?xml version="1.0" encoding="UTF-8" standalone="no"?>
<!DOCTYPE svg PUBLIC "-//W3C//DTD SVG 1.1//EN"
 "http://www.w3.org/Graphics/SVG/1.1/DTD/svg11.dtd">
<!-- Generated by graphviz version 2.38.0 (20140413.2041)
 -->
<!-- Title: set_size_axis Pages: 1 -->
<svg width="454pt" height="66pt"
 viewBox="0.00 0.00 454.00 66.00" xmlns="http://www.w3.org/2000/svg" xmlns:xlink="http://www.w3.org/1999/xlink">
<g id="graph0" class="graph" transform="scale(1 1) rotate(0) translate(4 62)">
<title>set_size_axis</title>
<polygon fill="white" stroke="none" points="-4,4 -4,-62 450,-62 450,4 -4,4"/>
<!-- Node1 -->
<g id="node1" class="node"><title>Node1</title>
<polygon fill="#bfbfbf" stroke="black" points="0,-19.5 0,-38.5 80,-38.5 80,-19.5 0,-19.5"/>
<text text-anchor="middle" x="40" y="-26.5" font-family="Helvetica,sans-Serif" font-size="10.00">set_size_axis</text>
</g>
<!-- Node2 -->
<g id="node2" class="node"><title>Node2</title>
<g id="a_node2"><a xlink:href="../../d5/d6d/mcut_8c.html#a20a9787e6e56d4e8fbf7a3149424c279" target="_top" xlink:title="sum_hist">
<polygon fill="white" stroke="black" points="213.5,-38.5 213.5,-57.5 271.5,-57.5 271.5,-38.5 213.5,-38.5"/>
<text text-anchor="middle" x="242.5" y="-45.5" font-family="Helvetica,sans-Serif" font-size="10.00">sum_hist</text>
</a>
</g>
</g>
<!-- Node1&#45;&gt;Node2 -->
<g id="edge1" class="edge"><title>Node1&#45;&gt;Node2</title>
<path fill="none" stroke="midnightblue" d="M90.1644,-33.659C128.912,-37.3308 181.554,-42.3194 213.443,-45.3413"/>
<polygon fill="midnightblue" stroke="midnightblue" points="90.42,-30.1676 80.1344,-32.7085 89.7596,-37.1364 90.42,-30.1676"/>
</g>
<!-- Node4 -->
<g id="node4" class="node"><title>Node4</title>
<g id="a_node4"><a xlink:href="../../d5/d6d/mcut_8c.html#af91e23de018667a12c4978e1f362dd16" target="_top" xlink:title="split_box">
<polygon fill="white" stroke="black" points="116,-0.5 116,-19.5 174,-19.5 174,-0.5 116,-0.5"/>
<text text-anchor="middle" x="145" y="-7.5" font-family="Helvetica,sans-Serif" font-size="10.00">split_box</text>
</a>
</g>
</g>
<!-- Node1&#45;&gt;Node4 -->
<g id="edge3" class="edge"><title>Node1&#45;&gt;Node4</title>
<path fill="none" stroke="midnightblue" d="M90.0843,-19.9456C98.8935,-18.3206 107.797,-16.6782 115.761,-15.2091"/>
<polygon fill="midnightblue" stroke="midnightblue" points="89.4328,-16.5066 80.2337,-21.7627 90.7027,-23.3905 89.4328,-16.5066"/>
</g>
<!-- Node3 -->
<g id="node3" class="node"><title>Node3</title>
<g id="a_node3"><a xlink:href="../../d5/d6d/mcut_8c.html#a70db8bd1d499619f7ff9c1ca2ff3c8df" target="_top" xlink:title="main">
<polygon fill="white" stroke="black" points="407,-19.5 407,-38.5 446,-38.5 446,-19.5 407,-19.5"/>
<text text-anchor="middle" x="426.5" y="-26.5" font-family="Helvetica,sans-Serif" font-size="10.00">main</text>
</a>
</g>
</g>
<!-- Node2&#45;&gt;Node3 -->
<g id="edge2" class="edge"><title>Node2&#45;&gt;Node3</title>
<path fill="none" stroke="midnightblue" d="M281.814,-44.0002C320.175,-39.9955 377.59,-34.0016 406.873,-30.9445"/>
<polygon fill="midnightblue" stroke="midnightblue" points="281.121,-40.5534 271.539,-45.0729 281.848,-47.5156 281.121,-40.5534"/>
</g>
<!-- Node5 -->
<g id="node5" class="node"><title>Node5</title>
<g id="a_node5"><a xlink:href="../../d5/d6d/mcut_8c.html#ae91e9bed33882620466ba917ea67cf44" target="_top" xlink:title="break_box">
<polygon fill="white" stroke="black" points="210,-0.5 210,-19.5 275,-19.5 275,-0.5 210,-0.5"/>
<text text-anchor="middle" x="242.5" y="-7.5" font-family="Helvetica,sans-Serif" font-size="10.00">break_box</text>
</a>
</g>
</g>
<!-- Node4&#45;&gt;Node5 -->
<g id="edge4" class="edge"><title>Node4&#45;&gt;Node5</title>
<path fill="none" stroke="midnightblue" d="M184.232,-10C192.742,-10 201.673,-10 209.882,-10"/>
<polygon fill="midnightblue" stroke="midnightblue" points="184.137,-6.5001 174.137,-10 184.137,-13.5001 184.137,-6.5001"/>
</g>
<!-- Node6 -->
<g id="node6" class="node"><title>Node6</title>
<g id="a_node6"><a xlink:href="../../d5/d6d/mcut_8c.html#a1a995fc2e84bcda48990c33fe11dc604" target="_top" xlink:title="subdivide">
<polygon fill="white" stroke="black" points="311,-0.5 311,-19.5 371,-19.5 371,-0.5 311,-0.5"/>
<text text-anchor="middle" x="341" y="-7.5" font-family="Helvetica,sans-Serif" font-size="10.00">subdivide</text>
</a>
</g>
</g>
<!-- Node5&#45;&gt;Node6 -->
<g id="edge5" class="edge"><title>Node5&#45;&gt;Node6</title>
<path fill="none" stroke="midnightblue" d="M285.112,-10C293.816,-10 302.815,-10 310.945,-10"/>
<polygon fill="midnightblue" stroke="midnightblue" points="285.098,-6.5001 275.098,-10 285.098,-13.5001 285.098,-6.5001"/>
</g>
<!-- Node6&#45;&gt;Node3 -->
<g id="edge6" class="edge"><title>Node6&#45;&gt;Node3</title>
<path fill="none" stroke="midnightblue" d="M381.171,-18.9132C390.137,-20.9533 399.262,-23.0298 406.884,-24.7641"/>
<polygon fill="midnightblue" stroke="midnightblue" points="381.732,-15.4513 371.204,-16.6453 380.178,-22.2769 381.732,-15.4513"/>
</g>
</g>
</svg>
