<?xml version="1.0" encoding="UTF-8" standalone="no"?>
<!DOCTYPE svg PUBLIC "-//W3C//DTD SVG 1.1//EN"
 "http://www.w3.org/Graphics/SVG/1.1/DTD/svg11.dtd">
<!-- Generated by graphviz version 2.38.0 (20140413.2041)
 -->
<!-- Title: quantize_rle Pages: 1 -->
<svg width="289pt" height="180pt"
 viewBox="0.00 0.00 289.00 180.00" xmlns="http://www.w3.org/2000/svg" xmlns:xlink="http://www.w3.org/1999/xlink">
<g id="graph0" class="graph" transform="scale(1 1) rotate(0) translate(4 176)">
<title>quantize_rle</title>
<polygon fill="white" stroke="none" points="-4,4 -4,-176 285,-176 285,4 -4,4"/>
<!-- Node1 -->
<g id="node1" class="node"><title>Node1</title>
<polygon fill="#bfbfbf" stroke="black" points="0,-67.5 0,-86.5 74,-86.5 74,-67.5 0,-67.5"/>
<text text-anchor="middle" x="37" y="-74.5" font-family="Helvetica,sans-Serif" font-size="10.00">quantize_rle</text>
</g>
<!-- Node2 -->
<g id="node2" class="node"><title>Node2</title>
<g id="a_node2"><a xlink:href="../../db/d53/rle__getrow_8c.html#a3602e1158189cba5e5b0f9b983cba776" target="_top" xlink:title="rle_getrow">
<polygon fill="white" stroke="black" points="110,-114.5 110,-133.5 177,-133.5 177,-114.5 110,-114.5"/>
<text text-anchor="middle" x="143.5" y="-121.5" font-family="Helvetica,sans-Serif" font-size="10.00">rle_getrow</text>
</a>
</g>
</g>
<!-- Node1&#45;&gt;Node2 -->
<g id="edge1" class="edge"><title>Node1&#45;&gt;Node2</title>
<path fill="none" stroke="midnightblue" d="M59.1471,-86.5112C74.2032,-93.2828 94.6766,-102.491 111.565,-110.086"/>
<polygon fill="midnightblue" stroke="midnightblue" points="110.47,-113.432 121.026,-114.342 113.341,-107.048 110.47,-113.432"/>
</g>
<!-- Node5 -->
<g id="node5" class="node"><title>Node5</title>
<g id="a_node5"><a xlink:href="../../d9/d2a/rle__putrow_8c.html#aa26532b01bc4f49b7383765cdc23ea72" target="_top" xlink:title="rle_putrow">
<polygon fill="white" stroke="black" points="110.5,-67.5 110.5,-86.5 176.5,-86.5 176.5,-67.5 110.5,-67.5"/>
<text text-anchor="middle" x="143.5" y="-74.5" font-family="Helvetica,sans-Serif" font-size="10.00">rle_putrow</text>
</a>
</g>
</g>
<!-- Node1&#45;&gt;Node5 -->
<g id="edge4" class="edge"><title>Node1&#45;&gt;Node5</title>
<path fill="none" stroke="midnightblue" d="M74.2558,-77C82.6376,-77 91.6272,-77 100.241,-77"/>
<polygon fill="midnightblue" stroke="midnightblue" points="100.494,-80.5001 110.494,-77 100.494,-73.5001 100.494,-80.5001"/>
</g>
<!-- Node8 -->
<g id="node8" class="node"><title>Node8</title>
<g id="a_node8"><a xlink:href="../../d9/d2a/rle__putrow_8c.html#af4fab734a5d227ad2ae95840f56fff3b" target="_top" xlink:title="rle_puteof">
<polygon fill="white" stroke="black" points="111.5,-10.5 111.5,-29.5 175.5,-29.5 175.5,-10.5 111.5,-10.5"/>
<text text-anchor="middle" x="143.5" y="-17.5" font-family="Helvetica,sans-Serif" font-size="10.00">rle_puteof</text>
</a>
</g>
</g>
<!-- Node1&#45;&gt;Node8 -->
<g id="edge7" class="edge"><title>Node1&#45;&gt;Node8</title>
<path fill="none" stroke="midnightblue" d="M55.727,-67.3307C72.2655,-58.3097 97.1567,-44.7327 116.045,-34.4302"/>
<polygon fill="midnightblue" stroke="midnightblue" points="117.932,-37.3877 125.035,-29.5265 114.58,-31.2424 117.932,-37.3877"/>
</g>
<!-- Node3 -->
<g id="node3" class="node"><title>Node3</title>
<g id="a_node3"><a xlink:href="../../db/d53/rle__getrow_8c.html#a61ac0da96b0dd8bc3cbc98afcd9b5c44" target="_top" xlink:title="bfill">
<polygon fill="white" stroke="black" points="231,-152.5 231,-171.5 263,-171.5 263,-152.5 231,-152.5"/>
<text text-anchor="middle" x="247" y="-159.5" font-family="Helvetica,sans-Serif" font-size="10.00">bfill</text>
</a>
</g>
</g>
<!-- Node2&#45;&gt;Node3 -->
<g id="edge2" class="edge"><title>Node2&#45;&gt;Node3</title>
<path fill="none" stroke="midnightblue" d="M170.113,-133.589C185.818,-139.469 205.82,-146.957 221.345,-152.77"/>
<polygon fill="midnightblue" stroke="midnightblue" points="220.219,-156.085 230.811,-156.314 222.673,-149.53 220.219,-156.085"/>
</g>
<!-- Node4 -->
<g id="node4" class="node"><title>Node4</title>
<g id="a_node4"><a xlink:href="../../d8/d7c/rle__getskip_8c.html#af6b1e1dc0867e9340f90668591c7c5b3" target="_top" xlink:title="rle_getskip">
<polygon fill="white" stroke="black" points="213,-114.5 213,-133.5 281,-133.5 281,-114.5 213,-114.5"/>
<text text-anchor="middle" x="247" y="-121.5" font-family="Helvetica,sans-Serif" font-size="10.00">rle_getskip</text>
</a>
</g>
</g>
<!-- Node2&#45;&gt;Node4 -->
<g id="edge3" class="edge"><title>Node2&#45;&gt;Node4</title>
<path fill="none" stroke="midnightblue" d="M177.174,-124C185.249,-124 194.027,-124 202.527,-124"/>
<polygon fill="midnightblue" stroke="midnightblue" points="202.69,-127.5 212.69,-124 202.69,-120.5 202.69,-127.5"/>
</g>
<!-- Node6 -->
<g id="node6" class="node"><title>Node6</title>
<g id="a_node6"><a xlink:href="../../d0/dcc/rletorla_8c.html#ab7e36af3707843f77cc5b4e831c2fa6d" target="_top" xlink:title="malloc">
<polygon fill="white" stroke="black" points="223.5,-76.5 223.5,-95.5 270.5,-95.5 270.5,-76.5 223.5,-76.5"/>
<text text-anchor="middle" x="247" y="-83.5" font-family="Helvetica,sans-Serif" font-size="10.00">malloc</text>
</a>
</g>
</g>
<!-- Node5&#45;&gt;Node6 -->
<g id="edge5" class="edge"><title>Node5&#45;&gt;Node6</title>
<path fill="none" stroke="midnightblue" d="M176.615,-79.8477C188.265,-80.8807 201.437,-82.0486 213.15,-83.0872"/>
<polygon fill="midnightblue" stroke="midnightblue" points="213.141,-86.6 223.411,-83.997 213.759,-79.6274 213.141,-86.6"/>
</g>
<!-- Node7 -->
<g id="node7" class="node"><title>Node7</title>
<g id="a_node7"><a xlink:href="../../d9/d2a/rle__putrow_8c.html#aaa4133bf4a6cbf287444448497631f26" target="_top" xlink:title="findruns">
<polygon fill="white" stroke="black" points="220,-38.5 220,-57.5 274,-57.5 274,-38.5 220,-38.5"/>
<text text-anchor="middle" x="247" y="-45.5" font-family="Helvetica,sans-Serif" font-size="10.00">findruns</text>
</a>
</g>
</g>
<!-- Node5&#45;&gt;Node7 -->
<g id="edge6" class="edge"><title>Node5&#45;&gt;Node7</title>
<path fill="none" stroke="midnightblue" d="M176.615,-67.8242C187.287,-64.7751 199.236,-61.3612 210.17,-58.2371"/>
<polygon fill="midnightblue" stroke="midnightblue" points="211.208,-61.5808 219.861,-55.4682 209.284,-54.8502 211.208,-61.5808"/>
</g>
<!-- Node9 -->
<g id="node9" class="node"><title>Node9</title>
<g id="a_node9"><a xlink:href="../../d0/dcc/rletorla_8c.html#aafde19f7d36ca163a143579c1b125b6d" target="_top" xlink:title="free">
<polygon fill="white" stroke="black" points="229.5,-0.5 229.5,-19.5 264.5,-19.5 264.5,-0.5 229.5,-0.5"/>
<text text-anchor="middle" x="247" y="-7.5" font-family="Helvetica,sans-Serif" font-size="10.00">free</text>
</a>
</g>
</g>
<!-- Node8&#45;&gt;Node9 -->
<g id="edge8" class="edge"><title>Node8&#45;&gt;Node9</title>
<path fill="none" stroke="midnightblue" d="M175.505,-16.9453C189.489,-15.5675 205.844,-13.9563 219.278,-12.6327"/>
<polygon fill="midnightblue" stroke="midnightblue" points="219.716,-16.1066 229.325,-11.6429 219.03,-9.14032 219.716,-16.1066"/>
</g>
</g>
</svg>
