<?xml version="1.0" encoding="UTF-8" standalone="no"?>
<!DOCTYPE svg PUBLIC "-//W3C//DTD SVG 1.1//EN"
 "http://www.w3.org/Graphics/SVG/1.1/DTD/svg11.dtd">
<!-- Generated by graphviz version 2.38.0 (20140413.2041)
 -->
<!-- Title: sum_hist Pages: 1 -->
<svg width="182pt" height="66pt"
 viewBox="0.00 0.00 182.00 66.00" xmlns="http://www.w3.org/2000/svg" xmlns:xlink="http://www.w3.org/1999/xlink">
<g id="graph0" class="graph" transform="scale(1 1) rotate(0) translate(4 62)">
<title>sum_hist</title>
<polygon fill="white" stroke="none" points="-4,4 -4,-62 178,-62 178,4 -4,4"/>
<!-- Node1 -->
<g id="node1" class="node"><title>Node1</title>
<polygon fill="#bfbfbf" stroke="black" points="0,-19.5 0,-38.5 58,-38.5 58,-19.5 0,-19.5"/>
<text text-anchor="middle" x="29" y="-26.5" font-family="Helvetica,sans-Serif" font-size="10.00">sum_hist</text>
</g>
<!-- Node2 -->
<g id="node2" class="node"><title>Node2</title>
<g id="a_node2"><a xlink:href="../../d5/d6d/mcut_8c.html#abe20b056b42e7dde9bcc3a2d75744b83" target="_top" xlink:title="bound_rgb">
<polygon fill="white" stroke="black" points="101,-38.5 101,-57.5 167,-57.5 167,-38.5 101,-38.5"/>
<text text-anchor="middle" x="134" y="-45.5" font-family="Helvetica,sans-Serif" font-size="10.00">bound_rgb</text>
</a>
</g>
</g>
<!-- Node1&#45;&gt;Node2 -->
<g id="edge1" class="edge"><title>Node1&#45;&gt;Node2</title>
<path fill="none" stroke="midnightblue" d="M58.1452,-34.1918C68.2691,-36.0593 79.9206,-38.2087 90.9699,-40.2469"/>
<polygon fill="midnightblue" stroke="midnightblue" points="90.4177,-43.704 100.887,-42.0762 91.6876,-36.8201 90.4177,-43.704"/>
</g>
<!-- Node3 -->
<g id="node3" class="node"><title>Node3</title>
<g id="a_node3"><a xlink:href="../../d5/d6d/mcut_8c.html#a3584c59e298fe4ae3e2686a5816ec6a5" target="_top" xlink:title="set_size_axis">
<polygon fill="white" stroke="black" points="94,-0.5 94,-19.5 174,-19.5 174,-0.5 94,-0.5"/>
<text text-anchor="middle" x="134" y="-7.5" font-family="Helvetica,sans-Serif" font-size="10.00">set_size_axis</text>
</a>
</g>
</g>
<!-- Node1&#45;&gt;Node3 -->
<g id="edge2" class="edge"><title>Node1&#45;&gt;Node3</title>
<path fill="none" stroke="midnightblue" d="M58.1452,-23.8082C66.1081,-22.3393 75.016,-20.6961 83.8326,-19.0697"/>
<polygon fill="midnightblue" stroke="midnightblue" points="84.4936,-22.5069 93.6928,-17.2508 83.2237,-15.6231 84.4936,-22.5069"/>
</g>
</g>
</svg>
