<?xml version="1.0" encoding="UTF-8" standalone="no"?>
<!DOCTYPE svg PUBLIC "-//W3C//DTD SVG 1.1//EN"
 "http://www.w3.org/Graphics/SVG/1.1/DTD/svg11.dtd">
<!-- Generated by graphviz version 2.38.0 (20140413.2041)
 -->
<!-- Title: radix_sort Pages: 1 -->
<svg width="344pt" height="28pt"
 viewBox="0.00 0.00 344.00 28.00" xmlns="http://www.w3.org/2000/svg" xmlns:xlink="http://www.w3.org/1999/xlink">
<g id="graph0" class="graph" transform="scale(1 1) rotate(0) translate(4 24)">
<title>radix_sort</title>
<polygon fill="white" stroke="none" points="-4,4 -4,-24 340,-24 340,4 -4,4"/>
<!-- Node1 -->
<g id="node1" class="node"><title>Node1</title>
<polygon fill="#bfbfbf" stroke="black" points="0,-0.5 0,-19.5 64,-19.5 64,-0.5 0,-0.5"/>
<text text-anchor="middle" x="32" y="-7.5" font-family="Helvetica,sans-Serif" font-size="10.00">radix_sort</text>
</g>
<!-- Node2 -->
<g id="node2" class="node"><title>Node2</title>
<g id="a_node2"><a xlink:href="../../d5/d6d/mcut_8c.html#ae91e9bed33882620466ba917ea67cf44" target="_top" xlink:title="break_box">
<polygon fill="white" stroke="black" points="100,-0.5 100,-19.5 165,-19.5 165,-0.5 100,-0.5"/>
<text text-anchor="middle" x="132.5" y="-7.5" font-family="Helvetica,sans-Serif" font-size="10.00">break_box</text>
</a>
</g>
</g>
<!-- Node1&#45;&gt;Node2 -->
<g id="edge1" class="edge"><title>Node1&#45;&gt;Node2</title>
<path fill="none" stroke="midnightblue" d="M74.3431,-10C82.8771,-10 91.7364,-10 99.8597,-10"/>
<polygon fill="midnightblue" stroke="midnightblue" points="74.1661,-6.5001 64.166,-10 74.166,-13.5001 74.1661,-6.5001"/>
</g>
<!-- Node3 -->
<g id="node3" class="node"><title>Node3</title>
<g id="a_node3"><a xlink:href="../../d5/d6d/mcut_8c.html#a1a995fc2e84bcda48990c33fe11dc604" target="_top" xlink:title="subdivide">
<polygon fill="white" stroke="black" points="201,-0.5 201,-19.5 261,-19.5 261,-0.5 201,-0.5"/>
<text text-anchor="middle" x="231" y="-7.5" font-family="Helvetica,sans-Serif" font-size="10.00">subdivide</text>
</a>
</g>
</g>
<!-- Node2&#45;&gt;Node3 -->
<g id="edge2" class="edge"><title>Node2&#45;&gt;Node3</title>
<path fill="none" stroke="midnightblue" d="M175.112,-10C183.816,-10 192.815,-10 200.945,-10"/>
<polygon fill="midnightblue" stroke="midnightblue" points="175.098,-6.5001 165.098,-10 175.098,-13.5001 175.098,-6.5001"/>
</g>
<!-- Node4 -->
<g id="node4" class="node"><title>Node4</title>
<g id="a_node4"><a xlink:href="../../d5/d6d/mcut_8c.html#a70db8bd1d499619f7ff9c1ca2ff3c8df" target="_top" xlink:title="main">
<polygon fill="white" stroke="black" points="297,-0.5 297,-19.5 336,-19.5 336,-0.5 297,-0.5"/>
<text text-anchor="middle" x="316.5" y="-7.5" font-family="Helvetica,sans-Serif" font-size="10.00">main</text>
</a>
</g>
</g>
<!-- Node3&#45;&gt;Node4 -->
<g id="edge3" class="edge"><title>Node3&#45;&gt;Node4</title>
<path fill="none" stroke="midnightblue" d="M271.46,-10C280.333,-10 289.344,-10 296.884,-10"/>
<polygon fill="midnightblue" stroke="midnightblue" points="271.204,-6.5001 261.204,-10 271.204,-13.5001 271.204,-6.5001"/>
</g>
</g>
</svg>
