<?xml version="1.0" encoding="UTF-8" standalone="no"?>
<!DOCTYPE svg PUBLIC "-//W3C//DTD SVG 1.1//EN"
 "http://www.w3.org/Graphics/SVG/1.1/DTD/svg11.dtd">
<!-- Generated by graphviz version 2.38.0 (20140413.2041)
 -->
<!-- Title: bound_rgb Pages: 1 -->
<svg width="440pt" height="66pt"
 viewBox="0.00 0.00 440.00 66.00" xmlns="http://www.w3.org/2000/svg" xmlns:xlink="http://www.w3.org/1999/xlink">
<g id="graph0" class="graph" transform="scale(1 1) rotate(0) translate(4 62)">
<title>bound_rgb</title>
<polygon fill="white" stroke="none" points="-4,4 -4,-62 436,-62 436,4 -4,4"/>
<!-- Node1 -->
<g id="node1" class="node"><title>Node1</title>
<polygon fill="#bfbfbf" stroke="black" points="0,-19.5 0,-38.5 66,-38.5 66,-19.5 0,-19.5"/>
<text text-anchor="middle" x="33" y="-26.5" font-family="Helvetica,sans-Serif" font-size="10.00">bound_rgb</text>
</g>
<!-- Node2 -->
<g id="node2" class="node"><title>Node2</title>
<g id="a_node2"><a xlink:href="../../d5/d6d/mcut_8c.html#a20a9787e6e56d4e8fbf7a3149424c279" target="_top" xlink:title="sum_hist">
<polygon fill="white" stroke="black" points="199.5,-38.5 199.5,-57.5 257.5,-57.5 257.5,-38.5 199.5,-38.5"/>
<text text-anchor="middle" x="228.5" y="-45.5" font-family="Helvetica,sans-Serif" font-size="10.00">sum_hist</text>
</a>
</g>
</g>
<!-- Node1&#45;&gt;Node2 -->
<g id="edge1" class="edge"><title>Node1&#45;&gt;Node2</title>
<path fill="none" stroke="midnightblue" d="M76.4694,-33.1701C113.824,-36.838 167.137,-42.0729 199.414,-45.2422"/>
<polygon fill="midnightblue" stroke="midnightblue" points="76.6817,-29.6742 66.3875,-32.1802 75.9976,-36.6407 76.6817,-29.6742"/>
</g>
<!-- Node4 -->
<g id="node4" class="node"><title>Node4</title>
<g id="a_node4"><a xlink:href="../../d5/d6d/mcut_8c.html#af91e23de018667a12c4978e1f362dd16" target="_top" xlink:title="split_box">
<polygon fill="white" stroke="black" points="102,-0.5 102,-19.5 160,-19.5 160,-0.5 102,-0.5"/>
<text text-anchor="middle" x="131" y="-7.5" font-family="Helvetica,sans-Serif" font-size="10.00">split_box</text>
</a>
</g>
</g>
<!-- Node1&#45;&gt;Node4 -->
<g id="edge3" class="edge"><title>Node1&#45;&gt;Node4</title>
<path fill="none" stroke="midnightblue" d="M76.2328,-20.6414C84.9095,-18.9242 93.8412,-17.1564 101.872,-15.567"/>
<polygon fill="midnightblue" stroke="midnightblue" points="75.3638,-17.2454 66.2337,-22.6204 76.7229,-24.1122 75.3638,-17.2454"/>
</g>
<!-- Node3 -->
<g id="node3" class="node"><title>Node3</title>
<g id="a_node3"><a xlink:href="../../d5/d6d/mcut_8c.html#a70db8bd1d499619f7ff9c1ca2ff3c8df" target="_top" xlink:title="main">
<polygon fill="white" stroke="black" points="393,-19.5 393,-38.5 432,-38.5 432,-19.5 393,-19.5"/>
<text text-anchor="middle" x="412.5" y="-26.5" font-family="Helvetica,sans-Serif" font-size="10.00">main</text>
</a>
</g>
</g>
<!-- Node2&#45;&gt;Node3 -->
<g id="edge2" class="edge"><title>Node2&#45;&gt;Node3</title>
<path fill="none" stroke="midnightblue" d="M267.814,-44.0002C306.175,-39.9955 363.59,-34.0016 392.873,-30.9445"/>
<polygon fill="midnightblue" stroke="midnightblue" points="267.121,-40.5534 257.539,-45.0729 267.848,-47.5156 267.121,-40.5534"/>
</g>
<!-- Node5 -->
<g id="node5" class="node"><title>Node5</title>
<g id="a_node5"><a xlink:href="../../d5/d6d/mcut_8c.html#ae91e9bed33882620466ba917ea67cf44" target="_top" xlink:title="break_box">
<polygon fill="white" stroke="black" points="196,-0.5 196,-19.5 261,-19.5 261,-0.5 196,-0.5"/>
<text text-anchor="middle" x="228.5" y="-7.5" font-family="Helvetica,sans-Serif" font-size="10.00">break_box</text>
</a>
</g>
</g>
<!-- Node4&#45;&gt;Node5 -->
<g id="edge4" class="edge"><title>Node4&#45;&gt;Node5</title>
<path fill="none" stroke="midnightblue" d="M170.232,-10C178.742,-10 187.673,-10 195.882,-10"/>
<polygon fill="midnightblue" stroke="midnightblue" points="170.137,-6.5001 160.137,-10 170.137,-13.5001 170.137,-6.5001"/>
</g>
<!-- Node6 -->
<g id="node6" class="node"><title>Node6</title>
<g id="a_node6"><a xlink:href="../../d5/d6d/mcut_8c.html#a1a995fc2e84bcda48990c33fe11dc604" target="_top" xlink:title="subdivide">
<polygon fill="white" stroke="black" points="297,-0.5 297,-19.5 357,-19.5 357,-0.5 297,-0.5"/>
<text text-anchor="middle" x="327" y="-7.5" font-family="Helvetica,sans-Serif" font-size="10.00">subdivide</text>
</a>
</g>
</g>
<!-- Node5&#45;&gt;Node6 -->
<g id="edge5" class="edge"><title>Node5&#45;&gt;Node6</title>
<path fill="none" stroke="midnightblue" d="M271.112,-10C279.816,-10 288.815,-10 296.945,-10"/>
<polygon fill="midnightblue" stroke="midnightblue" points="271.098,-6.5001 261.098,-10 271.098,-13.5001 271.098,-6.5001"/>
</g>
<!-- Node6&#45;&gt;Node3 -->
<g id="edge6" class="edge"><title>Node6&#45;&gt;Node3</title>
<path fill="none" stroke="midnightblue" d="M367.171,-18.9132C376.137,-20.9533 385.262,-23.0298 392.884,-24.7641"/>
<polygon fill="midnightblue" stroke="midnightblue" points="367.732,-15.4513 357.204,-16.6453 366.178,-22.2769 367.732,-15.4513"/>
</g>
</g>
</svg>
