<?xml version="1.0" encoding="UTF-8" standalone="no"?>
<!DOCTYPE svg PUBLIC "-//W3C//DTD SVG 1.1//EN"
 "http://www.w3.org/Graphics/SVG/1.1/DTD/svg11.dtd">
<!-- Generated by graphviz version 2.38.0 (20140413.2041)
 -->
<!-- Title: split_box Pages: 1 -->
<svg width="263pt" height="28pt"
 viewBox="0.00 0.00 263.00 28.00" xmlns="http://www.w3.org/2000/svg" xmlns:xlink="http://www.w3.org/1999/xlink">
<g id="graph0" class="graph" transform="scale(1 1) rotate(0) translate(4 24)">
<title>split_box</title>
<polygon fill="white" stroke="none" points="-4,4 -4,-24 259,-24 259,4 -4,4"/>
<!-- Node1 -->
<g id="node1" class="node"><title>Node1</title>
<polygon fill="#bfbfbf" stroke="black" points="0,-0.5 0,-19.5 58,-19.5 58,-0.5 0,-0.5"/>
<text text-anchor="middle" x="29" y="-7.5" font-family="Helvetica,sans-Serif" font-size="10.00">split_box</text>
</g>
<!-- Node2 -->
<g id="node2" class="node"><title>Node2</title>
<g id="a_node2"><a xlink:href="../../d5/d6d/mcut_8c.html#ae91e9bed33882620466ba917ea67cf44" target="_top" xlink:title="break_box">
<polygon fill="white" stroke="black" points="94,-0.5 94,-19.5 159,-19.5 159,-0.5 94,-0.5"/>
<text text-anchor="middle" x="126.5" y="-7.5" font-family="Helvetica,sans-Serif" font-size="10.00">break_box</text>
</a>
</g>
</g>
<!-- Node1&#45;&gt;Node2 -->
<g id="edge1" class="edge"><title>Node1&#45;&gt;Node2</title>
<path fill="none" stroke="midnightblue" d="M68.2319,-10C76.7421,-10 85.6726,-10 93.8822,-10"/>
<polygon fill="midnightblue" stroke="midnightblue" points="68.1367,-6.5001 58.1366,-10 68.1366,-13.5001 68.1367,-6.5001"/>
</g>
<!-- Node3 -->
<g id="node3" class="node"><title>Node3</title>
<g id="a_node3"><a xlink:href="../../d5/d6d/mcut_8c.html#a1a995fc2e84bcda48990c33fe11dc604" target="_top" xlink:title="subdivide">
<polygon fill="white" stroke="black" points="195,-0.5 195,-19.5 255,-19.5 255,-0.5 195,-0.5"/>
<text text-anchor="middle" x="225" y="-7.5" font-family="Helvetica,sans-Serif" font-size="10.00">subdivide</text>
</a>
</g>
</g>
<!-- Node2&#45;&gt;Node3 -->
<g id="edge2" class="edge"><title>Node2&#45;&gt;Node3</title>
<path fill="none" stroke="midnightblue" d="M169.112,-10C177.816,-10 186.815,-10 194.945,-10"/>
<polygon fill="midnightblue" stroke="midnightblue" points="169.098,-6.5001 159.098,-10 169.098,-13.5001 169.098,-6.5001"/>
</g>
</g>
</svg>
