<?xml version="1.0" encoding="UTF-8" standalone="no"?>
<!DOCTYPE svg PUBLIC "-//W3C//DTD SVG 1.1//EN"
 "http://www.w3.org/Graphics/SVG/1.1/DTD/svg11.dtd">
<!-- Generated by graphviz version 2.38.0 (20140413.2041)
 -->
<!-- Title: subdivide Pages: 1 -->
<svg width="269pt" height="104pt"
 viewBox="0.00 0.00 269.00 104.00" xmlns="http://www.w3.org/2000/svg" xmlns:xlink="http://www.w3.org/1999/xlink">
<g id="graph0" class="graph" transform="scale(1 1) rotate(0) translate(4 100)">
<title>subdivide</title>
<polygon fill="white" stroke="none" points="-4,4 -4,-100 265,-100 265,4 -4,4"/>
<!-- Node1 -->
<g id="node1" class="node"><title>Node1</title>
<polygon fill="#bfbfbf" stroke="black" points="0,-38.5 0,-57.5 60,-57.5 60,-38.5 0,-38.5"/>
<text text-anchor="middle" x="30" y="-45.5" font-family="Helvetica,sans-Serif" font-size="10.00">subdivide</text>
</g>
<!-- Node2 -->
<g id="node2" class="node"><title>Node2</title>
<g id="a_node2"><a xlink:href="../../d5/d6d/mcut_8c.html#ae91e9bed33882620466ba917ea67cf44" target="_top" xlink:title="break_box">
<polygon fill="white" stroke="black" points="96,-38.5 96,-57.5 161,-57.5 161,-38.5 96,-38.5"/>
<text text-anchor="middle" x="128.5" y="-45.5" font-family="Helvetica,sans-Serif" font-size="10.00">break_box</text>
</a>
</g>
</g>
<!-- Node1&#45;&gt;Node2 -->
<g id="edge1" class="edge"><title>Node1&#45;&gt;Node2</title>
<path fill="none" stroke="midnightblue" d="M60.2151,-48C68.1816,-48 76.9726,-48 85.4988,-48"/>
<polygon fill="midnightblue" stroke="midnightblue" points="85.6945,-51.5001 95.6944,-48 85.6944,-44.5001 85.6945,-51.5001"/>
</g>
<!-- Node3 -->
<g id="node3" class="node"><title>Node3</title>
<g id="a_node3"><a xlink:href="../../d5/d6d/mcut_8c.html#a2cc13bf415e790d8a9dbc86d3c87596c" target="_top" xlink:title="insert_elt">
<polygon fill="white" stroke="black" points="199,-76.5 199,-95.5 259,-95.5 259,-76.5 199,-76.5"/>
<text text-anchor="middle" x="229" y="-83.5" font-family="Helvetica,sans-Serif" font-size="10.00">insert_elt</text>
</a>
</g>
</g>
<!-- Node2&#45;&gt;Node3 -->
<g id="edge2" class="edge"><title>Node2&#45;&gt;Node3</title>
<path fill="none" stroke="midnightblue" d="M154.356,-57.589C166.255,-62.1794 180.695,-67.7503 193.626,-72.7388"/>
<polygon fill="midnightblue" stroke="midnightblue" points="192.563,-76.0801 203.152,-76.4141 195.082,-69.5493 192.563,-76.0801"/>
</g>
<!-- Node4 -->
<g id="node4" class="node"><title>Node4</title>
<g id="a_node4"><a xlink:href="../../d5/d6d/mcut_8c.html#a7dc5d33353a90c6aecc9d4558e12a017" target="_top" xlink:title="radix_sort">
<polygon fill="white" stroke="black" points="197,-38.5 197,-57.5 261,-57.5 261,-38.5 197,-38.5"/>
<text text-anchor="middle" x="229" y="-45.5" font-family="Helvetica,sans-Serif" font-size="10.00">radix_sort</text>
</a>
</g>
</g>
<!-- Node2&#45;&gt;Node4 -->
<g id="edge3" class="edge"><title>Node2&#45;&gt;Node4</title>
<path fill="none" stroke="midnightblue" d="M161.208,-48C169.285,-48 178.085,-48 186.568,-48"/>
<polygon fill="midnightblue" stroke="midnightblue" points="186.688,-51.5001 196.688,-48 186.688,-44.5001 186.688,-51.5001"/>
</g>
<!-- Node5 -->
<g id="node5" class="node"><title>Node5</title>
<g id="a_node5"><a xlink:href="../../d5/d6d/mcut_8c.html#af91e23de018667a12c4978e1f362dd16" target="_top" xlink:title="split_box">
<polygon fill="white" stroke="black" points="200,-0.5 200,-19.5 258,-19.5 258,-0.5 200,-0.5"/>
<text text-anchor="middle" x="229" y="-7.5" font-family="Helvetica,sans-Serif" font-size="10.00">split_box</text>
</a>
</g>
</g>
<!-- Node2&#45;&gt;Node5 -->
<g id="edge4" class="edge"><title>Node2&#45;&gt;Node5</title>
<path fill="none" stroke="midnightblue" d="M154.356,-38.411C166.255,-33.8206 180.695,-28.2497 193.626,-23.2612"/>
<polygon fill="midnightblue" stroke="midnightblue" points="195.082,-26.4507 203.152,-19.5859 192.563,-19.9199 195.082,-26.4507"/>
</g>
</g>
</svg>
