<?xml version="1.0" encoding="UTF-8" standalone="no"?>
<!DOCTYPE svg PUBLIC "-//W3C//DTD SVG 1.1//EN"
 "http://www.w3.org/Graphics/SVG/1.1/DTD/svg11.dtd">
<!-- Generated by graphviz version 2.38.0 (20140413.2041)
 -->
<!-- Title: break_box Pages: 1 -->
<svg width="173pt" height="104pt"
 viewBox="0.00 0.00 173.00 104.00" xmlns="http://www.w3.org/2000/svg" xmlns:xlink="http://www.w3.org/1999/xlink">
<g id="graph0" class="graph" transform="scale(1 1) rotate(0) translate(4 100)">
<title>break_box</title>
<polygon fill="white" stroke="none" points="-4,4 -4,-100 169,-100 169,4 -4,4"/>
<!-- Node1 -->
<g id="node1" class="node"><title>Node1</title>
<polygon fill="#bfbfbf" stroke="black" points="0,-38.5 0,-57.5 65,-57.5 65,-38.5 0,-38.5"/>
<text text-anchor="middle" x="32.5" y="-45.5" font-family="Helvetica,sans-Serif" font-size="10.00">break_box</text>
</g>
<!-- Node2 -->
<g id="node2" class="node"><title>Node2</title>
<g id="a_node2"><a xlink:href="../../d5/d6d/mcut_8c.html#a2cc13bf415e790d8a9dbc86d3c87596c" target="_top" xlink:title="insert_elt">
<polygon fill="white" stroke="black" points="103,-76.5 103,-95.5 163,-95.5 163,-76.5 103,-76.5"/>
<text text-anchor="middle" x="133" y="-83.5" font-family="Helvetica,sans-Serif" font-size="10.00">insert_elt</text>
</a>
</g>
</g>
<!-- Node1&#45;&gt;Node2 -->
<g id="edge1" class="edge"><title>Node1&#45;&gt;Node2</title>
<path fill="none" stroke="midnightblue" d="M58.3557,-57.589C70.2545,-62.1794 84.6949,-67.7503 97.6255,-72.7388"/>
<polygon fill="midnightblue" stroke="midnightblue" points="96.5627,-76.0801 107.152,-76.4141 99.0822,-69.5493 96.5627,-76.0801"/>
</g>
<!-- Node3 -->
<g id="node3" class="node"><title>Node3</title>
<g id="a_node3"><a xlink:href="../../d5/d6d/mcut_8c.html#a7dc5d33353a90c6aecc9d4558e12a017" target="_top" xlink:title="radix_sort">
<polygon fill="white" stroke="black" points="101,-38.5 101,-57.5 165,-57.5 165,-38.5 101,-38.5"/>
<text text-anchor="middle" x="133" y="-45.5" font-family="Helvetica,sans-Serif" font-size="10.00">radix_sort</text>
</a>
</g>
</g>
<!-- Node1&#45;&gt;Node3 -->
<g id="edge2" class="edge"><title>Node1&#45;&gt;Node3</title>
<path fill="none" stroke="midnightblue" d="M65.2082,-48C73.2847,-48 82.0853,-48 90.5682,-48"/>
<polygon fill="midnightblue" stroke="midnightblue" points="90.6881,-51.5001 100.688,-48 90.688,-44.5001 90.6881,-51.5001"/>
</g>
<!-- Node4 -->
<g id="node4" class="node"><title>Node4</title>
<g id="a_node4"><a xlink:href="../../d5/d6d/mcut_8c.html#af91e23de018667a12c4978e1f362dd16" target="_top" xlink:title="split_box">
<polygon fill="white" stroke="black" points="104,-0.5 104,-19.5 162,-19.5 162,-0.5 104,-0.5"/>
<text text-anchor="middle" x="133" y="-7.5" font-family="Helvetica,sans-Serif" font-size="10.00">split_box</text>
</a>
</g>
</g>
<!-- Node1&#45;&gt;Node4 -->
<g id="edge3" class="edge"><title>Node1&#45;&gt;Node4</title>
<path fill="none" stroke="midnightblue" d="M58.3557,-38.411C70.2545,-33.8206 84.6949,-28.2497 97.6255,-23.2612"/>
<polygon fill="midnightblue" stroke="midnightblue" points="99.0822,-26.4507 107.152,-19.5859 96.5627,-19.9199 99.0822,-26.4507"/>
</g>
</g>
</svg>
