<?xml version="1.0" encoding="UTF-8" standalone="no"?>
<!DOCTYPE svg PUBLIC "-//W3C//DTD SVG 1.1//EN"
 "http://www.w3.org/Graphics/SVG/1.1/DTD/svg11.dtd">
<!-- Generated by graphviz version 2.38.0 (20140413.2041)
 -->
<!-- Title: timer.c Pages: 1 -->
<svg width="367pt" height="84pt"
 viewBox="0.00 0.00 367.00 84.00" xmlns="http://www.w3.org/2000/svg" xmlns:xlink="http://www.w3.org/1999/xlink">
<g id="graph0" class="graph" transform="scale(1 1) rotate(0) translate(4 80)">
<title>timer.c</title>
<polygon fill="white" stroke="none" points="-4,4 -4,-80 363,-80 363,4 -4,4"/>
<!-- Node1 -->
<g id="node1" class="node"><title>Node1</title>
<polygon fill="#bfbfbf" stroke="black" points="139,-56.5 139,-75.5 186,-75.5 186,-56.5 139,-56.5"/>
<text text-anchor="middle" x="162.5" y="-63.5" font-family="Helvetica,sans-Serif" font-size="10.00">timer.c</text>
</g>
<!-- Node2 -->
<g id="node2" class="node"><title>Node2</title>
<polygon fill="white" stroke="#bfbfbf" points="0,-0.5 0,-19.5 49,-19.5 49,-0.5 0,-0.5"/>
<text text-anchor="middle" x="24.5" y="-7.5" font-family="Helvetica,sans-Serif" font-size="10.00">stdlib.h</text>
</g>
<!-- Node1&#45;&gt;Node2 -->
<g id="edge1" class="edge"><title>Node1&#45;&gt;Node2</title>
<path fill="none" stroke="midnightblue" d="M140.633,-56.4435C117.721,-47.4776 81.5247,-33.314 55.6335,-23.1827"/>
<polygon fill="midnightblue" stroke="midnightblue" points="56.8521,-19.9011 46.2642,-19.5164 54.3012,-26.4198 56.8521,-19.9011"/>
</g>
<!-- Node3 -->
<g id="node3" class="node"><title>Node3</title>
<polygon fill="white" stroke="#bfbfbf" points="67,-0.5 67,-19.5 118,-19.5 118,-0.5 67,-0.5"/>
<text text-anchor="middle" x="92.5" y="-7.5" font-family="Helvetica,sans-Serif" font-size="10.00">string.h</text>
</g>
<!-- Node1&#45;&gt;Node3 -->
<g id="edge2" class="edge"><title>Node1&#45;&gt;Node3</title>
<path fill="none" stroke="midnightblue" d="M151.253,-56.324C140.703,-48.1849 124.699,-35.8395 112.058,-26.0874"/>
<polygon fill="midnightblue" stroke="midnightblue" points="114.007,-23.1707 103.951,-19.8339 109.731,-28.7132 114.007,-23.1707"/>
</g>
<!-- Node4 -->
<g id="node4" class="node"><title>Node4</title>
<polygon fill="white" stroke="#bfbfbf" points="136,-0.5 136,-19.5 189,-19.5 189,-0.5 136,-0.5"/>
<text text-anchor="middle" x="162.5" y="-7.5" font-family="Helvetica,sans-Serif" font-size="10.00">signal.h</text>
</g>
<!-- Node1&#45;&gt;Node4 -->
<g id="edge3" class="edge"><title>Node1&#45;&gt;Node4</title>
<path fill="none" stroke="midnightblue" d="M162.5,-56.083C162.5,-49.0059 162.5,-38.8611 162.5,-29.9865"/>
<polygon fill="midnightblue" stroke="midnightblue" points="166,-29.751 162.5,-19.7511 159,-29.7511 166,-29.751"/>
</g>
<!-- Node5 -->
<g id="node5" class="node"><title>Node5</title>
<polygon fill="white" stroke="#bfbfbf" points="207,-0.5 207,-19.5 270,-19.5 270,-0.5 207,-0.5"/>
<text text-anchor="middle" x="238.5" y="-7.5" font-family="Helvetica,sans-Serif" font-size="10.00">sys/time.h</text>
</g>
<!-- Node1&#45;&gt;Node5 -->
<g id="edge4" class="edge"><title>Node1&#45;&gt;Node5</title>
<path fill="none" stroke="midnightblue" d="M174.711,-56.324C186.276,-48.1066 203.875,-35.6017 217.661,-25.8069"/>
<polygon fill="midnightblue" stroke="midnightblue" points="219.943,-28.4791 226.067,-19.8339 215.888,-22.7729 219.943,-28.4791"/>
</g>
<!-- Node6 -->
<g id="node6" class="node"><title>Node6</title>
<polygon fill="white" stroke="#bfbfbf" points="288,-0.5 288,-19.5 359,-19.5 359,-0.5 288,-0.5"/>
<text text-anchor="middle" x="323.5" y="-7.5" font-family="Helvetica,sans-Serif" font-size="10.00">rle_config.h</text>
</g>
<!-- Node1&#45;&gt;Node6 -->
<g id="edge5" class="edge"><title>Node1&#45;&gt;Node6</title>
<path fill="none" stroke="midnightblue" d="M186.256,-57.0321C213.25,-47.9784 257.563,-33.1156 288.511,-22.7356"/>
<polygon fill="midnightblue" stroke="midnightblue" points="289.682,-26.0343 298.05,-19.536 287.456,-19.3977 289.682,-26.0343"/>
</g>
</g>
</svg>
