<?xml version="1.0" encoding="UTF-8" standalone="no"?>
<!DOCTYPE svg PUBLIC "-//W3C//DTD SVG 1.1//EN"
 "http://www.w3.org/Graphics/SVG/1.1/DTD/svg11.dtd">
<!-- Generated by graphviz version 2.38.0 (20140413.2041)
 -->
<!-- Title: main Pages: 1 -->
<!--zoomable 522 -->
<svg id="main" version="1.1" xmlns="http://www.w3.org/2000/svg" xmlns:xlink="http://www.w3.org/1999/xlink" xml:space="preserve" onload="init(evt)">
<style type="text/css"><![CDATA[
.edge:hover path { stroke: red; }
.edge:hover polygon { stroke: red; fill: red; }
]]></style>
<script type="text/javascript"><![CDATA[
var edges = document.getElementsByTagName('g');
if (edges && edges.length) {
  for (var i=0;i<edges.length;i++) {
    if (edges[i].id.substr(0,4)=='edge') {
      edges[i].setAttribute('class','edge');
    }
  }
}
]]></script>
        <defs>
                <circle id="rim" cx="0" cy="0" r="7"/>
                <circle id="rim2" cx="0" cy="0" r="3.5"/>
                <g id="zoomPlus">
                        <use xlink:href="#rim" fill="#404040">
                                <set attributeName="fill" to="#808080" begin="zoomplus.mouseover" end="zoomplus.mouseout"/>
                        </use>
                        <path d="M-4,0h8M0,-4v8" fill="none" stroke="white" stroke-width="1.5" pointer-events="none"/>
                </g>
                <g id="zoomMin">
                        <use xlink:href="#rim" fill="#404040">
                                <set attributeName="fill" to="#808080" begin="zoomminus.mouseover" end="zoomminus.mouseout"/>
                        </use>
                        <path d="M-4,0h8" fill="none" stroke="white" stroke-width="1.5" pointer-events="none"/>
                </g>
                <g id="dirArrow">
                        <path fill="none" stroke="white" stroke-width="1.5" d="M0,-3.0v7 M-2.5,-0.5L0,-3.0L2.5,-0.5"/>
                </g>
               <g id="resetDef">
                       <use xlink:href="#rim2" fill="#404040">
                               <set attributeName="fill" to="#808080" begin="reset.mouseover" end="reset.mouseout"/>
                       </use>
               </g>
        </defs>

<script type="text/javascript">
var viewWidth = 523;
var viewHeight = 522;
var sectionId = 'dynsection-1';
</script>
<script xlink:href="../../svgpan.js"/>
<svg id="graph" class="graph">
<g id="viewport">
<title>main</title>
<polygon fill="white" stroke="none" points="-4,4 -4,-518 519,-518 519,4 -4,4"/>
<!-- Node1 -->
<g id="node1" class="node"><title>Node1</title>
<polygon fill="#bfbfbf" stroke="black" points="0,-275.5 0,-294.5 39,-294.5 39,-275.5 0,-275.5"/>
<text text-anchor="middle" x="19.5" y="-282.5" font-family="Helvetica,sans-Serif" font-size="10.00">main</text>
</g>
<!-- Node2 -->
<g id="node2" class="node"><title>Node2</title>
<g id="a_node2"><a xlink:href="../../d4/db0/scanargs_8c.html#a7ea6d702c0484056c8504d6ce7fede08" target="_top" xlink:title="scanargs">
<polygon fill="white" stroke="black" points="85,-494.5 85,-513.5 145,-513.5 145,-494.5 85,-494.5"/>
<text text-anchor="middle" x="115" y="-501.5" font-family="Helvetica,sans-Serif" font-size="10.00">scanargs</text>
</a>
</g>
</g>
<!-- Node1&#45;&gt;Node2 -->
<g id="edge1" class="edge"><title>Node1&#45;&gt;Node2</title>
<path fill="none" stroke="midnightblue" d="M20.7822,-294.596C22.1324,-324.919 29.9365,-420.207 75,-480 77.4074,-483.194 80.375,-486.06 83.5895,-488.603"/>
<polygon fill="midnightblue" stroke="midnightblue" points="81.6732,-491.533 91.9103,-494.263 85.61,-485.744 81.6732,-491.533"/>
</g>
<!-- Node4 -->
<g id="node4" class="node"><title>Node4</title>
<g id="a_node4"><a xlink:href="../../d2/df3/rle__hdr_8c.html#a8ba0e5b11d1e39ab7227f1686e676c86" target="_top" xlink:title="rle_hdr_init">
<polygon fill="white" stroke="black" points="80,-247.5 80,-266.5 150,-266.5 150,-247.5 80,-247.5"/>
<text text-anchor="middle" x="115" y="-254.5" font-family="Helvetica,sans-Serif" font-size="10.00">rle_hdr_init</text>
</a>
</g>
</g>
<!-- Node1&#45;&gt;Node4 -->
<g id="edge3" class="edge"><title>Node1&#45;&gt;Node4</title>
<path fill="none" stroke="midnightblue" d="M39.4211,-279.334C48.9136,-276.491 60.8128,-272.928 72.3004,-269.488"/>
<polygon fill="midnightblue" stroke="midnightblue" points="73.6432,-272.739 82.2188,-266.517 71.635,-266.033 73.6432,-272.739"/>
</g>
<!-- Node6 -->
<g id="node6" class="node"><title>Node6</title>
<g id="a_node6"><a xlink:href="../../d0/dcc/rletorla_8c.html#aafde19f7d36ca163a143579c1b125b6d" target="_top" xlink:title="free">
<polygon fill="white" stroke="black" points="464.5,-342.5 464.5,-361.5 499.5,-361.5 499.5,-342.5 464.5,-342.5"/>
<text text-anchor="middle" x="482" y="-349.5" font-family="Helvetica,sans-Serif" font-size="10.00">free</text>
</a>
</g>
</g>
<!-- Node1&#45;&gt;Node6 -->
<g id="edge20" class="edge"><title>Node1&#45;&gt;Node6</title>
<path fill="none" stroke="midnightblue" d="M20.7202,-294.709C21.912,-321.94 29.3485,-399.373 75,-435 134.213,-481.211 349.877,-474.709 413,-434 440.102,-416.522 426.387,-393.993 449,-371 451.039,-368.927 453.349,-366.996 455.774,-365.22"/>
<polygon fill="midnightblue" stroke="midnightblue" points="457.691,-368.149 464.222,-359.806 453.914,-362.255 457.691,-368.149"/>
</g>
<!-- Node8 -->
<g id="node8" class="node"><title>Node8</title>
<g id="a_node8"><a xlink:href="../../d0/dcc/rletorla_8c.html#ab7e36af3707843f77cc5b4e831c2fa6d" target="_top" xlink:title="malloc">
<polygon fill="white" stroke="black" points="458.5,-209.5 458.5,-228.5 505.5,-228.5 505.5,-209.5 458.5,-209.5"/>
<text text-anchor="middle" x="482" y="-216.5" font-family="Helvetica,sans-Serif" font-size="10.00">malloc</text>
</a>
</g>
</g>
<!-- Node1&#45;&gt;Node8 -->
<g id="edge14" class="edge"><title>Node1&#45;&gt;Node8</title>
<path fill="none" stroke="midnightblue" d="M22.8806,-275.419C28.4374,-255.028 44.1908,-207.074 75,-181 116.412,-145.953 137.427,-151.551 191,-143 227.867,-137.115 238.248,-136.437 275,-143 341.249,-154.831 414.091,-186.487 452.928,-204.999"/>
<polygon fill="midnightblue" stroke="midnightblue" points="451.517,-208.204 462.044,-209.402 454.562,-201.901 451.517,-208.204"/>
</g>
<!-- Node9 -->
<g id="node9" class="node"><title>Node9</title>
<g id="a_node9"><a xlink:href="../../d2/df3/rle__hdr_8c.html#a82e79385f2d45cc3b80ce0f4f369eae5" target="_top" xlink:title="rle_names">
<polygon fill="white" stroke="black" points="329,-266.5 329,-285.5 395,-285.5 395,-266.5 329,-266.5"/>
<text text-anchor="middle" x="362" y="-273.5" font-family="Helvetica,sans-Serif" font-size="10.00">rle_names</text>
</a>
</g>
</g>
<!-- Node1&#45;&gt;Node9 -->
<g id="edge12" class="edge"><title>Node1&#45;&gt;Node9</title>
<path fill="none" stroke="midnightblue" d="M39.2918,-284.503C92.2456,-283.104 243.676,-279.101 318.335,-277.128"/>
<polygon fill="midnightblue" stroke="midnightblue" points="318.868,-280.615 328.772,-276.852 318.683,-273.617 318.868,-280.615"/>
</g>
<!-- Node10 -->
<g id="node10" class="node"><title>Node10</title>
<g id="a_node10"><a xlink:href="../../d8/d30/cmd__name_8c.html#a271249070fdd12c176777c77d76f888f" target="_top" xlink:title="cmd_name">
<polygon fill="white" stroke="black" points="81,-38.5 81,-57.5 149,-57.5 149,-38.5 81,-38.5"/>
<text text-anchor="middle" x="115" y="-45.5" font-family="Helvetica,sans-Serif" font-size="10.00">cmd_name</text>
</a>
</g>
</g>
<!-- Node1&#45;&gt;Node10 -->
<g id="edge13" class="edge"><title>Node1&#45;&gt;Node10</title>
<path fill="none" stroke="midnightblue" d="M20.501,-275.444C20.9701,-243.403 26.332,-138.078 75,-72 77.3721,-68.7793 80.3182,-65.8976 83.521,-63.346"/>
<polygon fill="midnightblue" stroke="midnightblue" points="85.5416,-66.2045 91.8307,-57.6782 81.5972,-60.4215 85.5416,-66.2045"/>
</g>
<!-- Node11 -->
<g id="node11" class="node"><title>Node11</title>
<g id="a_node11"><a xlink:href="../../de/d4e/rle__open__f_8c.html#a89733a45961817885603ae01210290b7" target="_top" xlink:title="rle_open_f">
<polygon fill="white" stroke="black" points="81,-380.5 81,-399.5 149,-399.5 149,-380.5 81,-380.5"/>
<text text-anchor="middle" x="115" y="-387.5" font-family="Helvetica,sans-Serif" font-size="10.00">rle_open_f</text>
</a>
</g>
</g>
<!-- Node1&#45;&gt;Node11 -->
<g id="edge15" class="edge"><title>Node1&#45;&gt;Node11</title>
<path fill="none" stroke="midnightblue" d="M25.2609,-294.697C33.5954,-310.946 52.1377,-344.048 75,-366 78.3816,-369.247 82.2747,-372.272 86.2641,-375.004"/>
<polygon fill="midnightblue" stroke="midnightblue" points="84.662,-378.131 94.9905,-380.491 88.3884,-372.205 84.662,-378.131"/>
</g>
<!-- Node14 -->
<g id="node14" class="node"><title>Node14</title>
<g id="a_node14"><a xlink:href="../../d8/def/rle__addhist_8c.html#a4f9433d6e4e203d0ecea1c7d3837afc3" target="_top" xlink:title="rle_addhist">
<polygon fill="white" stroke="black" points="198.5,-57.5 198.5,-76.5 267.5,-76.5 267.5,-57.5 198.5,-57.5"/>
<text text-anchor="middle" x="233" y="-64.5" font-family="Helvetica,sans-Serif" font-size="10.00">rle_addhist</text>
</a>
</g>
</g>
<!-- Node1&#45;&gt;Node14 -->
<g id="edge21" class="edge"><title>Node1&#45;&gt;Node14</title>
<path fill="none" stroke="midnightblue" d="M20.4766,-275.422C20.9458,-246.125 26.4803,-156.87 75,-110 105.117,-80.9066 152.967,-71.0863 187.932,-67.9751"/>
<polygon fill="midnightblue" stroke="midnightblue" points="188.62,-71.4342 198.336,-67.2111 188.107,-64.453 188.62,-71.4342"/>
</g>
<!-- Node19 -->
<g id="node19" class="node"><title>Node19</title>
<g id="a_node19"><a xlink:href="../../d9/d2a/rle__putrow_8c.html#af88a82b331cd6f425d2a2cc1623944c6" target="_top" xlink:title="rle_put_setup">
<polygon fill="white" stroke="black" points="75,-0.5 75,-19.5 155,-19.5 155,-0.5 75,-0.5"/>
<text text-anchor="middle" x="115" y="-7.5" font-family="Helvetica,sans-Serif" font-size="10.00">rle_put_setup</text>
</a>
</g>
</g>
<!-- Node1&#45;&gt;Node19 -->
<g id="edge28" class="edge"><title>Node1&#45;&gt;Node19</title>
<path fill="none" stroke="midnightblue" d="M21.4276,-275.325C25.5992,-233.544 43.7915,-68.9135 75,-29 75.9278,-27.8134 76.9487,-26.6962 78.0425,-25.6448"/>
<polygon fill="midnightblue" stroke="midnightblue" points="80.1868,-28.4118 86.1041,-19.6234 75.9978,-22.8035 80.1868,-28.4118"/>
</g>
<!-- Node21 -->
<g id="node21" class="node"><title>Node21</title>
<g id="a_node21"><a xlink:href="../../da/dbc/rle__row__alc_8c.html#abf83029f1ab364a8cb72524f58d70a3b" target="_top" xlink:title="rle_row_alloc">
<polygon fill="white" stroke="black" points="322,-304.5 322,-323.5 402,-323.5 402,-304.5 322,-304.5"/>
<text text-anchor="middle" x="362" y="-311.5" font-family="Helvetica,sans-Serif" font-size="10.00">rle_row_alloc</text>
</a>
</g>
</g>
<!-- Node1&#45;&gt;Node21 -->
<g id="edge30" class="edge"><title>Node1&#45;&gt;Node21</title>
<path fill="none" stroke="midnightblue" d="M39.0603,-289.4C49.551,-291.722 62.9419,-294.411 75,-296 157.654,-306.891 254.642,-311.236 311.786,-312.939"/>
<polygon fill="midnightblue" stroke="midnightblue" points="311.884,-316.443 321.979,-313.227 312.082,-309.446 311.884,-316.443"/>
</g>
<!-- Node22 -->
<g id="node22" class="node"><title>Node22</title>
<g id="a_node22"><a xlink:href="../../d9/d2a/rle__putrow_8c.html#aa26532b01bc4f49b7383765cdc23ea72" target="_top" xlink:title="rle_putrow">
<polygon fill="white" stroke="black" points="82,-190.5 82,-209.5 148,-209.5 148,-190.5 82,-190.5"/>
<text text-anchor="middle" x="115" y="-197.5" font-family="Helvetica,sans-Serif" font-size="10.00">rle_putrow</text>
</a>
</g>
</g>
<!-- Node1&#45;&gt;Node22 -->
<g id="edge33" class="edge"><title>Node1&#45;&gt;Node22</title>
<path fill="none" stroke="midnightblue" d="M31.2256,-275.249C47.007,-260.903 76.6849,-233.923 95.8839,-216.469"/>
<polygon fill="midnightblue" stroke="midnightblue" points="98.3544,-218.953 103.399,-209.637 93.6457,-213.774 98.3544,-218.953"/>
</g>
<!-- Node24 -->
<g id="node24" class="node"><title>Node24</title>
<g id="a_node24"><a xlink:href="../../d9/d2a/rle__putrow_8c.html#af4fab734a5d227ad2ae95840f56fff3b" target="_top" xlink:title="rle_puteof">
<polygon fill="white" stroke="black" points="201,-418.5 201,-437.5 265,-437.5 265,-418.5 201,-418.5"/>
<text text-anchor="middle" x="233" y="-425.5" font-family="Helvetica,sans-Serif" font-size="10.00">rle_puteof</text>
</a>
</g>
</g>
<!-- Node1&#45;&gt;Node24 -->
<g id="edge36" class="edge"><title>Node1&#45;&gt;Node24</title>
<path fill="none" stroke="midnightblue" d="M21.5646,-294.731C24.7438,-318.643 36.4813,-380.407 75,-409 108.165,-433.619 156.568,-435.865 190.847,-433.531"/>
<polygon fill="midnightblue" stroke="midnightblue" points="191.327,-437.003 200.999,-432.679 190.742,-430.027 191.327,-437.003"/>
</g>
<!-- Node3 -->
<g id="node3" class="node"><title>Node3</title>
<g id="a_node3"><a xlink:href="../../d4/db0/scanargs_8c.html#a862219039664df6eb3cfced58addf830" target="_top" xlink:title="_do_scanargs">
<polygon fill="white" stroke="black" points="191,-494.5 191,-513.5 275,-513.5 275,-494.5 191,-494.5"/>
<text text-anchor="middle" x="233" y="-501.5" font-family="Helvetica,sans-Serif" font-size="10.00">_do_scanargs</text>
</a>
</g>
</g>
<!-- Node2&#45;&gt;Node3 -->
<g id="edge2" class="edge"><title>Node2&#45;&gt;Node3</title>
<path fill="none" stroke="midnightblue" d="M145.272,-504C156.073,-504 168.654,-504 180.827,-504"/>
<polygon fill="midnightblue" stroke="midnightblue" points="180.909,-507.5 190.909,-504 180.909,-500.5 180.909,-507.5"/>
</g>
<!-- Node5 -->
<g id="node5" class="node"><title>Node5</title>
<g id="a_node5"><a xlink:href="../../d2/df3/rle__hdr_8c.html#a16c4da6201b3b8cf55127b9ca968d253" target="_top" xlink:title="rle_hdr_clear">
<polygon fill="white" stroke="black" points="322,-342.5 322,-361.5 402,-361.5 402,-342.5 322,-342.5"/>
<text text-anchor="middle" x="362" y="-349.5" font-family="Helvetica,sans-Serif" font-size="10.00">rle_hdr_clear</text>
</a>
</g>
</g>
<!-- Node4&#45;&gt;Node5 -->
<g id="edge4" class="edge"><title>Node4&#45;&gt;Node5</title>
<path fill="none" stroke="midnightblue" d="M140.295,-266.545C177.16,-281.011 249.454,-309.313 311,-333 315.911,-334.89 321.099,-336.875 326.199,-338.819"/>
<polygon fill="midnightblue" stroke="midnightblue" points="325.213,-342.189 335.804,-342.473 327.702,-335.646 325.213,-342.189"/>
</g>
<!-- Node7 -->
<g id="node7" class="node"><title>Node7</title>
<g id="a_node7"><a xlink:href="../../d2/df3/rle__hdr_8c.html#afc916e29aea8788e0878ca315ff69821" target="_top" xlink:title="rle_hdr_cp">
<polygon fill="white" stroke="black" points="199,-228.5 199,-247.5 267,-247.5 267,-228.5 199,-228.5"/>
<text text-anchor="middle" x="233" y="-235.5" font-family="Helvetica,sans-Serif" font-size="10.00">rle_hdr_cp</text>
</a>
</g>
</g>
<!-- Node4&#45;&gt;Node7 -->
<g id="edge6" class="edge"><title>Node4&#45;&gt;Node7</title>
<path fill="none" stroke="midnightblue" d="M140.035,-247.47C154.104,-244.075 172.289,-240.777 188.77,-238.529"/>
<polygon fill="midnightblue" stroke="midnightblue" points="189.273,-241.994 198.759,-237.274 188.401,-235.048 189.273,-241.994"/>
</g>
<!-- Node5&#45;&gt;Node6 -->
<g id="edge5" class="edge"><title>Node5&#45;&gt;Node6</title>
<path fill="none" stroke="midnightblue" d="M402.292,-352C419.232,-352 438.621,-352 453.916,-352"/>
<polygon fill="midnightblue" stroke="midnightblue" points="454.236,-355.5 464.236,-352 454.236,-348.5 454.236,-355.5"/>
</g>
<!-- Node7&#45;&gt;Node4 -->
<g id="edge7" class="edge"><title>Node7&#45;&gt;Node4</title>
<path fill="none" stroke="midnightblue" d="M207.991,-247.523C194.284,-250.833 176.663,-254.05 160.517,-256.294"/>
<polygon fill="midnightblue" stroke="midnightblue" points="159.651,-252.876 150.176,-257.618 160.54,-259.819 159.651,-252.876"/>
</g>
<!-- Node7&#45;&gt;Node8 -->
<g id="edge8" class="edge"><title>Node7&#45;&gt;Node8</title>
<path fill="none" stroke="midnightblue" d="M267.055,-235.457C314.474,-231.81 401.271,-225.133 448.423,-221.506"/>
<polygon fill="midnightblue" stroke="midnightblue" points="448.705,-224.995 458.407,-220.738 448.168,-218.015 448.705,-224.995"/>
</g>
<!-- Node7&#45;&gt;Node9 -->
<g id="edge9" class="edge"><title>Node7&#45;&gt;Node9</title>
<path fill="none" stroke="midnightblue" d="M266.047,-247.589C282.141,-252.404 301.841,-258.299 319.117,-263.468"/>
<polygon fill="midnightblue" stroke="midnightblue" points="318.379,-266.901 328.963,-266.414 320.386,-260.194 318.379,-266.901"/>
</g>
<!-- Node9&#45;&gt;Node6 -->
<g id="edge10" class="edge"><title>Node9&#45;&gt;Node6</title>
<path fill="none" stroke="midnightblue" d="M393.104,-285.572C399.851,-288.223 406.832,-291.383 413,-295 432.147,-306.229 451.284,-322.876 464.355,-335.284"/>
<polygon fill="midnightblue" stroke="midnightblue" points="462.044,-337.918 471.656,-342.375 466.921,-332.897 462.044,-337.918"/>
</g>
<!-- Node9&#45;&gt;Node8 -->
<g id="edge11" class="edge"><title>Node9&#45;&gt;Node8</title>
<path fill="none" stroke="midnightblue" d="M382.96,-266.443C392.118,-262.052 403.114,-256.771 413,-252 425.869,-245.789 440.093,-238.891 452.191,-233.015"/>
<polygon fill="midnightblue" stroke="midnightblue" points="453.907,-236.072 461.371,-228.553 450.847,-229.776 453.907,-236.072"/>
</g>
<!-- Node12 -->
<g id="node12" class="node"><title>Node12</title>
<g id="a_node12"><a xlink:href="../../de/d4e/rle__open__f_8c.html#a5a0e62a00f907fce26e93b2f72adb2b0" target="_top" xlink:title="rle_open_f_noexit">
<polygon fill="white" stroke="black" points="311,-380.5 311,-399.5 413,-399.5 413,-380.5 311,-380.5"/>
<text text-anchor="middle" x="362" y="-387.5" font-family="Helvetica,sans-Serif" font-size="10.00">rle_open_f_noexit</text>
</a>
</g>
</g>
<!-- Node11&#45;&gt;Node12 -->
<g id="edge16" class="edge"><title>Node11&#45;&gt;Node12</title>
<path fill="none" stroke="midnightblue" d="M149.042,-390C187.738,-390 252.62,-390 300.427,-390"/>
<polygon fill="midnightblue" stroke="midnightblue" points="300.658,-393.5 310.658,-390 300.658,-386.5 300.658,-393.5"/>
</g>
<!-- Node12&#45;&gt;Node6 -->
<g id="edge19" class="edge"><title>Node12&#45;&gt;Node6</title>
<path fill="none" stroke="midnightblue" d="M392.776,-380.411C411.813,-374.28 436.281,-366.401 454.618,-360.496"/>
<polygon fill="midnightblue" stroke="midnightblue" points="455.914,-363.756 464.359,-357.359 453.768,-357.093 455.914,-363.756"/>
</g>
<!-- Node12&#45;&gt;Node8 -->
<g id="edge18" class="edge"><title>Node12&#45;&gt;Node8</title>
<path fill="none" stroke="midnightblue" d="M398.667,-380.491C403.886,-378.003 408.881,-374.889 413,-371 452.113,-334.075 470.292,-270.531 477.305,-238.567"/>
<polygon fill="midnightblue" stroke="midnightblue" points="480.754,-239.173 479.336,-228.674 473.897,-237.765 480.754,-239.173"/>
</g>
<!-- Node13 -->
<g id="node13" class="node"><title>Node13</title>
<g id="a_node13"><a xlink:href="../../de/d4e/rle__open__f_8c.html#a84fda810ae9b9bde82a6391d0b264ead" target="_top" xlink:title="my_popen">
<polygon fill="white" stroke="black" points="449,-380.5 449,-399.5 515,-399.5 515,-380.5 449,-380.5"/>
<text text-anchor="middle" x="482" y="-387.5" font-family="Helvetica,sans-Serif" font-size="10.00">my_popen</text>
</a>
</g>
</g>
<!-- Node12&#45;&gt;Node13 -->
<g id="edge17" class="edge"><title>Node12&#45;&gt;Node13</title>
<path fill="none" stroke="midnightblue" d="M413.043,-390C421.523,-390 430.255,-390 438.518,-390"/>
<polygon fill="midnightblue" stroke="midnightblue" points="438.678,-393.5 448.678,-390 438.678,-386.5 438.678,-393.5"/>
</g>
<!-- Node14&#45;&gt;Node8 -->
<g id="edge24" class="edge"><title>Node14&#45;&gt;Node8</title>
<path fill="none" stroke="midnightblue" d="M267.511,-76.0727C312.467,-88.6681 389.391,-111.837 413,-129 439.272,-148.099 460.045,-180.228 471.417,-200.487"/>
<polygon fill="midnightblue" stroke="midnightblue" points="468.387,-202.242 476.227,-209.369 474.542,-198.909 468.387,-202.242"/>
</g>
<!-- Node15 -->
<g id="node15" class="node"><title>Node15</title>
<g id="a_node15"><a xlink:href="../../db/db2/rle__getcom_8c.html#a9cefd612c381bf82c9cdf1f3a3b12dd6" target="_top" xlink:title="rle_getcom">
<polygon fill="white" stroke="black" points="327.5,-19.5 327.5,-38.5 396.5,-38.5 396.5,-19.5 327.5,-19.5"/>
<text text-anchor="middle" x="362" y="-26.5" font-family="Helvetica,sans-Serif" font-size="10.00">rle_getcom</text>
</a>
</g>
</g>
<!-- Node14&#45;&gt;Node15 -->
<g id="edge22" class="edge"><title>Node14&#45;&gt;Node15</title>
<path fill="none" stroke="midnightblue" d="M266.047,-57.411C282.141,-52.5956 301.841,-46.7012 319.117,-41.532"/>
<polygon fill="midnightblue" stroke="midnightblue" points="320.386,-44.8057 328.963,-38.5859 318.379,-38.0994 320.386,-44.8057"/>
</g>
<!-- Node17 -->
<g id="node17" class="node"><title>Node17</title>
<g id="a_node17"><a xlink:href="../../df/da5/rle__putcom_8c.html#a6fa8528c32d14763efe2a534e409e321" target="_top" xlink:title="rle_putcom">
<polygon fill="white" stroke="black" points="328,-57.5 328,-76.5 396,-76.5 396,-57.5 328,-57.5"/>
<text text-anchor="middle" x="362" y="-64.5" font-family="Helvetica,sans-Serif" font-size="10.00">rle_putcom</text>
</a>
</g>
</g>
<!-- Node14&#45;&gt;Node17 -->
<g id="edge25" class="edge"><title>Node14&#45;&gt;Node17</title>
<path fill="none" stroke="midnightblue" d="M267.7,-67C282.891,-67 301.024,-67 317.248,-67"/>
<polygon fill="midnightblue" stroke="midnightblue" points="317.583,-70.5001 327.583,-67 317.583,-63.5001 317.583,-70.5001"/>
</g>
<!-- Node16 -->
<g id="node16" class="node"><title>Node16</title>
<g id="a_node16"><a xlink:href="../../db/db2/rle__getcom_8c.html#a7502c8b599724ce86fee5df1311a2337" target="_top" xlink:title="match">
<polygon fill="white" stroke="black" points="459.5,-19.5 459.5,-38.5 504.5,-38.5 504.5,-19.5 459.5,-19.5"/>
<text text-anchor="middle" x="482" y="-26.5" font-family="Helvetica,sans-Serif" font-size="10.00">match</text>
</a>
</g>
</g>
<!-- Node15&#45;&gt;Node16 -->
<g id="edge23" class="edge"><title>Node15&#45;&gt;Node16</title>
<path fill="none" stroke="midnightblue" d="M396.814,-29C413.35,-29 433.136,-29 449.37,-29"/>
<polygon fill="midnightblue" stroke="midnightblue" points="449.456,-32.5001 459.456,-29 449.456,-25.5001 449.456,-32.5001"/>
</g>
<!-- Node17&#45;&gt;Node8 -->
<g id="edge26" class="edge"><title>Node17&#45;&gt;Node8</title>
<path fill="none" stroke="midnightblue" d="M390.92,-76.6165C398.713,-80.2506 406.749,-84.9986 413,-91 445.531,-122.23 465.84,-172.463 475.097,-199.789"/>
<polygon fill="midnightblue" stroke="midnightblue" points="471.787,-200.929 478.201,-209.362 478.446,-198.769 471.787,-200.929"/>
</g>
<!-- Node18 -->
<g id="node18" class="node"><title>Node18</title>
<g id="a_node18"><a xlink:href="../../df/da5/rle__putcom_8c.html#a7502c8b599724ce86fee5df1311a2337" target="_top" xlink:title="match">
<polygon fill="white" stroke="black" points="459.5,-57.5 459.5,-76.5 504.5,-76.5 504.5,-57.5 459.5,-57.5"/>
<text text-anchor="middle" x="482" y="-64.5" font-family="Helvetica,sans-Serif" font-size="10.00">match</text>
</a>
</g>
</g>
<!-- Node17&#45;&gt;Node18 -->
<g id="edge27" class="edge"><title>Node17&#45;&gt;Node18</title>
<path fill="none" stroke="midnightblue" d="M396.184,-67C412.735,-67 432.664,-67 449.044,-67"/>
<polygon fill="midnightblue" stroke="midnightblue" points="449.224,-70.5001 459.224,-67 449.224,-63.5001 449.224,-70.5001"/>
</g>
<!-- Node20 -->
<g id="node20" class="node"><title>Node20</title>
<g id="a_node20"><a xlink:href="../../d9/d2a/rle__putrow_8c.html#a46d9789104d5d1f09253a808fdad5346" target="_top" xlink:title="rle_put_init">
<polygon fill="white" stroke="black" points="199,-0.5 199,-19.5 267,-19.5 267,-0.5 199,-0.5"/>
<text text-anchor="middle" x="233" y="-7.5" font-family="Helvetica,sans-Serif" font-size="10.00">rle_put_init</text>
</a>
</g>
</g>
<!-- Node19&#45;&gt;Node20 -->
<g id="edge29" class="edge"><title>Node19&#45;&gt;Node20</title>
<path fill="none" stroke="midnightblue" d="M155.272,-10C166.031,-10 177.753,-10 188.722,-10"/>
<polygon fill="midnightblue" stroke="midnightblue" points="188.953,-13.5001 198.953,-10 188.953,-6.5001 188.953,-13.5001"/>
</g>
<!-- Node21&#45;&gt;Node6 -->
<g id="edge32" class="edge"><title>Node21&#45;&gt;Node6</title>
<path fill="none" stroke="midnightblue" d="M392.776,-323.589C411.813,-329.72 436.281,-337.599 454.618,-343.504"/>
<polygon fill="midnightblue" stroke="midnightblue" points="453.768,-346.907 464.359,-346.641 455.914,-340.244 453.768,-346.907"/>
</g>
<!-- Node21&#45;&gt;Node8 -->
<g id="edge31" class="edge"><title>Node21&#45;&gt;Node8</title>
<path fill="none" stroke="midnightblue" d="M395.082,-304.423C401.3,-301.858 407.566,-298.734 413,-295 436.024,-279.18 456.498,-253.991 468.819,-236.991"/>
<polygon fill="midnightblue" stroke="midnightblue" points="471.9,-238.694 474.79,-228.501 466.175,-234.667 471.9,-238.694"/>
</g>
<!-- Node22&#45;&gt;Node8 -->
<g id="edge34" class="edge"><title>Node22&#45;&gt;Node8</title>
<path fill="none" stroke="midnightblue" d="M148.071,-201.669C216.928,-205.254 378.302,-213.654 447.991,-217.282"/>
<polygon fill="midnightblue" stroke="midnightblue" points="448.191,-220.797 458.36,-217.821 448.555,-213.806 448.191,-220.797"/>
</g>
<!-- Node23 -->
<g id="node23" class="node"><title>Node23</title>
<g id="a_node23"><a xlink:href="../../d9/d2a/rle__putrow_8c.html#aaa4133bf4a6cbf287444448497631f26" target="_top" xlink:title="findruns">
<polygon fill="white" stroke="black" points="206,-152.5 206,-171.5 260,-171.5 260,-152.5 206,-152.5"/>
<text text-anchor="middle" x="233" y="-159.5" font-family="Helvetica,sans-Serif" font-size="10.00">findruns</text>
</a>
</g>
</g>
<!-- Node22&#45;&gt;Node23 -->
<g id="edge35" class="edge"><title>Node22&#45;&gt;Node23</title>
<path fill="none" stroke="midnightblue" d="M145.272,-190.411C160.723,-185.349 179.814,-179.095 196.148,-173.745"/>
<polygon fill="midnightblue" stroke="midnightblue" points="197.491,-176.988 205.904,-170.549 195.311,-170.336 197.491,-176.988"/>
</g>
<!-- Node24&#45;&gt;Node6 -->
<g id="edge37" class="edge"><title>Node24&#45;&gt;Node6</title>
<path fill="none" stroke="midnightblue" d="M265.234,-430.998C302.438,-433.192 365.514,-432.473 413,-409 433.856,-398.691 430.824,-385.522 449,-371 451.076,-369.341 453.311,-367.725 455.6,-366.181"/>
<polygon fill="midnightblue" stroke="midnightblue" points="457.845,-368.906 464.475,-360.642 454.139,-362.967 457.845,-368.906"/>
</g>
</g>
</svg>
        <g id="navigator" transform="translate(0 0)" fill="#404254">
                <rect fill="#f2f5e9" fill-opacity="0.5" stroke="#606060" stroke-width=".5" x="0" y="0" width="60" height="60"/>
                <use id="zoomplus" xlink:href="#zoomPlus" x="17" y="9" onmousedown="handleZoom(evt,'in')"/>
                <use id="zoomminus" xlink:href="#zoomMin" x="42" y="9" onmousedown="handleZoom(evt,'out')"/>
                <use id="reset" xlink:href="#resetDef" x="30" y="36" onmousedown="handleReset()"/>
                <g id="arrowUp" xlink:href="#dirArrow" transform="translate(30 24)" onmousedown="handlePan(0,-1)">
                  <use xlink:href="#rim" fill="#404040">
                        <set attributeName="fill" to="#808080" begin="arrowUp.mouseover" end="arrowUp.mouseout"/>
                  </use>
                  <path fill="none" stroke="white" stroke-width="1.5" d="M0,-3.0v7 M-2.5,-0.5L0,-3.0L2.5,-0.5"/>
                </g>
                <g id="arrowRight" xlink:href="#dirArrow" transform="rotate(90) translate(36 -43)" onmousedown="handlePan(1,0)">
                  <use xlink:href="#rim" fill="#404040">
                        <set attributeName="fill" to="#808080" begin="arrowRight.mouseover" end="arrowRight.mouseout"/>
                  </use>
                  <path fill="none" stroke="white" stroke-width="1.5" d="M0,-3.0v7 M-2.5,-0.5L0,-3.0L2.5,-0.5"/>
                </g>
                <g id="arrowDown" xlink:href="#dirArrow" transform="rotate(180) translate(-30 -48)" onmousedown="handlePan(0,1)">
                  <use xlink:href="#rim" fill="#404040">
                        <set attributeName="fill" to="#808080" begin="arrowDown.mouseover" end="arrowDown.mouseout"/>
                  </use>
                  <path fill="none" stroke="white" stroke-width="1.5" d="M0,-3.0v7 M-2.5,-0.5L0,-3.0L2.5,-0.5"/>
                </g>
                <g id="arrowLeft" xlink:href="#dirArrow" transform="rotate(270) translate(-36 17)" onmousedown="handlePan(-1,0)">
                  <use xlink:href="#rim" fill="#404040">
                        <set attributeName="fill" to="#808080" begin="arrowLeft.mouseover" end="arrowLeft.mouseout"/>
                  </use>
                  <path fill="none" stroke="white" stroke-width="1.5" d="M0,-3.0v7 M-2.5,-0.5L0,-3.0L2.5,-0.5"/>
                </g>
        </g>
        <svg viewBox="0 0 15 15" width="100%" height="30px" preserveAspectRatio="xMaxYMin meet">
         <g id="arrow_out" transform="scale(0.3 0.3)">
          <a xlink:href="graytorle_8c_ade521a0600ded19f1720b6f6df59b480_cgraph_org.svg" target="_base">
           <rect id="button" ry="5" rx="5" y="6" x="6" height="38" width="38"
                fill="#f2f5e9" fill-opacity="0.5" stroke="#606060" stroke-width="1.0"/>
           <path id="arrow"
             d="M 11.500037,31.436501 C 11.940474,20.09759 22.043105,11.32322 32.158766,21.979434 L 37.068811,17.246167 C 37.068811,17.246167 37.088388,32 37.088388,32 L 22.160133,31.978069 C 22.160133,31.978069 26.997745,27.140456 26.997745,27.140456 C 18.528582,18.264221 13.291696,25.230495 11.500037,31.436501 z"
             style="fill:#404040;"/>
          </a>
         </g>
        </svg>
</svg>
