<?xml version="1.0" encoding="UTF-8" standalone="no"?>
<!DOCTYPE svg PUBLIC "-//W3C//DTD SVG 1.1//EN"
 "http://www.w3.org/Graphics/SVG/1.1/DTD/svg11.dtd">
<!-- Generated by graphviz version 2.38.0 (20140413.2041)
 -->
<!-- Title: cnv/rastorle.c Pages: 1 -->
<svg width="263pt" height="196pt"
 viewBox="0.00 0.00 263.07 196.00" xmlns="http://www.w3.org/2000/svg" xmlns:xlink="http://www.w3.org/1999/xlink">
<g id="graph0" class="graph" transform="scale(1 1) rotate(0) translate(4 192)">
<title>cnv/rastorle.c</title>
<polygon fill="white" stroke="none" points="-4,4 -4,-192 259.072,-192 259.072,4 -4,4"/>
<!-- Node1 -->
<g id="node1" class="node"><title>Node1</title>
<polygon fill="#bfbfbf" stroke="black" points="46.5722,-168.5 46.5722,-187.5 126.572,-187.5 126.572,-168.5 46.5722,-168.5"/>
<text text-anchor="middle" x="86.5722" y="-175.5" font-family="Helvetica,sans-Serif" font-size="10.00">cnv/rastorle.c</text>
</g>
<!-- Node2 -->
<g id="node2" class="node"><title>Node2</title>
<polygon fill="white" stroke="#bfbfbf" points="28.0722,-56.5 28.0722,-75.5 75.0722,-75.5 75.0722,-56.5 28.0722,-56.5"/>
<text text-anchor="middle" x="51.5722" y="-63.5" font-family="Helvetica,sans-Serif" font-size="10.00">stdio.h</text>
</g>
<!-- Node1&#45;&gt;Node2 -->
<g id="edge1" class="edge"><title>Node1&#45;&gt;Node2</title>
<path fill="none" stroke="midnightblue" d="M54.3876,-168.488C36.0332,-161.801 14.5566,-150.45 3.57217,-132 -7.24422,-113.832 11.3158,-94.5249 28.4095,-81.7183"/>
<polygon fill="midnightblue" stroke="midnightblue" points="30.8761,-84.2633 37.0514,-75.6543 26.8553,-78.5333 30.8761,-84.2633"/>
</g>
<!-- Node3 -->
<g id="node3" class="node"><title>Node3</title>
<polygon fill="white" stroke="#bfbfbf" points="12.5722,-112.5 12.5722,-131.5 78.5722,-131.5 78.5722,-112.5 12.5722,-112.5"/>
<text text-anchor="middle" x="45.5722" y="-119.5" font-family="Helvetica,sans-Serif" font-size="10.00">rasterfile.h</text>
</g>
<!-- Node1&#45;&gt;Node3 -->
<g id="edge2" class="edge"><title>Node1&#45;&gt;Node3</title>
<path fill="none" stroke="midnightblue" d="M79.8019,-168.083C74.0106,-160.455 65.5137,-149.264 58.4346,-139.941"/>
<polygon fill="midnightblue" stroke="midnightblue" points="61.0512,-137.599 52.2165,-131.751 55.4761,-141.832 61.0512,-137.599"/>
</g>
<!-- Node4 -->
<g id="node4" class="node"><title>Node4</title>
<polygon fill="white" stroke="#bfbfbf" points="96.5722,-112.5 96.5722,-131.5 158.572,-131.5 158.572,-112.5 96.5722,-112.5"/>
<text text-anchor="middle" x="127.572" y="-119.5" font-family="Helvetica,sans-Serif" font-size="10.00">sysexits.h</text>
</g>
<!-- Node1&#45;&gt;Node4 -->
<g id="edge3" class="edge"><title>Node1&#45;&gt;Node4</title>
<path fill="none" stroke="midnightblue" d="M93.3425,-168.083C99.1338,-160.455 107.631,-149.264 114.71,-139.941"/>
<polygon fill="midnightblue" stroke="midnightblue" points="117.668,-141.832 120.928,-131.751 112.093,-137.599 117.668,-141.832"/>
</g>
<!-- Node5 -->
<g id="node5" class="node"><title>Node5</title>
<g id="a_node5"><a xlink:href="../../d7/d27/rle_8h.html" target="_top" xlink:title="rle.h">
<polygon fill="white" stroke="black" points="177.072,-112.5 177.072,-131.5 214.072,-131.5 214.072,-112.5 177.072,-112.5"/>
<text text-anchor="middle" x="195.572" y="-119.5" font-family="Helvetica,sans-Serif" font-size="10.00">rle.h</text>
</a>
</g>
</g>
<!-- Node1&#45;&gt;Node5 -->
<g id="edge4" class="edge"><title>Node1&#45;&gt;Node5</title>
<path fill="none" stroke="midnightblue" d="M104.085,-168.324C121.645,-159.625 148.904,-146.12 169.103,-136.113"/>
<polygon fill="midnightblue" stroke="midnightblue" points="170.696,-139.23 178.103,-131.655 167.588,-132.958 170.696,-139.23"/>
</g>
<!-- Node5&#45;&gt;Node2 -->
<g id="edge8" class="edge"><title>Node5&#45;&gt;Node2</title>
<path fill="none" stroke="midnightblue" d="M177.041,-114.051C153.531,-105.235 112.595,-89.8835 83.8924,-79.1201"/>
<polygon fill="midnightblue" stroke="midnightblue" points="84.891,-75.7566 74.2988,-75.5225 82.4331,-82.3109 84.891,-75.7566"/>
</g>
<!-- Node6 -->
<g id="node6" class="node"><title>Node6</title>
<g id="a_node6"><a xlink:href="../../df/dad/rle__config_8h.html" target="_top" xlink:title="rle_config.h">
<polygon fill="white" stroke="black" points="160.072,-56.5 160.072,-75.5 231.072,-75.5 231.072,-56.5 160.072,-56.5"/>
<text text-anchor="middle" x="195.572" y="-63.5" font-family="Helvetica,sans-Serif" font-size="10.00">rle_config.h</text>
</a>
</g>
</g>
<!-- Node5&#45;&gt;Node6 -->
<g id="edge5" class="edge"><title>Node5&#45;&gt;Node6</title>
<path fill="none" stroke="midnightblue" d="M195.572,-112.083C195.572,-105.006 195.572,-94.8611 195.572,-85.9865"/>
<polygon fill="midnightblue" stroke="midnightblue" points="199.072,-85.751 195.572,-75.7511 192.072,-85.7511 199.072,-85.751"/>
</g>
<!-- Node7 -->
<g id="node7" class="node"><title>Node7</title>
<polygon fill="white" stroke="#bfbfbf" points="137.072,-0.5 137.072,-19.5 186.072,-19.5 186.072,-0.5 137.072,-0.5"/>
<text text-anchor="middle" x="161.572" y="-7.5" font-family="Helvetica,sans-Serif" font-size="10.00">stdlib.h</text>
</g>
<!-- Node6&#45;&gt;Node7 -->
<g id="edge6" class="edge"><title>Node6&#45;&gt;Node7</title>
<path fill="none" stroke="midnightblue" d="M189.958,-56.083C185.205,-48.5341 178.254,-37.4948 172.421,-28.2298"/>
<polygon fill="midnightblue" stroke="midnightblue" points="175.372,-26.3486 167.082,-19.7511 169.448,-30.0783 175.372,-26.3486"/>
</g>
<!-- Node8 -->
<g id="node8" class="node"><title>Node8</title>
<polygon fill="white" stroke="#bfbfbf" points="204.072,-0.5 204.072,-19.5 255.072,-19.5 255.072,-0.5 204.072,-0.5"/>
<text text-anchor="middle" x="229.572" y="-7.5" font-family="Helvetica,sans-Serif" font-size="10.00">string.h</text>
</g>
<!-- Node6&#45;&gt;Node8 -->
<g id="edge7" class="edge"><title>Node6&#45;&gt;Node8</title>
<path fill="none" stroke="midnightblue" d="M201.187,-56.083C205.94,-48.5341 212.89,-37.4948 218.724,-28.2298"/>
<polygon fill="midnightblue" stroke="midnightblue" points="221.696,-30.0783 224.062,-19.7511 215.772,-26.3486 221.696,-30.0783"/>
</g>
</g>
</svg>
