<?xml version="1.0" encoding="UTF-8" standalone="no"?>
<!DOCTYPE svg PUBLIC "-//W3C//DTD SVG 1.1//EN"
 "http://www.w3.org/Graphics/SVG/1.1/DTD/svg11.dtd">
<!-- Generated by graphviz version 2.38.0 (20140413.2041)
 -->
<!-- Title: get/getami/show3.c Pages: 1 -->
<svg width="512pt" height="84pt"
 viewBox="0.00 0.00 512.00 84.00" xmlns="http://www.w3.org/2000/svg" xmlns:xlink="http://www.w3.org/1999/xlink">
<g id="graph0" class="graph" transform="scale(1 1) rotate(0) translate(4 80)">
<title>get/getami/show3.c</title>
<polygon fill="white" stroke="none" points="-4,4 -4,-80 508,-80 508,4 -4,4"/>
<!-- Node1 -->
<g id="node1" class="node"><title>Node1</title>
<polygon fill="#bfbfbf" stroke="black" points="173,-56.5 173,-75.5 280,-75.5 280,-56.5 173,-56.5"/>
<text text-anchor="middle" x="226.5" y="-63.5" font-family="Helvetica,sans-Serif" font-size="10.00">get/getami/show3.c</text>
</g>
<!-- Node2 -->
<g id="node2" class="node"><title>Node2</title>
<polygon fill="white" stroke="#bfbfbf" points="0,-0.5 0,-19.5 47,-19.5 47,-0.5 0,-0.5"/>
<text text-anchor="middle" x="23.5" y="-7.5" font-family="Helvetica,sans-Serif" font-size="10.00">stdio.h</text>
</g>
<!-- Node1&#45;&gt;Node2 -->
<g id="edge1" class="edge"><title>Node1&#45;&gt;Node2</title>
<path fill="none" stroke="midnightblue" d="M193.355,-56.454C160.893,-48.0454 109.773,-34.7008 57.1021,-20.4075"/>
<polygon fill="midnightblue" stroke="midnightblue" points="57.8214,-16.9761 47.2533,-17.7286 55.984,-23.7307 57.8214,-16.9761"/>
</g>
<!-- Node3 -->
<g id="node3" class="node"><title>Node3</title>
<polygon fill="white" stroke="#bfbfbf" points="65,-0.5 65,-19.5 116,-19.5 116,-0.5 65,-0.5"/>
<text text-anchor="middle" x="90.5" y="-7.5" font-family="Helvetica,sans-Serif" font-size="10.00">string.h</text>
</g>
<!-- Node1&#45;&gt;Node3 -->
<g id="edge2" class="edge"><title>Node1&#45;&gt;Node3</title>
<path fill="none" stroke="midnightblue" d="M204.95,-56.4435C182.469,-47.5171 147.012,-33.4387 121.52,-23.3168"/>
<polygon fill="midnightblue" stroke="midnightblue" points="122.535,-19.9539 111.949,-19.5164 119.951,-26.4598 122.535,-19.9539"/>
</g>
<!-- Node4 -->
<g id="node4" class="node"><title>Node4</title>
<polygon fill="white" stroke="#bfbfbf" points="134.5,-0.5 134.5,-19.5 210.5,-19.5 210.5,-0.5 134.5,-0.5"/>
<text text-anchor="middle" x="172.5" y="-7.5" font-family="Helvetica,sans-Serif" font-size="10.00">exec/types.h</text>
</g>
<!-- Node1&#45;&gt;Node4 -->
<g id="edge3" class="edge"><title>Node1&#45;&gt;Node4</title>
<path fill="none" stroke="midnightblue" d="M217.583,-56.083C209.72,-48.2195 198.069,-36.5688 188.581,-27.0813"/>
<polygon fill="midnightblue" stroke="midnightblue" points="190.797,-24.3473 181.251,-19.7511 185.847,-29.2971 190.797,-24.3473"/>
</g>
<!-- Node5 -->
<g id="node5" class="node"><title>Node5</title>
<polygon fill="white" stroke="#bfbfbf" points="229,-0.5 229,-19.5 334,-19.5 334,-0.5 229,-0.5"/>
<text text-anchor="middle" x="281.5" y="-7.5" font-family="Helvetica,sans-Serif" font-size="10.00">graphics/gfxbase.h</text>
</g>
<!-- Node1&#45;&gt;Node5 -->
<g id="edge4" class="edge"><title>Node1&#45;&gt;Node5</title>
<path fill="none" stroke="midnightblue" d="M235.582,-56.083C243.671,-48.1409 255.695,-36.3354 265.41,-26.7973"/>
<polygon fill="midnightblue" stroke="midnightblue" points="267.903,-29.2545 272.587,-19.7511 262.999,-24.2595 267.903,-29.2545"/>
</g>
<!-- Node6 -->
<g id="node6" class="node"><title>Node6</title>
<polygon fill="white" stroke="#bfbfbf" points="352.5,-0.5 352.5,-19.5 452.5,-19.5 452.5,-0.5 352.5,-0.5"/>
<text text-anchor="middle" x="402.5" y="-7.5" font-family="Helvetica,sans-Serif" font-size="10.00">intuition/intuition.h</text>
</g>
<!-- Node1&#45;&gt;Node6 -->
<g id="edge5" class="edge"><title>Node1&#45;&gt;Node6</title>
<path fill="none" stroke="midnightblue" d="M254.388,-56.4435C284.254,-47.2801 331.815,-32.6876 364.956,-22.5192"/>
<polygon fill="midnightblue" stroke="midnightblue" points="366.209,-25.7958 374.743,-19.5164 364.156,-19.1037 366.209,-25.7958"/>
</g>
<!-- Node7 -->
<g id="node7" class="node"><title>Node7</title>
<polygon fill="white" stroke="#bfbfbf" points="471,-0.5 471,-19.5 504,-19.5 504,-0.5 471,-0.5"/>
<text text-anchor="middle" x="487.5" y="-7.5" font-family="Helvetica,sans-Serif" font-size="10.00">iff.h</text>
</g>
<!-- Node1&#45;&gt;Node7 -->
<g id="edge6" class="edge"><title>Node1&#45;&gt;Node7</title>
<path fill="none" stroke="midnightblue" d="M280.196,-56.9793C325.904,-49.6427 393.408,-37.609 460.875,-19.8329"/>
<polygon fill="midnightblue" stroke="midnightblue" points="462.072,-23.1358 470.826,-17.1684 460.261,-16.3739 462.072,-23.1358"/>
</g>
</g>
</svg>
