<?xml version="1.0" encoding="UTF-8" standalone="no"?>
<!DOCTYPE svg PUBLIC "-//W3C//DTD SVG 1.1//EN"
 "http://www.w3.org/Graphics/SVG/1.1/DTD/svg11.dtd">
<!-- Generated by graphviz version 2.38.0 (20140413.2041)
 -->
<!-- Title: rlequant.c Pages: 1 -->
<svg width="203pt" height="84pt"
 viewBox="0.00 0.00 202.50 84.00" xmlns="http://www.w3.org/2000/svg" xmlns:xlink="http://www.w3.org/1999/xlink">
<g id="graph0" class="graph" transform="scale(1 1) rotate(0) translate(4 80)">
<title>rlequant.c</title>
<polygon fill="white" stroke="none" points="-4,4 -4,-80 198.5,-80 198.5,4 -4,4"/>
<!-- Node1 -->
<g id="node1" class="node"><title>Node1</title>
<polygon fill="#bfbfbf" stroke="black" points="52.5,-56.5 52.5,-75.5 114.5,-75.5 114.5,-56.5 52.5,-56.5"/>
<text text-anchor="middle" x="83.5" y="-63.5" font-family="Helvetica,sans-Serif" font-size="10.00">rlequant.c</text>
</g>
<!-- Node2 -->
<g id="node2" class="node"><title>Node2</title>
<polygon fill="white" stroke="#bfbfbf" points="0,-0.5 0,-19.5 47,-19.5 47,-0.5 0,-0.5"/>
<text text-anchor="middle" x="23.5" y="-7.5" font-family="Helvetica,sans-Serif" font-size="10.00">stdio.h</text>
</g>
<!-- Node1&#45;&gt;Node2 -->
<g id="edge1" class="edge"><title>Node1&#45;&gt;Node2</title>
<path fill="none" stroke="midnightblue" d="M73.86,-56.324C64.9904,-48.3414 51.6253,-36.3128 40.8921,-26.6529"/>
<polygon fill="midnightblue" stroke="midnightblue" points="43.0898,-23.922 33.3154,-19.8339 38.407,-29.1251 43.0898,-23.922"/>
</g>
<!-- Node3 -->
<g id="node3" class="node"><title>Node3</title>
<polygon fill="white" stroke="#bfbfbf" points="65,-0.5 65,-19.5 102,-19.5 102,-0.5 65,-0.5"/>
<text text-anchor="middle" x="83.5" y="-7.5" font-family="Helvetica,sans-Serif" font-size="10.00">rle.h</text>
</g>
<!-- Node1&#45;&gt;Node3 -->
<g id="edge2" class="edge"><title>Node1&#45;&gt;Node3</title>
<path fill="none" stroke="midnightblue" d="M83.5,-56.083C83.5,-49.0059 83.5,-38.8611 83.5,-29.9865"/>
<polygon fill="midnightblue" stroke="midnightblue" points="87.0001,-29.751 83.5,-19.7511 80.0001,-29.7511 87.0001,-29.751"/>
</g>
<!-- Node4 -->
<g id="node4" class="node"><title>Node4</title>
<polygon fill="white" stroke="#bfbfbf" points="120.5,-0.5 120.5,-19.5 194.5,-19.5 194.5,-0.5 120.5,-0.5"/>
<text text-anchor="middle" x="157.5" y="-7.5" font-family="Helvetica,sans-Serif" font-size="10.00">colorquant.h</text>
</g>
<!-- Node1&#45;&gt;Node4 -->
<g id="edge3" class="edge"><title>Node1&#45;&gt;Node4</title>
<path fill="none" stroke="midnightblue" d="M95.3894,-56.324C106.65,-48.1066 123.787,-35.6017 137.209,-25.8069"/>
<polygon fill="midnightblue" stroke="midnightblue" points="139.38,-28.5559 145.394,-19.8339 135.253,-22.9014 139.38,-28.5559"/>
</g>
</g>
</svg>
