<?xml version="1.0" encoding="UTF-8" standalone="no"?>
<!DOCTYPE svg PUBLIC "-//W3C//DTD SVG 1.1//EN"
 "http://www.w3.org/Graphics/SVG/1.1/DTD/svg11.dtd">
<!-- Generated by graphviz version 2.38.0 (20140413.2041)
 -->
<!-- Title: include/rle_raw.h Pages: 1 -->
<!--zoomable 84 -->
<svg id="main" version="1.1" xmlns="http://www.w3.org/2000/svg" xmlns:xlink="http://www.w3.org/1999/xlink" xml:space="preserve" onload="init(evt)">
<style type="text/css"><![CDATA[
.edge:hover path { stroke: red; }
.edge:hover polygon { stroke: red; fill: red; }
]]></style>
<script type="text/javascript"><![CDATA[
var edges = document.getElementsByTagName('g');
if (edges && edges.length) {
  for (var i=0;i<edges.length;i++) {
    if (edges[i].id.substr(0,4)=='edge') {
      edges[i].setAttribute('class','edge');
    }
  }
}
]]></script>
        <defs>
                <circle id="rim" cx="0" cy="0" r="7"/>
                <circle id="rim2" cx="0" cy="0" r="3.5"/>
                <g id="zoomPlus">
                        <use xlink:href="#rim" fill="#404040">
                                <set attributeName="fill" to="#808080" begin="zoomplus.mouseover" end="zoomplus.mouseout"/>
                        </use>
                        <path d="M-4,0h8M0,-4v8" fill="none" stroke="white" stroke-width="1.5" pointer-events="none"/>
                </g>
                <g id="zoomMin">
                        <use xlink:href="#rim" fill="#404040">
                                <set attributeName="fill" to="#808080" begin="zoomminus.mouseover" end="zoomminus.mouseout"/>
                        </use>
                        <path d="M-4,0h8" fill="none" stroke="white" stroke-width="1.5" pointer-events="none"/>
                </g>
                <g id="dirArrow">
                        <path fill="none" stroke="white" stroke-width="1.5" d="M0,-3.0v7 M-2.5,-0.5L0,-3.0L2.5,-0.5"/>
                </g>
               <g id="resetDef">
                       <use xlink:href="#rim2" fill="#404040">
                               <set attributeName="fill" to="#808080" begin="reset.mouseover" end="reset.mouseout"/>
                       </use>
               </g>
        </defs>

<script type="text/javascript">
var viewWidth = 2083;
var viewHeight = 84;
var sectionId = 'dynsection-1';
</script>
<script xlink:href="../../svgpan.js"/>
<svg id="graph" class="graph">
<g id="viewport">
<title>include/rle_raw.h</title>
<polygon fill="white" stroke="none" points="-4,4 -4,-80 2078.5,-80 2078.5,4 -4,4"/>
<!-- Node1 -->
<g id="node1" class="node"><title>Node1</title>
<polygon fill="#bfbfbf" stroke="black" points="1006.5,-56.5 1006.5,-75.5 1102.5,-75.5 1102.5,-56.5 1006.5,-56.5"/>
<text text-anchor="middle" x="1054.5" y="-63.5" font-family="Helvetica,sans-Serif" font-size="10.00">include/rle_raw.h</text>
</g>
<!-- Node2 -->
<g id="node2" class="node"><title>Node2</title>
<g id="a_node2"><a xlink:href="../../df/dce/rle__getraw_8c.html" target="_top" xlink:title="lib/rle_getraw.c">
<polygon fill="white" stroke="black" points="0,-0.5 0,-19.5 87,-19.5 87,-0.5 0,-0.5"/>
<text text-anchor="middle" x="43.5" y="-7.5" font-family="Helvetica,sans-Serif" font-size="10.00">lib/rle_getraw.c</text>
</a>
</g>
</g>
<!-- Node1&#45;&gt;Node2 -->
<g id="edge1" class="edge"><title>Node1&#45;&gt;Node2</title>
<path fill="none" stroke="midnightblue" d="M996.162,-64.7185C846.344,-63.463 435.987,-56.661 96.5,-20 93.4379,-19.6693 90.2845,-19.2743 87.1143,-18.8371"/>
<polygon fill="midnightblue" stroke="midnightblue" points="996.467,-68.2209 1006.49,-64.7996 996.522,-61.2211 996.467,-68.2209"/>
</g>
<!-- Node3 -->
<g id="node3" class="node"><title>Node3</title>
<g id="a_node3"><a xlink:href="../../d6/d8c/rle__putraw_8c.html" target="_top" xlink:title="lib/rle_putraw.c">
<polygon fill="white" stroke="black" points="105.5,-0.5 105.5,-19.5 191.5,-19.5 191.5,-0.5 105.5,-0.5"/>
<text text-anchor="middle" x="148.5" y="-7.5" font-family="Helvetica,sans-Serif" font-size="10.00">lib/rle_putraw.c</text>
</a>
</g>
</g>
<!-- Node1&#45;&gt;Node3 -->
<g id="edge2" class="edge"><title>Node1&#45;&gt;Node3</title>
<path fill="none" stroke="midnightblue" d="M995.791,-64.3045C857.038,-62.1385 498.152,-53.4806 200.5,-20 197.587,-19.6723 194.589,-19.2859 191.574,-18.8606"/>
<polygon fill="midnightblue" stroke="midnightblue" points="996.13,-67.8099 1006.18,-64.4609 996.236,-60.8107 996.13,-67.8099"/>
</g>
<!-- Node4 -->
<g id="node4" class="node"><title>Node4</title>
<g id="a_node4"><a xlink:href="../../df/d6e/rle__raw__alc_8c.html" target="_top" xlink:title="lib/rle_raw_alc.c">
<polygon fill="white" stroke="black" points="209.5,-0.5 209.5,-19.5 301.5,-19.5 301.5,-0.5 209.5,-0.5"/>
<text text-anchor="middle" x="255.5" y="-7.5" font-family="Helvetica,sans-Serif" font-size="10.00">lib/rle_raw_alc.c</text>
</a>
</g>
</g>
<!-- Node1&#45;&gt;Node4 -->
<g id="edge3" class="edge"><title>Node1&#45;&gt;Node4</title>
<path fill="none" stroke="midnightblue" d="M996.324,-63.4959C870.746,-59.8075 565.049,-48.45 310.5,-20 307.615,-19.6776 304.651,-19.3071 301.666,-18.9043"/>
<polygon fill="midnightblue" stroke="midnightblue" points="996.385,-66.9991 1006.48,-63.789 996.587,-60.002 996.385,-66.9991"/>
</g>
<!-- Node5 -->
<g id="node5" class="node"><title>Node5</title>
<g id="a_node5"><a xlink:href="../../d9/d87/rle__rawrow_8c.html" target="_top" xlink:title="lib/rle_rawrow.c">
<polygon fill="white" stroke="black" points="320,-0.5 320,-19.5 409,-19.5 409,-0.5 320,-0.5"/>
<text text-anchor="middle" x="364.5" y="-7.5" font-family="Helvetica,sans-Serif" font-size="10.00">lib/rle_rawrow.c</text>
</a>
</g>
</g>
<!-- Node1&#45;&gt;Node5 -->
<g id="edge4" class="edge"><title>Node1&#45;&gt;Node5</title>
<path fill="none" stroke="midnightblue" d="M996.31,-62.7931C884.055,-58.1148 629.922,-45.4772 417.5,-20 414.813,-19.6777 412.054,-19.3129 409.275,-18.9194"/>
<polygon fill="midnightblue" stroke="midnightblue" points="996.267,-66.2943 1006.4,-63.2082 996.555,-59.3002 996.267,-66.2943"/>
</g>
<!-- Node6 -->
<g id="node6" class="node"><title>Node6</title>
<g id="a_node6"><a xlink:href="../../d7/def/applymap_8c.html" target="_top" xlink:title="tools/applymap.c">
<polygon fill="white" stroke="black" points="427,-0.5 427,-19.5 522,-19.5 522,-0.5 427,-0.5"/>
<text text-anchor="middle" x="474.5" y="-7.5" font-family="Helvetica,sans-Serif" font-size="10.00">tools/applymap.c</text>
</a>
</g>
</g>
<!-- Node1&#45;&gt;Node6 -->
<g id="edge5" class="edge"><title>Node1&#45;&gt;Node6</title>
<path fill="none" stroke="midnightblue" d="M996.157,-61.3988C899.24,-55.1009 699.034,-40.751 530.5,-20 527.764,-19.6631 524.956,-19.2922 522.125,-18.8988"/>
<polygon fill="midnightblue" stroke="midnightblue" points="996.129,-64.9042 1006.33,-62.0551 996.58,-57.9187 996.129,-64.9042"/>
</g>
<!-- Node7 -->
<g id="node7" class="node"><title>Node7</title>
<g id="a_node7"><a xlink:href="../../d9/d55/mergechan_8c.html" target="_top" xlink:title="tools/mergechan.c">
<polygon fill="white" stroke="black" points="540,-0.5 540,-19.5 643,-19.5 643,-0.5 540,-0.5"/>
<text text-anchor="middle" x="591.5" y="-7.5" font-family="Helvetica,sans-Serif" font-size="10.00">tools/mergechan.c</text>
</a>
</g>
</g>
<!-- Node1&#45;&gt;Node7 -->
<g id="edge6" class="edge"><title>Node1&#45;&gt;Node7</title>
<path fill="none" stroke="midnightblue" d="M996.34,-59.135C918.095,-51.0971 774.639,-35.8415 652.5,-20 649.421,-19.6007 646.257,-19.1764 643.067,-18.7378"/>
<polygon fill="midnightblue" stroke="midnightblue" points="996.173,-62.6361 1006.48,-60.1734 996.886,-55.6725 996.173,-62.6361"/>
</g>
<!-- Node8 -->
<g id="node8" class="node"><title>Node8</title>
<g id="a_node8"><a xlink:href="../../d4/d28/rle__box_8c.html" target="_top" xlink:title="tools/rle_box.c">
<polygon fill="white" stroke="black" points="661.5,-0.5 661.5,-19.5 745.5,-19.5 745.5,-0.5 661.5,-0.5"/>
<text text-anchor="middle" x="703.5" y="-7.5" font-family="Helvetica,sans-Serif" font-size="10.00">tools/rle_box.c</text>
</a>
</g>
</g>
<!-- Node1&#45;&gt;Node8 -->
<g id="edge7" class="edge"><title>Node1&#45;&gt;Node8</title>
<path fill="none" stroke="midnightblue" d="M996.26,-56.7178C935.764,-48.0084 838.399,-33.693 754.5,-20 751.572,-19.5221 748.551,-19.0178 745.51,-18.502"/>
<polygon fill="midnightblue" stroke="midnightblue" points="995.983,-60.2139 1006.38,-58.1718 996.978,-53.285 995.983,-60.2139"/>
</g>
<!-- Node9 -->
<g id="node9" class="node"><title>Node9</title>
<g id="a_node9"><a xlink:href="../../dc/d22/rleaddeof_8c.html" target="_top" xlink:title="tools/rleaddeof.c">
<polygon fill="white" stroke="black" points="764,-0.5 764,-19.5 859,-19.5 859,-0.5 764,-0.5"/>
<text text-anchor="middle" x="811.5" y="-7.5" font-family="Helvetica,sans-Serif" font-size="10.00">tools/rleaddeof.c</text>
</a>
</g>
</g>
<!-- Node1&#45;&gt;Node9 -->
<g id="edge8" class="edge"><title>Node1&#45;&gt;Node9</title>
<path fill="none" stroke="midnightblue" d="M1005.98,-54.2172C960.06,-44.0134 892.053,-28.9006 849.824,-19.5164"/>
<polygon fill="midnightblue" stroke="midnightblue" points="1005.47,-57.6908 1016,-56.4435 1006.99,-50.8575 1005.47,-57.6908"/>
</g>
<!-- Node10 -->
<g id="node10" class="node"><title>Node10</title>
<g id="a_node10"><a xlink:href="../../d6/d62/rlebg_8c.html" target="_top" xlink:title="tools/rlebg.c">
<polygon fill="white" stroke="black" points="877,-0.5 877,-19.5 950,-19.5 950,-0.5 877,-0.5"/>
<text text-anchor="middle" x="913.5" y="-7.5" font-family="Helvetica,sans-Serif" font-size="10.00">tools/rlebg.c</text>
</a>
</g>
</g>
<!-- Node1&#45;&gt;Node10 -->
<g id="edge9" class="edge"><title>Node1&#45;&gt;Node10</title>
<path fill="none" stroke="midnightblue" d="M1022.57,-52.772C996.086,-42.6287 959.108,-28.4669 935.737,-19.5164"/>
<polygon fill="midnightblue" stroke="midnightblue" points="1021.57,-56.1355 1032.16,-56.4435 1024.07,-49.5985 1021.57,-56.1355"/>
</g>
<!-- Node11 -->
<g id="node11" class="node"><title>Node11</title>
<g id="a_node11"><a xlink:href="../../de/dcd/rlebox_8c.html" target="_top" xlink:title="tools/rlebox.c">
<polygon fill="white" stroke="black" points="968.5,-0.5 968.5,-19.5 1046.5,-19.5 1046.5,-0.5 968.5,-0.5"/>
<text text-anchor="middle" x="1007.5" y="-7.5" font-family="Helvetica,sans-Serif" font-size="10.00">tools/rlebox.c</text>
</a>
</g>
</g>
<!-- Node1&#45;&gt;Node11 -->
<g id="edge10" class="edge"><title>Node1&#45;&gt;Node11</title>
<path fill="none" stroke="midnightblue" d="M1040.08,-48.4314C1031.84,-38.9673 1021.85,-27.4827 1015.12,-19.7511"/>
<polygon fill="midnightblue" stroke="midnightblue" points="1037.53,-50.8378 1046.74,-56.083 1042.81,-46.2421 1037.53,-50.8378"/>
</g>
<!-- Node12 -->
<g id="node12" class="node"><title>Node12</title>
<g id="a_node12"><a xlink:href="../../d6/d6b/rlecat_8c.html" target="_top" xlink:title="tools/rlecat.c">
<polygon fill="white" stroke="black" points="1064.5,-0.5 1064.5,-19.5 1140.5,-19.5 1140.5,-0.5 1064.5,-0.5"/>
<text text-anchor="middle" x="1102.5" y="-7.5" font-family="Helvetica,sans-Serif" font-size="10.00">tools/rlecat.c</text>
</a>
</g>
</g>
<!-- Node1&#45;&gt;Node12 -->
<g id="edge11" class="edge"><title>Node1&#45;&gt;Node12</title>
<path fill="none" stroke="midnightblue" d="M1069.23,-48.4314C1077.64,-38.9673 1087.85,-27.4827 1094.72,-19.7511"/>
<polygon fill="midnightblue" stroke="midnightblue" points="1066.45,-46.2836 1062.43,-56.083 1071.69,-50.9342 1066.45,-46.2836"/>
</g>
<!-- Node13 -->
<g id="node13" class="node"><title>Node13</title>
<g id="a_node13"><a xlink:href="../../d5/d2c/rlecomp_8c.html" target="_top" xlink:title="tools/rlecomp.c">
<polygon fill="white" stroke="black" points="1159,-0.5 1159,-19.5 1246,-19.5 1246,-0.5 1159,-0.5"/>
<text text-anchor="middle" x="1202.5" y="-7.5" font-family="Helvetica,sans-Serif" font-size="10.00">tools/rlecomp.c</text>
</a>
</g>
</g>
<!-- Node1&#45;&gt;Node13 -->
<g id="edge12" class="edge"><title>Node1&#45;&gt;Node13</title>
<path fill="none" stroke="midnightblue" d="M1087.65,-52.9058C1115.47,-42.7536 1154.52,-28.5063 1179.16,-19.5164"/>
<polygon fill="midnightblue" stroke="midnightblue" points="1086.15,-49.7279 1077.95,-56.4435 1088.54,-56.3038 1086.15,-49.7279"/>
</g>
<!-- Node14 -->
<g id="node14" class="node"><title>Node14</title>
<g id="a_node14"><a xlink:href="../../de/df4/rlegrid_8c.html" target="_top" xlink:title="tools/rlegrid.c">
<polygon fill="white" stroke="black" points="1264.5,-0.5 1264.5,-19.5 1344.5,-19.5 1344.5,-0.5 1264.5,-0.5"/>
<text text-anchor="middle" x="1304.5" y="-7.5" font-family="Helvetica,sans-Serif" font-size="10.00">tools/rlegrid.c</text>
</a>
</g>
</g>
<!-- Node1&#45;&gt;Node14 -->
<g id="edge13" class="edge"><title>Node1&#45;&gt;Node14</title>
<path fill="none" stroke="midnightblue" d="M1104.12,-54.2815C1151.37,-44.0769 1221.54,-28.9203 1265.07,-19.5164"/>
<polygon fill="midnightblue" stroke="midnightblue" points="1103.15,-50.9111 1094.11,-56.4435 1104.63,-57.7533 1103.15,-50.9111"/>
</g>
<!-- Node15 -->
<g id="node15" class="node"><title>Node15</title>
<g id="a_node15"><a xlink:href="../../d1/d7f/rlescale_8c.html" target="_top" xlink:title="tools/rlescale.c">
<polygon fill="white" stroke="black" points="1362.5,-0.5 1362.5,-19.5 1448.5,-19.5 1448.5,-0.5 1362.5,-0.5"/>
<text text-anchor="middle" x="1405.5" y="-7.5" font-family="Helvetica,sans-Serif" font-size="10.00">tools/rlescale.c</text>
</a>
</g>
</g>
<!-- Node1&#45;&gt;Node15 -->
<g id="edge14" class="edge"><title>Node1&#45;&gt;Node15</title>
<path fill="none" stroke="midnightblue" d="M1112.8,-56.613C1173.11,-47.8468 1269.98,-33.5113 1353.5,-20 1356.39,-19.5318 1359.38,-19.04 1362.38,-18.5379"/>
<polygon fill="midnightblue" stroke="midnightblue" points="1112.11,-53.1772 1102.71,-58.0772 1113.11,-60.1046 1112.11,-53.1772"/>
</g>
<!-- Node16 -->
<g id="node16" class="node"><title>Node16</title>
<g id="a_node16"><a xlink:href="../../d0/daf/rlesortmap_8c.html" target="_top" xlink:title="tools/rlesortmap.c">
<polygon fill="white" stroke="black" points="1466.5,-0.5 1466.5,-19.5 1566.5,-19.5 1566.5,-0.5 1466.5,-0.5"/>
<text text-anchor="middle" x="1516.5" y="-7.5" font-family="Helvetica,sans-Serif" font-size="10.00">tools/rlesortmap.c</text>
</a>
</g>
</g>
<!-- Node1&#45;&gt;Node16 -->
<g id="edge15" class="edge"><title>Node1&#45;&gt;Node16</title>
<path fill="none" stroke="midnightblue" d="M1112.82,-59.2307C1191.27,-51.2997 1335.1,-36.163 1457.5,-20 1460.38,-19.6202 1463.33,-19.2158 1466.31,-18.7968"/>
<polygon fill="midnightblue" stroke="midnightblue" points="1112.25,-55.7698 1102.65,-60.2548 1112.95,-62.7346 1112.25,-55.7698"/>
</g>
<!-- Node17 -->
<g id="node17" class="node"><title>Node17</title>
<g id="a_node17"><a xlink:href="../../d0/d79/rlespiff_8c.html" target="_top" xlink:title="tools/rlespiff.c">
<polygon fill="white" stroke="black" points="1585,-0.5 1585,-19.5 1666,-19.5 1666,-0.5 1585,-0.5"/>
<text text-anchor="middle" x="1625.5" y="-7.5" font-family="Helvetica,sans-Serif" font-size="10.00">tools/rlespiff.c</text>
</a>
</g>
</g>
<!-- Node1&#45;&gt;Node17 -->
<g id="edge16" class="edge"><title>Node1&#45;&gt;Node17</title>
<path fill="none" stroke="midnightblue" d="M1112.93,-61.7112C1209.5,-55.882 1408.35,-42.2147 1575.5,-20 1578.56,-19.5933 1581.72,-19.1296 1584.89,-18.6321"/>
<polygon fill="midnightblue" stroke="midnightblue" points="1112.56,-58.2269 1102.79,-62.3172 1112.98,-65.2144 1112.56,-58.2269"/>
</g>
<!-- Node18 -->
<g id="node18" class="node"><title>Node18</title>
<g id="a_node18"><a xlink:href="../../d5/dfa/rlesplit_8c.html" target="_top" xlink:title="tools/rlesplit.c">
<polygon fill="white" stroke="black" points="1684.5,-0.5 1684.5,-19.5 1764.5,-19.5 1764.5,-0.5 1684.5,-0.5"/>
<text text-anchor="middle" x="1724.5" y="-7.5" font-family="Helvetica,sans-Serif" font-size="10.00">tools/rlesplit.c</text>
</a>
</g>
</g>
<!-- Node1&#45;&gt;Node18 -->
<g id="edge17" class="edge"><title>Node1&#45;&gt;Node18</title>
<path fill="none" stroke="midnightblue" d="M1112.84,-62.9011C1223.11,-58.4623 1469.57,-46.2932 1675.5,-20 1678.42,-19.6275 1681.42,-19.1953 1684.44,-18.7256"/>
<polygon fill="midnightblue" stroke="midnightblue" points="1112.45,-59.4136 1102.6,-63.3068 1112.73,-66.4081 1112.45,-59.4136"/>
</g>
<!-- Node19 -->
<g id="node19" class="node"><title>Node19</title>
<g id="a_node19"><a xlink:href="../../d9/d4b/rleswap_8c.html" target="_top" xlink:title="tools/rleswap.c">
<polygon fill="white" stroke="black" points="1782.5,-0.5 1782.5,-19.5 1868.5,-19.5 1868.5,-0.5 1782.5,-0.5"/>
<text text-anchor="middle" x="1825.5" y="-7.5" font-family="Helvetica,sans-Serif" font-size="10.00">tools/rleswap.c</text>
</a>
</g>
</g>
<!-- Node1&#45;&gt;Node19 -->
<g id="edge18" class="edge"><title>Node1&#45;&gt;Node19</title>
<path fill="none" stroke="midnightblue" d="M1112.91,-63.499C1235.63,-59.8723 1529.09,-48.7134 1773.5,-20 1776.41,-19.6579 1779.41,-19.2607 1782.42,-18.8276"/>
<polygon fill="midnightblue" stroke="midnightblue" points="1112.52,-60.0089 1102.62,-63.7972 1112.72,-67.006 1112.52,-60.0089"/>
</g>
<!-- Node20 -->
<g id="node20" class="node"><title>Node20</title>
<g id="a_node20"><a xlink:href="../../d5/d42/rlezoom_8c.html" target="_top" xlink:title="tools/rlezoom.c">
<polygon fill="white" stroke="black" points="1887,-0.5 1887,-19.5 1974,-19.5 1974,-0.5 1887,-0.5"/>
<text text-anchor="middle" x="1930.5" y="-7.5" font-family="Helvetica,sans-Serif" font-size="10.00">tools/rlezoom.c</text>
</a>
</g>
</g>
<!-- Node1&#45;&gt;Node20 -->
<g id="edge19" class="edge"><title>Node1&#45;&gt;Node20</title>
<path fill="none" stroke="midnightblue" d="M1113.02,-64.0805C1248.11,-61.4604 1591.99,-51.9425 1877.5,-20 1880.56,-19.6576 1883.71,-19.2539 1886.88,-18.8104"/>
<polygon fill="midnightblue" stroke="midnightblue" points="1112.83,-60.5834 1102.9,-64.2715 1112.96,-67.5822 1112.83,-60.5834"/>
</g>
<!-- Node21 -->
<g id="node21" class="node"><title>Node21</title>
<g id="a_node21"><a xlink:href="../../df/dfb/unslice_8c.html" target="_top" xlink:title="tools/unslice.c">
<polygon fill="white" stroke="black" points="1992.5,-0.5 1992.5,-19.5 2074.5,-19.5 2074.5,-0.5 1992.5,-0.5"/>
<text text-anchor="middle" x="2033.5" y="-7.5" font-family="Helvetica,sans-Serif" font-size="10.00">tools/unslice.c</text>
</a>
</g>
</g>
<!-- Node1&#45;&gt;Node21 -->
<g id="edge20" class="edge"><title>Node1&#45;&gt;Node21</title>
<path fill="none" stroke="midnightblue" d="M1112.66,-64.7974C1259.27,-63.7198 1655.65,-57.2878 1983.5,-20 1986.39,-19.6711 1989.37,-19.2774 1992.36,-18.8412"/>
<polygon fill="midnightblue" stroke="midnightblue" points="1112.52,-61.2982 1102.54,-64.8661 1112.56,-68.298 1112.52,-61.2982"/>
</g>
</g>
</svg>
        <g id="navigator" transform="translate(0 0)" fill="#404254">
                <rect fill="#f2f5e9" fill-opacity="0.5" stroke="#606060" stroke-width=".5" x="0" y="0" width="60" height="60"/>
                <use id="zoomplus" xlink:href="#zoomPlus" x="17" y="9" onmousedown="handleZoom(evt,'in')"/>
                <use id="zoomminus" xlink:href="#zoomMin" x="42" y="9" onmousedown="handleZoom(evt,'out')"/>
                <use id="reset" xlink:href="#resetDef" x="30" y="36" onmousedown="handleReset()"/>
                <g id="arrowUp" xlink:href="#dirArrow" transform="translate(30 24)" onmousedown="handlePan(0,-1)">
                  <use xlink:href="#rim" fill="#404040">
                        <set attributeName="fill" to="#808080" begin="arrowUp.mouseover" end="arrowUp.mouseout"/>
                  </use>
                  <path fill="none" stroke="white" stroke-width="1.5" d="M0,-3.0v7 M-2.5,-0.5L0,-3.0L2.5,-0.5"/>
                </g>
                <g id="arrowRight" xlink:href="#dirArrow" transform="rotate(90) translate(36 -43)" onmousedown="handlePan(1,0)">
                  <use xlink:href="#rim" fill="#404040">
                        <set attributeName="fill" to="#808080" begin="arrowRight.mouseover" end="arrowRight.mouseout"/>
                  </use>
                  <path fill="none" stroke="white" stroke-width="1.5" d="M0,-3.0v7 M-2.5,-0.5L0,-3.0L2.5,-0.5"/>
                </g>
                <g id="arrowDown" xlink:href="#dirArrow" transform="rotate(180) translate(-30 -48)" onmousedown="handlePan(0,1)">
                  <use xlink:href="#rim" fill="#404040">
                        <set attributeName="fill" to="#808080" begin="arrowDown.mouseover" end="arrowDown.mouseout"/>
                  </use>
                  <path fill="none" stroke="white" stroke-width="1.5" d="M0,-3.0v7 M-2.5,-0.5L0,-3.0L2.5,-0.5"/>
                </g>
                <g id="arrowLeft" xlink:href="#dirArrow" transform="rotate(270) translate(-36 17)" onmousedown="handlePan(-1,0)">
                  <use xlink:href="#rim" fill="#404040">
                        <set attributeName="fill" to="#808080" begin="arrowLeft.mouseover" end="arrowLeft.mouseout"/>
                  </use>
                  <path fill="none" stroke="white" stroke-width="1.5" d="M0,-3.0v7 M-2.5,-0.5L0,-3.0L2.5,-0.5"/>
                </g>
        </g>
        <svg viewBox="0 0 15 15" width="100%" height="30px" preserveAspectRatio="xMaxYMin meet">
         <g id="arrow_out" transform="scale(0.3 0.3)">
          <a xlink:href="rle__raw_8h__dep__incl_org.svg" target="_base">
           <rect id="button" ry="5" rx="5" y="6" x="6" height="38" width="38"
                fill="#f2f5e9" fill-opacity="0.5" stroke="#606060" stroke-width="1.0"/>
           <path id="arrow"
             d="M 11.500037,31.436501 C 11.940474,20.09759 22.043105,11.32322 32.158766,21.979434 L 37.068811,17.246167 C 37.068811,17.246167 37.088388,32 37.088388,32 L 22.160133,31.978069 C 22.160133,31.978069 26.997745,27.140456 26.997745,27.140456 C 18.528582,18.264221 13.291696,25.230495 11.500037,31.436501 z"
             style="fill:#404040;"/>
          </a>
         </g>
        </svg>
</svg>
