<?xml version="1.0" encoding="UTF-8" standalone="no"?>
<!DOCTYPE svg PUBLIC "-//W3C//DTD SVG 1.1//EN"
 "http://www.w3.org/Graphics/SVG/1.1/DTD/svg11.dtd">
<!-- Generated by graphviz version 2.38.0 (20140413.2041)
 -->
<!-- Title: rle_addhist.c Pages: 1 -->
<svg width="278pt" height="84pt"
 viewBox="0.00 0.00 278.00 84.00" xmlns="http://www.w3.org/2000/svg" xmlns:xlink="http://www.w3.org/1999/xlink">
<g id="graph0" class="graph" transform="scale(1 1) rotate(0) translate(4 80)">
<title>rle_addhist.c</title>
<polygon fill="white" stroke="none" points="-4,4 -4,-80 274,-80 274,4 -4,4"/>
<!-- Node1 -->
<g id="node1" class="node"><title>Node1</title>
<polygon fill="#bfbfbf" stroke="black" points="78,-56.5 78,-75.5 155,-75.5 155,-56.5 78,-56.5"/>
<text text-anchor="middle" x="116.5" y="-63.5" font-family="Helvetica,sans-Serif" font-size="10.00">rle_addhist.c</text>
</g>
<!-- Node2 -->
<g id="node2" class="node"><title>Node2</title>
<polygon fill="white" stroke="#bfbfbf" points="0,-0.5 0,-19.5 37,-19.5 37,-0.5 0,-0.5"/>
<text text-anchor="middle" x="18.5" y="-7.5" font-family="Helvetica,sans-Serif" font-size="10.00">rle.h</text>
</g>
<!-- Node1&#45;&gt;Node2 -->
<g id="edge1" class="edge"><title>Node1&#45;&gt;Node2</title>
<path fill="none" stroke="midnightblue" d="M100.755,-56.324C85.1813,-47.7428 61.1227,-34.486 43.0407,-24.5224"/>
<polygon fill="midnightblue" stroke="midnightblue" points="44.6539,-21.4152 34.2063,-19.6545 41.2756,-27.546 44.6539,-21.4152"/>
</g>
<!-- Node3 -->
<g id="node3" class="node"><title>Node3</title>
<polygon fill="white" stroke="#bfbfbf" points="55,-0.5 55,-19.5 102,-19.5 102,-0.5 55,-0.5"/>
<text text-anchor="middle" x="78.5" y="-7.5" font-family="Helvetica,sans-Serif" font-size="10.00">stdio.h</text>
</g>
<!-- Node1&#45;&gt;Node3 -->
<g id="edge2" class="edge"><title>Node1&#45;&gt;Node3</title>
<path fill="none" stroke="midnightblue" d="M110.225,-56.083C104.858,-48.4554 96.9824,-37.2645 90.4213,-27.9408"/>
<polygon fill="midnightblue" stroke="midnightblue" points="93.2755,-25.9149 84.6582,-19.7511 87.5508,-29.9434 93.2755,-25.9149"/>
</g>
<!-- Node4 -->
<g id="node4" class="node"><title>Node4</title>
<polygon fill="white" stroke="#bfbfbf" points="120,-0.5 120,-19.5 189,-19.5 189,-0.5 120,-0.5"/>
<text text-anchor="middle" x="154.5" y="-7.5" font-family="Helvetica,sans-Serif" font-size="10.00">sys/types.h</text>
</g>
<!-- Node1&#45;&gt;Node4 -->
<g id="edge3" class="edge"><title>Node1&#45;&gt;Node4</title>
<path fill="none" stroke="midnightblue" d="M122.775,-56.083C128.142,-48.4554 136.018,-37.2645 142.579,-27.9408"/>
<polygon fill="midnightblue" stroke="midnightblue" points="145.449,-29.9434 148.342,-19.7511 139.725,-25.9149 145.449,-29.9434"/>
</g>
<!-- Node5 -->
<g id="node5" class="node"><title>Node5</title>
<polygon fill="white" stroke="#bfbfbf" points="207,-0.5 207,-19.5 270,-19.5 270,-0.5 207,-0.5"/>
<text text-anchor="middle" x="238.5" y="-7.5" font-family="Helvetica,sans-Serif" font-size="10.00">sys/time.h</text>
</g>
<!-- Node1&#45;&gt;Node5 -->
<g id="edge4" class="edge"><title>Node1&#45;&gt;Node5</title>
<path fill="none" stroke="midnightblue" d="M135.831,-56.4435C155.82,-47.5961 187.243,-33.6875 210.064,-23.5865"/>
<polygon fill="midnightblue" stroke="midnightblue" points="211.532,-26.7645 219.259,-19.5164 208.698,-20.3635 211.532,-26.7645"/>
</g>
</g>
</svg>
