<?xml version="1.0" encoding="UTF-8" standalone="no"?>
<!DOCTYPE svg PUBLIC "-//W3C//DTD SVG 1.1//EN"
 "http://www.w3.org/Graphics/SVG/1.1/DTD/svg11.dtd">
<!-- Generated by graphviz version 2.38.0 (20140413.2041)
 -->
<!-- Title: targatorle.c Pages: 1 -->
<svg width="197pt" height="84pt"
 viewBox="0.00 0.00 197.00 84.00" xmlns="http://www.w3.org/2000/svg" xmlns:xlink="http://www.w3.org/1999/xlink">
<g id="graph0" class="graph" transform="scale(1 1) rotate(0) translate(4 80)">
<title>targatorle.c</title>
<polygon fill="white" stroke="none" points="-4,4 -4,-80 193,-80 193,4 -4,4"/>
<!-- Node1 -->
<g id="node1" class="node"><title>Node1</title>
<polygon fill="#bfbfbf" stroke="black" points="64.5,-56.5 64.5,-75.5 134.5,-75.5 134.5,-56.5 64.5,-56.5"/>
<text text-anchor="middle" x="99.5" y="-63.5" font-family="Helvetica,sans-Serif" font-size="10.00">targatorle.c</text>
</g>
<!-- Node2 -->
<g id="node2" class="node"><title>Node2</title>
<polygon fill="white" stroke="#bfbfbf" points="0,-0.5 0,-19.5 47,-19.5 47,-0.5 0,-0.5"/>
<text text-anchor="middle" x="23.5" y="-7.5" font-family="Helvetica,sans-Serif" font-size="10.00">stdio.h</text>
</g>
<!-- Node1&#45;&gt;Node2 -->
<g id="edge1" class="edge"><title>Node1&#45;&gt;Node2</title>
<path fill="none" stroke="midnightblue" d="M87.2893,-56.324C75.7241,-48.1066 58.1246,-35.6017 44.3393,-25.8069"/>
<polygon fill="midnightblue" stroke="midnightblue" points="46.112,-22.7729 35.9329,-19.8339 42.0575,-28.4791 46.112,-22.7729"/>
</g>
<!-- Node3 -->
<g id="node3" class="node"><title>Node3</title>
<polygon fill="white" stroke="#bfbfbf" points="65,-0.5 65,-19.5 134,-19.5 134,-0.5 65,-0.5"/>
<text text-anchor="middle" x="99.5" y="-7.5" font-family="Helvetica,sans-Serif" font-size="10.00">sys/types.h</text>
</g>
<!-- Node1&#45;&gt;Node3 -->
<g id="edge2" class="edge"><title>Node1&#45;&gt;Node3</title>
<path fill="none" stroke="midnightblue" d="M99.5,-56.083C99.5,-49.0059 99.5,-38.8611 99.5,-29.9865"/>
<polygon fill="midnightblue" stroke="midnightblue" points="103,-29.751 99.5,-19.7511 96.0001,-29.7511 103,-29.751"/>
</g>
<!-- Node4 -->
<g id="node4" class="node"><title>Node4</title>
<polygon fill="white" stroke="#bfbfbf" points="152,-0.5 152,-19.5 189,-19.5 189,-0.5 152,-0.5"/>
<text text-anchor="middle" x="170.5" y="-7.5" font-family="Helvetica,sans-Serif" font-size="10.00">rle.h</text>
</g>
<!-- Node1&#45;&gt;Node4 -->
<g id="edge3" class="edge"><title>Node1&#45;&gt;Node4</title>
<path fill="none" stroke="midnightblue" d="M110.907,-56.324C121.609,-48.1849 137.841,-35.8395 150.663,-26.0874"/>
<polygon fill="midnightblue" stroke="midnightblue" points="153.044,-28.6734 158.885,-19.8339 148.807,-23.1018 153.044,-28.6734"/>
</g>
</g>
</svg>
