<?xml version="1.0" encoding="UTF-8" standalone="no"?>
<!DOCTYPE svg PUBLIC "-//W3C//DTD SVG 1.1//EN"
 "http://www.w3.org/Graphics/SVG/1.1/DTD/svg11.dtd">
<!-- Generated by graphviz version 2.38.0 (20140413.2041)
 -->
<!-- Title: cnv/targatorle.c Pages: 1 -->
<svg width="197pt" height="196pt"
 viewBox="0.00 0.00 197.00 196.00" xmlns="http://www.w3.org/2000/svg" xmlns:xlink="http://www.w3.org/1999/xlink">
<g id="graph0" class="graph" transform="scale(1 1) rotate(0) translate(4 192)">
<title>cnv/targatorle.c</title>
<polygon fill="white" stroke="none" points="-4,4 -4,-192 193,-192 193,4 -4,4"/>
<!-- Node1 -->
<g id="node1" class="node"><title>Node1</title>
<polygon fill="#bfbfbf" stroke="black" points="14,-168.5 14,-187.5 103,-187.5 103,-168.5 14,-168.5"/>
<text text-anchor="middle" x="58.5" y="-175.5" font-family="Helvetica,sans-Serif" font-size="10.00">cnv/targatorle.c</text>
</g>
<!-- Node2 -->
<g id="node2" class="node"><title>Node2</title>
<polygon fill="white" stroke="#bfbfbf" points="0,-56.5 0,-75.5 47,-75.5 47,-56.5 0,-56.5"/>
<text text-anchor="middle" x="23.5" y="-63.5" font-family="Helvetica,sans-Serif" font-size="10.00">stdio.h</text>
</g>
<!-- Node1&#45;&gt;Node2 -->
<g id="edge1" class="edge"><title>Node1&#45;&gt;Node2</title>
<path fill="none" stroke="midnightblue" d="M45.7191,-168.369C35.1056,-160.36 20.7694,-147.379 14.5,-132 8.39198,-117.016 11.8319,-98.651 16.1052,-85.2685"/>
<polygon fill="midnightblue" stroke="midnightblue" points="19.4329,-86.3583 19.5446,-75.764 12.8506,-83.9763 19.4329,-86.3583"/>
</g>
<!-- Node3 -->
<g id="node3" class="node"><title>Node3</title>
<polygon fill="white" stroke="#bfbfbf" points="24,-112.5 24,-131.5 93,-131.5 93,-112.5 24,-112.5"/>
<text text-anchor="middle" x="58.5" y="-119.5" font-family="Helvetica,sans-Serif" font-size="10.00">sys/types.h</text>
</g>
<!-- Node1&#45;&gt;Node3 -->
<g id="edge2" class="edge"><title>Node1&#45;&gt;Node3</title>
<path fill="none" stroke="midnightblue" d="M58.5,-168.083C58.5,-161.006 58.5,-150.861 58.5,-141.986"/>
<polygon fill="midnightblue" stroke="midnightblue" points="62.0001,-141.751 58.5,-131.751 55.0001,-141.751 62.0001,-141.751"/>
</g>
<!-- Node4 -->
<g id="node4" class="node"><title>Node4</title>
<g id="a_node4"><a xlink:href="../../d7/d27/rle_8h.html" target="_top" xlink:title="rle.h">
<polygon fill="white" stroke="black" points="111,-112.5 111,-131.5 148,-131.5 148,-112.5 111,-112.5"/>
<text text-anchor="middle" x="129.5" y="-119.5" font-family="Helvetica,sans-Serif" font-size="10.00">rle.h</text>
</a>
</g>
</g>
<!-- Node1&#45;&gt;Node4 -->
<g id="edge3" class="edge"><title>Node1&#45;&gt;Node4</title>
<path fill="none" stroke="midnightblue" d="M69.9074,-168.324C80.6088,-160.185 96.8407,-147.839 109.663,-138.087"/>
<polygon fill="midnightblue" stroke="midnightblue" points="112.044,-140.673 117.885,-131.834 107.807,-135.102 112.044,-140.673"/>
</g>
<!-- Node4&#45;&gt;Node2 -->
<g id="edge7" class="edge"><title>Node4&#45;&gt;Node2</title>
<path fill="none" stroke="midnightblue" d="M112.469,-112.324C95.4702,-103.664 69.1239,-90.2424 49.5074,-80.249"/>
<polygon fill="midnightblue" stroke="midnightblue" points="50.9876,-77.0752 40.4885,-75.6545 47.8101,-83.3125 50.9876,-77.0752"/>
</g>
<!-- Node5 -->
<g id="node5" class="node"><title>Node5</title>
<g id="a_node5"><a xlink:href="../../df/dad/rle__config_8h.html" target="_top" xlink:title="rle_config.h">
<polygon fill="white" stroke="black" points="94,-56.5 94,-75.5 165,-75.5 165,-56.5 94,-56.5"/>
<text text-anchor="middle" x="129.5" y="-63.5" font-family="Helvetica,sans-Serif" font-size="10.00">rle_config.h</text>
</a>
</g>
</g>
<!-- Node4&#45;&gt;Node5 -->
<g id="edge4" class="edge"><title>Node4&#45;&gt;Node5</title>
<path fill="none" stroke="midnightblue" d="M129.5,-112.083C129.5,-105.006 129.5,-94.8611 129.5,-85.9865"/>
<polygon fill="midnightblue" stroke="midnightblue" points="133,-85.751 129.5,-75.7511 126,-85.7511 133,-85.751"/>
</g>
<!-- Node6 -->
<g id="node6" class="node"><title>Node6</title>
<polygon fill="white" stroke="#bfbfbf" points="71,-0.5 71,-19.5 120,-19.5 120,-0.5 71,-0.5"/>
<text text-anchor="middle" x="95.5" y="-7.5" font-family="Helvetica,sans-Serif" font-size="10.00">stdlib.h</text>
</g>
<!-- Node5&#45;&gt;Node6 -->
<g id="edge5" class="edge"><title>Node5&#45;&gt;Node6</title>
<path fill="none" stroke="midnightblue" d="M123.886,-56.083C119.133,-48.5341 112.182,-37.4948 106.348,-28.2298"/>
<polygon fill="midnightblue" stroke="midnightblue" points="109.3,-26.3486 101.01,-19.7511 103.376,-30.0783 109.3,-26.3486"/>
</g>
<!-- Node7 -->
<g id="node7" class="node"><title>Node7</title>
<polygon fill="white" stroke="#bfbfbf" points="138,-0.5 138,-19.5 189,-19.5 189,-0.5 138,-0.5"/>
<text text-anchor="middle" x="163.5" y="-7.5" font-family="Helvetica,sans-Serif" font-size="10.00">string.h</text>
</g>
<!-- Node5&#45;&gt;Node7 -->
<g id="edge6" class="edge"><title>Node5&#45;&gt;Node7</title>
<path fill="none" stroke="midnightblue" d="M135.114,-56.083C139.867,-48.5341 146.818,-37.4948 152.652,-28.2298"/>
<polygon fill="midnightblue" stroke="midnightblue" points="155.624,-30.0783 157.99,-19.7511 149.7,-26.3486 155.624,-30.0783"/>
</g>
</g>
</svg>
