<?xml version="1.0" encoding="UTF-8" standalone="no"?>
<!DOCTYPE svg PUBLIC "-//W3C//DTD SVG 1.1//EN"
 "http://www.w3.org/Graphics/SVG/1.1/DTD/svg11.dtd">
<!-- Generated by graphviz version 2.38.0 (20140413.2041)
 -->
<!-- Title: get/gmr27/getfb.h Pages: 1 -->
<svg width="266pt" height="84pt"
 viewBox="0.00 0.00 265.50 84.00" xmlns="http://www.w3.org/2000/svg" xmlns:xlink="http://www.w3.org/1999/xlink">
<g id="graph0" class="graph" transform="scale(1 1) rotate(0) translate(4 80)">
<title>get/gmr27/getfb.h</title>
<polygon fill="white" stroke="none" points="-4,4 -4,-80 261.5,-80 261.5,4 -4,4"/>
<!-- Node1 -->
<g id="node1" class="node"><title>Node1</title>
<polygon fill="#bfbfbf" stroke="black" points="73.5,-56.5 73.5,-75.5 172.5,-75.5 172.5,-56.5 73.5,-56.5"/>
<text text-anchor="middle" x="123" y="-63.5" font-family="Helvetica,sans-Serif" font-size="10.00">get/gmr27/getfb.h</text>
</g>
<!-- Node2 -->
<g id="node2" class="node"><title>Node2</title>
<g id="a_node2"><a xlink:href="../../d0/d2c/getgmr_8c.html" target="_top" xlink:title="get/gmr27/getgmr.c">
<polygon fill="white" stroke="black" points="0,-0.5 0,-19.5 108,-19.5 108,-0.5 0,-0.5"/>
<text text-anchor="middle" x="54" y="-7.5" font-family="Helvetica,sans-Serif" font-size="10.00">get/gmr27/getgmr.c</text>
</a>
</g>
</g>
<!-- Node1&#45;&gt;Node2 -->
<g id="edge1" class="edge"><title>Node1&#45;&gt;Node2</title>
<path fill="none" stroke="midnightblue" d="M103.962,-50.1008C91.5442,-40.3824 75.7566,-28.0269 65.2878,-19.8339"/>
<polygon fill="midnightblue" stroke="midnightblue" points="101.882,-52.9171 111.914,-56.324 106.196,-47.4046 101.882,-52.9171"/>
</g>
<!-- Node3 -->
<g id="node3" class="node"><title>Node3</title>
<g id="a_node3"><a xlink:href="../../dc/dd9/XtndRunget_8c.html" target="_top" xlink:title="get/gmr27/XtndRunget.c">
<polygon fill="white" stroke="black" points="126.5,-0.5 126.5,-19.5 257.5,-19.5 257.5,-0.5 126.5,-0.5"/>
<text text-anchor="middle" x="192" y="-7.5" font-family="Helvetica,sans-Serif" font-size="10.00">get/gmr27/XtndRunget.c</text>
</a>
</g>
</g>
<!-- Node1&#45;&gt;Node3 -->
<g id="edge2" class="edge"><title>Node1&#45;&gt;Node3</title>
<path fill="none" stroke="midnightblue" d="M142.038,-50.1008C154.456,-40.3824 170.243,-28.0269 180.712,-19.8339"/>
<polygon fill="midnightblue" stroke="midnightblue" points="139.804,-47.4046 134.086,-56.324 144.118,-52.9171 139.804,-47.4046"/>
</g>
</g>
</svg>
