<?xml version="1.0" encoding="UTF-8" standalone="no"?>
<!DOCTYPE svg PUBLIC "-//W3C//DTD SVG 1.1//EN"
 "http://www.w3.org/Graphics/SVG/1.1/DTD/svg11.dtd">
<!-- Generated by graphviz version 2.38.0 (20140413.2041)
 -->
<!-- Title: getfb.h Pages: 1 -->
<svg width="164pt" height="84pt"
 viewBox="0.00 0.00 163.50 84.00" xmlns="http://www.w3.org/2000/svg" xmlns:xlink="http://www.w3.org/1999/xlink">
<g id="graph0" class="graph" transform="scale(1 1) rotate(0) translate(4 80)">
<title>getfb.h</title>
<polygon fill="white" stroke="none" points="-4,4 -4,-80 159.5,-80 159.5,4 -4,4"/>
<!-- Node1 -->
<g id="node1" class="node"><title>Node1</title>
<polygon fill="#bfbfbf" stroke="black" points="47.5,-56.5 47.5,-75.5 95.5,-75.5 95.5,-56.5 47.5,-56.5"/>
<text text-anchor="middle" x="71.5" y="-63.5" font-family="Helvetica,sans-Serif" font-size="10.00">getfb.h</text>
</g>
<!-- Node2 -->
<g id="node2" class="node"><title>Node2</title>
<g id="a_node2"><a xlink:href="../../d0/d2c/getgmr_8c.html" target="_top" xlink:title="getgmr.c">
<polygon fill="white" stroke="black" points="0,-0.5 0,-19.5 57,-19.5 57,-0.5 0,-0.5"/>
<text text-anchor="middle" x="28.5" y="-7.5" font-family="Helvetica,sans-Serif" font-size="10.00">getgmr.c</text>
</a>
</g>
</g>
<!-- Node1&#45;&gt;Node2 -->
<g id="edge1" class="edge"><title>Node1&#45;&gt;Node2</title>
<path fill="none" stroke="midnightblue" d="M58.0776,-48.144C50.5858,-38.7357 41.5629,-27.4046 35.4685,-19.7511"/>
<polygon fill="midnightblue" stroke="midnightblue" points="55.4321,-50.4404 64.3994,-56.083 60.9081,-46.0799 55.4321,-50.4404"/>
</g>
<!-- Node3 -->
<g id="node3" class="node"><title>Node3</title>
<g id="a_node3"><a xlink:href="../../dc/dd9/XtndRunget_8c.html" target="_top" xlink:title="XtndRunget.c">
<polygon fill="white" stroke="black" points="75.5,-0.5 75.5,-19.5 155.5,-19.5 155.5,-0.5 75.5,-0.5"/>
<text text-anchor="middle" x="115.5" y="-7.5" font-family="Helvetica,sans-Serif" font-size="10.00">XtndRunget.c</text>
</a>
</g>
</g>
<!-- Node1&#45;&gt;Node3 -->
<g id="edge2" class="edge"><title>Node1&#45;&gt;Node3</title>
<path fill="none" stroke="midnightblue" d="M85.2345,-48.144C92.9005,-38.7357 102.133,-27.4046 108.369,-19.7511"/>
<polygon fill="midnightblue" stroke="midnightblue" points="82.3691,-46.1198 78.7657,-56.083 87.7958,-50.5415 82.3691,-46.1198"/>
</g>
</g>
</svg>
