<?xml version="1.0" encoding="UTF-8" standalone="no"?>
<!DOCTYPE svg PUBLIC "-//W3C//DTD SVG 1.1//EN"
 "http://www.w3.org/Graphics/SVG/1.1/DTD/svg11.dtd">
<!-- Generated by graphviz version 2.38.0 (20140413.2041)
 -->
<!-- Title: RASF.h Pages: 1 -->
<svg width="275pt" height="140pt"
 viewBox="0.00 0.00 275.00 140.00" xmlns="http://www.w3.org/2000/svg" xmlns:xlink="http://www.w3.org/1999/xlink">
<g id="graph0" class="graph" transform="scale(1 1) rotate(0) translate(4 136)">
<title>RASF.h</title>
<polygon fill="white" stroke="none" points="-4,4 -4,-136 271,-136 271,4 -4,4"/>
<!-- Node1 -->
<g id="node1" class="node"><title>Node1</title>
<polygon fill="#bfbfbf" stroke="black" points="95.5,-112.5 95.5,-131.5 147.5,-131.5 147.5,-112.5 95.5,-112.5"/>
<text text-anchor="middle" x="121.5" y="-119.5" font-family="Helvetica,sans-Serif" font-size="10.00">RASF.h</text>
</g>
<!-- Node2 -->
<g id="node2" class="node"><title>Node2</title>
<g id="a_node2"><a xlink:href="../../d8/d0f/Image_8h.html" target="_top" xlink:title="Image.h">
<polygon fill="white" stroke="black" points="94.5,-56.5 94.5,-75.5 148.5,-75.5 148.5,-56.5 94.5,-56.5"/>
<text text-anchor="middle" x="121.5" y="-63.5" font-family="Helvetica,sans-Serif" font-size="10.00">Image.h</text>
</a>
</g>
</g>
<!-- Node1&#45;&gt;Node2 -->
<g id="edge1" class="edge"><title>Node1&#45;&gt;Node2</title>
<path fill="none" stroke="midnightblue" d="M121.5,-112.083C121.5,-105.006 121.5,-94.8611 121.5,-85.9865"/>
<polygon fill="midnightblue" stroke="midnightblue" points="125,-85.751 121.5,-75.7511 118,-85.7511 125,-85.751"/>
</g>
<!-- Node3 -->
<g id="node3" class="node"><title>Node3</title>
<polygon fill="white" stroke="#bfbfbf" points="0,-0.5 0,-19.5 79,-19.5 79,-0.5 0,-0.5"/>
<text text-anchor="middle" x="39.5" y="-7.5" font-family="Helvetica,sans-Serif" font-size="10.00">appkit/View.h</text>
</g>
<!-- Node2&#45;&gt;Node3 -->
<g id="edge2" class="edge"><title>Node2&#45;&gt;Node3</title>
<path fill="none" stroke="midnightblue" d="M108.325,-56.324C95.6532,-47.979 76.2666,-35.2122 61.2944,-25.3524"/>
<polygon fill="midnightblue" stroke="midnightblue" points="62.9187,-22.2313 52.642,-19.6545 59.0688,-28.0776 62.9187,-22.2313"/>
</g>
<!-- Node4 -->
<g id="node4" class="node"><title>Node4</title>
<polygon fill="white" stroke="#bfbfbf" points="97.5,-0.5 97.5,-19.5 145.5,-19.5 145.5,-0.5 97.5,-0.5"/>
<text text-anchor="middle" x="121.5" y="-7.5" font-family="Helvetica,sans-Serif" font-size="10.00">zone.h</text>
</g>
<!-- Node2&#45;&gt;Node4 -->
<g id="edge3" class="edge"><title>Node2&#45;&gt;Node4</title>
<path fill="none" stroke="midnightblue" d="M121.5,-56.083C121.5,-49.0059 121.5,-38.8611 121.5,-29.9865"/>
<polygon fill="midnightblue" stroke="midnightblue" points="125,-29.751 121.5,-19.7511 118,-29.7511 125,-29.751"/>
</g>
<!-- Node5 -->
<g id="node5" class="node"><title>Node5</title>
<polygon fill="white" stroke="#bfbfbf" points="164,-0.5 164,-19.5 267,-19.5 267,-0.5 164,-0.5"/>
<text text-anchor="middle" x="215.5" y="-7.5" font-family="Helvetica,sans-Serif" font-size="10.00">streams/streams.h</text>
</g>
<!-- Node2&#45;&gt;Node5 -->
<g id="edge4" class="edge"><title>Node2&#45;&gt;Node5</title>
<path fill="none" stroke="midnightblue" d="M136.603,-56.324C151.403,-47.8215 174.194,-34.7288 191.482,-24.7975"/>
<polygon fill="midnightblue" stroke="midnightblue" points="193.507,-27.6707 200.435,-19.6545 190.02,-21.6009 193.507,-27.6707"/>
</g>
</g>
</svg>
