<?xml version="1.0" encoding="UTF-8" standalone="no"?>
<!DOCTYPE svg PUBLIC "-//W3C//DTD SVG 1.1//EN"
 "http://www.w3.org/Graphics/SVG/1.1/DTD/svg11.dtd">
<!-- Generated by graphviz version 2.38.0 (20140413.2041)
 -->
<!-- Title: FormFeed Pages: 1 -->
<svg width="249pt" height="47pt"
 viewBox="0.00 0.00 249.00 47.00" xmlns="http://www.w3.org/2000/svg" xmlns:xlink="http://www.w3.org/1999/xlink">
<g id="graph0" class="graph" transform="scale(1 1) rotate(0) translate(4 43)">
<title>FormFeed</title>
<polygon fill="white" stroke="none" points="-4,4 -4,-43 245,-43 245,4 -4,4"/>
<!-- Node1 -->
<g id="node1" class="node"><title>Node1</title>
<polygon fill="#bfbfbf" stroke="black" points="0,-19.5 0,-38.5 65,-38.5 65,-19.5 0,-19.5"/>
<text text-anchor="middle" x="32.5" y="-26.5" font-family="Helvetica,sans-Serif" font-size="10.00">FormFeed</text>
</g>
<!-- Node2 -->
<g id="node2" class="node"><title>Node2</title>
<g id="a_node2"><a xlink:href="../../d6/d0d/dvirle2_8c.html#a70db8bd1d499619f7ff9c1ca2ff3c8df" target="_top" xlink:title="main">
<polygon fill="white" stroke="black" points="202,-19.5 202,-38.5 241,-38.5 241,-19.5 202,-19.5"/>
<text text-anchor="middle" x="221.5" y="-26.5" font-family="Helvetica,sans-Serif" font-size="10.00">main</text>
</a>
</g>
</g>
<!-- Node1&#45;&gt;Node2 -->
<g id="edge1" class="edge"><title>Node1&#45;&gt;Node2</title>
<path fill="none" stroke="midnightblue" d="M75.36,-29C114.903,-29 172.401,-29 201.746,-29"/>
<polygon fill="midnightblue" stroke="midnightblue" points="75.222,-25.5001 65.222,-29 75.222,-32.5001 75.222,-25.5001"/>
</g>
<!-- Node3 -->
<g id="node3" class="node"><title>Node3</title>
<g id="a_node3"><a xlink:href="../../d6/d0d/dvirle2_8c.html#a38a144517cee28fe99bbe43c19f2a978" target="_top" xlink:title="ReadInput">
<polygon fill="white" stroke="black" points="101,-0.5 101,-19.5 166,-19.5 166,-0.5 101,-0.5"/>
<text text-anchor="middle" x="133.5" y="-7.5" font-family="Helvetica,sans-Serif" font-size="10.00">ReadInput</text>
</a>
</g>
</g>
<!-- Node1&#45;&gt;Node3 -->
<g id="edge2" class="edge"><title>Node1&#45;&gt;Node3</title>
<path fill="none" stroke="midnightblue" d="M75.025,-21.0305C83.6689,-19.3716 92.6459,-17.6488 100.864,-16.0715"/>
<polygon fill="midnightblue" stroke="midnightblue" points="74.2575,-17.6139 65.0964,-22.936 75.5769,-24.4884 74.2575,-17.6139"/>
</g>
<!-- Node3&#45;&gt;Node2 -->
<g id="edge3" class="edge"><title>Node3&#45;&gt;Node2</title>
<path fill="none" stroke="midnightblue" d="M175.858,-19.1373C185.02,-21.1614 194.281,-23.2074 201.975,-24.9072"/>
<polygon fill="midnightblue" stroke="midnightblue" points="176.555,-15.7068 166.035,-16.967 175.044,-22.542 176.555,-15.7068"/>
</g>
</g>
</svg>
