<?xml version="1.0" encoding="UTF-8" standalone="no"?>
<!DOCTYPE svg PUBLIC "-//W3C//DTD SVG 1.1//EN"
 "http://www.w3.org/Graphics/SVG/1.1/DTD/svg11.dtd">
<!-- Generated by graphviz version 2.38.0 (20140413.2041)
 -->
<!-- Title: WriteBuf Pages: 1 -->
<svg width="284pt" height="142pt"
 viewBox="0.00 0.00 284.00 142.00" xmlns="http://www.w3.org/2000/svg" xmlns:xlink="http://www.w3.org/1999/xlink">
<g id="graph0" class="graph" transform="scale(1 1) rotate(0) translate(4 138)">
<title>WriteBuf</title>
<polygon fill="white" stroke="none" points="-4,4 -4,-138 280,-138 280,4 -4,4"/>
<!-- Node1 -->
<g id="node1" class="node"><title>Node1</title>
<polygon fill="#bfbfbf" stroke="black" points="0,-57.5 0,-76.5 56,-76.5 56,-57.5 0,-57.5"/>
<text text-anchor="middle" x="28" y="-64.5" font-family="Helvetica,sans-Serif" font-size="10.00">WriteBuf</text>
</g>
<!-- Node2 -->
<g id="node2" class="node"><title>Node2</title>
<g id="a_node2"><a xlink:href="../../d9/d2a/rle__putrow_8c.html#af88a82b331cd6f425d2a2cc1623944c6" target="_top" xlink:title="rle_put_setup">
<polygon fill="white" stroke="black" points="92,-114.5 92,-133.5 172,-133.5 172,-114.5 92,-114.5"/>
<text text-anchor="middle" x="132" y="-121.5" font-family="Helvetica,sans-Serif" font-size="10.00">rle_put_setup</text>
</a>
</g>
</g>
<!-- Node1&#45;&gt;Node2 -->
<g id="edge1" class="edge"><title>Node1&#45;&gt;Node2</title>
<path fill="none" stroke="midnightblue" d="M44.0548,-76.6013C56.6813,-84.527 75.2801,-95.9083 92,-105 95.0705,-106.67 98.3094,-108.358 101.555,-110.004"/>
<polygon fill="midnightblue" stroke="midnightblue" points="100.069,-113.174 110.583,-114.478 103.177,-106.902 100.069,-113.174"/>
</g>
<!-- Node4 -->
<g id="node4" class="node"><title>Node4</title>
<g id="a_node4"><a xlink:href="../../d9/d2a/rle__putrow_8c.html#aa26532b01bc4f49b7383765cdc23ea72" target="_top" xlink:title="rle_putrow">
<polygon fill="white" stroke="black" points="99,-76.5 99,-95.5 165,-95.5 165,-76.5 99,-76.5"/>
<text text-anchor="middle" x="132" y="-83.5" font-family="Helvetica,sans-Serif" font-size="10.00">rle_putrow</text>
</a>
</g>
</g>
<!-- Node1&#45;&gt;Node4 -->
<g id="edge3" class="edge"><title>Node1&#45;&gt;Node4</title>
<path fill="none" stroke="midnightblue" d="M56.0663,-72.0418C66.0978,-73.9104 77.727,-76.0766 88.7876,-78.1369"/>
<polygon fill="midnightblue" stroke="midnightblue" points="88.2514,-81.5972 98.7233,-79.9877 89.5333,-74.7155 88.2514,-81.5972"/>
</g>
<!-- Node7 -->
<g id="node7" class="node"><title>Node7</title>
<g id="a_node7"><a xlink:href="../../d9/d2a/rle__putrow_8c.html#a018d4b7d6fe20504c07c24b9bd8fc304" target="_top" xlink:title="rle_skiprow">
<polygon fill="white" stroke="black" points="96.5,-38.5 96.5,-57.5 167.5,-57.5 167.5,-38.5 96.5,-38.5"/>
<text text-anchor="middle" x="132" y="-45.5" font-family="Helvetica,sans-Serif" font-size="10.00">rle_skiprow</text>
</a>
</g>
</g>
<!-- Node1&#45;&gt;Node7 -->
<g id="edge6" class="edge"><title>Node1&#45;&gt;Node7</title>
<path fill="none" stroke="midnightblue" d="M56.0663,-61.9582C65.3619,-60.2267 76.0294,-58.2396 86.3451,-56.3181"/>
<polygon fill="midnightblue" stroke="midnightblue" points="87.2897,-59.7024 96.4797,-54.4303 86.0078,-52.8208 87.2897,-59.7024"/>
</g>
<!-- Node8 -->
<g id="node8" class="node"><title>Node8</title>
<g id="a_node8"><a xlink:href="../../d6/d0d/dvirle2_8c.html#aa3fefb8939f1480ff90bf413efbc5bb2" target="_top" xlink:title="WriteBuf">
<polygon fill="white" stroke="black" points="104,-0.5 104,-19.5 160,-19.5 160,-0.5 104,-0.5"/>
<text text-anchor="middle" x="132" y="-7.5" font-family="Helvetica,sans-Serif" font-size="10.00">WriteBuf</text>
</a>
</g>
</g>
<!-- Node1&#45;&gt;Node8 -->
<g id="edge7" class="edge"><title>Node1&#45;&gt;Node8</title>
<path fill="none" stroke="midnightblue" d="M44.0548,-57.3987C56.6813,-49.473 75.2801,-38.0917 92,-29 95.0705,-27.3303 98.3094,-25.6417 101.555,-23.9957"/>
<polygon fill="midnightblue" stroke="midnightblue" points="103.177,-27.098 110.583,-19.5216 100.069,-20.8259 103.177,-27.098"/>
</g>
<!-- Node3 -->
<g id="node3" class="node"><title>Node3</title>
<g id="a_node3"><a xlink:href="../../d9/d2a/rle__putrow_8c.html#a46d9789104d5d1f09253a808fdad5346" target="_top" xlink:title="rle_put_init">
<polygon fill="white" stroke="black" points="208,-114.5 208,-133.5 276,-133.5 276,-114.5 208,-114.5"/>
<text text-anchor="middle" x="242" y="-121.5" font-family="Helvetica,sans-Serif" font-size="10.00">rle_put_init</text>
</a>
</g>
</g>
<!-- Node2&#45;&gt;Node3 -->
<g id="edge2" class="edge"><title>Node2&#45;&gt;Node3</title>
<path fill="none" stroke="midnightblue" d="M172.296,-124C180.614,-124 189.437,-124 197.888,-124"/>
<polygon fill="midnightblue" stroke="midnightblue" points="197.953,-127.5 207.953,-124 197.953,-120.5 197.953,-127.5"/>
</g>
<!-- Node5 -->
<g id="node5" class="node"><title>Node5</title>
<g id="a_node5"><a xlink:href="../../d0/dcc/rletorla_8c.html#ab7e36af3707843f77cc5b4e831c2fa6d" target="_top" xlink:title="malloc">
<polygon fill="white" stroke="black" points="218.5,-76.5 218.5,-95.5 265.5,-95.5 265.5,-76.5 218.5,-76.5"/>
<text text-anchor="middle" x="242" y="-83.5" font-family="Helvetica,sans-Serif" font-size="10.00">malloc</text>
</a>
</g>
</g>
<!-- Node4&#45;&gt;Node5 -->
<g id="edge4" class="edge"><title>Node4&#45;&gt;Node5</title>
<path fill="none" stroke="midnightblue" d="M165.111,-86C178.652,-86 194.404,-86 208.036,-86"/>
<polygon fill="midnightblue" stroke="midnightblue" points="208.432,-89.5001 218.432,-86 208.432,-82.5001 208.432,-89.5001"/>
</g>
<!-- Node6 -->
<g id="node6" class="node"><title>Node6</title>
<g id="a_node6"><a xlink:href="../../d9/d2a/rle__putrow_8c.html#aaa4133bf4a6cbf287444448497631f26" target="_top" xlink:title="findruns">
<polygon fill="white" stroke="black" points="215,-38.5 215,-57.5 269,-57.5 269,-38.5 215,-38.5"/>
<text text-anchor="middle" x="242" y="-45.5" font-family="Helvetica,sans-Serif" font-size="10.00">findruns</text>
</a>
</g>
</g>
<!-- Node4&#45;&gt;Node6 -->
<g id="edge5" class="edge"><title>Node4&#45;&gt;Node6</title>
<path fill="none" stroke="midnightblue" d="M160.253,-76.411C173.86,-71.6234 190.498,-65.7692 205.128,-60.6217"/>
<polygon fill="midnightblue" stroke="midnightblue" points="206.602,-63.8134 214.873,-57.1927 204.279,-57.2102 206.602,-63.8134"/>
</g>
</g>
</svg>
