<?xml version="1.0" encoding="UTF-8" standalone="no"?>
<!DOCTYPE svg PUBLIC "-//W3C//DTD SVG 1.1//EN"
 "http://www.w3.org/Graphics/SVG/1.1/DTD/svg11.dtd">
<!-- Generated by graphviz version 2.38.0 (20140413.2041)
 -->
<!-- Title: VWriteRule Pages: 1 -->
<svg width="253pt" height="28pt"
 viewBox="0.00 0.00 253.00 28.00" xmlns="http://www.w3.org/2000/svg" xmlns:xlink="http://www.w3.org/1999/xlink">
<g id="graph0" class="graph" transform="scale(1 1) rotate(0) translate(4 24)">
<title>VWriteRule</title>
<polygon fill="white" stroke="none" points="-4,4 -4,-24 249,-24 249,4 -4,4"/>
<!-- Node1 -->
<g id="node1" class="node"><title>Node1</title>
<polygon fill="#bfbfbf" stroke="black" points="0,-0.5 0,-19.5 69,-19.5 69,-0.5 0,-0.5"/>
<text text-anchor="middle" x="34.5" y="-7.5" font-family="Helvetica,sans-Serif" font-size="10.00">VWriteRule</text>
</g>
<!-- Node2 -->
<g id="node2" class="node"><title>Node2</title>
<g id="a_node2"><a xlink:href="../../d6/d0d/dvirle2_8c.html#a38a144517cee28fe99bbe43c19f2a978" target="_top" xlink:title="ReadInput">
<polygon fill="white" stroke="black" points="105,-0.5 105,-19.5 170,-19.5 170,-0.5 105,-0.5"/>
<text text-anchor="middle" x="137.5" y="-7.5" font-family="Helvetica,sans-Serif" font-size="10.00">ReadInput</text>
</a>
</g>
</g>
<!-- Node1&#45;&gt;Node2 -->
<g id="edge1" class="edge"><title>Node1&#45;&gt;Node2</title>
<path fill="none" stroke="midnightblue" d="M79.3463,-10C87.8805,-10 96.6727,-10 104.725,-10"/>
<polygon fill="midnightblue" stroke="midnightblue" points="79.1316,-6.5001 69.1315,-10 79.1315,-13.5001 79.1316,-6.5001"/>
</g>
<!-- Node3 -->
<g id="node3" class="node"><title>Node3</title>
<g id="a_node3"><a xlink:href="../../d6/d0d/dvirle2_8c.html#a70db8bd1d499619f7ff9c1ca2ff3c8df" target="_top" xlink:title="main">
<polygon fill="white" stroke="black" points="206,-0.5 206,-19.5 245,-19.5 245,-0.5 206,-0.5"/>
<text text-anchor="middle" x="225.5" y="-7.5" font-family="Helvetica,sans-Serif" font-size="10.00">main</text>
</a>
</g>
</g>
<!-- Node2&#45;&gt;Node3 -->
<g id="edge2" class="edge"><title>Node2&#45;&gt;Node3</title>
<path fill="none" stroke="midnightblue" d="M180.151,-10C189.217,-10 198.363,-10 205.975,-10"/>
<polygon fill="midnightblue" stroke="midnightblue" points="180.035,-6.5001 170.035,-10 180.035,-13.5001 180.035,-6.5001"/>
</g>
</g>
</svg>
