<?xml version="1.0" encoding="UTF-8" standalone="no"?>
<!DOCTYPE svg PUBLIC "-//W3C//DTD SVG 1.1//EN"
 "http://www.w3.org/Graphics/SVG/1.1/DTD/svg11.dtd">
<!-- Generated by graphviz version 2.38.0 (20140413.2041)
 -->
<!-- Title: ReadInput Pages: 1 -->
<svg width="378pt" height="294pt"
 viewBox="0.00 0.00 378.00 294.00" xmlns="http://www.w3.org/2000/svg" xmlns:xlink="http://www.w3.org/1999/xlink">
<g id="graph0" class="graph" transform="scale(1 1) rotate(0) translate(4 290)">
<title>ReadInput</title>
<polygon fill="white" stroke="none" points="-4,4 -4,-290 374,-290 374,4 -4,4"/>
<!-- Node1 -->
<g id="node1" class="node"><title>Node1</title>
<polygon fill="#bfbfbf" stroke="black" points="0,-133.5 0,-152.5 65,-152.5 65,-133.5 0,-133.5"/>
<text text-anchor="middle" x="32.5" y="-140.5" font-family="Helvetica,sans-Serif" font-size="10.00">ReadInput</text>
</g>
<!-- Node2 -->
<g id="node2" class="node"><title>Node2</title>
<g id="a_node2"><a xlink:href="../../d6/d0d/dvirle2_8c.html#a8e38f889cd0cb360477bfbec09fafd91" target="_top" xlink:title="MoveDown">
<polygon fill="white" stroke="black" points="115,-266.5 115,-285.5 185,-285.5 185,-266.5 115,-266.5"/>
<text text-anchor="middle" x="150" y="-273.5" font-family="Helvetica,sans-Serif" font-size="10.00">MoveDown</text>
</a>
</g>
</g>
<!-- Node1&#45;&gt;Node2 -->
<g id="edge1" class="edge"><title>Node1&#45;&gt;Node2</title>
<path fill="none" stroke="midnightblue" d="M36.754,-152.691C44.4936,-174.354 66.011,-227.135 101,-257 102.968,-258.68 105.103,-260.223 107.342,-261.638"/>
<polygon fill="midnightblue" stroke="midnightblue" points="105.896,-264.834 116.361,-266.484 109.209,-258.667 105.896,-264.834"/>
</g>
<!-- Node3 -->
<g id="node3" class="node"><title>Node3</title>
<g id="a_node3"><a xlink:href="../../d6/d0d/dvirle2_8c.html#af9041736cd1abcbd71249102da412809" target="_top" xlink:title="DumpTopOfBand">
<polygon fill="white" stroke="black" points="101,-228.5 101,-247.5 199,-247.5 199,-228.5 101,-228.5"/>
<text text-anchor="middle" x="150" y="-235.5" font-family="Helvetica,sans-Serif" font-size="10.00">DumpTopOfBand</text>
</a>
</g>
</g>
<!-- Node1&#45;&gt;Node3 -->
<g id="edge2" class="edge"><title>Node1&#45;&gt;Node3</title>
<path fill="none" stroke="midnightblue" d="M40.9227,-152.752C52.4991,-167.468 76.1191,-195.585 101,-214 105.798,-217.551 111.2,-220.827 116.604,-223.745"/>
<polygon fill="midnightblue" stroke="midnightblue" points="115.091,-226.902 125.593,-228.3 118.255,-220.658 115.091,-226.902"/>
</g>
<!-- Node4 -->
<g id="node4" class="node"><title>Node4</title>
<g id="a_node4"><a xlink:href="../../d6/d0d/dvirle2_8c.html#aa3fefb8939f1480ff90bf413efbc5bb2" target="_top" xlink:title="WriteBuf">
<polygon fill="white" stroke="black" points="239,-209.5 239,-228.5 295,-228.5 295,-209.5 239,-209.5"/>
<text text-anchor="middle" x="267" y="-216.5" font-family="Helvetica,sans-Serif" font-size="10.00">WriteBuf</text>
</a>
</g>
</g>
<!-- Node1&#45;&gt;Node4 -->
<g id="edge6" class="edge"><title>Node1&#45;&gt;Node4</title>
<path fill="none" stroke="midnightblue" d="M47.6531,-152.562C60.9177,-161.129 81.5626,-173.471 101,-181 143.355,-197.406 194.691,-207.851 228.737,-213.554"/>
<polygon fill="midnightblue" stroke="midnightblue" points="228.287,-217.027 238.719,-215.173 229.408,-210.117 228.287,-217.027"/>
</g>
<!-- Node5 -->
<g id="node5" class="node"><title>Node5</title>
<g id="a_node5"><a xlink:href="../../dc/d7b/aliastorle_8c.html#ac2c29217831f208a3b22bae552c5124f" target="_top" xlink:title="error">
<polygon fill="white" stroke="black" points="130,-152.5 130,-171.5 170,-171.5 170,-152.5 130,-152.5"/>
<text text-anchor="middle" x="150" y="-159.5" font-family="Helvetica,sans-Serif" font-size="10.00">error</text>
</a>
</g>
</g>
<!-- Node1&#45;&gt;Node5 -->
<g id="edge4" class="edge"><title>Node1&#45;&gt;Node5</title>
<path fill="none" stroke="midnightblue" d="M65.0609,-148.192C82.0458,-150.986 102.865,-154.411 119.52,-157.151"/>
<polygon fill="midnightblue" stroke="midnightblue" points="119.346,-160.669 129.782,-158.839 120.482,-153.762 119.346,-160.669"/>
</g>
<!-- Node6 -->
<g id="node6" class="node"><title>Node6</title>
<g id="a_node6"><a xlink:href="../../d6/d0d/dvirle2_8c.html#a6eea1d120268fb8ab72dd48af5d2b0ea" target="_top" xlink:title="VWriteChar">
<polygon fill="white" stroke="black" points="114.5,-114.5 114.5,-133.5 185.5,-133.5 185.5,-114.5 114.5,-114.5"/>
<text text-anchor="middle" x="150" y="-121.5" font-family="Helvetica,sans-Serif" font-size="10.00">VWriteChar</text>
</a>
</g>
</g>
<!-- Node1&#45;&gt;Node6 -->
<g id="edge5" class="edge"><title>Node1&#45;&gt;Node6</title>
<path fill="none" stroke="midnightblue" d="M65.0609,-137.808C77.0772,-135.831 91.0126,-133.539 104.035,-131.397"/>
<polygon fill="midnightblue" stroke="midnightblue" points="104.93,-134.797 114.229,-129.72 103.793,-127.89 104.93,-134.797"/>
</g>
<!-- Node7 -->
<g id="node7" class="node"><title>Node7</title>
<g id="a_node7"><a xlink:href="../../d6/d0d/dvirle2_8c.html#aae5254a30bd037d45af7fbbeaa0e2f1e" target="_top" xlink:title="WriteBlanks">
<polygon fill="white" stroke="black" points="113.5,-76.5 113.5,-95.5 186.5,-95.5 186.5,-76.5 113.5,-76.5"/>
<text text-anchor="middle" x="150" y="-83.5" font-family="Helvetica,sans-Serif" font-size="10.00">WriteBlanks</text>
</a>
</g>
</g>
<!-- Node1&#45;&gt;Node7 -->
<g id="edge7" class="edge"><title>Node1&#45;&gt;Node7</title>
<path fill="none" stroke="midnightblue" d="M49.0001,-133.476C62.4789,-125.389 82.6694,-113.738 101,-105 105.069,-103.06 109.392,-101.149 113.712,-99.3307"/>
<polygon fill="midnightblue" stroke="midnightblue" points="115.124,-102.535 123.065,-95.5217 112.484,-96.052 115.124,-102.535"/>
</g>
<!-- Node8 -->
<g id="node8" class="node"><title>Node8</title>
<g id="a_node8"><a xlink:href="../../d6/d0d/dvirle2_8c.html#a87bd5716ebe94a141c319a2b4aff41a4" target="_top" xlink:title="FormFeed">
<polygon fill="white" stroke="black" points="117.5,-38.5 117.5,-57.5 182.5,-57.5 182.5,-38.5 117.5,-38.5"/>
<text text-anchor="middle" x="150" y="-45.5" font-family="Helvetica,sans-Serif" font-size="10.00">FormFeed</text>
</a>
</g>
</g>
<!-- Node1&#45;&gt;Node8 -->
<g id="edge8" class="edge"><title>Node1&#45;&gt;Node8</title>
<path fill="none" stroke="midnightblue" d="M39.849,-133.283C50.6617,-117.414 74.1099,-85.8234 101,-67 103.561,-65.2075 106.314,-63.5508 109.161,-62.0262"/>
<polygon fill="midnightblue" stroke="midnightblue" points="110.926,-65.0625 118.448,-57.6014 107.915,-58.7431 110.926,-65.0625"/>
</g>
<!-- Node11 -->
<g id="node11" class="node"><title>Node11</title>
<g id="a_node11"><a xlink:href="../../d6/d0d/dvirle2_8c.html#a27ab94dea34cc30dc86630b8debecd24" target="_top" xlink:title="VWriteRule">
<polygon fill="white" stroke="black" points="115.5,-0.5 115.5,-19.5 184.5,-19.5 184.5,-0.5 115.5,-0.5"/>
<text text-anchor="middle" x="150" y="-7.5" font-family="Helvetica,sans-Serif" font-size="10.00">VWriteRule</text>
</a>
</g>
</g>
<!-- Node1&#45;&gt;Node11 -->
<g id="edge11" class="edge"><title>Node1&#45;&gt;Node11</title>
<path fill="none" stroke="midnightblue" d="M36.754,-133.309C44.4936,-111.646 66.011,-58.8651 101,-29 102.968,-27.3199 105.103,-25.7771 107.342,-24.3619"/>
<polygon fill="midnightblue" stroke="midnightblue" points="109.209,-27.3325 116.361,-19.5164 105.896,-21.1661 109.209,-27.3325"/>
</g>
<!-- Node3&#45;&gt;Node4 -->
<g id="edge3" class="edge"><title>Node3&#45;&gt;Node4</title>
<path fill="none" stroke="midnightblue" d="M199.104,-230.052C209.048,-228.409 219.377,-226.703 228.859,-225.136"/>
<polygon fill="midnightblue" stroke="midnightblue" points="229.46,-228.585 238.756,-223.501 228.319,-221.678 229.46,-228.585"/>
</g>
<!-- Node9 -->
<g id="node9" class="node"><title>Node9</title>
<g id="a_node9"><a xlink:href="../../d9/d2a/rle__putrow_8c.html#af4fab734a5d227ad2ae95840f56fff3b" target="_top" xlink:title="rle_puteof">
<polygon fill="white" stroke="black" points="235,-38.5 235,-57.5 299,-57.5 299,-38.5 235,-38.5"/>
<text text-anchor="middle" x="267" y="-45.5" font-family="Helvetica,sans-Serif" font-size="10.00">rle_puteof</text>
</a>
</g>
</g>
<!-- Node8&#45;&gt;Node9 -->
<g id="edge9" class="edge"><title>Node8&#45;&gt;Node9</title>
<path fill="none" stroke="midnightblue" d="M182.729,-48C195.655,-48 210.773,-48 224.554,-48"/>
<polygon fill="midnightblue" stroke="midnightblue" points="224.773,-51.5001 234.773,-48 224.773,-44.5001 224.773,-51.5001"/>
</g>
<!-- Node10 -->
<g id="node10" class="node"><title>Node10</title>
<g id="a_node10"><a xlink:href="../../d0/dcc/rletorla_8c.html#aafde19f7d36ca163a143579c1b125b6d" target="_top" xlink:title="free">
<polygon fill="white" stroke="black" points="335,-38.5 335,-57.5 370,-57.5 370,-38.5 335,-38.5"/>
<text text-anchor="middle" x="352.5" y="-45.5" font-family="Helvetica,sans-Serif" font-size="10.00">free</text>
</a>
</g>
</g>
<!-- Node9&#45;&gt;Node10 -->
<g id="edge10" class="edge"><title>Node9&#45;&gt;Node10</title>
<path fill="none" stroke="midnightblue" d="M299.092,-48C307.475,-48 316.471,-48 324.604,-48"/>
<polygon fill="midnightblue" stroke="midnightblue" points="324.672,-51.5001 334.672,-48 324.672,-44.5001 324.672,-51.5001"/>
</g>
</g>
</svg>
