<?xml version="1.0" encoding="UTF-8" standalone="no"?>
<!DOCTYPE svg PUBLIC "-//W3C//DTD SVG 1.1//EN"
 "http://www.w3.org/Graphics/SVG/1.1/DTD/svg11.dtd">
<!-- Generated by graphviz version 2.38.0 (20140413.2041)
 -->
<!-- Title: main Pages: 1 -->
<svg width="496pt" height="522pt"
 viewBox="0.00 0.00 496.00 522.00" xmlns="http://www.w3.org/2000/svg" xmlns:xlink="http://www.w3.org/1999/xlink">
<g id="graph0" class="graph" transform="scale(1 1) rotate(0) translate(4 518)">
<title>main</title>
<polygon fill="white" stroke="none" points="-4,4 -4,-518 492,-518 492,4 -4,4"/>
<!-- Node1 -->
<g id="node1" class="node"><title>Node1</title>
<polygon fill="#bfbfbf" stroke="black" points="0,-152.5 0,-171.5 39,-171.5 39,-152.5 0,-152.5"/>
<text text-anchor="middle" x="19.5" y="-159.5" font-family="Helvetica,sans-Serif" font-size="10.00">main</text>
</g>
<!-- Node2 -->
<g id="node2" class="node"><title>Node2</title>
<g id="a_node2"><a xlink:href="../../dc/d53/getopt_8c.html#a1484840539d6adef4a97ad6e239458ea" target="_top" xlink:title="getopt">
<polygon fill="white" stroke="black" points="91.5,-465.5 91.5,-484.5 138.5,-484.5 138.5,-465.5 91.5,-465.5"/>
<text text-anchor="middle" x="115" y="-472.5" font-family="Helvetica,sans-Serif" font-size="10.00">getopt</text>
</a>
</g>
</g>
<!-- Node1&#45;&gt;Node2 -->
<g id="edge1" class="edge"><title>Node1&#45;&gt;Node2</title>
<path fill="none" stroke="midnightblue" d="M21.0276,-171.954C23.2303,-207.579 33.6123,-331.474 75,-423 80.7539,-435.724 90.0582,-448.298 98.1359,-457.893"/>
<polygon fill="midnightblue" stroke="midnightblue" points="95.5727,-460.279 104.799,-465.487 100.835,-455.662 95.5727,-460.279"/>
</g>
<!-- Node4 -->
<g id="node4" class="node"><title>Node4</title>
<g id="a_node4"><a xlink:href="../../dc/d7b/aliastorle_8c.html#ac2c29217831f208a3b22bae552c5124f" target="_top" xlink:title="error">
<polygon fill="white" stroke="black" points="220,-456.5 220,-475.5 260,-475.5 260,-456.5 220,-456.5"/>
<text text-anchor="middle" x="240" y="-463.5" font-family="Helvetica,sans-Serif" font-size="10.00">error</text>
</a>
</g>
</g>
<!-- Node1&#45;&gt;Node4 -->
<g id="edge3" class="edge"><title>Node1&#45;&gt;Node4</title>
<path fill="none" stroke="midnightblue" d="M21.8872,-171.566C26.1494,-198.656 40.8886,-277.527 75,-333 112.863,-394.575 130.41,-407.58 191,-447 196.956,-450.875 203.826,-454.172 210.474,-456.878"/>
<polygon fill="midnightblue" stroke="midnightblue" points="209.329,-460.186 219.921,-460.417 211.784,-453.631 209.329,-460.186"/>
</g>
<!-- Node5 -->
<g id="node5" class="node"><title>Node5</title>
<g id="a_node5"><a xlink:href="../../d6/d0d/dvirle2_8c.html#a64b22ad8e55749f45ceb870ee94ebadf" target="_top" xlink:title="ReadFonts">
<polygon fill="white" stroke="black" points="81,-76.5 81,-95.5 149,-95.5 149,-76.5 81,-76.5"/>
<text text-anchor="middle" x="115" y="-83.5" font-family="Helvetica,sans-Serif" font-size="10.00">ReadFonts</text>
</a>
</g>
</g>
<!-- Node1&#45;&gt;Node5 -->
<g id="edge4" class="edge"><title>Node1&#45;&gt;Node5</title>
<path fill="none" stroke="midnightblue" d="M28.1091,-152.101C37.9157,-139.843 55.9797,-118.885 75,-105 77.2052,-103.39 79.5678,-101.855 81.9991,-100.407"/>
<polygon fill="midnightblue" stroke="midnightblue" points="83.8231,-103.399 90.946,-95.5558 80.4867,-97.2452 83.8231,-103.399"/>
</g>
<!-- Node6 -->
<g id="node6" class="node"><title>Node6</title>
<g id="a_node6"><a xlink:href="../../d2/df3/rle__hdr_8c.html#a8ba0e5b11d1e39ab7227f1686e676c86" target="_top" xlink:title="rle_hdr_init">
<polygon fill="white" stroke="black" points="80,-114.5 80,-133.5 150,-133.5 150,-114.5 80,-114.5"/>
<text text-anchor="middle" x="115" y="-121.5" font-family="Helvetica,sans-Serif" font-size="10.00">rle_hdr_init</text>
</a>
</g>
</g>
<!-- Node1&#45;&gt;Node6 -->
<g id="edge5" class="edge"><title>Node1&#45;&gt;Node6</title>
<path fill="none" stroke="midnightblue" d="M39.4211,-154.31C51.3874,-149.447 67.1782,-143.029 81.1479,-137.352"/>
<polygon fill="midnightblue" stroke="midnightblue" points="82.5125,-140.575 90.4588,-133.568 79.8769,-134.09 82.5125,-140.575"/>
</g>
<!-- Node11 -->
<g id="node11" class="node"><title>Node11</title>
<g id="a_node11"><a xlink:href="../../d2/df3/rle__hdr_8c.html#a82e79385f2d45cc3b80ce0f4f369eae5" target="_top" xlink:title="rle_names">
<polygon fill="white" stroke="black" points="332,-114.5 332,-133.5 398,-133.5 398,-114.5 332,-114.5"/>
<text text-anchor="middle" x="365" y="-121.5" font-family="Helvetica,sans-Serif" font-size="10.00">rle_names</text>
</a>
</g>
</g>
<!-- Node1&#45;&gt;Node11 -->
<g id="edge14" class="edge"><title>Node1&#45;&gt;Node11</title>
<path fill="none" stroke="midnightblue" d="M39.4573,-159.903C93.0544,-153.974 246.654,-136.982 321.703,-128.679"/>
<polygon fill="midnightblue" stroke="midnightblue" points="322.199,-132.146 331.753,-127.567 321.429,-125.188 322.199,-132.146"/>
</g>
<!-- Node12 -->
<g id="node12" class="node"><title>Node12</title>
<g id="a_node12"><a xlink:href="../../d8/d30/cmd__name_8c.html#a271249070fdd12c176777c77d76f888f" target="_top" xlink:title="cmd_name">
<polygon fill="white" stroke="black" points="81,-38.5 81,-57.5 149,-57.5 149,-38.5 81,-38.5"/>
<text text-anchor="middle" x="115" y="-45.5" font-family="Helvetica,sans-Serif" font-size="10.00">cmd_name</text>
</a>
</g>
</g>
<!-- Node1&#45;&gt;Node12 -->
<g id="edge15" class="edge"><title>Node1&#45;&gt;Node12</title>
<path fill="none" stroke="midnightblue" d="M23.7996,-152.415C30.6483,-133.757 48.0509,-92.1886 75,-67 76.4856,-65.6114 78.0917,-64.3044 79.7763,-63.0772"/>
<polygon fill="midnightblue" stroke="midnightblue" points="81.9857,-65.8266 88.6594,-57.5979 78.3108,-59.8689 81.9857,-65.8266"/>
</g>
<!-- Node13 -->
<g id="node13" class="node"><title>Node13</title>
<g id="a_node13"><a xlink:href="../../d9/d2a/rle__putrow_8c.html#af88a82b331cd6f425d2a2cc1623944c6" target="_top" xlink:title="rle_put_setup">
<polygon fill="white" stroke="black" points="75,-0.5 75,-19.5 155,-19.5 155,-0.5 75,-0.5"/>
<text text-anchor="middle" x="115" y="-7.5" font-family="Helvetica,sans-Serif" font-size="10.00">rle_put_setup</text>
</a>
</g>
</g>
<!-- Node1&#45;&gt;Node13 -->
<g id="edge16" class="edge"><title>Node1&#45;&gt;Node13</title>
<path fill="none" stroke="midnightblue" d="M22.0228,-152.363C26.2474,-128.543 40.1825,-66.1364 75,-29 76.2041,-27.7157 77.5135,-26.5075 78.8989,-25.3722"/>
<polygon fill="midnightblue" stroke="midnightblue" points="81.0945,-28.1145 87.4607,-19.6456 77.2027,-22.296 81.0945,-28.1145"/>
</g>
<!-- Node15 -->
<g id="node15" class="node"><title>Node15</title>
<g id="a_node15"><a xlink:href="../../d6/d0d/dvirle2_8c.html#a38a144517cee28fe99bbe43c19f2a978" target="_top" xlink:title="ReadInput">
<polygon fill="white" stroke="black" points="82.5,-304.5 82.5,-323.5 147.5,-323.5 147.5,-304.5 82.5,-304.5"/>
<text text-anchor="middle" x="115" y="-311.5" font-family="Helvetica,sans-Serif" font-size="10.00">ReadInput</text>
</a>
</g>
</g>
<!-- Node1&#45;&gt;Node15 -->
<g id="edge18" class="edge"><title>Node1&#45;&gt;Node15</title>
<path fill="none" stroke="midnightblue" d="M26.3488,-171.508C41.6316,-196.353 82.9532,-263.528 102.913,-295.976"/>
<polygon fill="midnightblue" stroke="midnightblue" points="99.9328,-297.812 108.153,-304.495 105.895,-294.144 99.9328,-297.812"/>
</g>
<!-- Node21 -->
<g id="node21" class="node"><title>Node21</title>
<g id="a_node21"><a xlink:href="../../d6/d0d/dvirle2_8c.html#a87bd5716ebe94a141c319a2b4aff41a4" target="_top" xlink:title="FormFeed">
<polygon fill="white" stroke="black" points="207.5,-190.5 207.5,-209.5 272.5,-209.5 272.5,-190.5 207.5,-190.5"/>
<text text-anchor="middle" x="240" y="-197.5" font-family="Helvetica,sans-Serif" font-size="10.00">FormFeed</text>
</a>
</g>
</g>
<!-- Node1&#45;&gt;Node21 -->
<g id="edge30" class="edge"><title>Node1&#45;&gt;Node21</title>
<path fill="none" stroke="midnightblue" d="M39.0529,-167.287C49.5414,-170.145 62.9325,-173.574 75,-176 116.239,-184.29 163.855,-190.938 197.12,-195.116"/>
<polygon fill="midnightblue" stroke="midnightblue" points="197.035,-198.632 207.389,-196.385 197.894,-191.685 197.035,-198.632"/>
</g>
<!-- Node3 -->
<g id="node3" class="node"><title>Node3</title>
<g id="a_node3"><a xlink:href="../../dc/d53/getopt_8c.html#aa4a0de5bffcb84a01c711ce72ef194a9" target="_top" xlink:title="index">
<polygon fill="white" stroke="black" points="219,-494.5 219,-513.5 261,-513.5 261,-494.5 219,-494.5"/>
<text text-anchor="middle" x="240" y="-501.5" font-family="Helvetica,sans-Serif" font-size="10.00">index</text>
</a>
</g>
</g>
<!-- Node2&#45;&gt;Node3 -->
<g id="edge2" class="edge"><title>Node2&#45;&gt;Node3</title>
<path fill="none" stroke="midnightblue" d="M138.56,-480.319C158.228,-484.956 186.923,-491.722 208.611,-496.835"/>
<polygon fill="midnightblue" stroke="midnightblue" points="208.088,-500.308 218.624,-499.196 209.694,-493.495 208.088,-500.308"/>
</g>
<!-- Node7 -->
<g id="node7" class="node"><title>Node7</title>
<g id="a_node7"><a xlink:href="../../d2/df3/rle__hdr_8c.html#a16c4da6201b3b8cf55127b9ca968d253" target="_top" xlink:title="rle_hdr_clear">
<polygon fill="white" stroke="black" points="325,-152.5 325,-171.5 405,-171.5 405,-152.5 325,-152.5"/>
<text text-anchor="middle" x="365" y="-159.5" font-family="Helvetica,sans-Serif" font-size="10.00">rle_hdr_clear</text>
</a>
</g>
</g>
<!-- Node6&#45;&gt;Node7 -->
<g id="edge6" class="edge"><title>Node6&#45;&gt;Node7</title>
<path fill="none" stroke="midnightblue" d="M150.223,-129.244C192.897,-135.783 266.147,-147.006 314.825,-154.465"/>
<polygon fill="midnightblue" stroke="midnightblue" points="314.404,-157.941 324.819,-155.996 315.465,-151.022 314.404,-157.941"/>
</g>
<!-- Node9 -->
<g id="node9" class="node"><title>Node9</title>
<g id="a_node9"><a xlink:href="../../d2/df3/rle__hdr_8c.html#afc916e29aea8788e0878ca315ff69821" target="_top" xlink:title="rle_hdr_cp">
<polygon fill="white" stroke="black" points="206,-76.5 206,-95.5 274,-95.5 274,-76.5 206,-76.5"/>
<text text-anchor="middle" x="240" y="-83.5" font-family="Helvetica,sans-Serif" font-size="10.00">rle_hdr_cp</text>
</a>
</g>
</g>
<!-- Node6&#45;&gt;Node9 -->
<g id="edge8" class="edge"><title>Node6&#45;&gt;Node9</title>
<path fill="none" stroke="midnightblue" d="M131.828,-114.408C147.977,-107.55 173.749,-98.9982 195.974,-92.8208"/>
<polygon fill="midnightblue" stroke="midnightblue" points="197.135,-96.1333 205.888,-90.1643 195.323,-89.3718 197.135,-96.1333"/>
</g>
<!-- Node8 -->
<g id="node8" class="node"><title>Node8</title>
<g id="a_node8"><a xlink:href="../../d0/dcc/rletorla_8c.html#aafde19f7d36ca163a143579c1b125b6d" target="_top" xlink:title="free">
<polygon fill="white" stroke="black" points="447,-152.5 447,-171.5 482,-171.5 482,-152.5 447,-152.5"/>
<text text-anchor="middle" x="464.5" y="-159.5" font-family="Helvetica,sans-Serif" font-size="10.00">free</text>
</a>
</g>
</g>
<!-- Node7&#45;&gt;Node8 -->
<g id="edge7" class="edge"><title>Node7&#45;&gt;Node8</title>
<path fill="none" stroke="midnightblue" d="M405.095,-162C415.565,-162 426.654,-162 436.324,-162"/>
<polygon fill="midnightblue" stroke="midnightblue" points="436.531,-165.5 446.531,-162 436.531,-158.5 436.531,-165.5"/>
</g>
<!-- Node9&#45;&gt;Node6 -->
<g id="edge9" class="edge"><title>Node9&#45;&gt;Node6</title>
<path fill="none" stroke="midnightblue" d="M223.219,-95.5724C207.332,-102.323 182.096,-110.722 160.097,-116.88"/>
<polygon fill="midnightblue" stroke="midnightblue" points="159.003,-113.55 150.262,-119.538 160.829,-120.308 159.003,-113.55"/>
</g>
<!-- Node10 -->
<g id="node10" class="node"><title>Node10</title>
<g id="a_node10"><a xlink:href="../../d0/dcc/rletorla_8c.html#ab7e36af3707843f77cc5b4e831c2fa6d" target="_top" xlink:title="malloc">
<polygon fill="white" stroke="black" points="441,-95.5 441,-114.5 488,-114.5 488,-95.5 441,-95.5"/>
<text text-anchor="middle" x="464.5" y="-102.5" font-family="Helvetica,sans-Serif" font-size="10.00">malloc</text>
</a>
</g>
</g>
<!-- Node9&#45;&gt;Node10 -->
<g id="edge10" class="edge"><title>Node9&#45;&gt;Node10</title>
<path fill="none" stroke="midnightblue" d="M274.31,-88.8445C316.556,-92.4519 388.933,-98.6325 430.857,-102.213"/>
<polygon fill="midnightblue" stroke="midnightblue" points="430.562,-105.7 440.823,-103.064 431.157,-98.7253 430.562,-105.7"/>
</g>
<!-- Node9&#45;&gt;Node11 -->
<g id="edge11" class="edge"><title>Node9&#45;&gt;Node11</title>
<path fill="none" stroke="midnightblue" d="M272.038,-95.589C287.479,-100.359 306.348,-106.189 322.966,-111.323"/>
<polygon fill="midnightblue" stroke="midnightblue" points="322.384,-114.806 332.972,-114.414 324.451,-108.118 322.384,-114.806"/>
</g>
<!-- Node11&#45;&gt;Node8 -->
<g id="edge12" class="edge"><title>Node11&#45;&gt;Node8</title>
<path fill="none" stroke="midnightblue" d="M390.603,-133.589C404.904,-139.163 422.914,-146.182 437.454,-151.849"/>
<polygon fill="midnightblue" stroke="midnightblue" points="436.289,-155.151 446.878,-155.522 438.831,-148.629 436.289,-155.151"/>
</g>
<!-- Node11&#45;&gt;Node10 -->
<g id="edge13" class="edge"><title>Node11&#45;&gt;Node10</title>
<path fill="none" stroke="midnightblue" d="M398.195,-117.726C408.679,-115.683 420.321,-113.414 430.838,-111.365"/>
<polygon fill="midnightblue" stroke="midnightblue" points="431.75,-114.753 440.896,-109.405 430.411,-107.882 431.75,-114.753"/>
</g>
<!-- Node14 -->
<g id="node14" class="node"><title>Node14</title>
<g id="a_node14"><a xlink:href="../../d9/d2a/rle__putrow_8c.html#a46d9789104d5d1f09253a808fdad5346" target="_top" xlink:title="rle_put_init">
<polygon fill="white" stroke="black" points="206,-0.5 206,-19.5 274,-19.5 274,-0.5 206,-0.5"/>
<text text-anchor="middle" x="240" y="-7.5" font-family="Helvetica,sans-Serif" font-size="10.00">rle_put_init</text>
</a>
</g>
</g>
<!-- Node13&#45;&gt;Node14 -->
<g id="edge17" class="edge"><title>Node13&#45;&gt;Node14</title>
<path fill="none" stroke="midnightblue" d="M155.256,-10C168.127,-10 182.499,-10 195.654,-10"/>
<polygon fill="midnightblue" stroke="midnightblue" points="195.892,-13.5001 205.892,-10 195.892,-6.5001 195.892,-13.5001"/>
</g>
<!-- Node15&#45;&gt;Node4 -->
<g id="edge22" class="edge"><title>Node15&#45;&gt;Node4</title>
<path fill="none" stroke="midnightblue" d="M120.362,-323.568C132.992,-350.929 170.022,-428.707 191,-447 196.446,-451.749 203.223,-455.391 209.952,-458.153"/>
<polygon fill="midnightblue" stroke="midnightblue" points="209.021,-461.537 219.616,-461.595 211.37,-454.943 209.021,-461.537"/>
</g>
<!-- Node16 -->
<g id="node16" class="node"><title>Node16</title>
<g id="a_node16"><a xlink:href="../../d6/d0d/dvirle2_8c.html#a8e38f889cd0cb360477bfbec09fafd91" target="_top" xlink:title="MoveDown">
<polygon fill="white" stroke="black" points="205,-304.5 205,-323.5 275,-323.5 275,-304.5 205,-304.5"/>
<text text-anchor="middle" x="240" y="-311.5" font-family="Helvetica,sans-Serif" font-size="10.00">MoveDown</text>
</a>
</g>
</g>
<!-- Node15&#45;&gt;Node16 -->
<g id="edge19" class="edge"><title>Node15&#45;&gt;Node16</title>
<path fill="none" stroke="midnightblue" d="M147.676,-314C161.903,-314 178.939,-314 194.424,-314"/>
<polygon fill="midnightblue" stroke="midnightblue" points="194.842,-317.5 204.842,-314 194.842,-310.5 194.842,-317.5"/>
</g>
<!-- Node17 -->
<g id="node17" class="node"><title>Node17</title>
<g id="a_node17"><a xlink:href="../../d6/d0d/dvirle2_8c.html#af9041736cd1abcbd71249102da412809" target="_top" xlink:title="DumpTopOfBand">
<polygon fill="white" stroke="black" points="191,-266.5 191,-285.5 289,-285.5 289,-266.5 191,-266.5"/>
<text text-anchor="middle" x="240" y="-273.5" font-family="Helvetica,sans-Serif" font-size="10.00">DumpTopOfBand</text>
</a>
</g>
</g>
<!-- Node15&#45;&gt;Node17 -->
<g id="edge20" class="edge"><title>Node15&#45;&gt;Node17</title>
<path fill="none" stroke="midnightblue" d="M147.038,-304.411C162.479,-299.641 181.348,-293.811 197.966,-288.677"/>
<polygon fill="midnightblue" stroke="midnightblue" points="199.451,-291.882 207.972,-285.586 197.384,-285.194 199.451,-291.882"/>
</g>
<!-- Node18 -->
<g id="node18" class="node"><title>Node18</title>
<g id="a_node18"><a xlink:href="../../d6/d0d/dvirle2_8c.html#aa3fefb8939f1480ff90bf413efbc5bb2" target="_top" xlink:title="WriteBuf">
<polygon fill="white" stroke="black" points="337,-247.5 337,-266.5 393,-266.5 393,-247.5 337,-247.5"/>
<text text-anchor="middle" x="365" y="-254.5" font-family="Helvetica,sans-Serif" font-size="10.00">WriteBuf</text>
</a>
</g>
</g>
<!-- Node15&#45;&gt;Node18 -->
<g id="edge24" class="edge"><title>Node15&#45;&gt;Node18</title>
<path fill="none" stroke="midnightblue" d="M124.529,-304.397C137.357,-290.76 163.102,-266.398 191,-257 235.817,-241.902 290.95,-245.377 326.755,-250.289"/>
<polygon fill="midnightblue" stroke="midnightblue" points="326.36,-253.768 336.764,-251.769 327.384,-246.844 326.36,-253.768"/>
</g>
<!-- Node19 -->
<g id="node19" class="node"><title>Node19</title>
<g id="a_node19"><a xlink:href="../../d6/d0d/dvirle2_8c.html#a6eea1d120268fb8ab72dd48af5d2b0ea" target="_top" xlink:title="VWriteChar">
<polygon fill="white" stroke="black" points="204.5,-418.5 204.5,-437.5 275.5,-437.5 275.5,-418.5 204.5,-418.5"/>
<text text-anchor="middle" x="240" y="-425.5" font-family="Helvetica,sans-Serif" font-size="10.00">VWriteChar</text>
</a>
</g>
</g>
<!-- Node15&#45;&gt;Node19 -->
<g id="edge23" class="edge"><title>Node15&#45;&gt;Node19</title>
<path fill="none" stroke="midnightblue" d="M121.312,-323.735C132.087,-342.656 158.295,-384.664 191,-409 193.359,-410.756 195.902,-412.373 198.543,-413.859"/>
<polygon fill="midnightblue" stroke="midnightblue" points="197.259,-417.128 207.775,-418.416 200.357,-410.851 197.259,-417.128"/>
</g>
<!-- Node20 -->
<g id="node20" class="node"><title>Node20</title>
<g id="a_node20"><a xlink:href="../../d6/d0d/dvirle2_8c.html#aae5254a30bd037d45af7fbbeaa0e2f1e" target="_top" xlink:title="WriteBlanks">
<polygon fill="white" stroke="black" points="203.5,-380.5 203.5,-399.5 276.5,-399.5 276.5,-380.5 203.5,-380.5"/>
<text text-anchor="middle" x="240" y="-387.5" font-family="Helvetica,sans-Serif" font-size="10.00">WriteBlanks</text>
</a>
</g>
</g>
<!-- Node15&#45;&gt;Node20 -->
<g id="edge25" class="edge"><title>Node15&#45;&gt;Node20</title>
<path fill="none" stroke="midnightblue" d="M127.011,-323.921C141.063,-336.203 166.497,-357.185 191,-371 194.416,-372.926 198.066,-374.748 201.77,-376.446"/>
<polygon fill="midnightblue" stroke="midnightblue" points="200.419,-379.675 210.989,-380.4 203.178,-373.242 200.419,-379.675"/>
</g>
<!-- Node15&#45;&gt;Node21 -->
<g id="edge26" class="edge"><title>Node15&#45;&gt;Node21</title>
<path fill="none" stroke="midnightblue" d="M121.979,-304.484C133.506,-286.748 160.387,-248.246 191,-224 195.474,-220.457 200.554,-217.235 205.695,-214.384"/>
<polygon fill="midnightblue" stroke="midnightblue" points="207.597,-217.342 214.896,-209.663 204.401,-211.114 207.597,-217.342"/>
</g>
<!-- Node23 -->
<g id="node23" class="node"><title>Node23</title>
<g id="a_node23"><a xlink:href="../../d6/d0d/dvirle2_8c.html#a27ab94dea34cc30dc86630b8debecd24" target="_top" xlink:title="VWriteRule">
<polygon fill="white" stroke="black" points="205.5,-342.5 205.5,-361.5 274.5,-361.5 274.5,-342.5 205.5,-342.5"/>
<text text-anchor="middle" x="240" y="-349.5" font-family="Helvetica,sans-Serif" font-size="10.00">VWriteRule</text>
</a>
</g>
</g>
<!-- Node15&#45;&gt;Node23 -->
<g id="edge29" class="edge"><title>Node15&#45;&gt;Node23</title>
<path fill="none" stroke="midnightblue" d="M147.038,-323.589C162.479,-328.359 181.348,-334.189 197.966,-339.323"/>
<polygon fill="midnightblue" stroke="midnightblue" points="197.384,-342.806 207.972,-342.414 199.451,-336.118 197.384,-342.806"/>
</g>
<!-- Node17&#45;&gt;Node18 -->
<g id="edge21" class="edge"><title>Node17&#45;&gt;Node18</title>
<path fill="none" stroke="midnightblue" d="M289.26,-268.545C301.753,-266.615 315.011,-264.567 326.838,-262.74"/>
<polygon fill="midnightblue" stroke="midnightblue" points="327.459,-266.186 336.807,-261.201 326.39,-259.268 327.459,-266.186"/>
</g>
<!-- Node22 -->
<g id="node22" class="node"><title>Node22</title>
<g id="a_node22"><a xlink:href="../../d9/d2a/rle__putrow_8c.html#af4fab734a5d227ad2ae95840f56fff3b" target="_top" xlink:title="rle_puteof">
<polygon fill="white" stroke="black" points="333,-190.5 333,-209.5 397,-209.5 397,-190.5 333,-190.5"/>
<text text-anchor="middle" x="365" y="-197.5" font-family="Helvetica,sans-Serif" font-size="10.00">rle_puteof</text>
</a>
</g>
</g>
<!-- Node21&#45;&gt;Node22 -->
<g id="edge27" class="edge"><title>Node21&#45;&gt;Node22</title>
<path fill="none" stroke="midnightblue" d="M272.676,-200C287.857,-200 306.237,-200 322.517,-200"/>
<polygon fill="midnightblue" stroke="midnightblue" points="322.858,-203.5 332.858,-200 322.858,-196.5 322.858,-203.5"/>
</g>
<!-- Node22&#45;&gt;Node8 -->
<g id="edge28" class="edge"><title>Node22&#45;&gt;Node8</title>
<path fill="none" stroke="midnightblue" d="M390.603,-190.411C404.904,-184.837 422.914,-177.818 437.454,-172.151"/>
<polygon fill="midnightblue" stroke="midnightblue" points="438.831,-175.371 446.878,-168.478 436.289,-168.849 438.831,-175.371"/>
</g>
</g>
</svg>
