<?xml version="1.0" encoding="UTF-8" standalone="no"?>
<!DOCTYPE svg PUBLIC "-//W3C//DTD SVG 1.1//EN"
 "http://www.w3.org/Graphics/SVG/1.1/DTD/svg11.dtd">
<!-- Generated by graphviz version 2.38.0 (20140413.2041)
 -->
<!-- Title: WriteBuf Pages: 1 -->
<svg width="374pt" height="163pt"
 viewBox="0.00 0.00 374.00 162.85" xmlns="http://www.w3.org/2000/svg" xmlns:xlink="http://www.w3.org/1999/xlink">
<g id="graph0" class="graph" transform="scale(1 1) rotate(0) translate(4 158.851)">
<title>WriteBuf</title>
<polygon fill="white" stroke="none" points="-4,4 -4,-158.851 370,-158.851 370,4 -4,4"/>
<!-- Node1 -->
<g id="node1" class="node"><title>Node1</title>
<polygon fill="#bfbfbf" stroke="black" points="0,-76.5 0,-95.5 56,-95.5 56,-76.5 0,-76.5"/>
<text text-anchor="middle" x="28" y="-83.5" font-family="Helvetica,sans-Serif" font-size="10.00">WriteBuf</text>
</g>
<!-- Node2 -->
<g id="node2" class="node"><title>Node2</title>
<g id="a_node2"><a xlink:href="../../d6/d0d/dvirle2_8c.html#a38a144517cee28fe99bbe43c19f2a978" target="_top" xlink:title="ReadInput">
<polygon fill="white" stroke="black" points="226,-133.5 226,-152.5 291,-152.5 291,-133.5 226,-133.5"/>
<text text-anchor="middle" x="258.5" y="-140.5" font-family="Helvetica,sans-Serif" font-size="10.00">ReadInput</text>
</a>
</g>
</g>
<!-- Node1&#45;&gt;Node2 -->
<g id="edge1" class="edge"><title>Node1&#45;&gt;Node2</title>
<path fill="none" stroke="midnightblue" d="M42.0551,-103.391C53.4996,-117.071 71.4834,-135.096 92,-143 135.971,-159.94 191.526,-155.175 225.776,-149.563"/>
<polygon fill="midnightblue" stroke="midnightblue" points="44.783,-101.198 35.8101,-95.5647 39.3113,-105.564 44.783,-101.198"/>
</g>
<!-- Node4 -->
<g id="node4" class="node"><title>Node4</title>
<g id="a_node4"><a xlink:href="../../d6/d0d/dvirle2_8c.html#af9041736cd1abcbd71249102da412809" target="_top" xlink:title="DumpTopOfBand">
<polygon fill="white" stroke="black" points="92,-114.5 92,-133.5 190,-133.5 190,-114.5 92,-114.5"/>
<text text-anchor="middle" x="141" y="-121.5" font-family="Helvetica,sans-Serif" font-size="10.00">DumpTopOfBand</text>
</a>
</g>
</g>
<!-- Node1&#45;&gt;Node4 -->
<g id="edge3" class="edge"><title>Node1&#45;&gt;Node4</title>
<path fill="none" stroke="midnightblue" d="M65.6994,-98.5638C80.7684,-103.723 97.9344,-109.599 111.968,-114.403"/>
<polygon fill="midnightblue" stroke="midnightblue" points="66.7482,-95.2235 56.1537,-95.2958 64.481,-101.846 66.7482,-95.2235"/>
</g>
<!-- Node5 -->
<g id="node5" class="node"><title>Node5</title>
<g id="a_node5"><a xlink:href="../../d6/d0d/dvirle2_8c.html#aff3c2b0b49829224fb2e929acd23840b" target="_top" xlink:title="MoveDown">
<polygon fill="white" stroke="black" points="106,-76.5 106,-95.5 176,-95.5 176,-76.5 106,-76.5"/>
<text text-anchor="middle" x="141" y="-83.5" font-family="Helvetica,sans-Serif" font-size="10.00">MoveDown</text>
</a>
</g>
</g>
<!-- Node1&#45;&gt;Node5 -->
<g id="edge5" class="edge"><title>Node1&#45;&gt;Node5</title>
<path fill="none" stroke="midnightblue" d="M66.484,-86C79.2647,-86 93.475,-86 105.969,-86"/>
<polygon fill="midnightblue" stroke="midnightblue" points="66.1537,-82.5001 56.1537,-86 66.1536,-89.5001 66.1537,-82.5001"/>
</g>
<!-- Node6 -->
<g id="node6" class="node"><title>Node6</title>
<g id="a_node6"><a xlink:href="../../d6/d0d/dvirle2_8c.html#aef451fde75e78970c60e8ef15d4a70e9" target="_top" xlink:title="WriteBuf">
<polygon fill="white" stroke="black" points="113,-38.5 113,-57.5 169,-57.5 169,-38.5 113,-38.5"/>
<text text-anchor="middle" x="141" y="-45.5" font-family="Helvetica,sans-Serif" font-size="10.00">WriteBuf</text>
</a>
</g>
</g>
<!-- Node1&#45;&gt;Node6 -->
<g id="edge6" class="edge"><title>Node1&#45;&gt;Node6</title>
<path fill="none" stroke="midnightblue" d="M65.8495,-73.3849C81.1609,-68.1431 98.6154,-62.1677 112.742,-57.3316"/>
<polygon fill="midnightblue" stroke="midnightblue" points="64.481,-70.1539 56.1537,-76.7042 66.7482,-76.7765 64.481,-70.1539"/>
</g>
<!-- Node7 -->
<g id="node7" class="node"><title>Node7</title>
<g id="a_node7"><a xlink:href="../../d6/d0d/dvirle2_8c.html#a94d3a6b717d0086f9d262993a10178e8" target="_top" xlink:title="WriteBlanks">
<polygon fill="white" stroke="black" points="104.5,-0.5 104.5,-19.5 177.5,-19.5 177.5,-0.5 104.5,-0.5"/>
<text text-anchor="middle" x="141" y="-7.5" font-family="Helvetica,sans-Serif" font-size="10.00">WriteBlanks</text>
</a>
</g>
</g>
<!-- Node1&#45;&gt;Node7 -->
<g id="edge7" class="edge"><title>Node1&#45;&gt;Node7</title>
<path fill="none" stroke="midnightblue" d="M44.5846,-68.9267C56.5935,-56.5548 74.1201,-40.1148 92,-29 97.861,-25.3566 104.539,-22.1861 111.012,-19.5335"/>
<polygon fill="midnightblue" stroke="midnightblue" points="41.8708,-66.7024 37.5416,-76.3724 46.9562,-71.5128 41.8708,-66.7024"/>
</g>
<!-- Node3 -->
<g id="node3" class="node"><title>Node3</title>
<g id="a_node3"><a xlink:href="../../d6/d0d/dvirle2_8c.html#a70db8bd1d499619f7ff9c1ca2ff3c8df" target="_top" xlink:title="main">
<polygon fill="white" stroke="black" points="327,-133.5 327,-152.5 366,-152.5 366,-133.5 327,-133.5"/>
<text text-anchor="middle" x="346.5" y="-140.5" font-family="Helvetica,sans-Serif" font-size="10.00">main</text>
</a>
</g>
</g>
<!-- Node2&#45;&gt;Node3 -->
<g id="edge2" class="edge"><title>Node2&#45;&gt;Node3</title>
<path fill="none" stroke="midnightblue" d="M301.151,-143C310.217,-143 319.363,-143 326.975,-143"/>
<polygon fill="midnightblue" stroke="midnightblue" points="301.035,-139.5 291.035,-143 301.035,-146.5 301.035,-139.5"/>
</g>
<!-- Node4&#45;&gt;Node2 -->
<g id="edge4" class="edge"><title>Node4&#45;&gt;Node2</title>
<path fill="none" stroke="midnightblue" d="M200.232,-133.579C209.05,-135.03 217.854,-136.478 225.82,-137.789"/>
<polygon fill="midnightblue" stroke="midnightblue" points="200.749,-130.117 190.313,-131.948 199.612,-137.024 200.749,-130.117"/>
</g>
</g>
</svg>
