<?xml version="1.0" encoding="UTF-8" standalone="no"?>
<!DOCTYPE svg PUBLIC "-//W3C//DTD SVG 1.1//EN"
 "http://www.w3.org/Graphics/SVG/1.1/DTD/svg11.dtd">
<!-- Generated by graphviz version 2.38.0 (20140413.2041)
 -->
<!-- Title: main Pages: 1 -->
<!--zoomable 674 -->
<svg id="main" version="1.1" xmlns="http://www.w3.org/2000/svg" xmlns:xlink="http://www.w3.org/1999/xlink" xml:space="preserve" onload="init(evt)">
<style type="text/css"><![CDATA[
.edge:hover path { stroke: red; }
.edge:hover polygon { stroke: red; fill: red; }
]]></style>
<script type="text/javascript"><![CDATA[
var edges = document.getElementsByTagName('g');
if (edges && edges.length) {
  for (var i=0;i<edges.length;i++) {
    if (edges[i].id.substr(0,4)=='edge') {
      edges[i].setAttribute('class','edge');
    }
  }
}
]]></script>
        <defs>
                <circle id="rim" cx="0" cy="0" r="7"/>
                <circle id="rim2" cx="0" cy="0" r="3.5"/>
                <g id="zoomPlus">
                        <use xlink:href="#rim" fill="#404040">
                                <set attributeName="fill" to="#808080" begin="zoomplus.mouseover" end="zoomplus.mouseout"/>
                        </use>
                        <path d="M-4,0h8M0,-4v8" fill="none" stroke="white" stroke-width="1.5" pointer-events="none"/>
                </g>
                <g id="zoomMin">
                        <use xlink:href="#rim" fill="#404040">
                                <set attributeName="fill" to="#808080" begin="zoomminus.mouseover" end="zoomminus.mouseout"/>
                        </use>
                        <path d="M-4,0h8" fill="none" stroke="white" stroke-width="1.5" pointer-events="none"/>
                </g>
                <g id="dirArrow">
                        <path fill="none" stroke="white" stroke-width="1.5" d="M0,-3.0v7 M-2.5,-0.5L0,-3.0L2.5,-0.5"/>
                </g>
               <g id="resetDef">
                       <use xlink:href="#rim2" fill="#404040">
                               <set attributeName="fill" to="#808080" begin="reset.mouseover" end="reset.mouseout"/>
                       </use>
               </g>
        </defs>

<script type="text/javascript">
var viewWidth = 523;
var viewHeight = 674;
var sectionId = 'dynsection-1';
</script>
<script xlink:href="../../svgpan.js"/>
<svg id="graph" class="graph">
<g id="viewport">
<title>main</title>
<polygon fill="white" stroke="none" points="-4,4 -4,-670 519,-670 519,4 -4,4"/>
<!-- Node1 -->
<g id="node1" class="node"><title>Node1</title>
<polygon fill="#bfbfbf" stroke="black" points="0,-285.5 0,-304.5 39,-304.5 39,-285.5 0,-285.5"/>
<text text-anchor="middle" x="19.5" y="-292.5" font-family="Helvetica,sans-Serif" font-size="10.00">main</text>
</g>
<!-- Node2 -->
<g id="node2" class="node"><title>Node2</title>
<g id="a_node2"><a xlink:href="../../d2/df3/rle__hdr_8c.html#a8ba0e5b11d1e39ab7227f1686e676c86" target="_top" xlink:title="rle_hdr_init">
<polygon fill="white" stroke="black" points="80,-380.5 80,-399.5 150,-399.5 150,-380.5 80,-380.5"/>
<text text-anchor="middle" x="115" y="-387.5" font-family="Helvetica,sans-Serif" font-size="10.00">rle_hdr_init</text>
</a>
</g>
</g>
<!-- Node1&#45;&gt;Node2 -->
<g id="edge1" class="edge"><title>Node1&#45;&gt;Node2</title>
<path fill="none" stroke="midnightblue" d="M26.2645,-304.62C35.3128,-319.164 53.999,-347.058 75,-366 78.4813,-369.14 82.4281,-372.107 86.4412,-374.814"/>
<polygon fill="midnightblue" stroke="midnightblue" points="84.8458,-377.944 95.1776,-380.29 88.5639,-372.013 84.8458,-377.944"/>
</g>
<!-- Node5 -->
<g id="node5" class="node"><title>Node5</title>
<g id="a_node5"><a xlink:href="../../d2/df3/rle__hdr_8c.html#afc916e29aea8788e0878ca315ff69821" target="_top" xlink:title="rle_hdr_cp">
<polygon fill="white" stroke="black" points="199,-342.5 199,-361.5 267,-361.5 267,-342.5 199,-342.5"/>
<text text-anchor="middle" x="233" y="-349.5" font-family="Helvetica,sans-Serif" font-size="10.00">rle_hdr_cp</text>
</a>
</g>
</g>
<!-- Node1&#45;&gt;Node5 -->
<g id="edge25" class="edge"><title>Node1&#45;&gt;Node5</title>
<path fill="none" stroke="midnightblue" d="M33.1986,-304.683C43.8003,-312.259 59.6112,-322.416 75,-328 112.071,-341.451 156.724,-347.364 188.916,-349.962"/>
<polygon fill="midnightblue" stroke="midnightblue" points="188.675,-353.454 198.904,-350.695 189.187,-346.473 188.675,-353.454"/>
</g>
<!-- Node6 -->
<g id="node6" class="node"><title>Node6</title>
<g id="a_node6"><a xlink:href="../../d0/dcc/rletorla_8c.html#ab7e36af3707843f77cc5b4e831c2fa6d" target="_top" xlink:title="malloc">
<polygon fill="white" stroke="black" points="458.5,-304.5 458.5,-323.5 505.5,-323.5 505.5,-304.5 458.5,-304.5"/>
<text text-anchor="middle" x="482" y="-311.5" font-family="Helvetica,sans-Serif" font-size="10.00">malloc</text>
</a>
</g>
</g>
<!-- Node1&#45;&gt;Node6 -->
<g id="edge38" class="edge"><title>Node1&#45;&gt;Node6</title>
<path fill="none" stroke="midnightblue" d="M39.0166,-293.201C95.4681,-288.099 270.252,-275.15 413,-295 424.805,-296.642 437.453,-299.777 448.599,-303.035"/>
<polygon fill="midnightblue" stroke="midnightblue" points="447.761,-306.439 458.347,-306.022 449.811,-299.746 447.761,-306.439"/>
</g>
<!-- Node7 -->
<g id="node7" class="node"><title>Node7</title>
<g id="a_node7"><a xlink:href="../../d2/df3/rle__hdr_8c.html#a82e79385f2d45cc3b80ce0f4f369eae5" target="_top" xlink:title="rle_names">
<polygon fill="white" stroke="black" points="329,-380.5 329,-399.5 395,-399.5 395,-380.5 329,-380.5"/>
<text text-anchor="middle" x="362" y="-387.5" font-family="Helvetica,sans-Serif" font-size="10.00">rle_names</text>
</a>
</g>
</g>
<!-- Node1&#45;&gt;Node7 -->
<g id="edge18" class="edge"><title>Node1&#45;&gt;Node7</title>
<path fill="none" stroke="midnightblue" d="M21.6965,-304.582C25.1315,-327.484 37.3272,-385.254 75,-409 114.391,-433.829 249.029,-412.203 318.607,-398.773"/>
<polygon fill="midnightblue" stroke="midnightblue" points="319.647,-402.136 328.786,-396.777 318.3,-395.267 319.647,-402.136"/>
</g>
<!-- Node8 -->
<g id="node8" class="node"><title>Node8</title>
<g id="a_node8"><a xlink:href="../../d4/db0/scanargs_8c.html#a7ea6d702c0484056c8504d6ce7fede08" target="_top" xlink:title="scanargs">
<polygon fill="white" stroke="black" points="85,-152.5 85,-171.5 145,-171.5 145,-152.5 85,-152.5"/>
<text text-anchor="middle" x="115" y="-159.5" font-family="Helvetica,sans-Serif" font-size="10.00">scanargs</text>
</a>
</g>
</g>
<!-- Node1&#45;&gt;Node8 -->
<g id="edge10" class="edge"><title>Node1&#45;&gt;Node8</title>
<path fill="none" stroke="midnightblue" d="M23.3649,-285.198C29.7522,-264.717 46.8529,-216.74 75,-186 77.9596,-182.768 81.453,-179.815 85.113,-177.17"/>
<polygon fill="midnightblue" stroke="midnightblue" points="87.2786,-179.938 93.7827,-171.575 83.4827,-174.057 87.2786,-179.938"/>
</g>
<!-- Node10 -->
<g id="node10" class="node"><title>Node10</title>
<g id="a_node10"><a xlink:href="../../de/d4e/rle__open__f_8c.html#a89733a45961817885603ae01210290b7" target="_top" xlink:title="rle_open_f">
<polygon fill="white" stroke="black" points="81,-632.5 81,-651.5 149,-651.5 149,-632.5 81,-632.5"/>
<text text-anchor="middle" x="115" y="-639.5" font-family="Helvetica,sans-Serif" font-size="10.00">rle_open_f</text>
</a>
</g>
</g>
<!-- Node1&#45;&gt;Node10 -->
<g id="edge12" class="edge"><title>Node1&#45;&gt;Node10</title>
<path fill="none" stroke="midnightblue" d="M21.1822,-304.541C24.6881,-351.607 41.8124,-558.939 75,-613 78.1673,-618.159 82.6227,-622.705 87.3955,-626.575"/>
<polygon fill="midnightblue" stroke="midnightblue" points="85.3928,-629.446 95.5558,-632.44 89.4783,-623.762 85.3928,-629.446"/>
</g>
<!-- Node13 -->
<g id="node13" class="node"><title>Node13</title>
<g id="a_node13"><a xlink:href="../../d8/d30/cmd__name_8c.html#a271249070fdd12c176777c77d76f888f" target="_top" xlink:title="cmd_name">
<polygon fill="white" stroke="black" points="81,-114.5 81,-133.5 149,-133.5 149,-114.5 81,-114.5"/>
<text text-anchor="middle" x="115" y="-121.5" font-family="Helvetica,sans-Serif" font-size="10.00">cmd_name</text>
</a>
</g>
</g>
<!-- Node1&#45;&gt;Node13 -->
<g id="edge17" class="edge"><title>Node1&#45;&gt;Node13</title>
<path fill="none" stroke="midnightblue" d="M21.4683,-285.175C24.538,-258.922 36.264,-186.209 75,-143 76.1752,-141.689 77.4609,-140.459 78.8272,-139.306"/>
<polygon fill="midnightblue" stroke="midnightblue" points="81.0285,-142.042 87.3244,-133.521 77.0887,-136.256 81.0285,-142.042"/>
</g>
<!-- Node14 -->
<g id="node14" class="node"><title>Node14</title>
<g id="a_node14"><a xlink:href="../../db/d53/rle__getrow_8c.html#a619b27463c26e0a4a3d9648a9869ee52" target="_top" xlink:title="rle_get_setup">
<polygon fill="white" stroke="black" points="192.5,-456.5 192.5,-475.5 273.5,-475.5 273.5,-456.5 192.5,-456.5"/>
<text text-anchor="middle" x="233" y="-463.5" font-family="Helvetica,sans-Serif" font-size="10.00">rle_get_setup</text>
</a>
</g>
</g>
<!-- Node1&#45;&gt;Node14 -->
<g id="edge19" class="edge"><title>Node1&#45;&gt;Node14</title>
<path fill="none" stroke="midnightblue" d="M20.9007,-304.794C22.5632,-331.546 31.1113,-406.238 75,-442 104.736,-466.23 148.514,-471.214 182.293,-470.713"/>
<polygon fill="midnightblue" stroke="midnightblue" points="182.542,-474.207 192.428,-470.397 182.324,-467.211 182.542,-474.207"/>
</g>
<!-- Node16 -->
<g id="node16" class="node"><title>Node16</title>
<g id="a_node16"><a xlink:href="../../d8/def/rle__addhist_8c.html#a4f9433d6e4e203d0ecea1c7d3837afc3" target="_top" xlink:title="rle_addhist">
<polygon fill="white" stroke="black" points="198.5,-152.5 198.5,-171.5 267.5,-171.5 267.5,-152.5 198.5,-152.5"/>
<text text-anchor="middle" x="233" y="-159.5" font-family="Helvetica,sans-Serif" font-size="10.00">rle_addhist</text>
</a>
</g>
</g>
<!-- Node1&#45;&gt;Node16 -->
<g id="edge26" class="edge"><title>Node1&#45;&gt;Node16</title>
<path fill="none" stroke="midnightblue" d="M24.9696,-285.409C32.875,-269.438 50.8013,-237.338 75,-219 93.323,-205.115 149.179,-186.563 189.044,-174.452"/>
<polygon fill="midnightblue" stroke="midnightblue" points="190.233,-177.749 198.802,-171.519 188.218,-171.046 190.233,-177.749"/>
</g>
<!-- Node21 -->
<g id="node21" class="node"><title>Node21</title>
<g id="a_node21"><a xlink:href="../../d9/d2a/rle__putrow_8c.html#af88a82b331cd6f425d2a2cc1623944c6" target="_top" xlink:title="rle_put_setup">
<polygon fill="white" stroke="black" points="75,-76.5 75,-95.5 155,-95.5 155,-76.5 75,-76.5"/>
<text text-anchor="middle" x="115" y="-83.5" font-family="Helvetica,sans-Serif" font-size="10.00">rle_put_setup</text>
</a>
</g>
</g>
<!-- Node1&#45;&gt;Node21 -->
<g id="edge33" class="edge"><title>Node1&#45;&gt;Node21</title>
<path fill="none" stroke="midnightblue" d="M20.6184,-285.457C21.4823,-255.338 28.0012,-160.98 75,-105 75.9988,-103.81 77.0898,-102.689 78.2517,-101.633"/>
<polygon fill="midnightblue" stroke="midnightblue" points="80.6265,-104.237 86.7219,-95.5713 76.5528,-98.5446 80.6265,-104.237"/>
</g>
<!-- Node23 -->
<g id="node23" class="node"><title>Node23</title>
<g id="a_node23"><a xlink:href="../../da/dbc/rle__row__alc_8c.html#abf83029f1ab364a8cb72524f58d70a3b" target="_top" xlink:title="rle_row_alloc">
<polygon fill="white" stroke="black" points="322,-304.5 322,-323.5 402,-323.5 402,-304.5 322,-304.5"/>
<text text-anchor="middle" x="362" y="-311.5" font-family="Helvetica,sans-Serif" font-size="10.00">rle_row_alloc</text>
</a>
</g>
</g>
<!-- Node1&#45;&gt;Node23 -->
<g id="edge35" class="edge"><title>Node1&#45;&gt;Node23</title>
<path fill="none" stroke="midnightblue" d="M39.2918,-296.049C90.6897,-298.917 234.862,-306.961 311.559,-311.241"/>
<polygon fill="midnightblue" stroke="midnightblue" points="311.737,-314.756 321.917,-311.819 312.128,-307.767 311.737,-314.756"/>
</g>
<!-- Node24 -->
<g id="node24" class="node"><title>Node24</title>
<g id="a_node24"><a xlink:href="../../db/d53/rle__getrow_8c.html#a3602e1158189cba5e5b0f9b983cba776" target="_top" xlink:title="rle_getrow">
<polygon fill="white" stroke="black" points="81.5,-38.5 81.5,-57.5 148.5,-57.5 148.5,-38.5 81.5,-38.5"/>
<text text-anchor="middle" x="115" y="-45.5" font-family="Helvetica,sans-Serif" font-size="10.00">rle_getrow</text>
</a>
</g>
</g>
<!-- Node1&#45;&gt;Node24 -->
<g id="edge39" class="edge"><title>Node1&#45;&gt;Node24</title>
<path fill="none" stroke="midnightblue" d="M20.0472,-285.063C19.0114,-250.746 19.9944,-135.573 75,-67 75.9425,-65.825 76.9758,-64.7176 78.0799,-63.6745"/>
<polygon fill="midnightblue" stroke="midnightblue" points="80.2211,-66.4442 86.1834,-57.6862 76.0609,-60.8145 80.2211,-66.4442"/>
</g>
<!-- Node27 -->
<g id="node27" class="node"><title>Node27</title>
<g id="a_node27"><a xlink:href="../../d9/d2a/rle__putrow_8c.html#aa26532b01bc4f49b7383765cdc23ea72" target="_top" xlink:title="rle_putrow">
<polygon fill="white" stroke="black" points="82,-228.5 82,-247.5 148,-247.5 148,-228.5 82,-228.5"/>
<text text-anchor="middle" x="115" y="-235.5" font-family="Helvetica,sans-Serif" font-size="10.00">rle_putrow</text>
</a>
</g>
</g>
<!-- Node1&#45;&gt;Node27 -->
<g id="edge42" class="edge"><title>Node1&#45;&gt;Node27</title>
<path fill="none" stroke="midnightblue" d="M36.361,-285.331C50.9559,-276.433 72.8209,-263.104 89.632,-252.855"/>
<polygon fill="midnightblue" stroke="midnightblue" points="91.6566,-255.72 98.3732,-247.526 88.0129,-249.743 91.6566,-255.72"/>
</g>
<!-- Node29 -->
<g id="node29" class="node"><title>Node29</title>
<g id="a_node29"><a xlink:href="../../d9/d2a/rle__putrow_8c.html#af4fab734a5d227ad2ae95840f56fff3b" target="_top" xlink:title="rle_puteof">
<polygon fill="white" stroke="black" points="330,-608.5 330,-627.5 394,-627.5 394,-608.5 330,-608.5"/>
<text text-anchor="middle" x="362" y="-615.5" font-family="Helvetica,sans-Serif" font-size="10.00">rle_puteof</text>
</a>
</g>
</g>
<!-- Node1&#45;&gt;Node29 -->
<g id="edge45" class="edge"><title>Node1&#45;&gt;Node29</title>
<path fill="none" stroke="midnightblue" d="M20.1954,-304.796C19.6979,-337.596 22.3602,-445.04 75,-508 137.546,-582.809 257.146,-606.884 320.034,-614.524"/>
<polygon fill="midnightblue" stroke="midnightblue" points="319.659,-618.004 329.99,-615.653 320.448,-611.049 319.659,-618.004"/>
</g>
<!-- Node30 -->
<g id="node30" class="node"><title>Node30</title>
<g id="a_node30"><a xlink:href="../../da/dbc/rle__row__alc_8c.html#a4fa936a985e542d42e91d272f9f6092d" target="_top" xlink:title="rle_row_free">
<polygon fill="white" stroke="black" points="194.5,-532.5 194.5,-551.5 271.5,-551.5 271.5,-532.5 194.5,-532.5"/>
<text text-anchor="middle" x="233" y="-539.5" font-family="Helvetica,sans-Serif" font-size="10.00">rle_row_free</text>
</a>
</g>
</g>
<!-- Node1&#45;&gt;Node30 -->
<g id="edge47" class="edge"><title>Node1&#45;&gt;Node30</title>
<path fill="none" stroke="midnightblue" d="M20.8795,-304.582C22.5004,-333.135 30.9802,-418.765 75,-469 103.488,-501.511 149.512,-520.532 184.381,-530.959"/>
<polygon fill="midnightblue" stroke="midnightblue" points="183.777,-534.426 194.353,-533.801 185.695,-527.694 183.777,-534.426"/>
</g>
<!-- Node31 -->
<g id="node31" class="node"><title>Node31</title>
<g id="a_node31"><a xlink:href="../../d7/d24/rle__error_8c.html#af931d686cf3ca715c9b900527f0961c0" target="_top" xlink:title="rle_get_error">
<polygon fill="white" stroke="black" points="75.5,-0.5 75.5,-19.5 154.5,-19.5 154.5,-0.5 75.5,-0.5"/>
<text text-anchor="middle" x="115" y="-7.5" font-family="Helvetica,sans-Serif" font-size="10.00">rle_get_error</text>
</a>
</g>
</g>
<!-- Node1&#45;&gt;Node31 -->
<g id="edge49" class="edge"><title>Node1&#45;&gt;Node31</title>
<path fill="none" stroke="midnightblue" d="M21.3509,-285.24C25.2612,-242.316 42.7111,-70.6232 75,-29 75.9233,-27.8098 76.9403,-26.6896 78.0309,-25.6358"/>
<polygon fill="midnightblue" stroke="midnightblue" points="80.176,-28.402 86.0795,-19.6042 75.9782,-22.8003 80.176,-28.402"/>
</g>
<!-- Node3 -->
<g id="node3" class="node"><title>Node3</title>
<g id="a_node3"><a xlink:href="../../d2/df3/rle__hdr_8c.html#a16c4da6201b3b8cf55127b9ca968d253" target="_top" xlink:title="rle_hdr_clear">
<polygon fill="white" stroke="black" points="322,-418.5 322,-437.5 402,-437.5 402,-418.5 322,-418.5"/>
<text text-anchor="middle" x="362" y="-425.5" font-family="Helvetica,sans-Serif" font-size="10.00">rle_hdr_clear</text>
</a>
</g>
</g>
<!-- Node2&#45;&gt;Node3 -->
<g id="edge2" class="edge"><title>Node2&#45;&gt;Node3</title>
<path fill="none" stroke="midnightblue" d="M150.066,-395.284C192.082,-401.8 263.817,-412.927 311.808,-420.37"/>
<polygon fill="midnightblue" stroke="midnightblue" points="311.549,-423.872 321.967,-421.946 312.622,-416.955 311.549,-423.872"/>
</g>
<!-- Node2&#45;&gt;Node5 -->
<g id="edge4" class="edge"><title>Node2&#45;&gt;Node5</title>
<path fill="none" stroke="midnightblue" d="M131.165,-380.301C145.837,-373.718 168.771,-365.601 189.063,-359.522"/>
<polygon fill="midnightblue" stroke="midnightblue" points="190.13,-362.857 198.764,-356.717 188.185,-356.133 190.13,-362.857"/>
</g>
<!-- Node4 -->
<g id="node4" class="node"><title>Node4</title>
<g id="a_node4"><a xlink:href="../../d0/dcc/rletorla_8c.html#aafde19f7d36ca163a143579c1b125b6d" target="_top" xlink:title="free">
<polygon fill="white" stroke="black" points="464.5,-532.5 464.5,-551.5 499.5,-551.5 499.5,-532.5 464.5,-532.5"/>
<text text-anchor="middle" x="482" y="-539.5" font-family="Helvetica,sans-Serif" font-size="10.00">free</text>
</a>
</g>
</g>
<!-- Node3&#45;&gt;Node4 -->
<g id="edge3" class="edge"><title>Node3&#45;&gt;Node4</title>
<path fill="none" stroke="midnightblue" d="M373.061,-437.72C393.177,-457.154 438.573,-501.011 463.609,-525.199"/>
<polygon fill="midnightblue" stroke="midnightblue" points="461.341,-527.874 470.965,-532.305 466.205,-522.84 461.341,-527.874"/>
</g>
<!-- Node5&#45;&gt;Node2 -->
<g id="edge5" class="edge"><title>Node5&#45;&gt;Node2</title>
<path fill="none" stroke="midnightblue" d="M216.998,-361.626C202.546,-368.126 179.97,-376.14 159.825,-382.211"/>
<polygon fill="midnightblue" stroke="midnightblue" points="158.799,-378.864 150.176,-385.02 160.756,-385.585 158.799,-378.864"/>
</g>
<!-- Node5&#45;&gt;Node6 -->
<g id="edge6" class="edge"><title>Node5&#45;&gt;Node6</title>
<path fill="none" stroke="midnightblue" d="M267.234,-350.135C303.358,-347.722 362.662,-342.634 413,-333 424.706,-330.76 437.33,-327.48 448.485,-324.274"/>
<polygon fill="midnightblue" stroke="midnightblue" points="449.654,-327.578 458.249,-321.382 447.667,-320.866 449.654,-327.578"/>
</g>
<!-- Node5&#45;&gt;Node7 -->
<g id="edge7" class="edge"><title>Node5&#45;&gt;Node7</title>
<path fill="none" stroke="midnightblue" d="M266.047,-361.589C282.141,-366.404 301.841,-372.299 319.117,-377.468"/>
<polygon fill="midnightblue" stroke="midnightblue" points="318.379,-380.901 328.963,-380.414 320.386,-374.194 318.379,-380.901"/>
</g>
<!-- Node7&#45;&gt;Node4 -->
<g id="edge8" class="edge"><title>Node7&#45;&gt;Node4</title>
<path fill="none" stroke="midnightblue" d="M395.122,-398.201C401.545,-400.892 407.882,-404.414 413,-409 447.953,-440.321 467.47,-493.827 475.908,-522.497"/>
<polygon fill="midnightblue" stroke="midnightblue" points="472.637,-523.798 478.693,-532.492 479.381,-521.919 472.637,-523.798"/>
</g>
<!-- Node7&#45;&gt;Node6 -->
<g id="edge9" class="edge"><title>Node7&#45;&gt;Node6</title>
<path fill="none" stroke="midnightblue" d="M385.421,-380.433C394.232,-376.368 404.3,-371.336 413,-366 430.459,-355.291 448.827,-341.043 462.066,-330.169"/>
<polygon fill="midnightblue" stroke="midnightblue" points="464.526,-332.675 469.963,-323.582 460.042,-327.299 464.526,-332.675"/>
</g>
<!-- Node9 -->
<g id="node9" class="node"><title>Node9</title>
<g id="a_node9"><a xlink:href="../../d4/db0/scanargs_8c.html#a862219039664df6eb3cfced58addf830" target="_top" xlink:title="_do_scanargs">
<polygon fill="white" stroke="black" points="191,-114.5 191,-133.5 275,-133.5 275,-114.5 191,-114.5"/>
<text text-anchor="middle" x="233" y="-121.5" font-family="Helvetica,sans-Serif" font-size="10.00">_do_scanargs</text>
</a>
</g>
</g>
<!-- Node8&#45;&gt;Node9 -->
<g id="edge11" class="edge"><title>Node8&#45;&gt;Node9</title>
<path fill="none" stroke="midnightblue" d="M145.272,-152.411C159.697,-147.686 177.293,-141.921 192.857,-136.823"/>
<polygon fill="midnightblue" stroke="midnightblue" points="194.324,-140.025 202.738,-133.586 192.145,-133.373 194.324,-140.025"/>
</g>
<!-- Node11 -->
<g id="node11" class="node"><title>Node11</title>
<g id="a_node11"><a xlink:href="../../de/d4e/rle__open__f_8c.html#a5a0e62a00f907fce26e93b2f72adb2b0" target="_top" xlink:title="rle_open_f_noexit">
<polygon fill="white" stroke="black" points="311,-646.5 311,-665.5 413,-665.5 413,-646.5 311,-646.5"/>
<text text-anchor="middle" x="362" y="-653.5" font-family="Helvetica,sans-Serif" font-size="10.00">rle_open_f_noexit</text>
</a>
</g>
</g>
<!-- Node10&#45;&gt;Node11 -->
<g id="edge13" class="edge"><title>Node10&#45;&gt;Node11</title>
<path fill="none" stroke="midnightblue" d="M149.042,-643.888C187.738,-646.099 252.62,-649.807 300.427,-652.539"/>
<polygon fill="midnightblue" stroke="midnightblue" points="300.475,-656.047 310.658,-653.123 300.874,-649.058 300.475,-656.047"/>
</g>
<!-- Node11&#45;&gt;Node4 -->
<g id="edge16" class="edge"><title>Node11&#45;&gt;Node4</title>
<path fill="none" stroke="midnightblue" d="M396.458,-646.431C402.297,-643.907 408.071,-640.797 413,-637 440.05,-616.164 460.929,-581.652 472.056,-560.459"/>
<polygon fill="midnightblue" stroke="midnightblue" points="475.198,-562.002 476.594,-551.5 468.953,-558.839 475.198,-562.002"/>
</g>
<!-- Node11&#45;&gt;Node6 -->
<g id="edge15" class="edge"><title>Node11&#45;&gt;Node6</title>
<path fill="none" stroke="midnightblue" d="M401.176,-646.297C405.632,-643.859 409.741,-640.811 413,-637 433.114,-613.483 467.697,-399.695 478.012,-333.467"/>
<polygon fill="midnightblue" stroke="midnightblue" points="481.481,-333.937 479.551,-323.52 474.563,-332.867 481.481,-333.937"/>
</g>
<!-- Node12 -->
<g id="node12" class="node"><title>Node12</title>
<g id="a_node12"><a xlink:href="../../de/d4e/rle__open__f_8c.html#a84fda810ae9b9bde82a6391d0b264ead" target="_top" xlink:title="my_popen">
<polygon fill="white" stroke="black" points="449,-646.5 449,-665.5 515,-665.5 515,-646.5 449,-646.5"/>
<text text-anchor="middle" x="482" y="-653.5" font-family="Helvetica,sans-Serif" font-size="10.00">my_popen</text>
</a>
</g>
</g>
<!-- Node11&#45;&gt;Node12 -->
<g id="edge14" class="edge"><title>Node11&#45;&gt;Node12</title>
<path fill="none" stroke="midnightblue" d="M413.043,-656C421.523,-656 430.255,-656 438.518,-656"/>
<polygon fill="midnightblue" stroke="midnightblue" points="438.678,-659.5 448.678,-656 438.678,-652.5 438.678,-659.5"/>
</g>
<!-- Node14&#45;&gt;Node3 -->
<g id="edge20" class="edge"><title>Node14&#45;&gt;Node3</title>
<path fill="none" stroke="midnightblue" d="M266.047,-456.411C282.141,-451.596 301.841,-445.701 319.117,-440.532"/>
<polygon fill="midnightblue" stroke="midnightblue" points="320.386,-443.806 328.963,-437.586 318.379,-437.099 320.386,-443.806"/>
</g>
<!-- Node14&#45;&gt;Node4 -->
<g id="edge23" class="edge"><title>Node14&#45;&gt;Node4</title>
<path fill="none" stroke="midnightblue" d="M243.414,-475.636C256.982,-488.847 283.444,-512.176 311,-523 358.889,-541.81 419.82,-543.863 454.207,-543.224"/>
<polygon fill="midnightblue" stroke="midnightblue" points="454.49,-546.717 464.389,-542.94 454.295,-539.72 454.49,-546.717"/>
</g>
<!-- Node14&#45;&gt;Node6 -->
<g id="edge22" class="edge"><title>Node14&#45;&gt;Node6</title>
<path fill="none" stroke="midnightblue" d="M273.616,-471.968C312.541,-475.655 371.916,-475.225 413,-447 452.044,-420.176 469.991,-363.918 477.069,-333.886"/>
<polygon fill="midnightblue" stroke="midnightblue" points="480.562,-334.293 479.27,-323.777 473.722,-332.803 480.562,-334.293"/>
</g>
<!-- Node14&#45;&gt;Node7 -->
<g id="edge21" class="edge"><title>Node14&#45;&gt;Node7</title>
<path fill="none" stroke="midnightblue" d="M252.488,-456.284C259.727,-452.198 267.965,-447.191 275,-442 292.464,-429.112 292.525,-420.392 311,-409 314.149,-407.058 317.53,-405.26 320.993,-403.609"/>
<polygon fill="midnightblue" stroke="midnightblue" points="322.477,-406.78 330.25,-399.581 319.684,-400.361 322.477,-406.78"/>
</g>
<!-- Node15 -->
<g id="node15" class="node"><title>Node15</title>
<g id="a_node15"><a xlink:href="../../db/d53/rle__getrow_8c.html#a0ea68aa2ebeef9d4cade7282553b03d6" target="_top" xlink:title="vax_gshort">
<polygon fill="white" stroke="black" points="327.5,-494.5 327.5,-513.5 396.5,-513.5 396.5,-494.5 327.5,-494.5"/>
<text text-anchor="middle" x="362" y="-501.5" font-family="Helvetica,sans-Serif" font-size="10.00">vax_gshort</text>
</a>
</g>
</g>
<!-- Node14&#45;&gt;Node15 -->
<g id="edge24" class="edge"><title>Node14&#45;&gt;Node15</title>
<path fill="none" stroke="midnightblue" d="M266.047,-475.589C282.141,-480.404 301.841,-486.299 319.117,-491.468"/>
<polygon fill="midnightblue" stroke="midnightblue" points="318.379,-494.901 328.963,-494.414 320.386,-488.194 318.379,-494.901"/>
</g>
<!-- Node16&#45;&gt;Node6 -->
<g id="edge29" class="edge"><title>Node16&#45;&gt;Node6</title>
<path fill="none" stroke="midnightblue" d="M267.511,-171.073C312.467,-183.668 389.391,-206.837 413,-224 439.272,-243.099 460.045,-275.228 471.417,-295.487"/>
<polygon fill="midnightblue" stroke="midnightblue" points="468.387,-297.242 476.227,-304.369 474.542,-293.909 468.387,-297.242"/>
</g>
<!-- Node17 -->
<g id="node17" class="node"><title>Node17</title>
<g id="a_node17"><a xlink:href="../../db/db2/rle__getcom_8c.html#a9cefd612c381bf82c9cdf1f3a3b12dd6" target="_top" xlink:title="rle_getcom">
<polygon fill="white" stroke="black" points="327.5,-114.5 327.5,-133.5 396.5,-133.5 396.5,-114.5 327.5,-114.5"/>
<text text-anchor="middle" x="362" y="-121.5" font-family="Helvetica,sans-Serif" font-size="10.00">rle_getcom</text>
</a>
</g>
</g>
<!-- Node16&#45;&gt;Node17 -->
<g id="edge27" class="edge"><title>Node16&#45;&gt;Node17</title>
<path fill="none" stroke="midnightblue" d="M266.047,-152.411C282.141,-147.596 301.841,-141.701 319.117,-136.532"/>
<polygon fill="midnightblue" stroke="midnightblue" points="320.386,-139.806 328.963,-133.586 318.379,-133.099 320.386,-139.806"/>
</g>
<!-- Node19 -->
<g id="node19" class="node"><title>Node19</title>
<g id="a_node19"><a xlink:href="../../df/da5/rle__putcom_8c.html#a6fa8528c32d14763efe2a534e409e321" target="_top" xlink:title="rle_putcom">
<polygon fill="white" stroke="black" points="328,-152.5 328,-171.5 396,-171.5 396,-152.5 328,-152.5"/>
<text text-anchor="middle" x="362" y="-159.5" font-family="Helvetica,sans-Serif" font-size="10.00">rle_putcom</text>
</a>
</g>
</g>
<!-- Node16&#45;&gt;Node19 -->
<g id="edge30" class="edge"><title>Node16&#45;&gt;Node19</title>
<path fill="none" stroke="midnightblue" d="M267.7,-162C282.891,-162 301.024,-162 317.248,-162"/>
<polygon fill="midnightblue" stroke="midnightblue" points="317.583,-165.5 327.583,-162 317.583,-158.5 317.583,-165.5"/>
</g>
<!-- Node18 -->
<g id="node18" class="node"><title>Node18</title>
<g id="a_node18"><a xlink:href="../../db/db2/rle__getcom_8c.html#a7502c8b599724ce86fee5df1311a2337" target="_top" xlink:title="match">
<polygon fill="white" stroke="black" points="459.5,-114.5 459.5,-133.5 504.5,-133.5 504.5,-114.5 459.5,-114.5"/>
<text text-anchor="middle" x="482" y="-121.5" font-family="Helvetica,sans-Serif" font-size="10.00">match</text>
</a>
</g>
</g>
<!-- Node17&#45;&gt;Node18 -->
<g id="edge28" class="edge"><title>Node17&#45;&gt;Node18</title>
<path fill="none" stroke="midnightblue" d="M396.814,-124C413.35,-124 433.136,-124 449.37,-124"/>
<polygon fill="midnightblue" stroke="midnightblue" points="449.456,-127.5 459.456,-124 449.456,-120.5 449.456,-127.5"/>
</g>
<!-- Node19&#45;&gt;Node6 -->
<g id="edge31" class="edge"><title>Node19&#45;&gt;Node6</title>
<path fill="none" stroke="midnightblue" d="M390.92,-171.617C398.713,-175.251 406.749,-179.999 413,-186 445.531,-217.23 465.84,-267.463 475.097,-294.789"/>
<polygon fill="midnightblue" stroke="midnightblue" points="471.787,-295.929 478.201,-304.362 478.446,-293.769 471.787,-295.929"/>
</g>
<!-- Node20 -->
<g id="node20" class="node"><title>Node20</title>
<g id="a_node20"><a xlink:href="../../df/da5/rle__putcom_8c.html#a7502c8b599724ce86fee5df1311a2337" target="_top" xlink:title="match">
<polygon fill="white" stroke="black" points="459.5,-152.5 459.5,-171.5 504.5,-171.5 504.5,-152.5 459.5,-152.5"/>
<text text-anchor="middle" x="482" y="-159.5" font-family="Helvetica,sans-Serif" font-size="10.00">match</text>
</a>
</g>
</g>
<!-- Node19&#45;&gt;Node20 -->
<g id="edge32" class="edge"><title>Node19&#45;&gt;Node20</title>
<path fill="none" stroke="midnightblue" d="M396.184,-162C412.735,-162 432.664,-162 449.044,-162"/>
<polygon fill="midnightblue" stroke="midnightblue" points="449.224,-165.5 459.224,-162 449.224,-158.5 449.224,-165.5"/>
</g>
<!-- Node22 -->
<g id="node22" class="node"><title>Node22</title>
<g id="a_node22"><a xlink:href="../../d9/d2a/rle__putrow_8c.html#a46d9789104d5d1f09253a808fdad5346" target="_top" xlink:title="rle_put_init">
<polygon fill="white" stroke="black" points="199,-76.5 199,-95.5 267,-95.5 267,-76.5 199,-76.5"/>
<text text-anchor="middle" x="233" y="-83.5" font-family="Helvetica,sans-Serif" font-size="10.00">rle_put_init</text>
</a>
</g>
</g>
<!-- Node21&#45;&gt;Node22 -->
<g id="edge34" class="edge"><title>Node21&#45;&gt;Node22</title>
<path fill="none" stroke="midnightblue" d="M155.272,-86C166.031,-86 177.753,-86 188.722,-86"/>
<polygon fill="midnightblue" stroke="midnightblue" points="188.953,-89.5001 198.953,-86 188.953,-82.5001 188.953,-89.5001"/>
</g>
<!-- Node23&#45;&gt;Node4 -->
<g id="edge37" class="edge"><title>Node23&#45;&gt;Node4</title>
<path fill="none" stroke="midnightblue" d="M373.364,-323.66C384.379,-334.373 401.729,-352.587 413,-371 444.17,-421.922 466.068,-489.621 475.622,-522.468"/>
<polygon fill="midnightblue" stroke="midnightblue" points="472.286,-523.533 478.384,-532.197 479.019,-521.621 472.286,-523.533"/>
</g>
<!-- Node23&#45;&gt;Node6 -->
<g id="edge36" class="edge"><title>Node23&#45;&gt;Node6</title>
<path fill="none" stroke="midnightblue" d="M402.292,-314C417.145,-314 433.879,-314 448.087,-314"/>
<polygon fill="midnightblue" stroke="midnightblue" points="448.386,-317.5 458.386,-314 448.386,-310.5 448.386,-317.5"/>
</g>
<!-- Node25 -->
<g id="node25" class="node"><title>Node25</title>
<g id="a_node25"><a xlink:href="../../db/d53/rle__getrow_8c.html#a61ac0da96b0dd8bc3cbc98afcd9b5c44" target="_top" xlink:title="bfill">
<polygon fill="white" stroke="black" points="217,-38.5 217,-57.5 249,-57.5 249,-38.5 217,-38.5"/>
<text text-anchor="middle" x="233" y="-45.5" font-family="Helvetica,sans-Serif" font-size="10.00">bfill</text>
</a>
</g>
</g>
<!-- Node24&#45;&gt;Node25 -->
<g id="edge40" class="edge"><title>Node24&#45;&gt;Node25</title>
<path fill="none" stroke="midnightblue" d="M148.621,-48C166.981,-48 189.568,-48 206.6,-48"/>
<polygon fill="midnightblue" stroke="midnightblue" points="206.89,-51.5001 216.89,-48 206.89,-44.5001 206.89,-51.5001"/>
</g>
<!-- Node26 -->
<g id="node26" class="node"><title>Node26</title>
<g id="a_node26"><a xlink:href="../../d8/d7c/rle__getskip_8c.html#af6b1e1dc0867e9340f90668591c7c5b3" target="_top" xlink:title="rle_getskip">
<polygon fill="white" stroke="black" points="199,-0.5 199,-19.5 267,-19.5 267,-0.5 199,-0.5"/>
<text text-anchor="middle" x="233" y="-7.5" font-family="Helvetica,sans-Serif" font-size="10.00">rle_getskip</text>
</a>
</g>
</g>
<!-- Node24&#45;&gt;Node26 -->
<g id="edge41" class="edge"><title>Node24&#45;&gt;Node26</title>
<path fill="none" stroke="midnightblue" d="M145.272,-38.411C159.697,-33.6856 177.293,-27.9211 192.857,-22.8226"/>
<polygon fill="midnightblue" stroke="midnightblue" points="194.324,-26.0252 202.738,-19.5859 192.145,-19.373 194.324,-26.0252"/>
</g>
<!-- Node27&#45;&gt;Node6 -->
<g id="edge43" class="edge"><title>Node27&#45;&gt;Node6</title>
<path fill="none" stroke="midnightblue" d="M148.071,-234.833C203.97,-230.549 321.972,-227.035 413,-262 432.802,-269.606 451.662,-284.896 464.474,-296.937"/>
<polygon fill="midnightblue" stroke="midnightblue" points="462.373,-299.777 471.969,-304.266 467.267,-294.772 462.373,-299.777"/>
</g>
<!-- Node28 -->
<g id="node28" class="node"><title>Node28</title>
<g id="a_node28"><a xlink:href="../../d9/d2a/rle__putrow_8c.html#aaa4133bf4a6cbf287444448497631f26" target="_top" xlink:title="findruns">
<polygon fill="white" stroke="black" points="206,-190.5 206,-209.5 260,-209.5 260,-190.5 206,-190.5"/>
<text text-anchor="middle" x="233" y="-197.5" font-family="Helvetica,sans-Serif" font-size="10.00">findruns</text>
</a>
</g>
</g>
<!-- Node27&#45;&gt;Node28 -->
<g id="edge44" class="edge"><title>Node27&#45;&gt;Node28</title>
<path fill="none" stroke="midnightblue" d="M145.272,-228.411C160.723,-223.349 179.814,-217.095 196.148,-211.745"/>
<polygon fill="midnightblue" stroke="midnightblue" points="197.491,-214.988 205.904,-208.549 195.311,-208.336 197.491,-214.988"/>
</g>
<!-- Node29&#45;&gt;Node4 -->
<g id="edge46" class="edge"><title>Node29&#45;&gt;Node4</title>
<path fill="none" stroke="midnightblue" d="M385.421,-608.433C394.232,-604.368 404.3,-599.336 413,-594 430.459,-583.291 448.827,-569.043 462.066,-558.169"/>
<polygon fill="midnightblue" stroke="midnightblue" points="464.526,-560.675 469.963,-551.582 460.042,-555.299 464.526,-560.675"/>
</g>
<!-- Node30&#45;&gt;Node4 -->
<g id="edge48" class="edge"><title>Node30&#45;&gt;Node4</title>
<path fill="none" stroke="midnightblue" d="M271.805,-550.272C284.226,-552.614 298.144,-554.841 311,-556 356.15,-560.071 367.9,-560.594 413,-556 426.865,-554.588 442.077,-551.595 454.591,-548.738"/>
<polygon fill="midnightblue" stroke="midnightblue" points="455.462,-552.128 464.38,-546.407 453.841,-545.319 455.462,-552.128"/>
</g>
</g>
</svg>
        <g id="navigator" transform="translate(0 0)" fill="#404254">
                <rect fill="#f2f5e9" fill-opacity="0.5" stroke="#606060" stroke-width=".5" x="0" y="0" width="60" height="60"/>
                <use id="zoomplus" xlink:href="#zoomPlus" x="17" y="9" onmousedown="handleZoom(evt,'in')"/>
                <use id="zoomminus" xlink:href="#zoomMin" x="42" y="9" onmousedown="handleZoom(evt,'out')"/>
                <use id="reset" xlink:href="#resetDef" x="30" y="36" onmousedown="handleReset()"/>
                <g id="arrowUp" xlink:href="#dirArrow" transform="translate(30 24)" onmousedown="handlePan(0,-1)">
                  <use xlink:href="#rim" fill="#404040">
                        <set attributeName="fill" to="#808080" begin="arrowUp.mouseover" end="arrowUp.mouseout"/>
                  </use>
                  <path fill="none" stroke="white" stroke-width="1.5" d="M0,-3.0v7 M-2.5,-0.5L0,-3.0L2.5,-0.5"/>
                </g>
                <g id="arrowRight" xlink:href="#dirArrow" transform="rotate(90) translate(36 -43)" onmousedown="handlePan(1,0)">
                  <use xlink:href="#rim" fill="#404040">
                        <set attributeName="fill" to="#808080" begin="arrowRight.mouseover" end="arrowRight.mouseout"/>
                  </use>
                  <path fill="none" stroke="white" stroke-width="1.5" d="M0,-3.0v7 M-2.5,-0.5L0,-3.0L2.5,-0.5"/>
                </g>
                <g id="arrowDown" xlink:href="#dirArrow" transform="rotate(180) translate(-30 -48)" onmousedown="handlePan(0,1)">
                  <use xlink:href="#rim" fill="#404040">
                        <set attributeName="fill" to="#808080" begin="arrowDown.mouseover" end="arrowDown.mouseout"/>
                  </use>
                  <path fill="none" stroke="white" stroke-width="1.5" d="M0,-3.0v7 M-2.5,-0.5L0,-3.0L2.5,-0.5"/>
                </g>
                <g id="arrowLeft" xlink:href="#dirArrow" transform="rotate(270) translate(-36 17)" onmousedown="handlePan(-1,0)">
                  <use xlink:href="#rim" fill="#404040">
                        <set attributeName="fill" to="#808080" begin="arrowLeft.mouseover" end="arrowLeft.mouseout"/>
                  </use>
                  <path fill="none" stroke="white" stroke-width="1.5" d="M0,-3.0v7 M-2.5,-0.5L0,-3.0L2.5,-0.5"/>
                </g>
        </g>
        <svg viewBox="0 0 15 15" width="100%" height="30px" preserveAspectRatio="xMaxYMin meet">
         <g id="arrow_out" transform="scale(0.3 0.3)">
          <a xlink:href="rlehisto_8c_ade521a0600ded19f1720b6f6df59b480_cgraph_org.svg" target="_base">
           <rect id="button" ry="5" rx="5" y="6" x="6" height="38" width="38"
                fill="#f2f5e9" fill-opacity="0.5" stroke="#606060" stroke-width="1.0"/>
           <path id="arrow"
             d="M 11.500037,31.436501 C 11.940474,20.09759 22.043105,11.32322 32.158766,21.979434 L 37.068811,17.246167 C 37.068811,17.246167 37.088388,32 37.088388,32 L 22.160133,31.978069 C 22.160133,31.978069 26.997745,27.140456 26.997745,27.140456 C 18.528582,18.264221 13.291696,25.230495 11.500037,31.436501 z"
             style="fill:#404040;"/>
          </a>
         </g>
        </svg>
</svg>
