<?xml version="1.0" encoding="UTF-8" standalone="no"?>
<!DOCTYPE svg PUBLIC "-//W3C//DTD SVG 1.1//EN"
 "http://www.w3.org/Graphics/SVG/1.1/DTD/svg11.dtd">
<!-- Generated by graphviz version 2.38.0 (20140413.2041)
 -->
<!-- Title: get/next/Myapp.h Pages: 1 -->
<svg width="238pt" height="95pt"
 viewBox="0.00 0.00 237.50 95.00" xmlns="http://www.w3.org/2000/svg" xmlns:xlink="http://www.w3.org/1999/xlink">
<g id="graph0" class="graph" transform="scale(1 1) rotate(0) translate(4 91)">
<title>get/next/Myapp.h</title>
<polygon fill="white" stroke="none" points="-4,4 -4,-91 233.5,-91 233.5,4 -4,4"/>
<!-- Node1 -->
<g id="node1" class="node"><title>Node1</title>
<polygon fill="#bfbfbf" stroke="black" points="63.5,-67.5 63.5,-86.5 161.5,-86.5 161.5,-67.5 63.5,-67.5"/>
<text text-anchor="middle" x="112.5" y="-74.5" font-family="Helvetica,sans-Serif" font-size="10.00">get/next/Myapp.h</text>
</g>
<!-- Node2 -->
<g id="node2" class="node"><title>Node2</title>
<g id="a_node2"><a xlink:href="../../d9/d10/Myapp_8m.html" target="_top" xlink:title="get/next/Myapp.m">
<polygon fill="white" stroke="black" points="0,-6 0,-25 101,-25 101,-6 0,-6"/>
<text text-anchor="middle" x="50.5" y="-13" font-family="Helvetica,sans-Serif" font-size="10.00">get/next/Myapp.m</text>
</a>
</g>
</g>
<!-- Node1&#45;&gt;Node2 -->
<g id="edge1" class="edge"><title>Node1&#45;&gt;Node2</title>
<path fill="none" stroke="midnightblue" d="M96.1659,-60.3245C84.3866,-49.0202 68.9361,-34.1928 59.3666,-25.0091"/>
<polygon fill="midnightblue" stroke="midnightblue" points="93.9784,-63.0762 103.617,-67.4751 98.8253,-58.0257 93.9784,-63.0762"/>
</g>
<!-- Node3 -->
<g id="node3" class="node"><title>Node3</title>
<g id="a_node3"><a xlink:href="../../df/d12/RLEViewer__main_8m.html" target="_top" xlink:title="get/next/RLEViewer\l_main.m">
<polygon fill="white" stroke="black" points="119.5,-0.5 119.5,-30.5 229.5,-30.5 229.5,-0.5 119.5,-0.5"/>
<text text-anchor="start" x="127.5" y="-18.5" font-family="Helvetica,sans-Serif" font-size="10.00">get/next/RLEViewer</text>
<text text-anchor="middle" x="174.5" y="-7.5" font-family="Helvetica,sans-Serif" font-size="10.00">_main.m</text>
</a>
</g>
</g>
<!-- Node1&#45;&gt;Node3 -->
<g id="edge2" class="edge"><title>Node1&#45;&gt;Node3</title>
<path fill="none" stroke="midnightblue" d="M128.788,-60.369C138.433,-51.1127 150.552,-39.4824 159.888,-30.523"/>
<polygon fill="midnightblue" stroke="midnightblue" points="126.175,-58.0257 121.383,-67.4751 131.022,-63.0762 126.175,-58.0257"/>
</g>
</g>
</svg>
