<?xml version="1.0" encoding="UTF-8" standalone="no"?>
<!DOCTYPE svg PUBLIC "-//W3C//DTD SVG 1.1//EN"
 "http://www.w3.org/Graphics/SVG/1.1/DTD/svg11.dtd">
<!-- Generated by graphviz version 2.38.0 (20140413.2041)
 -->
<!-- Title: wait_timer Pages: 1 -->
<svg width="488pt" height="66pt"
 viewBox="0.00 0.00 488.00 66.00" xmlns="http://www.w3.org/2000/svg" xmlns:xlink="http://www.w3.org/1999/xlink">
<g id="graph0" class="graph" transform="scale(1 1) rotate(0) translate(4 62)">
<title>wait_timer</title>
<polygon fill="white" stroke="none" points="-4,4 -4,-62 484,-62 484,4 -4,4"/>
<!-- Node1 -->
<g id="node1" class="node"><title>Node1</title>
<polygon fill="#bfbfbf" stroke="black" points="0,-19.5 0,-38.5 65,-38.5 65,-19.5 0,-19.5"/>
<text text-anchor="middle" x="32.5" y="-26.5" font-family="Helvetica,sans-Serif" font-size="10.00">wait_timer</text>
</g>
<!-- Node2 -->
<g id="node2" class="node"><title>Node2</title>
<g id="a_node2"><a xlink:href="../../dd/dc5/prototypes_8h.html#abf9e83a3bd78c3da1914a25f6755936c" target="_top" xlink:title="action_flip_forward">
<polygon fill="white" stroke="black" points="105.5,-38.5 105.5,-57.5 212.5,-57.5 212.5,-38.5 105.5,-38.5"/>
<text text-anchor="middle" x="159" y="-45.5" font-family="Helvetica,sans-Serif" font-size="10.00">action_flip_forward</text>
</a>
</g>
</g>
<!-- Node1&#45;&gt;Node2 -->
<g id="edge1" class="edge"><title>Node1&#45;&gt;Node2</title>
<path fill="none" stroke="midnightblue" d="M75.2667,-35.374C84.8157,-36.8313 95.0883,-38.399 105.037,-39.9173"/>
<polygon fill="midnightblue" stroke="midnightblue" points="75.6523,-31.8924 65.2387,-33.8437 74.5962,-38.8123 75.6523,-31.8924"/>
</g>
<!-- Node5 -->
<g id="node5" class="node"><title>Node5</title>
<g id="a_node5"><a xlink:href="../../dd/dc5/prototypes_8h.html#a4251686895d72cff93ebcf2f4f57f02a" target="_top" xlink:title="action_flip_backward">
<polygon fill="white" stroke="black" points="101,-0.5 101,-19.5 217,-19.5 217,-0.5 101,-0.5"/>
<text text-anchor="middle" x="159" y="-7.5" font-family="Helvetica,sans-Serif" font-size="10.00">action_flip_backward</text>
</a>
</g>
</g>
<!-- Node1&#45;&gt;Node5 -->
<g id="edge5" class="edge"><title>Node1&#45;&gt;Node5</title>
<path fill="none" stroke="midnightblue" d="M75.245,-22.6293C83.4071,-21.3837 92.0986,-20.0572 100.665,-18.7499"/>
<polygon fill="midnightblue" stroke="midnightblue" points="74.5962,-19.1877 65.2387,-24.1563 75.6523,-26.1076 74.5962,-19.1877"/>
</g>
<!-- Node3 -->
<g id="node3" class="node"><title>Node3</title>
<g id="a_node3"><a xlink:href="../../dd/dc5/prototypes_8h.html#a881a8dc113b79054ba77b23f68504be1" target="_top" xlink:title="action_flip_book_cycle">
<polygon fill="white" stroke="black" points="253,-19.5 253,-38.5 376,-38.5 376,-19.5 253,-19.5"/>
<text text-anchor="middle" x="314.5" y="-26.5" font-family="Helvetica,sans-Serif" font-size="10.00">action_flip_book_cycle</text>
</a>
</g>
</g>
<!-- Node2&#45;&gt;Node3 -->
<g id="edge2" class="edge"><title>Node2&#45;&gt;Node3</title>
<path fill="none" stroke="midnightblue" d="M222.992,-40.203C232.884,-38.9785 243.091,-37.7151 252.927,-36.4976"/>
<polygon fill="midnightblue" stroke="midnightblue" points="222.32,-36.7593 212.826,-41.4613 223.18,-43.7063 222.32,-36.7593"/>
</g>
<!-- Node4 -->
<g id="node4" class="node"><title>Node4</title>
<g id="a_node4"><a xlink:href="../../db/d50/getx11_8c.html#afd87900bb416432f303847ae3e35c2c6" target="_top" xlink:title="update_pic">
<polygon fill="white" stroke="black" points="412,-19.5 412,-38.5 480,-38.5 480,-19.5 412,-19.5"/>
<text text-anchor="middle" x="446" y="-26.5" font-family="Helvetica,sans-Serif" font-size="10.00">update_pic</text>
</a>
</g>
</g>
<!-- Node2&#45;&gt;Node4 -->
<g id="edge4" class="edge"><title>Node2&#45;&gt;Node4</title>
<path fill="none" stroke="midnightblue" d="M222.737,-52.4208C266.006,-54.3907 324.738,-54.9289 376,-48 389.791,-46.136 404.721,-42.2663 417.155,-38.5026"/>
<polygon fill="midnightblue" stroke="midnightblue" points="222.801,-48.9198 212.641,-51.9225 222.456,-55.9112 222.801,-48.9198"/>
</g>
<!-- Node3&#45;&gt;Node4 -->
<g id="edge3" class="edge"><title>Node3&#45;&gt;Node4</title>
<path fill="none" stroke="midnightblue" d="M386.24,-29C395.214,-29 404.033,-29 412,-29"/>
<polygon fill="midnightblue" stroke="midnightblue" points="386.079,-25.5001 376.079,-29 386.079,-32.5001 386.079,-25.5001"/>
</g>
<!-- Node5&#45;&gt;Node3 -->
<g id="edge6" class="edge"><title>Node5&#45;&gt;Node3</title>
<path fill="none" stroke="midnightblue" d="M227.138,-18.3103C235.727,-19.3733 244.478,-20.4566 252.953,-21.5056"/>
<polygon fill="midnightblue" stroke="midnightblue" points="227.512,-14.8299 217.158,-17.0749 226.652,-21.7769 227.512,-14.8299"/>
</g>
<!-- Node5&#45;&gt;Node4 -->
<g id="edge7" class="edge"><title>Node5&#45;&gt;Node4</title>
<path fill="none" stroke="midnightblue" d="M227.144,-5.38598C269.939,-3.58159 326.458,-3.30366 376,-10 389.791,-11.864 404.721,-15.7337 417.155,-19.4974"/>
<polygon fill="midnightblue" stroke="midnightblue" points="226.956,-1.89085 217.127,-5.84657 227.277,-8.88347 226.956,-1.89085"/>
</g>
</g>
</svg>
