<?xml version="1.0" encoding="UTF-8" standalone="no"?>
<!DOCTYPE svg PUBLIC "-//W3C//DTD SVG 1.1//EN"
 "http://www.w3.org/Graphics/SVG/1.1/DTD/svg11.dtd">
<!-- Generated by graphviz version 2.38.0 (20140413.2041)
 -->
<!-- Title: color_t Pages: 1 -->
<svg width="61pt" height="117pt"
 viewBox="0.00 0.00 60.50 117.00" xmlns="http://www.w3.org/2000/svg" xmlns:xlink="http://www.w3.org/1999/xlink">
<g id="graph0" class="graph" transform="scale(1 1) rotate(0) translate(4 113)">
<title>color_t</title>
<polygon fill="white" stroke="none" points="-4,4 -4,-113 56.5,-113 56.5,4 -4,4"/>
<!-- Node1 -->
<g id="node1" class="node"><title>Node1</title>
<polygon fill="#bfbfbf" stroke="black" points="-3.55271e-15,-0.5 -3.55271e-15,-19.5 49,-19.5 49,-0.5 -3.55271e-15,-0.5"/>
<text text-anchor="middle" x="24.5" y="-7.5" font-family="Helvetica,sans-Serif" font-size="10.00">color_t</text>
</g>
<!-- Node2 -->
<g id="node2" class="node"><title>Node2</title>
<polygon fill="white" stroke="#bfbfbf" points="5.5,-89.5 5.5,-108.5 43.5,-108.5 43.5,-89.5 5.5,-89.5"/>
<text text-anchor="middle" x="24.5" y="-96.5" font-family="Helvetica,sans-Serif" font-size="10.00">char</text>
</g>
<!-- Node2&#45;&gt;Node1 -->
<g id="edge1" class="edge"><title>Node2&#45;&gt;Node1</title>
<path fill="none" stroke="#9a32cd" stroke-dasharray="5,2" d="M24.5,-79.1946C24.5,-60.7379 24.5,-33.412 24.5,-19.6249"/>
<polygon fill="#9a32cd" stroke="#9a32cd" points="21.0001,-79.34 24.5,-89.34 28.0001,-79.3401 21.0001,-79.34"/>
<text text-anchor="middle" x="38.5" y="-63" font-family="Helvetica,sans-Serif" font-size="10.00"> blue</text>
<text text-anchor="middle" x="38.5" y="-52" font-family="Helvetica,sans-Serif" font-size="10.00">red</text>
<text text-anchor="middle" x="38.5" y="-41" font-family="Helvetica,sans-Serif" font-size="10.00">green</text>
</g>
</g>
</svg>
