<?xml version="1.0" encoding="UTF-8" standalone="no"?>
<!DOCTYPE svg PUBLIC "-//W3C//DTD SVG 1.1//EN"
 "http://www.w3.org/Graphics/SVG/1.1/DTD/svg11.dtd">
<!-- Generated by graphviz version 2.38.0 (20140413.2041)
 -->
<!-- Title: main Pages: 1 -->
<svg width="404pt" height="636pt"
 viewBox="0.00 0.00 404.00 636.00" xmlns="http://www.w3.org/2000/svg" xmlns:xlink="http://www.w3.org/1999/xlink">
<g id="graph0" class="graph" transform="scale(1 1) rotate(0) translate(4 632)">
<title>main</title>
<polygon fill="white" stroke="none" points="-4,4 -4,-632 400,-632 400,4 -4,4"/>
<!-- Node1 -->
<g id="node1" class="node"><title>Node1</title>
<polygon fill="#bfbfbf" stroke="black" points="0,-266.5 0,-285.5 39,-285.5 39,-266.5 0,-266.5"/>
<text text-anchor="middle" x="19.5" y="-273.5" font-family="Helvetica,sans-Serif" font-size="10.00">main</text>
</g>
<!-- Node2 -->
<g id="node2" class="node"><title>Node2</title>
<g id="a_node2"><a xlink:href="../../d7/d7d/rleldmap_8c.html#aadb592c8d8f32b34cd6d0776c8545371" target="_top" xlink:title="linmap">
<polygon fill="white" stroke="black" points="92,-570.5 92,-589.5 139,-589.5 139,-570.5 92,-570.5"/>
<text text-anchor="middle" x="115.5" y="-577.5" font-family="Helvetica,sans-Serif" font-size="10.00">linmap</text>
</a>
</g>
</g>
<!-- Node1&#45;&gt;Node2 -->
<g id="edge1" class="edge"><title>Node1&#45;&gt;Node2</title>
<path fill="none" stroke="midnightblue" d="M21.1839,-285.549C24.5315,-329.965 40.4458,-516.08 75,-561 77.201,-563.861 79.9426,-566.315 82.9489,-568.413"/>
<polygon fill="midnightblue" stroke="midnightblue" points="81.4593,-571.59 91.8931,-573.43 84.8839,-565.485 81.4593,-571.59"/>
</g>
<!-- Node3 -->
<g id="node3" class="node"><title>Node3</title>
<g id="a_node3"><a xlink:href="../../d4/db0/scanargs_8c.html#a7ea6d702c0484056c8504d6ce7fede08" target="_top" xlink:title="scanargs">
<polygon fill="white" stroke="black" points="85.5,-532.5 85.5,-551.5 145.5,-551.5 145.5,-532.5 85.5,-532.5"/>
<text text-anchor="middle" x="115.5" y="-539.5" font-family="Helvetica,sans-Serif" font-size="10.00">scanargs</text>
</a>
</g>
</g>
<!-- Node1&#45;&gt;Node3 -->
<g id="edge2" class="edge"><title>Node1&#45;&gt;Node3</title>
<path fill="none" stroke="midnightblue" d="M21.4974,-285.615C25.8924,-326.391 44.6698,-484.702 75,-523 75.9449,-524.193 76.9832,-525.316 78.0946,-526.372"/>
<polygon fill="midnightblue" stroke="midnightblue" points="76.1506,-529.287 86.2742,-532.412 80.3087,-523.656 76.1506,-529.287"/>
</g>
<!-- Node5 -->
<g id="node5" class="node"><title>Node5</title>
<g id="a_node5"><a xlink:href="../../de/d4e/rle__open__f_8c.html#a89733a45961817885603ae01210290b7" target="_top" xlink:title="rle_open_f">
<polygon fill="white" stroke="black" points="81.5,-494.5 81.5,-513.5 149.5,-513.5 149.5,-494.5 81.5,-494.5"/>
<text text-anchor="middle" x="115.5" y="-501.5" font-family="Helvetica,sans-Serif" font-size="10.00">rle_open_f</text>
</a>
</g>
</g>
<!-- Node1&#45;&gt;Node5 -->
<g id="edge4" class="edge"><title>Node1&#45;&gt;Node5</title>
<path fill="none" stroke="midnightblue" d="M20.303,-285.576C20.1458,-317.648 23.7584,-422.758 75,-485 75.9673,-486.175 77.0246,-487.282 78.1519,-488.325"/>
<polygon fill="midnightblue" stroke="midnightblue" points="76.2477,-491.268 86.3955,-494.314 80.3618,-485.605 76.2477,-491.268"/>
</g>
<!-- Node10 -->
<g id="node10" class="node"><title>Node10</title>
<g id="a_node10"><a xlink:href="../../d8/d30/cmd__name_8c.html#a271249070fdd12c176777c77d76f888f" target="_top" xlink:title="cmd_name">
<polygon fill="white" stroke="black" points="81.5,-228.5 81.5,-247.5 149.5,-247.5 149.5,-228.5 81.5,-228.5"/>
<text text-anchor="middle" x="115.5" y="-235.5" font-family="Helvetica,sans-Serif" font-size="10.00">cmd_name</text>
</a>
</g>
</g>
<!-- Node1&#45;&gt;Node10 -->
<g id="edge9" class="edge"><title>Node1&#45;&gt;Node10</title>
<path fill="none" stroke="midnightblue" d="M39.0714,-268.492C51.1568,-263.607 67.2592,-257.097 81.4821,-251.348"/>
<polygon fill="midnightblue" stroke="midnightblue" points="82.9968,-254.511 90.9561,-247.518 80.3732,-248.021 82.9968,-254.511"/>
</g>
<!-- Node11 -->
<g id="node11" class="node"><title>Node11</title>
<g id="a_node11"><a xlink:href="../../db/d53/rle__getrow_8c.html#a619b27463c26e0a4a3d9648a9869ee52" target="_top" xlink:title="rle_get_setup">
<polygon fill="white" stroke="black" points="75,-380.5 75,-399.5 156,-399.5 156,-380.5 75,-380.5"/>
<text text-anchor="middle" x="115.5" y="-387.5" font-family="Helvetica,sans-Serif" font-size="10.00">rle_get_setup</text>
</a>
</g>
</g>
<!-- Node1&#45;&gt;Node11 -->
<g id="edge10" class="edge"><title>Node1&#45;&gt;Node11</title>
<path fill="none" stroke="midnightblue" d="M24.4886,-285.685C32.1437,-303.364 50.3481,-341.311 75,-366 78.2778,-369.283 82.0897,-372.307 86.0271,-375.022"/>
<polygon fill="midnightblue" stroke="midnightblue" points="84.3571,-378.105 94.6891,-380.451 88.0749,-372.174 84.3571,-378.105"/>
</g>
<!-- Node15 -->
<g id="node15" class="node"><title>Node15</title>
<g id="a_node15"><a xlink:href="../../d8/def/rle__addhist_8c.html#a4f9433d6e4e203d0ecea1c7d3837afc3" target="_top" xlink:title="rle_addhist">
<polygon fill="white" stroke="black" points="81,-266.5 81,-285.5 150,-285.5 150,-266.5 81,-266.5"/>
<text text-anchor="middle" x="115.5" y="-273.5" font-family="Helvetica,sans-Serif" font-size="10.00">rle_addhist</text>
</a>
</g>
</g>
<!-- Node1&#45;&gt;Node15 -->
<g id="edge19" class="edge"><title>Node1&#45;&gt;Node15</title>
<path fill="none" stroke="midnightblue" d="M39.0714,-276C48.1655,-276 59.5343,-276 70.6652,-276"/>
<polygon fill="midnightblue" stroke="midnightblue" points="70.7485,-279.5 80.7485,-276 70.7485,-272.5 70.7485,-279.5"/>
</g>
<!-- Node20 -->
<g id="node20" class="node"><title>Node20</title>
<g id="a_node20"><a xlink:href="../../d7/def/applymap_8c.html#ab7e36af3707843f77cc5b4e831c2fa6d" target="_top" xlink:title="malloc">
<polygon fill="white" stroke="black" points="92,-190.5 92,-209.5 139,-209.5 139,-190.5 92,-190.5"/>
<text text-anchor="middle" x="115.5" y="-197.5" font-family="Helvetica,sans-Serif" font-size="10.00">malloc</text>
</a>
</g>
</g>
<!-- Node1&#45;&gt;Node20 -->
<g id="edge26" class="edge"><title>Node1&#45;&gt;Node20</title>
<path fill="none" stroke="midnightblue" d="M28.0979,-266.086C37.893,-253.811 55.945,-232.837 75,-219 77.5053,-217.181 80.2121,-215.46 82.9929,-213.852"/>
<polygon fill="midnightblue" stroke="midnightblue" points="84.7577,-216.878 91.9721,-209.119 81.4937,-210.686 84.7577,-216.878"/>
</g>
<!-- Node21 -->
<g id="node21" class="node"><title>Node21</title>
<g id="a_node21"><a xlink:href="../../d9/d2a/rle__putrow_8c.html#af88a82b331cd6f425d2a2cc1623944c6" target="_top" xlink:title="rle_put_setup">
<polygon fill="white" stroke="black" points="75.5,-152.5 75.5,-171.5 155.5,-171.5 155.5,-152.5 75.5,-152.5"/>
<text text-anchor="middle" x="115.5" y="-159.5" font-family="Helvetica,sans-Serif" font-size="10.00">rle_put_setup</text>
</a>
</g>
</g>
<!-- Node1&#45;&gt;Node21 -->
<g id="edge27" class="edge"><title>Node1&#45;&gt;Node21</title>
<path fill="none" stroke="midnightblue" d="M23.7885,-266.403C30.6179,-247.725 47.9881,-206.121 75,-181 76.6299,-179.484 78.403,-178.067 80.2654,-176.745"/>
<polygon fill="midnightblue" stroke="midnightblue" points="82.0946,-179.729 88.834,-171.554 78.4675,-173.742 82.0946,-179.729"/>
</g>
<!-- Node23 -->
<g id="node23" class="node"><title>Node23</title>
<g id="a_node23"><a xlink:href="../../df/dce/rle__getraw_8c.html#a5ed570d65cead1b5587e84134c31e246" target="_top" xlink:title="rle_getraw">
<polygon fill="white" stroke="black" points="82,-456.5 82,-475.5 149,-475.5 149,-456.5 82,-456.5"/>
<text text-anchor="middle" x="115.5" y="-463.5" font-family="Helvetica,sans-Serif" font-size="10.00">rle_getraw</text>
</a>
</g>
</g>
<!-- Node1&#45;&gt;Node23 -->
<g id="edge29" class="edge"><title>Node1&#45;&gt;Node23</title>
<path fill="none" stroke="midnightblue" d="M23.6516,-285.675C31.1181,-308.07 51.0657,-364.922 75,-409 82.4508,-422.722 92.4897,-437.169 100.582,-448.085"/>
<polygon fill="midnightblue" stroke="midnightblue" points="97.9972,-450.469 106.823,-456.331 103.579,-446.245 97.9972,-450.469"/>
</g>
<!-- Node25 -->
<g id="node25" class="node"><title>Node25</title>
<g id="a_node25"><a xlink:href="../../d9/d2a/rle__putrow_8c.html#a018d4b7d6fe20504c07c24b9bd8fc304" target="_top" xlink:title="rle_skiprow">
<polygon fill="white" stroke="black" points="80,-114.5 80,-133.5 151,-133.5 151,-114.5 80,-114.5"/>
<text text-anchor="middle" x="115.5" y="-121.5" font-family="Helvetica,sans-Serif" font-size="10.00">rle_skiprow</text>
</a>
</g>
</g>
<!-- Node1&#45;&gt;Node25 -->
<g id="edge32" class="edge"><title>Node1&#45;&gt;Node25</title>
<path fill="none" stroke="midnightblue" d="M22.0113,-266.353C26.2097,-242.508 40.0899,-180.049 75,-143 76.2199,-141.705 77.5463,-140.489 78.9496,-139.347"/>
<polygon fill="midnightblue" stroke="midnightblue" points="81.2212,-142.04 87.6218,-133.597 77.3532,-136.206 81.2212,-142.04"/>
</g>
<!-- Node26 -->
<g id="node26" class="node"><title>Node26</title>
<g id="a_node26"><a xlink:href="../../d6/d8c/rle__putraw_8c.html#ab36032e464af1d1505cdc69948fe9f17" target="_top" xlink:title="rle_putraw">
<polygon fill="white" stroke="black" points="82.5,-76.5 82.5,-95.5 148.5,-95.5 148.5,-76.5 82.5,-76.5"/>
<text text-anchor="middle" x="115.5" y="-83.5" font-family="Helvetica,sans-Serif" font-size="10.00">rle_putraw</text>
</a>
</g>
</g>
<!-- Node1&#45;&gt;Node26 -->
<g id="edge33" class="edge"><title>Node1&#45;&gt;Node26</title>
<path fill="none" stroke="midnightblue" d="M20.9889,-266.204C22.9005,-237.817 32.0762,-154.387 75,-105 76.1325,-103.697 77.3746,-102.476 78.6978,-101.332"/>
<polygon fill="midnightblue" stroke="midnightblue" points="80.7435,-104.172 86.9671,-95.5982 76.7549,-98.4198 80.7435,-104.172"/>
</g>
<!-- Node27 -->
<g id="node27" class="node"><title>Node27</title>
<g id="a_node27"><a xlink:href="../../df/dce/rle__getraw_8c.html#ad4a764bcb2dc8e45f3f57171022dbf2b" target="_top" xlink:title="rle_freeraw">
<polygon fill="white" stroke="black" points="207.5,-228.5 207.5,-247.5 278.5,-247.5 278.5,-228.5 207.5,-228.5"/>
<text text-anchor="middle" x="243" y="-235.5" font-family="Helvetica,sans-Serif" font-size="10.00">rle_freeraw</text>
</a>
</g>
</g>
<!-- Node1&#45;&gt;Node27 -->
<g id="edge34" class="edge"><title>Node1&#45;&gt;Node27</title>
<path fill="none" stroke="midnightblue" d="M26.8806,-285.553C35.8861,-298.073 53.6334,-319.442 75,-328 108.419,-341.385 125.044,-346.377 156,-328 184.732,-310.944 167.769,-285.007 192,-262 195.872,-258.324 200.413,-255.114 205.151,-252.341"/>
<polygon fill="midnightblue" stroke="midnightblue" points="207.125,-255.259 214.381,-247.539 203.894,-249.049 207.125,-255.259"/>
</g>
<!-- Node28 -->
<g id="node28" class="node"><title>Node28</title>
<g id="a_node28"><a xlink:href="../../d9/d2a/rle__putrow_8c.html#af4fab734a5d227ad2ae95840f56fff3b" target="_top" xlink:title="rle_puteof">
<polygon fill="white" stroke="black" points="211,-190.5 211,-209.5 275,-209.5 275,-190.5 211,-190.5"/>
<text text-anchor="middle" x="243" y="-197.5" font-family="Helvetica,sans-Serif" font-size="10.00">rle_puteof</text>
</a>
</g>
</g>
<!-- Node1&#45;&gt;Node28 -->
<g id="edge36" class="edge"><title>Node1&#45;&gt;Node28</title>
<path fill="none" stroke="midnightblue" d="M38.7628,-285.64C66.3936,-298.762 119.468,-318.119 156,-295 187.583,-275.013 164.546,-244.361 192,-219 194.91,-216.312 198.238,-213.993 201.764,-211.993"/>
<polygon fill="midnightblue" stroke="midnightblue" points="203.309,-215.134 210.813,-207.655 200.283,-208.822 203.309,-215.134"/>
</g>
<!-- Node29 -->
<g id="node29" class="node"><title>Node29</title>
<g id="a_node29"><a xlink:href="../../d7/def/applymap_8c.html#aafde19f7d36ca163a143579c1b125b6d" target="_top" xlink:title="free">
<polygon fill="white" stroke="black" points="98,-38.5 98,-57.5 133,-57.5 133,-38.5 98,-38.5"/>
<text text-anchor="middle" x="115.5" y="-45.5" font-family="Helvetica,sans-Serif" font-size="10.00">free</text>
</a>
</g>
</g>
<!-- Node1&#45;&gt;Node29 -->
<g id="edge38" class="edge"><title>Node1&#45;&gt;Node29</title>
<path fill="none" stroke="midnightblue" d="M20.303,-266.424C20.1458,-234.352 23.7584,-129.242 75,-67 78.6275,-62.5938 83.5198,-59.1386 88.6245,-56.4553"/>
<polygon fill="midnightblue" stroke="midnightblue" points="90.0655,-59.6452 97.815,-52.4204 87.2515,-53.2357 90.0655,-59.6452"/>
</g>
<!-- Node30 -->
<g id="node30" class="node"><title>Node30</title>
<g id="a_node30"><a xlink:href="../../d7/d24/rle__error_8c.html#af931d686cf3ca715c9b900527f0961c0" target="_top" xlink:title="rle_get_error">
<polygon fill="white" stroke="black" points="76,-0.5 76,-19.5 155,-19.5 155,-0.5 76,-0.5"/>
<text text-anchor="middle" x="115.5" y="-7.5" font-family="Helvetica,sans-Serif" font-size="10.00">rle_get_error</text>
</a>
</g>
</g>
<!-- Node1&#45;&gt;Node30 -->
<g id="edge39" class="edge"><title>Node1&#45;&gt;Node30</title>
<path fill="none" stroke="midnightblue" d="M21.4974,-266.385C25.8924,-225.609 44.6698,-67.2983 75,-29 75.9449,-27.8069 76.9832,-26.6842 78.0946,-25.6283"/>
<polygon fill="midnightblue" stroke="midnightblue" points="80.3087,-28.3442 86.2742,-19.5884 76.1506,-22.713 80.3087,-28.3442"/>
</g>
<!-- Node4 -->
<g id="node4" class="node"><title>Node4</title>
<g id="a_node4"><a xlink:href="../../d4/db0/scanargs_8c.html#a862219039664df6eb3cfced58addf830" target="_top" xlink:title="_do_scanargs">
<polygon fill="white" stroke="black" points="201,-608.5 201,-627.5 285,-627.5 285,-608.5 201,-608.5"/>
<text text-anchor="middle" x="243" y="-615.5" font-family="Helvetica,sans-Serif" font-size="10.00">_do_scanargs</text>
</a>
</g>
</g>
<!-- Node3&#45;&gt;Node4 -->
<g id="edge3" class="edge"><title>Node3&#45;&gt;Node4</title>
<path fill="none" stroke="midnightblue" d="M139.865,-551.505C145.381,-554.21 151.082,-557.412 156,-561 174.793,-574.713 172.64,-586.099 192,-599 194.869,-600.912 197.957,-602.669 201.141,-604.275"/>
<polygon fill="midnightblue" stroke="midnightblue" points="199.71,-607.469 210.264,-608.409 202.6,-601.094 199.71,-607.469"/>
</g>
<!-- Node6 -->
<g id="node6" class="node"><title>Node6</title>
<g id="a_node6"><a xlink:href="../../de/d4e/rle__open__f_8c.html#a5a0e62a00f907fce26e93b2f72adb2b0" target="_top" xlink:title="rle_open_f_noexit">
<polygon fill="white" stroke="black" points="192,-570.5 192,-589.5 294,-589.5 294,-570.5 192,-570.5"/>
<text text-anchor="middle" x="243" y="-577.5" font-family="Helvetica,sans-Serif" font-size="10.00">rle_open_f_noexit</text>
</a>
</g>
</g>
<!-- Node5&#45;&gt;Node6 -->
<g id="edge5" class="edge"><title>Node5&#45;&gt;Node6</title>
<path fill="none" stroke="midnightblue" d="M139.865,-513.505C145.381,-516.21 151.082,-519.412 156,-523 174.793,-536.713 172.64,-548.099 192,-561 194.869,-562.912 197.957,-564.669 201.141,-566.275"/>
<polygon fill="midnightblue" stroke="midnightblue" points="199.71,-569.469 210.264,-570.409 202.6,-563.094 199.71,-569.469"/>
</g>
<!-- Node7 -->
<g id="node7" class="node"><title>Node7</title>
<g id="a_node7"><a xlink:href="../../de/d4e/rle__open__f_8c.html#a84fda810ae9b9bde82a6391d0b264ead" target="_top" xlink:title="my_popen">
<polygon fill="white" stroke="black" points="330,-570.5 330,-589.5 396,-589.5 396,-570.5 330,-570.5"/>
<text text-anchor="middle" x="363" y="-577.5" font-family="Helvetica,sans-Serif" font-size="10.00">my_popen</text>
</a>
</g>
</g>
<!-- Node6&#45;&gt;Node7 -->
<g id="edge6" class="edge"><title>Node6&#45;&gt;Node7</title>
<path fill="none" stroke="midnightblue" d="M294.043,-580C302.523,-580 311.255,-580 319.518,-580"/>
<polygon fill="midnightblue" stroke="midnightblue" points="319.678,-583.5 329.678,-580 319.678,-576.5 319.678,-583.5"/>
</g>
<!-- Node8 -->
<g id="node8" class="node"><title>Node8</title>
<g id="a_node8"><a xlink:href="../../d0/dcc/rletorla_8c.html#ab7e36af3707843f77cc5b4e831c2fa6d" target="_top" xlink:title="malloc">
<polygon fill="white" stroke="black" points="339.5,-418.5 339.5,-437.5 386.5,-437.5 386.5,-418.5 339.5,-418.5"/>
<text text-anchor="middle" x="363" y="-425.5" font-family="Helvetica,sans-Serif" font-size="10.00">malloc</text>
</a>
</g>
</g>
<!-- Node6&#45;&gt;Node8 -->
<g id="edge7" class="edge"><title>Node6&#45;&gt;Node8</title>
<path fill="none" stroke="midnightblue" d="M279.235,-570.423C284.569,-567.938 289.712,-564.842 294,-561 328.953,-529.679 348.47,-476.173 356.908,-447.503"/>
<polygon fill="midnightblue" stroke="midnightblue" points="360.381,-448.081 359.693,-437.508 353.637,-446.202 360.381,-448.081"/>
</g>
<!-- Node9 -->
<g id="node9" class="node"><title>Node9</title>
<g id="a_node9"><a xlink:href="../../d0/dcc/rletorla_8c.html#aafde19f7d36ca163a143579c1b125b6d" target="_top" xlink:title="free">
<polygon fill="white" stroke="black" points="345.5,-285.5 345.5,-304.5 380.5,-304.5 380.5,-285.5 345.5,-285.5"/>
<text text-anchor="middle" x="363" y="-292.5" font-family="Helvetica,sans-Serif" font-size="10.00">free</text>
</a>
</g>
</g>
<!-- Node6&#45;&gt;Node9 -->
<g id="edge8" class="edge"><title>Node6&#45;&gt;Node9</title>
<path fill="none" stroke="midnightblue" d="M281.59,-570.488C286.249,-568.017 290.571,-564.909 294,-561 339.783,-508.811 312.615,-476.212 330,-409 338.626,-375.649 349.671,-337.112 356.272,-314.469"/>
<polygon fill="midnightblue" stroke="midnightblue" points="359.674,-315.304 359.125,-304.723 352.956,-313.337 359.674,-315.304"/>
</g>
<!-- Node11&#45;&gt;Node8 -->
<g id="edge16" class="edge"><title>Node11&#45;&gt;Node8</title>
<path fill="none" stroke="midnightblue" d="M125.1,-399.605C138.031,-413.243 163.969,-437.607 192,-447 238.132,-462.459 294.841,-450.35 329.697,-439.627"/>
<polygon fill="midnightblue" stroke="midnightblue" points="330.902,-442.916 339.349,-436.52 328.757,-436.253 330.902,-442.916"/>
</g>
<!-- Node11&#45;&gt;Node9 -->
<g id="edge17" class="edge"><title>Node11&#45;&gt;Node9</title>
<path fill="none" stroke="midnightblue" d="M125.998,-380.435C134.259,-371.939 146.38,-359.036 156,-347 173.549,-325.042 167.102,-308.046 192,-295 237.725,-271.042 300.325,-279.822 335.396,-287.788"/>
<polygon fill="midnightblue" stroke="midnightblue" points="334.805,-291.246 345.348,-290.197 336.452,-284.442 334.805,-291.246"/>
</g>
<!-- Node12 -->
<g id="node12" class="node"><title>Node12</title>
<g id="a_node12"><a xlink:href="../../d2/df3/rle__hdr_8c.html#a16c4da6201b3b8cf55127b9ca968d253" target="_top" xlink:title="rle_hdr_clear">
<polygon fill="white" stroke="black" points="203,-304.5 203,-323.5 283,-323.5 283,-304.5 203,-304.5"/>
<text text-anchor="middle" x="243" y="-311.5" font-family="Helvetica,sans-Serif" font-size="10.00">rle_hdr_clear</text>
</a>
</g>
</g>
<!-- Node11&#45;&gt;Node12 -->
<g id="edge11" class="edge"><title>Node11&#45;&gt;Node12</title>
<path fill="none" stroke="midnightblue" d="M132.395,-380.375C153.895,-367.355 192.445,-344.009 217.621,-328.764"/>
<polygon fill="midnightblue" stroke="midnightblue" points="219.494,-331.721 226.234,-323.547 215.868,-325.734 219.494,-331.721"/>
</g>
<!-- Node13 -->
<g id="node13" class="node"><title>Node13</title>
<g id="a_node13"><a xlink:href="../../d2/df3/rle__hdr_8c.html#a82e79385f2d45cc3b80ce0f4f369eae5" target="_top" xlink:title="rle_names">
<polygon fill="white" stroke="black" points="210,-380.5 210,-399.5 276,-399.5 276,-380.5 210,-380.5"/>
<text text-anchor="middle" x="243" y="-387.5" font-family="Helvetica,sans-Serif" font-size="10.00">rle_names</text>
</a>
</g>
</g>
<!-- Node11&#45;&gt;Node13 -->
<g id="edge13" class="edge"><title>Node11&#45;&gt;Node13</title>
<path fill="none" stroke="midnightblue" d="M156.209,-390C169.943,-390 185.387,-390 199.347,-390"/>
<polygon fill="midnightblue" stroke="midnightblue" points="199.681,-393.5 209.681,-390 199.681,-386.5 199.681,-393.5"/>
</g>
<!-- Node14 -->
<g id="node14" class="node"><title>Node14</title>
<g id="a_node14"><a xlink:href="../../db/d53/rle__getrow_8c.html#a0ea68aa2ebeef9d4cade7282553b03d6" target="_top" xlink:title="vax_gshort">
<polygon fill="white" stroke="black" points="208.5,-418.5 208.5,-437.5 277.5,-437.5 277.5,-418.5 208.5,-418.5"/>
<text text-anchor="middle" x="243" y="-425.5" font-family="Helvetica,sans-Serif" font-size="10.00">vax_gshort</text>
</a>
</g>
</g>
<!-- Node11&#45;&gt;Node14 -->
<g id="edge18" class="edge"><title>Node11&#45;&gt;Node14</title>
<path fill="none" stroke="midnightblue" d="M148.169,-399.589C164.073,-404.404 183.54,-410.299 200.611,-415.468"/>
<polygon fill="midnightblue" stroke="midnightblue" points="199.756,-418.866 210.341,-418.414 201.785,-412.166 199.756,-418.866"/>
</g>
<!-- Node12&#45;&gt;Node9 -->
<g id="edge12" class="edge"><title>Node12&#45;&gt;Node9</title>
<path fill="none" stroke="midnightblue" d="M283.292,-307.673C300.397,-304.919 319.998,-301.763 335.361,-299.289"/>
<polygon fill="midnightblue" stroke="midnightblue" points="335.92,-302.744 345.236,-297.699 334.807,-295.834 335.92,-302.744"/>
</g>
<!-- Node13&#45;&gt;Node8 -->
<g id="edge15" class="edge"><title>Node13&#45;&gt;Node8</title>
<path fill="none" stroke="midnightblue" d="M273.776,-399.589C290.784,-405.066 312.127,-411.939 329.559,-417.553"/>
<polygon fill="midnightblue" stroke="midnightblue" points="328.718,-420.959 339.31,-420.693 330.864,-414.296 328.718,-420.959"/>
</g>
<!-- Node13&#45;&gt;Node9 -->
<g id="edge14" class="edge"><title>Node13&#45;&gt;Node9</title>
<path fill="none" stroke="midnightblue" d="M256.184,-380.191C276.516,-363.822 317.55,-330.786 342.117,-311.008"/>
<polygon fill="midnightblue" stroke="midnightblue" points="344.464,-313.611 350.058,-304.614 340.074,-308.159 344.464,-313.611"/>
</g>
<!-- Node15&#45;&gt;Node8 -->
<g id="edge22" class="edge"><title>Node15&#45;&gt;Node8</title>
<path fill="none" stroke="midnightblue" d="M127.064,-285.568C141.069,-297.864 166.944,-319.258 192,-333 234.417,-356.263 252.19,-346.664 294,-371 313.184,-382.166 332.315,-398.821 345.376,-411.248"/>
<polygon fill="midnightblue" stroke="midnightblue" points="343.064,-413.882 352.669,-418.352 347.948,-408.867 343.064,-413.882"/>
</g>
<!-- Node16 -->
<g id="node16" class="node"><title>Node16</title>
<g id="a_node16"><a xlink:href="../../db/db2/rle__getcom_8c.html#a9cefd612c381bf82c9cdf1f3a3b12dd6" target="_top" xlink:title="rle_getcom">
<polygon fill="white" stroke="black" points="208.5,-114.5 208.5,-133.5 277.5,-133.5 277.5,-114.5 208.5,-114.5"/>
<text text-anchor="middle" x="243" y="-121.5" font-family="Helvetica,sans-Serif" font-size="10.00">rle_getcom</text>
</a>
</g>
</g>
<!-- Node15&#45;&gt;Node16 -->
<g id="edge20" class="edge"><title>Node15&#45;&gt;Node16</title>
<path fill="none" stroke="midnightblue" d="M144.041,-266.409C148.492,-263.896 152.71,-260.795 156,-257 190.801,-216.851 155.52,-181.631 192,-143 194.263,-140.603 196.86,-138.506 199.655,-136.671"/>
<polygon fill="midnightblue" stroke="midnightblue" points="201.347,-139.735 208.497,-131.916 198.032,-133.57 201.347,-139.735"/>
</g>
<!-- Node18 -->
<g id="node18" class="node"><title>Node18</title>
<g id="a_node18"><a xlink:href="../../df/da5/rle__putcom_8c.html#a6fa8528c32d14763efe2a534e409e321" target="_top" xlink:title="rle_putcom">
<polygon fill="white" stroke="black" points="209,-152.5 209,-171.5 277,-171.5 277,-152.5 209,-152.5"/>
<text text-anchor="middle" x="243" y="-159.5" font-family="Helvetica,sans-Serif" font-size="10.00">rle_putcom</text>
</a>
</g>
</g>
<!-- Node15&#45;&gt;Node18 -->
<g id="edge23" class="edge"><title>Node15&#45;&gt;Node18</title>
<path fill="none" stroke="midnightblue" d="M142.808,-266.468C147.59,-263.91 152.245,-260.778 156,-257 182.35,-230.493 164.546,-206.361 192,-181 194.422,-178.763 197.133,-176.781 200.007,-175.027"/>
<polygon fill="midnightblue" stroke="midnightblue" points="201.692,-178.096 208.992,-170.417 198.497,-171.868 201.692,-178.096"/>
</g>
<!-- Node17 -->
<g id="node17" class="node"><title>Node17</title>
<g id="a_node17"><a xlink:href="../../db/db2/rle__getcom_8c.html#a7502c8b599724ce86fee5df1311a2337" target="_top" xlink:title="match">
<polygon fill="white" stroke="black" points="340.5,-114.5 340.5,-133.5 385.5,-133.5 385.5,-114.5 340.5,-114.5"/>
<text text-anchor="middle" x="363" y="-121.5" font-family="Helvetica,sans-Serif" font-size="10.00">match</text>
</a>
</g>
</g>
<!-- Node16&#45;&gt;Node17 -->
<g id="edge21" class="edge"><title>Node16&#45;&gt;Node17</title>
<path fill="none" stroke="midnightblue" d="M277.814,-124C294.35,-124 314.136,-124 330.37,-124"/>
<polygon fill="midnightblue" stroke="midnightblue" points="330.456,-127.5 340.456,-124 330.456,-120.5 330.456,-127.5"/>
</g>
<!-- Node18&#45;&gt;Node8 -->
<g id="edge24" class="edge"><title>Node18&#45;&gt;Node8</title>
<path fill="none" stroke="midnightblue" d="M277.145,-169.544C283.428,-172.272 289.449,-175.976 294,-181 335.111,-226.387 313.725,-254.964 330,-314 339.155,-347.21 350.037,-385.79 356.461,-408.48"/>
<polygon fill="midnightblue" stroke="midnightblue" points="353.136,-409.582 359.23,-418.249 359.87,-407.673 353.136,-409.582"/>
</g>
<!-- Node19 -->
<g id="node19" class="node"><title>Node19</title>
<g id="a_node19"><a xlink:href="../../df/da5/rle__putcom_8c.html#a7502c8b599724ce86fee5df1311a2337" target="_top" xlink:title="match">
<polygon fill="white" stroke="black" points="340.5,-152.5 340.5,-171.5 385.5,-171.5 385.5,-152.5 340.5,-152.5"/>
<text text-anchor="middle" x="363" y="-159.5" font-family="Helvetica,sans-Serif" font-size="10.00">match</text>
</a>
</g>
</g>
<!-- Node18&#45;&gt;Node19 -->
<g id="edge25" class="edge"><title>Node18&#45;&gt;Node19</title>
<path fill="none" stroke="midnightblue" d="M277.184,-162C293.735,-162 313.664,-162 330.044,-162"/>
<polygon fill="midnightblue" stroke="midnightblue" points="330.224,-165.5 340.224,-162 330.224,-158.5 330.224,-165.5"/>
</g>
<!-- Node22 -->
<g id="node22" class="node"><title>Node22</title>
<g id="a_node22"><a xlink:href="../../d9/d2a/rle__putrow_8c.html#a46d9789104d5d1f09253a808fdad5346" target="_top" xlink:title="rle_put_init">
<polygon fill="white" stroke="black" points="209,-76.5 209,-95.5 277,-95.5 277,-76.5 209,-76.5"/>
<text text-anchor="middle" x="243" y="-83.5" font-family="Helvetica,sans-Serif" font-size="10.00">rle_put_init</text>
</a>
</g>
</g>
<!-- Node21&#45;&gt;Node22 -->
<g id="edge28" class="edge"><title>Node21&#45;&gt;Node22</title>
<path fill="none" stroke="midnightblue" d="M139.865,-152.495C145.381,-149.79 151.082,-146.588 156,-143 174.793,-129.287 172.64,-117.901 192,-105 194.869,-103.088 197.957,-101.331 201.141,-99.7249"/>
<polygon fill="midnightblue" stroke="midnightblue" points="202.6,-102.906 210.264,-95.5907 199.71,-96.5306 202.6,-102.906"/>
</g>
<!-- Node23&#45;&gt;Node8 -->
<g id="edge30" class="edge"><title>Node23&#45;&gt;Node8</title>
<path fill="none" stroke="midnightblue" d="M149.159,-470.173C185.228,-473.743 244.72,-476.535 294,-464 310.459,-459.813 327.342,-450.906 340.168,-442.999"/>
<polygon fill="midnightblue" stroke="midnightblue" points="342.205,-445.85 348.727,-437.5 338.422,-439.961 342.205,-445.85"/>
</g>
<!-- Node24 -->
<g id="node24" class="node"><title>Node24</title>
<g id="a_node24"><a xlink:href="../../d8/d7c/rle__getskip_8c.html#af6b1e1dc0867e9340f90668591c7c5b3" target="_top" xlink:title="rle_getskip">
<polygon fill="white" stroke="black" points="209,-532.5 209,-551.5 277,-551.5 277,-532.5 209,-532.5"/>
<text text-anchor="middle" x="243" y="-539.5" font-family="Helvetica,sans-Serif" font-size="10.00">rle_getskip</text>
</a>
</g>
</g>
<!-- Node23&#45;&gt;Node24 -->
<g id="edge31" class="edge"><title>Node23&#45;&gt;Node24</title>
<path fill="none" stroke="midnightblue" d="M139.277,-475.552C144.923,-478.295 150.833,-481.502 156,-485 173.973,-497.169 174.022,-505.839 192,-518 197.391,-521.647 203.421,-525.041 209.376,-528.061"/>
<polygon fill="midnightblue" stroke="midnightblue" points="208.043,-531.304 218.572,-532.484 211.077,-524.995 208.043,-531.304"/>
</g>
<!-- Node27&#45;&gt;Node9 -->
<g id="edge35" class="edge"><title>Node27&#45;&gt;Node9</title>
<path fill="none" stroke="midnightblue" d="M263.96,-247.557C273.118,-251.948 284.114,-257.229 294,-262 307.938,-268.727 323.466,-276.26 336.16,-282.428"/>
<polygon fill="midnightblue" stroke="midnightblue" points="334.719,-285.619 345.243,-286.843 337.779,-279.323 334.719,-285.619"/>
</g>
<!-- Node28&#45;&gt;Node9 -->
<g id="edge37" class="edge"><title>Node28&#45;&gt;Node9</title>
<path fill="none" stroke="midnightblue" d="M275.032,-209.148C281.591,-211.792 288.26,-215.056 294,-219 317.024,-234.82 337.498,-260.009 349.819,-277.009"/>
<polygon fill="midnightblue" stroke="midnightblue" points="347.175,-279.333 355.79,-285.499 352.9,-275.306 347.175,-279.333"/>
</g>
</g>
</svg>
