<?xml version="1.0" encoding="UTF-8" standalone="no"?>
<!DOCTYPE svg PUBLIC "-//W3C//DTD SVG 1.1//EN"
 "http://www.w3.org/Graphics/SVG/1.1/DTD/svg11.dtd">
<!-- Generated by graphviz version 2.38.0 (20140413.2041)
 -->
<!-- Title: radians Pages: 1 -->
<svg width="156pt" height="66pt"
 viewBox="0.00 0.00 156.00 66.00" xmlns="http://www.w3.org/2000/svg" xmlns:xlink="http://www.w3.org/1999/xlink">
<g id="graph0" class="graph" transform="scale(1 1) rotate(0) translate(4 62)">
<title>radians</title>
<polygon fill="white" stroke="none" points="-4,4 -4,-62 152,-62 152,4 -4,4"/>
<!-- Node1 -->
<g id="node1" class="node"><title>Node1</title>
<polygon fill="#bfbfbf" stroke="black" points="0,-19.5 0,-38.5 52,-38.5 52,-19.5 0,-19.5"/>
<text text-anchor="middle" x="26" y="-26.5" font-family="Helvetica,sans-Serif" font-size="10.00">radians</text>
</g>
<!-- Node2 -->
<g id="node2" class="node"><title>Node2</title>
<g id="a_node2"><a xlink:href="../../d5/dd9/rleClock_8c.html#aec9ea6c1eae6fea011b1aa37e56f5b80" target="_top" xlink:title="polarToX">
<polygon fill="white" stroke="black" points="88,-38.5 88,-57.5 148,-57.5 148,-38.5 88,-38.5"/>
<text text-anchor="middle" x="118" y="-45.5" font-family="Helvetica,sans-Serif" font-size="10.00">polarToX</text>
</a>
</g>
</g>
<!-- Node1&#45;&gt;Node2 -->
<g id="edge1" class="edge"><title>Node1&#45;&gt;Node2</title>
<path fill="none" stroke="midnightblue" d="M61.8641,-36.3602C70.481,-38.1793 79.6209,-40.1089 87.9291,-41.8628"/>
<polygon fill="midnightblue" stroke="midnightblue" points="62.5773,-32.9337 52.07,-34.2926 61.1314,-39.7827 62.5773,-32.9337"/>
</g>
<!-- Node3 -->
<g id="node3" class="node"><title>Node3</title>
<g id="a_node3"><a xlink:href="../../d5/dd9/rleClock_8c.html#a7a6abe7a61e0fcf12dab7db668cefcc3" target="_top" xlink:title="polarToY">
<polygon fill="white" stroke="black" points="88,-0.5 88,-19.5 148,-19.5 148,-0.5 88,-0.5"/>
<text text-anchor="middle" x="118" y="-7.5" font-family="Helvetica,sans-Serif" font-size="10.00">polarToY</text>
</a>
</g>
</g>
<!-- Node1&#45;&gt;Node3 -->
<g id="edge2" class="edge"><title>Node1&#45;&gt;Node3</title>
<path fill="none" stroke="midnightblue" d="M61.8641,-21.6398C70.481,-19.8207 79.6209,-17.8911 87.9291,-16.1372"/>
<polygon fill="midnightblue" stroke="midnightblue" points="61.1314,-18.2173 52.07,-23.7074 62.5773,-25.0663 61.1314,-18.2173"/>
</g>
</g>
</svg>
