<?xml version="1.0" encoding="UTF-8" standalone="no"?>
<!DOCTYPE svg PUBLIC "-//W3C//DTD SVG 1.1//EN"
 "http://www.w3.org/Graphics/SVG/1.1/DTD/svg11.dtd">
<!-- Generated by graphviz version 2.38.0 (20140413.2041)
 -->
<!-- Title: lineDots Pages: 1 -->
<svg width="235pt" height="66pt"
 viewBox="0.00 0.00 235.00 66.00" xmlns="http://www.w3.org/2000/svg" xmlns:xlink="http://www.w3.org/1999/xlink">
<g id="graph0" class="graph" transform="scale(1 1) rotate(0) translate(4 62)">
<title>lineDots</title>
<polygon fill="white" stroke="none" points="-4,4 -4,-62 231,-62 231,4 -4,4"/>
<!-- Node1 -->
<g id="node1" class="node"><title>Node1</title>
<polygon fill="#bfbfbf" stroke="black" points="0,-19.5 0,-38.5 55,-38.5 55,-19.5 0,-19.5"/>
<text text-anchor="middle" x="27.5" y="-26.5" font-family="Helvetica,sans-Serif" font-size="10.00">lineDots</text>
</g>
<!-- Node2 -->
<g id="node2" class="node"><title>Node2</title>
<g id="a_node2"><a xlink:href="../../d5/dd9/rleClock_8c.html#aa8006ac792d675d929fd017b016a56db" target="_top" xlink:title="polarLine">
<polygon fill="white" stroke="black" points="91,-38.5 91,-57.5 152,-57.5 152,-38.5 91,-38.5"/>
<text text-anchor="middle" x="121.5" y="-45.5" font-family="Helvetica,sans-Serif" font-size="10.00">polarLine</text>
</a>
</g>
</g>
<!-- Node1&#45;&gt;Node2 -->
<g id="edge1" class="edge"><title>Node1&#45;&gt;Node2</title>
<path fill="none" stroke="midnightblue" d="M65.1583,-36.5707C73.6432,-38.323 82.5708,-40.1668 90.7196,-41.8497"/>
<polygon fill="midnightblue" stroke="midnightblue" points="65.6115,-33.0905 55.1102,-34.4956 64.1956,-39.9459 65.6115,-33.0905"/>
</g>
<!-- Node3 -->
<g id="node3" class="node"><title>Node3</title>
<g id="a_node3"><a xlink:href="../../d5/dd9/rleClock_8c.html#abe9c02f90a494b0d60669e280db89c2d" target="_top" xlink:title="drawText">
<polygon fill="white" stroke="black" points="91,-0.5 91,-19.5 152,-19.5 152,-0.5 91,-0.5"/>
<text text-anchor="middle" x="121.5" y="-7.5" font-family="Helvetica,sans-Serif" font-size="10.00">drawText</text>
</a>
</g>
</g>
<!-- Node1&#45;&gt;Node3 -->
<g id="edge2" class="edge"><title>Node1&#45;&gt;Node3</title>
<path fill="none" stroke="midnightblue" d="M65.1583,-21.4293C73.6432,-19.677 82.5708,-17.8332 90.7196,-16.1503"/>
<polygon fill="midnightblue" stroke="midnightblue" points="64.1956,-18.0541 55.1102,-23.5044 65.6115,-24.9095 64.1956,-18.0541"/>
</g>
<!-- Node4 -->
<g id="node4" class="node"><title>Node4</title>
<g id="a_node4"><a xlink:href="../../d5/dd9/rleClock_8c.html#ade521a0600ded19f1720b6f6df59b480" target="_top" xlink:title="main">
<polygon fill="white" stroke="black" points="188,-0.5 188,-19.5 227,-19.5 227,-0.5 188,-0.5"/>
<text text-anchor="middle" x="207.5" y="-7.5" font-family="Helvetica,sans-Serif" font-size="10.00">main</text>
</a>
</g>
</g>
<!-- Node3&#45;&gt;Node4 -->
<g id="edge3" class="edge"><title>Node3&#45;&gt;Node4</title>
<path fill="none" stroke="midnightblue" d="M162.62,-10C171.492,-10 180.476,-10 187.985,-10"/>
<polygon fill="midnightblue" stroke="midnightblue" points="162.352,-6.5001 152.352,-10 162.352,-13.5001 162.352,-6.5001"/>
</g>
</g>
</svg>
