<?xml version="1.0" encoding="UTF-8" standalone="no"?>
<!DOCTYPE svg PUBLIC "-//W3C//DTD SVG 1.1//EN"
 "http://www.w3.org/Graphics/SVG/1.1/DTD/svg11.dtd">
<!-- Generated by graphviz version 2.38.0 (20140413.2041)
 -->
<!-- Title: polarLine Pages: 1 -->
<svg width="165pt" height="142pt"
 viewBox="0.00 0.00 165.00 142.00" xmlns="http://www.w3.org/2000/svg" xmlns:xlink="http://www.w3.org/1999/xlink">
<g id="graph0" class="graph" transform="scale(1 1) rotate(0) translate(4 138)">
<title>polarLine</title>
<polygon fill="white" stroke="none" points="-4,4 -4,-138 161,-138 161,4 -4,4"/>
<!-- Node1 -->
<g id="node1" class="node"><title>Node1</title>
<polygon fill="#bfbfbf" stroke="black" points="0,-57.5 0,-76.5 61,-76.5 61,-57.5 0,-57.5"/>
<text text-anchor="middle" x="30.5" y="-64.5" font-family="Helvetica,sans-Serif" font-size="10.00">polarLine</text>
</g>
<!-- Node2 -->
<g id="node2" class="node"><title>Node2</title>
<g id="a_node2"><a xlink:href="../../d5/dd9/rleClock_8c.html#a05846a8d59a51cee2bfea183cf066c61" target="_top" xlink:title="lineDots">
<polygon fill="white" stroke="black" points="99.5,-114.5 99.5,-133.5 154.5,-133.5 154.5,-114.5 99.5,-114.5"/>
<text text-anchor="middle" x="127" y="-121.5" font-family="Helvetica,sans-Serif" font-size="10.00">lineDots</text>
</a>
</g>
</g>
<!-- Node1&#45;&gt;Node2 -->
<g id="edge1" class="edge"><title>Node1&#45;&gt;Node2</title>
<path fill="none" stroke="midnightblue" d="M47.5306,-76.6693C62.2817,-85.5667 84.3805,-98.8962 101.371,-109.145"/>
<polygon fill="midnightblue" stroke="midnightblue" points="99.8354,-112.306 110.206,-114.474 103.451,-106.312 99.8354,-112.306"/>
</g>
<!-- Node3 -->
<g id="node3" class="node"><title>Node3</title>
<g id="a_node3"><a xlink:href="../../d5/dd9/rleClock_8c.html#a3c0c095dedbe38c544690c7a0e9b4c3d" target="_top" xlink:title="polarToX">
<polygon fill="white" stroke="black" points="97,-76.5 97,-95.5 157,-95.5 157,-76.5 97,-76.5"/>
<text text-anchor="middle" x="127" y="-83.5" font-family="Helvetica,sans-Serif" font-size="10.00">polarToX</text>
</a>
</g>
</g>
<!-- Node1&#45;&gt;Node3 -->
<g id="edge2" class="edge"><title>Node1&#45;&gt;Node3</title>
<path fill="none" stroke="midnightblue" d="M61.1411,-72.9596C69.3111,-74.6022 78.3008,-76.4097 86.9168,-78.142"/>
<polygon fill="midnightblue" stroke="midnightblue" points="86.2944,-81.5868 96.7881,-80.1267 87.6742,-74.7242 86.2944,-81.5868"/>
</g>
<!-- Node4 -->
<g id="node4" class="node"><title>Node4</title>
<g id="a_node4"><a xlink:href="../../d5/dd9/rleClock_8c.html#a5b95d008139ccd0f38c1212e81fa9772" target="_top" xlink:title="polarToY">
<polygon fill="white" stroke="black" points="97,-38.5 97,-57.5 157,-57.5 157,-38.5 97,-38.5"/>
<text text-anchor="middle" x="127" y="-45.5" font-family="Helvetica,sans-Serif" font-size="10.00">polarToY</text>
</a>
</g>
</g>
<!-- Node1&#45;&gt;Node4 -->
<g id="edge3" class="edge"><title>Node1&#45;&gt;Node4</title>
<path fill="none" stroke="midnightblue" d="M61.1411,-61.0404C69.3111,-59.3978 78.3008,-57.5903 86.9168,-55.858"/>
<polygon fill="midnightblue" stroke="midnightblue" points="87.6742,-59.2758 96.7881,-53.8733 86.2944,-52.4132 87.6742,-59.2758"/>
</g>
<!-- Node5 -->
<g id="node5" class="node"><title>Node5</title>
<g id="a_node5"><a xlink:href="../../d5/dd9/rleClock_8c.html#a4511e885d896e3914dc149bf8849c665" target="_top" xlink:title="setDot">
<polygon fill="white" stroke="black" points="103.5,-0.5 103.5,-19.5 150.5,-19.5 150.5,-0.5 103.5,-0.5"/>
<text text-anchor="middle" x="127" y="-7.5" font-family="Helvetica,sans-Serif" font-size="10.00">setDot</text>
</a>
</g>
</g>
<!-- Node1&#45;&gt;Node5 -->
<g id="edge4" class="edge"><title>Node1&#45;&gt;Node5</title>
<path fill="none" stroke="midnightblue" d="M47.5306,-57.3307C62.2817,-48.4333 84.3805,-35.1038 101.371,-24.8554"/>
<polygon fill="midnightblue" stroke="midnightblue" points="103.451,-27.6885 110.206,-19.5265 99.8354,-21.6944 103.451,-27.6885"/>
</g>
</g>
</svg>
