<?xml version="1.0" encoding="UTF-8" standalone="no"?>
<!DOCTYPE svg PUBLIC "-//W3C//DTD SVG 1.1//EN"
 "http://www.w3.org/Graphics/SVG/1.1/DTD/svg11.dtd">
<!-- Generated by graphviz version 2.38.0 (20140413.2041)
 -->
<!-- Title: rasterAddBits Pages: 1 -->
<svg width="189pt" height="66pt"
 viewBox="0.00 0.00 189.00 66.00" xmlns="http://www.w3.org/2000/svg" xmlns:xlink="http://www.w3.org/1999/xlink">
<g id="graph0" class="graph" transform="scale(1 1) rotate(0) translate(4 62)">
<title>rasterAddBits</title>
<polygon fill="white" stroke="none" points="-4,4 -4,-62 185,-62 185,4 -4,4"/>
<!-- Node1 -->
<g id="node1" class="node"><title>Node1</title>
<polygon fill="#bfbfbf" stroke="black" points="0,-19.5 0,-38.5 80,-38.5 80,-19.5 0,-19.5"/>
<text text-anchor="middle" x="40" y="-26.5" font-family="Helvetica,sans-Serif" font-size="10.00">rasterAddBits</text>
</g>
<!-- Node2 -->
<g id="node2" class="node"><title>Node2</title>
<g id="a_node2"><a xlink:href="../../d5/dd9/rleClock_8c.html#ade521a0600ded19f1720b6f6df59b480" target="_top" xlink:title="main">
<polygon fill="white" stroke="black" points="129,-38.5 129,-57.5 168,-57.5 168,-38.5 129,-38.5"/>
<text text-anchor="middle" x="148.5" y="-45.5" font-family="Helvetica,sans-Serif" font-size="10.00">main</text>
</a>
</g>
</g>
<!-- Node1&#45;&gt;Node2 -->
<g id="edge1" class="edge"><title>Node1&#45;&gt;Node2</title>
<path fill="none" stroke="midnightblue" d="M89.9662,-37.7357C103.748,-40.1945 117.916,-42.7221 128.743,-44.6537"/>
<polygon fill="midnightblue" stroke="midnightblue" points="90.5112,-34.2778 80.0519,-35.967 89.2818,-41.169 90.5112,-34.2778"/>
</g>
<!-- Node3 -->
<g id="node3" class="node"><title>Node3</title>
<g id="a_node3"><a xlink:href="../../d5/dd9/rleClock_8c.html#af58a0ba5d129612f38d45f2e5dc4f53d" target="_top" xlink:title="drawHand">
<polygon fill="white" stroke="black" points="116,-0.5 116,-19.5 181,-19.5 181,-0.5 116,-0.5"/>
<text text-anchor="middle" x="148.5" y="-7.5" font-family="Helvetica,sans-Serif" font-size="10.00">drawHand</text>
</a>
</g>
</g>
<!-- Node1&#45;&gt;Node3 -->
<g id="edge2" class="edge"><title>Node1&#45;&gt;Node3</title>
<path fill="none" stroke="midnightblue" d="M90.1497,-20.2315C98.857,-18.6781 107.711,-17.0985 115.774,-15.66"/>
<polygon fill="midnightblue" stroke="midnightblue" points="89.2818,-16.831 80.0519,-22.033 90.5112,-23.7222 89.2818,-16.831"/>
</g>
</g>
</svg>
