<?xml version="1.0" encoding="UTF-8" standalone="no"?>
<!DOCTYPE svg PUBLIC "-//W3C//DTD SVG 1.1//EN"
 "http://www.w3.org/Graphics/SVG/1.1/DTD/svg11.dtd">
<!-- Generated by graphviz version 2.38.0 (20140413.2041)
 -->
<!-- Title: drawHand Pages: 1 -->
<svg width="189pt" height="180pt"
 viewBox="0.00 0.00 189.00 180.00" xmlns="http://www.w3.org/2000/svg" xmlns:xlink="http://www.w3.org/1999/xlink">
<g id="graph0" class="graph" transform="scale(1 1) rotate(0) translate(4 176)">
<title>drawHand</title>
<polygon fill="white" stroke="none" points="-4,4 -4,-176 185,-176 185,4 -4,4"/>
<!-- Node1 -->
<g id="node1" class="node"><title>Node1</title>
<polygon fill="#bfbfbf" stroke="black" points="0,-76.5 0,-95.5 65,-95.5 65,-76.5 0,-76.5"/>
<text text-anchor="middle" x="32.5" y="-83.5" font-family="Helvetica,sans-Serif" font-size="10.00">drawHand</text>
</g>
<!-- Node2 -->
<g id="node2" class="node"><title>Node2</title>
<g id="a_node2"><a xlink:href="../../d5/dd9/rleClock_8c.html#a3c6969cf72d4e9966262f6b71de3edf0" target="_top" xlink:title="polarLine">
<polygon fill="white" stroke="black" points="110.5,-152.5 110.5,-171.5 171.5,-171.5 171.5,-152.5 110.5,-152.5"/>
<text text-anchor="middle" x="141" y="-159.5" font-family="Helvetica,sans-Serif" font-size="10.00">polarLine</text>
</a>
</g>
</g>
<!-- Node1&#45;&gt;Node2 -->
<g id="edge1" class="edge"><title>Node1&#45;&gt;Node2</title>
<path fill="none" stroke="midnightblue" d="M43.3929,-95.733C56.0223,-107.821 78.8939,-128.602 101,-143 103.568,-144.672 106.305,-146.293 109.092,-147.837"/>
<polygon fill="midnightblue" stroke="midnightblue" points="107.532,-150.971 118.021,-152.47 110.757,-144.757 107.532,-150.971"/>
</g>
<!-- Node3 -->
<g id="node3" class="node"><title>Node3</title>
<g id="a_node3"><a xlink:href="../../d5/dd9/rleClock_8c.html#a3a6bb64f0dfa1d19876d6d2ad54a6e19" target="_top" xlink:title="areaFlood">
<polygon fill="white" stroke="black" points="108.5,-114.5 108.5,-133.5 173.5,-133.5 173.5,-114.5 108.5,-114.5"/>
<text text-anchor="middle" x="141" y="-121.5" font-family="Helvetica,sans-Serif" font-size="10.00">areaFlood</text>
</a>
</g>
</g>
<!-- Node1&#45;&gt;Node3 -->
<g id="edge2" class="edge"><title>Node1&#45;&gt;Node3</title>
<path fill="none" stroke="midnightblue" d="M60.3744,-95.589C73.4919,-100.269 89.4662,-105.969 103.654,-111.032"/>
<polygon fill="midnightblue" stroke="midnightblue" points="102.54,-114.35 113.134,-114.414 104.892,-107.757 102.54,-114.35"/>
</g>
<!-- Node4 -->
<g id="node4" class="node"><title>Node4</title>
<g id="a_node4"><a xlink:href="../../d5/dd9/rleClock_8c.html#a3c0c095dedbe38c544690c7a0e9b4c3d" target="_top" xlink:title="polarToX">
<polygon fill="white" stroke="black" points="111,-76.5 111,-95.5 171,-95.5 171,-76.5 111,-76.5"/>
<text text-anchor="middle" x="141" y="-83.5" font-family="Helvetica,sans-Serif" font-size="10.00">polarToX</text>
</a>
</g>
</g>
<!-- Node1&#45;&gt;Node4 -->
<g id="edge3" class="edge"><title>Node1&#45;&gt;Node4</title>
<path fill="none" stroke="midnightblue" d="M65.1652,-86C76.3571,-86 89.0803,-86 100.82,-86"/>
<polygon fill="midnightblue" stroke="midnightblue" points="100.821,-89.5001 110.821,-86 100.821,-82.5001 100.821,-89.5001"/>
</g>
<!-- Node5 -->
<g id="node5" class="node"><title>Node5</title>
<g id="a_node5"><a xlink:href="../../d5/dd9/rleClock_8c.html#a5b95d008139ccd0f38c1212e81fa9772" target="_top" xlink:title="polarToY">
<polygon fill="white" stroke="black" points="111,-38.5 111,-57.5 171,-57.5 171,-38.5 111,-38.5"/>
<text text-anchor="middle" x="141" y="-45.5" font-family="Helvetica,sans-Serif" font-size="10.00">polarToY</text>
</a>
</g>
</g>
<!-- Node1&#45;&gt;Node5 -->
<g id="edge4" class="edge"><title>Node1&#45;&gt;Node5</title>
<path fill="none" stroke="midnightblue" d="M60.3744,-76.411C73.4919,-71.7306 89.4662,-66.0308 103.654,-60.9685"/>
<polygon fill="midnightblue" stroke="midnightblue" points="104.892,-64.243 113.134,-57.5859 102.54,-57.6501 104.892,-64.243"/>
</g>
<!-- Node6 -->
<g id="node6" class="node"><title>Node6</title>
<g id="a_node6"><a xlink:href="../../d5/dd9/rleClock_8c.html#a569194c27f98bfd605fe649efb9c29a9" target="_top" xlink:title="rasterAddBits">
<polygon fill="white" stroke="black" points="101,-0.5 101,-19.5 181,-19.5 181,-0.5 101,-0.5"/>
<text text-anchor="middle" x="141" y="-7.5" font-family="Helvetica,sans-Serif" font-size="10.00">rasterAddBits</text>
</a>
</g>
</g>
<!-- Node1&#45;&gt;Node6 -->
<g id="edge5" class="edge"><title>Node1&#45;&gt;Node6</title>
<path fill="none" stroke="midnightblue" d="M43.3929,-76.267C56.0223,-64.1794 78.8939,-43.398 101,-29 103.568,-27.3276 106.305,-25.7068 109.092,-24.1635"/>
<polygon fill="midnightblue" stroke="midnightblue" points="110.757,-27.2426 118.021,-19.5296 107.532,-21.0295 110.757,-27.2426"/>
</g>
</g>
</svg>
