<?xml version="1.0" encoding="UTF-8" standalone="no"?>
<!DOCTYPE svg PUBLIC "-//W3C//DTD SVG 1.1//EN"
 "http://www.w3.org/Graphics/SVG/1.1/DTD/svg11.dtd">
<!-- Generated by graphviz version 2.38.0 (20140413.2041)
 -->
<!-- Title: main Pages: 1 -->
<!--zoomable 484 -->
<svg id="main" version="1.1" xmlns="http://www.w3.org/2000/svg" xmlns:xlink="http://www.w3.org/1999/xlink" xml:space="preserve" onload="init(evt)">
<style type="text/css"><![CDATA[
.edge:hover path { stroke: red; }
.edge:hover polygon { stroke: red; fill: red; }
]]></style>
<script type="text/javascript"><![CDATA[
var edges = document.getElementsByTagName('g');
if (edges && edges.length) {
  for (var i=0;i<edges.length;i++) {
    if (edges[i].id.substr(0,4)=='edge') {
      edges[i].setAttribute('class','edge');
    }
  }
}
]]></script>
        <defs>
                <circle id="rim" cx="0" cy="0" r="7"/>
                <circle id="rim2" cx="0" cy="0" r="3.5"/>
                <g id="zoomPlus">
                        <use xlink:href="#rim" fill="#404040">
                                <set attributeName="fill" to="#808080" begin="zoomplus.mouseover" end="zoomplus.mouseout"/>
                        </use>
                        <path d="M-4,0h8M0,-4v8" fill="none" stroke="white" stroke-width="1.5" pointer-events="none"/>
                </g>
                <g id="zoomMin">
                        <use xlink:href="#rim" fill="#404040">
                                <set attributeName="fill" to="#808080" begin="zoomminus.mouseover" end="zoomminus.mouseout"/>
                        </use>
                        <path d="M-4,0h8" fill="none" stroke="white" stroke-width="1.5" pointer-events="none"/>
                </g>
                <g id="dirArrow">
                        <path fill="none" stroke="white" stroke-width="1.5" d="M0,-3.0v7 M-2.5,-0.5L0,-3.0L2.5,-0.5"/>
                </g>
               <g id="resetDef">
                       <use xlink:href="#rim2" fill="#404040">
                               <set attributeName="fill" to="#808080" begin="reset.mouseover" end="reset.mouseout"/>
                       </use>
               </g>
        </defs>

<script type="text/javascript">
var viewWidth = 307;
var viewHeight = 484;
var sectionId = 'dynsection-15';
</script>
<script xlink:href="../../svgpan.js"/>
<svg id="graph" class="graph">
<g id="viewport">
<title>main</title>
<polygon fill="white" stroke="none" points="-4,4 -4,-480 303,-480 303,4 -4,4"/>
<!-- Node1 -->
<g id="node1" class="node"><title>Node1</title>
<polygon fill="#bfbfbf" stroke="black" points="0,-228.5 0,-247.5 39,-247.5 39,-228.5 0,-228.5"/>
<text text-anchor="middle" x="19.5" y="-235.5" font-family="Helvetica,sans-Serif" font-size="10.00">main</text>
</g>
<!-- Node2 -->
<g id="node2" class="node"><title>Node2</title>
<g id="a_node2"><a xlink:href="../../d5/dd9/rleClock_8c.html#ab5c639ce716b5f52a0c64e21c5651b46" target="_top" xlink:title="procargs">
<polygon fill="white" stroke="black" points="86.5,-456.5 86.5,-475.5 145.5,-475.5 145.5,-456.5 86.5,-456.5"/>
<text text-anchor="middle" x="116" y="-463.5" font-family="Helvetica,sans-Serif" font-size="10.00">procargs</text>
</a>
</g>
</g>
<!-- Node1&#45;&gt;Node2 -->
<g id="edge1" class="edge"><title>Node1&#45;&gt;Node2</title>
<path fill="none" stroke="midnightblue" d="M20.2912,-247.586C20.097,-279.688 23.6062,-384.884 75,-447 75.9802,-448.185 77.0514,-449.3 78.1933,-450.35"/>
<polygon fill="midnightblue" stroke="midnightblue" points="76.3835,-453.36 86.543,-456.366 80.4755,-447.681 76.3835,-453.36"/>
</g>
<!-- Node3 -->
<g id="node3" class="node"><title>Node3</title>
<g id="a_node3"><a xlink:href="../../d5/dd9/rleClock_8c.html#a8880e3f5d60cf7cabcf7151af1336471" target="_top" xlink:title="argGiven">
<polygon fill="white" stroke="black" points="86,-418.5 86,-437.5 146,-437.5 146,-418.5 86,-418.5"/>
<text text-anchor="middle" x="116" y="-425.5" font-family="Helvetica,sans-Serif" font-size="10.00">argGiven</text>
</a>
</g>
</g>
<!-- Node1&#45;&gt;Node3 -->
<g id="edge2" class="edge"><title>Node1&#45;&gt;Node3</title>
<path fill="none" stroke="midnightblue" d="M20.9772,-247.806C22.8571,-276.221 31.9555,-359.718 75,-409 76.1474,-410.314 77.4056,-411.544 78.746,-412.695"/>
<polygon fill="midnightblue" stroke="midnightblue" points="76.8979,-415.672 87.1212,-418.453 80.8637,-409.903 76.8979,-415.672"/>
</g>
<!-- Node4 -->
<g id="node4" class="node"><title>Node4</title>
<g id="a_node4"><a xlink:href="../../dc/d11/getami_8c.html#a4ffc2c11d17e77ece1d9561ae4f68318" target="_top" xlink:title="if">
<polygon fill="white" stroke="black" points="101.5,-380.5 101.5,-399.5 130.5,-399.5 130.5,-380.5 101.5,-380.5"/>
<text text-anchor="middle" x="116" y="-387.5" font-family="Helvetica,sans-Serif" font-size="10.00">if</text>
</a>
</g>
</g>
<!-- Node1&#45;&gt;Node4 -->
<g id="edge3" class="edge"><title>Node1&#45;&gt;Node4</title>
<path fill="none" stroke="midnightblue" d="M22.0001,-247.658C26.1729,-271.527 39.9993,-334.036 75,-371 79.6484,-375.909 85.8231,-379.688 91.9271,-382.533"/>
<polygon fill="midnightblue" stroke="midnightblue" points="90.6471,-385.79 101.231,-386.264 93.2527,-379.293 90.6471,-385.79"/>
</g>
<!-- Node5 -->
<g id="node5" class="node"><title>Node5</title>
<g id="a_node5"><a xlink:href="../../d5/dd9/rleClock_8c.html#a61edd0d28d331f64b376c7175b60fb2c" target="_top" xlink:title="rasterAllocate">
<polygon fill="white" stroke="black" points="75,-342.5 75,-361.5 157,-361.5 157,-342.5 75,-342.5"/>
<text text-anchor="middle" x="116" y="-349.5" font-family="Helvetica,sans-Serif" font-size="10.00">rasterAllocate</text>
</a>
</g>
</g>
<!-- Node1&#45;&gt;Node5 -->
<g id="edge4" class="edge"><title>Node1&#45;&gt;Node5</title>
<path fill="none" stroke="midnightblue" d="M23.7777,-247.609C30.5881,-266.307 47.9267,-307.945 75,-333 76.6504,-334.527 78.4459,-335.954 80.3318,-337.282"/>
<polygon fill="midnightblue" stroke="midnightblue" points="78.6333,-340.345 89.0087,-342.49 82.2357,-334.343 78.6333,-340.345"/>
</g>
<!-- Node6 -->
<g id="node6" class="node"><title>Node6</title>
<g id="a_node6"><a xlink:href="../../d5/dd9/rleClock_8c.html#a3c6969cf72d4e9966262f6b71de3edf0" target="_top" xlink:title="polarLine">
<polygon fill="white" stroke="black" points="85.5,-304.5 85.5,-323.5 146.5,-323.5 146.5,-304.5 85.5,-304.5"/>
<text text-anchor="middle" x="116" y="-311.5" font-family="Helvetica,sans-Serif" font-size="10.00">polarLine</text>
</a>
</g>
</g>
<!-- Node1&#45;&gt;Node6 -->
<g id="edge5" class="edge"><title>Node1&#45;&gt;Node6</title>
<path fill="none" stroke="midnightblue" d="M27.7491,-247.504C37.4514,-259.73 55.6893,-281.049 75,-295 77.2026,-296.591 79.5594,-298.105 81.9859,-299.533"/>
<polygon fill="midnightblue" stroke="midnightblue" points="80.4579,-302.685 90.9274,-304.31 83.7565,-296.511 80.4579,-302.685"/>
</g>
<!-- Node7 -->
<g id="node7" class="node"><title>Node7</title>
<g id="a_node7"><a xlink:href="../../d5/dd9/rleClock_8c.html#a3a6bb64f0dfa1d19876d6d2ad54a6e19" target="_top" xlink:title="areaFlood">
<polygon fill="white" stroke="black" points="83.5,-266.5 83.5,-285.5 148.5,-285.5 148.5,-266.5 83.5,-266.5"/>
<text text-anchor="middle" x="116" y="-273.5" font-family="Helvetica,sans-Serif" font-size="10.00">areaFlood</text>
</a>
</g>
</g>
<!-- Node1&#45;&gt;Node7 -->
<g id="edge6" class="edge"><title>Node1&#45;&gt;Node7</title>
<path fill="none" stroke="midnightblue" d="M39.1702,-245.508C51.3198,-250.393 67.5079,-256.903 81.8065,-262.652"/>
<polygon fill="midnightblue" stroke="midnightblue" points="80.747,-265.999 91.3308,-266.482 83.3587,-259.504 80.747,-265.999"/>
</g>
<!-- Node8 -->
<g id="node8" class="node"><title>Node8</title>
<g id="a_node8"><a xlink:href="../../d5/dd9/rleClock_8c.html#a3c0c095dedbe38c544690c7a0e9b4c3d" target="_top" xlink:title="polarToX">
<polygon fill="white" stroke="black" points="86,-228.5 86,-247.5 146,-247.5 146,-228.5 86,-228.5"/>
<text text-anchor="middle" x="116" y="-235.5" font-family="Helvetica,sans-Serif" font-size="10.00">polarToX</text>
</a>
</g>
</g>
<!-- Node1&#45;&gt;Node8 -->
<g id="edge7" class="edge"><title>Node1&#45;&gt;Node8</title>
<path fill="none" stroke="midnightblue" d="M39.1702,-238C49.5919,-238 62.9849,-238 75.6081,-238"/>
<polygon fill="midnightblue" stroke="midnightblue" points="75.9483,-241.5 85.9483,-238 75.9483,-234.5 75.9483,-241.5"/>
</g>
<!-- Node9 -->
<g id="node9" class="node"><title>Node9</title>
<g id="a_node9"><a xlink:href="../../d5/dd9/rleClock_8c.html#a5b95d008139ccd0f38c1212e81fa9772" target="_top" xlink:title="polarToY">
<polygon fill="white" stroke="black" points="86,-190.5 86,-209.5 146,-209.5 146,-190.5 86,-190.5"/>
<text text-anchor="middle" x="116" y="-197.5" font-family="Helvetica,sans-Serif" font-size="10.00">polarToY</text>
</a>
</g>
</g>
<!-- Node1&#45;&gt;Node9 -->
<g id="edge8" class="edge"><title>Node1&#45;&gt;Node9</title>
<path fill="none" stroke="midnightblue" d="M39.1702,-230.492C51.3198,-225.607 67.5079,-219.097 81.8065,-213.348"/>
<polygon fill="midnightblue" stroke="midnightblue" points="83.3587,-216.496 91.3308,-209.518 80.747,-210.001 83.3587,-216.496"/>
</g>
<!-- Node10 -->
<g id="node10" class="node"><title>Node10</title>
<g id="a_node10"><a xlink:href="../../d5/dd9/rleClock_8c.html#a569194c27f98bfd605fe649efb9c29a9" target="_top" xlink:title="rasterAddBits">
<polygon fill="white" stroke="black" points="76,-152.5 76,-171.5 156,-171.5 156,-152.5 76,-152.5"/>
<text text-anchor="middle" x="116" y="-159.5" font-family="Helvetica,sans-Serif" font-size="10.00">rasterAddBits</text>
</a>
</g>
</g>
<!-- Node1&#45;&gt;Node10 -->
<g id="edge9" class="edge"><title>Node1&#45;&gt;Node10</title>
<path fill="none" stroke="midnightblue" d="M27.7491,-228.496C37.4514,-216.27 55.6893,-194.951 75,-181 77.2026,-179.409 79.5594,-177.895 81.9859,-176.467"/>
<polygon fill="midnightblue" stroke="midnightblue" points="83.7565,-179.489 90.9274,-171.69 80.4579,-173.315 83.7565,-179.489"/>
</g>
<!-- Node11 -->
<g id="node11" class="node"><title>Node11</title>
<g id="a_node11"><a xlink:href="../../d5/dd9/rleClock_8c.html#a839b2d1ce9f7e0e9698f582acb2ac107" target="_top" xlink:title="drawHand">
<polygon fill="white" stroke="black" points="83.5,-114.5 83.5,-133.5 148.5,-133.5 148.5,-114.5 83.5,-114.5"/>
<text text-anchor="middle" x="116" y="-121.5" font-family="Helvetica,sans-Serif" font-size="10.00">drawHand</text>
</a>
</g>
</g>
<!-- Node1&#45;&gt;Node11 -->
<g id="edge10" class="edge"><title>Node1&#45;&gt;Node11</title>
<path fill="none" stroke="midnightblue" d="M23.7777,-228.391C30.5881,-209.693 47.9267,-168.055 75,-143 76.6504,-141.473 78.4459,-140.046 80.3318,-138.718"/>
<polygon fill="midnightblue" stroke="midnightblue" points="82.2357,-141.657 89.0087,-133.51 78.6333,-135.655 82.2357,-141.657"/>
</g>
<!-- Node12 -->
<g id="node12" class="node"><title>Node12</title>
<g id="a_node12"><a xlink:href="../../d5/dd9/rleClock_8c.html#abe9c02f90a494b0d60669e280db89c2d" target="_top" xlink:title="drawText">
<polygon fill="white" stroke="black" points="85.5,-76.5 85.5,-95.5 146.5,-95.5 146.5,-76.5 85.5,-76.5"/>
<text text-anchor="middle" x="116" y="-83.5" font-family="Helvetica,sans-Serif" font-size="10.00">drawText</text>
</a>
</g>
</g>
<!-- Node1&#45;&gt;Node12 -->
<g id="edge11" class="edge"><title>Node1&#45;&gt;Node12</title>
<path fill="none" stroke="midnightblue" d="M22.0001,-228.342C26.1729,-204.473 39.9993,-141.964 75,-105 76.3479,-103.576 77.8242,-102.248 79.3899,-101.01"/>
<polygon fill="midnightblue" stroke="midnightblue" points="81.31,-103.936 87.7831,-95.5487 77.4923,-98.0688 81.31,-103.936"/>
</g>
<!-- Node18 -->
<g id="node18" class="node"><title>Node18</title>
<g id="a_node18"><a xlink:href="../../d5/dd9/rleClock_8c.html#a95fabe2955b901cc4f053f5ab1f8a3ae" target="_top" xlink:title="ifImageSet">
<polygon fill="white" stroke="black" points="82.5,-38.5 82.5,-57.5 149.5,-57.5 149.5,-38.5 82.5,-38.5"/>
<text text-anchor="middle" x="116" y="-45.5" font-family="Helvetica,sans-Serif" font-size="10.00">ifImageSet</text>
</a>
</g>
</g>
<!-- Node1&#45;&gt;Node18 -->
<g id="edge17" class="edge"><title>Node1&#45;&gt;Node18</title>
<path fill="none" stroke="midnightblue" d="M20.9772,-228.194C22.8571,-199.779 31.9555,-116.282 75,-67 76.1474,-65.6863 77.4056,-64.4563 78.746,-63.3053"/>
<polygon fill="midnightblue" stroke="midnightblue" points="80.8637,-66.0967 87.1212,-57.5472 76.8979,-60.3285 80.8637,-66.0967"/>
</g>
<!-- Node19 -->
<g id="node19" class="node"><title>Node19</title>
<g id="a_node19"><a xlink:href="../../d5/dd9/rleClock_8c.html#ab9058f87ace6ac8befc4e0e86cab1479" target="_top" xlink:title="rasterWrite">
<polygon fill="white" stroke="black" points="81.5,-0.5 81.5,-19.5 150.5,-19.5 150.5,-0.5 81.5,-0.5"/>
<text text-anchor="middle" x="116" y="-7.5" font-family="Helvetica,sans-Serif" font-size="10.00">rasterWrite</text>
</a>
</g>
</g>
<!-- Node1&#45;&gt;Node19 -->
<g id="edge18" class="edge"><title>Node1&#45;&gt;Node19</title>
<path fill="none" stroke="midnightblue" d="M20.2912,-228.414C20.097,-196.312 23.6062,-91.1161 75,-29 75.9802,-27.8153 77.0514,-26.6998 78.1933,-25.6498"/>
<polygon fill="midnightblue" stroke="midnightblue" points="80.4755,-28.3194 86.543,-19.634 76.3835,-22.6399 80.4755,-28.3194"/>
</g>
<!-- Node13 -->
<g id="node13" class="node"><title>Node13</title>
<g id="a_node13"><a xlink:href="../../d5/dd9/rleClock_8c.html#a4d34167563c6f9d7485ac78f724f3103" target="_top" xlink:title="formatInterp">
<polygon fill="white" stroke="black" points="209,-152.5 209,-171.5 283,-171.5 283,-152.5 209,-152.5"/>
<text text-anchor="middle" x="246" y="-159.5" font-family="Helvetica,sans-Serif" font-size="10.00">formatInterp</text>
</a>
</g>
</g>
<!-- Node12&#45;&gt;Node13 -->
<g id="edge12" class="edge"><title>Node12&#45;&gt;Node13</title>
<path fill="none" stroke="midnightblue" d="M141.084,-95.6738C146.538,-98.3371 152.147,-101.477 157,-105 175.827,-118.667 173.558,-130.224 193,-143 195.941,-144.932 199.104,-146.701 202.365,-148.312"/>
<polygon fill="midnightblue" stroke="midnightblue" points="201.154,-151.604 211.716,-152.445 203.984,-145.201 201.154,-151.604"/>
</g>
<!-- Node14 -->
<g id="node14" class="node"><title>Node14</title>
<g id="a_node14"><a xlink:href="../../d5/dd9/rleClock_8c.html#a201654cf3a9dd1390615abb8cb26469c" target="_top" xlink:title="charMinMaxWidth">
<polygon fill="white" stroke="black" points="195,-114.5 195,-133.5 297,-133.5 297,-114.5 195,-114.5"/>
<text text-anchor="middle" x="246" y="-121.5" font-family="Helvetica,sans-Serif" font-size="10.00">charMinMaxWidth</text>
</a>
</g>
</g>
<!-- Node12&#45;&gt;Node14 -->
<g id="edge13" class="edge"><title>Node12&#45;&gt;Node14</title>
<path fill="none" stroke="midnightblue" d="M146.688,-94.8135C163.465,-99.7942 184.708,-106.101 203.152,-111.576"/>
<polygon fill="midnightblue" stroke="midnightblue" points="202.2,-114.945 212.783,-114.436 204.192,-108.234 202.2,-114.945"/>
</g>
<!-- Node15 -->
<g id="node15" class="node"><title>Node15</title>
<g id="a_node15"><a xlink:href="../../d5/dd9/rleClock_8c.html#a5de9701a7f30055e96a1137e2eb337b6" target="_top" xlink:title="charMinMaxHeight">
<polygon fill="white" stroke="black" points="193,-76.5 193,-95.5 299,-95.5 299,-76.5 193,-76.5"/>
<text text-anchor="middle" x="246" y="-83.5" font-family="Helvetica,sans-Serif" font-size="10.00">charMinMaxHeight</text>
</a>
</g>
</g>
<!-- Node12&#45;&gt;Node15 -->
<g id="edge14" class="edge"><title>Node12&#45;&gt;Node15</title>
<path fill="none" stroke="midnightblue" d="M146.688,-86C157.527,-86 170.23,-86 182.838,-86"/>
<polygon fill="midnightblue" stroke="midnightblue" points="182.891,-89.5001 192.891,-86 182.891,-82.5001 182.891,-89.5001"/>
</g>
<!-- Node16 -->
<g id="node16" class="node"><title>Node16</title>
<g id="a_node16"><a xlink:href="../../d5/dd9/rleClock_8c.html#a05846a8d59a51cee2bfea183cf066c61" target="_top" xlink:title="lineDots">
<polygon fill="white" stroke="black" points="218.5,-38.5 218.5,-57.5 273.5,-57.5 273.5,-38.5 218.5,-38.5"/>
<text text-anchor="middle" x="246" y="-45.5" font-family="Helvetica,sans-Serif" font-size="10.00">lineDots</text>
</a>
</g>
</g>
<!-- Node12&#45;&gt;Node16 -->
<g id="edge15" class="edge"><title>Node12&#45;&gt;Node16</title>
<path fill="none" stroke="midnightblue" d="M146.688,-77.1865C165.051,-71.7347 188.766,-64.6943 208.304,-58.8942"/>
<polygon fill="midnightblue" stroke="midnightblue" points="209.499,-62.1905 218.089,-55.9892 207.506,-55.48 209.499,-62.1905"/>
</g>
<!-- Node17 -->
<g id="node17" class="node"><title>Node17</title>
<g id="a_node17"><a xlink:href="../../d5/dd9/rleClock_8c.html#a4511e885d896e3914dc149bf8849c665" target="_top" xlink:title="setDot">
<polygon fill="white" stroke="black" points="222.5,-0.5 222.5,-19.5 269.5,-19.5 269.5,-0.5 222.5,-0.5"/>
<text text-anchor="middle" x="246" y="-7.5" font-family="Helvetica,sans-Serif" font-size="10.00">setDot</text>
</a>
</g>
</g>
<!-- Node12&#45;&gt;Node17 -->
<g id="edge16" class="edge"><title>Node12&#45;&gt;Node17</title>
<path fill="none" stroke="midnightblue" d="M141.084,-76.3262C146.538,-73.6629 152.147,-70.5229 157,-67 175.827,-53.3327 173.558,-41.7761 193,-29 198.99,-25.0635 205.904,-21.8081 212.694,-19.171"/>
<polygon fill="midnightblue" stroke="midnightblue" points="214.162,-22.3648 222.432,-15.7425 211.837,-15.7621 214.162,-22.3648"/>
</g>
</g>
</svg>
        <g id="navigator" transform="translate(0 0)" fill="#404254">
                <rect fill="#f2f5e9" fill-opacity="0.5" stroke="#606060" stroke-width=".5" x="0" y="0" width="60" height="60"/>
                <use id="zoomplus" xlink:href="#zoomPlus" x="17" y="9" onmousedown="handleZoom(evt,'in')"/>
                <use id="zoomminus" xlink:href="#zoomMin" x="42" y="9" onmousedown="handleZoom(evt,'out')"/>
                <use id="reset" xlink:href="#resetDef" x="30" y="36" onmousedown="handleReset()"/>
                <g id="arrowUp" xlink:href="#dirArrow" transform="translate(30 24)" onmousedown="handlePan(0,-1)">
                  <use xlink:href="#rim" fill="#404040">
                        <set attributeName="fill" to="#808080" begin="arrowUp.mouseover" end="arrowUp.mouseout"/>
                  </use>
                  <path fill="none" stroke="white" stroke-width="1.5" d="M0,-3.0v7 M-2.5,-0.5L0,-3.0L2.5,-0.5"/>
                </g>
                <g id="arrowRight" xlink:href="#dirArrow" transform="rotate(90) translate(36 -43)" onmousedown="handlePan(1,0)">
                  <use xlink:href="#rim" fill="#404040">
                        <set attributeName="fill" to="#808080" begin="arrowRight.mouseover" end="arrowRight.mouseout"/>
                  </use>
                  <path fill="none" stroke="white" stroke-width="1.5" d="M0,-3.0v7 M-2.5,-0.5L0,-3.0L2.5,-0.5"/>
                </g>
                <g id="arrowDown" xlink:href="#dirArrow" transform="rotate(180) translate(-30 -48)" onmousedown="handlePan(0,1)">
                  <use xlink:href="#rim" fill="#404040">
                        <set attributeName="fill" to="#808080" begin="arrowDown.mouseover" end="arrowDown.mouseout"/>
                  </use>
                  <path fill="none" stroke="white" stroke-width="1.5" d="M0,-3.0v7 M-2.5,-0.5L0,-3.0L2.5,-0.5"/>
                </g>
                <g id="arrowLeft" xlink:href="#dirArrow" transform="rotate(270) translate(-36 17)" onmousedown="handlePan(-1,0)">
                  <use xlink:href="#rim" fill="#404040">
                        <set attributeName="fill" to="#808080" begin="arrowLeft.mouseover" end="arrowLeft.mouseout"/>
                  </use>
                  <path fill="none" stroke="white" stroke-width="1.5" d="M0,-3.0v7 M-2.5,-0.5L0,-3.0L2.5,-0.5"/>
                </g>
        </g>
        <svg viewBox="0 0 15 15" width="100%" height="30px" preserveAspectRatio="xMaxYMin meet">
         <g id="arrow_out" transform="scale(0.3 0.3)">
          <a xlink:href="rleClock_8c_ade521a0600ded19f1720b6f6df59b480_cgraph_org.svg" target="_base">
           <rect id="button" ry="5" rx="5" y="6" x="6" height="38" width="38"
                fill="#f2f5e9" fill-opacity="0.5" stroke="#606060" stroke-width="1.0"/>
           <path id="arrow"
             d="M 11.500037,31.436501 C 11.940474,20.09759 22.043105,11.32322 32.158766,21.979434 L 37.068811,17.246167 C 37.068811,17.246167 37.088388,32 37.088388,32 L 22.160133,31.978069 C 22.160133,31.978069 26.997745,27.140456 26.997745,27.140456 C 18.528582,18.264221 13.291696,25.230495 11.500037,31.436501 z"
             style="fill:#404040;"/>
          </a>
         </g>
        </svg>
</svg>
