<?xml version="1.0" encoding="UTF-8" standalone="no"?>
<!DOCTYPE svg PUBLIC "-//W3C//DTD SVG 1.1//EN"
 "http://www.w3.org/Graphics/SVG/1.1/DTD/svg11.dtd">
<!-- Generated by graphviz version 2.38.0 (20140413.2041)
 -->
<!-- Title: polarToX Pages: 1 -->
<svg width="169pt" height="104pt"
 viewBox="0.00 0.00 169.00 104.00" xmlns="http://www.w3.org/2000/svg" xmlns:xlink="http://www.w3.org/1999/xlink">
<g id="graph0" class="graph" transform="scale(1 1) rotate(0) translate(4 100)">
<title>polarToX</title>
<polygon fill="white" stroke="none" points="-4,4 -4,-100 165,-100 165,4 -4,4"/>
<!-- Node1 -->
<g id="node1" class="node"><title>Node1</title>
<polygon fill="#bfbfbf" stroke="black" points="0,-38.5 0,-57.5 60,-57.5 60,-38.5 0,-38.5"/>
<text text-anchor="middle" x="30" y="-45.5" font-family="Helvetica,sans-Serif" font-size="10.00">polarToX</text>
</g>
<!-- Node2 -->
<g id="node2" class="node"><title>Node2</title>
<g id="a_node2"><a xlink:href="../../d5/dd9/rleClock_8c.html#ade521a0600ded19f1720b6f6df59b480" target="_top" xlink:title="main">
<polygon fill="white" stroke="black" points="109,-76.5 109,-95.5 148,-95.5 148,-76.5 109,-76.5"/>
<text text-anchor="middle" x="128.5" y="-83.5" font-family="Helvetica,sans-Serif" font-size="10.00">main</text>
</a>
</g>
</g>
<!-- Node1&#45;&gt;Node2 -->
<g id="edge1" class="edge"><title>Node1&#45;&gt;Node2</title>
<path fill="none" stroke="midnightblue" d="M64.7447,-61.2881C79.5834,-67.1313 96.4401,-73.7692 108.944,-78.6929"/>
<polygon fill="midnightblue" stroke="midnightblue" points="65.938,-57.9964 55.351,-57.589 63.3732,-64.5097 65.938,-57.9964"/>
</g>
<!-- Node3 -->
<g id="node3" class="node"><title>Node3</title>
<g id="a_node3"><a xlink:href="../../d5/dd9/rleClock_8c.html#af58a0ba5d129612f38d45f2e5dc4f53d" target="_top" xlink:title="drawHand">
<polygon fill="white" stroke="black" points="96,-38.5 96,-57.5 161,-57.5 161,-38.5 96,-38.5"/>
<text text-anchor="middle" x="128.5" y="-45.5" font-family="Helvetica,sans-Serif" font-size="10.00">drawHand</text>
</a>
</g>
</g>
<!-- Node1&#45;&gt;Node3 -->
<g id="edge2" class="edge"><title>Node1&#45;&gt;Node3</title>
<path fill="none" stroke="midnightblue" d="M70.2682,-48C78.7251,-48 87.5636,-48 95.6944,-48"/>
<polygon fill="midnightblue" stroke="midnightblue" points="70.2151,-44.5001 60.2151,-48 70.215,-51.5001 70.2151,-44.5001"/>
</g>
<!-- Node4 -->
<g id="node4" class="node"><title>Node4</title>
<g id="a_node4"><a xlink:href="../../d5/dd9/rleClock_8c.html#aa8006ac792d675d929fd017b016a56db" target="_top" xlink:title="polarLine">
<polygon fill="white" stroke="black" points="98,-0.5 98,-19.5 159,-19.5 159,-0.5 98,-0.5"/>
<text text-anchor="middle" x="128.5" y="-7.5" font-family="Helvetica,sans-Serif" font-size="10.00">polarLine</text>
</a>
</g>
</g>
<!-- Node1&#45;&gt;Node4 -->
<g id="edge3" class="edge"><title>Node1&#45;&gt;Node4</title>
<path fill="none" stroke="midnightblue" d="M64.685,-34.7354C77.3537,-29.7467 91.5007,-24.1759 103.157,-19.5859"/>
<polygon fill="midnightblue" stroke="midnightblue" points="63.3732,-31.4903 55.351,-38.411 65.938,-38.0036 63.3732,-31.4903"/>
</g>
</g>
</svg>
