<?xml version="1.0" encoding="UTF-8" standalone="no"?>
<!DOCTYPE svg PUBLIC "-//W3C//DTD SVG 1.1//EN"
 "http://www.w3.org/Graphics/SVG/1.1/DTD/svg11.dtd">
<!-- Generated by graphviz version 2.38.0 (20140413.2041)
 -->
<!-- Title: drawText Pages: 1 -->
<svg width="211pt" height="180pt"
 viewBox="0.00 0.00 211.00 180.00" xmlns="http://www.w3.org/2000/svg" xmlns:xlink="http://www.w3.org/1999/xlink">
<g id="graph0" class="graph" transform="scale(1 1) rotate(0) translate(4 176)">
<title>drawText</title>
<polygon fill="white" stroke="none" points="-4,4 -4,-176 207,-176 207,4 -4,4"/>
<!-- Node1 -->
<g id="node1" class="node"><title>Node1</title>
<polygon fill="#bfbfbf" stroke="black" points="0,-76.5 0,-95.5 61,-95.5 61,-76.5 0,-76.5"/>
<text text-anchor="middle" x="30.5" y="-83.5" font-family="Helvetica,sans-Serif" font-size="10.00">drawText</text>
</g>
<!-- Node2 -->
<g id="node2" class="node"><title>Node2</title>
<g id="a_node2"><a xlink:href="../../d5/dd9/rleClock_8c.html#a4d34167563c6f9d7485ac78f724f3103" target="_top" xlink:title="formatInterp">
<polygon fill="white" stroke="black" points="113,-152.5 113,-171.5 187,-171.5 187,-152.5 113,-152.5"/>
<text text-anchor="middle" x="150" y="-159.5" font-family="Helvetica,sans-Serif" font-size="10.00">formatInterp</text>
</a>
</g>
</g>
<!-- Node1&#45;&gt;Node2 -->
<g id="edge1" class="edge"><title>Node1&#45;&gt;Node2</title>
<path fill="none" stroke="midnightblue" d="M40.4031,-95.6943C52.27,-108.126 74.4117,-129.667 97,-143 100.395,-145.004 104.037,-146.853 107.759,-148.546"/>
<polygon fill="midnightblue" stroke="midnightblue" points="106.507,-151.816 117.084,-152.432 109.2,-145.355 106.507,-151.816"/>
</g>
<!-- Node3 -->
<g id="node3" class="node"><title>Node3</title>
<g id="a_node3"><a xlink:href="../../d5/dd9/rleClock_8c.html#a201654cf3a9dd1390615abb8cb26469c" target="_top" xlink:title="charMinMaxWidth">
<polygon fill="white" stroke="black" points="99,-114.5 99,-133.5 201,-133.5 201,-114.5 99,-114.5"/>
<text text-anchor="middle" x="150" y="-121.5" font-family="Helvetica,sans-Serif" font-size="10.00">charMinMaxWidth</text>
</a>
</g>
</g>
<!-- Node1&#45;&gt;Node3 -->
<g id="edge2" class="edge"><title>Node1&#45;&gt;Node3</title>
<path fill="none" stroke="midnightblue" d="M61.1502,-95.589C75.9009,-100.359 93.9258,-106.189 109.801,-111.323"/>
<polygon fill="midnightblue" stroke="midnightblue" points="108.767,-114.667 119.359,-114.414 110.921,-108.007 108.767,-114.667"/>
</g>
<!-- Node4 -->
<g id="node4" class="node"><title>Node4</title>
<g id="a_node4"><a xlink:href="../../d5/dd9/rleClock_8c.html#a5de9701a7f30055e96a1137e2eb337b6" target="_top" xlink:title="charMinMaxHeight">
<polygon fill="white" stroke="black" points="97,-76.5 97,-95.5 203,-95.5 203,-76.5 97,-76.5"/>
<text text-anchor="middle" x="150" y="-83.5" font-family="Helvetica,sans-Serif" font-size="10.00">charMinMaxHeight</text>
</a>
</g>
</g>
<!-- Node1&#45;&gt;Node4 -->
<g id="edge3" class="edge"><title>Node1&#45;&gt;Node4</title>
<path fill="none" stroke="midnightblue" d="M61.1502,-86C69.0535,-86 77.8967,-86 86.8456,-86"/>
<polygon fill="midnightblue" stroke="midnightblue" points="86.9497,-89.5001 96.9497,-86 86.9496,-82.5001 86.9497,-89.5001"/>
</g>
<!-- Node5 -->
<g id="node5" class="node"><title>Node5</title>
<g id="a_node5"><a xlink:href="../../d5/dd9/rleClock_8c.html#a05846a8d59a51cee2bfea183cf066c61" target="_top" xlink:title="lineDots">
<polygon fill="white" stroke="black" points="122.5,-38.5 122.5,-57.5 177.5,-57.5 177.5,-38.5 122.5,-38.5"/>
<text text-anchor="middle" x="150" y="-45.5" font-family="Helvetica,sans-Serif" font-size="10.00">lineDots</text>
</a>
</g>
</g>
<!-- Node1&#45;&gt;Node5 -->
<g id="edge4" class="edge"><title>Node1&#45;&gt;Node5</title>
<path fill="none" stroke="midnightblue" d="M61.1502,-76.411C76.6891,-71.3857 95.8615,-65.1852 112.327,-59.8603"/>
<polygon fill="midnightblue" stroke="midnightblue" points="113.734,-63.0837 122.172,-56.6763 111.58,-56.4233 113.734,-63.0837"/>
</g>
<!-- Node6 -->
<g id="node6" class="node"><title>Node6</title>
<g id="a_node6"><a xlink:href="../../d5/dd9/rleClock_8c.html#a4511e885d896e3914dc149bf8849c665" target="_top" xlink:title="setDot">
<polygon fill="white" stroke="black" points="126.5,-0.5 126.5,-19.5 173.5,-19.5 173.5,-0.5 126.5,-0.5"/>
<text text-anchor="middle" x="150" y="-7.5" font-family="Helvetica,sans-Serif" font-size="10.00">setDot</text>
</a>
</g>
</g>
<!-- Node1&#45;&gt;Node6 -->
<g id="edge5" class="edge"><title>Node1&#45;&gt;Node6</title>
<path fill="none" stroke="midnightblue" d="M40.4031,-76.3057C52.27,-63.8738 74.4117,-42.3327 97,-29 103.117,-25.3892 110.037,-22.2797 116.785,-19.683"/>
<polygon fill="midnightblue" stroke="midnightblue" points="118.189,-22.8982 126.436,-16.2467 115.841,-16.3037 118.189,-22.8982"/>
</g>
</g>
</svg>
