<?xml version="1.0" encoding="UTF-8" standalone="no"?>
<!DOCTYPE svg PUBLIC "-//W3C//DTD SVG 1.1//EN"
 "http://www.w3.org/Graphics/SVG/1.1/DTD/svg11.dtd">
<!-- Generated by graphviz version 2.38.0 (20140413.2041)
 -->
<!-- Title: rasterWrite Pages: 1 -->
<svg width="497pt" height="294pt"
 viewBox="0.00 0.00 497.00 294.00" xmlns="http://www.w3.org/2000/svg" xmlns:xlink="http://www.w3.org/1999/xlink">
<g id="graph0" class="graph" transform="scale(1 1) rotate(0) translate(4 290)">
<title>rasterWrite</title>
<polygon fill="white" stroke="none" points="-4,4 -4,-290 493,-290 493,4 -4,4"/>
<!-- Node1 -->
<g id="node1" class="node"><title>Node1</title>
<polygon fill="#bfbfbf" stroke="black" points="0,-114.5 0,-133.5 69,-133.5 69,-114.5 0,-114.5"/>
<text text-anchor="middle" x="34.5" y="-121.5" font-family="Helvetica,sans-Serif" font-size="10.00">rasterWrite</text>
</g>
<!-- Node2 -->
<g id="node2" class="node"><title>Node2</title>
<g id="a_node2"><a xlink:href="../../d2/df3/rle__hdr_8c.html#a8ba0e5b11d1e39ab7227f1686e676c86" target="_top" xlink:title="rle_hdr_init">
<polygon fill="white" stroke="black" points="110,-190.5 110,-209.5 180,-209.5 180,-190.5 110,-190.5"/>
<text text-anchor="middle" x="145" y="-197.5" font-family="Helvetica,sans-Serif" font-size="10.00">rle_hdr_init</text>
</a>
</g>
</g>
<!-- Node1&#45;&gt;Node2 -->
<g id="edge1" class="edge"><title>Node1&#45;&gt;Node2</title>
<path fill="none" stroke="midnightblue" d="M45.7395,-133.704C58.7984,-145.762 82.4047,-166.513 105,-181 107.58,-182.654 110.325,-184.262 113.117,-185.797"/>
<polygon fill="midnightblue" stroke="midnightblue" points="111.564,-188.934 122.054,-190.419 114.779,-182.716 111.564,-188.934"/>
</g>
<!-- Node7 -->
<g id="node7" class="node"><title>Node7</title>
<g id="a_node7"><a xlink:href="../../d2/df3/rle__hdr_8c.html#a82e79385f2d45cc3b80ce0f4f369eae5" target="_top" xlink:title="rle_names">
<polygon fill="white" stroke="black" points="333,-228.5 333,-247.5 399,-247.5 399,-228.5 333,-228.5"/>
<text text-anchor="middle" x="366" y="-235.5" font-family="Helvetica,sans-Serif" font-size="10.00">rle_names</text>
</a>
</g>
</g>
<!-- Node1&#45;&gt;Node7 -->
<g id="edge10" class="edge"><title>Node1&#45;&gt;Node7</title>
<path fill="none" stroke="midnightblue" d="M39.2622,-133.703C47.6131,-153.748 69.7882,-199.485 105,-219 173.801,-257.13 269.019,-252.244 323.075,-245.175"/>
<polygon fill="midnightblue" stroke="midnightblue" points="323.575,-248.639 332.996,-243.792 322.608,-241.706 323.575,-248.639"/>
</g>
<!-- Node8 -->
<g id="node8" class="node"><title>Node8</title>
<g id="a_node8"><a xlink:href="../../d8/d30/cmd__name_8c.html#a271249070fdd12c176777c77d76f888f" target="_top" xlink:title="cmd_name">
<polygon fill="white" stroke="black" points="111,-76.5 111,-95.5 179,-95.5 179,-76.5 111,-76.5"/>
<text text-anchor="middle" x="145" y="-83.5" font-family="Helvetica,sans-Serif" font-size="10.00">cmd_name</text>
</a>
</g>
</g>
<!-- Node1&#45;&gt;Node8 -->
<g id="edge11" class="edge"><title>Node1&#45;&gt;Node8</title>
<path fill="none" stroke="midnightblue" d="M62.8791,-114.411C76.243,-109.731 92.5172,-104.031 106.972,-98.9685"/>
<polygon fill="midnightblue" stroke="midnightblue" points="108.349,-102.195 116.63,-95.5859 106.035,-95.5882 108.349,-102.195"/>
</g>
<!-- Node9 -->
<g id="node9" class="node"><title>Node9</title>
<g id="a_node9"><a xlink:href="../../d8/def/rle__addhist_8c.html#a4f9433d6e4e203d0ecea1c7d3837afc3" target="_top" xlink:title="rle_addhist">
<polygon fill="white" stroke="black" points="221,-76.5 221,-95.5 290,-95.5 290,-76.5 221,-76.5"/>
<text text-anchor="middle" x="255.5" y="-83.5" font-family="Helvetica,sans-Serif" font-size="10.00">rle_addhist</text>
</a>
</g>
</g>
<!-- Node1&#45;&gt;Node9 -->
<g id="edge12" class="edge"><title>Node1&#45;&gt;Node9</title>
<path fill="none" stroke="midnightblue" d="M69.2653,-121.075C99.7095,-118.114 145.613,-112.846 185,-105 194.279,-103.151 204.143,-100.737 213.435,-98.2513"/>
<polygon fill="midnightblue" stroke="midnightblue" points="214.528,-101.581 223.239,-95.5505 212.669,-94.8321 214.528,-101.581"/>
</g>
<!-- Node14 -->
<g id="node14" class="node"><title>Node14</title>
<g id="a_node14"><a xlink:href="../../d9/d2a/rle__putrow_8c.html#af88a82b331cd6f425d2a2cc1623944c6" target="_top" xlink:title="rle_put_setup">
<polygon fill="white" stroke="black" points="105,-38.5 105,-57.5 185,-57.5 185,-38.5 105,-38.5"/>
<text text-anchor="middle" x="145" y="-45.5" font-family="Helvetica,sans-Serif" font-size="10.00">rle_put_setup</text>
</a>
</g>
</g>
<!-- Node1&#45;&gt;Node14 -->
<g id="edge19" class="edge"><title>Node1&#45;&gt;Node14</title>
<path fill="none" stroke="midnightblue" d="M45.7395,-114.296C58.7984,-102.238 82.4047,-81.4868 105,-67 107.58,-65.346 110.325,-63.7379 113.117,-62.2027"/>
<polygon fill="midnightblue" stroke="midnightblue" points="114.779,-65.2836 122.054,-57.5812 111.564,-59.0657 114.779,-65.2836"/>
</g>
<!-- Node16 -->
<g id="node16" class="node"><title>Node16</title>
<g id="a_node16"><a xlink:href="../../d9/d2a/rle__putrow_8c.html#aa26532b01bc4f49b7383765cdc23ea72" target="_top" xlink:title="rle_putrow">
<polygon fill="white" stroke="black" points="112,-152.5 112,-171.5 178,-171.5 178,-152.5 112,-152.5"/>
<text text-anchor="middle" x="145" y="-159.5" font-family="Helvetica,sans-Serif" font-size="10.00">rle_putrow</text>
</a>
</g>
</g>
<!-- Node1&#45;&gt;Node16 -->
<g id="edge21" class="edge"><title>Node1&#45;&gt;Node16</title>
<path fill="none" stroke="midnightblue" d="M62.8791,-133.589C76.243,-138.269 92.5172,-143.969 106.972,-149.032"/>
<polygon fill="midnightblue" stroke="midnightblue" points="106.035,-152.412 116.63,-152.414 108.349,-145.805 106.035,-152.412"/>
</g>
<!-- Node18 -->
<g id="node18" class="node"><title>Node18</title>
<g id="a_node18"><a xlink:href="../../de/d4e/rle__open__f_8c.html#a4dea203fb8b9eb66db470a1eb5084b51" target="_top" xlink:title="rle_close_f">
<polygon fill="white" stroke="black" points="111,-0.5 111,-19.5 179,-19.5 179,-0.5 111,-0.5"/>
<text text-anchor="middle" x="145" y="-7.5" font-family="Helvetica,sans-Serif" font-size="10.00">rle_close_f</text>
</a>
</g>
</g>
<!-- Node1&#45;&gt;Node18 -->
<g id="edge24" class="edge"><title>Node1&#45;&gt;Node18</title>
<path fill="none" stroke="midnightblue" d="M40.4026,-114.457C50.3542,-95.8725 74.5828,-54.4264 105,-29 106.784,-27.5086 108.705,-26.1006 110.704,-24.7775"/>
<polygon fill="midnightblue" stroke="midnightblue" points="112.88,-27.5622 119.784,-19.5257 109.376,-21.5027 112.88,-27.5622"/>
</g>
<!-- Node3 -->
<g id="node3" class="node"><title>Node3</title>
<g id="a_node3"><a xlink:href="../../d2/df3/rle__hdr_8c.html#a16c4da6201b3b8cf55127b9ca968d253" target="_top" xlink:title="rle_hdr_clear">
<polygon fill="white" stroke="black" points="326,-266.5 326,-285.5 406,-285.5 406,-266.5 326,-266.5"/>
<text text-anchor="middle" x="366" y="-273.5" font-family="Helvetica,sans-Serif" font-size="10.00">rle_hdr_clear</text>
</a>
</g>
</g>
<!-- Node2&#45;&gt;Node3 -->
<g id="edge2" class="edge"><title>Node2&#45;&gt;Node3</title>
<path fill="none" stroke="midnightblue" d="M173.737,-209.625C212.818,-223.188 284.183,-247.954 327.824,-263.099"/>
<polygon fill="midnightblue" stroke="midnightblue" points="326.894,-266.481 337.489,-266.453 329.189,-259.868 326.894,-266.481"/>
</g>
<!-- Node5 -->
<g id="node5" class="node"><title>Node5</title>
<g id="a_node5"><a xlink:href="../../d2/df3/rle__hdr_8c.html#afc916e29aea8788e0878ca315ff69821" target="_top" xlink:title="rle_hdr_cp">
<polygon fill="white" stroke="black" points="221.5,-190.5 221.5,-209.5 289.5,-209.5 289.5,-190.5 221.5,-190.5"/>
<text text-anchor="middle" x="255.5" y="-197.5" font-family="Helvetica,sans-Serif" font-size="10.00">rle_hdr_cp</text>
</a>
</g>
</g>
<!-- Node2&#45;&gt;Node5 -->
<g id="edge4" class="edge"><title>Node2&#45;&gt;Node5</title>
<path fill="none" stroke="midnightblue" d="M180.032,-193.685C189.914,-193.24 200.84,-193.136 211.208,-193.374"/>
<polygon fill="midnightblue" stroke="midnightblue" points="211.216,-196.876 221.331,-193.725 211.459,-189.88 211.216,-196.876"/>
</g>
<!-- Node4 -->
<g id="node4" class="node"><title>Node4</title>
<g id="a_node4"><a xlink:href="../../d0/dcc/rletorla_8c.html#aafde19f7d36ca163a143579c1b125b6d" target="_top" xlink:title="free">
<polygon fill="white" stroke="black" points="448,-247.5 448,-266.5 483,-266.5 483,-247.5 448,-247.5"/>
<text text-anchor="middle" x="465.5" y="-254.5" font-family="Helvetica,sans-Serif" font-size="10.00">free</text>
</a>
</g>
</g>
<!-- Node3&#45;&gt;Node4 -->
<g id="edge3" class="edge"><title>Node3&#45;&gt;Node4</title>
<path fill="none" stroke="midnightblue" d="M406.095,-268.381C416.678,-266.319 427.893,-264.134 437.636,-262.235"/>
<polygon fill="midnightblue" stroke="midnightblue" points="438.385,-265.655 447.531,-260.307 437.046,-258.784 438.385,-265.655"/>
</g>
<!-- Node5&#45;&gt;Node2 -->
<g id="edge5" class="edge"><title>Node5&#45;&gt;Node2</title>
<path fill="none" stroke="midnightblue" d="M221.331,-206.275C211.512,-206.74 200.602,-206.864 190.203,-206.646"/>
<polygon fill="midnightblue" stroke="midnightblue" points="190.141,-203.142 180.032,-206.315 189.913,-210.139 190.141,-203.142"/>
</g>
<!-- Node6 -->
<g id="node6" class="node"><title>Node6</title>
<g id="a_node6"><a xlink:href="../../d0/dcc/rletorla_8c.html#ab7e36af3707843f77cc5b4e831c2fa6d" target="_top" xlink:title="malloc">
<polygon fill="white" stroke="black" points="442,-152.5 442,-171.5 489,-171.5 489,-152.5 442,-152.5"/>
<text text-anchor="middle" x="465.5" y="-159.5" font-family="Helvetica,sans-Serif" font-size="10.00">malloc</text>
</a>
</g>
</g>
<!-- Node5&#45;&gt;Node6 -->
<g id="edge6" class="edge"><title>Node5&#45;&gt;Node6</title>
<path fill="none" stroke="midnightblue" d="M289.585,-195.423C319.965,-191.046 366.172,-183.951 406,-176 414.446,-174.314 423.521,-172.261 431.943,-170.253"/>
<polygon fill="midnightblue" stroke="midnightblue" points="432.918,-173.618 441.807,-167.854 431.263,-166.817 432.918,-173.618"/>
</g>
<!-- Node5&#45;&gt;Node7 -->
<g id="edge7" class="edge"><title>Node5&#45;&gt;Node7</title>
<path fill="none" stroke="midnightblue" d="M283.879,-209.589C297.243,-214.269 313.517,-219.969 327.972,-225.032"/>
<polygon fill="midnightblue" stroke="midnightblue" points="327.035,-228.412 337.63,-228.414 329.349,-221.805 327.035,-228.412"/>
</g>
<!-- Node7&#45;&gt;Node4 -->
<g id="edge8" class="edge"><title>Node7&#45;&gt;Node4</title>
<path fill="none" stroke="midnightblue" d="M399.195,-244.274C411.808,-246.732 426.099,-249.517 438.089,-251.853"/>
<polygon fill="midnightblue" stroke="midnightblue" points="437.449,-255.294 447.934,-253.772 438.788,-248.423 437.449,-255.294"/>
</g>
<!-- Node7&#45;&gt;Node6 -->
<g id="edge9" class="edge"><title>Node7&#45;&gt;Node6</title>
<path fill="none" stroke="midnightblue" d="M384.123,-228.346C391.091,-224.194 399.109,-219.122 406,-214 420.568,-203.172 435.861,-189.487 447.156,-178.873"/>
<polygon fill="midnightblue" stroke="midnightblue" points="449.781,-181.206 454.606,-171.773 444.952,-176.138 449.781,-181.206"/>
</g>
<!-- Node9&#45;&gt;Node6 -->
<g id="edge15" class="edge"><title>Node9&#45;&gt;Node6</title>
<path fill="none" stroke="midnightblue" d="M282.843,-95.6255C320.916,-109.537 391.249,-135.235 432.336,-150.248"/>
<polygon fill="midnightblue" stroke="midnightblue" points="431.274,-153.586 441.868,-153.73 433.676,-147.011 431.274,-153.586"/>
</g>
<!-- Node10 -->
<g id="node10" class="node"><title>Node10</title>
<g id="a_node10"><a xlink:href="../../db/db2/rle__getcom_8c.html#a9cefd612c381bf82c9cdf1f3a3b12dd6" target="_top" xlink:title="rle_getcom">
<polygon fill="white" stroke="black" points="331.5,-38.5 331.5,-57.5 400.5,-57.5 400.5,-38.5 331.5,-38.5"/>
<text text-anchor="middle" x="366" y="-45.5" font-family="Helvetica,sans-Serif" font-size="10.00">rle_getcom</text>
</a>
</g>
</g>
<!-- Node9&#45;&gt;Node10 -->
<g id="edge13" class="edge"><title>Node9&#45;&gt;Node10</title>
<path fill="none" stroke="midnightblue" d="M283.879,-76.411C297.243,-71.7306 313.517,-66.0308 327.972,-60.9685"/>
<polygon fill="midnightblue" stroke="midnightblue" points="329.349,-64.1947 337.63,-57.5859 327.035,-57.5882 329.349,-64.1947"/>
</g>
<!-- Node12 -->
<g id="node12" class="node"><title>Node12</title>
<g id="a_node12"><a xlink:href="../../df/da5/rle__putcom_8c.html#a6fa8528c32d14763efe2a534e409e321" target="_top" xlink:title="rle_putcom">
<polygon fill="white" stroke="black" points="332,-76.5 332,-95.5 400,-95.5 400,-76.5 332,-76.5"/>
<text text-anchor="middle" x="366" y="-83.5" font-family="Helvetica,sans-Serif" font-size="10.00">rle_putcom</text>
</a>
</g>
</g>
<!-- Node9&#45;&gt;Node12 -->
<g id="edge16" class="edge"><title>Node9&#45;&gt;Node12</title>
<path fill="none" stroke="midnightblue" d="M290.235,-86C300.126,-86 311.084,-86 321.493,-86"/>
<polygon fill="midnightblue" stroke="midnightblue" points="321.658,-89.5001 331.658,-86 321.658,-82.5001 321.658,-89.5001"/>
</g>
<!-- Node11 -->
<g id="node11" class="node"><title>Node11</title>
<g id="a_node11"><a xlink:href="../../db/db2/rle__getcom_8c.html#a7502c8b599724ce86fee5df1311a2337" target="_top" xlink:title="match">
<polygon fill="white" stroke="black" points="443,-38.5 443,-57.5 488,-57.5 488,-38.5 443,-38.5"/>
<text text-anchor="middle" x="465.5" y="-45.5" font-family="Helvetica,sans-Serif" font-size="10.00">match</text>
</a>
</g>
</g>
<!-- Node10&#45;&gt;Node11 -->
<g id="edge14" class="edge"><title>Node10&#45;&gt;Node11</title>
<path fill="none" stroke="midnightblue" d="M400.554,-48C410.938,-48 422.345,-48 432.613,-48"/>
<polygon fill="midnightblue" stroke="midnightblue" points="432.811,-51.5001 442.811,-48 432.81,-44.5001 432.811,-51.5001"/>
</g>
<!-- Node12&#45;&gt;Node6 -->
<g id="edge17" class="edge"><title>Node12&#45;&gt;Node6</title>
<path fill="none" stroke="midnightblue" d="M384.123,-95.6541C391.091,-99.8065 399.109,-104.878 406,-110 420.568,-120.828 435.861,-134.513 447.156,-145.127"/>
<polygon fill="midnightblue" stroke="midnightblue" points="444.952,-147.862 454.606,-152.227 449.781,-142.794 444.952,-147.862"/>
</g>
<!-- Node13 -->
<g id="node13" class="node"><title>Node13</title>
<g id="a_node13"><a xlink:href="../../df/da5/rle__putcom_8c.html#a7502c8b599724ce86fee5df1311a2337" target="_top" xlink:title="match">
<polygon fill="white" stroke="black" points="443,-76.5 443,-95.5 488,-95.5 488,-76.5 443,-76.5"/>
<text text-anchor="middle" x="465.5" y="-83.5" font-family="Helvetica,sans-Serif" font-size="10.00">match</text>
</a>
</g>
</g>
<!-- Node12&#45;&gt;Node13 -->
<g id="edge18" class="edge"><title>Node12&#45;&gt;Node13</title>
<path fill="none" stroke="midnightblue" d="M400.009,-86C410.616,-86 422.337,-86 432.845,-86"/>
<polygon fill="midnightblue" stroke="midnightblue" points="432.862,-89.5001 442.862,-86 432.862,-82.5001 432.862,-89.5001"/>
</g>
<!-- Node15 -->
<g id="node15" class="node"><title>Node15</title>
<g id="a_node15"><a xlink:href="../../d9/d2a/rle__putrow_8c.html#a46d9789104d5d1f09253a808fdad5346" target="_top" xlink:title="rle_put_init">
<polygon fill="white" stroke="black" points="221.5,-38.5 221.5,-57.5 289.5,-57.5 289.5,-38.5 221.5,-38.5"/>
<text text-anchor="middle" x="255.5" y="-45.5" font-family="Helvetica,sans-Serif" font-size="10.00">rle_put_init</text>
</a>
</g>
</g>
<!-- Node14&#45;&gt;Node15 -->
<g id="edge20" class="edge"><title>Node14&#45;&gt;Node15</title>
<path fill="none" stroke="midnightblue" d="M185.171,-48C193.629,-48 202.619,-48 211.224,-48"/>
<polygon fill="midnightblue" stroke="midnightblue" points="211.468,-51.5001 221.468,-48 211.468,-44.5001 211.468,-51.5001"/>
</g>
<!-- Node16&#45;&gt;Node6 -->
<g id="edge22" class="edge"><title>Node16&#45;&gt;Node6</title>
<path fill="none" stroke="midnightblue" d="M178.292,-162C239.162,-162 370.255,-162 431.594,-162"/>
<polygon fill="midnightblue" stroke="midnightblue" points="431.858,-165.5 441.858,-162 431.858,-158.5 431.858,-165.5"/>
</g>
<!-- Node17 -->
<g id="node17" class="node"><title>Node17</title>
<g id="a_node17"><a xlink:href="../../d9/d2a/rle__putrow_8c.html#aaa4133bf4a6cbf287444448497631f26" target="_top" xlink:title="findruns">
<polygon fill="white" stroke="black" points="228.5,-114.5 228.5,-133.5 282.5,-133.5 282.5,-114.5 228.5,-114.5"/>
<text text-anchor="middle" x="255.5" y="-121.5" font-family="Helvetica,sans-Serif" font-size="10.00">findruns</text>
</a>
</g>
</g>
<!-- Node16&#45;&gt;Node17 -->
<g id="edge23" class="edge"><title>Node16&#45;&gt;Node17</title>
<path fill="none" stroke="midnightblue" d="M173.379,-152.411C187.049,-147.623 203.764,-141.769 218.462,-136.622"/>
<polygon fill="midnightblue" stroke="midnightblue" points="219.971,-139.801 228.252,-133.193 217.658,-133.195 219.971,-139.801"/>
</g>
</g>
</svg>
