<?xml version="1.0" encoding="UTF-8" standalone="no"?>
<!DOCTYPE svg PUBLIC "-//W3C//DTD SVG 1.1//EN"
 "http://www.w3.org/Graphics/SVG/1.1/DTD/svg11.dtd">
<!-- Generated by graphviz version 2.38.0 (20140413.2041)
 -->
<!-- Title: setDot Pages: 1 -->
<svg width="227pt" height="66pt"
 viewBox="0.00 0.00 227.00 66.00" xmlns="http://www.w3.org/2000/svg" xmlns:xlink="http://www.w3.org/1999/xlink">
<g id="graph0" class="graph" transform="scale(1 1) rotate(0) translate(4 62)">
<title>setDot</title>
<polygon fill="white" stroke="none" points="-4,4 -4,-62 223,-62 223,4 -4,4"/>
<!-- Node1 -->
<g id="node1" class="node"><title>Node1</title>
<polygon fill="#bfbfbf" stroke="black" points="0,-19.5 0,-38.5 47,-38.5 47,-19.5 0,-19.5"/>
<text text-anchor="middle" x="23.5" y="-26.5" font-family="Helvetica,sans-Serif" font-size="10.00">setDot</text>
</g>
<!-- Node2 -->
<g id="node2" class="node"><title>Node2</title>
<g id="a_node2"><a xlink:href="../../d5/dd9/rleClock_8c.html#aa8006ac792d675d929fd017b016a56db" target="_top" xlink:title="polarLine">
<polygon fill="white" stroke="black" points="83,-38.5 83,-57.5 144,-57.5 144,-38.5 83,-38.5"/>
<text text-anchor="middle" x="113.5" y="-45.5" font-family="Helvetica,sans-Serif" font-size="10.00">polarLine</text>
</a>
</g>
</g>
<!-- Node1&#45;&gt;Node2 -->
<g id="edge1" class="edge"><title>Node1&#45;&gt;Node2</title>
<path fill="none" stroke="midnightblue" d="M57.0979,-36.0382C65.5653,-37.8664 74.6378,-39.8252 82.9391,-41.6175"/>
<polygon fill="midnightblue" stroke="midnightblue" points="57.6756,-32.5823 47.1622,-33.893 56.1983,-39.4247 57.6756,-32.5823"/>
</g>
<!-- Node3 -->
<g id="node3" class="node"><title>Node3</title>
<g id="a_node3"><a xlink:href="../../d5/dd9/rleClock_8c.html#abe9c02f90a494b0d60669e280db89c2d" target="_top" xlink:title="drawText">
<polygon fill="white" stroke="black" points="83,-0.5 83,-19.5 144,-19.5 144,-0.5 83,-0.5"/>
<text text-anchor="middle" x="113.5" y="-7.5" font-family="Helvetica,sans-Serif" font-size="10.00">drawText</text>
</a>
</g>
</g>
<!-- Node1&#45;&gt;Node3 -->
<g id="edge2" class="edge"><title>Node1&#45;&gt;Node3</title>
<path fill="none" stroke="midnightblue" d="M57.0979,-21.9618C65.5653,-20.1336 74.6378,-18.1748 82.9391,-16.3825"/>
<polygon fill="midnightblue" stroke="midnightblue" points="56.1983,-18.5753 47.1622,-24.107 57.6756,-25.4177 56.1983,-18.5753"/>
</g>
<!-- Node4 -->
<g id="node4" class="node"><title>Node4</title>
<g id="a_node4"><a xlink:href="../../d5/dd9/rleClock_8c.html#ade521a0600ded19f1720b6f6df59b480" target="_top" xlink:title="main">
<polygon fill="white" stroke="black" points="180,-0.5 180,-19.5 219,-19.5 219,-0.5 180,-0.5"/>
<text text-anchor="middle" x="199.5" y="-7.5" font-family="Helvetica,sans-Serif" font-size="10.00">main</text>
</a>
</g>
</g>
<!-- Node3&#45;&gt;Node4 -->
<g id="edge3" class="edge"><title>Node3&#45;&gt;Node4</title>
<path fill="none" stroke="midnightblue" d="M154.62,-10C163.492,-10 172.476,-10 179.985,-10"/>
<polygon fill="midnightblue" stroke="midnightblue" points="154.352,-6.5001 144.352,-10 154.352,-13.5001 154.352,-6.5001"/>
</g>
</g>
</svg>
