<?xml version="1.0" encoding="UTF-8" standalone="no"?>
<!DOCTYPE svg PUBLIC "-//W3C//DTD SVG 1.1//EN"
 "http://www.w3.org/Graphics/SVG/1.1/DTD/svg11.dtd">
<!-- Generated by graphviz version 2.38.0 (20140413.2041)
 -->
<!-- Title: _do_scanargs Pages: 1 -->
<svg width="202pt" height="142pt"
 viewBox="0.00 0.00 202.00 142.00" xmlns="http://www.w3.org/2000/svg" xmlns:xlink="http://www.w3.org/1999/xlink">
<g id="graph0" class="graph" transform="scale(1 1) rotate(0) translate(4 138)">
<title>_do_scanargs</title>
<polygon fill="white" stroke="none" points="-4,4 -4,-138 198,-138 198,4 -4,4"/>
<!-- Node1 -->
<g id="node1" class="node"><title>Node1</title>
<polygon fill="#bfbfbf" stroke="black" points="0,-57.5 0,-76.5 84,-76.5 84,-57.5 0,-57.5"/>
<text text-anchor="middle" x="42" y="-64.5" font-family="Helvetica,sans-Serif" font-size="10.00">_do_scanargs</text>
</g>
<!-- Node2 -->
<g id="node2" class="node"><title>Node2</title>
<g id="a_node2"><a xlink:href="../../d4/db0/scanargs_8c.html#adbfbdeb76ff8247a7be05c5666e09d95" target="_top" xlink:title="scan_usage">
<polygon fill="white" stroke="black" points="120,-114.5 120,-133.5 194,-133.5 194,-114.5 120,-114.5"/>
<text text-anchor="middle" x="157" y="-121.5" font-family="Helvetica,sans-Serif" font-size="10.00">scan_usage</text>
</a>
</g>
</g>
<!-- Node1&#45;&gt;Node2 -->
<g id="edge1" class="edge"><title>Node1&#45;&gt;Node2</title>
<path fill="none" stroke="midnightblue" d="M61.9137,-76.5405C79.921,-85.6239 107.251,-99.4096 127.823,-109.787"/>
<polygon fill="midnightblue" stroke="midnightblue" points="126.52,-113.05 137.025,-114.428 129.673,-106.8 126.52,-113.05"/>
</g>
<!-- Node3 -->
<g id="node3" class="node"><title>Node3</title>
<g id="a_node3"><a xlink:href="../../d4/db0/scanargs_8c.html#a2a5612de1c2935309d59a4f9e339d10f" target="_top" xlink:title="isnum">
<polygon fill="white" stroke="black" points="135,-76.5 135,-95.5 179,-95.5 179,-76.5 135,-76.5"/>
<text text-anchor="middle" x="157" y="-83.5" font-family="Helvetica,sans-Serif" font-size="10.00">isnum</text>
</a>
</g>
</g>
<!-- Node1&#45;&gt;Node3 -->
<g id="edge2" class="edge"><title>Node1&#45;&gt;Node3</title>
<path fill="none" stroke="midnightblue" d="M84.1153,-73.9132C97.525,-76.1679 112.186,-78.6331 124.75,-80.7456"/>
<polygon fill="midnightblue" stroke="midnightblue" points="124.295,-84.2182 134.737,-82.4249 125.456,-77.3151 124.295,-84.2182"/>
</g>
<!-- Node4 -->
<g id="node4" class="node"><title>Node4</title>
<g id="a_node4"><a xlink:href="../../d0/dcc/rletorla_8c.html#aafde19f7d36ca163a143579c1b125b6d" target="_top" xlink:title="free">
<polygon fill="white" stroke="black" points="139.5,-38.5 139.5,-57.5 174.5,-57.5 174.5,-38.5 139.5,-38.5"/>
<text text-anchor="middle" x="157" y="-45.5" font-family="Helvetica,sans-Serif" font-size="10.00">free</text>
</a>
</g>
</g>
<!-- Node1&#45;&gt;Node4 -->
<g id="edge3" class="edge"><title>Node1&#45;&gt;Node4</title>
<path fill="none" stroke="midnightblue" d="M84.1153,-60.0868C99.1528,-57.5584 115.764,-54.7653 129.227,-52.5016"/>
<polygon fill="midnightblue" stroke="midnightblue" points="129.978,-55.9246 139.259,-50.8149 128.817,-49.0215 129.978,-55.9246"/>
</g>
<!-- Node5 -->
<g id="node5" class="node"><title>Node5</title>
<g id="a_node5"><a xlink:href="../../dc/d7b/aliastorle_8c.html#ac2c29217831f208a3b22bae552c5124f" target="_top" xlink:title="error">
<polygon fill="white" stroke="black" points="137,-0.5 137,-19.5 177,-19.5 177,-0.5 137,-0.5"/>
<text text-anchor="middle" x="157" y="-7.5" font-family="Helvetica,sans-Serif" font-size="10.00">error</text>
</a>
</g>
</g>
<!-- Node1&#45;&gt;Node5 -->
<g id="edge4" class="edge"><title>Node1&#45;&gt;Node5</title>
<path fill="none" stroke="midnightblue" d="M61.9137,-57.4595C79.921,-48.3761 107.251,-34.5904 127.823,-24.2133"/>
<polygon fill="midnightblue" stroke="midnightblue" points="129.673,-27.2004 137.025,-19.5716 126.52,-20.9505 129.673,-27.2004"/>
</g>
</g>
</svg>
