<?xml version="1.0" encoding="UTF-8" standalone="no"?>
<!DOCTYPE svg PUBLIC "-//W3C//DTD SVG 1.1//EN"
 "http://www.w3.org/Graphics/SVG/1.1/DTD/svg11.dtd">
<!-- Generated by graphviz version 2.38.0 (20140413.2041)
 -->
<!-- Title: prformat Pages: 1 -->
<svg width="174pt" height="66pt"
 viewBox="0.00 0.00 174.00 66.00" xmlns="http://www.w3.org/2000/svg" xmlns:xlink="http://www.w3.org/1999/xlink">
<g id="graph0" class="graph" transform="scale(1 1) rotate(0) translate(4 62)">
<title>prformat</title>
<polygon fill="white" stroke="none" points="-4,4 -4,-62 170,-62 170,4 -4,4"/>
<!-- Node1 -->
<g id="node1" class="node"><title>Node1</title>
<polygon fill="#bfbfbf" stroke="black" points="0,-19.5 0,-38.5 56,-38.5 56,-19.5 0,-19.5"/>
<text text-anchor="middle" x="28" y="-26.5" font-family="Helvetica,sans-Serif" font-size="10.00">prformat</text>
</g>
<!-- Node2 -->
<g id="node2" class="node"><title>Node2</title>
<g id="a_node2"><a xlink:href="../../d4/db0/scanargs_8c.html#a055153db05ea025cca23cada404f23e1" target="_top" xlink:title="scan_usage">
<polygon fill="white" stroke="black" points="92,-38.5 92,-57.5 166,-57.5 166,-38.5 92,-38.5"/>
<text text-anchor="middle" x="129" y="-45.5" font-family="Helvetica,sans-Serif" font-size="10.00">scan_usage</text>
</a>
</g>
</g>
<!-- Node1&#45;&gt;Node2 -->
<g id="edge1" class="edge"><title>Node1&#45;&gt;Node2</title>
<path fill="none" stroke="midnightblue" d="M65.9827,-36.0977C74.3922,-37.7116 83.3174,-39.4246 91.6982,-41.033"/>
<polygon fill="midnightblue" stroke="midnightblue" points="66.5327,-32.6394 56.0522,-34.1918 65.2133,-39.514 66.5327,-32.6394"/>
</g>
<!-- Node3 -->
<g id="node3" class="node"><title>Node3</title>
<g id="a_node3"><a xlink:href="../../d4/db0/scanargs_8c.html#abadefaa317ecfaecbf6550b68253bac4" target="_top" xlink:title="prformat">
<polygon fill="white" stroke="black" points="101,-0.5 101,-19.5 157,-19.5 157,-0.5 101,-0.5"/>
<text text-anchor="middle" x="129" y="-7.5" font-family="Helvetica,sans-Serif" font-size="10.00">prformat</text>
</a>
</g>
</g>
<!-- Node1&#45;&gt;Node3 -->
<g id="edge2" class="edge"><title>Node1&#45;&gt;Node3</title>
<path fill="none" stroke="midnightblue" d="M65.9423,-21.9101C77.5665,-19.6792 90.18,-17.2584 100.981,-15.1856"/>
<polygon fill="midnightblue" stroke="midnightblue" points="65.2133,-18.486 56.0522,-23.8082 66.5327,-25.3606 65.2133,-18.486"/>
</g>
</g>
</svg>
