<?xml version="1.0" encoding="UTF-8" standalone="no"?>
<!DOCTYPE svg PUBLIC "-//W3C//DTD SVG 1.1//EN"
 "http://www.w3.org/Graphics/SVG/1.1/DTD/svg11.dtd">
<!-- Generated by graphviz version 2.38.0 (20140413.2041)
 -->
<!-- Title: get_pic Pages: 1 -->
<!--zoomable 501 -->
<svg id="main" version="1.1" xmlns="http://www.w3.org/2000/svg" xmlns:xlink="http://www.w3.org/1999/xlink" xml:space="preserve" onload="init(evt)">
<style type="text/css"><![CDATA[
.edge:hover path { stroke: red; }
.edge:hover polygon { stroke: red; fill: red; }
]]></style>
<script type="text/javascript"><![CDATA[
var edges = document.getElementsByTagName('g');
if (edges && edges.length) {
  for (var i=0;i<edges.length;i++) {
    if (edges[i].id.substr(0,4)=='edge') {
      edges[i].setAttribute('class','edge');
    }
  }
}
]]></script>
        <defs>
                <circle id="rim" cx="0" cy="0" r="7"/>
                <circle id="rim2" cx="0" cy="0" r="3.5"/>
                <g id="zoomPlus">
                        <use xlink:href="#rim" fill="#404040">
                                <set attributeName="fill" to="#808080" begin="zoomplus.mouseover" end="zoomplus.mouseout"/>
                        </use>
                        <path d="M-4,0h8M0,-4v8" fill="none" stroke="white" stroke-width="1.5" pointer-events="none"/>
                </g>
                <g id="zoomMin">
                        <use xlink:href="#rim" fill="#404040">
                                <set attributeName="fill" to="#808080" begin="zoomminus.mouseover" end="zoomminus.mouseout"/>
                        </use>
                        <path d="M-4,0h8" fill="none" stroke="white" stroke-width="1.5" pointer-events="none"/>
                </g>
                <g id="dirArrow">
                        <path fill="none" stroke="white" stroke-width="1.5" d="M0,-3.0v7 M-2.5,-0.5L0,-3.0L2.5,-0.5"/>
                </g>
               <g id="resetDef">
                       <use xlink:href="#rim2" fill="#404040">
                               <set attributeName="fill" to="#808080" begin="reset.mouseover" end="reset.mouseout"/>
                       </use>
               </g>
        </defs>

<script type="text/javascript">
var viewWidth = 519;
var viewHeight = 501;
var sectionId = 'dynsection-2';
</script>
<script xlink:href="../../svgpan.js"/>
<svg id="graph" class="graph">
<g id="viewport">
<title>get_pic</title>
<polygon fill="white" stroke="none" points="-4,4 -4,-497.286 515,-497.286 515,4 -4,4"/>
<!-- Node1 -->
<g id="node1" class="node"><title>Node1</title>
<polygon fill="#bfbfbf" stroke="black" points="0,-190.5 0,-209.5 51,-209.5 51,-190.5 0,-190.5"/>
<text text-anchor="middle" x="25.5" y="-197.5" font-family="Helvetica,sans-Serif" font-size="10.00">get_pic</text>
</g>
<!-- Node2 -->
<g id="node2" class="node"><title>Node2</title>
<g id="a_node2"><a xlink:href="../../d2/df3/rle__hdr_8c.html#a8ba0e5b11d1e39ab7227f1686e676c86" target="_top" xlink:title="rle_hdr_init">
<polygon fill="white" stroke="black" points="106,-266.5 106,-285.5 176,-285.5 176,-266.5 106,-266.5"/>
<text text-anchor="middle" x="141" y="-273.5" font-family="Helvetica,sans-Serif" font-size="10.00">rle_hdr_init</text>
</a>
</g>
</g>
<!-- Node1&#45;&gt;Node2 -->
<g id="edge1" class="edge"><title>Node1&#45;&gt;Node2</title>
<path fill="none" stroke="midnightblue" d="M36.0769,-209.775C47.4564,-221.005 67.3805,-239.491 87,-252 92.8368,-255.721 99.3467,-259.17 105.751,-262.226"/>
<polygon fill="midnightblue" stroke="midnightblue" points="104.415,-265.463 114.968,-266.407 107.307,-259.089 104.415,-265.463"/>
</g>
<!-- Node4 -->
<g id="node4" class="node"><title>Node4</title>
<g id="a_node4"><a xlink:href="../../d0/dcc/rletorla_8c.html#aafde19f7d36ca163a143579c1b125b6d" target="_top" xlink:title="free">
<polygon fill="white" stroke="black" points="470,-418.5 470,-437.5 505,-437.5 505,-418.5 470,-418.5"/>
<text text-anchor="middle" x="487.5" y="-425.5" font-family="Helvetica,sans-Serif" font-size="10.00">free</text>
</a>
</g>
</g>
<!-- Node1&#45;&gt;Node4 -->
<g id="edge26" class="edge"><title>Node1&#45;&gt;Node4</title>
<path fill="none" stroke="midnightblue" d="M27.5724,-209.708C31.0738,-237.071 44.5099,-315.829 87,-362 173.837,-456.359 222.86,-456.99 348,-485 382.697,-492.766 395.063,-498.393 428,-485 447.396,-477.113 463.879,-459.362 474.357,-445.749"/>
<polygon fill="midnightblue" stroke="midnightblue" points="477.276,-447.687 480.345,-437.546 471.622,-443.559 477.276,-447.687"/>
</g>
<!-- Node6 -->
<g id="node6" class="node"><title>Node6</title>
<g id="a_node6"><a xlink:href="../../d0/dcc/rletorla_8c.html#ab7e36af3707843f77cc5b4e831c2fa6d" target="_top" xlink:title="malloc">
<polygon fill="white" stroke="black" points="464,-285.5 464,-304.5 511,-304.5 511,-285.5 464,-285.5"/>
<text text-anchor="middle" x="487.5" y="-292.5" font-family="Helvetica,sans-Serif" font-size="10.00">malloc</text>
</a>
</g>
</g>
<!-- Node1&#45;&gt;Node6 -->
<g id="edge18" class="edge"><title>Node1&#45;&gt;Node6</title>
<path fill="none" stroke="midnightblue" d="M51.012,-208.538C61.9321,-212.123 75.0108,-216.119 87,-219 236.625,-254.951 278.071,-244.337 428,-279 436.46,-280.956 445.541,-283.312 453.963,-285.608"/>
<polygon fill="midnightblue" stroke="midnightblue" points="453.254,-289.043 463.826,-288.347 455.127,-282.298 453.254,-289.043"/>
</g>
<!-- Node7 -->
<g id="node7" class="node"><title>Node7</title>
<g id="a_node7"><a xlink:href="../../d2/df3/rle__hdr_8c.html#a82e79385f2d45cc3b80ce0f4f369eae5" target="_top" xlink:title="rle_names">
<polygon fill="white" stroke="black" points="355,-304.5 355,-323.5 421,-323.5 421,-304.5 355,-304.5"/>
<text text-anchor="middle" x="388" y="-311.5" font-family="Helvetica,sans-Serif" font-size="10.00">rle_names</text>
</a>
</g>
</g>
<!-- Node1&#45;&gt;Node7 -->
<g id="edge10" class="edge"><title>Node1&#45;&gt;Node7</title>
<path fill="none" stroke="midnightblue" d="M29.3741,-209.691C35.885,-229.714 53.8323,-275.411 87,-295 129.455,-320.074 272.68,-318.485 344.786,-315.932"/>
<polygon fill="midnightblue" stroke="midnightblue" points="345.027,-319.426 354.888,-315.552 344.763,-312.431 345.027,-319.426"/>
</g>
<!-- Node8 -->
<g id="node8" class="node"><title>Node8</title>
<g id="a_node8"><a xlink:href="../../db/d53/rle__getrow_8c.html#a619b27463c26e0a4a3d9648a9869ee52" target="_top" xlink:title="rle_get_setup">
<polygon fill="white" stroke="black" points="231,-361.5 231,-380.5 312,-380.5 312,-361.5 231,-361.5"/>
<text text-anchor="middle" x="271.5" y="-368.5" font-family="Helvetica,sans-Serif" font-size="10.00">rle_get_setup</text>
</a>
</g>
</g>
<!-- Node1&#45;&gt;Node8 -->
<g id="edge11" class="edge"><title>Node1&#45;&gt;Node8</title>
<path fill="none" stroke="midnightblue" d="M28.1474,-209.797C32.739,-233.915 48.0021,-296.482 87,-328 124.808,-358.556 180.535,-368.129 220.649,-370.782"/>
<polygon fill="midnightblue" stroke="midnightblue" points="220.574,-374.283 230.748,-371.326 220.951,-367.293 220.574,-374.283"/>
</g>
<!-- Node10 -->
<g id="node10" class="node"><title>Node10</title>
<g id="a_node10"><a xlink:href="../../db/d53/rle__getrow_8c.html#a0e01db41714fa588d5458fed1fd0dd55" target="_top" xlink:title="rle_debug">
<polygon fill="white" stroke="black" points="109.5,-190.5 109.5,-209.5 172.5,-209.5 172.5,-190.5 109.5,-190.5"/>
<text text-anchor="middle" x="141" y="-197.5" font-family="Helvetica,sans-Serif" font-size="10.00">rle_debug</text>
</a>
</g>
</g>
<!-- Node1&#45;&gt;Node10 -->
<g id="edge17" class="edge"><title>Node1&#45;&gt;Node10</title>
<path fill="none" stroke="midnightblue" d="M51.1278,-200C65.1402,-200 83.0485,-200 99.1129,-200"/>
<polygon fill="midnightblue" stroke="midnightblue" points="99.3437,-203.5 109.344,-200 99.3437,-196.5 99.3437,-203.5"/>
</g>
<!-- Node11 -->
<g id="node11" class="node"><title>Node11</title>
<g id="a_node11"><a xlink:href="../../dc/d11/getami_8c.html#a8f31580e06aae736fd6f1ed3c414ed94" target="_top" xlink:title="buildmap">
<polygon fill="white" stroke="black" points="112,-152.5 112,-171.5 170,-171.5 170,-152.5 112,-152.5"/>
<text text-anchor="middle" x="141" y="-159.5" font-family="Helvetica,sans-Serif" font-size="10.00">buildmap</text>
</a>
</g>
</g>
<!-- Node1&#45;&gt;Node11 -->
<g id="edge19" class="edge"><title>Node1&#45;&gt;Node11</title>
<path fill="none" stroke="midnightblue" d="M51.1278,-191.755C66.0612,-186.755 85.4193,-180.274 102.255,-174.637"/>
<polygon fill="midnightblue" stroke="midnightblue" points="103.452,-177.927 111.823,-171.434 101.229,-171.29 103.452,-177.927"/>
</g>
<!-- Node12 -->
<g id="node12" class="node"><title>Node12</title>
<g id="a_node12"><a xlink:href="../../db/d53/rle__getrow_8c.html#a3602e1158189cba5e5b0f9b983cba776" target="_top" xlink:title="rle_getrow">
<polygon fill="white" stroke="black" points="107.5,-114.5 107.5,-133.5 174.5,-133.5 174.5,-114.5 107.5,-114.5"/>
<text text-anchor="middle" x="141" y="-121.5" font-family="Helvetica,sans-Serif" font-size="10.00">rle_getrow</text>
</a>
</g>
</g>
<!-- Node1&#45;&gt;Node12 -->
<g id="edge20" class="edge"><title>Node1&#45;&gt;Node12</title>
<path fill="none" stroke="midnightblue" d="M34.5561,-190.241C45.3362,-177.739 65.5923,-156.123 87,-143 90.4181,-140.905 94.1014,-138.993 97.8772,-137.26"/>
<polygon fill="midnightblue" stroke="midnightblue" points="99.4664,-140.39 107.355,-133.317 96.7777,-133.927 99.4664,-140.39"/>
</g>
<!-- Node15 -->
<g id="node15" class="node"><title>Node15</title>
<g id="a_node15"><a xlink:href="../../d9/d2a/rle__putrow_8c.html#ade53266831a9d8fda9234cbac857ebb4" target="_top" xlink:title="rgb_to_bw">
<polygon fill="white" stroke="black" points="108.5,-76.5 108.5,-95.5 173.5,-95.5 173.5,-76.5 108.5,-76.5"/>
<text text-anchor="middle" x="141" y="-83.5" font-family="Helvetica,sans-Serif" font-size="10.00">rgb_to_bw</text>
</a>
</g>
</g>
<!-- Node1&#45;&gt;Node15 -->
<g id="edge23" class="edge"><title>Node1&#45;&gt;Node15</title>
<path fill="none" stroke="midnightblue" d="M30.0935,-190.442C37.699,-171.461 57.2075,-128.796 87,-105 90.5765,-102.143 94.618,-99.696 98.8346,-97.6038"/>
<polygon fill="midnightblue" stroke="midnightblue" points="100.424,-100.73 108.233,-93.57 97.6632,-94.2979 100.424,-100.73"/>
</g>
<!-- Node16 -->
<g id="node16" class="node"><title>Node16</title>
<g id="a_node16"><a xlink:href="../../d3/d46/get4d_8c.html#aa4284bc4db55e0ba540d7f84dd36279a" target="_top" xlink:title="pack_rect_scanline">
<polygon fill="white" stroke="black" points="87,-38.5 87,-57.5 195,-57.5 195,-38.5 87,-38.5"/>
<text text-anchor="middle" x="141" y="-45.5" font-family="Helvetica,sans-Serif" font-size="10.00">pack_rect_scanline</text>
</a>
</g>
</g>
<!-- Node1&#45;&gt;Node16 -->
<g id="edge24" class="edge"><title>Node1&#45;&gt;Node16</title>
<path fill="none" stroke="midnightblue" d="M28.1913,-190.461C32.9602,-166.319 48.7403,-102.22 87,-67 88.6945,-65.4401 90.5261,-64.0064 92.4552,-62.6889"/>
<polygon fill="midnightblue" stroke="midnightblue" points="94.4308,-65.5927 101.414,-57.6252 90.9865,-59.4986 94.4308,-65.5927"/>
</g>
<!-- Node17 -->
<g id="node17" class="node"><title>Node17</title>
<g id="a_node17"><a xlink:href="../../d3/d46/get4d_8c.html#acbd3b1052fde00c68c2b50fdc90af1fd" target="_top" xlink:title="pack_rgb_scanline">
<polygon fill="white" stroke="black" points="88.5,-0.5 88.5,-19.5 193.5,-19.5 193.5,-0.5 88.5,-0.5"/>
<text text-anchor="middle" x="141" y="-7.5" font-family="Helvetica,sans-Serif" font-size="10.00">pack_rgb_scanline</text>
</a>
</g>
</g>
<!-- Node1&#45;&gt;Node17 -->
<g id="edge25" class="edge"><title>Node1&#45;&gt;Node17</title>
<path fill="none" stroke="midnightblue" d="M27.1047,-190.371C29.4167,-161.719 40.1137,-76.0818 87,-29 88.4485,-27.5455 90.0159,-26.2018 91.6731,-24.9604"/>
<polygon fill="midnightblue" stroke="midnightblue" points="93.833,-27.7441 100.571,-19.5682 90.2052,-21.7575 93.833,-27.7441"/>
</g>
<!-- Node3 -->
<g id="node3" class="node"><title>Node3</title>
<g id="a_node3"><a xlink:href="../../d2/df3/rle__hdr_8c.html#a16c4da6201b3b8cf55127b9ca968d253" target="_top" xlink:title="rle_hdr_clear">
<polygon fill="white" stroke="black" points="348,-456.5 348,-475.5 428,-475.5 428,-456.5 348,-456.5"/>
<text text-anchor="middle" x="388" y="-463.5" font-family="Helvetica,sans-Serif" font-size="10.00">rle_hdr_clear</text>
</a>
</g>
</g>
<!-- Node2&#45;&gt;Node3 -->
<g id="edge2" class="edge"><title>Node2&#45;&gt;Node3</title>
<path fill="none" stroke="midnightblue" d="M147.496,-285.762C159.928,-307.112 192.167,-358.557 231,-390 266.694,-418.902 315.199,-440.333 348.598,-452.942"/>
<polygon fill="midnightblue" stroke="midnightblue" points="347.427,-456.24 358.02,-456.417 349.849,-449.673 347.427,-456.24"/>
</g>
<!-- Node5 -->
<g id="node5" class="node"><title>Node5</title>
<g id="a_node5"><a xlink:href="../../d2/df3/rle__hdr_8c.html#afc916e29aea8788e0878ca315ff69821" target="_top" xlink:title="rle_hdr_cp">
<polygon fill="white" stroke="black" points="237.5,-266.5 237.5,-285.5 305.5,-285.5 305.5,-266.5 237.5,-266.5"/>
<text text-anchor="middle" x="271.5" y="-273.5" font-family="Helvetica,sans-Serif" font-size="10.00">rle_hdr_cp</text>
</a>
</g>
</g>
<!-- Node2&#45;&gt;Node5 -->
<g id="edge4" class="edge"><title>Node2&#45;&gt;Node5</title>
<path fill="none" stroke="midnightblue" d="M176.098,-269.96C191.738,-269.166 210.46,-269.038 227.093,-269.576"/>
<polygon fill="midnightblue" stroke="midnightblue" points="226.995,-273.075 237.132,-269.997 227.288,-266.081 226.995,-273.075"/>
</g>
<!-- Node3&#45;&gt;Node4 -->
<g id="edge3" class="edge"><title>Node3&#45;&gt;Node4</title>
<path fill="none" stroke="midnightblue" d="M413.603,-456.411C427.904,-450.837 445.914,-443.818 460.454,-438.151"/>
<polygon fill="midnightblue" stroke="midnightblue" points="461.831,-441.371 469.878,-434.478 459.289,-434.849 461.831,-441.371"/>
</g>
<!-- Node5&#45;&gt;Node2 -->
<g id="edge5" class="edge"><title>Node5&#45;&gt;Node2</title>
<path fill="none" stroke="midnightblue" d="M237.132,-282.003C221.59,-282.817 202.885,-282.966 186.188,-282.449"/>
<polygon fill="midnightblue" stroke="midnightblue" points="186.232,-278.948 176.098,-282.04 185.949,-285.942 186.232,-278.948"/>
</g>
<!-- Node5&#45;&gt;Node6 -->
<g id="edge6" class="edge"><title>Node5&#45;&gt;Node6</title>
<path fill="none" stroke="midnightblue" d="M305.938,-278.969C346.296,-282.552 413.717,-288.538 453.761,-292.093"/>
<polygon fill="midnightblue" stroke="midnightblue" points="453.53,-295.586 463.801,-292.985 454.15,-288.614 453.53,-295.586"/>
</g>
<!-- Node5&#45;&gt;Node7 -->
<g id="edge7" class="edge"><title>Node5&#45;&gt;Node7</title>
<path fill="none" stroke="midnightblue" d="M301.393,-285.589C315.632,-290.314 333.001,-296.079 348.363,-301.177"/>
<polygon fill="midnightblue" stroke="midnightblue" points="347.523,-304.586 358.116,-304.414 349.728,-297.942 347.523,-304.586"/>
</g>
<!-- Node7&#45;&gt;Node4 -->
<g id="edge8" class="edge"><title>Node7&#45;&gt;Node4</title>
<path fill="none" stroke="midnightblue" d="M397.313,-323.72C413.79,-342.986 450.796,-386.254 471.59,-410.566"/>
<polygon fill="midnightblue" stroke="midnightblue" points="469.049,-412.98 478.208,-418.305 474.368,-408.43 469.049,-412.98"/>
</g>
<!-- Node7&#45;&gt;Node6 -->
<g id="edge9" class="edge"><title>Node7&#45;&gt;Node6</title>
<path fill="none" stroke="midnightblue" d="M421.195,-307.726C431.679,-305.683 443.321,-303.414 453.838,-301.365"/>
<polygon fill="midnightblue" stroke="midnightblue" points="454.75,-304.753 463.896,-299.405 453.411,-297.882 454.75,-304.753"/>
</g>
<!-- Node8&#45;&gt;Node3 -->
<g id="edge12" class="edge"><title>Node8&#45;&gt;Node3</title>
<path fill="none" stroke="midnightblue" d="M280.453,-380.928C293.341,-396.538 320.168,-427.088 348,-447 350.22,-448.589 352.594,-450.108 355.033,-451.547"/>
<polygon fill="midnightblue" stroke="midnightblue" points="353.531,-454.713 363.994,-456.378 356.853,-448.551 353.531,-454.713"/>
</g>
<!-- Node8&#45;&gt;Node4 -->
<g id="edge15" class="edge"><title>Node8&#45;&gt;Node4</title>
<path fill="none" stroke="midnightblue" d="M312.016,-379.801C343.573,-387.035 388.837,-397.872 428,-409 438.597,-412.011 450.153,-415.681 460.175,-418.99"/>
<polygon fill="midnightblue" stroke="midnightblue" points="459.364,-422.409 469.958,-422.264 461.586,-415.771 459.364,-422.409"/>
</g>
<!-- Node8&#45;&gt;Node6 -->
<g id="edge14" class="edge"><title>Node8&#45;&gt;Node6</title>
<path fill="none" stroke="midnightblue" d="M312.016,-365.128C344.17,-359.466 390.244,-349.315 428,-333 441.376,-327.22 455.1,-318.48 465.891,-310.839"/>
<polygon fill="midnightblue" stroke="midnightblue" points="468.187,-313.495 474.193,-304.767 464.055,-307.845 468.187,-313.495"/>
</g>
<!-- Node8&#45;&gt;Node7 -->
<g id="edge13" class="edge"><title>Node8&#45;&gt;Node7</title>
<path fill="none" stroke="midnightblue" d="M291.665,-361.459C309.994,-352.335 337.854,-338.466 358.731,-328.073"/>
<polygon fill="midnightblue" stroke="midnightblue" points="360.38,-331.161 367.773,-323.572 357.261,-324.895 360.38,-331.161"/>
</g>
<!-- Node9 -->
<g id="node9" class="node"><title>Node9</title>
<g id="a_node9"><a xlink:href="../../db/d53/rle__getrow_8c.html#a0ea68aa2ebeef9d4cade7282553b03d6" target="_top" xlink:title="vax_gshort">
<polygon fill="white" stroke="black" points="353.5,-418.5 353.5,-437.5 422.5,-437.5 422.5,-418.5 353.5,-418.5"/>
<text text-anchor="middle" x="388" y="-425.5" font-family="Helvetica,sans-Serif" font-size="10.00">vax_gshort</text>
</a>
</g>
</g>
<!-- Node8&#45;&gt;Node9 -->
<g id="edge16" class="edge"><title>Node8&#45;&gt;Node9</title>
<path fill="none" stroke="midnightblue" d="M291.665,-380.541C309.994,-389.665 337.854,-403.534 358.731,-413.927"/>
<polygon fill="midnightblue" stroke="midnightblue" points="357.261,-417.105 367.773,-418.428 360.38,-410.839 357.261,-417.105"/>
</g>
<!-- Node13 -->
<g id="node13" class="node"><title>Node13</title>
<g id="a_node13"><a xlink:href="../../db/d53/rle__getrow_8c.html#a61ac0da96b0dd8bc3cbc98afcd9b5c44" target="_top" xlink:title="bfill">
<polygon fill="white" stroke="black" points="255.5,-133.5 255.5,-152.5 287.5,-152.5 287.5,-133.5 255.5,-133.5"/>
<text text-anchor="middle" x="271.5" y="-140.5" font-family="Helvetica,sans-Serif" font-size="10.00">bfill</text>
</a>
</g>
</g>
<!-- Node12&#45;&gt;Node13 -->
<g id="edge21" class="edge"><title>Node12&#45;&gt;Node13</title>
<path fill="none" stroke="midnightblue" d="M174.758,-128.844C196.693,-132.087 225.133,-136.292 245.302,-139.274"/>
<polygon fill="midnightblue" stroke="midnightblue" points="244.884,-142.75 255.288,-140.751 245.908,-135.826 244.884,-142.75"/>
</g>
<!-- Node14 -->
<g id="node14" class="node"><title>Node14</title>
<g id="a_node14"><a xlink:href="../../d8/d7c/rle__getskip_8c.html#af6b1e1dc0867e9340f90668591c7c5b3" target="_top" xlink:title="rle_getskip">
<polygon fill="white" stroke="black" points="237.5,-95.5 237.5,-114.5 305.5,-114.5 305.5,-95.5 237.5,-95.5"/>
<text text-anchor="middle" x="271.5" y="-102.5" font-family="Helvetica,sans-Serif" font-size="10.00">rle_getskip</text>
</a>
</g>
</g>
<!-- Node12&#45;&gt;Node14 -->
<g id="edge22" class="edge"><title>Node12&#45;&gt;Node14</title>
<path fill="none" stroke="midnightblue" d="M174.758,-119.156C190.646,-116.807 209.945,-113.954 227.043,-111.425"/>
<polygon fill="midnightblue" stroke="midnightblue" points="227.974,-114.826 237.355,-109.901 226.95,-107.901 227.974,-114.826"/>
</g>
</g>
</svg>
        <g id="navigator" transform="translate(0 0)" fill="#404254">
                <rect fill="#f2f5e9" fill-opacity="0.5" stroke="#606060" stroke-width=".5" x="0" y="0" width="60" height="60"/>
                <use id="zoomplus" xlink:href="#zoomPlus" x="17" y="9" onmousedown="handleZoom(evt,'in')"/>
                <use id="zoomminus" xlink:href="#zoomMin" x="42" y="9" onmousedown="handleZoom(evt,'out')"/>
                <use id="reset" xlink:href="#resetDef" x="30" y="36" onmousedown="handleReset()"/>
                <g id="arrowUp" xlink:href="#dirArrow" transform="translate(30 24)" onmousedown="handlePan(0,-1)">
                  <use xlink:href="#rim" fill="#404040">
                        <set attributeName="fill" to="#808080" begin="arrowUp.mouseover" end="arrowUp.mouseout"/>
                  </use>
                  <path fill="none" stroke="white" stroke-width="1.5" d="M0,-3.0v7 M-2.5,-0.5L0,-3.0L2.5,-0.5"/>
                </g>
                <g id="arrowRight" xlink:href="#dirArrow" transform="rotate(90) translate(36 -43)" onmousedown="handlePan(1,0)">
                  <use xlink:href="#rim" fill="#404040">
                        <set attributeName="fill" to="#808080" begin="arrowRight.mouseover" end="arrowRight.mouseout"/>
                  </use>
                  <path fill="none" stroke="white" stroke-width="1.5" d="M0,-3.0v7 M-2.5,-0.5L0,-3.0L2.5,-0.5"/>
                </g>
                <g id="arrowDown" xlink:href="#dirArrow" transform="rotate(180) translate(-30 -48)" onmousedown="handlePan(0,1)">
                  <use xlink:href="#rim" fill="#404040">
                        <set attributeName="fill" to="#808080" begin="arrowDown.mouseover" end="arrowDown.mouseout"/>
                  </use>
                  <path fill="none" stroke="white" stroke-width="1.5" d="M0,-3.0v7 M-2.5,-0.5L0,-3.0L2.5,-0.5"/>
                </g>
                <g id="arrowLeft" xlink:href="#dirArrow" transform="rotate(270) translate(-36 17)" onmousedown="handlePan(-1,0)">
                  <use xlink:href="#rim" fill="#404040">
                        <set attributeName="fill" to="#808080" begin="arrowLeft.mouseover" end="arrowLeft.mouseout"/>
                  </use>
                  <path fill="none" stroke="white" stroke-width="1.5" d="M0,-3.0v7 M-2.5,-0.5L0,-3.0L2.5,-0.5"/>
                </g>
        </g>
        <svg viewBox="0 0 15 15" width="100%" height="30px" preserveAspectRatio="xMaxYMin meet">
         <g id="arrow_out" transform="scale(0.3 0.3)">
          <a xlink:href="get4d_8c_af1e5f57fa511be9fa99aee630ceba576_cgraph_org.svg" target="_base">
           <rect id="button" ry="5" rx="5" y="6" x="6" height="38" width="38"
                fill="#f2f5e9" fill-opacity="0.5" stroke="#606060" stroke-width="1.0"/>
           <path id="arrow"
             d="M 11.500037,31.436501 C 11.940474,20.09759 22.043105,11.32322 32.158766,21.979434 L 37.068811,17.246167 C 37.068811,17.246167 37.088388,32 37.088388,32 L 22.160133,31.978069 C 22.160133,31.978069 26.997745,27.140456 26.997745,27.140456 C 18.528582,18.264221 13.291696,25.230495 11.500037,31.436501 z"
             style="fill:#404040;"/>
          </a>
         </g>
        </svg>
</svg>
