<?xml version="1.0" encoding="UTF-8" standalone="no"?>
<!DOCTYPE svg PUBLIC "-//W3C//DTD SVG 1.1//EN"
 "http://www.w3.org/Graphics/SVG/1.1/DTD/svg11.dtd">
<!-- Generated by graphviz version 2.38.0 (20140413.2041)
 -->
<!-- Title: main Pages: 1 -->
<svg width="684pt" height="522pt"
 viewBox="0.00 0.00 684.00 522.00" xmlns="http://www.w3.org/2000/svg" xmlns:xlink="http://www.w3.org/1999/xlink">
<g id="graph0" class="graph" transform="scale(1 1) rotate(0) translate(4 518)">
<title>main</title>
<polygon fill="white" stroke="none" points="-4,4 -4,-518 680,-518 680,4 -4,4"/>
<!-- Node1 -->
<g id="node1" class="node"><title>Node1</title>
<polygon fill="#bfbfbf" stroke="black" points="0,-247.5 0,-266.5 39,-266.5 39,-247.5 0,-247.5"/>
<text text-anchor="middle" x="19.5" y="-254.5" font-family="Helvetica,sans-Serif" font-size="10.00">main</text>
</g>
<!-- Node2 -->
<g id="node2" class="node"><title>Node2</title>
<g id="a_node2"><a xlink:href="../../d2/df3/rle__hdr_8c.html#a8ba0e5b11d1e39ab7227f1686e676c86" target="_top" xlink:title="rle_hdr_init">
<polygon fill="white" stroke="black" points="230,-380.5 230,-399.5 300,-399.5 300,-380.5 230,-380.5"/>
<text text-anchor="middle" x="265" y="-387.5" font-family="Helvetica,sans-Serif" font-size="10.00">rle_hdr_init</text>
</a>
</g>
</g>
<!-- Node1&#45;&gt;Node2 -->
<g id="edge1" class="edge"><title>Node1&#45;&gt;Node2</title>
<path fill="none" stroke="midnightblue" d="M33.6888,-266.747C44.5749,-274.657 60.5293,-285.943 75,-295 133.694,-331.736 147.972,-342.33 211,-371 215.49,-373.043 220.27,-375.018 225.051,-376.874"/>
<polygon fill="midnightblue" stroke="midnightblue" points="224.179,-380.284 234.772,-380.498 226.624,-373.725 224.179,-380.284"/>
</g>
<!-- Node7 -->
<g id="node7" class="node"><title>Node7</title>
<g id="a_node7"><a xlink:href="../../d2/df3/rle__hdr_8c.html#a82e79385f2d45cc3b80ce0f4f369eae5" target="_top" xlink:title="rle_names">
<polygon fill="white" stroke="black" points="490,-304.5 490,-323.5 556,-323.5 556,-304.5 490,-304.5"/>
<text text-anchor="middle" x="523" y="-311.5" font-family="Helvetica,sans-Serif" font-size="10.00">rle_names</text>
</a>
</g>
</g>
<!-- Node1&#45;&gt;Node7 -->
<g id="edge10" class="edge"><title>Node1&#45;&gt;Node7</title>
<path fill="none" stroke="midnightblue" d="M25.139,-266.736C33.2939,-283.018 51.5783,-316.047 75,-337 125.972,-382.6 144.624,-392.514 211,-409 308.051,-433.105 344.591,-449.551 436,-409 471.232,-393.37 498.165,-355.385 511.896,-332.462"/>
<polygon fill="midnightblue" stroke="midnightblue" points="515.002,-334.082 516.958,-323.669 508.935,-330.589 515.002,-334.082"/>
</g>
<!-- Node8 -->
<g id="node8" class="node"><title>Node8</title>
<g id="a_node8"><a xlink:href="../../d8/d30/cmd__name_8c.html#a271249070fdd12c176777c77d76f888f" target="_top" xlink:title="cmd_name">
<polygon fill="white" stroke="black" points="91,-228.5 91,-247.5 159,-247.5 159,-228.5 91,-228.5"/>
<text text-anchor="middle" x="125" y="-235.5" font-family="Helvetica,sans-Serif" font-size="10.00">cmd_name</text>
</a>
</g>
</g>
<!-- Node1&#45;&gt;Node8 -->
<g id="edge11" class="edge"><title>Node1&#45;&gt;Node8</title>
<path fill="none" stroke="midnightblue" d="M39.0037,-253.603C50.6255,-251.47 66.1266,-248.624 80.7071,-245.947"/>
<polygon fill="midnightblue" stroke="midnightblue" points="81.3916,-249.38 90.5952,-244.132 80.1276,-242.495 81.3916,-249.38"/>
</g>
<!-- Node9 -->
<g id="node9" class="node"><title>Node9</title>
<g id="a_node9"><a xlink:href="../../d4/db0/scanargs_8c.html#a7ea6d702c0484056c8504d6ce7fede08" target="_top" xlink:title="scanargs">
<polygon fill="white" stroke="black" points="95,-190.5 95,-209.5 155,-209.5 155,-190.5 95,-190.5"/>
<text text-anchor="middle" x="125" y="-197.5" font-family="Helvetica,sans-Serif" font-size="10.00">scanargs</text>
</a>
</g>
</g>
<!-- Node1&#45;&gt;Node9 -->
<g id="edge12" class="edge"><title>Node1&#45;&gt;Node9</title>
<path fill="none" stroke="midnightblue" d="M32.5139,-247.362C43.2134,-239.093 59.5253,-227.242 75,-219 78.7145,-217.022 82.6812,-215.139 86.6886,-213.383"/>
<polygon fill="midnightblue" stroke="midnightblue" points="88.1103,-216.582 96.0135,-209.526 85.435,-210.114 88.1103,-216.582"/>
</g>
<!-- Node11 -->
<g id="node11" class="node"><title>Node11</title>
<g id="a_node11"><a xlink:href="../../de/d4e/rle__open__f_8c.html#a89733a45961817885603ae01210290b7" target="_top" xlink:title="rle_open_f">
<polygon fill="white" stroke="black" points="91,-475.5 91,-494.5 159,-494.5 159,-475.5 91,-475.5"/>
<text text-anchor="middle" x="125" y="-482.5" font-family="Helvetica,sans-Serif" font-size="10.00">rle_open_f</text>
</a>
</g>
</g>
<!-- Node1&#45;&gt;Node11 -->
<g id="edge14" class="edge"><title>Node1&#45;&gt;Node11</title>
<path fill="none" stroke="midnightblue" d="M21.4342,-266.621C24.6043,-295.392 36.9646,-382.464 75,-442 81.7179,-452.515 91.7376,-461.949 100.969,-469.282"/>
<polygon fill="midnightblue" stroke="midnightblue" points="99.0109,-472.188 109.108,-475.397 103.216,-466.592 99.0109,-472.188"/>
</g>
<!-- Node14 -->
<g id="node14" class="node"><title>Node14</title>
<g id="a_node14"><a xlink:href="../../d3/d46/get4d_8c.html#af1e5f57fa511be9fa99aee630ceba576" target="_top" xlink:title="get_pic">
<polygon fill="white" stroke="black" points="99.5,-266.5 99.5,-285.5 150.5,-285.5 150.5,-266.5 99.5,-266.5"/>
<text text-anchor="middle" x="125" y="-273.5" font-family="Helvetica,sans-Serif" font-size="10.00">get_pic</text>
</a>
</g>
</g>
<!-- Node1&#45;&gt;Node14 -->
<g id="edge19" class="edge"><title>Node1&#45;&gt;Node14</title>
<path fill="none" stroke="midnightblue" d="M39.0037,-260.397C52.9676,-262.96 72.5321,-266.552 89.371,-269.643"/>
<polygon fill="midnightblue" stroke="midnightblue" points="88.9613,-273.126 99.4289,-271.489 90.2252,-266.241 88.9613,-273.126"/>
</g>
<!-- Node25 -->
<g id="node25" class="node"><title>Node25</title>
<g id="a_node25"><a xlink:href="../../d3/d46/get4d_8c.html#aef731f7da1ca3a67556fb4ef40c0d6c8" target="_top" xlink:title="convertgreylevels">
<polygon fill="white" stroke="black" points="75,-152.5 75,-171.5 175,-171.5 175,-152.5 75,-152.5"/>
<text text-anchor="middle" x="125" y="-159.5" font-family="Helvetica,sans-Serif" font-size="10.00">convertgreylevels</text>
</a>
</g>
</g>
<!-- Node1&#45;&gt;Node25 -->
<g id="edge38" class="edge"><title>Node1&#45;&gt;Node25</title>
<path fill="none" stroke="midnightblue" d="M25.0132,-247.466C32.9828,-231.578 51.0011,-199.599 75,-181 77.2988,-179.218 79.7848,-177.586 82.3757,-176.093"/>
<polygon fill="midnightblue" stroke="midnightblue" points="84.0938,-179.147 91.4696,-171.541 80.9606,-172.888 84.0938,-179.147"/>
</g>
<!-- Node26 -->
<g id="node26" class="node"><title>Node26</title>
<g id="a_node26"><a xlink:href="../../d3/d46/get4d_8c.html#af5fdef37044a0f909acb8f9d2bf39bf3" target="_top" xlink:title="update_pic">
<polygon fill="white" stroke="black" points="91,-114.5 91,-133.5 159,-133.5 159,-114.5 91,-114.5"/>
<text text-anchor="middle" x="125" y="-121.5" font-family="Helvetica,sans-Serif" font-size="10.00">update_pic</text>
</a>
</g>
</g>
<!-- Node1&#45;&gt;Node26 -->
<g id="edge39" class="edge"><title>Node1&#45;&gt;Node26</title>
<path fill="none" stroke="midnightblue" d="M22.5631,-247.302C27.6568,-225.627 42.8194,-172.822 75,-143 77.1332,-141.023 79.4948,-139.244 81.9949,-137.644"/>
<polygon fill="midnightblue" stroke="midnightblue" points="83.7409,-140.679 90.8979,-132.867 80.4313,-134.511 83.7409,-140.679"/>
</g>
<!-- Node3 -->
<g id="node3" class="node"><title>Node3</title>
<g id="a_node3"><a xlink:href="../../d2/df3/rle__hdr_8c.html#a16c4da6201b3b8cf55127b9ca968d253" target="_top" xlink:title="rle_hdr_clear">
<polygon fill="white" stroke="black" points="483,-204.5 483,-223.5 563,-223.5 563,-204.5 483,-204.5"/>
<text text-anchor="middle" x="523" y="-211.5" font-family="Helvetica,sans-Serif" font-size="10.00">rle_hdr_clear</text>
</a>
</g>
</g>
<!-- Node2&#45;&gt;Node3 -->
<g id="edge2" class="edge"><title>Node2&#45;&gt;Node3</title>
<path fill="none" stroke="midnightblue" d="M297.819,-380.428C304.975,-377.777 312.399,-374.617 319,-371 393.921,-329.947 470.497,-262.311 504.216,-230.946"/>
<polygon fill="midnightblue" stroke="midnightblue" points="506.942,-233.188 511.838,-223.792 502.151,-228.084 506.942,-233.188"/>
</g>
<!-- Node5 -->
<g id="node5" class="node"><title>Node5</title>
<g id="a_node5"><a xlink:href="../../d2/df3/rle__hdr_8c.html#afc916e29aea8788e0878ca315ff69821" target="_top" xlink:title="rle_hdr_cp">
<polygon fill="white" stroke="black" points="361.5,-380.5 361.5,-399.5 429.5,-399.5 429.5,-380.5 361.5,-380.5"/>
<text text-anchor="middle" x="395.5" y="-387.5" font-family="Helvetica,sans-Serif" font-size="10.00">rle_hdr_cp</text>
</a>
</g>
</g>
<!-- Node2&#45;&gt;Node5 -->
<g id="edge4" class="edge"><title>Node2&#45;&gt;Node5</title>
<path fill="none" stroke="midnightblue" d="M300.098,-383.96C315.738,-383.166 334.46,-383.038 351.093,-383.576"/>
<polygon fill="midnightblue" stroke="midnightblue" points="350.995,-387.075 361.132,-383.997 351.288,-380.081 350.995,-387.075"/>
</g>
<!-- Node4 -->
<g id="node4" class="node"><title>Node4</title>
<g id="a_node4"><a xlink:href="../../d0/dcc/rletorla_8c.html#aafde19f7d36ca163a143579c1b125b6d" target="_top" xlink:title="free">
<polygon fill="white" stroke="black" points="625.5,-204.5 625.5,-223.5 660.5,-223.5 660.5,-204.5 625.5,-204.5"/>
<text text-anchor="middle" x="643" y="-211.5" font-family="Helvetica,sans-Serif" font-size="10.00">free</text>
</a>
</g>
</g>
<!-- Node3&#45;&gt;Node4 -->
<g id="edge3" class="edge"><title>Node3&#45;&gt;Node4</title>
<path fill="none" stroke="midnightblue" d="M563.292,-214C580.232,-214 599.621,-214 614.916,-214"/>
<polygon fill="midnightblue" stroke="midnightblue" points="615.236,-217.5 625.236,-214 615.236,-210.5 615.236,-217.5"/>
</g>
<!-- Node5&#45;&gt;Node2 -->
<g id="edge5" class="edge"><title>Node5&#45;&gt;Node2</title>
<path fill="none" stroke="midnightblue" d="M361.132,-396.003C345.59,-396.817 326.885,-396.966 310.188,-396.449"/>
<polygon fill="midnightblue" stroke="midnightblue" points="310.232,-392.948 300.098,-396.04 309.949,-399.942 310.232,-392.948"/>
</g>
<!-- Node6 -->
<g id="node6" class="node"><title>Node6</title>
<g id="a_node6"><a xlink:href="../../d0/dcc/rletorla_8c.html#ab7e36af3707843f77cc5b4e831c2fa6d" target="_top" xlink:title="malloc">
<polygon fill="white" stroke="black" points="619.5,-380.5 619.5,-399.5 666.5,-399.5 666.5,-380.5 619.5,-380.5"/>
<text text-anchor="middle" x="643" y="-387.5" font-family="Helvetica,sans-Serif" font-size="10.00">malloc</text>
</a>
</g>
</g>
<!-- Node5&#45;&gt;Node6 -->
<g id="edge6" class="edge"><title>Node5&#45;&gt;Node6</title>
<path fill="none" stroke="midnightblue" d="M429.609,-390C476.6,-390 562.127,-390 609.037,-390"/>
<polygon fill="midnightblue" stroke="midnightblue" points="609.26,-393.5 619.26,-390 609.26,-386.5 609.26,-393.5"/>
</g>
<!-- Node5&#45;&gt;Node7 -->
<g id="edge7" class="edge"><title>Node5&#45;&gt;Node7</title>
<path fill="none" stroke="midnightblue" d="M412.395,-380.375C433.895,-367.355 472.445,-344.009 497.621,-328.764"/>
<polygon fill="midnightblue" stroke="midnightblue" points="499.494,-331.721 506.234,-323.547 495.868,-325.734 499.494,-331.721"/>
</g>
<!-- Node7&#45;&gt;Node4 -->
<g id="edge8" class="edge"><title>Node7&#45;&gt;Node4</title>
<path fill="none" stroke="midnightblue" d="M535.314,-304.412C555.526,-287.283 598.04,-251.255 622.864,-230.217"/>
<polygon fill="midnightblue" stroke="midnightblue" points="625.18,-232.842 630.547,-223.706 620.655,-227.501 625.18,-232.842"/>
</g>
<!-- Node7&#45;&gt;Node6 -->
<g id="edge9" class="edge"><title>Node7&#45;&gt;Node6</title>
<path fill="none" stroke="midnightblue" d="M538.945,-323.625C559.071,-336.588 595.089,-359.786 618.765,-375.035"/>
<polygon fill="midnightblue" stroke="midnightblue" points="616.874,-377.98 627.177,-380.453 620.665,-372.095 616.874,-377.98"/>
</g>
<!-- Node10 -->
<g id="node10" class="node"><title>Node10</title>
<g id="a_node10"><a xlink:href="../../d4/db0/scanargs_8c.html#a862219039664df6eb3cfced58addf830" target="_top" xlink:title="_do_scanargs">
<polygon fill="white" stroke="black" points="223,-0.5 223,-19.5 307,-19.5 307,-0.5 223,-0.5"/>
<text text-anchor="middle" x="265" y="-7.5" font-family="Helvetica,sans-Serif" font-size="10.00">_do_scanargs</text>
</a>
</g>
</g>
<!-- Node9&#45;&gt;Node10 -->
<g id="edge13" class="edge"><title>Node9&#45;&gt;Node10</title>
<path fill="none" stroke="midnightblue" d="M155.022,-193.89C162.426,-191.07 169.763,-186.965 175,-181 219.38,-130.454 168.035,-85.7535 211,-34 213.984,-30.4056 217.62,-27.3266 221.574,-24.6941"/>
<polygon fill="midnightblue" stroke="midnightblue" points="223.607,-27.5667 230.611,-19.6176 220.179,-21.4637 223.607,-27.5667"/>
</g>
<!-- Node12 -->
<g id="node12" class="node"><title>Node12</title>
<g id="a_node12"><a xlink:href="../../de/d4e/rle__open__f_8c.html#a5a0e62a00f907fce26e93b2f72adb2b0" target="_top" xlink:title="rle_open_f_noexit">
<polygon fill="white" stroke="black" points="472,-494.5 472,-513.5 574,-513.5 574,-494.5 472,-494.5"/>
<text text-anchor="middle" x="523" y="-501.5" font-family="Helvetica,sans-Serif" font-size="10.00">rle_open_f_noexit</text>
</a>
</g>
</g>
<!-- Node11&#45;&gt;Node12 -->
<g id="edge15" class="edge"><title>Node11&#45;&gt;Node12</title>
<path fill="none" stroke="midnightblue" d="M159.082,-486.587C225.731,-489.785 377.008,-497.043 461.701,-501.107"/>
<polygon fill="midnightblue" stroke="midnightblue" points="461.783,-504.615 471.94,-501.598 462.119,-497.623 461.783,-504.615"/>
</g>
<!-- Node12&#45;&gt;Node4 -->
<g id="edge18" class="edge"><title>Node12&#45;&gt;Node4</title>
<path fill="none" stroke="midnightblue" d="M527.926,-494.351C544.794,-452.895 611.295,-289.461 634.199,-233.172"/>
<polygon fill="midnightblue" stroke="midnightblue" points="637.532,-234.267 638.059,-223.685 631.048,-231.629 637.532,-234.267"/>
</g>
<!-- Node12&#45;&gt;Node6 -->
<g id="edge17" class="edge"><title>Node12&#45;&gt;Node6</title>
<path fill="none" stroke="midnightblue" d="M549.795,-494.452C558.025,-490.691 566.845,-485.853 574,-480 599.011,-459.541 620.03,-428.067 631.812,-408.276"/>
<polygon fill="midnightblue" stroke="midnightblue" points="634.854,-410.007 636.832,-399.599 628.795,-406.502 634.854,-410.007"/>
</g>
<!-- Node13 -->
<g id="node13" class="node"><title>Node13</title>
<g id="a_node13"><a xlink:href="../../de/d4e/rle__open__f_8c.html#a84fda810ae9b9bde82a6391d0b264ead" target="_top" xlink:title="my_popen">
<polygon fill="white" stroke="black" points="610,-494.5 610,-513.5 676,-513.5 676,-494.5 610,-494.5"/>
<text text-anchor="middle" x="643" y="-501.5" font-family="Helvetica,sans-Serif" font-size="10.00">my_popen</text>
</a>
</g>
</g>
<!-- Node12&#45;&gt;Node13 -->
<g id="edge16" class="edge"><title>Node12&#45;&gt;Node13</title>
<path fill="none" stroke="midnightblue" d="M574.043,-504C582.523,-504 591.255,-504 599.518,-504"/>
<polygon fill="midnightblue" stroke="midnightblue" points="599.678,-507.5 609.678,-504 599.678,-500.5 599.678,-507.5"/>
</g>
<!-- Node14&#45;&gt;Node2 -->
<g id="edge20" class="edge"><title>Node14&#45;&gt;Node2</title>
<path fill="none" stroke="midnightblue" d="M133.53,-285.551C150.672,-307.098 192.55,-358.578 211,-371 214.058,-373.059 217.366,-374.924 220.783,-376.607"/>
<polygon fill="midnightblue" stroke="midnightblue" points="219.425,-379.833 229.988,-380.646 222.237,-373.423 219.425,-379.833"/>
</g>
<!-- Node14&#45;&gt;Node4 -->
<g id="edge37" class="edge"><title>Node14&#45;&gt;Node4</title>
<path fill="none" stroke="midnightblue" d="M150.572,-271.599C159.455,-268.822 168.81,-264.312 175,-257 226.023,-196.725 149.763,-132.864 211,-83 269.551,-35.3227 483.497,-67.3765 574,-122 602.625,-139.277 623.008,-173.614 633.61,-195.103"/>
<polygon fill="midnightblue" stroke="midnightblue" points="630.479,-196.671 637.905,-204.228 636.813,-193.689 630.479,-196.671"/>
</g>
<!-- Node14&#45;&gt;Node6 -->
<g id="edge29" class="edge"><title>Node14&#45;&gt;Node6</title>
<path fill="none" stroke="midnightblue" d="M128.682,-285.758C136.38,-311.611 161.249,-381.752 211,-409 343.34,-481.48 534.297,-428.12 609.663,-402.091"/>
<polygon fill="midnightblue" stroke="midnightblue" points="610.832,-405.39 619.099,-398.764 608.504,-398.789 610.832,-405.39"/>
</g>
<!-- Node14&#45;&gt;Node7 -->
<g id="edge21" class="edge"><title>Node14&#45;&gt;Node7</title>
<path fill="none" stroke="midnightblue" d="M150.677,-268.974C167.514,-264.555 190.409,-259.273 211,-257 258.71,-251.733 271.449,-250.451 319,-257 379.342,-265.311 447.006,-286.9 486.98,-300.994"/>
<polygon fill="midnightblue" stroke="midnightblue" points="485.93,-304.336 496.524,-304.403 488.284,-297.744 485.93,-304.336"/>
</g>
<!-- Node15 -->
<g id="node15" class="node"><title>Node15</title>
<g id="a_node15"><a xlink:href="../../db/d53/rle__getrow_8c.html#a619b27463c26e0a4a3d9648a9869ee52" target="_top" xlink:title="rle_get_setup">
<polygon fill="white" stroke="black" points="355,-119.5 355,-138.5 436,-138.5 436,-119.5 355,-119.5"/>
<text text-anchor="middle" x="395.5" y="-126.5" font-family="Helvetica,sans-Serif" font-size="10.00">rle_get_setup</text>
</a>
</g>
</g>
<!-- Node14&#45;&gt;Node15 -->
<g id="edge22" class="edge"><title>Node14&#45;&gt;Node15</title>
<path fill="none" stroke="midnightblue" d="M150.717,-271.426C159.511,-268.632 168.766,-264.154 175,-257 220.606,-204.657 156.546,-148.064 211,-105 256.651,-68.8981 329.577,-95.9055 368.319,-114.785"/>
<polygon fill="midnightblue" stroke="midnightblue" points="366.891,-117.985 377.395,-119.367 370.045,-111.736 366.891,-117.985"/>
</g>
<!-- Node17 -->
<g id="node17" class="node"><title>Node17</title>
<g id="a_node17"><a xlink:href="../../db/d53/rle__getrow_8c.html#a0e01db41714fa588d5458fed1fd0dd55" target="_top" xlink:title="rle_debug">
<polygon fill="white" stroke="black" points="233.5,-152.5 233.5,-171.5 296.5,-171.5 296.5,-152.5 233.5,-152.5"/>
<text text-anchor="middle" x="265" y="-159.5" font-family="Helvetica,sans-Serif" font-size="10.00">rle_debug</text>
</a>
</g>
</g>
<!-- Node14&#45;&gt;Node17 -->
<g id="edge28" class="edge"><title>Node14&#45;&gt;Node17</title>
<path fill="none" stroke="midnightblue" d="M150.716,-270.441C159.202,-267.557 168.252,-263.276 175,-257 202.369,-231.546 183.307,-206.1 211,-181 214.84,-177.52 219.362,-174.666 224.12,-172.329"/>
<polygon fill="midnightblue" stroke="midnightblue" points="225.559,-175.521 233.441,-168.442 222.864,-169.06 225.559,-175.521"/>
</g>
<!-- Node18 -->
<g id="node18" class="node"><title>Node18</title>
<g id="a_node18"><a xlink:href="../../dc/d11/getami_8c.html#a8f31580e06aae736fd6f1ed3c414ed94" target="_top" xlink:title="buildmap">
<polygon fill="white" stroke="black" points="236,-114.5 236,-133.5 294,-133.5 294,-114.5 236,-114.5"/>
<text text-anchor="middle" x="265" y="-121.5" font-family="Helvetica,sans-Serif" font-size="10.00">buildmap</text>
</a>
</g>
</g>
<!-- Node14&#45;&gt;Node18 -->
<g id="edge30" class="edge"><title>Node14&#45;&gt;Node18</title>
<path fill="none" stroke="midnightblue" d="M150.697,-271.097C159.383,-268.269 168.571,-263.855 175,-257 211.349,-218.246 174.156,-181.284 211,-143 215.255,-138.578 220.611,-135.183 226.272,-132.576"/>
<polygon fill="midnightblue" stroke="midnightblue" points="227.846,-135.721 235.945,-128.891 225.354,-129.18 227.846,-135.721"/>
</g>
<!-- Node19 -->
<g id="node19" class="node"><title>Node19</title>
<g id="a_node19"><a xlink:href="../../db/d53/rle__getrow_8c.html#a3602e1158189cba5e5b0f9b983cba776" target="_top" xlink:title="rle_getrow">
<polygon fill="white" stroke="black" points="231.5,-190.5 231.5,-209.5 298.5,-209.5 298.5,-190.5 231.5,-190.5"/>
<text text-anchor="middle" x="265" y="-197.5" font-family="Helvetica,sans-Serif" font-size="10.00">rle_getrow</text>
</a>
</g>
</g>
<!-- Node14&#45;&gt;Node19 -->
<g id="edge31" class="edge"><title>Node14&#45;&gt;Node19</title>
<path fill="none" stroke="midnightblue" d="M150.777,-268.429C158.809,-265.45 167.56,-261.622 175,-257 193.437,-245.546 192.887,-235.96 211,-224 216.72,-220.223 223.132,-216.762 229.466,-213.715"/>
<polygon fill="midnightblue" stroke="midnightblue" points="230.95,-216.885 238.602,-209.558 228.051,-210.514 230.95,-216.885"/>
</g>
<!-- Node22 -->
<g id="node22" class="node"><title>Node22</title>
<g id="a_node22"><a xlink:href="../../d9/d2a/rle__putrow_8c.html#ade53266831a9d8fda9234cbac857ebb4" target="_top" xlink:title="rgb_to_bw">
<polygon fill="white" stroke="black" points="232.5,-342.5 232.5,-361.5 297.5,-361.5 297.5,-342.5 232.5,-342.5"/>
<text text-anchor="middle" x="265" y="-349.5" font-family="Helvetica,sans-Serif" font-size="10.00">rgb_to_bw</text>
</a>
</g>
</g>
<!-- Node14&#45;&gt;Node22 -->
<g id="edge34" class="edge"><title>Node14&#45;&gt;Node22</title>
<path fill="none" stroke="midnightblue" d="M138.081,-285.51C154.051,-297.743 183.401,-319.068 211,-333 215.036,-335.037 219.343,-336.958 223.692,-338.739"/>
<polygon fill="midnightblue" stroke="midnightblue" points="222.602,-342.07 233.191,-342.403 225.121,-335.539 222.602,-342.07"/>
</g>
<!-- Node23 -->
<g id="node23" class="node"><title>Node23</title>
<g id="a_node23"><a xlink:href="../../d3/d46/get4d_8c.html#aa4284bc4db55e0ba540d7f84dd36279a" target="_top" xlink:title="pack_rect_scanline">
<polygon fill="white" stroke="black" points="211,-304.5 211,-323.5 319,-323.5 319,-304.5 211,-304.5"/>
<text text-anchor="middle" x="265" y="-311.5" font-family="Helvetica,sans-Serif" font-size="10.00">pack_rect_scanline</text>
</a>
</g>
</g>
<!-- Node14&#45;&gt;Node23 -->
<g id="edge35" class="edge"><title>Node14&#45;&gt;Node23</title>
<path fill="none" stroke="midnightblue" d="M150.672,-282.794C169.783,-288.056 196.764,-295.486 219.605,-301.775"/>
<polygon fill="midnightblue" stroke="midnightblue" points="218.864,-305.201 229.434,-304.482 220.722,-298.453 218.864,-305.201"/>
</g>
<!-- Node24 -->
<g id="node24" class="node"><title>Node24</title>
<g id="a_node24"><a xlink:href="../../d3/d46/get4d_8c.html#acbd3b1052fde00c68c2b50fdc90af1fd" target="_top" xlink:title="pack_rgb_scanline">
<polygon fill="white" stroke="black" points="212.5,-266.5 212.5,-285.5 317.5,-285.5 317.5,-266.5 212.5,-266.5"/>
<text text-anchor="middle" x="265" y="-273.5" font-family="Helvetica,sans-Serif" font-size="10.00">pack_rgb_scanline</text>
</a>
</g>
</g>
<!-- Node14&#45;&gt;Node24 -->
<g id="edge36" class="edge"><title>Node14&#45;&gt;Node24</title>
<path fill="none" stroke="midnightblue" d="M150.672,-276C165.128,-276 184.086,-276 202.35,-276"/>
<polygon fill="midnightblue" stroke="midnightblue" points="202.392,-279.5 212.392,-276 202.392,-272.5 202.392,-279.5"/>
</g>
<!-- Node15&#45;&gt;Node3 -->
<g id="edge23" class="edge"><title>Node15&#45;&gt;Node3</title>
<path fill="none" stroke="midnightblue" d="M419.865,-138.505C425.381,-141.21 431.082,-144.412 436,-148 454.793,-161.713 453.642,-171.709 472,-186 478.261,-190.874 485.473,-195.428 492.437,-199.389"/>
<polygon fill="midnightblue" stroke="midnightblue" points="491.207,-202.704 501.666,-204.397 494.546,-196.552 491.207,-202.704"/>
</g>
<!-- Node15&#45;&gt;Node4 -->
<g id="edge26" class="edge"><title>Node15&#45;&gt;Node4</title>
<path fill="none" stroke="midnightblue" d="M436.198,-126.046C473.529,-124.889 530.087,-127.404 574,-148 596.91,-158.745 616.838,-180.404 629.097,-195.983"/>
<polygon fill="midnightblue" stroke="midnightblue" points="626.575,-198.452 635.393,-204.325 632.162,-194.235 626.575,-198.452"/>
</g>
<!-- Node15&#45;&gt;Node6 -->
<g id="edge25" class="edge"><title>Node15&#45;&gt;Node6</title>
<path fill="none" stroke="midnightblue" d="M423.343,-138.631C427.969,-141.159 432.429,-144.255 436,-148 464.31,-177.694 445.176,-201.958 472,-233 506.686,-273.141 535.106,-258.921 574,-295 598.664,-317.878 619.912,-350.988 631.818,-371.469"/>
<polygon fill="midnightblue" stroke="midnightblue" points="628.91,-373.435 636.887,-380.408 634.999,-369.983 628.91,-373.435"/>
</g>
<!-- Node15&#45;&gt;Node7 -->
<g id="edge24" class="edge"><title>Node15&#45;&gt;Node7</title>
<path fill="none" stroke="midnightblue" d="M424.599,-138.691C428.883,-141.177 432.901,-144.243 436,-148 476.06,-196.566 433.845,-234.923 472,-285 476.29,-290.631 482.013,-295.361 488.053,-299.259"/>
<polygon fill="midnightblue" stroke="midnightblue" points="486.582,-302.449 496.999,-304.382 490.061,-296.375 486.582,-302.449"/>
</g>
<!-- Node16 -->
<g id="node16" class="node"><title>Node16</title>
<g id="a_node16"><a xlink:href="../../db/d53/rle__getrow_8c.html#a0ea68aa2ebeef9d4cade7282553b03d6" target="_top" xlink:title="vax_gshort">
<polygon fill="white" stroke="black" points="488.5,-157.5 488.5,-176.5 557.5,-176.5 557.5,-157.5 488.5,-157.5"/>
<text text-anchor="middle" x="523" y="-164.5" font-family="Helvetica,sans-Serif" font-size="10.00">vax_gshort</text>
</a>
</g>
</g>
<!-- Node15&#45;&gt;Node16 -->
<g id="edge27" class="edge"><title>Node15&#45;&gt;Node16</title>
<path fill="none" stroke="midnightblue" d="M428.169,-138.589C444.073,-143.404 463.54,-149.299 480.611,-154.468"/>
<polygon fill="midnightblue" stroke="midnightblue" points="479.756,-157.866 490.341,-157.414 481.785,-151.166 479.756,-157.866"/>
</g>
<!-- Node20 -->
<g id="node20" class="node"><title>Node20</title>
<g id="a_node20"><a xlink:href="../../db/d53/rle__getrow_8c.html#a61ac0da96b0dd8bc3cbc98afcd9b5c44" target="_top" xlink:title="bfill">
<polygon fill="white" stroke="black" points="379.5,-195.5 379.5,-214.5 411.5,-214.5 411.5,-195.5 379.5,-195.5"/>
<text text-anchor="middle" x="395.5" y="-202.5" font-family="Helvetica,sans-Serif" font-size="10.00">bfill</text>
</a>
</g>
</g>
<!-- Node19&#45;&gt;Node20 -->
<g id="edge32" class="edge"><title>Node19&#45;&gt;Node20</title>
<path fill="none" stroke="midnightblue" d="M298.758,-201.275C320.592,-202.124 348.871,-203.225 369.022,-204.009"/>
<polygon fill="midnightblue" stroke="midnightblue" points="369.16,-207.517 379.288,-204.408 369.432,-200.522 369.16,-207.517"/>
</g>
<!-- Node21 -->
<g id="node21" class="node"><title>Node21</title>
<g id="a_node21"><a xlink:href="../../d8/d7c/rle__getskip_8c.html#af6b1e1dc0867e9340f90668591c7c5b3" target="_top" xlink:title="rle_getskip">
<polygon fill="white" stroke="black" points="361.5,-157.5 361.5,-176.5 429.5,-176.5 429.5,-157.5 361.5,-157.5"/>
<text text-anchor="middle" x="395.5" y="-164.5" font-family="Helvetica,sans-Serif" font-size="10.00">rle_getskip</text>
</a>
</g>
</g>
<!-- Node19&#45;&gt;Node21 -->
<g id="edge33" class="edge"><title>Node19&#45;&gt;Node21</title>
<path fill="none" stroke="midnightblue" d="M298.758,-191.587C314.795,-187.469 334.31,-182.457 351.527,-178.036"/>
<polygon fill="midnightblue" stroke="midnightblue" points="352.539,-181.39 361.355,-175.512 350.798,-174.61 352.539,-181.39"/>
</g>
</g>
</svg>
