<?xml version="1.0" encoding="UTF-8" standalone="no"?>
<!DOCTYPE svg PUBLIC "-//W3C//DTD SVG 1.1//EN"
 "http://www.w3.org/Graphics/SVG/1.1/DTD/svg11.dtd">
<!-- Generated by graphviz version 2.38.0 (20140413.2041)
 -->
<!-- Title: wedge.c Pages: 1 -->
<svg width="195pt" height="140pt"
 viewBox="0.00 0.00 194.50 140.00" xmlns="http://www.w3.org/2000/svg" xmlns:xlink="http://www.w3.org/1999/xlink">
<g id="graph0" class="graph" transform="scale(1 1) rotate(0) translate(4 136)">
<title>wedge.c</title>
<polygon fill="white" stroke="none" points="-4,4 -4,-136 190.5,-136 190.5,4 -4,4"/>
<!-- Node1 -->
<g id="node1" class="node"><title>Node1</title>
<polygon fill="#bfbfbf" stroke="black" points="24.5,-112.5 24.5,-131.5 80.5,-131.5 80.5,-112.5 24.5,-112.5"/>
<text text-anchor="middle" x="52.5" y="-119.5" font-family="Helvetica,sans-Serif" font-size="10.00">wedge.c</text>
</g>
<!-- Node2 -->
<g id="node2" class="node"><title>Node2</title>
<polygon fill="white" stroke="#bfbfbf" points="0,-0.5 0,-19.5 47,-19.5 47,-0.5 0,-0.5"/>
<text text-anchor="middle" x="23.5" y="-7.5" font-family="Helvetica,sans-Serif" font-size="10.00">stdio.h</text>
</g>
<!-- Node1&#45;&gt;Node2 -->
<g id="edge1" class="edge"><title>Node1&#45;&gt;Node2</title>
<path fill="none" stroke="midnightblue" d="M45.1349,-112.397C38.3059,-103.82 28.6014,-89.9477 24.5,-76 20.0674,-60.9259 20.1602,-43.0237 21.1672,-29.8275"/>
<polygon fill="midnightblue" stroke="midnightblue" points="24.6743,-29.9327 22.1968,-19.6317 17.7097,-29.2294 24.6743,-29.9327"/>
</g>
<!-- Node3 -->
<g id="node3" class="node"><title>Node3</title>
<polygon fill="white" stroke="#bfbfbf" points="34,-56.5 34,-75.5 71,-75.5 71,-56.5 34,-56.5"/>
<text text-anchor="middle" x="52.5" y="-63.5" font-family="Helvetica,sans-Serif" font-size="10.00">rle.h</text>
</g>
<!-- Node1&#45;&gt;Node3 -->
<g id="edge2" class="edge"><title>Node1&#45;&gt;Node3</title>
<path fill="none" stroke="midnightblue" d="M52.5,-112.083C52.5,-105.006 52.5,-94.8611 52.5,-85.9865"/>
<polygon fill="midnightblue" stroke="midnightblue" points="56.0001,-85.751 52.5,-75.7511 49.0001,-85.7511 56.0001,-85.751"/>
</g>
<!-- Node4 -->
<g id="node4" class="node"><title>Node4</title>
<g id="a_node4"><a xlink:href="../../d0/db3/qcr_8h.html" target="_top" xlink:title="qcr.h">
<polygon fill="white" stroke="black" points="89.5,-56.5 89.5,-75.5 129.5,-75.5 129.5,-56.5 89.5,-56.5"/>
<text text-anchor="middle" x="109.5" y="-63.5" font-family="Helvetica,sans-Serif" font-size="10.00">qcr.h</text>
</a>
</g>
</g>
<!-- Node1&#45;&gt;Node4 -->
<g id="edge3" class="edge"><title>Node1&#45;&gt;Node4</title>
<path fill="none" stroke="midnightblue" d="M61.658,-112.324C70.0015,-104.42 82.5324,-92.5482 92.6769,-82.9377"/>
<polygon fill="midnightblue" stroke="midnightblue" points="95.3229,-85.2522 100.175,-75.8339 90.5087,-80.1705 95.3229,-85.2522"/>
</g>
<!-- Node4&#45;&gt;Node2 -->
<g id="edge6" class="edge"><title>Node4&#45;&gt;Node2</title>
<path fill="none" stroke="midnightblue" d="M95.6826,-56.324C82.267,-47.9002 61.6759,-34.9709 45.9144,-25.0741"/>
<polygon fill="midnightblue" stroke="midnightblue" points="47.6132,-22.0081 37.2831,-19.6545 43.8908,-27.9364 47.6132,-22.0081"/>
</g>
<!-- Node5 -->
<g id="node5" class="node"><title>Node5</title>
<polygon fill="white" stroke="#bfbfbf" points="74.5,-0.5 74.5,-19.5 124.5,-19.5 124.5,-0.5 74.5,-0.5"/>
<text text-anchor="middle" x="99.5" y="-7.5" font-family="Helvetica,sans-Serif" font-size="10.00">errno.h</text>
</g>
<!-- Node4&#45;&gt;Node5 -->
<g id="edge4" class="edge"><title>Node4&#45;&gt;Node5</title>
<path fill="none" stroke="midnightblue" d="M107.849,-56.083C106.524,-48.9272 104.618,-38.6353 102.961,-29.6911"/>
<polygon fill="midnightblue" stroke="midnightblue" points="106.383,-28.9466 101.121,-19.7511 99.5001,-30.2212 106.383,-28.9466"/>
</g>
<!-- Node6 -->
<g id="node6" class="node"><title>Node6</title>
<polygon fill="white" stroke="#bfbfbf" points="142.5,-0.5 142.5,-19.5 186.5,-19.5 186.5,-0.5 142.5,-0.5"/>
<text text-anchor="middle" x="164.5" y="-7.5" font-family="Helvetica,sans-Serif" font-size="10.00">fcntl.h</text>
</g>
<!-- Node4&#45;&gt;Node6 -->
<g id="edge5" class="edge"><title>Node4&#45;&gt;Node6</title>
<path fill="none" stroke="midnightblue" d="M118.582,-56.083C126.671,-48.1409 138.695,-36.3354 148.41,-26.7973"/>
<polygon fill="midnightblue" stroke="midnightblue" points="150.903,-29.2545 155.587,-19.7511 145.999,-24.2595 150.903,-29.2545"/>
</g>
</g>
</svg>
