<?xml version="1.0" encoding="UTF-8" standalone="no"?>
<!DOCTYPE svg PUBLIC "-//W3C//DTD SVG 1.1//EN"
 "http://www.w3.org/Graphics/SVG/1.1/DTD/svg11.dtd">
<!-- Generated by graphviz version 2.38.0 (20140413.2041)
 -->
<!-- Title: mallocNd.c Pages: 1 -->
<svg width="191pt" height="84pt"
 viewBox="0.00 0.00 191.00 84.00" xmlns="http://www.w3.org/2000/svg" xmlns:xlink="http://www.w3.org/1999/xlink">
<g id="graph0" class="graph" transform="scale(1 1) rotate(0) translate(4 80)">
<title>mallocNd.c</title>
<polygon fill="white" stroke="none" points="-4,4 -4,-80 187,-80 187,4 -4,4"/>
<!-- Node1 -->
<g id="node1" class="node"><title>Node1</title>
<polygon fill="#bfbfbf" stroke="black" points="56.5,-56.5 56.5,-75.5 124.5,-75.5 124.5,-56.5 56.5,-56.5"/>
<text text-anchor="middle" x="90.5" y="-63.5" font-family="Helvetica,sans-Serif" font-size="10.00">mallocNd.c</text>
</g>
<!-- Node2 -->
<g id="node2" class="node"><title>Node2</title>
<polygon fill="white" stroke="#bfbfbf" points="0,-0.5 0,-19.5 47,-19.5 47,-0.5 0,-0.5"/>
<text text-anchor="middle" x="23.5" y="-7.5" font-family="Helvetica,sans-Serif" font-size="10.00">stdio.h</text>
</g>
<!-- Node1&#45;&gt;Node2 -->
<g id="edge1" class="edge"><title>Node1&#45;&gt;Node2</title>
<path fill="none" stroke="midnightblue" d="M79.7353,-56.324C69.7339,-48.2631 54.6135,-36.0765 42.5695,-26.3695"/>
<polygon fill="midnightblue" stroke="midnightblue" points="44.4429,-23.3841 34.4606,-19.8339 40.0502,-28.8343 44.4429,-23.3841"/>
</g>
<!-- Node3 -->
<g id="node3" class="node"><title>Node3</title>
<polygon fill="white" stroke="#bfbfbf" points="65,-0.5 65,-19.5 116,-19.5 116,-0.5 65,-0.5"/>
<text text-anchor="middle" x="90.5" y="-7.5" font-family="Helvetica,sans-Serif" font-size="10.00">string.h</text>
</g>
<!-- Node1&#45;&gt;Node3 -->
<g id="edge2" class="edge"><title>Node1&#45;&gt;Node3</title>
<path fill="none" stroke="midnightblue" d="M90.5,-56.083C90.5,-49.0059 90.5,-38.8611 90.5,-29.9865"/>
<polygon fill="midnightblue" stroke="midnightblue" points="94.0001,-29.751 90.5,-19.7511 87.0001,-29.7511 94.0001,-29.751"/>
</g>
<!-- Node4 -->
<g id="node4" class="node"><title>Node4</title>
<polygon fill="white" stroke="#bfbfbf" points="134,-0.5 134,-19.5 183,-19.5 183,-0.5 134,-0.5"/>
<text text-anchor="middle" x="158.5" y="-7.5" font-family="Helvetica,sans-Serif" font-size="10.00">stdlib.h</text>
</g>
<!-- Node1&#45;&gt;Node4 -->
<g id="edge3" class="edge"><title>Node1&#45;&gt;Node4</title>
<path fill="none" stroke="midnightblue" d="M101.425,-56.324C111.675,-48.1849 127.221,-35.8395 139.501,-26.0874"/>
<polygon fill="midnightblue" stroke="midnightblue" points="141.721,-28.7937 147.376,-19.8339 137.368,-23.3119 141.721,-28.7937"/>
</g>
</g>
</svg>
