<?xml version="1.0" encoding="UTF-8" standalone="no"?>
<!DOCTYPE svg PUBLIC "-//W3C//DTD SVG 1.1//EN"
 "http://www.w3.org/Graphics/SVG/1.1/DTD/svg11.dtd">
<!-- Generated by graphviz version 2.38.0 (20140413.2041)
 -->
<!-- Title: main Pages: 1 -->
<!--zoomable 484 -->
<svg id="main" version="1.1" xmlns="http://www.w3.org/2000/svg" xmlns:xlink="http://www.w3.org/1999/xlink" xml:space="preserve" onload="init(evt)">
<style type="text/css"><![CDATA[
.edge:hover path { stroke: red; }
.edge:hover polygon { stroke: red; fill: red; }
]]></style>
<script type="text/javascript"><![CDATA[
var edges = document.getElementsByTagName('g');
if (edges && edges.length) {
  for (var i=0;i<edges.length;i++) {
    if (edges[i].id.substr(0,4)=='edge') {
      edges[i].setAttribute('class','edge');
    }
  }
}
]]></script>
        <defs>
                <circle id="rim" cx="0" cy="0" r="7"/>
                <circle id="rim2" cx="0" cy="0" r="3.5"/>
                <g id="zoomPlus">
                        <use xlink:href="#rim" fill="#404040">
                                <set attributeName="fill" to="#808080" begin="zoomplus.mouseover" end="zoomplus.mouseout"/>
                        </use>
                        <path d="M-4,0h8M0,-4v8" fill="none" stroke="white" stroke-width="1.5" pointer-events="none"/>
                </g>
                <g id="zoomMin">
                        <use xlink:href="#rim" fill="#404040">
                                <set attributeName="fill" to="#808080" begin="zoomminus.mouseover" end="zoomminus.mouseout"/>
                        </use>
                        <path d="M-4,0h8" fill="none" stroke="white" stroke-width="1.5" pointer-events="none"/>
                </g>
                <g id="dirArrow">
                        <path fill="none" stroke="white" stroke-width="1.5" d="M0,-3.0v7 M-2.5,-0.5L0,-3.0L2.5,-0.5"/>
                </g>
               <g id="resetDef">
                       <use xlink:href="#rim2" fill="#404040">
                               <set attributeName="fill" to="#808080" begin="reset.mouseover" end="reset.mouseout"/>
                       </use>
               </g>
        </defs>

<script type="text/javascript">
var viewWidth = 777;
var viewHeight = 484;
var sectionId = 'dynsection-1';
</script>
<script xlink:href="../../svgpan.js"/>
<svg id="graph" class="graph">
<g id="viewport">
<title>main</title>
<polygon fill="white" stroke="none" points="-4,4 -4,-480 773,-480 773,4 -4,4"/>
<!-- Node1 -->
<g id="node1" class="node"><title>Node1</title>
<polygon fill="#bfbfbf" stroke="black" points="0,-304.5 0,-323.5 39,-323.5 39,-304.5 0,-304.5"/>
<text text-anchor="middle" x="19.5" y="-311.5" font-family="Helvetica,sans-Serif" font-size="10.00">main</text>
</g>
<!-- Node2 -->
<g id="node2" class="node"><title>Node2</title>
<g id="a_node2"><a xlink:href="../../d4/db0/scanargs_8c.html#a7ea6d702c0484056c8504d6ce7fede08" target="_top" xlink:title="scanargs">
<polygon fill="white" stroke="black" points="81.5,-446.5 81.5,-465.5 141.5,-465.5 141.5,-446.5 81.5,-446.5"/>
<text text-anchor="middle" x="111.5" y="-453.5" font-family="Helvetica,sans-Serif" font-size="10.00">scanargs</text>
</a>
</g>
</g>
<!-- Node1&#45;&gt;Node2 -->
<g id="edge1" class="edge"><title>Node1&#45;&gt;Node2</title>
<path fill="none" stroke="midnightblue" d="M23.448,-323.679C30.1071,-344.432 47.8757,-394.075 75,-428 78.5538,-432.445 82.942,-436.618 87.4069,-440.316"/>
<polygon fill="midnightblue" stroke="midnightblue" points="85.2978,-443.11 95.3629,-446.418 89.5576,-437.555 85.2978,-443.11"/>
</g>
<!-- Node4 -->
<g id="node4" class="node"><title>Node4</title>
<g id="a_node4"><a xlink:href="../../d2/df3/rle__hdr_8c.html#a8ba0e5b11d1e39ab7227f1686e676c86" target="_top" xlink:title="rle_hdr_init">
<polygon fill="white" stroke="black" points="322.5,-304.5 322.5,-323.5 392.5,-323.5 392.5,-304.5 322.5,-304.5"/>
<text text-anchor="middle" x="357.5" y="-311.5" font-family="Helvetica,sans-Serif" font-size="10.00">rle_hdr_init</text>
</a>
</g>
</g>
<!-- Node1&#45;&gt;Node4 -->
<g id="edge3" class="edge"><title>Node1&#45;&gt;Node4</title>
<path fill="none" stroke="midnightblue" d="M39.0434,-314C90.7074,-314 237.364,-314 311.874,-314"/>
<polygon fill="midnightblue" stroke="midnightblue" points="312.324,-317.5 322.324,-314 312.324,-310.5 312.324,-317.5"/>
</g>
<!-- Node9 -->
<g id="node9" class="node"><title>Node9</title>
<g id="a_node9"><a xlink:href="../../d2/df3/rle__hdr_8c.html#a82e79385f2d45cc3b80ce0f4f369eae5" target="_top" xlink:title="rle_names">
<polygon fill="white" stroke="black" points="575.5,-304.5 575.5,-323.5 641.5,-323.5 641.5,-304.5 575.5,-304.5"/>
<text text-anchor="middle" x="608.5" y="-311.5" font-family="Helvetica,sans-Serif" font-size="10.00">rle_names</text>
</a>
</g>
</g>
<!-- Node1&#45;&gt;Node9 -->
<g id="edge12" class="edge"><title>Node1&#45;&gt;Node9</title>
<path fill="none" stroke="midnightblue" d="M39.2554,-319.689C75.9168,-330.29 159.812,-352 232,-352 232,-352 232,-352 358.5,-352 431.782,-352 515.822,-335.716 565.133,-324.468"/>
<polygon fill="midnightblue" stroke="midnightblue" points="566.162,-327.822 575.112,-322.152 564.579,-321.004 566.162,-327.822"/>
</g>
<!-- Node10 -->
<g id="node10" class="node"><title>Node10</title>
<g id="a_node10"><a xlink:href="../../d8/d30/cmd__name_8c.html#a271249070fdd12c176777c77d76f888f" target="_top" xlink:title="cmd_name">
<polygon fill="white" stroke="black" points="77.5,-0.5 77.5,-19.5 145.5,-19.5 145.5,-0.5 77.5,-0.5"/>
<text text-anchor="middle" x="111.5" y="-7.5" font-family="Helvetica,sans-Serif" font-size="10.00">cmd_name</text>
</a>
</g>
</g>
<!-- Node1&#45;&gt;Node10 -->
<g id="edge13" class="edge"><title>Node1&#45;&gt;Node10</title>
<path fill="none" stroke="midnightblue" d="M21.3796,-304.431C25.5409,-260.744 44.3366,-80.3681 75,-34 76.989,-30.9923 79.4973,-28.2633 82.2571,-25.8151"/>
<polygon fill="midnightblue" stroke="midnightblue" points="84.57,-28.4558 90.4782,-19.6613 80.3752,-22.8519 84.57,-28.4558"/>
</g>
<!-- Node11 -->
<g id="node11" class="node"><title>Node11</title>
<g id="a_node11"><a xlink:href="../../de/d4e/rle__open__f_8c.html#a89733a45961817885603ae01210290b7" target="_top" xlink:title="rle_open_f">
<polygon fill="white" stroke="black" points="77.5,-399.5 77.5,-418.5 145.5,-418.5 145.5,-399.5 77.5,-399.5"/>
<text text-anchor="middle" x="111.5" y="-406.5" font-family="Helvetica,sans-Serif" font-size="10.00">rle_open_f</text>
</a>
</g>
</g>
<!-- Node1&#45;&gt;Node11 -->
<g id="edge14" class="edge"><title>Node1&#45;&gt;Node11</title>
<path fill="none" stroke="midnightblue" d="M29.7926,-323.809C45.0293,-339.892 75.509,-372.065 94.3415,-391.944"/>
<polygon fill="midnightblue" stroke="midnightblue" points="91.9737,-394.534 101.392,-399.386 97.0554,-389.719 91.9737,-394.534"/>
</g>
<!-- Node14 -->
<g id="node14" class="node"><title>Node14</title>
<g id="a_node14"><a xlink:href="../../d5/da8/rletovcr_8c.html#aba26f4d31d659f02d1106070249cda49" target="_top" xlink:title="read_image">
<polygon fill="white" stroke="black" points="75,-228.5 75,-247.5 148,-247.5 148,-228.5 75,-228.5"/>
<text text-anchor="middle" x="111.5" y="-235.5" font-family="Helvetica,sans-Serif" font-size="10.00">read_image</text>
</a>
</g>
</g>
<!-- Node1&#45;&gt;Node14 -->
<g id="edge19" class="edge"><title>Node1&#45;&gt;Node14</title>
<path fill="none" stroke="midnightblue" d="M31.8986,-304.375C46.776,-291.811 73.0377,-269.635 91.0819,-254.398"/>
<polygon fill="midnightblue" stroke="midnightblue" points="93.8118,-256.673 99.194,-247.547 89.2955,-251.325 93.8118,-256.673"/>
</g>
<!-- Node22 -->
<g id="node22" class="node"><title>Node22</title>
<g id="a_node22"><a xlink:href="../../d5/da8/rletovcr_8c.html#a8e0a8445473bad4e80f36f3556b5f3ed" target="_top" xlink:title="write_image">
<polygon fill="white" stroke="black" points="436.5,-38.5 436.5,-57.5 510.5,-57.5 510.5,-38.5 436.5,-38.5"/>
<text text-anchor="middle" x="473.5" y="-45.5" font-family="Helvetica,sans-Serif" font-size="10.00">write_image</text>
</a>
</g>
</g>
<!-- Node1&#45;&gt;Node22 -->
<g id="edge35" class="edge"><title>Node1&#45;&gt;Node22</title>
<path fill="none" stroke="midnightblue" d="M24.9843,-304.047C40.9637,-269.833 98.7572,-156.337 184,-105 260.122,-59.1555 366.092,-49.301 426.137,-47.6898"/>
<polygon fill="midnightblue" stroke="midnightblue" points="426.512,-51.1831 436.44,-47.4827 426.372,-44.1845 426.512,-51.1831"/>
</g>
<!-- Node3 -->
<g id="node3" class="node"><title>Node3</title>
<g id="a_node3"><a xlink:href="../../d4/db0/scanargs_8c.html#a862219039664df6eb3cfced58addf830" target="_top" xlink:title="_do_scanargs">
<polygon fill="white" stroke="black" points="191,-456.5 191,-475.5 275,-475.5 275,-456.5 191,-456.5"/>
<text text-anchor="middle" x="233" y="-463.5" font-family="Helvetica,sans-Serif" font-size="10.00">_do_scanargs</text>
</a>
</g>
</g>
<!-- Node2&#45;&gt;Node3 -->
<g id="edge2" class="edge"><title>Node2&#45;&gt;Node3</title>
<path fill="none" stroke="midnightblue" d="M141.733,-458.446C153.516,-459.432 167.464,-460.599 180.827,-461.718"/>
<polygon fill="midnightblue" stroke="midnightblue" points="180.63,-465.213 190.887,-462.56 181.213,-458.238 180.63,-465.213"/>
</g>
<!-- Node5 -->
<g id="node5" class="node"><title>Node5</title>
<g id="a_node5"><a xlink:href="../../d2/df3/rle__hdr_8c.html#a16c4da6201b3b8cf55127b9ca968d253" target="_top" xlink:title="rle_hdr_clear">
<polygon fill="white" stroke="black" points="568.5,-152.5 568.5,-171.5 648.5,-171.5 648.5,-152.5 568.5,-152.5"/>
<text text-anchor="middle" x="608.5" y="-159.5" font-family="Helvetica,sans-Serif" font-size="10.00">rle_hdr_clear</text>
</a>
</g>
</g>
<!-- Node4&#45;&gt;Node5 -->
<g id="edge4" class="edge"><title>Node4&#45;&gt;Node5</title>
<path fill="none" stroke="midnightblue" d="M365.131,-304.378C372.876,-293.095 386.028,-273.796 397,-257 413.387,-231.916 408.457,-217.188 433,-200 469.794,-174.232 520.831,-165.459 558.206,-162.698"/>
<polygon fill="midnightblue" stroke="midnightblue" points="558.597,-166.181 568.362,-162.07 558.164,-159.194 558.597,-166.181"/>
</g>
<!-- Node7 -->
<g id="node7" class="node"><title>Node7</title>
<g id="a_node7"><a xlink:href="../../d2/df3/rle__hdr_8c.html#afc916e29aea8788e0878ca315ff69821" target="_top" xlink:title="rle_hdr_cp">
<polygon fill="white" stroke="black" points="439.5,-304.5 439.5,-323.5 507.5,-323.5 507.5,-304.5 439.5,-304.5"/>
<text text-anchor="middle" x="473.5" y="-311.5" font-family="Helvetica,sans-Serif" font-size="10.00">rle_hdr_cp</text>
</a>
</g>
</g>
<!-- Node4&#45;&gt;Node7 -->
<g id="edge6" class="edge"><title>Node4&#45;&gt;Node7</title>
<path fill="none" stroke="midnightblue" d="M392.704,-307.755C404.168,-307.22 417.105,-307.11 429.173,-307.426"/>
<polygon fill="midnightblue" stroke="midnightblue" points="429.371,-310.935 439.495,-307.812 429.633,-303.94 429.371,-310.935"/>
</g>
<!-- Node6 -->
<g id="node6" class="node"><title>Node6</title>
<g id="a_node6"><a xlink:href="../../d0/dcc/rletorla_8c.html#aafde19f7d36ca163a143579c1b125b6d" target="_top" xlink:title="free">
<polygon fill="white" stroke="black" points="718.5,-171.5 718.5,-190.5 753.5,-190.5 753.5,-171.5 718.5,-171.5"/>
<text text-anchor="middle" x="736" y="-178.5" font-family="Helvetica,sans-Serif" font-size="10.00">free</text>
</a>
</g>
</g>
<!-- Node5&#45;&gt;Node6 -->
<g id="edge5" class="edge"><title>Node5&#45;&gt;Node6</title>
<path fill="none" stroke="midnightblue" d="M648.521,-167.908C667.947,-170.848 690.93,-174.328 708.319,-176.961"/>
<polygon fill="midnightblue" stroke="midnightblue" points="707.929,-180.441 718.341,-178.478 708.977,-173.52 707.929,-180.441"/>
</g>
<!-- Node7&#45;&gt;Node4 -->
<g id="edge7" class="edge"><title>Node7&#45;&gt;Node4</title>
<path fill="none" stroke="midnightblue" d="M439.495,-320.188C428.023,-320.758 414.963,-320.895 402.731,-320.597"/>
<polygon fill="midnightblue" stroke="midnightblue" points="402.82,-317.098 392.704,-320.245 402.575,-324.094 402.82,-317.098"/>
</g>
<!-- Node8 -->
<g id="node8" class="node"><title>Node8</title>
<g id="a_node8"><a xlink:href="../../d0/dcc/rletorla_8c.html#ab7e36af3707843f77cc5b4e831c2fa6d" target="_top" xlink:title="malloc">
<polygon fill="white" stroke="black" points="712.5,-323.5 712.5,-342.5 759.5,-342.5 759.5,-323.5 712.5,-323.5"/>
<text text-anchor="middle" x="736" y="-330.5" font-family="Helvetica,sans-Serif" font-size="10.00">malloc</text>
</a>
</g>
</g>
<!-- Node7&#45;&gt;Node8 -->
<g id="edge8" class="edge"><title>Node7&#45;&gt;Node8</title>
<path fill="none" stroke="midnightblue" d="M505.031,-323.505C518.647,-327.269 534.977,-331.139 550,-333 602.944,-339.56 665.068,-337.607 702.17,-335.427"/>
<polygon fill="midnightblue" stroke="midnightblue" points="702.632,-338.905 712.392,-334.782 702.192,-331.918 702.632,-338.905"/>
</g>
<!-- Node7&#45;&gt;Node9 -->
<g id="edge9" class="edge"><title>Node7&#45;&gt;Node9</title>
<path fill="none" stroke="midnightblue" d="M507.718,-314C525.036,-314 546.411,-314 564.929,-314"/>
<polygon fill="midnightblue" stroke="midnightblue" points="565.164,-317.5 575.164,-314 565.164,-310.5 565.164,-317.5"/>
</g>
<!-- Node9&#45;&gt;Node6 -->
<g id="edge10" class="edge"><title>Node9&#45;&gt;Node6</title>
<path fill="none" stroke="midnightblue" d="M619.446,-304.493C631.054,-293.317 650.734,-274.119 667,-257 685.727,-237.29 706.455,-213.88 720.045,-198.3"/>
<polygon fill="midnightblue" stroke="midnightblue" points="722.885,-200.368 726.803,-190.524 717.602,-195.776 722.885,-200.368"/>
</g>
<!-- Node9&#45;&gt;Node8 -->
<g id="edge11" class="edge"><title>Node9&#45;&gt;Node8</title>
<path fill="none" stroke="midnightblue" d="M641.819,-318.893C660.362,-321.7 683.582,-325.216 702.204,-328.035"/>
<polygon fill="midnightblue" stroke="midnightblue" points="701.88,-331.526 712.291,-329.562 702.928,-324.604 701.88,-331.526"/>
</g>
<!-- Node12 -->
<g id="node12" class="node"><title>Node12</title>
<g id="a_node12"><a xlink:href="../../de/d4e/rle__open__f_8c.html#a5a0e62a00f907fce26e93b2f72adb2b0" target="_top" xlink:title="rle_open_f_noexit">
<polygon fill="white" stroke="black" points="557.5,-418.5 557.5,-437.5 659.5,-437.5 659.5,-418.5 557.5,-418.5"/>
<text text-anchor="middle" x="608.5" y="-425.5" font-family="Helvetica,sans-Serif" font-size="10.00">rle_open_f_noexit</text>
</a>
</g>
</g>
<!-- Node11&#45;&gt;Node12 -->
<g id="edge15" class="edge"><title>Node11&#45;&gt;Node12</title>
<path fill="none" stroke="midnightblue" d="M145.747,-410.276C227.982,-413.433 441.859,-421.642 547.15,-425.684"/>
<polygon fill="midnightblue" stroke="midnightblue" points="547.171,-429.187 557.298,-426.073 547.44,-422.192 547.171,-429.187"/>
</g>
<!-- Node12&#45;&gt;Node6 -->
<g id="edge18" class="edge"><title>Node12&#45;&gt;Node6</title>
<path fill="none" stroke="midnightblue" d="M615.956,-418.248C627.056,-401.291 650.184,-365.107 667,-333 691.37,-286.471 715.4,-229.425 727.297,-200.226"/>
<polygon fill="midnightblue" stroke="midnightblue" points="730.605,-201.383 731.11,-190.8 724.116,-198.758 730.605,-201.383"/>
</g>
<!-- Node12&#45;&gt;Node8 -->
<g id="edge17" class="edge"><title>Node12&#45;&gt;Node8</title>
<path fill="none" stroke="midnightblue" d="M638.771,-418.477C648.209,-414.717 658.436,-409.874 667,-404 688.614,-389.175 708.766,-366.588 721.432,-350.886"/>
<polygon fill="midnightblue" stroke="midnightblue" points="724.231,-352.988 727.661,-342.964 718.728,-348.662 724.231,-352.988"/>
</g>
<!-- Node13 -->
<g id="node13" class="node"><title>Node13</title>
<g id="a_node13"><a xlink:href="../../de/d4e/rle__open__f_8c.html#a84fda810ae9b9bde82a6391d0b264ead" target="_top" xlink:title="my_popen">
<polygon fill="white" stroke="black" points="703,-418.5 703,-437.5 769,-437.5 769,-418.5 703,-418.5"/>
<text text-anchor="middle" x="736" y="-425.5" font-family="Helvetica,sans-Serif" font-size="10.00">my_popen</text>
</a>
</g>
</g>
<!-- Node12&#45;&gt;Node13 -->
<g id="edge16" class="edge"><title>Node12&#45;&gt;Node13</title>
<path fill="none" stroke="midnightblue" d="M659.823,-428C670.665,-428 682.024,-428 692.532,-428"/>
<polygon fill="midnightblue" stroke="midnightblue" points="692.706,-431.5 702.706,-428 692.706,-424.5 692.706,-431.5"/>
</g>
<!-- Node14&#45;&gt;Node6 -->
<g id="edge34" class="edge"><title>Node14&#45;&gt;Node6</title>
<path fill="none" stroke="midnightblue" d="M143.927,-228.422C215.255,-207.295 395.221,-157.425 550,-143 601.776,-138.174 616.679,-129.893 667,-143 683.85,-147.389 700.951,-156.975 713.789,-165.42"/>
<polygon fill="midnightblue" stroke="midnightblue" points="712.093,-168.502 722.318,-171.277 716.056,-162.731 712.093,-168.502"/>
</g>
<!-- Node14&#45;&gt;Node8 -->
<g id="edge30" class="edge"><title>Node14&#45;&gt;Node8</title>
<path fill="none" stroke="midnightblue" d="M128.009,-247.596C161.322,-267.647 242.804,-313.724 318,-333 468.411,-371.557 512.761,-366.901 667,-349 678.714,-347.64 691.339,-345.005 702.494,-342.26"/>
<polygon fill="midnightblue" stroke="midnightblue" points="703.448,-345.629 712.256,-339.741 701.699,-338.851 703.448,-345.629"/>
</g>
<!-- Node15 -->
<g id="node15" class="node"><title>Node15</title>
<g id="a_node15"><a xlink:href="../../db/d53/rle__getrow_8c.html#a2d56ca99b896abbcb4d2f3f97c93a3ce" target="_top" xlink:title="rle_get_setup_ok">
<polygon fill="white" stroke="black" points="184,-228.5 184,-247.5 282,-247.5 282,-228.5 184,-228.5"/>
<text text-anchor="middle" x="233" y="-235.5" font-family="Helvetica,sans-Serif" font-size="10.00">rle_get_setup_ok</text>
</a>
</g>
</g>
<!-- Node14&#45;&gt;Node15 -->
<g id="edge20" class="edge"><title>Node14&#45;&gt;Node15</title>
<path fill="none" stroke="midnightblue" d="M148.03,-238C156.14,-238 164.966,-238 173.749,-238"/>
<polygon fill="midnightblue" stroke="midnightblue" points="173.995,-241.5 183.995,-238 173.995,-234.5 173.995,-241.5"/>
</g>
<!-- Node19 -->
<g id="node19" class="node"><title>Node19</title>
<g id="a_node19"><a xlink:href="../../db/d53/rle__getrow_8c.html#a3602e1158189cba5e5b0f9b983cba776" target="_top" xlink:title="rle_getrow">
<polygon fill="white" stroke="black" points="199.5,-114.5 199.5,-133.5 266.5,-133.5 266.5,-114.5 199.5,-114.5"/>
<text text-anchor="middle" x="233" y="-121.5" font-family="Helvetica,sans-Serif" font-size="10.00">rle_getrow</text>
</a>
</g>
</g>
<!-- Node14&#45;&gt;Node19 -->
<g id="edge31" class="edge"><title>Node14&#45;&gt;Node19</title>
<path fill="none" stroke="midnightblue" d="M118.093,-228.463C128.904,-210.694 154.245,-172.138 184,-148 188.432,-144.405 193.491,-141.156 198.623,-138.294"/>
<polygon fill="midnightblue" stroke="midnightblue" points="200.525,-141.251 207.82,-133.568 197.326,-135.025 200.525,-141.251"/>
</g>
<!-- Node15&#45;&gt;Node4 -->
<g id="edge21" class="edge"><title>Node15&#45;&gt;Node4</title>
<path fill="none" stroke="midnightblue" d="M255.521,-247.64C263.979,-251.715 273.645,-256.734 282,-262 299.148,-272.807 301.377,-278.401 318,-290 322.33,-293.021 327.032,-296.106 331.614,-299.013"/>
<polygon fill="midnightblue" stroke="midnightblue" points="329.809,-302.013 340.149,-304.323 333.507,-296.069 329.809,-302.013"/>
</g>
<!-- Node15&#45;&gt;Node9 -->
<g id="edge22" class="edge"><title>Node15&#45;&gt;Node9</title>
<path fill="none" stroke="midnightblue" d="M274.96,-247.532C288.628,-250.641 303.953,-254.05 318,-257 404.839,-275.235 426.966,-277.72 514,-295 530.793,-298.334 549.267,-302.073 565.328,-305.347"/>
<polygon fill="midnightblue" stroke="midnightblue" points="564.994,-308.851 575.492,-307.422 566.394,-301.992 564.994,-308.851"/>
</g>
<!-- Node16 -->
<g id="node16" class="node"><title>Node16</title>
<g id="a_node16"><a xlink:href="../../d7/d24/rle__error_8c.html#af931d686cf3ca715c9b900527f0961c0" target="_top" xlink:title="rle_get_error">
<polygon fill="white" stroke="black" points="318,-228.5 318,-247.5 397,-247.5 397,-228.5 318,-228.5"/>
<text text-anchor="middle" x="357.5" y="-235.5" font-family="Helvetica,sans-Serif" font-size="10.00">rle_get_error</text>
</a>
</g>
</g>
<!-- Node15&#45;&gt;Node16 -->
<g id="edge23" class="edge"><title>Node15&#45;&gt;Node16</title>
<path fill="none" stroke="midnightblue" d="M282.064,-238C290.451,-238 299.184,-238 307.594,-238"/>
<polygon fill="midnightblue" stroke="midnightblue" points="307.646,-241.5 317.646,-238 307.646,-234.5 307.646,-241.5"/>
</g>
<!-- Node17 -->
<g id="node17" class="node"><title>Node17</title>
<g id="a_node17"><a xlink:href="../../db/d53/rle__getrow_8c.html#a619b27463c26e0a4a3d9648a9869ee52" target="_top" xlink:title="rle_get_setup">
<polygon fill="white" stroke="black" points="433,-209.5 433,-228.5 514,-228.5 514,-209.5 433,-209.5"/>
<text text-anchor="middle" x="473.5" y="-216.5" font-family="Helvetica,sans-Serif" font-size="10.00">rle_get_setup</text>
</a>
</g>
</g>
<!-- Node15&#45;&gt;Node17 -->
<g id="edge24" class="edge"><title>Node15&#45;&gt;Node17</title>
<path fill="none" stroke="midnightblue" d="M268.037,-228.492C283.199,-224.728 301.358,-220.859 318,-219 352.815,-215.112 392.318,-215.191 422.665,-216.201"/>
<polygon fill="midnightblue" stroke="midnightblue" points="422.869,-219.711 432.995,-216.592 423.134,-212.716 422.869,-219.711"/>
</g>
<!-- Node17&#45;&gt;Node5 -->
<g id="edge25" class="edge"><title>Node17&#45;&gt;Node5</title>
<path fill="none" stroke="midnightblue" d="M496.264,-209.373C511.325,-202.739 531.846,-193.755 550,-186 558.079,-182.548 566.82,-178.871 574.989,-175.459"/>
<polygon fill="midnightblue" stroke="midnightblue" points="576.357,-178.681 584.242,-171.605 573.665,-172.219 576.357,-178.681"/>
</g>
<!-- Node17&#45;&gt;Node6 -->
<g id="edge28" class="edge"><title>Node17&#45;&gt;Node6</title>
<path fill="none" stroke="midnightblue" d="M514.064,-213.229C567.694,-205.405 662.044,-191.642 708.136,-184.919"/>
<polygon fill="midnightblue" stroke="midnightblue" points="708.854,-188.351 718.244,-183.444 707.844,-181.424 708.854,-188.351"/>
</g>
<!-- Node17&#45;&gt;Node8 -->
<g id="edge27" class="edge"><title>Node17&#45;&gt;Node8</title>
<path fill="none" stroke="midnightblue" d="M491.544,-228.519C506.623,-236.711 529.371,-248.517 550,-257 600.565,-277.795 616.897,-273.115 667,-295 682.158,-301.621 698.355,-310.59 711.137,-318.151"/>
<polygon fill="midnightblue" stroke="midnightblue" points="709.405,-321.194 719.777,-323.355 713.017,-315.198 709.405,-321.194"/>
</g>
<!-- Node17&#45;&gt;Node9 -->
<g id="edge26" class="edge"><title>Node17&#45;&gt;Node9</title>
<path fill="none" stroke="midnightblue" d="M482.89,-228.903C495.953,-243.818 522.52,-272.189 550,-290 555.977,-293.874 562.683,-297.343 569.348,-300.358"/>
<polygon fill="midnightblue" stroke="midnightblue" points="568.421,-303.767 578.994,-304.447 571.153,-297.322 568.421,-303.767"/>
</g>
<!-- Node18 -->
<g id="node18" class="node"><title>Node18</title>
<g id="a_node18"><a xlink:href="../../db/d53/rle__getrow_8c.html#a0ea68aa2ebeef9d4cade7282553b03d6" target="_top" xlink:title="vax_gshort">
<polygon fill="white" stroke="black" points="574,-228.5 574,-247.5 643,-247.5 643,-228.5 574,-228.5"/>
<text text-anchor="middle" x="608.5" y="-235.5" font-family="Helvetica,sans-Serif" font-size="10.00">vax_gshort</text>
</a>
</g>
</g>
<!-- Node17&#45;&gt;Node18 -->
<g id="edge29" class="edge"><title>Node17&#45;&gt;Node18</title>
<path fill="none" stroke="midnightblue" d="M514.044,-224.649C529.622,-226.875 547.575,-229.439 563.556,-231.722"/>
<polygon fill="midnightblue" stroke="midnightblue" points="563.334,-235.226 573.729,-233.176 564.324,-228.296 563.334,-235.226"/>
</g>
<!-- Node20 -->
<g id="node20" class="node"><title>Node20</title>
<g id="a_node20"><a xlink:href="../../db/d53/rle__getrow_8c.html#a61ac0da96b0dd8bc3cbc98afcd9b5c44" target="_top" xlink:title="bfill">
<polygon fill="white" stroke="black" points="341.5,-76.5 341.5,-95.5 373.5,-95.5 373.5,-76.5 341.5,-76.5"/>
<text text-anchor="middle" x="357.5" y="-83.5" font-family="Helvetica,sans-Serif" font-size="10.00">bfill</text>
</a>
</g>
</g>
<!-- Node19&#45;&gt;Node20 -->
<g id="edge32" class="edge"><title>Node19&#45;&gt;Node20</title>
<path fill="none" stroke="midnightblue" d="M264.912,-114.411C285.58,-108 312.413,-99.6761 331.685,-93.6977"/>
<polygon fill="midnightblue" stroke="midnightblue" points="332.75,-97.032 341.264,-90.7263 330.676,-90.3463 332.75,-97.032"/>
</g>
<!-- Node21 -->
<g id="node21" class="node"><title>Node21</title>
<g id="a_node21"><a xlink:href="../../d8/d7c/rle__getskip_8c.html#af6b1e1dc0867e9340f90668591c7c5b3" target="_top" xlink:title="rle_getskip">
<polygon fill="white" stroke="black" points="323.5,-114.5 323.5,-133.5 391.5,-133.5 391.5,-114.5 323.5,-114.5"/>
<text text-anchor="middle" x="357.5" y="-121.5" font-family="Helvetica,sans-Serif" font-size="10.00">rle_getskip</text>
</a>
</g>
</g>
<!-- Node19&#45;&gt;Node21 -->
<g id="edge33" class="edge"><title>Node19&#45;&gt;Node21</title>
<path fill="none" stroke="midnightblue" d="M266.506,-124C280.789,-124 297.768,-124 313.109,-124"/>
<polygon fill="midnightblue" stroke="midnightblue" points="313.415,-127.5 323.415,-124 313.415,-120.5 313.415,-127.5"/>
</g>
<!-- Node23 -->
<g id="node23" class="node"><title>Node23</title>
<g id="a_node23"><a xlink:href="../../d5/da8/rletovcr_8c.html#a8e79a75ce42a1efbc88f7c2e7e01201a" target="_top" xlink:title="WriteVICARHeader">
<polygon fill="white" stroke="black" points="554.5,-76.5 554.5,-95.5 662.5,-95.5 662.5,-76.5 554.5,-76.5"/>
<text text-anchor="middle" x="608.5" y="-83.5" font-family="Helvetica,sans-Serif" font-size="10.00">WriteVICARHeader</text>
</a>
</g>
</g>
<!-- Node22&#45;&gt;Node23 -->
<g id="edge36" class="edge"><title>Node22&#45;&gt;Node23</title>
<path fill="none" stroke="midnightblue" d="M508.062,-57.589C525.073,-62.4494 545.932,-68.4091 564.145,-73.6127"/>
<polygon fill="midnightblue" stroke="midnightblue" points="563.372,-77.0321 573.949,-76.4141 565.296,-70.3014 563.372,-77.0321"/>
</g>
<!-- Node24 -->
<g id="node24" class="node"><title>Node24</title>
<g id="a_node24"><a xlink:href="../../d5/da8/rletovcr_8c.html#ab237a2906a0119fbf06153147b792ba2" target="_top" xlink:title="WriteVICARScanLine">
<polygon fill="white" stroke="black" points="550,-38.5 550,-57.5 667,-57.5 667,-38.5 550,-38.5"/>
<text text-anchor="middle" x="608.5" y="-45.5" font-family="Helvetica,sans-Serif" font-size="10.00">WriteVICARScanLine</text>
</a>
</g>
</g>
<!-- Node22&#45;&gt;Node24 -->
<g id="edge39" class="edge"><title>Node22&#45;&gt;Node24</title>
<path fill="none" stroke="midnightblue" d="M510.843,-48C519.899,-48 529.902,-48 539.938,-48"/>
<polygon fill="midnightblue" stroke="midnightblue" points="539.95,-51.5001 549.95,-48 539.95,-44.5001 539.95,-51.5001"/>
</g>
<!-- Node23&#45;&gt;Node6 -->
<g id="edge38" class="edge"><title>Node23&#45;&gt;Node6</title>
<path fill="none" stroke="midnightblue" d="M638.771,-95.5229C648.209,-99.2827 658.436,-104.126 667,-110 688.614,-124.825 708.766,-147.412 721.432,-163.114"/>
<polygon fill="midnightblue" stroke="midnightblue" points="718.728,-165.338 727.661,-171.036 724.231,-161.012 718.728,-165.338"/>
</g>
<!-- Node23&#45;&gt;Node8 -->
<g id="edge37" class="edge"><title>Node23&#45;&gt;Node8</title>
<path fill="none" stroke="midnightblue" d="M622.119,-95.641C634.996,-106.066 654.775,-123.789 667,-143 702.812,-199.276 722.968,-276.939 730.947,-313.049"/>
<polygon fill="midnightblue" stroke="midnightblue" points="727.609,-314.18 733.114,-323.233 734.456,-312.723 727.609,-314.18"/>
</g>
</g>
</svg>
        <g id="navigator" transform="translate(0 0)" fill="#404254">
                <rect fill="#f2f5e9" fill-opacity="0.5" stroke="#606060" stroke-width=".5" x="0" y="0" width="60" height="60"/>
                <use id="zoomplus" xlink:href="#zoomPlus" x="17" y="9" onmousedown="handleZoom(evt,'in')"/>
                <use id="zoomminus" xlink:href="#zoomMin" x="42" y="9" onmousedown="handleZoom(evt,'out')"/>
                <use id="reset" xlink:href="#resetDef" x="30" y="36" onmousedown="handleReset()"/>
                <g id="arrowUp" xlink:href="#dirArrow" transform="translate(30 24)" onmousedown="handlePan(0,-1)">
                  <use xlink:href="#rim" fill="#404040">
                        <set attributeName="fill" to="#808080" begin="arrowUp.mouseover" end="arrowUp.mouseout"/>
                  </use>
                  <path fill="none" stroke="white" stroke-width="1.5" d="M0,-3.0v7 M-2.5,-0.5L0,-3.0L2.5,-0.5"/>
                </g>
                <g id="arrowRight" xlink:href="#dirArrow" transform="rotate(90) translate(36 -43)" onmousedown="handlePan(1,0)">
                  <use xlink:href="#rim" fill="#404040">
                        <set attributeName="fill" to="#808080" begin="arrowRight.mouseover" end="arrowRight.mouseout"/>
                  </use>
                  <path fill="none" stroke="white" stroke-width="1.5" d="M0,-3.0v7 M-2.5,-0.5L0,-3.0L2.5,-0.5"/>
                </g>
                <g id="arrowDown" xlink:href="#dirArrow" transform="rotate(180) translate(-30 -48)" onmousedown="handlePan(0,1)">
                  <use xlink:href="#rim" fill="#404040">
                        <set attributeName="fill" to="#808080" begin="arrowDown.mouseover" end="arrowDown.mouseout"/>
                  </use>
                  <path fill="none" stroke="white" stroke-width="1.5" d="M0,-3.0v7 M-2.5,-0.5L0,-3.0L2.5,-0.5"/>
                </g>
                <g id="arrowLeft" xlink:href="#dirArrow" transform="rotate(270) translate(-36 17)" onmousedown="handlePan(-1,0)">
                  <use xlink:href="#rim" fill="#404040">
                        <set attributeName="fill" to="#808080" begin="arrowLeft.mouseover" end="arrowLeft.mouseout"/>
                  </use>
                  <path fill="none" stroke="white" stroke-width="1.5" d="M0,-3.0v7 M-2.5,-0.5L0,-3.0L2.5,-0.5"/>
                </g>
        </g>
        <svg viewBox="0 0 15 15" width="100%" height="30px" preserveAspectRatio="xMaxYMin meet">
         <g id="arrow_out" transform="scale(0.3 0.3)">
          <a xlink:href="rletovcr_8c_afced8478b91af5c169926dfa4426333d_cgraph_org.svg" target="_base">
           <rect id="button" ry="5" rx="5" y="6" x="6" height="38" width="38"
                fill="#f2f5e9" fill-opacity="0.5" stroke="#606060" stroke-width="1.0"/>
           <path id="arrow"
             d="M 11.500037,31.436501 C 11.940474,20.09759 22.043105,11.32322 32.158766,21.979434 L 37.068811,17.246167 C 37.068811,17.246167 37.088388,32 37.088388,32 L 22.160133,31.978069 C 22.160133,31.978069 26.997745,27.140456 26.997745,27.140456 C 18.528582,18.264221 13.291696,25.230495 11.500037,31.436501 z"
             style="fill:#404040;"/>
          </a>
         </g>
        </svg>
</svg>
