<?xml version="1.0" encoding="UTF-8" standalone="no"?>
<!DOCTYPE svg PUBLIC "-//W3C//DTD SVG 1.1//EN"
 "http://www.w3.org/Graphics/SVG/1.1/DTD/svg11.dtd">
<!-- Generated by graphviz version 2.38.0 (20140413.2041)
 -->
<!-- Title: read_image Pages: 1 -->
<svg width="646pt" height="361pt"
 viewBox="0.00 0.00 646.00 361.20" xmlns="http://www.w3.org/2000/svg" xmlns:xlink="http://www.w3.org/1999/xlink">
<g id="graph0" class="graph" transform="scale(1 1) rotate(0) translate(4 357.199)">
<title>read_image</title>
<polygon fill="white" stroke="none" points="-4,4 -4,-357.199 642,-357.199 642,4 -4,4"/>
<!-- Node1 -->
<g id="node1" class="node"><title>Node1</title>
<polygon fill="#bfbfbf" stroke="black" points="0,-114.5 0,-133.5 73,-133.5 73,-114.5 0,-114.5"/>
<text text-anchor="middle" x="36.5" y="-121.5" font-family="Helvetica,sans-Serif" font-size="10.00">read_image</text>
</g>
<!-- Node2 -->
<g id="node2" class="node"><title>Node2</title>
<g id="a_node2"><a xlink:href="../../db/d53/rle__getrow_8c.html#a2d56ca99b896abbcb4d2f3f97c93a3ce" target="_top" xlink:title="rle_get_setup_ok">
<polygon fill="white" stroke="black" points="109,-152.5 109,-171.5 207,-171.5 207,-152.5 109,-152.5"/>
<text text-anchor="middle" x="158" y="-159.5" font-family="Helvetica,sans-Serif" font-size="10.00">rle_get_setup_ok</text>
</a>
</g>
</g>
<!-- Node1&#45;&gt;Node2 -->
<g id="edge1" class="edge"><title>Node1&#45;&gt;Node2</title>
<path fill="none" stroke="midnightblue" d="M67.6549,-133.589C82.6566,-138.359 100.988,-144.189 117.134,-149.323"/>
<polygon fill="midnightblue" stroke="midnightblue" points="116.264,-152.719 126.855,-152.414 118.386,-146.048 116.264,-152.719"/>
</g>
<!-- Node5 -->
<g id="node5" class="node"><title>Node5</title>
<g id="a_node5"><a xlink:href="../../d0/dcc/rletorla_8c.html#aafde19f7d36ca163a143579c1b125b6d" target="_top" xlink:title="free">
<polygon fill="white" stroke="black" points="597,-285.5 597,-304.5 632,-304.5 632,-285.5 597,-285.5"/>
<text text-anchor="middle" x="614.5" y="-292.5" font-family="Helvetica,sans-Serif" font-size="10.00">free</text>
</a>
</g>
</g>
<!-- Node1&#45;&gt;Node5 -->
<g id="edge23" class="edge"><title>Node1&#45;&gt;Node5</title>
<path fill="none" stroke="midnightblue" d="M41.7618,-133.507C61.8216,-176.657 151.342,-352 281.5,-352 281.5,-352 281.5,-352 399.5,-352 469.125,-352 489.568,-356.798 555,-333 569.189,-327.839 583.433,-318.693 594.312,-310.666"/>
<polygon fill="midnightblue" stroke="midnightblue" points="596.453,-313.435 602.251,-304.567 592.189,-307.884 596.453,-313.435"/>
</g>
<!-- Node7 -->
<g id="node7" class="node"><title>Node7</title>
<g id="a_node7"><a xlink:href="../../d0/dcc/rletorla_8c.html#ab7e36af3707843f77cc5b4e831c2fa6d" target="_top" xlink:title="malloc">
<polygon fill="white" stroke="black" points="591,-133.5 591,-152.5 638,-152.5 638,-133.5 591,-133.5"/>
<text text-anchor="middle" x="614.5" y="-140.5" font-family="Helvetica,sans-Serif" font-size="10.00">malloc</text>
</a>
</g>
</g>
<!-- Node1&#45;&gt;Node7 -->
<g id="edge19" class="edge"><title>Node1&#45;&gt;Node7</title>
<path fill="none" stroke="midnightblue" d="M73.1971,-114.898C120.496,-103.656 206.689,-86 281.5,-86 281.5,-86 281.5,-86 399.5,-86 466.809,-86 542.137,-112.656 583.039,-129.511"/>
<polygon fill="midnightblue" stroke="midnightblue" points="581.856,-132.81 592.43,-133.459 584.569,-126.357 581.856,-132.81"/>
</g>
<!-- Node12 -->
<g id="node12" class="node"><title>Node12</title>
<g id="a_node12"><a xlink:href="../../db/d53/rle__getrow_8c.html#a3602e1158189cba5e5b0f9b983cba776" target="_top" xlink:title="rle_getrow">
<polygon fill="white" stroke="black" points="124.5,-38.5 124.5,-57.5 191.5,-57.5 191.5,-38.5 124.5,-38.5"/>
<text text-anchor="middle" x="158" y="-45.5" font-family="Helvetica,sans-Serif" font-size="10.00">rle_getrow</text>
</a>
</g>
</g>
<!-- Node1&#45;&gt;Node12 -->
<g id="edge20" class="edge"><title>Node1&#45;&gt;Node12</title>
<path fill="none" stroke="midnightblue" d="M49.4749,-114.343C63.3436,-103.387 87.0971,-85.3152 109,-72 114.643,-68.5698 120.84,-65.1993 126.852,-62.1185"/>
<polygon fill="midnightblue" stroke="midnightblue" points="128.647,-65.1352 136.042,-57.5486 125.53,-58.8675 128.647,-65.1352"/>
</g>
<!-- Node3 -->
<g id="node3" class="node"><title>Node3</title>
<g id="a_node3"><a xlink:href="../../d2/df3/rle__hdr_8c.html#a8ba0e5b11d1e39ab7227f1686e676c86" target="_top" xlink:title="rle_hdr_init">
<polygon fill="white" stroke="black" points="247.5,-190.5 247.5,-209.5 317.5,-209.5 317.5,-190.5 247.5,-190.5"/>
<text text-anchor="middle" x="282.5" y="-197.5" font-family="Helvetica,sans-Serif" font-size="10.00">rle_hdr_init</text>
</a>
</g>
</g>
<!-- Node2&#45;&gt;Node3 -->
<g id="edge2" class="edge"><title>Node2&#45;&gt;Node3</title>
<path fill="none" stroke="midnightblue" d="M189.912,-171.589C205.29,-176.359 224.082,-182.189 240.633,-187.323"/>
<polygon fill="midnightblue" stroke="midnightblue" points="240.01,-190.794 250.598,-190.414 242.084,-184.108 240.01,-190.794"/>
</g>
<!-- Node8 -->
<g id="node8" class="node"><title>Node8</title>
<g id="a_node8"><a xlink:href="../../d2/df3/rle__hdr_8c.html#a82e79385f2d45cc3b80ce0f4f369eae5" target="_top" xlink:title="rle_names">
<polygon fill="white" stroke="black" points="482,-152.5 482,-171.5 548,-171.5 548,-152.5 482,-152.5"/>
<text text-anchor="middle" x="515" y="-159.5" font-family="Helvetica,sans-Serif" font-size="10.00">rle_names</text>
</a>
</g>
</g>
<!-- Node2&#45;&gt;Node8 -->
<g id="edge11" class="edge"><title>Node2&#45;&gt;Node8</title>
<path fill="none" stroke="midnightblue" d="M207.246,-162C277.067,-162 405.165,-162 471.571,-162"/>
<polygon fill="midnightblue" stroke="midnightblue" points="471.681,-165.5 481.681,-162 471.681,-158.5 471.681,-165.5"/>
</g>
<!-- Node9 -->
<g id="node9" class="node"><title>Node9</title>
<g id="a_node9"><a xlink:href="../../d7/d24/rle__error_8c.html#af931d686cf3ca715c9b900527f0961c0" target="_top" xlink:title="rle_get_error">
<polygon fill="white" stroke="black" points="243,-114.5 243,-133.5 322,-133.5 322,-114.5 243,-114.5"/>
<text text-anchor="middle" x="282.5" y="-121.5" font-family="Helvetica,sans-Serif" font-size="10.00">rle_get_error</text>
</a>
</g>
</g>
<!-- Node2&#45;&gt;Node9 -->
<g id="edge12" class="edge"><title>Node2&#45;&gt;Node9</title>
<path fill="none" stroke="midnightblue" d="M189.912,-152.411C205.29,-147.641 224.082,-141.811 240.633,-136.677"/>
<polygon fill="midnightblue" stroke="midnightblue" points="242.084,-139.892 250.598,-133.586 240.01,-133.206 242.084,-139.892"/>
</g>
<!-- Node10 -->
<g id="node10" class="node"><title>Node10</title>
<g id="a_node10"><a xlink:href="../../db/d53/rle__getrow_8c.html#a619b27463c26e0a4a3d9648a9869ee52" target="_top" xlink:title="rle_get_setup">
<polygon fill="white" stroke="black" points="358,-228.5 358,-247.5 439,-247.5 439,-228.5 358,-228.5"/>
<text text-anchor="middle" x="398.5" y="-235.5" font-family="Helvetica,sans-Serif" font-size="10.00">rle_get_setup</text>
</a>
</g>
</g>
<!-- Node2&#45;&gt;Node10 -->
<g id="edge13" class="edge"><title>Node2&#45;&gt;Node10</title>
<path fill="none" stroke="midnightblue" d="M169.463,-171.578C184.494,-184.721 213.633,-207.97 243,-219 276.527,-231.592 316.744,-236.239 347.74,-237.792"/>
<polygon fill="midnightblue" stroke="midnightblue" points="347.741,-241.295 357.876,-238.207 348.028,-234.301 347.741,-241.295"/>
</g>
<!-- Node4 -->
<g id="node4" class="node"><title>Node4</title>
<g id="a_node4"><a xlink:href="../../d2/df3/rle__hdr_8c.html#a16c4da6201b3b8cf55127b9ca968d253" target="_top" xlink:title="rle_hdr_clear">
<polygon fill="white" stroke="black" points="475,-304.5 475,-323.5 555,-323.5 555,-304.5 475,-304.5"/>
<text text-anchor="middle" x="515" y="-311.5" font-family="Helvetica,sans-Serif" font-size="10.00">rle_hdr_clear</text>
</a>
</g>
</g>
<!-- Node3&#45;&gt;Node4 -->
<g id="edge3" class="edge"><title>Node3&#45;&gt;Node4</title>
<path fill="none" stroke="midnightblue" d="M293.887,-209.603C307.667,-221.937 333.155,-243.372 358,-257 393.359,-276.395 436.646,-291.611 468.644,-301.426"/>
<polygon fill="midnightblue" stroke="midnightblue" points="468.028,-304.895 478.612,-304.421 470.042,-298.191 468.028,-304.895"/>
</g>
<!-- Node6 -->
<g id="node6" class="node"><title>Node6</title>
<g id="a_node6"><a xlink:href="../../d2/df3/rle__hdr_8c.html#afc916e29aea8788e0878ca315ff69821" target="_top" xlink:title="rle_hdr_cp">
<polygon fill="white" stroke="black" points="364.5,-190.5 364.5,-209.5 432.5,-209.5 432.5,-190.5 364.5,-190.5"/>
<text text-anchor="middle" x="398.5" y="-197.5" font-family="Helvetica,sans-Serif" font-size="10.00">rle_hdr_cp</text>
</a>
</g>
</g>
<!-- Node3&#45;&gt;Node6 -->
<g id="edge5" class="edge"><title>Node3&#45;&gt;Node6</title>
<path fill="none" stroke="midnightblue" d="M317.704,-193.755C329.168,-193.22 342.105,-193.11 354.173,-193.426"/>
<polygon fill="midnightblue" stroke="midnightblue" points="354.371,-196.935 364.495,-193.812 354.633,-189.94 354.371,-196.935"/>
</g>
<!-- Node4&#45;&gt;Node5 -->
<g id="edge4" class="edge"><title>Node4&#45;&gt;Node5</title>
<path fill="none" stroke="midnightblue" d="M555.095,-306.381C565.678,-304.319 576.893,-302.134 586.636,-300.235"/>
<polygon fill="midnightblue" stroke="midnightblue" points="587.385,-303.655 596.531,-298.307 586.046,-296.784 587.385,-303.655"/>
</g>
<!-- Node6&#45;&gt;Node3 -->
<g id="edge6" class="edge"><title>Node6&#45;&gt;Node3</title>
<path fill="none" stroke="midnightblue" d="M364.495,-206.188C353.023,-206.758 339.963,-206.895 327.731,-206.597"/>
<polygon fill="midnightblue" stroke="midnightblue" points="327.82,-203.098 317.704,-206.245 327.575,-210.094 327.82,-203.098"/>
</g>
<!-- Node6&#45;&gt;Node7 -->
<g id="edge7" class="edge"><title>Node6&#45;&gt;Node7</title>
<path fill="none" stroke="midnightblue" d="M408.1,-190.395C421.031,-176.757 446.969,-152.393 475,-143 509.722,-131.365 552.149,-133.573 580.824,-137.272"/>
<polygon fill="midnightblue" stroke="midnightblue" points="580.334,-140.737 590.727,-138.679 581.319,-133.807 580.334,-140.737"/>
</g>
<!-- Node6&#45;&gt;Node8 -->
<g id="edge8" class="edge"><title>Node6&#45;&gt;Node8</title>
<path fill="none" stroke="midnightblue" d="M428.393,-190.411C442.632,-185.686 460.001,-179.921 475.363,-174.823"/>
<polygon fill="midnightblue" stroke="midnightblue" points="476.728,-178.058 485.116,-171.586 474.523,-171.414 476.728,-178.058"/>
</g>
<!-- Node8&#45;&gt;Node5 -->
<g id="edge9" class="edge"><title>Node8&#45;&gt;Node5</title>
<path fill="none" stroke="midnightblue" d="M541.882,-171.673C546.611,-174.219 551.234,-177.311 555,-181 582.688,-208.118 599.784,-251.124 607.881,-275.833"/>
<polygon fill="midnightblue" stroke="midnightblue" points="604.573,-276.984 610.89,-285.49 611.257,-274.902 604.573,-276.984"/>
</g>
<!-- Node8&#45;&gt;Node7 -->
<g id="edge10" class="edge"><title>Node8&#45;&gt;Node7</title>
<path fill="none" stroke="midnightblue" d="M548.195,-155.726C558.679,-153.683 570.321,-151.414 580.838,-149.365"/>
<polygon fill="midnightblue" stroke="midnightblue" points="581.75,-152.753 590.896,-147.405 580.411,-145.882 581.75,-152.753"/>
</g>
<!-- Node10&#45;&gt;Node4 -->
<g id="edge14" class="edge"><title>Node10&#45;&gt;Node4</title>
<path fill="none" stroke="midnightblue" d="M412.997,-247.607C427.992,-258.207 452.996,-275.666 475,-290 479.546,-292.962 484.441,-296.05 489.174,-298.987"/>
<polygon fill="midnightblue" stroke="midnightblue" points="487.592,-302.123 497.945,-304.375 491.256,-296.158 487.592,-302.123"/>
</g>
<!-- Node10&#45;&gt;Node5 -->
<g id="edge17" class="edge"><title>Node10&#45;&gt;Node5</title>
<path fill="none" stroke="midnightblue" d="M435.319,-247.541C478.17,-258.954 548.897,-277.793 587.083,-287.964"/>
<polygon fill="midnightblue" stroke="midnightblue" points="586.376,-291.397 596.94,-290.589 588.178,-284.633 586.376,-291.397"/>
</g>
<!-- Node10&#45;&gt;Node7 -->
<g id="edge16" class="edge"><title>Node10&#45;&gt;Node7</title>
<path fill="none" stroke="midnightblue" d="M439.174,-241.318C472.264,-242.257 519.56,-239.206 555,-219 578.067,-205.848 595.096,-179.591 604.659,-161.659"/>
<polygon fill="midnightblue" stroke="midnightblue" points="607.805,-163.193 609.194,-152.689 601.558,-160.034 607.805,-163.193"/>
</g>
<!-- Node10&#45;&gt;Node8 -->
<g id="edge15" class="edge"><title>Node10&#45;&gt;Node8</title>
<path fill="none" stroke="midnightblue" d="M422.865,-228.495C428.381,-225.79 434.082,-222.588 439,-219 457.793,-205.287 456.241,-194.76 475,-181 477.201,-179.385 479.561,-177.847 481.991,-176.395"/>
<polygon fill="midnightblue" stroke="midnightblue" points="483.816,-179.387 490.934,-171.54 480.476,-173.235 483.816,-179.387"/>
</g>
<!-- Node11 -->
<g id="node11" class="node"><title>Node11</title>
<g id="a_node11"><a xlink:href="../../db/d53/rle__getrow_8c.html#a0ea68aa2ebeef9d4cade7282553b03d6" target="_top" xlink:title="vax_gshort">
<polygon fill="white" stroke="black" points="480.5,-190.5 480.5,-209.5 549.5,-209.5 549.5,-190.5 480.5,-190.5"/>
<text text-anchor="middle" x="515" y="-197.5" font-family="Helvetica,sans-Serif" font-size="10.00">vax_gshort</text>
</a>
</g>
</g>
<!-- Node10&#45;&gt;Node11 -->
<g id="edge18" class="edge"><title>Node10&#45;&gt;Node11</title>
<path fill="none" stroke="midnightblue" d="M428.393,-228.411C442.632,-223.686 460.001,-217.921 475.363,-212.823"/>
<polygon fill="midnightblue" stroke="midnightblue" points="476.728,-216.058 485.116,-209.586 474.523,-209.414 476.728,-216.058"/>
</g>
<!-- Node13 -->
<g id="node13" class="node"><title>Node13</title>
<g id="a_node13"><a xlink:href="../../db/d53/rle__getrow_8c.html#a61ac0da96b0dd8bc3cbc98afcd9b5c44" target="_top" xlink:title="bfill">
<polygon fill="white" stroke="black" points="266.5,-38.5 266.5,-57.5 298.5,-57.5 298.5,-38.5 266.5,-38.5"/>
<text text-anchor="middle" x="282.5" y="-45.5" font-family="Helvetica,sans-Serif" font-size="10.00">bfill</text>
</a>
</g>
</g>
<!-- Node12&#45;&gt;Node13 -->
<g id="edge21" class="edge"><title>Node12&#45;&gt;Node13</title>
<path fill="none" stroke="midnightblue" d="M191.506,-48C211.77,-48 237.463,-48 256.204,-48"/>
<polygon fill="midnightblue" stroke="midnightblue" points="256.342,-51.5001 266.342,-48 256.342,-44.5001 256.342,-51.5001"/>
</g>
<!-- Node14 -->
<g id="node14" class="node"><title>Node14</title>
<g id="a_node14"><a xlink:href="../../d8/d7c/rle__getskip_8c.html#af6b1e1dc0867e9340f90668591c7c5b3" target="_top" xlink:title="rle_getskip">
<polygon fill="white" stroke="black" points="248.5,-0.5 248.5,-19.5 316.5,-19.5 316.5,-0.5 248.5,-0.5"/>
<text text-anchor="middle" x="282.5" y="-7.5" font-family="Helvetica,sans-Serif" font-size="10.00">rle_getskip</text>
</a>
</g>
</g>
<!-- Node12&#45;&gt;Node14 -->
<g id="edge22" class="edge"><title>Node12&#45;&gt;Node14</title>
<path fill="none" stroke="midnightblue" d="M189.912,-38.411C205.29,-33.6406 224.082,-27.8112 240.633,-22.6771"/>
<polygon fill="midnightblue" stroke="midnightblue" points="242.084,-25.8916 250.598,-19.5859 240.01,-19.2059 242.084,-25.8916"/>
</g>
</g>
</svg>
