<?xml version="1.0" encoding="UTF-8" standalone="no"?>
<!DOCTYPE svg PUBLIC "-//W3C//DTD SVG 1.1//EN"
 "http://www.w3.org/Graphics/SVG/1.1/DTD/svg11.dtd">
<!-- Generated by graphviz version 2.38.0 (20140413.2041)
 -->
<!-- Title: rle_putrow Pages: 1 -->
<!--zoomable 522 -->
<svg id="main" version="1.1" xmlns="http://www.w3.org/2000/svg" xmlns:xlink="http://www.w3.org/1999/xlink" xml:space="preserve" onload="init(evt)">
<style type="text/css"><![CDATA[
.edge:hover path { stroke: red; }
.edge:hover polygon { stroke: red; fill: red; }
]]></style>
<script type="text/javascript"><![CDATA[
var edges = document.getElementsByTagName('g');
if (edges && edges.length) {
  for (var i=0;i<edges.length;i++) {
    if (edges[i].id.substr(0,4)=='edge') {
      edges[i].setAttribute('class','edge');
    }
  }
}
]]></script>
        <defs>
                <circle id="rim" cx="0" cy="0" r="7"/>
                <circle id="rim2" cx="0" cy="0" r="3.5"/>
                <g id="zoomPlus">
                        <use xlink:href="#rim" fill="#404040">
                                <set attributeName="fill" to="#808080" begin="zoomplus.mouseover" end="zoomplus.mouseout"/>
                        </use>
                        <path d="M-4,0h8M0,-4v8" fill="none" stroke="white" stroke-width="1.5" pointer-events="none"/>
                </g>
                <g id="zoomMin">
                        <use xlink:href="#rim" fill="#404040">
                                <set attributeName="fill" to="#808080" begin="zoomminus.mouseover" end="zoomminus.mouseout"/>
                        </use>
                        <path d="M-4,0h8" fill="none" stroke="white" stroke-width="1.5" pointer-events="none"/>
                </g>
                <g id="dirArrow">
                        <path fill="none" stroke="white" stroke-width="1.5" d="M0,-3.0v7 M-2.5,-0.5L0,-3.0L2.5,-0.5"/>
                </g>
               <g id="resetDef">
                       <use xlink:href="#rim2" fill="#404040">
                               <set attributeName="fill" to="#808080" begin="reset.mouseover" end="reset.mouseout"/>
                       </use>
               </g>
        </defs>

<script type="text/javascript">
var viewWidth = 292;
var viewHeight = 522;
var sectionId = 'dynsection-9';
</script>
<script xlink:href="../../svgpan.js"/>
<svg id="graph" class="graph">
<g id="viewport">
<title>rle_putrow</title>
<polygon fill="white" stroke="none" points="-4,4 -4,-518 288,-518 288,4 -4,4"/>
<!-- Node1 -->
<g id="node1" class="node"><title>Node1</title>
<polygon fill="#bfbfbf" stroke="black" points="0,-247.5 0,-266.5 66,-266.5 66,-247.5 0,-247.5"/>
<text text-anchor="middle" x="33" y="-254.5" font-family="Helvetica,sans-Serif" font-size="10.00">rle_putrow</text>
</g>
<!-- Node2 -->
<g id="node2" class="node"><title>Node2</title>
<g id="a_node2"><a xlink:href="../../dc/d7b/aliastorle_8c.html#a5c5fc7dc4eaef8488f188374657848c4" target="_top" xlink:title="write_rle">
<polygon fill="white" stroke="black" points="127,-494.5 127,-513.5 184,-513.5 184,-494.5 127,-494.5"/>
<text text-anchor="middle" x="155.5" y="-501.5" font-family="Helvetica,sans-Serif" font-size="10.00">write_rle</text>
</a>
</g>
</g>
<!-- Node1&#45;&gt;Node2 -->
<g id="edge1" class="edge"><title>Node1&#45;&gt;Node2</title>
<path fill="none" stroke="midnightblue" d="M34.2146,-276.856C35.7606,-320.403 45.5113,-425.172 102,-485 108.588,-491.977 117.932,-496.4 126.915,-499.2"/>
<polygon fill="midnightblue" stroke="midnightblue" points="37.7104,-276.637 33.9692,-266.725 30.7124,-276.806 37.7104,-276.637"/>
</g>
<!-- Node3 -->
<g id="node3" class="node"><title>Node3</title>
<g id="a_node3"><a xlink:href="../../d6/dcb/avg4_8c.html#ade521a0600ded19f1720b6f6df59b480" target="_top" xlink:title="main">
<polygon fill="white" stroke="black" points="136,-456.5 136,-475.5 175,-475.5 175,-456.5 136,-456.5"/>
<text text-anchor="middle" x="155.5" y="-463.5" font-family="Helvetica,sans-Serif" font-size="10.00">main</text>
</a>
</g>
</g>
<!-- Node1&#45;&gt;Node3 -->
<g id="edge2" class="edge"><title>Node1&#45;&gt;Node3</title>
<path fill="none" stroke="midnightblue" d="M35.6542,-277.136C39.8548,-315.407 54.2643,-399.095 102,-447 111.031,-456.063 124.707,-460.832 135.837,-463.325"/>
<polygon fill="midnightblue" stroke="midnightblue" points="39.1015,-276.422 34.6527,-266.807 32.1341,-277.098 39.1015,-276.422"/>
</g>
<!-- Node4 -->
<g id="node4" class="node"><title>Node4</title>
<g id="a_node4"><a xlink:href="../../d6/d0d/dvirle2_8c.html#aef451fde75e78970c60e8ef15d4a70e9" target="_top" xlink:title="WriteBuf">
<polygon fill="white" stroke="black" points="127.5,-418.5 127.5,-437.5 183.5,-437.5 183.5,-418.5 127.5,-418.5"/>
<text text-anchor="middle" x="155.5" y="-425.5" font-family="Helvetica,sans-Serif" font-size="10.00">WriteBuf</text>
</a>
</g>
</g>
<!-- Node1&#45;&gt;Node4 -->
<g id="edge3" class="edge"><title>Node1&#45;&gt;Node4</title>
<path fill="none" stroke="midnightblue" d="M37.6295,-276.637C44.5487,-308.701 62.5949,-372.387 102,-409 109.03,-415.532 118.474,-419.853 127.414,-422.697"/>
<polygon fill="midnightblue" stroke="midnightblue" points="41.0357,-275.822 35.6294,-266.711 34.1736,-277.205 41.0357,-275.822"/>
</g>
<!-- Node5 -->
<g id="node5" class="node"><title>Node5</title>
<g id="a_node5"><a xlink:href="../../dd/ddd/fant_8c.html#aaf3fae1a2961d5bcaeaece519f8928b2" target="_top" xlink:title="putraster">
<polygon fill="white" stroke="black" points="126,-380.5 126,-399.5 185,-399.5 185,-380.5 126,-380.5"/>
<text text-anchor="middle" x="155.5" y="-387.5" font-family="Helvetica,sans-Serif" font-size="10.00">putraster</text>
</a>
</g>
</g>
<!-- Node1&#45;&gt;Node5 -->
<g id="edge4" class="edge"><title>Node1&#45;&gt;Node5</title>
<path fill="none" stroke="midnightblue" d="M40.7742,-276.305C50.5424,-301.481 70.8989,-345.326 102,-371 108.877,-376.677 117.592,-380.728 125.935,-383.588"/>
<polygon fill="midnightblue" stroke="midnightblue" points="43.9952,-274.925 37.2356,-266.766 37.4322,-277.359 43.9952,-274.925"/>
</g>
<!-- Node6 -->
<g id="node6" class="node"><title>Node6</title>
<g id="a_node6"><a xlink:href="../../dc/d11/getami_8c.html#aa654afe741816fa93d1cd7e49ef583ec" target="_top" xlink:title="find_most_used">
<polygon fill="white" stroke="black" points="110,-342.5 110,-361.5 201,-361.5 201,-342.5 110,-342.5"/>
<text text-anchor="middle" x="155.5" y="-349.5" font-family="Helvetica,sans-Serif" font-size="10.00">find_most_used</text>
</a>
</g>
</g>
<!-- Node1&#45;&gt;Node6 -->
<g id="edge5" class="edge"><title>Node1&#45;&gt;Node6</title>
<path fill="none" stroke="midnightblue" d="M46.1255,-275.072C58.4061,-292.132 78.8511,-317.364 102,-333 107.623,-336.798 114.096,-339.939 120.534,-342.5"/>
<polygon fill="midnightblue" stroke="midnightblue" points="48.7704,-272.746 40.1776,-266.548 43.0298,-276.752 48.7704,-272.746"/>
</g>
<!-- Node8 -->
<g id="node8" class="node"><title>Node8</title>
<g id="a_node8"><a xlink:href="../../d1/dad/giftorle_8c.html#a4a32ad17d41944729fd2ecacccf68d07" target="_top" xlink:title="ReadRaster">
<polygon fill="white" stroke="black" points="118.5,-304.5 118.5,-323.5 192.5,-323.5 192.5,-304.5 118.5,-304.5"/>
<text text-anchor="middle" x="155.5" y="-311.5" font-family="Helvetica,sans-Serif" font-size="10.00">ReadRaster</text>
</a>
</g>
</g>
<!-- Node1&#45;&gt;Node8 -->
<g id="edge7" class="edge"><title>Node1&#45;&gt;Node8</title>
<path fill="none" stroke="midnightblue" d="M58.2079,-271.792C70.9752,-279.266 87.0526,-288.173 102,-295 109.495,-298.423 117.8,-301.667 125.552,-304.475"/>
<polygon fill="midnightblue" stroke="midnightblue" points="59.9445,-268.752 49.5598,-266.653 56.3684,-274.77 59.9445,-268.752"/>
</g>
<!-- Node9 -->
<g id="node9" class="node"><title>Node9</title>
<g id="a_node9"><a xlink:href="../../d5/d6d/mcut_8c.html#ae8f2544df07a04da1f08ffc3b430c6c0" target="_top" xlink:title="quantize_rle">
<polygon fill="white" stroke="black" points="118.5,-266.5 118.5,-285.5 192.5,-285.5 192.5,-266.5 118.5,-266.5"/>
<text text-anchor="middle" x="155.5" y="-273.5" font-family="Helvetica,sans-Serif" font-size="10.00">quantize_rle</text>
</a>
</g>
</g>
<!-- Node1&#45;&gt;Node9 -->
<g id="edge8" class="edge"><title>Node1&#45;&gt;Node9</title>
<path fill="none" stroke="midnightblue" d="M76.4301,-263.69C90.0996,-265.846 105.114,-268.213 118.292,-270.291"/>
<polygon fill="midnightblue" stroke="midnightblue" points="76.7149,-260.192 66.2918,-262.092 75.6246,-267.107 76.7149,-260.192"/>
</g>
<!-- Node10 -->
<g id="node10" class="node"><title>Node10</title>
<g id="a_node10"><a xlink:href="../../d5/d6d/mcut_8c.html#a9cc66ce9d63f137600680f9dc62a64e2" target="_top" xlink:title="quantize_dither_rle">
<polygon fill="white" stroke="black" points="102,-228.5 102,-247.5 209,-247.5 209,-228.5 102,-228.5"/>
<text text-anchor="middle" x="155.5" y="-235.5" font-family="Helvetica,sans-Serif" font-size="10.00">quantize_dither_rle</text>
</a>
</g>
</g>
<!-- Node1&#45;&gt;Node10 -->
<g id="edge9" class="edge"><title>Node1&#45;&gt;Node10</title>
<path fill="none" stroke="midnightblue" d="M76.3392,-250.324C84.5164,-249.035 93.1777,-247.669 101.641,-246.335"/>
<polygon fill="midnightblue" stroke="midnightblue" points="75.6246,-246.893 66.2918,-251.908 76.7149,-253.808 75.6246,-246.893"/>
</g>
<!-- Node11 -->
<g id="node11" class="node"><title>Node11</title>
<g id="a_node11"><a xlink:href="../../d2/d80/painttorle_8c.html#a99b8e10295ea91681288ec917ed2f150" target="_top" xlink:title="write_scan">
<polygon fill="white" stroke="black" points="121.5,-190.5 121.5,-209.5 189.5,-209.5 189.5,-190.5 121.5,-190.5"/>
<text text-anchor="middle" x="155.5" y="-197.5" font-family="Helvetica,sans-Serif" font-size="10.00">write_scan</text>
</a>
</g>
</g>
<!-- Node1&#45;&gt;Node11 -->
<g id="edge10" class="edge"><title>Node1&#45;&gt;Node11</title>
<path fill="none" stroke="midnightblue" d="M58.2079,-242.208C70.9752,-234.734 87.0526,-225.827 102,-219 109.495,-215.577 117.8,-212.333 125.552,-209.525"/>
<polygon fill="midnightblue" stroke="midnightblue" points="56.3684,-239.23 49.5598,-247.347 59.9445,-245.248 56.3684,-239.23"/>
</g>
<!-- Node12 -->
<g id="node12" class="node"><title>Node12</title>
<g id="a_node12"><a xlink:href="../../d5/da5/pgmtorle_8c.html#a59dedbceac7b3b0556882c5e2755cbae" target="_top" xlink:title="write_rle_data">
<polygon fill="white" stroke="black" points="113.5,-152.5 113.5,-171.5 197.5,-171.5 197.5,-152.5 113.5,-152.5"/>
<text text-anchor="middle" x="155.5" y="-159.5" font-family="Helvetica,sans-Serif" font-size="10.00">write_rle_data</text>
</a>
</g>
</g>
<!-- Node1&#45;&gt;Node12 -->
<g id="edge11" class="edge"><title>Node1&#45;&gt;Node12</title>
<path fill="none" stroke="midnightblue" d="M46.1255,-238.928C58.4061,-221.868 78.8511,-196.636 102,-181 107.623,-177.202 114.096,-174.061 120.534,-171.5"/>
<polygon fill="midnightblue" stroke="midnightblue" points="43.0298,-237.248 40.1776,-247.452 48.7704,-241.254 43.0298,-237.248"/>
</g>
<!-- Node14 -->
<g id="node14" class="node"><title>Node14</title>
<g id="a_node14"><a xlink:href="../../df/d69/pyrlib_8c.html#a8ea97ad59589726a4ef46f30e636d1c5" target="_top" xlink:title="dump_pyramid">
<polygon fill="white" stroke="black" points="112.5,-114.5 112.5,-133.5 198.5,-133.5 198.5,-114.5 112.5,-114.5"/>
<text text-anchor="middle" x="155.5" y="-121.5" font-family="Helvetica,sans-Serif" font-size="10.00">dump_pyramid</text>
</a>
</g>
</g>
<!-- Node1&#45;&gt;Node14 -->
<g id="edge13" class="edge"><title>Node1&#45;&gt;Node14</title>
<path fill="none" stroke="midnightblue" d="M40.7742,-237.695C50.5424,-212.519 70.8989,-168.674 102,-143 106.635,-139.174 112.104,-136.087 117.731,-133.605"/>
<polygon fill="midnightblue" stroke="midnightblue" points="37.4322,-236.641 37.2356,-247.234 43.9952,-239.075 37.4322,-236.641"/>
</g>
<!-- Node15 -->
<g id="node15" class="node"><title>Node15</title>
<g id="a_node15"><a xlink:href="../../d5/dd9/rleClock_8c.html#a029cc0b8bfeacc031dd11bd48caf3a2d" target="_top" xlink:title="rasterWrite">
<polygon fill="white" stroke="black" points="121,-76.5 121,-95.5 190,-95.5 190,-76.5 121,-76.5"/>
<text text-anchor="middle" x="155.5" y="-83.5" font-family="Helvetica,sans-Serif" font-size="10.00">rasterWrite</text>
</a>
</g>
</g>
<!-- Node1&#45;&gt;Node15 -->
<g id="edge14" class="edge"><title>Node1&#45;&gt;Node15</title>
<path fill="none" stroke="midnightblue" d="M37.6295,-237.363C44.5487,-205.299 62.5949,-141.613 102,-105 107.326,-100.052 114.037,-96.3719 120.865,-93.6422"/>
<polygon fill="midnightblue" stroke="midnightblue" points="34.1736,-236.795 35.6294,-247.289 41.0357,-238.178 34.1736,-236.795"/>
</g>
<!-- Node16 -->
<g id="node16" class="node"><title>Node16</title>
<g id="a_node16"><a xlink:href="../../dc/d5c/rlequant_8c.html#afa09bae9f799d9c1c2ae2ac845c56688" target="_top" xlink:title="write_output">
<polygon fill="white" stroke="black" points="118.5,-38.5 118.5,-57.5 192.5,-57.5 192.5,-38.5 118.5,-38.5"/>
<text text-anchor="middle" x="155.5" y="-45.5" font-family="Helvetica,sans-Serif" font-size="10.00">write_output</text>
</a>
</g>
</g>
<!-- Node1&#45;&gt;Node16 -->
<g id="edge15" class="edge"><title>Node1&#45;&gt;Node16</title>
<path fill="none" stroke="midnightblue" d="M35.6542,-236.864C39.8548,-198.593 54.2643,-114.905 102,-67 106.584,-62.3996 112.365,-58.9058 118.402,-56.2545"/>
<polygon fill="midnightblue" stroke="midnightblue" points="32.1341,-236.902 34.6527,-247.193 39.1015,-237.578 32.1341,-236.902"/>
</g>
<!-- Node17 -->
<g id="node17" class="node"><title>Node17</title>
<g id="a_node17"><a xlink:href="../../d5/d42/rlezoom_8c.html#ae2388617c7379e059ac295622b6e7414" target="_top" xlink:title="float_zoom">
<polygon fill="white" stroke="black" points="121.5,-0.5 121.5,-19.5 189.5,-19.5 189.5,-0.5 121.5,-0.5"/>
<text text-anchor="middle" x="155.5" y="-7.5" font-family="Helvetica,sans-Serif" font-size="10.00">float_zoom</text>
</a>
</g>
</g>
<!-- Node1&#45;&gt;Node17 -->
<g id="edge16" class="edge"><title>Node1&#45;&gt;Node17</title>
<path fill="none" stroke="midnightblue" d="M34.2146,-237.144C35.7606,-193.597 45.5113,-88.8275 102,-29 107.257,-23.4322 114.269,-19.4913 121.452,-16.7036"/>
<polygon fill="midnightblue" stroke="midnightblue" points="30.7124,-237.194 33.9692,-247.275 37.7104,-237.363 30.7124,-237.194"/>
</g>
<!-- Node7 -->
<g id="node7" class="node"><title>Node7</title>
<g id="a_node7"><a xlink:href="../../dc/d11/getami_8c.html#a7be6d508b8d11374d4aef0a66817d9f0" target="_top" xlink:title="main">
<polygon fill="white" stroke="black" points="245,-342.5 245,-361.5 284,-361.5 284,-342.5 245,-342.5"/>
<text text-anchor="middle" x="264.5" y="-349.5" font-family="Helvetica,sans-Serif" font-size="10.00">main</text>
</a>
</g>
</g>
<!-- Node6&#45;&gt;Node7 -->
<g id="edge6" class="edge"><title>Node6&#45;&gt;Node7</title>
<path fill="none" stroke="midnightblue" d="M211.34,-352C223.382,-352 235.333,-352 244.751,-352"/>
<polygon fill="midnightblue" stroke="midnightblue" points="211.258,-348.5 201.258,-352 211.258,-355.5 211.258,-348.5"/>
</g>
<!-- Node13 -->
<g id="node13" class="node"><title>Node13</title>
<g id="a_node13"><a xlink:href="../../d5/da5/pgmtorle_8c.html#a3c04138a5bfe5d72780bb7e82a18e627" target="_top" xlink:title="main">
<polygon fill="white" stroke="black" points="245,-152.5 245,-171.5 284,-171.5 284,-152.5 245,-152.5"/>
<text text-anchor="middle" x="264.5" y="-159.5" font-family="Helvetica,sans-Serif" font-size="10.00">main</text>
</a>
</g>
</g>
<!-- Node12&#45;&gt;Node13 -->
<g id="edge12" class="edge"><title>Node12&#45;&gt;Node13</title>
<path fill="none" stroke="midnightblue" d="M207.622,-162C220.896,-162 234.367,-162 244.755,-162"/>
<polygon fill="midnightblue" stroke="midnightblue" points="207.563,-158.5 197.563,-162 207.563,-165.5 207.563,-158.5"/>
</g>
</g>
</svg>
        <g id="navigator" transform="translate(0 0)" fill="#404254">
                <rect fill="#f2f5e9" fill-opacity="0.5" stroke="#606060" stroke-width=".5" x="0" y="0" width="60" height="60"/>
                <use id="zoomplus" xlink:href="#zoomPlus" x="17" y="9" onmousedown="handleZoom(evt,'in')"/>
                <use id="zoomminus" xlink:href="#zoomMin" x="42" y="9" onmousedown="handleZoom(evt,'out')"/>
                <use id="reset" xlink:href="#resetDef" x="30" y="36" onmousedown="handleReset()"/>
                <g id="arrowUp" xlink:href="#dirArrow" transform="translate(30 24)" onmousedown="handlePan(0,-1)">
                  <use xlink:href="#rim" fill="#404040">
                        <set attributeName="fill" to="#808080" begin="arrowUp.mouseover" end="arrowUp.mouseout"/>
                  </use>
                  <path fill="none" stroke="white" stroke-width="1.5" d="M0,-3.0v7 M-2.5,-0.5L0,-3.0L2.5,-0.5"/>
                </g>
                <g id="arrowRight" xlink:href="#dirArrow" transform="rotate(90) translate(36 -43)" onmousedown="handlePan(1,0)">
                  <use xlink:href="#rim" fill="#404040">
                        <set attributeName="fill" to="#808080" begin="arrowRight.mouseover" end="arrowRight.mouseout"/>
                  </use>
                  <path fill="none" stroke="white" stroke-width="1.5" d="M0,-3.0v7 M-2.5,-0.5L0,-3.0L2.5,-0.5"/>
                </g>
                <g id="arrowDown" xlink:href="#dirArrow" transform="rotate(180) translate(-30 -48)" onmousedown="handlePan(0,1)">
                  <use xlink:href="#rim" fill="#404040">
                        <set attributeName="fill" to="#808080" begin="arrowDown.mouseover" end="arrowDown.mouseout"/>
                  </use>
                  <path fill="none" stroke="white" stroke-width="1.5" d="M0,-3.0v7 M-2.5,-0.5L0,-3.0L2.5,-0.5"/>
                </g>
                <g id="arrowLeft" xlink:href="#dirArrow" transform="rotate(270) translate(-36 17)" onmousedown="handlePan(-1,0)">
                  <use xlink:href="#rim" fill="#404040">
                        <set attributeName="fill" to="#808080" begin="arrowLeft.mouseover" end="arrowLeft.mouseout"/>
                  </use>
                  <path fill="none" stroke="white" stroke-width="1.5" d="M0,-3.0v7 M-2.5,-0.5L0,-3.0L2.5,-0.5"/>
                </g>
        </g>
        <svg viewBox="0 0 15 15" width="100%" height="30px" preserveAspectRatio="xMaxYMin meet">
         <g id="arrow_out" transform="scale(0.3 0.3)">
          <a xlink:href="rle__putrow_8c_aa26532b01bc4f49b7383765cdc23ea72_icgraph_org.svg" target="_base">
           <rect id="button" ry="5" rx="5" y="6" x="6" height="38" width="38"
                fill="#f2f5e9" fill-opacity="0.5" stroke="#606060" stroke-width="1.0"/>
           <path id="arrow"
             d="M 11.500037,31.436501 C 11.940474,20.09759 22.043105,11.32322 32.158766,21.979434 L 37.068811,17.246167 C 37.068811,17.246167 37.088388,32 37.088388,32 L 22.160133,31.978069 C 22.160133,31.978069 26.997745,27.140456 26.997745,27.140456 C 18.528582,18.264221 13.291696,25.230495 11.500037,31.436501 z"
             style="fill:#404040;"/>
          </a>
         </g>
        </svg>
</svg>
