<?xml version="1.0" encoding="UTF-8" standalone="no"?>
<!DOCTYPE svg PUBLIC "-//W3C//DTD SVG 1.1//EN"
 "http://www.w3.org/Graphics/SVG/1.1/DTD/svg11.dtd">
<!-- Generated by graphviz version 2.38.0 (20140413.2041)
 -->
<!-- Title: rle_puteof Pages: 1 -->
<!--zoomable 484 -->
<svg id="main" version="1.1" xmlns="http://www.w3.org/2000/svg" xmlns:xlink="http://www.w3.org/1999/xlink" xml:space="preserve" onload="init(evt)">
<style type="text/css"><![CDATA[
.edge:hover path { stroke: red; }
.edge:hover polygon { stroke: red; fill: red; }
]]></style>
<script type="text/javascript"><![CDATA[
var edges = document.getElementsByTagName('g');
if (edges && edges.length) {
  for (var i=0;i<edges.length;i++) {
    if (edges[i].id.substr(0,4)=='edge') {
      edges[i].setAttribute('class','edge');
    }
  }
}
]]></script>
        <defs>
                <circle id="rim" cx="0" cy="0" r="7"/>
                <circle id="rim2" cx="0" cy="0" r="3.5"/>
                <g id="zoomPlus">
                        <use xlink:href="#rim" fill="#404040">
                                <set attributeName="fill" to="#808080" begin="zoomplus.mouseover" end="zoomplus.mouseout"/>
                        </use>
                        <path d="M-4,0h8M0,-4v8" fill="none" stroke="white" stroke-width="1.5" pointer-events="none"/>
                </g>
                <g id="zoomMin">
                        <use xlink:href="#rim" fill="#404040">
                                <set attributeName="fill" to="#808080" begin="zoomminus.mouseover" end="zoomminus.mouseout"/>
                        </use>
                        <path d="M-4,0h8" fill="none" stroke="white" stroke-width="1.5" pointer-events="none"/>
                </g>
                <g id="dirArrow">
                        <path fill="none" stroke="white" stroke-width="1.5" d="M0,-3.0v7 M-2.5,-0.5L0,-3.0L2.5,-0.5"/>
                </g>
               <g id="resetDef">
                       <use xlink:href="#rim2" fill="#404040">
                               <set attributeName="fill" to="#808080" begin="reset.mouseover" end="reset.mouseout"/>
                       </use>
               </g>
        </defs>

<script type="text/javascript">
var viewWidth = 391;
var viewHeight = 484;
var sectionId = 'dynsection-7';
</script>
<script xlink:href="../../svgpan.js"/>
<svg id="graph" class="graph">
<g id="viewport">
<title>rle_puteof</title>
<polygon fill="white" stroke="none" points="-4,4 -4,-480 387,-480 387,4 -4,4"/>
<!-- Node1 -->
<g id="node1" class="node"><title>Node1</title>
<polygon fill="#bfbfbf" stroke="black" points="0,-228.5 0,-247.5 64,-247.5 64,-228.5 0,-228.5"/>
<text text-anchor="middle" x="32" y="-235.5" font-family="Helvetica,sans-Serif" font-size="10.00">rle_puteof</text>
</g>
<!-- Node2 -->
<g id="node2" class="node"><title>Node2</title>
<g id="a_node2"><a xlink:href="../../dc/d7b/aliastorle_8c.html#a5c5fc7dc4eaef8488f188374657848c4" target="_top" xlink:title="write_rle">
<polygon fill="white" stroke="black" points="125,-456.5 125,-475.5 182,-475.5 182,-456.5 125,-456.5"/>
<text text-anchor="middle" x="153.5" y="-463.5" font-family="Helvetica,sans-Serif" font-size="10.00">write_rle</text>
</a>
</g>
</g>
<!-- Node1&#45;&gt;Node2 -->
<g id="edge1" class="edge"><title>Node1&#45;&gt;Node2</title>
<path fill="none" stroke="midnightblue" d="M33.7549,-257.87C36.3716,-298.778 48.0391,-393.079 100,-447 106.659,-453.91 116.019,-458.317 124.995,-461.124"/>
<polygon fill="midnightblue" stroke="midnightblue" points="37.2472,-257.63 33.2309,-247.826 30.2567,-257.995 37.2472,-257.63"/>
</g>
<!-- Node3 -->
<g id="node3" class="node"><title>Node3</title>
<g id="a_node3"><a xlink:href="../../d7/def/applymap_8c.html#a70db8bd1d499619f7ff9c1ca2ff3c8df" target="_top" xlink:title="main">
<polygon fill="white" stroke="black" points="134,-418.5 134,-437.5 173,-437.5 173,-418.5 134,-418.5"/>
<text text-anchor="middle" x="153.5" y="-425.5" font-family="Helvetica,sans-Serif" font-size="10.00">main</text>
</a>
</g>
</g>
<!-- Node1&#45;&gt;Node3 -->
<g id="edge2" class="edge"><title>Node1&#45;&gt;Node3</title>
<path fill="none" stroke="midnightblue" d="M35.3778,-257.589C40.6523,-292.703 56.5152,-366.639 100,-409 109.165,-417.928 122.837,-422.701 133.931,-425.229"/>
<polygon fill="midnightblue" stroke="midnightblue" points="38.8401,-257.075 34.0157,-247.642 31.9048,-258.024 38.8401,-257.075"/>
</g>
<!-- Node4 -->
<g id="node4" class="node"><title>Node4</title>
<g id="a_node4"><a xlink:href="../../d6/d0d/dvirle2_8c.html#a87bd5716ebe94a141c319a2b4aff41a4" target="_top" xlink:title="FormFeed">
<polygon fill="white" stroke="black" points="121,-380.5 121,-399.5 186,-399.5 186,-380.5 121,-380.5"/>
<text text-anchor="middle" x="153.5" y="-387.5" font-family="Helvetica,sans-Serif" font-size="10.00">FormFeed</text>
</a>
</g>
</g>
<!-- Node1&#45;&gt;Node4 -->
<g id="edge3" class="edge"><title>Node1&#45;&gt;Node4</title>
<path fill="none" stroke="midnightblue" d="M37.8718,-257.572C46.0008,-286.331 64.9986,-339.947 100,-371 105.946,-376.275 113.469,-380.12 120.949,-382.91"/>
<polygon fill="midnightblue" stroke="midnightblue" points="41.1562,-256.304 35.1972,-247.544 34.3927,-258.109 41.1562,-256.304"/>
</g>
<!-- Node7 -->
<g id="node7" class="node"><title>Node7</title>
<g id="a_node7"><a xlink:href="../../d1/dad/giftorle_8c.html#a4a32ad17d41944729fd2ecacccf68d07" target="_top" xlink:title="ReadRaster">
<polygon fill="white" stroke="black" points="116.5,-342.5 116.5,-361.5 190.5,-361.5 190.5,-342.5 116.5,-342.5"/>
<text text-anchor="middle" x="153.5" y="-349.5" font-family="Helvetica,sans-Serif" font-size="10.00">ReadRaster</text>
</a>
</g>
</g>
<!-- Node1&#45;&gt;Node7 -->
<g id="edge7" class="edge"><title>Node1&#45;&gt;Node7</title>
<path fill="none" stroke="midnightblue" d="M41.6875,-256.538C52.5325,-277.805 72.9922,-312.388 100,-333 105.009,-336.822 110.858,-339.929 116.799,-342.436"/>
<polygon fill="midnightblue" stroke="midnightblue" points="44.8204,-254.977 37.2706,-247.544 38.5372,-258.063 44.8204,-254.977"/>
</g>
<!-- Node8 -->
<g id="node8" class="node"><title>Node8</title>
<g id="a_node8"><a xlink:href="../../d5/d6d/mcut_8c.html#ae8f2544df07a04da1f08ffc3b430c6c0" target="_top" xlink:title="quantize_rle">
<polygon fill="white" stroke="black" points="116.5,-304.5 116.5,-323.5 190.5,-323.5 190.5,-304.5 116.5,-304.5"/>
<text text-anchor="middle" x="153.5" y="-311.5" font-family="Helvetica,sans-Serif" font-size="10.00">quantize_rle</text>
</a>
</g>
</g>
<!-- Node1&#45;&gt;Node8 -->
<g id="edge8" class="edge"><title>Node1&#45;&gt;Node8</title>
<path fill="none" stroke="midnightblue" d="M49.306,-254.819C62.1357,-267.281 80.9698,-283.95 100,-295 106.287,-298.651 113.396,-301.793 120.306,-304.411"/>
<polygon fill="midnightblue" stroke="midnightblue" points="51.7021,-252.265 42.1456,-247.691 46.7637,-257.226 51.7021,-252.265"/>
</g>
<!-- Node9 -->
<g id="node9" class="node"><title>Node9</title>
<g id="a_node9"><a xlink:href="../../d5/d6d/mcut_8c.html#a9cc66ce9d63f137600680f9dc62a64e2" target="_top" xlink:title="quantize_dither_rle">
<polygon fill="white" stroke="black" points="100,-266.5 100,-285.5 207,-285.5 207,-266.5 100,-266.5"/>
<text text-anchor="middle" x="153.5" y="-273.5" font-family="Helvetica,sans-Serif" font-size="10.00">quantize_dither_rle</text>
</a>
</g>
</g>
<!-- Node1&#45;&gt;Node9 -->
<g id="edge9" class="edge"><title>Node1&#45;&gt;Node9</title>
<path fill="none" stroke="midnightblue" d="M72.8766,-250.68C89.023,-255.815 107.354,-261.644 122.355,-266.414"/>
<polygon fill="midnightblue" stroke="midnightblue" points="73.7453,-247.284 63.1549,-247.589 71.624,-253.955 73.7453,-247.284"/>
</g>
<!-- Node10 -->
<g id="node10" class="node"><title>Node10</title>
<g id="a_node10"><a xlink:href="../../d5/da5/pgmtorle_8c.html#a59dedbceac7b3b0556882c5e2755cbae" target="_top" xlink:title="write_rle_data">
<polygon fill="white" stroke="black" points="111.5,-228.5 111.5,-247.5 195.5,-247.5 195.5,-228.5 111.5,-228.5"/>
<text text-anchor="middle" x="153.5" y="-235.5" font-family="Helvetica,sans-Serif" font-size="10.00">write_rle_data</text>
</a>
</g>
</g>
<!-- Node1&#45;&gt;Node10 -->
<g id="edge10" class="edge"><title>Node1&#45;&gt;Node10</title>
<path fill="none" stroke="midnightblue" d="M74.2543,-238C86.2096,-238 99.261,-238 111.218,-238"/>
<polygon fill="midnightblue" stroke="midnightblue" points="74.0853,-234.5 64.0853,-238 74.0852,-241.5 74.0853,-234.5"/>
</g>
<!-- Node12 -->
<g id="node12" class="node"><title>Node12</title>
<g id="a_node12"><a xlink:href="../../df/d69/pyrlib_8c.html#a8ea97ad59589726a4ef46f30e636d1c5" target="_top" xlink:title="dump_pyramid">
<polygon fill="white" stroke="black" points="110.5,-190.5 110.5,-209.5 196.5,-209.5 196.5,-190.5 110.5,-190.5"/>
<text text-anchor="middle" x="153.5" y="-197.5" font-family="Helvetica,sans-Serif" font-size="10.00">dump_pyramid</text>
</a>
</g>
</g>
<!-- Node1&#45;&gt;Node12 -->
<g id="edge12" class="edge"><title>Node1&#45;&gt;Node12</title>
<path fill="none" stroke="midnightblue" d="M72.8766,-225.32C89.023,-220.185 107.354,-214.356 122.355,-209.586"/>
<polygon fill="midnightblue" stroke="midnightblue" points="71.624,-222.045 63.1549,-228.411 73.7453,-228.716 71.624,-222.045"/>
</g>
<!-- Node13 -->
<g id="node13" class="node"><title>Node13</title>
<g id="a_node13"><a xlink:href="../../d3/d42/rletoabA62_8c.html#a665d324d8f9c82e39d6be594aa3eee3c" target="_top" xlink:title="rasterDone">
<polygon fill="white" stroke="black" points="118.5,-152.5 118.5,-171.5 188.5,-171.5 188.5,-152.5 118.5,-152.5"/>
<text text-anchor="middle" x="153.5" y="-159.5" font-family="Helvetica,sans-Serif" font-size="10.00">rasterDone</text>
</a>
</g>
</g>
<!-- Node1&#45;&gt;Node13 -->
<g id="edge13" class="edge"><title>Node1&#45;&gt;Node13</title>
<path fill="none" stroke="midnightblue" d="M49.306,-221.181C62.1357,-208.719 80.9698,-192.05 100,-181 106.287,-177.349 113.396,-174.207 120.306,-171.589"/>
<polygon fill="midnightblue" stroke="midnightblue" points="46.7637,-218.774 42.1456,-228.309 51.7021,-223.735 46.7637,-218.774"/>
</g>
<!-- Node14 -->
<g id="node14" class="node"><title>Node14</title>
<g id="a_node14"><a xlink:href="../../d9/dd6/rle__cp_8c.html#a3f1959b9230fb3cb5b4646895b444107" target="_top" xlink:title="rle_cp">
<polygon fill="white" stroke="black" points="130.5,-114.5 130.5,-133.5 176.5,-133.5 176.5,-114.5 130.5,-114.5"/>
<text text-anchor="middle" x="153.5" y="-121.5" font-family="Helvetica,sans-Serif" font-size="10.00">rle_cp</text>
</a>
</g>
</g>
<!-- Node1&#45;&gt;Node14 -->
<g id="edge14" class="edge"><title>Node1&#45;&gt;Node14</title>
<path fill="none" stroke="midnightblue" d="M41.6875,-219.462C52.5325,-198.195 72.9922,-163.612 100,-143 108.861,-136.237 120.356,-131.716 130.329,-128.788"/>
<polygon fill="midnightblue" stroke="midnightblue" points="38.5372,-217.937 37.2706,-228.456 44.8204,-221.023 38.5372,-217.937"/>
</g>
<!-- Node16 -->
<g id="node16" class="node"><title>Node16</title>
<g id="a_node16"><a xlink:href="../../dc/d5c/rlequant_8c.html#afa09bae9f799d9c1c2ae2ac845c56688" target="_top" xlink:title="write_output">
<polygon fill="white" stroke="black" points="116.5,-76.5 116.5,-95.5 190.5,-95.5 190.5,-76.5 116.5,-76.5"/>
<text text-anchor="middle" x="153.5" y="-83.5" font-family="Helvetica,sans-Serif" font-size="10.00">write_output</text>
</a>
</g>
</g>
<!-- Node1&#45;&gt;Node16 -->
<g id="edge16" class="edge"><title>Node1&#45;&gt;Node16</title>
<path fill="none" stroke="midnightblue" d="M37.8718,-218.428C46.0008,-189.669 64.9986,-136.053 100,-105 104.713,-100.819 110.417,-97.5357 116.306,-94.9646"/>
<polygon fill="midnightblue" stroke="midnightblue" points="34.3927,-217.891 35.1972,-228.456 41.1562,-219.696 34.3927,-217.891"/>
</g>
<!-- Node17 -->
<g id="node17" class="node"><title>Node17</title>
<g id="a_node17"><a xlink:href="../../d5/d42/rlezoom_8c.html#a93e7f36e1343b502769244ac9789c0ff" target="_top" xlink:title="integer_zoom">
<polygon fill="white" stroke="black" points="113,-38.5 113,-57.5 194,-57.5 194,-38.5 113,-38.5"/>
<text text-anchor="middle" x="153.5" y="-45.5" font-family="Helvetica,sans-Serif" font-size="10.00">integer_zoom</text>
</a>
</g>
</g>
<!-- Node1&#45;&gt;Node17 -->
<g id="edge17" class="edge"><title>Node1&#45;&gt;Node17</title>
<path fill="none" stroke="midnightblue" d="M35.3778,-218.411C40.6523,-183.297 56.5152,-109.361 100,-67 103.958,-63.1447 108.756,-60.0642 113.824,-57.6047"/>
<polygon fill="midnightblue" stroke="midnightblue" points="31.9048,-217.976 34.0157,-228.358 38.8401,-218.925 31.9048,-217.976"/>
</g>
<!-- Node18 -->
<g id="node18" class="node"><title>Node18</title>
<g id="a_node18"><a xlink:href="../../d5/d42/rlezoom_8c.html#ae2388617c7379e059ac295622b6e7414" target="_top" xlink:title="float_zoom">
<polygon fill="white" stroke="black" points="119.5,-0.5 119.5,-19.5 187.5,-19.5 187.5,-0.5 119.5,-0.5"/>
<text text-anchor="middle" x="153.5" y="-7.5" font-family="Helvetica,sans-Serif" font-size="10.00">float_zoom</text>
</a>
</g>
</g>
<!-- Node1&#45;&gt;Node18 -->
<g id="edge18" class="edge"><title>Node1&#45;&gt;Node18</title>
<path fill="none" stroke="midnightblue" d="M33.7549,-218.13C36.3716,-177.222 48.0391,-82.9208 100,-29 105.246,-23.5558 112.169,-19.6653 119.261,-16.8871"/>
<polygon fill="midnightblue" stroke="midnightblue" points="30.2567,-218.005 33.2309,-228.174 37.2472,-218.37 30.2567,-218.005"/>
</g>
<!-- Node5 -->
<g id="node5" class="node"><title>Node5</title>
<g id="a_node5"><a xlink:href="../../d6/d0d/dvirle2_8c.html#a70db8bd1d499619f7ff9c1ca2ff3c8df" target="_top" xlink:title="main">
<polygon fill="white" stroke="black" points="344,-380.5 344,-399.5 383,-399.5 383,-380.5 344,-380.5"/>
<text text-anchor="middle" x="363.5" y="-387.5" font-family="Helvetica,sans-Serif" font-size="10.00">main</text>
</a>
</g>
</g>
<!-- Node4&#45;&gt;Node5 -->
<g id="edge4" class="edge"><title>Node4&#45;&gt;Node5</title>
<path fill="none" stroke="midnightblue" d="M196.134,-390C241.163,-390 310.926,-390 343.954,-390"/>
<polygon fill="midnightblue" stroke="midnightblue" points="196.091,-386.5 186.091,-390 196.091,-393.5 196.091,-386.5"/>
</g>
<!-- Node6 -->
<g id="node6" class="node"><title>Node6</title>
<g id="a_node6"><a xlink:href="../../d6/d0d/dvirle2_8c.html#a38a144517cee28fe99bbe43c19f2a978" target="_top" xlink:title="ReadInput">
<polygon fill="white" stroke="black" points="243,-361.5 243,-380.5 308,-380.5 308,-361.5 243,-361.5"/>
<text text-anchor="middle" x="275.5" y="-368.5" font-family="Helvetica,sans-Serif" font-size="10.00">ReadInput</text>
</a>
</g>
</g>
<!-- Node4&#45;&gt;Node6 -->
<g id="edge5" class="edge"><title>Node4&#45;&gt;Node6</title>
<path fill="none" stroke="midnightblue" d="M196.26,-383.388C211.521,-380.972 228.521,-378.28 242.765,-376.025"/>
<polygon fill="midnightblue" stroke="midnightblue" points="195.358,-379.987 186.029,-385.008 196.453,-386.901 195.358,-379.987"/>
</g>
<!-- Node6&#45;&gt;Node5 -->
<g id="edge6" class="edge"><title>Node6&#45;&gt;Node5</title>
<path fill="none" stroke="midnightblue" d="M317.858,-380.137C327.02,-382.161 336.281,-384.207 343.975,-385.907"/>
<polygon fill="midnightblue" stroke="midnightblue" points="318.555,-376.707 308.035,-377.967 317.044,-383.542 318.555,-376.707"/>
</g>
<!-- Node11 -->
<g id="node11" class="node"><title>Node11</title>
<g id="a_node11"><a xlink:href="../../d5/da5/pgmtorle_8c.html#a3c04138a5bfe5d72780bb7e82a18e627" target="_top" xlink:title="main">
<polygon fill="white" stroke="black" points="256,-228.5 256,-247.5 295,-247.5 295,-228.5 256,-228.5"/>
<text text-anchor="middle" x="275.5" y="-235.5" font-family="Helvetica,sans-Serif" font-size="10.00">main</text>
</a>
</g>
</g>
<!-- Node10&#45;&gt;Node11 -->
<g id="edge11" class="edge"><title>Node10&#45;&gt;Node11</title>
<path fill="none" stroke="midnightblue" d="M206.087,-238C223.842,-238 242.6,-238 255.974,-238"/>
<polygon fill="midnightblue" stroke="midnightblue" points="205.797,-234.5 195.797,-238 205.797,-241.5 205.797,-234.5"/>
</g>
<!-- Node15 -->
<g id="node15" class="node"><title>Node15</title>
<g id="a_node15"><a xlink:href="../../d2/dc8/repos_8c.html#ade521a0600ded19f1720b6f6df59b480" target="_top" xlink:title="main">
<polygon fill="white" stroke="black" points="256,-114.5 256,-133.5 295,-133.5 295,-114.5 256,-114.5"/>
<text text-anchor="middle" x="275.5" y="-121.5" font-family="Helvetica,sans-Serif" font-size="10.00">main</text>
</a>
</g>
</g>
<!-- Node14&#45;&gt;Node15 -->
<g id="edge15" class="edge"><title>Node14&#45;&gt;Node15</title>
<path fill="none" stroke="midnightblue" d="M186.762,-124C208.845,-124 237.356,-124 255.783,-124"/>
<polygon fill="midnightblue" stroke="midnightblue" points="186.51,-120.5 176.51,-124 186.51,-127.5 186.51,-120.5"/>
</g>
</g>
</svg>
        <g id="navigator" transform="translate(0 0)" fill="#404254">
                <rect fill="#f2f5e9" fill-opacity="0.5" stroke="#606060" stroke-width=".5" x="0" y="0" width="60" height="60"/>
                <use id="zoomplus" xlink:href="#zoomPlus" x="17" y="9" onmousedown="handleZoom(evt,'in')"/>
                <use id="zoomminus" xlink:href="#zoomMin" x="42" y="9" onmousedown="handleZoom(evt,'out')"/>
                <use id="reset" xlink:href="#resetDef" x="30" y="36" onmousedown="handleReset()"/>
                <g id="arrowUp" xlink:href="#dirArrow" transform="translate(30 24)" onmousedown="handlePan(0,-1)">
                  <use xlink:href="#rim" fill="#404040">
                        <set attributeName="fill" to="#808080" begin="arrowUp.mouseover" end="arrowUp.mouseout"/>
                  </use>
                  <path fill="none" stroke="white" stroke-width="1.5" d="M0,-3.0v7 M-2.5,-0.5L0,-3.0L2.5,-0.5"/>
                </g>
                <g id="arrowRight" xlink:href="#dirArrow" transform="rotate(90) translate(36 -43)" onmousedown="handlePan(1,0)">
                  <use xlink:href="#rim" fill="#404040">
                        <set attributeName="fill" to="#808080" begin="arrowRight.mouseover" end="arrowRight.mouseout"/>
                  </use>
                  <path fill="none" stroke="white" stroke-width="1.5" d="M0,-3.0v7 M-2.5,-0.5L0,-3.0L2.5,-0.5"/>
                </g>
                <g id="arrowDown" xlink:href="#dirArrow" transform="rotate(180) translate(-30 -48)" onmousedown="handlePan(0,1)">
                  <use xlink:href="#rim" fill="#404040">
                        <set attributeName="fill" to="#808080" begin="arrowDown.mouseover" end="arrowDown.mouseout"/>
                  </use>
                  <path fill="none" stroke="white" stroke-width="1.5" d="M0,-3.0v7 M-2.5,-0.5L0,-3.0L2.5,-0.5"/>
                </g>
                <g id="arrowLeft" xlink:href="#dirArrow" transform="rotate(270) translate(-36 17)" onmousedown="handlePan(-1,0)">
                  <use xlink:href="#rim" fill="#404040">
                        <set attributeName="fill" to="#808080" begin="arrowLeft.mouseover" end="arrowLeft.mouseout"/>
                  </use>
                  <path fill="none" stroke="white" stroke-width="1.5" d="M0,-3.0v7 M-2.5,-0.5L0,-3.0L2.5,-0.5"/>
                </g>
        </g>
        <svg viewBox="0 0 15 15" width="100%" height="30px" preserveAspectRatio="xMaxYMin meet">
         <g id="arrow_out" transform="scale(0.3 0.3)">
          <a xlink:href="rle__putrow_8c_af4fab734a5d227ad2ae95840f56fff3b_icgraph_org.svg" target="_base">
           <rect id="button" ry="5" rx="5" y="6" x="6" height="38" width="38"
                fill="#f2f5e9" fill-opacity="0.5" stroke="#606060" stroke-width="1.0"/>
           <path id="arrow"
             d="M 11.500037,31.436501 C 11.940474,20.09759 22.043105,11.32322 32.158766,21.979434 L 37.068811,17.246167 C 37.068811,17.246167 37.088388,32 37.088388,32 L 22.160133,31.978069 C 22.160133,31.978069 26.997745,27.140456 26.997745,27.140456 C 18.528582,18.264221 13.291696,25.230495 11.500037,31.436501 z"
             style="fill:#404040;"/>
          </a>
         </g>
        </svg>
</svg>
