<?xml version="1.0" encoding="UTF-8" standalone="no"?>
<!DOCTYPE svg PUBLIC "-//W3C//DTD SVG 1.1//EN"
 "http://www.w3.org/Graphics/SVG/1.1/DTD/svg11.dtd">
<!-- Generated by graphviz version 2.38.0 (20140413.2041)
 -->
<!-- Title: findruns Pages: 1 -->
<svg width="382pt" height="522pt"
 viewBox="0.00 0.00 382.00 522.00" xmlns="http://www.w3.org/2000/svg" xmlns:xlink="http://www.w3.org/1999/xlink">
<g id="graph0" class="graph" transform="scale(1 1) rotate(0) translate(4 518)">
<title>findruns</title>
<polygon fill="white" stroke="none" points="-4,4 -4,-518 378,-518 378,4 -4,4"/>
<!-- Node1 -->
<g id="node1" class="node"><title>Node1</title>
<polygon fill="#bfbfbf" stroke="black" points="0,-247.5 0,-266.5 54,-266.5 54,-247.5 0,-247.5"/>
<text text-anchor="middle" x="27" y="-254.5" font-family="Helvetica,sans-Serif" font-size="10.00">findruns</text>
</g>
<!-- Node2 -->
<g id="node2" class="node"><title>Node2</title>
<g id="a_node2"><a xlink:href="../../d9/d2a/rle__putrow_8c.html#aa26532b01bc4f49b7383765cdc23ea72" target="_top" xlink:title="rle_putrow">
<polygon fill="white" stroke="black" points="90,-247.5 90,-266.5 156,-266.5 156,-247.5 90,-247.5"/>
<text text-anchor="middle" x="123" y="-254.5" font-family="Helvetica,sans-Serif" font-size="10.00">rle_putrow</text>
</a>
</g>
</g>
<!-- Node1&#45;&gt;Node2 -->
<g id="edge1" class="edge"><title>Node1&#45;&gt;Node2</title>
<path fill="none" stroke="midnightblue" d="M64.1998,-257C72.6776,-257 81.6511,-257 89.934,-257"/>
<polygon fill="midnightblue" stroke="midnightblue" points="64.1843,-253.5 54.1842,-257 64.1842,-260.5 64.1843,-253.5"/>
</g>
<!-- Node3 -->
<g id="node3" class="node"><title>Node3</title>
<g id="a_node3"><a xlink:href="../../dc/d7b/aliastorle_8c.html#a5c5fc7dc4eaef8488f188374657848c4" target="_top" xlink:title="write_rle">
<polygon fill="white" stroke="black" points="217,-494.5 217,-513.5 274,-513.5 274,-494.5 217,-494.5"/>
<text text-anchor="middle" x="245.5" y="-501.5" font-family="Helvetica,sans-Serif" font-size="10.00">write_rle</text>
</a>
</g>
</g>
<!-- Node2&#45;&gt;Node3 -->
<g id="edge2" class="edge"><title>Node2&#45;&gt;Node3</title>
<path fill="none" stroke="midnightblue" d="M124.215,-276.856C125.761,-320.403 135.511,-425.172 192,-485 198.588,-491.977 207.932,-496.4 216.915,-499.2"/>
<polygon fill="midnightblue" stroke="midnightblue" points="127.71,-276.637 123.969,-266.725 120.712,-276.806 127.71,-276.637"/>
</g>
<!-- Node4 -->
<g id="node4" class="node"><title>Node4</title>
<g id="a_node4"><a xlink:href="../../d6/dcb/avg4_8c.html#ade521a0600ded19f1720b6f6df59b480" target="_top" xlink:title="main">
<polygon fill="white" stroke="black" points="226,-456.5 226,-475.5 265,-475.5 265,-456.5 226,-456.5"/>
<text text-anchor="middle" x="245.5" y="-463.5" font-family="Helvetica,sans-Serif" font-size="10.00">main</text>
</a>
</g>
</g>
<!-- Node2&#45;&gt;Node4 -->
<g id="edge3" class="edge"><title>Node2&#45;&gt;Node4</title>
<path fill="none" stroke="midnightblue" d="M125.654,-277.136C129.855,-315.407 144.264,-399.095 192,-447 201.031,-456.063 214.707,-460.832 225.837,-463.325"/>
<polygon fill="midnightblue" stroke="midnightblue" points="129.101,-276.422 124.653,-266.807 122.134,-277.098 129.101,-276.422"/>
</g>
<!-- Node5 -->
<g id="node5" class="node"><title>Node5</title>
<g id="a_node5"><a xlink:href="../../d6/d0d/dvirle2_8c.html#aef451fde75e78970c60e8ef15d4a70e9" target="_top" xlink:title="WriteBuf">
<polygon fill="white" stroke="black" points="217.5,-418.5 217.5,-437.5 273.5,-437.5 273.5,-418.5 217.5,-418.5"/>
<text text-anchor="middle" x="245.5" y="-425.5" font-family="Helvetica,sans-Serif" font-size="10.00">WriteBuf</text>
</a>
</g>
</g>
<!-- Node2&#45;&gt;Node5 -->
<g id="edge4" class="edge"><title>Node2&#45;&gt;Node5</title>
<path fill="none" stroke="midnightblue" d="M127.63,-276.637C134.549,-308.701 152.595,-372.387 192,-409 199.03,-415.532 208.474,-419.853 217.414,-422.697"/>
<polygon fill="midnightblue" stroke="midnightblue" points="131.036,-275.822 125.629,-266.711 124.174,-277.205 131.036,-275.822"/>
</g>
<!-- Node6 -->
<g id="node6" class="node"><title>Node6</title>
<g id="a_node6"><a xlink:href="../../dd/ddd/fant_8c.html#aaf3fae1a2961d5bcaeaece519f8928b2" target="_top" xlink:title="putraster">
<polygon fill="white" stroke="black" points="216,-380.5 216,-399.5 275,-399.5 275,-380.5 216,-380.5"/>
<text text-anchor="middle" x="245.5" y="-387.5" font-family="Helvetica,sans-Serif" font-size="10.00">putraster</text>
</a>
</g>
</g>
<!-- Node2&#45;&gt;Node6 -->
<g id="edge5" class="edge"><title>Node2&#45;&gt;Node6</title>
<path fill="none" stroke="midnightblue" d="M130.774,-276.305C140.542,-301.481 160.899,-345.326 192,-371 198.877,-376.677 207.592,-380.728 215.935,-383.588"/>
<polygon fill="midnightblue" stroke="midnightblue" points="133.995,-274.925 127.236,-266.766 127.432,-277.359 133.995,-274.925"/>
</g>
<!-- Node7 -->
<g id="node7" class="node"><title>Node7</title>
<g id="a_node7"><a xlink:href="../../dc/d11/getami_8c.html#aa654afe741816fa93d1cd7e49ef583ec" target="_top" xlink:title="find_most_used">
<polygon fill="white" stroke="black" points="200,-342.5 200,-361.5 291,-361.5 291,-342.5 200,-342.5"/>
<text text-anchor="middle" x="245.5" y="-349.5" font-family="Helvetica,sans-Serif" font-size="10.00">find_most_used</text>
</a>
</g>
</g>
<!-- Node2&#45;&gt;Node7 -->
<g id="edge6" class="edge"><title>Node2&#45;&gt;Node7</title>
<path fill="none" stroke="midnightblue" d="M136.126,-275.072C148.406,-292.132 168.851,-317.364 192,-333 197.623,-336.798 204.096,-339.939 210.534,-342.5"/>
<polygon fill="midnightblue" stroke="midnightblue" points="138.77,-272.746 130.178,-266.548 133.03,-276.752 138.77,-272.746"/>
</g>
<!-- Node9 -->
<g id="node9" class="node"><title>Node9</title>
<g id="a_node9"><a xlink:href="../../d1/dad/giftorle_8c.html#a4a32ad17d41944729fd2ecacccf68d07" target="_top" xlink:title="ReadRaster">
<polygon fill="white" stroke="black" points="208.5,-304.5 208.5,-323.5 282.5,-323.5 282.5,-304.5 208.5,-304.5"/>
<text text-anchor="middle" x="245.5" y="-311.5" font-family="Helvetica,sans-Serif" font-size="10.00">ReadRaster</text>
</a>
</g>
</g>
<!-- Node2&#45;&gt;Node9 -->
<g id="edge8" class="edge"><title>Node2&#45;&gt;Node9</title>
<path fill="none" stroke="midnightblue" d="M148.208,-271.792C160.975,-279.266 177.053,-288.173 192,-295 199.495,-298.423 207.8,-301.667 215.552,-304.475"/>
<polygon fill="midnightblue" stroke="midnightblue" points="149.944,-268.752 139.56,-266.653 146.368,-274.77 149.944,-268.752"/>
</g>
<!-- Node10 -->
<g id="node10" class="node"><title>Node10</title>
<g id="a_node10"><a xlink:href="../../d5/d6d/mcut_8c.html#ae8f2544df07a04da1f08ffc3b430c6c0" target="_top" xlink:title="quantize_rle">
<polygon fill="white" stroke="black" points="208.5,-266.5 208.5,-285.5 282.5,-285.5 282.5,-266.5 208.5,-266.5"/>
<text text-anchor="middle" x="245.5" y="-273.5" font-family="Helvetica,sans-Serif" font-size="10.00">quantize_rle</text>
</a>
</g>
</g>
<!-- Node2&#45;&gt;Node10 -->
<g id="edge9" class="edge"><title>Node2&#45;&gt;Node10</title>
<path fill="none" stroke="midnightblue" d="M166.43,-263.69C180.1,-265.846 195.114,-268.213 208.292,-270.291"/>
<polygon fill="midnightblue" stroke="midnightblue" points="166.715,-260.192 156.292,-262.092 165.625,-267.107 166.715,-260.192"/>
</g>
<!-- Node11 -->
<g id="node11" class="node"><title>Node11</title>
<g id="a_node11"><a xlink:href="../../d5/d6d/mcut_8c.html#a9cc66ce9d63f137600680f9dc62a64e2" target="_top" xlink:title="quantize_dither_rle">
<polygon fill="white" stroke="black" points="192,-228.5 192,-247.5 299,-247.5 299,-228.5 192,-228.5"/>
<text text-anchor="middle" x="245.5" y="-235.5" font-family="Helvetica,sans-Serif" font-size="10.00">quantize_dither_rle</text>
</a>
</g>
</g>
<!-- Node2&#45;&gt;Node11 -->
<g id="edge10" class="edge"><title>Node2&#45;&gt;Node11</title>
<path fill="none" stroke="midnightblue" d="M166.339,-250.324C174.516,-249.035 183.178,-247.669 191.641,-246.335"/>
<polygon fill="midnightblue" stroke="midnightblue" points="165.625,-246.893 156.292,-251.908 166.715,-253.808 165.625,-246.893"/>
</g>
<!-- Node12 -->
<g id="node12" class="node"><title>Node12</title>
<g id="a_node12"><a xlink:href="../../d2/d80/painttorle_8c.html#a99b8e10295ea91681288ec917ed2f150" target="_top" xlink:title="write_scan">
<polygon fill="white" stroke="black" points="211.5,-190.5 211.5,-209.5 279.5,-209.5 279.5,-190.5 211.5,-190.5"/>
<text text-anchor="middle" x="245.5" y="-197.5" font-family="Helvetica,sans-Serif" font-size="10.00">write_scan</text>
</a>
</g>
</g>
<!-- Node2&#45;&gt;Node12 -->
<g id="edge11" class="edge"><title>Node2&#45;&gt;Node12</title>
<path fill="none" stroke="midnightblue" d="M148.208,-242.208C160.975,-234.734 177.053,-225.827 192,-219 199.495,-215.577 207.8,-212.333 215.552,-209.525"/>
<polygon fill="midnightblue" stroke="midnightblue" points="146.368,-239.23 139.56,-247.347 149.944,-245.248 146.368,-239.23"/>
</g>
<!-- Node13 -->
<g id="node13" class="node"><title>Node13</title>
<g id="a_node13"><a xlink:href="../../d5/da5/pgmtorle_8c.html#a59dedbceac7b3b0556882c5e2755cbae" target="_top" xlink:title="write_rle_data">
<polygon fill="white" stroke="black" points="203.5,-152.5 203.5,-171.5 287.5,-171.5 287.5,-152.5 203.5,-152.5"/>
<text text-anchor="middle" x="245.5" y="-159.5" font-family="Helvetica,sans-Serif" font-size="10.00">write_rle_data</text>
</a>
</g>
</g>
<!-- Node2&#45;&gt;Node13 -->
<g id="edge12" class="edge"><title>Node2&#45;&gt;Node13</title>
<path fill="none" stroke="midnightblue" d="M136.126,-238.928C148.406,-221.868 168.851,-196.636 192,-181 197.623,-177.202 204.096,-174.061 210.534,-171.5"/>
<polygon fill="midnightblue" stroke="midnightblue" points="133.03,-237.248 130.178,-247.452 138.77,-241.254 133.03,-237.248"/>
</g>
<!-- Node15 -->
<g id="node15" class="node"><title>Node15</title>
<g id="a_node15"><a xlink:href="../../df/d69/pyrlib_8c.html#a8ea97ad59589726a4ef46f30e636d1c5" target="_top" xlink:title="dump_pyramid">
<polygon fill="white" stroke="black" points="202.5,-114.5 202.5,-133.5 288.5,-133.5 288.5,-114.5 202.5,-114.5"/>
<text text-anchor="middle" x="245.5" y="-121.5" font-family="Helvetica,sans-Serif" font-size="10.00">dump_pyramid</text>
</a>
</g>
</g>
<!-- Node2&#45;&gt;Node15 -->
<g id="edge14" class="edge"><title>Node2&#45;&gt;Node15</title>
<path fill="none" stroke="midnightblue" d="M130.774,-237.695C140.542,-212.519 160.899,-168.674 192,-143 196.635,-139.174 202.104,-136.087 207.731,-133.605"/>
<polygon fill="midnightblue" stroke="midnightblue" points="127.432,-236.641 127.236,-247.234 133.995,-239.075 127.432,-236.641"/>
</g>
<!-- Node16 -->
<g id="node16" class="node"><title>Node16</title>
<g id="a_node16"><a xlink:href="../../d5/dd9/rleClock_8c.html#a029cc0b8bfeacc031dd11bd48caf3a2d" target="_top" xlink:title="rasterWrite">
<polygon fill="white" stroke="black" points="211,-76.5 211,-95.5 280,-95.5 280,-76.5 211,-76.5"/>
<text text-anchor="middle" x="245.5" y="-83.5" font-family="Helvetica,sans-Serif" font-size="10.00">rasterWrite</text>
</a>
</g>
</g>
<!-- Node2&#45;&gt;Node16 -->
<g id="edge15" class="edge"><title>Node2&#45;&gt;Node16</title>
<path fill="none" stroke="midnightblue" d="M127.63,-237.363C134.549,-205.299 152.595,-141.613 192,-105 197.326,-100.052 204.037,-96.3719 210.865,-93.6422"/>
<polygon fill="midnightblue" stroke="midnightblue" points="124.174,-236.795 125.629,-247.289 131.036,-238.178 124.174,-236.795"/>
</g>
<!-- Node17 -->
<g id="node17" class="node"><title>Node17</title>
<g id="a_node17"><a xlink:href="../../dc/d5c/rlequant_8c.html#afa09bae9f799d9c1c2ae2ac845c56688" target="_top" xlink:title="write_output">
<polygon fill="white" stroke="black" points="208.5,-38.5 208.5,-57.5 282.5,-57.5 282.5,-38.5 208.5,-38.5"/>
<text text-anchor="middle" x="245.5" y="-45.5" font-family="Helvetica,sans-Serif" font-size="10.00">write_output</text>
</a>
</g>
</g>
<!-- Node2&#45;&gt;Node17 -->
<g id="edge16" class="edge"><title>Node2&#45;&gt;Node17</title>
<path fill="none" stroke="midnightblue" d="M125.654,-236.864C129.855,-198.593 144.264,-114.905 192,-67 196.584,-62.3996 202.365,-58.9058 208.402,-56.2545"/>
<polygon fill="midnightblue" stroke="midnightblue" points="122.134,-236.902 124.653,-247.193 129.101,-237.578 122.134,-236.902"/>
</g>
<!-- Node18 -->
<g id="node18" class="node"><title>Node18</title>
<g id="a_node18"><a xlink:href="../../d5/d42/rlezoom_8c.html#ae2388617c7379e059ac295622b6e7414" target="_top" xlink:title="float_zoom">
<polygon fill="white" stroke="black" points="211.5,-0.5 211.5,-19.5 279.5,-19.5 279.5,-0.5 211.5,-0.5"/>
<text text-anchor="middle" x="245.5" y="-7.5" font-family="Helvetica,sans-Serif" font-size="10.00">float_zoom</text>
</a>
</g>
</g>
<!-- Node2&#45;&gt;Node18 -->
<g id="edge17" class="edge"><title>Node2&#45;&gt;Node18</title>
<path fill="none" stroke="midnightblue" d="M124.215,-237.144C125.761,-193.597 135.511,-88.8275 192,-29 197.257,-23.4322 204.269,-19.4913 211.452,-16.7036"/>
<polygon fill="midnightblue" stroke="midnightblue" points="120.712,-237.194 123.969,-247.275 127.71,-237.363 120.712,-237.194"/>
</g>
<!-- Node8 -->
<g id="node8" class="node"><title>Node8</title>
<g id="a_node8"><a xlink:href="../../dc/d11/getami_8c.html#a7be6d508b8d11374d4aef0a66817d9f0" target="_top" xlink:title="main">
<polygon fill="white" stroke="black" points="335,-342.5 335,-361.5 374,-361.5 374,-342.5 335,-342.5"/>
<text text-anchor="middle" x="354.5" y="-349.5" font-family="Helvetica,sans-Serif" font-size="10.00">main</text>
</a>
</g>
</g>
<!-- Node7&#45;&gt;Node8 -->
<g id="edge7" class="edge"><title>Node7&#45;&gt;Node8</title>
<path fill="none" stroke="midnightblue" d="M301.34,-352C313.382,-352 325.333,-352 334.751,-352"/>
<polygon fill="midnightblue" stroke="midnightblue" points="301.258,-348.5 291.258,-352 301.258,-355.5 301.258,-348.5"/>
</g>
<!-- Node14 -->
<g id="node14" class="node"><title>Node14</title>
<g id="a_node14"><a xlink:href="../../d5/da5/pgmtorle_8c.html#a3c04138a5bfe5d72780bb7e82a18e627" target="_top" xlink:title="main">
<polygon fill="white" stroke="black" points="335,-152.5 335,-171.5 374,-171.5 374,-152.5 335,-152.5"/>
<text text-anchor="middle" x="354.5" y="-159.5" font-family="Helvetica,sans-Serif" font-size="10.00">main</text>
</a>
</g>
</g>
<!-- Node13&#45;&gt;Node14 -->
<g id="edge13" class="edge"><title>Node13&#45;&gt;Node14</title>
<path fill="none" stroke="midnightblue" d="M297.622,-162C310.896,-162 324.367,-162 334.755,-162"/>
<polygon fill="midnightblue" stroke="midnightblue" points="297.563,-158.5 287.563,-162 297.563,-165.5 297.563,-158.5"/>
</g>
</g>
</svg>
