<?xml version="1.0" encoding="UTF-8" standalone="no"?>
<!DOCTYPE svg PUBLIC "-//W3C//DTD SVG 1.1//EN"
 "http://www.w3.org/Graphics/SVG/1.1/DTD/svg11.dtd">
<!-- Generated by graphviz version 2.38.0 (20140413.2041)
 -->
<!-- Title: rle_put_init Pages: 1 -->
<svg width="400pt" height="408pt"
 viewBox="0.00 0.00 400.00 408.00" xmlns="http://www.w3.org/2000/svg" xmlns:xlink="http://www.w3.org/1999/xlink">
<g id="graph0" class="graph" transform="scale(1 1) rotate(0) translate(4 404)">
<title>rle_put_init</title>
<polygon fill="white" stroke="none" points="-4,4 -4,-404 396,-404 396,4 -4,4"/>
<!-- Node1 -->
<g id="node1" class="node"><title>Node1</title>
<polygon fill="#bfbfbf" stroke="black" points="0,-190.5 0,-209.5 68,-209.5 68,-190.5 0,-190.5"/>
<text text-anchor="middle" x="34" y="-197.5" font-family="Helvetica,sans-Serif" font-size="10.00">rle_put_init</text>
</g>
<!-- Node2 -->
<g id="node2" class="node"><title>Node2</title>
<g id="a_node2"><a xlink:href="../../d9/d2a/rle__putrow_8c.html#af88a82b331cd6f425d2a2cc1623944c6" target="_top" xlink:title="rle_put_setup">
<polygon fill="white" stroke="black" points="104,-190.5 104,-209.5 184,-209.5 184,-190.5 104,-190.5"/>
<text text-anchor="middle" x="144" y="-197.5" font-family="Helvetica,sans-Serif" font-size="10.00">rle_put_setup</text>
</a>
</g>
</g>
<!-- Node1&#45;&gt;Node2 -->
<g id="edge1" class="edge"><title>Node1&#45;&gt;Node2</title>
<path fill="none" stroke="midnightblue" d="M78.3642,-200C86.8232,-200 95.6447,-200 103.953,-200"/>
<polygon fill="midnightblue" stroke="midnightblue" points="78.2848,-196.5 68.2848,-200 78.2848,-203.5 78.2848,-196.5"/>
</g>
<!-- Node3 -->
<g id="node3" class="node"><title>Node3</title>
<g id="a_node3"><a xlink:href="../../dc/d7b/aliastorle_8c.html#a5c5fc7dc4eaef8488f188374657848c4" target="_top" xlink:title="write_rle">
<polygon fill="white" stroke="black" points="240,-380.5 240,-399.5 297,-399.5 297,-380.5 240,-380.5"/>
<text text-anchor="middle" x="268.5" y="-387.5" font-family="Helvetica,sans-Serif" font-size="10.00">write_rle</text>
</a>
</g>
</g>
<!-- Node2&#45;&gt;Node3 -->
<g id="edge2" class="edge"><title>Node2&#45;&gt;Node3</title>
<path fill="none" stroke="midnightblue" d="M148.513,-219.479C155.782,-254.415 175.646,-328.079 220,-371 225.489,-376.312 232.651,-380.199 239.742,-383.019"/>
<polygon fill="midnightblue" stroke="midnightblue" points="151.933,-218.728 146.581,-209.584 145.063,-220.07 151.933,-218.728"/>
</g>
<!-- Node4 -->
<g id="node4" class="node"><title>Node4</title>
<g id="a_node4"><a xlink:href="../../d7/def/applymap_8c.html#a70db8bd1d499619f7ff9c1ca2ff3c8df" target="_top" xlink:title="main">
<polygon fill="white" stroke="black" points="249,-342.5 249,-361.5 288,-361.5 288,-342.5 249,-342.5"/>
<text text-anchor="middle" x="268.5" y="-349.5" font-family="Helvetica,sans-Serif" font-size="10.00">main</text>
</a>
</g>
</g>
<!-- Node2&#45;&gt;Node4 -->
<g id="edge3" class="edge"><title>Node2&#45;&gt;Node4</title>
<path fill="none" stroke="midnightblue" d="M151.261,-219.473C161.379,-248.064 183.916,-301.42 220,-333 228.154,-340.136 239.324,-344.786 248.784,-347.698"/>
<polygon fill="midnightblue" stroke="midnightblue" points="154.516,-218.171 147.989,-209.825 147.887,-220.419 154.516,-218.171"/>
</g>
<!-- Node5 -->
<g id="node5" class="node"><title>Node5</title>
<g id="a_node5"><a xlink:href="../../d6/d0d/dvirle2_8c.html#aef451fde75e78970c60e8ef15d4a70e9" target="_top" xlink:title="WriteBuf">
<polygon fill="white" stroke="black" points="240.5,-304.5 240.5,-323.5 296.5,-323.5 296.5,-304.5 240.5,-304.5"/>
<text text-anchor="middle" x="268.5" y="-311.5" font-family="Helvetica,sans-Serif" font-size="10.00">WriteBuf</text>
</a>
</g>
</g>
<!-- Node2&#45;&gt;Node5 -->
<g id="edge4" class="edge"><title>Node2&#45;&gt;Node5</title>
<path fill="none" stroke="midnightblue" d="M155.414,-218.382C168.189,-239.468 191.676,-273.845 220,-295 225.977,-299.465 233.146,-303.045 240.081,-305.841"/>
<polygon fill="midnightblue" stroke="midnightblue" points="158.408,-216.568 150.319,-209.725 152.375,-220.119 158.408,-216.568"/>
</g>
<!-- Node6 -->
<g id="node6" class="node"><title>Node6</title>
<g id="a_node6"><a xlink:href="../../dd/ddd/fant_8c.html#aaf3fae1a2961d5bcaeaece519f8928b2" target="_top" xlink:title="putraster">
<polygon fill="white" stroke="black" points="239,-266.5 239,-285.5 298,-285.5 298,-266.5 239,-266.5"/>
<text text-anchor="middle" x="268.5" y="-273.5" font-family="Helvetica,sans-Serif" font-size="10.00">putraster</text>
</a>
</g>
</g>
<!-- Node2&#45;&gt;Node6 -->
<g id="edge5" class="edge"><title>Node2&#45;&gt;Node6</title>
<path fill="none" stroke="midnightblue" d="M163.804,-216.577C178.402,-228.862 199.538,-245.414 220,-257 226.183,-260.501 233.14,-263.669 239.784,-266.371"/>
<polygon fill="midnightblue" stroke="midnightblue" points="165.89,-213.756 156.019,-209.907 161.336,-219.071 165.89,-213.756"/>
</g>
<!-- Node7 -->
<g id="node7" class="node"><title>Node7</title>
<g id="a_node7"><a xlink:href="../../dc/d11/getami_8c.html#aa654afe741816fa93d1cd7e49ef583ec" target="_top" xlink:title="find_most_used">
<polygon fill="white" stroke="black" points="223,-228.5 223,-247.5 314,-247.5 314,-228.5 223,-228.5"/>
<text text-anchor="middle" x="268.5" y="-235.5" font-family="Helvetica,sans-Serif" font-size="10.00">find_most_used</text>
</a>
</g>
</g>
<!-- Node2&#45;&gt;Node7 -->
<g id="edge6" class="edge"><title>Node2&#45;&gt;Node7</title>
<path fill="none" stroke="midnightblue" d="M185.878,-212.68C202.429,-217.815 221.221,-223.644 236.598,-228.414"/>
<polygon fill="midnightblue" stroke="midnightblue" points="186.5,-209.209 175.912,-209.589 184.426,-215.895 186.5,-209.209"/>
</g>
<!-- Node9 -->
<g id="node9" class="node"><title>Node9</title>
<g id="a_node9"><a xlink:href="../../d1/dad/giftorle_8c.html#a4a32ad17d41944729fd2ecacccf68d07" target="_top" xlink:title="ReadRaster">
<polygon fill="white" stroke="black" points="231.5,-190.5 231.5,-209.5 305.5,-209.5 305.5,-190.5 231.5,-190.5"/>
<text text-anchor="middle" x="268.5" y="-197.5" font-family="Helvetica,sans-Serif" font-size="10.00">ReadRaster</text>
</a>
</g>
</g>
<!-- Node2&#45;&gt;Node9 -->
<g id="edge8" class="edge"><title>Node2&#45;&gt;Node9</title>
<path fill="none" stroke="midnightblue" d="M194.274,-200C206.636,-200 219.675,-200 231.269,-200"/>
<polygon fill="midnightblue" stroke="midnightblue" points="194.097,-196.5 184.097,-200 194.097,-203.5 194.097,-196.5"/>
</g>
<!-- Node10 -->
<g id="node10" class="node"><title>Node10</title>
<g id="a_node10"><a xlink:href="../../d5/da5/pgmtorle_8c.html#a01b94ac6df1d57a85105d5ebeff06d5e" target="_top" xlink:title="write_rle_header">
<polygon fill="white" stroke="black" points="220,-152.5 220,-171.5 317,-171.5 317,-152.5 220,-152.5"/>
<text text-anchor="middle" x="268.5" y="-159.5" font-family="Helvetica,sans-Serif" font-size="10.00">write_rle_header</text>
</a>
</g>
</g>
<!-- Node2&#45;&gt;Node10 -->
<g id="edge9" class="edge"><title>Node2&#45;&gt;Node10</title>
<path fill="none" stroke="midnightblue" d="M185.878,-187.32C202.429,-182.185 221.221,-176.356 236.598,-171.586"/>
<polygon fill="midnightblue" stroke="midnightblue" points="184.426,-184.105 175.912,-190.411 186.5,-190.791 184.426,-184.105"/>
</g>
<!-- Node12 -->
<g id="node12" class="node"><title>Node12</title>
<g id="a_node12"><a xlink:href="../../df/d69/pyrlib_8c.html#a8ea97ad59589726a4ef46f30e636d1c5" target="_top" xlink:title="dump_pyramid">
<polygon fill="white" stroke="black" points="225.5,-114.5 225.5,-133.5 311.5,-133.5 311.5,-114.5 225.5,-114.5"/>
<text text-anchor="middle" x="268.5" y="-121.5" font-family="Helvetica,sans-Serif" font-size="10.00">dump_pyramid</text>
</a>
</g>
</g>
<!-- Node2&#45;&gt;Node12 -->
<g id="edge11" class="edge"><title>Node2&#45;&gt;Node12</title>
<path fill="none" stroke="midnightblue" d="M163.804,-183.423C178.402,-171.138 199.538,-154.586 220,-143 226.183,-139.499 233.14,-136.331 239.784,-133.629"/>
<polygon fill="midnightblue" stroke="midnightblue" points="161.336,-180.929 156.019,-190.093 165.89,-186.244 161.336,-180.929"/>
</g>
<!-- Node13 -->
<g id="node13" class="node"><title>Node13</title>
<g id="a_node13"><a xlink:href="../../d5/dd9/rleClock_8c.html#a029cc0b8bfeacc031dd11bd48caf3a2d" target="_top" xlink:title="rasterWrite">
<polygon fill="white" stroke="black" points="234,-76.5 234,-95.5 303,-95.5 303,-76.5 234,-76.5"/>
<text text-anchor="middle" x="268.5" y="-83.5" font-family="Helvetica,sans-Serif" font-size="10.00">rasterWrite</text>
</a>
</g>
</g>
<!-- Node2&#45;&gt;Node13 -->
<g id="edge12" class="edge"><title>Node2&#45;&gt;Node13</title>
<path fill="none" stroke="midnightblue" d="M155.414,-181.618C168.189,-160.532 191.676,-126.155 220,-105 224.981,-101.28 230.79,-98.1732 236.601,-95.6232"/>
<polygon fill="midnightblue" stroke="midnightblue" points="152.375,-179.881 150.319,-190.275 158.408,-183.432 152.375,-179.881"/>
</g>
<!-- Node14 -->
<g id="node14" class="node"><title>Node14</title>
<g id="a_node14"><a xlink:href="../../dc/d5c/rlequant_8c.html#a4b6861aad9a587cc1de2948b23347558" target="_top" xlink:title="setup_output">
<polygon fill="white" stroke="black" points="230,-38.5 230,-57.5 307,-57.5 307,-38.5 230,-38.5"/>
<text text-anchor="middle" x="268.5" y="-45.5" font-family="Helvetica,sans-Serif" font-size="10.00">setup_output</text>
</a>
</g>
</g>
<!-- Node2&#45;&gt;Node14 -->
<g id="edge13" class="edge"><title>Node2&#45;&gt;Node14</title>
<path fill="none" stroke="midnightblue" d="M151.261,-180.527C161.379,-151.936 183.916,-98.5796 220,-67 224.278,-63.2564 229.385,-60.1972 234.64,-57.714"/>
<polygon fill="midnightblue" stroke="midnightblue" points="147.887,-179.581 147.989,-190.175 154.516,-181.829 147.887,-179.581"/>
</g>
<!-- Node15 -->
<g id="node15" class="node"><title>Node15</title>
<g id="a_node15"><a xlink:href="../../df/dfb/unslice_8c.html#a7090aec632931a42b5d606b6db234b9d" target="_top" xlink:title="do_slice">
<polygon fill="white" stroke="black" points="240.5,-0.5 240.5,-19.5 296.5,-19.5 296.5,-0.5 240.5,-0.5"/>
<text text-anchor="middle" x="268.5" y="-7.5" font-family="Helvetica,sans-Serif" font-size="10.00">do_slice</text>
</a>
</g>
</g>
<!-- Node2&#45;&gt;Node15 -->
<g id="edge14" class="edge"><title>Node2&#45;&gt;Node15</title>
<path fill="none" stroke="midnightblue" d="M148.513,-180.521C155.782,-145.585 175.646,-71.9212 220,-29 225.617,-23.5647 232.985,-19.6211 240.236,-16.7858"/>
<polygon fill="midnightblue" stroke="midnightblue" points="145.063,-179.93 146.581,-190.416 151.933,-181.272 145.063,-179.93"/>
</g>
<!-- Node8 -->
<g id="node8" class="node"><title>Node8</title>
<g id="a_node8"><a xlink:href="../../dc/d11/getami_8c.html#a7be6d508b8d11374d4aef0a66817d9f0" target="_top" xlink:title="main">
<polygon fill="white" stroke="black" points="353,-228.5 353,-247.5 392,-247.5 392,-228.5 353,-228.5"/>
<text text-anchor="middle" x="372.5" y="-235.5" font-family="Helvetica,sans-Serif" font-size="10.00">main</text>
</a>
</g>
</g>
<!-- Node7&#45;&gt;Node8 -->
<g id="edge7" class="edge"><title>Node7&#45;&gt;Node8</title>
<path fill="none" stroke="midnightblue" d="M324.487,-238C334.725,-238 344.748,-238 352.891,-238"/>
<polygon fill="midnightblue" stroke="midnightblue" points="324.239,-234.5 314.239,-238 324.239,-241.5 324.239,-234.5"/>
</g>
<!-- Node11 -->
<g id="node11" class="node"><title>Node11</title>
<g id="a_node11"><a xlink:href="../../d5/da5/pgmtorle_8c.html#a3c04138a5bfe5d72780bb7e82a18e627" target="_top" xlink:title="main">
<polygon fill="white" stroke="black" points="353,-152.5 353,-171.5 392,-171.5 392,-152.5 353,-152.5"/>
<text text-anchor="middle" x="372.5" y="-159.5" font-family="Helvetica,sans-Serif" font-size="10.00">main</text>
</a>
</g>
</g>
<!-- Node10&#45;&gt;Node11 -->
<g id="edge10" class="edge"><title>Node10&#45;&gt;Node11</title>
<path fill="none" stroke="midnightblue" d="M327.295,-162C336.529,-162 345.46,-162 352.849,-162"/>
<polygon fill="midnightblue" stroke="midnightblue" points="327.215,-158.5 317.215,-162 327.215,-165.5 327.215,-158.5"/>
</g>
</g>
</svg>
