<?xml version="1.0" encoding="UTF-8" standalone="no"?>
<!DOCTYPE svg PUBLIC "-//W3C//DTD SVG 1.1//EN"
 "http://www.w3.org/Graphics/SVG/1.1/DTD/svg11.dtd">
<!-- Generated by graphviz version 2.38.0 (20140413.2041)
 -->
<!-- Title: rleaddcom.c Pages: 1 -->
<svg width="645pt" height="84pt"
 viewBox="0.00 0.00 645.00 84.00" xmlns="http://www.w3.org/2000/svg" xmlns:xlink="http://www.w3.org/1999/xlink">
<g id="graph0" class="graph" transform="scale(1 1) rotate(0) translate(4 80)">
<title>rleaddcom.c</title>
<polygon fill="white" stroke="none" points="-4,4 -4,-80 641,-80 641,4 -4,4"/>
<!-- Node1 -->
<g id="node1" class="node"><title>Node1</title>
<polygon fill="#bfbfbf" stroke="black" points="246.5,-56.5 246.5,-75.5 320.5,-75.5 320.5,-56.5 246.5,-56.5"/>
<text text-anchor="middle" x="283.5" y="-63.5" font-family="Helvetica,sans-Serif" font-size="10.00">rleaddcom.c</text>
</g>
<!-- Node2 -->
<g id="node2" class="node"><title>Node2</title>
<polygon fill="white" stroke="#bfbfbf" points="0,-0.5 0,-19.5 37,-19.5 37,-0.5 0,-0.5"/>
<text text-anchor="middle" x="18.5" y="-7.5" font-family="Helvetica,sans-Serif" font-size="10.00">rle.h</text>
</g>
<!-- Node1&#45;&gt;Node2 -->
<g id="edge1" class="edge"><title>Node1&#45;&gt;Node2</title>
<path fill="none" stroke="midnightblue" d="M246.464,-59.5852C201.385,-52.6482 122.827,-39.4472 47.4202,-20.2446"/>
<polygon fill="midnightblue" stroke="midnightblue" points="47.8437,-16.7389 37.2857,-17.6218 46.0899,-23.5156 47.8437,-16.7389"/>
</g>
<!-- Node3 -->
<g id="node3" class="node"><title>Node3</title>
<polygon fill="white" stroke="#bfbfbf" points="55,-0.5 55,-19.5 102,-19.5 102,-0.5 55,-0.5"/>
<text text-anchor="middle" x="78.5" y="-7.5" font-family="Helvetica,sans-Serif" font-size="10.00">stdio.h</text>
</g>
<!-- Node1&#45;&gt;Node3 -->
<g id="edge2" class="edge"><title>Node1&#45;&gt;Node3</title>
<path fill="none" stroke="midnightblue" d="M249.96,-56.4841C217.113,-48.0984 165.391,-34.7721 112.197,-20.4258"/>
<polygon fill="midnightblue" stroke="midnightblue" points="112.818,-16.9682 102.251,-17.7362 110.991,-23.7255 112.818,-16.9682"/>
</g>
<!-- Node4 -->
<g id="node4" class="node"><title>Node4</title>
<polygon fill="white" stroke="#bfbfbf" points="120,-0.5 120,-19.5 169,-19.5 169,-0.5 120,-0.5"/>
<text text-anchor="middle" x="144.5" y="-7.5" font-family="Helvetica,sans-Serif" font-size="10.00">stdlib.h</text>
</g>
<!-- Node1&#45;&gt;Node4 -->
<g id="edge3" class="edge"><title>Node1&#45;&gt;Node4</title>
<path fill="none" stroke="midnightblue" d="M261.475,-56.4435C238.396,-47.4776 201.938,-33.314 175.859,-23.1827"/>
<polygon fill="midnightblue" stroke="midnightblue" points="177.011,-19.8753 166.422,-19.5164 174.476,-26.4002 177.011,-19.8753"/>
</g>
<!-- Node5 -->
<g id="node5" class="node"><title>Node5</title>
<polygon fill="white" stroke="#bfbfbf" points="187,-0.5 187,-19.5 240,-19.5 240,-0.5 187,-0.5"/>
<text text-anchor="middle" x="213.5" y="-7.5" font-family="Helvetica,sans-Serif" font-size="10.00">unistd.h</text>
</g>
<!-- Node1&#45;&gt;Node5 -->
<g id="edge4" class="edge"><title>Node1&#45;&gt;Node5</title>
<path fill="none" stroke="midnightblue" d="M272.253,-56.324C261.703,-48.1849 245.699,-35.8395 233.058,-26.0874"/>
<polygon fill="midnightblue" stroke="midnightblue" points="235.007,-23.1707 224.951,-19.8339 230.731,-28.7132 235.007,-23.1707"/>
</g>
<!-- Node6 -->
<g id="node6" class="node"><title>Node6</title>
<polygon fill="white" stroke="#bfbfbf" points="258.5,-0.5 258.5,-19.5 308.5,-19.5 308.5,-0.5 258.5,-0.5"/>
<text text-anchor="middle" x="283.5" y="-7.5" font-family="Helvetica,sans-Serif" font-size="10.00">errno.h</text>
</g>
<!-- Node1&#45;&gt;Node6 -->
<g id="edge5" class="edge"><title>Node1&#45;&gt;Node6</title>
<path fill="none" stroke="midnightblue" d="M283.5,-56.083C283.5,-49.0059 283.5,-38.8611 283.5,-29.9865"/>
<polygon fill="midnightblue" stroke="midnightblue" points="287,-29.751 283.5,-19.7511 280,-29.7511 287,-29.751"/>
</g>
<!-- Node7 -->
<g id="node7" class="node"><title>Node7</title>
<polygon fill="white" stroke="#bfbfbf" points="327,-0.5 327,-19.5 396,-19.5 396,-0.5 327,-0.5"/>
<text text-anchor="middle" x="361.5" y="-7.5" font-family="Helvetica,sans-Serif" font-size="10.00">sys/types.h</text>
</g>
<!-- Node1&#45;&gt;Node7 -->
<g id="edge6" class="edge"><title>Node1&#45;&gt;Node7</title>
<path fill="none" stroke="midnightblue" d="M296.032,-56.324C308.086,-47.979 326.527,-35.2122 340.769,-25.3524"/>
<polygon fill="midnightblue" stroke="midnightblue" points="342.769,-28.2243 348.999,-19.6545 338.785,-22.469 342.769,-28.2243"/>
</g>
<!-- Node8 -->
<g id="node8" class="node"><title>Node8</title>
<polygon fill="white" stroke="#bfbfbf" points="414.5,-0.5 414.5,-19.5 488.5,-19.5 488.5,-0.5 414.5,-0.5"/>
<text text-anchor="middle" x="451.5" y="-7.5" font-family="Helvetica,sans-Serif" font-size="10.00">sys/param.h</text>
</g>
<!-- Node1&#45;&gt;Node8 -->
<g id="edge7" class="edge"><title>Node1&#45;&gt;Node8</title>
<path fill="none" stroke="midnightblue" d="M310.12,-56.4435C338.506,-47.3196 383.637,-32.8133 415.253,-22.6509"/>
<polygon fill="midnightblue" stroke="midnightblue" points="416.555,-25.9087 425.004,-19.5164 414.413,-19.2445 416.555,-25.9087"/>
</g>
<!-- Node9 -->
<g id="node9" class="node"><title>Node9</title>
<polygon fill="white" stroke="#bfbfbf" points="507,-0.5 507,-19.5 568,-19.5 568,-0.5 507,-0.5"/>
<text text-anchor="middle" x="537.5" y="-7.5" font-family="Helvetica,sans-Serif" font-size="10.00">sys/stat.h</text>
</g>
<!-- Node1&#45;&gt;Node9 -->
<g id="edge8" class="edge"><title>Node1&#45;&gt;Node9</title>
<path fill="none" stroke="midnightblue" d="M320.647,-57.3537C361.354,-48.9383 428.845,-34.8791 496.894,-20.1075"/>
<polygon fill="midnightblue" stroke="midnightblue" points="497.907,-23.469 506.935,-17.9235 496.419,-16.629 497.907,-23.469"/>
</g>
<!-- Node10 -->
<g id="node10" class="node"><title>Node10</title>
<polygon fill="white" stroke="#bfbfbf" points="586,-0.5 586,-19.5 637,-19.5 637,-0.5 586,-0.5"/>
<text text-anchor="middle" x="611.5" y="-7.5" font-family="Helvetica,sans-Serif" font-size="10.00">string.h</text>
</g>
<!-- Node1&#45;&gt;Node10 -->
<g id="edge9" class="edge"><title>Node1&#45;&gt;Node10</title>
<path fill="none" stroke="midnightblue" d="M320.857,-60.5826C375.058,-53.8904 478.817,-40.0169 575.966,-20.1452"/>
<polygon fill="midnightblue" stroke="midnightblue" points="576.868,-23.5327 585.95,-18.0766 575.448,-16.6783 576.868,-23.5327"/>
</g>
</g>
</svg>
