<?xml version="1.0" encoding="UTF-8" standalone="no"?>
<!DOCTYPE svg PUBLIC "-//W3C//DTD SVG 1.1//EN"
 "http://www.w3.org/Graphics/SVG/1.1/DTD/svg11.dtd">
<!-- Generated by graphviz version 2.38.0 (20140413.2041)
 -->
<!-- Title: lib/rle_global.c Pages: 1 -->
<svg width="168pt" height="252pt"
 viewBox="0.00 0.00 168.00 252.00" xmlns="http://www.w3.org/2000/svg" xmlns:xlink="http://www.w3.org/1999/xlink">
<g id="graph0" class="graph" transform="scale(1 1) rotate(0) translate(4 248)">
<title>lib/rle_global.c</title>
<polygon fill="white" stroke="none" points="-4,4 -4,-248 164,-248 164,4 -4,4"/>
<!-- Node1 -->
<g id="node1" class="node"><title>Node1</title>
<polygon fill="#bfbfbf" stroke="black" points="39,-224.5 39,-243.5 122,-243.5 122,-224.5 39,-224.5"/>
<text text-anchor="middle" x="80.5" y="-231.5" font-family="Helvetica,sans-Serif" font-size="10.00">lib/rle_global.c</text>
</g>
<!-- Node2 -->
<g id="node2" class="node"><title>Node2</title>
<polygon fill="white" stroke="#bfbfbf" points="0,-56.5 0,-75.5 47,-75.5 47,-56.5 0,-56.5"/>
<text text-anchor="middle" x="23.5" y="-63.5" font-family="Helvetica,sans-Serif" font-size="10.00">stdio.h</text>
</g>
<!-- Node1&#45;&gt;Node2 -->
<g id="edge1" class="edge"><title>Node1&#45;&gt;Node2</title>
<path fill="none" stroke="midnightblue" d="M70.669,-224.407C61.789,-216.046 49.1281,-202.509 42.5,-188 27.0922,-154.271 23.8593,-110.348 23.364,-85.7697"/>
<polygon fill="midnightblue" stroke="midnightblue" points="26.8633,-85.6416 23.2971,-75.665 19.8634,-85.6879 26.8633,-85.6416"/>
</g>
<!-- Node3 -->
<g id="node3" class="node"><title>Node3</title>
<g id="a_node3"><a xlink:href="../../d0/d6e/rle__put_8h.html" target="_top" xlink:title="rle_put.h">
<polygon fill="white" stroke="black" points="52,-168.5 52,-187.5 109,-187.5 109,-168.5 52,-168.5"/>
<text text-anchor="middle" x="80.5" y="-175.5" font-family="Helvetica,sans-Serif" font-size="10.00">rle_put.h</text>
</a>
</g>
</g>
<!-- Node1&#45;&gt;Node3 -->
<g id="edge2" class="edge"><title>Node1&#45;&gt;Node3</title>
<path fill="none" stroke="midnightblue" d="M80.5,-224.083C80.5,-217.006 80.5,-206.861 80.5,-197.986"/>
<polygon fill="midnightblue" stroke="midnightblue" points="84.0001,-197.751 80.5,-187.751 77.0001,-197.751 84.0001,-197.751"/>
</g>
<!-- Node4 -->
<g id="node4" class="node"><title>Node4</title>
<g id="a_node4"><a xlink:href="../../d7/d27/rle_8h.html" target="_top" xlink:title="rle.h">
<polygon fill="white" stroke="black" points="72,-112.5 72,-131.5 109,-131.5 109,-112.5 72,-112.5"/>
<text text-anchor="middle" x="90.5" y="-119.5" font-family="Helvetica,sans-Serif" font-size="10.00">rle.h</text>
</a>
</g>
</g>
<!-- Node1&#45;&gt;Node4 -->
<g id="edge8" class="edge"><title>Node1&#45;&gt;Node4</title>
<path fill="none" stroke="midnightblue" d="M91.2145,-224.305C100.438,-216.069 113.091,-202.789 118.5,-188 124.604,-171.311 114.875,-152.733 105.254,-139.727"/>
<polygon fill="midnightblue" stroke="midnightblue" points="107.799,-137.307 98.8064,-131.705 102.343,-141.692 107.799,-137.307"/>
</g>
<!-- Node3&#45;&gt;Node4 -->
<g id="edge3" class="edge"><title>Node3&#45;&gt;Node4</title>
<path fill="none" stroke="midnightblue" d="M82.1513,-168.083C83.4764,-160.927 85.3824,-150.635 87.0387,-141.691"/>
<polygon fill="midnightblue" stroke="midnightblue" points="90.4999,-142.221 88.8794,-131.751 83.617,-140.947 90.4999,-142.221"/>
</g>
<!-- Node4&#45;&gt;Node2 -->
<g id="edge7" class="edge"><title>Node4&#45;&gt;Node2</title>
<path fill="none" stroke="midnightblue" d="M79.7353,-112.324C69.7339,-104.263 54.6135,-92.0765 42.5695,-82.3695"/>
<polygon fill="midnightblue" stroke="midnightblue" points="44.4429,-79.3841 34.4606,-75.8339 40.0502,-84.8343 44.4429,-79.3841"/>
</g>
<!-- Node5 -->
<g id="node5" class="node"><title>Node5</title>
<g id="a_node5"><a xlink:href="../../df/dad/rle__config_8h.html" target="_top" xlink:title="rle_config.h">
<polygon fill="white" stroke="black" points="65,-56.5 65,-75.5 136,-75.5 136,-56.5 65,-56.5"/>
<text text-anchor="middle" x="100.5" y="-63.5" font-family="Helvetica,sans-Serif" font-size="10.00">rle_config.h</text>
</a>
</g>
</g>
<!-- Node4&#45;&gt;Node5 -->
<g id="edge4" class="edge"><title>Node4&#45;&gt;Node5</title>
<path fill="none" stroke="midnightblue" d="M92.1513,-112.083C93.4764,-104.927 95.3824,-94.6353 97.0387,-85.6911"/>
<polygon fill="midnightblue" stroke="midnightblue" points="100.5,-86.2212 98.8794,-75.7511 93.617,-84.9466 100.5,-86.2212"/>
</g>
<!-- Node6 -->
<g id="node6" class="node"><title>Node6</title>
<polygon fill="white" stroke="#bfbfbf" points="42,-0.5 42,-19.5 91,-19.5 91,-0.5 42,-0.5"/>
<text text-anchor="middle" x="66.5" y="-7.5" font-family="Helvetica,sans-Serif" font-size="10.00">stdlib.h</text>
</g>
<!-- Node5&#45;&gt;Node6 -->
<g id="edge5" class="edge"><title>Node5&#45;&gt;Node6</title>
<path fill="none" stroke="midnightblue" d="M94.8856,-56.083C90.1326,-48.5341 83.1819,-37.4948 77.3484,-28.2298"/>
<polygon fill="midnightblue" stroke="midnightblue" points="80.2999,-26.3486 72.0099,-19.7511 74.3763,-30.0783 80.2999,-26.3486"/>
</g>
<!-- Node7 -->
<g id="node7" class="node"><title>Node7</title>
<polygon fill="white" stroke="#bfbfbf" points="109,-0.5 109,-19.5 160,-19.5 160,-0.5 109,-0.5"/>
<text text-anchor="middle" x="134.5" y="-7.5" font-family="Helvetica,sans-Serif" font-size="10.00">string.h</text>
</g>
<!-- Node5&#45;&gt;Node7 -->
<g id="edge6" class="edge"><title>Node5&#45;&gt;Node7</title>
<path fill="none" stroke="midnightblue" d="M106.114,-56.083C110.867,-48.5341 117.818,-37.4948 123.652,-28.2298"/>
<polygon fill="midnightblue" stroke="midnightblue" points="126.624,-30.0783 128.99,-19.7511 120.7,-26.3486 126.624,-30.0783"/>
</g>
</g>
</svg>
