<?xml version="1.0" encoding="UTF-8" standalone="no"?>
<!DOCTYPE svg PUBLIC "-//W3C//DTD SVG 1.1//EN"
 "http://www.w3.org/Graphics/SVG/1.1/DTD/svg11.dtd">
<!-- Generated by graphviz version 2.38.0 (20140413.2041)
 -->
<!-- Title: rle_global.c Pages: 1 -->
<svg width="185pt" height="84pt"
 viewBox="0.00 0.00 185.00 84.00" xmlns="http://www.w3.org/2000/svg" xmlns:xlink="http://www.w3.org/1999/xlink">
<g id="graph0" class="graph" transform="scale(1 1) rotate(0) translate(4 80)">
<title>rle_global.c</title>
<polygon fill="white" stroke="none" points="-4,4 -4,-80 181,-80 181,4 -4,4"/>
<!-- Node1 -->
<g id="node1" class="node"><title>Node1</title>
<polygon fill="#bfbfbf" stroke="black" points="58.5,-56.5 58.5,-75.5 128.5,-75.5 128.5,-56.5 58.5,-56.5"/>
<text text-anchor="middle" x="93.5" y="-63.5" font-family="Helvetica,sans-Serif" font-size="10.00">rle_global.c</text>
</g>
<!-- Node2 -->
<g id="node2" class="node"><title>Node2</title>
<polygon fill="white" stroke="#bfbfbf" points="0,-0.5 0,-19.5 47,-19.5 47,-0.5 0,-0.5"/>
<text text-anchor="middle" x="23.5" y="-7.5" font-family="Helvetica,sans-Serif" font-size="10.00">stdio.h</text>
</g>
<!-- Node1&#45;&gt;Node2 -->
<g id="edge1" class="edge"><title>Node1&#45;&gt;Node2</title>
<path fill="none" stroke="midnightblue" d="M82.2533,-56.324C71.7026,-48.1849 55.6993,-35.8395 43.0578,-26.0874"/>
<polygon fill="midnightblue" stroke="midnightblue" points="45.007,-23.1707 34.9513,-19.8339 40.7314,-28.7132 45.007,-23.1707"/>
</g>
<!-- Node3 -->
<g id="node3" class="node"><title>Node3</title>
<polygon fill="white" stroke="#bfbfbf" points="65,-0.5 65,-19.5 122,-19.5 122,-0.5 65,-0.5"/>
<text text-anchor="middle" x="93.5" y="-7.5" font-family="Helvetica,sans-Serif" font-size="10.00">rle_put.h</text>
</g>
<!-- Node1&#45;&gt;Node3 -->
<g id="edge2" class="edge"><title>Node1&#45;&gt;Node3</title>
<path fill="none" stroke="midnightblue" d="M93.5,-56.083C93.5,-49.0059 93.5,-38.8611 93.5,-29.9865"/>
<polygon fill="midnightblue" stroke="midnightblue" points="97.0001,-29.751 93.5,-19.7511 90.0001,-29.7511 97.0001,-29.751"/>
</g>
<!-- Node4 -->
<g id="node4" class="node"><title>Node4</title>
<polygon fill="white" stroke="#bfbfbf" points="140,-0.5 140,-19.5 177,-19.5 177,-0.5 140,-0.5"/>
<text text-anchor="middle" x="158.5" y="-7.5" font-family="Helvetica,sans-Serif" font-size="10.00">rle.h</text>
</g>
<!-- Node1&#45;&gt;Node4 -->
<g id="edge3" class="edge"><title>Node1&#45;&gt;Node4</title>
<path fill="none" stroke="midnightblue" d="M103.943,-56.324C113.646,-48.2631 128.315,-36.0765 140,-26.3695"/>
<polygon fill="midnightblue" stroke="midnightblue" points="142.411,-28.9163 147.867,-19.8339 137.938,-23.532 142.411,-28.9163"/>
</g>
</g>
</svg>
