<?xml version="1.0" encoding="UTF-8" standalone="no"?>
<!DOCTYPE svg PUBLIC "-//W3C//DTD SVG 1.1//EN"
 "http://www.w3.org/Graphics/SVG/1.1/DTD/svg11.dtd">
<!-- Generated by graphviz version 2.38.0 (20140413.2041)
 -->
<!-- Title: main Pages: 1 -->
<!--zoomable 674 -->
<svg id="main" version="1.1" xmlns="http://www.w3.org/2000/svg" xmlns:xlink="http://www.w3.org/1999/xlink" xml:space="preserve" onload="init(evt)">
<style type="text/css"><![CDATA[
.edge:hover path { stroke: red; }
.edge:hover polygon { stroke: red; fill: red; }
]]></style>
<script type="text/javascript"><![CDATA[
var edges = document.getElementsByTagName('g');
if (edges && edges.length) {
  for (var i=0;i<edges.length;i++) {
    if (edges[i].id.substr(0,4)=='edge') {
      edges[i].setAttribute('class','edge');
    }
  }
}
]]></script>
        <defs>
                <circle id="rim" cx="0" cy="0" r="7"/>
                <circle id="rim2" cx="0" cy="0" r="3.5"/>
                <g id="zoomPlus">
                        <use xlink:href="#rim" fill="#404040">
                                <set attributeName="fill" to="#808080" begin="zoomplus.mouseover" end="zoomplus.mouseout"/>
                        </use>
                        <path d="M-4,0h8M0,-4v8" fill="none" stroke="white" stroke-width="1.5" pointer-events="none"/>
                </g>
                <g id="zoomMin">
                        <use xlink:href="#rim" fill="#404040">
                                <set attributeName="fill" to="#808080" begin="zoomminus.mouseover" end="zoomminus.mouseout"/>
                        </use>
                        <path d="M-4,0h8" fill="none" stroke="white" stroke-width="1.5" pointer-events="none"/>
                </g>
                <g id="dirArrow">
                        <path fill="none" stroke="white" stroke-width="1.5" d="M0,-3.0v7 M-2.5,-0.5L0,-3.0L2.5,-0.5"/>
                </g>
               <g id="resetDef">
                       <use xlink:href="#rim2" fill="#404040">
                               <set attributeName="fill" to="#808080" begin="reset.mouseover" end="reset.mouseout"/>
                       </use>
               </g>
        </defs>

<script type="text/javascript">
var viewWidth = 404;
var viewHeight = 674;
var sectionId = 'dynsection-1';
</script>
<script xlink:href="../../svgpan.js"/>
<svg id="graph" class="graph">
<g id="viewport">
<title>main</title>
<polygon fill="white" stroke="none" points="-4,4 -4,-670 400,-670 400,4 -4,4"/>
<!-- Node1 -->
<g id="node1" class="node"><title>Node1</title>
<polygon fill="#bfbfbf" stroke="black" points="0,-247.5 0,-266.5 39,-266.5 39,-247.5 0,-247.5"/>
<text text-anchor="middle" x="19.5" y="-254.5" font-family="Helvetica,sans-Serif" font-size="10.00">main</text>
</g>
<!-- Node2 -->
<g id="node2" class="node"><title>Node2</title>
<g id="a_node2"><a xlink:href="../../d4/db0/scanargs_8c.html#a7ea6d702c0484056c8504d6ce7fede08" target="_top" xlink:title="scanargs">
<polygon fill="white" stroke="black" points="85.5,-642.5 85.5,-661.5 145.5,-661.5 145.5,-642.5 85.5,-642.5"/>
<text text-anchor="middle" x="115.5" y="-649.5" font-family="Helvetica,sans-Serif" font-size="10.00">scanargs</text>
</a>
</g>
</g>
<!-- Node1&#45;&gt;Node2 -->
<g id="edge1" class="edge"><title>Node1&#45;&gt;Node2</title>
<path fill="none" stroke="midnightblue" d="M20.9805,-266.514C23.6916,-317.446 38.2827,-557.901 75,-621 78.3951,-626.835 83.3506,-631.976 88.6116,-636.309"/>
<polygon fill="midnightblue" stroke="midnightblue" points="86.8198,-639.336 96.9504,-642.438 90.9653,-633.696 86.8198,-639.336"/>
</g>
<!-- Node4 -->
<g id="node4" class="node"><title>Node4</title>
<g id="a_node4"><a xlink:href="../../de/d4e/rle__open__f_8c.html#a89733a45961817885603ae01210290b7" target="_top" xlink:title="rle_open_f">
<polygon fill="white" stroke="black" points="81.5,-479.5 81.5,-498.5 149.5,-498.5 149.5,-479.5 81.5,-479.5"/>
<text text-anchor="middle" x="115.5" y="-486.5" font-family="Helvetica,sans-Serif" font-size="10.00">rle_open_f</text>
</a>
</g>
</g>
<!-- Node1&#45;&gt;Node4 -->
<g id="edge3" class="edge"><title>Node1&#45;&gt;Node4</title>
<path fill="none" stroke="midnightblue" d="M23.3507,-266.679C30.7606,-291.453 51.6809,-359.009 75,-413 83.706,-433.157 95.5098,-455.345 103.942,-470.515"/>
<polygon fill="midnightblue" stroke="midnightblue" points="100.975,-472.381 108.929,-479.379 107.076,-468.948 100.975,-472.381"/>
</g>
<!-- Node9 -->
<g id="node9" class="node"><title>Node9</title>
<g id="a_node9"><a xlink:href="../../d8/d30/cmd__name_8c.html#a271249070fdd12c176777c77d76f888f" target="_top" xlink:title="cmd_name">
<polygon fill="white" stroke="black" points="81.5,-190.5 81.5,-209.5 149.5,-209.5 149.5,-190.5 81.5,-190.5"/>
<text text-anchor="middle" x="115.5" y="-197.5" font-family="Helvetica,sans-Serif" font-size="10.00">cmd_name</text>
</a>
</g>
</g>
<!-- Node1&#45;&gt;Node9 -->
<g id="edge8" class="edge"><title>Node1&#45;&gt;Node9</title>
<path fill="none" stroke="midnightblue" d="M33.1093,-247.338C43.9163,-239.272 60.0595,-227.726 75,-219 77.8256,-217.35 80.8163,-215.718 83.8371,-214.145"/>
<polygon fill="midnightblue" stroke="midnightblue" points="85.4715,-217.241 92.8542,-209.642 82.344,-210.978 85.4715,-217.241"/>
</g>
<!-- Node10 -->
<g id="node10" class="node"><title>Node10</title>
<g id="a_node10"><a xlink:href="../../db/d53/rle__getrow_8c.html#a619b27463c26e0a4a3d9648a9869ee52" target="_top" xlink:title="rle_get_setup">
<polygon fill="white" stroke="black" points="75,-384.5 75,-403.5 156,-403.5 156,-384.5 75,-384.5"/>
<text text-anchor="middle" x="115.5" y="-391.5" font-family="Helvetica,sans-Serif" font-size="10.00">rle_get_setup</text>
</a>
</g>
</g>
<!-- Node1&#45;&gt;Node10 -->
<g id="edge9" class="edge"><title>Node1&#45;&gt;Node10</title>
<path fill="none" stroke="midnightblue" d="M27.2602,-266.853C42.9102,-289.662 81.8284,-346.383 101.973,-375.743"/>
<polygon fill="midnightblue" stroke="midnightblue" points="99.2573,-377.971 107.801,-384.237 105.029,-374.011 99.2573,-377.971"/>
</g>
<!-- Node14 -->
<g id="node14" class="node"><title>Node14</title>
<g id="a_node14"><a xlink:href="../../d9/d67/tobw_8c.html#ab7e36af3707843f77cc5b4e831c2fa6d" target="_top" xlink:title="malloc">
<polygon fill="white" stroke="black" points="92,-152.5 92,-171.5 139,-171.5 139,-152.5 92,-152.5"/>
<text text-anchor="middle" x="115.5" y="-159.5" font-family="Helvetica,sans-Serif" font-size="10.00">malloc</text>
</a>
</g>
</g>
<!-- Node1&#45;&gt;Node14 -->
<g id="edge18" class="edge"><title>Node1&#45;&gt;Node14</title>
<path fill="none" stroke="midnightblue" d="M25.3087,-247.417C33.5823,-231.741 51.8731,-200.421 75,-181 77.3711,-179.009 79.9862,-177.171 82.708,-175.487"/>
<polygon fill="midnightblue" stroke="midnightblue" points="84.4939,-178.5 91.5967,-170.639 81.1418,-172.355 84.4939,-178.5"/>
</g>
<!-- Node15 -->
<g id="node15" class="node"><title>Node15</title>
<g id="a_node15"><a xlink:href="../../da/dbc/rle__row__alc_8c.html#abf83029f1ab364a8cb72524f58d70a3b" target="_top" xlink:title="rle_row_alloc">
<polygon fill="white" stroke="black" points="203,-304.5 203,-323.5 283,-323.5 283,-304.5 203,-304.5"/>
<text text-anchor="middle" x="243" y="-311.5" font-family="Helvetica,sans-Serif" font-size="10.00">rle_row_alloc</text>
</a>
</g>
</g>
<!-- Node1&#45;&gt;Node15 -->
<g id="edge19" class="edge"><title>Node1&#45;&gt;Node15</title>
<path fill="none" stroke="midnightblue" d="M30.8497,-266.612C41.1862,-275.595 57.9504,-288.561 75,-295 112.851,-309.294 158.691,-313.678 192.761,-314.693"/>
<polygon fill="midnightblue" stroke="midnightblue" points="192.864,-318.196 202.935,-314.908 193.011,-311.198 192.864,-318.196"/>
</g>
<!-- Node16 -->
<g id="node16" class="node"><title>Node16</title>
<g id="a_node16"><a xlink:href="../../d9/d2a/rle__putrow_8c.html#ade53266831a9d8fda9234cbac857ebb4" target="_top" xlink:title="rgb_to_bw">
<polygon fill="white" stroke="black" points="83,-114.5 83,-133.5 148,-133.5 148,-114.5 83,-114.5"/>
<text text-anchor="middle" x="115.5" y="-121.5" font-family="Helvetica,sans-Serif" font-size="10.00">rgb_to_bw</text>
</a>
</g>
</g>
<!-- Node1&#45;&gt;Node16 -->
<g id="edge22" class="edge"><title>Node1&#45;&gt;Node16</title>
<path fill="none" stroke="midnightblue" d="M22.7345,-247.48C28.1792,-226.169 44.0134,-174.061 75,-143 76.4108,-141.586 77.9476,-140.262 79.5697,-139.025"/>
<polygon fill="midnightblue" stroke="midnightblue" points="81.637,-141.858 88.2029,-133.543 77.8848,-135.948 81.637,-141.858"/>
</g>
<!-- Node17 -->
<g id="node17" class="node"><title>Node17</title>
<g id="a_node17"><a xlink:href="../../d8/def/rle__addhist_8c.html#a4f9433d6e4e203d0ecea1c7d3837afc3" target="_top" xlink:title="rle_addhist">
<polygon fill="white" stroke="black" points="81,-228.5 81,-247.5 150,-247.5 150,-228.5 81,-228.5"/>
<text text-anchor="middle" x="115.5" y="-235.5" font-family="Helvetica,sans-Serif" font-size="10.00">rle_addhist</text>
</a>
</g>
</g>
<!-- Node1&#45;&gt;Node17 -->
<g id="edge23" class="edge"><title>Node1&#45;&gt;Node17</title>
<path fill="none" stroke="midnightblue" d="M39.0714,-253.246C48.1655,-251.408 59.5343,-249.11 70.6652,-246.86"/>
<polygon fill="midnightblue" stroke="midnightblue" points="71.6402,-250.234 80.7485,-244.822 70.2533,-243.373 71.6402,-250.234"/>
</g>
<!-- Node22 -->
<g id="node22" class="node"><title>Node22</title>
<g id="a_node22"><a xlink:href="../../d9/d2a/rle__putrow_8c.html#af88a82b331cd6f425d2a2cc1623944c6" target="_top" xlink:title="rle_put_setup">
<polygon fill="white" stroke="black" points="75.5,-76.5 75.5,-95.5 155.5,-95.5 155.5,-76.5 75.5,-76.5"/>
<text text-anchor="middle" x="115.5" y="-83.5" font-family="Helvetica,sans-Serif" font-size="10.00">rle_put_setup</text>
</a>
</g>
</g>
<!-- Node1&#45;&gt;Node22 -->
<g id="edge30" class="edge"><title>Node1&#45;&gt;Node22</title>
<path fill="none" stroke="midnightblue" d="M21.4564,-247.164C24.4967,-220.885 36.1562,-148.112 75,-105 76.1556,-103.717 77.4167,-102.513 78.7554,-101.383"/>
<polygon fill="midnightblue" stroke="midnightblue" points="80.7957,-104.228 87.0782,-95.6965 76.8468,-98.4478 80.7957,-104.228"/>
</g>
<!-- Node24 -->
<g id="node24" class="node"><title>Node24</title>
<g id="a_node24"><a xlink:href="../../db/d53/rle__getrow_8c.html#a3602e1158189cba5e5b0f9b983cba776" target="_top" xlink:title="rle_getrow">
<polygon fill="white" stroke="black" points="82,-38.5 82,-57.5 149,-57.5 149,-38.5 82,-38.5"/>
<text text-anchor="middle" x="115.5" y="-45.5" font-family="Helvetica,sans-Serif" font-size="10.00">rle_getrow</text>
</a>
</g>
</g>
<!-- Node1&#45;&gt;Node24 -->
<g id="edge32" class="edge"><title>Node1&#45;&gt;Node24</title>
<path fill="none" stroke="midnightblue" d="M20.6065,-247.447C21.4354,-217.299 27.8615,-122.863 75,-67 76.1134,-65.6805 77.3397,-64.4457 78.6501,-63.2909"/>
<polygon fill="midnightblue" stroke="midnightblue" points="80.6997,-66.1284 86.8751,-57.5194 76.6789,-60.3984 80.6997,-66.1284"/>
</g>
<!-- Node27 -->
<g id="node27" class="node"><title>Node27</title>
<g id="a_node27"><a xlink:href="../../d9/d2a/rle__putrow_8c.html#aa26532b01bc4f49b7383765cdc23ea72" target="_top" xlink:title="rle_putrow">
<polygon fill="white" stroke="black" points="82.5,-266.5 82.5,-285.5 148.5,-285.5 148.5,-266.5 82.5,-266.5"/>
<text text-anchor="middle" x="115.5" y="-273.5" font-family="Helvetica,sans-Serif" font-size="10.00">rle_putrow</text>
</a>
</g>
</g>
<!-- Node1&#45;&gt;Node27 -->
<g id="edge35" class="edge"><title>Node1&#45;&gt;Node27</title>
<path fill="none" stroke="midnightblue" d="M39.0714,-260.754C48.5894,-262.678 60.5989,-265.105 72.2197,-267.454"/>
<polygon fill="midnightblue" stroke="midnightblue" points="71.7642,-270.933 82.2594,-269.483 73.1511,-264.071 71.7642,-270.933"/>
</g>
<!-- Node29 -->
<g id="node29" class="node"><title>Node29</title>
<g id="a_node29"><a xlink:href="../../d9/d2a/rle__putrow_8c.html#af4fab734a5d227ad2ae95840f56fff3b" target="_top" xlink:title="rle_puteof">
<polygon fill="white" stroke="black" points="211,-608.5 211,-627.5 275,-627.5 275,-608.5 211,-608.5"/>
<text text-anchor="middle" x="243" y="-615.5" font-family="Helvetica,sans-Serif" font-size="10.00">rle_puteof</text>
</a>
</g>
</g>
<!-- Node1&#45;&gt;Node29 -->
<g id="edge38" class="edge"><title>Node1&#45;&gt;Node29</title>
<path fill="none" stroke="midnightblue" d="M20.8024,-266.801C22.4905,-315.103 32.277,-527.372 75,-574 106.752,-608.654 162.238,-617.366 200.484,-618.913"/>
<polygon fill="midnightblue" stroke="midnightblue" points="200.695,-622.419 210.781,-619.175 200.873,-615.422 200.695,-622.419"/>
</g>
<!-- Node30 -->
<g id="node30" class="node"><title>Node30</title>
<g id="a_node30"><a xlink:href="../../da/dbc/rle__row__alc_8c.html#a4fa936a985e542d42e91d272f9f6092d" target="_top" xlink:title="rle_row_free">
<polygon fill="white" stroke="black" points="77,-545.5 77,-564.5 154,-564.5 154,-545.5 77,-545.5"/>
<text text-anchor="middle" x="115.5" y="-552.5" font-family="Helvetica,sans-Serif" font-size="10.00">rle_row_free</text>
</a>
</g>
</g>
<!-- Node1&#45;&gt;Node30 -->
<g id="edge40" class="edge"><title>Node1&#45;&gt;Node30</title>
<path fill="none" stroke="midnightblue" d="M20.9402,-266.653C22.848,-301.186 32.3575,-421.138 75,-508 80.4105,-519.021 88.9491,-529.64 96.7054,-537.987"/>
<polygon fill="midnightblue" stroke="midnightblue" points="94.286,-540.519 103.775,-545.233 99.2965,-535.631 94.286,-540.519"/>
</g>
<!-- Node31 -->
<g id="node31" class="node"><title>Node31</title>
<g id="a_node31"><a xlink:href="../../d7/d24/rle__error_8c.html#af931d686cf3ca715c9b900527f0961c0" target="_top" xlink:title="rle_get_error">
<polygon fill="white" stroke="black" points="76,-0.5 76,-19.5 155,-19.5 155,-0.5 76,-0.5"/>
<text text-anchor="middle" x="115.5" y="-7.5" font-family="Helvetica,sans-Serif" font-size="10.00">rle_get_error</text>
</a>
</g>
</g>
<!-- Node1&#45;&gt;Node31 -->
<g id="edge42" class="edge"><title>Node1&#45;&gt;Node31</title>
<path fill="none" stroke="midnightblue" d="M20.0346,-247.053C18.958,-212.703 19.8233,-97.4359 75,-29 75.9553,-27.8152 77.0024,-26.6995 78.1211,-25.6495"/>
<polygon fill="midnightblue" stroke="midnightblue" points="80.3333,-28.3675 86.3303,-19.6332 76.1955,-22.7214 80.3333,-28.3675"/>
</g>
<!-- Node3 -->
<g id="node3" class="node"><title>Node3</title>
<g id="a_node3"><a xlink:href="../../d4/db0/scanargs_8c.html#a862219039664df6eb3cfced58addf830" target="_top" xlink:title="_do_scanargs">
<polygon fill="white" stroke="black" points="201,-646.5 201,-665.5 285,-665.5 285,-646.5 201,-646.5"/>
<text text-anchor="middle" x="243" y="-653.5" font-family="Helvetica,sans-Serif" font-size="10.00">_do_scanargs</text>
</a>
</g>
</g>
<!-- Node2&#45;&gt;Node3 -->
<g id="edge2" class="edge"><title>Node2&#45;&gt;Node3</title>
<path fill="none" stroke="midnightblue" d="M145.608,-652.928C158.904,-653.352 175.061,-653.867 190.318,-654.353"/>
<polygon fill="midnightblue" stroke="midnightblue" points="190.583,-657.863 200.689,-654.683 190.806,-650.866 190.583,-657.863"/>
</g>
<!-- Node5 -->
<g id="node5" class="node"><title>Node5</title>
<g id="a_node5"><a xlink:href="../../de/d4e/rle__open__f_8c.html#a5a0e62a00f907fce26e93b2f72adb2b0" target="_top" xlink:title="rle_open_f_noexit">
<polygon fill="white" stroke="black" points="192,-532.5 192,-551.5 294,-551.5 294,-532.5 192,-532.5"/>
<text text-anchor="middle" x="243" y="-539.5" font-family="Helvetica,sans-Serif" font-size="10.00">rle_open_f_noexit</text>
</a>
</g>
</g>
<!-- Node4&#45;&gt;Node5 -->
<g id="edge4" class="edge"><title>Node4&#45;&gt;Node5</title>
<path fill="none" stroke="midnightblue" d="M139.227,-498.598C159.04,-506.965 187.989,-519.191 210.118,-528.536"/>
<polygon fill="midnightblue" stroke="midnightblue" points="208.868,-531.807 219.442,-532.474 211.591,-525.359 208.868,-531.807"/>
</g>
<!-- Node6 -->
<g id="node6" class="node"><title>Node6</title>
<g id="a_node6"><a xlink:href="../../de/d4e/rle__open__f_8c.html#a84fda810ae9b9bde82a6391d0b264ead" target="_top" xlink:title="my_popen">
<polygon fill="white" stroke="black" points="330,-532.5 330,-551.5 396,-551.5 396,-532.5 330,-532.5"/>
<text text-anchor="middle" x="363" y="-539.5" font-family="Helvetica,sans-Serif" font-size="10.00">my_popen</text>
</a>
</g>
</g>
<!-- Node5&#45;&gt;Node6 -->
<g id="edge5" class="edge"><title>Node5&#45;&gt;Node6</title>
<path fill="none" stroke="midnightblue" d="M294.043,-542C302.523,-542 311.255,-542 319.518,-542"/>
<polygon fill="midnightblue" stroke="midnightblue" points="319.678,-545.5 329.678,-542 319.678,-538.5 319.678,-545.5"/>
</g>
<!-- Node7 -->
<g id="node7" class="node"><title>Node7</title>
<g id="a_node7"><a xlink:href="../../d0/dcc/rletorla_8c.html#ab7e36af3707843f77cc5b4e831c2fa6d" target="_top" xlink:title="malloc">
<polygon fill="white" stroke="black" points="339.5,-304.5 339.5,-323.5 386.5,-323.5 386.5,-304.5 339.5,-304.5"/>
<text text-anchor="middle" x="363" y="-311.5" font-family="Helvetica,sans-Serif" font-size="10.00">malloc</text>
</a>
</g>
</g>
<!-- Node5&#45;&gt;Node7 -->
<g id="edge6" class="edge"><title>Node5&#45;&gt;Node7</title>
<path fill="none" stroke="midnightblue" d="M254.364,-532.34C265.379,-521.627 282.729,-503.413 294,-485 325.17,-434.078 347.068,-366.379 356.622,-333.532"/>
<polygon fill="midnightblue" stroke="midnightblue" points="360.019,-334.379 359.384,-323.803 353.286,-332.467 360.019,-334.379"/>
</g>
<!-- Node8 -->
<g id="node8" class="node"><title>Node8</title>
<g id="a_node8"><a xlink:href="../../d0/dcc/rletorla_8c.html#aafde19f7d36ca163a143579c1b125b6d" target="_top" xlink:title="free">
<polygon fill="white" stroke="black" points="345.5,-494.5 345.5,-513.5 380.5,-513.5 380.5,-494.5 345.5,-494.5"/>
<text text-anchor="middle" x="363" y="-501.5" font-family="Helvetica,sans-Serif" font-size="10.00">free</text>
</a>
</g>
</g>
<!-- Node5&#45;&gt;Node8 -->
<g id="edge7" class="edge"><title>Node5&#45;&gt;Node8</title>
<path fill="none" stroke="midnightblue" d="M273.776,-532.411C292.813,-526.28 317.281,-518.401 335.618,-512.496"/>
<polygon fill="midnightblue" stroke="midnightblue" points="336.914,-515.756 345.359,-509.359 334.768,-509.093 336.914,-515.756"/>
</g>
<!-- Node10&#45;&gt;Node7 -->
<g id="edge15" class="edge"><title>Node10&#45;&gt;Node7</title>
<path fill="none" stroke="midnightblue" d="M146.113,-384.35C192.428,-369.258 281.657,-340.181 329.619,-324.552"/>
<polygon fill="midnightblue" stroke="midnightblue" points="330.774,-327.857 339.197,-321.431 328.605,-321.201 330.774,-327.857"/>
</g>
<!-- Node10&#45;&gt;Node8 -->
<g id="edge16" class="edge"><title>Node10&#45;&gt;Node8</title>
<path fill="none" stroke="midnightblue" d="M121.163,-403.505C131.145,-422.702 156.59,-465.895 192,-485 237.517,-509.557 299.779,-509.496 334.938,-506.946"/>
<polygon fill="midnightblue" stroke="midnightblue" points="335.679,-510.396 345.345,-506.059 335.084,-503.421 335.679,-510.396"/>
</g>
<!-- Node11 -->
<g id="node11" class="node"><title>Node11</title>
<g id="a_node11"><a xlink:href="../../d2/df3/rle__hdr_8c.html#a16c4da6201b3b8cf55127b9ca968d253" target="_top" xlink:title="rle_hdr_clear">
<polygon fill="white" stroke="black" points="203,-418.5 203,-437.5 283,-437.5 283,-418.5 203,-418.5"/>
<text text-anchor="middle" x="243" y="-425.5" font-family="Helvetica,sans-Serif" font-size="10.00">rle_hdr_clear</text>
</a>
</g>
</g>
<!-- Node10&#45;&gt;Node11 -->
<g id="edge10" class="edge"><title>Node10&#45;&gt;Node11</title>
<path fill="none" stroke="midnightblue" d="M151.793,-403.561C165.695,-407.328 181.836,-411.701 196.59,-415.698"/>
<polygon fill="midnightblue" stroke="midnightblue" points="195.97,-419.156 206.537,-418.393 197.801,-412.399 195.97,-419.156"/>
</g>
<!-- Node12 -->
<g id="node12" class="node"><title>Node12</title>
<g id="a_node12"><a xlink:href="../../d2/df3/rle__hdr_8c.html#a82e79385f2d45cc3b80ce0f4f369eae5" target="_top" xlink:title="rle_names">
<polygon fill="white" stroke="black" points="210,-380.5 210,-399.5 276,-399.5 276,-380.5 210,-380.5"/>
<text text-anchor="middle" x="243" y="-387.5" font-family="Helvetica,sans-Serif" font-size="10.00">rle_names</text>
</a>
</g>
</g>
<!-- Node10&#45;&gt;Node12 -->
<g id="edge12" class="edge"><title>Node10&#45;&gt;Node12</title>
<path fill="none" stroke="midnightblue" d="M156.209,-392.734C169.943,-392.297 185.387,-391.804 199.347,-391.359"/>
<polygon fill="midnightblue" stroke="midnightblue" points="199.797,-394.847 209.681,-391.03 199.574,-387.851 199.797,-394.847"/>
</g>
<!-- Node13 -->
<g id="node13" class="node"><title>Node13</title>
<g id="a_node13"><a xlink:href="../../db/d53/rle__getrow_8c.html#a0ea68aa2ebeef9d4cade7282553b03d6" target="_top" xlink:title="vax_gshort">
<polygon fill="white" stroke="black" points="208.5,-456.5 208.5,-475.5 277.5,-475.5 277.5,-456.5 208.5,-456.5"/>
<text text-anchor="middle" x="243" y="-463.5" font-family="Helvetica,sans-Serif" font-size="10.00">vax_gshort</text>
</a>
</g>
</g>
<!-- Node10&#45;&gt;Node13 -->
<g id="edge17" class="edge"><title>Node10&#45;&gt;Node13</title>
<path fill="none" stroke="midnightblue" d="M128.194,-403.607C142.546,-415.058 167.948,-434.245 192,-447 195.738,-448.982 199.729,-450.861 203.765,-452.61"/>
<polygon fill="midnightblue" stroke="midnightblue" points="202.584,-455.908 213.165,-456.443 205.227,-449.426 202.584,-455.908"/>
</g>
<!-- Node11&#45;&gt;Node8 -->
<g id="edge11" class="edge"><title>Node11&#45;&gt;Node8</title>
<path fill="none" stroke="midnightblue" d="M274.104,-437.572C280.851,-440.223 287.832,-443.383 294,-447 313.147,-458.229 332.284,-474.876 345.355,-487.284"/>
<polygon fill="midnightblue" stroke="midnightblue" points="343.044,-489.918 352.656,-494.375 347.921,-484.897 343.044,-489.918"/>
</g>
<!-- Node12&#45;&gt;Node7 -->
<g id="edge14" class="edge"><title>Node12&#45;&gt;Node7</title>
<path fill="none" stroke="midnightblue" d="M266.421,-380.433C275.232,-376.368 285.3,-371.336 294,-366 311.459,-355.291 329.827,-341.043 343.066,-330.169"/>
<polygon fill="midnightblue" stroke="midnightblue" points="345.526,-332.675 350.963,-323.582 341.042,-327.299 345.526,-332.675"/>
</g>
<!-- Node12&#45;&gt;Node8 -->
<g id="edge13" class="edge"><title>Node12&#45;&gt;Node8</title>
<path fill="none" stroke="midnightblue" d="M276.15,-399.013C282.431,-401.632 288.703,-404.92 294,-409 321.05,-429.836 341.929,-464.348 353.056,-485.541"/>
<polygon fill="midnightblue" stroke="midnightblue" points="349.953,-487.161 357.594,-494.5 356.198,-483.998 349.953,-487.161"/>
</g>
<!-- Node15&#45;&gt;Node7 -->
<g id="edge20" class="edge"><title>Node15&#45;&gt;Node7</title>
<path fill="none" stroke="midnightblue" d="M283.292,-314C298.145,-314 314.879,-314 329.087,-314"/>
<polygon fill="midnightblue" stroke="midnightblue" points="329.386,-317.5 339.386,-314 329.386,-310.5 329.386,-317.5"/>
</g>
<!-- Node15&#45;&gt;Node8 -->
<g id="edge21" class="edge"><title>Node15&#45;&gt;Node8</title>
<path fill="none" stroke="midnightblue" d="M254.034,-323.873C264.765,-334.769 281.875,-353.138 294,-371 319.845,-409.074 342.532,-458.267 354.021,-484.871"/>
<polygon fill="midnightblue" stroke="midnightblue" points="350.852,-486.361 357.986,-494.193 357.293,-483.621 350.852,-486.361"/>
</g>
<!-- Node17&#45;&gt;Node7 -->
<g id="edge26" class="edge"><title>Node17&#45;&gt;Node7</title>
<path fill="none" stroke="midnightblue" d="M150.206,-231.927C187.191,-226.864 247.481,-223.402 294,-244 318.444,-254.823 338.587,-278.896 350.446,-295.774"/>
<polygon fill="midnightblue" stroke="midnightblue" points="347.677,-297.929 356.157,-304.281 353.489,-294.028 347.677,-297.929"/>
</g>
<!-- Node18 -->
<g id="node18" class="node"><title>Node18</title>
<g id="a_node18"><a xlink:href="../../db/db2/rle__getcom_8c.html#a9cefd612c381bf82c9cdf1f3a3b12dd6" target="_top" xlink:title="rle_getcom">
<polygon fill="white" stroke="black" points="208.5,-114.5 208.5,-133.5 277.5,-133.5 277.5,-114.5 208.5,-114.5"/>
<text text-anchor="middle" x="243" y="-121.5" font-family="Helvetica,sans-Serif" font-size="10.00">rle_getcom</text>
</a>
</g>
</g>
<!-- Node17&#45;&gt;Node18 -->
<g id="edge24" class="edge"><title>Node17&#45;&gt;Node18</title>
<path fill="none" stroke="midnightblue" d="M142.808,-228.468C147.59,-225.91 152.245,-222.778 156,-219 182.35,-192.493 164.546,-168.361 192,-143 194.28,-140.894 196.817,-139.014 199.504,-137.337"/>
<polygon fill="midnightblue" stroke="midnightblue" points="201.236,-140.381 208.473,-132.643 197.99,-134.179 201.236,-140.381"/>
</g>
<!-- Node20 -->
<g id="node20" class="node"><title>Node20</title>
<g id="a_node20"><a xlink:href="../../df/da5/rle__putcom_8c.html#a6fa8528c32d14763efe2a534e409e321" target="_top" xlink:title="rle_putcom">
<polygon fill="white" stroke="black" points="209,-152.5 209,-171.5 277,-171.5 277,-152.5 209,-152.5"/>
<text text-anchor="middle" x="243" y="-159.5" font-family="Helvetica,sans-Serif" font-size="10.00">rle_putcom</text>
</a>
</g>
</g>
<!-- Node17&#45;&gt;Node20 -->
<g id="edge27" class="edge"><title>Node17&#45;&gt;Node20</title>
<path fill="none" stroke="midnightblue" d="M139.277,-228.448C144.923,-225.705 150.833,-222.498 156,-219 173.973,-206.831 174.022,-198.161 192,-186 197.391,-182.353 203.421,-178.959 209.376,-175.939"/>
<polygon fill="midnightblue" stroke="midnightblue" points="211.077,-179.005 218.572,-171.516 208.043,-172.696 211.077,-179.005"/>
</g>
<!-- Node19 -->
<g id="node19" class="node"><title>Node19</title>
<g id="a_node19"><a xlink:href="../../db/db2/rle__getcom_8c.html#a7502c8b599724ce86fee5df1311a2337" target="_top" xlink:title="match">
<polygon fill="white" stroke="black" points="340.5,-114.5 340.5,-133.5 385.5,-133.5 385.5,-114.5 340.5,-114.5"/>
<text text-anchor="middle" x="363" y="-121.5" font-family="Helvetica,sans-Serif" font-size="10.00">match</text>
</a>
</g>
</g>
<!-- Node18&#45;&gt;Node19 -->
<g id="edge25" class="edge"><title>Node18&#45;&gt;Node19</title>
<path fill="none" stroke="midnightblue" d="M277.814,-124C294.35,-124 314.136,-124 330.37,-124"/>
<polygon fill="midnightblue" stroke="midnightblue" points="330.456,-127.5 340.456,-124 330.456,-120.5 330.456,-127.5"/>
</g>
<!-- Node20&#45;&gt;Node7 -->
<g id="edge28" class="edge"><title>Node20&#45;&gt;Node7</title>
<path fill="none" stroke="midnightblue" d="M271.92,-171.617C279.713,-175.251 287.749,-179.999 294,-186 326.531,-217.23 346.84,-267.463 356.097,-294.789"/>
<polygon fill="midnightblue" stroke="midnightblue" points="352.787,-295.929 359.201,-304.362 359.446,-293.769 352.787,-295.929"/>
</g>
<!-- Node21 -->
<g id="node21" class="node"><title>Node21</title>
<g id="a_node21"><a xlink:href="../../df/da5/rle__putcom_8c.html#a7502c8b599724ce86fee5df1311a2337" target="_top" xlink:title="match">
<polygon fill="white" stroke="black" points="340.5,-152.5 340.5,-171.5 385.5,-171.5 385.5,-152.5 340.5,-152.5"/>
<text text-anchor="middle" x="363" y="-159.5" font-family="Helvetica,sans-Serif" font-size="10.00">match</text>
</a>
</g>
</g>
<!-- Node20&#45;&gt;Node21 -->
<g id="edge29" class="edge"><title>Node20&#45;&gt;Node21</title>
<path fill="none" stroke="midnightblue" d="M277.184,-162C293.735,-162 313.664,-162 330.044,-162"/>
<polygon fill="midnightblue" stroke="midnightblue" points="330.224,-165.5 340.224,-162 330.224,-158.5 330.224,-165.5"/>
</g>
<!-- Node23 -->
<g id="node23" class="node"><title>Node23</title>
<g id="a_node23"><a xlink:href="../../d9/d2a/rle__putrow_8c.html#a46d9789104d5d1f09253a808fdad5346" target="_top" xlink:title="rle_put_init">
<polygon fill="white" stroke="black" points="209,-76.5 209,-95.5 277,-95.5 277,-76.5 209,-76.5"/>
<text text-anchor="middle" x="243" y="-83.5" font-family="Helvetica,sans-Serif" font-size="10.00">rle_put_init</text>
</a>
</g>
</g>
<!-- Node22&#45;&gt;Node23 -->
<g id="edge31" class="edge"><title>Node22&#45;&gt;Node23</title>
<path fill="none" stroke="midnightblue" d="M155.521,-86C169.168,-86 184.57,-86 198.556,-86"/>
<polygon fill="midnightblue" stroke="midnightblue" points="198.921,-89.5001 208.921,-86 198.921,-82.5001 198.921,-89.5001"/>
</g>
<!-- Node25 -->
<g id="node25" class="node"><title>Node25</title>
<g id="a_node25"><a xlink:href="../../db/d53/rle__getrow_8c.html#a61ac0da96b0dd8bc3cbc98afcd9b5c44" target="_top" xlink:title="bfill">
<polygon fill="white" stroke="black" points="227,-38.5 227,-57.5 259,-57.5 259,-38.5 227,-38.5"/>
<text text-anchor="middle" x="243" y="-45.5" font-family="Helvetica,sans-Serif" font-size="10.00">bfill</text>
</a>
</g>
</g>
<!-- Node24&#45;&gt;Node25 -->
<g id="edge33" class="edge"><title>Node24&#45;&gt;Node25</title>
<path fill="none" stroke="midnightblue" d="M149.146,-48C170.25,-48 197.309,-48 216.765,-48"/>
<polygon fill="midnightblue" stroke="midnightblue" points="216.972,-51.5001 226.972,-48 216.972,-44.5001 216.972,-51.5001"/>
</g>
<!-- Node26 -->
<g id="node26" class="node"><title>Node26</title>
<g id="a_node26"><a xlink:href="../../d8/d7c/rle__getskip_8c.html#af6b1e1dc0867e9340f90668591c7c5b3" target="_top" xlink:title="rle_getskip">
<polygon fill="white" stroke="black" points="209,-0.5 209,-19.5 277,-19.5 277,-0.5 209,-0.5"/>
<text text-anchor="middle" x="243" y="-7.5" font-family="Helvetica,sans-Serif" font-size="10.00">rle_getskip</text>
</a>
</g>
</g>
<!-- Node24&#45;&gt;Node26 -->
<g id="edge34" class="edge"><title>Node24&#45;&gt;Node26</title>
<path fill="none" stroke="midnightblue" d="M148.169,-38.411C164.073,-33.5956 183.54,-27.7012 200.611,-22.532"/>
<polygon fill="midnightblue" stroke="midnightblue" points="201.785,-25.8338 210.341,-19.5859 199.756,-19.1342 201.785,-25.8338"/>
</g>
<!-- Node27&#45;&gt;Node7 -->
<g id="edge36" class="edge"><title>Node27&#45;&gt;Node7</title>
<path fill="none" stroke="midnightblue" d="M141.751,-266.432C176.962,-254.603 242.302,-238.198 294,-257 315.58,-264.848 335.084,-282.882 347.613,-296.579"/>
<polygon fill="midnightblue" stroke="midnightblue" points="345.251,-299.195 354.469,-304.418 350.519,-294.586 345.251,-299.195"/>
</g>
<!-- Node28 -->
<g id="node28" class="node"><title>Node28</title>
<g id="a_node28"><a xlink:href="../../d9/d2a/rle__putrow_8c.html#aaa4133bf4a6cbf287444448497631f26" target="_top" xlink:title="findruns">
<polygon fill="white" stroke="black" points="216,-266.5 216,-285.5 270,-285.5 270,-266.5 216,-266.5"/>
<text text-anchor="middle" x="243" y="-273.5" font-family="Helvetica,sans-Serif" font-size="10.00">findruns</text>
</a>
</g>
</g>
<!-- Node27&#45;&gt;Node28 -->
<g id="edge37" class="edge"><title>Node27&#45;&gt;Node28</title>
<path fill="none" stroke="midnightblue" d="M148.819,-276C166.183,-276 187.648,-276 205.598,-276"/>
<polygon fill="midnightblue" stroke="midnightblue" points="205.703,-279.5 215.703,-276 205.703,-272.5 205.703,-279.5"/>
</g>
<!-- Node29&#45;&gt;Node8 -->
<g id="edge39" class="edge"><title>Node29&#45;&gt;Node8</title>
<path fill="none" stroke="midnightblue" d="M271.993,-608.458C279.787,-604.826 287.806,-600.061 294,-594 319.288,-569.256 305.829,-548.836 330,-523 332.028,-520.833 334.358,-518.831 336.817,-517.006"/>
<polygon fill="midnightblue" stroke="midnightblue" points="338.889,-519.836 345.421,-511.495 335.113,-513.941 338.889,-519.836"/>
</g>
<!-- Node30&#45;&gt;Node8 -->
<g id="edge41" class="edge"><title>Node30&#45;&gt;Node8</title>
<path fill="none" stroke="midnightblue" d="M150.798,-564.509C187.766,-572.899 247.548,-580.981 294,-561 315.371,-551.808 311.824,-537.522 330,-523 332.076,-521.341 334.311,-519.725 336.6,-518.181"/>
<polygon fill="midnightblue" stroke="midnightblue" points="338.845,-520.906 345.475,-512.642 335.139,-514.967 338.845,-520.906"/>
</g>
</g>
</svg>
        <g id="navigator" transform="translate(0 0)" fill="#404254">
                <rect fill="#f2f5e9" fill-opacity="0.5" stroke="#606060" stroke-width=".5" x="0" y="0" width="60" height="60"/>
                <use id="zoomplus" xlink:href="#zoomPlus" x="17" y="9" onmousedown="handleZoom(evt,'in')"/>
                <use id="zoomminus" xlink:href="#zoomMin" x="42" y="9" onmousedown="handleZoom(evt,'out')"/>
                <use id="reset" xlink:href="#resetDef" x="30" y="36" onmousedown="handleReset()"/>
                <g id="arrowUp" xlink:href="#dirArrow" transform="translate(30 24)" onmousedown="handlePan(0,-1)">
                  <use xlink:href="#rim" fill="#404040">
                        <set attributeName="fill" to="#808080" begin="arrowUp.mouseover" end="arrowUp.mouseout"/>
                  </use>
                  <path fill="none" stroke="white" stroke-width="1.5" d="M0,-3.0v7 M-2.5,-0.5L0,-3.0L2.5,-0.5"/>
                </g>
                <g id="arrowRight" xlink:href="#dirArrow" transform="rotate(90) translate(36 -43)" onmousedown="handlePan(1,0)">
                  <use xlink:href="#rim" fill="#404040">
                        <set attributeName="fill" to="#808080" begin="arrowRight.mouseover" end="arrowRight.mouseout"/>
                  </use>
                  <path fill="none" stroke="white" stroke-width="1.5" d="M0,-3.0v7 M-2.5,-0.5L0,-3.0L2.5,-0.5"/>
                </g>
                <g id="arrowDown" xlink:href="#dirArrow" transform="rotate(180) translate(-30 -48)" onmousedown="handlePan(0,1)">
                  <use xlink:href="#rim" fill="#404040">
                        <set attributeName="fill" to="#808080" begin="arrowDown.mouseover" end="arrowDown.mouseout"/>
                  </use>
                  <path fill="none" stroke="white" stroke-width="1.5" d="M0,-3.0v7 M-2.5,-0.5L0,-3.0L2.5,-0.5"/>
                </g>
                <g id="arrowLeft" xlink:href="#dirArrow" transform="rotate(270) translate(-36 17)" onmousedown="handlePan(-1,0)">
                  <use xlink:href="#rim" fill="#404040">
                        <set attributeName="fill" to="#808080" begin="arrowLeft.mouseover" end="arrowLeft.mouseout"/>
                  </use>
                  <path fill="none" stroke="white" stroke-width="1.5" d="M0,-3.0v7 M-2.5,-0.5L0,-3.0L2.5,-0.5"/>
                </g>
        </g>
        <svg viewBox="0 0 15 15" width="100%" height="30px" preserveAspectRatio="xMaxYMin meet">
         <g id="arrow_out" transform="scale(0.3 0.3)">
          <a xlink:href="tobw_8c_a70db8bd1d499619f7ff9c1ca2ff3c8df_cgraph_org.svg" target="_base">
           <rect id="button" ry="5" rx="5" y="6" x="6" height="38" width="38"
                fill="#f2f5e9" fill-opacity="0.5" stroke="#606060" stroke-width="1.0"/>
           <path id="arrow"
             d="M 11.500037,31.436501 C 11.940474,20.09759 22.043105,11.32322 32.158766,21.979434 L 37.068811,17.246167 C 37.068811,17.246167 37.088388,32 37.088388,32 L 22.160133,31.978069 C 22.160133,31.978069 26.997745,27.140456 26.997745,27.140456 C 18.528582,18.264221 13.291696,25.230495 11.500037,31.436501 z"
             style="fill:#404040;"/>
          </a>
         </g>
        </svg>
</svg>
