<?xml version="1.0" encoding="UTF-8" standalone="no"?>
<!DOCTYPE svg PUBLIC "-//W3C//DTD SVG 1.1//EN"
 "http://www.w3.org/Graphics/SVG/1.1/DTD/svg11.dtd">
<!-- Generated by graphviz version 2.38.0 (20140413.2041)
 -->
<!-- Title: inv_cmap Pages: 1 -->
<svg width="260pt" height="66pt"
 viewBox="0.00 0.00 260.00 66.00" xmlns="http://www.w3.org/2000/svg" xmlns:xlink="http://www.w3.org/1999/xlink">
<g id="graph0" class="graph" transform="scale(1 1) rotate(0) translate(4 62)">
<title>inv_cmap</title>
<polygon fill="white" stroke="none" points="-4,4 -4,-62 256,-62 256,4 -4,4"/>
<!-- Node1 -->
<g id="node1" class="node"><title>Node1</title>
<polygon fill="#bfbfbf" stroke="black" points="0,-19.5 0,-38.5 62,-38.5 62,-19.5 0,-19.5"/>
<text text-anchor="middle" x="31" y="-26.5" font-family="Helvetica,sans-Serif" font-size="10.00">inv_cmap</text>
</g>
<!-- Node2 -->
<g id="node2" class="node"><title>Node2</title>
<g id="a_node2"><a xlink:href="../../d3/dea/inv__cmap_8c.html#a099f2f8c871e300020bb4cce337e55c9" target="_top" xlink:title="maxfill">
<polygon fill="white" stroke="black" points="101.5,-38.5 101.5,-57.5 147.5,-57.5 147.5,-38.5 101.5,-38.5"/>
<text text-anchor="middle" x="124.5" y="-45.5" font-family="Helvetica,sans-Serif" font-size="10.00">maxfill</text>
</a>
</g>
</g>
<!-- Node1&#45;&gt;Node2 -->
<g id="edge1" class="edge"><title>Node1&#45;&gt;Node2</title>
<path fill="none" stroke="midnightblue" d="M62.2141,-35.274C71.6181,-37.2267 82.0158,-39.3858 91.5352,-41.3625"/>
<polygon fill="midnightblue" stroke="midnightblue" points="90.9288,-44.8112 101.432,-43.4175 92.352,-37.9574 90.9288,-44.8112"/>
</g>
<!-- Node3 -->
<g id="node3" class="node"><title>Node3</title>
<g id="a_node3"><a xlink:href="../../d3/dea/inv__cmap_8c.html#a0530f8142e8bf4d0a66615b98b203b94" target="_top" xlink:title="redloop">
<polygon fill="white" stroke="black" points="98,-0.5 98,-19.5 151,-19.5 151,-0.5 98,-0.5"/>
<text text-anchor="middle" x="124.5" y="-7.5" font-family="Helvetica,sans-Serif" font-size="10.00">redloop</text>
</a>
</g>
</g>
<!-- Node1&#45;&gt;Node3 -->
<g id="edge2" class="edge"><title>Node1&#45;&gt;Node3</title>
<path fill="none" stroke="midnightblue" d="M62.2141,-22.726C70.4298,-21.02 79.4039,-19.1566 87.8883,-17.3948"/>
<polygon fill="midnightblue" stroke="midnightblue" points="88.8309,-20.7738 97.9105,-15.3137 87.4077,-13.92 88.8309,-20.7738"/>
</g>
<!-- Node4 -->
<g id="node4" class="node"><title>Node4</title>
<g id="a_node4"><a xlink:href="../../d3/dea/inv__cmap_8c.html#a1d8e781cd3fa60c468672f1d0fbee924" target="_top" xlink:title="greenloop">
<polygon fill="white" stroke="black" points="187,-0.5 187,-19.5 252,-19.5 252,-0.5 187,-0.5"/>
<text text-anchor="middle" x="219.5" y="-7.5" font-family="Helvetica,sans-Serif" font-size="10.00">greenloop</text>
</a>
</g>
</g>
<!-- Node3&#45;&gt;Node4 -->
<g id="edge3" class="edge"><title>Node3&#45;&gt;Node4</title>
<path fill="none" stroke="midnightblue" d="M151.406,-10C159.201,-10 167.963,-10 176.519,-10"/>
<polygon fill="midnightblue" stroke="midnightblue" points="176.775,-13.5001 186.775,-10 176.775,-6.5001 176.775,-13.5001"/>
</g>
</g>
</svg>
