<?xml version="1.0" encoding="UTF-8" standalone="no"?>
<!DOCTYPE svg PUBLIC "-//W3C//DTD SVG 1.1//EN"
 "http://www.w3.org/Graphics/SVG/1.1/DTD/svg11.dtd">
<!-- Generated by graphviz version 2.38.0 (20140413.2041)
 -->
<!-- Title: greenloop Pages: 1 -->
<svg width="260pt" height="28pt"
 viewBox="0.00 0.00 260.00 28.00" xmlns="http://www.w3.org/2000/svg" xmlns:xlink="http://www.w3.org/1999/xlink">
<g id="graph0" class="graph" transform="scale(1 1) rotate(0) translate(4 24)">
<title>greenloop</title>
<polygon fill="white" stroke="none" points="-4,4 -4,-24 256,-24 256,4 -4,4"/>
<!-- Node1 -->
<g id="node1" class="node"><title>Node1</title>
<polygon fill="#bfbfbf" stroke="black" points="0,-0.5 0,-19.5 65,-19.5 65,-0.5 0,-0.5"/>
<text text-anchor="middle" x="32.5" y="-7.5" font-family="Helvetica,sans-Serif" font-size="10.00">greenloop</text>
</g>
<!-- Node2 -->
<g id="node2" class="node"><title>Node2</title>
<g id="a_node2"><a xlink:href="../../d3/dea/inv__cmap_8c.html#a0530f8142e8bf4d0a66615b98b203b94" target="_top" xlink:title="redloop">
<polygon fill="white" stroke="black" points="101,-0.5 101,-19.5 154,-19.5 154,-0.5 101,-0.5"/>
<text text-anchor="middle" x="127.5" y="-7.5" font-family="Helvetica,sans-Serif" font-size="10.00">redloop</text>
</a>
</g>
</g>
<!-- Node1&#45;&gt;Node2 -->
<g id="edge1" class="edge"><title>Node1&#45;&gt;Node2</title>
<path fill="none" stroke="midnightblue" d="M75.2622,-10C83.945,-10 92.8504,-10 100.751,-10"/>
<polygon fill="midnightblue" stroke="midnightblue" points="75.2452,-6.5001 65.2452,-10 75.2452,-13.5001 75.2452,-6.5001"/>
</g>
<!-- Node3 -->
<g id="node3" class="node"><title>Node3</title>
<g id="a_node3"><a xlink:href="../../d3/dea/inv__cmap_8c.html#ac0673d9945ccd47737f613a3935aea7c" target="_top" xlink:title="inv_cmap">
<polygon fill="white" stroke="black" points="190,-0.5 190,-19.5 252,-19.5 252,-0.5 190,-0.5"/>
<text text-anchor="middle" x="221" y="-7.5" font-family="Helvetica,sans-Serif" font-size="10.00">inv_cmap</text>
</a>
</g>
</g>
<!-- Node2&#45;&gt;Node3 -->
<g id="edge2" class="edge"><title>Node2&#45;&gt;Node3</title>
<path fill="none" stroke="midnightblue" d="M164.674,-10C172.981,-10 181.728,-10 189.754,-10"/>
<polygon fill="midnightblue" stroke="midnightblue" points="164.476,-6.5001 154.475,-10 164.475,-13.5001 164.476,-6.5001"/>
</g>
</g>
</svg>
