<?xml version="1.0" encoding="UTF-8" standalone="no"?>
<!DOCTYPE svg PUBLIC "-//W3C//DTD SVG 1.1//EN"
 "http://www.w3.org/Graphics/SVG/1.1/DTD/svg11.dtd">
<!-- Generated by graphviz version 2.38.0 (20140413.2041)
 -->
<!-- Title: cnv/rletogif/rletogif.h Pages: 1 -->
<svg width="391pt" height="84pt"
 viewBox="0.00 0.00 390.50 84.00" xmlns="http://www.w3.org/2000/svg" xmlns:xlink="http://www.w3.org/1999/xlink">
<g id="graph0" class="graph" transform="scale(1 1) rotate(0) translate(4 80)">
<title>cnv/rletogif/rletogif.h</title>
<polygon fill="white" stroke="none" points="-4,4 -4,-80 386.5,-80 386.5,4 -4,4"/>
<!-- Node1 -->
<g id="node1" class="node"><title>Node1</title>
<polygon fill="#bfbfbf" stroke="black" points="138,-56.5 138,-75.5 250,-75.5 250,-56.5 138,-56.5"/>
<text text-anchor="middle" x="194" y="-63.5" font-family="Helvetica,sans-Serif" font-size="10.00">cnv/rletogif/rletogif.h</text>
</g>
<!-- Node2 -->
<g id="node2" class="node"><title>Node2</title>
<g id="a_node2"><a xlink:href="../../d8/d5b/compgif_8c.html" target="_top" xlink:title="cnv/rletogif/compgif.c">
<polygon fill="white" stroke="black" points="0,-0.5 0,-19.5 116,-19.5 116,-0.5 0,-0.5"/>
<text text-anchor="middle" x="58" y="-7.5" font-family="Helvetica,sans-Serif" font-size="10.00">cnv/rletogif/compgif.c</text>
</a>
</g>
</g>
<!-- Node1&#45;&gt;Node2 -->
<g id="edge1" class="edge"><title>Node1&#45;&gt;Node2</title>
<path fill="none" stroke="midnightblue" d="M162.865,-52.6377C137.343,-42.504 101.891,-28.4274 79.4488,-19.5164"/>
<polygon fill="midnightblue" stroke="midnightblue" points="161.865,-56.0061 172.45,-56.4435 164.448,-49.5002 161.865,-56.0061"/>
</g>
<!-- Node3 -->
<g id="node3" class="node"><title>Node3</title>
<g id="a_node3"><a xlink:href="../../d6/de6/gifencod_8c.html" target="_top" xlink:title="cnv/rletogif/gifencod.c">
<polygon fill="white" stroke="black" points="134.5,-0.5 134.5,-19.5 253.5,-19.5 253.5,-0.5 134.5,-0.5"/>
<text text-anchor="middle" x="194" y="-7.5" font-family="Helvetica,sans-Serif" font-size="10.00">cnv/rletogif/gifencod.c</text>
</a>
</g>
</g>
<!-- Node1&#45;&gt;Node3 -->
<g id="edge2" class="edge"><title>Node1&#45;&gt;Node3</title>
<path fill="none" stroke="midnightblue" d="M194,-45.8045C194,-36.9102 194,-26.7798 194,-19.7511"/>
<polygon fill="midnightblue" stroke="midnightblue" points="190.5,-46.083 194,-56.083 197.5,-46.083 190.5,-46.083"/>
</g>
<!-- Node4 -->
<g id="node4" class="node"><title>Node4</title>
<g id="a_node4"><a xlink:href="../../d7/d4a/rletogif_8c.html" target="_top" xlink:title="cnv/rletogif/rletogif.c">
<polygon fill="white" stroke="black" points="271.5,-0.5 271.5,-19.5 382.5,-19.5 382.5,-0.5 271.5,-0.5"/>
<text text-anchor="middle" x="327" y="-7.5" font-family="Helvetica,sans-Serif" font-size="10.00">cnv/rletogif/rletogif.c</text>
</a>
</g>
</g>
<!-- Node1&#45;&gt;Node4 -->
<g id="edge3" class="edge"><title>Node1&#45;&gt;Node4</title>
<path fill="none" stroke="midnightblue" d="M224.448,-52.6377C249.407,-42.504 284.077,-28.4274 306.024,-19.5164"/>
<polygon fill="midnightblue" stroke="midnightblue" points="223.023,-49.4387 215.074,-56.4435 225.656,-55.9245 223.023,-49.4387"/>
</g>
</g>
</svg>
