<?xml version="1.0" encoding="UTF-8" standalone="no"?>
<!DOCTYPE svg PUBLIC "-//W3C//DTD SVG 1.1//EN"
 "http://www.w3.org/Graphics/SVG/1.1/DTD/svg11.dtd">
<!-- Generated by graphviz version 2.38.0 (20140413.2041)
 -->
<!-- Title: rletogif.h Pages: 1 -->
<svg width="227pt" height="84pt"
 viewBox="0.00 0.00 226.50 84.00" xmlns="http://www.w3.org/2000/svg" xmlns:xlink="http://www.w3.org/1999/xlink">
<g id="graph0" class="graph" transform="scale(1 1) rotate(0) translate(4 80)">
<title>rletogif.h</title>
<polygon fill="white" stroke="none" points="-4,4 -4,-80 222.5,-80 222.5,4 -4,4"/>
<!-- Node1 -->
<g id="node1" class="node"><title>Node1</title>
<polygon fill="#bfbfbf" stroke="black" points="83,-56.5 83,-75.5 140,-75.5 140,-56.5 83,-56.5"/>
<text text-anchor="middle" x="111.5" y="-63.5" font-family="Helvetica,sans-Serif" font-size="10.00">rletogif.h</text>
</g>
<!-- Node2 -->
<g id="node2" class="node"><title>Node2</title>
<g id="a_node2"><a xlink:href="../../d8/d5b/compgif_8c.html" target="_top" xlink:title="compgif.c">
<polygon fill="white" stroke="black" points="0,-0.5 0,-19.5 61,-19.5 61,-0.5 0,-0.5"/>
<text text-anchor="middle" x="30.5" y="-7.5" font-family="Helvetica,sans-Serif" font-size="10.00">compgif.c</text>
</a>
</g>
</g>
<!-- Node1&#45;&gt;Node2 -->
<g id="edge1" class="edge"><title>Node1&#45;&gt;Node2</title>
<path fill="none" stroke="midnightblue" d="M89.9332,-50.6221C75.136,-40.7574 55.9878,-27.9919 43.4818,-19.6545"/>
<polygon fill="midnightblue" stroke="midnightblue" points="88.224,-53.6891 98.4859,-56.324 92.1069,-47.8647 88.224,-53.6891"/>
</g>
<!-- Node3 -->
<g id="node3" class="node"><title>Node3</title>
<g id="a_node3"><a xlink:href="../../d6/de6/gifencod_8c.html" target="_top" xlink:title="gifencod.c">
<polygon fill="white" stroke="black" points="79,-0.5 79,-19.5 144,-19.5 144,-0.5 79,-0.5"/>
<text text-anchor="middle" x="111.5" y="-7.5" font-family="Helvetica,sans-Serif" font-size="10.00">gifencod.c</text>
</a>
</g>
</g>
<!-- Node1&#45;&gt;Node3 -->
<g id="edge2" class="edge"><title>Node1&#45;&gt;Node3</title>
<path fill="none" stroke="midnightblue" d="M111.5,-45.8045C111.5,-36.9102 111.5,-26.7798 111.5,-19.7511"/>
<polygon fill="midnightblue" stroke="midnightblue" points="108,-46.083 111.5,-56.083 115,-46.083 108,-46.083"/>
</g>
<!-- Node4 -->
<g id="node4" class="node"><title>Node4</title>
<g id="a_node4"><a xlink:href="../../d7/d4a/rletogif_8c.html" target="_top" xlink:title="rletogif.c">
<polygon fill="white" stroke="black" points="162.5,-0.5 162.5,-19.5 218.5,-19.5 218.5,-0.5 162.5,-0.5"/>
<text text-anchor="middle" x="190.5" y="-7.5" font-family="Helvetica,sans-Serif" font-size="10.00">rletogif.c</text>
</a>
</g>
</g>
<!-- Node1&#45;&gt;Node4 -->
<g id="edge3" class="edge"><title>Node1&#45;&gt;Node4</title>
<path fill="none" stroke="midnightblue" d="M132.534,-50.6221C146.966,-40.7574 165.641,-27.9919 177.839,-19.6545"/>
<polygon fill="midnightblue" stroke="midnightblue" points="130.473,-47.7914 124.193,-56.324 134.423,-53.5703 130.473,-47.7914"/>
</g>
</g>
</svg>
