<?xml version="1.0" encoding="UTF-8" standalone="no"?>
<!DOCTYPE svg PUBLIC "-//W3C//DTD SVG 1.1//EN"
 "http://www.w3.org/Graphics/SVG/1.1/DTD/svg11.dtd">
<!-- Generated by graphviz version 2.38.0 (20140413.2041)
 -->
<!-- Title: main Pages: 1 -->
<svg width="523pt" height="902pt"
 viewBox="0.00 0.00 523.00 902.00" xmlns="http://www.w3.org/2000/svg" xmlns:xlink="http://www.w3.org/1999/xlink">
<g id="graph0" class="graph" transform="scale(1 1) rotate(0) translate(4 898)">
<title>main</title>
<polygon fill="white" stroke="none" points="-4,4 -4,-898 519,-898 519,4 -4,4"/>
<!-- Node1 -->
<g id="node1" class="node"><title>Node1</title>
<polygon fill="#bfbfbf" stroke="black" points="0,-399.5 0,-418.5 39,-418.5 39,-399.5 0,-399.5"/>
<text text-anchor="middle" x="19.5" y="-406.5" font-family="Helvetica,sans-Serif" font-size="10.00">main</text>
</g>
<!-- Node2 -->
<g id="node2" class="node"><title>Node2</title>
<g id="a_node2"><a xlink:href="../../d2/df3/rle__hdr_8c.html#a8ba0e5b11d1e39ab7227f1686e676c86" target="_top" xlink:title="rle_hdr_init">
<polygon fill="white" stroke="black" points="80,-532.5 80,-551.5 150,-551.5 150,-532.5 80,-532.5"/>
<text text-anchor="middle" x="115" y="-539.5" font-family="Helvetica,sans-Serif" font-size="10.00">rle_hdr_init</text>
</a>
</g>
</g>
<!-- Node1&#45;&gt;Node2 -->
<g id="edge1" class="edge"><title>Node1&#45;&gt;Node2</title>
<path fill="none" stroke="midnightblue" d="M23.3649,-418.802C29.7522,-439.283 46.8529,-487.26 75,-518 77.9596,-521.232 81.453,-524.185 85.113,-526.83"/>
<polygon fill="midnightblue" stroke="midnightblue" points="83.4827,-529.943 93.7827,-532.425 87.2786,-524.062 83.4827,-529.943"/>
</g>
<!-- Node4 -->
<g id="node4" class="node"><title>Node4</title>
<g id="a_node4"><a xlink:href="../../d0/dcc/rletorla_8c.html#aafde19f7d36ca163a143579c1b125b6d" target="_top" xlink:title="free">
<polygon fill="white" stroke="black" points="464.5,-684.5 464.5,-703.5 499.5,-703.5 499.5,-684.5 464.5,-684.5"/>
<text text-anchor="middle" x="482" y="-691.5" font-family="Helvetica,sans-Serif" font-size="10.00">free</text>
</a>
</g>
</g>
<!-- Node1&#45;&gt;Node4 -->
<g id="edge42" class="edge"><title>Node1&#45;&gt;Node4</title>
<path fill="none" stroke="midnightblue" d="M21.4167,-418.55C25.5425,-459.786 43.5717,-622.229 75,-661 172.893,-781.763 266.905,-804.132 413,-751 434.58,-743.152 454.084,-725.118 466.613,-711.421"/>
<polygon fill="midnightblue" stroke="midnightblue" points="469.519,-713.414 473.469,-703.582 464.251,-708.805 469.519,-713.414"/>
</g>
<!-- Node5 -->
<g id="node5" class="node"><title>Node5</title>
<g id="a_node5"><a xlink:href="../../d2/df3/rle__hdr_8c.html#afc916e29aea8788e0878ca315ff69821" target="_top" xlink:title="rle_hdr_cp">
<polygon fill="white" stroke="black" points="199,-532.5 199,-551.5 267,-551.5 267,-532.5 199,-532.5"/>
<text text-anchor="middle" x="233" y="-539.5" font-family="Helvetica,sans-Serif" font-size="10.00">rle_hdr_cp</text>
</a>
</g>
</g>
<!-- Node1&#45;&gt;Node5 -->
<g id="edge28" class="edge"><title>Node1&#45;&gt;Node5</title>
<path fill="none" stroke="midnightblue" d="M25.5908,-418.604C34.004,-433.638 52.1713,-462.785 75,-480 109.139,-505.744 155.363,-522.283 188.807,-531.746"/>
<polygon fill="midnightblue" stroke="midnightblue" points="188.179,-535.203 198.748,-534.459 190.022,-528.45 188.179,-535.203"/>
</g>
<!-- Node6 -->
<g id="node6" class="node"><title>Node6</title>
<g id="a_node6"><a xlink:href="../../d0/dcc/rletorla_8c.html#ab7e36af3707843f77cc5b4e831c2fa6d" target="_top" xlink:title="malloc">
<polygon fill="white" stroke="black" points="458.5,-456.5 458.5,-475.5 505.5,-475.5 505.5,-456.5 458.5,-456.5"/>
<text text-anchor="middle" x="482" y="-463.5" font-family="Helvetica,sans-Serif" font-size="10.00">malloc</text>
</a>
</g>
</g>
<!-- Node1&#45;&gt;Node6 -->
<g id="edge36" class="edge"><title>Node1&#45;&gt;Node6</title>
<path fill="none" stroke="midnightblue" d="M39.1225,-411.305C109.297,-419.991 358.329,-450.816 448.284,-461.951"/>
<polygon fill="midnightblue" stroke="midnightblue" points="448.089,-465.453 458.443,-463.208 448.949,-458.506 448.089,-465.453"/>
</g>
<!-- Node7 -->
<g id="node7" class="node"><title>Node7</title>
<g id="a_node7"><a xlink:href="../../d2/df3/rle__hdr_8c.html#a82e79385f2d45cc3b80ce0f4f369eae5" target="_top" xlink:title="rle_names">
<polygon fill="white" stroke="black" points="329,-532.5 329,-551.5 395,-551.5 395,-532.5 329,-532.5"/>
<text text-anchor="middle" x="362" y="-539.5" font-family="Helvetica,sans-Serif" font-size="10.00">rle_names</text>
</a>
</g>
</g>
<!-- Node1&#45;&gt;Node7 -->
<g id="edge19" class="edge"><title>Node1&#45;&gt;Node7</title>
<path fill="none" stroke="midnightblue" d="M20.4833,-418.677C21.0247,-446.541 26.8566,-527.117 75,-561 147.691,-612.159 186.636,-570.645 275,-561 289.433,-559.425 304.991,-556.404 318.853,-553.227"/>
<polygon fill="midnightblue" stroke="midnightblue" points="319.69,-556.626 328.607,-550.904 318.069,-549.816 319.69,-556.626"/>
</g>
<!-- Node8 -->
<g id="node8" class="node"><title>Node8</title>
<g id="a_node8"><a xlink:href="../../d4/db0/scanargs_8c.html#a7ea6d702c0484056c8504d6ce7fede08" target="_top" xlink:title="scanargs">
<polygon fill="white" stroke="black" points="85,-304.5 85,-323.5 145,-323.5 145,-304.5 85,-304.5"/>
<text text-anchor="middle" x="115" y="-311.5" font-family="Helvetica,sans-Serif" font-size="10.00">scanargs</text>
</a>
</g>
</g>
<!-- Node1&#45;&gt;Node8 -->
<g id="edge10" class="edge"><title>Node1&#45;&gt;Node8</title>
<path fill="none" stroke="midnightblue" d="M26.2645,-399.38C35.3128,-384.836 53.999,-356.942 75,-338 78.4813,-334.86 82.4281,-331.893 86.4412,-329.186"/>
<polygon fill="midnightblue" stroke="midnightblue" points="88.5639,-331.987 95.1776,-323.71 84.8458,-326.056 88.5639,-331.987"/>
</g>
<!-- Node10 -->
<g id="node10" class="node"><title>Node10</title>
<g id="a_node10"><a xlink:href="../../d9/d4b/rleswap_8c.html#adbfbdeb76ff8247a7be05c5666e09d95" target="_top" xlink:title="scan_usage">
<polygon fill="white" stroke="black" points="78,-266.5 78,-285.5 152,-285.5 152,-266.5 78,-266.5"/>
<text text-anchor="middle" x="115" y="-273.5" font-family="Helvetica,sans-Serif" font-size="10.00">scan_usage</text>
</a>
</g>
</g>
<!-- Node1&#45;&gt;Node10 -->
<g id="edge12" class="edge"><title>Node1&#45;&gt;Node10</title>
<path fill="none" stroke="midnightblue" d="M22.7457,-399.491C28.2132,-378.203 44.0911,-326.138 75,-295 76.3928,-293.597 77.91,-292.282 79.5115,-291.051"/>
<polygon fill="midnightblue" stroke="midnightblue" points="81.5038,-293.932 88.0352,-285.589 77.7271,-288.038 81.5038,-293.932"/>
</g>
<!-- Node11 -->
<g id="node11" class="node"><title>Node11</title>
<g id="a_node11"><a xlink:href="../../d8/d30/cmd__name_8c.html#a271249070fdd12c176777c77d76f888f" target="_top" xlink:title="cmd_name">
<polygon fill="white" stroke="black" points="81,-228.5 81,-247.5 149,-247.5 149,-228.5 81,-228.5"/>
<text text-anchor="middle" x="115" y="-235.5" font-family="Helvetica,sans-Serif" font-size="10.00">cmd_name</text>
</a>
</g>
</g>
<!-- Node1&#45;&gt;Node11 -->
<g id="edge13" class="edge"><title>Node1&#45;&gt;Node11</title>
<path fill="none" stroke="midnightblue" d="M21.4683,-399.175C24.538,-372.922 36.264,-300.209 75,-257 76.1752,-255.689 77.4609,-254.459 78.8272,-253.306"/>
<polygon fill="midnightblue" stroke="midnightblue" points="81.0285,-256.042 87.3244,-247.521 77.0887,-250.256 81.0285,-256.042"/>
</g>
<!-- Node12 -->
<g id="node12" class="node"><title>Node12</title>
<g id="a_node12"><a xlink:href="../../de/d4e/rle__open__f_8c.html#a89733a45961817885603ae01210290b7" target="_top" xlink:title="rle_open_f">
<polygon fill="white" stroke="black" points="199,-608.5 199,-627.5 267,-627.5 267,-608.5 199,-608.5"/>
<text text-anchor="middle" x="233" y="-615.5" font-family="Helvetica,sans-Serif" font-size="10.00">rle_open_f</text>
</a>
</g>
</g>
<!-- Node1&#45;&gt;Node12 -->
<g id="edge14" class="edge"><title>Node1&#45;&gt;Node12</title>
<path fill="none" stroke="midnightblue" d="M20.0502,-418.934C19.2273,-450.167 21.2885,-547.081 75,-594 105.864,-620.961 153.809,-624.706 188.598,-623.104"/>
<polygon fill="midnightblue" stroke="midnightblue" points="189.178,-626.575 198.939,-622.456 188.74,-619.589 189.178,-626.575"/>
</g>
<!-- Node15 -->
<g id="node15" class="node"><title>Node15</title>
<g id="a_node15"><a xlink:href="../../db/d53/rle__getrow_8c.html#a619b27463c26e0a4a3d9648a9869ee52" target="_top" xlink:title="rle_get_setup">
<polygon fill="white" stroke="black" points="192.5,-684.5 192.5,-703.5 273.5,-703.5 273.5,-684.5 192.5,-684.5"/>
<text text-anchor="middle" x="233" y="-691.5" font-family="Helvetica,sans-Serif" font-size="10.00">rle_get_setup</text>
</a>
</g>
</g>
<!-- Node1&#45;&gt;Node15 -->
<g id="edge20" class="edge"><title>Node1&#45;&gt;Node15</title>
<path fill="none" stroke="midnightblue" d="M20.1988,-418.793C19.7121,-451.584 22.4046,-559.003 75,-622 102.199,-654.578 147.31,-673.141 182.214,-683.228"/>
<polygon fill="midnightblue" stroke="midnightblue" points="181.656,-686.704 192.226,-685.973 183.507,-679.953 181.656,-686.704"/>
</g>
<!-- Node17 -->
<g id="node17" class="node"><title>Node17</title>
<g id="a_node17"><a xlink:href="../../d9/d4b/rleswap_8c.html#a4ca2f12efad3cb01894c16468aaf8d5c" target="_top" xlink:title="setup_map">
<polygon fill="white" stroke="black" points="81,-190.5 81,-209.5 149,-209.5 149,-190.5 81,-190.5"/>
<text text-anchor="middle" x="115" y="-197.5" font-family="Helvetica,sans-Serif" font-size="10.00">setup_map</text>
</a>
</g>
</g>
<!-- Node1&#45;&gt;Node17 -->
<g id="edge26" class="edge"><title>Node1&#45;&gt;Node17</title>
<path fill="none" stroke="midnightblue" d="M20.6184,-399.457C21.4823,-369.338 28.0012,-274.98 75,-219 75.9988,-217.81 77.0898,-216.689 78.2517,-215.633"/>
<polygon fill="midnightblue" stroke="midnightblue" points="80.6265,-218.237 86.7219,-209.571 76.5528,-212.545 80.6265,-218.237"/>
</g>
<!-- Node18 -->
<g id="node18" class="node"><title>Node18</title>
<g id="a_node18"><a xlink:href="../../d9/d4b/rleswap_8c.html#afbc3df93f3885672340a3ee4ec133fad" target="_top" xlink:title="print_map">
<polygon fill="white" stroke="black" points="83,-152.5 83,-171.5 147,-171.5 147,-152.5 83,-152.5"/>
<text text-anchor="middle" x="115" y="-159.5" font-family="Helvetica,sans-Serif" font-size="10.00">print_map</text>
</a>
</g>
</g>
<!-- Node1&#45;&gt;Node18 -->
<g id="edge27" class="edge"><title>Node1&#45;&gt;Node18</title>
<path fill="none" stroke="midnightblue" d="M20.0472,-399.063C19.0114,-364.746 19.9944,-249.573 75,-181 75.9425,-179.825 76.9758,-178.718 78.0799,-177.674"/>
<polygon fill="midnightblue" stroke="midnightblue" points="80.2211,-180.444 86.1834,-171.686 76.0609,-174.815 80.2211,-180.444"/>
</g>
<!-- Node19 -->
<g id="node19" class="node"><title>Node19</title>
<g id="a_node19"><a xlink:href="../../d8/def/rle__addhist_8c.html#a4f9433d6e4e203d0ecea1c7d3837afc3" target="_top" xlink:title="rle_addhist">
<polygon fill="white" stroke="black" points="198.5,-304.5 198.5,-323.5 267.5,-323.5 267.5,-304.5 198.5,-304.5"/>
<text text-anchor="middle" x="233" y="-311.5" font-family="Helvetica,sans-Serif" font-size="10.00">rle_addhist</text>
</a>
</g>
</g>
<!-- Node1&#45;&gt;Node19 -->
<g id="edge29" class="edge"><title>Node1&#45;&gt;Node19</title>
<path fill="none" stroke="midnightblue" d="M32.4702,-399.279C43.1417,-390.957 59.437,-379.074 75,-371 111.856,-351.879 156.6,-336.316 188.878,-326.312"/>
<polygon fill="midnightblue" stroke="midnightblue" points="189.927,-329.651 198.472,-323.388 187.886,-322.955 189.927,-329.651"/>
</g>
<!-- Node24 -->
<g id="node24" class="node"><title>Node24</title>
<g id="a_node24"><a xlink:href="../../d9/d2a/rle__putrow_8c.html#af88a82b331cd6f425d2a2cc1623944c6" target="_top" xlink:title="rle_put_setup">
<polygon fill="white" stroke="black" points="75,-114.5 75,-133.5 155,-133.5 155,-114.5 75,-114.5"/>
<text text-anchor="middle" x="115" y="-121.5" font-family="Helvetica,sans-Serif" font-size="10.00">rle_put_setup</text>
</a>
</g>
</g>
<!-- Node1&#45;&gt;Node24 -->
<g id="edge37" class="edge"><title>Node1&#45;&gt;Node24</title>
<path fill="none" stroke="midnightblue" d="M21.3509,-399.24C25.2612,-356.316 42.7111,-184.623 75,-143 75.9233,-141.81 76.9403,-140.69 78.0309,-139.636"/>
<polygon fill="midnightblue" stroke="midnightblue" points="80.176,-142.402 86.0795,-133.604 75.9782,-136.8 80.176,-142.402"/>
</g>
<!-- Node26 -->
<g id="node26" class="node"><title>Node26</title>
<g id="a_node26"><a xlink:href="../../df/d6e/rle__raw__alc_8c.html#a3f4a119f9ef60eb2599166c98946c339" target="_top" xlink:title="rle_raw_alloc">
<polygon fill="white" stroke="black" points="322,-494.5 322,-513.5 402,-513.5 402,-494.5 322,-494.5"/>
<text text-anchor="middle" x="362" y="-501.5" font-family="Helvetica,sans-Serif" font-size="10.00">rle_raw_alloc</text>
</a>
</g>
</g>
<!-- Node1&#45;&gt;Node26 -->
<g id="edge39" class="edge"><title>Node1&#45;&gt;Node26</title>
<path fill="none" stroke="midnightblue" d="M33.7295,-418.733C44.3799,-426.132 59.9966,-436.025 75,-442 154.705,-473.74 253.697,-490.583 311.853,-498.372"/>
<polygon fill="midnightblue" stroke="midnightblue" points="311.505,-501.856 321.874,-499.679 312.41,-494.915 311.505,-501.856"/>
</g>
<!-- Node27 -->
<g id="node27" class="node"><title>Node27</title>
<g id="a_node27"><a xlink:href="../../df/dce/rle__getraw_8c.html#a5ed570d65cead1b5587e84134c31e246" target="_top" xlink:title="rle_getraw">
<polygon fill="white" stroke="black" points="81.5,-380.5 81.5,-399.5 148.5,-399.5 148.5,-380.5 81.5,-380.5"/>
<text text-anchor="middle" x="115" y="-387.5" font-family="Helvetica,sans-Serif" font-size="10.00">rle_getraw</text>
</a>
</g>
</g>
<!-- Node1&#45;&gt;Node27 -->
<g id="edge43" class="edge"><title>Node1&#45;&gt;Node27</title>
<path fill="none" stroke="midnightblue" d="M39.4211,-405.155C48.6543,-403.279 60.1645,-400.94 71.3581,-398.665"/>
<polygon fill="midnightblue" stroke="midnightblue" points="72.3719,-402.031 81.4746,-396.609 70.9779,-395.171 72.3719,-402.031"/>
</g>
<!-- Node29 -->
<g id="node29" class="node"><title>Node29</title>
<g id="a_node29"><a xlink:href="../../d9/d2a/rle__putrow_8c.html#a018d4b7d6fe20504c07c24b9bd8fc304" target="_top" xlink:title="rle_skiprow">
<polygon fill="white" stroke="black" points="79.5,-76.5 79.5,-95.5 150.5,-95.5 150.5,-76.5 79.5,-76.5"/>
<text text-anchor="middle" x="115" y="-83.5" font-family="Helvetica,sans-Serif" font-size="10.00">rle_skiprow</text>
</a>
</g>
</g>
<!-- Node1&#45;&gt;Node29 -->
<g id="edge46" class="edge"><title>Node1&#45;&gt;Node29</title>
<path fill="none" stroke="midnightblue" d="M21.0644,-399.445C23.9601,-353.252 38.4563,-153.329 75,-105 75.9085,-103.798 76.9131,-102.669 77.9932,-101.607"/>
<polygon fill="midnightblue" stroke="midnightblue" points="80.1411,-104.371 85.9997,-95.5431 75.9148,-98.7905 80.1411,-104.371"/>
</g>
<!-- Node30 -->
<g id="node30" class="node"><title>Node30</title>
<g id="a_node30"><a xlink:href="../../d6/d8c/rle__putraw_8c.html#ab36032e464af1d1505cdc69948fe9f17" target="_top" xlink:title="rle_putraw">
<polygon fill="white" stroke="black" points="82,-38.5 82,-57.5 148,-57.5 148,-38.5 82,-38.5"/>
<text text-anchor="middle" x="115" y="-45.5" font-family="Helvetica,sans-Serif" font-size="10.00">rle_putraw</text>
</a>
</g>
</g>
<!-- Node1&#45;&gt;Node30 -->
<g id="edge47" class="edge"><title>Node1&#45;&gt;Node30</title>
<path fill="none" stroke="midnightblue" d="M20.862,-399.271C22.893,-349.325 34.281,-121.948 75,-67 75.7819,-65.9448 76.6383,-64.9452 77.5553,-63.9986"/>
<polygon fill="midnightblue" stroke="midnightblue" points="79.8357,-66.6582 85.5444,-57.7328 75.5158,-61.1501 79.8357,-66.6582"/>
</g>
<!-- Node31 -->
<g id="node31" class="node"><title>Node31</title>
<g id="a_node31"><a xlink:href="../../df/dce/rle__getraw_8c.html#ad4a764bcb2dc8e45f3f57171022dbf2b" target="_top" xlink:title="rle_freeraw">
<polygon fill="white" stroke="black" points="197.5,-874.5 197.5,-893.5 268.5,-893.5 268.5,-874.5 197.5,-874.5"/>
<text text-anchor="middle" x="233" y="-881.5" font-family="Helvetica,sans-Serif" font-size="10.00">rle_freeraw</text>
</a>
</g>
</g>
<!-- Node1&#45;&gt;Node31 -->
<g id="edge48" class="edge"><title>Node1&#45;&gt;Node31</title>
<path fill="none" stroke="midnightblue" d="M20.987,-418.871C24.1896,-481.956 43.0981,-827.079 75,-860 103.467,-889.377 151.667,-892.765 187.167,-890.42"/>
<polygon fill="midnightblue" stroke="midnightblue" points="187.603,-893.896 197.278,-889.578 187.022,-886.921 187.603,-893.896"/>
</g>
<!-- Node32 -->
<g id="node32" class="node"><title>Node32</title>
<g id="a_node32"><a xlink:href="../../d9/d2a/rle__putrow_8c.html#af4fab734a5d227ad2ae95840f56fff3b" target="_top" xlink:title="rle_puteof">
<polygon fill="white" stroke="black" points="330,-836.5 330,-855.5 394,-855.5 394,-836.5 330,-836.5"/>
<text text-anchor="middle" x="362" y="-843.5" font-family="Helvetica,sans-Serif" font-size="10.00">rle_puteof</text>
</a>
</g>
</g>
<!-- Node1&#45;&gt;Node32 -->
<g id="edge50" class="edge"><title>Node1&#45;&gt;Node32</title>
<path fill="none" stroke="midnightblue" d="M20.2858,-418.522C19.2463,-474.066 16.9214,-755.728 75,-813 139.896,-876.995 257.449,-866.566 319.718,-855.268"/>
<polygon fill="midnightblue" stroke="midnightblue" points="320.418,-858.698 329.585,-853.386 319.106,-851.822 320.418,-858.698"/>
</g>
<!-- Node33 -->
<g id="node33" class="node"><title>Node33</title>
<g id="a_node33"><a xlink:href="../../df/d6e/rle__raw__alc_8c.html#a817fc2f8cdfed47915112d5aa3951afa" target="_top" xlink:title="rle_raw_free">
<polygon fill="white" stroke="black" points="194.5,-798.5 194.5,-817.5 271.5,-817.5 271.5,-798.5 194.5,-798.5"/>
<text text-anchor="middle" x="233" y="-805.5" font-family="Helvetica,sans-Serif" font-size="10.00">rle_raw_free</text>
</a>
</g>
</g>
<!-- Node1&#45;&gt;Node33 -->
<g id="edge52" class="edge"><title>Node1&#45;&gt;Node33</title>
<path fill="none" stroke="midnightblue" d="M20.4214,-418.501C20.1885,-471.526 21.8162,-730.423 75,-784 103.023,-812.23 149.319,-816.266 184.394,-814.41"/>
<polygon fill="midnightblue" stroke="midnightblue" points="184.695,-817.897 194.425,-813.705 184.204,-810.914 184.695,-817.897"/>
</g>
<!-- Node34 -->
<g id="node34" class="node"><title>Node34</title>
<g id="a_node34"><a xlink:href="../../d7/d24/rle__error_8c.html#af931d686cf3ca715c9b900527f0961c0" target="_top" xlink:title="rle_get_error">
<polygon fill="white" stroke="black" points="75.5,-0.5 75.5,-19.5 154.5,-19.5 154.5,-0.5 75.5,-0.5"/>
<text text-anchor="middle" x="115" y="-7.5" font-family="Helvetica,sans-Serif" font-size="10.00">rle_get_error</text>
</a>
</g>
</g>
<!-- Node1&#45;&gt;Node34 -->
<g id="edge54" class="edge"><title>Node1&#45;&gt;Node34</title>
<path fill="none" stroke="midnightblue" d="M20.6906,-399.268C21.9071,-346.078 30.0446,-90.6636 75,-29 75.7737,-27.9388 76.6229,-26.9339 77.5338,-25.9828"/>
<polygon fill="midnightblue" stroke="midnightblue" points="79.8158,-28.6405 85.4939,-19.6957 75.4771,-23.1473 79.8158,-28.6405"/>
</g>
<!-- Node3 -->
<g id="node3" class="node"><title>Node3</title>
<g id="a_node3"><a xlink:href="../../d2/df3/rle__hdr_8c.html#a16c4da6201b3b8cf55127b9ca968d253" target="_top" xlink:title="rle_hdr_clear">
<polygon fill="white" stroke="black" points="322,-646.5 322,-665.5 402,-665.5 402,-646.5 322,-646.5"/>
<text text-anchor="middle" x="362" y="-653.5" font-family="Helvetica,sans-Serif" font-size="10.00">rle_hdr_clear</text>
</a>
</g>
</g>
<!-- Node2&#45;&gt;Node3 -->
<g id="edge2" class="edge"><title>Node2&#45;&gt;Node3</title>
<path fill="none" stroke="midnightblue" d="M120.348,-551.61C129.905,-571.48 154.809,-616.903 191,-637 227.864,-657.47 276.13,-661.079 311.811,-660.232"/>
<polygon fill="midnightblue" stroke="midnightblue" points="312.12,-663.723 321.986,-659.863 311.866,-656.728 312.12,-663.723"/>
</g>
<!-- Node2&#45;&gt;Node5 -->
<g id="edge4" class="edge"><title>Node2&#45;&gt;Node5</title>
<path fill="none" stroke="midnightblue" d="M150.176,-535.784C162.185,-535.215 175.843,-535.101 188.513,-535.441"/>
<polygon fill="midnightblue" stroke="midnightblue" points="188.74,-538.952 198.866,-535.835 189.006,-531.958 188.74,-538.952"/>
</g>
<!-- Node3&#45;&gt;Node4 -->
<g id="edge3" class="edge"><title>Node3&#45;&gt;Node4</title>
<path fill="none" stroke="midnightblue" d="M392.776,-665.589C411.813,-671.72 436.281,-679.599 454.618,-685.504"/>
<polygon fill="midnightblue" stroke="midnightblue" points="453.768,-688.907 464.359,-688.641 455.914,-682.244 453.768,-688.907"/>
</g>
<!-- Node5&#45;&gt;Node2 -->
<g id="edge5" class="edge"><title>Node5&#45;&gt;Node2</title>
<path fill="none" stroke="midnightblue" d="M198.866,-548.165C186.836,-548.767 173.046,-548.904 160.212,-548.578"/>
<polygon fill="midnightblue" stroke="midnightblue" points="160.296,-545.078 150.176,-548.216 160.044,-552.074 160.296,-545.078"/>
</g>
<!-- Node5&#45;&gt;Node6 -->
<g id="edge6" class="edge"><title>Node5&#45;&gt;Node6</title>
<path fill="none" stroke="midnightblue" d="M243.414,-532.364C256.982,-519.153 283.444,-495.824 311,-485 356.216,-467.24 413.058,-464.419 448.207,-464.697"/>
<polygon fill="midnightblue" stroke="midnightblue" points="448.324,-468.199 458.381,-464.869 448.442,-461.2 448.324,-468.199"/>
</g>
<!-- Node5&#45;&gt;Node7 -->
<g id="edge7" class="edge"><title>Node5&#45;&gt;Node7</title>
<path fill="none" stroke="midnightblue" d="M267.036,-542C282.739,-542 301.699,-542 318.463,-542"/>
<polygon fill="midnightblue" stroke="midnightblue" points="318.569,-545.5 328.569,-542 318.569,-538.5 318.569,-545.5"/>
</g>
<!-- Node7&#45;&gt;Node4 -->
<g id="edge8" class="edge"><title>Node7&#45;&gt;Node4</title>
<path fill="none" stroke="midnightblue" d="M372.159,-551.834C382.427,-562.997 399.419,-581.881 413,-599 433.583,-624.945 455.573,-656.441 468.801,-675.852"/>
<polygon fill="midnightblue" stroke="midnightblue" points="466.041,-678.017 474.547,-684.333 471.836,-674.091 466.041,-678.017"/>
</g>
<!-- Node7&#45;&gt;Node6 -->
<g id="edge9" class="edge"><title>Node7&#45;&gt;Node6</title>
<path fill="none" stroke="midnightblue" d="M393.104,-532.428C399.851,-529.777 406.832,-526.617 413,-523 432.147,-511.771 451.284,-495.124 464.355,-482.716"/>
<polygon fill="midnightblue" stroke="midnightblue" points="466.921,-485.103 471.656,-475.625 462.044,-480.082 466.921,-485.103"/>
</g>
<!-- Node9 -->
<g id="node9" class="node"><title>Node9</title>
<g id="a_node9"><a xlink:href="../../d4/db0/scanargs_8c.html#a862219039664df6eb3cfced58addf830" target="_top" xlink:title="_do_scanargs">
<polygon fill="white" stroke="black" points="191,-266.5 191,-285.5 275,-285.5 275,-266.5 191,-266.5"/>
<text text-anchor="middle" x="233" y="-273.5" font-family="Helvetica,sans-Serif" font-size="10.00">_do_scanargs</text>
</a>
</g>
</g>
<!-- Node8&#45;&gt;Node9 -->
<g id="edge11" class="edge"><title>Node8&#45;&gt;Node9</title>
<path fill="none" stroke="midnightblue" d="M145.272,-304.411C159.697,-299.686 177.293,-293.921 192.857,-288.823"/>
<polygon fill="midnightblue" stroke="midnightblue" points="194.324,-292.025 202.738,-285.586 192.145,-285.373 194.324,-292.025"/>
</g>
<!-- Node13 -->
<g id="node13" class="node"><title>Node13</title>
<g id="a_node13"><a xlink:href="../../de/d4e/rle__open__f_8c.html#a5a0e62a00f907fce26e93b2f72adb2b0" target="_top" xlink:title="rle_open_f_noexit">
<polygon fill="white" stroke="black" points="311,-608.5 311,-627.5 413,-627.5 413,-608.5 311,-608.5"/>
<text text-anchor="middle" x="362" y="-615.5" font-family="Helvetica,sans-Serif" font-size="10.00">rle_open_f_noexit</text>
</a>
</g>
</g>
<!-- Node12&#45;&gt;Node13 -->
<g id="edge15" class="edge"><title>Node12&#45;&gt;Node13</title>
<path fill="none" stroke="midnightblue" d="M267.036,-618C277.382,-618 289.141,-618 300.755,-618"/>
<polygon fill="midnightblue" stroke="midnightblue" points="300.885,-621.5 310.885,-618 300.885,-614.5 300.885,-621.5"/>
</g>
<!-- Node13&#45;&gt;Node4 -->
<g id="edge18" class="edge"><title>Node13&#45;&gt;Node4</title>
<path fill="none" stroke="midnightblue" d="M393.104,-627.572C399.851,-630.223 406.832,-633.383 413,-637 432.147,-648.229 451.284,-664.876 464.355,-677.284"/>
<polygon fill="midnightblue" stroke="midnightblue" points="462.044,-679.918 471.656,-684.375 466.921,-674.897 462.044,-679.918"/>
</g>
<!-- Node13&#45;&gt;Node6 -->
<g id="edge17" class="edge"><title>Node13&#45;&gt;Node6</title>
<path fill="none" stroke="midnightblue" d="M390.92,-608.383C398.713,-604.749 406.749,-600.001 413,-594 445.531,-562.77 465.84,-512.537 475.097,-485.211"/>
<polygon fill="midnightblue" stroke="midnightblue" points="478.446,-486.231 478.201,-475.638 471.787,-484.071 478.446,-486.231"/>
</g>
<!-- Node14 -->
<g id="node14" class="node"><title>Node14</title>
<g id="a_node14"><a xlink:href="../../de/d4e/rle__open__f_8c.html#a84fda810ae9b9bde82a6391d0b264ead" target="_top" xlink:title="my_popen">
<polygon fill="white" stroke="black" points="449,-608.5 449,-627.5 515,-627.5 515,-608.5 449,-608.5"/>
<text text-anchor="middle" x="482" y="-615.5" font-family="Helvetica,sans-Serif" font-size="10.00">my_popen</text>
</a>
</g>
</g>
<!-- Node13&#45;&gt;Node14 -->
<g id="edge16" class="edge"><title>Node13&#45;&gt;Node14</title>
<path fill="none" stroke="midnightblue" d="M413.043,-618C421.523,-618 430.255,-618 438.518,-618"/>
<polygon fill="midnightblue" stroke="midnightblue" points="438.678,-621.5 448.678,-618 438.678,-614.5 438.678,-621.5"/>
</g>
<!-- Node15&#45;&gt;Node3 -->
<g id="edge21" class="edge"><title>Node15&#45;&gt;Node3</title>
<path fill="none" stroke="midnightblue" d="M266.047,-684.411C282.141,-679.596 301.841,-673.701 319.117,-668.532"/>
<polygon fill="midnightblue" stroke="midnightblue" points="320.386,-671.806 328.963,-665.586 318.379,-665.099 320.386,-671.806"/>
</g>
<!-- Node15&#45;&gt;Node4 -->
<g id="edge24" class="edge"><title>Node15&#45;&gt;Node4</title>
<path fill="none" stroke="midnightblue" d="M273.685,-694C324.348,-694 410.643,-694 454.184,-694"/>
<polygon fill="midnightblue" stroke="midnightblue" points="454.285,-697.5 464.285,-694 454.285,-690.5 454.285,-697.5"/>
</g>
<!-- Node15&#45;&gt;Node6 -->
<g id="edge23" class="edge"><title>Node15&#45;&gt;Node6</title>
<path fill="none" stroke="midnightblue" d="M240.736,-684.453C256.087,-662.915 293.674,-611.452 311,-599 350.284,-570.768 374.578,-590.396 413,-561 440.118,-540.253 460.975,-505.713 472.08,-484.491"/>
<polygon fill="midnightblue" stroke="midnightblue" points="475.227,-486.022 476.608,-475.518 468.978,-482.868 475.227,-486.022"/>
</g>
<!-- Node15&#45;&gt;Node7 -->
<g id="edge22" class="edge"><title>Node15&#45;&gt;Node7</title>
<path fill="none" stroke="midnightblue" d="M241.741,-684.229C250.367,-673.123 264.485,-654.289 275,-637 293.384,-606.771 285.712,-590.744 311,-566 314.774,-562.307 319.226,-559.094 323.893,-556.326"/>
<polygon fill="midnightblue" stroke="midnightblue" points="325.78,-559.289 333.007,-551.542 322.526,-553.091 325.78,-559.289"/>
</g>
<!-- Node16 -->
<g id="node16" class="node"><title>Node16</title>
<g id="a_node16"><a xlink:href="../../db/d53/rle__getrow_8c.html#a0ea68aa2ebeef9d4cade7282553b03d6" target="_top" xlink:title="vax_gshort">
<polygon fill="white" stroke="black" points="327.5,-722.5 327.5,-741.5 396.5,-741.5 396.5,-722.5 327.5,-722.5"/>
<text text-anchor="middle" x="362" y="-729.5" font-family="Helvetica,sans-Serif" font-size="10.00">vax_gshort</text>
</a>
</g>
</g>
<!-- Node15&#45;&gt;Node16 -->
<g id="edge25" class="edge"><title>Node15&#45;&gt;Node16</title>
<path fill="none" stroke="midnightblue" d="M266.047,-703.589C282.141,-708.404 301.841,-714.299 319.117,-719.468"/>
<polygon fill="midnightblue" stroke="midnightblue" points="318.379,-722.901 328.963,-722.414 320.386,-716.194 318.379,-722.901"/>
</g>
<!-- Node19&#45;&gt;Node6 -->
<g id="edge32" class="edge"><title>Node19&#45;&gt;Node6</title>
<path fill="none" stroke="midnightblue" d="M267.511,-323.073C312.467,-335.668 389.391,-358.837 413,-376 439.272,-395.099 460.045,-427.228 471.417,-447.487"/>
<polygon fill="midnightblue" stroke="midnightblue" points="468.387,-449.242 476.227,-456.369 474.542,-445.909 468.387,-449.242"/>
</g>
<!-- Node20 -->
<g id="node20" class="node"><title>Node20</title>
<g id="a_node20"><a xlink:href="../../db/db2/rle__getcom_8c.html#a9cefd612c381bf82c9cdf1f3a3b12dd6" target="_top" xlink:title="rle_getcom">
<polygon fill="white" stroke="black" points="327.5,-266.5 327.5,-285.5 396.5,-285.5 396.5,-266.5 327.5,-266.5"/>
<text text-anchor="middle" x="362" y="-273.5" font-family="Helvetica,sans-Serif" font-size="10.00">rle_getcom</text>
</a>
</g>
</g>
<!-- Node19&#45;&gt;Node20 -->
<g id="edge30" class="edge"><title>Node19&#45;&gt;Node20</title>
<path fill="none" stroke="midnightblue" d="M266.047,-304.411C282.141,-299.596 301.841,-293.701 319.117,-288.532"/>
<polygon fill="midnightblue" stroke="midnightblue" points="320.386,-291.806 328.963,-285.586 318.379,-285.099 320.386,-291.806"/>
</g>
<!-- Node22 -->
<g id="node22" class="node"><title>Node22</title>
<g id="a_node22"><a xlink:href="../../df/da5/rle__putcom_8c.html#a6fa8528c32d14763efe2a534e409e321" target="_top" xlink:title="rle_putcom">
<polygon fill="white" stroke="black" points="328,-304.5 328,-323.5 396,-323.5 396,-304.5 328,-304.5"/>
<text text-anchor="middle" x="362" y="-311.5" font-family="Helvetica,sans-Serif" font-size="10.00">rle_putcom</text>
</a>
</g>
</g>
<!-- Node19&#45;&gt;Node22 -->
<g id="edge33" class="edge"><title>Node19&#45;&gt;Node22</title>
<path fill="none" stroke="midnightblue" d="M267.7,-314C282.891,-314 301.024,-314 317.248,-314"/>
<polygon fill="midnightblue" stroke="midnightblue" points="317.583,-317.5 327.583,-314 317.583,-310.5 317.583,-317.5"/>
</g>
<!-- Node21 -->
<g id="node21" class="node"><title>Node21</title>
<g id="a_node21"><a xlink:href="../../db/db2/rle__getcom_8c.html#a7502c8b599724ce86fee5df1311a2337" target="_top" xlink:title="match">
<polygon fill="white" stroke="black" points="459.5,-266.5 459.5,-285.5 504.5,-285.5 504.5,-266.5 459.5,-266.5"/>
<text text-anchor="middle" x="482" y="-273.5" font-family="Helvetica,sans-Serif" font-size="10.00">match</text>
</a>
</g>
</g>
<!-- Node20&#45;&gt;Node21 -->
<g id="edge31" class="edge"><title>Node20&#45;&gt;Node21</title>
<path fill="none" stroke="midnightblue" d="M396.814,-276C413.35,-276 433.136,-276 449.37,-276"/>
<polygon fill="midnightblue" stroke="midnightblue" points="449.456,-279.5 459.456,-276 449.456,-272.5 449.456,-279.5"/>
</g>
<!-- Node22&#45;&gt;Node6 -->
<g id="edge34" class="edge"><title>Node22&#45;&gt;Node6</title>
<path fill="none" stroke="midnightblue" d="M390.92,-323.617C398.713,-327.251 406.749,-331.999 413,-338 445.531,-369.23 465.84,-419.463 475.097,-446.789"/>
<polygon fill="midnightblue" stroke="midnightblue" points="471.787,-447.929 478.201,-456.362 478.446,-445.769 471.787,-447.929"/>
</g>
<!-- Node23 -->
<g id="node23" class="node"><title>Node23</title>
<g id="a_node23"><a xlink:href="../../df/da5/rle__putcom_8c.html#a7502c8b599724ce86fee5df1311a2337" target="_top" xlink:title="match">
<polygon fill="white" stroke="black" points="459.5,-304.5 459.5,-323.5 504.5,-323.5 504.5,-304.5 459.5,-304.5"/>
<text text-anchor="middle" x="482" y="-311.5" font-family="Helvetica,sans-Serif" font-size="10.00">match</text>
</a>
</g>
</g>
<!-- Node22&#45;&gt;Node23 -->
<g id="edge35" class="edge"><title>Node22&#45;&gt;Node23</title>
<path fill="none" stroke="midnightblue" d="M396.184,-314C412.735,-314 432.664,-314 449.044,-314"/>
<polygon fill="midnightblue" stroke="midnightblue" points="449.224,-317.5 459.224,-314 449.224,-310.5 449.224,-317.5"/>
</g>
<!-- Node25 -->
<g id="node25" class="node"><title>Node25</title>
<g id="a_node25"><a xlink:href="../../d9/d2a/rle__putrow_8c.html#a46d9789104d5d1f09253a808fdad5346" target="_top" xlink:title="rle_put_init">
<polygon fill="white" stroke="black" points="199,-114.5 199,-133.5 267,-133.5 267,-114.5 199,-114.5"/>
<text text-anchor="middle" x="233" y="-121.5" font-family="Helvetica,sans-Serif" font-size="10.00">rle_put_init</text>
</a>
</g>
</g>
<!-- Node24&#45;&gt;Node25 -->
<g id="edge38" class="edge"><title>Node24&#45;&gt;Node25</title>
<path fill="none" stroke="midnightblue" d="M155.272,-124C166.031,-124 177.753,-124 188.722,-124"/>
<polygon fill="midnightblue" stroke="midnightblue" points="188.953,-127.5 198.953,-124 188.953,-120.5 188.953,-127.5"/>
</g>
<!-- Node26&#45;&gt;Node4 -->
<g id="edge41" class="edge"><title>Node26&#45;&gt;Node4</title>
<path fill="none" stroke="midnightblue" d="M400.08,-513.617C404.871,-516.075 409.366,-519.152 413,-523 449.48,-561.631 427.883,-588.244 449,-637 454.791,-650.37 462.822,-664.667 469.39,-675.597"/>
<polygon fill="midnightblue" stroke="midnightblue" points="466.475,-677.54 474.692,-684.228 472.44,-673.876 466.475,-677.54"/>
</g>
<!-- Node26&#45;&gt;Node6 -->
<g id="edge40" class="edge"><title>Node26&#45;&gt;Node6</title>
<path fill="none" stroke="midnightblue" d="M392.776,-494.411C409.784,-488.934 431.127,-482.061 448.559,-476.447"/>
<polygon fill="midnightblue" stroke="midnightblue" points="449.864,-479.704 458.31,-473.307 447.718,-473.041 449.864,-479.704"/>
</g>
<!-- Node27&#45;&gt;Node6 -->
<g id="edge44" class="edge"><title>Node27&#45;&gt;Node6</title>
<path fill="none" stroke="midnightblue" d="M148.517,-386.799C204.596,-382.531 322.214,-379.127 413,-414 432.802,-421.606 451.662,-436.896 464.474,-448.937"/>
<polygon fill="midnightblue" stroke="midnightblue" points="462.373,-451.777 471.969,-456.266 467.267,-446.772 462.373,-451.777"/>
</g>
<!-- Node28 -->
<g id="node28" class="node"><title>Node28</title>
<g id="a_node28"><a xlink:href="../../d8/d7c/rle__getskip_8c.html#af6b1e1dc0867e9340f90668591c7c5b3" target="_top" xlink:title="rle_getskip">
<polygon fill="white" stroke="black" points="199,-342.5 199,-361.5 267,-361.5 267,-342.5 199,-342.5"/>
<text text-anchor="middle" x="233" y="-349.5" font-family="Helvetica,sans-Serif" font-size="10.00">rle_getskip</text>
</a>
</g>
</g>
<!-- Node27&#45;&gt;Node28 -->
<g id="edge45" class="edge"><title>Node27&#45;&gt;Node28</title>
<path fill="none" stroke="midnightblue" d="M145.272,-380.411C159.697,-375.686 177.293,-369.921 192.857,-364.823"/>
<polygon fill="midnightblue" stroke="midnightblue" points="194.324,-368.025 202.738,-361.586 192.145,-361.373 194.324,-368.025"/>
</g>
<!-- Node31&#45;&gt;Node4 -->
<g id="edge49" class="edge"><title>Node31&#45;&gt;Node4</title>
<path fill="none" stroke="midnightblue" d="M268.786,-890.145C307.917,-895.018 371.422,-896.544 413,-865 461.69,-828.06 475.583,-750.843 479.495,-714.17"/>
<polygon fill="midnightblue" stroke="midnightblue" points="483.019,-714.068 480.446,-703.79 476.048,-713.429 483.019,-714.068"/>
</g>
<!-- Node32&#45;&gt;Node4 -->
<g id="edge51" class="edge"><title>Node32&#45;&gt;Node4</title>
<path fill="none" stroke="midnightblue" d="M390.92,-836.383C398.713,-832.749 406.749,-828.001 413,-822 445.531,-790.77 465.84,-740.537 475.097,-713.211"/>
<polygon fill="midnightblue" stroke="midnightblue" points="478.446,-714.231 478.201,-703.638 471.787,-712.071 478.446,-714.231"/>
</g>
<!-- Node33&#45;&gt;Node4 -->
<g id="edge53" class="edge"><title>Node33&#45;&gt;Node4</title>
<path fill="none" stroke="midnightblue" d="M271.646,-811.054C309.847,-812.385 369.407,-809.455 413,-784 441.34,-767.452 461.715,-734.003 472.41,-712.871"/>
<polygon fill="midnightblue" stroke="midnightblue" points="475.682,-714.142 476.874,-703.615 469.377,-711.101 475.682,-714.142"/>
</g>
</g>
</svg>
