<?xml version="1.0" encoding="UTF-8" standalone="no"?>
<!DOCTYPE svg PUBLIC "-//W3C//DTD SVG 1.1//EN"
 "http://www.w3.org/Graphics/SVG/1.1/DTD/svg11.dtd">
<!-- Generated by graphviz version 2.38.0 (20140413.2041)
 -->
<!-- Title: rle_getraw Pages: 1 -->
<svg width="195pt" height="142pt"
 viewBox="0.00 0.00 195.00 142.00" xmlns="http://www.w3.org/2000/svg" xmlns:xlink="http://www.w3.org/1999/xlink">
<g id="graph0" class="graph" transform="scale(1 1) rotate(0) translate(4 138)">
<title>rle_getraw</title>
<polygon fill="white" stroke="none" points="-4,4 -4,-138 191,-138 191,4 -4,4"/>
<!-- Node1 -->
<g id="node1" class="node"><title>Node1</title>
<polygon fill="#bfbfbf" stroke="black" points="0,-57.5 0,-76.5 67,-76.5 67,-57.5 0,-57.5"/>
<text text-anchor="middle" x="33.5" y="-64.5" font-family="Helvetica,sans-Serif" font-size="10.00">rle_getraw</text>
</g>
<!-- Node2 -->
<g id="node2" class="node"><title>Node2</title>
<g id="a_node2"><a xlink:href="../../d7/def/applymap_8c.html#a70db8bd1d499619f7ff9c1ca2ff3c8df" target="_top" xlink:title="main">
<polygon fill="white" stroke="black" points="125.5,-114.5 125.5,-133.5 164.5,-133.5 164.5,-114.5 125.5,-114.5"/>
<text text-anchor="middle" x="145" y="-121.5" font-family="Helvetica,sans-Serif" font-size="10.00">main</text>
</a>
</g>
</g>
<!-- Node1&#45;&gt;Node2 -->
<g id="edge1" class="edge"><title>Node1&#45;&gt;Node2</title>
<path fill="none" stroke="midnightblue" d="M59.6715,-81.537C72.518,-88.8091 88.4638,-97.6122 103,-105 110.274,-108.697 118.404,-112.526 125.495,-115.769"/>
<polygon fill="midnightblue" stroke="midnightblue" points="61.3506,-78.4654 50.9295,-76.5545 57.8844,-84.547 61.3506,-78.4654"/>
</g>
<!-- Node3 -->
<g id="node3" class="node"><title>Node3</title>
<g id="a_node3"><a xlink:href="../../d4/d28/rle__box_8c.html#a072c32537af62c46c9b3b62552c0656f" target="_top" xlink:title="rle_box">
<polygon fill="white" stroke="black" points="119.5,-76.5 119.5,-95.5 170.5,-95.5 170.5,-76.5 119.5,-76.5"/>
<text text-anchor="middle" x="145" y="-83.5" font-family="Helvetica,sans-Serif" font-size="10.00">rle_box</text>
</a>
</g>
</g>
<!-- Node1&#45;&gt;Node3 -->
<g id="edge2" class="edge"><title>Node1&#45;&gt;Node3</title>
<path fill="none" stroke="midnightblue" d="M77.2059,-74.4102C91.5053,-76.8913 106.958,-79.5726 119.395,-81.7307"/>
<polygon fill="midnightblue" stroke="midnightblue" points="77.5083,-70.9104 67.0571,-72.6492 76.3115,-77.8074 77.5083,-70.9104"/>
</g>
<!-- Node4 -->
<g id="node4" class="node"><title>Node4</title>
<g id="a_node4"><a xlink:href="../../d5/d2c/rlecomp_8c.html#a52aa460c4bbe517210ee242d3762a8fb" target="_top" xlink:title="copy_scanline">
<polygon fill="white" stroke="black" points="103,-38.5 103,-57.5 187,-57.5 187,-38.5 103,-38.5"/>
<text text-anchor="middle" x="145" y="-45.5" font-family="Helvetica,sans-Serif" font-size="10.00">copy_scanline</text>
</a>
</g>
</g>
<!-- Node1&#45;&gt;Node4 -->
<g id="edge3" class="edge"><title>Node1&#45;&gt;Node4</title>
<path fill="none" stroke="midnightblue" d="M77.1057,-59.6072C85.5565,-58.1409 94.4137,-56.604 102.816,-55.1461"/>
<polygon fill="midnightblue" stroke="midnightblue" points="76.3115,-56.1926 67.0571,-61.3508 77.5083,-63.0896 76.3115,-56.1926"/>
</g>
<!-- Node5 -->
<g id="node5" class="node"><title>Node5</title>
<g id="a_node5"><a xlink:href="../../d5/d42/rlezoom_8c.html#a93e7f36e1343b502769244ac9789c0ff" target="_top" xlink:title="integer_zoom">
<polygon fill="white" stroke="black" points="104.5,-0.5 104.5,-19.5 185.5,-19.5 185.5,-0.5 104.5,-0.5"/>
<text text-anchor="middle" x="145" y="-7.5" font-family="Helvetica,sans-Serif" font-size="10.00">integer_zoom</text>
</a>
</g>
</g>
<!-- Node1&#45;&gt;Node5 -->
<g id="edge4" class="edge"><title>Node1&#45;&gt;Node5</title>
<path fill="none" stroke="midnightblue" d="M59.6715,-52.463C72.518,-45.1909 88.4638,-36.3878 103,-29 109.294,-25.8009 116.231,-22.5029 122.579,-19.5709"/>
<polygon fill="midnightblue" stroke="midnightblue" points="57.8844,-49.453 50.9295,-57.4455 61.3506,-55.5346 57.8844,-49.453"/>
</g>
</g>
</svg>
