<?xml version="1.0" encoding="UTF-8" standalone="no"?>
<!DOCTYPE svg PUBLIC "-//W3C//DTD SVG 1.1//EN"
 "http://www.w3.org/Graphics/SVG/1.1/DTD/svg11.dtd">
<!-- Generated by graphviz version 2.38.0 (20140413.2041)
 -->
<!-- Title: rle_freeraw Pages: 1 -->
<svg width="199pt" height="142pt"
 viewBox="0.00 0.00 199.00 142.00" xmlns="http://www.w3.org/2000/svg" xmlns:xlink="http://www.w3.org/1999/xlink">
<g id="graph0" class="graph" transform="scale(1 1) rotate(0) translate(4 138)">
<title>rle_freeraw</title>
<polygon fill="white" stroke="none" points="-4,4 -4,-138 195,-138 195,4 -4,4"/>
<!-- Node1 -->
<g id="node1" class="node"><title>Node1</title>
<polygon fill="#bfbfbf" stroke="black" points="0,-57.5 0,-76.5 71,-76.5 71,-57.5 0,-57.5"/>
<text text-anchor="middle" x="35.5" y="-64.5" font-family="Helvetica,sans-Serif" font-size="10.00">rle_freeraw</text>
</g>
<!-- Node2 -->
<g id="node2" class="node"><title>Node2</title>
<g id="a_node2"><a xlink:href="../../d7/def/applymap_8c.html#a70db8bd1d499619f7ff9c1ca2ff3c8df" target="_top" xlink:title="main">
<polygon fill="white" stroke="black" points="129.5,-114.5 129.5,-133.5 168.5,-133.5 168.5,-114.5 129.5,-114.5"/>
<text text-anchor="middle" x="149" y="-121.5" font-family="Helvetica,sans-Serif" font-size="10.00">main</text>
</a>
</g>
</g>
<!-- Node1&#45;&gt;Node2 -->
<g id="edge1" class="edge"><title>Node1&#45;&gt;Node2</title>
<path fill="none" stroke="midnightblue" d="M62.4516,-81.4731C75.6847,-88.729 92.0927,-97.5368 107,-105 114.155,-108.582 122.118,-112.326 129.108,-115.534"/>
<polygon fill="midnightblue" stroke="midnightblue" points="63.8908,-78.2699 53.4439,-76.5054 60.5103,-84.3995 63.8908,-78.2699"/>
</g>
<!-- Node3 -->
<g id="node3" class="node"><title>Node3</title>
<g id="a_node3"><a xlink:href="../../d5/d2c/rlecomp_8c.html#ac0d599df6554bdc4183a566b919b9a57" target="_top" xlink:title="get_scanline">
<polygon fill="white" stroke="black" points="110.5,-76.5 110.5,-95.5 187.5,-95.5 187.5,-76.5 110.5,-76.5"/>
<text text-anchor="middle" x="149" y="-83.5" font-family="Helvetica,sans-Serif" font-size="10.00">get_scanline</text>
</a>
</g>
</g>
<!-- Node1&#45;&gt;Node3 -->
<g id="edge2" class="edge"><title>Node1&#45;&gt;Node3</title>
<path fill="none" stroke="midnightblue" d="M81.0341,-74.5888C90.7145,-76.2383 100.866,-77.9681 110.254,-79.5679"/>
<polygon fill="midnightblue" stroke="midnightblue" points="81.614,-71.1372 71.1681,-72.9076 80.438,-78.0377 81.614,-71.1372"/>
</g>
<!-- Node4 -->
<g id="node4" class="node"><title>Node4</title>
<g id="a_node4"><a xlink:href="../../d5/d2c/rlecomp_8c.html#a52aa460c4bbe517210ee242d3762a8fb" target="_top" xlink:title="copy_scanline">
<polygon fill="white" stroke="black" points="107,-38.5 107,-57.5 191,-57.5 191,-38.5 107,-38.5"/>
<text text-anchor="middle" x="149" y="-45.5" font-family="Helvetica,sans-Serif" font-size="10.00">copy_scanline</text>
</a>
</g>
</g>
<!-- Node1&#45;&gt;Node4 -->
<g id="edge3" class="edge"><title>Node1&#45;&gt;Node4</title>
<path fill="none" stroke="midnightblue" d="M81.2074,-59.3817C89.6248,-57.9473 98.3919,-56.4534 106.699,-55.0378"/>
<polygon fill="midnightblue" stroke="midnightblue" points="80.438,-55.9623 71.1681,-61.0924 81.614,-62.8628 80.438,-55.9623"/>
</g>
<!-- Node5 -->
<g id="node5" class="node"><title>Node5</title>
<g id="a_node5"><a xlink:href="../../d5/d42/rlezoom_8c.html#a93e7f36e1343b502769244ac9789c0ff" target="_top" xlink:title="integer_zoom">
<polygon fill="white" stroke="black" points="108.5,-0.5 108.5,-19.5 189.5,-19.5 189.5,-0.5 108.5,-0.5"/>
<text text-anchor="middle" x="149" y="-7.5" font-family="Helvetica,sans-Serif" font-size="10.00">integer_zoom</text>
</a>
</g>
</g>
<!-- Node1&#45;&gt;Node5 -->
<g id="edge4" class="edge"><title>Node1&#45;&gt;Node5</title>
<path fill="none" stroke="midnightblue" d="M62.4516,-52.5269C75.6847,-45.271 92.0927,-36.4632 107,-29 113.314,-25.8391 120.255,-22.5524 126.603,-19.619"/>
<polygon fill="midnightblue" stroke="midnightblue" points="60.5103,-49.6005 53.4439,-57.4946 63.8908,-55.7301 60.5103,-49.6005"/>
</g>
</g>
</svg>
