<?xml version="1.0" encoding="UTF-8" standalone="no"?>
<!DOCTYPE svg PUBLIC "-//W3C//DTD SVG 1.1//EN"
 "http://www.w3.org/Graphics/SVG/1.1/DTD/svg11.dtd">
<!-- Generated by graphviz version 2.38.0 (20140413.2041)
 -->
<!-- Title: error Pages: 1 -->
<svg width="241pt" height="180pt"
 viewBox="0.00 0.00 241.00 180.00" xmlns="http://www.w3.org/2000/svg" xmlns:xlink="http://www.w3.org/1999/xlink">
<g id="graph0" class="graph" transform="scale(1 1) rotate(0) translate(4 176)">
<title>error</title>
<polygon fill="white" stroke="none" points="-4,4 -4,-176 237,-176 237,4 -4,4"/>
<!-- Node1 -->
<g id="node1" class="node"><title>Node1</title>
<polygon fill="#bfbfbf" stroke="black" points="0,-76.5 0,-95.5 40,-95.5 40,-76.5 0,-76.5"/>
<text text-anchor="middle" x="20" y="-83.5" font-family="Helvetica,sans-Serif" font-size="10.00">error</text>
</g>
<!-- Node2 -->
<g id="node2" class="node"><title>Node2</title>
<g id="a_node2"><a xlink:href="../../d6/d10/rletoalias_8c.html#a86cf5e03c7b351c5a62a6951d179f6a5" target="_top" xlink:title="read_rle">
<polygon fill="white" stroke="black" points="89,-152.5 89,-171.5 145,-171.5 145,-152.5 89,-152.5"/>
<text text-anchor="middle" x="117" y="-159.5" font-family="Helvetica,sans-Serif" font-size="10.00">read_rle</text>
</a>
</g>
</g>
<!-- Node1&#45;&gt;Node2 -->
<g id="edge1" class="edge"><title>Node1&#45;&gt;Node2</title>
<path fill="none" stroke="midnightblue" d="M35.0714,-103.647C45.4387,-115.825 60.3966,-131.781 76,-143 80.9937,-146.59 86.7726,-149.792 92.3583,-152.498"/>
<polygon fill="midnightblue" stroke="midnightblue" points="37.7497,-101.393 28.6759,-95.9237 32.3584,-105.858 37.7497,-101.393"/>
</g>
<!-- Node3 -->
<g id="node3" class="node"><title>Node3</title>
<g id="a_node3"><a xlink:href="../../d6/d10/rletoalias_8c.html#a2ec715df257f3a55ce2d2fed1d65dc2f" target="_top" xlink:title="write_alias">
<polygon fill="white" stroke="black" points="83.5,-114.5 83.5,-133.5 150.5,-133.5 150.5,-114.5 83.5,-114.5"/>
<text text-anchor="middle" x="117" y="-121.5" font-family="Helvetica,sans-Serif" font-size="10.00">write_alias</text>
</a>
</g>
</g>
<!-- Node1&#45;&gt;Node3 -->
<g id="edge2" class="edge"><title>Node1&#45;&gt;Node3</title>
<path fill="none" stroke="midnightblue" d="M49.5866,-97.4346C63.1499,-102.86 79.1723,-109.269 92.0812,-114.432"/>
<polygon fill="midnightblue" stroke="midnightblue" points="50.8093,-94.1542 40.2247,-93.6899 48.2096,-100.654 50.8093,-94.1542"/>
</g>
<!-- Node4 -->
<g id="node4" class="node"><title>Node4</title>
<g id="a_node4"><a xlink:href="../../d6/d10/rletoalias_8c.html#a00f9e9c6eccf1c436fe0ac8cf8162814" target="_top" xlink:title="Malloc">
<polygon fill="white" stroke="black" points="93.5,-76.5 93.5,-95.5 140.5,-95.5 140.5,-76.5 93.5,-76.5"/>
<text text-anchor="middle" x="117" y="-83.5" font-family="Helvetica,sans-Serif" font-size="10.00">Malloc</text>
</a>
</g>
</g>
<!-- Node1&#45;&gt;Node4 -->
<g id="edge3" class="edge"><title>Node1&#45;&gt;Node4</title>
<path fill="none" stroke="midnightblue" d="M50.2815,-86C64.1861,-86 80.5456,-86 93.4637,-86"/>
<polygon fill="midnightblue" stroke="midnightblue" points="50.2247,-82.5001 40.2247,-86 50.2246,-89.5001 50.2247,-82.5001"/>
</g>
<!-- Node5 -->
<g id="node5" class="node"><title>Node5</title>
<g id="a_node5"><a xlink:href="../../df/db4/tifftorle_8c.html#ade521a0600ded19f1720b6f6df59b480" target="_top" xlink:title="main">
<polygon fill="white" stroke="black" points="194,-19.5 194,-38.5 233,-38.5 233,-19.5 194,-19.5"/>
<text text-anchor="middle" x="213.5" y="-26.5" font-family="Helvetica,sans-Serif" font-size="10.00">main</text>
</a>
</g>
</g>
<!-- Node1&#45;&gt;Node5 -->
<g id="edge4" class="edge"><title>Node1&#45;&gt;Node5</title>
<path fill="none" stroke="midnightblue" d="M49.9607,-75.6242C58.3286,-72.7272 67.4974,-69.6494 76,-67 117.804,-53.9738 167.466,-40.6907 193.849,-33.8056"/>
<polygon fill="midnightblue" stroke="midnightblue" points="48.5293,-72.417 40.2495,-79.0273 50.8443,-79.0232 48.5293,-72.417"/>
</g>
<!-- Node6 -->
<g id="node6" class="node"><title>Node6</title>
<g id="a_node6"><a xlink:href="../../df/db4/tifftorle_8c.html#ae6289c0f5ad8df9d34452253a23b385b" target="_top" xlink:title="get_scanlines">
<polygon fill="white" stroke="black" points="76,-0.5 76,-19.5 158,-19.5 158,-0.5 76,-0.5"/>
<text text-anchor="middle" x="117" y="-7.5" font-family="Helvetica,sans-Serif" font-size="10.00">get_scanlines</text>
</a>
</g>
</g>
<!-- Node1&#45;&gt;Node6 -->
<g id="edge5" class="edge"><title>Node1&#45;&gt;Node6</title>
<path fill="none" stroke="midnightblue" d="M37.4168,-68.6641C47.9284,-58.0372 62.1504,-44.5044 76,-34 82.8397,-28.8124 90.8732,-23.806 97.9392,-19.7202"/>
<polygon fill="midnightblue" stroke="midnightblue" points="34.6261,-66.5138 30.1694,-76.1257 39.6474,-71.391 34.6261,-66.5138"/>
</g>
<!-- Node6&#45;&gt;Node5 -->
<g id="edge6" class="edge"><title>Node6&#45;&gt;Node5</title>
<path fill="none" stroke="midnightblue" d="M168.095,-20.0721C177.338,-21.9303 186.434,-23.7592 193.964,-25.2731"/>
<polygon fill="midnightblue" stroke="midnightblue" points="168.57,-16.5976 158.077,-18.0577 167.19,-23.4603 168.57,-16.5976"/>
</g>
</g>
</svg>
