<?xml version="1.0" encoding="UTF-8" standalone="no"?>
<!DOCTYPE svg PUBLIC "-//W3C//DTD SVG 1.1//EN"
 "http://www.w3.org/Graphics/SVG/1.1/DTD/svg11.dtd">
<!-- Generated by graphviz version 2.38.0 (20140413.2041)
 -->
<!-- Title: main Pages: 1 -->
<!--zoomable 484 -->
<svg id="main" version="1.1" xmlns="http://www.w3.org/2000/svg" xmlns:xlink="http://www.w3.org/1999/xlink" xml:space="preserve" onload="init(evt)">
<style type="text/css"><![CDATA[
.edge:hover path { stroke: red; }
.edge:hover polygon { stroke: red; fill: red; }
]]></style>
<script type="text/javascript"><![CDATA[
var edges = document.getElementsByTagName('g');
if (edges && edges.length) {
  for (var i=0;i<edges.length;i++) {
    if (edges[i].id.substr(0,4)=='edge') {
      edges[i].setAttribute('class','edge');
    }
  }
}
]]></script>
        <defs>
                <circle id="rim" cx="0" cy="0" r="7"/>
                <circle id="rim2" cx="0" cy="0" r="3.5"/>
                <g id="zoomPlus">
                        <use xlink:href="#rim" fill="#404040">
                                <set attributeName="fill" to="#808080" begin="zoomplus.mouseover" end="zoomplus.mouseout"/>
                        </use>
                        <path d="M-4,0h8M0,-4v8" fill="none" stroke="white" stroke-width="1.5" pointer-events="none"/>
                </g>
                <g id="zoomMin">
                        <use xlink:href="#rim" fill="#404040">
                                <set attributeName="fill" to="#808080" begin="zoomminus.mouseover" end="zoomminus.mouseout"/>
                        </use>
                        <path d="M-4,0h8" fill="none" stroke="white" stroke-width="1.5" pointer-events="none"/>
                </g>
                <g id="dirArrow">
                        <path fill="none" stroke="white" stroke-width="1.5" d="M0,-3.0v7 M-2.5,-0.5L0,-3.0L2.5,-0.5"/>
                </g>
               <g id="resetDef">
                       <use xlink:href="#rim2" fill="#404040">
                               <set attributeName="fill" to="#808080" begin="reset.mouseover" end="reset.mouseout"/>
                       </use>
               </g>
        </defs>

<script type="text/javascript">
var viewWidth = 525;
var viewHeight = 484;
var sectionId = 'dynsection-4';
</script>
<script xlink:href="../../svgpan.js"/>
<svg id="graph" class="graph">
<g id="viewport">
<title>main</title>
<polygon fill="white" stroke="none" points="-4,4 -4,-480 521,-480 521,4 -4,4"/>
<!-- Node1 -->
<g id="node1" class="node"><title>Node1</title>
<polygon fill="#bfbfbf" stroke="black" points="0,-266.5 0,-285.5 39,-285.5 39,-266.5 0,-266.5"/>
<text text-anchor="middle" x="19.5" y="-273.5" font-family="Helvetica,sans-Serif" font-size="10.00">main</text>
</g>
<!-- Node2 -->
<g id="node2" class="node"><title>Node2</title>
<g id="a_node2"><a xlink:href="../../d2/df3/rle__hdr_8c.html#a8ba0e5b11d1e39ab7227f1686e676c86" target="_top" xlink:title="rle_hdr_init">
<polygon fill="white" stroke="black" points="81,-342.5 81,-361.5 151,-361.5 151,-342.5 81,-342.5"/>
<text text-anchor="middle" x="116" y="-349.5" font-family="Helvetica,sans-Serif" font-size="10.00">rle_hdr_init</text>
</a>
</g>
</g>
<!-- Node1&#45;&gt;Node2 -->
<g id="edge1" class="edge"><title>Node1&#45;&gt;Node2</title>
<path fill="none" stroke="midnightblue" d="M27.7491,-285.504C37.4514,-297.73 55.6893,-319.049 75,-333 77.2026,-334.591 79.5594,-336.105 81.9859,-337.533"/>
<polygon fill="midnightblue" stroke="midnightblue" points="80.4579,-340.685 90.9274,-342.31 83.7565,-334.511 80.4579,-340.685"/>
</g>
<!-- Node6 -->
<g id="node6" class="node"><title>Node6</title>
<g id="a_node6"><a xlink:href="../../d0/dcc/rletorla_8c.html#ab7e36af3707843f77cc5b4e831c2fa6d" target="_top" xlink:title="malloc">
<polygon fill="white" stroke="black" points="460.5,-247.5 460.5,-266.5 507.5,-266.5 507.5,-247.5 460.5,-247.5"/>
<text text-anchor="middle" x="484" y="-254.5" font-family="Helvetica,sans-Serif" font-size="10.00">malloc</text>
</a>
</g>
</g>
<!-- Node1&#45;&gt;Node6 -->
<g id="edge20" class="edge"><title>Node1&#45;&gt;Node6</title>
<path fill="none" stroke="midnightblue" d="M39.3991,-275.584C96.2397,-274.277 270.61,-269.868 415,-262 426.465,-261.375 439.005,-260.506 450.158,-259.667"/>
<polygon fill="midnightblue" stroke="midnightblue" points="450.646,-263.14 460.347,-258.882 450.108,-256.161 450.646,-263.14"/>
</g>
<!-- Node7 -->
<g id="node7" class="node"><title>Node7</title>
<g id="a_node7"><a xlink:href="../../d2/df3/rle__hdr_8c.html#a82e79385f2d45cc3b80ce0f4f369eae5" target="_top" xlink:title="rle_names">
<polygon fill="white" stroke="black" points="331,-342.5 331,-361.5 397,-361.5 397,-342.5 331,-342.5"/>
<text text-anchor="middle" x="364" y="-349.5" font-family="Helvetica,sans-Serif" font-size="10.00">rle_names</text>
</a>
</g>
</g>
<!-- Node1&#45;&gt;Node7 -->
<g id="edge12" class="edge"><title>Node1&#45;&gt;Node7</title>
<path fill="none" stroke="midnightblue" d="M22.6081,-285.514C27.6356,-305.62 42.4214,-352.131 75,-371 115.625,-394.529 251.077,-373.434 320.773,-360.435"/>
<polygon fill="midnightblue" stroke="midnightblue" points="321.791,-363.805 330.965,-358.504 320.488,-356.927 321.791,-363.805"/>
</g>
<!-- Node8 -->
<g id="node8" class="node"><title>Node8</title>
<g id="a_node8"><a xlink:href="../../d4/db0/scanargs_8c.html#a7ea6d702c0484056c8504d6ce7fede08" target="_top" xlink:title="scanargs">
<polygon fill="white" stroke="black" points="86,-418.5 86,-437.5 146,-437.5 146,-418.5 86,-418.5"/>
<text text-anchor="middle" x="116" y="-425.5" font-family="Helvetica,sans-Serif" font-size="10.00">scanargs</text>
</a>
</g>
</g>
<!-- Node1&#45;&gt;Node8 -->
<g id="edge10" class="edge"><title>Node1&#45;&gt;Node8</title>
<path fill="none" stroke="midnightblue" d="M22.475,-285.772C27.5503,-308.783 42.9599,-367.207 75,-404 77.872,-407.298 81.3121,-410.273 84.9529,-412.913"/>
<polygon fill="midnightblue" stroke="midnightblue" points="83.3284,-416.029 93.6395,-418.465 87.0979,-410.13 83.3284,-416.029"/>
</g>
<!-- Node10 -->
<g id="node10" class="node"><title>Node10</title>
<g id="a_node10"><a xlink:href="../../d8/d30/cmd__name_8c.html#a271249070fdd12c176777c77d76f888f" target="_top" xlink:title="cmd_name">
<polygon fill="white" stroke="black" points="82,-304.5 82,-323.5 150,-323.5 150,-304.5 82,-304.5"/>
<text text-anchor="middle" x="116" y="-311.5" font-family="Helvetica,sans-Serif" font-size="10.00">cmd_name</text>
</a>
</g>
</g>
<!-- Node1&#45;&gt;Node10 -->
<g id="edge13" class="edge"><title>Node1&#45;&gt;Node10</title>
<path fill="none" stroke="midnightblue" d="M39.1702,-283.508C51.3198,-288.393 67.5079,-294.903 81.8065,-300.652"/>
<polygon fill="midnightblue" stroke="midnightblue" points="80.747,-303.999 91.3308,-304.482 83.3587,-297.504 80.747,-303.999"/>
</g>
<!-- Node11 -->
<g id="node11" class="node"><title>Node11</title>
<g id="a_node11"><a xlink:href="../../df/db4/tifftorle_8c.html#a7e15c8e2885871839fc2b820dfbdb4ce" target="_top" xlink:title="error">
<polygon fill="white" stroke="black" points="215,-152.5 215,-171.5 255,-171.5 255,-152.5 215,-152.5"/>
<text text-anchor="middle" x="235" y="-159.5" font-family="Helvetica,sans-Serif" font-size="10.00">error</text>
</a>
</g>
</g>
<!-- Node1&#45;&gt;Node11 -->
<g id="edge14" class="edge"><title>Node1&#45;&gt;Node11</title>
<path fill="none" stroke="midnightblue" d="M27.5434,-266.196C37.0234,-253.645 55.0211,-231.976 75,-219 116.164,-192.264 171.473,-176.122 204.832,-168.151"/>
<polygon fill="midnightblue" stroke="midnightblue" points="205.885,-171.5 214.845,-165.846 204.315,-164.678 205.885,-171.5"/>
</g>
<!-- Node12 -->
<g id="node12" class="node"><title>Node12</title>
<g id="a_node12"><a xlink:href="../../de/d4e/rle__open__f_8c.html#a89733a45961817885603ae01210290b7" target="_top" xlink:title="rle_open_f">
<polygon fill="white" stroke="black" points="82,-456.5 82,-475.5 150,-475.5 150,-456.5 82,-456.5"/>
<text text-anchor="middle" x="116" y="-463.5" font-family="Helvetica,sans-Serif" font-size="10.00">rle_open_f</text>
</a>
</g>
</g>
<!-- Node1&#45;&gt;Node12 -->
<g id="edge15" class="edge"><title>Node1&#45;&gt;Node12</title>
<path fill="none" stroke="midnightblue" d="M20.9772,-285.806C22.8571,-314.221 31.9555,-397.718 75,-447 76.1474,-448.314 77.4056,-449.544 78.746,-450.695"/>
<polygon fill="midnightblue" stroke="midnightblue" points="76.8979,-453.672 87.1212,-456.453 80.8637,-447.903 76.8979,-453.672"/>
</g>
<!-- Node15 -->
<g id="node15" class="node"><title>Node15</title>
<g id="a_node15"><a xlink:href="../../d8/def/rle__addhist_8c.html#a4f9433d6e4e203d0ecea1c7d3837afc3" target="_top" xlink:title="rle_addhist">
<polygon fill="white" stroke="black" points="200.5,-38.5 200.5,-57.5 269.5,-57.5 269.5,-38.5 200.5,-38.5"/>
<text text-anchor="middle" x="235" y="-45.5" font-family="Helvetica,sans-Serif" font-size="10.00">rle_addhist</text>
</a>
</g>
</g>
<!-- Node1&#45;&gt;Node15 -->
<g id="edge21" class="edge"><title>Node1&#45;&gt;Node15</title>
<path fill="none" stroke="midnightblue" d="M20.1336,-266.434C19.5001,-235.424 21.9235,-136.753 75,-86 105.619,-56.7219 154.587,-48.6672 190.097,-47.0402"/>
<polygon fill="midnightblue" stroke="midnightblue" points="190.3,-50.5358 200.189,-46.7321 190.087,-43.539 190.3,-50.5358"/>
</g>
<!-- Node20 -->
<g id="node20" class="node"><title>Node20</title>
<g id="a_node20"><a xlink:href="../../d9/d2a/rle__putrow_8c.html#af88a82b331cd6f425d2a2cc1623944c6" target="_top" xlink:title="rle_put_setup">
<polygon fill="white" stroke="black" points="76,-95.5 76,-114.5 156,-114.5 156,-95.5 76,-95.5"/>
<text text-anchor="middle" x="116" y="-102.5" font-family="Helvetica,sans-Serif" font-size="10.00">rle_put_setup</text>
</a>
</g>
</g>
<!-- Node1&#45;&gt;Node20 -->
<g id="edge28" class="edge"><title>Node1&#45;&gt;Node20</title>
<path fill="none" stroke="midnightblue" d="M22.9528,-266.297C29.0605,-243.36 46.5397,-184.603 75,-143 80.442,-135.045 87.7859,-127.473 94.6958,-121.211"/>
<polygon fill="midnightblue" stroke="midnightblue" points="97.1741,-123.696 102.468,-114.518 92.6064,-118.391 97.1741,-123.696"/>
</g>
<!-- Node22 -->
<g id="node22" class="node"><title>Node22</title>
<g id="a_node22"><a xlink:href="../../df/db4/tifftorle_8c.html#ae6289c0f5ad8df9d34452253a23b385b" target="_top" xlink:title="get_scanlines">
<polygon fill="white" stroke="black" points="75,-152.5 75,-171.5 157,-171.5 157,-152.5 75,-152.5"/>
<text text-anchor="middle" x="116" y="-159.5" font-family="Helvetica,sans-Serif" font-size="10.00">get_scanlines</text>
</a>
</g>
</g>
<!-- Node1&#45;&gt;Node22 -->
<g id="edge30" class="edge"><title>Node1&#45;&gt;Node22</title>
<path fill="none" stroke="midnightblue" d="M24.4753,-266.302C32.1089,-248.601 50.2795,-210.62 75,-186 78.3174,-182.696 82.1764,-179.66 86.1633,-176.94"/>
<polygon fill="midnightblue" stroke="midnightblue" points="88.2757,-179.749 94.9346,-171.508 84.5901,-173.798 88.2757,-179.749"/>
</g>
<!-- Node23 -->
<g id="node23" class="node"><title>Node23</title>
<g id="a_node23"><a xlink:href="../../d9/d2a/rle__putrow_8c.html#aa26532b01bc4f49b7383765cdc23ea72" target="_top" xlink:title="rle_putrow">
<polygon fill="white" stroke="black" points="83,-228.5 83,-247.5 149,-247.5 149,-228.5 83,-228.5"/>
<text text-anchor="middle" x="116" y="-235.5" font-family="Helvetica,sans-Serif" font-size="10.00">rle_putrow</text>
</a>
</g>
</g>
<!-- Node1&#45;&gt;Node23 -->
<g id="edge33" class="edge"><title>Node1&#45;&gt;Node23</title>
<path fill="none" stroke="midnightblue" d="M39.1702,-268.492C51.3198,-263.607 67.5079,-257.097 81.8065,-251.348"/>
<polygon fill="midnightblue" stroke="midnightblue" points="83.3587,-254.496 91.3308,-247.518 80.747,-248.001 83.3587,-254.496"/>
</g>
<!-- Node3 -->
<g id="node3" class="node"><title>Node3</title>
<g id="a_node3"><a xlink:href="../../d2/df3/rle__hdr_8c.html#a16c4da6201b3b8cf55127b9ca968d253" target="_top" xlink:title="rle_hdr_clear">
<polygon fill="white" stroke="black" points="324,-380.5 324,-399.5 404,-399.5 404,-380.5 324,-380.5"/>
<text text-anchor="middle" x="364" y="-387.5" font-family="Helvetica,sans-Serif" font-size="10.00">rle_hdr_clear</text>
</a>
</g>
</g>
<!-- Node2&#45;&gt;Node3 -->
<g id="edge2" class="edge"><title>Node2&#45;&gt;Node3</title>
<path fill="none" stroke="midnightblue" d="M151.205,-357.284C193.481,-363.814 265.723,-374.973 313.91,-382.417"/>
<polygon fill="midnightblue" stroke="midnightblue" points="313.391,-385.878 323.808,-383.946 314.46,-378.96 313.391,-385.878"/>
</g>
<!-- Node5 -->
<g id="node5" class="node"><title>Node5</title>
<g id="a_node5"><a xlink:href="../../d2/df3/rle__hdr_8c.html#afc916e29aea8788e0878ca315ff69821" target="_top" xlink:title="rle_hdr_cp">
<polygon fill="white" stroke="black" points="201,-304.5 201,-323.5 269,-323.5 269,-304.5 201,-304.5"/>
<text text-anchor="middle" x="235" y="-311.5" font-family="Helvetica,sans-Serif" font-size="10.00">rle_hdr_cp</text>
</a>
</g>
</g>
<!-- Node2&#45;&gt;Node5 -->
<g id="edge4" class="edge"><title>Node2&#45;&gt;Node5</title>
<path fill="none" stroke="midnightblue" d="M132.296,-342.301C147.2,-335.671 170.559,-327.484 191.134,-321.391"/>
<polygon fill="midnightblue" stroke="midnightblue" points="192.307,-324.696 200.961,-318.584 190.384,-317.965 192.307,-324.696"/>
</g>
<!-- Node4 -->
<g id="node4" class="node"><title>Node4</title>
<g id="a_node4"><a xlink:href="../../d0/dcc/rletorla_8c.html#aafde19f7d36ca163a143579c1b125b6d" target="_top" xlink:title="free">
<polygon fill="white" stroke="black" points="466.5,-380.5 466.5,-399.5 501.5,-399.5 501.5,-380.5 466.5,-380.5"/>
<text text-anchor="middle" x="484" y="-387.5" font-family="Helvetica,sans-Serif" font-size="10.00">free</text>
</a>
</g>
</g>
<!-- Node3&#45;&gt;Node4 -->
<g id="edge3" class="edge"><title>Node3&#45;&gt;Node4</title>
<path fill="none" stroke="midnightblue" d="M404.292,-390C421.232,-390 440.621,-390 455.916,-390"/>
<polygon fill="midnightblue" stroke="midnightblue" points="456.236,-393.5 466.236,-390 456.236,-386.5 456.236,-393.5"/>
</g>
<!-- Node5&#45;&gt;Node2 -->
<g id="edge5" class="edge"><title>Node5&#45;&gt;Node2</title>
<path fill="none" stroke="midnightblue" d="M219.092,-323.526C204.467,-330.07 181.444,-338.173 160.96,-344.284"/>
<polygon fill="midnightblue" stroke="midnightblue" points="159.796,-340.976 151.156,-347.108 161.734,-347.703 159.796,-340.976"/>
</g>
<!-- Node5&#45;&gt;Node6 -->
<g id="edge6" class="edge"><title>Node5&#45;&gt;Node6</title>
<path fill="none" stroke="midnightblue" d="M269.328,-312.694C305.786,-310.543 365.613,-304.875 415,-290 429.919,-285.507 445.627,-278.083 458.182,-271.413"/>
<polygon fill="midnightblue" stroke="midnightblue" points="460.018,-274.398 467.104,-266.521 456.653,-268.26 460.018,-274.398"/>
</g>
<!-- Node5&#45;&gt;Node7 -->
<g id="edge7" class="edge"><title>Node5&#45;&gt;Node7</title>
<path fill="none" stroke="midnightblue" d="M268.047,-323.589C284.141,-328.404 303.841,-334.299 321.117,-339.468"/>
<polygon fill="midnightblue" stroke="midnightblue" points="320.379,-342.901 330.963,-342.414 322.386,-336.194 320.379,-342.901"/>
</g>
<!-- Node7&#45;&gt;Node4 -->
<g id="edge8" class="edge"><title>Node7&#45;&gt;Node4</title>
<path fill="none" stroke="midnightblue" d="M394.776,-361.589C413.813,-367.72 438.281,-375.599 456.618,-381.504"/>
<polygon fill="midnightblue" stroke="midnightblue" points="455.768,-384.907 466.359,-384.641 457.914,-378.244 455.768,-384.907"/>
</g>
<!-- Node7&#45;&gt;Node6 -->
<g id="edge9" class="edge"><title>Node7&#45;&gt;Node6</title>
<path fill="none" stroke="midnightblue" d="M389.388,-342.421C397.869,-338.55 407.204,-333.651 415,-328 436.221,-312.617 456.451,-290.142 469.243,-274.618"/>
<polygon fill="midnightblue" stroke="midnightblue" points="471.995,-276.781 475.544,-266.798 466.544,-272.389 471.995,-276.781"/>
</g>
<!-- Node9 -->
<g id="node9" class="node"><title>Node9</title>
<g id="a_node9"><a xlink:href="../../d4/db0/scanargs_8c.html#a862219039664df6eb3cfced58addf830" target="_top" xlink:title="_do_scanargs">
<polygon fill="white" stroke="black" points="193,-418.5 193,-437.5 277,-437.5 277,-418.5 193,-418.5"/>
<text text-anchor="middle" x="235" y="-425.5" font-family="Helvetica,sans-Serif" font-size="10.00">_do_scanargs</text>
</a>
</g>
</g>
<!-- Node8&#45;&gt;Node9 -->
<g id="edge11" class="edge"><title>Node8&#45;&gt;Node9</title>
<path fill="none" stroke="midnightblue" d="M146.222,-428C157.221,-428 170.08,-428 182.511,-428"/>
<polygon fill="midnightblue" stroke="midnightblue" points="182.802,-431.5 192.802,-428 182.802,-424.5 182.802,-431.5"/>
</g>
<!-- Node13 -->
<g id="node13" class="node"><title>Node13</title>
<g id="a_node13"><a xlink:href="../../de/d4e/rle__open__f_8c.html#a5a0e62a00f907fce26e93b2f72adb2b0" target="_top" xlink:title="rle_open_f_noexit">
<polygon fill="white" stroke="black" points="313,-418.5 313,-437.5 415,-437.5 415,-418.5 313,-418.5"/>
<text text-anchor="middle" x="364" y="-425.5" font-family="Helvetica,sans-Serif" font-size="10.00">rle_open_f_noexit</text>
</a>
</g>
</g>
<!-- Node12&#45;&gt;Node13 -->
<g id="edge16" class="edge"><title>Node12&#45;&gt;Node13</title>
<path fill="none" stroke="midnightblue" d="M150.232,-463.024C182.69,-459.89 233.424,-454.382 277,-447 289.014,-444.965 301.881,-442.356 313.906,-439.727"/>
<polygon fill="midnightblue" stroke="midnightblue" points="314.774,-443.119 323.773,-437.527 313.251,-436.287 314.774,-443.119"/>
</g>
<!-- Node13&#45;&gt;Node4 -->
<g id="edge19" class="edge"><title>Node13&#45;&gt;Node4</title>
<path fill="none" stroke="midnightblue" d="M394.776,-418.411C413.813,-412.28 438.281,-404.401 456.618,-398.496"/>
<polygon fill="midnightblue" stroke="midnightblue" points="457.914,-401.756 466.359,-395.359 455.768,-395.093 457.914,-401.756"/>
</g>
<!-- Node13&#45;&gt;Node6 -->
<g id="edge18" class="edge"><title>Node13&#45;&gt;Node6</title>
<path fill="none" stroke="midnightblue" d="M400.667,-418.491C405.886,-416.003 410.881,-412.889 415,-409 454.113,-372.075 472.292,-308.531 479.305,-276.567"/>
<polygon fill="midnightblue" stroke="midnightblue" points="482.754,-277.173 481.336,-266.674 475.897,-275.765 482.754,-277.173"/>
</g>
<!-- Node14 -->
<g id="node14" class="node"><title>Node14</title>
<g id="a_node14"><a xlink:href="../../de/d4e/rle__open__f_8c.html#a84fda810ae9b9bde82a6391d0b264ead" target="_top" xlink:title="my_popen">
<polygon fill="white" stroke="black" points="451,-418.5 451,-437.5 517,-437.5 517,-418.5 451,-418.5"/>
<text text-anchor="middle" x="484" y="-425.5" font-family="Helvetica,sans-Serif" font-size="10.00">my_popen</text>
</a>
</g>
</g>
<!-- Node13&#45;&gt;Node14 -->
<g id="edge17" class="edge"><title>Node13&#45;&gt;Node14</title>
<path fill="none" stroke="midnightblue" d="M415.043,-428C423.523,-428 432.255,-428 440.518,-428"/>
<polygon fill="midnightblue" stroke="midnightblue" points="440.678,-431.5 450.678,-428 440.678,-424.5 440.678,-431.5"/>
</g>
<!-- Node15&#45;&gt;Node6 -->
<g id="edge24" class="edge"><title>Node15&#45;&gt;Node6</title>
<path fill="none" stroke="midnightblue" d="M269.681,-56.2904C315.235,-68.0582 393.296,-90.3614 415,-110 453.44,-144.782 471.781,-205.705 479.036,-237.079"/>
<polygon fill="midnightblue" stroke="midnightblue" points="475.689,-238.163 481.224,-247.197 482.531,-236.683 475.689,-238.163"/>
</g>
<!-- Node16 -->
<g id="node16" class="node"><title>Node16</title>
<g id="a_node16"><a xlink:href="../../db/db2/rle__getcom_8c.html#a9cefd612c381bf82c9cdf1f3a3b12dd6" target="_top" xlink:title="rle_getcom">
<polygon fill="white" stroke="black" points="329.5,-0.5 329.5,-19.5 398.5,-19.5 398.5,-0.5 329.5,-0.5"/>
<text text-anchor="middle" x="364" y="-7.5" font-family="Helvetica,sans-Serif" font-size="10.00">rle_getcom</text>
</a>
</g>
</g>
<!-- Node15&#45;&gt;Node16 -->
<g id="edge22" class="edge"><title>Node15&#45;&gt;Node16</title>
<path fill="none" stroke="midnightblue" d="M268.047,-38.411C284.141,-33.5956 303.841,-27.7012 321.117,-22.532"/>
<polygon fill="midnightblue" stroke="midnightblue" points="322.386,-25.8057 330.963,-19.5859 320.379,-19.0994 322.386,-25.8057"/>
</g>
<!-- Node18 -->
<g id="node18" class="node"><title>Node18</title>
<g id="a_node18"><a xlink:href="../../df/da5/rle__putcom_8c.html#a6fa8528c32d14763efe2a534e409e321" target="_top" xlink:title="rle_putcom">
<polygon fill="white" stroke="black" points="330,-38.5 330,-57.5 398,-57.5 398,-38.5 330,-38.5"/>
<text text-anchor="middle" x="364" y="-45.5" font-family="Helvetica,sans-Serif" font-size="10.00">rle_putcom</text>
</a>
</g>
</g>
<!-- Node15&#45;&gt;Node18 -->
<g id="edge25" class="edge"><title>Node15&#45;&gt;Node18</title>
<path fill="none" stroke="midnightblue" d="M269.7,-48C284.891,-48 303.024,-48 319.248,-48"/>
<polygon fill="midnightblue" stroke="midnightblue" points="319.583,-51.5001 329.583,-48 319.583,-44.5001 319.583,-51.5001"/>
</g>
<!-- Node17 -->
<g id="node17" class="node"><title>Node17</title>
<g id="a_node17"><a xlink:href="../../db/db2/rle__getcom_8c.html#a7502c8b599724ce86fee5df1311a2337" target="_top" xlink:title="match">
<polygon fill="white" stroke="black" points="461.5,-0.5 461.5,-19.5 506.5,-19.5 506.5,-0.5 461.5,-0.5"/>
<text text-anchor="middle" x="484" y="-7.5" font-family="Helvetica,sans-Serif" font-size="10.00">match</text>
</a>
</g>
</g>
<!-- Node16&#45;&gt;Node17 -->
<g id="edge23" class="edge"><title>Node16&#45;&gt;Node17</title>
<path fill="none" stroke="midnightblue" d="M398.814,-10C415.35,-10 435.136,-10 451.37,-10"/>
<polygon fill="midnightblue" stroke="midnightblue" points="451.456,-13.5001 461.456,-10 451.456,-6.5001 451.456,-13.5001"/>
</g>
<!-- Node18&#45;&gt;Node6 -->
<g id="edge26" class="edge"><title>Node18&#45;&gt;Node6</title>
<path fill="none" stroke="midnightblue" d="M394.494,-57.5879C401.96,-61.1533 409.43,-65.8724 415,-72 459.221,-120.649 475.367,-200.475 480.671,-237.281"/>
<polygon fill="midnightblue" stroke="midnightblue" points="477.208,-237.786 481.989,-247.241 484.147,-236.868 477.208,-237.786"/>
</g>
<!-- Node19 -->
<g id="node19" class="node"><title>Node19</title>
<g id="a_node19"><a xlink:href="../../df/da5/rle__putcom_8c.html#a7502c8b599724ce86fee5df1311a2337" target="_top" xlink:title="match">
<polygon fill="white" stroke="black" points="461.5,-38.5 461.5,-57.5 506.5,-57.5 506.5,-38.5 461.5,-38.5"/>
<text text-anchor="middle" x="484" y="-45.5" font-family="Helvetica,sans-Serif" font-size="10.00">match</text>
</a>
</g>
</g>
<!-- Node18&#45;&gt;Node19 -->
<g id="edge27" class="edge"><title>Node18&#45;&gt;Node19</title>
<path fill="none" stroke="midnightblue" d="M398.184,-48C414.735,-48 434.664,-48 451.044,-48"/>
<polygon fill="midnightblue" stroke="midnightblue" points="451.224,-51.5001 461.224,-48 451.224,-44.5001 451.224,-51.5001"/>
</g>
<!-- Node21 -->
<g id="node21" class="node"><title>Node21</title>
<g id="a_node21"><a xlink:href="../../d9/d2a/rle__putrow_8c.html#a46d9789104d5d1f09253a808fdad5346" target="_top" xlink:title="rle_put_init">
<polygon fill="white" stroke="black" points="201,-76.5 201,-95.5 269,-95.5 269,-76.5 201,-76.5"/>
<text text-anchor="middle" x="235" y="-83.5" font-family="Helvetica,sans-Serif" font-size="10.00">rle_put_init</text>
</a>
</g>
</g>
<!-- Node20&#45;&gt;Node21 -->
<g id="edge29" class="edge"><title>Node20&#45;&gt;Node21</title>
<path fill="none" stroke="midnightblue" d="M156.285,-98.6204C167.365,-96.8211 179.48,-94.8537 190.777,-93.0191"/>
<polygon fill="midnightblue" stroke="midnightblue" points="191.56,-96.4379 200.87,-91.3801 190.438,-89.5284 191.56,-96.4379"/>
</g>
<!-- Node22&#45;&gt;Node6 -->
<g id="edge31" class="edge"><title>Node22&#45;&gt;Node6</title>
<path fill="none" stroke="midnightblue" d="M145.168,-152.472C177.462,-142.964 231.769,-131.319 277,-143 351.429,-162.221 427.675,-214.724 462.902,-241.236"/>
<polygon fill="midnightblue" stroke="midnightblue" points="460.876,-244.093 470.948,-247.381 465.125,-238.53 460.876,-244.093"/>
</g>
<!-- Node22&#45;&gt;Node11 -->
<g id="edge32" class="edge"><title>Node22&#45;&gt;Node11</title>
<path fill="none" stroke="midnightblue" d="M157.265,-162C172.856,-162 190.368,-162 204.722,-162"/>
<polygon fill="midnightblue" stroke="midnightblue" points="204.999,-165.5 214.999,-162 204.999,-158.5 204.999,-165.5"/>
</g>
<!-- Node23&#45;&gt;Node6 -->
<g id="edge34" class="edge"><title>Node23&#45;&gt;Node6</title>
<path fill="none" stroke="midnightblue" d="M149.159,-239.669C218.205,-243.254 380.021,-251.654 449.9,-255.282"/>
<polygon fill="midnightblue" stroke="midnightblue" points="450.13,-258.798 460.298,-255.821 450.493,-251.808 450.13,-258.798"/>
</g>
<!-- Node24 -->
<g id="node24" class="node"><title>Node24</title>
<g id="a_node24"><a xlink:href="../../d9/d2a/rle__putrow_8c.html#aaa4133bf4a6cbf287444448497631f26" target="_top" xlink:title="findruns">
<polygon fill="white" stroke="black" points="208,-190.5 208,-209.5 262,-209.5 262,-190.5 208,-190.5"/>
<text text-anchor="middle" x="235" y="-197.5" font-family="Helvetica,sans-Serif" font-size="10.00">findruns</text>
</a>
</g>
</g>
<!-- Node23&#45;&gt;Node24 -->
<g id="edge35" class="edge"><title>Node23&#45;&gt;Node24</title>
<path fill="none" stroke="midnightblue" d="M146.524,-228.411C162.109,-223.349 181.364,-217.095 197.839,-211.745"/>
<polygon fill="midnightblue" stroke="midnightblue" points="199.249,-214.967 207.679,-208.549 197.087,-208.309 199.249,-214.967"/>
</g>
</g>
</svg>
        <g id="navigator" transform="translate(0 0)" fill="#404254">
                <rect fill="#f2f5e9" fill-opacity="0.5" stroke="#606060" stroke-width=".5" x="0" y="0" width="60" height="60"/>
                <use id="zoomplus" xlink:href="#zoomPlus" x="17" y="9" onmousedown="handleZoom(evt,'in')"/>
                <use id="zoomminus" xlink:href="#zoomMin" x="42" y="9" onmousedown="handleZoom(evt,'out')"/>
                <use id="reset" xlink:href="#resetDef" x="30" y="36" onmousedown="handleReset()"/>
                <g id="arrowUp" xlink:href="#dirArrow" transform="translate(30 24)" onmousedown="handlePan(0,-1)">
                  <use xlink:href="#rim" fill="#404040">
                        <set attributeName="fill" to="#808080" begin="arrowUp.mouseover" end="arrowUp.mouseout"/>
                  </use>
                  <path fill="none" stroke="white" stroke-width="1.5" d="M0,-3.0v7 M-2.5,-0.5L0,-3.0L2.5,-0.5"/>
                </g>
                <g id="arrowRight" xlink:href="#dirArrow" transform="rotate(90) translate(36 -43)" onmousedown="handlePan(1,0)">
                  <use xlink:href="#rim" fill="#404040">
                        <set attributeName="fill" to="#808080" begin="arrowRight.mouseover" end="arrowRight.mouseout"/>
                  </use>
                  <path fill="none" stroke="white" stroke-width="1.5" d="M0,-3.0v7 M-2.5,-0.5L0,-3.0L2.5,-0.5"/>
                </g>
                <g id="arrowDown" xlink:href="#dirArrow" transform="rotate(180) translate(-30 -48)" onmousedown="handlePan(0,1)">
                  <use xlink:href="#rim" fill="#404040">
                        <set attributeName="fill" to="#808080" begin="arrowDown.mouseover" end="arrowDown.mouseout"/>
                  </use>
                  <path fill="none" stroke="white" stroke-width="1.5" d="M0,-3.0v7 M-2.5,-0.5L0,-3.0L2.5,-0.5"/>
                </g>
                <g id="arrowLeft" xlink:href="#dirArrow" transform="rotate(270) translate(-36 17)" onmousedown="handlePan(-1,0)">
                  <use xlink:href="#rim" fill="#404040">
                        <set attributeName="fill" to="#808080" begin="arrowLeft.mouseover" end="arrowLeft.mouseout"/>
                  </use>
                  <path fill="none" stroke="white" stroke-width="1.5" d="M0,-3.0v7 M-2.5,-0.5L0,-3.0L2.5,-0.5"/>
                </g>
        </g>
        <svg viewBox="0 0 15 15" width="100%" height="30px" preserveAspectRatio="xMaxYMin meet">
         <g id="arrow_out" transform="scale(0.3 0.3)">
          <a xlink:href="tifftorle_8c_ade521a0600ded19f1720b6f6df59b480_cgraph_org.svg" target="_base">
           <rect id="button" ry="5" rx="5" y="6" x="6" height="38" width="38"
                fill="#f2f5e9" fill-opacity="0.5" stroke="#606060" stroke-width="1.0"/>
           <path id="arrow"
             d="M 11.500037,31.436501 C 11.940474,20.09759 22.043105,11.32322 32.158766,21.979434 L 37.068811,17.246167 C 37.068811,17.246167 37.088388,32 37.088388,32 L 22.160133,31.978069 C 22.160133,31.978069 26.997745,27.140456 26.997745,27.140456 C 18.528582,18.264221 13.291696,25.230495 11.500037,31.436501 z"
             style="fill:#404040;"/>
          </a>
         </g>
        </svg>
</svg>
