<?xml version="1.0" encoding="UTF-8" standalone="no"?>
<!DOCTYPE svg PUBLIC "-//W3C//DTD SVG 1.1//EN"
 "http://www.w3.org/Graphics/SVG/1.1/DTD/svg11.dtd">
<!-- Generated by graphviz version 2.38.0 (20140413.2041)
 -->
<!-- Title: get_scanlines Pages: 1 -->
<svg width="173pt" height="66pt"
 viewBox="0.00 0.00 173.00 66.00" xmlns="http://www.w3.org/2000/svg" xmlns:xlink="http://www.w3.org/1999/xlink">
<g id="graph0" class="graph" transform="scale(1 1) rotate(0) translate(4 62)">
<title>get_scanlines</title>
<polygon fill="white" stroke="none" points="-4,4 -4,-62 169,-62 169,4 -4,4"/>
<!-- Node1 -->
<g id="node1" class="node"><title>Node1</title>
<polygon fill="#bfbfbf" stroke="black" points="0,-19.5 0,-38.5 82,-38.5 82,-19.5 0,-19.5"/>
<text text-anchor="middle" x="41" y="-26.5" font-family="Helvetica,sans-Serif" font-size="10.00">get_scanlines</text>
</g>
<!-- Node2 -->
<g id="node2" class="node"><title>Node2</title>
<g id="a_node2"><a xlink:href="../../d0/dcc/rletorla_8c.html#ab7e36af3707843f77cc5b4e831c2fa6d" target="_top" xlink:title="malloc">
<polygon fill="white" stroke="black" points="118,-38.5 118,-57.5 165,-57.5 165,-38.5 118,-38.5"/>
<text text-anchor="middle" x="141.5" y="-45.5" font-family="Helvetica,sans-Serif" font-size="10.00">malloc</text>
</a>
</g>
</g>
<!-- Node1&#45;&gt;Node2 -->
<g id="edge1" class="edge"><title>Node1&#45;&gt;Node2</title>
<path fill="none" stroke="midnightblue" d="M82.0637,-36.728C90.6772,-38.3895 99.6794,-40.126 107.965,-41.7243"/>
<polygon fill="midnightblue" stroke="midnightblue" points="107.513,-45.2014 117.995,-43.6589 108.839,-38.3281 107.513,-45.2014"/>
</g>
<!-- Node3 -->
<g id="node3" class="node"><title>Node3</title>
<g id="a_node3"><a xlink:href="../../df/db4/tifftorle_8c.html#a7e15c8e2885871839fc2b820dfbdb4ce" target="_top" xlink:title="error">
<polygon fill="white" stroke="black" points="121.5,-0.5 121.5,-19.5 161.5,-19.5 161.5,-0.5 121.5,-0.5"/>
<text text-anchor="middle" x="141.5" y="-7.5" font-family="Helvetica,sans-Serif" font-size="10.00">error</text>
</a>
</g>
</g>
<!-- Node1&#45;&gt;Node3 -->
<g id="edge2" class="edge"><title>Node1&#45;&gt;Node3</title>
<path fill="none" stroke="midnightblue" d="M82.0637,-21.272C91.7874,-19.3963 102.006,-17.4252 111.131,-15.665"/>
<polygon fill="midnightblue" stroke="midnightblue" points="112.089,-19.0449 121.245,-13.7141 110.763,-12.1716 112.089,-19.0449"/>
</g>
</g>
</svg>
