<?xml version="1.0" encoding="UTF-8" standalone="no"?>
<!DOCTYPE svg PUBLIC "-//W3C//DTD SVG 1.1//EN"
 "http://www.w3.org/Graphics/SVG/1.1/DTD/svg11.dtd">
<!-- Generated by graphviz version 2.38.0 (20140413.2041)
 -->
<!-- Title: rle_putraw Pages: 1 -->
<svg width="194pt" height="104pt"
 viewBox="0.00 0.00 194.00 104.00" xmlns="http://www.w3.org/2000/svg" xmlns:xlink="http://www.w3.org/1999/xlink">
<g id="graph0" class="graph" transform="scale(1 1) rotate(0) translate(4 100)">
<title>rle_putraw</title>
<polygon fill="white" stroke="none" points="-4,4 -4,-100 190,-100 190,4 -4,4"/>
<!-- Node1 -->
<g id="node1" class="node"><title>Node1</title>
<polygon fill="#bfbfbf" stroke="black" points="0,-38.5 0,-57.5 66,-57.5 66,-38.5 0,-38.5"/>
<text text-anchor="middle" x="33" y="-45.5" font-family="Helvetica,sans-Serif" font-size="10.00">rle_putraw</text>
</g>
<!-- Node2 -->
<g id="node2" class="node"><title>Node2</title>
<g id="a_node2"><a xlink:href="../../d7/def/applymap_8c.html#a70db8bd1d499619f7ff9c1ca2ff3c8df" target="_top" xlink:title="main">
<polygon fill="white" stroke="black" points="124.5,-76.5 124.5,-95.5 163.5,-95.5 163.5,-76.5 124.5,-76.5"/>
<text text-anchor="middle" x="144" y="-83.5" font-family="Helvetica,sans-Serif" font-size="10.00">main</text>
</a>
</g>
</g>
<!-- Node1&#45;&gt;Node2 -->
<g id="edge1" class="edge"><title>Node1&#45;&gt;Node2</title>
<path fill="none" stroke="midnightblue" d="M71.1318,-60.945C89.0821,-67.2029 109.84,-74.4395 124.417,-79.5215"/>
<polygon fill="midnightblue" stroke="midnightblue" points="72.1001,-57.5761 61.5053,-57.589 69.7957,-64.1859 72.1001,-57.5761"/>
</g>
<!-- Node3 -->
<g id="node3" class="node"><title>Node3</title>
<g id="a_node3"><a xlink:href="../../d5/d2c/rlecomp_8c.html#a52aa460c4bbe517210ee242d3762a8fb" target="_top" xlink:title="copy_scanline">
<polygon fill="white" stroke="black" points="102,-38.5 102,-57.5 186,-57.5 186,-38.5 102,-38.5"/>
<text text-anchor="middle" x="144" y="-45.5" font-family="Helvetica,sans-Serif" font-size="10.00">copy_scanline</text>
</a>
</g>
</g>
<!-- Node1&#45;&gt;Node3 -->
<g id="edge2" class="edge"><title>Node1&#45;&gt;Node3</title>
<path fill="none" stroke="midnightblue" d="M76.1304,-48C84.5592,-48 93.4047,-48 101.801,-48"/>
<polygon fill="midnightblue" stroke="midnightblue" points="76.1141,-44.5001 66.1141,-48 76.114,-51.5001 76.1141,-44.5001"/>
</g>
<!-- Node4 -->
<g id="node4" class="node"><title>Node4</title>
<g id="a_node4"><a xlink:href="../../d5/d42/rlezoom_8c.html#a93e7f36e1343b502769244ac9789c0ff" target="_top" xlink:title="integer_zoom">
<polygon fill="white" stroke="black" points="103.5,-0.5 103.5,-19.5 184.5,-19.5 184.5,-0.5 103.5,-0.5"/>
<text text-anchor="middle" x="144" y="-7.5" font-family="Helvetica,sans-Serif" font-size="10.00">integer_zoom</text>
</a>
</g>
</g>
<!-- Node1&#45;&gt;Node4 -->
<g id="edge3" class="edge"><title>Node1&#45;&gt;Node4</title>
<path fill="none" stroke="midnightblue" d="M71.2085,-35.0282C85.7303,-29.9656 102.079,-24.2659 115.503,-19.5859"/>
<polygon fill="midnightblue" stroke="midnightblue" points="69.7957,-31.8141 61.5053,-38.411 72.1001,-38.4239 69.7957,-31.8141"/>
</g>
</g>
</svg>
