<?xml version="1.0" encoding="UTF-8" standalone="no"?>
<!DOCTYPE svg PUBLIC "-//W3C//DTD SVG 1.1//EN"
 "http://www.w3.org/Graphics/SVG/1.1/DTD/svg11.dtd">
<!-- Generated by graphviz version 2.38.0 (20140413.2041)
 -->
<!-- Title: center_image Pages: 1 -->
<svg width="328pt" height="66pt"
 viewBox="0.00 0.00 328.00 66.00" xmlns="http://www.w3.org/2000/svg" xmlns:xlink="http://www.w3.org/1999/xlink">
<g id="graph0" class="graph" transform="scale(1 1) rotate(0) translate(4 62)">
<title>center_image</title>
<polygon fill="white" stroke="none" points="-4,4 -4,-62 324,-62 324,4 -4,4"/>
<!-- Node1 -->
<g id="node1" class="node"><title>Node1</title>
<polygon fill="#bfbfbf" stroke="black" points="0,-19.5 0,-38.5 81,-38.5 81,-19.5 0,-19.5"/>
<text text-anchor="middle" x="40.5" y="-26.5" font-family="Helvetica,sans-Serif" font-size="10.00">center_image</text>
</g>
<!-- Node2 -->
<g id="node2" class="node"><title>Node2</title>
<g id="a_node2"><a xlink:href="../../dc/d21/rletocgm_8c.html#a243dc5135972069e1dc4456356c8b498" target="_top" xlink:title="process_indexed_page">
<polygon fill="white" stroke="black" points="117,-38.5 117,-57.5 245,-57.5 245,-38.5 117,-38.5"/>
<text text-anchor="middle" x="181" y="-45.5" font-family="Helvetica,sans-Serif" font-size="10.00">process_indexed_page</text>
</a>
</g>
</g>
<!-- Node1&#45;&gt;Node2 -->
<g id="edge1" class="edge"><title>Node1&#45;&gt;Node2</title>
<path fill="none" stroke="midnightblue" d="M91.1009,-35.8045C99.4248,-36.9464 108.162,-38.1449 116.773,-39.3263"/>
<polygon fill="midnightblue" stroke="midnightblue" points="91.5715,-32.3363 81.1885,-34.4446 90.62,-39.2714 91.5715,-32.3363"/>
</g>
<!-- Node4 -->
<g id="node4" class="node"><title>Node4</title>
<g id="a_node4"><a xlink:href="../../dc/d21/rletocgm_8c.html#a2aa020f076ba227eadc417c63ef8c5fa" target="_top" xlink:title="process_direct_page">
<polygon fill="white" stroke="black" points="123,-0.5 123,-19.5 239,-19.5 239,-0.5 123,-0.5"/>
<text text-anchor="middle" x="181" y="-7.5" font-family="Helvetica,sans-Serif" font-size="10.00">process_direct_page</text>
</a>
</g>
</g>
<!-- Node1&#45;&gt;Node4 -->
<g id="edge3" class="edge"><title>Node1&#45;&gt;Node4</title>
<path fill="none" stroke="midnightblue" d="M91.1819,-22.1844C101.419,-20.78 112.279,-19.2903 122.759,-17.8525"/>
<polygon fill="midnightblue" stroke="midnightblue" points="90.62,-18.7286 81.1885,-23.5554 91.5715,-25.6637 90.62,-18.7286"/>
</g>
<!-- Node3 -->
<g id="node3" class="node"><title>Node3</title>
<g id="a_node3"><a xlink:href="../../dc/d21/rletocgm_8c.html#a5ea466849f21e6c2be4ef9b2eb8868d3" target="_top" xlink:title="main">
<polygon fill="white" stroke="black" points="281,-19.5 281,-38.5 320,-38.5 320,-19.5 281,-19.5"/>
<text text-anchor="middle" x="300.5" y="-26.5" font-family="Helvetica,sans-Serif" font-size="10.00">main</text>
</a>
</g>
</g>
<!-- Node2&#45;&gt;Node3 -->
<g id="edge2" class="edge"><title>Node2&#45;&gt;Node3</title>
<path fill="none" stroke="midnightblue" d="M251.171,-36.8149C262.042,-35.0571 272.42,-33.3788 280.754,-32.0313"/>
<polygon fill="midnightblue" stroke="midnightblue" points="250.407,-33.3928 241.094,-38.4443 251.525,-40.3031 250.407,-33.3928"/>
</g>
<!-- Node4&#45;&gt;Node3 -->
<g id="edge4" class="edge"><title>Node4&#45;&gt;Node3</title>
<path fill="none" stroke="midnightblue" d="M248.909,-20.8193C260.597,-22.7094 271.847,-24.5284 280.757,-25.9692"/>
<polygon fill="midnightblue" stroke="midnightblue" points="249.46,-17.363 239.029,-19.2217 248.342,-24.2732 249.46,-17.363"/>
</g>
</g>
</svg>
