<?xml version="1.0" encoding="UTF-8" standalone="no"?>
<!DOCTYPE svg PUBLIC "-//W3C//DTD SVG 1.1//EN"
 "http://www.w3.org/Graphics/SVG/1.1/DTD/svg11.dtd">
<!-- Generated by graphviz version 2.38.0 (20140413.2041)
 -->
<!-- Title: end_page Pages: 1 -->
<svg width="312pt" height="66pt"
 viewBox="0.00 0.00 312.00 66.00" xmlns="http://www.w3.org/2000/svg" xmlns:xlink="http://www.w3.org/1999/xlink">
<g id="graph0" class="graph" transform="scale(1 1) rotate(0) translate(4 62)">
<title>end_page</title>
<polygon fill="white" stroke="none" points="-4,4 -4,-62 308,-62 308,4 -4,4"/>
<!-- Node1 -->
<g id="node1" class="node"><title>Node1</title>
<polygon fill="#bfbfbf" stroke="black" points="0,-19.5 0,-38.5 65,-38.5 65,-19.5 0,-19.5"/>
<text text-anchor="middle" x="32.5" y="-26.5" font-family="Helvetica,sans-Serif" font-size="10.00">end_page</text>
</g>
<!-- Node2 -->
<g id="node2" class="node"><title>Node2</title>
<g id="a_node2"><a xlink:href="../../dc/d21/rletocgm_8c.html#a243dc5135972069e1dc4456356c8b498" target="_top" xlink:title="process_indexed_page">
<polygon fill="white" stroke="black" points="101,-38.5 101,-57.5 229,-57.5 229,-38.5 101,-38.5"/>
<text text-anchor="middle" x="165" y="-45.5" font-family="Helvetica,sans-Serif" font-size="10.00">process_indexed_page</text>
</a>
</g>
</g>
<!-- Node1&#45;&gt;Node2 -->
<g id="edge1" class="edge"><title>Node1&#45;&gt;Node2</title>
<path fill="none" stroke="midnightblue" d="M75.1702,-35.0669C83.4103,-36.2666 92.2301,-37.5507 100.996,-38.827"/>
<polygon fill="midnightblue" stroke="midnightblue" points="75.4904,-31.5767 65.0904,-33.5994 74.4818,-38.5037 75.4904,-31.5767"/>
</g>
<!-- Node4 -->
<g id="node4" class="node"><title>Node4</title>
<g id="a_node4"><a xlink:href="../../dc/d21/rletocgm_8c.html#a2aa020f076ba227eadc417c63ef8c5fa" target="_top" xlink:title="process_direct_page">
<polygon fill="white" stroke="black" points="107,-0.5 107,-19.5 223,-19.5 223,-0.5 107,-0.5"/>
<text text-anchor="middle" x="165" y="-7.5" font-family="Helvetica,sans-Serif" font-size="10.00">process_direct_page</text>
</a>
</g>
</g>
<!-- Node1&#45;&gt;Node4 -->
<g id="edge3" class="edge"><title>Node1&#45;&gt;Node4</title>
<path fill="none" stroke="midnightblue" d="M75.2446,-22.9222C85.336,-21.453 96.2932,-19.8577 106.954,-18.3056"/>
<polygon fill="midnightblue" stroke="midnightblue" points="74.4818,-19.4963 65.0904,-24.4006 75.4904,-26.4233 74.4818,-19.4963"/>
</g>
<!-- Node3 -->
<g id="node3" class="node"><title>Node3</title>
<g id="a_node3"><a xlink:href="../../dc/d21/rletocgm_8c.html#a5ea466849f21e6c2be4ef9b2eb8868d3" target="_top" xlink:title="main">
<polygon fill="white" stroke="black" points="265,-19.5 265,-38.5 304,-38.5 304,-19.5 265,-19.5"/>
<text text-anchor="middle" x="284.5" y="-26.5" font-family="Helvetica,sans-Serif" font-size="10.00">main</text>
</a>
</g>
</g>
<!-- Node2&#45;&gt;Node3 -->
<g id="edge2" class="edge"><title>Node2&#45;&gt;Node3</title>
<path fill="none" stroke="midnightblue" d="M235.171,-36.8149C246.042,-35.0571 256.42,-33.3788 264.754,-32.0313"/>
<polygon fill="midnightblue" stroke="midnightblue" points="234.407,-33.3928 225.094,-38.4443 235.525,-40.3031 234.407,-33.3928"/>
</g>
<!-- Node4&#45;&gt;Node3 -->
<g id="edge4" class="edge"><title>Node4&#45;&gt;Node3</title>
<path fill="none" stroke="midnightblue" d="M232.909,-20.8193C244.597,-22.7094 255.847,-24.5284 264.757,-25.9692"/>
<polygon fill="midnightblue" stroke="midnightblue" points="233.46,-17.363 223.029,-19.2217 232.342,-24.2732 233.46,-17.363"/>
</g>
</g>
</svg>
