<?xml version="1.0" encoding="UTF-8" standalone="no"?>
<!DOCTYPE svg PUBLIC "-//W3C//DTD SVG 1.1//EN"
 "http://www.w3.org/Graphics/SVG/1.1/DTD/svg11.dtd">
<!-- Generated by graphviz version 2.38.0 (20140413.2041)
 -->
<!-- Title: handle_color_table Pages: 1 -->
<svg width="506pt" height="28pt"
 viewBox="0.00 0.00 506.00 28.00" xmlns="http://www.w3.org/2000/svg" xmlns:xlink="http://www.w3.org/1999/xlink">
<g id="graph0" class="graph" transform="scale(1 1) rotate(0) translate(4 24)">
<title>handle_color_table</title>
<polygon fill="white" stroke="none" points="-4,4 -4,-24 502,-24 502,4 -4,4"/>
<!-- Node1 -->
<g id="node1" class="node"><title>Node1</title>
<polygon fill="#bfbfbf" stroke="black" points="0,-0.5 0,-19.5 107,-19.5 107,-0.5 0,-0.5"/>
<text text-anchor="middle" x="53.5" y="-7.5" font-family="Helvetica,sans-Serif" font-size="10.00">handle_color_table</text>
</g>
<!-- Node2 -->
<g id="node2" class="node"><title>Node2</title>
<g id="a_node2"><a xlink:href="../../dc/d21/rletocgm_8c.html#add2c9fcd5032fc850935ccd2d9d9ec87" target="_top" xlink:title="begin_indexed_page">
<polygon fill="white" stroke="black" points="143,-0.5 143,-19.5 259,-19.5 259,-0.5 143,-0.5"/>
<text text-anchor="middle" x="201" y="-7.5" font-family="Helvetica,sans-Serif" font-size="10.00">begin_indexed_page</text>
</a>
</g>
</g>
<!-- Node1&#45;&gt;Node2 -->
<g id="edge1" class="edge"><title>Node1&#45;&gt;Node2</title>
<path fill="none" stroke="midnightblue" d="M117.207,-10C125.651,-10 134.279,-10 142.625,-10"/>
<polygon fill="midnightblue" stroke="midnightblue" points="117.029,-6.5001 107.029,-10 117.029,-13.5001 117.029,-6.5001"/>
</g>
<!-- Node3 -->
<g id="node3" class="node"><title>Node3</title>
<g id="a_node3"><a xlink:href="../../dc/d21/rletocgm_8c.html#a243dc5135972069e1dc4456356c8b498" target="_top" xlink:title="process_indexed_page">
<polygon fill="white" stroke="black" points="295,-0.5 295,-19.5 423,-19.5 423,-0.5 295,-0.5"/>
<text text-anchor="middle" x="359" y="-7.5" font-family="Helvetica,sans-Serif" font-size="10.00">process_indexed_page</text>
</a>
</g>
</g>
<!-- Node2&#45;&gt;Node3 -->
<g id="edge2" class="edge"><title>Node2&#45;&gt;Node3</title>
<path fill="none" stroke="midnightblue" d="M269.37,-10C277.796,-10 286.391,-10 294.751,-10"/>
<polygon fill="midnightblue" stroke="midnightblue" points="269.203,-6.5001 259.203,-10 269.203,-13.5001 269.203,-6.5001"/>
</g>
<!-- Node4 -->
<g id="node4" class="node"><title>Node4</title>
<g id="a_node4"><a xlink:href="../../dc/d21/rletocgm_8c.html#a5ea466849f21e6c2be4ef9b2eb8868d3" target="_top" xlink:title="main">
<polygon fill="white" stroke="black" points="459,-0.5 459,-19.5 498,-19.5 498,-0.5 459,-0.5"/>
<text text-anchor="middle" x="478.5" y="-7.5" font-family="Helvetica,sans-Serif" font-size="10.00">main</text>
</a>
</g>
</g>
<!-- Node3&#45;&gt;Node4 -->
<g id="edge3" class="edge"><title>Node3&#45;&gt;Node4</title>
<path fill="none" stroke="midnightblue" d="M433.499,-10C442.823,-10 451.618,-10 458.857,-10"/>
<polygon fill="midnightblue" stroke="midnightblue" points="433.221,-6.5001 423.221,-10 433.221,-13.5001 433.221,-6.5001"/>
</g>
</g>
</svg>
