<?xml version="1.0" encoding="UTF-8" standalone="no"?>
<!DOCTYPE svg PUBLIC "-//W3C//DTD SVG 1.1//EN"
 "http://www.w3.org/Graphics/SVG/1.1/DTD/svg11.dtd">
<!-- Generated by graphviz version 2.38.0 (20140413.2041)
 -->
<!-- Title: begin_indexed_page Pages: 1 -->
<svg width="453pt" height="104pt"
 viewBox="0.00 0.00 453.00 104.00" xmlns="http://www.w3.org/2000/svg" xmlns:xlink="http://www.w3.org/1999/xlink">
<g id="graph0" class="graph" transform="scale(1 1) rotate(0) translate(4 100)">
<title>begin_indexed_page</title>
<polygon fill="white" stroke="none" points="-4,4 -4,-100 449,-100 449,4 -4,4"/>
<!-- Node1 -->
<g id="node1" class="node"><title>Node1</title>
<polygon fill="#bfbfbf" stroke="black" points="0,-38.5 0,-57.5 116,-57.5 116,-38.5 0,-38.5"/>
<text text-anchor="middle" x="58" y="-45.5" font-family="Helvetica,sans-Serif" font-size="10.00">begin_indexed_page</text>
</g>
<!-- Node2 -->
<g id="node2" class="node"><title>Node2</title>
<g id="a_node2"><a xlink:href="../../dc/d11/getami_8c.html#a8f31580e06aae736fd6f1ed3c414ed94" target="_top" xlink:title="buildmap">
<polygon fill="white" stroke="black" points="176.5,-76.5 176.5,-95.5 234.5,-95.5 234.5,-76.5 176.5,-76.5"/>
<text text-anchor="middle" x="205.5" y="-83.5" font-family="Helvetica,sans-Serif" font-size="10.00">buildmap</text>
</a>
</g>
</g>
<!-- Node1&#45;&gt;Node2 -->
<g id="edge1" class="edge"><title>Node1&#45;&gt;Node2</title>
<path fill="none" stroke="midnightblue" d="M95.7158,-57.589C117.228,-63.2073 144.364,-70.2943 166.152,-75.9846"/>
<polygon fill="midnightblue" stroke="midnightblue" points="165.498,-79.4311 176.057,-78.5717 167.266,-72.6583 165.498,-79.4311"/>
</g>
<!-- Node3 -->
<g id="node3" class="node"><title>Node3</title>
<g id="a_node3"><a xlink:href="../../dc/d21/rletocgm_8c.html#a03091eb1bcb91a053a4122b381aed501" target="_top" xlink:title="handle_color_table">
<polygon fill="white" stroke="black" points="152,-38.5 152,-57.5 259,-57.5 259,-38.5 152,-38.5"/>
<text text-anchor="middle" x="205.5" y="-45.5" font-family="Helvetica,sans-Serif" font-size="10.00">handle_color_table</text>
</a>
</g>
</g>
<!-- Node1&#45;&gt;Node3 -->
<g id="edge2" class="edge"><title>Node1&#45;&gt;Node3</title>
<path fill="none" stroke="midnightblue" d="M116.088,-48C124.465,-48 133.133,-48 141.618,-48"/>
<polygon fill="midnightblue" stroke="midnightblue" points="141.846,-51.5001 151.846,-48 141.846,-44.5001 141.846,-51.5001"/>
</g>
<!-- Node7 -->
<g id="node7" class="node"><title>Node7</title>
<g id="a_node7"><a xlink:href="../../d0/dcc/rletorla_8c.html#aafde19f7d36ca163a143579c1b125b6d" target="_top" xlink:title="free">
<polygon fill="white" stroke="black" points="312,-0.5 312,-19.5 347,-19.5 347,-0.5 312,-0.5"/>
<text text-anchor="middle" x="329.5" y="-7.5" font-family="Helvetica,sans-Serif" font-size="10.00">free</text>
</a>
</g>
</g>
<!-- Node1&#45;&gt;Node7 -->
<g id="edge7" class="edge"><title>Node1&#45;&gt;Node7</title>
<path fill="none" stroke="midnightblue" d="M101.442,-38.4513C117.253,-35.126 135.391,-31.5847 152,-29 204.76,-20.7896 266.945,-14.9901 301.635,-12.0986"/>
<polygon fill="midnightblue" stroke="midnightblue" points="302.203,-15.5641 311.885,-11.2627 301.633,-8.58723 302.203,-15.5641"/>
</g>
<!-- Node4 -->
<g id="node4" class="node"><title>Node4</title>
<g id="a_node4"><a xlink:href="../../db/db2/rle__getcom_8c.html#a9cefd612c381bf82c9cdf1f3a3b12dd6" target="_top" xlink:title="rle_getcom">
<polygon fill="white" stroke="black" points="295,-76.5 295,-95.5 364,-95.5 364,-76.5 295,-76.5"/>
<text text-anchor="middle" x="329.5" y="-83.5" font-family="Helvetica,sans-Serif" font-size="10.00">rle_getcom</text>
</a>
</g>
</g>
<!-- Node3&#45;&gt;Node4 -->
<g id="edge3" class="edge"><title>Node3&#45;&gt;Node4</title>
<path fill="none" stroke="midnightblue" d="M237.286,-57.589C252.601,-62.3594 271.317,-68.1888 287.8,-73.3229"/>
<polygon fill="midnightblue" stroke="midnightblue" points="287.136,-76.7818 297.724,-76.4141 289.217,-70.0985 287.136,-76.7818"/>
</g>
<!-- Node6 -->
<g id="node6" class="node"><title>Node6</title>
<g id="a_node6"><a xlink:href="../../d0/dcc/rletorla_8c.html#ab7e36af3707843f77cc5b4e831c2fa6d" target="_top" xlink:title="malloc">
<polygon fill="white" stroke="black" points="306,-38.5 306,-57.5 353,-57.5 353,-38.5 306,-38.5"/>
<text text-anchor="middle" x="329.5" y="-45.5" font-family="Helvetica,sans-Serif" font-size="10.00">malloc</text>
</a>
</g>
</g>
<!-- Node3&#45;&gt;Node6 -->
<g id="edge5" class="edge"><title>Node3&#45;&gt;Node6</title>
<path fill="none" stroke="midnightblue" d="M259.301,-48C271.697,-48 284.553,-48 295.771,-48"/>
<polygon fill="midnightblue" stroke="midnightblue" points="295.956,-51.5001 305.956,-48 295.956,-44.5001 295.956,-51.5001"/>
</g>
<!-- Node3&#45;&gt;Node7 -->
<g id="edge6" class="edge"><title>Node3&#45;&gt;Node7</title>
<path fill="none" stroke="midnightblue" d="M237.286,-38.411C257.39,-32.1489 283.353,-24.0622 302.435,-18.1185"/>
<polygon fill="midnightblue" stroke="midnightblue" points="303.476,-21.4602 311.983,-15.1446 301.395,-14.7769 303.476,-21.4602"/>
</g>
<!-- Node5 -->
<g id="node5" class="node"><title>Node5</title>
<g id="a_node5"><a xlink:href="../../db/db2/rle__getcom_8c.html#a7502c8b599724ce86fee5df1311a2337" target="_top" xlink:title="match">
<polygon fill="white" stroke="black" points="400,-76.5 400,-95.5 445,-95.5 445,-76.5 400,-76.5"/>
<text text-anchor="middle" x="422.5" y="-83.5" font-family="Helvetica,sans-Serif" font-size="10.00">match</text>
</a>
</g>
</g>
<!-- Node4&#45;&gt;Node5 -->
<g id="edge4" class="edge"><title>Node4&#45;&gt;Node5</title>
<path fill="none" stroke="midnightblue" d="M364.126,-86C372.528,-86 381.51,-86 389.814,-86"/>
<polygon fill="midnightblue" stroke="midnightblue" points="389.875,-89.5001 399.875,-86 389.875,-82.5001 389.875,-89.5001"/>
</g>
</g>
</svg>
