<?xml version="1.0" encoding="UTF-8" standalone="no"?>
<!DOCTYPE svg PUBLIC "-//W3C//DTD SVG 1.1//EN"
 "http://www.w3.org/Graphics/SVG/1.1/DTD/svg11.dtd">
<!-- Generated by graphviz version 2.38.0 (20140413.2041)
 -->
<!-- Title: RLB_HEADER Pages: 1 -->
<svg width="386pt" height="406pt"
 viewBox="0.00 0.00 385.53 406.00" xmlns="http://www.w3.org/2000/svg" xmlns:xlink="http://www.w3.org/1999/xlink">
<g id="graph0" class="graph" transform="scale(1 1) rotate(0) translate(4 402)">
<title>RLB_HEADER</title>
<polygon fill="white" stroke="none" points="-4,4 -4,-402 381.535,-402 381.535,4 -4,4"/>
<!-- Node1 -->
<g id="node1" class="node"><title>Node1</title>
<polygon fill="#bfbfbf" stroke="black" points="87.535,-0.5 87.535,-19.5 173.535,-19.5 173.535,-0.5 87.535,-0.5"/>
<text text-anchor="middle" x="130.535" y="-7.5" font-family="Helvetica,sans-Serif" font-size="10.00">RLB_HEADER</text>
</g>
<!-- Node2 -->
<g id="node2" class="node"><title>Node2</title>
<polygon fill="white" stroke="#bfbfbf" points="4.53499,-228 4.53499,-247 42.535,-247 42.535,-228 4.53499,-228"/>
<text text-anchor="middle" x="23.535" y="-235" font-family="Helvetica,sans-Serif" font-size="10.00">char</text>
</g>
<!-- Node2&#45;&gt;Node1 -->
<g id="edge1" class="edge"><title>Node2&#45;&gt;Node1</title>
<path fill="none" stroke="#9a32cd" stroke-dasharray="5,2" d="M16.9332,-218.018C4.58687,-179.841 -17.1757,-91.3888 24.535,-38 32.4559,-27.8613 61.6883,-20.8912 87.4528,-16.5758"/>
<polygon fill="#9a32cd" stroke="#9a32cd" points="13.7154,-219.428 20.2441,-227.772 20.344,-217.178 13.7154,-219.428"/>
<text text-anchor="middle" x="54.035" y="-151" font-family="Helvetica,sans-Serif" font-size="10.00"> space</text>
<text text-anchor="middle" x="54.035" y="-140" font-family="Helvetica,sans-Serif" font-size="10.00">chan</text>
<text text-anchor="middle" x="54.035" y="-129" font-family="Helvetica,sans-Serif" font-size="10.00">gamma</text>
<text text-anchor="middle" x="54.035" y="-118" font-family="Helvetica,sans-Serif" font-size="10.00">desc</text>
<text text-anchor="middle" x="54.035" y="-107" font-family="Helvetica,sans-Serif" font-size="10.00">red_pri</text>
<text text-anchor="middle" x="54.035" y="-96" font-family="Helvetica,sans-Serif" font-size="10.00">aspect_ratio</text>
<text text-anchor="middle" x="54.035" y="-85" font-family="Helvetica,sans-Serif" font-size="10.00">green_pri</text>
<text text-anchor="middle" x="54.035" y="-74" font-family="Helvetica,sans-Serif" font-size="10.00">blue_pri</text>
<text text-anchor="middle" x="54.035" y="-63" font-family="Helvetica,sans-Serif" font-size="10.00">aspect</text>
<text text-anchor="middle" x="54.035" y="-52" font-family="Helvetica,sans-Serif" font-size="10.00">machine</text>
<text text-anchor="middle" x="54.035" y="-41" font-family="Helvetica,sans-Serif" font-size="10.00">...</text>
</g>
<!-- Node3 -->
<g id="node3" class="node"><title>Node3</title>
<polygon fill="white" stroke="#bfbfbf" points="115.035,-378.5 115.035,-397.5 156.035,-397.5 156.035,-378.5 115.035,-378.5"/>
<text text-anchor="middle" x="135.535" y="-385.5" font-family="Helvetica,sans-Serif" font-size="10.00">short</text>
</g>
<!-- Node3&#45;&gt;Node1 -->
<g id="edge2" class="edge"><title>Node3&#45;&gt;Node1</title>
<path fill="none" stroke="#9a32cd" stroke-dasharray="5,2" d="M127.721,-368.786C120.581,-351.085 110.546,-323.253 106.535,-298 89.2033,-188.867 119.682,-54.2709 128.34,-19.5072"/>
<polygon fill="#9a32cd" stroke="#9a32cd" points="124.641,-370.494 131.712,-378.384 131.104,-367.807 124.641,-370.494"/>
<text text-anchor="middle" x="138.035" y="-290" font-family="Helvetica,sans-Serif" font-size="10.00"> padding</text>
<text text-anchor="middle" x="138.035" y="-279" font-family="Helvetica,sans-Serif" font-size="10.00">encode_type</text>
<text text-anchor="middle" x="138.035" y="-268" font-family="Helvetica,sans-Serif" font-size="10.00">lut_type</text>
<text text-anchor="middle" x="138.035" y="-257" font-family="Helvetica,sans-Serif" font-size="10.00">storage_type</text>
<text text-anchor="middle" x="138.035" y="-246" font-family="Helvetica,sans-Serif" font-size="10.00">filter_type</text>
<text text-anchor="middle" x="138.035" y="-235" font-family="Helvetica,sans-Serif" font-size="10.00">field</text>
<text text-anchor="middle" x="138.035" y="-224" font-family="Helvetica,sans-Serif" font-size="10.00">mix_type</text>
<text text-anchor="middle" x="138.035" y="-213" font-family="Helvetica,sans-Serif" font-size="10.00">aux_mask</text>
<text text-anchor="middle" x="138.035" y="-202" font-family="Helvetica,sans-Serif" font-size="10.00">num_chan</text>
<text text-anchor="middle" x="138.035" y="-191" font-family="Helvetica,sans-Serif" font-size="10.00">frame</text>
<text text-anchor="middle" x="138.035" y="-180" font-family="Helvetica,sans-Serif" font-size="10.00">...</text>
</g>
<!-- Node5 -->
<g id="node5" class="node"><title>Node5</title>
<g id="a_node5"><a xlink:href="../../d3/df0/structWINDOW__S.html" target="_top" xlink:title="WINDOW_S">
<polygon fill="white" stroke="black" points="179.035,-228 179.035,-247 254.035,-247 254.035,-228 179.035,-228"/>
<text text-anchor="middle" x="216.535" y="-235" font-family="Helvetica,sans-Serif" font-size="10.00">WINDOW_S</text>
</a>
</g>
</g>
<!-- Node3&#45;&gt;Node5 -->
<g id="edge5" class="edge"><title>Node3&#45;&gt;Node5</title>
<path fill="none" stroke="#9a32cd" stroke-dasharray="5,2" d="M145.347,-369.011C162.881,-336.866 198.958,-270.725 211.837,-247.112"/>
<polygon fill="#9a32cd" stroke="#9a32cd" points="142.075,-367.7 140.359,-378.155 148.221,-371.052 142.075,-367.7"/>
<text text-anchor="middle" x="190.535" y="-352" font-family="Helvetica,sans-Serif" font-size="10.00"> right</text>
<text text-anchor="middle" x="190.535" y="-341" font-family="Helvetica,sans-Serif" font-size="10.00">left</text>
<text text-anchor="middle" x="190.535" y="-330" font-family="Helvetica,sans-Serif" font-size="10.00">bottom</text>
<text text-anchor="middle" x="190.535" y="-319" font-family="Helvetica,sans-Serif" font-size="10.00">top</text>
</g>
<!-- Node4 -->
<g id="node4" class="node"><title>Node4</title>
<polygon fill="white" stroke="#bfbfbf" points="272.035,-228 272.035,-247 309.035,-247 309.035,-228 272.035,-228"/>
<text text-anchor="middle" x="290.535" y="-235" font-family="Helvetica,sans-Serif" font-size="10.00">long</text>
</g>
<!-- Node4&#45;&gt;Node1 -->
<g id="edge3" class="edge"><title>Node4&#45;&gt;Node1</title>
<path fill="none" stroke="#9a32cd" stroke-dasharray="5,2" d="M293.964,-217.974C300.018,-178.995 307.858,-87.9895 260.535,-38 248.769,-25.5706 206.909,-18.476 173.829,-14.7094"/>
<polygon fill="#9a32cd" stroke="#9a32cd" points="290.501,-217.462 292.279,-227.907 297.403,-218.634 290.501,-217.462"/>
<text text-anchor="middle" x="337.535" y="-118" font-family="Helvetica,sans-Serif" font-size="10.00"> magic_number</text>
<text text-anchor="middle" x="337.535" y="-107" font-family="Helvetica,sans-Serif" font-size="10.00">job_num</text>
<text text-anchor="middle" x="337.535" y="-96" font-family="Helvetica,sans-Serif" font-size="10.00">wf_space_size</text>
<text text-anchor="middle" x="337.535" y="-85" font-family="Helvetica,sans-Serif" font-size="10.00">lut_size</text>
<text text-anchor="middle" x="337.535" y="-74" font-family="Helvetica,sans-Serif" font-size="10.00">user_space_size</text>
</g>
<!-- Node5&#45;&gt;Node1 -->
<g id="edge4" class="edge"><title>Node5&#45;&gt;Node1</title>
<path fill="none" stroke="#9a32cd" stroke-dasharray="5,2" d="M209.629,-218.393C192.108,-172.451 146.422,-52.6566 133.805,-19.5731"/>
<polygon fill="#9a32cd" stroke="#9a32cd" points="206.435,-219.839 213.269,-227.935 212.975,-217.345 206.435,-219.839"/>
<text text-anchor="middle" x="221.535" y="-101.5" font-family="Helvetica,sans-Serif" font-size="10.00"> window</text>
<text text-anchor="middle" x="221.535" y="-90.5" font-family="Helvetica,sans-Serif" font-size="10.00">active_window</text>
</g>
</g>
</svg>
