<?xml version="1.0" encoding="UTF-8" standalone="no"?>
<!DOCTYPE svg PUBLIC "-//W3C//DTD SVG 1.1//EN"
 "http://www.w3.org/Graphics/SVG/1.1/DTD/svg11.dtd">
<!-- Generated by graphviz version 2.38.0 (20140413.2041)
 -->
<!-- Title: rletoppm.c Pages: 1 -->
<svg width="173pt" height="84pt"
 viewBox="0.00 0.00 173.00 84.00" xmlns="http://www.w3.org/2000/svg" xmlns:xlink="http://www.w3.org/1999/xlink">
<g id="graph0" class="graph" transform="scale(1 1) rotate(0) translate(4 80)">
<title>rletoppm.c</title>
<polygon fill="white" stroke="none" points="-4,4 -4,-80 169,-80 169,4 -4,4"/>
<!-- Node1 -->
<g id="node1" class="node"><title>Node1</title>
<polygon fill="#bfbfbf" stroke="black" points="45,-56.5 45,-75.5 110,-75.5 110,-56.5 45,-56.5"/>
<text text-anchor="middle" x="77.5" y="-63.5" font-family="Helvetica,sans-Serif" font-size="10.00">rletoppm.c</text>
</g>
<!-- Node2 -->
<g id="node2" class="node"><title>Node2</title>
<polygon fill="white" stroke="#bfbfbf" points="0,-0.5 0,-19.5 37,-19.5 37,-0.5 0,-0.5"/>
<text text-anchor="middle" x="18.5" y="-7.5" font-family="Helvetica,sans-Serif" font-size="10.00">rle.h</text>
</g>
<!-- Node1&#45;&gt;Node2 -->
<g id="edge1" class="edge"><title>Node1&#45;&gt;Node2</title>
<path fill="none" stroke="midnightblue" d="M68.0206,-56.324C59.2989,-48.3414 46.1565,-36.3128 35.6022,-26.6529"/>
<polygon fill="midnightblue" stroke="midnightblue" points="37.8917,-24.0036 28.1519,-19.8339 33.1655,-29.1674 37.8917,-24.0036"/>
</g>
<!-- Node3 -->
<g id="node3" class="node"><title>Node3</title>
<polygon fill="white" stroke="#bfbfbf" points="55,-0.5 55,-19.5 100,-19.5 100,-0.5 55,-0.5"/>
<text text-anchor="middle" x="77.5" y="-7.5" font-family="Helvetica,sans-Serif" font-size="10.00">ppm.h</text>
</g>
<!-- Node1&#45;&gt;Node3 -->
<g id="edge2" class="edge"><title>Node1&#45;&gt;Node3</title>
<path fill="none" stroke="midnightblue" d="M77.5,-56.083C77.5,-49.0059 77.5,-38.8611 77.5,-29.9865"/>
<polygon fill="midnightblue" stroke="midnightblue" points="81.0001,-29.751 77.5,-19.7511 74.0001,-29.7511 81.0001,-29.751"/>
</g>
<!-- Node4 -->
<g id="node4" class="node"><title>Node4</title>
<polygon fill="white" stroke="#bfbfbf" points="118,-0.5 118,-19.5 165,-19.5 165,-0.5 118,-0.5"/>
<text text-anchor="middle" x="141.5" y="-7.5" font-family="Helvetica,sans-Serif" font-size="10.00">stdio.h</text>
</g>
<!-- Node1&#45;&gt;Node4 -->
<g id="edge3" class="edge"><title>Node1&#45;&gt;Node4</title>
<path fill="none" stroke="midnightblue" d="M87.7827,-56.324C97.3363,-48.2631 111.78,-36.0765 123.284,-26.3695"/>
<polygon fill="midnightblue" stroke="midnightblue" points="125.644,-28.9577 131.03,-19.8339 121.13,-23.6076 125.644,-28.9577"/>
</g>
</g>
</svg>
