<?xml version="1.0" encoding="UTF-8" standalone="no"?>
<!DOCTYPE svg PUBLIC "-//W3C//DTD SVG 1.1//EN"
 "http://www.w3.org/Graphics/SVG/1.1/DTD/svg11.dtd">
<!-- Generated by graphviz version 2.38.0 (20140413.2041)
 -->
<!-- Title: str_table_node Pages: 1 -->
<svg width="151pt" height="197pt"
 viewBox="0.00 0.00 151.00 197.00" xmlns="http://www.w3.org/2000/svg" xmlns:xlink="http://www.w3.org/1999/xlink">
<g id="graph0" class="graph" transform="scale(1 1) rotate(0) translate(4 193)">
<title>str_table_node</title>
<polygon fill="white" stroke="none" points="-4,4 -4,-193 147,-193 147,4 -4,4"/>
<!-- Node1 -->
<g id="node1" class="node"><title>Node1</title>
<polygon fill="#bfbfbf" stroke="black" points="0,-7 0,-26 87,-26 87,-7 0,-7"/>
<text text-anchor="middle" x="43.5" y="-14" font-family="Helvetica,sans-Serif" font-size="10.00">str_table_node</text>
</g>
<!-- Node1&#45;&gt;Node1 -->
<g id="edge1" class="edge"><title>Node1&#45;&gt;Node1</title>
<path fill="none" stroke="#9a32cd" stroke-dasharray="5,2" d="M97.3202,-22.393C102.043,-21.1499 105,-19.1855 105,-16.5 105,-12.2031 97.4301,-9.75256 87.1694,-9.14832"/>
<polygon fill="#9a32cd" stroke="#9a32cd" points="96.5698,-18.9648 87.1694,-23.8517 97.5656,-25.8936 96.5698,-18.9648"/>
<text text-anchor="middle" x="124" y="-25" font-family="Helvetica,sans-Serif" font-size="10.00"> right</text>
<text text-anchor="middle" x="124" y="-14" font-family="Helvetica,sans-Serif" font-size="10.00">left</text>
<text text-anchor="middle" x="124" y="-3" font-family="Helvetica,sans-Serif" font-size="10.00">children</text>
</g>
<!-- Node2 -->
<g id="node2" class="node"><title>Node2</title>
<g id="a_node2"><a xlink:href="../../d2/dbe/structstr__table__entry.html" target="_top" xlink:title="str_table_entry">
<polygon fill="white" stroke="black" points="0,-80.5 0,-99.5 87,-99.5 87,-80.5 0,-80.5"/>
<text text-anchor="middle" x="43.5" y="-87.5" font-family="Helvetica,sans-Serif" font-size="10.00">str_table_entry</text>
</a>
</g>
</g>
<!-- Node2&#45;&gt;Node1 -->
<g id="edge2" class="edge"><title>Node2&#45;&gt;Node1</title>
<path fill="none" stroke="#9a32cd" stroke-dasharray="5,2" d="M43.5,-70.0936C43.5,-55.933 43.5,-37.2019 43.5,-26.339"/>
<polygon fill="#9a32cd" stroke="#9a32cd" points="40.0001,-70.2327 43.5,-80.2327 47.0001,-70.2327 40.0001,-70.2327"/>
<text text-anchor="middle" x="57.5" y="-54" font-family="Helvetica,sans-Serif" font-size="10.00"> entry</text>
</g>
<!-- Node3 -->
<g id="node3" class="node"><title>Node3</title>
<polygon fill="white" stroke="#bfbfbf" points="29,-169.5 29,-188.5 58,-188.5 58,-169.5 29,-169.5"/>
<text text-anchor="middle" x="43.5" y="-176.5" font-family="Helvetica,sans-Serif" font-size="10.00">int</text>
</g>
<!-- Node3&#45;&gt;Node2 -->
<g id="edge3" class="edge"><title>Node3&#45;&gt;Node2</title>
<path fill="none" stroke="#9a32cd" stroke-dasharray="5,2" d="M43.5,-159.195C43.5,-140.738 43.5,-113.412 43.5,-99.6249"/>
<polygon fill="#9a32cd" stroke="#9a32cd" points="40.0001,-159.34 43.5,-169.34 47.0001,-159.34 40.0001,-159.34"/>
<text text-anchor="middle" x="57.5" y="-143" font-family="Helvetica,sans-Serif" font-size="10.00"> suffix</text>
<text text-anchor="middle" x="57.5" y="-132" font-family="Helvetica,sans-Serif" font-size="10.00">prefix</text>
<text text-anchor="middle" x="57.5" y="-121" font-family="Helvetica,sans-Serif" font-size="10.00">code</text>
</g>
</g>
</svg>
