<?xml version="1.0" encoding="UTF-8" standalone="no"?>
<!DOCTYPE svg PUBLIC "-//W3C//DTD SVG 1.1//EN"
 "http://www.w3.org/Graphics/SVG/1.1/DTD/svg11.dtd">
<!-- Generated by graphviz version 2.38.0 (20140413.2041)
 -->
<!-- Title: main Pages: 1 -->
<svg width="661pt" height="636pt"
 viewBox="0.00 0.00 661.00 636.00" xmlns="http://www.w3.org/2000/svg" xmlns:xlink="http://www.w3.org/1999/xlink">
<g id="graph0" class="graph" transform="scale(1 1) rotate(0) translate(4 632)">
<title>main</title>
<polygon fill="white" stroke="none" points="-4,4 -4,-632 657,-632 657,4 -4,4"/>
<!-- Node1 -->
<g id="node1" class="node"><title>Node1</title>
<polygon fill="#bfbfbf" stroke="black" points="0,-247.5 0,-266.5 39,-266.5 39,-247.5 0,-247.5"/>
<text text-anchor="middle" x="19.5" y="-254.5" font-family="Helvetica,sans-Serif" font-size="10.00">main</text>
</g>
<!-- Node2 -->
<g id="node2" class="node"><title>Node2</title>
<g id="a_node2"><a xlink:href="../../d8/d30/cmd__name_8c.html#a271249070fdd12c176777c77d76f888f" target="_top" xlink:title="cmd_name">
<polygon fill="white" stroke="black" points="90,-608.5 90,-627.5 158,-627.5 158,-608.5 90,-608.5"/>
<text text-anchor="middle" x="124" y="-615.5" font-family="Helvetica,sans-Serif" font-size="10.00">cmd_name</text>
</a>
</g>
</g>
<!-- Node1&#45;&gt;Node2 -->
<g id="edge1" class="edge"><title>Node1&#45;&gt;Node2</title>
<path fill="none" stroke="midnightblue" d="M20.7851,-266.789C22.4321,-317.03 32.2114,-545.647 75,-599 76.6682,-601.08 78.5969,-602.933 80.703,-604.584"/>
<polygon fill="midnightblue" stroke="midnightblue" points="79.1764,-607.754 89.53,-610.002 82.838,-601.788 79.1764,-607.754"/>
</g>
<!-- Node3 -->
<g id="node3" class="node"><title>Node3</title>
<g id="a_node3"><a xlink:href="../../d4/db0/scanargs_8c.html#a7ea6d702c0484056c8504d6ce7fede08" target="_top" xlink:title="scanargs">
<polygon fill="white" stroke="black" points="94,-570.5 94,-589.5 154,-589.5 154,-570.5 94,-570.5"/>
<text text-anchor="middle" x="124" y="-577.5" font-family="Helvetica,sans-Serif" font-size="10.00">scanargs</text>
</a>
</g>
</g>
<!-- Node1&#45;&gt;Node3 -->
<g id="edge2" class="edge"><title>Node1&#45;&gt;Node3</title>
<path fill="none" stroke="midnightblue" d="M21.116,-266.695C24.2047,-312.663 39.294,-508.414 75,-556 77.7802,-559.705 81.291,-562.876 85.1437,-565.581"/>
<polygon fill="midnightblue" stroke="midnightblue" points="83.581,-568.723 93.9734,-570.784 87.1348,-562.692 83.581,-568.723"/>
</g>
<!-- Node5 -->
<g id="node5" class="node"><title>Node5</title>
<g id="a_node5"><a xlink:href="../../d2/df3/rle__hdr_8c.html#a8ba0e5b11d1e39ab7227f1686e676c86" target="_top" xlink:title="rle_hdr_init">
<polygon fill="white" stroke="black" points="216,-418.5 216,-437.5 286,-437.5 286,-418.5 216,-418.5"/>
<text text-anchor="middle" x="251" y="-425.5" font-family="Helvetica,sans-Serif" font-size="10.00">rle_hdr_init</text>
</a>
</g>
</g>
<!-- Node1&#45;&gt;Node5 -->
<g id="edge4" class="edge"><title>Node1&#45;&gt;Node5</title>
<path fill="none" stroke="midnightblue" d="M22.4471,-266.826C27.3032,-288.765 42.0111,-342.075 75,-371 111.831,-403.294 167.306,-417.351 205.888,-423.432"/>
<polygon fill="midnightblue" stroke="midnightblue" points="205.4,-426.898 215.801,-424.878 206.411,-419.971 205.4,-426.898"/>
</g>
<!-- Node7 -->
<g id="node7" class="node"><title>Node7</title>
<g id="a_node7"><a xlink:href="../../d0/dcc/rletorla_8c.html#aafde19f7d36ca163a143579c1b125b6d" target="_top" xlink:title="free">
<polygon fill="white" stroke="black" points="601.5,-418.5 601.5,-437.5 636.5,-437.5 636.5,-418.5 601.5,-418.5"/>
<text text-anchor="middle" x="619" y="-425.5" font-family="Helvetica,sans-Serif" font-size="10.00">free</text>
</a>
</g>
</g>
<!-- Node1&#45;&gt;Node7 -->
<g id="edge45" class="edge"><title>Node1&#45;&gt;Node7</title>
<path fill="none" stroke="midnightblue" d="M21.633,-266.588C25.112,-292.227 37.7634,-363.377 75,-407 132.735,-474.636 161.073,-504 250,-504 250,-504 250,-504 371,-504 450.561,-504 475.67,-515.865 549,-485 570.11,-476.115 589.787,-458.563 602.682,-445.272"/>
<polygon fill="midnightblue" stroke="midnightblue" points="605.52,-447.36 609.786,-437.662 600.404,-442.583 605.52,-447.36"/>
</g>
<!-- Node9 -->
<g id="node9" class="node"><title>Node9</title>
<g id="a_node9"><a xlink:href="../../d0/dcc/rletorla_8c.html#ab7e36af3707843f77cc5b4e831c2fa6d" target="_top" xlink:title="malloc">
<polygon fill="white" stroke="black" points="595.5,-228.5 595.5,-247.5 642.5,-247.5 642.5,-228.5 595.5,-228.5"/>
<text text-anchor="middle" x="619" y="-235.5" font-family="Helvetica,sans-Serif" font-size="10.00">malloc</text>
</a>
</g>
</g>
<!-- Node1&#45;&gt;Node9 -->
<g id="edge40" class="edge"><title>Node1&#45;&gt;Node9</title>
<path fill="none" stroke="midnightblue" d="M39.1982,-254.398C78.2656,-249.194 171.439,-238 250,-238 250,-238 250,-238 371,-238 447.582,-238 537.521,-238 584.911,-238"/>
<polygon fill="midnightblue" stroke="midnightblue" points="585.184,-241.5 595.184,-238 585.184,-234.5 585.184,-241.5"/>
</g>
<!-- Node10 -->
<g id="node10" class="node"><title>Node10</title>
<g id="a_node10"><a xlink:href="../../d2/df3/rle__hdr_8c.html#a82e79385f2d45cc3b80ce0f4f369eae5" target="_top" xlink:title="rle_names">
<polygon fill="white" stroke="black" points="465,-266.5 465,-285.5 531,-285.5 531,-266.5 465,-266.5"/>
<text text-anchor="middle" x="498" y="-273.5" font-family="Helvetica,sans-Serif" font-size="10.00">rle_names</text>
</a>
</g>
</g>
<!-- Node1&#45;&gt;Node10 -->
<g id="edge13" class="edge"><title>Node1&#45;&gt;Node10</title>
<path fill="none" stroke="midnightblue" d="M39.1794,-257.745C108.907,-260.525 355.052,-270.34 454.676,-274.312"/>
<polygon fill="midnightblue" stroke="midnightblue" points="454.835,-277.821 464.967,-274.723 455.114,-270.827 454.835,-277.821"/>
</g>
<!-- Node11 -->
<g id="node11" class="node"><title>Node11</title>
<g id="a_node11"><a xlink:href="../../de/d4e/rle__open__f_8c.html#a89733a45961817885603ae01210290b7" target="_top" xlink:title="rle_open_f">
<polygon fill="white" stroke="black" points="217,-190.5 217,-209.5 285,-209.5 285,-190.5 217,-190.5"/>
<text text-anchor="middle" x="251" y="-197.5" font-family="Helvetica,sans-Serif" font-size="10.00">rle_open_f</text>
</a>
</g>
</g>
<!-- Node1&#45;&gt;Node11 -->
<g id="edge14" class="edge"><title>Node1&#45;&gt;Node11</title>
<path fill="none" stroke="midnightblue" d="M33.1759,-247.254C43.7644,-239.641 59.5687,-229.465 75,-224 118.148,-208.719 170.474,-203.098 206.607,-201.068"/>
<polygon fill="midnightblue" stroke="midnightblue" points="206.993,-204.553 216.809,-200.566 206.649,-197.562 206.993,-204.553"/>
</g>
<!-- Node14 -->
<g id="node14" class="node"><title>Node14</title>
<g id="a_node14"><a xlink:href="../../db/d53/rle__getrow_8c.html#a2d56ca99b896abbcb4d2f3f97c93a3ce" target="_top" xlink:title="rle_get_setup_ok">
<polygon fill="white" stroke="black" points="75,-342.5 75,-361.5 173,-361.5 173,-342.5 75,-342.5"/>
<text text-anchor="middle" x="124" y="-349.5" font-family="Helvetica,sans-Serif" font-size="10.00">rle_get_setup_ok</text>
</a>
</g>
</g>
<!-- Node1&#45;&gt;Node14 -->
<g id="edge19" class="edge"><title>Node1&#45;&gt;Node14</title>
<path fill="none" stroke="midnightblue" d="M31.0832,-266.809C48.5904,-283.035 83.7676,-315.638 105.166,-335.471"/>
<polygon fill="midnightblue" stroke="midnightblue" points="102.913,-338.155 112.627,-342.386 107.672,-333.021 102.913,-338.155"/>
</g>
<!-- Node18 -->
<g id="node18" class="node"><title>Node18</title>
<g id="a_node18"><a xlink:href="../../d7/d4a/rletogif_8c.html#a42c6b1edc1bd763019f0eb5edce18793" target="_top" xlink:title="error">
<polygon fill="white" stroke="black" points="478,-38.5 478,-57.5 518,-57.5 518,-38.5 478,-38.5"/>
<text text-anchor="middle" x="498" y="-45.5" font-family="Helvetica,sans-Serif" font-size="10.00">error</text>
</a>
</g>
</g>
<!-- Node1&#45;&gt;Node18 -->
<g id="edge29" class="edge"><title>Node1&#45;&gt;Node18</title>
<path fill="none" stroke="midnightblue" d="M23.509,-247.277C29.8484,-228.436 46.3995,-186.888 75,-165 198.469,-70.5083 393.97,-52.3211 467.629,-48.8277"/>
<polygon fill="midnightblue" stroke="midnightblue" points="468.137,-52.3097 477.983,-48.3975 467.846,-45.3157 468.137,-52.3097"/>
</g>
<!-- Node19 -->
<g id="node19" class="node"><title>Node19</title>
<g id="a_node19"><a xlink:href="../../d7/d4a/rletogif_8c.html#ae6289c0f5ad8df9d34452253a23b385b" target="_top" xlink:title="get_scanlines">
<polygon fill="white" stroke="black" points="329,-152.5 329,-171.5 411,-171.5 411,-152.5 329,-152.5"/>
<text text-anchor="middle" x="370" y="-159.5" font-family="Helvetica,sans-Serif" font-size="10.00">get_scanlines</text>
</a>
</g>
</g>
<!-- Node1&#45;&gt;Node19 -->
<g id="edge30" class="edge"><title>Node1&#45;&gt;Node19</title>
<path fill="none" stroke="midnightblue" d="M26.5574,-247.45C35.4402,-234.34 53.32,-211.131 75,-200 153.121,-159.89 257.713,-156.367 318.783,-158.478"/>
<polygon fill="midnightblue" stroke="midnightblue" points="318.797,-161.981 328.932,-158.894 319.084,-154.987 318.797,-161.981"/>
</g>
<!-- Node24 -->
<g id="node24" class="node"><title>Node24</title>
<g id="a_node24"><a xlink:href="../../d7/d4a/rletogif_8c.html#ad2c0d734d14cef293047c148617e93f7" target="_top" xlink:title="get_color_bits">
<polygon fill="white" stroke="black" points="82.5,-76.5 82.5,-95.5 165.5,-95.5 165.5,-76.5 82.5,-76.5"/>
<text text-anchor="middle" x="124" y="-83.5" font-family="Helvetica,sans-Serif" font-size="10.00">get_color_bits</text>
</a>
</g>
</g>
<!-- Node1&#45;&gt;Node24 -->
<g id="edge39" class="edge"><title>Node1&#45;&gt;Node24</title>
<path fill="none" stroke="midnightblue" d="M21.6406,-247.145C25.0863,-221.491 37.5631,-151.741 75,-110 78.2504,-106.376 82.1735,-103.231 86.3593,-100.522"/>
<polygon fill="midnightblue" stroke="midnightblue" points="88.1885,-103.509 95.1889,-95.556 84.7571,-97.4074 88.1885,-103.509"/>
</g>
<!-- Node25 -->
<g id="node25" class="node"><title>Node25</title>
<g id="a_node25"><a xlink:href="../../d7/d4a/rletogif_8c.html#a7725e94f5696acca57b79f52e58a37f1" target="_top" xlink:title="GIFEncode">
<polygon fill="white" stroke="black" points="89,-38.5 89,-57.5 159,-57.5 159,-38.5 89,-38.5"/>
<text text-anchor="middle" x="124" y="-45.5" font-family="Helvetica,sans-Serif" font-size="10.00">GIFEncode</text>
</a>
</g>
</g>
<!-- Node1&#45;&gt;Node25 -->
<g id="edge41" class="edge"><title>Node1&#45;&gt;Node25</title>
<path fill="none" stroke="midnightblue" d="M20.4402,-247.302C20.7753,-216.721 25.8968,-121.144 75,-67 76.5165,-65.3278 78.1992,-63.8008 80.0008,-62.4065"/>
<polygon fill="midnightblue" stroke="midnightblue" points="81.8754,-65.3623 88.5138,-57.1051 78.175,-59.4203 81.8754,-65.3623"/>
</g>
<!-- Node26 -->
<g id="node26" class="node"><title>Node26</title>
<g id="a_node26"><a xlink:href="../../d7/d4a/rletogif_8c.html#a3df5178559ca312e637c931c4f4f5346" target="_top" xlink:title="getpixel">
<polygon fill="white" stroke="black" points="97.5,-0.5 97.5,-19.5 150.5,-19.5 150.5,-0.5 97.5,-0.5"/>
<text text-anchor="middle" x="124" y="-7.5" font-family="Helvetica,sans-Serif" font-size="10.00">getpixel</text>
</a>
</g>
</g>
<!-- Node1&#45;&gt;Node26 -->
<g id="edge42" class="edge"><title>Node1&#45;&gt;Node26</title>
<path fill="none" stroke="midnightblue" d="M21.6256,-247.285C26.3284,-208.209 45.5408,-62.9797 75,-29 78.506,-24.956 82.9884,-21.7647 87.8007,-19.2485"/>
<polygon fill="midnightblue" stroke="midnightblue" points="89.4702,-22.3414 97.2919,-15.1949 86.7208,-15.9039 89.4702,-22.3414"/>
</g>
<!-- Node27 -->
<g id="node27" class="node"><title>Node27</title>
<g id="a_node27"><a xlink:href="../../da/dbc/rle__row__alc_8c.html#a4fa936a985e542d42e91d272f9f6092d" target="_top" xlink:title="rle_row_free">
<polygon fill="white" stroke="black" points="331.5,-532.5 331.5,-551.5 408.5,-551.5 408.5,-532.5 331.5,-532.5"/>
<text text-anchor="middle" x="370" y="-539.5" font-family="Helvetica,sans-Serif" font-size="10.00">rle_row_free</text>
</a>
</g>
</g>
<!-- Node1&#45;&gt;Node27 -->
<g id="edge43" class="edge"><title>Node1&#45;&gt;Node27</title>
<path fill="none" stroke="midnightblue" d="M21.0199,-266.607C23.5565,-309.594 36.1324,-483.69 75,-518 110.358,-549.212 247.033,-547.934 320.926,-544.762"/>
<polygon fill="midnightblue" stroke="midnightblue" points="321.524,-548.238 331.354,-544.284 321.204,-541.245 321.524,-548.238"/>
</g>
<!-- Node4 -->
<g id="node4" class="node"><title>Node4</title>
<g id="a_node4"><a xlink:href="../../d4/db0/scanargs_8c.html#a862219039664df6eb3cfced58addf830" target="_top" xlink:title="_do_scanargs">
<polygon fill="white" stroke="black" points="209,-570.5 209,-589.5 293,-589.5 293,-570.5 209,-570.5"/>
<text text-anchor="middle" x="251" y="-577.5" font-family="Helvetica,sans-Serif" font-size="10.00">_do_scanargs</text>
</a>
</g>
</g>
<!-- Node3&#45;&gt;Node4 -->
<g id="edge3" class="edge"><title>Node3&#45;&gt;Node4</title>
<path fill="none" stroke="midnightblue" d="M154.307,-580C167.44,-580 183.328,-580 198.353,-580"/>
<polygon fill="midnightblue" stroke="midnightblue" points="198.572,-583.5 208.572,-580 198.572,-576.5 198.572,-583.5"/>
</g>
<!-- Node6 -->
<g id="node6" class="node"><title>Node6</title>
<g id="a_node6"><a xlink:href="../../d2/df3/rle__hdr_8c.html#a16c4da6201b3b8cf55127b9ca968d253" target="_top" xlink:title="rle_hdr_clear">
<polygon fill="white" stroke="black" points="458,-456.5 458,-475.5 538,-475.5 538,-456.5 458,-456.5"/>
<text text-anchor="middle" x="498" y="-463.5" font-family="Helvetica,sans-Serif" font-size="10.00">rle_hdr_clear</text>
</a>
</g>
</g>
<!-- Node5&#45;&gt;Node6 -->
<g id="edge5" class="edge"><title>Node5&#45;&gt;Node6</title>
<path fill="none" stroke="midnightblue" d="M286.066,-433.284C328.082,-439.8 399.817,-450.927 447.808,-458.37"/>
<polygon fill="midnightblue" stroke="midnightblue" points="447.549,-461.872 457.967,-459.946 448.622,-454.955 447.549,-461.872"/>
</g>
<!-- Node8 -->
<g id="node8" class="node"><title>Node8</title>
<g id="a_node8"><a xlink:href="../../d2/df3/rle__hdr_8c.html#afc916e29aea8788e0878ca315ff69821" target="_top" xlink:title="rle_hdr_cp">
<polygon fill="white" stroke="black" points="336,-342.5 336,-361.5 404,-361.5 404,-342.5 336,-342.5"/>
<text text-anchor="middle" x="370" y="-349.5" font-family="Helvetica,sans-Serif" font-size="10.00">rle_hdr_cp</text>
</a>
</g>
</g>
<!-- Node5&#45;&gt;Node8 -->
<g id="edge7" class="edge"><title>Node5&#45;&gt;Node8</title>
<path fill="none" stroke="midnightblue" d="M257.718,-418.321C269.123,-404.967 295.859,-382.946 327.418,-363.279"/>
<polygon fill="midnightblue" stroke="midnightblue" points="329.259,-366.256 335.986,-358.071 325.623,-360.274 329.259,-366.256"/>
</g>
<!-- Node6&#45;&gt;Node7 -->
<g id="edge6" class="edge"><title>Node6&#45;&gt;Node7</title>
<path fill="none" stroke="midnightblue" d="M529.029,-456.411C548.316,-450.252 573.131,-442.328 591.652,-436.414"/>
<polygon fill="midnightblue" stroke="midnightblue" points="592.757,-439.735 601.218,-433.359 590.628,-433.067 592.757,-439.735"/>
</g>
<!-- Node8&#45;&gt;Node5 -->
<g id="edge8" class="edge"><title>Node8&#45;&gt;Node5</title>
<path fill="none" stroke="midnightblue" d="M361.702,-361.506C353.514,-367.395 339.944,-373.435 329,-380 312.464,-389.92 295.113,-402.545 281.077,-412.555"/>
<polygon fill="midnightblue" stroke="midnightblue" points="278.949,-409.773 272.802,-418.402 282.989,-415.49 278.949,-409.773"/>
</g>
<!-- Node8&#45;&gt;Node9 -->
<g id="edge9" class="edge"><title>Node8&#45;&gt;Node9</title>
<path fill="none" stroke="midnightblue" d="M404.006,-345.397C440.922,-337.13 501.734,-320.832 549,-295 568.646,-284.263 588.037,-267.554 601.235,-254.998"/>
<polygon fill="midnightblue" stroke="midnightblue" points="603.89,-257.298 608.599,-247.807 598.999,-252.289 603.89,-257.298"/>
</g>
<!-- Node8&#45;&gt;Node10 -->
<g id="edge10" class="edge"><title>Node8&#45;&gt;Node10</title>
<path fill="none" stroke="midnightblue" d="M388.02,-342.399C395.233,-338.175 403.651,-333.035 411,-328 427.721,-316.543 429.765,-310.669 447,-300 452.695,-296.475 458.987,-293.093 465.131,-290.037"/>
<polygon fill="midnightblue" stroke="midnightblue" points="467.045,-293.002 474.557,-285.53 464.025,-286.687 467.045,-293.002"/>
</g>
<!-- Node10&#45;&gt;Node7 -->
<g id="edge11" class="edge"><title>Node10&#45;&gt;Node7</title>
<path fill="none" stroke="midnightblue" d="M506.444,-285.508C525.978,-310.46 578.938,-378.106 604.214,-410.392"/>
<polygon fill="midnightblue" stroke="midnightblue" points="601.638,-412.779 610.559,-418.495 607.15,-408.464 601.638,-412.779"/>
</g>
<!-- Node10&#45;&gt;Node9 -->
<g id="edge12" class="edge"><title>Node10&#45;&gt;Node9</title>
<path fill="none" stroke="midnightblue" d="M529.029,-266.411C546.296,-260.897 567.993,-253.969 585.638,-248.334"/>
<polygon fill="midnightblue" stroke="midnightblue" points="587.033,-251.563 595.495,-245.187 584.904,-244.894 587.033,-251.563"/>
</g>
<!-- Node12 -->
<g id="node12" class="node"><title>Node12</title>
<g id="a_node12"><a xlink:href="../../de/d4e/rle__open__f_8c.html#a5a0e62a00f907fce26e93b2f72adb2b0" target="_top" xlink:title="rle_open_f_noexit">
<polygon fill="white" stroke="black" points="447,-152.5 447,-171.5 549,-171.5 549,-152.5 447,-152.5"/>
<text text-anchor="middle" x="498" y="-159.5" font-family="Helvetica,sans-Serif" font-size="10.00">rle_open_f_noexit</text>
</a>
</g>
</g>
<!-- Node11&#45;&gt;Node12 -->
<g id="edge15" class="edge"><title>Node11&#45;&gt;Node12</title>
<path fill="none" stroke="midnightblue" d="M285.024,-197.011C317.278,-193.867 367.695,-188.353 411,-181 423.013,-178.96 435.88,-176.35 447.905,-173.721"/>
<polygon fill="midnightblue" stroke="midnightblue" points="448.773,-177.113 457.772,-171.52 447.25,-170.281 448.773,-177.113"/>
</g>
<!-- Node12&#45;&gt;Node7 -->
<g id="edge18" class="edge"><title>Node12&#45;&gt;Node7</title>
<path fill="none" stroke="midnightblue" d="M536.197,-171.508C540.972,-173.981 545.431,-177.091 549,-181 580.117,-215.077 606.082,-355.915 614.836,-408.277"/>
<polygon fill="midnightblue" stroke="midnightblue" points="611.407,-408.996 616.48,-418.297 618.315,-407.862 611.407,-408.996"/>
</g>
<!-- Node12&#45;&gt;Node9 -->
<g id="edge17" class="edge"><title>Node12&#45;&gt;Node9</title>
<path fill="none" stroke="midnightblue" d="M528.822,-171.502C535.651,-174.172 542.739,-177.358 549,-181 568.354,-192.257 587.781,-208.9 601.067,-221.3"/>
<polygon fill="midnightblue" stroke="midnightblue" points="598.84,-224.013 608.49,-228.386 603.674,-218.949 598.84,-224.013"/>
</g>
<!-- Node13 -->
<g id="node13" class="node"><title>Node13</title>
<g id="a_node13"><a xlink:href="../../de/d4e/rle__open__f_8c.html#a84fda810ae9b9bde82a6391d0b264ead" target="_top" xlink:title="my_popen">
<polygon fill="white" stroke="black" points="586,-152.5 586,-171.5 652,-171.5 652,-152.5 586,-152.5"/>
<text text-anchor="middle" x="619" y="-159.5" font-family="Helvetica,sans-Serif" font-size="10.00">my_popen</text>
</a>
</g>
</g>
<!-- Node12&#45;&gt;Node13 -->
<g id="edge16" class="edge"><title>Node12&#45;&gt;Node13</title>
<path fill="none" stroke="midnightblue" d="M549.122,-162C557.973,-162 567.108,-162 575.717,-162"/>
<polygon fill="midnightblue" stroke="midnightblue" points="575.902,-165.5 585.902,-162 575.902,-158.5 575.902,-165.5"/>
</g>
<!-- Node14&#45;&gt;Node5 -->
<g id="edge20" class="edge"><title>Node14&#45;&gt;Node5</title>
<path fill="none" stroke="midnightblue" d="M140.106,-361.507C156.868,-372.02 184.755,-389.403 209,-404 213.946,-406.978 219.253,-410.122 224.353,-413.118"/>
<polygon fill="midnightblue" stroke="midnightblue" points="222.789,-416.258 233.188,-418.285 226.323,-410.215 222.789,-416.258"/>
</g>
<!-- Node14&#45;&gt;Node10 -->
<g id="edge21" class="edge"><title>Node14&#45;&gt;Node10</title>
<path fill="none" stroke="midnightblue" d="M166.395,-342.403C179.955,-339.322 195.105,-335.946 209,-333 296.308,-314.489 398.919,-294.634 455.053,-283.933"/>
<polygon fill="midnightblue" stroke="midnightblue" points="455.81,-287.352 464.979,-282.044 454.501,-280.476 455.81,-287.352"/>
</g>
<!-- Node15 -->
<g id="node15" class="node"><title>Node15</title>
<g id="a_node15"><a xlink:href="../../d7/d24/rle__error_8c.html#af931d686cf3ca715c9b900527f0961c0" target="_top" xlink:title="rle_get_error">
<polygon fill="white" stroke="black" points="211.5,-342.5 211.5,-361.5 290.5,-361.5 290.5,-342.5 211.5,-342.5"/>
<text text-anchor="middle" x="251" y="-349.5" font-family="Helvetica,sans-Serif" font-size="10.00">rle_get_error</text>
</a>
</g>
</g>
<!-- Node14&#45;&gt;Node15 -->
<g id="edge22" class="edge"><title>Node14&#45;&gt;Node15</title>
<path fill="none" stroke="midnightblue" d="M173.328,-352C182.513,-352 192.128,-352 201.323,-352"/>
<polygon fill="midnightblue" stroke="midnightblue" points="201.481,-355.5 211.481,-352 201.481,-348.5 201.481,-355.5"/>
</g>
<!-- Node16 -->
<g id="node16" class="node"><title>Node16</title>
<g id="a_node16"><a xlink:href="../../db/d53/rle__getrow_8c.html#a619b27463c26e0a4a3d9648a9869ee52" target="_top" xlink:title="rle_get_setup">
<polygon fill="white" stroke="black" points="329.5,-380.5 329.5,-399.5 410.5,-399.5 410.5,-380.5 329.5,-380.5"/>
<text text-anchor="middle" x="370" y="-387.5" font-family="Helvetica,sans-Serif" font-size="10.00">rle_get_setup</text>
</a>
</g>
</g>
<!-- Node14&#45;&gt;Node16 -->
<g id="edge23" class="edge"><title>Node14&#45;&gt;Node16</title>
<path fill="none" stroke="midnightblue" d="M163.304,-361.548C177.582,-364.874 193.97,-368.415 209,-371 245.657,-377.305 287.4,-382.186 319.056,-385.421"/>
<polygon fill="midnightblue" stroke="midnightblue" points="319.084,-388.942 329.382,-386.455 319.781,-381.976 319.084,-388.942"/>
</g>
<!-- Node16&#45;&gt;Node6 -->
<g id="edge24" class="edge"><title>Node16&#45;&gt;Node6</title>
<path fill="none" stroke="midnightblue" d="M383.787,-399.643C398.583,-410.586 423.881,-428.646 447,-442 453.05,-445.495 459.688,-448.936 466.093,-452.074"/>
<polygon fill="midnightblue" stroke="midnightblue" points="464.685,-455.28 475.217,-456.426 467.698,-448.962 464.685,-455.28"/>
</g>
<!-- Node16&#45;&gt;Node7 -->
<g id="edge27" class="edge"><title>Node16&#45;&gt;Node7</title>
<path fill="none" stroke="midnightblue" d="M405.217,-399.593C418.217,-402.962 433.212,-406.522 447,-409 497.669,-418.106 557.618,-423.563 591.387,-426.157"/>
<polygon fill="midnightblue" stroke="midnightblue" points="591.154,-429.649 601.386,-426.899 591.673,-422.668 591.154,-429.649"/>
</g>
<!-- Node16&#45;&gt;Node9 -->
<g id="edge26" class="edge"><title>Node16&#45;&gt;Node9</title>
<path fill="none" stroke="midnightblue" d="M405.83,-380.454C450.709,-367.719 525.729,-344.823 549,-328 575.464,-308.868 596.6,-276.749 608.203,-256.501"/>
<polygon fill="midnightblue" stroke="midnightblue" points="611.336,-258.069 613.115,-247.624 605.211,-254.68 611.336,-258.069"/>
</g>
<!-- Node16&#45;&gt;Node10 -->
<g id="edge25" class="edge"><title>Node16&#45;&gt;Node10</title>
<path fill="none" stroke="midnightblue" d="M395.143,-380.406C400.594,-377.739 406.187,-374.578 411,-371 426.901,-359.179 462.31,-317.815 482.382,-293.743"/>
<polygon fill="midnightblue" stroke="midnightblue" points="485.327,-295.675 489.018,-285.743 479.939,-291.205 485.327,-295.675"/>
</g>
<!-- Node17 -->
<g id="node17" class="node"><title>Node17</title>
<g id="a_node17"><a xlink:href="../../db/d53/rle__getrow_8c.html#a0ea68aa2ebeef9d4cade7282553b03d6" target="_top" xlink:title="vax_gshort">
<polygon fill="white" stroke="black" points="463.5,-380.5 463.5,-399.5 532.5,-399.5 532.5,-380.5 463.5,-380.5"/>
<text text-anchor="middle" x="498" y="-387.5" font-family="Helvetica,sans-Serif" font-size="10.00">vax_gshort</text>
</a>
</g>
</g>
<!-- Node16&#45;&gt;Node17 -->
<g id="edge28" class="edge"><title>Node16&#45;&gt;Node17</title>
<path fill="none" stroke="midnightblue" d="M410.521,-390C423.979,-390 439.105,-390 452.898,-390"/>
<polygon fill="midnightblue" stroke="midnightblue" points="453.137,-393.5 463.137,-390 453.137,-386.5 453.137,-393.5"/>
</g>
<!-- Node19&#45;&gt;Node9 -->
<g id="edge35" class="edge"><title>Node19&#45;&gt;Node9</title>
<path fill="none" stroke="midnightblue" d="M392.66,-152.402C427.628,-138.442 497.774,-116.894 549,-143 565.266,-151.289 592.549,-194.486 607.469,-219.684"/>
<polygon fill="midnightblue" stroke="midnightblue" points="604.466,-221.482 612.533,-228.35 610.51,-217.95 604.466,-221.482"/>
</g>
<!-- Node19&#45;&gt;Node18 -->
<g id="edge31" class="edge"><title>Node19&#45;&gt;Node18</title>
<path fill="none" stroke="midnightblue" d="M391.721,-152.496C398.462,-148.686 405.591,-143.808 411,-138 435.112,-112.108 420.691,-90.6555 447,-67 452.954,-61.6468 460.568,-57.7443 468.05,-54.9225"/>
<polygon fill="midnightblue" stroke="midnightblue" points="469.227,-58.2204 477.658,-51.8044 467.066,-51.5623 469.227,-58.2204"/>
</g>
<!-- Node20 -->
<g id="node20" class="node"><title>Node20</title>
<g id="a_node20"><a xlink:href="../../da/dbc/rle__row__alc_8c.html#abf83029f1ab364a8cb72524f58d70a3b" target="_top" xlink:title="rle_row_alloc">
<polygon fill="white" stroke="black" points="458,-190.5 458,-209.5 538,-209.5 538,-190.5 458,-190.5"/>
<text text-anchor="middle" x="498" y="-197.5" font-family="Helvetica,sans-Serif" font-size="10.00">rle_row_alloc</text>
</a>
</g>
</g>
<!-- Node19&#45;&gt;Node20 -->
<g id="edge32" class="edge"><title>Node19&#45;&gt;Node20</title>
<path fill="none" stroke="midnightblue" d="M402.795,-171.589C418.762,-176.404 438.307,-182.299 455.447,-187.468"/>
<polygon fill="midnightblue" stroke="midnightblue" points="454.63,-190.878 465.215,-190.414 456.652,-184.176 454.63,-190.878"/>
</g>
<!-- Node21 -->
<g id="node21" class="node"><title>Node21</title>
<g id="a_node21"><a xlink:href="../../db/d53/rle__getrow_8c.html#a3602e1158189cba5e5b0f9b983cba776" target="_top" xlink:title="rle_getrow">
<polygon fill="white" stroke="black" points="464.5,-76.5 464.5,-95.5 531.5,-95.5 531.5,-76.5 464.5,-76.5"/>
<text text-anchor="middle" x="498" y="-83.5" font-family="Helvetica,sans-Serif" font-size="10.00">rle_getrow</text>
</a>
</g>
</g>
<!-- Node19&#45;&gt;Node21 -->
<g id="edge36" class="edge"><title>Node19&#45;&gt;Node21</title>
<path fill="none" stroke="midnightblue" d="M388.02,-152.399C395.233,-148.175 403.651,-143.035 411,-138 427.721,-126.543 429.765,-120.669 447,-110 452.695,-106.475 458.987,-103.093 465.131,-100.037"/>
<polygon fill="midnightblue" stroke="midnightblue" points="467.045,-103.002 474.557,-95.5303 464.025,-96.6867 467.045,-103.002"/>
</g>
<!-- Node20&#45;&gt;Node7 -->
<g id="edge34" class="edge"><title>Node20&#45;&gt;Node7</title>
<path fill="none" stroke="midnightblue" d="M509.346,-209.671C520.346,-220.394 537.683,-238.616 549,-257 580.361,-307.946 602.704,-375.634 612.484,-408.473"/>
<polygon fill="midnightblue" stroke="midnightblue" points="609.16,-409.576 615.314,-418.2 615.881,-407.62 609.16,-409.576"/>
</g>
<!-- Node20&#45;&gt;Node9 -->
<g id="edge33" class="edge"><title>Node20&#45;&gt;Node9</title>
<path fill="none" stroke="midnightblue" d="M529.029,-209.589C546.296,-215.103 567.993,-222.031 585.638,-227.666"/>
<polygon fill="midnightblue" stroke="midnightblue" points="584.904,-231.106 595.495,-230.813 587.033,-224.437 584.904,-231.106"/>
</g>
<!-- Node22 -->
<g id="node22" class="node"><title>Node22</title>
<g id="a_node22"><a xlink:href="../../db/d53/rle__getrow_8c.html#a61ac0da96b0dd8bc3cbc98afcd9b5c44" target="_top" xlink:title="bfill">
<polygon fill="white" stroke="black" points="603,-95.5 603,-114.5 635,-114.5 635,-95.5 603,-95.5"/>
<text text-anchor="middle" x="619" y="-102.5" font-family="Helvetica,sans-Serif" font-size="10.00">bfill</text>
</a>
</g>
</g>
<!-- Node21&#45;&gt;Node22 -->
<g id="edge37" class="edge"><title>Node21&#45;&gt;Node22</title>
<path fill="none" stroke="midnightblue" d="M531.517,-91.1918C550.87,-94.2818 575.055,-98.1432 592.925,-100.996"/>
<polygon fill="midnightblue" stroke="midnightblue" points="592.456,-104.466 602.883,-102.586 593.56,-97.5534 592.456,-104.466"/>
</g>
<!-- Node23 -->
<g id="node23" class="node"><title>Node23</title>
<g id="a_node23"><a xlink:href="../../d8/d7c/rle__getskip_8c.html#af6b1e1dc0867e9340f90668591c7c5b3" target="_top" xlink:title="rle_getskip">
<polygon fill="white" stroke="black" points="585,-57.5 585,-76.5 653,-76.5 653,-57.5 585,-57.5"/>
<text text-anchor="middle" x="619" y="-64.5" font-family="Helvetica,sans-Serif" font-size="10.00">rle_getskip</text>
</a>
</g>
</g>
<!-- Node21&#45;&gt;Node23 -->
<g id="edge38" class="edge"><title>Node21&#45;&gt;Node23</title>
<path fill="none" stroke="midnightblue" d="M531.517,-80.8082C544.807,-78.6862 560.376,-76.2005 574.613,-73.9273"/>
<polygon fill="midnightblue" stroke="midnightblue" points="575.371,-77.3508 584.694,-72.3178 574.267,-70.4384 575.371,-77.3508"/>
</g>
<!-- Node27&#45;&gt;Node7 -->
<g id="edge44" class="edge"><title>Node27&#45;&gt;Node7</title>
<path fill="none" stroke="midnightblue" d="M408.755,-544.951C446.729,-546.161 505.702,-543.101 549,-518 577.544,-501.453 598.285,-468.004 609.207,-446.872"/>
<polygon fill="midnightblue" stroke="midnightblue" points="612.488,-448.132 613.772,-437.615 606.21,-445.036 612.488,-448.132"/>
</g>
</g>
</svg>
