<?xml version="1.0" encoding="UTF-8" standalone="no"?>
<!DOCTYPE svg PUBLIC "-//W3C//DTD SVG 1.1//EN"
 "http://www.w3.org/Graphics/SVG/1.1/DTD/svg11.dtd">
<!-- Generated by graphviz version 2.38.0 (20140413.2041)
 -->
<!-- Title: main Pages: 1 -->
<svg width="524pt" height="877pt"
 viewBox="0.00 0.00 524.00 877.46" xmlns="http://www.w3.org/2000/svg" xmlns:xlink="http://www.w3.org/1999/xlink">
<g id="graph0" class="graph" transform="scale(1 1) rotate(0) translate(4 873.465)">
<title>main</title>
<polygon fill="white" stroke="none" points="-4,4 -4,-873.465 520,-873.465 520,4 -4,4"/>
<!-- Node1 -->
<g id="node1" class="node"><title>Node1</title>
<polygon fill="#bfbfbf" stroke="black" points="0,-380.5 0,-399.5 39,-399.5 39,-380.5 0,-380.5"/>
<text text-anchor="middle" x="19.5" y="-387.5" font-family="Helvetica,sans-Serif" font-size="10.00">main</text>
</g>
<!-- Node2 -->
<g id="node2" class="node"><title>Node2</title>
<g id="a_node2"><a xlink:href="../../d2/df3/rle__hdr_8c.html#a8ba0e5b11d1e39ab7227f1686e676c86" target="_top" xlink:title="rle_hdr_init">
<polygon fill="white" stroke="black" points="80.5,-532.5 80.5,-551.5 150.5,-551.5 150.5,-532.5 80.5,-532.5"/>
<text text-anchor="middle" x="115.5" y="-539.5" font-family="Helvetica,sans-Serif" font-size="10.00">rle_hdr_init</text>
</a>
</g>
</g>
<!-- Node1&#45;&gt;Node2 -->
<g id="edge1" class="edge"><title>Node1&#45;&gt;Node2</title>
<path fill="none" stroke="midnightblue" d="M22.4887,-399.76C27.5936,-422.745 43.0624,-481.118 75,-518 77.8365,-521.276 81.2339,-524.237 84.8293,-526.872"/>
<polygon fill="midnightblue" stroke="midnightblue" points="83.1095,-529.927 93.4074,-532.418 86.9103,-524.049 83.1095,-529.927"/>
</g>
<!-- Node4 -->
<g id="node4" class="node"><title>Node4</title>
<g id="a_node4"><a xlink:href="../../d0/dcc/rletorla_8c.html#aafde19f7d36ca163a143579c1b125b6d" target="_top" xlink:title="free">
<polygon fill="white" stroke="black" points="465.5,-684.5 465.5,-703.5 500.5,-703.5 500.5,-684.5 465.5,-684.5"/>
<text text-anchor="middle" x="483" y="-691.5" font-family="Helvetica,sans-Serif" font-size="10.00">free</text>
</a>
</g>
</g>
<!-- Node1&#45;&gt;Node4 -->
<g id="edge53" class="edge"><title>Node1&#45;&gt;Node4</title>
<path fill="none" stroke="midnightblue" d="M21.003,-399.608C23.6514,-446.983 37.3139,-655.456 75,-706 167.72,-830.355 276.04,-859.91 414,-789 444.974,-773.08 464.989,-735.779 474.812,-712.94"/>
<polygon fill="midnightblue" stroke="midnightblue" points="478.088,-714.174 478.61,-703.593 471.603,-711.539 478.088,-714.174"/>
</g>
<!-- Node5 -->
<g id="node5" class="node"><title>Node5</title>
<g id="a_node5"><a xlink:href="../../d2/df3/rle__hdr_8c.html#afc916e29aea8788e0878ca315ff69821" target="_top" xlink:title="rle_hdr_cp">
<polygon fill="white" stroke="black" points="200,-532.5 200,-551.5 268,-551.5 268,-532.5 200,-532.5"/>
<text text-anchor="middle" x="234" y="-539.5" font-family="Helvetica,sans-Serif" font-size="10.00">rle_hdr_cp</text>
</a>
</g>
</g>
<!-- Node1&#45;&gt;Node5 -->
<g id="edge25" class="edge"><title>Node1&#45;&gt;Node5</title>
<path fill="none" stroke="midnightblue" d="M23.8789,-399.542C30.7536,-417.666 48.0387,-457.285 75,-480 108.33,-508.08 155.885,-524.409 190.104,-533.192"/>
<polygon fill="midnightblue" stroke="midnightblue" points="189.275,-536.592 199.821,-535.576 190.943,-529.794 189.275,-536.592"/>
</g>
<!-- Node6 -->
<g id="node6" class="node"><title>Node6</title>
<g id="a_node6"><a xlink:href="../../d0/dcc/rletorla_8c.html#ab7e36af3707843f77cc5b4e831c2fa6d" target="_top" xlink:title="malloc">
<polygon fill="white" stroke="black" points="459.5,-456.5 459.5,-475.5 506.5,-475.5 506.5,-456.5 459.5,-456.5"/>
<text text-anchor="middle" x="483" y="-463.5" font-family="Helvetica,sans-Serif" font-size="10.00">malloc</text>
</a>
</g>
</g>
<!-- Node1&#45;&gt;Node6 -->
<g id="edge40" class="edge"><title>Node1&#45;&gt;Node6</title>
<path fill="none" stroke="midnightblue" d="M39.3631,-397.748C49.7186,-401.702 62.884,-406.246 75,-409 222.838,-442.609 265.177,-418.063 414,-447 425.7,-449.275 438.322,-452.563 449.478,-455.766"/>
<polygon fill="midnightblue" stroke="midnightblue" points="448.66,-459.174 459.242,-458.652 450.645,-452.461 448.66,-459.174"/>
</g>
<!-- Node7 -->
<g id="node7" class="node"><title>Node7</title>
<g id="a_node7"><a xlink:href="../../d2/df3/rle__hdr_8c.html#a82e79385f2d45cc3b80ce0f4f369eae5" target="_top" xlink:title="rle_names">
<polygon fill="white" stroke="black" points="330,-532.5 330,-551.5 396,-551.5 396,-532.5 330,-532.5"/>
<text text-anchor="middle" x="363" y="-539.5" font-family="Helvetica,sans-Serif" font-size="10.00">rle_names</text>
</a>
</g>
</g>
<!-- Node1&#45;&gt;Node7 -->
<g id="edge18" class="edge"><title>Node1&#45;&gt;Node7</title>
<path fill="none" stroke="midnightblue" d="M20.061,-399.538C19.2704,-429.465 21.4168,-521.839 75,-561 147.124,-613.712 187.194,-570.693 276,-561 290.433,-559.425 305.991,-556.404 319.853,-553.227"/>
<polygon fill="midnightblue" stroke="midnightblue" points="320.69,-556.626 329.607,-550.904 319.069,-549.816 320.69,-556.626"/>
</g>
<!-- Node8 -->
<g id="node8" class="node"><title>Node8</title>
<g id="a_node8"><a xlink:href="../../d4/db0/scanargs_8c.html#a7ea6d702c0484056c8504d6ce7fede08" target="_top" xlink:title="scanargs">
<polygon fill="white" stroke="black" points="85.5,-304.5 85.5,-323.5 145.5,-323.5 145.5,-304.5 85.5,-304.5"/>
<text text-anchor="middle" x="115.5" y="-311.5" font-family="Helvetica,sans-Serif" font-size="10.00">scanargs</text>
</a>
</g>
</g>
<!-- Node1&#45;&gt;Node8 -->
<g id="edge10" class="edge"><title>Node1&#45;&gt;Node8</title>
<path fill="none" stroke="midnightblue" d="M29.583,-380.135C39.9694,-369.15 57.7699,-351.206 75,-338 79.1914,-334.787 83.8383,-331.64 88.4295,-328.738"/>
<polygon fill="midnightblue" stroke="midnightblue" points="90.3219,-331.683 97.0554,-323.504 86.6905,-325.699 90.3219,-331.683"/>
</g>
<!-- Node10 -->
<g id="node10" class="node"><title>Node10</title>
<g id="a_node10"><a xlink:href="../../de/d4e/rle__open__f_8c.html#a89733a45961817885603ae01210290b7" target="_top" xlink:title="rle_open_f">
<polygon fill="white" stroke="black" points="200,-608.5 200,-627.5 268,-627.5 268,-608.5 200,-608.5"/>
<text text-anchor="middle" x="234" y="-615.5" font-family="Helvetica,sans-Serif" font-size="10.00">rle_open_f</text>
</a>
</g>
</g>
<!-- Node1&#45;&gt;Node10 -->
<g id="edge12" class="edge"><title>Node1&#45;&gt;Node10</title>
<path fill="none" stroke="midnightblue" d="M21.6798,-399.622C26.3858,-436.372 45.0259,-567.163 75,-594 105.948,-621.709 154.74,-625.216 189.918,-623.353"/>
<polygon fill="midnightblue" stroke="midnightblue" points="190.172,-626.843 199.907,-622.662 189.689,-619.86 190.172,-626.843"/>
</g>
<!-- Node13 -->
<g id="node13" class="node"><title>Node13</title>
<g id="a_node13"><a xlink:href="../../d8/d30/cmd__name_8c.html#a271249070fdd12c176777c77d76f888f" target="_top" xlink:title="cmd_name">
<polygon fill="white" stroke="black" points="81.5,-266.5 81.5,-285.5 149.5,-285.5 149.5,-266.5 81.5,-266.5"/>
<text text-anchor="middle" x="115.5" y="-273.5" font-family="Helvetica,sans-Serif" font-size="10.00">cmd_name</text>
</a>
</g>
</g>
<!-- Node1&#45;&gt;Node13 -->
<g id="edge17" class="edge"><title>Node1&#45;&gt;Node13</title>
<path fill="none" stroke="midnightblue" d="M23.7885,-380.403C30.6179,-361.725 47.9881,-320.121 75,-295 76.6299,-293.484 78.403,-292.067 80.2654,-290.745"/>
<polygon fill="midnightblue" stroke="midnightblue" points="82.0946,-293.729 88.834,-285.554 78.4675,-287.742 82.0946,-293.729"/>
</g>
<!-- Node14 -->
<g id="node14" class="node"><title>Node14</title>
<g id="a_node14"><a xlink:href="../../db/d53/rle__getrow_8c.html#a619b27463c26e0a4a3d9648a9869ee52" target="_top" xlink:title="rle_get_setup">
<polygon fill="white" stroke="black" points="193.5,-684.5 193.5,-703.5 274.5,-703.5 274.5,-684.5 193.5,-684.5"/>
<text text-anchor="middle" x="234" y="-691.5" font-family="Helvetica,sans-Serif" font-size="10.00">rle_get_setup</text>
</a>
</g>
</g>
<!-- Node1&#45;&gt;Node14 -->
<g id="edge19" class="edge"><title>Node1&#45;&gt;Node14</title>
<path fill="none" stroke="midnightblue" d="M19.9447,-399.679C18.4918,-434.153 18.0603,-552.583 75,-622 102.144,-655.092 147.781,-673.624 183.048,-683.568"/>
<polygon fill="midnightblue" stroke="midnightblue" points="182.596,-687.07 193.16,-686.268 184.401,-680.307 182.596,-687.07"/>
</g>
<!-- Node16 -->
<g id="node16" class="node"><title>Node16</title>
<g id="a_node16"><a xlink:href="../../d8/def/rle__addhist_8c.html#a4f9433d6e4e203d0ecea1c7d3837afc3" target="_top" xlink:title="rle_addhist">
<polygon fill="white" stroke="black" points="199.5,-304.5 199.5,-323.5 268.5,-323.5 268.5,-304.5 199.5,-304.5"/>
<text text-anchor="middle" x="234" y="-311.5" font-family="Helvetica,sans-Serif" font-size="10.00">rle_addhist</text>
</a>
</g>
</g>
<!-- Node1&#45;&gt;Node16 -->
<g id="edge26" class="edge"><title>Node1&#45;&gt;Node16</title>
<path fill="none" stroke="midnightblue" d="M39.358,-383.256C74.6557,-370.631 151.241,-343.241 196.809,-326.944"/>
<polygon fill="midnightblue" stroke="midnightblue" points="198.073,-330.209 206.31,-323.545 195.716,-323.618 198.073,-330.209"/>
</g>
<!-- Node21 -->
<g id="node21" class="node"><title>Node21</title>
<g id="a_node21"><a xlink:href="../../d3/dd8/crop_8c.html#a13d964c4fab47cd713db04de75605b00" target="_top" xlink:title="rle_box">
<polygon fill="white" stroke="black" points="90,-228.5 90,-247.5 141,-247.5 141,-228.5 90,-228.5"/>
<text text-anchor="middle" x="115.5" y="-235.5" font-family="Helvetica,sans-Serif" font-size="10.00">rle_box</text>
</a>
</g>
</g>
<!-- Node1&#45;&gt;Node21 -->
<g id="edge33" class="edge"><title>Node1&#45;&gt;Node21</title>
<path fill="none" stroke="midnightblue" d="M22.0113,-380.353C26.2097,-356.508 40.0899,-294.049 75,-257 76.7809,-255.11 78.7888,-253.386 80.9317,-251.818"/>
<polygon fill="midnightblue" stroke="midnightblue" points="82.9352,-254.696 89.6701,-246.518 79.3049,-248.711 82.9352,-254.696"/>
</g>
<!-- Node22 -->
<g id="node22" class="node"><title>Node22</title>
<g id="a_node22"><a xlink:href="../../d3/dd8/crop_8c.html#a02f945b4ebdbd75cc5211cd33f1648cf" target="_top" xlink:title="pos_box_vals">
<polygon fill="white" stroke="black" points="75,-190.5 75,-209.5 156,-209.5 156,-190.5 75,-190.5"/>
<text text-anchor="middle" x="115.5" y="-197.5" font-family="Helvetica,sans-Serif" font-size="10.00">pos_box_vals</text>
</a>
</g>
</g>
<!-- Node1&#45;&gt;Node22 -->
<g id="edge34" class="edge"><title>Node1&#45;&gt;Node22</title>
<path fill="none" stroke="midnightblue" d="M20.9889,-380.204C22.9005,-351.817 32.0762,-268.387 75,-219 76.1325,-217.697 77.3746,-216.476 78.6978,-215.332"/>
<polygon fill="midnightblue" stroke="midnightblue" points="80.7435,-218.172 86.9671,-209.598 76.7549,-212.42 80.7435,-218.172"/>
</g>
<!-- Node23 -->
<g id="node23" class="node"><title>Node23</title>
<g id="a_node23"><a xlink:href="../../d9/d2a/rle__putrow_8c.html#af88a82b331cd6f425d2a2cc1623944c6" target="_top" xlink:title="rle_put_setup">
<polygon fill="white" stroke="black" points="75.5,-152.5 75.5,-171.5 155.5,-171.5 155.5,-152.5 75.5,-152.5"/>
<text text-anchor="middle" x="115.5" y="-159.5" font-family="Helvetica,sans-Serif" font-size="10.00">rle_put_setup</text>
</a>
</g>
</g>
<!-- Node1&#45;&gt;Node23 -->
<g id="edge35" class="edge"><title>Node1&#45;&gt;Node23</title>
<path fill="none" stroke="midnightblue" d="M20.303,-380.424C20.1458,-348.352 23.7584,-243.242 75,-181 75.9673,-179.825 77.0246,-178.718 78.1519,-177.675"/>
<polygon fill="midnightblue" stroke="midnightblue" points="80.3618,-180.395 86.3955,-171.686 76.2477,-174.732 80.3618,-180.395"/>
</g>
<!-- Node25 -->
<g id="node25" class="node"><title>Node25</title>
<g id="a_node25"><a xlink:href="../../da/dbc/rle__row__alc_8c.html#abf83029f1ab364a8cb72524f58d70a3b" target="_top" xlink:title="rle_row_alloc">
<polygon fill="white" stroke="black" points="323,-456.5 323,-475.5 403,-475.5 403,-456.5 323,-456.5"/>
<text text-anchor="middle" x="363" y="-463.5" font-family="Helvetica,sans-Serif" font-size="10.00">rle_row_alloc</text>
</a>
</g>
</g>
<!-- Node1&#45;&gt;Node25 -->
<g id="edge37" class="edge"><title>Node1&#45;&gt;Node25</title>
<path fill="none" stroke="midnightblue" d="M27.3053,-399.715C36.5277,-411.998 54.2474,-432.666 75,-442 152.431,-476.828 253.412,-476.012 312.635,-471.515"/>
<polygon fill="midnightblue" stroke="midnightblue" points="313.159,-474.983 322.837,-470.672 312.583,-468.007 313.159,-474.983"/>
</g>
<!-- Node26 -->
<g id="node26" class="node"><title>Node26</title>
<g id="a_node26"><a xlink:href="../../d9/d2a/rle__putrow_8c.html#a018d4b7d6fe20504c07c24b9bd8fc304" target="_top" xlink:title="rle_skiprow">
<polygon fill="white" stroke="black" points="80,-114.5 80,-133.5 151,-133.5 151,-114.5 80,-114.5"/>
<text text-anchor="middle" x="115.5" y="-121.5" font-family="Helvetica,sans-Serif" font-size="10.00">rle_skiprow</text>
</a>
</g>
</g>
<!-- Node1&#45;&gt;Node26 -->
<g id="edge41" class="edge"><title>Node1&#45;&gt;Node26</title>
<path fill="none" stroke="midnightblue" d="M21.4974,-380.385C25.8924,-339.609 44.6698,-181.298 75,-143 75.9449,-141.807 76.9832,-140.684 78.0946,-139.628"/>
<polygon fill="midnightblue" stroke="midnightblue" points="80.3087,-142.344 86.2742,-133.588 76.1506,-136.713 80.3087,-142.344"/>
</g>
<!-- Node27 -->
<g id="node27" class="node"><title>Node27</title>
<g id="a_node27"><a xlink:href="../../db/d53/rle__getrow_8c.html#a3602e1158189cba5e5b0f9b983cba776" target="_top" xlink:title="rle_getrow">
<polygon fill="white" stroke="black" points="82,-76.5 82,-95.5 149,-95.5 149,-76.5 82,-76.5"/>
<text text-anchor="middle" x="115.5" y="-83.5" font-family="Helvetica,sans-Serif" font-size="10.00">rle_getrow</text>
</a>
</g>
</g>
<!-- Node1&#45;&gt;Node27 -->
<g id="edge42" class="edge"><title>Node1&#45;&gt;Node27</title>
<path fill="none" stroke="midnightblue" d="M21.1839,-380.451C24.5315,-336.035 40.4458,-149.92 75,-105 75.928,-103.794 76.952,-102.66 78.0515,-101.595"/>
<polygon fill="midnightblue" stroke="midnightblue" points="80.2683,-104.307 86.1828,-95.5171 76.0775,-98.7004 80.2683,-104.307"/>
</g>
<!-- Node29 -->
<g id="node29" class="node"><title>Node29</title>
<g id="a_node29"><a xlink:href="../../d8/d7c/rle__getskip_8c.html#af6b1e1dc0867e9340f90668591c7c5b3" target="_top" xlink:title="rle_getskip">
<polygon fill="white" stroke="black" points="200,-38.5 200,-57.5 268,-57.5 268,-38.5 200,-38.5"/>
<text text-anchor="middle" x="234" y="-45.5" font-family="Helvetica,sans-Serif" font-size="10.00">rle_getskip</text>
</a>
</g>
</g>
<!-- Node1&#45;&gt;Node29 -->
<g id="edge50" class="edge"><title>Node1&#45;&gt;Node29</title>
<path fill="none" stroke="midnightblue" d="M20.6414,-380.219C21.5652,-331.057 28.2883,-111.545 75,-67 105.027,-38.3662 154.197,-36.7885 189.717,-40.3771"/>
<polygon fill="midnightblue" stroke="midnightblue" points="189.464,-43.8715 199.806,-41.5698 190.286,-36.9199 189.464,-43.8715"/>
</g>
<!-- Node30 -->
<g id="node30" class="node"><title>Node30</title>
<g id="a_node30"><a xlink:href="../../d9/d2a/rle__putrow_8c.html#aa26532b01bc4f49b7383765cdc23ea72" target="_top" xlink:title="rle_putrow">
<polygon fill="white" stroke="black" points="82.5,-380.5 82.5,-399.5 148.5,-399.5 148.5,-380.5 82.5,-380.5"/>
<text text-anchor="middle" x="115.5" y="-387.5" font-family="Helvetica,sans-Serif" font-size="10.00">rle_putrow</text>
</a>
</g>
</g>
<!-- Node1&#45;&gt;Node30 -->
<g id="edge45" class="edge"><title>Node1&#45;&gt;Node30</title>
<path fill="none" stroke="midnightblue" d="M39.0714,-390C48.5894,-390 60.5989,-390 72.2197,-390"/>
<polygon fill="midnightblue" stroke="midnightblue" points="72.2595,-393.5 82.2594,-390 72.2594,-386.5 72.2595,-393.5"/>
</g>
<!-- Node32 -->
<g id="node32" class="node"><title>Node32</title>
<g id="a_node32"><a xlink:href="../../d9/d2a/rle__putrow_8c.html#af4fab734a5d227ad2ae95840f56fff3b" target="_top" xlink:title="rle_puteof">
<polygon fill="white" stroke="black" points="331,-760.5 331,-779.5 395,-779.5 395,-760.5 331,-760.5"/>
<text text-anchor="middle" x="363" y="-767.5" font-family="Helvetica,sans-Serif" font-size="10.00">rle_puteof</text>
</a>
</g>
</g>
<!-- Node1&#45;&gt;Node32 -->
<g id="edge48" class="edge"><title>Node1&#45;&gt;Node32</title>
<path fill="none" stroke="midnightblue" d="M21.2544,-399.719C24.8074,-443.254 41.1357,-620.015 75,-662 136.263,-737.954 256.93,-760.509 320.527,-767.194"/>
<polygon fill="midnightblue" stroke="midnightblue" points="320.307,-770.689 330.598,-768.169 320.982,-763.721 320.307,-770.689"/>
</g>
<!-- Node33 -->
<g id="node33" class="node"><title>Node33</title>
<g id="a_node33"><a xlink:href="../../da/dbc/rle__row__alc_8c.html#a4fa936a985e542d42e91d272f9f6092d" target="_top" xlink:title="rle_row_free">
<polygon fill="white" stroke="black" points="324.5,-836.5 324.5,-855.5 401.5,-855.5 401.5,-836.5 324.5,-836.5"/>
<text text-anchor="middle" x="363" y="-843.5" font-family="Helvetica,sans-Serif" font-size="10.00">rle_row_free</text>
</a>
</g>
</g>
<!-- Node1&#45;&gt;Node33 -->
<g id="edge51" class="edge"><title>Node1&#45;&gt;Node33</title>
<path fill="none" stroke="midnightblue" d="M21.0127,-399.879C24.3057,-461.514 43.3519,-791.656 75,-822 139.274,-883.625 253.01,-871.126 316.289,-857.809"/>
<polygon fill="midnightblue" stroke="midnightblue" points="317.357,-861.158 326.371,-855.59 315.852,-854.321 317.357,-861.158"/>
</g>
<!-- Node34 -->
<g id="node34" class="node"><title>Node34</title>
<g id="a_node34"><a xlink:href="../../d7/d24/rle__error_8c.html#af931d686cf3ca715c9b900527f0961c0" target="_top" xlink:title="rle_get_error">
<polygon fill="white" stroke="black" points="76,-0.5 76,-19.5 155,-19.5 155,-0.5 76,-0.5"/>
<text text-anchor="middle" x="115.5" y="-7.5" font-family="Helvetica,sans-Serif" font-size="10.00">rle_get_error</text>
</a>
</g>
</g>
<!-- Node1&#45;&gt;Node34 -->
<g id="edge54" class="edge"><title>Node1&#45;&gt;Node34</title>
<path fill="none" stroke="midnightblue" d="M20.8936,-380.283C23.1162,-329.354 35.4402,-93.2937 75,-34 77.1293,-30.8085 79.8411,-27.972 82.8435,-25.4692"/>
<polygon fill="midnightblue" stroke="midnightblue" points="85.0582,-28.1922 91.2693,-19.6089 81.0613,-22.4455 85.0582,-28.1922"/>
</g>
<!-- Node3 -->
<g id="node3" class="node"><title>Node3</title>
<g id="a_node3"><a xlink:href="../../d2/df3/rle__hdr_8c.html#a16c4da6201b3b8cf55127b9ca968d253" target="_top" xlink:title="rle_hdr_clear">
<polygon fill="white" stroke="black" points="323,-646.5 323,-665.5 403,-665.5 403,-646.5 323,-646.5"/>
<text text-anchor="middle" x="363" y="-653.5" font-family="Helvetica,sans-Serif" font-size="10.00">rle_hdr_clear</text>
</a>
</g>
</g>
<!-- Node2&#45;&gt;Node3 -->
<g id="edge2" class="edge"><title>Node2&#45;&gt;Node3</title>
<path fill="none" stroke="midnightblue" d="M120.895,-551.611C130.551,-571.483 155.684,-616.91 192,-637 228.778,-657.345 276.85,-661.002 312.487,-660.204"/>
<polygon fill="midnightblue" stroke="midnightblue" points="312.782,-663.696 322.654,-659.85 312.538,-656.701 312.782,-663.696"/>
</g>
<!-- Node2&#45;&gt;Node5 -->
<g id="edge4" class="edge"><title>Node2&#45;&gt;Node5</title>
<path fill="none" stroke="midnightblue" d="M150.51,-535.799C162.805,-535.209 176.853,-535.095 189.829,-535.455"/>
<polygon fill="midnightblue" stroke="midnightblue" points="189.824,-538.957 199.952,-535.846 190.094,-531.963 189.824,-538.957"/>
</g>
<!-- Node3&#45;&gt;Node4 -->
<g id="edge3" class="edge"><title>Node3&#45;&gt;Node4</title>
<path fill="none" stroke="midnightblue" d="M393.776,-665.589C412.813,-671.72 437.281,-679.599 455.618,-685.504"/>
<polygon fill="midnightblue" stroke="midnightblue" points="454.768,-688.907 465.359,-688.641 456.914,-682.244 454.768,-688.907"/>
</g>
<!-- Node5&#45;&gt;Node2 -->
<g id="edge5" class="edge"><title>Node5&#45;&gt;Node2</title>
<path fill="none" stroke="midnightblue" d="M199.952,-548.154C187.751,-548.768 173.722,-548.908 160.692,-548.572"/>
<polygon fill="midnightblue" stroke="midnightblue" points="160.631,-545.068 150.51,-548.201 160.376,-552.063 160.631,-545.068"/>
</g>
<!-- Node5&#45;&gt;Node6 -->
<g id="edge6" class="edge"><title>Node5&#45;&gt;Node6</title>
<path fill="none" stroke="midnightblue" d="M266.283,-532.375C313.328,-517.899 401.852,-490.661 449.565,-475.98"/>
<polygon fill="midnightblue" stroke="midnightblue" points="450.847,-479.247 459.376,-472.961 448.789,-472.557 450.847,-479.247"/>
</g>
<!-- Node5&#45;&gt;Node7 -->
<g id="edge7" class="edge"><title>Node5&#45;&gt;Node7</title>
<path fill="none" stroke="midnightblue" d="M268.036,-542C283.739,-542 302.699,-542 319.463,-542"/>
<polygon fill="midnightblue" stroke="midnightblue" points="319.569,-545.5 329.569,-542 319.569,-538.5 319.569,-545.5"/>
</g>
<!-- Node7&#45;&gt;Node4 -->
<g id="edge8" class="edge"><title>Node7&#45;&gt;Node4</title>
<path fill="none" stroke="midnightblue" d="M373.159,-551.834C383.427,-562.997 400.419,-581.881 414,-599 434.583,-624.945 456.573,-656.441 469.801,-675.852"/>
<polygon fill="midnightblue" stroke="midnightblue" points="467.041,-678.017 475.547,-684.333 472.836,-674.091 467.041,-678.017"/>
</g>
<!-- Node7&#45;&gt;Node6 -->
<g id="edge9" class="edge"><title>Node7&#45;&gt;Node6</title>
<path fill="none" stroke="midnightblue" d="M386.421,-532.433C395.232,-528.368 405.3,-523.336 414,-518 431.459,-507.291 449.827,-493.043 463.066,-482.169"/>
<polygon fill="midnightblue" stroke="midnightblue" points="465.526,-484.675 470.963,-475.582 461.042,-479.299 465.526,-484.675"/>
</g>
<!-- Node9 -->
<g id="node9" class="node"><title>Node9</title>
<g id="a_node9"><a xlink:href="../../d4/db0/scanargs_8c.html#a862219039664df6eb3cfced58addf830" target="_top" xlink:title="_do_scanargs">
<polygon fill="white" stroke="black" points="192,-266.5 192,-285.5 276,-285.5 276,-266.5 192,-266.5"/>
<text text-anchor="middle" x="234" y="-273.5" font-family="Helvetica,sans-Serif" font-size="10.00">_do_scanargs</text>
</a>
</g>
</g>
<!-- Node8&#45;&gt;Node9 -->
<g id="edge11" class="edge"><title>Node8&#45;&gt;Node9</title>
<path fill="none" stroke="midnightblue" d="M145.597,-304.509C160.332,-299.703 178.419,-293.803 194.309,-288.62"/>
<polygon fill="midnightblue" stroke="midnightblue" points="195.448,-291.93 203.87,-285.502 193.277,-285.275 195.448,-291.93"/>
</g>
<!-- Node11 -->
<g id="node11" class="node"><title>Node11</title>
<g id="a_node11"><a xlink:href="../../de/d4e/rle__open__f_8c.html#a5a0e62a00f907fce26e93b2f72adb2b0" target="_top" xlink:title="rle_open_f_noexit">
<polygon fill="white" stroke="black" points="312,-608.5 312,-627.5 414,-627.5 414,-608.5 312,-608.5"/>
<text text-anchor="middle" x="363" y="-615.5" font-family="Helvetica,sans-Serif" font-size="10.00">rle_open_f_noexit</text>
</a>
</g>
</g>
<!-- Node10&#45;&gt;Node11 -->
<g id="edge13" class="edge"><title>Node10&#45;&gt;Node11</title>
<path fill="none" stroke="midnightblue" d="M268.036,-618C278.382,-618 290.141,-618 301.755,-618"/>
<polygon fill="midnightblue" stroke="midnightblue" points="301.885,-621.5 311.885,-618 301.885,-614.5 301.885,-621.5"/>
</g>
<!-- Node11&#45;&gt;Node4 -->
<g id="edge16" class="edge"><title>Node11&#45;&gt;Node4</title>
<path fill="none" stroke="midnightblue" d="M394.104,-627.572C400.851,-630.223 407.832,-633.383 414,-637 433.147,-648.229 452.284,-664.876 465.355,-677.284"/>
<polygon fill="midnightblue" stroke="midnightblue" points="463.044,-679.918 472.656,-684.375 467.921,-674.897 463.044,-679.918"/>
</g>
<!-- Node11&#45;&gt;Node6 -->
<g id="edge15" class="edge"><title>Node11&#45;&gt;Node6</title>
<path fill="none" stroke="midnightblue" d="M391.92,-608.383C399.713,-604.749 407.749,-600.001 414,-594 446.531,-562.77 466.84,-512.537 476.097,-485.211"/>
<polygon fill="midnightblue" stroke="midnightblue" points="479.446,-486.231 479.201,-475.638 472.787,-484.071 479.446,-486.231"/>
</g>
<!-- Node12 -->
<g id="node12" class="node"><title>Node12</title>
<g id="a_node12"><a xlink:href="../../de/d4e/rle__open__f_8c.html#a84fda810ae9b9bde82a6391d0b264ead" target="_top" xlink:title="my_popen">
<polygon fill="white" stroke="black" points="450,-608.5 450,-627.5 516,-627.5 516,-608.5 450,-608.5"/>
<text text-anchor="middle" x="483" y="-615.5" font-family="Helvetica,sans-Serif" font-size="10.00">my_popen</text>
</a>
</g>
</g>
<!-- Node11&#45;&gt;Node12 -->
<g id="edge14" class="edge"><title>Node11&#45;&gt;Node12</title>
<path fill="none" stroke="midnightblue" d="M414.043,-618C422.523,-618 431.255,-618 439.518,-618"/>
<polygon fill="midnightblue" stroke="midnightblue" points="439.678,-621.5 449.678,-618 439.678,-614.5 439.678,-621.5"/>
</g>
<!-- Node14&#45;&gt;Node3 -->
<g id="edge20" class="edge"><title>Node14&#45;&gt;Node3</title>
<path fill="none" stroke="midnightblue" d="M267.047,-684.411C283.141,-679.596 302.841,-673.701 320.117,-668.532"/>
<polygon fill="midnightblue" stroke="midnightblue" points="321.386,-671.806 329.963,-665.586 319.379,-665.099 321.386,-671.806"/>
</g>
<!-- Node14&#45;&gt;Node4 -->
<g id="edge23" class="edge"><title>Node14&#45;&gt;Node4</title>
<path fill="none" stroke="midnightblue" d="M266.15,-703.506C280.04,-707.27 296.691,-711.139 312,-713 357.002,-718.47 369.087,-719.157 414,-713 427.947,-711.088 443.065,-707.068 455.497,-703.216"/>
<polygon fill="midnightblue" stroke="midnightblue" points="456.786,-706.477 465.224,-700.069 454.632,-699.817 456.786,-706.477"/>
</g>
<!-- Node14&#45;&gt;Node6 -->
<g id="edge22" class="edge"><title>Node14&#45;&gt;Node6</title>
<path fill="none" stroke="midnightblue" d="M241.736,-684.453C257.087,-662.915 294.674,-611.452 312,-599 351.284,-570.768 375.578,-590.396 414,-561 441.118,-540.253 461.975,-505.713 473.08,-484.491"/>
<polygon fill="midnightblue" stroke="midnightblue" points="476.227,-486.022 477.608,-475.518 469.978,-482.868 476.227,-486.022"/>
</g>
<!-- Node14&#45;&gt;Node7 -->
<g id="edge21" class="edge"><title>Node14&#45;&gt;Node7</title>
<path fill="none" stroke="midnightblue" d="M242.741,-684.229C251.367,-673.123 265.485,-654.289 276,-637 294.384,-606.771 286.712,-590.744 312,-566 315.774,-562.307 320.226,-559.094 324.893,-556.326"/>
<polygon fill="midnightblue" stroke="midnightblue" points="326.78,-559.289 334.007,-551.542 323.526,-553.091 326.78,-559.289"/>
</g>
<!-- Node15 -->
<g id="node15" class="node"><title>Node15</title>
<g id="a_node15"><a xlink:href="../../db/d53/rle__getrow_8c.html#a0ea68aa2ebeef9d4cade7282553b03d6" target="_top" xlink:title="vax_gshort">
<polygon fill="white" stroke="black" points="328.5,-684.5 328.5,-703.5 397.5,-703.5 397.5,-684.5 328.5,-684.5"/>
<text text-anchor="middle" x="363" y="-691.5" font-family="Helvetica,sans-Serif" font-size="10.00">vax_gshort</text>
</a>
</g>
</g>
<!-- Node14&#45;&gt;Node15 -->
<g id="edge24" class="edge"><title>Node14&#45;&gt;Node15</title>
<path fill="none" stroke="midnightblue" d="M274.835,-694C288.516,-694 303.906,-694 317.905,-694"/>
<polygon fill="midnightblue" stroke="midnightblue" points="318.287,-697.5 328.287,-694 318.287,-690.5 318.287,-697.5"/>
</g>
<!-- Node16&#45;&gt;Node6 -->
<g id="edge29" class="edge"><title>Node16&#45;&gt;Node6</title>
<path fill="none" stroke="midnightblue" d="M268.511,-323.073C313.467,-335.668 390.391,-358.837 414,-376 440.272,-395.099 461.045,-427.228 472.417,-447.487"/>
<polygon fill="midnightblue" stroke="midnightblue" points="469.387,-449.242 477.227,-456.369 475.542,-445.909 469.387,-449.242"/>
</g>
<!-- Node17 -->
<g id="node17" class="node"><title>Node17</title>
<g id="a_node17"><a xlink:href="../../db/db2/rle__getcom_8c.html#a9cefd612c381bf82c9cdf1f3a3b12dd6" target="_top" xlink:title="rle_getcom">
<polygon fill="white" stroke="black" points="328.5,-266.5 328.5,-285.5 397.5,-285.5 397.5,-266.5 328.5,-266.5"/>
<text text-anchor="middle" x="363" y="-273.5" font-family="Helvetica,sans-Serif" font-size="10.00">rle_getcom</text>
</a>
</g>
</g>
<!-- Node16&#45;&gt;Node17 -->
<g id="edge27" class="edge"><title>Node16&#45;&gt;Node17</title>
<path fill="none" stroke="midnightblue" d="M267.047,-304.411C283.141,-299.596 302.841,-293.701 320.117,-288.532"/>
<polygon fill="midnightblue" stroke="midnightblue" points="321.386,-291.806 329.963,-285.586 319.379,-285.099 321.386,-291.806"/>
</g>
<!-- Node19 -->
<g id="node19" class="node"><title>Node19</title>
<g id="a_node19"><a xlink:href="../../df/da5/rle__putcom_8c.html#a6fa8528c32d14763efe2a534e409e321" target="_top" xlink:title="rle_putcom">
<polygon fill="white" stroke="black" points="329,-304.5 329,-323.5 397,-323.5 397,-304.5 329,-304.5"/>
<text text-anchor="middle" x="363" y="-311.5" font-family="Helvetica,sans-Serif" font-size="10.00">rle_putcom</text>
</a>
</g>
</g>
<!-- Node16&#45;&gt;Node19 -->
<g id="edge30" class="edge"><title>Node16&#45;&gt;Node19</title>
<path fill="none" stroke="midnightblue" d="M268.7,-314C283.891,-314 302.024,-314 318.248,-314"/>
<polygon fill="midnightblue" stroke="midnightblue" points="318.583,-317.5 328.583,-314 318.583,-310.5 318.583,-317.5"/>
</g>
<!-- Node18 -->
<g id="node18" class="node"><title>Node18</title>
<g id="a_node18"><a xlink:href="../../db/db2/rle__getcom_8c.html#a7502c8b599724ce86fee5df1311a2337" target="_top" xlink:title="match">
<polygon fill="white" stroke="black" points="460.5,-266.5 460.5,-285.5 505.5,-285.5 505.5,-266.5 460.5,-266.5"/>
<text text-anchor="middle" x="483" y="-273.5" font-family="Helvetica,sans-Serif" font-size="10.00">match</text>
</a>
</g>
</g>
<!-- Node17&#45;&gt;Node18 -->
<g id="edge28" class="edge"><title>Node17&#45;&gt;Node18</title>
<path fill="none" stroke="midnightblue" d="M397.814,-276C414.35,-276 434.136,-276 450.37,-276"/>
<polygon fill="midnightblue" stroke="midnightblue" points="450.456,-279.5 460.456,-276 450.456,-272.5 450.456,-279.5"/>
</g>
<!-- Node19&#45;&gt;Node6 -->
<g id="edge31" class="edge"><title>Node19&#45;&gt;Node6</title>
<path fill="none" stroke="midnightblue" d="M391.92,-323.617C399.713,-327.251 407.749,-331.999 414,-338 446.531,-369.23 466.84,-419.463 476.097,-446.789"/>
<polygon fill="midnightblue" stroke="midnightblue" points="472.787,-447.929 479.201,-456.362 479.446,-445.769 472.787,-447.929"/>
</g>
<!-- Node20 -->
<g id="node20" class="node"><title>Node20</title>
<g id="a_node20"><a xlink:href="../../df/da5/rle__putcom_8c.html#a7502c8b599724ce86fee5df1311a2337" target="_top" xlink:title="match">
<polygon fill="white" stroke="black" points="460.5,-304.5 460.5,-323.5 505.5,-323.5 505.5,-304.5 460.5,-304.5"/>
<text text-anchor="middle" x="483" y="-311.5" font-family="Helvetica,sans-Serif" font-size="10.00">match</text>
</a>
</g>
</g>
<!-- Node19&#45;&gt;Node20 -->
<g id="edge32" class="edge"><title>Node19&#45;&gt;Node20</title>
<path fill="none" stroke="midnightblue" d="M397.184,-314C413.735,-314 433.664,-314 450.044,-314"/>
<polygon fill="midnightblue" stroke="midnightblue" points="450.224,-317.5 460.224,-314 450.224,-310.5 450.224,-317.5"/>
</g>
<!-- Node24 -->
<g id="node24" class="node"><title>Node24</title>
<g id="a_node24"><a xlink:href="../../d9/d2a/rle__putrow_8c.html#a46d9789104d5d1f09253a808fdad5346" target="_top" xlink:title="rle_put_init">
<polygon fill="white" stroke="black" points="200,-152.5 200,-171.5 268,-171.5 268,-152.5 200,-152.5"/>
<text text-anchor="middle" x="234" y="-159.5" font-family="Helvetica,sans-Serif" font-size="10.00">rle_put_init</text>
</a>
</g>
</g>
<!-- Node23&#45;&gt;Node24 -->
<g id="edge36" class="edge"><title>Node23&#45;&gt;Node24</title>
<path fill="none" stroke="midnightblue" d="M155.617,-162C166.437,-162 178.248,-162 189.31,-162"/>
<polygon fill="midnightblue" stroke="midnightblue" points="189.63,-165.5 199.63,-162 189.63,-158.5 189.63,-165.5"/>
</g>
<!-- Node25&#45;&gt;Node4 -->
<g id="edge39" class="edge"><title>Node25&#45;&gt;Node4</title>
<path fill="none" stroke="midnightblue" d="M374.626,-475.506C385.865,-486.088 403.405,-504.19 414,-523 440.076,-569.294 428.883,-588.244 450,-637 455.791,-650.37 463.822,-664.667 470.39,-675.597"/>
<polygon fill="midnightblue" stroke="midnightblue" points="467.475,-677.54 475.692,-684.228 473.44,-673.876 467.475,-677.54"/>
</g>
<!-- Node25&#45;&gt;Node6 -->
<g id="edge38" class="edge"><title>Node25&#45;&gt;Node6</title>
<path fill="none" stroke="midnightblue" d="M403.292,-466C418.145,-466 434.879,-466 449.087,-466"/>
<polygon fill="midnightblue" stroke="midnightblue" points="449.386,-469.5 459.386,-466 449.386,-462.5 449.386,-469.5"/>
</g>
<!-- Node28 -->
<g id="node28" class="node"><title>Node28</title>
<g id="a_node28"><a xlink:href="../../db/d53/rle__getrow_8c.html#a61ac0da96b0dd8bc3cbc98afcd9b5c44" target="_top" xlink:title="bfill">
<polygon fill="white" stroke="black" points="218,-76.5 218,-95.5 250,-95.5 250,-76.5 218,-76.5"/>
<text text-anchor="middle" x="234" y="-83.5" font-family="Helvetica,sans-Serif" font-size="10.00">bfill</text>
</a>
</g>
</g>
<!-- Node27&#45;&gt;Node28 -->
<g id="edge43" class="edge"><title>Node27&#45;&gt;Node28</title>
<path fill="none" stroke="midnightblue" d="M149.262,-86C167.701,-86 190.385,-86 207.49,-86"/>
<polygon fill="midnightblue" stroke="midnightblue" points="207.825,-89.5001 217.825,-86 207.825,-82.5001 207.825,-89.5001"/>
</g>
<!-- Node27&#45;&gt;Node29 -->
<g id="edge44" class="edge"><title>Node27&#45;&gt;Node29</title>
<path fill="none" stroke="midnightblue" d="M145.898,-76.411C160.385,-71.6856 178.058,-65.9211 193.689,-60.8226"/>
<polygon fill="midnightblue" stroke="midnightblue" points="195.19,-64.0145 203.612,-57.5859 193.019,-57.3595 195.19,-64.0145"/>
</g>
<!-- Node30&#45;&gt;Node6 -->
<g id="edge46" class="edge"><title>Node30&#45;&gt;Node6</title>
<path fill="none" stroke="midnightblue" d="M148.624,-386.822C204.617,-382.521 322.818,-378.982 414,-414 433.803,-421.605 452.662,-436.895 465.474,-448.936"/>
<polygon fill="midnightblue" stroke="midnightblue" points="463.373,-451.776 472.97,-456.266 468.267,-446.772 463.373,-451.776"/>
</g>
<!-- Node31 -->
<g id="node31" class="node"><title>Node31</title>
<g id="a_node31"><a xlink:href="../../d9/d2a/rle__putrow_8c.html#aaa4133bf4a6cbf287444448497631f26" target="_top" xlink:title="findruns">
<polygon fill="white" stroke="black" points="207,-342.5 207,-361.5 261,-361.5 261,-342.5 207,-342.5"/>
<text text-anchor="middle" x="234" y="-349.5" font-family="Helvetica,sans-Serif" font-size="10.00">findruns</text>
</a>
</g>
</g>
<!-- Node30&#45;&gt;Node31 -->
<g id="edge47" class="edge"><title>Node30&#45;&gt;Node31</title>
<path fill="none" stroke="midnightblue" d="M145.898,-380.411C161.416,-375.349 180.589,-369.095 196.993,-363.745"/>
<polygon fill="midnightblue" stroke="midnightblue" points="198.37,-366.977 206.792,-360.549 196.199,-360.322 198.37,-366.977"/>
</g>
<!-- Node32&#45;&gt;Node4 -->
<g id="edge49" class="edge"><title>Node32&#45;&gt;Node4</title>
<path fill="none" stroke="midnightblue" d="M386.421,-760.433C395.232,-756.368 405.3,-751.336 414,-746 431.459,-735.291 449.827,-721.043 463.066,-710.169"/>
<polygon fill="midnightblue" stroke="midnightblue" points="465.526,-712.675 470.963,-703.582 461.042,-707.299 465.526,-712.675"/>
</g>
<!-- Node33&#45;&gt;Node4 -->
<g id="edge52" class="edge"><title>Node33&#45;&gt;Node4</title>
<path fill="none" stroke="midnightblue" d="M391.92,-836.383C399.713,-832.749 407.749,-828.001 414,-822 446.531,-790.77 466.84,-740.537 476.097,-713.211"/>
<polygon fill="midnightblue" stroke="midnightblue" points="479.446,-714.231 479.201,-703.638 472.787,-712.071 479.446,-714.231"/>
</g>
</g>
</svg>
