<?xml version="1.0" encoding="UTF-8" standalone="no"?>
<!DOCTYPE svg PUBLIC "-//W3C//DTD SVG 1.1//EN"
 "http://www.w3.org/Graphics/SVG/1.1/DTD/svg11.dtd">
<!-- Generated by graphviz version 2.38.0 (20140413.2041)
 -->
<!-- Title: setgamma Pages: 1 -->
<svg width="544pt" height="199pt"
 viewBox="0.00 0.00 544.00 199.00" xmlns="http://www.w3.org/2000/svg" xmlns:xlink="http://www.w3.org/1999/xlink">
<g id="graph0" class="graph" transform="scale(1 1) rotate(0) translate(4 195)">
<title>setgamma</title>
<polygon fill="white" stroke="none" points="-4,4 -4,-195 540,-195 540,4 -4,4"/>
<!-- Node1 -->
<g id="node1" class="node"><title>Node1</title>
<polygon fill="#bfbfbf" stroke="black" points="0,-171.5 0,-190.5 65,-190.5 65,-171.5 0,-171.5"/>
<text text-anchor="middle" x="32.5" y="-178.5" font-family="Helvetica,sans-Serif" font-size="10.00">setgamma</text>
</g>
<!-- Node2 -->
<g id="node2" class="node"><title>Node2</title>
<g id="a_node2"><a xlink:href="../../dc/d7d/getmex_8c.html#af8e2ce36b12570f5ffdca44dbc3dd2ac" target="_top" xlink:title="configopen">
<polygon fill="white" stroke="black" points="467,-133.5 467,-152.5 536,-152.5 536,-133.5 467,-133.5"/>
<text text-anchor="middle" x="501.5" y="-140.5" font-family="Helvetica,sans-Serif" font-size="10.00">configopen</text>
</a>
</g>
</g>
<!-- Node1&#45;&gt;Node2 -->
<g id="edge1" class="edge"><title>Node1&#45;&gt;Node2</title>
<path fill="none" stroke="midnightblue" d="M65.2241,-182.135C132.97,-183.98 296.562,-185.35 431,-162 440.696,-160.316 450.996,-157.873 460.613,-155.296"/>
<polygon fill="midnightblue" stroke="midnightblue" points="461.64,-158.643 470.334,-152.588 459.762,-151.9 461.64,-158.643"/>
</g>
<!-- Node3 -->
<g id="node3" class="node"><title>Node3</title>
<g id="a_node3"><a xlink:href="../../dc/d7d/getmex_8c.html#a44422ba36be617961c8358e4c6c6493f" target="_top" xlink:title="newgamtables">
<polygon fill="white" stroke="black" points="101,-152.5 101,-171.5 185,-171.5 185,-152.5 101,-152.5"/>
<text text-anchor="middle" x="143" y="-159.5" font-family="Helvetica,sans-Serif" font-size="10.00">newgamtables</text>
</a>
</g>
</g>
<!-- Node1&#45;&gt;Node3 -->
<g id="edge2" class="edge"><title>Node1&#45;&gt;Node3</title>
<path fill="none" stroke="midnightblue" d="M65.1744,-175.453C73.1768,-174.052 81.9768,-172.511 90.6763,-170.988"/>
<polygon fill="midnightblue" stroke="midnightblue" points="91.5422,-174.389 100.789,-169.217 90.3348,-167.494 91.5422,-174.389"/>
</g>
<!-- Node3&#45;&gt;Node2 -->
<g id="edge3" class="edge"><title>Node3&#45;&gt;Node2</title>
<path fill="none" stroke="midnightblue" d="M185.243,-159.802C252.973,-156.192 387.156,-149.041 456.587,-145.34"/>
<polygon fill="midnightblue" stroke="midnightblue" points="456.951,-148.826 466.75,-144.799 456.578,-141.836 456.951,-148.826"/>
</g>
<!-- Node4 -->
<g id="node4" class="node"><title>Node4</title>
<g id="a_node4"><a xlink:href="../../dc/d7d/getmex_8c.html#a7a52688f5e3f7cd177646dad2d9264e8" target="_top" xlink:title="makegamtables">
<polygon fill="white" stroke="black" points="221,-76.5 221,-95.5 311,-95.5 311,-76.5 221,-76.5"/>
<text text-anchor="middle" x="266" y="-83.5" font-family="Helvetica,sans-Serif" font-size="10.00">makegamtables</text>
</a>
</g>
</g>
<!-- Node3&#45;&gt;Node4 -->
<g id="edge4" class="edge"><title>Node3&#45;&gt;Node4</title>
<path fill="none" stroke="midnightblue" d="M159.325,-152.375C179.963,-139.412 216.896,-116.214 241.175,-100.965"/>
<polygon fill="midnightblue" stroke="midnightblue" points="243.193,-103.83 249.8,-95.5473 239.47,-97.9023 243.193,-103.83"/>
</g>
<!-- Node5 -->
<g id="node5" class="node"><title>Node5</title>
<g id="a_node5"><a xlink:href="../../dc/d7d/getmex_8c.html#ad8c820b1c7e80acfc6b59ab053e8cda9" target="_top" xlink:title="getgamma">
<polygon fill="white" stroke="black" points="356,-114.5 356,-133.5 422,-133.5 422,-114.5 356,-114.5"/>
<text text-anchor="middle" x="389" y="-121.5" font-family="Helvetica,sans-Serif" font-size="10.00">getgamma</text>
</a>
</g>
</g>
<!-- Node4&#45;&gt;Node5 -->
<g id="edge5" class="edge"><title>Node4&#45;&gt;Node5</title>
<path fill="none" stroke="midnightblue" d="M297.533,-95.589C312.723,-100.359 331.285,-106.189 347.633,-111.323"/>
<polygon fill="midnightblue" stroke="midnightblue" points="346.887,-114.757 357.476,-114.414 348.984,-108.079 346.887,-114.757"/>
</g>
<!-- Node6 -->
<g id="node6" class="node"><title>Node6</title>
<g id="a_node6"><a xlink:href="../../dc/d7d/getmex_8c.html#a3adffe2617d1fcab5a4af2a350f96da2" target="_top" xlink:title="getcolorbal">
<polygon fill="white" stroke="black" points="355,-76.5 355,-95.5 423,-95.5 423,-76.5 355,-76.5"/>
<text text-anchor="middle" x="389" y="-83.5" font-family="Helvetica,sans-Serif" font-size="10.00">getcolorbal</text>
</a>
</g>
</g>
<!-- Node4&#45;&gt;Node6 -->
<g id="edge7" class="edge"><title>Node4&#45;&gt;Node6</title>
<path fill="none" stroke="midnightblue" d="M311.026,-86C321.984,-86 333.723,-86 344.649,-86"/>
<polygon fill="midnightblue" stroke="midnightblue" points="344.822,-89.5001 354.822,-86 344.822,-82.5001 344.822,-89.5001"/>
</g>
<!-- Node7 -->
<g id="node7" class="node"><title>Node7</title>
<g id="a_node7"><a xlink:href="../../dc/d7d/getmex_8c.html#a0593424f3bce9586fb0bb0177266bd2b" target="_top" xlink:title="gammacorrect">
<polygon fill="white" stroke="black" points="347,-38.5 347,-57.5 431,-57.5 431,-38.5 347,-38.5"/>
<text text-anchor="middle" x="389" y="-45.5" font-family="Helvetica,sans-Serif" font-size="10.00">gammacorrect</text>
</a>
</g>
</g>
<!-- Node4&#45;&gt;Node7 -->
<g id="edge9" class="edge"><title>Node4&#45;&gt;Node7</title>
<path fill="none" stroke="midnightblue" d="M297.533,-76.411C312.723,-71.6406 331.285,-65.8112 347.633,-60.6771"/>
<polygon fill="midnightblue" stroke="midnightblue" points="348.984,-63.9214 357.476,-57.5859 346.887,-57.243 348.984,-63.9214"/>
</g>
<!-- Node8 -->
<g id="node8" class="node"><title>Node8</title>
<g id="a_node8"><a xlink:href="../../dc/d7d/getmex_8c.html#aabe1c81804655629d58f531a60aa7f9c" target="_top" xlink:title="fixup">
<polygon fill="white" stroke="black" points="370,-0.5 370,-19.5 408,-19.5 408,-0.5 370,-0.5"/>
<text text-anchor="middle" x="389" y="-7.5" font-family="Helvetica,sans-Serif" font-size="10.00">fixup</text>
</a>
</g>
</g>
<!-- Node4&#45;&gt;Node8 -->
<g id="edge10" class="edge"><title>Node4&#45;&gt;Node8</title>
<path fill="none" stroke="midnightblue" d="M278.996,-76.3775C294.244,-64.4039 321.64,-43.7401 347,-29 351.269,-26.5188 355.917,-24.1092 360.5,-21.8859"/>
<polygon fill="midnightblue" stroke="midnightblue" points="362.08,-25.011 369.672,-17.621 359.129,-18.6636 362.08,-25.011"/>
</g>
<!-- Node5&#45;&gt;Node2 -->
<g id="edge6" class="edge"><title>Node5&#45;&gt;Node2</title>
<path fill="none" stroke="midnightblue" d="M422.258,-129.547C433.098,-131.41 445.374,-133.521 456.935,-135.509"/>
<polygon fill="midnightblue" stroke="midnightblue" points="456.408,-138.97 466.856,-137.215 457.594,-132.071 456.408,-138.97"/>
</g>
<!-- Node6&#45;&gt;Node2 -->
<g id="edge8" class="edge"><title>Node6&#45;&gt;Node2</title>
<path fill="none" stroke="midnightblue" d="M411.409,-95.5952C417.757,-98.5279 424.696,-101.82 431,-105 445.722,-112.425 461.898,-121.231 474.938,-128.495"/>
<polygon fill="midnightblue" stroke="midnightblue" points="473.379,-131.633 483.813,-133.47 476.802,-125.527 473.379,-131.633"/>
</g>
</g>
</svg>
