<?xml version="1.0" encoding="UTF-8" standalone="no"?>
<!DOCTYPE svg PUBLIC "-//W3C//DTD SVG 1.1//EN"
 "http://www.w3.org/Graphics/SVG/1.1/DTD/svg11.dtd">
<!-- Generated by graphviz version 2.38.0 (20140413.2041)
 -->
<!-- Title: newgamtables Pages: 1 -->
<svg width="443pt" height="156pt"
 viewBox="0.00 0.00 443.00 155.77" xmlns="http://www.w3.org/2000/svg" xmlns:xlink="http://www.w3.org/1999/xlink">
<g id="graph0" class="graph" transform="scale(1 1) rotate(0) translate(4 151.766)">
<title>newgamtables</title>
<polygon fill="white" stroke="none" points="-4,4 -4,-151.766 439,-151.766 439,4 -4,4"/>
<!-- Node1 -->
<g id="node1" class="node"><title>Node1</title>
<polygon fill="#bfbfbf" stroke="black" points="0,-114.5 0,-133.5 84,-133.5 84,-114.5 0,-114.5"/>
<text text-anchor="middle" x="42" y="-121.5" font-family="Helvetica,sans-Serif" font-size="10.00">newgamtables</text>
</g>
<!-- Node2 -->
<g id="node2" class="node"><title>Node2</title>
<g id="a_node2"><a xlink:href="../../dc/d7d/getmex_8c.html#af8e2ce36b12570f5ffdca44dbc3dd2ac" target="_top" xlink:title="configopen">
<polygon fill="white" stroke="black" points="366,-114.5 366,-133.5 435,-133.5 435,-114.5 366,-114.5"/>
<text text-anchor="middle" x="400.5" y="-121.5" font-family="Helvetica,sans-Serif" font-size="10.00">configopen</text>
</a>
</g>
</g>
<!-- Node1&#45;&gt;Node2 -->
<g id="edge1" class="edge"><title>Node1&#45;&gt;Node2</title>
<path fill="none" stroke="midnightblue" d="M84.0458,-131.832C139.907,-141.327 242.895,-154.692 330,-143 340.414,-141.602 351.477,-139.076 361.641,-136.312"/>
<polygon fill="midnightblue" stroke="midnightblue" points="362.799,-139.622 371.448,-133.503 360.871,-132.892 362.799,-139.622"/>
</g>
<!-- Node3 -->
<g id="node3" class="node"><title>Node3</title>
<g id="a_node3"><a xlink:href="../../dc/d7d/getmex_8c.html#a7a52688f5e3f7cd177646dad2d9264e8" target="_top" xlink:title="makegamtables">
<polygon fill="white" stroke="black" points="120,-76.5 120,-95.5 210,-95.5 210,-76.5 120,-76.5"/>
<text text-anchor="middle" x="165" y="-83.5" font-family="Helvetica,sans-Serif" font-size="10.00">makegamtables</text>
</a>
</g>
</g>
<!-- Node1&#45;&gt;Node3 -->
<g id="edge2" class="edge"><title>Node1&#45;&gt;Node3</title>
<path fill="none" stroke="midnightblue" d="M73.5334,-114.411C88.7234,-109.641 107.285,-103.811 123.633,-98.6771"/>
<polygon fill="midnightblue" stroke="midnightblue" points="124.984,-101.921 133.476,-95.5859 122.887,-95.243 124.984,-101.921"/>
</g>
<!-- Node4 -->
<g id="node4" class="node"><title>Node4</title>
<g id="a_node4"><a xlink:href="../../dc/d7d/getmex_8c.html#ad8c820b1c7e80acfc6b59ab053e8cda9" target="_top" xlink:title="getgamma">
<polygon fill="white" stroke="black" points="255,-114.5 255,-133.5 321,-133.5 321,-114.5 255,-114.5"/>
<text text-anchor="middle" x="288" y="-121.5" font-family="Helvetica,sans-Serif" font-size="10.00">getgamma</text>
</a>
</g>
</g>
<!-- Node3&#45;&gt;Node4 -->
<g id="edge3" class="edge"><title>Node3&#45;&gt;Node4</title>
<path fill="none" stroke="midnightblue" d="M196.533,-95.589C211.723,-100.359 230.285,-106.189 246.633,-111.323"/>
<polygon fill="midnightblue" stroke="midnightblue" points="245.887,-114.757 256.476,-114.414 247.984,-108.079 245.887,-114.757"/>
</g>
<!-- Node5 -->
<g id="node5" class="node"><title>Node5</title>
<g id="a_node5"><a xlink:href="../../dc/d7d/getmex_8c.html#a3adffe2617d1fcab5a4af2a350f96da2" target="_top" xlink:title="getcolorbal">
<polygon fill="white" stroke="black" points="254,-76.5 254,-95.5 322,-95.5 322,-76.5 254,-76.5"/>
<text text-anchor="middle" x="288" y="-83.5" font-family="Helvetica,sans-Serif" font-size="10.00">getcolorbal</text>
</a>
</g>
</g>
<!-- Node3&#45;&gt;Node5 -->
<g id="edge5" class="edge"><title>Node3&#45;&gt;Node5</title>
<path fill="none" stroke="midnightblue" d="M210.026,-86C220.984,-86 232.723,-86 243.649,-86"/>
<polygon fill="midnightblue" stroke="midnightblue" points="243.822,-89.5001 253.822,-86 243.822,-82.5001 243.822,-89.5001"/>
</g>
<!-- Node6 -->
<g id="node6" class="node"><title>Node6</title>
<g id="a_node6"><a xlink:href="../../dc/d7d/getmex_8c.html#a0593424f3bce9586fb0bb0177266bd2b" target="_top" xlink:title="gammacorrect">
<polygon fill="white" stroke="black" points="246,-38.5 246,-57.5 330,-57.5 330,-38.5 246,-38.5"/>
<text text-anchor="middle" x="288" y="-45.5" font-family="Helvetica,sans-Serif" font-size="10.00">gammacorrect</text>
</a>
</g>
</g>
<!-- Node3&#45;&gt;Node6 -->
<g id="edge7" class="edge"><title>Node3&#45;&gt;Node6</title>
<path fill="none" stroke="midnightblue" d="M196.533,-76.411C211.723,-71.6406 230.285,-65.8112 246.633,-60.6771"/>
<polygon fill="midnightblue" stroke="midnightblue" points="247.984,-63.9214 256.476,-57.5859 245.887,-57.243 247.984,-63.9214"/>
</g>
<!-- Node7 -->
<g id="node7" class="node"><title>Node7</title>
<g id="a_node7"><a xlink:href="../../dc/d7d/getmex_8c.html#aabe1c81804655629d58f531a60aa7f9c" target="_top" xlink:title="fixup">
<polygon fill="white" stroke="black" points="269,-0.5 269,-19.5 307,-19.5 307,-0.5 269,-0.5"/>
<text text-anchor="middle" x="288" y="-7.5" font-family="Helvetica,sans-Serif" font-size="10.00">fixup</text>
</a>
</g>
</g>
<!-- Node3&#45;&gt;Node7 -->
<g id="edge8" class="edge"><title>Node3&#45;&gt;Node7</title>
<path fill="none" stroke="midnightblue" d="M177.996,-76.3775C193.244,-64.4039 220.64,-43.7401 246,-29 250.269,-26.5188 254.917,-24.1092 259.5,-21.8859"/>
<polygon fill="midnightblue" stroke="midnightblue" points="261.08,-25.011 268.672,-17.621 258.129,-18.6636 261.08,-25.011"/>
</g>
<!-- Node4&#45;&gt;Node2 -->
<g id="edge4" class="edge"><title>Node4&#45;&gt;Node2</title>
<path fill="none" stroke="midnightblue" d="M321.258,-124C331.988,-124 344.126,-124 355.584,-124"/>
<polygon fill="midnightblue" stroke="midnightblue" points="355.856,-127.5 365.856,-124 355.856,-120.5 355.856,-127.5"/>
</g>
<!-- Node5&#45;&gt;Node2 -->
<g id="edge6" class="edge"><title>Node5&#45;&gt;Node2</title>
<path fill="none" stroke="midnightblue" d="M316.884,-95.589C330.494,-100.269 347.068,-105.969 361.789,-111.032"/>
<polygon fill="midnightblue" stroke="midnightblue" points="361.03,-114.472 371.625,-114.414 363.307,-107.852 361.03,-114.472"/>
</g>
</g>
</svg>
