<?xml version="1.0" encoding="UTF-8" standalone="no"?>
<!DOCTYPE svg PUBLIC "-//W3C//DTD SVG 1.1//EN"
 "http://www.w3.org/Graphics/SVG/1.1/DTD/svg11.dtd">
<!-- Generated by graphviz version 2.38.0 (20140413.2041)
 -->
<!-- Title: makegamtables Pages: 1 -->
<svg width="719pt" height="123pt"
 viewBox="0.00 0.00 719.00 123.00" xmlns="http://www.w3.org/2000/svg" xmlns:xlink="http://www.w3.org/1999/xlink">
<g id="graph0" class="graph" transform="scale(1 1) rotate(0) translate(4 119)">
<title>makegamtables</title>
<polygon fill="white" stroke="none" points="-4,4 -4,-119 715,-119 715,4 -4,4"/>
<!-- Node1 -->
<g id="node1" class="node"><title>Node1</title>
<polygon fill="#bfbfbf" stroke="black" points="0,-38.5 0,-57.5 90,-57.5 90,-38.5 0,-38.5"/>
<text text-anchor="middle" x="45" y="-45.5" font-family="Helvetica,sans-Serif" font-size="10.00">makegamtables</text>
</g>
<!-- Node2 -->
<g id="node2" class="node"><title>Node2</title>
<g id="a_node2"><a xlink:href="../../dc/d7d/getmex_8c.html#a44422ba36be617961c8358e4c6c6493f" target="_top" xlink:title="newgamtables">
<polygon fill="white" stroke="black" points="126,-38.5 126,-57.5 210,-57.5 210,-38.5 126,-38.5"/>
<text text-anchor="middle" x="168" y="-45.5" font-family="Helvetica,sans-Serif" font-size="10.00">newgamtables</text>
</a>
</g>
</g>
<!-- Node1&#45;&gt;Node2 -->
<g id="edge1" class="edge"><title>Node1&#45;&gt;Node2</title>
<path fill="none" stroke="midnightblue" d="M100.279,-48C108.79,-48 117.466,-48 125.626,-48"/>
<polygon fill="midnightblue" stroke="midnightblue" points="100.026,-44.5001 90.0261,-48 100.026,-51.5001 100.026,-44.5001"/>
</g>
<!-- Node3 -->
<g id="node3" class="node"><title>Node3</title>
<g id="a_node3"><a xlink:href="../../dc/d7d/getmex_8c.html#a7bd62b2f233986de9c4a596a30ed1213" target="_top" xlink:title="readgamtables">
<polygon fill="white" stroke="black" points="246,-76.5 246,-95.5 332,-95.5 332,-76.5 246,-76.5"/>
<text text-anchor="middle" x="289" y="-83.5" font-family="Helvetica,sans-Serif" font-size="10.00">readgamtables</text>
</a>
</g>
</g>
<!-- Node2&#45;&gt;Node3 -->
<g id="edge2" class="edge"><title>Node2&#45;&gt;Node3</title>
<path fill="none" stroke="midnightblue" d="M208.71,-60.6804C224.789,-65.8148 243.043,-71.6441 257.981,-76.4141"/>
<polygon fill="midnightblue" stroke="midnightblue" points="209.62,-57.2969 199.029,-57.589 207.49,-63.9652 209.62,-57.2969"/>
</g>
<!-- Node9 -->
<g id="node9" class="node"><title>Node9</title>
<g id="a_node9"><a xlink:href="../../dc/d7d/getmex_8c.html#acf87beed37c80cbd78f5da98b6f181a8" target="_top" xlink:title="setgamma">
<polygon fill="white" stroke="black" points="256.5,-38.5 256.5,-57.5 321.5,-57.5 321.5,-38.5 256.5,-38.5"/>
<text text-anchor="middle" x="289" y="-45.5" font-family="Helvetica,sans-Serif" font-size="10.00">setgamma</text>
</a>
</g>
</g>
<!-- Node2&#45;&gt;Node9 -->
<g id="edge8" class="edge"><title>Node2&#45;&gt;Node9</title>
<path fill="none" stroke="midnightblue" d="M220.355,-48C232.526,-48 245.16,-48 256.169,-48"/>
<polygon fill="midnightblue" stroke="midnightblue" points="220.286,-44.5001 210.286,-48 220.286,-51.5001 220.286,-44.5001"/>
</g>
<!-- Node10 -->
<g id="node10" class="node"><title>Node10</title>
<g id="a_node10"><a xlink:href="../../dc/d7d/getmex_8c.html#a6c8c732598fd9104336e00a5a79cea1e" target="_top" xlink:title="setcolorbal">
<polygon fill="white" stroke="black" points="255,-0.5 255,-19.5 323,-19.5 323,-0.5 255,-0.5"/>
<text text-anchor="middle" x="289" y="-7.5" font-family="Helvetica,sans-Serif" font-size="10.00">setcolorbal</text>
</a>
</g>
</g>
<!-- Node2&#45;&gt;Node10 -->
<g id="edge9" class="edge"><title>Node2&#45;&gt;Node10</title>
<path fill="none" stroke="midnightblue" d="M208.71,-35.3196C224.789,-30.1852 243.043,-24.3559 257.981,-19.5859"/>
<polygon fill="midnightblue" stroke="midnightblue" points="207.49,-32.0348 199.029,-38.411 209.62,-38.7031 207.49,-32.0348"/>
</g>
<!-- Node4 -->
<g id="node4" class="node"><title>Node4</title>
<g id="a_node4"><a xlink:href="../../dc/d7d/getmex_8c.html#ac1fb5dc09530709b64bbe9e6dacd522d" target="_top" xlink:title="gammapcolor">
<polygon fill="white" stroke="black" points="369.5,-95.5 369.5,-114.5 449.5,-114.5 449.5,-95.5 369.5,-95.5"/>
<text text-anchor="middle" x="409.5" y="-102.5" font-family="Helvetica,sans-Serif" font-size="10.00">gammapcolor</text>
</a>
</g>
</g>
<!-- Node3&#45;&gt;Node4 -->
<g id="edge3" class="edge"><title>Node3&#45;&gt;Node4</title>
<path fill="none" stroke="midnightblue" d="M342.232,-94.3748C351.32,-95.832 360.632,-97.325 369.296,-98.7141"/>
<polygon fill="midnightblue" stroke="midnightblue" points="342.54,-90.8796 332.112,-92.7522 341.432,-97.7913 342.54,-90.8796"/>
</g>
<!-- Node8 -->
<g id="node8" class="node"><title>Node8</title>
<g id="a_node8"><a xlink:href="../../dc/d7d/getmex_8c.html#a80783e341046a67b5eee6ae087529f20" target="_top" xlink:title="gamgetmcolor">
<polygon fill="white" stroke="black" points="368,-57.5 368,-76.5 451,-76.5 451,-57.5 368,-57.5"/>
<text text-anchor="middle" x="409.5" y="-64.5" font-family="Helvetica,sans-Serif" font-size="10.00">gamgetmcolor</text>
</a>
</g>
</g>
<!-- Node3&#45;&gt;Node8 -->
<g id="edge7" class="edge"><title>Node3&#45;&gt;Node8</title>
<path fill="none" stroke="midnightblue" d="M342.061,-77.6526C350.654,-76.2749 359.452,-74.8643 367.716,-73.5391"/>
<polygon fill="midnightblue" stroke="midnightblue" points="341.432,-74.2087 332.112,-79.2478 342.54,-81.1204 341.432,-74.2087"/>
</g>
<!-- Node5 -->
<g id="node5" class="node"><title>Node5</title>
<g id="a_node5"><a xlink:href="../../dc/d7d/getmex_8c.html#a50601f011a2249798d7ecc1a39dc9924" target="_top" xlink:title="makemap">
<polygon fill="white" stroke="black" points="487,-95.5 487,-114.5 549,-114.5 549,-95.5 487,-95.5"/>
<text text-anchor="middle" x="518" y="-102.5" font-family="Helvetica,sans-Serif" font-size="10.00">makemap</text>
</a>
</g>
</g>
<!-- Node4&#45;&gt;Node5 -->
<g id="edge4" class="edge"><title>Node4&#45;&gt;Node5</title>
<path fill="none" stroke="midnightblue" d="M459.569,-105C468.914,-105 478.432,-105 486.962,-105"/>
<polygon fill="midnightblue" stroke="midnightblue" points="459.552,-101.5 449.552,-105 459.552,-108.5 459.552,-101.5"/>
</g>
<!-- Node6 -->
<g id="node6" class="node"><title>Node6</title>
<g id="a_node6"><a xlink:href="../../dc/d7d/getmex_8c.html#ae0bd10121c9d36b3e835d5fee4c1476d" target="_top" xlink:title="get_pic">
<polygon fill="white" stroke="black" points="585,-95.5 585,-114.5 636,-114.5 636,-95.5 585,-95.5"/>
<text text-anchor="middle" x="610.5" y="-102.5" font-family="Helvetica,sans-Serif" font-size="10.00">get_pic</text>
</a>
</g>
</g>
<!-- Node5&#45;&gt;Node6 -->
<g id="edge5" class="edge"><title>Node5&#45;&gt;Node6</title>
<path fill="none" stroke="midnightblue" d="M559.217,-105C567.973,-105 576.983,-105 584.914,-105"/>
<polygon fill="midnightblue" stroke="midnightblue" points="559.135,-101.5 549.135,-105 559.135,-108.5 559.135,-101.5"/>
</g>
<!-- Node7 -->
<g id="node7" class="node"><title>Node7</title>
<g id="a_node7"><a xlink:href="../../dc/d7d/getmex_8c.html#a2e1c56207484e456874379d624fc0e67" target="_top" xlink:title="main">
<polygon fill="white" stroke="black" points="672,-95.5 672,-114.5 711,-114.5 711,-95.5 672,-95.5"/>
<text text-anchor="middle" x="691.5" y="-102.5" font-family="Helvetica,sans-Serif" font-size="10.00">main</text>
</a>
</g>
</g>
<!-- Node6&#45;&gt;Node7 -->
<g id="edge6" class="edge"><title>Node6&#45;&gt;Node7</title>
<path fill="none" stroke="midnightblue" d="M646.215,-105C655.084,-105 664.28,-105 671.978,-105"/>
<polygon fill="midnightblue" stroke="midnightblue" points="646.063,-101.5 636.063,-105 646.063,-108.5 646.063,-101.5"/>
</g>
</g>
</svg>
