<?xml version="1.0" encoding="UTF-8" standalone="no"?>
<!DOCTYPE svg PUBLIC "-//W3C//DTD SVG 1.1//EN"
 "http://www.w3.org/Graphics/SVG/1.1/DTD/svg11.dtd">
<!-- Generated by graphviz version 2.38.0 (20140413.2041)
 -->
<!-- Title: makegamtables Pages: 1 -->
<svg width="323pt" height="142pt"
 viewBox="0.00 0.00 323.00 142.00" xmlns="http://www.w3.org/2000/svg" xmlns:xlink="http://www.w3.org/1999/xlink">
<g id="graph0" class="graph" transform="scale(1 1) rotate(0) translate(4 138)">
<title>makegamtables</title>
<polygon fill="white" stroke="none" points="-4,4 -4,-138 319,-138 319,4 -4,4"/>
<!-- Node1 -->
<g id="node1" class="node"><title>Node1</title>
<polygon fill="#bfbfbf" stroke="black" points="0,-57.5 0,-76.5 90,-76.5 90,-57.5 0,-57.5"/>
<text text-anchor="middle" x="45" y="-64.5" font-family="Helvetica,sans-Serif" font-size="10.00">makegamtables</text>
</g>
<!-- Node2 -->
<g id="node2" class="node"><title>Node2</title>
<g id="a_node2"><a xlink:href="../../dc/d7d/getmex_8c.html#ad8c820b1c7e80acfc6b59ab053e8cda9" target="_top" xlink:title="getgamma">
<polygon fill="white" stroke="black" points="135,-114.5 135,-133.5 201,-133.5 201,-114.5 135,-114.5"/>
<text text-anchor="middle" x="168" y="-121.5" font-family="Helvetica,sans-Serif" font-size="10.00">getgamma</text>
</a>
</g>
</g>
<!-- Node1&#45;&gt;Node2 -->
<g id="edge1" class="edge"><title>Node1&#45;&gt;Node2</title>
<path fill="none" stroke="midnightblue" d="M66.0303,-76.579C82.1967,-84.2946 105.538,-95.3991 126,-105 129.573,-106.677 133.326,-108.428 137.049,-110.16"/>
<polygon fill="midnightblue" stroke="midnightblue" points="135.58,-113.337 146.124,-114.372 138.527,-106.988 135.58,-113.337"/>
</g>
<!-- Node4 -->
<g id="node4" class="node"><title>Node4</title>
<g id="a_node4"><a xlink:href="../../dc/d7d/getmex_8c.html#a3adffe2617d1fcab5a4af2a350f96da2" target="_top" xlink:title="getcolorbal">
<polygon fill="white" stroke="black" points="134,-76.5 134,-95.5 202,-95.5 202,-76.5 134,-76.5"/>
<text text-anchor="middle" x="168" y="-83.5" font-family="Helvetica,sans-Serif" font-size="10.00">getcolorbal</text>
</a>
</g>
</g>
<!-- Node1&#45;&gt;Node4 -->
<g id="edge3" class="edge"><title>Node1&#45;&gt;Node4</title>
<path fill="none" stroke="midnightblue" d="M90.0261,-73.9132C100.984,-75.6339 112.723,-77.4772 123.649,-79.1928"/>
<polygon fill="midnightblue" stroke="midnightblue" points="123.401,-82.6966 133.822,-80.7903 124.486,-75.7813 123.401,-82.6966"/>
</g>
<!-- Node5 -->
<g id="node5" class="node"><title>Node5</title>
<g id="a_node5"><a xlink:href="../../dc/d7d/getmex_8c.html#a0593424f3bce9586fb0bb0177266bd2b" target="_top" xlink:title="gammacorrect">
<polygon fill="white" stroke="black" points="126,-38.5 126,-57.5 210,-57.5 210,-38.5 126,-38.5"/>
<text text-anchor="middle" x="168" y="-45.5" font-family="Helvetica,sans-Serif" font-size="10.00">gammacorrect</text>
</a>
</g>
</g>
<!-- Node1&#45;&gt;Node5 -->
<g id="edge5" class="edge"><title>Node1&#45;&gt;Node5</title>
<path fill="none" stroke="midnightblue" d="M90.0261,-60.0868C98.3797,-58.7751 107.187,-57.3921 115.742,-56.0488"/>
<polygon fill="midnightblue" stroke="midnightblue" points="116.29,-59.5057 125.626,-54.4968 115.204,-52.5905 116.29,-59.5057"/>
</g>
<!-- Node6 -->
<g id="node6" class="node"><title>Node6</title>
<g id="a_node6"><a xlink:href="../../dc/d7d/getmex_8c.html#aabe1c81804655629d58f531a60aa7f9c" target="_top" xlink:title="fixup">
<polygon fill="white" stroke="black" points="149,-0.5 149,-19.5 187,-19.5 187,-0.5 149,-0.5"/>
<text text-anchor="middle" x="168" y="-7.5" font-family="Helvetica,sans-Serif" font-size="10.00">fixup</text>
</a>
</g>
</g>
<!-- Node1&#45;&gt;Node6 -->
<g id="edge6" class="edge"><title>Node1&#45;&gt;Node6</title>
<path fill="none" stroke="midnightblue" d="M66.0303,-57.421C82.1967,-49.7054 105.538,-38.6009 126,-29 130.27,-26.9964 134.796,-24.8859 139.222,-22.8292"/>
<polygon fill="midnightblue" stroke="midnightblue" points="141.014,-25.8567 148.614,-18.4752 138.069,-19.506 141.014,-25.8567"/>
</g>
<!-- Node3 -->
<g id="node3" class="node"><title>Node3</title>
<g id="a_node3"><a xlink:href="../../dc/d7d/getmex_8c.html#af8e2ce36b12570f5ffdca44dbc3dd2ac" target="_top" xlink:title="configopen">
<polygon fill="white" stroke="black" points="246,-95.5 246,-114.5 315,-114.5 315,-95.5 246,-95.5"/>
<text text-anchor="middle" x="280.5" y="-102.5" font-family="Helvetica,sans-Serif" font-size="10.00">configopen</text>
</a>
</g>
</g>
<!-- Node2&#45;&gt;Node3 -->
<g id="edge2" class="edge"><title>Node2&#45;&gt;Node3</title>
<path fill="none" stroke="midnightblue" d="M201.258,-118.453C212.098,-116.59 224.374,-114.479 235.935,-112.491"/>
<polygon fill="midnightblue" stroke="midnightblue" points="236.594,-115.929 245.856,-110.785 235.408,-109.03 236.594,-115.929"/>
</g>
<!-- Node4&#45;&gt;Node3 -->
<g id="edge4" class="edge"><title>Node4&#45;&gt;Node3</title>
<path fill="none" stroke="midnightblue" d="M202.154,-91.7006C212.764,-93.525 224.676,-95.5733 235.914,-97.5056"/>
<polygon fill="midnightblue" stroke="midnightblue" points="235.539,-100.992 245.988,-99.2377 236.726,-94.0937 235.539,-100.992"/>
</g>
</g>
</svg>
