<?xml version="1.0" encoding="UTF-8" standalone="no"?>
<!DOCTYPE svg PUBLIC "-//W3C//DTD SVG 1.1//EN"
 "http://www.w3.org/Graphics/SVG/1.1/DTD/svg11.dtd">
<!-- Generated by graphviz version 2.38.0 (20140413.2041)
 -->
<!-- Title: readgamtables Pages: 1 -->
<svg width="473pt" height="66pt"
 viewBox="0.00 0.00 473.00 66.00" xmlns="http://www.w3.org/2000/svg" xmlns:xlink="http://www.w3.org/1999/xlink">
<g id="graph0" class="graph" transform="scale(1 1) rotate(0) translate(4 62)">
<title>readgamtables</title>
<polygon fill="white" stroke="none" points="-4,4 -4,-62 469,-62 469,4 -4,4"/>
<!-- Node1 -->
<g id="node1" class="node"><title>Node1</title>
<polygon fill="#bfbfbf" stroke="black" points="0,-19.5 0,-38.5 86,-38.5 86,-19.5 0,-19.5"/>
<text text-anchor="middle" x="43" y="-26.5" font-family="Helvetica,sans-Serif" font-size="10.00">readgamtables</text>
</g>
<!-- Node2 -->
<g id="node2" class="node"><title>Node2</title>
<g id="a_node2"><a xlink:href="../../dc/d7d/getmex_8c.html#ac1fb5dc09530709b64bbe9e6dacd522d" target="_top" xlink:title="gammapcolor">
<polygon fill="white" stroke="black" points="123.5,-38.5 123.5,-57.5 203.5,-57.5 203.5,-38.5 123.5,-38.5"/>
<text text-anchor="middle" x="163.5" y="-45.5" font-family="Helvetica,sans-Serif" font-size="10.00">gammapcolor</text>
</a>
</g>
</g>
<!-- Node1&#45;&gt;Node2 -->
<g id="edge1" class="edge"><title>Node1&#45;&gt;Node2</title>
<path fill="none" stroke="midnightblue" d="M96.232,-37.3748C105.32,-38.832 114.632,-40.325 123.296,-41.7141"/>
<polygon fill="midnightblue" stroke="midnightblue" points="96.5403,-33.8796 86.1123,-35.7522 95.4321,-40.7913 96.5403,-33.8796"/>
</g>
<!-- Node6 -->
<g id="node6" class="node"><title>Node6</title>
<g id="a_node6"><a xlink:href="../../dc/d7d/getmex_8c.html#a80783e341046a67b5eee6ae087529f20" target="_top" xlink:title="gamgetmcolor">
<polygon fill="white" stroke="black" points="122,-0.5 122,-19.5 205,-19.5 205,-0.5 122,-0.5"/>
<text text-anchor="middle" x="163.5" y="-7.5" font-family="Helvetica,sans-Serif" font-size="10.00">gamgetmcolor</text>
</a>
</g>
</g>
<!-- Node1&#45;&gt;Node6 -->
<g id="edge5" class="edge"><title>Node1&#45;&gt;Node6</title>
<path fill="none" stroke="midnightblue" d="M96.0613,-20.6526C104.654,-19.2749 113.452,-17.8643 121.716,-16.5391"/>
<polygon fill="midnightblue" stroke="midnightblue" points="95.4321,-17.2087 86.1123,-22.2478 96.5403,-24.1204 95.4321,-17.2087"/>
</g>
<!-- Node3 -->
<g id="node3" class="node"><title>Node3</title>
<g id="a_node3"><a xlink:href="../../dc/d7d/getmex_8c.html#a50601f011a2249798d7ecc1a39dc9924" target="_top" xlink:title="makemap">
<polygon fill="white" stroke="black" points="241,-38.5 241,-57.5 303,-57.5 303,-38.5 241,-38.5"/>
<text text-anchor="middle" x="272" y="-45.5" font-family="Helvetica,sans-Serif" font-size="10.00">makemap</text>
</a>
</g>
</g>
<!-- Node2&#45;&gt;Node3 -->
<g id="edge2" class="edge"><title>Node2&#45;&gt;Node3</title>
<path fill="none" stroke="midnightblue" d="M213.569,-48C222.914,-48 232.432,-48 240.962,-48"/>
<polygon fill="midnightblue" stroke="midnightblue" points="213.552,-44.5001 203.552,-48 213.552,-51.5001 213.552,-44.5001"/>
</g>
<!-- Node4 -->
<g id="node4" class="node"><title>Node4</title>
<g id="a_node4"><a xlink:href="../../dc/d7d/getmex_8c.html#ae0bd10121c9d36b3e835d5fee4c1476d" target="_top" xlink:title="get_pic">
<polygon fill="white" stroke="black" points="339,-38.5 339,-57.5 390,-57.5 390,-38.5 339,-38.5"/>
<text text-anchor="middle" x="364.5" y="-45.5" font-family="Helvetica,sans-Serif" font-size="10.00">get_pic</text>
</a>
</g>
</g>
<!-- Node3&#45;&gt;Node4 -->
<g id="edge3" class="edge"><title>Node3&#45;&gt;Node4</title>
<path fill="none" stroke="midnightblue" d="M313.217,-48C321.973,-48 330.983,-48 338.914,-48"/>
<polygon fill="midnightblue" stroke="midnightblue" points="313.135,-44.5001 303.135,-48 313.135,-51.5001 313.135,-44.5001"/>
</g>
<!-- Node5 -->
<g id="node5" class="node"><title>Node5</title>
<g id="a_node5"><a xlink:href="../../dc/d7d/getmex_8c.html#a2e1c56207484e456874379d624fc0e67" target="_top" xlink:title="main">
<polygon fill="white" stroke="black" points="426,-38.5 426,-57.5 465,-57.5 465,-38.5 426,-38.5"/>
<text text-anchor="middle" x="445.5" y="-45.5" font-family="Helvetica,sans-Serif" font-size="10.00">main</text>
</a>
</g>
</g>
<!-- Node4&#45;&gt;Node5 -->
<g id="edge4" class="edge"><title>Node4&#45;&gt;Node5</title>
<path fill="none" stroke="midnightblue" d="M400.215,-48C409.084,-48 418.28,-48 425.978,-48"/>
<polygon fill="midnightblue" stroke="midnightblue" points="400.063,-44.5001 390.063,-48 400.063,-51.5001 400.063,-44.5001"/>
</g>
</g>
</svg>
