<?xml version="1.0" encoding="UTF-8" standalone="no"?>
<!DOCTYPE svg PUBLIC "-//W3C//DTD SVG 1.1//EN"
 "http://www.w3.org/Graphics/SVG/1.1/DTD/svg11.dtd">
<!-- Generated by graphviz version 2.38.0 (20140413.2041)
 -->
<!-- Title: getgamma Pages: 1 -->
<svg width="821pt" height="123pt"
 viewBox="0.00 0.00 821.00 123.00" xmlns="http://www.w3.org/2000/svg" xmlns:xlink="http://www.w3.org/1999/xlink">
<g id="graph0" class="graph" transform="scale(1 1) rotate(0) translate(4 119)">
<title>getgamma</title>
<polygon fill="white" stroke="none" points="-4,4 -4,-119 817,-119 817,4 -4,4"/>
<!-- Node1 -->
<g id="node1" class="node"><title>Node1</title>
<polygon fill="#bfbfbf" stroke="black" points="0,-38.5 0,-57.5 66,-57.5 66,-38.5 0,-38.5"/>
<text text-anchor="middle" x="33" y="-45.5" font-family="Helvetica,sans-Serif" font-size="10.00">getgamma</text>
</g>
<!-- Node2 -->
<g id="node2" class="node"><title>Node2</title>
<g id="a_node2"><a xlink:href="../../dc/d7d/getmex_8c.html#a7a52688f5e3f7cd177646dad2d9264e8" target="_top" xlink:title="makegamtables">
<polygon fill="white" stroke="black" points="102,-38.5 102,-57.5 192,-57.5 192,-38.5 102,-38.5"/>
<text text-anchor="middle" x="147" y="-45.5" font-family="Helvetica,sans-Serif" font-size="10.00">makegamtables</text>
</a>
</g>
</g>
<!-- Node1&#45;&gt;Node2 -->
<g id="edge1" class="edge"><title>Node1&#45;&gt;Node2</title>
<path fill="none" stroke="midnightblue" d="M76.3459,-48C84.6673,-48 93.417,-48 101.797,-48"/>
<polygon fill="midnightblue" stroke="midnightblue" points="76.0947,-44.5001 66.0947,-48 76.0947,-51.5001 76.0947,-44.5001"/>
</g>
<!-- Node3 -->
<g id="node3" class="node"><title>Node3</title>
<g id="a_node3"><a xlink:href="../../dc/d7d/getmex_8c.html#a44422ba36be617961c8358e4c6c6493f" target="_top" xlink:title="newgamtables">
<polygon fill="white" stroke="black" points="228,-38.5 228,-57.5 312,-57.5 312,-38.5 228,-38.5"/>
<text text-anchor="middle" x="270" y="-45.5" font-family="Helvetica,sans-Serif" font-size="10.00">newgamtables</text>
</a>
</g>
</g>
<!-- Node2&#45;&gt;Node3 -->
<g id="edge2" class="edge"><title>Node2&#45;&gt;Node3</title>
<path fill="none" stroke="midnightblue" d="M202.279,-48C210.79,-48 219.466,-48 227.626,-48"/>
<polygon fill="midnightblue" stroke="midnightblue" points="202.026,-44.5001 192.026,-48 202.026,-51.5001 202.026,-44.5001"/>
</g>
<!-- Node4 -->
<g id="node4" class="node"><title>Node4</title>
<g id="a_node4"><a xlink:href="../../dc/d7d/getmex_8c.html#a7bd62b2f233986de9c4a596a30ed1213" target="_top" xlink:title="readgamtables">
<polygon fill="white" stroke="black" points="348,-76.5 348,-95.5 434,-95.5 434,-76.5 348,-76.5"/>
<text text-anchor="middle" x="391" y="-83.5" font-family="Helvetica,sans-Serif" font-size="10.00">readgamtables</text>
</a>
</g>
</g>
<!-- Node3&#45;&gt;Node4 -->
<g id="edge3" class="edge"><title>Node3&#45;&gt;Node4</title>
<path fill="none" stroke="midnightblue" d="M310.71,-60.6804C326.789,-65.8148 345.043,-71.6441 359.981,-76.4141"/>
<polygon fill="midnightblue" stroke="midnightblue" points="311.62,-57.2969 301.029,-57.589 309.49,-63.9652 311.62,-57.2969"/>
</g>
<!-- Node10 -->
<g id="node10" class="node"><title>Node10</title>
<g id="a_node10"><a xlink:href="../../dc/d7d/getmex_8c.html#acf87beed37c80cbd78f5da98b6f181a8" target="_top" xlink:title="setgamma">
<polygon fill="white" stroke="black" points="358.5,-38.5 358.5,-57.5 423.5,-57.5 423.5,-38.5 358.5,-38.5"/>
<text text-anchor="middle" x="391" y="-45.5" font-family="Helvetica,sans-Serif" font-size="10.00">setgamma</text>
</a>
</g>
</g>
<!-- Node3&#45;&gt;Node10 -->
<g id="edge9" class="edge"><title>Node3&#45;&gt;Node10</title>
<path fill="none" stroke="midnightblue" d="M322.355,-48C334.526,-48 347.16,-48 358.169,-48"/>
<polygon fill="midnightblue" stroke="midnightblue" points="322.286,-44.5001 312.286,-48 322.286,-51.5001 322.286,-44.5001"/>
</g>
<!-- Node11 -->
<g id="node11" class="node"><title>Node11</title>
<g id="a_node11"><a xlink:href="../../dc/d7d/getmex_8c.html#a6c8c732598fd9104336e00a5a79cea1e" target="_top" xlink:title="setcolorbal">
<polygon fill="white" stroke="black" points="357,-0.5 357,-19.5 425,-19.5 425,-0.5 357,-0.5"/>
<text text-anchor="middle" x="391" y="-7.5" font-family="Helvetica,sans-Serif" font-size="10.00">setcolorbal</text>
</a>
</g>
</g>
<!-- Node3&#45;&gt;Node11 -->
<g id="edge10" class="edge"><title>Node3&#45;&gt;Node11</title>
<path fill="none" stroke="midnightblue" d="M310.71,-35.3196C326.789,-30.1852 345.043,-24.3559 359.981,-19.5859"/>
<polygon fill="midnightblue" stroke="midnightblue" points="309.49,-32.0348 301.029,-38.411 311.62,-38.7031 309.49,-32.0348"/>
</g>
<!-- Node5 -->
<g id="node5" class="node"><title>Node5</title>
<g id="a_node5"><a xlink:href="../../dc/d7d/getmex_8c.html#ac1fb5dc09530709b64bbe9e6dacd522d" target="_top" xlink:title="gammapcolor">
<polygon fill="white" stroke="black" points="471.5,-95.5 471.5,-114.5 551.5,-114.5 551.5,-95.5 471.5,-95.5"/>
<text text-anchor="middle" x="511.5" y="-102.5" font-family="Helvetica,sans-Serif" font-size="10.00">gammapcolor</text>
</a>
</g>
</g>
<!-- Node4&#45;&gt;Node5 -->
<g id="edge4" class="edge"><title>Node4&#45;&gt;Node5</title>
<path fill="none" stroke="midnightblue" d="M444.232,-94.3748C453.32,-95.832 462.632,-97.325 471.296,-98.7141"/>
<polygon fill="midnightblue" stroke="midnightblue" points="444.54,-90.8796 434.112,-92.7522 443.432,-97.7913 444.54,-90.8796"/>
</g>
<!-- Node9 -->
<g id="node9" class="node"><title>Node9</title>
<g id="a_node9"><a xlink:href="../../dc/d7d/getmex_8c.html#a80783e341046a67b5eee6ae087529f20" target="_top" xlink:title="gamgetmcolor">
<polygon fill="white" stroke="black" points="470,-57.5 470,-76.5 553,-76.5 553,-57.5 470,-57.5"/>
<text text-anchor="middle" x="511.5" y="-64.5" font-family="Helvetica,sans-Serif" font-size="10.00">gamgetmcolor</text>
</a>
</g>
</g>
<!-- Node4&#45;&gt;Node9 -->
<g id="edge8" class="edge"><title>Node4&#45;&gt;Node9</title>
<path fill="none" stroke="midnightblue" d="M444.061,-77.6526C452.654,-76.2749 461.452,-74.8643 469.716,-73.5391"/>
<polygon fill="midnightblue" stroke="midnightblue" points="443.432,-74.2087 434.112,-79.2478 444.54,-81.1204 443.432,-74.2087"/>
</g>
<!-- Node6 -->
<g id="node6" class="node"><title>Node6</title>
<g id="a_node6"><a xlink:href="../../dc/d7d/getmex_8c.html#a50601f011a2249798d7ecc1a39dc9924" target="_top" xlink:title="makemap">
<polygon fill="white" stroke="black" points="589,-95.5 589,-114.5 651,-114.5 651,-95.5 589,-95.5"/>
<text text-anchor="middle" x="620" y="-102.5" font-family="Helvetica,sans-Serif" font-size="10.00">makemap</text>
</a>
</g>
</g>
<!-- Node5&#45;&gt;Node6 -->
<g id="edge5" class="edge"><title>Node5&#45;&gt;Node6</title>
<path fill="none" stroke="midnightblue" d="M561.569,-105C570.914,-105 580.432,-105 588.962,-105"/>
<polygon fill="midnightblue" stroke="midnightblue" points="561.552,-101.5 551.552,-105 561.552,-108.5 561.552,-101.5"/>
</g>
<!-- Node7 -->
<g id="node7" class="node"><title>Node7</title>
<g id="a_node7"><a xlink:href="../../dc/d7d/getmex_8c.html#ae0bd10121c9d36b3e835d5fee4c1476d" target="_top" xlink:title="get_pic">
<polygon fill="white" stroke="black" points="687,-95.5 687,-114.5 738,-114.5 738,-95.5 687,-95.5"/>
<text text-anchor="middle" x="712.5" y="-102.5" font-family="Helvetica,sans-Serif" font-size="10.00">get_pic</text>
</a>
</g>
</g>
<!-- Node6&#45;&gt;Node7 -->
<g id="edge6" class="edge"><title>Node6&#45;&gt;Node7</title>
<path fill="none" stroke="midnightblue" d="M661.217,-105C669.973,-105 678.983,-105 686.914,-105"/>
<polygon fill="midnightblue" stroke="midnightblue" points="661.135,-101.5 651.135,-105 661.135,-108.5 661.135,-101.5"/>
</g>
<!-- Node8 -->
<g id="node8" class="node"><title>Node8</title>
<g id="a_node8"><a xlink:href="../../dc/d7d/getmex_8c.html#a2e1c56207484e456874379d624fc0e67" target="_top" xlink:title="main">
<polygon fill="white" stroke="black" points="774,-95.5 774,-114.5 813,-114.5 813,-95.5 774,-95.5"/>
<text text-anchor="middle" x="793.5" y="-102.5" font-family="Helvetica,sans-Serif" font-size="10.00">main</text>
</a>
</g>
</g>
<!-- Node7&#45;&gt;Node8 -->
<g id="edge7" class="edge"><title>Node7&#45;&gt;Node8</title>
<path fill="none" stroke="midnightblue" d="M748.215,-105C757.084,-105 766.28,-105 773.978,-105"/>
<polygon fill="midnightblue" stroke="midnightblue" points="748.063,-101.5 738.063,-105 748.063,-108.5 748.063,-101.5"/>
</g>
</g>
</svg>
