<?xml version="1.0" encoding="UTF-8" standalone="no"?>
<!DOCTYPE svg PUBLIC "-//W3C//DTD SVG 1.1//EN"
 "http://www.w3.org/Graphics/SVG/1.1/DTD/svg11.dtd">
<!-- Generated by graphviz version 2.38.0 (20140413.2041)
 -->
<!-- Title: makemap Pages: 1 -->
<svg width="779pt" height="199pt"
 viewBox="0.00 0.00 779.00 199.00" xmlns="http://www.w3.org/2000/svg" xmlns:xlink="http://www.w3.org/1999/xlink">
<g id="graph0" class="graph" transform="scale(1 1) rotate(0) translate(4 195)">
<title>makemap</title>
<polygon fill="white" stroke="none" points="-4,4 -4,-195 775,-195 775,4 -4,4"/>
<!-- Node1 -->
<g id="node1" class="node"><title>Node1</title>
<polygon fill="#bfbfbf" stroke="black" points="0,-171.5 0,-190.5 62,-190.5 62,-171.5 0,-171.5"/>
<text text-anchor="middle" x="31" y="-178.5" font-family="Helvetica,sans-Serif" font-size="10.00">makemap</text>
</g>
<!-- Node2 -->
<g id="node2" class="node"><title>Node2</title>
<g id="a_node2"><a xlink:href="../../dc/d7d/getmex_8c.html#ac1fb5dc09530709b64bbe9e6dacd522d" target="_top" xlink:title="gammapcolor">
<polygon fill="white" stroke="black" points="98,-171.5 98,-190.5 178,-190.5 178,-171.5 98,-171.5"/>
<text text-anchor="middle" x="138" y="-178.5" font-family="Helvetica,sans-Serif" font-size="10.00">gammapcolor</text>
</a>
</g>
</g>
<!-- Node1&#45;&gt;Node2 -->
<g id="edge1" class="edge"><title>Node1&#45;&gt;Node2</title>
<path fill="none" stroke="midnightblue" d="M62.0888,-181C70.1032,-181 78.9753,-181 87.7274,-181"/>
<polygon fill="midnightblue" stroke="midnightblue" points="87.8879,-184.5 97.8879,-181 87.8878,-177.5 87.8879,-184.5"/>
</g>
<!-- Node3 -->
<g id="node3" class="node"><title>Node3</title>
<g id="a_node3"><a xlink:href="../../dc/d7d/getmex_8c.html#a7bd62b2f233986de9c4a596a30ed1213" target="_top" xlink:title="readgamtables">
<polygon fill="white" stroke="black" points="214,-171.5 214,-190.5 300,-190.5 300,-171.5 214,-171.5"/>
<text text-anchor="middle" x="257" y="-178.5" font-family="Helvetica,sans-Serif" font-size="10.00">readgamtables</text>
</a>
</g>
</g>
<!-- Node2&#45;&gt;Node3 -->
<g id="edge2" class="edge"><title>Node2&#45;&gt;Node3</title>
<path fill="none" stroke="midnightblue" d="M178.285,-181C186.403,-181 195.076,-181 203.576,-181"/>
<polygon fill="midnightblue" stroke="midnightblue" points="203.809,-184.5 213.809,-181 203.809,-177.5 203.809,-184.5"/>
</g>
<!-- Node4 -->
<g id="node4" class="node"><title>Node4</title>
<g id="a_node4"><a xlink:href="../../dc/d7d/getmex_8c.html#af8e2ce36b12570f5ffdca44dbc3dd2ac" target="_top" xlink:title="configopen">
<polygon fill="white" stroke="black" points="702,-133.5 702,-152.5 771,-152.5 771,-133.5 702,-133.5"/>
<text text-anchor="middle" x="736.5" y="-140.5" font-family="Helvetica,sans-Serif" font-size="10.00">configopen</text>
</a>
</g>
</g>
<!-- Node3&#45;&gt;Node4 -->
<g id="edge3" class="edge"><title>Node3&#45;&gt;Node4</title>
<path fill="none" stroke="midnightblue" d="M300.078,-182.49C374.499,-184.361 533.957,-184.934 666,-162 675.696,-160.316 685.996,-157.873 695.613,-155.296"/>
<polygon fill="midnightblue" stroke="midnightblue" points="696.64,-158.643 705.334,-152.588 694.762,-151.9 696.64,-158.643"/>
</g>
<!-- Node5 -->
<g id="node5" class="node"><title>Node5</title>
<g id="a_node5"><a xlink:href="../../dc/d7d/getmex_8c.html#a44422ba36be617961c8358e4c6c6493f" target="_top" xlink:title="newgamtables">
<polygon fill="white" stroke="black" points="336,-152.5 336,-171.5 420,-171.5 420,-152.5 336,-152.5"/>
<text text-anchor="middle" x="378" y="-159.5" font-family="Helvetica,sans-Serif" font-size="10.00">newgamtables</text>
</a>
</g>
</g>
<!-- Node3&#45;&gt;Node5 -->
<g id="edge4" class="edge"><title>Node3&#45;&gt;Node5</title>
<path fill="none" stroke="midnightblue" d="M300.29,-174.248C308.459,-172.944 317.101,-171.564 325.525,-170.219"/>
<polygon fill="midnightblue" stroke="midnightblue" points="326.323,-173.636 335.646,-168.603 325.219,-166.723 326.323,-173.636"/>
</g>
<!-- Node5&#45;&gt;Node4 -->
<g id="edge5" class="edge"><title>Node5&#45;&gt;Node4</title>
<path fill="none" stroke="midnightblue" d="M420.243,-159.802C487.973,-156.192 622.156,-149.041 691.587,-145.34"/>
<polygon fill="midnightblue" stroke="midnightblue" points="691.951,-148.826 701.75,-144.799 691.578,-141.836 691.951,-148.826"/>
</g>
<!-- Node6 -->
<g id="node6" class="node"><title>Node6</title>
<g id="a_node6"><a xlink:href="../../dc/d7d/getmex_8c.html#a7a52688f5e3f7cd177646dad2d9264e8" target="_top" xlink:title="makegamtables">
<polygon fill="white" stroke="black" points="456,-76.5 456,-95.5 546,-95.5 546,-76.5 456,-76.5"/>
<text text-anchor="middle" x="501" y="-83.5" font-family="Helvetica,sans-Serif" font-size="10.00">makegamtables</text>
</a>
</g>
</g>
<!-- Node5&#45;&gt;Node6 -->
<g id="edge6" class="edge"><title>Node5&#45;&gt;Node6</title>
<path fill="none" stroke="midnightblue" d="M394.325,-152.375C414.963,-139.412 451.896,-116.214 476.175,-100.965"/>
<polygon fill="midnightblue" stroke="midnightblue" points="478.193,-103.83 484.8,-95.5473 474.47,-97.9023 478.193,-103.83"/>
</g>
<!-- Node7 -->
<g id="node7" class="node"><title>Node7</title>
<g id="a_node7"><a xlink:href="../../dc/d7d/getmex_8c.html#ad8c820b1c7e80acfc6b59ab053e8cda9" target="_top" xlink:title="getgamma">
<polygon fill="white" stroke="black" points="591,-114.5 591,-133.5 657,-133.5 657,-114.5 591,-114.5"/>
<text text-anchor="middle" x="624" y="-121.5" font-family="Helvetica,sans-Serif" font-size="10.00">getgamma</text>
</a>
</g>
</g>
<!-- Node6&#45;&gt;Node7 -->
<g id="edge7" class="edge"><title>Node6&#45;&gt;Node7</title>
<path fill="none" stroke="midnightblue" d="M532.533,-95.589C547.723,-100.359 566.285,-106.189 582.633,-111.323"/>
<polygon fill="midnightblue" stroke="midnightblue" points="581.887,-114.757 592.476,-114.414 583.984,-108.079 581.887,-114.757"/>
</g>
<!-- Node8 -->
<g id="node8" class="node"><title>Node8</title>
<g id="a_node8"><a xlink:href="../../dc/d7d/getmex_8c.html#a3adffe2617d1fcab5a4af2a350f96da2" target="_top" xlink:title="getcolorbal">
<polygon fill="white" stroke="black" points="590,-76.5 590,-95.5 658,-95.5 658,-76.5 590,-76.5"/>
<text text-anchor="middle" x="624" y="-83.5" font-family="Helvetica,sans-Serif" font-size="10.00">getcolorbal</text>
</a>
</g>
</g>
<!-- Node6&#45;&gt;Node8 -->
<g id="edge9" class="edge"><title>Node6&#45;&gt;Node8</title>
<path fill="none" stroke="midnightblue" d="M546.026,-86C556.984,-86 568.723,-86 579.649,-86"/>
<polygon fill="midnightblue" stroke="midnightblue" points="579.822,-89.5001 589.822,-86 579.822,-82.5001 579.822,-89.5001"/>
</g>
<!-- Node9 -->
<g id="node9" class="node"><title>Node9</title>
<g id="a_node9"><a xlink:href="../../dc/d7d/getmex_8c.html#a0593424f3bce9586fb0bb0177266bd2b" target="_top" xlink:title="gammacorrect">
<polygon fill="white" stroke="black" points="582,-38.5 582,-57.5 666,-57.5 666,-38.5 582,-38.5"/>
<text text-anchor="middle" x="624" y="-45.5" font-family="Helvetica,sans-Serif" font-size="10.00">gammacorrect</text>
</a>
</g>
</g>
<!-- Node6&#45;&gt;Node9 -->
<g id="edge11" class="edge"><title>Node6&#45;&gt;Node9</title>
<path fill="none" stroke="midnightblue" d="M532.533,-76.411C547.723,-71.6406 566.285,-65.8112 582.633,-60.6771"/>
<polygon fill="midnightblue" stroke="midnightblue" points="583.984,-63.9214 592.476,-57.5859 581.887,-57.243 583.984,-63.9214"/>
</g>
<!-- Node10 -->
<g id="node10" class="node"><title>Node10</title>
<g id="a_node10"><a xlink:href="../../dc/d7d/getmex_8c.html#aabe1c81804655629d58f531a60aa7f9c" target="_top" xlink:title="fixup">
<polygon fill="white" stroke="black" points="605,-0.5 605,-19.5 643,-19.5 643,-0.5 605,-0.5"/>
<text text-anchor="middle" x="624" y="-7.5" font-family="Helvetica,sans-Serif" font-size="10.00">fixup</text>
</a>
</g>
</g>
<!-- Node6&#45;&gt;Node10 -->
<g id="edge12" class="edge"><title>Node6&#45;&gt;Node10</title>
<path fill="none" stroke="midnightblue" d="M513.996,-76.3775C529.244,-64.4039 556.64,-43.7401 582,-29 586.269,-26.5188 590.917,-24.1092 595.5,-21.8859"/>
<polygon fill="midnightblue" stroke="midnightblue" points="597.08,-25.011 604.672,-17.621 594.129,-18.6636 597.08,-25.011"/>
</g>
<!-- Node7&#45;&gt;Node4 -->
<g id="edge8" class="edge"><title>Node7&#45;&gt;Node4</title>
<path fill="none" stroke="midnightblue" d="M657.258,-129.547C668.098,-131.41 680.374,-133.521 691.935,-135.509"/>
<polygon fill="midnightblue" stroke="midnightblue" points="691.408,-138.97 701.856,-137.215 692.594,-132.071 691.408,-138.97"/>
</g>
<!-- Node8&#45;&gt;Node4 -->
<g id="edge10" class="edge"><title>Node8&#45;&gt;Node4</title>
<path fill="none" stroke="midnightblue" d="M646.409,-95.5952C652.757,-98.5279 659.696,-101.82 666,-105 680.722,-112.425 696.898,-121.231 709.938,-128.495"/>
<polygon fill="midnightblue" stroke="midnightblue" points="708.379,-131.633 718.813,-133.47 711.802,-125.527 708.379,-131.633"/>
</g>
</g>
</svg>
