<?xml version="1.0" encoding="UTF-8" standalone="no"?>
<!DOCTYPE svg PUBLIC "-//W3C//DTD SVG 1.1//EN"
 "http://www.w3.org/Graphics/SVG/1.1/DTD/svg11.dtd">
<!-- Generated by graphviz version 2.38.0 (20140413.2041)
 -->
<!-- Title: configopen Pages: 1 -->
<!--zoomable 216 -->
<svg id="main" version="1.1" xmlns="http://www.w3.org/2000/svg" xmlns:xlink="http://www.w3.org/1999/xlink" xml:space="preserve" onload="init(evt)">
<style type="text/css"><![CDATA[
.edge:hover path { stroke: red; }
.edge:hover polygon { stroke: red; fill: red; }
]]></style>
<script type="text/javascript"><![CDATA[
var edges = document.getElementsByTagName('g');
if (edges && edges.length) {
  for (var i=0;i<edges.length;i++) {
    if (edges[i].id.substr(0,4)=='edge') {
      edges[i].setAttribute('class','edge');
    }
  }
}
]]></script>
        <defs>
                <circle id="rim" cx="0" cy="0" r="7"/>
                <circle id="rim2" cx="0" cy="0" r="3.5"/>
                <g id="zoomPlus">
                        <use xlink:href="#rim" fill="#404040">
                                <set attributeName="fill" to="#808080" begin="zoomplus.mouseover" end="zoomplus.mouseout"/>
                        </use>
                        <path d="M-4,0h8M0,-4v8" fill="none" stroke="white" stroke-width="1.5" pointer-events="none"/>
                </g>
                <g id="zoomMin">
                        <use xlink:href="#rim" fill="#404040">
                                <set attributeName="fill" to="#808080" begin="zoomminus.mouseover" end="zoomminus.mouseout"/>
                        </use>
                        <path d="M-4,0h8" fill="none" stroke="white" stroke-width="1.5" pointer-events="none"/>
                </g>
                <g id="dirArrow">
                        <path fill="none" stroke="white" stroke-width="1.5" d="M0,-3.0v7 M-2.5,-0.5L0,-3.0L2.5,-0.5"/>
                </g>
               <g id="resetDef">
                       <use xlink:href="#rim2" fill="#404040">
                               <set attributeName="fill" to="#808080" begin="reset.mouseover" end="reset.mouseout"/>
                       </use>
               </g>
        </defs>

<script type="text/javascript">
var viewWidth = 928;
var viewHeight = 216;
var sectionId = 'dynsection-1';
</script>
<script xlink:href="../../svgpan.js"/>
<svg id="graph" class="graph">
<g id="viewport">
<title>configopen</title>
<polygon fill="white" stroke="none" points="-4,4 -4,-212.177 924,-212.177 924,4 -4,4"/>
<!-- Node1 -->
<g id="node1" class="node"><title>Node1</title>
<polygon fill="#bfbfbf" stroke="black" points="0,-95.5 0,-114.5 69,-114.5 69,-95.5 0,-95.5"/>
<text text-anchor="middle" x="34.5" y="-102.5" font-family="Helvetica,sans-Serif" font-size="10.00">configopen</text>
</g>
<!-- Node2 -->
<g id="node2" class="node"><title>Node2</title>
<g id="a_node2"><a xlink:href="../../dc/d7d/getmex_8c.html#a44422ba36be617961c8358e4c6c6493f" target="_top" xlink:title="newgamtables">
<polygon fill="white" stroke="black" points="335,-76.5 335,-95.5 419,-95.5 419,-76.5 335,-76.5"/>
<text text-anchor="middle" x="377" y="-83.5" font-family="Helvetica,sans-Serif" font-size="10.00">newgamtables</text>
</a>
</g>
</g>
<!-- Node1&#45;&gt;Node2 -->
<g id="edge1" class="edge"><title>Node1&#45;&gt;Node2</title>
<path fill="none" stroke="midnightblue" d="M79.1794,-102.563C145.353,-98.8702 270.134,-91.9074 334.805,-88.2987"/>
<polygon fill="midnightblue" stroke="midnightblue" points="78.8698,-99.0744 69.0803,-103.126 79.2598,-106.064 78.8698,-99.0744"/>
</g>
<!-- Node3 -->
<g id="node3" class="node"><title>Node3</title>
<g id="a_node3"><a xlink:href="../../dc/d7d/getmex_8c.html#a7bd62b2f233986de9c4a596a30ed1213" target="_top" xlink:title="readgamtables">
<polygon fill="white" stroke="black" points="455,-152.5 455,-171.5 541,-171.5 541,-152.5 455,-152.5"/>
<text text-anchor="middle" x="498" y="-159.5" font-family="Helvetica,sans-Serif" font-size="10.00">readgamtables</text>
</a>
</g>
</g>
<!-- Node1&#45;&gt;Node3 -->
<g id="edge10" class="edge"><title>Node1&#45;&gt;Node3</title>
<path fill="none" stroke="midnightblue" d="M45.8688,-123.27C57.5369,-141.77 78.3878,-169.274 105,-181 230.95,-236.495 402.202,-192.582 468.845,-171.587"/>
<polygon fill="midnightblue" stroke="midnightblue" points="48.776,-121.313 40.6223,-114.548 42.7775,-124.921 48.776,-121.313"/>
</g>
<!-- Node9 -->
<g id="node9" class="node"><title>Node9</title>
<g id="a_node9"><a xlink:href="../../dc/d7d/getmex_8c.html#acf87beed37c80cbd78f5da98b6f181a8" target="_top" xlink:title="setgamma">
<polygon fill="white" stroke="black" points="465.5,-57.5 465.5,-76.5 530.5,-76.5 530.5,-57.5 465.5,-57.5"/>
<text text-anchor="middle" x="498" y="-64.5" font-family="Helvetica,sans-Serif" font-size="10.00">setgamma</text>
</a>
</g>
</g>
<!-- Node1&#45;&gt;Node9 -->
<g id="edge14" class="edge"><title>Node1&#45;&gt;Node9</title>
<path fill="none" stroke="midnightblue" d="M78.9192,-97.1013C87.5463,-95.6454 96.5489,-94.2062 105,-93 206.841,-78.4644 232.29,-72.7869 335,-67 380.21,-64.4528 432.629,-65.1095 465.308,-65.9477"/>
<polygon fill="midnightblue" stroke="midnightblue" points="78.2814,-93.6595 69.02,-98.8051 79.4688,-100.558 78.2814,-93.6595"/>
</g>
<!-- Node10 -->
<g id="node10" class="node"><title>Node10</title>
<g id="a_node10"><a xlink:href="../../dc/d7d/getmex_8c.html#a6c8c732598fd9104336e00a5a79cea1e" target="_top" xlink:title="setcolorbal">
<polygon fill="white" stroke="black" points="464,-0.5 464,-19.5 532,-19.5 532,-0.5 464,-0.5"/>
<text text-anchor="middle" x="498" y="-7.5" font-family="Helvetica,sans-Serif" font-size="10.00">setcolorbal</text>
</a>
</g>
</g>
<!-- Node1&#45;&gt;Node10 -->
<g id="edge17" class="edge"><title>Node1&#45;&gt;Node10</title>
<path fill="none" stroke="midnightblue" d="M68.5611,-91.8209C79.9742,-87.6171 92.927,-83.2247 105,-80 235.743,-45.0789 395.738,-22.6344 463.807,-14.004"/>
<polygon fill="midnightblue" stroke="midnightblue" points="67.1092,-88.6278 58.9885,-95.4325 69.5802,-95.1771 67.1092,-88.6278"/>
</g>
<!-- Node11 -->
<g id="node11" class="node"><title>Node11</title>
<g id="a_node11"><a xlink:href="../../dc/d7d/getmex_8c.html#ad8c820b1c7e80acfc6b59ab053e8cda9" target="_top" xlink:title="getgamma">
<polygon fill="white" stroke="black" points="106,-114.5 106,-133.5 172,-133.5 172,-114.5 106,-114.5"/>
<text text-anchor="middle" x="139" y="-121.5" font-family="Helvetica,sans-Serif" font-size="10.00">getgamma</text>
</a>
</g>
</g>
<!-- Node1&#45;&gt;Node11 -->
<g id="edge11" class="edge"><title>Node1&#45;&gt;Node11</title>
<path fill="none" stroke="midnightblue" d="M78.996,-113.063C87.9701,-114.726 97.269,-116.45 105.757,-118.023"/>
<polygon fill="midnightblue" stroke="midnightblue" points="79.5328,-109.603 69.0623,-111.221 78.2569,-116.485 79.5328,-109.603"/>
</g>
<!-- Node13 -->
<g id="node13" class="node"><title>Node13</title>
<g id="a_node13"><a xlink:href="../../dc/d7d/getmex_8c.html#a3adffe2617d1fcab5a4af2a350f96da2" target="_top" xlink:title="getcolorbal">
<polygon fill="white" stroke="black" points="105,-152.5 105,-171.5 173,-171.5 173,-152.5 105,-152.5"/>
<text text-anchor="middle" x="139" y="-159.5" font-family="Helvetica,sans-Serif" font-size="10.00">getcolorbal</text>
</a>
</g>
</g>
<!-- Node1&#45;&gt;Node13 -->
<g id="edge15" class="edge"><title>Node1&#45;&gt;Node13</title>
<path fill="none" stroke="midnightblue" d="M61.7435,-119.594C80.3319,-129.931 104.734,-143.501 120.869,-152.474"/>
<polygon fill="midnightblue" stroke="midnightblue" points="63.3283,-116.471 52.8877,-114.669 59.9263,-122.588 63.3283,-116.471"/>
</g>
<!-- Node2&#45;&gt;Node3 -->
<g id="edge2" class="edge"><title>Node2&#45;&gt;Node3</title>
<path fill="none" stroke="midnightblue" d="M401.576,-101.057C425.503,-116.338 461.818,-139.531 482.051,-152.453"/>
<polygon fill="midnightblue" stroke="midnightblue" points="403.383,-98.0582 393.071,-95.6255 399.615,-103.958 403.383,-98.0582"/>
</g>
<!-- Node2&#45;&gt;Node9 -->
<g id="edge8" class="edge"><title>Node2&#45;&gt;Node9</title>
<path fill="none" stroke="midnightblue" d="M429.355,-77.8004C441.526,-75.8572 454.16,-73.84 465.169,-72.0823"/>
<polygon fill="midnightblue" stroke="midnightblue" points="428.61,-74.3751 419.286,-79.408 429.713,-81.2875 428.61,-74.3751"/>
</g>
<!-- Node2&#45;&gt;Node10 -->
<g id="edge9" class="edge"><title>Node2&#45;&gt;Node10</title>
<path fill="none" stroke="midnightblue" d="M401.576,-70.9432C425.503,-55.662 461.818,-32.4689 482.051,-19.5473"/>
<polygon fill="midnightblue" stroke="midnightblue" points="399.615,-68.0423 393.071,-76.3745 403.383,-73.9418 399.615,-68.0423"/>
</g>
<!-- Node4 -->
<g id="node4" class="node"><title>Node4</title>
<g id="a_node4"><a xlink:href="../../dc/d7d/getmex_8c.html#ac1fb5dc09530709b64bbe9e6dacd522d" target="_top" xlink:title="gammapcolor">
<polygon fill="white" stroke="black" points="578.5,-171.5 578.5,-190.5 658.5,-190.5 658.5,-171.5 578.5,-171.5"/>
<text text-anchor="middle" x="618.5" y="-178.5" font-family="Helvetica,sans-Serif" font-size="10.00">gammapcolor</text>
</a>
</g>
</g>
<!-- Node3&#45;&gt;Node4 -->
<g id="edge3" class="edge"><title>Node3&#45;&gt;Node4</title>
<path fill="none" stroke="midnightblue" d="M551.232,-170.375C560.32,-171.832 569.632,-173.325 578.296,-174.714"/>
<polygon fill="midnightblue" stroke="midnightblue" points="551.54,-166.88 541.112,-168.752 550.432,-173.791 551.54,-166.88"/>
</g>
<!-- Node8 -->
<g id="node8" class="node"><title>Node8</title>
<g id="a_node8"><a xlink:href="../../dc/d7d/getmex_8c.html#a80783e341046a67b5eee6ae087529f20" target="_top" xlink:title="gamgetmcolor">
<polygon fill="white" stroke="black" points="577,-133.5 577,-152.5 660,-152.5 660,-133.5 577,-133.5"/>
<text text-anchor="middle" x="618.5" y="-140.5" font-family="Helvetica,sans-Serif" font-size="10.00">gamgetmcolor</text>
</a>
</g>
</g>
<!-- Node3&#45;&gt;Node8 -->
<g id="edge7" class="edge"><title>Node3&#45;&gt;Node8</title>
<path fill="none" stroke="midnightblue" d="M551.061,-153.653C559.654,-152.275 568.452,-150.864 576.716,-149.539"/>
<polygon fill="midnightblue" stroke="midnightblue" points="550.432,-150.209 541.112,-155.248 551.54,-157.12 550.432,-150.209"/>
</g>
<!-- Node5 -->
<g id="node5" class="node"><title>Node5</title>
<g id="a_node5"><a xlink:href="../../dc/d7d/getmex_8c.html#a50601f011a2249798d7ecc1a39dc9924" target="_top" xlink:title="makemap">
<polygon fill="white" stroke="black" points="696,-171.5 696,-190.5 758,-190.5 758,-171.5 696,-171.5"/>
<text text-anchor="middle" x="727" y="-178.5" font-family="Helvetica,sans-Serif" font-size="10.00">makemap</text>
</a>
</g>
</g>
<!-- Node4&#45;&gt;Node5 -->
<g id="edge4" class="edge"><title>Node4&#45;&gt;Node5</title>
<path fill="none" stroke="midnightblue" d="M668.569,-181C677.914,-181 687.432,-181 695.962,-181"/>
<polygon fill="midnightblue" stroke="midnightblue" points="668.552,-177.5 658.552,-181 668.552,-184.5 668.552,-177.5"/>
</g>
<!-- Node6 -->
<g id="node6" class="node"><title>Node6</title>
<g id="a_node6"><a xlink:href="../../dc/d7d/getmex_8c.html#ae0bd10121c9d36b3e835d5fee4c1476d" target="_top" xlink:title="get_pic">
<polygon fill="white" stroke="black" points="794,-171.5 794,-190.5 845,-190.5 845,-171.5 794,-171.5"/>
<text text-anchor="middle" x="819.5" y="-178.5" font-family="Helvetica,sans-Serif" font-size="10.00">get_pic</text>
</a>
</g>
</g>
<!-- Node5&#45;&gt;Node6 -->
<g id="edge5" class="edge"><title>Node5&#45;&gt;Node6</title>
<path fill="none" stroke="midnightblue" d="M768.217,-181C776.973,-181 785.983,-181 793.914,-181"/>
<polygon fill="midnightblue" stroke="midnightblue" points="768.135,-177.5 758.135,-181 768.135,-184.5 768.135,-177.5"/>
</g>
<!-- Node7 -->
<g id="node7" class="node"><title>Node7</title>
<g id="a_node7"><a xlink:href="../../dc/d7d/getmex_8c.html#a2e1c56207484e456874379d624fc0e67" target="_top" xlink:title="main">
<polygon fill="white" stroke="black" points="881,-171.5 881,-190.5 920,-190.5 920,-171.5 881,-171.5"/>
<text text-anchor="middle" x="900.5" y="-178.5" font-family="Helvetica,sans-Serif" font-size="10.00">main</text>
</a>
</g>
</g>
<!-- Node6&#45;&gt;Node7 -->
<g id="edge6" class="edge"><title>Node6&#45;&gt;Node7</title>
<path fill="none" stroke="midnightblue" d="M855.215,-181C864.084,-181 873.28,-181 880.978,-181"/>
<polygon fill="midnightblue" stroke="midnightblue" points="855.063,-177.5 845.063,-181 855.063,-184.5 855.063,-177.5"/>
</g>
<!-- Node12 -->
<g id="node12" class="node"><title>Node12</title>
<g id="a_node12"><a xlink:href="../../dc/d7d/getmex_8c.html#a7a52688f5e3f7cd177646dad2d9264e8" target="_top" xlink:title="makegamtables">
<polygon fill="white" stroke="black" points="209,-114.5 209,-133.5 299,-133.5 299,-114.5 209,-114.5"/>
<text text-anchor="middle" x="254" y="-121.5" font-family="Helvetica,sans-Serif" font-size="10.00">makegamtables</text>
</a>
</g>
</g>
<!-- Node11&#45;&gt;Node12 -->
<g id="edge12" class="edge"><title>Node11&#45;&gt;Node12</title>
<path fill="none" stroke="midnightblue" d="M182.274,-124C190.872,-124 199.939,-124 208.608,-124"/>
<polygon fill="midnightblue" stroke="midnightblue" points="182.079,-120.5 172.079,-124 182.079,-127.5 182.079,-120.5"/>
</g>
<!-- Node12&#45;&gt;Node2 -->
<g id="edge13" class="edge"><title>Node12&#45;&gt;Node2</title>
<path fill="none" stroke="midnightblue" d="M295.377,-111.32C311.726,-106.185 330.288,-100.356 345.476,-95.5859"/>
<polygon fill="midnightblue" stroke="midnightblue" points="294.025,-108.076 285.533,-114.411 296.123,-114.754 294.025,-108.076"/>
</g>
<!-- Node13&#45;&gt;Node12 -->
<g id="edge16" class="edge"><title>Node13&#45;&gt;Node12</title>
<path fill="none" stroke="midnightblue" d="M178.14,-149.174C193.302,-144.075 210.444,-138.311 224.494,-133.586"/>
<polygon fill="midnightblue" stroke="midnightblue" points="176.877,-145.906 168.515,-152.411 179.109,-152.541 176.877,-145.906"/>
</g>
</g>
</svg>
        <g id="navigator" transform="translate(0 0)" fill="#404254">
                <rect fill="#f2f5e9" fill-opacity="0.5" stroke="#606060" stroke-width=".5" x="0" y="0" width="60" height="60"/>
                <use id="zoomplus" xlink:href="#zoomPlus" x="17" y="9" onmousedown="handleZoom(evt,'in')"/>
                <use id="zoomminus" xlink:href="#zoomMin" x="42" y="9" onmousedown="handleZoom(evt,'out')"/>
                <use id="reset" xlink:href="#resetDef" x="30" y="36" onmousedown="handleReset()"/>
                <g id="arrowUp" xlink:href="#dirArrow" transform="translate(30 24)" onmousedown="handlePan(0,-1)">
                  <use xlink:href="#rim" fill="#404040">
                        <set attributeName="fill" to="#808080" begin="arrowUp.mouseover" end="arrowUp.mouseout"/>
                  </use>
                  <path fill="none" stroke="white" stroke-width="1.5" d="M0,-3.0v7 M-2.5,-0.5L0,-3.0L2.5,-0.5"/>
                </g>
                <g id="arrowRight" xlink:href="#dirArrow" transform="rotate(90) translate(36 -43)" onmousedown="handlePan(1,0)">
                  <use xlink:href="#rim" fill="#404040">
                        <set attributeName="fill" to="#808080" begin="arrowRight.mouseover" end="arrowRight.mouseout"/>
                  </use>
                  <path fill="none" stroke="white" stroke-width="1.5" d="M0,-3.0v7 M-2.5,-0.5L0,-3.0L2.5,-0.5"/>
                </g>
                <g id="arrowDown" xlink:href="#dirArrow" transform="rotate(180) translate(-30 -48)" onmousedown="handlePan(0,1)">
                  <use xlink:href="#rim" fill="#404040">
                        <set attributeName="fill" to="#808080" begin="arrowDown.mouseover" end="arrowDown.mouseout"/>
                  </use>
                  <path fill="none" stroke="white" stroke-width="1.5" d="M0,-3.0v7 M-2.5,-0.5L0,-3.0L2.5,-0.5"/>
                </g>
                <g id="arrowLeft" xlink:href="#dirArrow" transform="rotate(270) translate(-36 17)" onmousedown="handlePan(-1,0)">
                  <use xlink:href="#rim" fill="#404040">
                        <set attributeName="fill" to="#808080" begin="arrowLeft.mouseover" end="arrowLeft.mouseout"/>
                  </use>
                  <path fill="none" stroke="white" stroke-width="1.5" d="M0,-3.0v7 M-2.5,-0.5L0,-3.0L2.5,-0.5"/>
                </g>
        </g>
        <svg viewBox="0 0 15 15" width="100%" height="30px" preserveAspectRatio="xMaxYMin meet">
         <g id="arrow_out" transform="scale(0.3 0.3)">
          <a xlink:href="getmex_8c_af8e2ce36b12570f5ffdca44dbc3dd2ac_icgraph_org.svg" target="_base">
           <rect id="button" ry="5" rx="5" y="6" x="6" height="38" width="38"
                fill="#f2f5e9" fill-opacity="0.5" stroke="#606060" stroke-width="1.0"/>
           <path id="arrow"
             d="M 11.500037,31.436501 C 11.940474,20.09759 22.043105,11.32322 32.158766,21.979434 L 37.068811,17.246167 C 37.068811,17.246167 37.088388,32 37.088388,32 L 22.160133,31.978069 C 22.160133,31.978069 26.997745,27.140456 26.997745,27.140456 C 18.528582,18.264221 13.291696,25.230495 11.500037,31.436501 z"
             style="fill:#404040;"/>
          </a>
         </g>
        </svg>
</svg>
