<?xml version="1.0" encoding="UTF-8" standalone="no"?>
<!DOCTYPE svg PUBLIC "-//W3C//DTD SVG 1.1//EN"
 "http://www.w3.org/Graphics/SVG/1.1/DTD/svg11.dtd">
<!-- Generated by graphviz version 2.38.0 (20140413.2041)
 -->
<!-- Title: get Pages: 1 -->
<!--zoomable 132 -->
<svg id="main" version="1.1" xmlns="http://www.w3.org/2000/svg" xmlns:xlink="http://www.w3.org/1999/xlink" xml:space="preserve" onload="init(evt)">
<style type="text/css"><![CDATA[
.edge:hover path { stroke: red; }
.edge:hover polygon { stroke: red; fill: red; }
]]></style>
<script type="text/javascript"><![CDATA[
var edges = document.getElementsByTagName('g');
if (edges && edges.length) {
  for (var i=0;i<edges.length;i++) {
    if (edges[i].id.substr(0,4)=='edge') {
      edges[i].setAttribute('class','edge');
    }
  }
}
]]></script>
        <defs>
                <circle id="rim" cx="0" cy="0" r="7"/>
                <circle id="rim2" cx="0" cy="0" r="3.5"/>
                <g id="zoomPlus">
                        <use xlink:href="#rim" fill="#404040">
                                <set attributeName="fill" to="#808080" begin="zoomplus.mouseover" end="zoomplus.mouseout"/>
                        </use>
                        <path d="M-4,0h8M0,-4v8" fill="none" stroke="white" stroke-width="1.5" pointer-events="none"/>
                </g>
                <g id="zoomMin">
                        <use xlink:href="#rim" fill="#404040">
                                <set attributeName="fill" to="#808080" begin="zoomminus.mouseover" end="zoomminus.mouseout"/>
                        </use>
                        <path d="M-4,0h8" fill="none" stroke="white" stroke-width="1.5" pointer-events="none"/>
                </g>
                <g id="dirArrow">
                        <path fill="none" stroke="white" stroke-width="1.5" d="M0,-3.0v7 M-2.5,-0.5L0,-3.0L2.5,-0.5"/>
                </g>
               <g id="resetDef">
                       <use xlink:href="#rim2" fill="#404040">
                               <set attributeName="fill" to="#808080" begin="reset.mouseover" end="reset.mouseout"/>
                       </use>
               </g>
        </defs>

<script type="text/javascript">
var viewWidth = 526;
var viewHeight = 132;
var sectionId = 'dynsection-0';
</script>
<script xlink:href="svgpan.js"/>
<svg id="graph" class="graph">
<g id="viewport">
<title>get</title>
<polygon fill="white" stroke="none" points="-4,4 -4,-128 522,-128 522,4 -4,4"/>
<g id="clust1" class="cluster"><title>clusterdir_02bd8536e515294d87b960c9851c940c</title>
<g id="a_clust1"><a xlink:href="dir_02bd8536e515294d87b960c9851c940c.html" target="_top">
<polygon fill="#eeeeff" stroke="black" points="8,-64 8,-116 510,-116 510,-64 8,-64"/>
</a>
</g>
</g>
<!-- dir_02bd8536e515294d87b960c9851c940c -->
<g id="node1" class="node"><title>dir_02bd8536e515294d87b960c9851c940c</title>
<text text-anchor="middle" x="475" y="-87.5" font-family="Helvetica,sans-Serif" font-size="10.00">get</text>
</g>
<!-- dir_47d09302d86fd2ca4be71748897146de -->
<g id="node2" class="node"><title>dir_47d09302d86fd2ca4be71748897146de</title>
<g id="a_node2"><a xlink:href="dir_47d09302d86fd2ca4be71748897146de.html" target="_top" xlink:title="cx3d">
<polygon fill="white" stroke="black" points="430,-108 376,-108 376,-72 430,-72 430,-108"/>
<text text-anchor="middle" x="403" y="-87.5" font-family="Helvetica,sans-Serif" font-size="10.00">cx3d</text>
</a>
</g>
</g>
<!-- dir_d44c64559bbebec7f509842c48db8b23 -->
<g id="node8" class="node"><title>dir_d44c64559bbebec7f509842c48db8b23</title>
<g id="a_node8"><a xlink:href="dir_d44c64559bbebec7f509842c48db8b23.html" target="_top" xlink:title="include">
<polygon fill="none" stroke="black" points="250,-36 196,-36 196,-0 250,-0 250,-36"/>
<text text-anchor="middle" x="223" y="-15.5" font-family="Helvetica,sans-Serif" font-size="10.00">include</text>
</a>
</g>
</g>
<!-- dir_47d09302d86fd2ca4be71748897146de&#45;&gt;dir_d44c64559bbebec7f509842c48db8b23 -->
<g id="edge2" class="edge"><title>dir_47d09302d86fd2ca4be71748897146de&#45;&gt;dir_d44c64559bbebec7f509842c48db8b23</title>
<path fill="none" stroke="black" d="M380.4,-71.7749C376.089,-68.9373 371.511,-66.2067 367,-64 332.378,-47.0644 289.98,-34.7301 260.185,-27.3029"/>
<polygon fill="black" stroke="black" points="260.748,-23.8381 250.205,-24.881 259.097,-30.6407 260.748,-23.8381"/>
<g id="a_edge2&#45;headlabel"><a xlink:href="dir_000005_000011.html" target="_top" xlink:title="1">
<text text-anchor="middle" x="264.911" y="-19.4266" font-family="Helvetica,sans-Serif" font-size="10.00">1</text>
</a>
</g>
</g>
<!-- dir_9f153230208cc4d8bc8b3728e45493bd -->
<g id="node3" class="node"><title>dir_9f153230208cc4d8bc8b3728e45493bd</title>
<g id="a_node3"><a xlink:href="dir_9f153230208cc4d8bc8b3728e45493bd.html" target="_top" xlink:title="getami">
<polygon fill="white" stroke="black" points="358,-108 304,-108 304,-72 358,-72 358,-108"/>
<text text-anchor="middle" x="331" y="-87.5" font-family="Helvetica,sans-Serif" font-size="10.00">getami</text>
</a>
</g>
</g>
<!-- dir_9f153230208cc4d8bc8b3728e45493bd&#45;&gt;dir_d44c64559bbebec7f509842c48db8b23 -->
<g id="edge1" class="edge"><title>dir_9f153230208cc4d8bc8b3728e45493bd&#45;&gt;dir_d44c64559bbebec7f509842c48db8b23</title>
<path fill="none" stroke="black" d="M306.709,-71.8948C302.815,-69.2208 298.812,-66.5127 295,-64 283.329,-56.307 270.425,-48.1387 258.803,-40.9029"/>
<polygon fill="black" stroke="black" points="260.551,-37.8683 250.207,-35.5746 256.863,-43.818 260.551,-37.8683"/>
<g id="a_edge1&#45;headlabel"><a xlink:href="dir_000006_000011.html" target="_top" xlink:title="1">
<text text-anchor="middle" x="265.102" y="-34.8488" font-family="Helvetica,sans-Serif" font-size="10.00">1</text>
</a>
</g>
</g>
<!-- dir_f429eabb007bd95dff44ea3dcd5e0a3e -->
<g id="node4" class="node"><title>dir_f429eabb007bd95dff44ea3dcd5e0a3e</title>
<g id="a_node4"><a xlink:href="dir_f429eabb007bd95dff44ea3dcd5e0a3e.html" target="_top" xlink:title="getx11">
<polygon fill="white" stroke="black" points="286,-108 232,-108 232,-72 286,-72 286,-108"/>
<text text-anchor="middle" x="259" y="-87.5" font-family="Helvetica,sans-Serif" font-size="10.00">getx11</text>
</a>
</g>
</g>
<!-- dir_f429eabb007bd95dff44ea3dcd5e0a3e&#45;&gt;dir_d44c64559bbebec7f509842c48db8b23 -->
<g id="edge6" class="edge"><title>dir_f429eabb007bd95dff44ea3dcd5e0a3e&#45;&gt;dir_d44c64559bbebec7f509842c48db8b23</title>
<path fill="none" stroke="black" d="M250.101,-71.6966C246.003,-63.7284 241.051,-54.0995 236.507,-45.2641"/>
<polygon fill="black" stroke="black" points="239.483,-43.3965 231.797,-36.1043 233.258,-46.598 239.483,-43.3965"/>
<g id="a_edge6&#45;headlabel"><a xlink:href="dir_000007_000011.html" target="_top" xlink:title="2">
<text text-anchor="middle" x="243.651" y="-42.7946" font-family="Helvetica,sans-Serif" font-size="10.00">2</text>
</a>
</g>
</g>
<!-- dir_f70dd5665c8a153633265f45f52eea50 -->
<g id="node5" class="node"><title>dir_f70dd5665c8a153633265f45f52eea50</title>
<g id="a_node5"><a xlink:href="dir_f70dd5665c8a153633265f45f52eea50.html" target="_top" xlink:title="gmr27">
<polygon fill="white" stroke="black" points="214,-108 160,-108 160,-72 214,-72 214,-108"/>
<text text-anchor="middle" x="187" y="-87.5" font-family="Helvetica,sans-Serif" font-size="10.00">gmr27</text>
</a>
</g>
</g>
<!-- dir_f70dd5665c8a153633265f45f52eea50&#45;&gt;dir_d44c64559bbebec7f509842c48db8b23 -->
<g id="edge4" class="edge"><title>dir_f70dd5665c8a153633265f45f52eea50&#45;&gt;dir_d44c64559bbebec7f509842c48db8b23</title>
<path fill="none" stroke="black" d="M195.899,-71.6966C199.997,-63.7284 204.949,-54.0995 209.493,-45.2641"/>
<polygon fill="black" stroke="black" points="212.742,-46.598 214.203,-36.1043 206.517,-43.3965 212.742,-46.598"/>
<g id="a_edge4&#45;headlabel"><a xlink:href="dir_000008_000011.html" target="_top" xlink:title="4">
<text text-anchor="middle" x="213.623" y="-48.5931" font-family="Helvetica,sans-Serif" font-size="10.00">4</text>
</a>
</g>
</g>
<!-- dir_d2da7a6d908fcd918c9a6fac486a603a -->
<g id="node6" class="node"><title>dir_d2da7a6d908fcd918c9a6fac486a603a</title>
<g id="a_node6"><a xlink:href="dir_d2da7a6d908fcd918c9a6fac486a603a.html" target="_top" xlink:title="next">
<polygon fill="white" stroke="black" points="142,-108 88,-108 88,-72 142,-72 142,-108"/>
<text text-anchor="middle" x="115" y="-87.5" font-family="Helvetica,sans-Serif" font-size="10.00">next</text>
</a>
</g>
</g>
<!-- dir_d2da7a6d908fcd918c9a6fac486a603a&#45;&gt;dir_d44c64559bbebec7f509842c48db8b23 -->
<g id="edge5" class="edge"><title>dir_d2da7a6d908fcd918c9a6fac486a603a&#45;&gt;dir_d44c64559bbebec7f509842c48db8b23</title>
<path fill="none" stroke="black" d="M139.291,-71.8948C143.185,-69.2208 147.188,-66.5127 151,-64 162.671,-56.307 175.575,-48.1387 187.197,-40.9029"/>
<polygon fill="black" stroke="black" points="189.137,-43.818 195.793,-35.5746 185.449,-37.8683 189.137,-43.818"/>
<g id="a_edge5&#45;headlabel"><a xlink:href="dir_000009_000011.html" target="_top" xlink:title="2">
<text text-anchor="middle" x="187.578" y="-45.6251" font-family="Helvetica,sans-Serif" font-size="10.00">2</text>
</a>
</g>
</g>
<!-- dir_88ea2928e17d8e47e16489b66a49d779 -->
<g id="node7" class="node"><title>dir_88ea2928e17d8e47e16489b66a49d779</title>
<g id="a_node7"><a xlink:href="dir_88ea2928e17d8e47e16489b66a49d779.html" target="_top" xlink:title="qcr">
<polygon fill="white" stroke="black" points="70,-108 16,-108 16,-72 70,-72 70,-108"/>
<text text-anchor="middle" x="43" y="-87.5" font-family="Helvetica,sans-Serif" font-size="10.00">qcr</text>
</a>
</g>
</g>
<!-- dir_88ea2928e17d8e47e16489b66a49d779&#45;&gt;dir_d44c64559bbebec7f509842c48db8b23 -->
<g id="edge3" class="edge"><title>dir_88ea2928e17d8e47e16489b66a49d779&#45;&gt;dir_d44c64559bbebec7f509842c48db8b23</title>
<path fill="none" stroke="black" d="M65.6003,-71.7749C69.9107,-68.9373 74.4887,-66.2067 79,-64 113.622,-47.0644 156.02,-34.7301 185.815,-27.3029"/>
<polygon fill="black" stroke="black" points="186.903,-30.6407 195.795,-24.881 185.252,-23.8381 186.903,-30.6407"/>
<g id="a_edge3&#45;headlabel"><a xlink:href="dir_000010_000011.html" target="_top" xlink:title="2">
<text text-anchor="middle" x="184.079" y="-31.7475" font-family="Helvetica,sans-Serif" font-size="10.00">2</text>
</a>
</g>
</g>
</g>
</svg>
        <g id="navigator" transform="translate(0 0)" fill="#404254">
                <rect fill="#f2f5e9" fill-opacity="0.5" stroke="#606060" stroke-width=".5" x="0" y="0" width="60" height="60"/>
                <use id="zoomplus" xlink:href="#zoomPlus" x="17" y="9" onmousedown="handleZoom(evt,'in')"/>
                <use id="zoomminus" xlink:href="#zoomMin" x="42" y="9" onmousedown="handleZoom(evt,'out')"/>
                <use id="reset" xlink:href="#resetDef" x="30" y="36" onmousedown="handleReset()"/>
                <g id="arrowUp" xlink:href="#dirArrow" transform="translate(30 24)" onmousedown="handlePan(0,-1)">
                  <use xlink:href="#rim" fill="#404040">
                        <set attributeName="fill" to="#808080" begin="arrowUp.mouseover" end="arrowUp.mouseout"/>
                  </use>
                  <path fill="none" stroke="white" stroke-width="1.5" d="M0,-3.0v7 M-2.5,-0.5L0,-3.0L2.5,-0.5"/>
                </g>
                <g id="arrowRight" xlink:href="#dirArrow" transform="rotate(90) translate(36 -43)" onmousedown="handlePan(1,0)">
                  <use xlink:href="#rim" fill="#404040">
                        <set attributeName="fill" to="#808080" begin="arrowRight.mouseover" end="arrowRight.mouseout"/>
                  </use>
                  <path fill="none" stroke="white" stroke-width="1.5" d="M0,-3.0v7 M-2.5,-0.5L0,-3.0L2.5,-0.5"/>
                </g>
                <g id="arrowDown" xlink:href="#dirArrow" transform="rotate(180) translate(-30 -48)" onmousedown="handlePan(0,1)">
                  <use xlink:href="#rim" fill="#404040">
                        <set attributeName="fill" to="#808080" begin="arrowDown.mouseover" end="arrowDown.mouseout"/>
                  </use>
                  <path fill="none" stroke="white" stroke-width="1.5" d="M0,-3.0v7 M-2.5,-0.5L0,-3.0L2.5,-0.5"/>
                </g>
                <g id="arrowLeft" xlink:href="#dirArrow" transform="rotate(270) translate(-36 17)" onmousedown="handlePan(-1,0)">
                  <use xlink:href="#rim" fill="#404040">
                        <set attributeName="fill" to="#808080" begin="arrowLeft.mouseover" end="arrowLeft.mouseout"/>
                  </use>
                  <path fill="none" stroke="white" stroke-width="1.5" d="M0,-3.0v7 M-2.5,-0.5L0,-3.0L2.5,-0.5"/>
                </g>
        </g>
        <svg viewBox="0 0 15 15" width="100%" height="30px" preserveAspectRatio="xMaxYMin meet">
         <g id="arrow_out" transform="scale(0.3 0.3)">
          <a xlink:href="dir_02bd8536e515294d87b960c9851c940c_dep_org.svg" target="_base">
           <rect id="button" ry="5" rx="5" y="6" x="6" height="38" width="38"
                fill="#f2f5e9" fill-opacity="0.5" stroke="#606060" stroke-width="1.0"/>
           <path id="arrow"
             d="M 11.500037,31.436501 C 11.940474,20.09759 22.043105,11.32322 32.158766,21.979434 L 37.068811,17.246167 C 37.068811,17.246167 37.088388,32 37.088388,32 L 22.160133,31.978069 C 22.160133,31.978069 26.997745,27.140456 26.997745,27.140456 C 18.528582,18.264221 13.291696,25.230495 11.500037,31.436501 z"
             style="fill:#404040;"/>
          </a>
         </g>
        </svg>
</svg>
