<?xml version="1.0" encoding="UTF-8" standalone="no"?>
<!DOCTYPE svg PUBLIC "-//W3C//DTD SVG 1.1//EN"
 "http://www.w3.org/Graphics/SVG/1.1/DTD/svg11.dtd">
<!-- Generated by graphviz version 2.38.0 (20140413.2041)
 -->
<!-- Title: cnv Pages: 1 -->
<svg width="324pt" height="204pt"
 viewBox="0.00 0.00 324.00 204.00" xmlns="http://www.w3.org/2000/svg" xmlns:xlink="http://www.w3.org/1999/xlink">
<g id="graph0" class="graph" transform="scale(1 1) rotate(0) translate(4 200)">
<title>cnv</title>
<polygon fill="white" stroke="none" points="-4,4 -4,-200 320,-200 320,4 -4,4"/>
<g id="clust1" class="cluster"><title>clusterdir_43caa2b8479cec13bef3fdb15712401e</title>
<g id="a_clust1"><a xlink:href="dir_43caa2b8479cec13bef3fdb15712401e.html" target="_top">
<polygon fill="#eeeeff" stroke="black" points="8,-136 8,-188 308,-188 308,-136 8,-136"/>
</a>
</g>
</g>
<!-- dir_43caa2b8479cec13bef3fdb15712401e -->
<g id="node1" class="node"><title>dir_43caa2b8479cec13bef3fdb15712401e</title>
<text text-anchor="middle" x="43" y="-159.5" font-family="Helvetica,sans-Serif" font-size="10.00">cnv</text>
</g>
<!-- dir_d44c64559bbebec7f509842c48db8b23 -->
<g id="node6" class="node"><title>dir_d44c64559bbebec7f509842c48db8b23</title>
<g id="a_node6"><a xlink:href="dir_d44c64559bbebec7f509842c48db8b23.html" target="_top" xlink:title="include">
<polygon fill="none" stroke="black" points="190,-36 136,-36 136,-0 190,-0 190,-36"/>
<text text-anchor="middle" x="163" y="-15.5" font-family="Helvetica,sans-Serif" font-size="10.00">include</text>
</a>
</g>
</g>
<!-- dir_43caa2b8479cec13bef3fdb15712401e&#45;&gt;dir_d44c64559bbebec7f509842c48db8b23 -->
<g id="edge6" class="edge"><title>dir_43caa2b8479cec13bef3fdb15712401e&#45;&gt;dir_d44c64559bbebec7f509842c48db8b23</title>
<path fill="none" stroke="black" d="M57.4748,-143.871C78.4671,-119.031 117.496,-72.8464 141.754,-44.1415"/>
<polygon fill="black" stroke="black" points="144.693,-46.0864 148.474,-36.1893 139.346,-41.5681 144.693,-46.0864"/>
<g id="a_edge6&#45;headlabel"><a xlink:href="dir_000000_000011.html" target="_top" xlink:title="37">
<text text-anchor="middle" x="144.541" y="-48.1645" font-family="Helvetica,sans-Serif" font-size="10.00">37</text>
</a>
</g>
</g>
<!-- dir_1b099dd8e6bbc5c09e60114bf1177b72 -->
<g id="node2" class="node"><title>dir_1b099dd8e6bbc5c09e60114bf1177b72</title>
<g id="a_node2"><a xlink:href="dir_1b099dd8e6bbc5c09e60114bf1177b72.html" target="_top" xlink:title="rletoabA62">
<polygon fill="white" stroke="black" points="156,-180 88,-180 88,-144 156,-144 156,-180"/>
<text text-anchor="middle" x="122" y="-159.5" font-family="Helvetica,sans-Serif" font-size="10.00">rletoabA62</text>
</a>
</g>
</g>
<!-- dir_1b099dd8e6bbc5c09e60114bf1177b72&#45;&gt;dir_d44c64559bbebec7f509842c48db8b23 -->
<g id="edge3" class="edge"><title>dir_1b099dd8e6bbc5c09e60114bf1177b72&#45;&gt;dir_d44c64559bbebec7f509842c48db8b23</title>
<path fill="none" stroke="black" d="M126.946,-143.871C133.964,-119.564 146.883,-74.8187 155.2,-46.0132"/>
<polygon fill="black" stroke="black" points="158.625,-46.7677 158.037,-36.1893 151.9,-44.8259 158.625,-46.7677"/>
<g id="a_edge3&#45;headlabel"><a xlink:href="dir_000001_000011.html" target="_top" xlink:title="1">
<text text-anchor="middle" x="160.356" y="-48.5089" font-family="Helvetica,sans-Serif" font-size="10.00">1</text>
</a>
</g>
</g>
<!-- dir_ff5f07f44291a2a6a0941d6c32344934 -->
<g id="node3" class="node"><title>dir_ff5f07f44291a2a6a0941d6c32344934</title>
<g id="a_node3"><a xlink:href="dir_ff5f07f44291a2a6a0941d6c32344934.html" target="_top" xlink:title="rletogif">
<polygon fill="white" stroke="black" points="228,-180 174,-180 174,-144 228,-144 228,-180"/>
<text text-anchor="middle" x="201" y="-159.5" font-family="Helvetica,sans-Serif" font-size="10.00">rletogif</text>
</a>
</g>
</g>
<!-- dir_ff5f07f44291a2a6a0941d6c32344934&#45;&gt;dir_d44c64559bbebec7f509842c48db8b23 -->
<g id="edge1" class="edge"><title>dir_ff5f07f44291a2a6a0941d6c32344934&#45;&gt;dir_d44c64559bbebec7f509842c48db8b23</title>
<path fill="none" stroke="black" d="M194.069,-143.525C190.175,-133.284 185.425,-120.034 182,-108 176.198,-87.6135 171.259,-64.1522 167.872,-46.4376"/>
<polygon fill="black" stroke="black" points="171.243,-45.4188 165.97,-36.2292 164.361,-46.7011 171.243,-45.4188"/>
<g id="a_edge1&#45;headlabel"><a xlink:href="dir_000002_000011.html" target="_top" xlink:title="3">
<text text-anchor="middle" x="174.692" y="-45.9325" font-family="Helvetica,sans-Serif" font-size="10.00">3</text>
</a>
</g>
</g>
<!-- dir_dc1fc6fdc830ea5c35014c5bd5b27039 -->
<g id="node4" class="node"><title>dir_dc1fc6fdc830ea5c35014c5bd5b27039</title>
<g id="a_node4"><a xlink:href="dir_dc1fc6fdc830ea5c35014c5bd5b27039.html" target="_top" xlink:title="tex">
<polygon fill="white" stroke="black" points="300,-180 246,-180 246,-144 300,-144 300,-180"/>
<text text-anchor="middle" x="273" y="-159.5" font-family="Helvetica,sans-Serif" font-size="10.00">tex</text>
</a>
</g>
</g>
<!-- dir_4eeb864c4eec08c7d6b9d3b0352cfdde -->
<g id="node5" class="node"><title>dir_4eeb864c4eec08c7d6b9d3b0352cfdde</title>
<g id="a_node5"><a xlink:href="dir_4eeb864c4eec08c7d6b9d3b0352cfdde.html" target="_top" xlink:title="tools">
<polygon fill="white" stroke="red" points="245,-108 191,-108 191,-72 245,-72 245,-108"/>
<text text-anchor="middle" x="218" y="-87.5" font-family="Helvetica,sans-Serif" font-size="10.00">tools</text>
</a>
</g>
</g>
<!-- dir_dc1fc6fdc830ea5c35014c5bd5b27039&#45;&gt;dir_4eeb864c4eec08c7d6b9d3b0352cfdde -->
<g id="edge4" class="edge"><title>dir_dc1fc6fdc830ea5c35014c5bd5b27039&#45;&gt;dir_4eeb864c4eec08c7d6b9d3b0352cfdde</title>
<path fill="none" stroke="black" d="M259.404,-143.697C252.877,-135.389 244.932,-125.277 237.753,-116.141"/>
<polygon fill="black" stroke="black" points="240.369,-113.805 231.439,-108.104 234.865,-118.13 240.369,-113.805"/>
<g id="a_edge4&#45;headlabel"><a xlink:href="dir_000003_000013.html" target="_top" xlink:title="2">
<text text-anchor="middle" x="244.823" y="-112.377" font-family="Helvetica,sans-Serif" font-size="10.00">2</text>
</a>
</g>
</g>
<!-- dir_dc1fc6fdc830ea5c35014c5bd5b27039&#45;&gt;dir_d44c64559bbebec7f509842c48db8b23 -->
<g id="edge5" class="edge"><title>dir_dc1fc6fdc830ea5c35014c5bd5b27039&#45;&gt;dir_d44c64559bbebec7f509842c48db8b23</title>
<path fill="none" stroke="black" d="M273.32,-143.957C272.847,-124.732 269.478,-93.3686 254,-72 240.605,-53.5066 218.619,-40.4429 199.614,-31.9127"/>
<polygon fill="black" stroke="black" points="200.866,-28.6421 190.293,-27.973 198.141,-35.0899 200.866,-28.6421"/>
<g id="a_edge5&#45;headlabel"><a xlink:href="dir_000003_000011.html" target="_top" xlink:title="2">
<text text-anchor="middle" x="205.283" y="-24.9261" font-family="Helvetica,sans-Serif" font-size="10.00">2</text>
</a>
</g>
</g>
<!-- dir_4eeb864c4eec08c7d6b9d3b0352cfdde&#45;&gt;dir_d44c64559bbebec7f509842c48db8b23 -->
<g id="edge2" class="edge"><title>dir_4eeb864c4eec08c7d6b9d3b0352cfdde&#45;&gt;dir_d44c64559bbebec7f509842c48db8b23</title>
<path fill="none" stroke="black" d="M204.404,-71.6966C197.877,-63.3893 189.932,-53.2771 182.753,-44.1407"/>
<polygon fill="black" stroke="black" points="185.369,-41.8051 176.439,-36.1043 179.865,-46.1299 185.369,-41.8051"/>
<g id="a_edge2&#45;headlabel"><a xlink:href="dir_000013_000011.html" target="_top" xlink:title="66">
<text text-anchor="middle" x="189.823" y="-40.3775" font-family="Helvetica,sans-Serif" font-size="10.00">66</text>
</a>
</g>
</g>
</g>
</svg>
