<?xml version="1.0" encoding="UTF-8" standalone="no"?>
<!DOCTYPE svg PUBLIC "-//W3C//DTD SVG 1.1//EN"
 "http://www.w3.org/Graphics/SVG/1.1/DTD/svg11.dtd">
<!-- Generated by graphviz version 2.38.0 (20140413.2041)
 -->
<!-- Title: main Pages: 1 -->
<svg width="397pt" height="142pt"
 viewBox="0.00 0.00 397.00 142.00" xmlns="http://www.w3.org/2000/svg" xmlns:xlink="http://www.w3.org/1999/xlink">
<g id="graph0" class="graph" transform="scale(1 1) rotate(0) translate(4 138)">
<title>main</title>
<polygon fill="white" stroke="none" points="-4,4 -4,-138 393,-138 393,4 -4,4"/>
<!-- Node1 -->
<g id="node1" class="node"><title>Node1</title>
<polygon fill="#bfbfbf" stroke="black" points="0,-76.5 0,-95.5 39,-95.5 39,-76.5 0,-76.5"/>
<text text-anchor="middle" x="19.5" y="-83.5" font-family="Helvetica,sans-Serif" font-size="10.00">main</text>
</g>
<!-- Node2 -->
<g id="node2" class="node"><title>Node2</title>
<g id="a_node2"><a xlink:href="../../d4/db0/scanargs_8c.html#a7ea6d702c0484056c8504d6ce7fede08" target="_top" xlink:title="scanargs">
<polygon fill="white" stroke="black" points="82,-114.5 82,-133.5 142,-133.5 142,-114.5 82,-114.5"/>
<text text-anchor="middle" x="112" y="-121.5" font-family="Helvetica,sans-Serif" font-size="10.00">scanargs</text>
</a>
</g>
</g>
<!-- Node1&#45;&gt;Node2 -->
<g id="edge1" class="edge"><title>Node1&#45;&gt;Node2</title>
<path fill="none" stroke="midnightblue" d="M39.2517,-93.8736C50.6669,-98.6668 65.556,-104.919 78.81,-110.484"/>
<polygon fill="midnightblue" stroke="midnightblue" points="77.5238,-113.74 88.0991,-114.384 80.2339,-107.286 77.5238,-113.74"/>
</g>
<!-- Node4 -->
<g id="node4" class="node"><title>Node4</title>
<g id="a_node4"><a xlink:href="../../de/d4e/rle__open__f_8c.html#a89733a45961817885603ae01210290b7" target="_top" xlink:title="rle_open_f">
<polygon fill="white" stroke="black" points="78,-76.5 78,-95.5 146,-95.5 146,-76.5 78,-76.5"/>
<text text-anchor="middle" x="112" y="-83.5" font-family="Helvetica,sans-Serif" font-size="10.00">rle_open_f</text>
</a>
</g>
</g>
<!-- Node1&#45;&gt;Node4 -->
<g id="edge3" class="edge"><title>Node1&#45;&gt;Node4</title>
<path fill="none" stroke="midnightblue" d="M39.2517,-86C47.5516,-86 57.688,-86 67.6971,-86"/>
<polygon fill="midnightblue" stroke="midnightblue" points="67.9994,-89.5001 77.9993,-86 67.9993,-82.5001 67.9994,-89.5001"/>
</g>
<!-- Node9 -->
<g id="node9" class="node"><title>Node9</title>
<g id="a_node9"><a xlink:href="../../dc/dd9/XtndRunget_8c.html#a53094ca52d4ba6e2fcad76ee780d9ac5" target="_top" xlink:title="XtndRunGet">
<polygon fill="white" stroke="black" points="75,-38.5 75,-57.5 149,-57.5 149,-38.5 75,-38.5"/>
<text text-anchor="middle" x="112" y="-45.5" font-family="Helvetica,sans-Serif" font-size="10.00">XtndRunGet</text>
</a>
</g>
</g>
<!-- Node1&#45;&gt;Node9 -->
<g id="edge8" class="edge"><title>Node1&#45;&gt;Node9</title>
<path fill="none" stroke="midnightblue" d="M39.2517,-78.1264C50.6669,-73.3332 65.556,-67.0815 78.81,-61.5162"/>
<polygon fill="midnightblue" stroke="midnightblue" points="80.2339,-64.7144 88.0991,-57.6159 77.5238,-58.2603 80.2339,-64.7144"/>
</g>
<!-- Node3 -->
<g id="node3" class="node"><title>Node3</title>
<g id="a_node3"><a xlink:href="../../d4/db0/scanargs_8c.html#a862219039664df6eb3cfced58addf830" target="_top" xlink:title="_do_scanargs">
<polygon fill="white" stroke="black" points="194,-114.5 194,-133.5 278,-133.5 278,-114.5 194,-114.5"/>
<text text-anchor="middle" x="236" y="-121.5" font-family="Helvetica,sans-Serif" font-size="10.00">_do_scanargs</text>
</a>
</g>
</g>
<!-- Node2&#45;&gt;Node3 -->
<g id="edge2" class="edge"><title>Node2&#45;&gt;Node3</title>
<path fill="none" stroke="midnightblue" d="M142.222,-124C154.588,-124 169.372,-124 183.464,-124"/>
<polygon fill="midnightblue" stroke="midnightblue" points="183.559,-127.5 193.559,-124 183.559,-120.5 183.559,-127.5"/>
</g>
<!-- Node5 -->
<g id="node5" class="node"><title>Node5</title>
<g id="a_node5"><a xlink:href="../../de/d4e/rle__open__f_8c.html#a5a0e62a00f907fce26e93b2f72adb2b0" target="_top" xlink:title="rle_open_f_noexit">
<polygon fill="white" stroke="black" points="185,-76.5 185,-95.5 287,-95.5 287,-76.5 185,-76.5"/>
<text text-anchor="middle" x="236" y="-83.5" font-family="Helvetica,sans-Serif" font-size="10.00">rle_open_f_noexit</text>
</a>
</g>
</g>
<!-- Node4&#45;&gt;Node5 -->
<g id="edge4" class="edge"><title>Node4&#45;&gt;Node5</title>
<path fill="none" stroke="midnightblue" d="M146.015,-86C154.919,-86 164.838,-86 174.732,-86"/>
<polygon fill="midnightblue" stroke="midnightblue" points="174.989,-89.5001 184.989,-86 174.989,-82.5001 174.989,-89.5001"/>
</g>
<!-- Node6 -->
<g id="node6" class="node"><title>Node6</title>
<g id="a_node6"><a xlink:href="../../de/d4e/rle__open__f_8c.html#a84fda810ae9b9bde82a6391d0b264ead" target="_top" xlink:title="my_popen">
<polygon fill="white" stroke="black" points="323,-114.5 323,-133.5 389,-133.5 389,-114.5 323,-114.5"/>
<text text-anchor="middle" x="356" y="-121.5" font-family="Helvetica,sans-Serif" font-size="10.00">my_popen</text>
</a>
</g>
</g>
<!-- Node5&#45;&gt;Node6 -->
<g id="edge5" class="edge"><title>Node5&#45;&gt;Node6</title>
<path fill="none" stroke="midnightblue" d="M266.776,-95.589C281.59,-100.359 299.691,-106.189 315.634,-111.323"/>
<polygon fill="midnightblue" stroke="midnightblue" points="314.642,-114.68 325.233,-114.414 316.787,-108.017 314.642,-114.68"/>
</g>
<!-- Node7 -->
<g id="node7" class="node"><title>Node7</title>
<g id="a_node7"><a xlink:href="../../d0/dcc/rletorla_8c.html#ab7e36af3707843f77cc5b4e831c2fa6d" target="_top" xlink:title="malloc">
<polygon fill="white" stroke="black" points="332.5,-76.5 332.5,-95.5 379.5,-95.5 379.5,-76.5 332.5,-76.5"/>
<text text-anchor="middle" x="356" y="-83.5" font-family="Helvetica,sans-Serif" font-size="10.00">malloc</text>
</a>
</g>
</g>
<!-- Node5&#45;&gt;Node7 -->
<g id="edge6" class="edge"><title>Node5&#45;&gt;Node7</title>
<path fill="none" stroke="midnightblue" d="M287.043,-86C298.915,-86 311.282,-86 322.161,-86"/>
<polygon fill="midnightblue" stroke="midnightblue" points="322.471,-89.5001 332.471,-86 322.471,-82.5001 322.471,-89.5001"/>
</g>
<!-- Node8 -->
<g id="node8" class="node"><title>Node8</title>
<g id="a_node8"><a xlink:href="../../d0/dcc/rletorla_8c.html#aafde19f7d36ca163a143579c1b125b6d" target="_top" xlink:title="free">
<polygon fill="white" stroke="black" points="338.5,-38.5 338.5,-57.5 373.5,-57.5 373.5,-38.5 338.5,-38.5"/>
<text text-anchor="middle" x="356" y="-45.5" font-family="Helvetica,sans-Serif" font-size="10.00">free</text>
</a>
</g>
</g>
<!-- Node5&#45;&gt;Node8 -->
<g id="edge7" class="edge"><title>Node5&#45;&gt;Node8</title>
<path fill="none" stroke="midnightblue" d="M266.776,-76.411C285.813,-70.2805 310.281,-62.4012 328.618,-56.496"/>
<polygon fill="midnightblue" stroke="midnightblue" points="329.914,-59.7557 338.359,-53.3589 327.768,-53.0927 329.914,-59.7557"/>
</g>
<!-- Node10 -->
<g id="node10" class="node"><title>Node10</title>
<g id="a_node10"><a xlink:href="../../db/d67/bread_8c.html#ad33b8456f68670d375377ba55da937ff" target="_top" xlink:title="bread">
<polygon fill="white" stroke="black" points="214,-38.5 214,-57.5 258,-57.5 258,-38.5 214,-38.5"/>
<text text-anchor="middle" x="236" y="-45.5" font-family="Helvetica,sans-Serif" font-size="10.00">bread</text>
</a>
</g>
</g>
<!-- Node9&#45;&gt;Node10 -->
<g id="edge9" class="edge"><title>Node9&#45;&gt;Node10</title>
<path fill="none" stroke="midnightblue" d="M149.274,-48C166.559,-48 187.033,-48 203.637,-48"/>
<polygon fill="midnightblue" stroke="midnightblue" points="203.917,-51.5001 213.917,-48 203.917,-44.5001 203.917,-51.5001"/>
</g>
<!-- Node11 -->
<g id="node11" class="node"><title>Node11</title>
<g id="a_node11"><a xlink:href="../../dc/dd9/XtndRunget_8c.html#ab7e36af3707843f77cc5b4e831c2fa6d" target="_top" xlink:title="malloc">
<polygon fill="white" stroke="black" points="212.5,-0.5 212.5,-19.5 259.5,-19.5 259.5,-0.5 212.5,-0.5"/>
<text text-anchor="middle" x="236" y="-7.5" font-family="Helvetica,sans-Serif" font-size="10.00">malloc</text>
</a>
</g>
</g>
<!-- Node9&#45;&gt;Node11 -->
<g id="edge10" class="edge"><title>Node9&#45;&gt;Node11</title>
<path fill="none" stroke="midnightblue" d="M143.786,-38.411C161.773,-32.8085 184.449,-25.7455 202.691,-20.0634"/>
<polygon fill="midnightblue" stroke="midnightblue" points="203.805,-23.3823 212.312,-17.0668 201.723,-16.699 203.805,-23.3823"/>
</g>
</g>
</svg>
