<?xml version="1.0" encoding="UTF-8" standalone="no"?>
<!DOCTYPE svg PUBLIC "-//W3C//DTD SVG 1.1//EN"
 "http://www.w3.org/Graphics/SVG/1.1/DTD/svg11.dtd">
<!-- Generated by graphviz version 2.38.0 (20140413.2041)
 -->
<!-- Title: cnv/pgmtorle.c Pages: 1 -->
<svg width="185pt" height="196pt"
 viewBox="0.00 0.00 185.00 196.00" xmlns="http://www.w3.org/2000/svg" xmlns:xlink="http://www.w3.org/1999/xlink">
<g id="graph0" class="graph" transform="scale(1 1) rotate(0) translate(4 192)">
<title>cnv/pgmtorle.c</title>
<polygon fill="white" stroke="none" points="-4,4 -4,-192 181,-192 181,4 -4,4"/>
<!-- Node1 -->
<g id="node1" class="node"><title>Node1</title>
<polygon fill="#bfbfbf" stroke="black" points="16,-168.5 16,-187.5 101,-187.5 101,-168.5 16,-168.5"/>
<text text-anchor="middle" x="58.5" y="-175.5" font-family="Helvetica,sans-Serif" font-size="10.00">cnv/pgmtorle.c</text>
</g>
<!-- Node2 -->
<g id="node2" class="node"><title>Node2</title>
<polygon fill="white" stroke="#bfbfbf" points="0,-56.5 0,-75.5 47,-75.5 47,-56.5 0,-56.5"/>
<text text-anchor="middle" x="23.5" y="-63.5" font-family="Helvetica,sans-Serif" font-size="10.00">stdio.h</text>
</g>
<!-- Node1&#45;&gt;Node2 -->
<g id="edge1" class="edge"><title>Node1&#45;&gt;Node2</title>
<path fill="none" stroke="midnightblue" d="M49.8984,-168.237C42.1923,-159.755 31.3762,-146.138 26.5,-132 21.372,-117.132 20.9342,-99.2121 21.6019,-85.9564"/>
<polygon fill="midnightblue" stroke="midnightblue" points="25.1133,-85.9392 22.3832,-75.7022 18.1335,-85.4074 25.1133,-85.9392"/>
</g>
<!-- Node3 -->
<g id="node3" class="node"><title>Node3</title>
<polygon fill="white" stroke="#bfbfbf" points="36,-112.5 36,-131.5 81,-131.5 81,-112.5 36,-112.5"/>
<text text-anchor="middle" x="58.5" y="-119.5" font-family="Helvetica,sans-Serif" font-size="10.00">pgm.h</text>
</g>
<!-- Node1&#45;&gt;Node3 -->
<g id="edge2" class="edge"><title>Node1&#45;&gt;Node3</title>
<path fill="none" stroke="midnightblue" d="M58.5,-168.083C58.5,-161.006 58.5,-150.861 58.5,-141.986"/>
<polygon fill="midnightblue" stroke="midnightblue" points="62.0001,-141.751 58.5,-131.751 55.0001,-141.751 62.0001,-141.751"/>
</g>
<!-- Node4 -->
<g id="node4" class="node"><title>Node4</title>
<g id="a_node4"><a xlink:href="../../d7/d27/rle_8h.html" target="_top" xlink:title="rle.h">
<polygon fill="white" stroke="black" points="99,-112.5 99,-131.5 136,-131.5 136,-112.5 99,-112.5"/>
<text text-anchor="middle" x="117.5" y="-119.5" font-family="Helvetica,sans-Serif" font-size="10.00">rle.h</text>
</a>
</g>
</g>
<!-- Node1&#45;&gt;Node4 -->
<g id="edge3" class="edge"><title>Node1&#45;&gt;Node4</title>
<path fill="none" stroke="midnightblue" d="M67.9794,-168.324C76.7011,-160.341 89.8435,-148.313 100.398,-138.653"/>
<polygon fill="midnightblue" stroke="midnightblue" points="102.834,-141.167 107.848,-131.834 98.1083,-136.004 102.834,-141.167"/>
</g>
<!-- Node4&#45;&gt;Node2 -->
<g id="edge7" class="edge"><title>Node4&#45;&gt;Node2</title>
<path fill="none" stroke="midnightblue" d="M102.397,-112.324C87.5967,-103.822 64.8058,-90.7288 47.5178,-80.7975"/>
<polygon fill="midnightblue" stroke="midnightblue" points="48.9798,-77.6009 38.5652,-75.6545 45.4929,-83.6707 48.9798,-77.6009"/>
</g>
<!-- Node5 -->
<g id="node5" class="node"><title>Node5</title>
<g id="a_node5"><a xlink:href="../../df/dad/rle__config_8h.html" target="_top" xlink:title="rle_config.h">
<polygon fill="white" stroke="black" points="82,-56.5 82,-75.5 153,-75.5 153,-56.5 82,-56.5"/>
<text text-anchor="middle" x="117.5" y="-63.5" font-family="Helvetica,sans-Serif" font-size="10.00">rle_config.h</text>
</a>
</g>
</g>
<!-- Node4&#45;&gt;Node5 -->
<g id="edge4" class="edge"><title>Node4&#45;&gt;Node5</title>
<path fill="none" stroke="midnightblue" d="M117.5,-112.083C117.5,-105.006 117.5,-94.8611 117.5,-85.9865"/>
<polygon fill="midnightblue" stroke="midnightblue" points="121,-85.751 117.5,-75.7511 114,-85.7511 121,-85.751"/>
</g>
<!-- Node6 -->
<g id="node6" class="node"><title>Node6</title>
<polygon fill="white" stroke="#bfbfbf" points="59,-0.5 59,-19.5 108,-19.5 108,-0.5 59,-0.5"/>
<text text-anchor="middle" x="83.5" y="-7.5" font-family="Helvetica,sans-Serif" font-size="10.00">stdlib.h</text>
</g>
<!-- Node5&#45;&gt;Node6 -->
<g id="edge5" class="edge"><title>Node5&#45;&gt;Node6</title>
<path fill="none" stroke="midnightblue" d="M111.886,-56.083C107.133,-48.5341 100.182,-37.4948 94.3484,-28.2298"/>
<polygon fill="midnightblue" stroke="midnightblue" points="97.2999,-26.3486 89.0099,-19.7511 91.3763,-30.0783 97.2999,-26.3486"/>
</g>
<!-- Node7 -->
<g id="node7" class="node"><title>Node7</title>
<polygon fill="white" stroke="#bfbfbf" points="126,-0.5 126,-19.5 177,-19.5 177,-0.5 126,-0.5"/>
<text text-anchor="middle" x="151.5" y="-7.5" font-family="Helvetica,sans-Serif" font-size="10.00">string.h</text>
</g>
<!-- Node5&#45;&gt;Node7 -->
<g id="edge6" class="edge"><title>Node5&#45;&gt;Node7</title>
<path fill="none" stroke="midnightblue" d="M123.114,-56.083C127.867,-48.5341 134.818,-37.4948 140.652,-28.2298"/>
<polygon fill="midnightblue" stroke="midnightblue" points="143.624,-30.0783 145.99,-19.7511 137.7,-26.3486 143.624,-30.0783"/>
</g>
</g>
</svg>
