<?xml version="1.0" encoding="UTF-8" standalone="no"?>
<!DOCTYPE svg PUBLIC "-//W3C//DTD SVG 1.1//EN"
 "http://www.w3.org/Graphics/SVG/1.1/DTD/svg11.dtd">
<!-- Generated by graphviz version 2.38.0 (20140413.2041)
 -->
<!-- Title: alias_hdr Pages: 1 -->
<svg width="68pt" height="139pt"
 viewBox="0.00 0.00 68.00 139.00" xmlns="http://www.w3.org/2000/svg" xmlns:xlink="http://www.w3.org/1999/xlink">
<g id="graph0" class="graph" transform="scale(1 1) rotate(0) translate(4 135)">
<title>alias_hdr</title>
<polygon fill="white" stroke="none" points="-4,4 -4,-135 64,-135 64,4 -4,4"/>
<!-- Node1 -->
<g id="node1" class="node"><title>Node1</title>
<polygon fill="#bfbfbf" stroke="black" points="-3.55271e-15,-0.5 -3.55271e-15,-19.5 60,-19.5 60,-0.5 -3.55271e-15,-0.5"/>
<text text-anchor="middle" x="30" y="-7.5" font-family="Helvetica,sans-Serif" font-size="10.00">alias_hdr</text>
</g>
<!-- Node2 -->
<g id="node2" class="node"><title>Node2</title>
<polygon fill="white" stroke="#bfbfbf" points="9.5,-111.5 9.5,-130.5 50.5,-130.5 50.5,-111.5 9.5,-111.5"/>
<text text-anchor="middle" x="30" y="-118.5" font-family="Helvetica,sans-Serif" font-size="10.00">short</text>
</g>
<!-- Node2&#45;&gt;Node1 -->
<g id="edge1" class="edge"><title>Node2&#45;&gt;Node1</title>
<path fill="none" stroke="#9a32cd" stroke-dasharray="5,2" d="M30,-101.193C30,-77.2756 30,-36.9893 30,-19.5133"/>
<polygon fill="#9a32cd" stroke="#9a32cd" points="26.5001,-101.447 30,-111.447 33.5001,-101.447 26.5001,-101.447"/>
<text text-anchor="middle" x="44" y="-85" font-family="Helvetica,sans-Serif" font-size="10.00"> xinit</text>
<text text-anchor="middle" x="44" y="-74" font-family="Helvetica,sans-Serif" font-size="10.00">yinit</text>
<text text-anchor="middle" x="44" y="-63" font-family="Helvetica,sans-Serif" font-size="10.00">xsize</text>
<text text-anchor="middle" x="44" y="-52" font-family="Helvetica,sans-Serif" font-size="10.00">ysize</text>
<text text-anchor="middle" x="44" y="-41" font-family="Helvetica,sans-Serif" font-size="10.00">depth</text>
</g>
</g>
</svg>
