<?xml version="1.0" encoding="UTF-8" standalone="no"?>
<!DOCTYPE svg PUBLIC "-//W3C//DTD SVG 1.1//EN"
 "http://www.w3.org/Graphics/SVG/1.1/DTD/svg11.dtd">
<!-- Generated by graphviz version 2.38.0 (20140413.2041)
 -->
<!-- Title: rletorla.c Pages: 1 -->
<svg width="351pt" height="84pt"
 viewBox="0.00 0.00 350.50 84.00" xmlns="http://www.w3.org/2000/svg" xmlns:xlink="http://www.w3.org/1999/xlink">
<g id="graph0" class="graph" transform="scale(1 1) rotate(0) translate(4 80)">
<title>rletorla.c</title>
<polygon fill="white" stroke="none" points="-4,4 -4,-80 346.5,-80 346.5,4 -4,4"/>
<!-- Node1 -->
<g id="node1" class="node"><title>Node1</title>
<polygon fill="#bfbfbf" stroke="black" points="146,-56.5 146,-75.5 203,-75.5 203,-56.5 146,-56.5"/>
<text text-anchor="middle" x="174.5" y="-63.5" font-family="Helvetica,sans-Serif" font-size="10.00">rletorla.c</text>
</g>
<!-- Node2 -->
<g id="node2" class="node"><title>Node2</title>
<polygon fill="white" stroke="#bfbfbf" points="0,-0.5 0,-19.5 53,-19.5 53,-0.5 0,-0.5"/>
<text text-anchor="middle" x="26.5" y="-7.5" font-family="Helvetica,sans-Serif" font-size="10.00">unistd.h</text>
</g>
<!-- Node1&#45;&gt;Node2 -->
<g id="edge1" class="edge"><title>Node1&#45;&gt;Node2</title>
<path fill="none" stroke="midnightblue" d="M151.049,-56.4435C126.367,-47.4381 87.3147,-33.1891 59.5233,-23.049"/>
<polygon fill="midnightblue" stroke="midnightblue" points="60.4352,-19.6561 49.8413,-19.5164 58.0359,-26.2321 60.4352,-19.6561"/>
</g>
<!-- Node3 -->
<g id="node3" class="node"><title>Node3</title>
<polygon fill="white" stroke="#bfbfbf" points="71,-0.5 71,-19.5 118,-19.5 118,-0.5 71,-0.5"/>
<text text-anchor="middle" x="94.5" y="-7.5" font-family="Helvetica,sans-Serif" font-size="10.00">stdio.h</text>
</g>
<!-- Node1&#45;&gt;Node3 -->
<g id="edge2" class="edge"><title>Node1&#45;&gt;Node3</title>
<path fill="none" stroke="midnightblue" d="M161.647,-56.324C149.284,-47.979 130.37,-35.2122 115.763,-25.3524"/>
<polygon fill="midnightblue" stroke="midnightblue" points="117.568,-22.3483 107.321,-19.6545 113.652,-28.1503 117.568,-22.3483"/>
</g>
<!-- Node4 -->
<g id="node4" class="node"><title>Node4</title>
<g id="a_node4"><a xlink:href="../../de/d3b/rlb__header_8h.html" target="_top" xlink:title="rlb_header.h">
<polygon fill="white" stroke="black" points="136.5,-0.5 136.5,-19.5 212.5,-19.5 212.5,-0.5 136.5,-0.5"/>
<text text-anchor="middle" x="174.5" y="-7.5" font-family="Helvetica,sans-Serif" font-size="10.00">rlb_header.h</text>
</a>
</g>
</g>
<!-- Node1&#45;&gt;Node4 -->
<g id="edge3" class="edge"><title>Node1&#45;&gt;Node4</title>
<path fill="none" stroke="midnightblue" d="M174.5,-56.083C174.5,-49.0059 174.5,-38.8611 174.5,-29.9865"/>
<polygon fill="midnightblue" stroke="midnightblue" points="178,-29.751 174.5,-19.7511 171,-29.7511 178,-29.751"/>
</g>
<!-- Node5 -->
<g id="node5" class="node"><title>Node5</title>
<polygon fill="white" stroke="#bfbfbf" points="231,-0.5 231,-19.5 268,-19.5 268,-0.5 231,-0.5"/>
<text text-anchor="middle" x="249.5" y="-7.5" font-family="Helvetica,sans-Serif" font-size="10.00">rle.h</text>
</g>
<!-- Node1&#45;&gt;Node5 -->
<g id="edge4" class="edge"><title>Node1&#45;&gt;Node5</title>
<path fill="none" stroke="midnightblue" d="M186.55,-56.324C197.963,-48.1066 215.331,-35.6017 228.935,-25.8069"/>
<polygon fill="midnightblue" stroke="midnightblue" points="231.16,-28.5174 237.231,-19.8339 227.07,-22.8366 231.16,-28.5174"/>
</g>
<!-- Node6 -->
<g id="node6" class="node"><title>Node6</title>
<polygon fill="white" stroke="#bfbfbf" points="286.5,-0.5 286.5,-19.5 342.5,-19.5 342.5,-0.5 286.5,-0.5"/>
<text text-anchor="middle" x="314.5" y="-7.5" font-family="Helvetica,sans-Serif" font-size="10.00">strings.h</text>
</g>
<!-- Node1&#45;&gt;Node6 -->
<g id="edge5" class="edge"><title>Node1&#45;&gt;Node6</title>
<path fill="none" stroke="midnightblue" d="M196.683,-56.4435C219.928,-47.4776 256.649,-33.314 282.915,-23.1827"/>
<polygon fill="midnightblue" stroke="midnightblue" points="284.35,-26.3807 292.42,-19.5164 281.831,-19.8497 284.35,-26.3807"/>
</g>
</g>
</svg>
