<?xml version="1.0" encoding="UTF-8" standalone="no"?>
<!DOCTYPE svg PUBLIC "-//W3C//DTD SVG 1.1//EN"
 "http://www.w3.org/Graphics/SVG/1.1/DTD/svg11.dtd">
<!-- Generated by graphviz version 2.38.0 (20140413.2041)
 -->
<!-- Title: cnv/rletorla.c Pages: 1 -->
<svg width="310pt" height="196pt"
 viewBox="0.00 0.00 310.00 196.00" xmlns="http://www.w3.org/2000/svg" xmlns:xlink="http://www.w3.org/1999/xlink">
<g id="graph0" class="graph" transform="scale(1 1) rotate(0) translate(4 192)">
<title>cnv/rletorla.c</title>
<polygon fill="white" stroke="none" points="-4,4 -4,-192 306,-192 306,4 -4,4"/>
<!-- Node1 -->
<g id="node1" class="node"><title>Node1</title>
<polygon fill="#bfbfbf" stroke="black" points="109,-168.5 109,-187.5 186,-187.5 186,-168.5 109,-168.5"/>
<text text-anchor="middle" x="147.5" y="-175.5" font-family="Helvetica,sans-Serif" font-size="10.00">cnv/rletorla.c</text>
</g>
<!-- Node2 -->
<g id="node2" class="node"><title>Node2</title>
<polygon fill="white" stroke="#bfbfbf" points="0,-112.5 0,-131.5 53,-131.5 53,-112.5 0,-112.5"/>
<text text-anchor="middle" x="26.5" y="-119.5" font-family="Helvetica,sans-Serif" font-size="10.00">unistd.h</text>
</g>
<!-- Node1&#45;&gt;Node2 -->
<g id="edge1" class="edge"><title>Node1&#45;&gt;Node2</title>
<path fill="none" stroke="midnightblue" d="M128.327,-168.444C108.591,-159.636 77.6148,-145.812 55.0066,-135.722"/>
<polygon fill="midnightblue" stroke="midnightblue" points="56.1414,-132.396 45.5831,-131.516 53.2886,-138.788 56.1414,-132.396"/>
</g>
<!-- Node3 -->
<g id="node3" class="node"><title>Node3</title>
<polygon fill="white" stroke="#bfbfbf" points="81,-56.5 81,-75.5 128,-75.5 128,-56.5 81,-56.5"/>
<text text-anchor="middle" x="104.5" y="-63.5" font-family="Helvetica,sans-Serif" font-size="10.00">stdio.h</text>
</g>
<!-- Node1&#45;&gt;Node3 -->
<g id="edge2" class="edge"><title>Node1&#45;&gt;Node3</title>
<path fill="none" stroke="midnightblue" d="M133.422,-168.259C122.147,-160.355 107.154,-147.584 100.5,-132 94.2564,-117.378 96.0792,-99.2066 98.9904,-85.7974"/>
<polygon fill="midnightblue" stroke="midnightblue" points="102.451,-86.3917 101.539,-75.8362 95.6694,-84.6568 102.451,-86.3917"/>
</g>
<!-- Node4 -->
<g id="node4" class="node"><title>Node4</title>
<g id="a_node4"><a xlink:href="../../de/d3b/rlb__header_8h.html" target="_top" xlink:title="rlb_header.h">
<polygon fill="white" stroke="black" points="109.5,-112.5 109.5,-131.5 185.5,-131.5 185.5,-112.5 109.5,-112.5"/>
<text text-anchor="middle" x="147.5" y="-119.5" font-family="Helvetica,sans-Serif" font-size="10.00">rlb_header.h</text>
</a>
</g>
</g>
<!-- Node1&#45;&gt;Node4 -->
<g id="edge3" class="edge"><title>Node1&#45;&gt;Node4</title>
<path fill="none" stroke="midnightblue" d="M147.5,-168.083C147.5,-161.006 147.5,-150.861 147.5,-141.986"/>
<polygon fill="midnightblue" stroke="midnightblue" points="151,-141.751 147.5,-131.751 144,-141.751 151,-141.751"/>
</g>
<!-- Node5 -->
<g id="node5" class="node"><title>Node5</title>
<g id="a_node5"><a xlink:href="../../d7/d27/rle_8h.html" target="_top" xlink:title="rle.h">
<polygon fill="white" stroke="black" points="204,-112.5 204,-131.5 241,-131.5 241,-112.5 204,-112.5"/>
<text text-anchor="middle" x="222.5" y="-119.5" font-family="Helvetica,sans-Serif" font-size="10.00">rle.h</text>
</a>
</g>
</g>
<!-- Node1&#45;&gt;Node5 -->
<g id="edge4" class="edge"><title>Node1&#45;&gt;Node5</title>
<path fill="none" stroke="midnightblue" d="M159.55,-168.324C170.963,-160.107 188.331,-147.602 201.935,-137.807"/>
<polygon fill="midnightblue" stroke="midnightblue" points="204.16,-140.517 210.231,-131.834 200.07,-134.837 204.16,-140.517"/>
</g>
<!-- Node7 -->
<g id="node7" class="node"><title>Node7</title>
<polygon fill="white" stroke="#bfbfbf" points="253,-0.5 253,-19.5 302,-19.5 302,-0.5 253,-0.5"/>
<text text-anchor="middle" x="277.5" y="-7.5" font-family="Helvetica,sans-Serif" font-size="10.00">stdlib.h</text>
</g>
<!-- Node1&#45;&gt;Node7 -->
<g id="edge9" class="edge"><title>Node1&#45;&gt;Node7</title>
<path fill="none" stroke="midnightblue" d="M186.149,-168.965C207.805,-162.511 233.581,-151.235 249.5,-132 273.82,-102.614 277.899,-56.0599 278.098,-30.0983"/>
<polygon fill="midnightblue" stroke="midnightblue" points="281.594,-29.7123 277.975,-19.7547 274.594,-29.7956 281.594,-29.7123"/>
</g>
<!-- Node5&#45;&gt;Node3 -->
<g id="edge8" class="edge"><title>Node5&#45;&gt;Node3</title>
<path fill="none" stroke="midnightblue" d="M203.803,-112.444C184.556,-103.636 154.348,-89.8116 132.3,-79.722"/>
<polygon fill="midnightblue" stroke="midnightblue" points="133.66,-76.4951 123.11,-75.5164 130.747,-82.8603 133.66,-76.4951"/>
</g>
<!-- Node6 -->
<g id="node6" class="node"><title>Node6</title>
<g id="a_node6"><a xlink:href="../../df/dad/rle__config_8h.html" target="_top" xlink:title="rle_config.h">
<polygon fill="white" stroke="black" points="178,-56.5 178,-75.5 249,-75.5 249,-56.5 178,-56.5"/>
<text text-anchor="middle" x="213.5" y="-63.5" font-family="Helvetica,sans-Serif" font-size="10.00">rle_config.h</text>
</a>
</g>
</g>
<!-- Node5&#45;&gt;Node6 -->
<g id="edge5" class="edge"><title>Node5&#45;&gt;Node6</title>
<path fill="none" stroke="midnightblue" d="M221.014,-112.083C219.821,-104.927 218.106,-94.6353 216.615,-85.6911"/>
<polygon fill="midnightblue" stroke="midnightblue" points="220.055,-85.0396 214.959,-75.7511 213.15,-86.1904 220.055,-85.0396"/>
</g>
<!-- Node6&#45;&gt;Node7 -->
<g id="edge6" class="edge"><title>Node6&#45;&gt;Node7</title>
<path fill="none" stroke="midnightblue" d="M223.783,-56.324C233.336,-48.2631 247.78,-36.0765 259.284,-26.3695"/>
<polygon fill="midnightblue" stroke="midnightblue" points="261.644,-28.9577 267.03,-19.8339 257.13,-23.6076 261.644,-28.9577"/>
</g>
<!-- Node8 -->
<g id="node8" class="node"><title>Node8</title>
<polygon fill="white" stroke="#bfbfbf" points="184,-0.5 184,-19.5 235,-19.5 235,-0.5 184,-0.5"/>
<text text-anchor="middle" x="209.5" y="-7.5" font-family="Helvetica,sans-Serif" font-size="10.00">string.h</text>
</g>
<!-- Node6&#45;&gt;Node8 -->
<g id="edge7" class="edge"><title>Node6&#45;&gt;Node8</title>
<path fill="none" stroke="midnightblue" d="M212.839,-56.083C212.315,-49.0059 211.564,-38.8611 210.906,-29.9865"/>
<polygon fill="midnightblue" stroke="midnightblue" points="214.377,-29.4652 210.148,-19.7511 207.397,-29.9823 214.377,-29.4652"/>
</g>
</g>
</svg>
