<?xml version="1.0" encoding="UTF-8" standalone="no"?>
<!DOCTYPE svg PUBLIC "-//W3C//DTD SVG 1.1//EN"
 "http://www.w3.org/Graphics/SVG/1.1/DTD/svg11.dtd">
<!-- Generated by graphviz version 2.38.0 (20140413.2041)
 -->
<!-- Title: get/gmr27/getgmr.c Pages: 1 -->
<svg width="318pt" height="140pt"
 viewBox="0.00 0.00 317.50 140.00" xmlns="http://www.w3.org/2000/svg" xmlns:xlink="http://www.w3.org/1999/xlink">
<g id="graph0" class="graph" transform="scale(1 1) rotate(0) translate(4 136)">
<title>get/gmr27/getgmr.c</title>
<polygon fill="white" stroke="none" points="-4,4 -4,-136 313.5,-136 313.5,4 -4,4"/>
<!-- Node1 -->
<g id="node1" class="node"><title>Node1</title>
<polygon fill="#bfbfbf" stroke="black" points="114.5,-112.5 114.5,-131.5 222.5,-131.5 222.5,-112.5 114.5,-112.5"/>
<text text-anchor="middle" x="168.5" y="-119.5" font-family="Helvetica,sans-Serif" font-size="10.00">get/gmr27/getgmr.c</text>
</g>
<!-- Node2 -->
<g id="node2" class="node"><title>Node2</title>
<g id="a_node2"><a xlink:href="../../df/dad/rle__config_8h.html" target="_top" xlink:title="rle_config.h">
<polygon fill="white" stroke="black" points="23,-56.5 23,-75.5 94,-75.5 94,-56.5 23,-56.5"/>
<text text-anchor="middle" x="58.5" y="-63.5" font-family="Helvetica,sans-Serif" font-size="10.00">rle_config.h</text>
</a>
</g>
</g>
<!-- Node1&#45;&gt;Node2 -->
<g id="edge1" class="edge"><title>Node1&#45;&gt;Node2</title>
<path fill="none" stroke="midnightblue" d="M150.827,-112.324C133.106,-103.625 105.597,-90.1202 85.2116,-80.113"/>
<polygon fill="midnightblue" stroke="midnightblue" points="86.6486,-76.9195 76.1295,-75.6545 83.5639,-83.2031 86.6486,-76.9195"/>
</g>
<!-- Node5 -->
<g id="node5" class="node"><title>Node5</title>
<polygon fill="white" stroke="#bfbfbf" points="112,-56.5 112,-75.5 159,-75.5 159,-56.5 112,-56.5"/>
<text text-anchor="middle" x="135.5" y="-63.5" font-family="Helvetica,sans-Serif" font-size="10.00">stdio.h</text>
</g>
<!-- Node1&#45;&gt;Node5 -->
<g id="edge4" class="edge"><title>Node1&#45;&gt;Node5</title>
<path fill="none" stroke="midnightblue" d="M163.051,-112.083C158.486,-104.613 151.832,-93.7244 146.207,-84.5199"/>
<polygon fill="midnightblue" stroke="midnightblue" points="149.049,-82.4588 140.848,-75.7511 143.076,-86.109 149.049,-82.4588"/>
</g>
<!-- Node6 -->
<g id="node6" class="node"><title>Node6</title>
<g id="a_node6"><a xlink:href="../../dc/d60/getfb_8h.html" target="_top" xlink:title="getfb.h">
<polygon fill="white" stroke="black" points="177.5,-56.5 177.5,-75.5 225.5,-75.5 225.5,-56.5 177.5,-56.5"/>
<text text-anchor="middle" x="201.5" y="-63.5" font-family="Helvetica,sans-Serif" font-size="10.00">getfb.h</text>
</a>
</g>
</g>
<!-- Node1&#45;&gt;Node6 -->
<g id="edge5" class="edge"><title>Node1&#45;&gt;Node6</title>
<path fill="none" stroke="midnightblue" d="M173.949,-112.083C178.514,-104.613 185.168,-93.7244 190.793,-84.5199"/>
<polygon fill="midnightblue" stroke="midnightblue" points="193.924,-86.109 196.152,-75.7511 187.951,-82.4588 193.924,-86.109"/>
</g>
<!-- Node7 -->
<g id="node7" class="node"><title>Node7</title>
<g id="a_node7"><a xlink:href="../../da/d8d/rle__code_8h.html" target="_top" xlink:title="rle_code.h">
<polygon fill="white" stroke="black" points="243.5,-56.5 243.5,-75.5 309.5,-75.5 309.5,-56.5 243.5,-56.5"/>
<text text-anchor="middle" x="276.5" y="-63.5" font-family="Helvetica,sans-Serif" font-size="10.00">rle_code.h</text>
</a>
</g>
</g>
<!-- Node1&#45;&gt;Node7 -->
<g id="edge6" class="edge"><title>Node1&#45;&gt;Node7</title>
<path fill="none" stroke="midnightblue" d="M185.852,-112.324C203.172,-103.664 230.015,-90.2424 250.002,-80.249"/>
<polygon fill="midnightblue" stroke="midnightblue" points="251.812,-83.2572 259.191,-75.6545 248.681,-76.9962 251.812,-83.2572"/>
</g>
<!-- Node3 -->
<g id="node3" class="node"><title>Node3</title>
<polygon fill="white" stroke="#bfbfbf" points="0,-0.5 0,-19.5 49,-19.5 49,-0.5 0,-0.5"/>
<text text-anchor="middle" x="24.5" y="-7.5" font-family="Helvetica,sans-Serif" font-size="10.00">stdlib.h</text>
</g>
<!-- Node2&#45;&gt;Node3 -->
<g id="edge2" class="edge"><title>Node2&#45;&gt;Node3</title>
<path fill="none" stroke="midnightblue" d="M52.8856,-56.083C48.1326,-48.5341 41.1819,-37.4948 35.3484,-28.2298"/>
<polygon fill="midnightblue" stroke="midnightblue" points="38.2999,-26.3486 30.0099,-19.7511 32.3763,-30.0783 38.2999,-26.3486"/>
</g>
<!-- Node4 -->
<g id="node4" class="node"><title>Node4</title>
<polygon fill="white" stroke="#bfbfbf" points="67,-0.5 67,-19.5 118,-19.5 118,-0.5 67,-0.5"/>
<text text-anchor="middle" x="92.5" y="-7.5" font-family="Helvetica,sans-Serif" font-size="10.00">string.h</text>
</g>
<!-- Node2&#45;&gt;Node4 -->
<g id="edge3" class="edge"><title>Node2&#45;&gt;Node4</title>
<path fill="none" stroke="midnightblue" d="M64.1144,-56.083C68.8674,-48.5341 75.8181,-37.4948 81.6516,-28.2298"/>
<polygon fill="midnightblue" stroke="midnightblue" points="84.6237,-30.0783 86.9901,-19.7511 78.7001,-26.3486 84.6237,-30.0783"/>
</g>
</g>
</svg>
