<?xml version="1.0" encoding="UTF-8" standalone="no"?>
<!DOCTYPE svg PUBLIC "-//W3C//DTD SVG 1.1//EN"
 "http://www.w3.org/Graphics/SVG/1.1/DTD/svg11.dtd">
<!-- Generated by graphviz version 2.38.0 (20140413.2041)
 -->
<!-- Title: getgmr.c Pages: 1 -->
<svg width="295pt" height="84pt"
 viewBox="0.00 0.00 294.50 84.00" xmlns="http://www.w3.org/2000/svg" xmlns:xlink="http://www.w3.org/1999/xlink">
<g id="graph0" class="graph" transform="scale(1 1) rotate(0) translate(4 80)">
<title>getgmr.c</title>
<polygon fill="white" stroke="none" points="-4,4 -4,-80 290.5,-80 290.5,4 -4,4"/>
<!-- Node1 -->
<g id="node1" class="node"><title>Node1</title>
<polygon fill="#bfbfbf" stroke="black" points="117,-56.5 117,-75.5 174,-75.5 174,-56.5 117,-56.5"/>
<text text-anchor="middle" x="145.5" y="-63.5" font-family="Helvetica,sans-Serif" font-size="10.00">getgmr.c</text>
</g>
<!-- Node2 -->
<g id="node2" class="node"><title>Node2</title>
<polygon fill="white" stroke="#bfbfbf" points="0,-0.5 0,-19.5 71,-19.5 71,-0.5 0,-0.5"/>
<text text-anchor="middle" x="35.5" y="-7.5" font-family="Helvetica,sans-Serif" font-size="10.00">rle_config.h</text>
</g>
<!-- Node1&#45;&gt;Node2 -->
<g id="edge1" class="edge"><title>Node1&#45;&gt;Node2</title>
<path fill="none" stroke="midnightblue" d="M127.827,-56.324C110.106,-47.6247 82.5968,-34.1202 62.2116,-24.113"/>
<polygon fill="midnightblue" stroke="midnightblue" points="63.6486,-20.9195 53.1295,-19.6545 60.5639,-27.2031 63.6486,-20.9195"/>
</g>
<!-- Node3 -->
<g id="node3" class="node"><title>Node3</title>
<polygon fill="white" stroke="#bfbfbf" points="89,-0.5 89,-19.5 136,-19.5 136,-0.5 89,-0.5"/>
<text text-anchor="middle" x="112.5" y="-7.5" font-family="Helvetica,sans-Serif" font-size="10.00">stdio.h</text>
</g>
<!-- Node1&#45;&gt;Node3 -->
<g id="edge2" class="edge"><title>Node1&#45;&gt;Node3</title>
<path fill="none" stroke="midnightblue" d="M140.051,-56.083C135.486,-48.6127 128.832,-37.7244 123.207,-28.5199"/>
<polygon fill="midnightblue" stroke="midnightblue" points="126.049,-26.4588 117.848,-19.7511 120.076,-30.109 126.049,-26.4588"/>
</g>
<!-- Node4 -->
<g id="node4" class="node"><title>Node4</title>
<g id="a_node4"><a xlink:href="../../dc/d60/getfb_8h.html" target="_top" xlink:title="getfb.h">
<polygon fill="white" stroke="black" points="154.5,-0.5 154.5,-19.5 202.5,-19.5 202.5,-0.5 154.5,-0.5"/>
<text text-anchor="middle" x="178.5" y="-7.5" font-family="Helvetica,sans-Serif" font-size="10.00">getfb.h</text>
</a>
</g>
</g>
<!-- Node1&#45;&gt;Node4 -->
<g id="edge3" class="edge"><title>Node1&#45;&gt;Node4</title>
<path fill="none" stroke="midnightblue" d="M150.949,-56.083C155.514,-48.6127 162.168,-37.7244 167.793,-28.5199"/>
<polygon fill="midnightblue" stroke="midnightblue" points="170.924,-30.109 173.152,-19.7511 164.951,-26.4588 170.924,-30.109"/>
</g>
<!-- Node5 -->
<g id="node5" class="node"><title>Node5</title>
<polygon fill="white" stroke="#bfbfbf" points="220.5,-0.5 220.5,-19.5 286.5,-19.5 286.5,-0.5 220.5,-0.5"/>
<text text-anchor="middle" x="253.5" y="-7.5" font-family="Helvetica,sans-Serif" font-size="10.00">rle_code.h</text>
</g>
<!-- Node1&#45;&gt;Node5 -->
<g id="edge4" class="edge"><title>Node1&#45;&gt;Node5</title>
<path fill="none" stroke="midnightblue" d="M162.852,-56.324C180.172,-47.6641 207.015,-34.2424 227.002,-24.249"/>
<polygon fill="midnightblue" stroke="midnightblue" points="228.812,-27.2572 236.191,-19.6545 225.681,-20.9962 228.812,-27.2572"/>
</g>
</g>
</svg>
