<?xml version="1.0" encoding="UTF-8" standalone="no"?>
<!DOCTYPE svg PUBLIC "-//W3C//DTD SVG 1.1//EN"
 "http://www.w3.org/Graphics/SVG/1.1/DTD/svg11.dtd">
<!-- Generated by graphviz version 2.38.0 (20140413.2041)
 -->
<!-- Title: dithermap Pages: 1 -->
<svg width="314pt" height="104pt"
 viewBox="0.00 0.00 314.00 104.00" xmlns="http://www.w3.org/2000/svg" xmlns:xlink="http://www.w3.org/1999/xlink">
<g id="graph0" class="graph" transform="scale(1 1) rotate(0) translate(4 100)">
<title>dithermap</title>
<polygon fill="white" stroke="none" points="-4,4 -4,-100 310,-100 310,4 -4,4"/>
<!-- Node1 -->
<g id="node1" class="node"><title>Node1</title>
<polygon fill="#bfbfbf" stroke="black" points="0,-57.5 0,-76.5 64,-76.5 64,-57.5 0,-57.5"/>
<text text-anchor="middle" x="32" y="-64.5" font-family="Helvetica,sans-Serif" font-size="10.00">dithermap</text>
</g>
<!-- Node2 -->
<g id="node2" class="node"><title>Node2</title>
<g id="a_node2"><a xlink:href="../../d9/d3b/get__orion_8c.html#a406deb1e377243ebdf719c427deba5d3" target="_top" xlink:title="init_8_bit_colour_map">
<polygon fill="white" stroke="black" points="100,-76.5 100,-95.5 219,-95.5 219,-76.5 100,-76.5"/>
<text text-anchor="middle" x="159.5" y="-83.5" font-family="Helvetica,sans-Serif" font-size="10.00">init_8_bit_colour_map</text>
</a>
</g>
</g>
<!-- Node1&#45;&gt;Node2 -->
<g id="edge1" class="edge"><title>Node1&#45;&gt;Node2</title>
<path fill="none" stroke="midnightblue" d="M74.1258,-73.2262C82.3827,-74.4763 91.2087,-75.8125 99.9267,-77.1323"/>
<polygon fill="midnightblue" stroke="midnightblue" points="74.4338,-69.733 64.0225,-71.6966 73.3859,-76.6542 74.4338,-69.733"/>
</g>
<!-- Node4 -->
<g id="node4" class="node"><title>Node4</title>
<g id="a_node4"><a xlink:href="../../d7/dd0/fn__decls_8h.html#a51d89958ef25e77db8bf275fb290258c" target="_top" xlink:title="init_color">
<polygon fill="white" stroke="black" points="130,-38.5 130,-57.5 189,-57.5 189,-38.5 130,-38.5"/>
<text text-anchor="middle" x="159.5" y="-45.5" font-family="Helvetica,sans-Serif" font-size="10.00">init_color</text>
</a>
</g>
</g>
<!-- Node1&#45;&gt;Node4 -->
<g id="edge3" class="edge"><title>Node1&#45;&gt;Node4</title>
<path fill="none" stroke="midnightblue" d="M74.124,-60.7741C92.4021,-58.0069 113.469,-54.8174 129.98,-52.3177"/>
<polygon fill="midnightblue" stroke="midnightblue" points="73.3859,-57.3458 64.0225,-62.3034 74.4338,-64.267 73.3859,-57.3458"/>
</g>
<!-- Node3 -->
<g id="node3" class="node"><title>Node3</title>
<g id="a_node3"><a xlink:href="../../d9/d3b/get__orion_8c.html#a0708a0954f39ecdc7aa901286295ad01" target="_top" xlink:title="main">
<polygon fill="white" stroke="black" points="261,-76.5 261,-95.5 300,-95.5 300,-76.5 261,-76.5"/>
<text text-anchor="middle" x="280.5" y="-83.5" font-family="Helvetica,sans-Serif" font-size="10.00">main</text>
</a>
</g>
</g>
<!-- Node2&#45;&gt;Node3 -->
<g id="edge2" class="edge"><title>Node2&#45;&gt;Node3</title>
<path fill="none" stroke="midnightblue" d="M229.535,-86C241.086,-86 252.145,-86 260.908,-86"/>
<polygon fill="midnightblue" stroke="midnightblue" points="229.303,-82.5001 219.303,-86 229.303,-89.5001 229.303,-82.5001"/>
</g>
<!-- Node5 -->
<g id="node5" class="node"><title>Node5</title>
<g id="a_node5"><a xlink:href="../../dd/dce/getsun_8c.html#af37dbffd297affdb588f6ae01659399a" target="_top" xlink:title="get_pic">
<polygon fill="white" stroke="black" points="255,-38.5 255,-57.5 306,-57.5 306,-38.5 255,-38.5"/>
<text text-anchor="middle" x="280.5" y="-45.5" font-family="Helvetica,sans-Serif" font-size="10.00">get_pic</text>
</a>
</g>
</g>
<!-- Node4&#45;&gt;Node5 -->
<g id="edge4" class="edge"><title>Node4&#45;&gt;Node5</title>
<path fill="none" stroke="midnightblue" d="M199.096,-48C217.414,-48 238.761,-48 254.854,-48"/>
<polygon fill="midnightblue" stroke="midnightblue" points="199.003,-44.5001 189.003,-48 199.003,-51.5001 199.003,-44.5001"/>
</g>
<!-- Node6 -->
<g id="node6" class="node"><title>Node6</title>
<g id="a_node6"><a xlink:href="../../d8/db3/to8_8c.html#a70db8bd1d499619f7ff9c1ca2ff3c8df" target="_top" xlink:title="main">
<polygon fill="white" stroke="black" points="261,-0.5 261,-19.5 300,-19.5 300,-0.5 261,-0.5"/>
<text text-anchor="middle" x="280.5" y="-7.5" font-family="Helvetica,sans-Serif" font-size="10.00">main</text>
</a>
</g>
</g>
<!-- Node4&#45;&gt;Node6 -->
<g id="edge5" class="edge"><title>Node4&#45;&gt;Node6</title>
<path fill="none" stroke="midnightblue" d="M198.543,-35.8517C219.366,-29.2024 244.237,-21.2604 260.867,-15.9499"/>
<polygon fill="midnightblue" stroke="midnightblue" points="197.465,-32.5219 189.003,-38.8981 199.594,-39.1902 197.465,-32.5219"/>
</g>
</g>
</svg>
