<?xml version="1.0" encoding="UTF-8" standalone="no"?>
<!DOCTYPE svg PUBLIC "-//W3C//DTD SVG 1.1//EN"
 "http://www.w3.org/Graphics/SVG/1.1/DTD/svg11.dtd">
<!-- Generated by graphviz version 2.38.0 (20140413.2041)
 -->
<!-- Title: bwdithermap Pages: 1 -->
<svg width="279pt" height="66pt"
 viewBox="0.00 0.00 279.00 66.00" xmlns="http://www.w3.org/2000/svg" xmlns:xlink="http://www.w3.org/1999/xlink">
<g id="graph0" class="graph" transform="scale(1 1) rotate(0) translate(4 62)">
<title>bwdithermap</title>
<polygon fill="white" stroke="none" points="-4,4 -4,-62 275,-62 275,4 -4,4"/>
<!-- Node1 -->
<g id="node1" class="node"><title>Node1</title>
<polygon fill="#bfbfbf" stroke="black" points="0,-19.5 0,-38.5 77,-38.5 77,-19.5 0,-19.5"/>
<text text-anchor="middle" x="38.5" y="-26.5" font-family="Helvetica,sans-Serif" font-size="10.00">bwdithermap</text>
</g>
<!-- Node2 -->
<g id="node2" class="node"><title>Node2</title>
<g id="a_node2"><a xlink:href="../../dd/dce/getsun_8c.html#a51d89958ef25e77db8bf275fb290258c" target="_top" xlink:title="init_color">
<polygon fill="white" stroke="black" points="162.5,-38.5 162.5,-57.5 221.5,-57.5 221.5,-38.5 162.5,-38.5"/>
<text text-anchor="middle" x="192" y="-45.5" font-family="Helvetica,sans-Serif" font-size="10.00">init_color</text>
</a>
</g>
</g>
<!-- Node1&#45;&gt;Node2 -->
<g id="edge1" class="edge"><title>Node1&#45;&gt;Node2</title>
<path fill="none" stroke="midnightblue" d="M87.5473,-35.0257C112.095,-38.1043 141.143,-41.7474 162.2,-44.3882"/>
<polygon fill="midnightblue" stroke="midnightblue" points="87.6969,-31.5172 77.339,-33.7455 86.8258,-38.4627 87.6969,-31.5172"/>
</g>
<!-- Node3 -->
<g id="node3" class="node"><title>Node3</title>
<g id="a_node3"><a xlink:href="../../d9/d3b/get__orion_8c.html#a08786fe2a42c0696925051109f0f60d4" target="_top" xlink:title="init_monochrome_colour_map">
<polygon fill="white" stroke="black" points="113,-0.5 113,-19.5 271,-19.5 271,-0.5 113,-0.5"/>
<text text-anchor="middle" x="192" y="-7.5" font-family="Helvetica,sans-Serif" font-size="10.00">init_monochrome_colour_map</text>
</a>
</g>
</g>
<!-- Node1&#45;&gt;Node3 -->
<g id="edge2" class="edge"><title>Node1&#45;&gt;Node3</title>
<path fill="none" stroke="midnightblue" d="M87.4422,-22.9875C96.3096,-21.8754 105.767,-20.6892 115.226,-19.503"/>
<polygon fill="midnightblue" stroke="midnightblue" points="86.8258,-19.5372 77.339,-24.2545 87.6969,-26.4828 86.8258,-19.5372"/>
</g>
</g>
</svg>
