<?xml version="1.0" encoding="UTF-8" standalone="no"?>
<!DOCTYPE svg PUBLIC "-//W3C//DTD SVG 1.1//EN"
 "http://www.w3.org/Graphics/SVG/1.1/DTD/svg11.dtd">
<!-- Generated by graphviz version 2.38.0 (20140413.2041)
 -->
<!-- Title: dithermap Pages: 1 -->
<svg width="227pt" height="66pt"
 viewBox="0.00 0.00 227.00 66.00" xmlns="http://www.w3.org/2000/svg" xmlns:xlink="http://www.w3.org/1999/xlink">
<g id="graph0" class="graph" transform="scale(1 1) rotate(0) translate(4 62)">
<title>dithermap</title>
<polygon fill="white" stroke="none" points="-4,4 -4,-62 223,-62 223,4 -4,4"/>
<!-- Node1 -->
<g id="node1" class="node"><title>Node1</title>
<polygon fill="#bfbfbf" stroke="black" points="0,-19.5 0,-38.5 64,-38.5 64,-19.5 0,-19.5"/>
<text text-anchor="middle" x="32" y="-26.5" font-family="Helvetica,sans-Serif" font-size="10.00">dithermap</text>
</g>
<!-- Node2 -->
<g id="node2" class="node"><title>Node2</title>
<g id="a_node2"><a xlink:href="../../d9/d3b/get__orion_8c.html#a406deb1e377243ebdf719c427deba5d3" target="_top" xlink:title="init_8_bit_colour_map">
<polygon fill="white" stroke="black" points="100,-38.5 100,-57.5 219,-57.5 219,-38.5 100,-38.5"/>
<text text-anchor="middle" x="159.5" y="-45.5" font-family="Helvetica,sans-Serif" font-size="10.00">init_8_bit_colour_map</text>
</a>
</g>
</g>
<!-- Node1&#45;&gt;Node2 -->
<g id="edge1" class="edge"><title>Node1&#45;&gt;Node2</title>
<path fill="none" stroke="midnightblue" d="M74.1258,-35.2262C82.3827,-36.4763 91.2087,-37.8125 99.9267,-39.1323"/>
<polygon fill="midnightblue" stroke="midnightblue" points="74.4338,-31.733 64.0225,-33.6966 73.3859,-38.6542 74.4338,-31.733"/>
</g>
<!-- Node3 -->
<g id="node3" class="node"><title>Node3</title>
<g id="a_node3"><a xlink:href="../../dd/dce/getsun_8c.html#a51d89958ef25e77db8bf275fb290258c" target="_top" xlink:title="init_color">
<polygon fill="white" stroke="black" points="130,-0.5 130,-19.5 189,-19.5 189,-0.5 130,-0.5"/>
<text text-anchor="middle" x="159.5" y="-7.5" font-family="Helvetica,sans-Serif" font-size="10.00">init_color</text>
</a>
</g>
</g>
<!-- Node1&#45;&gt;Node3 -->
<g id="edge2" class="edge"><title>Node1&#45;&gt;Node3</title>
<path fill="none" stroke="midnightblue" d="M74.124,-22.7741C92.4021,-20.0069 113.469,-16.8174 129.98,-14.3177"/>
<polygon fill="midnightblue" stroke="midnightblue" points="73.3859,-19.3458 64.0225,-24.3034 74.4338,-26.267 73.3859,-19.3458"/>
</g>
</g>
</svg>
