<?xml version="1.0" encoding="UTF-8" standalone="no"?>
<!DOCTYPE svg PUBLIC "-//W3C//DTD SVG 1.1//EN"
 "http://www.w3.org/Graphics/SVG/1.1/DTD/svg11.dtd">
<!-- Generated by graphviz version 2.38.0 (20140413.2041)
 -->
<!-- Title: bwdithermap Pages: 1 -->
<svg width="366pt" height="332pt"
 viewBox="0.00 0.00 366.00 332.00" xmlns="http://www.w3.org/2000/svg" xmlns:xlink="http://www.w3.org/1999/xlink">
<g id="graph0" class="graph" transform="scale(1 1) rotate(0) translate(4 328)">
<title>bwdithermap</title>
<polygon fill="white" stroke="none" points="-4,4 -4,-328 362,-328 362,4 -4,4"/>
<!-- Node1 -->
<g id="node1" class="node"><title>Node1</title>
<polygon fill="#bfbfbf" stroke="black" points="0,-152.5 0,-171.5 77,-171.5 77,-152.5 0,-152.5"/>
<text text-anchor="middle" x="38.5" y="-159.5" font-family="Helvetica,sans-Serif" font-size="10.00">bwdithermap</text>
</g>
<!-- Node2 -->
<g id="node2" class="node"><title>Node2</title>
<g id="a_node2"><a xlink:href="../../d9/d3b/get__orion_8c.html#a08786fe2a42c0696925051109f0f60d4" target="_top" xlink:title="init_monochrome_colour_map">
<polygon fill="white" stroke="black" points="113,-304.5 113,-323.5 271,-323.5 271,-304.5 113,-304.5"/>
<text text-anchor="middle" x="192" y="-311.5" font-family="Helvetica,sans-Serif" font-size="10.00">init_monochrome_colour_map</text>
</a>
</g>
</g>
<!-- Node1&#45;&gt;Node2 -->
<g id="edge1" class="edge"><title>Node1&#45;&gt;Node2</title>
<path fill="none" stroke="midnightblue" d="M44.8431,-181.715C53.8453,-211.059 74.894,-265.885 113,-295 118.094,-298.892 123.877,-302 129.935,-304.478"/>
<polygon fill="midnightblue" stroke="midnightblue" points="48.1208,-180.451 41.9723,-171.823 41.3982,-182.402 48.1208,-180.451"/>
</g>
<!-- Node4 -->
<g id="node4" class="node"><title>Node4</title>
<g id="a_node4"><a xlink:href="../../da/d92/getap_8c.html#afed4e945848223d47bf479a910ce4a50" target="_top" xlink:title="window_color_map">
<polygon fill="white" stroke="black" points="138.5,-266.5 138.5,-285.5 245.5,-285.5 245.5,-266.5 138.5,-266.5"/>
<text text-anchor="middle" x="192" y="-273.5" font-family="Helvetica,sans-Serif" font-size="10.00">window_color_map</text>
</a>
</g>
</g>
<!-- Node1&#45;&gt;Node4 -->
<g id="edge3" class="edge"><title>Node1&#45;&gt;Node4</title>
<path fill="none" stroke="midnightblue" d="M48.7498,-180.439C60.6165,-202.155 83.268,-237.706 113,-257 120.6,-261.932 129.369,-265.584 138.223,-268.288"/>
<polygon fill="midnightblue" stroke="midnightblue" points="51.8232,-178.763 44.0698,-171.543 45.6282,-182.022 51.8232,-178.763"/>
</g>
<!-- Node6 -->
<g id="node6" class="node"><title>Node6</title>
<g id="a_node6"><a xlink:href="../../d7/dd0/fn__decls_8h.html#a51d89958ef25e77db8bf275fb290258c" target="_top" xlink:title="init_color">
<polygon fill="white" stroke="black" points="162.5,-228.5 162.5,-247.5 221.5,-247.5 221.5,-228.5 162.5,-228.5"/>
<text text-anchor="middle" x="192" y="-235.5" font-family="Helvetica,sans-Serif" font-size="10.00">init_color</text>
</a>
</g>
</g>
<!-- Node1&#45;&gt;Node6 -->
<g id="edge5" class="edge"><title>Node1&#45;&gt;Node6</title>
<path fill="none" stroke="midnightblue" d="M56.4628,-178.561C70.5214,-191.397 91.6001,-208.682 113,-219 128.442,-226.446 147.051,-231.123 162.22,-233.973"/>
<polygon fill="midnightblue" stroke="midnightblue" points="58.7348,-175.893 49.0471,-171.604 53.9454,-180.999 58.7348,-175.893"/>
</g>
<!-- Node9 -->
<g id="node9" class="node"><title>Node9</title>
<g id="a_node9"><a xlink:href="../../dd/d17/x11__stuff_8c.html#abdff2750647853dba9cc67373d9c9d0c" target="_top" xlink:title="init_separate_color_rw">
<polygon fill="white" stroke="black" points="129.5,-190.5 129.5,-209.5 254.5,-209.5 254.5,-190.5 129.5,-190.5"/>
<text text-anchor="middle" x="192" y="-197.5" font-family="Helvetica,sans-Serif" font-size="10.00">init_separate_color_rw</text>
</a>
</g>
</g>
<!-- Node1&#45;&gt;Node9 -->
<g id="edge8" class="edge"><title>Node1&#45;&gt;Node9</title>
<path fill="none" stroke="midnightblue" d="M86.0166,-174.13C94.966,-176.434 104.269,-178.808 113,-181 125.437,-184.122 139.008,-187.454 151.293,-190.442"/>
<polygon fill="midnightblue" stroke="midnightblue" points="86.6699,-170.684 76.1124,-171.572 84.9197,-177.462 86.6699,-170.684"/>
</g>
<!-- Node10 -->
<g id="node10" class="node"><title>Node10</title>
<g id="a_node10"><a xlink:href="../../dd/d17/x11__stuff_8c.html#a81944846c1fed64eee7b11566ffce0cc" target="_top" xlink:title="init_color_rw">
<polygon fill="white" stroke="black" points="153.5,-152.5 153.5,-171.5 230.5,-171.5 230.5,-152.5 153.5,-152.5"/>
<text text-anchor="middle" x="192" y="-159.5" font-family="Helvetica,sans-Serif" font-size="10.00">init_color_rw</text>
</a>
</g>
</g>
<!-- Node1&#45;&gt;Node10 -->
<g id="edge9" class="edge"><title>Node1&#45;&gt;Node10</title>
<path fill="none" stroke="midnightblue" d="M87.4816,-162C108.771,-162 133.457,-162 153.381,-162"/>
<polygon fill="midnightblue" stroke="midnightblue" points="87.3391,-158.5 77.339,-162 87.339,-165.5 87.3391,-158.5"/>
</g>
<!-- Node11 -->
<g id="node11" class="node"><title>Node11</title>
<g id="a_node11"><a xlink:href="../../dd/d17/x11__stuff_8c.html#adf61523675f79528c0b09be8e46bea3f" target="_top" xlink:title="init_separate_color_ro">
<polygon fill="white" stroke="black" points="130.5,-114.5 130.5,-133.5 253.5,-133.5 253.5,-114.5 130.5,-114.5"/>
<text text-anchor="middle" x="192" y="-121.5" font-family="Helvetica,sans-Serif" font-size="10.00">init_separate_color_ro</text>
</a>
</g>
</g>
<!-- Node1&#45;&gt;Node11 -->
<g id="edge10" class="edge"><title>Node1&#45;&gt;Node11</title>
<path fill="none" stroke="midnightblue" d="M86.0166,-149.87C94.966,-147.566 104.269,-145.192 113,-143 125.437,-139.878 139.008,-136.546 151.293,-133.558"/>
<polygon fill="midnightblue" stroke="midnightblue" points="84.9197,-146.538 76.1124,-152.428 86.6699,-153.316 84.9197,-146.538"/>
</g>
<!-- Node12 -->
<g id="node12" class="node"><title>Node12</title>
<g id="a_node12"><a xlink:href="../../dd/d17/x11__stuff_8c.html#aa2536bbb4df94156f9acb28c302208a2" target="_top" xlink:title="init_color_ro">
<polygon fill="white" stroke="black" points="154.5,-76.5 154.5,-95.5 229.5,-95.5 229.5,-76.5 154.5,-76.5"/>
<text text-anchor="middle" x="192" y="-83.5" font-family="Helvetica,sans-Serif" font-size="10.00">init_color_ro</text>
</a>
</g>
</g>
<!-- Node1&#45;&gt;Node12 -->
<g id="edge11" class="edge"><title>Node1&#45;&gt;Node12</title>
<path fill="none" stroke="midnightblue" d="M56.4628,-145.439C70.5214,-132.603 91.6001,-115.318 113,-105 125.806,-98.8255 140.789,-94.5551 154.183,-91.6515"/>
<polygon fill="midnightblue" stroke="midnightblue" points="53.9454,-143.001 49.0471,-152.396 58.7348,-148.107 53.9454,-143.001"/>
</g>
<!-- Node13 -->
<g id="node13" class="node"><title>Node13</title>
<g id="a_node13"><a xlink:href="../../dd/d17/x11__stuff_8c.html#a61dbe43c8c55c80734ca3a480c556eef" target="_top" xlink:title="init_mono_rw">
<polygon fill="white" stroke="black" points="152,-38.5 152,-57.5 232,-57.5 232,-38.5 152,-38.5"/>
<text text-anchor="middle" x="192" y="-45.5" font-family="Helvetica,sans-Serif" font-size="10.00">init_mono_rw</text>
</a>
</g>
</g>
<!-- Node1&#45;&gt;Node13 -->
<g id="edge12" class="edge"><title>Node1&#45;&gt;Node13</title>
<path fill="none" stroke="midnightblue" d="M48.7498,-143.561C60.6165,-121.845 83.268,-86.294 113,-67 124.458,-59.5647 138.574,-55.0377 151.634,-52.2819"/>
<polygon fill="midnightblue" stroke="midnightblue" points="45.6282,-141.978 44.0698,-152.457 51.8232,-145.237 45.6282,-141.978"/>
</g>
<!-- Node14 -->
<g id="node14" class="node"><title>Node14</title>
<g id="a_node14"><a xlink:href="../../dd/d17/x11__stuff_8c.html#a58b120346f31dbeef2ae9c79bcd1ab4c" target="_top" xlink:title="init_mono_ro">
<polygon fill="white" stroke="black" points="153,-0.5 153,-19.5 231,-19.5 231,-0.5 153,-0.5"/>
<text text-anchor="middle" x="192" y="-7.5" font-family="Helvetica,sans-Serif" font-size="10.00">init_mono_ro</text>
</a>
</g>
</g>
<!-- Node1&#45;&gt;Node14 -->
<g id="edge13" class="edge"><title>Node1&#45;&gt;Node14</title>
<path fill="none" stroke="midnightblue" d="M44.8431,-142.285C53.8453,-112.941 74.894,-58.1151 113,-29 124.407,-20.2843 139.262,-15.5063 152.943,-12.9082"/>
<polygon fill="midnightblue" stroke="midnightblue" points="41.3982,-141.598 41.9723,-152.177 48.1208,-143.549 41.3982,-141.598"/>
</g>
<!-- Node3 -->
<g id="node3" class="node"><title>Node3</title>
<g id="a_node3"><a xlink:href="../../d9/d3b/get__orion_8c.html#a0708a0954f39ecdc7aa901286295ad01" target="_top" xlink:title="main">
<polygon fill="white" stroke="black" points="313,-304.5 313,-323.5 352,-323.5 352,-304.5 313,-304.5"/>
<text text-anchor="middle" x="332.5" y="-311.5" font-family="Helvetica,sans-Serif" font-size="10.00">main</text>
</a>
</g>
</g>
<!-- Node2&#45;&gt;Node3 -->
<g id="edge2" class="edge"><title>Node2&#45;&gt;Node3</title>
<path fill="none" stroke="midnightblue" d="M281.261,-314C293.107,-314 304.148,-314 312.846,-314"/>
<polygon fill="midnightblue" stroke="midnightblue" points="281.155,-310.5 271.155,-314 281.155,-317.5 281.155,-310.5"/>
</g>
<!-- Node5 -->
<g id="node5" class="node"><title>Node5</title>
<g id="a_node5"><a xlink:href="../../da/d92/getap_8c.html#a5ea466849f21e6c2be4ef9b2eb8868d3" target="_top" xlink:title="main">
<polygon fill="white" stroke="black" points="313,-266.5 313,-285.5 352,-285.5 352,-266.5 313,-266.5"/>
<text text-anchor="middle" x="332.5" y="-273.5" font-family="Helvetica,sans-Serif" font-size="10.00">main</text>
</a>
</g>
</g>
<!-- Node4&#45;&gt;Node5 -->
<g id="edge4" class="edge"><title>Node4&#45;&gt;Node5</title>
<path fill="none" stroke="midnightblue" d="M255.817,-276C276.504,-276 297.963,-276 312.724,-276"/>
<polygon fill="midnightblue" stroke="midnightblue" points="255.756,-272.5 245.756,-276 255.756,-279.5 255.756,-272.5"/>
</g>
<!-- Node7 -->
<g id="node7" class="node"><title>Node7</title>
<g id="a_node7"><a xlink:href="../../dd/dce/getsun_8c.html#af37dbffd297affdb588f6ae01659399a" target="_top" xlink:title="get_pic">
<polygon fill="white" stroke="black" points="307,-228.5 307,-247.5 358,-247.5 358,-228.5 307,-228.5"/>
<text text-anchor="middle" x="332.5" y="-235.5" font-family="Helvetica,sans-Serif" font-size="10.00">get_pic</text>
</a>
</g>
</g>
<!-- Node6&#45;&gt;Node7 -->
<g id="edge6" class="edge"><title>Node6&#45;&gt;Node7</title>
<path fill="none" stroke="midnightblue" d="M231.875,-238C255.804,-238 285.769,-238 306.554,-238"/>
<polygon fill="midnightblue" stroke="midnightblue" points="231.697,-234.5 221.697,-238 231.697,-241.5 231.697,-234.5"/>
</g>
<!-- Node8 -->
<g id="node8" class="node"><title>Node8</title>
<g id="a_node8"><a xlink:href="../../d8/db3/to8_8c.html#a70db8bd1d499619f7ff9c1ca2ff3c8df" target="_top" xlink:title="main">
<polygon fill="white" stroke="black" points="313,-190.5 313,-209.5 352,-209.5 352,-190.5 313,-190.5"/>
<text text-anchor="middle" x="332.5" y="-197.5" font-family="Helvetica,sans-Serif" font-size="10.00">main</text>
</a>
</g>
</g>
<!-- Node6&#45;&gt;Node8 -->
<g id="edge7" class="edge"><title>Node6&#45;&gt;Node8</title>
<path fill="none" stroke="midnightblue" d="M231.423,-229.168C244.074,-226.12 258.181,-222.57 271,-219 285.106,-215.072 300.884,-210.097 312.79,-206.223"/>
<polygon fill="midnightblue" stroke="midnightblue" points="230.56,-225.776 221.642,-231.496 232.181,-232.586 230.56,-225.776"/>
</g>
</g>
</svg>
