<?xml version="1.0" encoding="UTF-8" standalone="no"?>
<!DOCTYPE svg PUBLIC "-//W3C//DTD SVG 1.1//EN"
 "http://www.w3.org/Graphics/SVG/1.1/DTD/svg11.dtd">
<!-- Generated by graphviz version 2.38.0 (20140413.2041)
 -->
<!-- Title: rle_getskip Pages: 1 -->
<svg width="419pt" height="1054pt"
 viewBox="0.00 0.00 419.00 1054.00" xmlns="http://www.w3.org/2000/svg" xmlns:xlink="http://www.w3.org/1999/xlink">
<g id="graph0" class="graph" transform="scale(1 1) rotate(0) translate(4 1050)">
<title>rle_getskip</title>
<polygon fill="white" stroke="none" points="-4,4 -4,-1050 415,-1050 415,4 -4,4"/>
<!-- Node1 -->
<g id="node1" class="node"><title>Node1</title>
<polygon fill="#bfbfbf" stroke="black" points="0,-171.5 0,-190.5 68,-190.5 68,-171.5 0,-171.5"/>
<text text-anchor="middle" x="34" y="-178.5" font-family="Helvetica,sans-Serif" font-size="10.00">rle_getskip</text>
</g>
<!-- Node2 -->
<g id="node2" class="node"><title>Node2</title>
<g id="a_node2"><a xlink:href="../../d6/dcb/avg4_8c.html#ade521a0600ded19f1720b6f6df59b480" target="_top" xlink:title="main">
<polygon fill="white" stroke="black" points="252.5,-1026.5 252.5,-1045.5 291.5,-1045.5 291.5,-1026.5 252.5,-1026.5"/>
<text text-anchor="middle" x="272" y="-1033.5" font-family="Helvetica,sans-Serif" font-size="10.00">main</text>
</a>
</g>
</g>
<!-- Node1&#45;&gt;Node2 -->
<g id="edge1" class="edge"><title>Node1&#45;&gt;Node2</title>
<path fill="none" stroke="midnightblue" d="M36.3183,-200.789C44.3471,-315.413 90.2954,-893.374 208,-1017 219.501,-1029.08 238.375,-1033.56 252.471,-1035.18"/>
<polygon fill="midnightblue" stroke="midnightblue" points="39.7994,-200.393 35.6239,-190.656 32.8158,-200.872 39.7994,-200.393"/>
</g>
<!-- Node3 -->
<g id="node3" class="node"><title>Node3</title>
<g id="a_node3"><a xlink:href="../../df/dce/rle__getraw_8c.html#a5ed570d65cead1b5587e84134c31e246" target="_top" xlink:title="rle_getraw">
<polygon fill="white" stroke="black" points="104.5,-95.5 104.5,-114.5 171.5,-114.5 171.5,-95.5 104.5,-95.5"/>
<text text-anchor="middle" x="138" y="-102.5" font-family="Helvetica,sans-Serif" font-size="10.00">rle_getraw</text>
</a>
</g>
</g>
<!-- Node1&#45;&gt;Node3 -->
<g id="edge2" class="edge"><title>Node1&#45;&gt;Node3</title>
<path fill="none" stroke="midnightblue" d="M56.0265,-165.333C76.5372,-150.051 107.074,-127.298 124.187,-114.547"/>
<polygon fill="midnightblue" stroke="midnightblue" points="53.846,-162.593 47.9184,-171.375 58.0284,-168.206 53.846,-162.593"/>
</g>
<!-- Node8 -->
<g id="node8" class="node"><title>Node8</title>
<g id="a_node8"><a xlink:href="../../db/d53/rle__getrow_8c.html#a3602e1158189cba5e5b0f9b983cba776" target="_top" xlink:title="rle_getrow">
<polygon fill="white" stroke="black" points="104.5,-570.5 104.5,-589.5 171.5,-589.5 171.5,-570.5 104.5,-570.5"/>
<text text-anchor="middle" x="138" y="-577.5" font-family="Helvetica,sans-Serif" font-size="10.00">rle_getrow</text>
</a>
</g>
</g>
<!-- Node1&#45;&gt;Node8 -->
<g id="edge7" class="edge"><title>Node1&#45;&gt;Node8</title>
<path fill="none" stroke="midnightblue" d="M40.0818,-200.879C58.5042,-272.943 121.391,-518.941 134.567,-570.482"/>
<polygon fill="midnightblue" stroke="midnightblue" points="43.3891,-199.685 37.5214,-190.863 36.6072,-201.418 43.3891,-199.685"/>
</g>
<!-- Node29 -->
<g id="node29" class="node"><title>Node29</title>
<g id="a_node29"><a xlink:href="../../dc/d21/rletocgm_8c.html#a243dc5135972069e1dc4456356c8b498" target="_top" xlink:title="process_indexed_page">
<polygon fill="white" stroke="black" points="208,-190.5 208,-209.5 336,-209.5 336,-190.5 208,-190.5"/>
<text text-anchor="middle" x="272" y="-197.5" font-family="Helvetica,sans-Serif" font-size="10.00">process_indexed_page</text>
</a>
</g>
</g>
<!-- Node1&#45;&gt;Node29 -->
<g id="edge41" class="edge"><title>Node1&#45;&gt;Node29</title>
<path fill="none" stroke="midnightblue" d="M78.2918,-184.485C114.493,-187.4 166.628,-191.597 207.545,-194.891"/>
<polygon fill="midnightblue" stroke="midnightblue" points="78.3119,-180.976 68.0633,-183.662 77.7501,-187.953 78.3119,-180.976"/>
</g>
<!-- Node31 -->
<g id="node31" class="node"><title>Node31</title>
<g id="a_node31"><a xlink:href="../../dc/d21/rletocgm_8c.html#a2aa020f076ba227eadc417c63ef8c5fa" target="_top" xlink:title="process_direct_page">
<polygon fill="white" stroke="black" points="214,-152.5 214,-171.5 330,-171.5 330,-152.5 214,-152.5"/>
<text text-anchor="middle" x="272" y="-159.5" font-family="Helvetica,sans-Serif" font-size="10.00">process_direct_page</text>
</a>
</g>
</g>
<!-- Node1&#45;&gt;Node31 -->
<g id="edge42" class="edge"><title>Node1&#45;&gt;Node31</title>
<path fill="none" stroke="midnightblue" d="M78.2951,-177.514C116.317,-174.453 171.914,-169.977 213.63,-166.619"/>
<polygon fill="midnightblue" stroke="midnightblue" points="77.7501,-174.047 68.0633,-178.338 78.3119,-181.024 77.7501,-174.047"/>
</g>
<!-- Node39 -->
<g id="node39" class="node"><title>Node39</title>
<g id="a_node39"><a xlink:href="../../d5/d42/rlezoom_8c.html#ae2388617c7379e059ac295622b6e7414" target="_top" xlink:title="float_zoom">
<polygon fill="white" stroke="black" points="104,-57.5 104,-76.5 172,-76.5 172,-57.5 104,-57.5"/>
<text text-anchor="middle" x="138" y="-64.5" font-family="Helvetica,sans-Serif" font-size="10.00">float_zoom</text>
</a>
</g>
</g>
<!-- Node1&#45;&gt;Node39 -->
<g id="edge43" class="edge"><title>Node1&#45;&gt;Node39</title>
<path fill="none" stroke="midnightblue" d="M45.1266,-162.649C57.1389,-142.101 78.7487,-108.712 104,-86 107.932,-82.4632 112.629,-79.2814 117.229,-76.5782"/>
<polygon fill="midnightblue" stroke="midnightblue" points="42.0773,-160.931 40.1652,-171.352 48.1585,-164.398 42.0773,-160.931"/>
</g>
<!-- Node4 -->
<g id="node4" class="node"><title>Node4</title>
<g id="a_node4"><a xlink:href="../../d7/def/applymap_8c.html#a70db8bd1d499619f7ff9c1ca2ff3c8df" target="_top" xlink:title="main">
<polygon fill="white" stroke="black" points="252.5,-114.5 252.5,-133.5 291.5,-133.5 291.5,-114.5 252.5,-114.5"/>
<text text-anchor="middle" x="272" y="-121.5" font-family="Helvetica,sans-Serif" font-size="10.00">main</text>
</a>
</g>
</g>
<!-- Node3&#45;&gt;Node4 -->
<g id="edge3" class="edge"><title>Node3&#45;&gt;Node4</title>
<path fill="none" stroke="midnightblue" d="M181.828,-111.165C205.587,-114.584 233.935,-118.665 252.188,-121.292"/>
<polygon fill="midnightblue" stroke="midnightblue" points="182.026,-107.657 171.629,-109.697 181.029,-114.586 182.026,-107.657"/>
</g>
<!-- Node5 -->
<g id="node5" class="node"><title>Node5</title>
<g id="a_node5"><a xlink:href="../../d4/d28/rle__box_8c.html#a072c32537af62c46c9b3b62552c0656f" target="_top" xlink:title="rle_box">
<polygon fill="white" stroke="black" points="246.5,-76.5 246.5,-95.5 297.5,-95.5 297.5,-76.5 246.5,-76.5"/>
<text text-anchor="middle" x="272" y="-83.5" font-family="Helvetica,sans-Serif" font-size="10.00">rle_box</text>
</a>
</g>
</g>
<!-- Node3&#45;&gt;Node5 -->
<g id="edge4" class="edge"><title>Node3&#45;&gt;Node5</title>
<path fill="none" stroke="midnightblue" d="M181.747,-98.847C203.059,-95.7794 228.08,-92.1779 246.198,-89.5699"/>
<polygon fill="midnightblue" stroke="midnightblue" points="181.029,-95.4143 171.629,-100.303 182.026,-102.343 181.029,-95.4143"/>
</g>
<!-- Node6 -->
<g id="node6" class="node"><title>Node6</title>
<g id="a_node6"><a xlink:href="../../d5/d2c/rlecomp_8c.html#a52aa460c4bbe517210ee242d3762a8fb" target="_top" xlink:title="copy_scanline">
<polygon fill="white" stroke="black" points="230,-38.5 230,-57.5 314,-57.5 314,-38.5 230,-38.5"/>
<text text-anchor="middle" x="272" y="-45.5" font-family="Helvetica,sans-Serif" font-size="10.00">copy_scanline</text>
</a>
</g>
</g>
<!-- Node3&#45;&gt;Node6 -->
<g id="edge5" class="edge"><title>Node3&#45;&gt;Node6</title>
<path fill="none" stroke="midnightblue" d="M164.806,-90.4455C182.473,-80.5406 203.491,-68.8964 208,-67 216.424,-63.4565 225.736,-60.2723 234.557,-57.5687"/>
<polygon fill="midnightblue" stroke="midnightblue" points="162.981,-87.456 155.978,-95.4058 166.41,-93.5587 162.981,-87.456"/>
</g>
<!-- Node7 -->
<g id="node7" class="node"><title>Node7</title>
<g id="a_node7"><a xlink:href="../../d5/d42/rlezoom_8c.html#a93e7f36e1343b502769244ac9789c0ff" target="_top" xlink:title="integer_zoom">
<polygon fill="white" stroke="black" points="231.5,-0.5 231.5,-19.5 312.5,-19.5 312.5,-0.5 231.5,-0.5"/>
<text text-anchor="middle" x="272" y="-7.5" font-family="Helvetica,sans-Serif" font-size="10.00">integer_zoom</text>
</a>
</g>
</g>
<!-- Node3&#45;&gt;Node7 -->
<g id="edge6" class="edge"><title>Node3&#45;&gt;Node7</title>
<path fill="none" stroke="midnightblue" d="M167.915,-89.5331C169.348,-88.4063 170.721,-87.2275 172,-86 193.616,-65.2508 184.151,-47.1378 208,-29 214.82,-23.8134 223.051,-20.035 231.281,-17.2849"/>
<polygon fill="midnightblue" stroke="midnightblue" points="165.588,-86.8827 159.281,-95.3958 169.52,-92.6739 165.588,-86.8827"/>
</g>
<!-- Node8&#45;&gt;Node2 -->
<g id="edge8" class="edge"><title>Node8&#45;&gt;Node2</title>
<path fill="none" stroke="midnightblue" d="M141.832,-599.781C153.929,-684.021 200.971,-1008.94 208,-1017 219.038,-1029.66 238.173,-1034.04 252.466,-1035.48"/>
<polygon fill="midnightblue" stroke="midnightblue" points="145.277,-599.146 140.393,-589.744 138.348,-600.14 145.277,-599.146"/>
</g>
<!-- Node9 -->
<g id="node9" class="node"><title>Node9</title>
<g id="a_node9"><a xlink:href="../../dd/ddd/fant_8c.html#a2a393adf5cfdf56d9378b9b420ee8107" target="_top" xlink:title="getraster">
<polygon fill="white" stroke="black" points="242.5,-988.5 242.5,-1007.5 301.5,-1007.5 301.5,-988.5 242.5,-988.5"/>
<text text-anchor="middle" x="272" y="-995.5" font-family="Helvetica,sans-Serif" font-size="10.00">getraster</text>
</a>
</g>
</g>
<!-- Node8&#45;&gt;Node9 -->
<g id="edge9" class="edge"><title>Node8&#45;&gt;Node9</title>
<path fill="none" stroke="midnightblue" d="M141.849,-599.894C153.192,-678.579 195.149,-964.482 208,-979 216.632,-988.752 230.069,-993.586 242.32,-995.949"/>
<polygon fill="midnightblue" stroke="midnightblue" points="145.292,-599.246 140.404,-589.845 138.363,-600.242 145.292,-599.246"/>
</g>
<!-- Node10 -->
<g id="node10" class="node"><title>Node10</title>
<g id="a_node10"><a xlink:href="../../d3/d46/get4d_8c.html#af1e5f57fa511be9fa99aee630ceba576" target="_top" xlink:title="get_pic">
<polygon fill="white" stroke="black" points="246.5,-950.5 246.5,-969.5 297.5,-969.5 297.5,-950.5 246.5,-950.5"/>
<text text-anchor="middle" x="272" y="-957.5" font-family="Helvetica,sans-Serif" font-size="10.00">get_pic</text>
</a>
</g>
</g>
<!-- Node8&#45;&gt;Node10 -->
<g id="edge10" class="edge"><title>Node8&#45;&gt;Node10</title>
<path fill="none" stroke="midnightblue" d="M141.588,-599.921C151.093,-671.836 184.736,-915.18 208,-941 217.635,-951.694 233.047,-956.464 246.216,-958.55"/>
<polygon fill="midnightblue" stroke="midnightblue" points="145.001,-599.031 140.231,-589.571 138.061,-599.941 145.001,-599.031"/>
</g>
<!-- Node12 -->
<g id="node12" class="node"><title>Node12</title>
<g id="a_node12"><a xlink:href="../../dc/d11/getami_8c.html#aa654afe741816fa93d1cd7e49ef583ec" target="_top" xlink:title="find_most_used">
<polygon fill="white" stroke="black" points="226.5,-912.5 226.5,-931.5 317.5,-931.5 317.5,-912.5 226.5,-912.5"/>
<text text-anchor="middle" x="272" y="-919.5" font-family="Helvetica,sans-Serif" font-size="10.00">find_most_used</text>
</a>
</g>
</g>
<!-- Node8&#45;&gt;Node12 -->
<g id="edge12" class="edge"><title>Node8&#45;&gt;Node12</title>
<path fill="none" stroke="midnightblue" d="M140.63,-599.851C146.204,-663.029 166.498,-857.927 208,-903 212.952,-908.379 219.366,-912.255 226.201,-915.045"/>
<polygon fill="midnightblue" stroke="midnightblue" points="144.097,-599.318 139.759,-589.653 137.123,-599.914 144.097,-599.318"/>
</g>
<!-- Node14 -->
<g id="node14" class="node"><title>Node14</title>
<g id="a_node14"><a xlink:href="../../dc/d11/getami_8c.html#a3a79557c0de5078d1ea9206ce5eb3e77" target="_top" xlink:title="display_rle">
<polygon fill="white" stroke="black" points="238,-874.5 238,-893.5 306,-893.5 306,-874.5 238,-874.5"/>
<text text-anchor="middle" x="272" y="-881.5" font-family="Helvetica,sans-Serif" font-size="10.00">display_rle</text>
</a>
</g>
</g>
<!-- Node8&#45;&gt;Node14 -->
<g id="edge14" class="edge"><title>Node8&#45;&gt;Node14</title>
<path fill="none" stroke="midnightblue" d="M141.231,-599.758C148.163,-657.773 171.099,-825.997 208,-865 215.773,-873.216 226.956,-877.918 237.748,-880.597"/>
<polygon fill="midnightblue" stroke="midnightblue" points="144.693,-599.223 140.059,-589.695 137.74,-600.033 144.693,-599.223"/>
</g>
<!-- Node15 -->
<g id="node15" class="node"><title>Node15</title>
<g id="a_node15"><a xlink:href="../../d9/dea/getcx3d_8c.html#ac43e38fef452c4a15d14abb67019a1b5" target="_top" xlink:title="getcx3d">
<polygon fill="white" stroke="black" points="245,-836.5 245,-855.5 299,-855.5 299,-836.5 245,-836.5"/>
<text text-anchor="middle" x="272" y="-843.5" font-family="Helvetica,sans-Serif" font-size="10.00">getcx3d</text>
</a>
</g>
</g>
<!-- Node8&#45;&gt;Node15 -->
<g id="edge16" class="edge"><title>Node8&#45;&gt;Node15</title>
<path fill="none" stroke="midnightblue" d="M138.514,-599.834C138.493,-646.236 145.094,-762.79 208,-827 217.674,-836.874 232.277,-841.659 244.989,-843.959"/>
<polygon fill="midnightblue" stroke="midnightblue" points="142.016,-599.662 138.631,-589.623 135.016,-599.582 142.016,-599.662"/>
</g>
<!-- Node17 -->
<g id="node17" class="node"><title>Node17</title>
<g id="a_node17"><a xlink:href="../../d6/d28/gettaac_8c.html#ac6c7cb12df36734a7352513af238a386" target="_top" xlink:title="read_file_rgb">
<polygon fill="white" stroke="black" points="232.5,-798.5 232.5,-817.5 311.5,-817.5 311.5,-798.5 232.5,-798.5"/>
<text text-anchor="middle" x="272" y="-805.5" font-family="Helvetica,sans-Serif" font-size="10.00">read_file_rgb</text>
</a>
</g>
</g>
<!-- Node8&#45;&gt;Node17 -->
<g id="edge18" class="edge"><title>Node8&#45;&gt;Node17</title>
<path fill="none" stroke="midnightblue" d="M139.733,-600.116C142.346,-641.482 154.216,-736.595 208,-789 214.628,-795.458 223.368,-799.731 232.221,-802.556"/>
<polygon fill="midnightblue" stroke="midnightblue" points="143.22,-599.762 139.215,-589.954 136.229,-600.119 143.22,-599.762"/>
</g>
<!-- Node18 -->
<g id="node18" class="node"><title>Node18</title>
<g id="a_node18"><a xlink:href="../../d6/d28/gettaac_8c.html#a803641e408e57eb0d69c043f05374c80" target="_top" xlink:title="read_file_gray">
<polygon fill="white" stroke="black" points="229.5,-760.5 229.5,-779.5 314.5,-779.5 314.5,-760.5 229.5,-760.5"/>
<text text-anchor="middle" x="272" y="-767.5" font-family="Helvetica,sans-Serif" font-size="10.00">read_file_gray</text>
</a>
</g>
</g>
<!-- Node8&#45;&gt;Node18 -->
<g id="edge19" class="edge"><title>Node8&#45;&gt;Node18</title>
<path fill="none" stroke="midnightblue" d="M141.405,-599.837C146.766,-635.347 162.993,-709.897 208,-751 213.989,-756.47 221.502,-760.367 229.233,-763.143"/>
<polygon fill="midnightblue" stroke="midnightblue" points="144.85,-599.202 140.023,-589.771 137.915,-600.154 144.85,-599.202"/>
</g>
<!-- Node19 -->
<g id="node19" class="node"><title>Node19</title>
<g id="a_node19"><a xlink:href="../../d5/d6d/mcut_8c.html#ae8f2544df07a04da1f08ffc3b430c6c0" target="_top" xlink:title="quantize_rle">
<polygon fill="white" stroke="black" points="235,-722.5 235,-741.5 309,-741.5 309,-722.5 235,-722.5"/>
<text text-anchor="middle" x="272" y="-729.5" font-family="Helvetica,sans-Serif" font-size="10.00">quantize_rle</text>
</a>
</g>
</g>
<!-- Node8&#45;&gt;Node19 -->
<g id="edge20" class="edge"><title>Node8&#45;&gt;Node19</title>
<path fill="none" stroke="midnightblue" d="M143.86,-599.443C152.109,-628.434 171.609,-682.808 208,-713 215.649,-719.346 225.375,-723.573 234.883,-726.389"/>
<polygon fill="midnightblue" stroke="midnightblue" points="147.212,-598.428 141.238,-589.678 140.451,-600.244 147.212,-598.428"/>
</g>
<!-- Node20 -->
<g id="node20" class="node"><title>Node20</title>
<g id="a_node20"><a xlink:href="../../d5/d6d/mcut_8c.html#a9cc66ce9d63f137600680f9dc62a64e2" target="_top" xlink:title="quantize_dither_rle">
<polygon fill="white" stroke="black" points="218.5,-684.5 218.5,-703.5 325.5,-703.5 325.5,-684.5 218.5,-684.5"/>
<text text-anchor="middle" x="272" y="-691.5" font-family="Helvetica,sans-Serif" font-size="10.00">quantize_dither_rle</text>
</a>
</g>
</g>
<!-- Node8&#45;&gt;Node20 -->
<g id="edge21" class="edge"><title>Node8&#45;&gt;Node20</title>
<path fill="none" stroke="midnightblue" d="M147.891,-598.797C159.007,-620.309 180.027,-655.124 208,-675 213.494,-678.904 219.803,-682.018 226.258,-684.498"/>
<polygon fill="midnightblue" stroke="midnightblue" points="150.95,-597.088 143.367,-589.689 144.681,-600.202 150.95,-597.088"/>
</g>
<!-- Node21 -->
<g id="node21" class="node"><title>Node21</title>
<g id="a_node21"><a xlink:href="../../df/d69/pyrlib_8c.html#a0df7ee8b612e9251716158b046c62143" target="_top" xlink:title="rle_to_pyramids">
<polygon fill="white" stroke="black" points="226,-646.5 226,-665.5 318,-665.5 318,-646.5 226,-646.5"/>
<text text-anchor="middle" x="272" y="-653.5" font-family="Helvetica,sans-Serif" font-size="10.00">rle_to_pyramids</text>
</a>
</g>
</g>
<!-- Node8&#45;&gt;Node21 -->
<g id="edge22" class="edge"><title>Node8&#45;&gt;Node21</title>
<path fill="none" stroke="midnightblue" d="M155.713,-597.094C168.884,-609.7 188.263,-626.43 208,-637 215.05,-640.775 222.954,-643.907 230.719,-646.464"/>
<polygon fill="midnightblue" stroke="midnightblue" points="157.951,-594.386 148.367,-589.869 153.043,-599.377 157.951,-594.386"/>
</g>
<!-- Node22 -->
<g id="node22" class="node"><title>Node22</title>
<g id="a_node22"><a xlink:href="../../dd/d78/rle_8c.html#abf86d78ed4afb4806e8946de14b62fb4" target="_top" xlink:title="rasterRowGet">
<polygon fill="white" stroke="black" points="230.5,-608.5 230.5,-627.5 313.5,-627.5 313.5,-608.5 230.5,-608.5"/>
<text text-anchor="middle" x="272" y="-615.5" font-family="Helvetica,sans-Serif" font-size="10.00">rasterRowGet</text>
</a>
</g>
</g>
<!-- Node8&#45;&gt;Node22 -->
<g id="edge23" class="edge"><title>Node8&#45;&gt;Node22</title>
<path fill="none" stroke="midnightblue" d="M181.447,-592.22C199.709,-597.477 220.739,-603.531 237.829,-608.451"/>
<polygon fill="midnightblue" stroke="midnightblue" points="182.207,-588.796 171.629,-589.393 180.271,-595.523 182.207,-588.796"/>
</g>
<!-- Node23 -->
<g id="node23" class="node"><title>Node23</title>
<g id="a_node23"><a xlink:href="../../d4/dc6/interfaceRLE.html#a151be2ba0debedc4c36f7305a74354ec" target="_top" xlink:title="&#45;[RLE open:]">
<polygon fill="white" stroke="black" points="234.5,-570.5 234.5,-589.5 309.5,-589.5 309.5,-570.5 234.5,-570.5"/>
<text text-anchor="middle" x="272" y="-577.5" font-family="Helvetica,sans-Serif" font-size="10.00">&#45;[RLE open:]</text>
</a>
</g>
</g>
<!-- Node8&#45;&gt;Node23 -->
<g id="edge24" class="edge"><title>Node8&#45;&gt;Node23</title>
<path fill="none" stroke="midnightblue" d="M181.786,-580C198.654,-580 217.841,-580 234.088,-580"/>
<polygon fill="midnightblue" stroke="midnightblue" points="181.629,-576.5 171.629,-580 181.629,-583.5 181.629,-576.5"/>
</g>
<!-- Node24 -->
<g id="node24" class="node"><title>Node24</title>
<g id="a_node24"><a xlink:href="../../d5/d2c/rlecomp_8c.html#ac0d599df6554bdc4183a566b919b9a57" target="_top" xlink:title="get_scanline">
<polygon fill="white" stroke="black" points="233.5,-532.5 233.5,-551.5 310.5,-551.5 310.5,-532.5 233.5,-532.5"/>
<text text-anchor="middle" x="272" y="-539.5" font-family="Helvetica,sans-Serif" font-size="10.00">get_scanline</text>
</a>
</g>
</g>
<!-- Node8&#45;&gt;Node24 -->
<g id="edge25" class="edge"><title>Node8&#45;&gt;Node24</title>
<path fill="none" stroke="midnightblue" d="M181.447,-567.78C199.709,-562.523 220.739,-556.469 237.829,-551.549"/>
<polygon fill="midnightblue" stroke="midnightblue" points="180.271,-564.477 171.629,-570.607 182.207,-571.204 180.271,-564.477"/>
</g>
<!-- Node25 -->
<g id="node25" class="node"><title>Node25</title>
<g id="a_node25"><a xlink:href="../../d1/d2c/rlehdr_8c.html#af162404c5103b31d3afbd772f64f520a" target="_top" xlink:title="print_codes">
<polygon fill="white" stroke="black" points="236,-494.5 236,-513.5 308,-513.5 308,-494.5 236,-494.5"/>
<text text-anchor="middle" x="272" y="-501.5" font-family="Helvetica,sans-Serif" font-size="10.00">print_codes</text>
</a>
</g>
</g>
<!-- Node8&#45;&gt;Node25 -->
<g id="edge26" class="edge"><title>Node8&#45;&gt;Node25</title>
<path fill="none" stroke="midnightblue" d="M155.713,-562.906C168.884,-550.3 188.263,-533.57 208,-523 216.56,-518.416 226.381,-514.781 235.682,-511.971"/>
<polygon fill="midnightblue" stroke="midnightblue" points="153.043,-560.623 148.367,-570.131 157.951,-565.614 153.043,-560.623"/>
</g>
<!-- Node26 -->
<g id="node26" class="node"><title>Node26</title>
<g id="a_node26"><a xlink:href="../../dc/d5c/rlequant_8c.html#af5748bff1d2364682152642404e87aea" target="_top" xlink:title="read_input">
<polygon fill="white" stroke="black" points="238.5,-456.5 238.5,-475.5 305.5,-475.5 305.5,-456.5 238.5,-456.5"/>
<text text-anchor="middle" x="272" y="-463.5" font-family="Helvetica,sans-Serif" font-size="10.00">read_input</text>
</a>
</g>
</g>
<!-- Node8&#45;&gt;Node26 -->
<g id="edge27" class="edge"><title>Node8&#45;&gt;Node26</title>
<path fill="none" stroke="midnightblue" d="M147.891,-561.203C159.007,-539.691 180.027,-504.876 208,-485 216.94,-478.648 228.034,-474.388 238.41,-471.544"/>
<polygon fill="midnightblue" stroke="midnightblue" points="144.681,-559.798 143.367,-570.311 150.95,-562.912 144.681,-559.798"/>
</g>
<!-- Node27 -->
<g id="node27" class="node"><title>Node27</title>
<g id="a_node27"><a xlink:href="../../da/d9d/rletoabA60_8c.html#a5a84a0a5332db8d82f290bd845eecc62" target="_top" xlink:title="read_image">
<polygon fill="white" stroke="black" points="235.5,-418.5 235.5,-437.5 308.5,-437.5 308.5,-418.5 235.5,-418.5"/>
<text text-anchor="middle" x="272" y="-425.5" font-family="Helvetica,sans-Serif" font-size="10.00">read_image</text>
</a>
</g>
</g>
<!-- Node8&#45;&gt;Node27 -->
<g id="edge28" class="edge"><title>Node8&#45;&gt;Node27</title>
<path fill="none" stroke="midnightblue" d="M143.86,-560.557C152.109,-531.566 171.609,-477.192 208,-447 215.737,-440.581 225.599,-436.33 235.211,-433.515"/>
<polygon fill="midnightblue" stroke="midnightblue" points="140.451,-559.756 141.238,-570.322 147.212,-561.572 140.451,-559.756"/>
</g>
<!-- Node28 -->
<g id="node28" class="node"><title>Node28</title>
<g id="a_node28"><a xlink:href="../../d6/d10/rletoalias_8c.html#a86cf5e03c7b351c5a62a6951d179f6a5" target="_top" xlink:title="read_rle">
<polygon fill="white" stroke="black" points="244,-380.5 244,-399.5 300,-399.5 300,-380.5 244,-380.5"/>
<text text-anchor="middle" x="272" y="-387.5" font-family="Helvetica,sans-Serif" font-size="10.00">read_rle</text>
</a>
</g>
</g>
<!-- Node8&#45;&gt;Node28 -->
<g id="edge29" class="edge"><title>Node8&#45;&gt;Node28</title>
<path fill="none" stroke="midnightblue" d="M141.405,-560.163C146.766,-524.653 162.993,-450.103 208,-409 217.785,-400.063 231.638,-395.325 243.863,-392.814"/>
<polygon fill="midnightblue" stroke="midnightblue" points="137.915,-559.846 140.023,-570.229 144.85,-560.798 137.915,-559.846"/>
</g>
<!-- Node8&#45;&gt;Node29 -->
<g id="edge30" class="edge"><title>Node8&#45;&gt;Node29</title>
<path fill="none" stroke="midnightblue" d="M140.148,-560.067C144.462,-492.008 161.87,-270.198 208,-219 211.441,-215.181 215.619,-212.117 220.169,-209.661"/>
<polygon fill="midnightblue" stroke="midnightblue" points="136.641,-560.079 139.528,-570.273 143.629,-560.503 136.641,-560.079"/>
</g>
<!-- Node8&#45;&gt;Node31 -->
<g id="edge32" class="edge"><title>Node8&#45;&gt;Node31</title>
<path fill="none" stroke="midnightblue" d="M139.739,-560.347C142.844,-488.104 157.137,-238.461 208,-181 211.407,-177.151 215.563,-174.067 220.1,-171.6"/>
<polygon fill="midnightblue" stroke="midnightblue" points="136.241,-560.229 139.332,-570.362 143.235,-560.512 136.241,-560.229"/>
</g>
<!-- Node32 -->
<g id="node32" class="node"><title>Node32</title>
<g id="a_node32"><a xlink:href="../../d7/d4a/rletogif_8c.html#ae6289c0f5ad8df9d34452253a23b385b" target="_top" xlink:title="get_scanlines">
<polygon fill="white" stroke="black" points="231,-342.5 231,-361.5 313,-361.5 313,-342.5 231,-342.5"/>
<text text-anchor="middle" x="272" y="-349.5" font-family="Helvetica,sans-Serif" font-size="10.00">get_scanlines</text>
</a>
</g>
</g>
<!-- Node8&#45;&gt;Node32 -->
<g id="edge34" class="edge"><title>Node8&#45;&gt;Node32</title>
<path fill="none" stroke="midnightblue" d="M139.733,-559.884C142.346,-518.518 154.216,-423.405 208,-371 214.3,-364.861 222.51,-360.696 230.911,-357.873"/>
<polygon fill="midnightblue" stroke="midnightblue" points="136.229,-559.881 139.215,-570.046 143.22,-560.238 136.229,-559.881"/>
</g>
<!-- Node34 -->
<g id="node34" class="node"><title>Node34</title>
<g id="a_node34"><a xlink:href="../../d1/d55/rletoppm_8c.html#acc32e62ee705887470ad5627ec215e24" target="_top" xlink:title="write_ppm_data">
<polygon fill="white" stroke="black" points="226,-304.5 226,-323.5 318,-323.5 318,-304.5 226,-304.5"/>
<text text-anchor="middle" x="272" y="-311.5" font-family="Helvetica,sans-Serif" font-size="10.00">write_ppm_data</text>
</a>
</g>
</g>
<!-- Node8&#45;&gt;Node34 -->
<g id="edge36" class="edge"><title>Node8&#45;&gt;Node34</title>
<path fill="none" stroke="midnightblue" d="M138.514,-560.166C138.493,-513.764 145.094,-397.21 208,-333 212.957,-327.941 219.208,-324.217 225.836,-321.48"/>
<polygon fill="midnightblue" stroke="midnightblue" points="135.016,-560.418 138.631,-570.377 142.016,-560.338 135.016,-560.418"/>
</g>
<!-- Node36 -->
<g id="node36" class="node"><title>Node36</title>
<g id="a_node36"><a xlink:href="../../d0/dcc/rletorla_8c.html#a0f0bafd2d10f5ddf5abbdc19c3d33aee" target="_top" xlink:title="write_rlb_data">
<polygon fill="white" stroke="black" points="230.5,-266.5 230.5,-285.5 313.5,-285.5 313.5,-266.5 230.5,-266.5"/>
<text text-anchor="middle" x="272" y="-273.5" font-family="Helvetica,sans-Serif" font-size="10.00">write_rlb_data</text>
</a>
</g>
</g>
<!-- Node8&#45;&gt;Node36 -->
<g id="edge38" class="edge"><title>Node8&#45;&gt;Node36</title>
<path fill="none" stroke="midnightblue" d="M141.231,-560.242C148.163,-502.227 171.099,-334.003 208,-295 213.967,-288.693 221.944,-284.456 230.211,-281.616"/>
<polygon fill="midnightblue" stroke="midnightblue" points="137.74,-559.967 140.059,-570.305 144.693,-560.777 137.74,-559.967"/>
</g>
<!-- Node38 -->
<g id="node38" class="node"><title>Node38</title>
<g id="a_node38"><a xlink:href="../../d5/d42/rlezoom_8c.html#a1b7fcf5f9dbabbb794956526d2599b5d" target="_top" xlink:title="advance_fp">
<polygon fill="white" stroke="black" points="236,-228.5 236,-247.5 308,-247.5 308,-228.5 236,-228.5"/>
<text text-anchor="middle" x="272" y="-235.5" font-family="Helvetica,sans-Serif" font-size="10.00">advance_fp</text>
</a>
</g>
</g>
<!-- Node8&#45;&gt;Node38 -->
<g id="edge40" class="edge"><title>Node8&#45;&gt;Node38</title>
<path fill="none" stroke="midnightblue" d="M140.63,-560.149C146.204,-496.971 166.498,-302.073 208,-257 215.274,-249.1 225.7,-244.44 235.983,-241.706"/>
<polygon fill="midnightblue" stroke="midnightblue" points="137.123,-560.086 139.759,-570.347 144.097,-560.682 137.123,-560.086"/>
</g>
<!-- Node11 -->
<g id="node11" class="node"><title>Node11</title>
<g id="a_node11"><a xlink:href="../../d3/d46/get4d_8c.html#a2e1c56207484e456874379d624fc0e67" target="_top" xlink:title="main">
<polygon fill="white" stroke="black" points="372,-950.5 372,-969.5 411,-969.5 411,-950.5 372,-950.5"/>
<text text-anchor="middle" x="391.5" y="-957.5" font-family="Helvetica,sans-Serif" font-size="10.00">main</text>
</a>
</g>
</g>
<!-- Node10&#45;&gt;Node11 -->
<g id="edge11" class="edge"><title>Node10&#45;&gt;Node11</title>
<path fill="none" stroke="midnightblue" d="M307.753,-960C328.68,-960 354.512,-960 371.691,-960"/>
<polygon fill="midnightblue" stroke="midnightblue" points="307.632,-956.5 297.632,-960 307.632,-963.5 307.632,-956.5"/>
</g>
<!-- Node13 -->
<g id="node13" class="node"><title>Node13</title>
<g id="a_node13"><a xlink:href="../../dc/d11/getami_8c.html#a7be6d508b8d11374d4aef0a66817d9f0" target="_top" xlink:title="main">
<polygon fill="white" stroke="black" points="372,-893.5 372,-912.5 411,-912.5 411,-893.5 372,-893.5"/>
<text text-anchor="middle" x="391.5" y="-900.5" font-family="Helvetica,sans-Serif" font-size="10.00">main</text>
</a>
</g>
</g>
<!-- Node12&#45;&gt;Node13 -->
<g id="edge13" class="edge"><title>Node12&#45;&gt;Node13</title>
<path fill="none" stroke="midnightblue" d="M328.044,-913.099C343.85,-910.543 360.016,-907.929 371.94,-906.001"/>
<polygon fill="midnightblue" stroke="midnightblue" points="327.07,-909.711 317.757,-914.763 328.187,-916.621 327.07,-909.711"/>
</g>
<!-- Node14&#45;&gt;Node13 -->
<g id="edge15" class="edge"><title>Node14&#45;&gt;Node13</title>
<path fill="none" stroke="midnightblue" d="M316.123,-890.973C335.348,-894.082 356.982,-897.58 371.94,-899.999"/>
<polygon fill="midnightblue" stroke="midnightblue" points="316.473,-887.484 306.043,-889.343 315.356,-894.395 316.473,-887.484"/>
</g>
<!-- Node16 -->
<g id="node16" class="node"><title>Node16</title>
<g id="a_node16"><a xlink:href="../../d9/dea/getcx3d_8c.html#a0708a0954f39ecdc7aa901286295ad01" target="_top" xlink:title="main">
<polygon fill="white" stroke="black" points="372,-836.5 372,-855.5 411,-855.5 411,-836.5 372,-836.5"/>
<text text-anchor="middle" x="391.5" y="-843.5" font-family="Helvetica,sans-Serif" font-size="10.00">main</text>
</a>
</g>
</g>
<!-- Node15&#45;&gt;Node16 -->
<g id="edge17" class="edge"><title>Node15&#45;&gt;Node16</title>
<path fill="none" stroke="midnightblue" d="M309.136,-846C329.852,-846 354.994,-846 371.797,-846"/>
<polygon fill="midnightblue" stroke="midnightblue" points="309.077,-842.5 299.077,-846 309.077,-849.5 309.077,-842.5"/>
</g>
<!-- Node30 -->
<g id="node30" class="node"><title>Node30</title>
<g id="a_node30"><a xlink:href="../../dc/d21/rletocgm_8c.html#a5ea466849f21e6c2be4ef9b2eb8868d3" target="_top" xlink:title="main">
<polygon fill="white" stroke="black" points="372,-171.5 372,-190.5 411,-190.5 411,-171.5 372,-171.5"/>
<text text-anchor="middle" x="391.5" y="-178.5" font-family="Helvetica,sans-Serif" font-size="10.00">main</text>
</a>
</g>
</g>
<!-- Node29&#45;&gt;Node30 -->
<g id="edge31" class="edge"><title>Node29&#45;&gt;Node30</title>
<path fill="none" stroke="midnightblue" d="M342.171,-188.815C353.042,-187.057 363.42,-185.379 371.754,-184.031"/>
<polygon fill="midnightblue" stroke="midnightblue" points="341.407,-185.393 332.094,-190.444 342.525,-192.303 341.407,-185.393"/>
</g>
<!-- Node31&#45;&gt;Node30 -->
<g id="edge33" class="edge"><title>Node31&#45;&gt;Node30</title>
<path fill="none" stroke="midnightblue" d="M339.909,-172.819C351.597,-174.709 362.847,-176.528 371.757,-177.969"/>
<polygon fill="midnightblue" stroke="midnightblue" points="340.46,-169.363 330.029,-171.222 339.342,-176.273 340.46,-169.363"/>
</g>
<!-- Node33 -->
<g id="node33" class="node"><title>Node33</title>
<g id="a_node33"><a xlink:href="../../d7/d4a/rletogif_8c.html#ade521a0600ded19f1720b6f6df59b480" target="_top" xlink:title="main">
<polygon fill="white" stroke="black" points="372,-342.5 372,-361.5 411,-361.5 411,-342.5 372,-342.5"/>
<text text-anchor="middle" x="391.5" y="-349.5" font-family="Helvetica,sans-Serif" font-size="10.00">main</text>
</a>
</g>
</g>
<!-- Node32&#45;&gt;Node33 -->
<g id="edge35" class="edge"><title>Node32&#45;&gt;Node33</title>
<path fill="none" stroke="midnightblue" d="M323.136,-352C340.447,-352 358.778,-352 371.941,-352"/>
<polygon fill="midnightblue" stroke="midnightblue" points="323.108,-348.5 313.108,-352 323.108,-355.5 323.108,-348.5"/>
</g>
<!-- Node35 -->
<g id="node35" class="node"><title>Node35</title>
<g id="a_node35"><a xlink:href="../../d1/d55/rletoppm_8c.html#a3c04138a5bfe5d72780bb7e82a18e627" target="_top" xlink:title="main">
<polygon fill="white" stroke="black" points="372,-304.5 372,-323.5 411,-323.5 411,-304.5 372,-304.5"/>
<text text-anchor="middle" x="391.5" y="-311.5" font-family="Helvetica,sans-Serif" font-size="10.00">main</text>
</a>
</g>
</g>
<!-- Node34&#45;&gt;Node35 -->
<g id="edge37" class="edge"><title>Node34&#45;&gt;Node35</title>
<path fill="none" stroke="midnightblue" d="M328.281,-314C343.929,-314 359.906,-314 371.752,-314"/>
<polygon fill="midnightblue" stroke="midnightblue" points="328.093,-310.5 318.093,-314 328.092,-317.5 328.093,-310.5"/>
</g>
<!-- Node37 -->
<g id="node37" class="node"><title>Node37</title>
<g id="a_node37"><a xlink:href="../../d0/dcc/rletorla_8c.html#a3c04138a5bfe5d72780bb7e82a18e627" target="_top" xlink:title="main">
<polygon fill="white" stroke="black" points="372,-266.5 372,-285.5 411,-285.5 411,-266.5 372,-266.5"/>
<text text-anchor="middle" x="391.5" y="-273.5" font-family="Helvetica,sans-Serif" font-size="10.00">main</text>
</a>
</g>
</g>
<!-- Node36&#45;&gt;Node37 -->
<g id="edge39" class="edge"><title>Node36&#45;&gt;Node37</title>
<path fill="none" stroke="midnightblue" d="M324.165,-276C341.128,-276 358.948,-276 371.842,-276"/>
<polygon fill="midnightblue" stroke="midnightblue" points="323.766,-272.5 313.766,-276 323.766,-279.5 323.766,-272.5"/>
</g>
</g>
</svg>
