<?xml version="1.0" encoding="UTF-8" standalone="no"?>
<!DOCTYPE svg PUBLIC "-//W3C//DTD SVG 1.1//EN"
 "http://www.w3.org/Graphics/SVG/1.1/DTD/svg11.dtd">
<!-- Generated by graphviz version 2.38.0 (20140413.2041)
 -->
<!-- Title: RASF Pages: 1 -->
<svg width="484pt" height="218pt"
 viewBox="0.00 0.00 483.50 218.00" xmlns="http://www.w3.org/2000/svg" xmlns:xlink="http://www.w3.org/1999/xlink">
<g id="graph0" class="graph" transform="scale(1 1) rotate(0) translate(4 214)">
<title>RASF</title>
<polygon fill="white" stroke="none" points="-4,4 -4,-214 479.5,-214 479.5,4 -4,4"/>
<!-- Node1 -->
<g id="node1" class="node"><title>Node1</title>
<polygon fill="#bfbfbf" stroke="black" points="204.5,-0.5 204.5,-19.5 248.5,-19.5 248.5,-0.5 204.5,-0.5"/>
<text text-anchor="middle" x="226.5" y="-7.5" font-family="Helvetica,sans-Serif" font-size="10.00">RASF</text>
</g>
<!-- Node2 -->
<g id="node2" class="node"><title>Node2</title>
<g id="a_node2"><a xlink:href="../../d2/d41/interfaceImage.html" target="_top" xlink:title="Image">
<polygon fill="white" stroke="black" points="203.5,-57.5 203.5,-76.5 249.5,-76.5 249.5,-57.5 203.5,-57.5"/>
<text text-anchor="middle" x="226.5" y="-64.5" font-family="Helvetica,sans-Serif" font-size="10.00">Image</text>
</a>
</g>
</g>
<!-- Node2&#45;&gt;Node1 -->
<g id="edge1" class="edge"><title>Node2&#45;&gt;Node1</title>
<path fill="none" stroke="midnightblue" d="M226.5,-47.1166C226.5,-37.8173 226.5,-27.0557 226.5,-19.7149"/>
<polygon fill="midnightblue" stroke="midnightblue" points="223,-47.4062 226.5,-57.4062 230,-47.4063 223,-47.4062"/>
</g>
<!-- Node3 -->
<g id="node3" class="node"><title>Node3</title>
<g id="a_node3"><a xlink:href="../../d7/d9f/classView.html" target="_top" xlink:title="View">
<polygon fill="white" stroke="black" points="0,-190.5 0,-209.5 39,-209.5 39,-190.5 0,-190.5"/>
<text text-anchor="middle" x="19.5" y="-197.5" font-family="Helvetica,sans-Serif" font-size="10.00">View</text>
</a>
</g>
</g>
<!-- Node3&#45;&gt;Node2 -->
<g id="edge2" class="edge"><title>Node3&#45;&gt;Node2</title>
<path fill="none" stroke="midnightblue" d="M23.0027,-180.445C28.5185,-156.676 41.6141,-116.045 69.5,-95 90.1964,-79.3812 164.797,-72.1576 203.238,-69.4101"/>
<polygon fill="midnightblue" stroke="midnightblue" points="19.5581,-179.817 20.9238,-190.324 26.4081,-181.259 19.5581,-179.817"/>
</g>
<!-- Node4 -->
<g id="node4" class="node"><title>Node4</title>
<polygon fill="white" stroke="#bfbfbf" points="57.5,-190.5 57.5,-209.5 95.5,-209.5 95.5,-190.5 57.5,-190.5"/>
<text text-anchor="middle" x="76.5" y="-197.5" font-family="Helvetica,sans-Serif" font-size="10.00">char</text>
</g>
<!-- Node4&#45;&gt;Node2 -->
<g id="edge3" class="edge"><title>Node4&#45;&gt;Node2</title>
<path fill="none" stroke="#9a32cd" stroke-dasharray="5,2" d="M73.9795,-180.36C71.9686,-157.128 72.4613,-117.719 94.5,-95 109.28,-79.7636 169.454,-72.5602 203.225,-69.6579"/>
<polygon fill="#9a32cd" stroke="#9a32cd" points="70.5032,-180.769 75.0844,-190.322 77.4606,-179.997 70.5032,-180.769"/>
<text text-anchor="middle" x="122.5" y="-164" font-family="Helvetica,sans-Serif" font-size="10.00"> g</text>
<text text-anchor="middle" x="122.5" y="-153" font-family="Helvetica,sans-Serif" font-size="10.00">a</text>
<text text-anchor="middle" x="122.5" y="-142" font-family="Helvetica,sans-Serif" font-size="10.00">r</text>
<text text-anchor="middle" x="122.5" y="-131" font-family="Helvetica,sans-Serif" font-size="10.00">b</text>
<text text-anchor="start" x="94.5" y="-120" font-family="Helvetica,sans-Serif" font-size="10.00">windowIcon</text>
<text text-anchor="middle" x="122.5" y="-109" font-family="Helvetica,sans-Serif" font-size="10.00">Name</text>
<text text-anchor="middle" x="122.5" y="-98" font-family="Helvetica,sans-Serif" font-size="10.00">fileName</text>
</g>
<!-- Node5 -->
<g id="node5" class="node"><title>Node5</title>
<polygon fill="white" stroke="#bfbfbf" points="123.5,-190.5 123.5,-209.5 187.5,-209.5 187.5,-190.5 123.5,-190.5"/>
<text text-anchor="middle" x="155.5" y="-197.5" font-family="Helvetica,sans-Serif" font-size="10.00">NXZone *</text>
</g>
<!-- Node5&#45;&gt;Node2 -->
<g id="edge4" class="edge"><title>Node5&#45;&gt;Node2</title>
<path fill="none" stroke="#9a32cd" stroke-dasharray="5,2" d="M154.218,-180.296C153.656,-157.862 155.925,-120.142 174.5,-95 181.572,-85.4276 193.041,-78.9653 203.412,-74.7697"/>
<polygon fill="#9a32cd" stroke="#9a32cd" points="150.731,-180.662 154.698,-190.486 157.723,-180.332 150.731,-180.662"/>
<text text-anchor="middle" x="198.5" y="-131" font-family="Helvetica,sans-Serif" font-size="10.00"> newZone</text>
</g>
<!-- Node6 -->
<g id="node6" class="node"><title>Node6</title>
<polygon fill="white" stroke="#bfbfbf" points="212,-190.5 212,-209.5 241,-209.5 241,-190.5 212,-190.5"/>
<text text-anchor="middle" x="226.5" y="-197.5" font-family="Helvetica,sans-Serif" font-size="10.00">int</text>
</g>
<!-- Node6&#45;&gt;Node2 -->
<g id="edge5" class="edge"><title>Node6&#45;&gt;Node2</title>
<path fill="none" stroke="#9a32cd" stroke-dasharray="5,2" d="M226.5,-180.09C226.5,-151.356 226.5,-97.8221 226.5,-76.7987"/>
<polygon fill="#9a32cd" stroke="#9a32cd" points="223,-180.405 226.5,-190.405 230,-180.405 223,-180.405"/>
<text text-anchor="middle" x="252" y="-142" font-family="Helvetica,sans-Serif" font-size="10.00"> xsize</text>
<text text-anchor="middle" x="252" y="-131" font-family="Helvetica,sans-Serif" font-size="10.00">ysize</text>
<text text-anchor="middle" x="252" y="-120" font-family="Helvetica,sans-Serif" font-size="10.00">numColors</text>
</g>
<!-- Node7 -->
<g id="node7" class="node"><title>Node7</title>
<polygon fill="white" stroke="#bfbfbf" points="274,-190.5 274,-209.5 327,-209.5 327,-190.5 274,-190.5"/>
<text text-anchor="middle" x="300.5" y="-197.5" font-family="Helvetica,sans-Serif" font-size="10.00">NXRect</text>
</g>
<!-- Node7&#45;&gt;Node2 -->
<g id="edge6" class="edge"><title>Node7&#45;&gt;Node2</title>
<path fill="none" stroke="#9a32cd" stroke-dasharray="5,2" d="M301.15,-180.254C300.974,-157.779 297.526,-120.019 278.5,-95 271.357,-85.6077 260.011,-79.1834 249.737,-74.9659"/>
<polygon fill="#9a32cd" stroke="#9a32cd" points="297.648,-180.418 301.01,-190.465 304.647,-180.514 297.648,-180.418"/>
<text text-anchor="middle" x="324" y="-131" font-family="Helvetica,sans-Serif" font-size="10.00"> temprect</text>
</g>
<!-- Node8 -->
<g id="node8" class="node"><title>Node8</title>
<polygon fill="white" stroke="#bfbfbf" points="354,-190.5 354,-209.5 383,-209.5 383,-190.5 354,-190.5"/>
<text text-anchor="middle" x="368.5" y="-197.5" font-family="Helvetica,sans-Serif" font-size="10.00">id</text>
</g>
<!-- Node8&#45;&gt;Node2 -->
<g id="edge7" class="edge"><title>Node8&#45;&gt;Node2</title>
<path fill="none" stroke="#9a32cd" stroke-dasharray="5,2" d="M366.931,-180.18C364.322,-153.564 358.185,-106.836 346.5,-95 333.185,-81.5132 280.645,-73.7486 249.674,-70.2549"/>
<polygon fill="#9a32cd" stroke="#9a32cd" points="363.45,-180.553 367.838,-190.196 370.421,-179.921 363.45,-180.553"/>
<text text-anchor="middle" x="392.5" y="-142" font-family="Helvetica,sans-Serif" font-size="10.00"> thisview</text>
<text text-anchor="middle" x="392.5" y="-131" font-family="Helvetica,sans-Serif" font-size="10.00">tiffimage</text>
<text text-anchor="middle" x="392.5" y="-120" font-family="Helvetica,sans-Serif" font-size="10.00">thiswindow</text>
</g>
<!-- Node9 -->
<g id="node9" class="node"><title>Node9</title>
<polygon fill="white" stroke="#bfbfbf" points="421.5,-190.5 421.5,-209.5 465.5,-209.5 465.5,-190.5 421.5,-190.5"/>
<text text-anchor="middle" x="443.5" y="-197.5" font-family="Helvetica,sans-Serif" font-size="10.00">void *</text>
</g>
<!-- Node9&#45;&gt;Node2 -->
<g id="edge8" class="edge"><title>Node9&#45;&gt;Node2</title>
<path fill="none" stroke="#9a32cd" stroke-dasharray="5,2" d="M445.416,-180.397C446.708,-156.88 444.942,-116.837 421.5,-95 396.992,-72.1705 295.707,-68.4718 249.575,-67.992"/>
<polygon fill="#9a32cd" stroke="#9a32cd" points="441.919,-180.216 444.617,-190.462 448.897,-180.77 441.919,-180.216"/>
<text text-anchor="middle" x="460.5" y="-147.5" font-family="Helvetica,sans-Serif" font-size="10.00"> gmap</text>
<text text-anchor="middle" x="460.5" y="-136.5" font-family="Helvetica,sans-Serif" font-size="10.00">bmap</text>
<text text-anchor="middle" x="460.5" y="-125.5" font-family="Helvetica,sans-Serif" font-size="10.00">amap</text>
<text text-anchor="middle" x="460.5" y="-114.5" font-family="Helvetica,sans-Serif" font-size="10.00">rmap</text>
</g>
</g>
</svg>
