<?xml version="1.0" encoding="UTF-8" standalone="no"?>
<!DOCTYPE svg PUBLIC "-//W3C//DTD SVG 1.1//EN"
 "http://www.w3.org/Graphics/SVG/1.1/DTD/svg11.dtd">
<!-- Generated by graphviz version 2.38.0 (20140413.2041)
 -->
<!-- Title: main Pages: 1 -->
<!--zoomable 626 -->
<svg id="main" version="1.1" xmlns="http://www.w3.org/2000/svg" xmlns:xlink="http://www.w3.org/1999/xlink" xml:space="preserve" onload="init(evt)">
<style type="text/css"><![CDATA[
.edge:hover path { stroke: red; }
.edge:hover polygon { stroke: red; fill: red; }
]]></style>
<script type="text/javascript"><![CDATA[
var edges = document.getElementsByTagName('g');
if (edges && edges.length) {
  for (var i=0;i<edges.length;i++) {
    if (edges[i].id.substr(0,4)=='edge') {
      edges[i].setAttribute('class','edge');
    }
  }
}
]]></script>
        <defs>
                <circle id="rim" cx="0" cy="0" r="7"/>
                <circle id="rim2" cx="0" cy="0" r="3.5"/>
                <g id="zoomPlus">
                        <use xlink:href="#rim" fill="#404040">
                                <set attributeName="fill" to="#808080" begin="zoomplus.mouseover" end="zoomplus.mouseout"/>
                        </use>
                        <path d="M-4,0h8M0,-4v8" fill="none" stroke="white" stroke-width="1.5" pointer-events="none"/>
                </g>
                <g id="zoomMin">
                        <use xlink:href="#rim" fill="#404040">
                                <set attributeName="fill" to="#808080" begin="zoomminus.mouseover" end="zoomminus.mouseout"/>
                        </use>
                        <path d="M-4,0h8" fill="none" stroke="white" stroke-width="1.5" pointer-events="none"/>
                </g>
                <g id="dirArrow">
                        <path fill="none" stroke="white" stroke-width="1.5" d="M0,-3.0v7 M-2.5,-0.5L0,-3.0L2.5,-0.5"/>
                </g>
               <g id="resetDef">
                       <use xlink:href="#rim2" fill="#404040">
                               <set attributeName="fill" to="#808080" begin="reset.mouseover" end="reset.mouseout"/>
                       </use>
               </g>
        </defs>

<script type="text/javascript">
var viewWidth = 667;
var viewHeight = 626;
var sectionId = 'dynsection-1';
</script>
<script xlink:href="../../svgpan.js"/>
<svg id="graph" class="graph">
<g id="viewport">
<title>main</title>
<polygon fill="white" stroke="none" points="-4,4 -4,-622.375 663,-622.375 663,4 -4,4"/>
<!-- Node1 -->
<g id="node1" class="node"><title>Node1</title>
<polygon fill="#bfbfbf" stroke="black" points="0,-389.875 0,-408.875 39,-408.875 39,-389.875 0,-389.875"/>
<text text-anchor="middle" x="19.5" y="-396.875" font-family="Helvetica,sans-Serif" font-size="10.00">main</text>
</g>
<!-- Node2 -->
<g id="node2" class="node"><title>Node2</title>
<g id="a_node2"><a xlink:href="../../d4/db0/scanargs_8c.html#a7ea6d702c0484056c8504d6ce7fede08" target="_top" xlink:title="scanargs">
<polygon fill="white" stroke="black" points="96,-598.875 96,-617.875 156,-617.875 156,-598.875 96,-598.875"/>
<text text-anchor="middle" x="126" y="-605.875" font-family="Helvetica,sans-Serif" font-size="10.00">scanargs</text>
</a>
</g>
</g>
<!-- Node1&#45;&gt;Node2 -->
<g id="edge1" class="edge"><title>Node1&#45;&gt;Node2</title>
<path fill="none" stroke="midnightblue" d="M20.7005,-409.1C21.8142,-438.918 29.0066,-530.308 75,-584.375 78.3456,-588.308 82.4835,-591.646 86.935,-594.467"/>
<polygon fill="midnightblue" stroke="midnightblue" points="85.3002,-597.562 95.7561,-599.272 88.6487,-591.415 85.3002,-597.562"/>
</g>
<!-- Node4 -->
<g id="node4" class="node"><title>Node4</title>
<g id="a_node4"><a xlink:href="../../d2/df3/rle__hdr_8c.html#a8ba0e5b11d1e39ab7227f1686e676c86" target="_top" xlink:title="rle_hdr_init">
<polygon fill="white" stroke="black" points="220,-446.875 220,-465.875 290,-465.875 290,-446.875 220,-446.875"/>
<text text-anchor="middle" x="255" y="-453.875" font-family="Helvetica,sans-Serif" font-size="10.00">rle_hdr_init</text>
</a>
</g>
</g>
<!-- Node1&#45;&gt;Node4 -->
<g id="edge3" class="edge"><title>Node1&#45;&gt;Node4</title>
<path fill="none" stroke="midnightblue" d="M39.2957,-403.915C68.6844,-411.019 127.301,-425.21 177,-437.375 187.642,-439.98 199.107,-442.801 209.856,-445.453"/>
<polygon fill="midnightblue" stroke="midnightblue" points="209.345,-448.931 219.892,-447.93 211.022,-442.135 209.345,-448.931"/>
</g>
<!-- Node8 -->
<g id="node8" class="node"><title>Node8</title>
<g id="a_node8"><a xlink:href="../../d0/dcc/rletorla_8c.html#ab7e36af3707843f77cc5b4e831c2fa6d" target="_top" xlink:title="malloc">
<polygon fill="white" stroke="black" points="602.5,-484.875 602.5,-503.875 649.5,-503.875 649.5,-484.875 602.5,-484.875"/>
<text text-anchor="middle" x="626" y="-491.875" font-family="Helvetica,sans-Serif" font-size="10.00">malloc</text>
</a>
</g>
</g>
<!-- Node1&#45;&gt;Node8 -->
<g id="edge31" class="edge"><title>Node1&#45;&gt;Node8</title>
<path fill="none" stroke="midnightblue" d="M21.1322,-409.042C23.3676,-434.755 33.2067,-505.195 75,-539.375 137.5,-590.49 173.26,-570.375 254,-570.375 254,-570.375 254,-570.375 377,-570.375 457.444,-570.375 484.874,-587.001 557,-551.375 577.859,-541.072 574.824,-527.897 593,-513.375 594.59,-512.105 596.273,-510.859 598.003,-509.652"/>
<polygon fill="midnightblue" stroke="midnightblue" points="600.293,-512.341 606.817,-503.993 596.511,-506.45 600.293,-512.341"/>
</g>
<!-- Node9 -->
<g id="node9" class="node"><title>Node9</title>
<g id="a_node9"><a xlink:href="../../d2/df3/rle__hdr_8c.html#a82e79385f2d45cc3b80ce0f4f369eae5" target="_top" xlink:title="rle_names">
<polygon fill="white" stroke="black" points="473,-446.875 473,-465.875 539,-465.875 539,-446.875 473,-446.875"/>
<text text-anchor="middle" x="506" y="-453.875" font-family="Helvetica,sans-Serif" font-size="10.00">rle_names</text>
</a>
</g>
</g>
<!-- Node1&#45;&gt;Node9 -->
<g id="edge12" class="edge"><title>Node1&#45;&gt;Node9</title>
<path fill="none" stroke="midnightblue" d="M24.0274,-409.115C30.8287,-426.246 47.5569,-461.285 75,-475.375 206.851,-543.073 392.515,-494.463 469.456,-469.134"/>
<polygon fill="midnightblue" stroke="midnightblue" points="470.784,-472.38 479.147,-465.875 468.553,-465.745 470.784,-472.38"/>
</g>
<!-- Node10 -->
<g id="node10" class="node"><title>Node10</title>
<g id="a_node10"><a xlink:href="../../d8/d30/cmd__name_8c.html#a271249070fdd12c176777c77d76f888f" target="_top" xlink:title="cmd_name">
<polygon fill="white" stroke="black" points="92,-446.875 92,-465.875 160,-465.875 160,-446.875 92,-446.875"/>
<text text-anchor="middle" x="126" y="-453.875" font-family="Helvetica,sans-Serif" font-size="10.00">cmd_name</text>
</a>
</g>
</g>
<!-- Node1&#45;&gt;Node10 -->
<g id="edge13" class="edge"><title>Node1&#45;&gt;Node10</title>
<path fill="none" stroke="midnightblue" d="M35.54,-409.022C46.3578,-415.827 61.3804,-425.006 75,-432.375 81.2587,-435.762 88.071,-439.193 94.5956,-442.362"/>
<polygon fill="midnightblue" stroke="midnightblue" points="93.3186,-445.63 103.851,-446.779 96.3338,-439.313 93.3186,-445.63"/>
</g>
<!-- Node11 -->
<g id="node11" class="node"><title>Node11</title>
<g id="a_node11"><a xlink:href="../../d8/d32/qcr_8c.html#a73416334b60b1feae3f95c0622d3ca5f" target="_top" xlink:title="init_qcr">
<polygon fill="white" stroke="black" points="100.5,-9.87525 100.5,-28.8752 151.5,-28.8752 151.5,-9.87525 100.5,-9.87525"/>
<text text-anchor="middle" x="126" y="-16.8752" font-family="Helvetica,sans-Serif" font-size="10.00">init_qcr</text>
</a>
</g>
</g>
<!-- Node1&#45;&gt;Node11 -->
<g id="edge14" class="edge"><title>Node1&#45;&gt;Node11</title>
<path fill="none" stroke="midnightblue" d="M20.2612,-389.83C19.6218,-349.565 20.8131,-190.404 75,-76.3752 82.3652,-60.8763 95.1945,-46.3818 106.013,-35.8877"/>
<polygon fill="midnightblue" stroke="midnightblue" points="108.486,-38.3676 113.429,-28.9962 103.721,-33.2399 108.486,-38.3676"/>
</g>
<!-- Node13 -->
<g id="node13" class="node"><title>Node13</title>
<g id="a_node13"><a xlink:href="../../de/d4e/rle__open__f_8c.html#a89733a45961817885603ae01210290b7" target="_top" xlink:title="rle_open_f">
<polygon fill="white" stroke="black" points="342,-522.875 342,-541.875 410,-541.875 410,-522.875 342,-522.875"/>
<text text-anchor="middle" x="376" y="-529.875" font-family="Helvetica,sans-Serif" font-size="10.00">rle_open_f</text>
</a>
</g>
</g>
<!-- Node1&#45;&gt;Node13 -->
<g id="edge16" class="edge"><title>Node1&#45;&gt;Node13</title>
<path fill="none" stroke="midnightblue" d="M22.0842,-409.014C26.2542,-430.961 39.7461,-484.592 75,-508.375 152.958,-560.967 269.583,-551.473 331.972,-541.196"/>
<polygon fill="midnightblue" stroke="midnightblue" points="332.615,-544.637 341.871,-539.483 331.421,-537.739 332.615,-544.637"/>
</g>
<!-- Node16 -->
<g id="node16" class="node"><title>Node16</title>
<g id="a_node16"><a xlink:href="../../db/d53/rle__getrow_8c.html#a2d56ca99b896abbcb4d2f3f97c93a3ce" target="_top" xlink:title="rle_get_setup_ok">
<polygon fill="white" stroke="black" points="77,-370.875 77,-389.875 175,-389.875 175,-370.875 77,-370.875"/>
<text text-anchor="middle" x="126" y="-377.875" font-family="Helvetica,sans-Serif" font-size="10.00">rle_get_setup_ok</text>
</a>
</g>
</g>
<!-- Node1&#45;&gt;Node16 -->
<g id="edge21" class="edge"><title>Node1&#45;&gt;Node16</title>
<path fill="none" stroke="midnightblue" d="M39.1825,-395.978C47.1079,-394.537 56.8202,-392.772 66.8261,-390.952"/>
<polygon fill="midnightblue" stroke="midnightblue" points="67.6619,-394.358 76.8745,-389.125 66.4096,-387.471 67.6619,-394.358"/>
</g>
<!-- Node20 -->
<g id="node20" class="node"><title>Node20</title>
<g id="a_node20"><a xlink:href="../../d8/d32/qcr_8c.html#a2b2ff927916d4377498b463521638ce0" target="_top" xlink:title="set_up_qcr">
<polygon fill="white" stroke="black" points="91.5,-256.875 91.5,-275.875 160.5,-275.875 160.5,-256.875 91.5,-256.875"/>
<text text-anchor="middle" x="126" y="-263.875" font-family="Helvetica,sans-Serif" font-size="10.00">set_up_qcr</text>
</a>
</g>
</g>
<!-- Node1&#45;&gt;Node20 -->
<g id="edge32" class="edge"><title>Node1&#45;&gt;Node20</title>
<path fill="none" stroke="midnightblue" d="M22.5487,-389.662C27.6128,-367.955 42.7188,-315.088 75,-285.375 77.2835,-283.273 79.823,-281.396 82.5128,-279.722"/>
<polygon fill="midnightblue" stroke="midnightblue" points="84.2441,-282.766 91.4856,-275.032 81.0018,-276.562 84.2441,-282.766"/>
</g>
<!-- Node22 -->
<g id="node22" class="node"><title>Node22</title>
<g id="a_node22"><a xlink:href="../../d8/d32/qcr_8c.html#a0470cb39dc27723f662f2481e429e118" target="_top" xlink:title="set_up_qcr_nc">
<polygon fill="white" stroke="black" points="83,-294.875 83,-313.875 169,-313.875 169,-294.875 83,-294.875"/>
<text text-anchor="middle" x="126" y="-301.875" font-family="Helvetica,sans-Serif" font-size="10.00">set_up_qcr_nc</text>
</a>
</g>
</g>
<!-- Node1&#45;&gt;Node22 -->
<g id="edge36" class="edge"><title>Node1&#45;&gt;Node22</title>
<path fill="none" stroke="midnightblue" d="M31.2897,-389.566C49.1385,-373.34 85.0021,-340.737 106.818,-320.904"/>
<polygon fill="midnightblue" stroke="midnightblue" points="109.38,-323.306 114.425,-313.989 104.671,-318.126 109.38,-323.306"/>
</g>
<!-- Node23 -->
<g id="node23" class="node"><title>Node23</title>
<g id="a_node23"><a xlink:href="../../db/d53/rle__getrow_8c.html#a3602e1158189cba5e5b0f9b983cba776" target="_top" xlink:title="rle_getrow">
<polygon fill="white" stroke="black" points="92.5,-180.875 92.5,-199.875 159.5,-199.875 159.5,-180.875 92.5,-180.875"/>
<text text-anchor="middle" x="126" y="-187.875" font-family="Helvetica,sans-Serif" font-size="10.00">rle_getrow</text>
</a>
</g>
</g>
<!-- Node1&#45;&gt;Node23 -->
<g id="edge39" class="edge"><title>Node1&#45;&gt;Node23</title>
<path fill="none" stroke="midnightblue" d="M22.6552,-389.577C28.4333,-364.577 45.8396,-296.897 75,-247.375 83.8146,-232.406 96.8284,-217.723 107.37,-207.009"/>
<polygon fill="midnightblue" stroke="midnightblue" points="109.852,-209.476 114.513,-199.961 104.936,-204.493 109.852,-209.476"/>
</g>
<!-- Node26 -->
<g id="node26" class="node"><title>Node26</title>
<g id="a_node26"><a xlink:href="../../d8/d32/qcr_8c.html#ab203a14bb2545e56ab088e6f1ab171e8" target="_top" xlink:title="send_pixel_image">
<polygon fill="white" stroke="black" points="75,-85.8752 75,-104.875 177,-104.875 177,-85.8752 75,-85.8752"/>
<text text-anchor="middle" x="126" y="-92.8752" font-family="Helvetica,sans-Serif" font-size="10.00">send_pixel_image</text>
</a>
</g>
</g>
<!-- Node1&#45;&gt;Node26 -->
<g id="edge42" class="edge"><title>Node1&#45;&gt;Node26</title>
<path fill="none" stroke="midnightblue" d="M21.6273,-389.433C25.5698,-356.929 40.4216,-251.312 75,-171.375 84.2431,-150.008 99.4193,-128.049 110.631,-113.265"/>
<polygon fill="midnightblue" stroke="midnightblue" points="113.638,-115.099 117.012,-105.056 108.112,-110.804 113.638,-115.099"/>
</g>
<!-- Node3 -->
<g id="node3" class="node"><title>Node3</title>
<g id="a_node3"><a xlink:href="../../d4/db0/scanargs_8c.html#a862219039664df6eb3cfced58addf830" target="_top" xlink:title="_do_scanargs">
<polygon fill="white" stroke="black" points="213,-598.875 213,-617.875 297,-617.875 297,-598.875 213,-598.875"/>
<text text-anchor="middle" x="255" y="-605.875" font-family="Helvetica,sans-Serif" font-size="10.00">_do_scanargs</text>
</a>
</g>
</g>
<!-- Node2&#45;&gt;Node3 -->
<g id="edge2" class="edge"><title>Node2&#45;&gt;Node3</title>
<path fill="none" stroke="midnightblue" d="M156.136,-608.375C169.953,-608.375 186.876,-608.375 202.74,-608.375"/>
<polygon fill="midnightblue" stroke="midnightblue" points="202.968,-611.875 212.968,-608.375 202.968,-604.875 202.968,-611.875"/>
</g>
<!-- Node5 -->
<g id="node5" class="node"><title>Node5</title>
<g id="a_node5"><a xlink:href="../../d2/df3/rle__hdr_8c.html#a16c4da6201b3b8cf55127b9ca968d253" target="_top" xlink:title="rle_hdr_clear">
<polygon fill="white" stroke="black" points="466,-294.875 466,-313.875 546,-313.875 546,-294.875 466,-294.875"/>
<text text-anchor="middle" x="506" y="-301.875" font-family="Helvetica,sans-Serif" font-size="10.00">rle_hdr_clear</text>
</a>
</g>
</g>
<!-- Node4&#45;&gt;Node5 -->
<g id="edge4" class="edge"><title>Node4&#45;&gt;Node5</title>
<path fill="none" stroke="midnightblue" d="M262.851,-446.861C281.26,-421.316 330.579,-353.04 333,-351.375 369.605,-326.204 419.22,-314.484 455.757,-309.044"/>
<polygon fill="midnightblue" stroke="midnightblue" points="456.267,-312.507 465.693,-307.671 455.308,-305.573 456.267,-312.507"/>
</g>
<!-- Node7 -->
<g id="node7" class="node"><title>Node7</title>
<g id="a_node7"><a xlink:href="../../d2/df3/rle__hdr_8c.html#afc916e29aea8788e0878ca315ff69821" target="_top" xlink:title="rle_hdr_cp">
<polygon fill="white" stroke="black" points="342,-446.875 342,-465.875 410,-465.875 410,-446.875 342,-446.875"/>
<text text-anchor="middle" x="376" y="-453.875" font-family="Helvetica,sans-Serif" font-size="10.00">rle_hdr_cp</text>
</a>
</g>
</g>
<!-- Node4&#45;&gt;Node7 -->
<g id="edge6" class="edge"><title>Node4&#45;&gt;Node7</title>
<path fill="none" stroke="midnightblue" d="M290.101,-450.205C303.017,-449.578 317.899,-449.46 331.56,-449.849"/>
<polygon fill="midnightblue" stroke="midnightblue" points="331.587,-453.352 341.716,-450.245 331.86,-446.358 331.587,-453.352"/>
</g>
<!-- Node6 -->
<g id="node6" class="node"><title>Node6</title>
<g id="a_node6"><a xlink:href="../../d0/dcc/rletorla_8c.html#aafde19f7d36ca163a143579c1b125b6d" target="_top" xlink:title="free">
<polygon fill="white" stroke="black" points="608.5,-408.875 608.5,-427.875 643.5,-427.875 643.5,-408.875 608.5,-408.875"/>
<text text-anchor="middle" x="626" y="-415.875" font-family="Helvetica,sans-Serif" font-size="10.00">free</text>
</a>
</g>
</g>
<!-- Node5&#45;&gt;Node6 -->
<g id="edge5" class="edge"><title>Node5&#45;&gt;Node6</title>
<path fill="none" stroke="midnightblue" d="M540.458,-313.944C546.297,-316.468 552.071,-319.579 557,-323.375 584.05,-344.211 604.929,-378.723 616.056,-399.916"/>
<polygon fill="midnightblue" stroke="midnightblue" points="612.953,-401.536 620.594,-408.875 619.198,-398.373 612.953,-401.536"/>
</g>
<!-- Node7&#45;&gt;Node4 -->
<g id="edge7" class="edge"><title>Node7&#45;&gt;Node4</title>
<path fill="none" stroke="midnightblue" d="M341.716,-462.506C328.884,-463.153 314.019,-463.293 300.308,-462.926"/>
<polygon fill="midnightblue" stroke="midnightblue" points="300.224,-459.42 290.101,-462.546 299.964,-466.415 300.224,-459.42"/>
</g>
<!-- Node7&#45;&gt;Node8 -->
<g id="edge8" class="edge"><title>Node7&#45;&gt;Node8</title>
<path fill="none" stroke="midnightblue" d="M410.204,-465.454C423.979,-468.961 440.178,-472.753 455,-475.375 502.234,-483.732 557.538,-489.107 591.926,-491.937"/>
<polygon fill="midnightblue" stroke="midnightblue" points="592.073,-495.459 602.32,-492.766 592.63,-488.482 592.073,-495.459"/>
</g>
<!-- Node7&#45;&gt;Node9 -->
<g id="edge9" class="edge"><title>Node7&#45;&gt;Node9</title>
<path fill="none" stroke="midnightblue" d="M410.296,-456.375C426.245,-456.375 445.528,-456.375 462.521,-456.375"/>
<polygon fill="midnightblue" stroke="midnightblue" points="462.754,-459.875 472.754,-456.375 462.754,-452.875 462.754,-459.875"/>
</g>
<!-- Node9&#45;&gt;Node6 -->
<g id="edge10" class="edge"><title>Node9&#45;&gt;Node6</title>
<path fill="none" stroke="midnightblue" d="M536.776,-446.786C555.813,-440.656 580.281,-432.776 598.618,-426.871"/>
<polygon fill="midnightblue" stroke="midnightblue" points="599.914,-430.131 608.359,-423.734 597.768,-423.468 599.914,-430.131"/>
</g>
<!-- Node9&#45;&gt;Node8 -->
<g id="edge11" class="edge"><title>Node9&#45;&gt;Node8</title>
<path fill="none" stroke="midnightblue" d="M536.776,-465.964C553.784,-471.441 575.127,-478.314 592.559,-483.928"/>
<polygon fill="midnightblue" stroke="midnightblue" points="591.718,-487.334 602.31,-487.068 593.864,-480.671 591.718,-487.334"/>
</g>
<!-- Node12 -->
<g id="node12" class="node"><title>Node12</title>
<g id="a_node12"><a xlink:href="../../d8/d32/qcr_8c.html#a2a438a836aea68e6d1d03876f915fd34" target="_top" xlink:title="write_qcr_cmd">
<polygon fill="white" stroke="black" points="333,-218.875 333,-237.875 419,-237.875 419,-218.875 333,-218.875"/>
<text text-anchor="middle" x="376" y="-225.875" font-family="Helvetica,sans-Serif" font-size="10.00">write_qcr_cmd</text>
</a>
</g>
</g>
<!-- Node11&#45;&gt;Node12 -->
<g id="edge15" class="edge"><title>Node11&#45;&gt;Node12</title>
<path fill="none" stroke="midnightblue" d="M151.514,-11.3654C187.043,-1.38814 253.359,10.9188 297,-19.3752 360.376,-63.3685 372.35,-165.442 374.544,-208.571"/>
<polygon fill="midnightblue" stroke="midnightblue" points="371.049,-208.779 374.928,-218.638 378.044,-208.512 371.049,-208.779"/>
</g>
<!-- Node14 -->
<g id="node14" class="node"><title>Node14</title>
<g id="a_node14"><a xlink:href="../../de/d4e/rle__open__f_8c.html#a5a0e62a00f907fce26e93b2f72adb2b0" target="_top" xlink:title="rle_open_f_noexit">
<polygon fill="white" stroke="black" points="455,-522.875 455,-541.875 557,-541.875 557,-522.875 455,-522.875"/>
<text text-anchor="middle" x="506" y="-529.875" font-family="Helvetica,sans-Serif" font-size="10.00">rle_open_f_noexit</text>
</a>
</g>
</g>
<!-- Node13&#45;&gt;Node14 -->
<g id="edge17" class="edge"><title>Node13&#45;&gt;Node14</title>
<path fill="none" stroke="midnightblue" d="M410.296,-532.375C420.838,-532.375 432.836,-532.375 444.667,-532.375"/>
<polygon fill="midnightblue" stroke="midnightblue" points="444.979,-535.875 454.979,-532.375 444.979,-528.875 444.979,-535.875"/>
</g>
<!-- Node14&#45;&gt;Node6 -->
<g id="edge20" class="edge"><title>Node14&#45;&gt;Node6</title>
<path fill="none" stroke="midnightblue" d="M517.061,-522.656C537.177,-503.221 582.573,-459.364 607.609,-435.176"/>
<polygon fill="midnightblue" stroke="midnightblue" points="610.205,-437.536 614.965,-428.07 605.341,-432.501 610.205,-437.536"/>
</g>
<!-- Node14&#45;&gt;Node8 -->
<g id="edge19" class="edge"><title>Node14&#45;&gt;Node8</title>
<path fill="none" stroke="midnightblue" d="M536.776,-522.786C553.784,-517.309 575.127,-510.436 592.559,-504.822"/>
<polygon fill="midnightblue" stroke="midnightblue" points="593.864,-508.079 602.31,-501.682 591.718,-501.416 593.864,-508.079"/>
</g>
<!-- Node15 -->
<g id="node15" class="node"><title>Node15</title>
<g id="a_node15"><a xlink:href="../../de/d4e/rle__open__f_8c.html#a84fda810ae9b9bde82a6391d0b264ead" target="_top" xlink:title="my_popen">
<polygon fill="white" stroke="black" points="593,-522.875 593,-541.875 659,-541.875 659,-522.875 593,-522.875"/>
<text text-anchor="middle" x="626" y="-529.875" font-family="Helvetica,sans-Serif" font-size="10.00">my_popen</text>
</a>
</g>
</g>
<!-- Node14&#45;&gt;Node15 -->
<g id="edge18" class="edge"><title>Node14&#45;&gt;Node15</title>
<path fill="none" stroke="midnightblue" d="M557.043,-532.375C565.523,-532.375 574.255,-532.375 582.518,-532.375"/>
<polygon fill="midnightblue" stroke="midnightblue" points="582.678,-535.875 592.678,-532.375 582.678,-528.875 582.678,-535.875"/>
</g>
<!-- Node16&#45;&gt;Node4 -->
<g id="edge22" class="edge"><title>Node16&#45;&gt;Node4</title>
<path fill="none" stroke="midnightblue" d="M149.443,-389.906C158.258,-393.965 168.322,-399.003 177,-404.375 194.235,-415.044 196.217,-421.009 213,-432.375 217.695,-435.555 222.825,-438.758 227.818,-441.742"/>
<polygon fill="midnightblue" stroke="midnightblue" points="226.133,-444.811 236.534,-446.825 229.659,-438.764 226.133,-444.811"/>
</g>
<!-- Node16&#45;&gt;Node9 -->
<g id="edge23" class="edge"><title>Node16&#45;&gt;Node9</title>
<path fill="none" stroke="midnightblue" d="M168.93,-389.947C182.923,-393.059 198.613,-396.46 213,-399.375 304.246,-417.865 327.754,-418.886 419,-437.375 433.35,-440.283 448.998,-443.674 462.964,-446.78"/>
<polygon fill="midnightblue" stroke="midnightblue" points="462.271,-450.211 472.794,-448.98 463.8,-443.38 462.271,-450.211"/>
</g>
<!-- Node17 -->
<g id="node17" class="node"><title>Node17</title>
<g id="a_node17"><a xlink:href="../../d7/d24/rle__error_8c.html#af931d686cf3ca715c9b900527f0961c0" target="_top" xlink:title="rle_get_error">
<polygon fill="white" stroke="black" points="215.5,-370.875 215.5,-389.875 294.5,-389.875 294.5,-370.875 215.5,-370.875"/>
<text text-anchor="middle" x="255" y="-377.875" font-family="Helvetica,sans-Serif" font-size="10.00">rle_get_error</text>
</a>
</g>
</g>
<!-- Node16&#45;&gt;Node17 -->
<g id="edge24" class="edge"><title>Node16&#45;&gt;Node17</title>
<path fill="none" stroke="midnightblue" d="M175.013,-380.375C184.919,-380.375 195.359,-380.375 205.289,-380.375"/>
<polygon fill="midnightblue" stroke="midnightblue" points="205.408,-383.875 215.408,-380.375 205.408,-376.875 205.408,-383.875"/>
</g>
<!-- Node18 -->
<g id="node18" class="node"><title>Node18</title>
<g id="a_node18"><a xlink:href="../../db/d53/rle__getrow_8c.html#a619b27463c26e0a4a3d9648a9869ee52" target="_top" xlink:title="rle_get_setup">
<polygon fill="white" stroke="black" points="335.5,-360.875 335.5,-379.875 416.5,-379.875 416.5,-360.875 335.5,-360.875"/>
<text text-anchor="middle" x="376" y="-367.875" font-family="Helvetica,sans-Serif" font-size="10.00">rle_get_setup</text>
</a>
</g>
</g>
<!-- Node16&#45;&gt;Node18 -->
<g id="edge25" class="edge"><title>Node16&#45;&gt;Node18</title>
<path fill="none" stroke="midnightblue" d="M161.861,-370.867C177.387,-367.102 195.976,-363.233 213,-361.375 250.113,-357.324 259.728,-359.232 297,-361.375 306.195,-361.904 315.969,-362.78 325.376,-363.784"/>
<polygon fill="midnightblue" stroke="midnightblue" points="325.067,-367.272 335.396,-364.913 325.85,-360.316 325.067,-367.272"/>
</g>
<!-- Node18&#45;&gt;Node5 -->
<g id="edge26" class="edge"><title>Node18&#45;&gt;Node5</title>
<path fill="none" stroke="midnightblue" d="M391.227,-360.737C406.54,-350.62 431.826,-334.648 455,-323.375 459.055,-321.403 463.371,-319.495 467.703,-317.698"/>
<polygon fill="midnightblue" stroke="midnightblue" points="469.114,-320.904 477.117,-313.96 466.531,-314.398 469.114,-320.904"/>
</g>
<!-- Node18&#45;&gt;Node6 -->
<g id="edge29" class="edge"><title>Node18&#45;&gt;Node6</title>
<path fill="none" stroke="midnightblue" d="M416.717,-377.684C453.213,-384.447 508.795,-394.861 557,-404.375 570.673,-407.074 585.866,-410.191 598.418,-412.797"/>
<polygon fill="midnightblue" stroke="midnightblue" points="597.744,-416.232 608.248,-414.847 599.173,-409.38 597.744,-416.232"/>
</g>
<!-- Node18&#45;&gt;Node8 -->
<g id="edge28" class="edge"><title>Node18&#45;&gt;Node8</title>
<path fill="none" stroke="midnightblue" d="M397.302,-379.879C412.913,-387.026 435.106,-396.842 455,-404.375 499.559,-421.248 515.307,-414.312 557,-437.375 576.423,-448.119 595.525,-464.827 608.513,-477.381"/>
<polygon fill="midnightblue" stroke="midnightblue" points="606.195,-480.011 615.758,-484.571 611.125,-475.042 606.195,-480.011"/>
</g>
<!-- Node18&#45;&gt;Node9 -->
<g id="edge27" class="edge"><title>Node18&#45;&gt;Node9</title>
<path fill="none" stroke="midnightblue" d="M388.855,-379.913C409.803,-396.749 451.5,-430.183 455,-432.375 460.569,-435.864 466.723,-439.198 472.753,-442.212"/>
<polygon fill="midnightblue" stroke="midnightblue" points="471.497,-445.491 482.027,-446.662 474.525,-439.18 471.497,-445.491"/>
</g>
<!-- Node19 -->
<g id="node19" class="node"><title>Node19</title>
<g id="a_node19"><a xlink:href="../../db/d53/rle__getrow_8c.html#a0ea68aa2ebeef9d4cade7282553b03d6" target="_top" xlink:title="vax_gshort">
<polygon fill="white" stroke="black" points="471.5,-332.875 471.5,-351.875 540.5,-351.875 540.5,-332.875 471.5,-332.875"/>
<text text-anchor="middle" x="506" y="-339.875" font-family="Helvetica,sans-Serif" font-size="10.00">vax_gshort</text>
</a>
</g>
</g>
<!-- Node18&#45;&gt;Node19 -->
<g id="edge30" class="edge"><title>Node18&#45;&gt;Node19</title>
<path fill="none" stroke="midnightblue" d="M416.798,-361.669C430.853,-358.595 446.735,-355.121 461.109,-351.976"/>
<polygon fill="midnightblue" stroke="midnightblue" points="462.241,-355.312 471.262,-349.755 460.745,-348.473 462.241,-355.312"/>
</g>
<!-- Node20&#45;&gt;Node12 -->
<g id="edge35" class="edge"><title>Node20&#45;&gt;Node12</title>
<path fill="none" stroke="midnightblue" d="M160.748,-258.095C176.545,-254.431 195.661,-250.3 213,-247.375 249.535,-241.213 291.041,-236.387 322.894,-233.14"/>
<polygon fill="midnightblue" stroke="midnightblue" points="323.276,-236.62 332.878,-232.142 322.579,-229.654 323.276,-236.62"/>
</g>
<!-- Node21 -->
<g id="node21" class="node"><title>Node21</title>
<g id="a_node21"><a xlink:href="../../d8/d32/qcr_8c.html#abea42a43ce2ab8e6ae64cf47c8f278a6" target="_top" xlink:title="set_resolution">
<polygon fill="white" stroke="black" points="213.5,-256.875 213.5,-275.875 296.5,-275.875 296.5,-256.875 213.5,-256.875"/>
<text text-anchor="middle" x="255" y="-263.875" font-family="Helvetica,sans-Serif" font-size="10.00">set_resolution</text>
</a>
</g>
</g>
<!-- Node20&#45;&gt;Node21 -->
<g id="edge33" class="edge"><title>Node20&#45;&gt;Node21</title>
<path fill="none" stroke="midnightblue" d="M160.7,-266.375C173.709,-266.375 188.877,-266.375 203.154,-266.375"/>
<polygon fill="midnightblue" stroke="midnightblue" points="203.35,-269.875 213.35,-266.375 203.35,-262.875 203.35,-269.875"/>
</g>
<!-- Node21&#45;&gt;Node12 -->
<g id="edge34" class="edge"><title>Node21&#45;&gt;Node12</title>
<path fill="none" stroke="midnightblue" d="M286.029,-256.786C300.968,-252.016 319.223,-246.186 335.301,-241.052"/>
<polygon fill="midnightblue" stroke="midnightblue" points="336.519,-244.337 344.981,-237.961 334.39,-237.669 336.519,-244.337"/>
</g>
<!-- Node22&#45;&gt;Node12 -->
<g id="edge38" class="edge"><title>Node22&#45;&gt;Node12</title>
<path fill="none" stroke="midnightblue" d="M169.304,-305.608C204.599,-305.254 255.626,-301.48 297,-285.375 320.474,-276.238 343.251,-258.204 358.07,-244.856"/>
<polygon fill="midnightblue" stroke="midnightblue" points="360.495,-247.381 365.438,-238.009 355.73,-242.253 360.495,-247.381"/>
</g>
<!-- Node22&#45;&gt;Node21 -->
<g id="edge37" class="edge"><title>Node22&#45;&gt;Node21</title>
<path fill="none" stroke="midnightblue" d="M159.047,-294.786C175.141,-289.971 194.841,-284.076 212.117,-278.907"/>
<polygon fill="midnightblue" stroke="midnightblue" points="213.386,-282.181 221.963,-275.961 211.379,-275.475 213.386,-282.181"/>
</g>
<!-- Node24 -->
<g id="node24" class="node"><title>Node24</title>
<g id="a_node24"><a xlink:href="../../db/d53/rle__getrow_8c.html#a61ac0da96b0dd8bc3cbc98afcd9b5c44" target="_top" xlink:title="bfill">
<polygon fill="white" stroke="black" points="239,-142.875 239,-161.875 271,-161.875 271,-142.875 239,-142.875"/>
<text text-anchor="middle" x="255" y="-149.875" font-family="Helvetica,sans-Serif" font-size="10.00">bfill</text>
</a>
</g>
</g>
<!-- Node23&#45;&gt;Node24 -->
<g id="edge40" class="edge"><title>Node23&#45;&gt;Node24</title>
<path fill="none" stroke="midnightblue" d="M159.047,-180.786C180.823,-174.271 209.201,-165.78 229.244,-159.783"/>
<polygon fill="midnightblue" stroke="midnightblue" points="230.309,-163.117 238.886,-156.898 228.302,-156.411 230.309,-163.117"/>
</g>
<!-- Node25 -->
<g id="node25" class="node"><title>Node25</title>
<g id="a_node25"><a xlink:href="../../d8/d7c/rle__getskip_8c.html#af6b1e1dc0867e9340f90668591c7c5b3" target="_top" xlink:title="rle_getskip">
<polygon fill="white" stroke="black" points="221,-180.875 221,-199.875 289,-199.875 289,-180.875 221,-180.875"/>
<text text-anchor="middle" x="255" y="-187.875" font-family="Helvetica,sans-Serif" font-size="10.00">rle_getskip</text>
</a>
</g>
</g>
<!-- Node23&#45;&gt;Node25 -->
<g id="edge41" class="edge"><title>Node23&#45;&gt;Node25</title>
<path fill="none" stroke="midnightblue" d="M159.706,-190.375C175.286,-190.375 194.131,-190.375 210.865,-190.375"/>
<polygon fill="midnightblue" stroke="midnightblue" points="210.964,-193.875 220.964,-190.375 210.964,-186.875 210.964,-193.875"/>
</g>
<!-- Node26&#45;&gt;Node12 -->
<g id="edge43" class="edge"><title>Node26&#45;&gt;Node12</title>
<path fill="none" stroke="midnightblue" d="M177.11,-97.9617C212.801,-101.77 260.683,-111.028 297,-133.375 327.891,-152.384 352.146,-188.029 364.96,-209.84"/>
<polygon fill="midnightblue" stroke="midnightblue" points="362.05,-211.804 370.025,-218.778 368.14,-208.352 362.05,-211.804"/>
</g>
<!-- Node27 -->
<g id="node27" class="node"><title>Node27</title>
<g id="a_node27"><a xlink:href="../../d8/d32/qcr_8c.html#a3f79487ca7f975f79879b953f719e20d" target="_top" xlink:title="write_data">
<polygon fill="white" stroke="black" points="222,-66.8752 222,-85.8752 288,-85.8752 288,-66.8752 222,-66.8752"/>
<text text-anchor="middle" x="255" y="-73.8752" font-family="Helvetica,sans-Serif" font-size="10.00">write_data</text>
</a>
</g>
</g>
<!-- Node26&#45;&gt;Node27 -->
<g id="edge44" class="edge"><title>Node26&#45;&gt;Node27</title>
<path fill="none" stroke="midnightblue" d="M177.194,-87.8659C188.543,-86.1681 200.485,-84.3814 211.482,-82.7362"/>
<polygon fill="midnightblue" stroke="midnightblue" points="212.314,-86.1508 221.686,-81.2097 211.278,-79.2279 212.314,-86.1508"/>
</g>
<!-- Node28 -->
<g id="node28" class="node"><title>Node28</title>
<g id="a_node28"><a xlink:href="../../d8/d32/qcr_8c.html#ad653841390566b3e838ac4d414cf7b80" target="_top" xlink:title="qcr_wait_srq">
<polygon fill="white" stroke="black" points="216.5,-28.8752 216.5,-47.8752 293.5,-47.8752 293.5,-28.8752 216.5,-28.8752"/>
<text text-anchor="middle" x="255" y="-35.8752" font-family="Helvetica,sans-Serif" font-size="10.00">qcr_wait_srq</text>
</a>
</g>
</g>
<!-- Node26&#45;&gt;Node28 -->
<g id="edge45" class="edge"><title>Node26&#45;&gt;Node28</title>
<path fill="none" stroke="midnightblue" d="M148.257,-85.8347C168.77,-76.6281 200.047,-62.5905 223.269,-52.1678"/>
<polygon fill="midnightblue" stroke="midnightblue" points="224.984,-55.2348 232.674,-47.9469 222.117,-48.8485 224.984,-55.2348"/>
</g>
</g>
</svg>
        <g id="navigator" transform="translate(0 0)" fill="#404254">
                <rect fill="#f2f5e9" fill-opacity="0.5" stroke="#606060" stroke-width=".5" x="0" y="0" width="60" height="60"/>
                <use id="zoomplus" xlink:href="#zoomPlus" x="17" y="9" onmousedown="handleZoom(evt,'in')"/>
                <use id="zoomminus" xlink:href="#zoomMin" x="42" y="9" onmousedown="handleZoom(evt,'out')"/>
                <use id="reset" xlink:href="#resetDef" x="30" y="36" onmousedown="handleReset()"/>
                <g id="arrowUp" xlink:href="#dirArrow" transform="translate(30 24)" onmousedown="handlePan(0,-1)">
                  <use xlink:href="#rim" fill="#404040">
                        <set attributeName="fill" to="#808080" begin="arrowUp.mouseover" end="arrowUp.mouseout"/>
                  </use>
                  <path fill="none" stroke="white" stroke-width="1.5" d="M0,-3.0v7 M-2.5,-0.5L0,-3.0L2.5,-0.5"/>
                </g>
                <g id="arrowRight" xlink:href="#dirArrow" transform="rotate(90) translate(36 -43)" onmousedown="handlePan(1,0)">
                  <use xlink:href="#rim" fill="#404040">
                        <set attributeName="fill" to="#808080" begin="arrowRight.mouseover" end="arrowRight.mouseout"/>
                  </use>
                  <path fill="none" stroke="white" stroke-width="1.5" d="M0,-3.0v7 M-2.5,-0.5L0,-3.0L2.5,-0.5"/>
                </g>
                <g id="arrowDown" xlink:href="#dirArrow" transform="rotate(180) translate(-30 -48)" onmousedown="handlePan(0,1)">
                  <use xlink:href="#rim" fill="#404040">
                        <set attributeName="fill" to="#808080" begin="arrowDown.mouseover" end="arrowDown.mouseout"/>
                  </use>
                  <path fill="none" stroke="white" stroke-width="1.5" d="M0,-3.0v7 M-2.5,-0.5L0,-3.0L2.5,-0.5"/>
                </g>
                <g id="arrowLeft" xlink:href="#dirArrow" transform="rotate(270) translate(-36 17)" onmousedown="handlePan(-1,0)">
                  <use xlink:href="#rim" fill="#404040">
                        <set attributeName="fill" to="#808080" begin="arrowLeft.mouseover" end="arrowLeft.mouseout"/>
                  </use>
                  <path fill="none" stroke="white" stroke-width="1.5" d="M0,-3.0v7 M-2.5,-0.5L0,-3.0L2.5,-0.5"/>
                </g>
        </g>
        <svg viewBox="0 0 15 15" width="100%" height="30px" preserveAspectRatio="xMaxYMin meet">
         <g id="arrow_out" transform="scale(0.3 0.3)">
          <a xlink:href="getqcr_8c_a5ea466849f21e6c2be4ef9b2eb8868d3_cgraph_org.svg" target="_base">
           <rect id="button" ry="5" rx="5" y="6" x="6" height="38" width="38"
                fill="#f2f5e9" fill-opacity="0.5" stroke="#606060" stroke-width="1.0"/>
           <path id="arrow"
             d="M 11.500037,31.436501 C 11.940474,20.09759 22.043105,11.32322 32.158766,21.979434 L 37.068811,17.246167 C 37.068811,17.246167 37.088388,32 37.088388,32 L 22.160133,31.978069 C 22.160133,31.978069 26.997745,27.140456 26.997745,27.140456 C 18.528582,18.264221 13.291696,25.230495 11.500037,31.436501 z"
             style="fill:#404040;"/>
          </a>
         </g>
        </svg>
</svg>
