<?xml version="1.0" encoding="UTF-8" standalone="no"?>
<!DOCTYPE svg PUBLIC "-//W3C//DTD SVG 1.1//EN"
 "http://www.w3.org/Graphics/SVG/1.1/DTD/svg11.dtd">
<!-- Generated by graphviz version 2.38.0 (20140413.2041)
 -->
<!-- Title: main Pages: 1 -->
<svg width="547pt" height="560pt"
 viewBox="0.00 0.00 547.00 560.00" xmlns="http://www.w3.org/2000/svg" xmlns:xlink="http://www.w3.org/1999/xlink">
<g id="graph0" class="graph" transform="scale(1 1) rotate(0) translate(4 556)">
<title>main</title>
<polygon fill="white" stroke="none" points="-4,4 -4,-556 543,-556 543,4 -4,4"/>
<!-- Node1 -->
<g id="node1" class="node"><title>Node1</title>
<polygon fill="#bfbfbf" stroke="black" points="0,-266.5 0,-285.5 39,-285.5 39,-266.5 0,-266.5"/>
<text text-anchor="middle" x="19.5" y="-273.5" font-family="Helvetica,sans-Serif" font-size="10.00">main</text>
</g>
<!-- Node2 -->
<g id="node2" class="node"><title>Node2</title>
<g id="a_node2"><a xlink:href="../../d2/df3/rle__hdr_8c.html#a8ba0e5b11d1e39ab7227f1686e676c86" target="_top" xlink:title="rle_hdr_init">
<polygon fill="white" stroke="black" points="92,-456.5 92,-475.5 162,-475.5 162,-456.5 92,-456.5"/>
<text text-anchor="middle" x="127" y="-463.5" font-family="Helvetica,sans-Serif" font-size="10.00">rle_hdr_init</text>
</a>
</g>
</g>
<!-- Node1&#45;&gt;Node2 -->
<g id="edge1" class="edge"><title>Node1&#45;&gt;Node2</title>
<path fill="none" stroke="midnightblue" d="M21.0592,-285.531C23.1615,-313.148 32.8023,-394.283 75,-442 78.2331,-445.656 82.1423,-448.798 86.3413,-451.489"/>
<polygon fill="midnightblue" stroke="midnightblue" points="84.7963,-454.633 95.2437,-456.395 88.1751,-448.503 84.7963,-454.633"/>
</g>
<!-- Node5 -->
<g id="node5" class="node"><title>Node5</title>
<g id="a_node5"><a xlink:href="../../d2/df3/rle__hdr_8c.html#afc916e29aea8788e0878ca315ff69821" target="_top" xlink:title="rle_hdr_cp">
<polygon fill="white" stroke="black" points="223,-418.5 223,-437.5 291,-437.5 291,-418.5 223,-418.5"/>
<text text-anchor="middle" x="257" y="-425.5" font-family="Helvetica,sans-Serif" font-size="10.00">rle_hdr_cp</text>
</a>
</g>
</g>
<!-- Node1&#45;&gt;Node5 -->
<g id="edge26" class="edge"><title>Node1&#45;&gt;Node5</title>
<path fill="none" stroke="midnightblue" d="M21.4342,-285.648C24.3474,-309.98 35.5849,-374.034 75,-404 114.379,-433.939 173.007,-436.295 212.783,-433.572"/>
<polygon fill="midnightblue" stroke="midnightblue" points="213.288,-437.042 222.968,-432.736 212.715,-430.066 213.288,-437.042"/>
</g>
<!-- Node6 -->
<g id="node6" class="node"><title>Node6</title>
<g id="a_node6"><a xlink:href="../../d0/dcc/rletorla_8c.html#ab7e36af3707843f77cc5b4e831c2fa6d" target="_top" xlink:title="malloc">
<polygon fill="white" stroke="black" points="482.5,-380.5 482.5,-399.5 529.5,-399.5 529.5,-380.5 482.5,-380.5"/>
<text text-anchor="middle" x="506" y="-387.5" font-family="Helvetica,sans-Serif" font-size="10.00">malloc</text>
</a>
</g>
</g>
<!-- Node1&#45;&gt;Node6 -->
<g id="edge20" class="edge"><title>Node1&#45;&gt;Node6</title>
<path fill="none" stroke="midnightblue" d="M25.4016,-285.537C33.5556,-300.373 51.3741,-328.752 75,-343 204.596,-421.153 396.617,-405.387 472.475,-395.138"/>
<polygon fill="midnightblue" stroke="midnightblue" points="472.977,-398.602 482.39,-393.739 471.999,-391.671 472.977,-398.602"/>
</g>
<!-- Node7 -->
<g id="node7" class="node"><title>Node7</title>
<g id="a_node7"><a xlink:href="../../d2/df3/rle__hdr_8c.html#a82e79385f2d45cc3b80ce0f4f369eae5" target="_top" xlink:title="rle_names">
<polygon fill="white" stroke="black" points="353,-456.5 353,-475.5 419,-475.5 419,-456.5 353,-456.5"/>
<text text-anchor="middle" x="386" y="-463.5" font-family="Helvetica,sans-Serif" font-size="10.00">rle_names</text>
</a>
</g>
</g>
<!-- Node1&#45;&gt;Node7 -->
<g id="edge21" class="edge"><title>Node1&#45;&gt;Node7</title>
<path fill="none" stroke="midnightblue" d="M21.4938,-285.741C25.5705,-323.555 42.3603,-459.78 75,-485 115.7,-516.448 267.899,-490.473 342.811,-475.196"/>
<polygon fill="midnightblue" stroke="midnightblue" points="343.766,-478.572 352.849,-473.118 342.347,-471.717 343.766,-478.572"/>
</g>
<!-- Node8 -->
<g id="node8" class="node"><title>Node8</title>
<g id="a_node8"><a xlink:href="../../d4/db0/scanargs_8c.html#a7ea6d702c0484056c8504d6ce7fede08" target="_top" xlink:title="scanargs">
<polygon fill="white" stroke="black" points="97,-266.5 97,-285.5 157,-285.5 157,-266.5 97,-266.5"/>
<text text-anchor="middle" x="127" y="-273.5" font-family="Helvetica,sans-Serif" font-size="10.00">scanargs</text>
</a>
</g>
</g>
<!-- Node1&#45;&gt;Node8 -->
<g id="edge10" class="edge"><title>Node1&#45;&gt;Node8</title>
<path fill="none" stroke="midnightblue" d="M39.3613,-276C52.4884,-276 70.4711,-276 86.6519,-276"/>
<polygon fill="midnightblue" stroke="midnightblue" points="86.9558,-279.5 96.9557,-276 86.9557,-272.5 86.9558,-279.5"/>
</g>
<!-- Node10 -->
<g id="node10" class="node"><title>Node10</title>
<g id="a_node10"><a xlink:href="../../de/d4e/rle__open__f_8c.html#a89733a45961817885603ae01210290b7" target="_top" xlink:title="rle_open_f">
<polygon fill="white" stroke="black" points="223,-532.5 223,-551.5 291,-551.5 291,-532.5 223,-532.5"/>
<text text-anchor="middle" x="257" y="-539.5" font-family="Helvetica,sans-Serif" font-size="10.00">rle_open_f</text>
</a>
</g>
</g>
<!-- Node1&#45;&gt;Node10 -->
<g id="edge12" class="edge"><title>Node1&#45;&gt;Node10</title>
<path fill="none" stroke="midnightblue" d="M21.2389,-285.687C24.5753,-326.732 39.6372,-485.674 75,-518 111.912,-551.742 172.071,-553.01 212.805,-549.015"/>
<polygon fill="midnightblue" stroke="midnightblue" points="213.427,-552.467 222.973,-547.87 212.644,-545.511 213.427,-552.467"/>
</g>
<!-- Node13 -->
<g id="node13" class="node"><title>Node13</title>
<g id="a_node13"><a xlink:href="../../d8/d30/cmd__name_8c.html#a271249070fdd12c176777c77d76f888f" target="_top" xlink:title="cmd_name">
<polygon fill="white" stroke="black" points="93,-228.5 93,-247.5 161,-247.5 161,-228.5 93,-228.5"/>
<text text-anchor="middle" x="127" y="-235.5" font-family="Helvetica,sans-Serif" font-size="10.00">cmd_name</text>
</a>
</g>
</g>
<!-- Node1&#45;&gt;Node13 -->
<g id="edge17" class="edge"><title>Node1&#45;&gt;Node13</title>
<path fill="none" stroke="midnightblue" d="M39.3613,-269.206C53.3329,-264.174 72.8051,-257.16 89.7509,-251.057"/>
<polygon fill="midnightblue" stroke="midnightblue" points="91.1535,-254.272 99.3758,-247.59 88.7814,-247.686 91.1535,-254.272"/>
</g>
<!-- Node14 -->
<g id="node14" class="node"><title>Node14</title>
<g id="a_node14"><a xlink:href="../../df/d69/pyrlib_8c.html#aeb33951a1d9fd87fef7e85aad2f34d7a" target="_top" xlink:title="gauss_mask">
<polygon fill="white" stroke="black" points="219.5,-342.5 219.5,-361.5 294.5,-361.5 294.5,-342.5 219.5,-342.5"/>
<text text-anchor="middle" x="257" y="-349.5" font-family="Helvetica,sans-Serif" font-size="10.00">gauss_mask</text>
</a>
</g>
</g>
<!-- Node1&#45;&gt;Node14 -->
<g id="edge18" class="edge"><title>Node1&#45;&gt;Node14</title>
<path fill="none" stroke="midnightblue" d="M30.8839,-285.812C41.2457,-295.042 58.0281,-308.528 75,-316 118.153,-334.999 171.506,-344.051 209.071,-348.314"/>
<polygon fill="midnightblue" stroke="midnightblue" points="208.913,-351.817 219.227,-349.394 209.653,-344.856 208.913,-351.817"/>
</g>
<!-- Node15 -->
<g id="node15" class="node"><title>Node15</title>
<g id="a_node15"><a xlink:href="../../d8/de1/pyrmask_8c.html#afe6e88a46cac5c423aa3034b1aaa38da" target="_top" xlink:title="rle_to_pyramids">
<polygon fill="white" stroke="black" points="81,-190.5 81,-209.5 173,-209.5 173,-190.5 81,-190.5"/>
<text text-anchor="middle" x="127" y="-197.5" font-family="Helvetica,sans-Serif" font-size="10.00">rle_to_pyramids</text>
</a>
</g>
</g>
<!-- Node1&#45;&gt;Node15 -->
<g id="edge22" class="edge"><title>Node1&#45;&gt;Node15</title>
<path fill="none" stroke="midnightblue" d="M27.5683,-266.234C37.0752,-253.725 55.102,-232.1 75,-219 77.9299,-217.071 81.0826,-215.302 84.3318,-213.687"/>
<polygon fill="midnightblue" stroke="midnightblue" points="85.9304,-216.807 93.6396,-209.539 83.0809,-210.413 85.9304,-216.807"/>
</g>
<!-- Node16 -->
<g id="node16" class="node"><title>Node16</title>
<g id="a_node16"><a xlink:href="../../d8/de1/pyrmask_8c.html#abf69cef4a5fdee01efc1820cda6f876d" target="_top" xlink:title="alloc_pyramid">
<polygon fill="white" stroke="black" points="86,-152.5 86,-171.5 168,-171.5 168,-152.5 86,-152.5"/>
<text text-anchor="middle" x="127" y="-159.5" font-family="Helvetica,sans-Serif" font-size="10.00">alloc_pyramid</text>
</a>
</g>
</g>
<!-- Node1&#45;&gt;Node16 -->
<g id="edge23" class="edge"><title>Node1&#45;&gt;Node16</title>
<path fill="none" stroke="midnightblue" d="M23.4914,-266.473C29.901,-247.548 46.7198,-204.979 75,-181 76.9863,-179.316 79.1362,-177.774 81.3912,-176.363"/>
<polygon fill="midnightblue" stroke="midnightblue" points="83.2856,-179.321 90.4874,-171.55 80.0116,-173.134 83.2856,-179.321"/>
</g>
<!-- Node17 -->
<g id="node17" class="node"><title>Node17</title>
<g id="a_node17"><a xlink:href="../../d8/de1/pyrmask_8c.html#a5f97f19047458d0db10e22b301b5a691" target="_top" xlink:title="copy_mask_bands">
<polygon fill="white" stroke="black" points="75,-114.5 75,-133.5 179,-133.5 179,-114.5 75,-114.5"/>
<text text-anchor="middle" x="127" y="-121.5" font-family="Helvetica,sans-Serif" font-size="10.00">copy_mask_bands</text>
</a>
</g>
</g>
<!-- Node1&#45;&gt;Node17 -->
<g id="edge24" class="edge"><title>Node1&#45;&gt;Node17</title>
<path fill="none" stroke="midnightblue" d="M21.8056,-266.15C25.5346,-241.842 38.428,-178.41 75,-143 76.627,-141.425 78.3965,-139.978 80.2674,-138.649"/>
<polygon fill="midnightblue" stroke="midnightblue" points="82.1261,-141.617 88.9932,-133.549 78.5936,-135.573 82.1261,-141.617"/>
</g>
<!-- Node18 -->
<g id="node18" class="node"><title>Node18</title>
<g id="a_node18"><a xlink:href="../../d8/de1/pyrmask_8c.html#ae55f2e907f4487a1a52e496f61cd5fb0" target="_top" xlink:title="rebuild_image">
<polygon fill="white" stroke="black" points="86,-76.5 86,-95.5 168,-95.5 168,-76.5 86,-76.5"/>
<text text-anchor="middle" x="127" y="-83.5" font-family="Helvetica,sans-Serif" font-size="10.00">rebuild_image</text>
</a>
</g>
</g>
<!-- Node1&#45;&gt;Node18 -->
<g id="edge25" class="edge"><title>Node1&#45;&gt;Node18</title>
<path fill="none" stroke="midnightblue" d="M20.7554,-266.418C22.0301,-237.898 29.6422,-152.593 75,-105 76.3934,-103.538 77.9096,-102.188 79.5185,-100.941"/>
<polygon fill="midnightblue" stroke="midnightblue" points="81.5642,-103.79 88.1949,-95.526 77.8582,-97.851 81.5642,-103.79"/>
</g>
<!-- Node19 -->
<g id="node19" class="node"><title>Node19</title>
<g id="a_node19"><a xlink:href="../../d8/def/rle__addhist_8c.html#a4f9433d6e4e203d0ecea1c7d3837afc3" target="_top" xlink:title="rle_addhist">
<polygon fill="white" stroke="black" points="222.5,-304.5 222.5,-323.5 291.5,-323.5 291.5,-304.5 222.5,-304.5"/>
<text text-anchor="middle" x="257" y="-311.5" font-family="Helvetica,sans-Serif" font-size="10.00">rle_addhist</text>
</a>
</g>
</g>
<!-- Node1&#45;&gt;Node19 -->
<g id="edge27" class="edge"><title>Node1&#45;&gt;Node19</title>
<path fill="none" stroke="midnightblue" d="M39.3554,-283.782C49.7087,-287.746 62.8743,-292.288 75,-295 121.025,-305.293 174.913,-310.042 211.848,-312.213"/>
<polygon fill="midnightblue" stroke="midnightblue" points="212.089,-315.732 222.266,-312.784 212.472,-308.742 212.089,-315.732"/>
</g>
<!-- Node24 -->
<g id="node24" class="node"><title>Node24</title>
<g id="a_node24"><a xlink:href="../../d8/de1/pyrmask_8c.html#a5458775d73ccfaef0545791feec845fa" target="_top" xlink:title="dump_pyramid">
<polygon fill="white" stroke="black" points="84,-38.5 84,-57.5 170,-57.5 170,-38.5 84,-38.5"/>
<text text-anchor="middle" x="127" y="-45.5" font-family="Helvetica,sans-Serif" font-size="10.00">dump_pyramid</text>
</a>
</g>
</g>
<!-- Node1&#45;&gt;Node24 -->
<g id="edge34" class="edge"><title>Node1&#45;&gt;Node24</title>
<path fill="none" stroke="midnightblue" d="M20.0875,-266.238C19.249,-233.579 20.9588,-126.827 75,-67 76.1974,-65.6744 77.4962,-64.4409 78.8747,-63.2932"/>
<polygon fill="midnightblue" stroke="midnightblue" points="81.069,-66.0389 87.493,-57.6138 77.2171,-60.1939 81.069,-66.0389"/>
</g>
<!-- Node25 -->
<g id="node25" class="node"><title>Node25</title>
<g id="a_node25"><a xlink:href="../../d7/d24/rle__error_8c.html#af931d686cf3ca715c9b900527f0961c0" target="_top" xlink:title="rle_get_error">
<polygon fill="white" stroke="black" points="87.5,-0.5 87.5,-19.5 166.5,-19.5 166.5,-0.5 87.5,-0.5"/>
<text text-anchor="middle" x="127" y="-7.5" font-family="Helvetica,sans-Serif" font-size="10.00">rle_get_error</text>
</a>
</g>
</g>
<!-- Node1&#45;&gt;Node25 -->
<g id="edge35" class="edge"><title>Node1&#45;&gt;Node25</title>
<path fill="none" stroke="midnightblue" d="M21.4088,-266.312C25.4412,-225.234 42.9459,-65.8675 75,-29 76.1721,-27.6519 77.4492,-26.3993 78.8095,-25.2354"/>
<polygon fill="midnightblue" stroke="midnightblue" points="81.008,-27.975 87.3566,-19.4929 77.1042,-22.1646 81.008,-27.975"/>
</g>
<!-- Node3 -->
<g id="node3" class="node"><title>Node3</title>
<g id="a_node3"><a xlink:href="../../d2/df3/rle__hdr_8c.html#a16c4da6201b3b8cf55127b9ca968d253" target="_top" xlink:title="rle_hdr_clear">
<polygon fill="white" stroke="black" points="346,-494.5 346,-513.5 426,-513.5 426,-494.5 346,-494.5"/>
<text text-anchor="middle" x="386" y="-501.5" font-family="Helvetica,sans-Serif" font-size="10.00">rle_hdr_clear</text>
</a>
</g>
</g>
<!-- Node2&#45;&gt;Node3 -->
<g id="edge2" class="edge"><title>Node2&#45;&gt;Node3</title>
<path fill="none" stroke="midnightblue" d="M162.128,-471.046C206.581,-477.619 284.617,-489.157 335.553,-496.689"/>
<polygon fill="midnightblue" stroke="midnightblue" points="335.27,-500.185 345.674,-498.185 336.294,-493.26 335.27,-500.185"/>
</g>
<!-- Node2&#45;&gt;Node5 -->
<g id="edge4" class="edge"><title>Node2&#45;&gt;Node5</title>
<path fill="none" stroke="midnightblue" d="M144.472,-456.408C161.723,-449.368 189.53,-440.542 213.062,-434.333"/>
<polygon fill="midnightblue" stroke="midnightblue" points="214.013,-437.703 222.842,-431.845 212.287,-430.919 214.013,-437.703"/>
</g>
<!-- Node4 -->
<g id="node4" class="node"><title>Node4</title>
<g id="a_node4"><a xlink:href="../../d0/dcc/rletorla_8c.html#aafde19f7d36ca163a143579c1b125b6d" target="_top" xlink:title="free">
<polygon fill="white" stroke="black" points="488.5,-494.5 488.5,-513.5 523.5,-513.5 523.5,-494.5 488.5,-494.5"/>
<text text-anchor="middle" x="506" y="-501.5" font-family="Helvetica,sans-Serif" font-size="10.00">free</text>
</a>
</g>
</g>
<!-- Node3&#45;&gt;Node4 -->
<g id="edge3" class="edge"><title>Node3&#45;&gt;Node4</title>
<path fill="none" stroke="midnightblue" d="M426.292,-504C443.232,-504 462.621,-504 477.916,-504"/>
<polygon fill="midnightblue" stroke="midnightblue" points="478.236,-507.5 488.236,-504 478.236,-500.5 478.236,-507.5"/>
</g>
<!-- Node5&#45;&gt;Node2 -->
<g id="edge5" class="edge"><title>Node5&#45;&gt;Node2</title>
<path fill="none" stroke="midnightblue" d="M239.563,-437.578C222.575,-444.513 195.326,-453.186 172.012,-459.383"/>
<polygon fill="midnightblue" stroke="midnightblue" points="171.118,-455.998 162.302,-461.874 172.858,-462.779 171.118,-455.998"/>
</g>
<!-- Node5&#45;&gt;Node6 -->
<g id="edge6" class="edge"><title>Node5&#45;&gt;Node6</title>
<path fill="none" stroke="midnightblue" d="M291.096,-424.264C327.101,-420.036 386.304,-412.607 437,-404 448.645,-402.023 461.34,-399.508 472.574,-397.157"/>
<polygon fill="midnightblue" stroke="midnightblue" points="473.356,-400.569 482.408,-395.063 471.898,-393.722 473.356,-400.569"/>
</g>
<!-- Node5&#45;&gt;Node7 -->
<g id="edge7" class="edge"><title>Node5&#45;&gt;Node7</title>
<path fill="none" stroke="midnightblue" d="M290.047,-437.589C306.141,-442.404 325.841,-448.299 343.117,-453.468"/>
<polygon fill="midnightblue" stroke="midnightblue" points="342.379,-456.901 352.963,-456.414 344.386,-450.194 342.379,-456.901"/>
</g>
<!-- Node7&#45;&gt;Node4 -->
<g id="edge8" class="edge"><title>Node7&#45;&gt;Node4</title>
<path fill="none" stroke="midnightblue" d="M416.776,-475.589C435.813,-481.72 460.281,-489.599 478.618,-495.504"/>
<polygon fill="midnightblue" stroke="midnightblue" points="477.768,-498.907 488.359,-498.641 479.914,-492.244 477.768,-498.907"/>
</g>
<!-- Node7&#45;&gt;Node6 -->
<g id="edge9" class="edge"><title>Node7&#45;&gt;Node6</title>
<path fill="none" stroke="midnightblue" d="M409.421,-456.433C418.232,-452.368 428.3,-447.336 437,-442 454.459,-431.291 472.827,-417.043 486.066,-406.169"/>
<polygon fill="midnightblue" stroke="midnightblue" points="488.526,-408.675 493.963,-399.582 484.042,-403.299 488.526,-408.675"/>
</g>
<!-- Node9 -->
<g id="node9" class="node"><title>Node9</title>
<g id="a_node9"><a xlink:href="../../d4/db0/scanargs_8c.html#a862219039664df6eb3cfced58addf830" target="_top" xlink:title="_do_scanargs">
<polygon fill="white" stroke="black" points="215,-266.5 215,-285.5 299,-285.5 299,-266.5 215,-266.5"/>
<text text-anchor="middle" x="257" y="-273.5" font-family="Helvetica,sans-Serif" font-size="10.00">_do_scanargs</text>
</a>
</g>
</g>
<!-- Node8&#45;&gt;Node9 -->
<g id="edge11" class="edge"><title>Node8&#45;&gt;Node9</title>
<path fill="none" stroke="midnightblue" d="M157.045,-276C171.083,-276 188.357,-276 204.521,-276"/>
<polygon fill="midnightblue" stroke="midnightblue" points="204.939,-279.5 214.939,-276 204.939,-272.5 204.939,-279.5"/>
</g>
<!-- Node11 -->
<g id="node11" class="node"><title>Node11</title>
<g id="a_node11"><a xlink:href="../../de/d4e/rle__open__f_8c.html#a5a0e62a00f907fce26e93b2f72adb2b0" target="_top" xlink:title="rle_open_f_noexit">
<polygon fill="white" stroke="black" points="335,-532.5 335,-551.5 437,-551.5 437,-532.5 335,-532.5"/>
<text text-anchor="middle" x="386" y="-539.5" font-family="Helvetica,sans-Serif" font-size="10.00">rle_open_f_noexit</text>
</a>
</g>
</g>
<!-- Node10&#45;&gt;Node11 -->
<g id="edge13" class="edge"><title>Node10&#45;&gt;Node11</title>
<path fill="none" stroke="midnightblue" d="M291.036,-542C301.382,-542 313.141,-542 324.755,-542"/>
<polygon fill="midnightblue" stroke="midnightblue" points="324.885,-545.5 334.885,-542 324.885,-538.5 324.885,-545.5"/>
</g>
<!-- Node11&#45;&gt;Node4 -->
<g id="edge16" class="edge"><title>Node11&#45;&gt;Node4</title>
<path fill="none" stroke="midnightblue" d="M416.776,-532.411C435.813,-526.28 460.281,-518.401 478.618,-512.496"/>
<polygon fill="midnightblue" stroke="midnightblue" points="479.914,-515.756 488.359,-509.359 477.768,-509.093 479.914,-515.756"/>
</g>
<!-- Node11&#45;&gt;Node6 -->
<g id="edge15" class="edge"><title>Node11&#45;&gt;Node6</title>
<path fill="none" stroke="midnightblue" d="M422.235,-532.423C427.569,-529.938 432.712,-526.842 437,-523 471.953,-491.679 491.47,-438.173 499.908,-409.503"/>
<polygon fill="midnightblue" stroke="midnightblue" points="503.381,-410.081 502.693,-399.508 496.637,-408.202 503.381,-410.081"/>
</g>
<!-- Node12 -->
<g id="node12" class="node"><title>Node12</title>
<g id="a_node12"><a xlink:href="../../de/d4e/rle__open__f_8c.html#a84fda810ae9b9bde82a6391d0b264ead" target="_top" xlink:title="my_popen">
<polygon fill="white" stroke="black" points="473,-532.5 473,-551.5 539,-551.5 539,-532.5 473,-532.5"/>
<text text-anchor="middle" x="506" y="-539.5" font-family="Helvetica,sans-Serif" font-size="10.00">my_popen</text>
</a>
</g>
</g>
<!-- Node11&#45;&gt;Node12 -->
<g id="edge14" class="edge"><title>Node11&#45;&gt;Node12</title>
<path fill="none" stroke="midnightblue" d="M437.043,-542C445.523,-542 454.255,-542 462.518,-542"/>
<polygon fill="midnightblue" stroke="midnightblue" points="462.678,-545.5 472.678,-542 462.678,-538.5 462.678,-545.5"/>
</g>
<!-- Node14&#45;&gt;Node6 -->
<g id="edge19" class="edge"><title>Node14&#45;&gt;Node6</title>
<path fill="none" stroke="midnightblue" d="M294.795,-356.172C331.062,-360.464 388.004,-367.682 437,-376 448.645,-377.977 461.34,-380.492 472.574,-382.843"/>
<polygon fill="midnightblue" stroke="midnightblue" points="471.898,-386.278 482.408,-384.937 473.356,-379.431 471.898,-386.278"/>
</g>
<!-- Node19&#45;&gt;Node6 -->
<g id="edge30" class="edge"><title>Node19&#45;&gt;Node6</title>
<path fill="none" stroke="midnightblue" d="M291.618,-319.824C328.069,-326.655 387.652,-339.333 437,-357 451.275,-362.111 466.517,-369.331 478.945,-375.715"/>
<polygon fill="midnightblue" stroke="midnightblue" points="477.357,-378.834 487.837,-380.385 480.611,-372.637 477.357,-378.834"/>
</g>
<!-- Node20 -->
<g id="node20" class="node"><title>Node20</title>
<g id="a_node20"><a xlink:href="../../db/db2/rle__getcom_8c.html#a9cefd612c381bf82c9cdf1f3a3b12dd6" target="_top" xlink:title="rle_getcom">
<polygon fill="white" stroke="black" points="351.5,-228.5 351.5,-247.5 420.5,-247.5 420.5,-228.5 351.5,-228.5"/>
<text text-anchor="middle" x="386" y="-235.5" font-family="Helvetica,sans-Serif" font-size="10.00">rle_getcom</text>
</a>
</g>
</g>
<!-- Node19&#45;&gt;Node20 -->
<g id="edge28" class="edge"><title>Node19&#45;&gt;Node20</title>
<path fill="none" stroke="midnightblue" d="M282.694,-304.397C288.284,-301.73 294.031,-298.571 299,-295 317.891,-281.422 315.64,-269.901 335,-257 337.869,-255.088 340.957,-253.331 344.141,-251.725"/>
<polygon fill="midnightblue" stroke="midnightblue" points="345.6,-254.906 353.264,-247.591 342.71,-248.531 345.6,-254.906"/>
</g>
<!-- Node22 -->
<g id="node22" class="node"><title>Node22</title>
<g id="a_node22"><a xlink:href="../../df/da5/rle__putcom_8c.html#a6fa8528c32d14763efe2a534e409e321" target="_top" xlink:title="rle_putcom">
<polygon fill="white" stroke="black" points="352,-266.5 352,-285.5 420,-285.5 420,-266.5 352,-266.5"/>
<text text-anchor="middle" x="386" y="-273.5" font-family="Helvetica,sans-Serif" font-size="10.00">rle_putcom</text>
</a>
</g>
</g>
<!-- Node19&#45;&gt;Node22 -->
<g id="edge31" class="edge"><title>Node19&#45;&gt;Node22</title>
<path fill="none" stroke="midnightblue" d="M290.047,-304.411C306.141,-299.596 325.841,-293.701 343.117,-288.532"/>
<polygon fill="midnightblue" stroke="midnightblue" points="344.386,-291.806 352.963,-285.586 342.379,-285.099 344.386,-291.806"/>
</g>
<!-- Node21 -->
<g id="node21" class="node"><title>Node21</title>
<g id="a_node21"><a xlink:href="../../db/db2/rle__getcom_8c.html#a7502c8b599724ce86fee5df1311a2337" target="_top" xlink:title="match">
<polygon fill="white" stroke="black" points="483.5,-228.5 483.5,-247.5 528.5,-247.5 528.5,-228.5 483.5,-228.5"/>
<text text-anchor="middle" x="506" y="-235.5" font-family="Helvetica,sans-Serif" font-size="10.00">match</text>
</a>
</g>
</g>
<!-- Node20&#45;&gt;Node21 -->
<g id="edge29" class="edge"><title>Node20&#45;&gt;Node21</title>
<path fill="none" stroke="midnightblue" d="M420.814,-238C437.35,-238 457.136,-238 473.37,-238"/>
<polygon fill="midnightblue" stroke="midnightblue" points="473.456,-241.5 483.456,-238 473.456,-234.5 473.456,-241.5"/>
</g>
<!-- Node22&#45;&gt;Node6 -->
<g id="edge32" class="edge"><title>Node22&#45;&gt;Node6</title>
<path fill="none" stroke="midnightblue" d="M412.795,-285.548C421.025,-289.309 429.845,-294.147 437,-300 462.011,-320.459 483.03,-351.933 494.812,-371.724"/>
<polygon fill="midnightblue" stroke="midnightblue" points="491.795,-373.498 499.832,-380.401 497.854,-369.993 491.795,-373.498"/>
</g>
<!-- Node23 -->
<g id="node23" class="node"><title>Node23</title>
<g id="a_node23"><a xlink:href="../../df/da5/rle__putcom_8c.html#a7502c8b599724ce86fee5df1311a2337" target="_top" xlink:title="match">
<polygon fill="white" stroke="black" points="483.5,-266.5 483.5,-285.5 528.5,-285.5 528.5,-266.5 483.5,-266.5"/>
<text text-anchor="middle" x="506" y="-273.5" font-family="Helvetica,sans-Serif" font-size="10.00">match</text>
</a>
</g>
</g>
<!-- Node22&#45;&gt;Node23 -->
<g id="edge33" class="edge"><title>Node22&#45;&gt;Node23</title>
<path fill="none" stroke="midnightblue" d="M420.184,-276C436.735,-276 456.664,-276 473.044,-276"/>
<polygon fill="midnightblue" stroke="midnightblue" points="473.224,-279.5 483.224,-276 473.224,-272.5 473.224,-279.5"/>
</g>
</g>
</svg>
