<?xml version="1.0" encoding="UTF-8" standalone="no"?>
<!DOCTYPE svg PUBLIC "-//W3C//DTD SVG 1.1//EN"
 "http://www.w3.org/Graphics/SVG/1.1/DTD/svg11.dtd">
<!-- Generated by graphviz version 2.38.0 (20140413.2041)
 -->
<!-- Title: _color_box Pages: 1 -->
<svg width="261pt" height="310pt"
 viewBox="0.00 0.00 261.22 310.00" xmlns="http://www.w3.org/2000/svg" xmlns:xlink="http://www.w3.org/1999/xlink">
<g id="graph0" class="graph" transform="scale(1 1) rotate(0) translate(4 306)">
<title>_color_box</title>
<polygon fill="white" stroke="none" points="-4,4 -4,-306 257.215,-306 257.215,4 -4,4"/>
<!-- Node1 -->
<g id="node1" class="node"><title>Node1</title>
<polygon fill="#bfbfbf" stroke="black" points="68.215,-68.5 68.215,-87.5 136.215,-87.5 136.215,-68.5 68.215,-68.5"/>
<text text-anchor="middle" x="102.215" y="-75.5" font-family="Helvetica,sans-Serif" font-size="10.00">_color_box</text>
</g>
<!-- Node1&#45;&gt;Node1 -->
<g id="edge9" class="edge"><title>Node1&#45;&gt;Node1</title>
<path fill="none" stroke="#9a32cd" stroke-dasharray="5,2" d="M146.363,-83.333C151.14,-82.3094 154.215,-80.5317 154.215,-78 154.215,-73.9492 146.342,-71.8289 136.223,-71.639"/>
<polygon fill="#9a32cd" stroke="#9a32cd" points="145.819,-79.87 136.223,-84.361 146.526,-86.8343 145.819,-79.87"/>
<text text-anchor="middle" x="166.715" y="-81" font-family="Helvetica,sans-Serif" font-size="10.00"> prev</text>
<text text-anchor="middle" x="166.715" y="-70" font-family="Helvetica,sans-Serif" font-size="10.00">next</text>
</g>
<!-- Node5 -->
<g id="node5" class="node"><title>Node5</title>
<g id="a_node5"><a xlink:href="../../d4/d72/struct__histogram.html" target="_top" xlink:title="_histogram">
<polygon fill="white" stroke="black" points="136.715,-0.5 136.715,-19.5 205.715,-19.5 205.715,-0.5 136.715,-0.5"/>
<text text-anchor="middle" x="171.215" y="-7.5" font-family="Helvetica,sans-Serif" font-size="10.00">_histogram</text>
</a>
</g>
</g>
<!-- Node1&#45;&gt;Node5 -->
<g id="edge7" class="edge"><title>Node1&#45;&gt;Node5</title>
<path fill="none" stroke="#9a32cd" stroke-dasharray="5,2" d="M96.076,-58.4177C94.9285,-51.4746 95.1536,-43.8606 99.215,-38 107.732,-25.7106 122.577,-19.0064 136.584,-15.3527"/>
<polygon fill="#9a32cd" stroke="#9a32cd" points="92.7706,-59.6172 98.6549,-68.4277 99.5493,-57.8707 92.7706,-59.6172"/>
<text text-anchor="middle" x="122.215" y="-41" font-family="Helvetica,sans-Serif" font-size="10.00"> color_ptr</text>
</g>
<!-- Node2 -->
<g id="node2" class="node"><title>Node2</title>
<g id="a_node2"><a xlink:href="../../dd/d65/struct__bounds.html" target="_top" xlink:title="_bounds">
<polygon fill="white" stroke="black" points="63.215,-176 63.215,-195 119.215,-195 119.215,-176 63.215,-176"/>
<text text-anchor="middle" x="91.215" y="-183" font-family="Helvetica,sans-Serif" font-size="10.00">_bounds</text>
</a>
</g>
</g>
<!-- Node2&#45;&gt;Node1 -->
<g id="edge1" class="edge"><title>Node2&#45;&gt;Node1</title>
<path fill="none" stroke="#9a32cd" stroke-dasharray="5,2" d="M93.1788,-165.666C95.5755,-142.679 99.5276,-104.775 101.302,-87.7528"/>
<polygon fill="#9a32cd" stroke="#9a32cd" points="89.6712,-165.557 92.1152,-175.866 96.6334,-166.283 89.6712,-165.557"/>
<text text-anchor="middle" x="105.215" y="-132" font-family="Helvetica,sans-Serif" font-size="10.00"> g</text>
<text text-anchor="middle" x="105.215" y="-121" font-family="Helvetica,sans-Serif" font-size="10.00">r</text>
<text text-anchor="middle" x="105.215" y="-110" font-family="Helvetica,sans-Serif" font-size="10.00">b</text>
</g>
<!-- Node3 -->
<g id="node3" class="node"><title>Node3</title>
<polygon fill="white" stroke="#bfbfbf" points="107.715,-282.5 107.715,-301.5 136.715,-301.5 136.715,-282.5 107.715,-282.5"/>
<text text-anchor="middle" x="122.215" y="-289.5" font-family="Helvetica,sans-Serif" font-size="10.00">int</text>
</g>
<!-- Node3&#45;&gt;Node1 -->
<g id="edge8" class="edge"><title>Node3&#45;&gt;Node1</title>
<path fill="none" stroke="#9a32cd" stroke-dasharray="5,2" d="M97.9606,-282.414C70.4783,-271.218 27.0642,-248.736 8.21501,-213 -3.18926,-191.379 -2.10704,-180.158 8.21501,-158 23.9679,-124.184 62.1098,-99.6838 84.6695,-87.5655"/>
<polygon fill="#9a32cd" stroke="#9a32cd" points="97.0398,-285.81 107.629,-286.156 99.5666,-279.282 97.0398,-285.81"/>
<text text-anchor="middle" x="31.215" y="-205" font-family="Helvetica,sans-Serif" font-size="10.00"> size</text>
<text text-anchor="middle" x="31.215" y="-194" font-family="Helvetica,sans-Serif" font-size="10.00">hsize</text>
<text text-anchor="middle" x="31.215" y="-183" font-family="Helvetica,sans-Serif" font-size="10.00">nsamples</text>
<text text-anchor="middle" x="31.215" y="-172" font-family="Helvetica,sans-Serif" font-size="10.00">cindex</text>
<text text-anchor="middle" x="31.215" y="-161" font-family="Helvetica,sans-Serif" font-size="10.00">axis</text>
</g>
<!-- Node3&#45;&gt;Node2 -->
<g id="edge2" class="edge"><title>Node3&#45;&gt;Node2</title>
<path fill="none" stroke="#9a32cd" stroke-dasharray="5,2" d="M110.036,-273.796C108.202,-270.645 106.498,-267.305 105.215,-264 96.0112,-240.293 92.7911,-210.123 91.7184,-195.397"/>
<polygon fill="#9a32cd" stroke="#9a32cd" points="107.269,-275.962 115.64,-282.457 113.147,-272.16 107.269,-275.962"/>
<text text-anchor="middle" x="115.215" y="-250.5" font-family="Helvetica,sans-Serif" font-size="10.00"> min</text>
<text text-anchor="middle" x="115.215" y="-239.5" font-family="Helvetica,sans-Serif" font-size="10.00">max</text>
</g>
<!-- Node4 -->
<g id="node4" class="node"><title>Node4</title>
<g id="a_node4"><a xlink:href="../../d4/d47/struct__color.html" target="_top" xlink:title="_color">
<polygon fill="white" stroke="black" points="137.215,-176 137.215,-195 183.215,-195 183.215,-176 137.215,-176"/>
<text text-anchor="middle" x="160.215" y="-183" font-family="Helvetica,sans-Serif" font-size="10.00">_color</text>
</a>
</g>
</g>
<!-- Node3&#45;&gt;Node4 -->
<g id="edge4" class="edge"><title>Node3&#45;&gt;Node4</title>
<path fill="none" stroke="#9a32cd" stroke-dasharray="5,2" d="M128.773,-272.964C137.028,-250.263 150.875,-212.184 157.062,-195.17"/>
<polygon fill="#9a32cd" stroke="#9a32cd" points="125.453,-271.854 125.325,-282.448 132.031,-274.247 125.453,-271.854"/>
<text text-anchor="middle" x="149.215" y="-256" font-family="Helvetica,sans-Serif" font-size="10.00"> g</text>
<text text-anchor="middle" x="149.215" y="-245" font-family="Helvetica,sans-Serif" font-size="10.00">r</text>
<text text-anchor="middle" x="149.215" y="-234" font-family="Helvetica,sans-Serif" font-size="10.00">b</text>
</g>
<!-- Node3&#45;&gt;Node5 -->
<g id="edge6" class="edge"><title>Node3&#45;&gt;Node5</title>
<path fill="none" stroke="#9a32cd" stroke-dasharray="5,2" d="M143.881,-276.62C148.866,-272.819 153.95,-268.508 158.215,-264 176.936,-244.21 184.321,-239.073 192.215,-213 197.234,-196.424 190.12,-82.2898 188.215,-67 186.587,-53.9392 186.047,-50.5916 182.215,-38 180.329,-31.8019 177.579,-25.0519 175.3,-19.8514"/>
<polygon fill="#9a32cd" stroke="#9a32cd" points="141.815,-273.794 135.748,-282.481 145.908,-279.473 141.815,-273.794"/>
<text text-anchor="middle" x="222.715" y="-132" font-family="Helvetica,sans-Serif" font-size="10.00"> cmap_index</text>
<text text-anchor="middle" x="222.715" y="-121" font-family="Helvetica,sans-Serif" font-size="10.00">nsamples</text>
<text text-anchor="middle" x="222.715" y="-110" font-family="Helvetica,sans-Serif" font-size="10.00">color</text>
</g>
<!-- Node4&#45;&gt;Node1 -->
<g id="edge3" class="edge"><title>Node4&#45;&gt;Node1</title>
<path fill="none" stroke="#9a32cd" stroke-dasharray="5,2" d="M150.545,-166.91C137.989,-144.071 116.556,-105.086 107.027,-87.7528"/>
<polygon fill="#9a32cd" stroke="#9a32cd" points="147.584,-168.79 155.469,-175.866 153.718,-165.417 147.584,-168.79"/>
<text text-anchor="middle" x="148.715" y="-121" font-family="Helvetica,sans-Serif" font-size="10.00"> color</text>
</g>
<!-- Node5&#45;&gt;Node1 -->
<g id="edge5" class="edge"><title>Node5&#45;&gt;Node1</title>
<path fill="none" stroke="#9a32cd" stroke-dasharray="5,2" d="M163.271,-28.8984C159.655,-35.7254 154.901,-43.2422 149.215,-49 141.34,-56.9743 130.739,-63.5463 121.598,-68.3144"/>
<polygon fill="#9a32cd" stroke="#9a32cd" points="166.529,-30.2013 167.732,-19.675 160.227,-27.1534 166.529,-30.2013"/>
<text text-anchor="middle" x="168.215" y="-41" font-family="Helvetica,sans-Serif" font-size="10.00"> hist</text>
</g>
</g>
</svg>
