<?xml version="1.0" encoding="UTF-8" standalone="no"?>
<!DOCTYPE svg PUBLIC "-//W3C//DTD SVG 1.1//EN"
 "http://www.w3.org/Graphics/SVG/1.1/DTD/svg11.dtd">
<!-- Generated by graphviz version 2.38.0 (20140413.2041)
 -->
<!-- Title: get/get_orion.c Pages: 1 -->
<!--zoomable 196 -->
<svg id="main" version="1.1" xmlns="http://www.w3.org/2000/svg" xmlns:xlink="http://www.w3.org/1999/xlink" xml:space="preserve" onload="init(evt)">
<style type="text/css"><![CDATA[
.edge:hover path { stroke: red; }
.edge:hover polygon { stroke: red; fill: red; }
]]></style>
<script type="text/javascript"><![CDATA[
var edges = document.getElementsByTagName('g');
if (edges && edges.length) {
  for (var i=0;i<edges.length;i++) {
    if (edges[i].id.substr(0,4)=='edge') {
      edges[i].setAttribute('class','edge');
    }
  }
}
]]></script>
        <defs>
                <circle id="rim" cx="0" cy="0" r="7"/>
                <circle id="rim2" cx="0" cy="0" r="3.5"/>
                <g id="zoomPlus">
                        <use xlink:href="#rim" fill="#404040">
                                <set attributeName="fill" to="#808080" begin="zoomplus.mouseover" end="zoomplus.mouseout"/>
                        </use>
                        <path d="M-4,0h8M0,-4v8" fill="none" stroke="white" stroke-width="1.5" pointer-events="none"/>
                </g>
                <g id="zoomMin">
                        <use xlink:href="#rim" fill="#404040">
                                <set attributeName="fill" to="#808080" begin="zoomminus.mouseover" end="zoomminus.mouseout"/>
                        </use>
                        <path d="M-4,0h8" fill="none" stroke="white" stroke-width="1.5" pointer-events="none"/>
                </g>
                <g id="dirArrow">
                        <path fill="none" stroke="white" stroke-width="1.5" d="M0,-3.0v7 M-2.5,-0.5L0,-3.0L2.5,-0.5"/>
                </g>
               <g id="resetDef">
                       <use xlink:href="#rim2" fill="#404040">
                               <set attributeName="fill" to="#808080" begin="reset.mouseover" end="reset.mouseout"/>
                       </use>
               </g>
        </defs>

<script type="text/javascript">
var viewWidth = 846;
var viewHeight = 196;
var sectionId = 'dynsection-0';
</script>
<script xlink:href="../../svgpan.js"/>
<svg id="graph" class="graph">
<g id="viewport">
<title>get/get_orion.c</title>
<polygon fill="white" stroke="none" points="-4,4 -4,-192 841.907,-192 841.907,4 -4,4"/>
<!-- Node1 -->
<g id="node1" class="node"><title>Node1</title>
<polygon fill="#bfbfbf" stroke="black" points="322.907,-168.5 322.907,-187.5 409.907,-187.5 409.907,-168.5 322.907,-168.5"/>
<text text-anchor="middle" x="366.407" y="-175.5" font-family="Helvetica,sans-Serif" font-size="10.00">get/get_orion.c</text>
</g>
<!-- Node2 -->
<g id="node2" class="node"><title>Node2</title>
<polygon fill="white" stroke="#bfbfbf" points="319.907,-56.5 319.907,-75.5 366.907,-75.5 366.907,-56.5 319.907,-56.5"/>
<text text-anchor="middle" x="343.407" y="-63.5" font-family="Helvetica,sans-Serif" font-size="10.00">stdio.h</text>
</g>
<!-- Node1&#45;&gt;Node2 -->
<g id="edge1" class="edge"><title>Node1&#45;&gt;Node2</title>
<path fill="none" stroke="midnightblue" d="M322.625,-174.755C230.88,-169.601 25.1877,-155.524 4.40679,-132 -1.47816,-125.338 -1.45047,-118.686 4.40679,-112 24.3643,-89.2182 227.892,-74.1638 309.664,-68.9924"/>
<polygon fill="midnightblue" stroke="midnightblue" points="309.926,-72.483 319.69,-68.3695 309.492,-65.4965 309.926,-72.483"/>
</g>
<!-- Node3 -->
<g id="node3" class="node"><title>Node3</title>
<polygon fill="white" stroke="#bfbfbf" points="13.4068,-112.5 13.4068,-131.5 61.4068,-131.5 61.4068,-112.5 13.4068,-112.5"/>
<text text-anchor="middle" x="37.4068" y="-119.5" font-family="Helvetica,sans-Serif" font-size="10.00">math.h</text>
</g>
<!-- Node1&#45;&gt;Node3 -->
<g id="edge2" class="edge"><title>Node1&#45;&gt;Node3</title>
<path fill="none" stroke="midnightblue" d="M322.489,-171.932C266.424,-165.108 166.288,-151.735 71.5182,-132.026"/>
<polygon fill="midnightblue" stroke="midnightblue" points="71.986,-128.548 61.4791,-129.91 70.5421,-135.397 71.986,-128.548"/>
</g>
<!-- Node4 -->
<g id="node4" class="node"><title>Node4</title>
<polygon fill="white" stroke="#bfbfbf" points="79.9068,-112.5 79.9068,-131.5 174.907,-131.5 174.907,-112.5 79.9068,-112.5"/>
<text text-anchor="middle" x="127.407" y="-119.5" font-family="Helvetica,sans-Serif" font-size="10.00">graphics/grafix.h</text>
</g>
<!-- Node1&#45;&gt;Node4 -->
<g id="edge3" class="edge"><title>Node1&#45;&gt;Node4</title>
<path fill="none" stroke="midnightblue" d="M328.537,-168.444C286.931,-159.043 220.038,-143.929 174.938,-133.739"/>
<polygon fill="midnightblue" stroke="midnightblue" points="175.625,-130.306 165.1,-131.516 174.083,-137.134 175.625,-130.306"/>
</g>
<!-- Node5 -->
<g id="node5" class="node"><title>Node5</title>
<polygon fill="white" stroke="#bfbfbf" points="193.407,-112.5 193.407,-131.5 297.407,-131.5 297.407,-112.5 193.407,-112.5"/>
<text text-anchor="middle" x="245.407" y="-119.5" font-family="Helvetica,sans-Serif" font-size="10.00">graphics/window.h</text>
</g>
<!-- Node1&#45;&gt;Node5 -->
<g id="edge4" class="edge"><title>Node1&#45;&gt;Node5</title>
<path fill="none" stroke="midnightblue" d="M347.234,-168.444C327.498,-159.636 296.522,-145.812 273.913,-135.722"/>
<polygon fill="midnightblue" stroke="midnightblue" points="275.048,-132.396 264.49,-131.516 272.195,-138.788 275.048,-132.396"/>
</g>
<!-- Node6 -->
<g id="node6" class="node"><title>Node6</title>
<polygon fill="white" stroke="#bfbfbf" points="315.907,-112.5 315.907,-131.5 416.907,-131.5 416.907,-112.5 315.907,-112.5"/>
<text text-anchor="middle" x="366.407" y="-119.5" font-family="Helvetica,sans-Serif" font-size="10.00">graphics/control.h</text>
</g>
<!-- Node1&#45;&gt;Node6 -->
<g id="edge5" class="edge"><title>Node1&#45;&gt;Node6</title>
<path fill="none" stroke="midnightblue" d="M366.407,-168.083C366.407,-161.006 366.407,-150.861 366.407,-141.986"/>
<polygon fill="midnightblue" stroke="midnightblue" points="369.907,-141.751 366.407,-131.751 362.907,-141.751 369.907,-141.751"/>
</g>
<!-- Node7 -->
<g id="node7" class="node"><title>Node7</title>
<polygon fill="white" stroke="#bfbfbf" points="435.407,-112.5 435.407,-131.5 535.407,-131.5 535.407,-112.5 435.407,-112.5"/>
<text text-anchor="middle" x="485.407" y="-119.5" font-family="Helvetica,sans-Serif" font-size="10.00">graphics/events.h</text>
</g>
<!-- Node1&#45;&gt;Node7 -->
<g id="edge6" class="edge"><title>Node1&#45;&gt;Node7</title>
<path fill="none" stroke="midnightblue" d="M385.263,-168.444C404.673,-159.636 435.137,-145.812 457.371,-135.722"/>
<polygon fill="midnightblue" stroke="midnightblue" points="458.979,-138.836 466.639,-131.516 456.087,-132.462 458.979,-138.836"/>
</g>
<!-- Node8 -->
<g id="node8" class="node"><title>Node8</title>
<polygon fill="white" stroke="#bfbfbf" points="553.407,-112.5 553.407,-131.5 615.407,-131.5 615.407,-112.5 553.407,-112.5"/>
<text text-anchor="middle" x="584.407" y="-119.5" font-family="Helvetica,sans-Serif" font-size="10.00">sys/ioctl.h</text>
</g>
<!-- Node1&#45;&gt;Node8 -->
<g id="edge7" class="edge"><title>Node1&#45;&gt;Node8</title>
<path fill="none" stroke="midnightblue" d="M400.95,-168.444C439.658,-158.855 502.365,-143.322 543.496,-133.134"/>
<polygon fill="midnightblue" stroke="midnightblue" points="544.339,-136.531 553.204,-130.729 542.656,-129.736 544.339,-136.531"/>
</g>
<!-- Node9 -->
<g id="node9" class="node"><title>Node9</title>
<polygon fill="white" stroke="#bfbfbf" points="633.407,-112.5 633.407,-131.5 741.407,-131.5 741.407,-112.5 633.407,-112.5"/>
<text text-anchor="middle" x="687.407" y="-119.5" font-family="Helvetica,sans-Serif" font-size="10.00">machine/graphics.h</text>
</g>
<!-- Node1&#45;&gt;Node9 -->
<g id="edge8" class="edge"><title>Node1&#45;&gt;Node9</title>
<path fill="none" stroke="midnightblue" d="M410.032,-169.661C465.973,-160.251 563.284,-143.88 626.504,-133.245"/>
<polygon fill="midnightblue" stroke="midnightblue" points="627.452,-136.635 636.733,-131.525 626.291,-129.732 627.452,-136.635"/>
</g>
<!-- Node10 -->
<g id="node10" class="node"><title>Node10</title>
<g id="a_node10"><a xlink:href="../../d7/d27/rle_8h.html" target="_top" xlink:title="rle.h">
<polygon fill="white" stroke="black" points="759.907,-112.5 759.907,-131.5 796.907,-131.5 796.907,-112.5 759.907,-112.5"/>
<text text-anchor="middle" x="778.407" y="-119.5" font-family="Helvetica,sans-Serif" font-size="10.00">rle.h</text>
</a>
</g>
</g>
<!-- Node1&#45;&gt;Node10 -->
<g id="edge9" class="edge"><title>Node1&#45;&gt;Node10</title>
<path fill="none" stroke="midnightblue" d="M410.05,-174.653C479.946,-170.294 621.315,-159.014 749.85,-131.684"/>
<polygon fill="midnightblue" stroke="midnightblue" points="750.835,-135.051 759.868,-129.515 749.354,-128.21 750.835,-135.051"/>
</g>
<!-- Node10&#45;&gt;Node2 -->
<g id="edge13" class="edge"><title>Node10&#45;&gt;Node2</title>
<path fill="none" stroke="midnightblue" d="M759.872,-114.468C756.741,-113.531 753.503,-112.662 750.407,-112 613.857,-82.8158 447.252,-71.9245 377.095,-68.4355"/>
<polygon fill="midnightblue" stroke="midnightblue" points="377.227,-64.9379 367.071,-67.9553 376.892,-71.9299 377.227,-64.9379"/>
</g>
<!-- Node11 -->
<g id="node11" class="node"><title>Node11</title>
<g id="a_node11"><a xlink:href="../../df/dad/rle__config_8h.html" target="_top" xlink:title="rle_config.h">
<polygon fill="white" stroke="black" points="742.907,-56.5 742.907,-75.5 813.907,-75.5 813.907,-56.5 742.907,-56.5"/>
<text text-anchor="middle" x="778.407" y="-63.5" font-family="Helvetica,sans-Serif" font-size="10.00">rle_config.h</text>
</a>
</g>
</g>
<!-- Node10&#45;&gt;Node11 -->
<g id="edge10" class="edge"><title>Node10&#45;&gt;Node11</title>
<path fill="none" stroke="midnightblue" d="M778.407,-112.083C778.407,-105.006 778.407,-94.8611 778.407,-85.9865"/>
<polygon fill="midnightblue" stroke="midnightblue" points="781.907,-85.751 778.407,-75.7511 774.907,-85.7511 781.907,-85.751"/>
</g>
<!-- Node12 -->
<g id="node12" class="node"><title>Node12</title>
<polygon fill="white" stroke="#bfbfbf" points="719.907,-0.5 719.907,-19.5 768.907,-19.5 768.907,-0.5 719.907,-0.5"/>
<text text-anchor="middle" x="744.407" y="-7.5" font-family="Helvetica,sans-Serif" font-size="10.00">stdlib.h</text>
</g>
<!-- Node11&#45;&gt;Node12 -->
<g id="edge11" class="edge"><title>Node11&#45;&gt;Node12</title>
<path fill="none" stroke="midnightblue" d="M772.792,-56.083C768.039,-48.5341 761.089,-37.4948 755.255,-28.2298"/>
<polygon fill="midnightblue" stroke="midnightblue" points="758.207,-26.3486 749.917,-19.7511 752.283,-30.0783 758.207,-26.3486"/>
</g>
<!-- Node13 -->
<g id="node13" class="node"><title>Node13</title>
<polygon fill="white" stroke="#bfbfbf" points="786.907,-0.5 786.907,-19.5 837.907,-19.5 837.907,-0.5 786.907,-0.5"/>
<text text-anchor="middle" x="812.407" y="-7.5" font-family="Helvetica,sans-Serif" font-size="10.00">string.h</text>
</g>
<!-- Node11&#45;&gt;Node13 -->
<g id="edge12" class="edge"><title>Node11&#45;&gt;Node13</title>
<path fill="none" stroke="midnightblue" d="M784.021,-56.083C788.774,-48.5341 795.725,-37.4948 801.558,-28.2298"/>
<polygon fill="midnightblue" stroke="midnightblue" points="804.53,-30.0783 806.897,-19.7511 798.607,-26.3486 804.53,-30.0783"/>
</g>
</g>
</svg>
        <g id="navigator" transform="translate(0 0)" fill="#404254">
                <rect fill="#f2f5e9" fill-opacity="0.5" stroke="#606060" stroke-width=".5" x="0" y="0" width="60" height="60"/>
                <use id="zoomplus" xlink:href="#zoomPlus" x="17" y="9" onmousedown="handleZoom(evt,'in')"/>
                <use id="zoomminus" xlink:href="#zoomMin" x="42" y="9" onmousedown="handleZoom(evt,'out')"/>
                <use id="reset" xlink:href="#resetDef" x="30" y="36" onmousedown="handleReset()"/>
                <g id="arrowUp" xlink:href="#dirArrow" transform="translate(30 24)" onmousedown="handlePan(0,-1)">
                  <use xlink:href="#rim" fill="#404040">
                        <set attributeName="fill" to="#808080" begin="arrowUp.mouseover" end="arrowUp.mouseout"/>
                  </use>
                  <path fill="none" stroke="white" stroke-width="1.5" d="M0,-3.0v7 M-2.5,-0.5L0,-3.0L2.5,-0.5"/>
                </g>
                <g id="arrowRight" xlink:href="#dirArrow" transform="rotate(90) translate(36 -43)" onmousedown="handlePan(1,0)">
                  <use xlink:href="#rim" fill="#404040">
                        <set attributeName="fill" to="#808080" begin="arrowRight.mouseover" end="arrowRight.mouseout"/>
                  </use>
                  <path fill="none" stroke="white" stroke-width="1.5" d="M0,-3.0v7 M-2.5,-0.5L0,-3.0L2.5,-0.5"/>
                </g>
                <g id="arrowDown" xlink:href="#dirArrow" transform="rotate(180) translate(-30 -48)" onmousedown="handlePan(0,1)">
                  <use xlink:href="#rim" fill="#404040">
                        <set attributeName="fill" to="#808080" begin="arrowDown.mouseover" end="arrowDown.mouseout"/>
                  </use>
                  <path fill="none" stroke="white" stroke-width="1.5" d="M0,-3.0v7 M-2.5,-0.5L0,-3.0L2.5,-0.5"/>
                </g>
                <g id="arrowLeft" xlink:href="#dirArrow" transform="rotate(270) translate(-36 17)" onmousedown="handlePan(-1,0)">
                  <use xlink:href="#rim" fill="#404040">
                        <set attributeName="fill" to="#808080" begin="arrowLeft.mouseover" end="arrowLeft.mouseout"/>
                  </use>
                  <path fill="none" stroke="white" stroke-width="1.5" d="M0,-3.0v7 M-2.5,-0.5L0,-3.0L2.5,-0.5"/>
                </g>
        </g>
        <svg viewBox="0 0 15 15" width="100%" height="30px" preserveAspectRatio="xMaxYMin meet">
         <g id="arrow_out" transform="scale(0.3 0.3)">
          <a xlink:href="get__orion_8c__incl_org.svg" target="_base">
           <rect id="button" ry="5" rx="5" y="6" x="6" height="38" width="38"
                fill="#f2f5e9" fill-opacity="0.5" stroke="#606060" stroke-width="1.0"/>
           <path id="arrow"
             d="M 11.500037,31.436501 C 11.940474,20.09759 22.043105,11.32322 32.158766,21.979434 L 37.068811,17.246167 C 37.068811,17.246167 37.088388,32 37.088388,32 L 22.160133,31.978069 C 22.160133,31.978069 26.997745,27.140456 26.997745,27.140456 C 18.528582,18.264221 13.291696,25.230495 11.500037,31.436501 z"
             style="fill:#404040;"/>
          </a>
         </g>
        </svg>
</svg>
