<?xml version="1.0" encoding="UTF-8" standalone="no"?>
<!DOCTYPE svg PUBLIC "-//W3C//DTD SVG 1.1//EN"
 "http://www.w3.org/Graphics/SVG/1.1/DTD/svg11.dtd">
<!-- Generated by graphviz version 2.38.0 (20140413.2041)
 -->
<!-- Title: get_orion.c Pages: 1 -->
<svg width="857pt" height="84pt"
 viewBox="0.00 0.00 857.00 84.00" xmlns="http://www.w3.org/2000/svg" xmlns:xlink="http://www.w3.org/1999/xlink">
<g id="graph0" class="graph" transform="scale(1 1) rotate(0) translate(4 80)">
<title>get_orion.c</title>
<polygon fill="white" stroke="none" points="-4,4 -4,-80 853,-80 853,4 -4,4"/>
<!-- Node1 -->
<g id="node1" class="node"><title>Node1</title>
<polygon fill="#bfbfbf" stroke="black" points="384,-56.5 384,-75.5 453,-75.5 453,-56.5 384,-56.5"/>
<text text-anchor="middle" x="418.5" y="-63.5" font-family="Helvetica,sans-Serif" font-size="10.00">get_orion.c</text>
</g>
<!-- Node2 -->
<g id="node2" class="node"><title>Node2</title>
<polygon fill="white" stroke="#bfbfbf" points="0,-0.5 0,-19.5 47,-19.5 47,-0.5 0,-0.5"/>
<text text-anchor="middle" x="23.5" y="-7.5" font-family="Helvetica,sans-Serif" font-size="10.00">stdio.h</text>
</g>
<!-- Node1&#45;&gt;Node2 -->
<g id="edge1" class="edge"><title>Node1&#45;&gt;Node2</title>
<path fill="none" stroke="midnightblue" d="M383.799,-62.3441C320.729,-57.1607 182.996,-44.2029 57.3747,-19.8969"/>
<polygon fill="midnightblue" stroke="midnightblue" points="57.6844,-16.3909 47.1972,-17.8972 56.3347,-23.2596 57.6844,-16.3909"/>
</g>
<!-- Node3 -->
<g id="node3" class="node"><title>Node3</title>
<polygon fill="white" stroke="#bfbfbf" points="65.5,-0.5 65.5,-19.5 113.5,-19.5 113.5,-0.5 65.5,-0.5"/>
<text text-anchor="middle" x="89.5" y="-7.5" font-family="Helvetica,sans-Serif" font-size="10.00">math.h</text>
</g>
<!-- Node1&#45;&gt;Node3 -->
<g id="edge2" class="edge"><title>Node1&#45;&gt;Node3</title>
<path fill="none" stroke="midnightblue" d="M383.633,-61.0229C329.838,-54.6001 223.228,-40.7347 123.509,-20.0037"/>
<polygon fill="midnightblue" stroke="midnightblue" points="124.079,-16.547 113.572,-17.9099 122.636,-23.3966 124.079,-16.547"/>
</g>
<!-- Node4 -->
<g id="node4" class="node"><title>Node4</title>
<polygon fill="white" stroke="#bfbfbf" points="132,-0.5 132,-19.5 227,-19.5 227,-0.5 132,-0.5"/>
<text text-anchor="middle" x="179.5" y="-7.5" font-family="Helvetica,sans-Serif" font-size="10.00">graphics/grafix.h</text>
</g>
<!-- Node1&#45;&gt;Node4 -->
<g id="edge3" class="edge"><title>Node1&#45;&gt;Node4</title>
<path fill="none" stroke="midnightblue" d="M383.747,-57.1479C342.497,-47.8278 273.489,-32.2361 227.246,-21.7879"/>
<polygon fill="midnightblue" stroke="midnightblue" points="227.98,-18.3656 217.455,-19.5756 226.438,-25.1935 227.98,-18.3656"/>
</g>
<!-- Node5 -->
<g id="node5" class="node"><title>Node5</title>
<polygon fill="white" stroke="#bfbfbf" points="245.5,-0.5 245.5,-19.5 349.5,-19.5 349.5,-0.5 245.5,-0.5"/>
<text text-anchor="middle" x="297.5" y="-7.5" font-family="Helvetica,sans-Serif" font-size="10.00">graphics/window.h</text>
</g>
<!-- Node1&#45;&gt;Node5 -->
<g id="edge4" class="edge"><title>Node1&#45;&gt;Node5</title>
<path fill="none" stroke="midnightblue" d="M399.327,-56.4435C379.591,-47.6356 348.615,-33.8116 326.007,-23.722"/>
<polygon fill="midnightblue" stroke="midnightblue" points="327.141,-20.3957 316.583,-19.5164 324.289,-26.788 327.141,-20.3957"/>
</g>
<!-- Node6 -->
<g id="node6" class="node"><title>Node6</title>
<polygon fill="white" stroke="#bfbfbf" points="368,-0.5 368,-19.5 469,-19.5 469,-0.5 368,-0.5"/>
<text text-anchor="middle" x="418.5" y="-7.5" font-family="Helvetica,sans-Serif" font-size="10.00">graphics/control.h</text>
</g>
<!-- Node1&#45;&gt;Node6 -->
<g id="edge5" class="edge"><title>Node1&#45;&gt;Node6</title>
<path fill="none" stroke="midnightblue" d="M418.5,-56.083C418.5,-49.0059 418.5,-38.8611 418.5,-29.9865"/>
<polygon fill="midnightblue" stroke="midnightblue" points="422,-29.751 418.5,-19.7511 415,-29.7511 422,-29.751"/>
</g>
<!-- Node7 -->
<g id="node7" class="node"><title>Node7</title>
<polygon fill="white" stroke="#bfbfbf" points="487.5,-0.5 487.5,-19.5 587.5,-19.5 587.5,-0.5 487.5,-0.5"/>
<text text-anchor="middle" x="537.5" y="-7.5" font-family="Helvetica,sans-Serif" font-size="10.00">graphics/events.h</text>
</g>
<!-- Node1&#45;&gt;Node7 -->
<g id="edge6" class="edge"><title>Node1&#45;&gt;Node7</title>
<path fill="none" stroke="midnightblue" d="M437.356,-56.4435C456.766,-47.6356 487.23,-33.8116 509.465,-23.722"/>
<polygon fill="midnightblue" stroke="midnightblue" points="511.072,-26.836 518.732,-19.5164 508.18,-20.4615 511.072,-26.836"/>
</g>
<!-- Node8 -->
<g id="node8" class="node"><title>Node8</title>
<polygon fill="white" stroke="#bfbfbf" points="605.5,-0.5 605.5,-19.5 667.5,-19.5 667.5,-0.5 605.5,-0.5"/>
<text text-anchor="middle" x="636.5" y="-7.5" font-family="Helvetica,sans-Serif" font-size="10.00">sys/ioctl.h</text>
</g>
<!-- Node1&#45;&gt;Node8 -->
<g id="edge7" class="edge"><title>Node1&#45;&gt;Node8</title>
<path fill="none" stroke="midnightblue" d="M453.043,-56.4435C491.752,-46.8551 554.458,-31.3223 595.589,-21.1339"/>
<polygon fill="midnightblue" stroke="midnightblue" points="596.433,-24.5308 605.298,-18.729 594.749,-17.7362 596.433,-24.5308"/>
</g>
<!-- Node9 -->
<g id="node9" class="node"><title>Node9</title>
<polygon fill="white" stroke="#bfbfbf" points="685.5,-0.5 685.5,-19.5 793.5,-19.5 793.5,-0.5 685.5,-0.5"/>
<text text-anchor="middle" x="739.5" y="-7.5" font-family="Helvetica,sans-Serif" font-size="10.00">machine/graphics.h</text>
</g>
<!-- Node1&#45;&gt;Node9 -->
<g id="edge8" class="edge"><title>Node1&#45;&gt;Node9</title>
<path fill="none" stroke="midnightblue" d="M453.158,-59.1697C507.205,-50.0777 612.273,-32.4027 679.003,-21.1771"/>
<polygon fill="midnightblue" stroke="midnightblue" points="679.683,-24.6119 688.964,-19.5014 678.522,-17.7089 679.683,-24.6119"/>
</g>
<!-- Node10 -->
<g id="node10" class="node"><title>Node10</title>
<polygon fill="white" stroke="#bfbfbf" points="812,-0.5 812,-19.5 849,-19.5 849,-0.5 812,-0.5"/>
<text text-anchor="middle" x="830.5" y="-7.5" font-family="Helvetica,sans-Serif" font-size="10.00">rle.h</text>
</g>
<!-- Node1&#45;&gt;Node10 -->
<g id="edge9" class="edge"><title>Node1&#45;&gt;Node10</title>
<path fill="none" stroke="midnightblue" d="M453.03,-63.2069C519.085,-59.2951 667.911,-48.1588 801.929,-19.6851"/>
<polygon fill="midnightblue" stroke="midnightblue" points="802.928,-23.0501 811.961,-17.5147 801.447,-16.2084 802.928,-23.0501"/>
</g>
</g>
</svg>
