<?xml version="1.0" encoding="UTF-8" standalone="no"?>
<!DOCTYPE svg PUBLIC "-//W3C//DTD SVG 1.1//EN"
 "http://www.w3.org/Graphics/SVG/1.1/DTD/svg11.dtd">
<!-- Generated by graphviz version 2.38.0 (20140413.2041)
 -->
<!-- Title: rle_open_f.c Pages: 1 -->
<svg width="498pt" height="84pt"
 viewBox="0.00 0.00 497.50 84.00" xmlns="http://www.w3.org/2000/svg" xmlns:xlink="http://www.w3.org/1999/xlink">
<g id="graph0" class="graph" transform="scale(1 1) rotate(0) translate(4 80)">
<title>rle_open_f.c</title>
<polygon fill="white" stroke="none" points="-4,4 -4,-80 493.5,-80 493.5,4 -4,4"/>
<!-- Node1 -->
<g id="node1" class="node"><title>Node1</title>
<polygon fill="#bfbfbf" stroke="black" points="210,-56.5 210,-75.5 285,-75.5 285,-56.5 210,-56.5"/>
<text text-anchor="middle" x="247.5" y="-63.5" font-family="Helvetica,sans-Serif" font-size="10.00">rle_open_f.c</text>
</g>
<!-- Node2 -->
<g id="node2" class="node"><title>Node2</title>
<polygon fill="white" stroke="#bfbfbf" points="0,-0.5 0,-19.5 71,-19.5 71,-0.5 0,-0.5"/>
<text text-anchor="middle" x="35.5" y="-7.5" font-family="Helvetica,sans-Serif" font-size="10.00">rle_config.h</text>
</g>
<!-- Node1&#45;&gt;Node2 -->
<g id="edge1" class="edge"><title>Node1&#45;&gt;Node2</title>
<path fill="none" stroke="midnightblue" d="M213.908,-56.4435C177.313,-47.1221 118.662,-32.1828 78.6743,-21.9972"/>
<polygon fill="midnightblue" stroke="midnightblue" points="79.4894,-18.5932 68.9349,-19.5164 77.7615,-25.3766 79.4894,-18.5932"/>
</g>
<!-- Node3 -->
<g id="node3" class="node"><title>Node3</title>
<polygon fill="white" stroke="#bfbfbf" points="89,-0.5 89,-19.5 136,-19.5 136,-0.5 89,-0.5"/>
<text text-anchor="middle" x="112.5" y="-7.5" font-family="Helvetica,sans-Serif" font-size="10.00">stdio.h</text>
</g>
<!-- Node1&#45;&gt;Node3 -->
<g id="edge2" class="edge"><title>Node1&#45;&gt;Node3</title>
<path fill="none" stroke="midnightblue" d="M226.109,-56.4435C203.793,-47.5171 168.597,-33.4387 143.292,-23.3168"/>
<polygon fill="midnightblue" stroke="midnightblue" points="144.376,-19.9807 133.791,-19.5164 141.776,-26.4801 144.376,-19.9807"/>
</g>
<!-- Node4 -->
<g id="node4" class="node"><title>Node4</title>
<polygon fill="white" stroke="#bfbfbf" points="154,-0.5 154,-19.5 207,-19.5 207,-0.5 154,-0.5"/>
<text text-anchor="middle" x="180.5" y="-7.5" font-family="Helvetica,sans-Serif" font-size="10.00">unistd.h</text>
</g>
<!-- Node1&#45;&gt;Node4 -->
<g id="edge3" class="edge"><title>Node1&#45;&gt;Node4</title>
<path fill="none" stroke="midnightblue" d="M236.735,-56.324C226.734,-48.2631 211.613,-36.0765 199.57,-26.3695"/>
<polygon fill="midnightblue" stroke="midnightblue" points="201.443,-23.3841 191.461,-19.8339 197.05,-28.8343 201.443,-23.3841"/>
</g>
<!-- Node5 -->
<g id="node5" class="node"><title>Node5</title>
<polygon fill="white" stroke="#bfbfbf" points="225.5,-0.5 225.5,-19.5 269.5,-19.5 269.5,-0.5 225.5,-0.5"/>
<text text-anchor="middle" x="247.5" y="-7.5" font-family="Helvetica,sans-Serif" font-size="10.00">fcntl.h</text>
</g>
<!-- Node1&#45;&gt;Node5 -->
<g id="edge4" class="edge"><title>Node1&#45;&gt;Node5</title>
<path fill="none" stroke="midnightblue" d="M247.5,-56.083C247.5,-49.0059 247.5,-38.8611 247.5,-29.9865"/>
<polygon fill="midnightblue" stroke="midnightblue" points="251,-29.751 247.5,-19.7511 244,-29.7511 251,-29.751"/>
</g>
<!-- Node6 -->
<g id="node6" class="node"><title>Node6</title>
<polygon fill="white" stroke="#bfbfbf" points="288,-0.5 288,-19.5 341,-19.5 341,-0.5 288,-0.5"/>
<text text-anchor="middle" x="314.5" y="-7.5" font-family="Helvetica,sans-Serif" font-size="10.00">signal.h</text>
</g>
<!-- Node1&#45;&gt;Node6 -->
<g id="edge5" class="edge"><title>Node1&#45;&gt;Node6</title>
<path fill="none" stroke="midnightblue" d="M258.265,-56.324C268.266,-48.2631 283.387,-36.0765 295.43,-26.3695"/>
<polygon fill="midnightblue" stroke="midnightblue" points="297.95,-28.8343 303.539,-19.8339 293.557,-23.3841 297.95,-28.8343"/>
</g>
<!-- Node7 -->
<g id="node7" class="node"><title>Node7</title>
<polygon fill="white" stroke="#bfbfbf" points="359.5,-0.5 359.5,-19.5 421.5,-19.5 421.5,-0.5 359.5,-0.5"/>
<text text-anchor="middle" x="390.5" y="-7.5" font-family="Helvetica,sans-Serif" font-size="10.00">sys/wait.h</text>
</g>
<!-- Node1&#45;&gt;Node7 -->
<g id="edge6" class="edge"><title>Node1&#45;&gt;Node7</title>
<path fill="none" stroke="midnightblue" d="M270.159,-56.4435C293.902,-47.4776 331.409,-33.314 358.238,-23.1827"/>
<polygon fill="midnightblue" stroke="midnightblue" points="359.829,-26.3235 367.947,-19.5164 357.356,-19.7749 359.829,-26.3235"/>
</g>
<!-- Node8 -->
<g id="node8" class="node"><title>Node8</title>
<polygon fill="white" stroke="#bfbfbf" points="439.5,-0.5 439.5,-19.5 489.5,-19.5 489.5,-0.5 439.5,-0.5"/>
<text text-anchor="middle" x="464.5" y="-7.5" font-family="Helvetica,sans-Serif" font-size="10.00">errno.h</text>
</g>
<!-- Node1&#45;&gt;Node8 -->
<g id="edge7" class="edge"><title>Node1&#45;&gt;Node8</title>
<path fill="none" stroke="midnightblue" d="M282.97,-56.4741C317.854,-48.0459 372.87,-34.6376 429.433,-20.2413"/>
<polygon fill="midnightblue" stroke="midnightblue" points="430.438,-23.5973 439.262,-17.7337 428.707,-16.8146 430.438,-23.5973"/>
</g>
</g>
</svg>
