<?xml version="1.0" encoding="UTF-8" standalone="no"?>
<!DOCTYPE svg PUBLIC "-//W3C//DTD SVG 1.1//EN"
 "http://www.w3.org/Graphics/SVG/1.1/DTD/svg11.dtd">
<!-- Generated by graphviz version 2.38.0 (20140413.2041)
 -->
<!-- Title: main Pages: 1 -->
<svg width="658pt" height="408pt"
 viewBox="0.00 0.00 658.00 408.00" xmlns="http://www.w3.org/2000/svg" xmlns:xlink="http://www.w3.org/1999/xlink">
<g id="graph0" class="graph" transform="scale(1 1) rotate(0) translate(4 404)">
<title>main</title>
<polygon fill="white" stroke="none" points="-4,4 -4,-404 654,-404 654,4 -4,4"/>
<!-- Node1 -->
<g id="node1" class="node"><title>Node1</title>
<polygon fill="#bfbfbf" stroke="black" points="0,-152.5 0,-171.5 39,-171.5 39,-152.5 0,-152.5"/>
<text text-anchor="middle" x="19.5" y="-159.5" font-family="Helvetica,sans-Serif" font-size="10.00">main</text>
</g>
<!-- Node2 -->
<g id="node2" class="node"><title>Node2</title>
<g id="a_node2"><a xlink:href="../../d4/db0/scanargs_8c.html#a7ea6d702c0484056c8504d6ce7fede08" target="_top" xlink:title="scanargs">
<polygon fill="white" stroke="black" points="94,-342.5 94,-361.5 154,-361.5 154,-342.5 94,-342.5"/>
<text text-anchor="middle" x="124" y="-349.5" font-family="Helvetica,sans-Serif" font-size="10.00">scanargs</text>
</a>
</g>
</g>
<!-- Node1&#45;&gt;Node2 -->
<g id="edge1" class="edge"><title>Node1&#45;&gt;Node2</title>
<path fill="none" stroke="midnightblue" d="M23.2672,-171.501C30.0539,-194 48.8943,-251.88 75,-295 83.7564,-309.463 96.0817,-324.014 106.05,-334.794"/>
<polygon fill="midnightblue" stroke="midnightblue" points="103.693,-337.395 113.115,-342.239 108.77,-332.576 103.693,-337.395"/>
</g>
<!-- Node4 -->
<g id="node4" class="node"><title>Node4</title>
<g id="a_node4"><a xlink:href="../../d2/df3/rle__hdr_8c.html#a8ba0e5b11d1e39ab7227f1686e676c86" target="_top" xlink:title="rle_hdr_init">
<polygon fill="white" stroke="black" points="216,-228.5 216,-247.5 286,-247.5 286,-228.5 216,-228.5"/>
<text text-anchor="middle" x="251" y="-235.5" font-family="Helvetica,sans-Serif" font-size="10.00">rle_hdr_init</text>
</a>
</g>
</g>
<!-- Node1&#45;&gt;Node4 -->
<g id="edge3" class="edge"><title>Node1&#45;&gt;Node4</title>
<path fill="none" stroke="midnightblue" d="M27.3834,-171.547C36.6904,-183.648 54.5013,-204.12 75,-214 116.235,-233.874 168.879,-238.731 205.609,-239.327"/>
<polygon fill="midnightblue" stroke="midnightblue" points="205.974,-242.829 215.994,-239.389 206.016,-235.829 205.974,-242.829"/>
</g>
<!-- Node8 -->
<g id="node8" class="node"><title>Node8</title>
<g id="a_node8"><a xlink:href="../../d0/dcc/rletorla_8c.html#ab7e36af3707843f77cc5b4e831c2fa6d" target="_top" xlink:title="malloc">
<polygon fill="white" stroke="black" points="593.5,-190.5 593.5,-209.5 640.5,-209.5 640.5,-190.5 593.5,-190.5"/>
<text text-anchor="middle" x="617" y="-197.5" font-family="Helvetica,sans-Serif" font-size="10.00">malloc</text>
</a>
</g>
</g>
<!-- Node1&#45;&gt;Node8 -->
<g id="edge29" class="edge"><title>Node1&#45;&gt;Node8</title>
<path fill="none" stroke="midnightblue" d="M39.2416,-162C78.3901,-162 171.707,-162 250,-162 250,-162 250,-162 370.5,-162 447.485,-162 536.469,-180.475 583.291,-191.661"/>
<polygon fill="midnightblue" stroke="midnightblue" points="582.623,-195.1 593.167,-194.062 584.277,-188.299 582.623,-195.1"/>
</g>
<!-- Node9 -->
<g id="node9" class="node"><title>Node9</title>
<g id="a_node9"><a xlink:href="../../d2/df3/rle__hdr_8c.html#a82e79385f2d45cc3b80ce0f4f369eae5" target="_top" xlink:title="rle_names">
<polygon fill="white" stroke="black" points="464,-228.5 464,-247.5 530,-247.5 530,-228.5 464,-228.5"/>
<text text-anchor="middle" x="497" y="-235.5" font-family="Helvetica,sans-Serif" font-size="10.00">rle_names</text>
</a>
</g>
</g>
<!-- Node1&#45;&gt;Node9 -->
<g id="edge18" class="edge"><title>Node1&#45;&gt;Node9</title>
<path fill="none" stroke="midnightblue" d="M39.0367,-167.37C49.5201,-170.253 62.9115,-173.681 75,-176 222.422,-204.284 262.119,-193.227 410,-219 424.425,-221.514 440.091,-224.806 454.052,-227.941"/>
<polygon fill="midnightblue" stroke="midnightblue" points="453.345,-231.37 463.874,-230.184 454.904,-224.546 453.345,-231.37"/>
</g>
<!-- Node10 -->
<g id="node10" class="node"><title>Node10</title>
<g id="a_node10"><a xlink:href="../../de/d4e/rle__open__f_8c.html#a89733a45961817885603ae01210290b7" target="_top" xlink:title="rle_open_f">
<polygon fill="white" stroke="black" points="335.5,-114.5 335.5,-133.5 403.5,-133.5 403.5,-114.5 335.5,-114.5"/>
<text text-anchor="middle" x="369.5" y="-121.5" font-family="Helvetica,sans-Serif" font-size="10.00">rle_open_f</text>
</a>
</g>
</g>
<!-- Node1&#45;&gt;Node10 -->
<g id="edge12" class="edge"><title>Node1&#45;&gt;Node10</title>
<path fill="none" stroke="midnightblue" d="M39.2477,-156.344C49.6816,-153.409 62.9577,-150.024 75,-148 163.045,-133.202 267.545,-127.425 325.08,-125.248"/>
<polygon fill="midnightblue" stroke="midnightblue" points="325.394,-128.739 335.262,-124.882 325.142,-121.743 325.394,-128.739"/>
</g>
<!-- Node13 -->
<g id="node13" class="node"><title>Node13</title>
<g id="a_node13"><a xlink:href="../../d8/d30/cmd__name_8c.html#a271249070fdd12c176777c77d76f888f" target="_top" xlink:title="cmd_name">
<polygon fill="white" stroke="black" points="90,-76.5 90,-95.5 158,-95.5 158,-76.5 90,-76.5"/>
<text text-anchor="middle" x="124" y="-83.5" font-family="Helvetica,sans-Serif" font-size="10.00">cmd_name</text>
</a>
</g>
</g>
<!-- Node1&#45;&gt;Node13 -->
<g id="edge17" class="edge"><title>Node1&#45;&gt;Node13</title>
<path fill="none" stroke="midnightblue" d="M29.0211,-152.27C39.1724,-141.082 57.027,-122.636 75,-110 79.9803,-106.498 85.5455,-103.221 91.0725,-100.281"/>
<polygon fill="midnightblue" stroke="midnightblue" points="92.8695,-103.295 100.228,-95.6721 89.7221,-97.0422 92.8695,-103.295"/>
</g>
<!-- Node14 -->
<g id="node14" class="node"><title>Node14</title>
<g id="a_node14"><a xlink:href="../../db/d53/rle__getrow_8c.html#a2d56ca99b896abbcb4d2f3f97c93a3ce" target="_top" xlink:title="rle_get_setup_ok">
<polygon fill="white" stroke="black" points="75,-266.5 75,-285.5 173,-285.5 173,-266.5 75,-266.5"/>
<text text-anchor="middle" x="124" y="-273.5" font-family="Helvetica,sans-Serif" font-size="10.00">rle_get_setup_ok</text>
</a>
</g>
</g>
<!-- Node1&#45;&gt;Node14 -->
<g id="edge19" class="edge"><title>Node1&#45;&gt;Node14</title>
<path fill="none" stroke="midnightblue" d="M24.1816,-171.604C31.453,-189.486 49.2186,-228.223 75,-252 78.9232,-255.618 83.4938,-258.819 88.2259,-261.607"/>
<polygon fill="midnightblue" stroke="midnightblue" points="86.9214,-264.877 97.3967,-266.464 90.1975,-258.691 86.9214,-264.877"/>
</g>
<!-- Node18 -->
<g id="node18" class="node"><title>Node18</title>
<g id="a_node18"><a xlink:href="../../db/d53/rle__getrow_8c.html#a3602e1158189cba5e5b0f9b983cba776" target="_top" xlink:title="rle_getrow">
<polygon fill="white" stroke="black" points="90.5,-38.5 90.5,-57.5 157.5,-57.5 157.5,-38.5 90.5,-38.5"/>
<text text-anchor="middle" x="124" y="-45.5" font-family="Helvetica,sans-Serif" font-size="10.00">rle_getrow</text>
</a>
</g>
</g>
<!-- Node1&#45;&gt;Node18 -->
<g id="edge30" class="edge"><title>Node1&#45;&gt;Node18</title>
<path fill="none" stroke="midnightblue" d="M23.6337,-152.23C30.1917,-133.25 47.1083,-91.1406 75,-67 76.9568,-65.3064 79.0828,-63.7531 81.315,-62.3301"/>
<polygon fill="midnightblue" stroke="midnightblue" points="83.1836,-65.2987 90.3173,-57.4654 79.8557,-59.1403 83.1836,-65.2987"/>
</g>
<!-- Node21 -->
<g id="node21" class="node"><title>Node21</title>
<g id="a_node21"><a xlink:href="../../d1/d68/rletoiris_8c.html#a47d389f6d36f0fb41ebc3caf2a598b28" target="_top" xlink:title="ctos">
<polygon fill="white" stroke="black" points="106,-0.5 106,-19.5 142,-19.5 142,-0.5 106,-0.5"/>
<text text-anchor="middle" x="124" y="-7.5" font-family="Helvetica,sans-Serif" font-size="10.00">ctos</text>
</a>
</g>
</g>
<!-- Node1&#45;&gt;Node21 -->
<g id="edge33" class="edge"><title>Node1&#45;&gt;Node21</title>
<path fill="none" stroke="midnightblue" d="M21.8503,-152.195C25.6813,-127.992 38.7891,-64.7791 75,-29 80.7627,-23.306 88.4401,-19.2643 95.9617,-16.4178"/>
<polygon fill="midnightblue" stroke="midnightblue" points="97.1354,-19.717 105.586,-13.326 94.9943,-13.0525 97.1354,-19.717"/>
</g>
<!-- Node3 -->
<g id="node3" class="node"><title>Node3</title>
<g id="a_node3"><a xlink:href="../../d4/db0/scanargs_8c.html#a862219039664df6eb3cfced58addf830" target="_top" xlink:title="_do_scanargs">
<polygon fill="white" stroke="black" points="209,-380.5 209,-399.5 293,-399.5 293,-380.5 209,-380.5"/>
<text text-anchor="middle" x="251" y="-387.5" font-family="Helvetica,sans-Serif" font-size="10.00">_do_scanargs</text>
</a>
</g>
</g>
<!-- Node2&#45;&gt;Node3 -->
<g id="edge2" class="edge"><title>Node2&#45;&gt;Node3</title>
<path fill="none" stroke="midnightblue" d="M154.307,-360.909C170.624,-365.87 191.194,-372.123 209.077,-377.559"/>
<polygon fill="midnightblue" stroke="midnightblue" points="208.106,-380.922 218.692,-380.482 210.142,-374.225 208.106,-380.922"/>
</g>
<!-- Node5 -->
<g id="node5" class="node"><title>Node5</title>
<g id="a_node5"><a xlink:href="../../d2/df3/rle__hdr_8c.html#a16c4da6201b3b8cf55127b9ca968d253" target="_top" xlink:title="rle_hdr_clear">
<polygon fill="white" stroke="black" points="457,-380.5 457,-399.5 537,-399.5 537,-380.5 457,-380.5"/>
<text text-anchor="middle" x="497" y="-387.5" font-family="Helvetica,sans-Serif" font-size="10.00">rle_hdr_clear</text>
</a>
</g>
</g>
<!-- Node4&#45;&gt;Node5 -->
<g id="edge4" class="edge"><title>Node4&#45;&gt;Node5</title>
<path fill="none" stroke="midnightblue" d="M280.998,-247.669C285.464,-250.157 289.684,-253.23 293,-257 328.089,-296.898 287.991,-337.216 329,-371 361.387,-397.682 410.085,-400.382 446.549,-397.625"/>
<polygon fill="midnightblue" stroke="midnightblue" points="447.325,-401.069 456.962,-396.667 446.683,-394.098 447.325,-401.069"/>
</g>
<!-- Node7 -->
<g id="node7" class="node"><title>Node7</title>
<g id="a_node7"><a xlink:href="../../d2/df3/rle__hdr_8c.html#afc916e29aea8788e0878ca315ff69821" target="_top" xlink:title="rle_hdr_cp">
<polygon fill="white" stroke="black" points="335.5,-228.5 335.5,-247.5 403.5,-247.5 403.5,-228.5 335.5,-228.5"/>
<text text-anchor="middle" x="369.5" y="-235.5" font-family="Helvetica,sans-Serif" font-size="10.00">rle_hdr_cp</text>
</a>
</g>
</g>
<!-- Node4&#45;&gt;Node7 -->
<g id="edge6" class="edge"><title>Node4&#45;&gt;Node7</title>
<path fill="none" stroke="midnightblue" d="M286.01,-231.799C298.305,-231.209 312.353,-231.095 325.329,-231.455"/>
<polygon fill="midnightblue" stroke="midnightblue" points="325.324,-234.957 335.452,-231.846 325.594,-227.963 325.324,-234.957"/>
</g>
<!-- Node6 -->
<g id="node6" class="node"><title>Node6</title>
<g id="a_node6"><a xlink:href="../../d0/dcc/rletorla_8c.html#aafde19f7d36ca163a143579c1b125b6d" target="_top" xlink:title="free">
<polygon fill="white" stroke="black" points="599.5,-285.5 599.5,-304.5 634.5,-304.5 634.5,-285.5 599.5,-285.5"/>
<text text-anchor="middle" x="617" y="-292.5" font-family="Helvetica,sans-Serif" font-size="10.00">free</text>
</a>
</g>
</g>
<!-- Node5&#45;&gt;Node6 -->
<g id="edge5" class="edge"><title>Node5&#45;&gt;Node6</title>
<path fill="none" stroke="midnightblue" d="M522.388,-380.421C530.869,-376.55 540.204,-371.651 548,-366 569.221,-350.617 589.451,-328.142 602.243,-312.618"/>
<polygon fill="midnightblue" stroke="midnightblue" points="604.995,-314.781 608.544,-304.798 599.544,-310.389 604.995,-314.781"/>
</g>
<!-- Node7&#45;&gt;Node4 -->
<g id="edge7" class="edge"><title>Node7&#45;&gt;Node4</title>
<path fill="none" stroke="midnightblue" d="M335.452,-244.154C323.251,-244.768 309.222,-244.908 296.192,-244.572"/>
<polygon fill="midnightblue" stroke="midnightblue" points="296.131,-241.068 286.01,-244.201 295.876,-248.063 296.131,-241.068"/>
</g>
<!-- Node7&#45;&gt;Node8 -->
<g id="edge8" class="edge"><title>Node7&#45;&gt;Node8</title>
<path fill="none" stroke="midnightblue" d="M403.739,-228.603C416.824,-225.176 432.034,-221.526 446,-219 493.202,-210.463 548.515,-205.135 582.913,-202.365"/>
<polygon fill="midnightblue" stroke="midnightblue" points="583.612,-205.822 593.31,-201.555 583.068,-198.843 583.612,-205.822"/>
</g>
<!-- Node7&#45;&gt;Node9 -->
<g id="edge9" class="edge"><title>Node7&#45;&gt;Node9</title>
<path fill="none" stroke="midnightblue" d="M403.802,-238C419.052,-238 437.302,-238 453.526,-238"/>
<polygon fill="midnightblue" stroke="midnightblue" points="453.844,-241.5 463.844,-238 453.844,-234.5 453.844,-241.5"/>
</g>
<!-- Node9&#45;&gt;Node6 -->
<g id="edge10" class="edge"><title>Node9&#45;&gt;Node6</title>
<path fill="none" stroke="midnightblue" d="M517.751,-247.541C537.639,-257.148 568.418,-272.016 590.22,-282.547"/>
<polygon fill="midnightblue" stroke="midnightblue" points="588.717,-285.708 599.244,-286.906 591.762,-279.405 588.717,-285.708"/>
</g>
<!-- Node9&#45;&gt;Node8 -->
<g id="edge11" class="edge"><title>Node9&#45;&gt;Node8</title>
<path fill="none" stroke="midnightblue" d="M527.776,-228.411C544.784,-222.934 566.127,-216.061 583.559,-210.447"/>
<polygon fill="midnightblue" stroke="midnightblue" points="584.864,-213.704 593.31,-207.307 582.718,-207.041 584.864,-213.704"/>
</g>
<!-- Node11 -->
<g id="node11" class="node"><title>Node11</title>
<g id="a_node11"><a xlink:href="../../de/d4e/rle__open__f_8c.html#a5a0e62a00f907fce26e93b2f72adb2b0" target="_top" xlink:title="rle_open_f_noexit">
<polygon fill="white" stroke="black" points="446,-114.5 446,-133.5 548,-133.5 548,-114.5 446,-114.5"/>
<text text-anchor="middle" x="497" y="-121.5" font-family="Helvetica,sans-Serif" font-size="10.00">rle_open_f_noexit</text>
</a>
</g>
</g>
<!-- Node10&#45;&gt;Node11 -->
<g id="edge13" class="edge"><title>Node10&#45;&gt;Node11</title>
<path fill="none" stroke="midnightblue" d="M403.802,-124C413.699,-124 424.859,-124 435.909,-124"/>
<polygon fill="midnightblue" stroke="midnightblue" points="435.986,-127.5 445.986,-124 435.986,-120.5 435.986,-127.5"/>
</g>
<!-- Node11&#45;&gt;Node6 -->
<g id="edge16" class="edge"><title>Node11&#45;&gt;Node6</title>
<path fill="none" stroke="midnightblue" d="M504.682,-133.684C523.748,-161.313 578.628,-240.842 603.491,-276.873"/>
<polygon fill="midnightblue" stroke="midnightblue" points="600.831,-279.18 609.391,-285.423 606.592,-275.204 600.831,-279.18"/>
</g>
<!-- Node11&#45;&gt;Node8 -->
<g id="edge15" class="edge"><title>Node11&#45;&gt;Node8</title>
<path fill="none" stroke="midnightblue" d="M520.421,-133.567C529.232,-137.632 539.3,-142.664 548,-148 565.459,-158.709 583.827,-172.957 597.066,-183.831"/>
<polygon fill="midnightblue" stroke="midnightblue" points="595.042,-186.701 604.963,-190.418 599.526,-181.325 595.042,-186.701"/>
</g>
<!-- Node12 -->
<g id="node12" class="node"><title>Node12</title>
<g id="a_node12"><a xlink:href="../../de/d4e/rle__open__f_8c.html#a84fda810ae9b9bde82a6391d0b264ead" target="_top" xlink:title="my_popen">
<polygon fill="white" stroke="black" points="584,-114.5 584,-133.5 650,-133.5 650,-114.5 584,-114.5"/>
<text text-anchor="middle" x="617" y="-121.5" font-family="Helvetica,sans-Serif" font-size="10.00">my_popen</text>
</a>
</g>
</g>
<!-- Node11&#45;&gt;Node12 -->
<g id="edge14" class="edge"><title>Node11&#45;&gt;Node12</title>
<path fill="none" stroke="midnightblue" d="M548.043,-124C556.523,-124 565.255,-124 573.518,-124"/>
<polygon fill="midnightblue" stroke="midnightblue" points="573.678,-127.5 583.678,-124 573.678,-120.5 573.678,-127.5"/>
</g>
<!-- Node14&#45;&gt;Node4 -->
<g id="edge20" class="edge"><title>Node14&#45;&gt;Node4</title>
<path fill="none" stroke="midnightblue" d="M156.543,-266.411C172.383,-261.596 191.773,-255.701 208.776,-250.532"/>
<polygon fill="midnightblue" stroke="midnightblue" points="209.918,-253.843 218.467,-247.586 207.882,-247.146 209.918,-253.843"/>
</g>
<!-- Node14&#45;&gt;Node9 -->
<g id="edge21" class="edge"><title>Node14&#45;&gt;Node9</title>
<path fill="none" stroke="midnightblue" d="M159.037,-285.508C174.199,-289.272 192.358,-293.141 209,-295 246.103,-299.144 256.016,-300.094 293,-295 309.003,-292.796 399.448,-266.532 454.07,-250.436"/>
<polygon fill="midnightblue" stroke="midnightblue" points="455.226,-253.744 463.826,-247.556 453.244,-247.03 455.226,-253.744"/>
</g>
<!-- Node15 -->
<g id="node15" class="node"><title>Node15</title>
<g id="a_node15"><a xlink:href="../../d7/d24/rle__error_8c.html#af931d686cf3ca715c9b900527f0961c0" target="_top" xlink:title="rle_get_error">
<polygon fill="white" stroke="black" points="211.5,-266.5 211.5,-285.5 290.5,-285.5 290.5,-266.5 211.5,-266.5"/>
<text text-anchor="middle" x="251" y="-273.5" font-family="Helvetica,sans-Serif" font-size="10.00">rle_get_error</text>
</a>
</g>
</g>
<!-- Node14&#45;&gt;Node15 -->
<g id="edge22" class="edge"><title>Node14&#45;&gt;Node15</title>
<path fill="none" stroke="midnightblue" d="M173.328,-276C182.513,-276 192.128,-276 201.323,-276"/>
<polygon fill="midnightblue" stroke="midnightblue" points="201.481,-279.5 211.481,-276 201.481,-272.5 201.481,-279.5"/>
</g>
<!-- Node16 -->
<g id="node16" class="node"><title>Node16</title>
<g id="a_node16"><a xlink:href="../../db/d53/rle__getrow_8c.html#a619b27463c26e0a4a3d9648a9869ee52" target="_top" xlink:title="rle_get_setup">
<polygon fill="white" stroke="black" points="329,-342.5 329,-361.5 410,-361.5 410,-342.5 329,-342.5"/>
<text text-anchor="middle" x="369.5" y="-349.5" font-family="Helvetica,sans-Serif" font-size="10.00">rle_get_setup</text>
</a>
</g>
</g>
<!-- Node14&#45;&gt;Node16 -->
<g id="edge23" class="edge"><title>Node14&#45;&gt;Node16</title>
<path fill="none" stroke="midnightblue" d="M136.98,-285.629C152.577,-297.622 181.145,-317.775 209,-328 244.343,-340.975 286.557,-346.941 318.676,-349.681"/>
<polygon fill="midnightblue" stroke="midnightblue" points="318.487,-353.177 328.728,-350.462 319.029,-346.198 318.487,-353.177"/>
</g>
<!-- Node16&#45;&gt;Node5 -->
<g id="edge24" class="edge"><title>Node16&#45;&gt;Node5</title>
<path fill="none" stroke="midnightblue" d="M402.169,-361.589C418.073,-366.404 437.54,-372.299 454.611,-377.468"/>
<polygon fill="midnightblue" stroke="midnightblue" points="453.756,-380.866 464.341,-380.414 455.785,-374.166 453.756,-380.866"/>
</g>
<!-- Node16&#45;&gt;Node6 -->
<g id="edge27" class="edge"><title>Node16&#45;&gt;Node6</title>
<path fill="none" stroke="midnightblue" d="M410.21,-352.264C446.81,-351.46 502.225,-347.568 548,-333 564.385,-327.786 581.267,-318.378 594.112,-310.228"/>
<polygon fill="midnightblue" stroke="midnightblue" points="596.251,-313.01 602.686,-304.594 592.407,-307.16 596.251,-313.01"/>
</g>
<!-- Node16&#45;&gt;Node8 -->
<g id="edge26" class="edge"><title>Node16&#45;&gt;Node8</title>
<path fill="none" stroke="midnightblue" d="M387.892,-342.427C394.956,-338.287 403.069,-333.203 410,-328 427.358,-314.969 427.488,-306.332 446,-295 487.261,-269.743 506.19,-281.336 548,-257 567.184,-245.834 586.315,-229.179 599.376,-216.752"/>
<polygon fill="midnightblue" stroke="midnightblue" points="601.948,-219.133 606.669,-209.648 597.064,-214.118 601.948,-219.133"/>
</g>
<!-- Node16&#45;&gt;Node9 -->
<g id="edge25" class="edge"><title>Node16&#45;&gt;Node9</title>
<path fill="none" stroke="midnightblue" d="M390.862,-342.359C397.51,-338.539 404.571,-333.689 410,-328 433.069,-303.829 421.769,-285.007 446,-262 449.872,-258.324 454.413,-255.114 459.151,-252.341"/>
<polygon fill="midnightblue" stroke="midnightblue" points="461.125,-255.259 468.381,-247.539 457.894,-249.049 461.125,-255.259"/>
</g>
<!-- Node17 -->
<g id="node17" class="node"><title>Node17</title>
<g id="a_node17"><a xlink:href="../../db/d53/rle__getrow_8c.html#a0ea68aa2ebeef9d4cade7282553b03d6" target="_top" xlink:title="vax_gshort">
<polygon fill="white" stroke="black" points="462.5,-304.5 462.5,-323.5 531.5,-323.5 531.5,-304.5 462.5,-304.5"/>
<text text-anchor="middle" x="497" y="-311.5" font-family="Helvetica,sans-Serif" font-size="10.00">vax_gshort</text>
</a>
</g>
</g>
<!-- Node16&#45;&gt;Node17 -->
<g id="edge28" class="edge"><title>Node16&#45;&gt;Node17</title>
<path fill="none" stroke="midnightblue" d="M402.169,-342.411C418.073,-337.596 437.54,-331.701 454.611,-326.532"/>
<polygon fill="midnightblue" stroke="midnightblue" points="455.785,-329.834 464.341,-323.586 453.756,-323.134 455.785,-329.834"/>
</g>
<!-- Node19 -->
<g id="node19" class="node"><title>Node19</title>
<g id="a_node19"><a xlink:href="../../db/d53/rle__getrow_8c.html#a61ac0da96b0dd8bc3cbc98afcd9b5c44" target="_top" xlink:title="bfill">
<polygon fill="white" stroke="black" points="235,-57.5 235,-76.5 267,-76.5 267,-57.5 235,-57.5"/>
<text text-anchor="middle" x="251" y="-64.5" font-family="Helvetica,sans-Serif" font-size="10.00">bfill</text>
</a>
</g>
</g>
<!-- Node18&#45;&gt;Node19 -->
<g id="edge31" class="edge"><title>Node18&#45;&gt;Node19</title>
<path fill="none" stroke="midnightblue" d="M157.516,-52.9424C178.512,-56.1338 205.425,-60.2245 224.798,-63.1693"/>
<polygon fill="midnightblue" stroke="midnightblue" points="224.287,-66.6318 234.7,-64.6744 225.339,-59.7113 224.287,-66.6318"/>
</g>
<!-- Node20 -->
<g id="node20" class="node"><title>Node20</title>
<g id="a_node20"><a xlink:href="../../d8/d7c/rle__getskip_8c.html#af6b1e1dc0867e9340f90668591c7c5b3" target="_top" xlink:title="rle_getskip">
<polygon fill="white" stroke="black" points="217,-19.5 217,-38.5 285,-38.5 285,-19.5 217,-19.5"/>
<text text-anchor="middle" x="251" y="-26.5" font-family="Helvetica,sans-Serif" font-size="10.00">rle_getskip</text>
</a>
</g>
</g>
<!-- Node18&#45;&gt;Node20 -->
<g id="edge32" class="edge"><title>Node18&#45;&gt;Node20</title>
<path fill="none" stroke="midnightblue" d="M157.516,-43.0576C172.47,-40.7846 190.424,-38.0555 206.519,-35.6091"/>
<polygon fill="midnightblue" stroke="midnightblue" points="207.416,-39.013 216.777,-34.0499 206.364,-32.0925 207.416,-39.013"/>
</g>
</g>
</svg>
