<?xml version="1.0" encoding="UTF-8" standalone="no"?>
<!DOCTYPE svg PUBLIC "-//W3C//DTD SVG 1.1//EN"
 "http://www.w3.org/Graphics/SVG/1.1/DTD/svg11.dtd">
<!-- Generated by graphviz version 2.38.0 (20140413.2041)
 -->
<!-- Title: _urt_stack Pages: 1 -->
<svg width="96pt" height="106pt"
 viewBox="0.00 0.00 96.00 106.00" xmlns="http://www.w3.org/2000/svg" xmlns:xlink="http://www.w3.org/1999/xlink">
<g id="graph0" class="graph" transform="scale(1 1) rotate(0) translate(4 102)">
<title>_urt_stack</title>
<polygon fill="white" stroke="none" points="-4,4 -4,-102 92,-102 92,4 -4,4"/>
<!-- Node1 -->
<g id="node1" class="node"><title>Node1</title>
<polygon fill="#bfbfbf" stroke="black" points="14,-0.5 14,-19.5 79,-19.5 79,-0.5 14,-0.5"/>
<text text-anchor="middle" x="46.5" y="-7.5" font-family="Helvetica,sans-Serif" font-size="10.00">_urt_stack</text>
</g>
<!-- Node2 -->
<g id="node2" class="node"><title>Node2</title>
<polygon fill="white" stroke="#bfbfbf" points="0,-78.5 0,-97.5 41,-97.5 41,-78.5 0,-78.5"/>
<text text-anchor="middle" x="20.5" y="-85.5" font-family="Helvetica,sans-Serif" font-size="10.00">short</text>
</g>
<!-- Node2&#45;&gt;Node1 -->
<g id="edge1" class="edge"><title>Node2&#45;&gt;Node1</title>
<path fill="none" stroke="#9a32cd" stroke-dasharray="5,2" d="M26.7693,-68.6744C32.093,-53.1127 39.4964,-31.4722 43.5523,-19.6165"/>
<polygon fill="#9a32cd" stroke="#9a32cd" points="23.4079,-67.6873 23.4825,-78.2818 30.031,-69.9531 23.4079,-67.6873"/>
<text text-anchor="middle" x="42" y="-52" font-family="Helvetica,sans-Serif" font-size="10.00"> x</text>
<text text-anchor="middle" x="42" y="-41" font-family="Helvetica,sans-Serif" font-size="10.00">y</text>
</g>
<!-- Node3 -->
<g id="node3" class="node"><title>Node3</title>
<polygon fill="white" stroke="#bfbfbf" points="59,-78.5 59,-97.5 88,-97.5 88,-78.5 59,-78.5"/>
<text text-anchor="middle" x="73.5" y="-85.5" font-family="Helvetica,sans-Serif" font-size="10.00">int</text>
</g>
<!-- Node3&#45;&gt;Node1 -->
<g id="edge2" class="edge"><title>Node3&#45;&gt;Node1</title>
<path fill="none" stroke="#9a32cd" stroke-dasharray="5,2" d="M66.9896,-68.6744C61.4611,-53.1127 53.773,-31.4722 49.5611,-19.6165"/>
<polygon fill="#9a32cd" stroke="#9a32cd" points="63.757,-70.0305 70.4028,-78.2818 70.3531,-67.6871 63.757,-70.0305"/>
<text text-anchor="middle" x="70.5" y="-46.5" font-family="Helvetica,sans-Serif" font-size="10.00"> dir</text>
</g>
</g>
</svg>
