<?xml version="1.0" encoding="UTF-8" standalone="no"?>
<!DOCTYPE svg PUBLIC "-//W3C//DTD SVG 1.1//EN"
 "http://www.w3.org/Graphics/SVG/1.1/DTD/svg11.dtd">
<!-- Generated by graphviz version 2.38.0 (20140413.2041)
 -->
<!-- Title: pack_bits Pages: 1 -->
<svg width="264pt" height="28pt"
 viewBox="0.00 0.00 264.00 28.00" xmlns="http://www.w3.org/2000/svg" xmlns:xlink="http://www.w3.org/1999/xlink">
<g id="graph0" class="graph" transform="scale(1 1) rotate(0) translate(4 24)">
<title>pack_bits</title>
<polygon fill="white" stroke="none" points="-4,4 -4,-24 260,-24 260,4 -4,4"/>
<!-- Node1 -->
<g id="node1" class="node"><title>Node1</title>
<polygon fill="#bfbfbf" stroke="black" points="0,-0.5 0,-19.5 61,-19.5 61,-0.5 0,-0.5"/>
<text text-anchor="middle" x="30.5" y="-7.5" font-family="Helvetica,sans-Serif" font-size="10.00">pack_bits</text>
</g>
<!-- Node2 -->
<g id="node2" class="node"><title>Node2</title>
<g id="a_node2"><a xlink:href="../../d8/d5b/compgif_8c.html#a69af6ce234aea2e64e9d47d68928d939" target="_top" xlink:title="compgif">
<polygon fill="white" stroke="black" points="97,-0.5 97,-19.5 150,-19.5 150,-0.5 97,-0.5"/>
<text text-anchor="middle" x="123.5" y="-7.5" font-family="Helvetica,sans-Serif" font-size="10.00">compgif</text>
</a>
</g>
</g>
<!-- Node1&#45;&gt;Node2 -->
<g id="edge1" class="edge"><title>Node1&#45;&gt;Node2</title>
<path fill="none" stroke="midnightblue" d="M71.0586,-10C79.7711,-10 88.7792,-10 96.7756,-10"/>
<polygon fill="midnightblue" stroke="midnightblue" points="71.0451,-6.5001 61.0451,-10 71.0451,-13.5001 71.0451,-6.5001"/>
</g>
<!-- Node3 -->
<g id="node3" class="node"><title>Node3</title>
<g id="a_node3"><a xlink:href="../../d6/de6/gifencod_8c.html#a55f5152af2c1b50961405efdc844c5b8" target="_top" xlink:title="GIFEncode">
<polygon fill="white" stroke="black" points="186,-0.5 186,-19.5 256,-19.5 256,-0.5 186,-0.5"/>
<text text-anchor="middle" x="221" y="-7.5" font-family="Helvetica,sans-Serif" font-size="10.00">GIFEncode</text>
</a>
</g>
</g>
<!-- Node2&#45;&gt;Node3 -->
<g id="edge2" class="edge"><title>Node2&#45;&gt;Node3</title>
<path fill="none" stroke="midnightblue" d="M160.279,-10C168.607,-10 177.453,-10 185.714,-10"/>
<polygon fill="midnightblue" stroke="midnightblue" points="160.092,-6.5001 150.092,-10 160.092,-13.5001 160.092,-6.5001"/>
</g>
</g>
</svg>
