<?xml version="1.0" encoding="UTF-8" standalone="no"?>
<!DOCTYPE svg PUBLIC "-//W3C//DTD SVG 1.1//EN"
 "http://www.w3.org/Graphics/SVG/1.1/DTD/svg11.dtd">
<!-- Generated by graphviz version 2.38.0 (20140413.2041)
 -->
<!-- Title: compgif Pages: 1 -->
<svg width="276pt" height="180pt"
 viewBox="0.00 0.00 276.00 180.00" xmlns="http://www.w3.org/2000/svg" xmlns:xlink="http://www.w3.org/1999/xlink">
<g id="graph0" class="graph" transform="scale(1 1) rotate(0) translate(4 176)">
<title>compgif</title>
<polygon fill="white" stroke="none" points="-4,4 -4,-176 272,-176 272,4 -4,4"/>
<!-- Node1 -->
<g id="node1" class="node"><title>Node1</title>
<polygon fill="#bfbfbf" stroke="black" points="0,-76.5 0,-95.5 53,-95.5 53,-76.5 0,-76.5"/>
<text text-anchor="middle" x="26.5" y="-83.5" font-family="Helvetica,sans-Serif" font-size="10.00">compgif</text>
</g>
<!-- Node2 -->
<g id="node2" class="node"><title>Node2</title>
<g id="a_node2"><a xlink:href="../../d0/dcc/rletorla_8c.html#ab7e36af3707843f77cc5b4e831c2fa6d" target="_top" xlink:title="malloc">
<polygon fill="white" stroke="black" points="104.5,-152.5 104.5,-171.5 151.5,-171.5 151.5,-152.5 104.5,-152.5"/>
<text text-anchor="middle" x="128" y="-159.5" font-family="Helvetica,sans-Serif" font-size="10.00">malloc</text>
</a>
</g>
</g>
<!-- Node1&#45;&gt;Node2 -->
<g id="edge1" class="edge"><title>Node1&#45;&gt;Node2</title>
<path fill="none" stroke="midnightblue" d="M36.3694,-95.7799C47.7276,-107.916 68.4129,-128.747 89,-143 91.2533,-144.56 93.653,-146.067 96.1092,-147.505"/>
<polygon fill="midnightblue" stroke="midnightblue" points="94.6309,-150.684 105.091,-152.371 97.9656,-144.53 94.6309,-150.684"/>
</g>
<!-- Node3 -->
<g id="node3" class="node"><title>Node3</title>
<g id="a_node3"><a xlink:href="../../dc/d7b/aliastorle_8c.html#ac2c29217831f208a3b22bae552c5124f" target="_top" xlink:title="error">
<polygon fill="white" stroke="black" points="108,-114.5 108,-133.5 148,-133.5 148,-114.5 108,-114.5"/>
<text text-anchor="middle" x="128" y="-121.5" font-family="Helvetica,sans-Serif" font-size="10.00">error</text>
</a>
</g>
</g>
<!-- Node1&#45;&gt;Node3 -->
<g id="edge2" class="edge"><title>Node1&#45;&gt;Node3</title>
<path fill="none" stroke="midnightblue" d="M52.6081,-95.589C66.5473,-100.913 83.9394,-107.555 98.4014,-113.078"/>
<polygon fill="midnightblue" stroke="midnightblue" points="97.2763,-116.395 107.867,-116.693 99.7738,-109.855 97.2763,-116.395"/>
</g>
<!-- Node4 -->
<g id="node4" class="node"><title>Node4</title>
<g id="a_node4"><a xlink:href="../../d8/d5b/compgif_8c.html#a5bce724c39ad9212fa3e3d274a04a71e" target="_top" xlink:title="pack_bits">
<polygon fill="white" stroke="black" points="97.5,-76.5 97.5,-95.5 158.5,-95.5 158.5,-76.5 97.5,-76.5"/>
<text text-anchor="middle" x="128" y="-83.5" font-family="Helvetica,sans-Serif" font-size="10.00">pack_bits</text>
</a>
</g>
</g>
<!-- Node1&#45;&gt;Node4 -->
<g id="edge3" class="edge"><title>Node1&#45;&gt;Node4</title>
<path fill="none" stroke="midnightblue" d="M53.1237,-86C63.4396,-86 75.5816,-86 87.0086,-86"/>
<polygon fill="midnightblue" stroke="midnightblue" points="87.2289,-89.5001 97.2289,-86 87.2288,-82.5001 87.2289,-89.5001"/>
</g>
<!-- Node5 -->
<g id="node5" class="node"><title>Node5</title>
<g id="a_node5"><a xlink:href="../../d6/de6/gifencod_8c.html#a4a95e2074dc0902f87a79aa78544f331" target="_top" xlink:title="GIFNextPixel">
<polygon fill="white" stroke="black" points="89,-38.5 89,-57.5 167,-57.5 167,-38.5 89,-38.5"/>
<text text-anchor="middle" x="128" y="-45.5" font-family="Helvetica,sans-Serif" font-size="10.00">GIFNextPixel</text>
</a>
</g>
</g>
<!-- Node1&#45;&gt;Node5 -->
<g id="edge4" class="edge"><title>Node1&#45;&gt;Node5</title>
<path fill="none" stroke="midnightblue" d="M52.6081,-76.411C64.6277,-71.8206 79.2147,-66.2497 92.2765,-61.2612"/>
<polygon fill="midnightblue" stroke="midnightblue" points="93.8068,-64.4234 101.9,-57.5859 91.3093,-57.8841 93.8068,-64.4234"/>
</g>
<!-- Node7 -->
<g id="node7" class="node"><title>Node7</title>
<g id="a_node7"><a xlink:href="../../d0/dcc/rletorla_8c.html#aafde19f7d36ca163a143579c1b125b6d" target="_top" xlink:title="free">
<polygon fill="white" stroke="black" points="110.5,-0.5 110.5,-19.5 145.5,-19.5 145.5,-0.5 110.5,-0.5"/>
<text text-anchor="middle" x="128" y="-7.5" font-family="Helvetica,sans-Serif" font-size="10.00">free</text>
</a>
</g>
</g>
<!-- Node1&#45;&gt;Node7 -->
<g id="edge6" class="edge"><title>Node1&#45;&gt;Node7</title>
<path fill="none" stroke="midnightblue" d="M36.3694,-76.2201C47.7276,-64.084 68.4129,-43.2526 89,-29 92.7865,-26.3786 96.9864,-23.9057 101.173,-21.6647"/>
<polygon fill="midnightblue" stroke="midnightblue" points="102.781,-24.7739 110.15,-17.1619 99.6424,-18.5168 102.781,-24.7739"/>
</g>
<!-- Node6 -->
<g id="node6" class="node"><title>Node6</title>
<g id="a_node6"><a xlink:href="../../d6/de6/gifencod_8c.html#aae9f3e0fe5d3e4d2b49cd4dc21222ee8" target="_top" xlink:title="BumpPixel">
<polygon fill="white" stroke="black" points="203,-38.5 203,-57.5 268,-57.5 268,-38.5 203,-38.5"/>
<text text-anchor="middle" x="235.5" y="-45.5" font-family="Helvetica,sans-Serif" font-size="10.00">BumpPixel</text>
</a>
</g>
</g>
<!-- Node5&#45;&gt;Node6 -->
<g id="edge5" class="edge"><title>Node5&#45;&gt;Node6</title>
<path fill="none" stroke="midnightblue" d="M167.088,-48C175.396,-48 184.232,-48 192.676,-48"/>
<polygon fill="midnightblue" stroke="midnightblue" points="192.721,-51.5001 202.721,-48 192.721,-44.5001 192.721,-51.5001"/>
</g>
</g>
</svg>
