<?xml version="1.0" encoding="UTF-8" standalone="no"?>
<!DOCTYPE svg PUBLIC "-//W3C//DTD SVG 1.1//EN"
 "http://www.w3.org/Graphics/SVG/1.1/DTD/svg11.dtd">
<!-- Generated by graphviz version 2.38.0 (20140413.2041)
 -->
<!-- Title: cnv/rletogif/rletogif.c Pages: 1 -->
<svg width="172pt" height="196pt"
 viewBox="0.00 0.00 172.00 196.00" xmlns="http://www.w3.org/2000/svg" xmlns:xlink="http://www.w3.org/1999/xlink">
<g id="graph0" class="graph" transform="scale(1 1) rotate(0) translate(4 192)">
<title>cnv/rletogif/rletogif.c</title>
<polygon fill="white" stroke="none" points="-4,4 -4,-192 168,-192 168,4 -4,4"/>
<!-- Node1 -->
<g id="node1" class="node"><title>Node1</title>
<polygon fill="#bfbfbf" stroke="black" points="15,-168.5 15,-187.5 126,-187.5 126,-168.5 15,-168.5"/>
<text text-anchor="middle" x="70.5" y="-175.5" font-family="Helvetica,sans-Serif" font-size="10.00">cnv/rletogif/rletogif.c</text>
</g>
<!-- Node2 -->
<g id="node2" class="node"><title>Node2</title>
<polygon fill="white" stroke="#bfbfbf" points="0,-56.5 0,-75.5 47,-75.5 47,-56.5 0,-56.5"/>
<text text-anchor="middle" x="23.5" y="-63.5" font-family="Helvetica,sans-Serif" font-size="10.00">stdio.h</text>
</g>
<!-- Node1&#45;&gt;Node2 -->
<g id="edge1" class="edge"><title>Node1&#45;&gt;Node2</title>
<path fill="none" stroke="midnightblue" d="M64.176,-168.432C57.9448,-159.658 48.5098,-145.44 42.5,-132 35.751,-116.907 30.6834,-98.782 27.4865,-85.5104"/>
<polygon fill="midnightblue" stroke="midnightblue" points="30.8801,-84.649 25.2453,-75.6768 24.0551,-86.2046 30.8801,-84.649"/>
</g>
<!-- Node3 -->
<g id="node3" class="node"><title>Node3</title>
<g id="a_node3"><a xlink:href="../../d7/d27/rle_8h.html" target="_top" xlink:title="rle.h">
<polygon fill="white" stroke="black" points="52,-112.5 52,-131.5 89,-131.5 89,-112.5 52,-112.5"/>
<text text-anchor="middle" x="70.5" y="-119.5" font-family="Helvetica,sans-Serif" font-size="10.00">rle.h</text>
</a>
</g>
</g>
<!-- Node1&#45;&gt;Node3 -->
<g id="edge2" class="edge"><title>Node1&#45;&gt;Node3</title>
<path fill="none" stroke="midnightblue" d="M70.5,-168.083C70.5,-161.006 70.5,-150.861 70.5,-141.986"/>
<polygon fill="midnightblue" stroke="midnightblue" points="74.0001,-141.751 70.5,-131.751 67.0001,-141.751 74.0001,-141.751"/>
</g>
<!-- Node7 -->
<g id="node7" class="node"><title>Node7</title>
<g id="a_node7"><a xlink:href="../../dc/d05/rletogif_8h.html" target="_top" xlink:title="rletogif.h">
<polygon fill="white" stroke="black" points="107,-112.5 107,-131.5 164,-131.5 164,-112.5 107,-112.5"/>
<text text-anchor="middle" x="135.5" y="-119.5" font-family="Helvetica,sans-Serif" font-size="10.00">rletogif.h</text>
</a>
</g>
</g>
<!-- Node1&#45;&gt;Node7 -->
<g id="edge7" class="edge"><title>Node1&#45;&gt;Node7</title>
<path fill="none" stroke="midnightblue" d="M80.9434,-168.324C90.6462,-160.263 105.315,-148.077 117,-138.369"/>
<polygon fill="midnightblue" stroke="midnightblue" points="119.411,-140.916 124.867,-131.834 114.938,-135.532 119.411,-140.916"/>
</g>
<!-- Node3&#45;&gt;Node2 -->
<g id="edge6" class="edge"><title>Node3&#45;&gt;Node2</title>
<path fill="none" stroke="midnightblue" d="M62.7389,-112.083C55.9632,-104.298 45.9568,-92.8015 37.7449,-83.3665"/>
<polygon fill="midnightblue" stroke="midnightblue" points="40.322,-80.9963 31.1167,-75.7511 35.0419,-85.592 40.322,-80.9963"/>
</g>
<!-- Node4 -->
<g id="node4" class="node"><title>Node4</title>
<g id="a_node4"><a xlink:href="../../df/dad/rle__config_8h.html" target="_top" xlink:title="rle_config.h">
<polygon fill="white" stroke="black" points="65,-56.5 65,-75.5 136,-75.5 136,-56.5 65,-56.5"/>
<text text-anchor="middle" x="100.5" y="-63.5" font-family="Helvetica,sans-Serif" font-size="10.00">rle_config.h</text>
</a>
</g>
</g>
<!-- Node3&#45;&gt;Node4 -->
<g id="edge3" class="edge"><title>Node3&#45;&gt;Node4</title>
<path fill="none" stroke="midnightblue" d="M75.4539,-112.083C79.6041,-104.613 85.6531,-93.7244 90.7667,-84.5199"/>
<polygon fill="midnightblue" stroke="midnightblue" points="93.8414,-86.1924 95.6383,-75.7511 87.7223,-82.7929 93.8414,-86.1924"/>
</g>
<!-- Node5 -->
<g id="node5" class="node"><title>Node5</title>
<polygon fill="white" stroke="#bfbfbf" points="42,-0.5 42,-19.5 91,-19.5 91,-0.5 42,-0.5"/>
<text text-anchor="middle" x="66.5" y="-7.5" font-family="Helvetica,sans-Serif" font-size="10.00">stdlib.h</text>
</g>
<!-- Node4&#45;&gt;Node5 -->
<g id="edge4" class="edge"><title>Node4&#45;&gt;Node5</title>
<path fill="none" stroke="midnightblue" d="M94.8856,-56.083C90.1326,-48.5341 83.1819,-37.4948 77.3484,-28.2298"/>
<polygon fill="midnightblue" stroke="midnightblue" points="80.2999,-26.3486 72.0099,-19.7511 74.3763,-30.0783 80.2999,-26.3486"/>
</g>
<!-- Node6 -->
<g id="node6" class="node"><title>Node6</title>
<polygon fill="white" stroke="#bfbfbf" points="109,-0.5 109,-19.5 160,-19.5 160,-0.5 109,-0.5"/>
<text text-anchor="middle" x="134.5" y="-7.5" font-family="Helvetica,sans-Serif" font-size="10.00">string.h</text>
</g>
<!-- Node4&#45;&gt;Node6 -->
<g id="edge5" class="edge"><title>Node4&#45;&gt;Node6</title>
<path fill="none" stroke="midnightblue" d="M106.114,-56.083C110.867,-48.5341 117.818,-37.4948 123.652,-28.2298"/>
<polygon fill="midnightblue" stroke="midnightblue" points="126.624,-30.0783 128.99,-19.7511 120.7,-26.3486 126.624,-30.0783"/>
</g>
</g>
</svg>
