<?xml version="1.0" encoding="UTF-8" standalone="no"?>
<!DOCTYPE svg PUBLIC "-//W3C//DTD SVG 1.1//EN"
 "http://www.w3.org/Graphics/SVG/1.1/DTD/svg11.dtd">
<!-- Generated by graphviz version 2.38.0 (20140413.2041)
 -->
<!-- Title: qcr.h Pages: 1 -->
<svg width="186pt" height="84pt"
 viewBox="0.00 0.00 185.50 84.00" xmlns="http://www.w3.org/2000/svg" xmlns:xlink="http://www.w3.org/1999/xlink">
<g id="graph0" class="graph" transform="scale(1 1) rotate(0) translate(4 80)">
<title>qcr.h</title>
<polygon fill="white" stroke="none" points="-4,4 -4,-80 181.5,-80 181.5,4 -4,4"/>
<!-- Node1 -->
<g id="node1" class="node"><title>Node1</title>
<polygon fill="#bfbfbf" stroke="black" points="70,-56.5 70,-75.5 110,-75.5 110,-56.5 70,-56.5"/>
<text text-anchor="middle" x="90" y="-63.5" font-family="Helvetica,sans-Serif" font-size="10.00">qcr.h</text>
</g>
<!-- Node2 -->
<g id="node2" class="node"><title>Node2</title>
<polygon fill="white" stroke="#bfbfbf" points="0,-0.5 0,-19.5 50,-19.5 50,-0.5 0,-0.5"/>
<text text-anchor="middle" x="25" y="-7.5" font-family="Helvetica,sans-Serif" font-size="10.00">errno.h</text>
</g>
<!-- Node1&#45;&gt;Node2 -->
<g id="edge1" class="edge"><title>Node1&#45;&gt;Node2</title>
<path fill="none" stroke="midnightblue" d="M79.5566,-56.324C69.8538,-48.2631 55.1847,-36.0765 43.5003,-26.3695"/>
<polygon fill="midnightblue" stroke="midnightblue" points="45.5619,-23.532 35.6334,-19.8339 41.0887,-28.9163 45.5619,-23.532"/>
</g>
<!-- Node3 -->
<g id="node3" class="node"><title>Node3</title>
<polygon fill="white" stroke="#bfbfbf" points="68,-0.5 68,-19.5 112,-19.5 112,-0.5 68,-0.5"/>
<text text-anchor="middle" x="90" y="-7.5" font-family="Helvetica,sans-Serif" font-size="10.00">fcntl.h</text>
</g>
<!-- Node1&#45;&gt;Node3 -->
<g id="edge2" class="edge"><title>Node1&#45;&gt;Node3</title>
<path fill="none" stroke="midnightblue" d="M90,-56.083C90,-49.0059 90,-38.8611 90,-29.9865"/>
<polygon fill="midnightblue" stroke="midnightblue" points="93.5001,-29.751 90,-19.7511 86.5001,-29.7511 93.5001,-29.751"/>
</g>
<!-- Node4 -->
<g id="node4" class="node"><title>Node4</title>
<polygon fill="white" stroke="#bfbfbf" points="130.5,-0.5 130.5,-19.5 177.5,-19.5 177.5,-0.5 130.5,-0.5"/>
<text text-anchor="middle" x="154" y="-7.5" font-family="Helvetica,sans-Serif" font-size="10.00">stdio.h</text>
</g>
<!-- Node1&#45;&gt;Node4 -->
<g id="edge3" class="edge"><title>Node1&#45;&gt;Node4</title>
<path fill="none" stroke="midnightblue" d="M100.283,-56.324C109.836,-48.2631 124.28,-36.0765 135.784,-26.3695"/>
<polygon fill="midnightblue" stroke="midnightblue" points="138.144,-28.9577 143.53,-19.8339 133.63,-23.6076 138.144,-28.9577"/>
</g>
</g>
</svg>
