<?xml version="1.0" encoding="UTF-8" standalone="no"?>
<!DOCTYPE svg PUBLIC "-//W3C//DTD SVG 1.1//EN"
 "http://www.w3.org/Graphics/SVG/1.1/DTD/svg11.dtd">
<!-- Generated by graphviz version 2.38.0 (20140413.2041)
 -->
<!-- Title: index Pages: 1 -->
<svg width="247pt" height="142pt"
 viewBox="0.00 0.00 247.00 142.00" xmlns="http://www.w3.org/2000/svg" xmlns:xlink="http://www.w3.org/1999/xlink">
<g id="graph0" class="graph" transform="scale(1 1) rotate(0) translate(4 138)">
<title>index</title>
<polygon fill="white" stroke="none" points="-4,4 -4,-138 243,-138 243,4 -4,4"/>
<!-- Node1 -->
<g id="node1" class="node"><title>Node1</title>
<polygon fill="#bfbfbf" stroke="black" points="0,-57.5 0,-76.5 42,-76.5 42,-57.5 0,-57.5"/>
<text text-anchor="middle" x="21" y="-64.5" font-family="Helvetica,sans-Serif" font-size="10.00">index</text>
</g>
<!-- Node2 -->
<g id="node2" class="node"><title>Node2</title>
<g id="a_node2"><a xlink:href="../../dc/d53/getopt_8c.html#a1484840539d6adef4a97ad6e239458ea" target="_top" xlink:title="getopt">
<polygon fill="white" stroke="black" points="97.5,-114.5 97.5,-133.5 144.5,-133.5 144.5,-114.5 97.5,-114.5"/>
<text text-anchor="middle" x="121" y="-121.5" font-family="Helvetica,sans-Serif" font-size="10.00">getopt</text>
</a>
</g>
</g>
<!-- Node1&#45;&gt;Node2 -->
<g id="edge1" class="edge"><title>Node1&#45;&gt;Node2</title>
<path fill="none" stroke="midnightblue" d="M43.2527,-82.6861C53.4924,-89.9116 66.1071,-98.3395 78,-105 84.1447,-108.441 91.0278,-111.762 97.4156,-114.638"/>
<polygon fill="midnightblue" stroke="midnightblue" points="45.108,-79.7094 34.9434,-76.7205 41.0255,-85.3957 45.108,-79.7094"/>
</g>
<!-- Node4 -->
<g id="node4" class="node"><title>Node4</title>
<g id="a_node4"><a xlink:href="../../d5/d6d/mcut_8c.html#ab96b467c1eea590ea2f35a09031fe59e" target="_top" xlink:title="make_rle_map">
<polygon fill="white" stroke="black" points="78,-76.5 78,-95.5 164,-95.5 164,-76.5 78,-76.5"/>
<text text-anchor="middle" x="121" y="-83.5" font-family="Helvetica,sans-Serif" font-size="10.00">make_rle_map</text>
</a>
</g>
</g>
<!-- Node1&#45;&gt;Node4 -->
<g id="edge3" class="edge"><title>Node1&#45;&gt;Node4</title>
<path fill="none" stroke="midnightblue" d="M52.3736,-72.8888C60.4488,-74.4544 69.3169,-76.1737 77.8971,-77.8372"/>
<polygon fill="midnightblue" stroke="midnightblue" points="52.7891,-69.4042 42.3057,-70.9368 51.4567,-76.2762 52.7891,-69.4042"/>
</g>
<!-- Node6 -->
<g id="node6" class="node"><title>Node6</title>
<g id="a_node6"><a xlink:href="../../d1/d2c/rlehdr_8c.html#a95ac9307244439a0e7fe8b4a2cd2ecf9" target="_top" xlink:title="print_brief_hdr">
<polygon fill="white" stroke="black" points="78,-38.5 78,-57.5 164,-57.5 164,-38.5 78,-38.5"/>
<text text-anchor="middle" x="121" y="-45.5" font-family="Helvetica,sans-Serif" font-size="10.00">print_brief_hdr</text>
</a>
</g>
</g>
<!-- Node1&#45;&gt;Node6 -->
<g id="edge5" class="edge"><title>Node1&#45;&gt;Node6</title>
<path fill="none" stroke="midnightblue" d="M52.3736,-61.1112C60.4488,-59.5456 69.3169,-57.8263 77.8971,-56.1628"/>
<polygon fill="midnightblue" stroke="midnightblue" points="51.4567,-57.7238 42.3057,-63.0632 52.7891,-64.5958 51.4567,-57.7238"/>
</g>
<!-- Node7 -->
<g id="node7" class="node"><title>Node7</title>
<g id="a_node7"><a xlink:href="../../dc/dd0/rletoascii_8c.html#ade521a0600ded19f1720b6f6df59b480" target="_top" xlink:title="main">
<polygon fill="white" stroke="black" points="101.5,-0.5 101.5,-19.5 140.5,-19.5 140.5,-0.5 101.5,-0.5"/>
<text text-anchor="middle" x="121" y="-7.5" font-family="Helvetica,sans-Serif" font-size="10.00">main</text>
</a>
</g>
</g>
<!-- Node1&#45;&gt;Node7 -->
<g id="edge6" class="edge"><title>Node1&#45;&gt;Node7</title>
<path fill="none" stroke="midnightblue" d="M43.2527,-51.3139C53.4924,-44.0884 66.1071,-35.6605 78,-29 85.4016,-24.8548 93.8745,-20.8849 101.263,-17.6557"/>
<polygon fill="midnightblue" stroke="midnightblue" points="41.0255,-48.6043 34.9434,-57.2795 45.108,-54.2906 41.0255,-48.6043"/>
</g>
<!-- Node3 -->
<g id="node3" class="node"><title>Node3</title>
<g id="a_node3"><a xlink:href="../../df/d17/dvirle1_8c.html#a70db8bd1d499619f7ff9c1ca2ff3c8df" target="_top" xlink:title="main">
<polygon fill="white" stroke="black" points="200,-114.5 200,-133.5 239,-133.5 239,-114.5 200,-114.5"/>
<text text-anchor="middle" x="219.5" y="-121.5" font-family="Helvetica,sans-Serif" font-size="10.00">main</text>
</a>
</g>
</g>
<!-- Node2&#45;&gt;Node3 -->
<g id="edge2" class="edge"><title>Node2&#45;&gt;Node3</title>
<path fill="none" stroke="midnightblue" d="M155.297,-124C170.264,-124 187.361,-124 199.996,-124"/>
<polygon fill="midnightblue" stroke="midnightblue" points="154.869,-120.5 144.869,-124 154.869,-127.5 154.869,-120.5"/>
</g>
<!-- Node5 -->
<g id="node5" class="node"><title>Node5</title>
<g id="a_node5"><a xlink:href="../../d5/d6d/mcut_8c.html#a70db8bd1d499619f7ff9c1ca2ff3c8df" target="_top" xlink:title="main">
<polygon fill="white" stroke="black" points="200,-76.5 200,-95.5 239,-95.5 239,-76.5 200,-76.5"/>
<text text-anchor="middle" x="219.5" y="-83.5" font-family="Helvetica,sans-Serif" font-size="10.00">main</text>
</a>
</g>
</g>
<!-- Node4&#45;&gt;Node5 -->
<g id="edge4" class="edge"><title>Node4&#45;&gt;Node5</title>
<path fill="none" stroke="midnightblue" d="M174.268,-86C183.311,-86 192.165,-86 199.546,-86"/>
<polygon fill="midnightblue" stroke="midnightblue" points="174.046,-82.5001 164.046,-86 174.046,-89.5001 174.046,-82.5001"/>
</g>
</g>
</svg>
