<?xml version="1.0" encoding="UTF-8" standalone="no"?>
<!DOCTYPE svg PUBLIC "-//W3C//DTD SVG 1.1//EN"
 "http://www.w3.org/Graphics/SVG/1.1/DTD/svg11.dtd">
<!-- Generated by graphviz version 2.38.0 (20140413.2041)
 -->
<!-- Title: get/next/Image.h Pages: 1 -->
<svg width="385pt" height="140pt"
 viewBox="0.00 0.00 384.50 140.00" xmlns="http://www.w3.org/2000/svg" xmlns:xlink="http://www.w3.org/1999/xlink">
<g id="graph0" class="graph" transform="scale(1 1) rotate(0) translate(4 136)">
<title>get/next/Image.h</title>
<polygon fill="white" stroke="none" points="-4,4 -4,-136 380.5,-136 380.5,4 -4,4"/>
<!-- Node1 -->
<g id="node1" class="node"><title>Node1</title>
<polygon fill="#bfbfbf" stroke="black" points="111.5,-112.5 111.5,-131.5 206.5,-131.5 206.5,-112.5 111.5,-112.5"/>
<text text-anchor="middle" x="159" y="-119.5" font-family="Helvetica,sans-Serif" font-size="10.00">get/next/Image.h</text>
</g>
<!-- Node2 -->
<g id="node2" class="node"><title>Node2</title>
<g id="a_node2"><a xlink:href="../../d9/d45/Image_8m.html" target="_top" xlink:title="get/next/Image.m">
<polygon fill="white" stroke="black" points="0,-56.5 0,-75.5 98,-75.5 98,-56.5 0,-56.5"/>
<text text-anchor="middle" x="49" y="-63.5" font-family="Helvetica,sans-Serif" font-size="10.00">get/next/Image.m</text>
</a>
</g>
</g>
<!-- Node1&#45;&gt;Node2 -->
<g id="edge1" class="edge"><title>Node1&#45;&gt;Node2</title>
<path fill="none" stroke="midnightblue" d="M132.238,-107.862C111.841,-97.8492 84.3341,-84.3458 66.6295,-75.6545"/>
<polygon fill="midnightblue" stroke="midnightblue" points="130.808,-111.059 141.327,-112.324 133.892,-104.775 130.808,-111.059"/>
</g>
<!-- Node3 -->
<g id="node3" class="node"><title>Node3</title>
<g id="a_node3"><a xlink:href="../../d8/d0f/RLE_8h.html" target="_top" xlink:title="get/next/RLE.h">
<polygon fill="white" stroke="black" points="116,-56.5 116,-75.5 202,-75.5 202,-56.5 116,-56.5"/>
<text text-anchor="middle" x="159" y="-63.5" font-family="Helvetica,sans-Serif" font-size="10.00">get/next/RLE.h</text>
</a>
</g>
</g>
<!-- Node1&#45;&gt;Node3 -->
<g id="edge2" class="edge"><title>Node1&#45;&gt;Node3</title>
<path fill="none" stroke="midnightblue" d="M159,-101.805C159,-92.9102 159,-82.7798 159,-75.7511"/>
<polygon fill="midnightblue" stroke="midnightblue" points="155.5,-102.083 159,-112.083 162.5,-102.083 155.5,-102.083"/>
</g>
<!-- Node6 -->
<g id="node6" class="node"><title>Node6</title>
<g id="a_node6"><a xlink:href="../../d6/daf/RASF_8h.html" target="_top" xlink:title="get/next/RASF.h">
<polygon fill="white" stroke="black" points="220.5,-56.5 220.5,-75.5 313.5,-75.5 313.5,-56.5 220.5,-56.5"/>
<text text-anchor="middle" x="267" y="-63.5" font-family="Helvetica,sans-Serif" font-size="10.00">get/next/RASF.h</text>
</a>
</g>
</g>
<!-- Node1&#45;&gt;Node6 -->
<g id="edge5" class="edge"><title>Node1&#45;&gt;Node6</title>
<path fill="none" stroke="midnightblue" d="M185.548,-107.726C205.546,-97.7271 232.387,-84.3065 249.691,-75.6545"/>
<polygon fill="midnightblue" stroke="midnightblue" points="183.731,-104.721 176.352,-112.324 186.862,-110.982 183.731,-104.721"/>
</g>
<!-- Node4 -->
<g id="node4" class="node"><title>Node4</title>
<g id="a_node4"><a xlink:href="../../d9/d10/Myapp_8m.html" target="_top" xlink:title="get/next/Myapp.m">
<polygon fill="white" stroke="black" points="162.5,-0.5 162.5,-19.5 263.5,-19.5 263.5,-0.5 162.5,-0.5"/>
<text text-anchor="middle" x="213" y="-7.5" font-family="Helvetica,sans-Serif" font-size="10.00">get/next/Myapp.m</text>
</a>
</g>
</g>
<!-- Node3&#45;&gt;Node4 -->
<g id="edge3" class="edge"><title>Node3&#45;&gt;Node4</title>
<path fill="none" stroke="midnightblue" d="M174.998,-49.0024C184.567,-39.4329 196.361,-27.6389 204.249,-19.7511"/>
<polygon fill="midnightblue" stroke="midnightblue" points="172.513,-46.537 167.917,-56.083 177.463,-51.4868 172.513,-46.537"/>
</g>
<!-- Node5 -->
<g id="node5" class="node"><title>Node5</title>
<g id="a_node5"><a xlink:href="../../dc/db3/RLE_8m.html" target="_top" xlink:title="get/next/RLE.m">
<polygon fill="white" stroke="black" points="55.5,-0.5 55.5,-19.5 144.5,-19.5 144.5,-0.5 55.5,-0.5"/>
<text text-anchor="middle" x="100" y="-7.5" font-family="Helvetica,sans-Serif" font-size="10.00">get/next/RLE.m</text>
</a>
</g>
</g>
<!-- Node3&#45;&gt;Node5 -->
<g id="edge4" class="edge"><title>Node3&#45;&gt;Node5</title>
<path fill="none" stroke="midnightblue" d="M142.105,-49.5372C131.585,-39.9087 118.431,-27.8694 109.652,-19.8339"/>
<polygon fill="midnightblue" stroke="midnightblue" points="139.781,-52.1542 149.521,-56.324 144.507,-46.9905 139.781,-52.1542"/>
</g>
<!-- Node6&#45;&gt;Node4 -->
<g id="edge6" class="edge"><title>Node6&#45;&gt;Node4</title>
<path fill="none" stroke="midnightblue" d="M251.002,-49.0024C241.433,-39.4329 229.639,-27.6389 221.751,-19.7511"/>
<polygon fill="midnightblue" stroke="midnightblue" points="248.537,-51.4868 258.083,-56.083 253.487,-46.537 248.537,-51.4868"/>
</g>
<!-- Node7 -->
<g id="node7" class="node"><title>Node7</title>
<g id="a_node7"><a xlink:href="../../d8/d95/RASF_8m.html" target="_top" xlink:title="get/next/RASF.m">
<polygon fill="white" stroke="black" points="281.5,-0.5 281.5,-19.5 376.5,-19.5 376.5,-0.5 281.5,-0.5"/>
<text text-anchor="middle" x="329" y="-7.5" font-family="Helvetica,sans-Serif" font-size="10.00">get/next/RASF.m</text>
</a>
</g>
</g>
<!-- Node6&#45;&gt;Node7 -->
<g id="edge7" class="edge"><title>Node6&#45;&gt;Node7</title>
<path fill="none" stroke="midnightblue" d="M284.754,-49.5372C295.808,-39.9087 309.631,-27.8694 318.857,-19.8339"/>
<polygon fill="midnightblue" stroke="midnightblue" points="282.203,-47.1168 276.961,-56.324 286.801,-52.3954 282.203,-47.1168"/>
</g>
</g>
</svg>
