<?xml version="1.0" encoding="UTF-8" standalone="no"?>
<!DOCTYPE svg PUBLIC "-//W3C//DTD SVG 1.1//EN"
 "http://www.w3.org/Graphics/SVG/1.1/DTD/svg11.dtd">
<!-- Generated by graphviz version 2.38.0 (20140413.2041)
 -->
<!-- Title: Image.h Pages: 1 -->
<svg width="237pt" height="140pt"
 viewBox="0.00 0.00 236.50 140.00" xmlns="http://www.w3.org/2000/svg" xmlns:xlink="http://www.w3.org/1999/xlink">
<g id="graph0" class="graph" transform="scale(1 1) rotate(0) translate(4 136)">
<title>Image.h</title>
<polygon fill="white" stroke="none" points="-4,4 -4,-136 232.5,-136 232.5,4 -4,4"/>
<!-- Node1 -->
<g id="node1" class="node"><title>Node1</title>
<polygon fill="#bfbfbf" stroke="black" points="73,-112.5 73,-131.5 127,-131.5 127,-112.5 73,-112.5"/>
<text text-anchor="middle" x="100" y="-119.5" font-family="Helvetica,sans-Serif" font-size="10.00">Image.h</text>
</g>
<!-- Node2 -->
<g id="node2" class="node"><title>Node2</title>
<g id="a_node2"><a xlink:href="../../d9/d45/Image_8m.html" target="_top" xlink:title="Image.m">
<polygon fill="white" stroke="black" points="0,-56.5 0,-75.5 56,-75.5 56,-56.5 0,-56.5"/>
<text text-anchor="middle" x="28" y="-63.5" font-family="Helvetica,sans-Serif" font-size="10.00">Image.m</text>
</a>
</g>
</g>
<!-- Node1&#45;&gt;Node2 -->
<g id="edge1" class="edge"><title>Node1&#45;&gt;Node2</title>
<path fill="none" stroke="midnightblue" d="M80.1343,-106.101C67.1765,-96.3824 50.7026,-84.0269 39.7785,-75.8339"/>
<polygon fill="midnightblue" stroke="midnightblue" points="78.3319,-109.124 88.432,-112.324 82.5319,-103.524 78.3319,-109.124"/>
</g>
<!-- Node3 -->
<g id="node3" class="node"><title>Node3</title>
<g id="a_node3"><a xlink:href="../../d6/daf/RASF_8h.html" target="_top" xlink:title="RASF.h">
<polygon fill="white" stroke="black" points="74,-56.5 74,-75.5 126,-75.5 126,-56.5 74,-56.5"/>
<text text-anchor="middle" x="100" y="-63.5" font-family="Helvetica,sans-Serif" font-size="10.00">RASF.h</text>
</a>
</g>
</g>
<!-- Node1&#45;&gt;Node3 -->
<g id="edge2" class="edge"><title>Node1&#45;&gt;Node3</title>
<path fill="none" stroke="midnightblue" d="M100,-101.805C100,-92.9102 100,-82.7798 100,-75.7511"/>
<polygon fill="midnightblue" stroke="midnightblue" points="96.5001,-102.083 100,-112.083 103.5,-102.083 96.5001,-102.083"/>
</g>
<!-- Node6 -->
<g id="node6" class="node"><title>Node6</title>
<g id="a_node6"><a xlink:href="../../d8/d0f/RLE_8h.html" target="_top" xlink:title="RLE.h">
<polygon fill="white" stroke="black" points="144.5,-56.5 144.5,-75.5 189.5,-75.5 189.5,-56.5 144.5,-56.5"/>
<text text-anchor="middle" x="167" y="-63.5" font-family="Helvetica,sans-Serif" font-size="10.00">RLE.h</text>
</a>
</g>
</g>
<!-- Node1&#45;&gt;Node6 -->
<g id="edge5" class="edge"><title>Node1&#45;&gt;Node6</title>
<path fill="none" stroke="midnightblue" d="M118.835,-105.82C130.838,-96.1452 145.972,-83.9481 156.039,-75.8339"/>
<polygon fill="midnightblue" stroke="midnightblue" points="116.354,-103.324 110.765,-112.324 120.747,-108.774 116.354,-103.324"/>
</g>
<!-- Node4 -->
<g id="node4" class="node"><title>Node4</title>
<g id="a_node4"><a xlink:href="../../d9/d10/Myapp_8m.html" target="_top" xlink:title="Myapp.m">
<polygon fill="white" stroke="black" points="104.5,-0.5 104.5,-19.5 163.5,-19.5 163.5,-0.5 104.5,-0.5"/>
<text text-anchor="middle" x="134" y="-7.5" font-family="Helvetica,sans-Serif" font-size="10.00">Myapp.m</text>
</a>
</g>
</g>
<!-- Node3&#45;&gt;Node4 -->
<g id="edge3" class="edge"><title>Node3&#45;&gt;Node4</title>
<path fill="none" stroke="midnightblue" d="M110.977,-47.5656C116.827,-38.2747 123.77,-27.2484 128.49,-19.7511"/>
<polygon fill="midnightblue" stroke="midnightblue" points="107.981,-45.7558 105.614,-56.083 113.904,-49.4855 107.981,-45.7558"/>
</g>
<!-- Node5 -->
<g id="node5" class="node"><title>Node5</title>
<g id="a_node5"><a xlink:href="../../d8/d95/RASF_8m.html" target="_top" xlink:title="RASF.m">
<polygon fill="white" stroke="black" points="32,-0.5 32,-19.5 86,-19.5 86,-0.5 32,-0.5"/>
<text text-anchor="middle" x="59" y="-7.5" font-family="Helvetica,sans-Serif" font-size="10.00">RASF.m</text>
</a>
</g>
</g>
<!-- Node3&#45;&gt;Node5 -->
<g id="edge4" class="edge"><title>Node3&#45;&gt;Node5</title>
<path fill="none" stroke="midnightblue" d="M86.9828,-47.8554C79.8833,-38.5048 71.396,-27.3265 65.6443,-19.7511"/>
<polygon fill="midnightblue" stroke="midnightblue" points="84.395,-50.235 93.2297,-56.083 89.9701,-46.002 84.395,-50.235"/>
</g>
<!-- Node6&#45;&gt;Node4 -->
<g id="edge6" class="edge"><title>Node6&#45;&gt;Node4</title>
<path fill="none" stroke="midnightblue" d="M156.168,-47.2747C150.528,-38.0454 143.882,-27.1703 139.348,-19.7511"/>
<polygon fill="midnightblue" stroke="midnightblue" points="153.35,-49.3753 161.551,-56.083 159.323,-45.7251 153.35,-49.3753"/>
</g>
<!-- Node7 -->
<g id="node7" class="node"><title>Node7</title>
<g id="a_node7"><a xlink:href="../../dc/db3/RLE_8m.html" target="_top" xlink:title="RLE.m">
<polygon fill="white" stroke="black" points="181.5,-0.5 181.5,-19.5 228.5,-19.5 228.5,-0.5 181.5,-0.5"/>
<text text-anchor="middle" x="205" y="-7.5" font-family="Helvetica,sans-Serif" font-size="10.00">RLE.m</text>
</a>
</g>
</g>
<!-- Node6&#45;&gt;Node7 -->
<g id="edge7" class="edge"><title>Node6&#45;&gt;Node7</title>
<path fill="none" stroke="midnightblue" d="M179.065,-47.8554C185.645,-38.5048 193.511,-27.3265 198.842,-19.7511"/>
<polygon fill="midnightblue" stroke="midnightblue" points="176.168,-45.8907 173.275,-56.083 181.892,-49.9192 176.168,-45.8907"/>
</g>
</g>
</svg>
