<?xml version="1.0" encoding="UTF-8" standalone="no"?>
<!DOCTYPE svg PUBLIC "-//W3C//DTD SVG 1.1//EN"
 "http://www.w3.org/Graphics/SVG/1.1/DTD/svg11.dtd">
<!-- Generated by graphviz version 2.38.0 (20140413.2041)
 -->
<!-- Title: create_windows Pages: 1 -->
<svg width="534pt" height="142pt"
 viewBox="0.00 0.00 534.00 142.00" xmlns="http://www.w3.org/2000/svg" xmlns:xlink="http://www.w3.org/1999/xlink">
<g id="graph0" class="graph" transform="scale(1 1) rotate(0) translate(4 138)">
<title>create_windows</title>
<polygon fill="white" stroke="none" points="-4,4 -4,-138 530,-138 530,4 -4,4"/>
<!-- Node1 -->
<g id="node1" class="node"><title>Node1</title>
<polygon fill="#bfbfbf" stroke="black" points="0,-57.5 0,-76.5 93,-76.5 93,-57.5 0,-57.5"/>
<text text-anchor="middle" x="46.5" y="-64.5" font-family="Helvetica,sans-Serif" font-size="10.00">create_windows</text>
</g>
<!-- Node2 -->
<g id="node2" class="node"><title>Node2</title>
<g id="a_node2"><a xlink:href="../../dd/d17/x11__stuff_8c.html#a40ee19712a07ceb0943b118bb2f8dbac" target="_top" xlink:title="calc_view_origin">
<polygon fill="white" stroke="black" points="129,-114.5 129,-133.5 224,-133.5 224,-114.5 129,-114.5"/>
<text text-anchor="middle" x="176.5" y="-121.5" font-family="Helvetica,sans-Serif" font-size="10.00">calc_view_origin</text>
</a>
</g>
</g>
<!-- Node1&#45;&gt;Node2 -->
<g id="edge1" class="edge"><title>Node1&#45;&gt;Node2</title>
<path fill="none" stroke="midnightblue" d="M67.473,-76.6419C83.8973,-84.4909 107.829,-95.7456 129,-105 133.158,-106.817 137.546,-108.681 141.9,-110.497"/>
<polygon fill="midnightblue" stroke="midnightblue" points="140.693,-113.785 151.272,-114.359 143.36,-107.313 140.693,-113.785"/>
</g>
<!-- Node3 -->
<g id="node3" class="node"><title>Node3</title>
<g id="a_node3"><a xlink:href="../../dd/d17/x11__stuff_8c.html#af24be8f2bac3ae1ebf14c06245b3b6d2" target="_top" xlink:title="allocate_pixmap">
<polygon fill="white" stroke="black" points="130,-76.5 130,-95.5 223,-95.5 223,-76.5 130,-76.5"/>
<text text-anchor="middle" x="176.5" y="-83.5" font-family="Helvetica,sans-Serif" font-size="10.00">allocate_pixmap</text>
</a>
</g>
</g>
<!-- Node1&#45;&gt;Node3 -->
<g id="edge2" class="edge"><title>Node1&#45;&gt;Node3</title>
<path fill="none" stroke="midnightblue" d="M93.3494,-73.8058C102.001,-75.09 111.136,-76.4459 120.045,-77.7684"/>
<polygon fill="midnightblue" stroke="midnightblue" points="119.565,-81.2354 129.971,-79.2417 120.593,-74.3113 119.565,-81.2354"/>
</g>
<!-- Node5 -->
<g id="node5" class="node"><title>Node5</title>
<g id="a_node5"><a xlink:href="../../dd/d17/x11__stuff_8c.html#ad518b27a85450f7cb1930f799f78716f" target="_top" xlink:title="check_pixmap_allocation">
<polygon fill="white" stroke="black" points="260,-38.5 260,-57.5 395,-57.5 395,-38.5 260,-38.5"/>
<text text-anchor="middle" x="327.5" y="-45.5" font-family="Helvetica,sans-Serif" font-size="10.00">check_pixmap_allocation</text>
</a>
</g>
</g>
<!-- Node1&#45;&gt;Node5 -->
<g id="edge6" class="edge"><title>Node1&#45;&gt;Node5</title>
<path fill="none" stroke="midnightblue" d="M93.2588,-63.8838C135.635,-60.998 199.491,-56.6494 249.681,-53.2314"/>
<polygon fill="midnightblue" stroke="midnightblue" points="250.109,-56.7105 259.848,-52.539 249.633,-49.7266 250.109,-56.7105"/>
</g>
<!-- Node7 -->
<g id="node7" class="node"><title>Node7</title>
<g id="a_node7"><a xlink:href="../../dd/d17/x11__stuff_8c.html#a35801a4fe05d922b54726c810c9d13fb" target="_top" xlink:title="get_cursors">
<polygon fill="white" stroke="black" points="140.5,-0.5 140.5,-19.5 212.5,-19.5 212.5,-0.5 140.5,-0.5"/>
<text text-anchor="middle" x="176.5" y="-7.5" font-family="Helvetica,sans-Serif" font-size="10.00">get_cursors</text>
</a>
</g>
</g>
<!-- Node1&#45;&gt;Node7 -->
<g id="edge7" class="edge"><title>Node1&#45;&gt;Node7</title>
<path fill="none" stroke="midnightblue" d="M68.9243,-57.4595C89.6912,-48.2117 121.404,-34.0898 144.84,-23.6532"/>
<polygon fill="midnightblue" stroke="midnightblue" points="146.294,-26.837 154.006,-19.5716 143.447,-20.4424 146.294,-26.837"/>
</g>
<!-- Node4 -->
<g id="node4" class="node"><title>Node4</title>
<g id="a_node4"><a xlink:href="../../dd/d17/x11__stuff_8c.html#a5514147cc2e2519281b7930a56c39dde" target="_top" xlink:title="free_X_pixmap">
<polygon fill="white" stroke="black" points="283.5,-76.5 283.5,-95.5 371.5,-95.5 371.5,-76.5 283.5,-76.5"/>
<text text-anchor="middle" x="327.5" y="-83.5" font-family="Helvetica,sans-Serif" font-size="10.00">free_X_pixmap</text>
</a>
</g>
</g>
<!-- Node3&#45;&gt;Node4 -->
<g id="edge3" class="edge"><title>Node3&#45;&gt;Node4</title>
<path fill="none" stroke="midnightblue" d="M223.015,-86C238.89,-86 256.846,-86 273.291,-86"/>
<polygon fill="midnightblue" stroke="midnightblue" points="273.303,-89.5001 283.303,-86 273.303,-82.5001 273.303,-89.5001"/>
</g>
<!-- Node3&#45;&gt;Node5 -->
<g id="edge4" class="edge"><title>Node3&#45;&gt;Node5</title>
<path fill="none" stroke="midnightblue" d="M215.099,-76.411C234.584,-71.4417 258.575,-65.3233 279.296,-60.0387"/>
<polygon fill="midnightblue" stroke="midnightblue" points="280.346,-63.3828 289.171,-57.5201 278.617,-56.5999 280.346,-63.3828"/>
</g>
<!-- Node6 -->
<g id="node6" class="node"><title>Node6</title>
<g id="a_node6"><a xlink:href="../../dd/d17/x11__stuff_8c.html#af5943022edd547455fead4fb49e0eeb0" target="_top" xlink:title="handle_x_errors">
<polygon fill="white" stroke="black" points="431,-38.5 431,-57.5 526,-57.5 526,-38.5 431,-38.5"/>
<text text-anchor="middle" x="478.5" y="-45.5" font-family="Helvetica,sans-Serif" font-size="10.00">handle_x_errors</text>
</a>
</g>
</g>
<!-- Node5&#45;&gt;Node6 -->
<g id="edge5" class="edge"><title>Node5&#45;&gt;Node6</title>
<path fill="none" stroke="midnightblue" d="M395.156,-48C403.749,-48 412.483,-48 420.894,-48"/>
<polygon fill="midnightblue" stroke="midnightblue" points="420.962,-51.5001 430.962,-48 420.962,-44.5001 420.962,-51.5001"/>
</g>
</g>
</svg>
