<?xml version="1.0" encoding="UTF-8" standalone="no"?>
<!DOCTYPE svg PUBLIC "-//W3C//DTD SVG 1.1//EN"
 "http://www.w3.org/Graphics/SVG/1.1/DTD/svg11.dtd">
<!-- Generated by graphviz version 2.38.0 (20140413.2041)
 -->
<!-- Title: visual_class_to_string Pages: 1 -->
<svg width="419pt" height="66pt"
 viewBox="0.00 0.00 419.00 66.00" xmlns="http://www.w3.org/2000/svg" xmlns:xlink="http://www.w3.org/1999/xlink">
<g id="graph0" class="graph" transform="scale(1 1) rotate(0) translate(4 62)">
<title>visual_class_to_string</title>
<polygon fill="white" stroke="none" points="-4,4 -4,-62 415,-62 415,4 -4,4"/>
<!-- Node1 -->
<g id="node1" class="node"><title>Node1</title>
<polygon fill="#bfbfbf" stroke="black" points="0,-19.5 0,-38.5 120,-38.5 120,-19.5 0,-19.5"/>
<text text-anchor="middle" x="60" y="-26.5" font-family="Helvetica,sans-Serif" font-size="10.00">visual_class_to_string</text>
</g>
<!-- Node2 -->
<g id="node2" class="node"><title>Node2</title>
<g id="a_node2"><a xlink:href="../../dd/d17/x11__stuff_8c.html#ac5fa440606f302285b9b70d28dc69dd5" target="_top" xlink:title="get_x_colormap">
<polygon fill="white" stroke="black" points="156,-38.5 156,-57.5 248,-57.5 248,-38.5 156,-38.5"/>
<text text-anchor="middle" x="202" y="-45.5" font-family="Helvetica,sans-Serif" font-size="10.00">get_x_colormap</text>
</a>
</g>
</g>
<!-- Node1&#45;&gt;Node2 -->
<g id="edge1" class="edge"><title>Node1&#45;&gt;Node2</title>
<path fill="none" stroke="midnightblue" d="M130.502,-38.4324C139.161,-39.6076 147.831,-40.7842 155.981,-41.8902"/>
<polygon fill="midnightblue" stroke="midnightblue" points="130.752,-34.9344 120.373,-37.0577 129.811,-41.8708 130.752,-34.9344"/>
</g>
<!-- Node4 -->
<g id="node4" class="node"><title>Node4</title>
<g id="a_node4"><a xlink:href="../../dd/d17/x11__stuff_8c.html#a1e74fdfececbc146a1bc0a5e325d379e" target="_top" xlink:title="find_appropriate_visual">
<polygon fill="white" stroke="black" points="284,-0.5 284,-19.5 411,-19.5 411,-0.5 284,-0.5"/>
<text text-anchor="middle" x="347.5" y="-7.5" font-family="Helvetica,sans-Serif" font-size="10.00">find_appropriate_visual</text>
</a>
</g>
</g>
<!-- Node1&#45;&gt;Node4 -->
<g id="edge4" class="edge"><title>Node1&#45;&gt;Node4</title>
<path fill="none" stroke="midnightblue" d="M130.229,-24.3928C177.114,-21.2726 238.551,-17.184 283.959,-14.1621"/>
<polygon fill="midnightblue" stroke="midnightblue" points="129.901,-20.9068 120.156,-25.0632 130.366,-27.8913 129.901,-20.9068"/>
</g>
<!-- Node3 -->
<g id="node3" class="node"><title>Node3</title>
<g id="a_node3"><a xlink:href="../../dd/d17/x11__stuff_8c.html#aa8509763c57678ec28bcda93fed61e59" target="_top" xlink:title="init_color">
<polygon fill="white" stroke="black" points="318,-38.5 318,-57.5 377,-57.5 377,-38.5 318,-38.5"/>
<text text-anchor="middle" x="347.5" y="-45.5" font-family="Helvetica,sans-Serif" font-size="10.00">init_color</text>
</a>
</g>
</g>
<!-- Node2&#45;&gt;Node3 -->
<g id="edge2" class="edge"><title>Node2&#45;&gt;Node3</title>
<path fill="none" stroke="midnightblue" d="M258.149,-48C278.538,-48 300.82,-48 317.906,-48"/>
<polygon fill="midnightblue" stroke="midnightblue" points="258.011,-44.5001 248.011,-48 258.011,-51.5001 258.011,-44.5001"/>
</g>
<!-- Node2&#45;&gt;Node4 -->
<g id="edge3" class="edge"><title>Node2&#45;&gt;Node4</title>
<path fill="none" stroke="midnightblue" d="M248.973,-35.8258C268.816,-30.5713 291.693,-24.5134 310.3,-19.5859"/>
<polygon fill="midnightblue" stroke="midnightblue" points="247.982,-32.4677 239.211,-38.411 249.774,-39.2345 247.982,-32.4677"/>
</g>
</g>
</svg>
