<?xml version="1.0" encoding="UTF-8" standalone="no"?>
<!DOCTYPE svg PUBLIC "-//W3C//DTD SVG 1.1//EN"
 "http://www.w3.org/Graphics/SVG/1.1/DTD/svg11.dtd">
<!-- Generated by graphviz version 2.38.0 (20140413.2041)
 -->
<!-- Title: init_separate_color_ro Pages: 1 -->
<svg width="384pt" height="180pt"
 viewBox="0.00 0.00 384.00 180.00" xmlns="http://www.w3.org/2000/svg" xmlns:xlink="http://www.w3.org/1999/xlink">
<g id="graph0" class="graph" transform="scale(1 1) rotate(0) translate(4 176)">
<title>init_separate_color_ro</title>
<polygon fill="white" stroke="none" points="-4,4 -4,-176 380,-176 380,4 -4,4"/>
<!-- Node1 -->
<g id="node1" class="node"><title>Node1</title>
<polygon fill="#bfbfbf" stroke="black" points="0,-76.5 0,-95.5 123,-95.5 123,-76.5 0,-76.5"/>
<text text-anchor="middle" x="61.5" y="-83.5" font-family="Helvetica,sans-Serif" font-size="10.00">init_separate_color_ro</text>
</g>
<!-- Node2 -->
<g id="node2" class="node"><title>Node2</title>
<g id="a_node2"><a xlink:href="../../d0/dcc/rletorla_8c.html#ab7e36af3707843f77cc5b4e831c2fa6d" target="_top" xlink:title="malloc">
<polygon fill="white" stroke="black" points="186,-152.5 186,-171.5 233,-171.5 233,-152.5 186,-152.5"/>
<text text-anchor="middle" x="209.5" y="-159.5" font-family="Helvetica,sans-Serif" font-size="10.00">malloc</text>
</a>
</g>
</g>
<!-- Node1&#45;&gt;Node2 -->
<g id="edge1" class="edge"><title>Node1&#45;&gt;Node2</title>
<path fill="none" stroke="midnightblue" d="M77.1173,-95.6814C95.662,-107.716 128.865,-128.442 159,-143 164.522,-145.668 170.523,-148.234 176.379,-150.57"/>
<polygon fill="midnightblue" stroke="midnightblue" points="175.397,-153.943 185.987,-154.264 177.909,-147.409 175.397,-153.943"/>
</g>
<!-- Node3 -->
<g id="node3" class="node"><title>Node3</title>
<g id="a_node3"><a xlink:href="../../d7/dd0/fn__decls_8h.html#a69c92608417ec9462b3a40fa311a159c" target="_top" xlink:title="get_dither_arrays">
<polygon fill="white" stroke="black" points="159,-114.5 159,-133.5 260,-133.5 260,-114.5 159,-114.5"/>
<text text-anchor="middle" x="209.5" y="-121.5" font-family="Helvetica,sans-Serif" font-size="10.00">get_dither_arrays</text>
</a>
</g>
</g>
<!-- Node1&#45;&gt;Node3 -->
<g id="edge2" class="edge"><title>Node1&#45;&gt;Node3</title>
<path fill="none" stroke="midnightblue" d="M99.342,-95.589C118.348,-100.536 141.729,-106.621 161.969,-111.889"/>
<polygon fill="midnightblue" stroke="midnightblue" points="161.364,-115.348 171.923,-114.48 163.127,-108.574 161.364,-115.348"/>
</g>
<!-- Node4 -->
<g id="node4" class="node"><title>Node4</title>
<g id="a_node4"><a xlink:href="../../d9/dbb/dither_8c.html#afad378428af71918afb13247f60d0594" target="_top" xlink:title="bwdithermap">
<polygon fill="white" stroke="black" points="171,-76.5 171,-95.5 248,-95.5 248,-76.5 171,-76.5"/>
<text text-anchor="middle" x="209.5" y="-83.5" font-family="Helvetica,sans-Serif" font-size="10.00">bwdithermap</text>
</a>
</g>
</g>
<!-- Node1&#45;&gt;Node4 -->
<g id="edge3" class="edge"><title>Node1&#45;&gt;Node4</title>
<path fill="none" stroke="midnightblue" d="M123.149,-86C135.632,-86 148.611,-86 160.568,-86"/>
<polygon fill="midnightblue" stroke="midnightblue" points="160.775,-89.5001 170.775,-86 160.775,-82.5001 160.775,-89.5001"/>
</g>
<!-- Node6 -->
<g id="node6" class="node"><title>Node6</title>
<g id="a_node6"><a xlink:href="../../d7/dd0/fn__decls_8h.html#ab42c26a26a1d61bce27a43357a4c51ed" target="_top" xlink:title="shift_match_left">
<polygon fill="white" stroke="black" points="164,-38.5 164,-57.5 255,-57.5 255,-38.5 164,-38.5"/>
<text text-anchor="middle" x="209.5" y="-45.5" font-family="Helvetica,sans-Serif" font-size="10.00">shift_match_left</text>
</a>
</g>
</g>
<!-- Node1&#45;&gt;Node6 -->
<g id="edge5" class="edge"><title>Node1&#45;&gt;Node6</title>
<path fill="none" stroke="midnightblue" d="M99.342,-76.411C118.348,-71.4642 141.729,-65.3789 161.969,-60.1108"/>
<polygon fill="midnightblue" stroke="midnightblue" points="163.127,-63.4261 171.923,-57.5201 161.364,-56.6518 163.127,-63.4261"/>
</g>
<!-- Node7 -->
<g id="node7" class="node"><title>Node7</title>
<g id="a_node7"><a xlink:href="../../d0/dcc/rletorla_8c.html#aafde19f7d36ca163a143579c1b125b6d" target="_top" xlink:title="free">
<polygon fill="white" stroke="black" points="192,-0.5 192,-19.5 227,-19.5 227,-0.5 192,-0.5"/>
<text text-anchor="middle" x="209.5" y="-7.5" font-family="Helvetica,sans-Serif" font-size="10.00">free</text>
</a>
</g>
</g>
<!-- Node1&#45;&gt;Node7 -->
<g id="edge6" class="edge"><title>Node1&#45;&gt;Node7</title>
<path fill="none" stroke="midnightblue" d="M77.1173,-76.3186C95.662,-64.2842 128.865,-43.5576 159,-29 166.377,-25.4364 174.607,-22.0542 182.206,-19.158"/>
<polygon fill="midnightblue" stroke="midnightblue" points="183.535,-22.3986 191.707,-15.6561 181.114,-15.8306 183.535,-22.3986"/>
</g>
<!-- Node5 -->
<g id="node5" class="node"><title>Node5</title>
<g id="a_node5"><a xlink:href="../../d9/dbb/dither_8c.html#a7ff23fcd77b62deab9304ffd3d684f47" target="_top" xlink:title="make_square">
<polygon fill="white" stroke="black" points="296,-76.5 296,-95.5 376,-95.5 376,-76.5 296,-76.5"/>
<text text-anchor="middle" x="336" y="-83.5" font-family="Helvetica,sans-Serif" font-size="10.00">make_square</text>
</a>
</g>
</g>
<!-- Node4&#45;&gt;Node5 -->
<g id="edge4" class="edge"><title>Node4&#45;&gt;Node5</title>
<path fill="none" stroke="midnightblue" d="M248.192,-86C259.934,-86 273.064,-86 285.487,-86"/>
<polygon fill="midnightblue" stroke="midnightblue" points="285.71,-89.5001 295.71,-86 285.71,-82.5001 285.71,-89.5001"/>
</g>
</g>
</svg>
