<?xml version="1.0" encoding="UTF-8" standalone="no"?>
<!DOCTYPE svg PUBLIC "-//W3C//DTD SVG 1.1//EN"
 "http://www.w3.org/Graphics/SVG/1.1/DTD/svg11.dtd">
<!-- Generated by graphviz version 2.38.0 (20140413.2041)
 -->
<!-- Title: find_appropriate_visual Pages: 1 -->
<svg width="419pt" height="47pt"
 viewBox="0.00 0.00 419.00 47.00" xmlns="http://www.w3.org/2000/svg" xmlns:xlink="http://www.w3.org/1999/xlink">
<g id="graph0" class="graph" transform="scale(1 1) rotate(0) translate(4 43)">
<title>find_appropriate_visual</title>
<polygon fill="white" stroke="none" points="-4,4 -4,-43 415,-43 415,4 -4,4"/>
<!-- Node1 -->
<g id="node1" class="node"><title>Node1</title>
<polygon fill="#bfbfbf" stroke="black" points="0,-19.5 0,-38.5 127,-38.5 127,-19.5 0,-19.5"/>
<text text-anchor="middle" x="63.5" y="-26.5" font-family="Helvetica,sans-Serif" font-size="10.00">find_appropriate_visual</text>
</g>
<!-- Node2 -->
<g id="node2" class="node"><title>Node2</title>
<g id="a_node2"><a xlink:href="../../dd/d17/x11__stuff_8c.html#a3f67586acd0e1fcd4aeafcae19dcbd77" target="_top" xlink:title="visual_class_to_string">
<polygon fill="white" stroke="black" points="291,-19.5 291,-38.5 411,-38.5 411,-19.5 291,-19.5"/>
<text text-anchor="middle" x="351" y="-26.5" font-family="Helvetica,sans-Serif" font-size="10.00">visual_class_to_string</text>
</a>
</g>
</g>
<!-- Node1&#45;&gt;Node2 -->
<g id="edge1" class="edge"><title>Node1&#45;&gt;Node2</title>
<path fill="none" stroke="midnightblue" d="M127.154,-29C172.572,-29 233.984,-29 280.839,-29"/>
<polygon fill="midnightblue" stroke="midnightblue" points="280.905,-32.5001 290.905,-29 280.905,-25.5001 280.905,-32.5001"/>
</g>
<!-- Node3 -->
<g id="node3" class="node"><title>Node3</title>
<g id="a_node3"><a xlink:href="../../dd/d17/x11__stuff_8c.html#ac5fa440606f302285b9b70d28dc69dd5" target="_top" xlink:title="get_x_colormap">
<polygon fill="white" stroke="black" points="163,-0.5 163,-19.5 255,-19.5 255,-0.5 163,-0.5"/>
<text text-anchor="middle" x="209" y="-7.5" font-family="Helvetica,sans-Serif" font-size="10.00">get_x_colormap</text>
</a>
</g>
</g>
<!-- Node1&#45;&gt;Node3 -->
<g id="edge2" class="edge"><title>Node1&#45;&gt;Node3</title>
<path fill="none" stroke="midnightblue" d="M127.024,-20.7216C135.615,-19.5841 144.386,-18.4228 152.832,-17.3044"/>
<polygon fill="midnightblue" stroke="midnightblue" points="153.486,-20.7485 162.94,-15.9661 152.567,-13.8091 153.486,-20.7485"/>
</g>
<!-- Node3&#45;&gt;Node2 -->
<g id="edge3" class="edge"><title>Node3&#45;&gt;Node2</title>
<path fill="none" stroke="midnightblue" d="M255.068,-16.1163C263.373,-17.2434 272.216,-18.4436 281.038,-19.6409"/>
<polygon fill="midnightblue" stroke="midnightblue" points="280.579,-23.1106 290.959,-20.9873 281.52,-16.1741 280.579,-23.1106"/>
</g>
</g>
</svg>
