<?xml version="1.0" encoding="UTF-8" standalone="no"?>
<!DOCTYPE svg PUBLIC "-//W3C//DTD SVG 1.1//EN"
 "http://www.w3.org/Graphics/SVG/1.1/DTD/svg11.dtd">
<!-- Generated by graphviz version 2.38.0 (20140413.2041)
 -->
<!-- Title: get_x_colormap Pages: 1 -->
<svg width="263pt" height="66pt"
 viewBox="0.00 0.00 263.00 66.00" xmlns="http://www.w3.org/2000/svg" xmlns:xlink="http://www.w3.org/1999/xlink">
<g id="graph0" class="graph" transform="scale(1 1) rotate(0) translate(4 62)">
<title>get_x_colormap</title>
<polygon fill="white" stroke="none" points="-4,4 -4,-62 259,-62 259,4 -4,4"/>
<!-- Node1 -->
<g id="node1" class="node"><title>Node1</title>
<polygon fill="#bfbfbf" stroke="black" points="0,-19.5 0,-38.5 92,-38.5 92,-19.5 0,-19.5"/>
<text text-anchor="middle" x="46" y="-26.5" font-family="Helvetica,sans-Serif" font-size="10.00">get_x_colormap</text>
</g>
<!-- Node2 -->
<g id="node2" class="node"><title>Node2</title>
<g id="a_node2"><a xlink:href="../../dd/d17/x11__stuff_8c.html#aa8509763c57678ec28bcda93fed61e59" target="_top" xlink:title="init_color">
<polygon fill="white" stroke="black" points="162,-38.5 162,-57.5 221,-57.5 221,-38.5 162,-38.5"/>
<text text-anchor="middle" x="191.5" y="-45.5" font-family="Helvetica,sans-Serif" font-size="10.00">init_color</text>
</a>
</g>
</g>
<!-- Node1&#45;&gt;Node2 -->
<g id="edge1" class="edge"><title>Node1&#45;&gt;Node2</title>
<path fill="none" stroke="midnightblue" d="M102.149,-36.3019C122.538,-39.0016 144.82,-41.9518 161.906,-44.2141"/>
<polygon fill="midnightblue" stroke="midnightblue" points="102.383,-32.8025 92.0106,-34.9596 101.465,-39.742 102.383,-32.8025"/>
</g>
<!-- Node3 -->
<g id="node3" class="node"><title>Node3</title>
<g id="a_node3"><a xlink:href="../../dd/d17/x11__stuff_8c.html#a1e74fdfececbc146a1bc0a5e325d379e" target="_top" xlink:title="find_appropriate_visual">
<polygon fill="white" stroke="black" points="128,-0.5 128,-19.5 255,-19.5 255,-0.5 128,-0.5"/>
<text text-anchor="middle" x="191.5" y="-7.5" font-family="Helvetica,sans-Serif" font-size="10.00">find_appropriate_visual</text>
</a>
</g>
</g>
<!-- Node1&#45;&gt;Node3 -->
<g id="edge2" class="edge"><title>Node1&#45;&gt;Node3</title>
<path fill="none" stroke="midnightblue" d="M102.074,-21.7079C110.484,-20.5945 119.217,-19.4382 127.776,-18.305"/>
<polygon fill="midnightblue" stroke="midnightblue" points="101.465,-18.258 92.0106,-23.0404 102.383,-25.1975 101.465,-18.258"/>
</g>
</g>
</svg>
