<?xml version="1.0" encoding="UTF-8" standalone="no"?>
<!DOCTYPE svg PUBLIC "-//W3C//DTD SVG 1.1//EN"
 "http://www.w3.org/Graphics/SVG/1.1/DTD/svg11.dtd">
<!-- Generated by graphviz version 2.38.0 (20140413.2041)
 -->
<!-- Title: free_X_pixmap Pages: 1 -->
<svg width="354pt" height="28pt"
 viewBox="0.00 0.00 354.00 28.00" xmlns="http://www.w3.org/2000/svg" xmlns:xlink="http://www.w3.org/1999/xlink">
<g id="graph0" class="graph" transform="scale(1 1) rotate(0) translate(4 24)">
<title>free_X_pixmap</title>
<polygon fill="white" stroke="none" points="-4,4 -4,-24 350,-24 350,4 -4,4"/>
<!-- Node1 -->
<g id="node1" class="node"><title>Node1</title>
<polygon fill="#bfbfbf" stroke="black" points="0,-0.5 0,-19.5 88,-19.5 88,-0.5 0,-0.5"/>
<text text-anchor="middle" x="44" y="-7.5" font-family="Helvetica,sans-Serif" font-size="10.00">free_X_pixmap</text>
</g>
<!-- Node2 -->
<g id="node2" class="node"><title>Node2</title>
<g id="a_node2"><a xlink:href="../../dd/d17/x11__stuff_8c.html#af24be8f2bac3ae1ebf14c06245b3b6d2" target="_top" xlink:title="allocate_pixmap">
<polygon fill="white" stroke="black" points="124,-0.5 124,-19.5 217,-19.5 217,-0.5 124,-0.5"/>
<text text-anchor="middle" x="170.5" y="-7.5" font-family="Helvetica,sans-Serif" font-size="10.00">allocate_pixmap</text>
</a>
</g>
</g>
<!-- Node1&#45;&gt;Node2 -->
<g id="edge1" class="edge"><title>Node1&#45;&gt;Node2</title>
<path fill="none" stroke="midnightblue" d="M98.3809,-10C106.859,-10 115.56,-10 123.839,-10"/>
<polygon fill="midnightblue" stroke="midnightblue" points="98.1947,-6.5001 88.1947,-10 98.1946,-13.5001 98.1947,-6.5001"/>
</g>
<!-- Node3 -->
<g id="node3" class="node"><title>Node3</title>
<g id="a_node3"><a xlink:href="../../dd/d17/x11__stuff_8c.html#afe2f12839dbe3c411e152dba0dcf0e5d" target="_top" xlink:title="create_windows">
<polygon fill="white" stroke="black" points="253,-0.5 253,-19.5 346,-19.5 346,-0.5 253,-0.5"/>
<text text-anchor="middle" x="299.5" y="-7.5" font-family="Helvetica,sans-Serif" font-size="10.00">create_windows</text>
</a>
</g>
</g>
<!-- Node2&#45;&gt;Node3 -->
<g id="edge2" class="edge"><title>Node2&#45;&gt;Node3</title>
<path fill="none" stroke="midnightblue" d="M227.501,-10C235.93,-10 244.537,-10 252.717,-10"/>
<polygon fill="midnightblue" stroke="midnightblue" points="227.35,-6.5001 217.35,-10 227.35,-13.5001 227.35,-6.5001"/>
</g>
</g>
</svg>
