<?xml version="1.0" encoding="UTF-8" standalone="no"?>
<!DOCTYPE svg PUBLIC "-//W3C//DTD SVG 1.1//EN"
 "http://www.w3.org/Graphics/SVG/1.1/DTD/svg11.dtd">
<!-- Generated by graphviz version 2.38.0 (20140413.2041)
 -->
<!-- Title: x11_stuff.c Pages: 1 -->
<svg width="769pt" height="140pt"
 viewBox="0.00 0.00 769.00 140.00" xmlns="http://www.w3.org/2000/svg" xmlns:xlink="http://www.w3.org/1999/xlink">
<g id="graph0" class="graph" transform="scale(1 1) rotate(0) translate(4 136)">
<title>x11_stuff.c</title>
<polygon fill="white" stroke="none" points="-4,4 -4,-136 765,-136 765,4 -4,4"/>
<!-- Node1 -->
<g id="node1" class="node"><title>Node1</title>
<polygon fill="#bfbfbf" stroke="black" points="424,-112.5 424,-131.5 491,-131.5 491,-112.5 424,-112.5"/>
<text text-anchor="middle" x="457.5" y="-119.5" font-family="Helvetica,sans-Serif" font-size="10.00">x11_stuff.c</text>
</g>
<!-- Node2 -->
<g id="node2" class="node"><title>Node2</title>
<g id="a_node2"><a xlink:href="../../da/d3e/getx11_8h.html" target="_top" xlink:title="getx11.h">
<polygon fill="white" stroke="black" points="317,-56.5 317,-75.5 374,-75.5 374,-56.5 317,-56.5"/>
<text text-anchor="middle" x="345.5" y="-63.5" font-family="Helvetica,sans-Serif" font-size="10.00">getx11.h</text>
</a>
</g>
</g>
<!-- Node1&#45;&gt;Node2 -->
<g id="edge1" class="edge"><title>Node1&#45;&gt;Node2</title>
<path fill="none" stroke="midnightblue" d="M439.505,-112.324C421.462,-103.625 393.453,-90.1202 372.697,-80.113"/>
<polygon fill="midnightblue" stroke="midnightblue" points="373.978,-76.8449 363.45,-75.6545 370.938,-83.1502 373.978,-76.8449"/>
</g>
<!-- Node13 -->
<g id="node13" class="node"><title>Node13</title>
<polygon fill="white" stroke="#bfbfbf" points="392.5,-56.5 392.5,-75.5 442.5,-75.5 442.5,-56.5 392.5,-56.5"/>
<text text-anchor="middle" x="417.5" y="-63.5" font-family="Helvetica,sans-Serif" font-size="10.00">errno.h</text>
</g>
<!-- Node1&#45;&gt;Node13 -->
<g id="edge12" class="edge"><title>Node1&#45;&gt;Node13</title>
<path fill="none" stroke="midnightblue" d="M450.895,-112.083C445.245,-104.455 436.955,-93.2645 430.049,-83.9408"/>
<polygon fill="midnightblue" stroke="midnightblue" points="432.747,-81.7034 423.982,-75.7511 427.122,-85.87 432.747,-81.7034"/>
</g>
<!-- Node14 -->
<g id="node14" class="node"><title>Node14</title>
<polygon fill="white" stroke="#bfbfbf" points="460.5,-56.5 460.5,-75.5 534.5,-75.5 534.5,-56.5 460.5,-56.5"/>
<text text-anchor="middle" x="497.5" y="-63.5" font-family="Helvetica,sans-Serif" font-size="10.00">circle.bitmap</text>
</g>
<!-- Node1&#45;&gt;Node14 -->
<g id="edge13" class="edge"><title>Node1&#45;&gt;Node14</title>
<path fill="none" stroke="midnightblue" d="M464.105,-112.083C469.755,-104.455 478.045,-93.2645 484.951,-83.9408"/>
<polygon fill="midnightblue" stroke="midnightblue" points="487.878,-85.87 491.018,-75.7511 482.253,-81.7034 487.878,-85.87"/>
</g>
<!-- Node15 -->
<g id="node15" class="node"><title>Node15</title>
<polygon fill="white" stroke="#bfbfbf" points="553,-56.5 553,-75.5 658,-75.5 658,-56.5 553,-56.5"/>
<text text-anchor="middle" x="605.5" y="-63.5" font-family="Helvetica,sans-Serif" font-size="10.00">circle_mask.bitmap</text>
</g>
<!-- Node1&#45;&gt;Node15 -->
<g id="edge14" class="edge"><title>Node1&#45;&gt;Node15</title>
<path fill="none" stroke="midnightblue" d="M480.951,-112.444C505.633,-103.438 544.685,-89.1891 572.477,-79.049"/>
<polygon fill="midnightblue" stroke="midnightblue" points="573.964,-82.2321 582.159,-75.5164 571.565,-75.6561 573.964,-82.2321"/>
</g>
<!-- Node3 -->
<g id="node3" class="node"><title>Node3</title>
<polygon fill="white" stroke="#bfbfbf" points="0,-0.5 0,-19.5 47,-19.5 47,-0.5 0,-0.5"/>
<text text-anchor="middle" x="23.5" y="-7.5" font-family="Helvetica,sans-Serif" font-size="10.00">stdio.h</text>
</g>
<!-- Node2&#45;&gt;Node3 -->
<g id="edge2" class="edge"><title>Node2&#45;&gt;Node3</title>
<path fill="none" stroke="midnightblue" d="M316.591,-61.5863C266.027,-55.3822 158.103,-41.1057 57.2633,-19.9452"/>
<polygon fill="midnightblue" stroke="midnightblue" points="57.7247,-16.4652 47.2154,-17.8085 56.2686,-23.3121 57.7247,-16.4652"/>
</g>
<!-- Node4 -->
<g id="node4" class="node"><title>Node4</title>
<polygon fill="white" stroke="#bfbfbf" points="65.5,-0.5 65.5,-19.5 113.5,-19.5 113.5,-0.5 65.5,-0.5"/>
<text text-anchor="middle" x="89.5" y="-7.5" font-family="Helvetica,sans-Serif" font-size="10.00">math.h</text>
</g>
<!-- Node2&#45;&gt;Node4 -->
<g id="edge3" class="edge"><title>Node2&#45;&gt;Node4</title>
<path fill="none" stroke="midnightblue" d="M316.853,-59.856C276.107,-52.4021 198.877,-37.7674 123.711,-20.1629"/>
<polygon fill="midnightblue" stroke="midnightblue" points="124.14,-16.6678 113.603,-17.7741 122.53,-23.4802 124.14,-16.6678"/>
</g>
<!-- Node5 -->
<g id="node5" class="node"><title>Node5</title>
<polygon fill="white" stroke="#bfbfbf" points="131.5,-0.5 131.5,-19.5 181.5,-19.5 181.5,-0.5 131.5,-0.5"/>
<text text-anchor="middle" x="156.5" y="-7.5" font-family="Helvetica,sans-Serif" font-size="10.00">ctype.h</text>
</g>
<!-- Node2&#45;&gt;Node5 -->
<g id="edge4" class="edge"><title>Node2&#45;&gt;Node5</title>
<path fill="none" stroke="midnightblue" d="M316.795,-56.7986C283.097,-47.1706 227.241,-31.2116 191.159,-20.9026"/>
<polygon fill="midnightblue" stroke="midnightblue" points="192.118,-17.5366 181.541,-18.1547 190.195,-24.2673 192.118,-17.5366"/>
</g>
<!-- Node6 -->
<g id="node6" class="node"><title>Node6</title>
<polygon fill="white" stroke="#bfbfbf" points="200,-0.5 200,-19.5 253,-19.5 253,-0.5 200,-0.5"/>
<text text-anchor="middle" x="226.5" y="-7.5" font-family="Helvetica,sans-Serif" font-size="10.00">X11/X.h</text>
</g>
<!-- Node2&#45;&gt;Node6 -->
<g id="edge5" class="edge"><title>Node2&#45;&gt;Node6</title>
<path fill="none" stroke="midnightblue" d="M326.644,-56.4435C307.234,-47.6356 276.77,-33.8116 254.535,-23.722"/>
<polygon fill="midnightblue" stroke="midnightblue" points="255.82,-20.4615 245.268,-19.5164 252.928,-26.836 255.82,-20.4615"/>
</g>
<!-- Node7 -->
<g id="node7" class="node"><title>Node7</title>
<polygon fill="white" stroke="#bfbfbf" points="271,-0.5 271,-19.5 334,-19.5 334,-0.5 271,-0.5"/>
<text text-anchor="middle" x="302.5" y="-7.5" font-family="Helvetica,sans-Serif" font-size="10.00">X11/Xlib.h</text>
</g>
<!-- Node2&#45;&gt;Node7 -->
<g id="edge6" class="edge"><title>Node2&#45;&gt;Node7</title>
<path fill="none" stroke="midnightblue" d="M338.399,-56.083C332.263,-48.3768 323.23,-37.0333 315.761,-27.6531"/>
<polygon fill="midnightblue" stroke="midnightblue" points="318.436,-25.3936 309.468,-19.7511 312.96,-29.7542 318.436,-25.3936"/>
</g>
<!-- Node8 -->
<g id="node8" class="node"><title>Node8</title>
<polygon fill="white" stroke="#bfbfbf" points="352.5,-0.5 352.5,-19.5 426.5,-19.5 426.5,-0.5 352.5,-0.5"/>
<text text-anchor="middle" x="389.5" y="-7.5" font-family="Helvetica,sans-Serif" font-size="10.00">X11/Xlibint.h</text>
</g>
<!-- Node2&#45;&gt;Node8 -->
<g id="edge7" class="edge"><title>Node2&#45;&gt;Node8</title>
<path fill="none" stroke="midnightblue" d="M352.766,-56.083C359.045,-48.3768 368.288,-37.0333 375.931,-27.6531"/>
<polygon fill="midnightblue" stroke="midnightblue" points="378.766,-29.7143 382.369,-19.7511 373.339,-25.2926 378.766,-29.7143"/>
</g>
<!-- Node9 -->
<g id="node9" class="node"><title>Node9</title>
<polygon fill="white" stroke="#bfbfbf" points="444.5,-0.5 444.5,-19.5 510.5,-19.5 510.5,-0.5 444.5,-0.5"/>
<text text-anchor="middle" x="477.5" y="-7.5" font-family="Helvetica,sans-Serif" font-size="10.00">X11/Xutil.h</text>
</g>
<!-- Node2&#45;&gt;Node9 -->
<g id="edge8" class="edge"><title>Node2&#45;&gt;Node9</title>
<path fill="none" stroke="midnightblue" d="M366.416,-56.4435C388.236,-47.5171 422.65,-33.4387 447.392,-23.3168"/>
<polygon fill="midnightblue" stroke="midnightblue" points="448.752,-26.5422 456.682,-19.5164 446.101,-20.0634 448.752,-26.5422"/>
</g>
<!-- Node10 -->
<g id="node10" class="node"><title>Node10</title>
<polygon fill="white" stroke="#bfbfbf" points="528.5,-0.5 528.5,-19.5 622.5,-19.5 622.5,-0.5 528.5,-0.5"/>
<text text-anchor="middle" x="575.5" y="-7.5" font-family="Helvetica,sans-Serif" font-size="10.00">X11/cursorfont.h</text>
</g>
<!-- Node2&#45;&gt;Node10 -->
<g id="edge9" class="edge"><title>Node2&#45;&gt;Node10</title>
<path fill="none" stroke="midnightblue" d="M374.132,-58.2111C377.293,-57.464 380.464,-56.7152 383.5,-56 433.21,-44.288 490.179,-30.946 529.069,-21.8503"/>
<polygon fill="midnightblue" stroke="midnightblue" points="530.103,-25.2029 539.044,-19.5178 528.509,-18.3868 530.103,-25.2029"/>
</g>
<!-- Node11 -->
<g id="node11" class="node"><title>Node11</title>
<polygon fill="white" stroke="#bfbfbf" points="641,-0.5 641,-19.5 678,-19.5 678,-0.5 641,-0.5"/>
<text text-anchor="middle" x="659.5" y="-7.5" font-family="Helvetica,sans-Serif" font-size="10.00">rle.h</text>
</g>
<!-- Node2&#45;&gt;Node11 -->
<g id="edge10" class="edge"><title>Node2&#45;&gt;Node11</title>
<path fill="none" stroke="midnightblue" d="M374.076,-57.9462C377.247,-57.2486 380.436,-56.584 383.5,-56 489.809,-35.7359 521.227,-44.5879 631.131,-19.7047"/>
<polygon fill="midnightblue" stroke="midnightblue" points="631.987,-23.0993 640.945,-17.4415 630.414,-16.2783 631.987,-23.0993"/>
</g>
<!-- Node12 -->
<g id="node12" class="node"><title>Node12</title>
<g id="a_node12"><a xlink:href="../../d7/dd0/fn__decls_8h.html" target="_top" xlink:title="fn_decls.h">
<polygon fill="white" stroke="black" points="696,-0.5 696,-19.5 761,-19.5 761,-0.5 696,-0.5"/>
<text text-anchor="middle" x="728.5" y="-7.5" font-family="Helvetica,sans-Serif" font-size="10.00">fn_decls.h</text>
</a>
</g>
</g>
<!-- Node2&#45;&gt;Node12 -->
<g id="edge11" class="edge"><title>Node2&#45;&gt;Node12</title>
<path fill="none" stroke="midnightblue" d="M374.061,-57.8648C377.235,-57.1825 380.429,-56.5436 383.5,-56 514.201,-32.862 551.527,-42.1288 685.63,-20.1708"/>
<polygon fill="midnightblue" stroke="midnightblue" points="686.594,-23.5586 695.883,-18.4627 685.443,-16.6538 686.594,-23.5586"/>
</g>
</g>
</svg>
