<?xml version="1.0" encoding="UTF-8" standalone="no"?>
<!DOCTYPE svg PUBLIC "-//W3C//DTD SVG 1.1//EN"
 "http://www.w3.org/Graphics/SVG/1.1/DTD/svg11.dtd">
<!-- Generated by graphviz version 2.38.0 (20140413.2041)
 -->
<!-- Title: init_color Pages: 1 -->
<svg width="467pt" height="427pt"
 viewBox="0.00 0.00 467.00 427.00" xmlns="http://www.w3.org/2000/svg" xmlns:xlink="http://www.w3.org/1999/xlink">
<g id="graph0" class="graph" transform="scale(1 1) rotate(0) translate(4 423)">
<title>init_color</title>
<polygon fill="white" stroke="none" points="-4,4 -4,-423 463,-423 463,4 -4,4"/>
<!-- Node1 -->
<g id="node1" class="node"><title>Node1</title>
<polygon fill="#bfbfbf" stroke="black" points="0,-209.5 0,-228.5 59,-228.5 59,-209.5 0,-209.5"/>
<text text-anchor="middle" x="29.5" y="-216.5" font-family="Helvetica,sans-Serif" font-size="10.00">init_color</text>
</g>
<!-- Node2 -->
<g id="node2" class="node"><title>Node2</title>
<g id="a_node2"><a xlink:href="../../d9/dea/getcx3d_8c.html#af4152c13a06d002f268af780c0433c3a" target="_top" xlink:title="done">
<polygon fill="white" stroke="black" points="137,-399.5 137,-418.5 178,-418.5 178,-399.5 137,-399.5"/>
<text text-anchor="middle" x="157.5" y="-406.5" font-family="Helvetica,sans-Serif" font-size="10.00">done</text>
</a>
</g>
</g>
<!-- Node1&#45;&gt;Node2 -->
<g id="edge1" class="edge"><title>Node1&#45;&gt;Node2</title>
<path fill="none" stroke="midnightblue" d="M31.2582,-228.741C34.0397,-257.706 46.2374,-344.127 95,-390 103.662,-398.149 115.751,-402.806 126.92,-405.466"/>
<polygon fill="midnightblue" stroke="midnightblue" points="126.309,-408.913 136.794,-407.391 127.648,-402.042 126.309,-408.913"/>
</g>
<!-- Node4 -->
<g id="node4" class="node"><title>Node4</title>
<g id="a_node4"><a xlink:href="../../dd/d17/x11__stuff_8c.html#ae017ad44874458c6bb5e106c3bae2e68" target="_top" xlink:title="init_separate_color_rw">
<polygon fill="white" stroke="black" points="95,-361.5 95,-380.5 220,-380.5 220,-361.5 95,-361.5"/>
<text text-anchor="middle" x="157.5" y="-368.5" font-family="Helvetica,sans-Serif" font-size="10.00">init_separate_color_rw</text>
</a>
</g>
</g>
<!-- Node1&#45;&gt;Node4 -->
<g id="edge3" class="edge"><title>Node1&#45;&gt;Node4</title>
<path fill="none" stroke="midnightblue" d="M32.4073,-228.652C37.7358,-253.059 55.0853,-317.731 95,-352 96.966,-353.688 99.0804,-355.226 101.3,-356.627"/>
<polygon fill="midnightblue" stroke="midnightblue" points="99.8174,-359.803 110.294,-361.384 103.09,-353.615 99.8174,-359.803"/>
</g>
<!-- Node5 -->
<g id="node5" class="node"><title>Node5</title>
<g id="a_node5"><a xlink:href="../../dd/d17/x11__stuff_8c.html#a56a91f9eb7237d9d5de00bf98589f014" target="_top" xlink:title="init_color_rw">
<polygon fill="white" stroke="black" points="119,-323.5 119,-342.5 196,-342.5 196,-323.5 119,-323.5"/>
<text text-anchor="middle" x="157.5" y="-330.5" font-family="Helvetica,sans-Serif" font-size="10.00">init_color_rw</text>
</a>
</g>
</g>
<!-- Node1&#45;&gt;Node5 -->
<g id="edge4" class="edge"><title>Node1&#45;&gt;Node5</title>
<path fill="none" stroke="midnightblue" d="M34.4183,-228.673C42.6834,-247.861 63.7498,-290.879 95,-314 99.3794,-317.24 104.321,-319.935 109.452,-322.176"/>
<polygon fill="midnightblue" stroke="midnightblue" points="108.221,-325.452 118.812,-325.736 110.71,-318.909 108.221,-325.452"/>
</g>
<!-- Node6 -->
<g id="node6" class="node"><title>Node6</title>
<g id="a_node6"><a xlink:href="../../dd/d17/x11__stuff_8c.html#abe63565f52cf7ff0495516a658ed263a" target="_top" xlink:title="init_separate_color_ro">
<polygon fill="white" stroke="black" points="96,-285.5 96,-304.5 219,-304.5 219,-285.5 96,-285.5"/>
<text text-anchor="middle" x="157.5" y="-292.5" font-family="Helvetica,sans-Serif" font-size="10.00">init_separate_color_ro</text>
</a>
</g>
</g>
<!-- Node1&#45;&gt;Node6 -->
<g id="edge5" class="edge"><title>Node1&#45;&gt;Node6</title>
<path fill="none" stroke="midnightblue" d="M39.1352,-228.879C50.6784,-241.511 72.3281,-263.268 95,-276 98.8868,-278.183 103.056,-280.147 107.324,-281.907"/>
<polygon fill="midnightblue" stroke="midnightblue" points="106.165,-285.21 116.757,-285.441 108.62,-278.655 106.165,-285.21"/>
</g>
<!-- Node7 -->
<g id="node7" class="node"><title>Node7</title>
<g id="a_node7"><a xlink:href="../../dd/d17/x11__stuff_8c.html#a2e9d65fc8319fa69470319e592c411b2" target="_top" xlink:title="init_color_ro">
<polygon fill="white" stroke="black" points="120,-247.5 120,-266.5 195,-266.5 195,-247.5 120,-247.5"/>
<text text-anchor="middle" x="157.5" y="-254.5" font-family="Helvetica,sans-Serif" font-size="10.00">init_color_ro</text>
</a>
</g>
</g>
<!-- Node1&#45;&gt;Node7 -->
<g id="edge6" class="edge"><title>Node1&#45;&gt;Node7</title>
<path fill="none" stroke="midnightblue" d="M59.0914,-227.623C75.7089,-232.634 96.9339,-239.036 115.327,-244.583"/>
<polygon fill="midnightblue" stroke="midnightblue" points="114.341,-247.941 124.926,-247.478 116.362,-241.239 114.341,-247.941"/>
</g>
<!-- Node8 -->
<g id="node8" class="node"><title>Node8</title>
<g id="a_node8"><a xlink:href="../../dd/d17/x11__stuff_8c.html#a7021b8c01143057ae4a2a18092c34b46" target="_top" xlink:title="init_mono_rw">
<polygon fill="white" stroke="black" points="117.5,-209.5 117.5,-228.5 197.5,-228.5 197.5,-209.5 117.5,-209.5"/>
<text text-anchor="middle" x="157.5" y="-216.5" font-family="Helvetica,sans-Serif" font-size="10.00">init_mono_rw</text>
</a>
</g>
</g>
<!-- Node1&#45;&gt;Node8 -->
<g id="edge7" class="edge"><title>Node1&#45;&gt;Node8</title>
<path fill="none" stroke="midnightblue" d="M59.0914,-219C73.1478,-219 90.5008,-219 106.648,-219"/>
<polygon fill="midnightblue" stroke="midnightblue" points="107.038,-222.5 117.038,-219 107.038,-215.5 107.038,-222.5"/>
</g>
<!-- Node9 -->
<g id="node9" class="node"><title>Node9</title>
<g id="a_node9"><a xlink:href="../../dd/d17/x11__stuff_8c.html#a69afda6d445b604a1764d53ea76885ce" target="_top" xlink:title="init_mono_ro">
<polygon fill="white" stroke="black" points="118.5,-171.5 118.5,-190.5 196.5,-190.5 196.5,-171.5 118.5,-171.5"/>
<text text-anchor="middle" x="157.5" y="-178.5" font-family="Helvetica,sans-Serif" font-size="10.00">init_mono_ro</text>
</a>
</g>
</g>
<!-- Node1&#45;&gt;Node9 -->
<g id="edge8" class="edge"><title>Node1&#45;&gt;Node9</title>
<path fill="none" stroke="midnightblue" d="M59.0914,-210.377C75.7089,-205.366 96.9339,-198.964 115.327,-193.417"/>
<polygon fill="midnightblue" stroke="midnightblue" points="116.362,-196.761 124.926,-190.522 114.341,-190.059 116.362,-196.761"/>
</g>
<!-- Node10 -->
<g id="node10" class="node"><title>Node10</title>
<g id="a_node10"><a xlink:href="../../d7/dd0/fn__decls_8h.html#a69c92608417ec9462b3a40fa311a159c" target="_top" xlink:title="get_dither_arrays">
<polygon fill="white" stroke="black" points="107,-133.5 107,-152.5 208,-152.5 208,-133.5 107,-133.5"/>
<text text-anchor="middle" x="157.5" y="-140.5" font-family="Helvetica,sans-Serif" font-size="10.00">get_dither_arrays</text>
</a>
</g>
</g>
<!-- Node1&#45;&gt;Node10 -->
<g id="edge9" class="edge"><title>Node1&#45;&gt;Node10</title>
<path fill="none" stroke="midnightblue" d="M39.1352,-209.121C50.6784,-196.489 72.3281,-174.732 95,-162 98.8868,-159.817 103.056,-157.853 107.324,-156.093"/>
<polygon fill="midnightblue" stroke="midnightblue" points="108.62,-159.345 116.757,-152.559 106.165,-152.79 108.62,-159.345"/>
</g>
<!-- Node11 -->
<g id="node11" class="node"><title>Node11</title>
<g id="a_node11"><a xlink:href="../../d9/dbb/dither_8c.html#a7ff23fcd77b62deab9304ffd3d684f47" target="_top" xlink:title="make_square">
<polygon fill="white" stroke="black" points="117.5,-95.5 117.5,-114.5 197.5,-114.5 197.5,-95.5 117.5,-95.5"/>
<text text-anchor="middle" x="157.5" y="-102.5" font-family="Helvetica,sans-Serif" font-size="10.00">make_square</text>
</a>
</g>
</g>
<!-- Node1&#45;&gt;Node11 -->
<g id="edge10" class="edge"><title>Node1&#45;&gt;Node11</title>
<path fill="none" stroke="midnightblue" d="M34.4183,-209.327C42.6834,-190.139 63.7498,-147.121 95,-124 98.8938,-121.119 103.232,-118.669 107.753,-116.587"/>
<polygon fill="midnightblue" stroke="midnightblue" points="109.218,-119.77 117.204,-112.808 106.619,-113.27 109.218,-119.77"/>
</g>
<!-- Node12 -->
<g id="node12" class="node"><title>Node12</title>
<g id="a_node12"><a xlink:href="../../dd/d17/x11__stuff_8c.html#ac5fa440606f302285b9b70d28dc69dd5" target="_top" xlink:title="get_x_colormap">
<polygon fill="white" stroke="black" points="111.5,-57.5 111.5,-76.5 203.5,-76.5 203.5,-57.5 111.5,-57.5"/>
<text text-anchor="middle" x="157.5" y="-64.5" font-family="Helvetica,sans-Serif" font-size="10.00">get_x_colormap</text>
</a>
</g>
</g>
<!-- Node1&#45;&gt;Node12 -->
<g id="edge11" class="edge"><title>Node1&#45;&gt;Node12</title>
<path fill="none" stroke="midnightblue" d="M32.4073,-209.348C37.7358,-184.941 55.0853,-120.269 95,-86 97.2257,-84.0891 99.6415,-82.3703 102.185,-80.8244"/>
<polygon fill="midnightblue" stroke="midnightblue" points="103.919,-83.869 111.235,-76.2058 100.737,-77.634 103.919,-83.869"/>
</g>
<!-- Node14 -->
<g id="node14" class="node"><title>Node14</title>
<g id="a_node14"><a xlink:href="../../dd/d17/x11__stuff_8c.html#a4b15e1be03bcd98d027ed9eecefca1a4" target="_top" xlink:title="set_white_black_pixel">
<polygon fill="white" stroke="black" points="98,-19.5 98,-38.5 217,-38.5 217,-19.5 98,-19.5"/>
<text text-anchor="middle" x="157.5" y="-26.5" font-family="Helvetica,sans-Serif" font-size="10.00">set_white_black_pixel</text>
</a>
</g>
</g>
<!-- Node1&#45;&gt;Node14 -->
<g id="edge13" class="edge"><title>Node1&#45;&gt;Node14</title>
<path fill="none" stroke="midnightblue" d="M31.2582,-209.259C34.0397,-180.294 46.2374,-93.8729 95,-48 96.6864,-46.4135 98.5026,-44.9594 100.417,-43.6266"/>
<polygon fill="midnightblue" stroke="midnightblue" points="102.393,-46.5286 109.336,-38.5258 98.9174,-40.4522 102.393,-46.5286"/>
</g>
<!-- Node3 -->
<g id="node3" class="node"><title>Node3</title>
<g id="a_node3"><a xlink:href="../../da/d12/sig_8c.html#aa189be24085654e9f5fa0718698ae248" target="_top" xlink:title="sig_block">
<polygon fill="white" stroke="black" points="286,-399.5 286,-418.5 346,-418.5 346,-399.5 286,-399.5"/>
<text text-anchor="middle" x="316" y="-406.5" font-family="Helvetica,sans-Serif" font-size="10.00">sig_block</text>
</a>
</g>
</g>
<!-- Node2&#45;&gt;Node3 -->
<g id="edge2" class="edge"><title>Node2&#45;&gt;Node3</title>
<path fill="none" stroke="midnightblue" d="M178.004,-409C202.372,-409 244.649,-409 275.811,-409"/>
<polygon fill="midnightblue" stroke="midnightblue" points="275.911,-412.5 285.911,-409 275.911,-405.5 275.911,-412.5"/>
</g>
<!-- Node13 -->
<g id="node13" class="node"><title>Node13</title>
<g id="a_node13"><a xlink:href="../../dd/d17/x11__stuff_8c.html#a3f67586acd0e1fcd4aeafcae19dcbd77" target="_top" xlink:title="visual_class_to_string">
<polygon fill="white" stroke="black" points="256,-57.5 256,-76.5 376,-76.5 376,-57.5 256,-57.5"/>
<text text-anchor="middle" x="316" y="-64.5" font-family="Helvetica,sans-Serif" font-size="10.00">visual_class_to_string</text>
</a>
</g>
</g>
<!-- Node12&#45;&gt;Node13 -->
<g id="edge12" class="edge"><title>Node12&#45;&gt;Node13</title>
<path fill="none" stroke="midnightblue" d="M203.766,-67C216.842,-67 231.422,-67 245.608,-67"/>
<polygon fill="midnightblue" stroke="midnightblue" points="245.841,-70.5001 255.841,-67 245.841,-63.5001 245.841,-70.5001"/>
</g>
<!-- Node15 -->
<g id="node15" class="node"><title>Node15</title>
<g id="a_node15"><a xlink:href="../../dd/d17/x11__stuff_8c.html#a35c5064d63d309e228900b1503339a3c" target="_top" xlink:title="get_most_contrasting">
<polygon fill="white" stroke="black" points="256.5,-19.5 256.5,-38.5 375.5,-38.5 375.5,-19.5 256.5,-19.5"/>
<text text-anchor="middle" x="316" y="-26.5" font-family="Helvetica,sans-Serif" font-size="10.00">get_most_contrasting</text>
</a>
</g>
</g>
<!-- Node14&#45;&gt;Node15 -->
<g id="edge14" class="edge"><title>Node14&#45;&gt;Node15</title>
<path fill="none" stroke="midnightblue" d="M217.22,-29C226.747,-29 236.687,-29 246.424,-29"/>
<polygon fill="midnightblue" stroke="midnightblue" points="246.471,-32.5001 256.471,-29 246.471,-25.5001 246.471,-32.5001"/>
</g>
<!-- Node16 -->
<g id="node16" class="node"><title>Node16</title>
<g id="a_node16"><a xlink:href="../../d0/dcc/rletorla_8c.html#ab7e36af3707843f77cc5b4e831c2fa6d" target="_top" xlink:title="malloc">
<polygon fill="white" stroke="black" points="412,-38.5 412,-57.5 459,-57.5 459,-38.5 412,-38.5"/>
<text text-anchor="middle" x="435.5" y="-45.5" font-family="Helvetica,sans-Serif" font-size="10.00">malloc</text>
</a>
</g>
</g>
<!-- Node15&#45;&gt;Node16 -->
<g id="edge15" class="edge"><title>Node15&#45;&gt;Node16</title>
<path fill="none" stroke="midnightblue" d="M375.75,-38.5C384.686,-39.9449 393.622,-41.3899 401.731,-42.7011"/>
<polygon fill="midnightblue" stroke="midnightblue" points="401.414,-46.1954 411.845,-44.3366 402.532,-39.2851 401.414,-46.1954"/>
</g>
<!-- Node17 -->
<g id="node17" class="node"><title>Node17</title>
<g id="a_node17"><a xlink:href="../../d0/dcc/rletorla_8c.html#aafde19f7d36ca163a143579c1b125b6d" target="_top" xlink:title="free">
<polygon fill="white" stroke="black" points="418,-0.5 418,-19.5 453,-19.5 453,-0.5 418,-0.5"/>
<text text-anchor="middle" x="435.5" y="-7.5" font-family="Helvetica,sans-Serif" font-size="10.00">free</text>
</a>
</g>
</g>
<!-- Node15&#45;&gt;Node17 -->
<g id="edge16" class="edge"><title>Node15&#45;&gt;Node17</title>
<path fill="none" stroke="midnightblue" d="M375.75,-19.5C387.005,-17.68 398.26,-15.8601 407.863,-14.3073"/>
<polygon fill="midnightblue" stroke="midnightblue" points="408.601,-17.7334 417.914,-12.6819 407.484,-10.8232 408.601,-17.7334"/>
</g>
</g>
</svg>
