<?xml version="1.0" encoding="UTF-8" standalone="no"?>
<!DOCTYPE svg PUBLIC "-//W3C//DTD SVG 1.1//EN"
 "http://www.w3.org/Graphics/SVG/1.1/DTD/svg11.dtd">
<!-- Generated by graphviz version 2.38.0 (20140413.2041)
 -->
<!-- Title: set_white_black_pixel Pages: 1 -->
<svg width="365pt" height="66pt"
 viewBox="0.00 0.00 365.00 66.00" xmlns="http://www.w3.org/2000/svg" xmlns:xlink="http://www.w3.org/1999/xlink">
<g id="graph0" class="graph" transform="scale(1 1) rotate(0) translate(4 62)">
<title>set_white_black_pixel</title>
<polygon fill="white" stroke="none" points="-4,4 -4,-62 361,-62 361,4 -4,4"/>
<!-- Node1 -->
<g id="node1" class="node"><title>Node1</title>
<polygon fill="#bfbfbf" stroke="black" points="0,-19.5 0,-38.5 119,-38.5 119,-19.5 0,-19.5"/>
<text text-anchor="middle" x="59.5" y="-26.5" font-family="Helvetica,sans-Serif" font-size="10.00">set_white_black_pixel</text>
</g>
<!-- Node2 -->
<g id="node2" class="node"><title>Node2</title>
<g id="a_node2"><a xlink:href="../../dd/d17/x11__stuff_8c.html#a35c5064d63d309e228900b1503339a3c" target="_top" xlink:title="get_most_contrasting">
<polygon fill="white" stroke="black" points="155,-19.5 155,-38.5 274,-38.5 274,-19.5 155,-19.5"/>
<text text-anchor="middle" x="214.5" y="-26.5" font-family="Helvetica,sans-Serif" font-size="10.00">get_most_contrasting</text>
</a>
</g>
</g>
<!-- Node1&#45;&gt;Node2 -->
<g id="edge1" class="edge"><title>Node1&#45;&gt;Node2</title>
<path fill="none" stroke="midnightblue" d="M119.216,-29C127.544,-29 136.169,-29 144.667,-29"/>
<polygon fill="midnightblue" stroke="midnightblue" points="144.941,-32.5001 154.941,-29 144.941,-25.5001 144.941,-32.5001"/>
</g>
<!-- Node3 -->
<g id="node3" class="node"><title>Node3</title>
<g id="a_node3"><a xlink:href="../../d0/dcc/rletorla_8c.html#ab7e36af3707843f77cc5b4e831c2fa6d" target="_top" xlink:title="malloc">
<polygon fill="white" stroke="black" points="310,-38.5 310,-57.5 357,-57.5 357,-38.5 310,-38.5"/>
<text text-anchor="middle" x="333.5" y="-45.5" font-family="Helvetica,sans-Serif" font-size="10.00">malloc</text>
</a>
</g>
</g>
<!-- Node2&#45;&gt;Node3 -->
<g id="edge2" class="edge"><title>Node2&#45;&gt;Node3</title>
<path fill="none" stroke="midnightblue" d="M274.343,-38.5557C283.127,-39.9821 291.9,-41.4068 299.871,-42.7013"/>
<polygon fill="midnightblue" stroke="midnightblue" points="299.389,-46.1688 309.821,-44.3171 300.511,-39.2593 299.389,-46.1688"/>
</g>
<!-- Node4 -->
<g id="node4" class="node"><title>Node4</title>
<g id="a_node4"><a xlink:href="../../d0/dcc/rletorla_8c.html#aafde19f7d36ca163a143579c1b125b6d" target="_top" xlink:title="free">
<polygon fill="white" stroke="black" points="316,-0.5 316,-19.5 351,-19.5 351,-0.5 316,-0.5"/>
<text text-anchor="middle" x="333.5" y="-7.5" font-family="Helvetica,sans-Serif" font-size="10.00">free</text>
</a>
</g>
</g>
<!-- Node2&#45;&gt;Node4 -->
<g id="edge3" class="edge"><title>Node2&#45;&gt;Node4</title>
<path fill="none" stroke="midnightblue" d="M274.343,-19.4443C285.423,-17.6449 296.487,-15.8482 305.945,-14.3124"/>
<polygon fill="midnightblue" stroke="midnightblue" points="306.546,-17.7608 315.855,-12.703 305.423,-10.8513 306.546,-17.7608"/>
</g>
</g>
</svg>
