<?xml version="1.0" encoding="UTF-8" standalone="no"?>
<!DOCTYPE svg PUBLIC "-//W3C//DTD SVG 1.1//EN"
 "http://www.w3.org/Graphics/SVG/1.1/DTD/svg11.dtd">
<!-- Generated by graphviz version 2.38.0 (20140413.2041)
 -->
<!-- Title: get/gmr27/XtndRunget.c Pages: 1 -->
<svg width="369pt" height="140pt"
 viewBox="0.00 0.00 369.00 140.00" xmlns="http://www.w3.org/2000/svg" xmlns:xlink="http://www.w3.org/1999/xlink">
<g id="graph0" class="graph" transform="scale(1 1) rotate(0) translate(4 136)">
<title>get/gmr27/XtndRunget.c</title>
<polygon fill="white" stroke="none" points="-4,4 -4,-136 365,-136 365,4 -4,4"/>
<!-- Node1 -->
<g id="node1" class="node"><title>Node1</title>
<polygon fill="#bfbfbf" stroke="black" points="136,-112.5 136,-131.5 267,-131.5 267,-112.5 136,-112.5"/>
<text text-anchor="middle" x="201.5" y="-119.5" font-family="Helvetica,sans-Serif" font-size="10.00">get/gmr27/XtndRunget.c</text>
</g>
<!-- Node2 -->
<g id="node2" class="node"><title>Node2</title>
<g id="a_node2"><a xlink:href="../../df/dad/rle__config_8h.html" target="_top" xlink:title="rle_config.h">
<polygon fill="white" stroke="black" points="23,-56.5 23,-75.5 94,-75.5 94,-56.5 23,-56.5"/>
<text text-anchor="middle" x="58.5" y="-63.5" font-family="Helvetica,sans-Serif" font-size="10.00">rle_config.h</text>
</a>
</g>
</g>
<!-- Node1&#45;&gt;Node2 -->
<g id="edge1" class="edge"><title>Node1&#45;&gt;Node2</title>
<path fill="none" stroke="midnightblue" d="M178.841,-112.444C155.098,-103.478 117.591,-89.314 90.7616,-79.1827"/>
<polygon fill="midnightblue" stroke="midnightblue" points="91.6445,-75.7749 81.0528,-75.5164 89.1715,-82.3235 91.6445,-75.7749"/>
</g>
<!-- Node5 -->
<g id="node5" class="node"><title>Node5</title>
<polygon fill="white" stroke="#bfbfbf" points="112,-56.5 112,-75.5 159,-75.5 159,-56.5 112,-56.5"/>
<text text-anchor="middle" x="135.5" y="-63.5" font-family="Helvetica,sans-Serif" font-size="10.00">stdio.h</text>
</g>
<!-- Node1&#45;&gt;Node5 -->
<g id="edge4" class="edge"><title>Node1&#45;&gt;Node5</title>
<path fill="none" stroke="midnightblue" d="M190.896,-112.324C181.044,-104.263 166.149,-92.0765 154.285,-82.3695"/>
<polygon fill="midnightblue" stroke="midnightblue" points="156.253,-79.4575 146.297,-75.8339 151.82,-84.8752 156.253,-79.4575"/>
</g>
<!-- Node6 -->
<g id="node6" class="node"><title>Node6</title>
<g id="a_node6"><a xlink:href="../../dc/d60/getfb_8h.html" target="_top" xlink:title="getfb.h">
<polygon fill="white" stroke="black" points="177.5,-56.5 177.5,-75.5 225.5,-75.5 225.5,-56.5 177.5,-56.5"/>
<text text-anchor="middle" x="201.5" y="-63.5" font-family="Helvetica,sans-Serif" font-size="10.00">getfb.h</text>
</a>
</g>
</g>
<!-- Node1&#45;&gt;Node6 -->
<g id="edge5" class="edge"><title>Node1&#45;&gt;Node6</title>
<path fill="none" stroke="midnightblue" d="M201.5,-112.083C201.5,-105.006 201.5,-94.8611 201.5,-85.9865"/>
<polygon fill="midnightblue" stroke="midnightblue" points="205,-85.751 201.5,-75.7511 198,-85.7511 205,-85.751"/>
</g>
<!-- Node7 -->
<g id="node7" class="node"><title>Node7</title>
<g id="a_node7"><a xlink:href="../../da/d8d/rle__code_8h.html" target="_top" xlink:title="rle_code.h">
<polygon fill="white" stroke="black" points="243.5,-56.5 243.5,-75.5 309.5,-75.5 309.5,-56.5 243.5,-56.5"/>
<text text-anchor="middle" x="276.5" y="-63.5" font-family="Helvetica,sans-Serif" font-size="10.00">rle_code.h</text>
</a>
</g>
</g>
<!-- Node1&#45;&gt;Node7 -->
<g id="edge6" class="edge"><title>Node1&#45;&gt;Node7</title>
<path fill="none" stroke="midnightblue" d="M213.55,-112.324C224.963,-104.107 242.331,-91.6017 255.935,-81.8069"/>
<polygon fill="midnightblue" stroke="midnightblue" points="258.16,-84.5174 264.231,-75.8339 254.07,-78.8366 258.16,-84.5174"/>
</g>
<!-- Node8 -->
<g id="node8" class="node"><title>Node8</title>
<g id="a_node8"><a xlink:href="../../dc/d25/fb_8h.html" target="_top" xlink:title="fb.h">
<polygon fill="white" stroke="black" points="328,-56.5 328,-75.5 361,-75.5 361,-56.5 328,-56.5"/>
<text text-anchor="middle" x="344.5" y="-63.5" font-family="Helvetica,sans-Serif" font-size="10.00">fb.h</text>
</a>
</g>
</g>
<!-- Node1&#45;&gt;Node8 -->
<g id="edge7" class="edge"><title>Node1&#45;&gt;Node8</title>
<path fill="none" stroke="midnightblue" d="M224.159,-112.444C249.718,-102.792 291.226,-87.1174 318.195,-76.9333"/>
<polygon fill="midnightblue" stroke="midnightblue" points="319.637,-80.1301 327.756,-73.323 317.164,-73.5814 319.637,-80.1301"/>
</g>
<!-- Node3 -->
<g id="node3" class="node"><title>Node3</title>
<polygon fill="white" stroke="#bfbfbf" points="0,-0.5 0,-19.5 49,-19.5 49,-0.5 0,-0.5"/>
<text text-anchor="middle" x="24.5" y="-7.5" font-family="Helvetica,sans-Serif" font-size="10.00">stdlib.h</text>
</g>
<!-- Node2&#45;&gt;Node3 -->
<g id="edge2" class="edge"><title>Node2&#45;&gt;Node3</title>
<path fill="none" stroke="midnightblue" d="M52.8856,-56.083C48.1326,-48.5341 41.1819,-37.4948 35.3484,-28.2298"/>
<polygon fill="midnightblue" stroke="midnightblue" points="38.2999,-26.3486 30.0099,-19.7511 32.3763,-30.0783 38.2999,-26.3486"/>
</g>
<!-- Node4 -->
<g id="node4" class="node"><title>Node4</title>
<polygon fill="white" stroke="#bfbfbf" points="67,-0.5 67,-19.5 118,-19.5 118,-0.5 67,-0.5"/>
<text text-anchor="middle" x="92.5" y="-7.5" font-family="Helvetica,sans-Serif" font-size="10.00">string.h</text>
</g>
<!-- Node2&#45;&gt;Node4 -->
<g id="edge3" class="edge"><title>Node2&#45;&gt;Node4</title>
<path fill="none" stroke="midnightblue" d="M64.1144,-56.083C68.8674,-48.5341 75.8181,-37.4948 81.6516,-28.2298"/>
<polygon fill="midnightblue" stroke="midnightblue" points="84.6237,-30.0783 86.9901,-19.7511 78.7001,-26.3486 84.6237,-30.0783"/>
</g>
</g>
</svg>
