<?xml version="1.0" encoding="UTF-8" standalone="no"?>
<!DOCTYPE svg PUBLIC "-//W3C//DTD SVG 1.1//EN"
 "http://www.w3.org/Graphics/SVG/1.1/DTD/svg11.dtd">
<!-- Generated by graphviz version 2.38.0 (20140413.2041)
 -->
<!-- Title: main Pages: 1 -->
<!--zoomable 671 -->
<svg id="main" version="1.1" xmlns="http://www.w3.org/2000/svg" xmlns:xlink="http://www.w3.org/1999/xlink" xml:space="preserve" onload="init(evt)">
<style type="text/css"><![CDATA[
.edge:hover path { stroke: red; }
.edge:hover polygon { stroke: red; fill: red; }
]]></style>
<script type="text/javascript"><![CDATA[
var edges = document.getElementsByTagName('g');
if (edges && edges.length) {
  for (var i=0;i<edges.length;i++) {
    if (edges[i].id.substr(0,4)=='edge') {
      edges[i].setAttribute('class','edge');
    }
  }
}
]]></script>
        <defs>
                <circle id="rim" cx="0" cy="0" r="7"/>
                <circle id="rim2" cx="0" cy="0" r="3.5"/>
                <g id="zoomPlus">
                        <use xlink:href="#rim" fill="#404040">
                                <set attributeName="fill" to="#808080" begin="zoomplus.mouseover" end="zoomplus.mouseout"/>
                        </use>
                        <path d="M-4,0h8M0,-4v8" fill="none" stroke="white" stroke-width="1.5" pointer-events="none"/>
                </g>
                <g id="zoomMin">
                        <use xlink:href="#rim" fill="#404040">
                                <set attributeName="fill" to="#808080" begin="zoomminus.mouseover" end="zoomminus.mouseout"/>
                        </use>
                        <path d="M-4,0h8" fill="none" stroke="white" stroke-width="1.5" pointer-events="none"/>
                </g>
                <g id="dirArrow">
                        <path fill="none" stroke="white" stroke-width="1.5" d="M0,-3.0v7 M-2.5,-0.5L0,-3.0L2.5,-0.5"/>
                </g>
               <g id="resetDef">
                       <use xlink:href="#rim2" fill="#404040">
                               <set attributeName="fill" to="#808080" begin="reset.mouseover" end="reset.mouseout"/>
                       </use>
               </g>
        </defs>

<script type="text/javascript">
var viewWidth = 523;
var viewHeight = 671;
var sectionId = 'dynsection-1';
</script>
<script xlink:href="../../svgpan.js"/>
<svg id="graph" class="graph">
<g id="viewport">
<title>main</title>
<polygon fill="white" stroke="none" points="-4,4 -4,-667 519,-667 519,4 -4,4"/>
<!-- Node1 -->
<g id="node1" class="node"><title>Node1</title>
<polygon fill="#bfbfbf" stroke="black" points="0,-339.5 0,-358.5 39,-358.5 39,-339.5 0,-339.5"/>
<text text-anchor="middle" x="19.5" y="-346.5" font-family="Helvetica,sans-Serif" font-size="10.00">main</text>
</g>
<!-- Node2 -->
<g id="node2" class="node"><title>Node2</title>
<g id="a_node2"><a xlink:href="../../d4/db0/scanargs_8c.html#a7ea6d702c0484056c8504d6ce7fede08" target="_top" xlink:title="scanargs">
<polygon fill="white" stroke="black" points="85,-643.5 85,-662.5 145,-662.5 145,-643.5 85,-643.5"/>
<text text-anchor="middle" x="115" y="-650.5" font-family="Helvetica,sans-Serif" font-size="10.00">scanargs</text>
</a>
</g>
</g>
<!-- Node1&#45;&gt;Node2 -->
<g id="edge1" class="edge"><title>Node1&#45;&gt;Node2</title>
<path fill="none" stroke="midnightblue" d="M21.3349,-358.599C25.2983,-402.42 43.351,-583.299 75,-629 77.2773,-632.288 80.1658,-635.211 83.3374,-637.785"/>
<polygon fill="midnightblue" stroke="midnightblue" points="81.3932,-640.696 91.6173,-643.474 85.3574,-634.926 81.3932,-640.696"/>
</g>
<!-- Node4 -->
<g id="node4" class="node"><title>Node4</title>
<g id="a_node4"><a xlink:href="../../d2/df3/rle__hdr_8c.html#a8ba0e5b11d1e39ab7227f1686e676c86" target="_top" xlink:title="rle_hdr_init">
<polygon fill="white" stroke="black" points="80,-339.5 80,-358.5 150,-358.5 150,-339.5 80,-339.5"/>
<text text-anchor="middle" x="115" y="-346.5" font-family="Helvetica,sans-Serif" font-size="10.00">rle_hdr_init</text>
</a>
</g>
</g>
<!-- Node1&#45;&gt;Node4 -->
<g id="edge3" class="edge"><title>Node1&#45;&gt;Node4</title>
<path fill="none" stroke="midnightblue" d="M39.4211,-349C48.2366,-349 59.1277,-349 69.8372,-349"/>
<polygon fill="midnightblue" stroke="midnightblue" points="69.9758,-352.5 79.9757,-349 69.9757,-345.5 69.9758,-352.5"/>
</g>
<!-- Node7 -->
<g id="node7" class="node"><title>Node7</title>
<g id="a_node7"><a xlink:href="../../d2/df3/rle__hdr_8c.html#afc916e29aea8788e0878ca315ff69821" target="_top" xlink:title="rle_hdr_cp">
<polygon fill="white" stroke="black" points="199,-301.5 199,-320.5 267,-320.5 267,-301.5 199,-301.5"/>
<text text-anchor="middle" x="233" y="-308.5" font-family="Helvetica,sans-Serif" font-size="10.00">rle_hdr_cp</text>
</a>
</g>
</g>
<!-- Node1&#45;&gt;Node7 -->
<g id="edge33" class="edge"><title>Node1&#45;&gt;Node7</title>
<path fill="none" stroke="midnightblue" d="M39.3729,-341.294C49.7312,-337.353 62.8962,-332.808 75,-330 112.846,-321.221 156.822,-316.342 188.588,-313.734"/>
<polygon fill="midnightblue" stroke="midnightblue" points="189.168,-317.199 198.866,-312.934 188.625,-310.22 189.168,-317.199"/>
</g>
<!-- Node9 -->
<g id="node9" class="node"><title>Node9</title>
<g id="a_node9"><a xlink:href="../../d2/df3/rle__hdr_8c.html#a82e79385f2d45cc3b80ce0f4f369eae5" target="_top" xlink:title="rle_names">
<polygon fill="white" stroke="black" points="329,-339.5 329,-358.5 395,-358.5 395,-339.5 329,-339.5"/>
<text text-anchor="middle" x="362" y="-346.5" font-family="Helvetica,sans-Serif" font-size="10.00">rle_names</text>
</a>
</g>
</g>
<!-- Node1&#45;&gt;Node9 -->
<g id="edge18" class="edge"><title>Node1&#45;&gt;Node9</title>
<path fill="none" stroke="midnightblue" d="M39.2556,-357.291C49.5796,-361.403 62.7492,-365.926 75,-368 160.681,-382.507 262.552,-368.381 318.654,-357.935"/>
<polygon fill="midnightblue" stroke="midnightblue" points="319.419,-361.352 328.583,-356.035 318.104,-354.477 319.419,-361.352"/>
</g>
<!-- Node10 -->
<g id="node10" class="node"><title>Node10</title>
<g id="a_node10"><a xlink:href="../../de/d4e/rle__open__f_8c.html#a89733a45961817885603ae01210290b7" target="_top" xlink:title="rle_open_f">
<polygon fill="white" stroke="black" points="199,-605.5 199,-624.5 267,-624.5 267,-605.5 199,-605.5"/>
<text text-anchor="middle" x="233" y="-612.5" font-family="Helvetica,sans-Serif" font-size="10.00">rle_open_f</text>
</a>
</g>
</g>
<!-- Node1&#45;&gt;Node10 -->
<g id="edge12" class="edge"><title>Node1&#45;&gt;Node10</title>
<path fill="none" stroke="midnightblue" d="M21.2555,-358.669C24.6598,-399.64 39.96,-558.325 75,-591 105.193,-619.155 153.77,-622.586 188.901,-620.583"/>
<polygon fill="midnightblue" stroke="midnightblue" points="189.164,-624.073 198.881,-619.849 188.651,-617.092 189.164,-624.073"/>
</g>
<!-- Node13 -->
<g id="node13" class="node"><title>Node13</title>
<g id="a_node13"><a xlink:href="../../d8/d30/cmd__name_8c.html#a271249070fdd12c176777c77d76f888f" target="_top" xlink:title="cmd_name">
<polygon fill="white" stroke="black" points="81,-453.5 81,-472.5 149,-472.5 149,-453.5 81,-453.5"/>
<text text-anchor="middle" x="115" y="-460.5" font-family="Helvetica,sans-Serif" font-size="10.00">cmd_name</text>
</a>
</g>
</g>
<!-- Node1&#45;&gt;Node13 -->
<g id="edge17" class="edge"><title>Node1&#45;&gt;Node13</title>
<path fill="none" stroke="midnightblue" d="M23.7996,-358.585C30.6483,-377.243 48.0509,-418.811 75,-444 76.4856,-445.389 78.0917,-446.696 79.7763,-447.923"/>
<polygon fill="midnightblue" stroke="midnightblue" points="78.3108,-451.131 88.6594,-453.402 81.9857,-445.173 78.3108,-451.131"/>
</g>
<!-- Node14 -->
<g id="node14" class="node"><title>Node14</title>
<g id="a_node14"><a xlink:href="../../db/d53/rle__getrow_8c.html#a619b27463c26e0a4a3d9648a9869ee52" target="_top" xlink:title="rle_get_setup">
<polygon fill="white" stroke="black" points="192.5,-491.5 192.5,-510.5 273.5,-510.5 273.5,-491.5 192.5,-491.5"/>
<text text-anchor="middle" x="233" y="-498.5" font-family="Helvetica,sans-Serif" font-size="10.00">rle_get_setup</text>
</a>
</g>
</g>
<!-- Node1&#45;&gt;Node14 -->
<g id="edge19" class="edge"><title>Node1&#45;&gt;Node14</title>
<path fill="none" stroke="midnightblue" d="M21.2459,-358.673C23.7389,-383.709 34.1138,-450.843 75,-482 105.279,-505.074 148.816,-508.727 182.366,-507.228"/>
<polygon fill="midnightblue" stroke="midnightblue" points="182.664,-510.716 192.432,-506.613 182.237,-503.729 182.664,-510.716"/>
</g>
<!-- Node16 -->
<g id="node16" class="node"><title>Node16</title>
<g id="a_node16"><a xlink:href="../../db/db2/rle__getcom_8c.html#a9cefd612c381bf82c9cdf1f3a3b12dd6" target="_top" xlink:title="rle_getcom">
<polygon fill="white" stroke="black" points="198.5,-111.5 198.5,-130.5 267.5,-130.5 267.5,-111.5 198.5,-111.5"/>
<text text-anchor="middle" x="233" y="-118.5" font-family="Helvetica,sans-Serif" font-size="10.00">rle_getcom</text>
</a>
</g>
</g>
<!-- Node1&#45;&gt;Node16 -->
<g id="edge25" class="edge"><title>Node1&#45;&gt;Node16</title>
<path fill="none" stroke="midnightblue" d="M20.6745,-339.266C21.7233,-310.303 28.7695,-223.723 75,-176 104.904,-145.131 153.092,-131.565 188.203,-125.617"/>
<polygon fill="midnightblue" stroke="midnightblue" points="188.843,-129.06 198.188,-124.069 187.77,-122.142 188.843,-129.06"/>
</g>
<!-- Node18 -->
<g id="node18" class="node"><title>Node18</title>
<g id="a_node18"><a xlink:href="../../da/dbc/rle__row__alc_8c.html#abf83029f1ab364a8cb72524f58d70a3b" target="_top" xlink:title="rle_row_alloc">
<polygon fill="white" stroke="black" points="322,-301.5 322,-320.5 402,-320.5 402,-301.5 322,-301.5"/>
<text text-anchor="middle" x="362" y="-308.5" font-family="Helvetica,sans-Serif" font-size="10.00">rle_row_alloc</text>
</a>
</g>
</g>
<!-- Node1&#45;&gt;Node18 -->
<g id="edge27" class="edge"><title>Node1&#45;&gt;Node18</title>
<path fill="none" stroke="midnightblue" d="M32.2551,-339.18C42.7886,-330.904 59.0024,-319.416 75,-313 157.954,-279.73 186.15,-282.302 275,-292 288.566,-293.481 303.126,-296.238 316.338,-299.203"/>
<polygon fill="midnightblue" stroke="midnightblue" points="315.605,-302.626 326.139,-301.492 317.197,-295.809 315.605,-302.626"/>
</g>
<!-- Node19 -->
<g id="node19" class="node"><title>Node19</title>
<g id="a_node19"><a xlink:href="../../db/d53/rle__getrow_8c.html#a3602e1158189cba5e5b0f9b983cba776" target="_top" xlink:title="rle_getrow">
<polygon fill="white" stroke="black" points="81.5,-415.5 81.5,-434.5 148.5,-434.5 148.5,-415.5 81.5,-415.5"/>
<text text-anchor="middle" x="115" y="-422.5" font-family="Helvetica,sans-Serif" font-size="10.00">rle_getrow</text>
</a>
</g>
</g>
<!-- Node1&#45;&gt;Node19 -->
<g id="edge30" class="edge"><title>Node1&#45;&gt;Node19</title>
<path fill="none" stroke="midnightblue" d="M29.5969,-358.847C39.9958,-369.816 57.8074,-387.745 75,-401 79.0374,-404.113 83.4992,-407.172 87.9195,-410.009"/>
<polygon fill="midnightblue" stroke="midnightblue" points="86.4345,-413.205 96.785,-415.467 90.1042,-407.244 86.4345,-413.205"/>
</g>
<!-- Node22 -->
<g id="node22" class="node"><title>Node22</title>
<g id="a_node22"><a xlink:href="../../df/da5/rle__putcom_8c.html#a436af4fe2b373da40f91fedb0fabb7fb" target="_top" xlink:title="rle_delcom">
<polygon fill="white" stroke="black" points="199,-73.5 199,-92.5 267,-92.5 267,-73.5 199,-73.5"/>
<text text-anchor="middle" x="233" y="-80.5" font-family="Helvetica,sans-Serif" font-size="10.00">rle_delcom</text>
</a>
</g>
</g>
<!-- Node1&#45;&gt;Node22 -->
<g id="edge34" class="edge"><title>Node1&#45;&gt;Node22</title>
<path fill="none" stroke="midnightblue" d="M21.6215,-339.288C26.2407,-300.9 44.9778,-160.316 75,-129 104.518,-98.2097 153.432,-87.7142 188.828,-84.2984"/>
<polygon fill="midnightblue" stroke="midnightblue" points="189.2,-87.7798 198.883,-83.4811 188.633,-80.8029 189.2,-87.7798"/>
</g>
<!-- Node24 -->
<g id="node24" class="node"><title>Node24</title>
<g id="a_node24"><a xlink:href="../../d8/def/rle__addhist_8c.html#a4f9433d6e4e203d0ecea1c7d3837afc3" target="_top" xlink:title="rle_addhist">
<polygon fill="white" stroke="black" points="80.5,-185.5 80.5,-204.5 149.5,-204.5 149.5,-185.5 80.5,-185.5"/>
<text text-anchor="middle" x="115" y="-192.5" font-family="Helvetica,sans-Serif" font-size="10.00">rle_addhist</text>
</a>
</g>
</g>
<!-- Node1&#45;&gt;Node24 -->
<g id="edge36" class="edge"><title>Node1&#45;&gt;Node24</title>
<path fill="none" stroke="midnightblue" d="M22.117,-339.45C26.5565,-315.827 40.9436,-253.836 75,-216 76.9293,-213.857 79.1302,-211.891 81.4817,-210.096"/>
<polygon fill="midnightblue" stroke="midnightblue" points="83.3977,-213.025 89.8814,-204.646 79.5875,-207.153 83.3977,-213.025"/>
</g>
<!-- Node26 -->
<g id="node26" class="node"><title>Node26</title>
<g id="a_node26"><a xlink:href="../../d9/d2a/rle__putrow_8c.html#af88a82b331cd6f425d2a2cc1623944c6" target="_top" xlink:title="rle_put_setup">
<polygon fill="white" stroke="black" points="75,-225.5 75,-244.5 155,-244.5 155,-225.5 75,-225.5"/>
<text text-anchor="middle" x="115" y="-232.5" font-family="Helvetica,sans-Serif" font-size="10.00">rle_put_setup</text>
</a>
</g>
</g>
<!-- Node1&#45;&gt;Node26 -->
<g id="edge42" class="edge"><title>Node1&#45;&gt;Node26</title>
<path fill="none" stroke="midnightblue" d="M24.5021,-339.328C32.1793,-321.672 50.4182,-283.758 75,-259 78.2383,-255.738 82.003,-252.726 85.8912,-250.016"/>
<polygon fill="midnightblue" stroke="midnightblue" points="87.8752,-252.903 94.4437,-244.59 84.1248,-246.992 87.8752,-252.903"/>
</g>
<!-- Node28 -->
<g id="node28" class="node"><title>Node28</title>
<g id="a_node28"><a xlink:href="../../d9/d2a/rle__putrow_8c.html#aa26532b01bc4f49b7383765cdc23ea72" target="_top" xlink:title="rle_putrow">
<polygon fill="white" stroke="black" points="82,-38.5 82,-57.5 148,-57.5 148,-38.5 82,-38.5"/>
<text text-anchor="middle" x="115" y="-45.5" font-family="Helvetica,sans-Serif" font-size="10.00">rle_putrow</text>
</a>
</g>
</g>
<!-- Node1&#45;&gt;Node28 -->
<g id="edge44" class="edge"><title>Node1&#45;&gt;Node28</title>
<path fill="none" stroke="midnightblue" d="M20.7618,-339.02C22.0672,-303.332 29.7949,-179.462 75,-91 79.9172,-81.3776 87.5566,-72.2726 94.7754,-64.9395"/>
<polygon fill="midnightblue" stroke="midnightblue" points="97.4942,-67.182 102.295,-57.7372 92.6521,-62.1268 97.4942,-67.182"/>
</g>
<!-- Node30 -->
<g id="node30" class="node"><title>Node30</title>
<g id="a_node30"><a xlink:href="../../d9/d2a/rle__putrow_8c.html#af4fab734a5d227ad2ae95840f56fff3b" target="_top" xlink:title="rle_puteof">
<polygon fill="white" stroke="black" points="330,-567.5 330,-586.5 394,-586.5 394,-567.5 330,-567.5"/>
<text text-anchor="middle" x="362" y="-574.5" font-family="Helvetica,sans-Serif" font-size="10.00">rle_puteof</text>
</a>
</g>
</g>
<!-- Node1&#45;&gt;Node30 -->
<g id="edge47" class="edge"><title>Node1&#45;&gt;Node30</title>
<path fill="none" stroke="midnightblue" d="M20.0364,-358.699C19.105,-390.127 20.7193,-490.008 75,-540 141.842,-601.56 257.664,-594.428 319.416,-585.064"/>
<polygon fill="midnightblue" stroke="midnightblue" points="320.254,-588.474 329.57,-583.429 319.141,-581.563 320.254,-588.474"/>
</g>
<!-- Node31 -->
<g id="node31" class="node"><title>Node31</title>
<g id="a_node31"><a xlink:href="../../da/dbc/rle__row__alc_8c.html#a4fa936a985e542d42e91d272f9f6092d" target="_top" xlink:title="rle_row_free">
<polygon fill="white" stroke="black" points="323.5,-529.5 323.5,-548.5 400.5,-548.5 400.5,-529.5 323.5,-529.5"/>
<text text-anchor="middle" x="362" y="-536.5" font-family="Helvetica,sans-Serif" font-size="10.00">rle_row_free</text>
</a>
</g>
</g>
<!-- Node1&#45;&gt;Node31 -->
<g id="edge49" class="edge"><title>Node1&#45;&gt;Node31</title>
<path fill="none" stroke="midnightblue" d="M20.5099,-358.85C21.1233,-387.258 27.1309,-469.741 75,-508 143.185,-562.496 251.568,-557.032 313.484,-548.077"/>
<polygon fill="midnightblue" stroke="midnightblue" points="314.024,-551.536 323.377,-546.559 312.962,-544.617 314.024,-551.536"/>
</g>
<!-- Node32 -->
<g id="node32" class="node"><title>Node32</title>
<g id="a_node32"><a xlink:href="../../d7/d24/rle__error_8c.html#af931d686cf3ca715c9b900527f0961c0" target="_top" xlink:title="rle_get_error">
<polygon fill="white" stroke="black" points="75.5,-0.5 75.5,-19.5 154.5,-19.5 154.5,-0.5 75.5,-0.5"/>
<text text-anchor="middle" x="115" y="-7.5" font-family="Helvetica,sans-Serif" font-size="10.00">rle_get_error</text>
</a>
</g>
</g>
<!-- Node1&#45;&gt;Node32 -->
<g id="edge51" class="edge"><title>Node1&#45;&gt;Node32</title>
<path fill="none" stroke="midnightblue" d="M20.9797,-339.266C23.5164,-291.27 36.7281,-80.0744 75,-29 75.9033,-27.7946 76.9035,-26.6615 77.9799,-25.5969"/>
<polygon fill="midnightblue" stroke="midnightblue" points="80.1286,-28.36 85.9715,-19.5219 75.8924,-22.7873 80.1286,-28.36"/>
</g>
<!-- Node3 -->
<g id="node3" class="node"><title>Node3</title>
<g id="a_node3"><a xlink:href="../../d4/db0/scanargs_8c.html#a862219039664df6eb3cfced58addf830" target="_top" xlink:title="_do_scanargs">
<polygon fill="white" stroke="black" points="191,-643.5 191,-662.5 275,-662.5 275,-643.5 191,-643.5"/>
<text text-anchor="middle" x="233" y="-650.5" font-family="Helvetica,sans-Serif" font-size="10.00">_do_scanargs</text>
</a>
</g>
</g>
<!-- Node2&#45;&gt;Node3 -->
<g id="edge2" class="edge"><title>Node2&#45;&gt;Node3</title>
<path fill="none" stroke="midnightblue" d="M145.272,-653C156.073,-653 168.654,-653 180.827,-653"/>
<polygon fill="midnightblue" stroke="midnightblue" points="180.909,-656.5 190.909,-653 180.909,-649.5 180.909,-656.5"/>
</g>
<!-- Node5 -->
<g id="node5" class="node"><title>Node5</title>
<g id="a_node5"><a xlink:href="../../d2/df3/rle__hdr_8c.html#a16c4da6201b3b8cf55127b9ca968d253" target="_top" xlink:title="rle_hdr_clear">
<polygon fill="white" stroke="black" points="322,-415.5 322,-434.5 402,-434.5 402,-415.5 322,-415.5"/>
<text text-anchor="middle" x="362" y="-422.5" font-family="Helvetica,sans-Serif" font-size="10.00">rle_hdr_clear</text>
</a>
</g>
</g>
<!-- Node4&#45;&gt;Node5 -->
<g id="edge4" class="edge"><title>Node4&#45;&gt;Node5</title>
<path fill="none" stroke="midnightblue" d="M147.029,-358.625C191.119,-372.302 271.936,-397.372 320.637,-412.479"/>
<polygon fill="midnightblue" stroke="midnightblue" points="319.635,-415.833 330.223,-415.453 321.708,-409.147 319.635,-415.833"/>
</g>
<!-- Node4&#45;&gt;Node7 -->
<g id="edge6" class="edge"><title>Node4&#45;&gt;Node7</title>
<path fill="none" stroke="midnightblue" d="M131.165,-339.301C145.837,-332.718 168.771,-324.601 189.063,-318.522"/>
<polygon fill="midnightblue" stroke="midnightblue" points="190.13,-321.857 198.764,-315.717 188.185,-315.133 190.13,-321.857"/>
</g>
<!-- Node6 -->
<g id="node6" class="node"><title>Node6</title>
<g id="a_node6"><a xlink:href="../../d0/dcc/rletorla_8c.html#aafde19f7d36ca163a143579c1b125b6d" target="_top" xlink:title="free">
<polygon fill="white" stroke="black" points="464.5,-491.5 464.5,-510.5 499.5,-510.5 499.5,-491.5 464.5,-491.5"/>
<text text-anchor="middle" x="482" y="-498.5" font-family="Helvetica,sans-Serif" font-size="10.00">free</text>
</a>
</g>
</g>
<!-- Node5&#45;&gt;Node6 -->
<g id="edge5" class="edge"><title>Node5&#45;&gt;Node6</title>
<path fill="none" stroke="midnightblue" d="M393.104,-434.572C399.851,-437.223 406.832,-440.383 413,-444 432.147,-455.229 451.284,-471.876 464.355,-484.284"/>
<polygon fill="midnightblue" stroke="midnightblue" points="462.044,-486.918 471.656,-491.375 466.921,-481.897 462.044,-486.918"/>
</g>
<!-- Node7&#45;&gt;Node4 -->
<g id="edge7" class="edge"><title>Node7&#45;&gt;Node4</title>
<path fill="none" stroke="midnightblue" d="M216.998,-320.626C202.546,-327.126 179.97,-335.14 159.825,-341.211"/>
<polygon fill="midnightblue" stroke="midnightblue" points="158.799,-337.864 150.176,-344.02 160.756,-344.585 158.799,-337.864"/>
</g>
<!-- Node8 -->
<g id="node8" class="node"><title>Node8</title>
<g id="a_node8"><a xlink:href="../../d0/dcc/rletorla_8c.html#ab7e36af3707843f77cc5b4e831c2fa6d" target="_top" xlink:title="malloc">
<polygon fill="white" stroke="black" points="458.5,-282.5 458.5,-301.5 505.5,-301.5 505.5,-282.5 458.5,-282.5"/>
<text text-anchor="middle" x="482" y="-289.5" font-family="Helvetica,sans-Serif" font-size="10.00">malloc</text>
</a>
</g>
</g>
<!-- Node7&#45;&gt;Node8 -->
<g id="edge8" class="edge"><title>Node7&#45;&gt;Node8</title>
<path fill="none" stroke="midnightblue" d="M265.15,-301.494C279.04,-297.73 295.691,-293.861 311,-292 358.322,-286.248 413.604,-287.754 447.962,-289.65"/>
<polygon fill="midnightblue" stroke="midnightblue" points="448.155,-293.167 458.346,-290.27 448.573,-286.18 448.155,-293.167"/>
</g>
<!-- Node7&#45;&gt;Node9 -->
<g id="edge9" class="edge"><title>Node7&#45;&gt;Node9</title>
<path fill="none" stroke="midnightblue" d="M266.047,-320.589C282.141,-325.404 301.841,-331.299 319.117,-336.468"/>
<polygon fill="midnightblue" stroke="midnightblue" points="318.379,-339.901 328.963,-339.414 320.386,-333.194 318.379,-339.901"/>
</g>
<!-- Node9&#45;&gt;Node6 -->
<g id="edge10" class="edge"><title>Node9&#45;&gt;Node6</title>
<path fill="none" stroke="midnightblue" d="M372.159,-358.834C382.427,-369.997 399.419,-388.881 413,-406 433.583,-431.945 455.573,-463.441 468.801,-482.852"/>
<polygon fill="midnightblue" stroke="midnightblue" points="466.041,-485.017 474.547,-491.333 471.836,-481.091 466.041,-485.017"/>
</g>
<!-- Node9&#45;&gt;Node8 -->
<g id="edge11" class="edge"><title>Node9&#45;&gt;Node8</title>
<path fill="none" stroke="midnightblue" d="M390.288,-339.457C397.745,-336.627 405.762,-333.375 413,-330 427.893,-323.055 443.967,-314.142 456.747,-306.694"/>
<polygon fill="midnightblue" stroke="midnightblue" points="458.576,-309.678 465.406,-301.578 455.016,-303.651 458.576,-309.678"/>
</g>
<!-- Node11 -->
<g id="node11" class="node"><title>Node11</title>
<g id="a_node11"><a xlink:href="../../de/d4e/rle__open__f_8c.html#a5a0e62a00f907fce26e93b2f72adb2b0" target="_top" xlink:title="rle_open_f_noexit">
<polygon fill="white" stroke="black" points="311,-605.5 311,-624.5 413,-624.5 413,-605.5 311,-605.5"/>
<text text-anchor="middle" x="362" y="-612.5" font-family="Helvetica,sans-Serif" font-size="10.00">rle_open_f_noexit</text>
</a>
</g>
</g>
<!-- Node10&#45;&gt;Node11 -->
<g id="edge13" class="edge"><title>Node10&#45;&gt;Node11</title>
<path fill="none" stroke="midnightblue" d="M267.036,-615C277.382,-615 289.141,-615 300.755,-615"/>
<polygon fill="midnightblue" stroke="midnightblue" points="300.885,-618.5 310.885,-615 300.885,-611.5 300.885,-618.5"/>
</g>
<!-- Node11&#45;&gt;Node6 -->
<g id="edge16" class="edge"><title>Node11&#45;&gt;Node6</title>
<path fill="none" stroke="midnightblue" d="M396.458,-605.431C402.297,-602.907 408.071,-599.797 413,-596 440.05,-575.164 460.929,-540.652 472.056,-519.459"/>
<polygon fill="midnightblue" stroke="midnightblue" points="475.198,-521.002 476.594,-510.5 468.953,-517.839 475.198,-521.002"/>
</g>
<!-- Node11&#45;&gt;Node8 -->
<g id="edge15" class="edge"><title>Node11&#45;&gt;Node8</title>
<path fill="none" stroke="midnightblue" d="M401.132,-605.259C405.594,-602.827 409.717,-599.79 413,-596 431.999,-574.068 466.934,-375.255 477.733,-311.547"/>
<polygon fill="midnightblue" stroke="midnightblue" points="481.198,-312.042 479.408,-301.6 474.296,-310.88 481.198,-312.042"/>
</g>
<!-- Node12 -->
<g id="node12" class="node"><title>Node12</title>
<g id="a_node12"><a xlink:href="../../de/d4e/rle__open__f_8c.html#a84fda810ae9b9bde82a6391d0b264ead" target="_top" xlink:title="my_popen">
<polygon fill="white" stroke="black" points="449,-605.5 449,-624.5 515,-624.5 515,-605.5 449,-605.5"/>
<text text-anchor="middle" x="482" y="-612.5" font-family="Helvetica,sans-Serif" font-size="10.00">my_popen</text>
</a>
</g>
</g>
<!-- Node11&#45;&gt;Node12 -->
<g id="edge14" class="edge"><title>Node11&#45;&gt;Node12</title>
<path fill="none" stroke="midnightblue" d="M413.043,-615C421.523,-615 430.255,-615 438.518,-615"/>
<polygon fill="midnightblue" stroke="midnightblue" points="438.678,-618.5 448.678,-615 438.678,-611.5 438.678,-618.5"/>
</g>
<!-- Node14&#45;&gt;Node5 -->
<g id="edge20" class="edge"><title>Node14&#45;&gt;Node5</title>
<path fill="none" stroke="midnightblue" d="M258.694,-491.397C264.284,-488.73 270.031,-485.571 275,-482 293.891,-468.422 291.64,-456.901 311,-444 313.869,-442.088 316.957,-440.331 320.141,-438.725"/>
<polygon fill="midnightblue" stroke="midnightblue" points="321.6,-441.906 329.264,-434.591 318.71,-435.531 321.6,-441.906"/>
</g>
<!-- Node14&#45;&gt;Node6 -->
<g id="edge23" class="edge"><title>Node14&#45;&gt;Node6</title>
<path fill="none" stroke="midnightblue" d="M273.685,-501C324.348,-501 410.643,-501 454.184,-501"/>
<polygon fill="midnightblue" stroke="midnightblue" points="454.285,-504.5 464.285,-501 454.285,-497.5 454.285,-504.5"/>
</g>
<!-- Node14&#45;&gt;Node8 -->
<g id="edge22" class="edge"><title>Node14&#45;&gt;Node8</title>
<path fill="none" stroke="midnightblue" d="M261.73,-491.387C266.543,-488.858 271.212,-485.756 275,-482 301.54,-455.683 283.463,-431.271 311,-406 346.643,-373.29 373.039,-395.266 413,-368 436.075,-352.255 456.537,-327.049 468.842,-310.024"/>
<polygon fill="midnightblue" stroke="midnightblue" points="471.929,-311.718 474.803,-301.52 466.197,-307.7 471.929,-311.718"/>
</g>
<!-- Node14&#45;&gt;Node9 -->
<g id="edge21" class="edge"><title>Node14&#45;&gt;Node9</title>
<path fill="none" stroke="midnightblue" d="M262.957,-491.294C267.427,-488.81 271.659,-485.748 275,-482 308.943,-443.912 277.316,-411.318 311,-373 314.208,-369.35 318.095,-366.207 322.268,-363.512"/>
<polygon fill="midnightblue" stroke="midnightblue" points="324.073,-366.513 331.109,-358.591 320.669,-360.396 324.073,-366.513"/>
</g>
<!-- Node15 -->
<g id="node15" class="node"><title>Node15</title>
<g id="a_node15"><a xlink:href="../../db/d53/rle__getrow_8c.html#a0ea68aa2ebeef9d4cade7282553b03d6" target="_top" xlink:title="vax_gshort">
<polygon fill="white" stroke="black" points="327.5,-453.5 327.5,-472.5 396.5,-472.5 396.5,-453.5 327.5,-453.5"/>
<text text-anchor="middle" x="362" y="-460.5" font-family="Helvetica,sans-Serif" font-size="10.00">vax_gshort</text>
</a>
</g>
</g>
<!-- Node14&#45;&gt;Node15 -->
<g id="edge24" class="edge"><title>Node14&#45;&gt;Node15</title>
<path fill="none" stroke="midnightblue" d="M266.047,-491.411C282.141,-486.596 301.841,-480.701 319.117,-475.532"/>
<polygon fill="midnightblue" stroke="midnightblue" points="320.386,-478.806 328.963,-472.586 318.379,-472.099 320.386,-478.806"/>
</g>
<!-- Node17 -->
<g id="node17" class="node"><title>Node17</title>
<g id="a_node17"><a xlink:href="../../db/db2/rle__getcom_8c.html#a7502c8b599724ce86fee5df1311a2337" target="_top" xlink:title="match">
<polygon fill="white" stroke="black" points="339.5,-73.5 339.5,-92.5 384.5,-92.5 384.5,-73.5 339.5,-73.5"/>
<text text-anchor="middle" x="362" y="-80.5" font-family="Helvetica,sans-Serif" font-size="10.00">match</text>
</a>
</g>
</g>
<!-- Node16&#45;&gt;Node17 -->
<g id="edge26" class="edge"><title>Node16&#45;&gt;Node17</title>
<path fill="none" stroke="midnightblue" d="M266.047,-111.411C285.481,-105.596 310.173,-98.2081 329.506,-92.4235"/>
<polygon fill="midnightblue" stroke="midnightblue" points="330.771,-95.6982 339.348,-89.4785 328.765,-88.992 330.771,-95.6982"/>
</g>
<!-- Node18&#45;&gt;Node6 -->
<g id="edge29" class="edge"><title>Node18&#45;&gt;Node6</title>
<path fill="none" stroke="midnightblue" d="M399.322,-320.608C404.336,-323.074 409.096,-326.156 413,-330 456.341,-372.681 472.827,-446.462 478.431,-481.474"/>
<polygon fill="midnightblue" stroke="midnightblue" points="474.971,-482.006 479.888,-491.391 481.897,-480.988 474.971,-482.006"/>
</g>
<!-- Node18&#45;&gt;Node8 -->
<g id="edge28" class="edge"><title>Node18&#45;&gt;Node8</title>
<path fill="none" stroke="midnightblue" d="M402.292,-304.673C417.29,-302.258 434.207,-299.534 448.504,-297.232"/>
<polygon fill="midnightblue" stroke="midnightblue" points="449.069,-300.687 458.386,-295.641 447.957,-293.776 449.069,-300.687"/>
</g>
<!-- Node20 -->
<g id="node20" class="node"><title>Node20</title>
<g id="a_node20"><a xlink:href="../../db/d53/rle__getrow_8c.html#a61ac0da96b0dd8bc3cbc98afcd9b5c44" target="_top" xlink:title="bfill">
<polygon fill="white" stroke="black" points="217,-415.5 217,-434.5 249,-434.5 249,-415.5 217,-415.5"/>
<text text-anchor="middle" x="233" y="-422.5" font-family="Helvetica,sans-Serif" font-size="10.00">bfill</text>
</a>
</g>
</g>
<!-- Node19&#45;&gt;Node20 -->
<g id="edge31" class="edge"><title>Node19&#45;&gt;Node20</title>
<path fill="none" stroke="midnightblue" d="M148.621,-425C166.981,-425 189.568,-425 206.6,-425"/>
<polygon fill="midnightblue" stroke="midnightblue" points="206.89,-428.5 216.89,-425 206.89,-421.5 206.89,-428.5"/>
</g>
<!-- Node21 -->
<g id="node21" class="node"><title>Node21</title>
<g id="a_node21"><a xlink:href="../../d8/d7c/rle__getskip_8c.html#af6b1e1dc0867e9340f90668591c7c5b3" target="_top" xlink:title="rle_getskip">
<polygon fill="white" stroke="black" points="199,-453.5 199,-472.5 267,-472.5 267,-453.5 199,-453.5"/>
<text text-anchor="middle" x="233" y="-460.5" font-family="Helvetica,sans-Serif" font-size="10.00">rle_getskip</text>
</a>
</g>
</g>
<!-- Node19&#45;&gt;Node21 -->
<g id="edge32" class="edge"><title>Node19&#45;&gt;Node21</title>
<path fill="none" stroke="midnightblue" d="M145.272,-434.589C159.697,-439.314 177.293,-445.079 192.857,-450.177"/>
<polygon fill="midnightblue" stroke="midnightblue" points="192.145,-453.627 202.738,-453.414 194.324,-446.975 192.145,-453.627"/>
</g>
<!-- Node23 -->
<g id="node23" class="node"><title>Node23</title>
<g id="a_node23"><a xlink:href="../../df/da5/rle__putcom_8c.html#a7502c8b599724ce86fee5df1311a2337" target="_top" xlink:title="match">
<polygon fill="white" stroke="black" points="339.5,-111.5 339.5,-130.5 384.5,-130.5 384.5,-111.5 339.5,-111.5"/>
<text text-anchor="middle" x="362" y="-118.5" font-family="Helvetica,sans-Serif" font-size="10.00">match</text>
</a>
</g>
</g>
<!-- Node22&#45;&gt;Node23 -->
<g id="edge35" class="edge"><title>Node22&#45;&gt;Node23</title>
<path fill="none" stroke="midnightblue" d="M266.047,-92.589C285.481,-98.4038 310.173,-105.792 329.506,-111.576"/>
<polygon fill="midnightblue" stroke="midnightblue" points="328.765,-115.008 339.348,-114.522 330.771,-108.302 328.765,-115.008"/>
</g>
<!-- Node24&#45;&gt;Node8 -->
<g id="edge38" class="edge"><title>Node24&#45;&gt;Node8</title>
<path fill="none" stroke="midnightblue" d="M149.595,-197.26C182.056,-199.952 232.428,-205.475 275,-216 339.136,-231.857 410.848,-261.077 450.482,-278.298"/>
<polygon fill="midnightblue" stroke="midnightblue" points="449.28,-281.593 459.844,-282.403 452.091,-275.182 449.28,-281.593"/>
</g>
<!-- Node24&#45;&gt;Node16 -->
<g id="edge37" class="edge"><title>Node24&#45;&gt;Node16</title>
<path fill="none" stroke="midnightblue" d="M129.031,-185.34C149.64,-170.078 187.767,-141.909 191,-140 193.837,-138.325 196.847,-136.688 199.897,-135.122"/>
<polygon fill="midnightblue" stroke="midnightblue" points="201.576,-138.197 209.031,-130.668 198.509,-131.905 201.576,-138.197"/>
</g>
<!-- Node25 -->
<g id="node25" class="node"><title>Node25</title>
<g id="a_node25"><a xlink:href="../../df/da5/rle__putcom_8c.html#a6fa8528c32d14763efe2a534e409e321" target="_top" xlink:title="rle_putcom">
<polygon fill="white" stroke="black" points="199,-149.5 199,-168.5 267,-168.5 267,-149.5 199,-149.5"/>
<text text-anchor="middle" x="233" y="-156.5" font-family="Helvetica,sans-Serif" font-size="10.00">rle_putcom</text>
</a>
</g>
</g>
<!-- Node24&#45;&gt;Node25 -->
<g id="edge39" class="edge"><title>Node24&#45;&gt;Node25</title>
<path fill="none" stroke="midnightblue" d="M146.781,-185.447C160.415,-181.216 176.644,-176.179 191.263,-171.643"/>
<polygon fill="midnightblue" stroke="midnightblue" points="192.562,-174.904 201.075,-168.597 190.487,-168.219 192.562,-174.904"/>
</g>
<!-- Node25&#45;&gt;Node8 -->
<g id="edge40" class="edge"><title>Node25&#45;&gt;Node8</title>
<path fill="none" stroke="midnightblue" d="M267.224,-155.432C305.484,-153.026 368.742,-154.435 413,-183 445.959,-204.272 465.726,-247.762 474.872,-272.902"/>
<polygon fill="midnightblue" stroke="midnightblue" points="471.588,-274.116 478.148,-282.435 478.208,-271.84 471.588,-274.116"/>
</g>
<!-- Node25&#45;&gt;Node23 -->
<g id="edge41" class="edge"><title>Node25&#45;&gt;Node23</title>
<path fill="none" stroke="midnightblue" d="M266.047,-149.411C285.481,-143.596 310.173,-136.208 329.506,-130.424"/>
<polygon fill="midnightblue" stroke="midnightblue" points="330.771,-133.698 339.348,-127.478 328.765,-126.992 330.771,-133.698"/>
</g>
<!-- Node27 -->
<g id="node27" class="node"><title>Node27</title>
<g id="a_node27"><a xlink:href="../../d9/d2a/rle__putrow_8c.html#a46d9789104d5d1f09253a808fdad5346" target="_top" xlink:title="rle_put_init">
<polygon fill="white" stroke="black" points="199,-225.5 199,-244.5 267,-244.5 267,-225.5 199,-225.5"/>
<text text-anchor="middle" x="233" y="-232.5" font-family="Helvetica,sans-Serif" font-size="10.00">rle_put_init</text>
</a>
</g>
</g>
<!-- Node26&#45;&gt;Node27 -->
<g id="edge43" class="edge"><title>Node26&#45;&gt;Node27</title>
<path fill="none" stroke="midnightblue" d="M155.272,-235C166.031,-235 177.753,-235 188.722,-235"/>
<polygon fill="midnightblue" stroke="midnightblue" points="188.953,-238.5 198.953,-235 188.953,-231.5 188.953,-238.5"/>
</g>
<!-- Node28&#45;&gt;Node8 -->
<g id="edge45" class="edge"><title>Node28&#45;&gt;Node8</title>
<path fill="none" stroke="midnightblue" d="M141.973,-38.3927C156.228,-33.6287 174.345,-28.3924 191,-26 290.085,-11.7674 341.473,6.03034 413,-64 471.919,-121.686 480.298,-228.044 481.131,-272.091"/>
<polygon fill="midnightblue" stroke="midnightblue" points="477.631,-272.13 481.206,-282.104 484.631,-272.078 477.631,-272.13"/>
</g>
<!-- Node29 -->
<g id="node29" class="node"><title>Node29</title>
<g id="a_node29"><a xlink:href="../../d9/d2a/rle__putrow_8c.html#aaa4133bf4a6cbf287444448497631f26" target="_top" xlink:title="findruns">
<polygon fill="white" stroke="black" points="206,-35.5 206,-54.5 260,-54.5 260,-35.5 206,-35.5"/>
<text text-anchor="middle" x="233" y="-42.5" font-family="Helvetica,sans-Serif" font-size="10.00">findruns</text>
</a>
</g>
</g>
<!-- Node28&#45;&gt;Node29 -->
<g id="edge46" class="edge"><title>Node28&#45;&gt;Node29</title>
<path fill="none" stroke="midnightblue" d="M148.005,-47.1723C162.825,-46.789 180.501,-46.3319 195.806,-45.9361"/>
<polygon fill="midnightblue" stroke="midnightblue" points="196.052,-49.431 205.958,-45.6735 195.871,-42.4333 196.052,-49.431"/>
</g>
<!-- Node30&#45;&gt;Node6 -->
<g id="edge48" class="edge"><title>Node30&#45;&gt;Node6</title>
<path fill="none" stroke="midnightblue" d="M393.104,-567.428C399.851,-564.777 406.832,-561.617 413,-558 432.147,-546.771 451.284,-530.124 464.355,-517.716"/>
<polygon fill="midnightblue" stroke="midnightblue" points="466.921,-520.103 471.656,-510.625 462.044,-515.082 466.921,-520.103"/>
</g>
<!-- Node31&#45;&gt;Node6 -->
<g id="edge50" class="edge"><title>Node31&#45;&gt;Node6</title>
<path fill="none" stroke="midnightblue" d="M392.776,-529.411C411.813,-523.28 436.281,-515.401 454.618,-509.496"/>
<polygon fill="midnightblue" stroke="midnightblue" points="455.914,-512.756 464.359,-506.359 453.768,-506.093 455.914,-512.756"/>
</g>
</g>
</svg>
        <g id="navigator" transform="translate(0 0)" fill="#404254">
                <rect fill="#f2f5e9" fill-opacity="0.5" stroke="#606060" stroke-width=".5" x="0" y="0" width="60" height="60"/>
                <use id="zoomplus" xlink:href="#zoomPlus" x="17" y="9" onmousedown="handleZoom(evt,'in')"/>
                <use id="zoomminus" xlink:href="#zoomMin" x="42" y="9" onmousedown="handleZoom(evt,'out')"/>
                <use id="reset" xlink:href="#resetDef" x="30" y="36" onmousedown="handleReset()"/>
                <g id="arrowUp" xlink:href="#dirArrow" transform="translate(30 24)" onmousedown="handlePan(0,-1)">
                  <use xlink:href="#rim" fill="#404040">
                        <set attributeName="fill" to="#808080" begin="arrowUp.mouseover" end="arrowUp.mouseout"/>
                  </use>
                  <path fill="none" stroke="white" stroke-width="1.5" d="M0,-3.0v7 M-2.5,-0.5L0,-3.0L2.5,-0.5"/>
                </g>
                <g id="arrowRight" xlink:href="#dirArrow" transform="rotate(90) translate(36 -43)" onmousedown="handlePan(1,0)">
                  <use xlink:href="#rim" fill="#404040">
                        <set attributeName="fill" to="#808080" begin="arrowRight.mouseover" end="arrowRight.mouseout"/>
                  </use>
                  <path fill="none" stroke="white" stroke-width="1.5" d="M0,-3.0v7 M-2.5,-0.5L0,-3.0L2.5,-0.5"/>
                </g>
                <g id="arrowDown" xlink:href="#dirArrow" transform="rotate(180) translate(-30 -48)" onmousedown="handlePan(0,1)">
                  <use xlink:href="#rim" fill="#404040">
                        <set attributeName="fill" to="#808080" begin="arrowDown.mouseover" end="arrowDown.mouseout"/>
                  </use>
                  <path fill="none" stroke="white" stroke-width="1.5" d="M0,-3.0v7 M-2.5,-0.5L0,-3.0L2.5,-0.5"/>
                </g>
                <g id="arrowLeft" xlink:href="#dirArrow" transform="rotate(270) translate(-36 17)" onmousedown="handlePan(-1,0)">
                  <use xlink:href="#rim" fill="#404040">
                        <set attributeName="fill" to="#808080" begin="arrowLeft.mouseover" end="arrowLeft.mouseout"/>
                  </use>
                  <path fill="none" stroke="white" stroke-width="1.5" d="M0,-3.0v7 M-2.5,-0.5L0,-3.0L2.5,-0.5"/>
                </g>
        </g>
        <svg viewBox="0 0 15 15" width="100%" height="30px" preserveAspectRatio="xMaxYMin meet">
         <g id="arrow_out" transform="scale(0.3 0.3)">
          <a xlink:href="unexp_8c_ade521a0600ded19f1720b6f6df59b480_cgraph_org.svg" target="_base">
           <rect id="button" ry="5" rx="5" y="6" x="6" height="38" width="38"
                fill="#f2f5e9" fill-opacity="0.5" stroke="#606060" stroke-width="1.0"/>
           <path id="arrow"
             d="M 11.500037,31.436501 C 11.940474,20.09759 22.043105,11.32322 32.158766,21.979434 L 37.068811,17.246167 C 37.068811,17.246167 37.088388,32 37.088388,32 L 22.160133,31.978069 C 22.160133,31.978069 26.997745,27.140456 26.997745,27.140456 C 18.528582,18.264221 13.291696,25.230495 11.500037,31.436501 z"
             style="fill:#404040;"/>
          </a>
         </g>
        </svg>
</svg>
