<?xml version="1.0" encoding="UTF-8" standalone="no"?>
<!DOCTYPE svg PUBLIC "-//W3C//DTD SVG 1.1//EN"
 "http://www.w3.org/Graphics/SVG/1.1/DTD/svg11.dtd">
<!-- Generated by graphviz version 2.38.0 (20140413.2041)
 -->
<!-- Title: GIFNextPixel Pages: 1 -->
<svg width="281pt" height="28pt"
 viewBox="0.00 0.00 281.00 28.00" xmlns="http://www.w3.org/2000/svg" xmlns:xlink="http://www.w3.org/1999/xlink">
<g id="graph0" class="graph" transform="scale(1 1) rotate(0) translate(4 24)">
<title>GIFNextPixel</title>
<polygon fill="white" stroke="none" points="-4,4 -4,-24 277,-24 277,4 -4,4"/>
<!-- Node1 -->
<g id="node1" class="node"><title>Node1</title>
<polygon fill="#bfbfbf" stroke="black" points="0,-0.5 0,-19.5 78,-19.5 78,-0.5 0,-0.5"/>
<text text-anchor="middle" x="39" y="-7.5" font-family="Helvetica,sans-Serif" font-size="10.00">GIFNextPixel</text>
</g>
<!-- Node2 -->
<g id="node2" class="node"><title>Node2</title>
<g id="a_node2"><a xlink:href="../../d8/d5b/compgif_8c.html#a69af6ce234aea2e64e9d47d68928d939" target="_top" xlink:title="compgif">
<polygon fill="white" stroke="black" points="114,-0.5 114,-19.5 167,-19.5 167,-0.5 114,-0.5"/>
<text text-anchor="middle" x="140.5" y="-7.5" font-family="Helvetica,sans-Serif" font-size="10.00">compgif</text>
</a>
</g>
</g>
<!-- Node1&#45;&gt;Node2 -->
<g id="edge1" class="edge"><title>Node1&#45;&gt;Node2</title>
<path fill="none" stroke="midnightblue" d="M88.4227,-10C97.2219,-10 106.076,-10 113.884,-10"/>
<polygon fill="midnightblue" stroke="midnightblue" points="88.1848,-6.5001 78.1847,-10 88.1847,-13.5001 88.1848,-6.5001"/>
</g>
<!-- Node3 -->
<g id="node3" class="node"><title>Node3</title>
<g id="a_node3"><a xlink:href="../../d6/de6/gifencod_8c.html#a55f5152af2c1b50961405efdc844c5b8" target="_top" xlink:title="GIFEncode">
<polygon fill="white" stroke="black" points="203,-0.5 203,-19.5 273,-19.5 273,-0.5 203,-0.5"/>
<text text-anchor="middle" x="238" y="-7.5" font-family="Helvetica,sans-Serif" font-size="10.00">GIFEncode</text>
</a>
</g>
</g>
<!-- Node2&#45;&gt;Node3 -->
<g id="edge2" class="edge"><title>Node2&#45;&gt;Node3</title>
<path fill="none" stroke="midnightblue" d="M177.279,-10C185.607,-10 194.453,-10 202.714,-10"/>
<polygon fill="midnightblue" stroke="midnightblue" points="177.092,-6.5001 167.092,-10 177.092,-13.5001 177.092,-6.5001"/>
</g>
</g>
</svg>
