<?xml version="1.0" encoding="UTF-8" standalone="no"?>
<!DOCTYPE svg PUBLIC "-//W3C//DTD SVG 1.1//EN"
 "http://www.w3.org/Graphics/SVG/1.1/DTD/svg11.dtd">
<!-- Generated by graphviz version 2.38.0 (20140413.2041)
 -->
<!-- Title: BumpPixel Pages: 1 -->
<svg width="382pt" height="28pt"
 viewBox="0.00 0.00 382.00 28.00" xmlns="http://www.w3.org/2000/svg" xmlns:xlink="http://www.w3.org/1999/xlink">
<g id="graph0" class="graph" transform="scale(1 1) rotate(0) translate(4 24)">
<title>BumpPixel</title>
<polygon fill="white" stroke="none" points="-4,4 -4,-24 378,-24 378,4 -4,4"/>
<!-- Node1 -->
<g id="node1" class="node"><title>Node1</title>
<polygon fill="#bfbfbf" stroke="black" points="0,-0.5 0,-19.5 65,-19.5 65,-0.5 0,-0.5"/>
<text text-anchor="middle" x="32.5" y="-7.5" font-family="Helvetica,sans-Serif" font-size="10.00">BumpPixel</text>
</g>
<!-- Node2 -->
<g id="node2" class="node"><title>Node2</title>
<g id="a_node2"><a xlink:href="../../d6/de6/gifencod_8c.html#a4a95e2074dc0902f87a79aa78544f331" target="_top" xlink:title="GIFNextPixel">
<polygon fill="white" stroke="black" points="101,-0.5 101,-19.5 179,-19.5 179,-0.5 101,-0.5"/>
<text text-anchor="middle" x="140" y="-7.5" font-family="Helvetica,sans-Serif" font-size="10.00">GIFNextPixel</text>
</a>
</g>
</g>
<!-- Node1&#45;&gt;Node2 -->
<g id="edge1" class="edge"><title>Node1&#45;&gt;Node2</title>
<path fill="none" stroke="midnightblue" d="M75.1556,-10C83.5659,-10 92.3702,-10 100.66,-10"/>
<polygon fill="midnightblue" stroke="midnightblue" points="75.1535,-6.5001 65.1535,-10 75.1534,-13.5001 75.1535,-6.5001"/>
</g>
<!-- Node3 -->
<g id="node3" class="node"><title>Node3</title>
<g id="a_node3"><a xlink:href="../../d8/d5b/compgif_8c.html#a69af6ce234aea2e64e9d47d68928d939" target="_top" xlink:title="compgif">
<polygon fill="white" stroke="black" points="215,-0.5 215,-19.5 268,-19.5 268,-0.5 215,-0.5"/>
<text text-anchor="middle" x="241.5" y="-7.5" font-family="Helvetica,sans-Serif" font-size="10.00">compgif</text>
</a>
</g>
</g>
<!-- Node2&#45;&gt;Node3 -->
<g id="edge2" class="edge"><title>Node2&#45;&gt;Node3</title>
<path fill="none" stroke="midnightblue" d="M189.423,-10C198.222,-10 207.076,-10 214.884,-10"/>
<polygon fill="midnightblue" stroke="midnightblue" points="189.185,-6.5001 179.185,-10 189.185,-13.5001 189.185,-6.5001"/>
</g>
<!-- Node4 -->
<g id="node4" class="node"><title>Node4</title>
<g id="a_node4"><a xlink:href="../../d6/de6/gifencod_8c.html#a55f5152af2c1b50961405efdc844c5b8" target="_top" xlink:title="GIFEncode">
<polygon fill="white" stroke="black" points="304,-0.5 304,-19.5 374,-19.5 374,-0.5 304,-0.5"/>
<text text-anchor="middle" x="339" y="-7.5" font-family="Helvetica,sans-Serif" font-size="10.00">GIFEncode</text>
</a>
</g>
</g>
<!-- Node3&#45;&gt;Node4 -->
<g id="edge3" class="edge"><title>Node3&#45;&gt;Node4</title>
<path fill="none" stroke="midnightblue" d="M278.279,-10C286.607,-10 295.453,-10 303.714,-10"/>
<polygon fill="midnightblue" stroke="midnightblue" points="278.092,-6.5001 268.092,-10 278.092,-13.5001 278.092,-6.5001"/>
</g>
</g>
</svg>
