<?xml version="1.0" encoding="UTF-8" standalone="no"?>
<!DOCTYPE svg PUBLIC "-//W3C//DTD SVG 1.1//EN"
 "http://www.w3.org/Graphics/SVG/1.1/DTD/svg11.dtd">
<!-- Generated by graphviz version 2.38.0 (20140413.2041)
 -->
<!-- Title: rle_hdr Pages: 1 -->
<!--zoomable 205 -->
<svg id="main" version="1.1" xmlns="http://www.w3.org/2000/svg" xmlns:xlink="http://www.w3.org/1999/xlink" xml:space="preserve" onload="init(evt)">
<style type="text/css"><![CDATA[
.edge:hover path { stroke: red; }
.edge:hover polygon { stroke: red; fill: red; }
]]></style>
<script type="text/javascript"><![CDATA[
var edges = document.getElementsByTagName('g');
if (edges && edges.length) {
  for (var i=0;i<edges.length;i++) {
    if (edges[i].id.substr(0,4)=='edge') {
      edges[i].setAttribute('class','edge');
    }
  }
}
]]></script>
        <defs>
                <circle id="rim" cx="0" cy="0" r="7"/>
                <circle id="rim2" cx="0" cy="0" r="3.5"/>
                <g id="zoomPlus">
                        <use xlink:href="#rim" fill="#404040">
                                <set attributeName="fill" to="#808080" begin="zoomplus.mouseover" end="zoomplus.mouseout"/>
                        </use>
                        <path d="M-4,0h8M0,-4v8" fill="none" stroke="white" stroke-width="1.5" pointer-events="none"/>
                </g>
                <g id="zoomMin">
                        <use xlink:href="#rim" fill="#404040">
                                <set attributeName="fill" to="#808080" begin="zoomminus.mouseover" end="zoomminus.mouseout"/>
                        </use>
                        <path d="M-4,0h8" fill="none" stroke="white" stroke-width="1.5" pointer-events="none"/>
                </g>
                <g id="dirArrow">
                        <path fill="none" stroke="white" stroke-width="1.5" d="M0,-3.0v7 M-2.5,-0.5L0,-3.0L2.5,-0.5"/>
                </g>
               <g id="resetDef">
                       <use xlink:href="#rim2" fill="#404040">
                               <set attributeName="fill" to="#808080" begin="reset.mouseover" end="reset.mouseout"/>
                       </use>
               </g>
        </defs>

<script type="text/javascript">
var viewWidth = 864;
var viewHeight = 205;
var sectionId = 'dynsection-0';
</script>
<script xlink:href="../../svgpan.js"/>
<svg id="graph" class="graph">
<g id="viewport">
<title>rle_hdr</title>
<polygon fill="white" stroke="none" points="-4,4 -4,-201 859.5,-201 859.5,4 -4,4"/>
<!-- Node1 -->
<g id="node1" class="node"><title>Node1</title>
<polygon fill="#bfbfbf" stroke="black" points="450.5,-0.5 450.5,-19.5 500.5,-19.5 500.5,-0.5 450.5,-0.5"/>
<text text-anchor="middle" x="475.5" y="-7.5" font-family="Helvetica,sans-Serif" font-size="10.00">rle_hdr</text>
</g>
<!-- Node2 -->
<g id="node2" class="node"><title>Node2</title>
<polygon fill="white" stroke="#bfbfbf" points="0,-177.5 0,-196.5 103,-196.5 103,-177.5 0,-177.5"/>
<text text-anchor="middle" x="51.5" y="-184.5" font-family="Helvetica,sans-Serif" font-size="10.00">enum rle_dispatch</text>
</g>
<!-- Node2&#45;&gt;Node1 -->
<g id="edge1" class="edge"><title>Node2&#45;&gt;Node1</title>
<path fill="none" stroke="#9a32cd" stroke-dasharray="5,2" d="M49.0178,-167.041C46.008,-134.982 45.2959,-70.3981 82.5,-38 110.19,-13.8874 367.977,-11.2295 450.334,-10.999"/>
<polygon fill="#9a32cd" stroke="#9a32cd" points="45.5712,-167.713 50.1646,-177.261 52.5275,-166.933 45.5712,-167.713"/>
<text text-anchor="middle" x="104" y="-96" font-family="Helvetica,sans-Serif" font-size="10.00"> dispatch</text>
</g>
<!-- Node3 -->
<g id="node3" class="node"><title>Node3</title>
<polygon fill="white" stroke="#bfbfbf" points="121.5,-177.5 121.5,-196.5 157.5,-196.5 157.5,-177.5 121.5,-177.5"/>
<text text-anchor="middle" x="139.5" y="-184.5" font-family="Helvetica,sans-Serif" font-size="10.00">int *</text>
</g>
<!-- Node3&#45;&gt;Node1 -->
<g id="edge2" class="edge"><title>Node3&#45;&gt;Node1</title>
<path fill="none" stroke="#9a32cd" stroke-dasharray="5,2" d="M134.775,-167.386C128.009,-135.847 119.89,-72.0234 154.5,-38 175.463,-17.3922 378.512,-12.4224 450.417,-11.3042"/>
<polygon fill="#9a32cd" stroke="#9a32cd" points="131.439,-168.49 137.125,-177.43 138.255,-166.895 131.439,-168.49"/>
<text text-anchor="middle" x="176.5" y="-96" font-family="Helvetica,sans-Serif" font-size="10.00"> bg_color</text>
</g>
<!-- Node4 -->
<g id="node4" class="node"><title>Node4</title>
<polygon fill="white" stroke="#bfbfbf" points="176,-177.5 176,-196.5 241,-196.5 241,-177.5 176,-177.5"/>
<text text-anchor="middle" x="208.5" y="-184.5" font-family="Helvetica,sans-Serif" font-size="10.00">short(*)[2]</text>
</g>
<!-- Node4&#45;&gt;Node1 -->
<g id="edge3" class="edge"><title>Node4&#45;&gt;Node1</title>
<path fill="none" stroke="#9a32cd" stroke-dasharray="5,2" d="M204.88,-167.351C199.943,-135.76 195.336,-71.8595 230.5,-38 246.144,-22.9367 391.033,-14.7853 450.356,-12.0557"/>
<polygon fill="#9a32cd" stroke="#9a32cd" points="201.469,-168.166 206.64,-177.413 208.364,-166.959 201.469,-168.166"/>
<text text-anchor="middle" x="242.5" y="-96" font-family="Helvetica,sans-Serif" font-size="10.00"> brun</text>
</g>
<!-- Node5 -->
<g id="node5" class="node"><title>Node5</title>
<polygon fill="white" stroke="#bfbfbf" points="259.5,-177.5 259.5,-196.5 297.5,-196.5 297.5,-177.5 259.5,-177.5"/>
<text text-anchor="middle" x="278.5" y="-184.5" font-family="Helvetica,sans-Serif" font-size="10.00">char</text>
</g>
<!-- Node5&#45;&gt;Node1 -->
<g id="edge4" class="edge"><title>Node5&#45;&gt;Node1</title>
<path fill="none" stroke="#9a32cd" stroke-dasharray="5,2" d="M271.399,-167.849C260.67,-137.047 244.744,-74.3555 276.5,-38 298.806,-12.4637 402.089,-10.145 450.426,-10.5047"/>
<polygon fill="#9a32cd" stroke="#9a32cd" points="268.147,-169.147 274.891,-177.318 274.715,-166.725 268.147,-169.147"/>
<text text-anchor="middle" x="299.5" y="-118" font-family="Helvetica,sans-Serif" font-size="10.00"> cmd</text>
<text text-anchor="middle" x="299.5" y="-107" font-family="Helvetica,sans-Serif" font-size="10.00">bits</text>
<text text-anchor="middle" x="299.5" y="-96" font-family="Helvetica,sans-Serif" font-size="10.00">is_eof</text>
<text text-anchor="middle" x="299.5" y="-85" font-family="Helvetica,sans-Serif" font-size="10.00">file_name</text>
<text text-anchor="middle" x="299.5" y="-74" font-family="Helvetica,sans-Serif" font-size="10.00">is_seek</text>
</g>
<!-- Node6 -->
<g id="node6" class="node"><title>Node6</title>
<polygon fill="white" stroke="#bfbfbf" points="316,-177.5 316,-196.5 363,-196.5 363,-177.5 316,-177.5"/>
<text text-anchor="middle" x="339.5" y="-184.5" font-family="Helvetica,sans-Serif" font-size="10.00">FILE *</text>
</g>
<!-- Node6&#45;&gt;Node1 -->
<g id="edge5" class="edge"><title>Node6&#45;&gt;Node1</title>
<path fill="none" stroke="#9a32cd" stroke-dasharray="5,2" d="M333.955,-167.534C325.948,-136.725 315.291,-74.6144 346.5,-38 359.673,-22.5454 416.595,-15.5418 450.266,-12.6998"/>
<polygon fill="#9a32cd" stroke="#9a32cd" points="330.64,-168.675 336.703,-177.364 337.381,-166.791 330.64,-168.675"/>
<text text-anchor="middle" x="364" y="-96" font-family="Helvetica,sans-Serif" font-size="10.00"> rle_file</text>
</g>
<!-- Node7 -->
<g id="node7" class="node"><title>Node7</title>
<polygon fill="white" stroke="#bfbfbf" points="383,-177.5 383,-196.5 412,-196.5 412,-177.5 383,-177.5"/>
<text text-anchor="middle" x="397.5" y="-184.5" font-family="Helvetica,sans-Serif" font-size="10.00">int</text>
</g>
<!-- Node7&#45;&gt;Node1 -->
<g id="edge6" class="edge"><title>Node7&#45;&gt;Node1</title>
<path fill="none" stroke="#9a32cd" stroke-dasharray="5,2" d="M392.232,-167.216C384.932,-136.882 375.567,-76.6127 403.5,-38 414.22,-23.1815 434.086,-16.4908 450.24,-13.4726"/>
<polygon fill="#9a32cd" stroke="#9a32cd" points="388.942,-168.472 394.847,-177.269 395.717,-166.71 388.942,-168.472"/>
<text text-anchor="middle" x="431" y="-151" font-family="Helvetica,sans-Serif" font-size="10.00"> scan_y</text>
<text text-anchor="middle" x="431" y="-140" font-family="Helvetica,sans-Serif" font-size="10.00">nblank</text>
<text text-anchor="middle" x="431" y="-129" font-family="Helvetica,sans-Serif" font-size="10.00">background</text>
<text text-anchor="middle" x="431" y="-118" font-family="Helvetica,sans-Serif" font-size="10.00">vert_skip</text>
<text text-anchor="middle" x="431" y="-107" font-family="Helvetica,sans-Serif" font-size="10.00">alpha</text>
<text text-anchor="middle" x="431" y="-96" font-family="Helvetica,sans-Serif" font-size="10.00">ncolors</text>
<text text-anchor="middle" x="431" y="-85" font-family="Helvetica,sans-Serif" font-size="10.00">img_num</text>
<text text-anchor="middle" x="431" y="-74" font-family="Helvetica,sans-Serif" font-size="10.00">ymin</text>
<text text-anchor="middle" x="431" y="-63" font-family="Helvetica,sans-Serif" font-size="10.00">cmaplen</text>
<text text-anchor="middle" x="431" y="-52" font-family="Helvetica,sans-Serif" font-size="10.00">ymax</text>
<text text-anchor="middle" x="431" y="-41" font-family="Helvetica,sans-Serif" font-size="10.00">...</text>
</g>
<!-- Node8 -->
<g id="node8" class="node"><title>Node8</title>
<polygon fill="white" stroke="#bfbfbf" points="503,-177.5 503,-196.5 532,-196.5 532,-177.5 503,-177.5"/>
<text text-anchor="middle" x="517.5" y="-184.5" font-family="Helvetica,sans-Serif" font-size="10.00"> </text>
</g>
<!-- Node8&#45;&gt;Node1 -->
<g id="edge7" class="edge"><title>Node8&#45;&gt;Node1</title>
<path fill="none" stroke="#9a32cd" stroke-dasharray="5,2" d="M493.807,-175.821C486.99,-171.653 480.36,-166.105 476.5,-159 450.989,-112.036 466.273,-43.6852 472.902,-19.7049"/>
<polygon fill="#9a32cd" stroke="#9a32cd" points="492.499,-179.088 502.976,-180.666 495.77,-172.899 492.499,-179.088"/>
<text text-anchor="middle" x="486" y="-96" font-family="Helvetica,sans-Serif" font-size="10.00"> get</text>
</g>
<!-- Node8&#45;&gt;Node1 -->
<g id="edge9" class="edge"><title>Node8&#45;&gt;Node1</title>
<path fill="none" stroke="#9a32cd" stroke-dasharray="5,2" d="M517.581,-166.968C517.073,-138.016 513.58,-81.6655 495.5,-38 492.733,-31.3168 487.954,-24.7732 483.761,-19.802"/>
<polygon fill="#9a32cd" stroke="#9a32cd" points="514.083,-167.294 517.651,-177.27 521.083,-167.246 514.083,-167.294"/>
<text text-anchor="middle" x="526.5" y="-96" font-family="Helvetica,sans-Serif" font-size="10.00"> put</text>
</g>
<!-- Node8&#45;&gt;Node1 -->
<g id="edge13" class="edge"><title>Node8&#45;&gt;Node1</title>
<path fill="none" stroke="#9a32cd" stroke-dasharray="5,2" d="M531.669,-169.111C533.655,-165.927 535.394,-162.494 536.5,-159 552.731,-107.73 565.839,-83.0699 536.5,-38 528.539,-25.7704 513.638,-19.0386 500.556,-15.3553"/>
<polygon fill="#9a32cd" stroke="#9a32cd" points="528.785,-167.126 525.734,-177.272 534.446,-171.243 528.785,-167.126"/>
<text text-anchor="middle" x="565" y="-96" font-family="Helvetica,sans-Serif" font-size="10.00"> priv</text>
</g>
<!-- Node9 -->
<g id="node9" class="node"><title>Node9</title>
<polygon fill="white" stroke="#bfbfbf" points="569,-177.5 569,-196.5 620,-196.5 620,-177.5 569,-177.5"/>
<text text-anchor="middle" x="594.5" y="-184.5" font-family="Helvetica,sans-Serif" font-size="10.00">long int</text>
</g>
<!-- Node9&#45;&gt;Node1 -->
<g id="edge8" class="edge"><title>Node9&#45;&gt;Node1</title>
<path fill="none" stroke="#9a32cd" stroke-dasharray="5,2" d="M598.667,-167.546C604.45,-136.753 610.945,-74.6657 579.5,-38 569.36,-26.1764 528.192,-18.289 500.793,-14.2338"/>
<polygon fill="#9a32cd" stroke="#9a32cd" points="595.234,-166.868 596.641,-177.369 602.089,-168.283 595.234,-166.868"/>
<text text-anchor="middle" x="619" y="-96" font-family="Helvetica,sans-Serif" font-size="10.00"> is_init</text>
</g>
<!-- Node10 -->
<g id="node10" class="node"><title>Node10</title>
<polygon fill="white" stroke="#bfbfbf" points="638,-177.5 638,-196.5 675,-196.5 675,-177.5 638,-177.5"/>
<text text-anchor="middle" x="656.5" y="-184.5" font-family="Helvetica,sans-Serif" font-size="10.00">long</text>
</g>
<!-- Node10&#45;&gt;Node1 -->
<g id="edge10" class="edge"><title>Node10&#45;&gt;Node1</title>
<path fill="none" stroke="#9a32cd" stroke-dasharray="5,2" d="M659.973,-167.119C664.562,-135.698 668.498,-72.7072 634.5,-38 616.278,-19.3984 540.6,-13.5741 500.576,-11.7798"/>
<polygon fill="#9a32cd" stroke="#9a32cd" points="656.491,-166.721 658.322,-177.156 663.399,-167.857 656.491,-166.721"/>
<text text-anchor="middle" x="678.5" y="-96" font-family="Helvetica,sans-Serif" font-size="10.00"> fileptr</text>
</g>
<!-- Node11 -->
<g id="node11" class="node"><title>Node11</title>
<polygon fill="white" stroke="#bfbfbf" points="693.5,-177.5 693.5,-196.5 773.5,-196.5 773.5,-177.5 693.5,-177.5"/>
<text text-anchor="middle" x="733.5" y="-184.5" font-family="Helvetica,sans-Serif" font-size="10.00">const char **</text>
</g>
<!-- Node11&#45;&gt;Node1 -->
<g id="edge11" class="edge"><title>Node11&#45;&gt;Node1</title>
<path fill="none" stroke="#9a32cd" stroke-dasharray="5,2" d="M735.096,-167.171C736.654,-135.309 734.642,-71.0132 697.5,-38 668.916,-12.5936 552.861,-10.3004 500.885,-10.5929"/>
<polygon fill="#9a32cd" stroke="#9a32cd" points="731.593,-167.114 734.42,-177.325 738.577,-167.579 731.593,-167.114"/>
<text text-anchor="middle" x="761.5" y="-96" font-family="Helvetica,sans-Serif" font-size="10.00"> comments</text>
</g>
<!-- Node12 -->
<g id="node12" class="node"><title>Node12</title>
<polygon fill="white" stroke="#bfbfbf" points="792,-177.5 792,-196.5 855,-196.5 855,-177.5 792,-177.5"/>
<text text-anchor="middle" x="823.5" y="-184.5" font-family="Helvetica,sans-Serif" font-size="10.00">rle_map *</text>
</g>
<!-- Node12&#45;&gt;Node1 -->
<g id="edge12" class="edge"><title>Node12&#45;&gt;Node1</title>
<path fill="none" stroke="#9a32cd" stroke-dasharray="5,2" d="M825.783,-167.091C828.47,-135.107 828.59,-70.6318 791.5,-38 769.823,-18.9283 571.533,-12.9834 500.593,-11.4579"/>
<polygon fill="#9a32cd" stroke="#9a32cd" points="822.276,-166.981 824.742,-177.285 829.24,-167.693 822.276,-166.981"/>
<text text-anchor="middle" x="841" y="-96" font-family="Helvetica,sans-Serif" font-size="10.00"> cmap</text>
</g>
</g>
</svg>
        <g id="navigator" transform="translate(0 0)" fill="#404254">
                <rect fill="#f2f5e9" fill-opacity="0.5" stroke="#606060" stroke-width=".5" x="0" y="0" width="60" height="60"/>
                <use id="zoomplus" xlink:href="#zoomPlus" x="17" y="9" onmousedown="handleZoom(evt,'in')"/>
                <use id="zoomminus" xlink:href="#zoomMin" x="42" y="9" onmousedown="handleZoom(evt,'out')"/>
                <use id="reset" xlink:href="#resetDef" x="30" y="36" onmousedown="handleReset()"/>
                <g id="arrowUp" xlink:href="#dirArrow" transform="translate(30 24)" onmousedown="handlePan(0,-1)">
                  <use xlink:href="#rim" fill="#404040">
                        <set attributeName="fill" to="#808080" begin="arrowUp.mouseover" end="arrowUp.mouseout"/>
                  </use>
                  <path fill="none" stroke="white" stroke-width="1.5" d="M0,-3.0v7 M-2.5,-0.5L0,-3.0L2.5,-0.5"/>
                </g>
                <g id="arrowRight" xlink:href="#dirArrow" transform="rotate(90) translate(36 -43)" onmousedown="handlePan(1,0)">
                  <use xlink:href="#rim" fill="#404040">
                        <set attributeName="fill" to="#808080" begin="arrowRight.mouseover" end="arrowRight.mouseout"/>
                  </use>
                  <path fill="none" stroke="white" stroke-width="1.5" d="M0,-3.0v7 M-2.5,-0.5L0,-3.0L2.5,-0.5"/>
                </g>
                <g id="arrowDown" xlink:href="#dirArrow" transform="rotate(180) translate(-30 -48)" onmousedown="handlePan(0,1)">
                  <use xlink:href="#rim" fill="#404040">
                        <set attributeName="fill" to="#808080" begin="arrowDown.mouseover" end="arrowDown.mouseout"/>
                  </use>
                  <path fill="none" stroke="white" stroke-width="1.5" d="M0,-3.0v7 M-2.5,-0.5L0,-3.0L2.5,-0.5"/>
                </g>
                <g id="arrowLeft" xlink:href="#dirArrow" transform="rotate(270) translate(-36 17)" onmousedown="handlePan(-1,0)">
                  <use xlink:href="#rim" fill="#404040">
                        <set attributeName="fill" to="#808080" begin="arrowLeft.mouseover" end="arrowLeft.mouseout"/>
                  </use>
                  <path fill="none" stroke="white" stroke-width="1.5" d="M0,-3.0v7 M-2.5,-0.5L0,-3.0L2.5,-0.5"/>
                </g>
        </g>
        <svg viewBox="0 0 15 15" width="100%" height="30px" preserveAspectRatio="xMaxYMin meet">
         <g id="arrow_out" transform="scale(0.3 0.3)">
          <a xlink:href="structrle__hdr__coll__graph_org.svg" target="_base">
           <rect id="button" ry="5" rx="5" y="6" x="6" height="38" width="38"
                fill="#f2f5e9" fill-opacity="0.5" stroke="#606060" stroke-width="1.0"/>
           <path id="arrow"
             d="M 11.500037,31.436501 C 11.940474,20.09759 22.043105,11.32322 32.158766,21.979434 L 37.068811,17.246167 C 37.068811,17.246167 37.088388,32 37.088388,32 L 22.160133,31.978069 C 22.160133,31.978069 26.997745,27.140456 26.997745,27.140456 C 18.528582,18.264221 13.291696,25.230495 11.500037,31.436501 z"
             style="fill:#404040;"/>
          </a>
         </g>
        </svg>
</svg>
