<?xml version="1.0" encoding="UTF-8" standalone="no"?>
<!DOCTYPE svg PUBLIC "-//W3C//DTD SVG 1.1//EN"
 "http://www.w3.org/Graphics/SVG/1.1/DTD/svg11.dtd">
<!-- Generated by graphviz version 2.38.0 (20140413.2041)
 -->
<!-- Title: SetUpRLEFile Pages: 1 -->
<svg width="423pt" height="66pt"
 viewBox="0.00 0.00 423.00 66.00" xmlns="http://www.w3.org/2000/svg" xmlns:xlink="http://www.w3.org/1999/xlink">
<g id="graph0" class="graph" transform="scale(1 1) rotate(0) translate(4 62)">
<title>SetUpRLEFile</title>
<polygon fill="white" stroke="none" points="-4,4 -4,-62 419,-62 419,4 -4,4"/>
<!-- Node1 -->
<g id="node1" class="node"><title>Node1</title>
<polygon fill="#bfbfbf" stroke="black" points="0,-19.5 0,-38.5 83,-38.5 83,-19.5 0,-19.5"/>
<text text-anchor="middle" x="41.5" y="-26.5" font-family="Helvetica,sans-Serif" font-size="10.00">SetUpRLEFile</text>
</g>
<!-- Node2 -->
<g id="node2" class="node"><title>Node2</title>
<g id="a_node2"><a xlink:href="../../de/d5e/vcrtorle_8c.html#a6e75994f8aeb500d43ec159d8d5a70e5" target="_top" xlink:title="addVICARcomment">
<polygon fill="white" stroke="black" points="119,-19.5 119,-38.5 228,-38.5 228,-19.5 119,-19.5"/>
<text text-anchor="middle" x="173.5" y="-26.5" font-family="Helvetica,sans-Serif" font-size="10.00">addVICARcomment</text>
</a>
</g>
</g>
<!-- Node1&#45;&gt;Node2 -->
<g id="edge1" class="edge"><title>Node1&#45;&gt;Node2</title>
<path fill="none" stroke="midnightblue" d="M83.2761,-29C91.4111,-29 100.137,-29 108.831,-29"/>
<polygon fill="midnightblue" stroke="midnightblue" points="108.985,-32.5001 118.985,-29 108.985,-25.5001 108.985,-32.5001"/>
</g>
<!-- Node3 -->
<g id="node3" class="node"><title>Node3</title>
<g id="a_node3"><a xlink:href="../../d0/dcc/rletorla_8c.html#ab7e36af3707843f77cc5b4e831c2fa6d" target="_top" xlink:title="malloc">
<polygon fill="white" stroke="black" points="368,-38.5 368,-57.5 415,-57.5 415,-38.5 368,-38.5"/>
<text text-anchor="middle" x="391.5" y="-45.5" font-family="Helvetica,sans-Serif" font-size="10.00">malloc</text>
</a>
</g>
</g>
<!-- Node2&#45;&gt;Node3 -->
<g id="edge2" class="edge"><title>Node2&#45;&gt;Node3</title>
<path fill="none" stroke="midnightblue" d="M228.171,-33.721C268.934,-37.3067 323.659,-42.1204 358.001,-45.1413"/>
<polygon fill="midnightblue" stroke="midnightblue" points="357.699,-48.6281 367.967,-46.0179 358.312,-41.6551 357.699,-48.6281"/>
</g>
<!-- Node4 -->
<g id="node4" class="node"><title>Node4</title>
<g id="a_node4"><a xlink:href="../../df/da5/rle__putcom_8c.html#a6fa8528c32d14763efe2a534e409e321" target="_top" xlink:title="rle_putcom">
<polygon fill="white" stroke="black" points="264,-0.5 264,-19.5 332,-19.5 332,-0.5 264,-0.5"/>
<text text-anchor="middle" x="298" y="-7.5" font-family="Helvetica,sans-Serif" font-size="10.00">rle_putcom</text>
</a>
</g>
</g>
<!-- Node2&#45;&gt;Node4 -->
<g id="edge3" class="edge"><title>Node2&#45;&gt;Node4</title>
<path fill="none" stroke="midnightblue" d="M228.23,-20.6663C236.728,-19.3483 245.422,-17.9999 253.644,-16.7246"/>
<polygon fill="midnightblue" stroke="midnightblue" points="254.411,-20.1476 263.756,-15.1562 253.338,-13.2303 254.411,-20.1476"/>
</g>
<!-- Node4&#45;&gt;Node3 -->
<g id="edge4" class="edge"><title>Node4&#45;&gt;Node3</title>
<path fill="none" stroke="midnightblue" d="M322.089,-19.589C333.118,-24.1691 346.496,-29.7253 358.487,-34.7052"/>
<polygon fill="midnightblue" stroke="midnightblue" points="357.157,-37.9426 367.735,-38.5457 359.842,-31.4779 357.157,-37.9426"/>
</g>
<!-- Node5 -->
<g id="node5" class="node"><title>Node5</title>
<g id="a_node5"><a xlink:href="../../df/da5/rle__putcom_8c.html#a7502c8b599724ce86fee5df1311a2337" target="_top" xlink:title="match">
<polygon fill="white" stroke="black" points="369,-0.5 369,-19.5 414,-19.5 414,-0.5 369,-0.5"/>
<text text-anchor="middle" x="391.5" y="-7.5" font-family="Helvetica,sans-Serif" font-size="10.00">match</text>
</a>
</g>
</g>
<!-- Node4&#45;&gt;Node5 -->
<g id="edge5" class="edge"><title>Node4&#45;&gt;Node5</title>
<path fill="none" stroke="midnightblue" d="M332.034,-10C340.768,-10 350.174,-10 358.834,-10"/>
<polygon fill="midnightblue" stroke="midnightblue" points="358.932,-13.5001 368.932,-10 358.932,-6.5001 358.932,-13.5001"/>
</g>
</g>
</svg>
