<?xml version="1.0" encoding="UTF-8" standalone="no"?>
<!DOCTYPE svg PUBLIC "-//W3C//DTD SVG 1.1//EN"
 "http://www.w3.org/Graphics/SVG/1.1/DTD/svg11.dtd">
<!-- Generated by graphviz version 2.38.0 (20140413.2041)
 -->
<!-- Title: main Pages: 1 -->
<!--zoomable 531 -->
<svg id="main" version="1.1" xmlns="http://www.w3.org/2000/svg" xmlns:xlink="http://www.w3.org/1999/xlink" xml:space="preserve" onload="init(evt)">
<style type="text/css"><![CDATA[
.edge:hover path { stroke: red; }
.edge:hover polygon { stroke: red; fill: red; }
]]></style>
<script type="text/javascript"><![CDATA[
var edges = document.getElementsByTagName('g');
if (edges && edges.length) {
  for (var i=0;i<edges.length;i++) {
    if (edges[i].id.substr(0,4)=='edge') {
      edges[i].setAttribute('class','edge');
    }
  }
}
]]></script>
        <defs>
                <circle id="rim" cx="0" cy="0" r="7"/>
                <circle id="rim2" cx="0" cy="0" r="3.5"/>
                <g id="zoomPlus">
                        <use xlink:href="#rim" fill="#404040">
                                <set attributeName="fill" to="#808080" begin="zoomplus.mouseover" end="zoomplus.mouseout"/>
                        </use>
                        <path d="M-4,0h8M0,-4v8" fill="none" stroke="white" stroke-width="1.5" pointer-events="none"/>
                </g>
                <g id="zoomMin">
                        <use xlink:href="#rim" fill="#404040">
                                <set attributeName="fill" to="#808080" begin="zoomminus.mouseover" end="zoomminus.mouseout"/>
                        </use>
                        <path d="M-4,0h8" fill="none" stroke="white" stroke-width="1.5" pointer-events="none"/>
                </g>
                <g id="dirArrow">
                        <path fill="none" stroke="white" stroke-width="1.5" d="M0,-3.0v7 M-2.5,-0.5L0,-3.0L2.5,-0.5"/>
                </g>
               <g id="resetDef">
                       <use xlink:href="#rim2" fill="#404040">
                               <set attributeName="fill" to="#808080" begin="reset.mouseover" end="reset.mouseout"/>
                       </use>
               </g>
        </defs>

<script type="text/javascript">
var viewWidth = 579;
var viewHeight = 531;
var sectionId = 'dynsection-4';
</script>
<script xlink:href="../../svgpan.js"/>
<svg id="graph" class="graph">
<g id="viewport">
<title>main</title>
<polygon fill="white" stroke="none" points="-4,4 -4,-527.142 575,-527.142 575,4 -4,4"/>
<!-- Node1 -->
<g id="node1" class="node"><title>Node1</title>
<polygon fill="#bfbfbf" stroke="black" points="0,-247.5 0,-266.5 39,-266.5 39,-247.5 0,-247.5"/>
<text text-anchor="middle" x="19.5" y="-254.5" font-family="Helvetica,sans-Serif" font-size="10.00">main</text>
</g>
<!-- Node2 -->
<g id="node2" class="node"><title>Node2</title>
<g id="a_node2"><a xlink:href="../../d2/df3/rle__hdr_8c.html#a8ba0e5b11d1e39ab7227f1686e676c86" target="_top" xlink:title="rle_hdr_init">
<polygon fill="white" stroke="black" points="95.5,-342.5 95.5,-361.5 165.5,-361.5 165.5,-342.5 95.5,-342.5"/>
<text text-anchor="middle" x="130.5" y="-349.5" font-family="Helvetica,sans-Serif" font-size="10.00">rle_hdr_init</text>
</a>
</g>
</g>
<!-- Node1&#45;&gt;Node2 -->
<g id="edge1" class="edge"><title>Node1&#45;&gt;Node2</title>
<path fill="none" stroke="midnightblue" d="M25.6709,-266.5C34.1939,-281.391 52.5087,-310.346 75,-328 79.9635,-331.896 85.6579,-335.298 91.4526,-338.221"/>
<polygon fill="midnightblue" stroke="midnightblue" points="90.0044,-341.407 100.551,-342.421 92.9384,-335.052 90.0044,-341.407"/>
</g>
<!-- Node6 -->
<g id="node6" class="node"><title>Node6</title>
<g id="a_node6"><a xlink:href="../../d0/dcc/rletorla_8c.html#ab7e36af3707843f77cc5b4e831c2fa6d" target="_top" xlink:title="malloc">
<polygon fill="white" stroke="black" points="514.5,-285.5 514.5,-304.5 561.5,-304.5 561.5,-285.5 514.5,-285.5"/>
<text text-anchor="middle" x="538" y="-292.5" font-family="Helvetica,sans-Serif" font-size="10.00">malloc</text>
</a>
</g>
</g>
<!-- Node1&#45;&gt;Node6 -->
<g id="edge30" class="edge"><title>Node1&#45;&gt;Node6</title>
<path fill="none" stroke="midnightblue" d="M30.3365,-266.626C40.5418,-275.894 57.4412,-289.317 75,-295 228.784,-344.77 426.742,-316.183 504.031,-301.762"/>
<polygon fill="midnightblue" stroke="midnightblue" points="504.955,-305.148 514.118,-299.831 503.639,-298.273 504.955,-305.148"/>
</g>
<!-- Node7 -->
<g id="node7" class="node"><title>Node7</title>
<g id="a_node7"><a xlink:href="../../d2/df3/rle__hdr_8c.html#a82e79385f2d45cc3b80ce0f4f369eae5" target="_top" xlink:title="rle_names">
<polygon fill="white" stroke="black" points="385,-380.5 385,-399.5 451,-399.5 451,-380.5 385,-380.5"/>
<text text-anchor="middle" x="418" y="-387.5" font-family="Helvetica,sans-Serif" font-size="10.00">rle_names</text>
</a>
</g>
</g>
<!-- Node1&#45;&gt;Node7 -->
<g id="edge12" class="edge"><title>Node1&#45;&gt;Node7</title>
<path fill="none" stroke="midnightblue" d="M21.8373,-266.785C25.535,-289.618 38.1828,-346.34 75,-371 166.875,-432.539 305.728,-414.701 374.834,-400.332"/>
<polygon fill="midnightblue" stroke="midnightblue" points="375.873,-403.689 384.909,-398.158 374.396,-396.846 375.873,-403.689"/>
</g>
<!-- Node8 -->
<g id="node8" class="node"><title>Node8</title>
<g id="a_node8"><a xlink:href="../../d4/db0/scanargs_8c.html#a7ea6d702c0484056c8504d6ce7fede08" target="_top" xlink:title="scanargs">
<polygon fill="white" stroke="black" points="100.5,-152.5 100.5,-171.5 160.5,-171.5 160.5,-152.5 100.5,-152.5"/>
<text text-anchor="middle" x="130.5" y="-159.5" font-family="Helvetica,sans-Serif" font-size="10.00">scanargs</text>
</a>
</g>
</g>
<!-- Node1&#45;&gt;Node8 -->
<g id="edge10" class="edge"><title>Node1&#45;&gt;Node8</title>
<path fill="none" stroke="midnightblue" d="M25.6709,-247.5C34.1939,-232.609 52.5087,-203.654 75,-186 79.9635,-182.104 85.6579,-178.702 91.4526,-175.779"/>
<polygon fill="midnightblue" stroke="midnightblue" points="92.9384,-178.948 100.551,-171.579 90.0044,-172.593 92.9384,-178.948"/>
</g>
<!-- Node10 -->
<g id="node10" class="node"><title>Node10</title>
<g id="a_node10"><a xlink:href="../../d8/d30/cmd__name_8c.html#a271249070fdd12c176777c77d76f888f" target="_top" xlink:title="cmd_name">
<polygon fill="white" stroke="black" points="96.5,-114.5 96.5,-133.5 164.5,-133.5 164.5,-114.5 96.5,-114.5"/>
<text text-anchor="middle" x="130.5" y="-121.5" font-family="Helvetica,sans-Serif" font-size="10.00">cmd_name</text>
</a>
</g>
</g>
<!-- Node1&#45;&gt;Node10 -->
<g id="edge13" class="edge"><title>Node1&#45;&gt;Node10</title>
<path fill="none" stroke="midnightblue" d="M22.49,-247.222C27.4341,-225.383 42.3104,-172.263 75,-143 78.5906,-139.786 82.7556,-137.109 87.1525,-134.88"/>
<polygon fill="midnightblue" stroke="midnightblue" points="88.5885,-138.073 96.3936,-130.908 85.8241,-131.642 88.5885,-138.073"/>
</g>
<!-- Node11 -->
<g id="node11" class="node"><title>Node11</title>
<g id="a_node11"><a xlink:href="../../d8/def/rle__addhist_8c.html#a4f9433d6e4e203d0ecea1c7d3837afc3" target="_top" xlink:title="rle_addhist">
<polygon fill="white" stroke="black" points="242,-152.5 242,-171.5 311,-171.5 311,-152.5 242,-152.5"/>
<text text-anchor="middle" x="276.5" y="-159.5" font-family="Helvetica,sans-Serif" font-size="10.00">rle_addhist</text>
</a>
</g>
</g>
<!-- Node1&#45;&gt;Node11 -->
<g id="edge14" class="edge"><title>Node1&#45;&gt;Node11</title>
<path fill="none" stroke="midnightblue" d="M31.9179,-247.335C42.4884,-238.818 58.9507,-226.613 75,-219 102.759,-205.832 181.904,-185.055 232.055,-172.556"/>
<polygon fill="midnightblue" stroke="midnightblue" points="233.116,-175.899 241.981,-170.096 231.432,-169.105 233.116,-175.899"/>
</g>
<!-- Node16 -->
<g id="node16" class="node"><title>Node16</title>
<g id="a_node16"><a xlink:href="../../de/d4e/rle__open__f_8c.html#a89733a45961817885603ae01210290b7" target="_top" xlink:title="rle_open_f">
<polygon fill="white" stroke="black" points="96.5,-437.5 96.5,-456.5 164.5,-456.5 164.5,-437.5 96.5,-437.5"/>
<text text-anchor="middle" x="130.5" y="-444.5" font-family="Helvetica,sans-Serif" font-size="10.00">rle_open_f</text>
</a>
</g>
</g>
<!-- Node1&#45;&gt;Node16 -->
<g id="edge21" class="edge"><title>Node1&#45;&gt;Node16</title>
<path fill="none" stroke="midnightblue" d="M22.219,-266.806C26.9734,-291.758 42.1758,-358.879 75,-404 82.9209,-414.888 94.3077,-424.462 104.627,-431.796"/>
<polygon fill="midnightblue" stroke="midnightblue" points="102.697,-434.716 112.944,-437.408 106.613,-428.914 102.697,-434.716"/>
</g>
<!-- Node19 -->
<g id="node19" class="node"><title>Node19</title>
<g id="a_node19"><a xlink:href="../../de/d5e/vcrtorle_8c.html#a66a07ca95e40cad3e7371fa5b9702470" target="_top" xlink:title="ParseVICARHeader">
<polygon fill="white" stroke="black" points="75,-76.5 75,-95.5 186,-95.5 186,-76.5 75,-76.5"/>
<text text-anchor="middle" x="130.5" y="-83.5" font-family="Helvetica,sans-Serif" font-size="10.00">ParseVICARHeader</text>
</a>
</g>
</g>
<!-- Node1&#45;&gt;Node19 -->
<g id="edge26" class="edge"><title>Node1&#45;&gt;Node19</title>
<path fill="none" stroke="midnightblue" d="M21.1617,-247.302C23.4915,-220.737 33.5867,-146.049 75,-105 76.4678,-103.545 78.0529,-102.201 79.7267,-100.96"/>
<polygon fill="midnightblue" stroke="midnightblue" points="81.9324,-103.718 88.7047,-95.5706 78.3295,-97.7167 81.9324,-103.718"/>
</g>
<!-- Node23 -->
<g id="node23" class="node"><title>Node23</title>
<g id="a_node23"><a xlink:href="../../de/d5e/vcrtorle_8c.html#af58a4643b68f5a3ff4f34d4bb6a804fd" target="_top" xlink:title="SetUpRLEFile">
<polygon fill="white" stroke="black" points="89,-228.5 89,-247.5 172,-247.5 172,-228.5 89,-228.5"/>
<text text-anchor="middle" x="130.5" y="-235.5" font-family="Helvetica,sans-Serif" font-size="10.00">SetUpRLEFile</text>
</a>
</g>
</g>
<!-- Node1&#45;&gt;Node23 -->
<g id="edge31" class="edge"><title>Node1&#45;&gt;Node23</title>
<path fill="none" stroke="midnightblue" d="M39.4864,-253.69C50.3825,-251.791 64.633,-249.307 78.5708,-246.878"/>
<polygon fill="midnightblue" stroke="midnightblue" points="79.3616,-250.293 88.612,-245.127 78.1595,-243.397 79.3616,-250.293"/>
</g>
<!-- Node25 -->
<g id="node25" class="node"><title>Node25</title>
<g id="a_node25"><a xlink:href="../../d9/d2a/rle__putrow_8c.html#af88a82b331cd6f425d2a2cc1623944c6" target="_top" xlink:title="rle_put_setup">
<polygon fill="white" stroke="black" points="90.5,-19.5 90.5,-38.5 170.5,-38.5 170.5,-19.5 90.5,-19.5"/>
<text text-anchor="middle" x="130.5" y="-26.5" font-family="Helvetica,sans-Serif" font-size="10.00">rle_put_setup</text>
</a>
</g>
</g>
<!-- Node1&#45;&gt;Node25 -->
<g id="edge35" class="edge"><title>Node1&#45;&gt;Node25</title>
<path fill="none" stroke="midnightblue" d="M21.0271,-247.336C23.081,-217.645 32.692,-126.183 75,-67 81.6592,-57.6846 91.3494,-49.8796 100.718,-43.8144"/>
<polygon fill="midnightblue" stroke="midnightblue" points="102.726,-46.6916 109.493,-38.5399 99.1192,-40.692 102.726,-46.6916"/>
</g>
<!-- Node27 -->
<g id="node27" class="node"><title>Node27</title>
<g id="a_node27"><a xlink:href="../../d9/d2a/rle__putrow_8c.html#aa26532b01bc4f49b7383765cdc23ea72" target="_top" xlink:title="rle_putrow">
<polygon fill="white" stroke="black" points="97.5,-266.5 97.5,-285.5 163.5,-285.5 163.5,-266.5 97.5,-266.5"/>
<text text-anchor="middle" x="130.5" y="-273.5" font-family="Helvetica,sans-Serif" font-size="10.00">rle_putrow</text>
</a>
</g>
</g>
<!-- Node1&#45;&gt;Node27 -->
<g id="edge37" class="edge"><title>Node1&#45;&gt;Node27</title>
<path fill="none" stroke="midnightblue" d="M39.4864,-260.31C52.6192,-262.599 70.6252,-265.737 87.0832,-268.606"/>
<polygon fill="midnightblue" stroke="midnightblue" points="86.6206,-272.078 97.0731,-270.348 87.8227,-265.182 86.6206,-272.078"/>
</g>
<!-- Node29 -->
<g id="node29" class="node"><title>Node29</title>
<g id="a_node29"><a xlink:href="../../d9/d2a/rle__putrow_8c.html#af4fab734a5d227ad2ae95840f56fff3b" target="_top" xlink:title="rle_puteof">
<polygon fill="white" stroke="black" points="386,-494.5 386,-513.5 450,-513.5 450,-494.5 386,-494.5"/>
<text text-anchor="middle" x="418" y="-501.5" font-family="Helvetica,sans-Serif" font-size="10.00">rle_puteof</text>
</a>
</g>
</g>
<!-- Node1&#45;&gt;Node29 -->
<g id="edge40" class="edge"><title>Node1&#45;&gt;Node29</title>
<path fill="none" stroke="midnightblue" d="M21.5795,-266.636C25.9768,-304.058 43.8049,-439.014 75,-466 160.157,-539.667 305.307,-525.458 375.949,-512.838"/>
<polygon fill="midnightblue" stroke="midnightblue" points="376.626,-516.272 385.815,-510.998 375.343,-509.391 376.626,-516.272"/>
</g>
<!-- Node3 -->
<g id="node3" class="node"><title>Node3</title>
<g id="a_node3"><a xlink:href="../../d2/df3/rle__hdr_8c.html#a16c4da6201b3b8cf55127b9ca968d253" target="_top" xlink:title="rle_hdr_clear">
<polygon fill="white" stroke="black" points="378,-418.5 378,-437.5 458,-437.5 458,-418.5 378,-418.5"/>
<text text-anchor="middle" x="418" y="-425.5" font-family="Helvetica,sans-Serif" font-size="10.00">rle_hdr_clear</text>
</a>
</g>
</g>
<!-- Node2&#45;&gt;Node3 -->
<g id="edge2" class="edge"><title>Node2&#45;&gt;Node3</title>
<path fill="none" stroke="midnightblue" d="M165.654,-361.092C216.897,-374.733 313.765,-400.519 371.125,-415.788"/>
<polygon fill="midnightblue" stroke="midnightblue" points="370.447,-419.23 381.011,-418.42 372.248,-412.465 370.447,-419.23"/>
</g>
<!-- Node5 -->
<g id="node5" class="node"><title>Node5</title>
<g id="a_node5"><a xlink:href="../../d2/df3/rle__hdr_8c.html#afc916e29aea8788e0878ca315ff69821" target="_top" xlink:title="rle_hdr_cp">
<polygon fill="white" stroke="black" points="242.5,-342.5 242.5,-361.5 310.5,-361.5 310.5,-342.5 242.5,-342.5"/>
<text text-anchor="middle" x="276.5" y="-349.5" font-family="Helvetica,sans-Serif" font-size="10.00">rle_hdr_cp</text>
</a>
</g>
</g>
<!-- Node2&#45;&gt;Node5 -->
<g id="edge4" class="edge"><title>Node2&#45;&gt;Node5</title>
<path fill="none" stroke="midnightblue" d="M165.626,-346.16C185.496,-345.106 210.745,-344.968 232.028,-345.745"/>
<polygon fill="midnightblue" stroke="midnightblue" points="231.968,-349.246 242.116,-346.2 232.284,-342.253 231.968,-349.246"/>
</g>
<!-- Node4 -->
<g id="node4" class="node"><title>Node4</title>
<g id="a_node4"><a xlink:href="../../d0/dcc/rletorla_8c.html#aafde19f7d36ca163a143579c1b125b6d" target="_top" xlink:title="free">
<polygon fill="white" stroke="black" points="520.5,-418.5 520.5,-437.5 555.5,-437.5 555.5,-418.5 520.5,-418.5"/>
<text text-anchor="middle" x="538" y="-425.5" font-family="Helvetica,sans-Serif" font-size="10.00">free</text>
</a>
</g>
</g>
<!-- Node3&#45;&gt;Node4 -->
<g id="edge3" class="edge"><title>Node3&#45;&gt;Node4</title>
<path fill="none" stroke="midnightblue" d="M458.292,-428C475.232,-428 494.621,-428 509.916,-428"/>
<polygon fill="midnightblue" stroke="midnightblue" points="510.236,-431.5 520.236,-428 510.236,-424.5 510.236,-431.5"/>
</g>
<!-- Node5&#45;&gt;Node2 -->
<g id="edge5" class="edge"><title>Node5&#45;&gt;Node2</title>
<path fill="none" stroke="midnightblue" d="M242.116,-357.8C222.382,-358.877 197.151,-359.038 175.771,-358.284"/>
<polygon fill="midnightblue" stroke="midnightblue" points="175.769,-354.78 165.626,-357.84 175.463,-361.774 175.769,-354.78"/>
</g>
<!-- Node5&#45;&gt;Node6 -->
<g id="edge6" class="edge"><title>Node5&#45;&gt;Node6</title>
<path fill="none" stroke="midnightblue" d="M310.697,-351.114C349.424,-349.337 415.031,-344.002 469,-328 483.938,-323.571 499.647,-316.151 512.199,-309.468"/>
<polygon fill="midnightblue" stroke="midnightblue" points="514.042,-312.449 521.117,-304.563 510.668,-306.316 514.042,-312.449"/>
</g>
<!-- Node5&#45;&gt;Node7 -->
<g id="edge7" class="edge"><title>Node5&#45;&gt;Node7</title>
<path fill="none" stroke="midnightblue" d="M310.56,-361.005C329.808,-366.249 354.269,-372.912 374.886,-378.528"/>
<polygon fill="midnightblue" stroke="midnightblue" points="374.091,-381.939 384.659,-381.19 375.93,-375.185 374.091,-381.939"/>
</g>
<!-- Node7&#45;&gt;Node4 -->
<g id="edge8" class="edge"><title>Node7&#45;&gt;Node4</title>
<path fill="none" stroke="midnightblue" d="M448.776,-399.589C467.813,-405.72 492.281,-413.599 510.618,-419.504"/>
<polygon fill="midnightblue" stroke="midnightblue" points="509.768,-422.907 520.359,-422.641 511.914,-416.244 509.768,-422.907"/>
</g>
<!-- Node7&#45;&gt;Node6 -->
<g id="edge9" class="edge"><title>Node7&#45;&gt;Node6</title>
<path fill="none" stroke="midnightblue" d="M443.388,-380.421C451.869,-376.55 461.204,-371.651 469,-366 490.221,-350.617 510.451,-328.142 523.243,-312.618"/>
<polygon fill="midnightblue" stroke="midnightblue" points="525.995,-314.781 529.544,-304.798 520.544,-310.389 525.995,-314.781"/>
</g>
<!-- Node9 -->
<g id="node9" class="node"><title>Node9</title>
<g id="a_node9"><a xlink:href="../../d4/db0/scanargs_8c.html#a862219039664df6eb3cfced58addf830" target="_top" xlink:title="_do_scanargs">
<polygon fill="white" stroke="black" points="234.5,-114.5 234.5,-133.5 318.5,-133.5 318.5,-114.5 234.5,-114.5"/>
<text text-anchor="middle" x="276.5" y="-121.5" font-family="Helvetica,sans-Serif" font-size="10.00">_do_scanargs</text>
</a>
</g>
</g>
<!-- Node8&#45;&gt;Node9 -->
<g id="edge11" class="edge"><title>Node8&#45;&gt;Node9</title>
<path fill="none" stroke="midnightblue" d="M160.641,-154.31C180.399,-149.096 206.928,-142.095 229.512,-136.136"/>
<polygon fill="midnightblue" stroke="midnightblue" points="230.468,-139.503 239.244,-133.568 228.682,-132.735 230.468,-139.503"/>
</g>
<!-- Node11&#45;&gt;Node6 -->
<g id="edge17" class="edge"><title>Node11&#45;&gt;Node6</title>
<path fill="none" stroke="midnightblue" d="M311.082,-170.518C358.539,-182.92 442.413,-206.288 469,-223 491.599,-237.205 511.797,-260.661 524.194,-276.923"/>
<polygon fill="midnightblue" stroke="midnightblue" points="521.488,-279.15 530.245,-285.113 527.118,-274.99 521.488,-279.15"/>
</g>
<!-- Node12 -->
<g id="node12" class="node"><title>Node12</title>
<g id="a_node12"><a xlink:href="../../db/db2/rle__getcom_8c.html#a9cefd612c381bf82c9cdf1f3a3b12dd6" target="_top" xlink:title="rle_getcom">
<polygon fill="white" stroke="black" points="383.5,-114.5 383.5,-133.5 452.5,-133.5 452.5,-114.5 383.5,-114.5"/>
<text text-anchor="middle" x="418" y="-121.5" font-family="Helvetica,sans-Serif" font-size="10.00">rle_getcom</text>
</a>
</g>
</g>
<!-- Node11&#45;&gt;Node12 -->
<g id="edge15" class="edge"><title>Node11&#45;&gt;Node12</title>
<path fill="none" stroke="midnightblue" d="M311.269,-152.801C329.894,-147.728 353.232,-141.37 373.241,-135.92"/>
<polygon fill="midnightblue" stroke="midnightblue" points="374.33,-139.251 383.058,-133.246 372.49,-132.497 374.33,-139.251"/>
</g>
<!-- Node14 -->
<g id="node14" class="node"><title>Node14</title>
<g id="a_node14"><a xlink:href="../../df/da5/rle__putcom_8c.html#a6fa8528c32d14763efe2a534e409e321" target="_top" xlink:title="rle_putcom">
<polygon fill="white" stroke="black" points="384,-152.5 384,-171.5 452,-171.5 452,-152.5 384,-152.5"/>
<text text-anchor="middle" x="418" y="-159.5" font-family="Helvetica,sans-Serif" font-size="10.00">rle_putcom</text>
</a>
</g>
</g>
<!-- Node11&#45;&gt;Node14 -->
<g id="edge18" class="edge"><title>Node11&#45;&gt;Node14</title>
<path fill="none" stroke="midnightblue" d="M311.269,-162C329.946,-162 353.363,-162 373.409,-162"/>
<polygon fill="midnightblue" stroke="midnightblue" points="373.542,-165.5 383.542,-162 373.542,-158.5 373.542,-165.5"/>
</g>
<!-- Node13 -->
<g id="node13" class="node"><title>Node13</title>
<g id="a_node13"><a xlink:href="../../db/db2/rle__getcom_8c.html#a7502c8b599724ce86fee5df1311a2337" target="_top" xlink:title="match">
<polygon fill="white" stroke="black" points="515.5,-114.5 515.5,-133.5 560.5,-133.5 560.5,-114.5 515.5,-114.5"/>
<text text-anchor="middle" x="538" y="-121.5" font-family="Helvetica,sans-Serif" font-size="10.00">match</text>
</a>
</g>
</g>
<!-- Node12&#45;&gt;Node13 -->
<g id="edge16" class="edge"><title>Node12&#45;&gt;Node13</title>
<path fill="none" stroke="midnightblue" d="M452.814,-124C469.35,-124 489.136,-124 505.37,-124"/>
<polygon fill="midnightblue" stroke="midnightblue" points="505.456,-127.5 515.456,-124 505.456,-120.5 505.456,-127.5"/>
</g>
<!-- Node14&#45;&gt;Node6 -->
<g id="edge19" class="edge"><title>Node14&#45;&gt;Node6</title>
<path fill="none" stroke="midnightblue" d="M445.885,-171.534C453.906,-175.226 462.329,-180.027 469,-186 497.659,-211.662 518.568,-252.222 529.16,-275.958"/>
<polygon fill="midnightblue" stroke="midnightblue" points="526.007,-277.486 533.177,-285.287 532.437,-274.718 526.007,-277.486"/>
</g>
<!-- Node15 -->
<g id="node15" class="node"><title>Node15</title>
<g id="a_node15"><a xlink:href="../../df/da5/rle__putcom_8c.html#a7502c8b599724ce86fee5df1311a2337" target="_top" xlink:title="match">
<polygon fill="white" stroke="black" points="515.5,-152.5 515.5,-171.5 560.5,-171.5 560.5,-152.5 515.5,-152.5"/>
<text text-anchor="middle" x="538" y="-159.5" font-family="Helvetica,sans-Serif" font-size="10.00">match</text>
</a>
</g>
</g>
<!-- Node14&#45;&gt;Node15 -->
<g id="edge20" class="edge"><title>Node14&#45;&gt;Node15</title>
<path fill="none" stroke="midnightblue" d="M452.184,-162C468.735,-162 488.664,-162 505.044,-162"/>
<polygon fill="midnightblue" stroke="midnightblue" points="505.224,-165.5 515.224,-162 505.224,-158.5 505.224,-165.5"/>
</g>
<!-- Node17 -->
<g id="node17" class="node"><title>Node17</title>
<g id="a_node17"><a xlink:href="../../de/d4e/rle__open__f_8c.html#a5a0e62a00f907fce26e93b2f72adb2b0" target="_top" xlink:title="rle_open_f_noexit">
<polygon fill="white" stroke="black" points="367,-456.5 367,-475.5 469,-475.5 469,-456.5 367,-456.5"/>
<text text-anchor="middle" x="418" y="-463.5" font-family="Helvetica,sans-Serif" font-size="10.00">rle_open_f_noexit</text>
</a>
</g>
</g>
<!-- Node16&#45;&gt;Node17 -->
<g id="edge22" class="edge"><title>Node16&#45;&gt;Node17</title>
<path fill="none" stroke="midnightblue" d="M164.529,-449.198C211.401,-452.317 298.013,-458.081 356.563,-461.978"/>
<polygon fill="midnightblue" stroke="midnightblue" points="356.58,-465.487 366.791,-462.659 357.045,-458.502 356.58,-465.487"/>
</g>
<!-- Node17&#45;&gt;Node4 -->
<g id="edge25" class="edge"><title>Node17&#45;&gt;Node4</title>
<path fill="none" stroke="midnightblue" d="M448.776,-456.411C467.813,-450.28 492.281,-442.401 510.618,-436.496"/>
<polygon fill="midnightblue" stroke="midnightblue" points="511.914,-439.756 520.359,-433.359 509.768,-433.093 511.914,-439.756"/>
</g>
<!-- Node17&#45;&gt;Node6 -->
<g id="edge24" class="edge"><title>Node17&#45;&gt;Node6</title>
<path fill="none" stroke="midnightblue" d="M454.667,-456.491C459.886,-454.003 464.881,-450.889 469,-447 508.113,-410.075 526.292,-346.531 533.305,-314.567"/>
<polygon fill="midnightblue" stroke="midnightblue" points="536.754,-315.173 535.336,-304.674 529.897,-313.765 536.754,-315.173"/>
</g>
<!-- Node18 -->
<g id="node18" class="node"><title>Node18</title>
<g id="a_node18"><a xlink:href="../../de/d4e/rle__open__f_8c.html#a84fda810ae9b9bde82a6391d0b264ead" target="_top" xlink:title="my_popen">
<polygon fill="white" stroke="black" points="505,-456.5 505,-475.5 571,-475.5 571,-456.5 505,-456.5"/>
<text text-anchor="middle" x="538" y="-463.5" font-family="Helvetica,sans-Serif" font-size="10.00">my_popen</text>
</a>
</g>
</g>
<!-- Node17&#45;&gt;Node18 -->
<g id="edge23" class="edge"><title>Node17&#45;&gt;Node18</title>
<path fill="none" stroke="midnightblue" d="M469.043,-466C477.523,-466 486.255,-466 494.518,-466"/>
<polygon fill="midnightblue" stroke="midnightblue" points="494.678,-469.5 504.678,-466 494.678,-462.5 494.678,-469.5"/>
</g>
<!-- Node20 -->
<g id="node20" class="node"><title>Node20</title>
<g id="a_node20"><a xlink:href="../../de/d5e/vcrtorle_8c.html#a3b94dd10bd4740f2ac9e60d829b1ce9a" target="_top" xlink:title="FatalError">
<polygon fill="white" stroke="black" points="244.5,-76.5 244.5,-95.5 308.5,-95.5 308.5,-76.5 244.5,-76.5"/>
<text text-anchor="middle" x="276.5" y="-83.5" font-family="Helvetica,sans-Serif" font-size="10.00">FatalError</text>
</a>
</g>
</g>
<!-- Node19&#45;&gt;Node20 -->
<g id="edge27" class="edge"><title>Node19&#45;&gt;Node20</title>
<path fill="none" stroke="midnightblue" d="M186.351,-86C202.085,-86 218.978,-86 233.783,-86"/>
<polygon fill="midnightblue" stroke="midnightblue" points="234.147,-89.5001 244.147,-86 234.147,-82.5001 234.147,-89.5001"/>
</g>
<!-- Node21 -->
<g id="node21" class="node"><title>Node21</title>
<g id="a_node21"><a xlink:href="../../d9/dea/getcx3d_8c.html#af4152c13a06d002f268af780c0433c3a" target="_top" xlink:title="done">
<polygon fill="white" stroke="black" points="256,-38.5 256,-57.5 297,-57.5 297,-38.5 256,-38.5"/>
<text text-anchor="middle" x="276.5" y="-45.5" font-family="Helvetica,sans-Serif" font-size="10.00">done</text>
</a>
</g>
</g>
<!-- Node19&#45;&gt;Node21 -->
<g id="edge28" class="edge"><title>Node19&#45;&gt;Node21</title>
<path fill="none" stroke="midnightblue" d="M167.837,-76.411C191.97,-70.0428 223.253,-61.7875 245.873,-55.8181"/>
<polygon fill="midnightblue" stroke="midnightblue" points="246.824,-59.1871 255.6,-53.2513 245.038,-52.4188 246.824,-59.1871"/>
</g>
<!-- Node22 -->
<g id="node22" class="node"><title>Node22</title>
<g id="a_node22"><a xlink:href="../../da/d12/sig_8c.html#aa189be24085654e9f5fa0718698ae248" target="_top" xlink:title="sig_block">
<polygon fill="white" stroke="black" points="388,-38.5 388,-57.5 448,-57.5 448,-38.5 388,-38.5"/>
<text text-anchor="middle" x="418" y="-45.5" font-family="Helvetica,sans-Serif" font-size="10.00">sig_block</text>
</a>
</g>
</g>
<!-- Node21&#45;&gt;Node22 -->
<g id="edge29" class="edge"><title>Node21&#45;&gt;Node22</title>
<path fill="none" stroke="midnightblue" d="M297.191,-48C318.076,-48 351.618,-48 377.906,-48"/>
<polygon fill="midnightblue" stroke="midnightblue" points="377.945,-51.5001 387.945,-48 377.945,-44.5001 377.945,-51.5001"/>
</g>
<!-- Node24 -->
<g id="node24" class="node"><title>Node24</title>
<g id="a_node24"><a xlink:href="../../de/d5e/vcrtorle_8c.html#a6e75994f8aeb500d43ec159d8d5a70e5" target="_top" xlink:title="addVICARcomment">
<polygon fill="white" stroke="black" points="222,-190.5 222,-209.5 331,-209.5 331,-190.5 222,-190.5"/>
<text text-anchor="middle" x="276.5" y="-197.5" font-family="Helvetica,sans-Serif" font-size="10.00">addVICARcomment</text>
</a>
</g>
</g>
<!-- Node23&#45;&gt;Node24 -->
<g id="edge32" class="edge"><title>Node23&#45;&gt;Node24</title>
<path fill="none" stroke="midnightblue" d="M167.837,-228.411C186.583,-223.464 209.643,-217.379 229.607,-212.111"/>
<polygon fill="midnightblue" stroke="midnightblue" points="230.648,-215.456 239.424,-209.52 228.862,-208.688 230.648,-215.456"/>
</g>
<!-- Node24&#45;&gt;Node6 -->
<g id="edge33" class="edge"><title>Node24&#45;&gt;Node6</title>
<path fill="none" stroke="midnightblue" d="M311.909,-209.573C350.639,-220.708 415.182,-240.35 469,-262 482.737,-267.526 497.575,-274.592 509.875,-280.766"/>
<polygon fill="midnightblue" stroke="midnightblue" points="508.626,-284.058 519.125,-285.481 511.805,-277.821 508.626,-284.058"/>
</g>
<!-- Node24&#45;&gt;Node14 -->
<g id="edge34" class="edge"><title>Node24&#45;&gt;Node14</title>
<path fill="none" stroke="midnightblue" d="M312.702,-190.411C331.345,-185.333 354.393,-179.054 374.078,-173.692"/>
<polygon fill="midnightblue" stroke="midnightblue" points="375.002,-177.068 383.73,-171.063 373.162,-170.314 375.002,-177.068"/>
</g>
<!-- Node26 -->
<g id="node26" class="node"><title>Node26</title>
<g id="a_node26"><a xlink:href="../../d9/d2a/rle__putrow_8c.html#a46d9789104d5d1f09253a808fdad5346" target="_top" xlink:title="rle_put_init">
<polygon fill="white" stroke="black" points="242.5,-0.5 242.5,-19.5 310.5,-19.5 310.5,-0.5 242.5,-0.5"/>
<text text-anchor="middle" x="276.5" y="-7.5" font-family="Helvetica,sans-Serif" font-size="10.00">rle_put_init</text>
</a>
</g>
</g>
<!-- Node25&#45;&gt;Node26 -->
<g id="edge36" class="edge"><title>Node25&#45;&gt;Node26</title>
<path fill="none" stroke="midnightblue" d="M170.849,-23.8082C189.766,-21.3121 212.498,-18.3127 231.936,-15.748"/>
<polygon fill="midnightblue" stroke="midnightblue" points="232.6,-19.1908 242.056,-14.4127 231.684,-12.251 232.6,-19.1908"/>
</g>
<!-- Node27&#45;&gt;Node6 -->
<g id="edge38" class="edge"><title>Node27&#45;&gt;Node6</title>
<path fill="none" stroke="midnightblue" d="M163.658,-277.507C239.181,-281.045 427.262,-289.858 503.805,-293.445"/>
<polygon fill="midnightblue" stroke="midnightblue" points="504.109,-296.963 514.262,-293.935 504.437,-289.97 504.109,-296.963"/>
</g>
<!-- Node28 -->
<g id="node28" class="node"><title>Node28</title>
<g id="a_node28"><a xlink:href="../../d9/d2a/rle__putrow_8c.html#aaa4133bf4a6cbf287444448497631f26" target="_top" xlink:title="findruns">
<polygon fill="white" stroke="black" points="249.5,-228.5 249.5,-247.5 303.5,-247.5 303.5,-228.5 249.5,-228.5"/>
<text text-anchor="middle" x="276.5" y="-235.5" font-family="Helvetica,sans-Serif" font-size="10.00">findruns</text>
</a>
</g>
</g>
<!-- Node27&#45;&gt;Node28 -->
<g id="edge39" class="edge"><title>Node27&#45;&gt;Node28</title>
<path fill="none" stroke="midnightblue" d="M163.816,-267.472C186.209,-261.563 216.048,-253.689 239.25,-247.566"/>
<polygon fill="midnightblue" stroke="midnightblue" points="240.293,-250.911 249.069,-244.975 238.506,-244.142 240.293,-250.911"/>
</g>
<!-- Node29&#45;&gt;Node4 -->
<g id="edge41" class="edge"><title>Node29&#45;&gt;Node4</title>
<path fill="none" stroke="midnightblue" d="M450.211,-494.623C456.691,-492.006 463.282,-488.811 469,-485 488.36,-472.099 486.824,-461.522 505,-447 507.076,-445.341 509.311,-443.725 511.6,-442.181"/>
<polygon fill="midnightblue" stroke="midnightblue" points="513.845,-444.906 520.475,-436.642 510.139,-438.967 513.845,-444.906"/>
</g>
</g>
</svg>
        <g id="navigator" transform="translate(0 0)" fill="#404254">
                <rect fill="#f2f5e9" fill-opacity="0.5" stroke="#606060" stroke-width=".5" x="0" y="0" width="60" height="60"/>
                <use id="zoomplus" xlink:href="#zoomPlus" x="17" y="9" onmousedown="handleZoom(evt,'in')"/>
                <use id="zoomminus" xlink:href="#zoomMin" x="42" y="9" onmousedown="handleZoom(evt,'out')"/>
                <use id="reset" xlink:href="#resetDef" x="30" y="36" onmousedown="handleReset()"/>
                <g id="arrowUp" xlink:href="#dirArrow" transform="translate(30 24)" onmousedown="handlePan(0,-1)">
                  <use xlink:href="#rim" fill="#404040">
                        <set attributeName="fill" to="#808080" begin="arrowUp.mouseover" end="arrowUp.mouseout"/>
                  </use>
                  <path fill="none" stroke="white" stroke-width="1.5" d="M0,-3.0v7 M-2.5,-0.5L0,-3.0L2.5,-0.5"/>
                </g>
                <g id="arrowRight" xlink:href="#dirArrow" transform="rotate(90) translate(36 -43)" onmousedown="handlePan(1,0)">
                  <use xlink:href="#rim" fill="#404040">
                        <set attributeName="fill" to="#808080" begin="arrowRight.mouseover" end="arrowRight.mouseout"/>
                  </use>
                  <path fill="none" stroke="white" stroke-width="1.5" d="M0,-3.0v7 M-2.5,-0.5L0,-3.0L2.5,-0.5"/>
                </g>
                <g id="arrowDown" xlink:href="#dirArrow" transform="rotate(180) translate(-30 -48)" onmousedown="handlePan(0,1)">
                  <use xlink:href="#rim" fill="#404040">
                        <set attributeName="fill" to="#808080" begin="arrowDown.mouseover" end="arrowDown.mouseout"/>
                  </use>
                  <path fill="none" stroke="white" stroke-width="1.5" d="M0,-3.0v7 M-2.5,-0.5L0,-3.0L2.5,-0.5"/>
                </g>
                <g id="arrowLeft" xlink:href="#dirArrow" transform="rotate(270) translate(-36 17)" onmousedown="handlePan(-1,0)">
                  <use xlink:href="#rim" fill="#404040">
                        <set attributeName="fill" to="#808080" begin="arrowLeft.mouseover" end="arrowLeft.mouseout"/>
                  </use>
                  <path fill="none" stroke="white" stroke-width="1.5" d="M0,-3.0v7 M-2.5,-0.5L0,-3.0L2.5,-0.5"/>
                </g>
        </g>
        <svg viewBox="0 0 15 15" width="100%" height="30px" preserveAspectRatio="xMaxYMin meet">
         <g id="arrow_out" transform="scale(0.3 0.3)">
          <a xlink:href="vcrtorle_8c_afced8478b91af5c169926dfa4426333d_cgraph_org.svg" target="_base">
           <rect id="button" ry="5" rx="5" y="6" x="6" height="38" width="38"
                fill="#f2f5e9" fill-opacity="0.5" stroke="#606060" stroke-width="1.0"/>
           <path id="arrow"
             d="M 11.500037,31.436501 C 11.940474,20.09759 22.043105,11.32322 32.158766,21.979434 L 37.068811,17.246167 C 37.068811,17.246167 37.088388,32 37.088388,32 L 22.160133,31.978069 C 22.160133,31.978069 26.997745,27.140456 26.997745,27.140456 C 18.528582,18.264221 13.291696,25.230495 11.500037,31.436501 z"
             style="fill:#404040;"/>
          </a>
         </g>
        </svg>
</svg>
