<?xml version="1.0" encoding="UTF-8" standalone="no"?>
<!DOCTYPE svg PUBLIC "-//W3C//DTD SVG 1.1//EN"
 "http://www.w3.org/Graphics/SVG/1.1/DTD/svg11.dtd">
<!-- Generated by graphviz version 2.38.0 (20140413.2041)
 -->
<!-- Title: RLE Pages: 1 -->
<!--zoomable 962 -->
<svg id="main" version="1.1" xmlns="http://www.w3.org/2000/svg" xmlns:xlink="http://www.w3.org/1999/xlink" xml:space="preserve" onload="init(evt)">
<style type="text/css"><![CDATA[
.edge:hover path { stroke: red; }
.edge:hover polygon { stroke: red; fill: red; }
]]></style>
<script type="text/javascript"><![CDATA[
var edges = document.getElementsByTagName('g');
if (edges && edges.length) {
  for (var i=0;i<edges.length;i++) {
    if (edges[i].id.substr(0,4)=='edge') {
      edges[i].setAttribute('class','edge');
    }
  }
}
]]></script>
        <defs>
                <circle id="rim" cx="0" cy="0" r="7"/>
                <circle id="rim2" cx="0" cy="0" r="3.5"/>
                <g id="zoomPlus">
                        <use xlink:href="#rim" fill="#404040">
                                <set attributeName="fill" to="#808080" begin="zoomplus.mouseover" end="zoomplus.mouseout"/>
                        </use>
                        <path d="M-4,0h8M0,-4v8" fill="none" stroke="white" stroke-width="1.5" pointer-events="none"/>
                </g>
                <g id="zoomMin">
                        <use xlink:href="#rim" fill="#404040">
                                <set attributeName="fill" to="#808080" begin="zoomminus.mouseover" end="zoomminus.mouseout"/>
                        </use>
                        <path d="M-4,0h8" fill="none" stroke="white" stroke-width="1.5" pointer-events="none"/>
                </g>
                <g id="dirArrow">
                        <path fill="none" stroke="white" stroke-width="1.5" d="M0,-3.0v7 M-2.5,-0.5L0,-3.0L2.5,-0.5"/>
                </g>
               <g id="resetDef">
                       <use xlink:href="#rim2" fill="#404040">
                               <set attributeName="fill" to="#808080" begin="reset.mouseover" end="reset.mouseout"/>
                       </use>
               </g>
        </defs>

<script type="text/javascript">
var viewWidth = 383;
var viewHeight = 962;
var sectionId = 'dynsection-1';
</script>
<script xlink:href="../../svgpan.js"/>
<svg id="graph" class="graph">
<g id="viewport">
<title>RLE</title>
<polygon fill="white" stroke="none" points="-4,4 -4,-958 379,-958 379,4 -4,4"/>
<!-- Node1 -->
<g id="node1" class="node"><title>Node1</title>
<polygon fill="#bfbfbf" stroke="black" points="338,-568.5 338,-587.5 375,-587.5 375,-568.5 338,-568.5"/>
<text text-anchor="middle" x="356.5" y="-575.5" font-family="Helvetica,sans-Serif" font-size="10.00">RLE</text>
</g>
<!-- Node2 -->
<g id="node2" class="node"><title>Node2</title>
<g id="a_node2"><a xlink:href="../../d8/d00/classImage.html" target="_top" xlink:title="Image">
<polygon fill="white" stroke="black" points="197,-765.5 197,-784.5 243,-784.5 243,-765.5 197,-765.5"/>
<text text-anchor="middle" x="220" y="-772.5" font-family="Helvetica,sans-Serif" font-size="10.00">Image</text>
</a>
</g>
</g>
<!-- Node2&#45;&gt;Node1 -->
<g id="edge1" class="edge"><title>Node2&#45;&gt;Node1</title>
<path fill="none" stroke="midnightblue" d="M233.19,-757.145C260.801,-716.704 327.371,-619.199 348.761,-587.87"/>
<polygon fill="midnightblue" stroke="midnightblue" points="230.235,-755.266 227.487,-765.498 236.016,-759.213 230.235,-755.266"/>
</g>
<!-- Node3 -->
<g id="node3" class="node"><title>Node3</title>
<g id="a_node3"><a xlink:href="../../d7/d9f/classView.html" target="_top" xlink:title="View">
<polygon fill="white" stroke="black" points="32,-778.5 32,-797.5 71,-797.5 71,-778.5 32,-778.5"/>
<text text-anchor="middle" x="51.5" y="-785.5" font-family="Helvetica,sans-Serif" font-size="10.00">View</text>
</a>
</g>
</g>
<!-- Node3&#45;&gt;Node2 -->
<g id="edge2" class="edge"><title>Node3&#45;&gt;Node2</title>
<path fill="none" stroke="midnightblue" d="M81.5946,-785.728C114.452,-783.163 167.192,-779.045 196.866,-776.728"/>
<polygon fill="midnightblue" stroke="midnightblue" points="80.9732,-782.266 71.276,-786.534 81.5181,-789.245 80.9732,-782.266"/>
</g>
<!-- Node4 -->
<g id="node4" class="node"><title>Node4</title>
<polygon fill="white" stroke="#bfbfbf" points="32.5,-615.5 32.5,-634.5 70.5,-634.5 70.5,-615.5 32.5,-615.5"/>
<text text-anchor="middle" x="51.5" y="-622.5" font-family="Helvetica,sans-Serif" font-size="10.00">char</text>
</g>
<!-- Node4&#45;&gt;Node2 -->
<g id="edge3" class="edge"><title>Node4&#45;&gt;Node2</title>
<path fill="none" stroke="#9a32cd" stroke-dasharray="5,2" d="M80.4423,-629.47C108.209,-635.261 150.388,-647.892 177,-674 203.57,-700.066 214.074,-745.423 217.539,-765.252"/>
<polygon fill="#9a32cd" stroke="#9a32cd" points="81.0496,-626.022 70.5686,-627.571 79.7279,-632.897 81.0496,-626.022"/>
<text text-anchor="middle" x="149" y="-743" font-family="Helvetica,sans-Serif" font-size="10.00"> g</text>
<text text-anchor="middle" x="149" y="-732" font-family="Helvetica,sans-Serif" font-size="10.00">a</text>
<text text-anchor="middle" x="149" y="-721" font-family="Helvetica,sans-Serif" font-size="10.00">r</text>
<text text-anchor="middle" x="149" y="-710" font-family="Helvetica,sans-Serif" font-size="10.00">b</text>
<text text-anchor="start" x="121" y="-699" font-family="Helvetica,sans-Serif" font-size="10.00">windowIcon</text>
<text text-anchor="middle" x="149" y="-688" font-family="Helvetica,sans-Serif" font-size="10.00">Name</text>
<text text-anchor="middle" x="149" y="-677" font-family="Helvetica,sans-Serif" font-size="10.00">fileName</text>
</g>
<!-- Node10 -->
<g id="node10" class="node"><title>Node10</title>
<g id="a_node10"><a xlink:href="../../d6/dab/structrle__hdr.html" target="_top" xlink:title="rle_hdr">
<polygon fill="white" stroke="black" points="195,-221.5 195,-240.5 245,-240.5 245,-221.5 195,-221.5"/>
<text text-anchor="middle" x="220" y="-228.5" font-family="Helvetica,sans-Serif" font-size="10.00">rle_hdr</text>
</a>
</g>
</g>
<!-- Node4&#45;&gt;Node10 -->
<g id="edge13" class="edge"><title>Node4&#45;&gt;Node10</title>
<path fill="none" stroke="#9a32cd" stroke-dasharray="5,2" d="M74.6482,-609.743C87.7926,-601.035 104.971,-590.246 121,-582 144.926,-569.691 160.626,-580.351 177,-559 216.652,-507.294 219.007,-289.389 219.032,-240.683"/>
<polygon fill="#9a32cd" stroke="#9a32cd" points="72.6043,-606.899 66.2564,-615.382 76.5086,-612.709 72.6043,-606.899"/>
<text text-anchor="middle" x="149" y="-629" font-family="Helvetica,sans-Serif" font-size="10.00"> cmd</text>
<text text-anchor="middle" x="149" y="-618" font-family="Helvetica,sans-Serif" font-size="10.00">bits</text>
<text text-anchor="middle" x="149" y="-607" font-family="Helvetica,sans-Serif" font-size="10.00">is_eof</text>
<text text-anchor="middle" x="149" y="-596" font-family="Helvetica,sans-Serif" font-size="10.00">file_name</text>
<text text-anchor="middle" x="149" y="-585" font-family="Helvetica,sans-Serif" font-size="10.00">is_seek</text>
</g>
<!-- Node5 -->
<g id="node5" class="node"><title>Node5</title>
<polygon fill="white" stroke="#bfbfbf" points="19.5,-740.5 19.5,-759.5 83.5,-759.5 83.5,-740.5 19.5,-740.5"/>
<text text-anchor="middle" x="51.5" y="-747.5" font-family="Helvetica,sans-Serif" font-size="10.00">NXZone *</text>
</g>
<!-- Node5&#45;&gt;Node2 -->
<g id="edge4" class="edge"><title>Node5&#45;&gt;Node2</title>
<path fill="none" stroke="#9a32cd" stroke-dasharray="5,2" d="M93.6636,-752.488C118.048,-754.411 149.463,-757.671 177,-763 183.552,-764.268 190.562,-766.082 196.942,-767.917"/>
<polygon fill="#9a32cd" stroke="#9a32cd" points="93.908,-748.997 83.6756,-751.744 93.3878,-755.977 93.908,-748.997"/>
<text text-anchor="middle" x="149" y="-766" font-family="Helvetica,sans-Serif" font-size="10.00"> newZone</text>
</g>
<!-- Node6 -->
<g id="node6" class="node"><title>Node6</title>
<polygon fill="white" stroke="#bfbfbf" points="37,-420.5 37,-439.5 66,-439.5 66,-420.5 37,-420.5"/>
<text text-anchor="middle" x="51.5" y="-427.5" font-family="Helvetica,sans-Serif" font-size="10.00">int</text>
</g>
<!-- Node6&#45;&gt;Node2 -->
<g id="edge5" class="edge"><title>Node6&#45;&gt;Node2</title>
<path fill="none" stroke="#9a32cd" stroke-dasharray="5,2" d="M74.5107,-445.238C87.6087,-453.856 104.787,-464.396 121,-472 144.795,-483.16 160.164,-470.818 177,-491 212.919,-534.057 218.143,-720.811 218.882,-765.409"/>
<polygon fill="#9a32cd" stroke="#9a32cd" points="76.4119,-442.299 66.1566,-439.638 72.5141,-448.113 76.4119,-442.299"/>
<text text-anchor="middle" x="149" y="-516" font-family="Helvetica,sans-Serif" font-size="10.00"> xsize</text>
<text text-anchor="middle" x="149" y="-505" font-family="Helvetica,sans-Serif" font-size="10.00">ysize</text>
<text text-anchor="middle" x="149" y="-494" font-family="Helvetica,sans-Serif" font-size="10.00">numColors</text>
</g>
<!-- Node6&#45;&gt;Node10 -->
<g id="edge15" class="edge"><title>Node6&#45;&gt;Node10</title>
<path fill="none" stroke="#9a32cd" stroke-dasharray="5,2" d="M64.2014,-412.185C76.5275,-394.602 97.3992,-367.959 121,-351 142.85,-335.299 157.795,-346.845 177,-328 202.542,-302.937 213.541,-259.775 217.333,-240.629"/>
<polygon fill="#9a32cd" stroke="#9a32cd" points="61.3051,-410.22 58.5654,-420.455 67.0895,-414.162 61.3051,-410.22"/>
<text text-anchor="middle" x="149" y="-464" font-family="Helvetica,sans-Serif" font-size="10.00"> scan_y</text>
<text text-anchor="middle" x="149" y="-453" font-family="Helvetica,sans-Serif" font-size="10.00">nblank</text>
<text text-anchor="middle" x="149" y="-442" font-family="Helvetica,sans-Serif" font-size="10.00">background</text>
<text text-anchor="middle" x="149" y="-431" font-family="Helvetica,sans-Serif" font-size="10.00">vert_skip</text>
<text text-anchor="middle" x="149" y="-420" font-family="Helvetica,sans-Serif" font-size="10.00">alpha</text>
<text text-anchor="middle" x="149" y="-409" font-family="Helvetica,sans-Serif" font-size="10.00">ncolors</text>
<text text-anchor="middle" x="149" y="-398" font-family="Helvetica,sans-Serif" font-size="10.00">img_num</text>
<text text-anchor="middle" x="149" y="-387" font-family="Helvetica,sans-Serif" font-size="10.00">ymin</text>
<text text-anchor="middle" x="149" y="-376" font-family="Helvetica,sans-Serif" font-size="10.00">cmaplen</text>
<text text-anchor="middle" x="149" y="-365" font-family="Helvetica,sans-Serif" font-size="10.00">ymax</text>
<text text-anchor="middle" x="149" y="-354" font-family="Helvetica,sans-Serif" font-size="10.00">...</text>
</g>
<!-- Node7 -->
<g id="node7" class="node"><title>Node7</title>
<polygon fill="white" stroke="#bfbfbf" points="25,-934.5 25,-953.5 78,-953.5 78,-934.5 25,-934.5"/>
<text text-anchor="middle" x="51.5" y="-941.5" font-family="Helvetica,sans-Serif" font-size="10.00">NXRect</text>
</g>
<!-- Node7&#45;&gt;Node2 -->
<g id="edge6" class="edge"><title>Node7&#45;&gt;Node2</title>
<path fill="none" stroke="#9a32cd" stroke-dasharray="5,2" d="M88.1605,-945.846C115.766,-945.305 153.191,-939.981 177,-918 216.354,-881.667 219.526,-810.595 219.298,-784.718"/>
<polygon fill="#9a32cd" stroke="#9a32cd" points="88.1107,-942.346 78.1099,-945.843 88.1091,-949.346 88.1107,-942.346"/>
<text text-anchor="middle" x="149" y="-945" font-family="Helvetica,sans-Serif" font-size="10.00"> temprect</text>
</g>
<!-- Node8 -->
<g id="node8" class="node"><title>Node8</title>
<polygon fill="white" stroke="#bfbfbf" points="37,-878.5 37,-897.5 66,-897.5 66,-878.5 37,-878.5"/>
<text text-anchor="middle" x="51.5" y="-885.5" font-family="Helvetica,sans-Serif" font-size="10.00">id</text>
</g>
<!-- Node8&#45;&gt;Node2 -->
<g id="edge7" class="edge"><title>Node8&#45;&gt;Node2</title>
<path fill="none" stroke="#9a32cd" stroke-dasharray="5,2" d="M76.1991,-888.016C103.313,-886.846 147.731,-881.16 177,-858 201.189,-838.86 212.663,-802.078 216.93,-784.634"/>
<polygon fill="#9a32cd" stroke="#9a32cd" points="75.9692,-884.521 66.0625,-888.276 76.1491,-891.518 75.9692,-884.521"/>
<text text-anchor="middle" x="149" y="-906" font-family="Helvetica,sans-Serif" font-size="10.00"> thisview</text>
<text text-anchor="middle" x="149" y="-895" font-family="Helvetica,sans-Serif" font-size="10.00">tiffimage</text>
<text text-anchor="middle" x="149" y="-884" font-family="Helvetica,sans-Serif" font-size="10.00">thiswindow</text>
</g>
<!-- Node9 -->
<g id="node9" class="node"><title>Node9</title>
<polygon fill="white" stroke="#bfbfbf" points="29.5,-816.5 29.5,-835.5 73.5,-835.5 73.5,-816.5 29.5,-816.5"/>
<text text-anchor="middle" x="51.5" y="-823.5" font-family="Helvetica,sans-Serif" font-size="10.00">void *</text>
</g>
<!-- Node9&#45;&gt;Node2 -->
<g id="edge8" class="edge"><title>Node9&#45;&gt;Node2</title>
<path fill="none" stroke="#9a32cd" stroke-dasharray="5,2" d="M83.3667,-819.632C108.833,-814.007 145.729,-804.999 177,-794 184.55,-791.345 192.61,-787.865 199.63,-784.609"/>
<polygon fill="#9a32cd" stroke="#9a32cd" points="82.5689,-816.223 73.5361,-821.76 84.0504,-823.065 82.5689,-816.223"/>
<text text-anchor="middle" x="149" y="-846" font-family="Helvetica,sans-Serif" font-size="10.00"> gmap</text>
<text text-anchor="middle" x="149" y="-835" font-family="Helvetica,sans-Serif" font-size="10.00">bmap</text>
<text text-anchor="middle" x="149" y="-824" font-family="Helvetica,sans-Serif" font-size="10.00">amap</text>
<text text-anchor="middle" x="149" y="-813" font-family="Helvetica,sans-Serif" font-size="10.00">rmap</text>
</g>
<!-- Node10&#45;&gt;Node1 -->
<g id="edge9" class="edge"><title>Node10&#45;&gt;Node1</title>
<path fill="none" stroke="#9a32cd" stroke-dasharray="5,2" d="M228.501,-250.352C253.49,-314.821 333.365,-520.895 351.717,-568.239"/>
<polygon fill="#9a32cd" stroke="#9a32cd" points="231.615,-248.702 224.738,-240.643 225.088,-251.232 231.615,-248.702"/>
<text text-anchor="middle" x="291.5" y="-487" font-family="Helvetica,sans-Serif" font-size="10.00"> rle_file_hdr</text>
</g>
<!-- Node11 -->
<g id="node11" class="node"><title>Node11</title>
<polygon fill="white" stroke="#bfbfbf" points="0,-240.5 0,-259.5 103,-259.5 103,-240.5 0,-240.5"/>
<text text-anchor="middle" x="51.5" y="-247.5" font-family="Helvetica,sans-Serif" font-size="10.00">enum rle_dispatch</text>
</g>
<!-- Node11&#45;&gt;Node10 -->
<g id="edge10" class="edge"><title>Node11&#45;&gt;Node10</title>
<path fill="none" stroke="#9a32cd" stroke-dasharray="5,2" d="M113.558,-243.032C141.759,-239.814 173.625,-236.178 194.873,-233.753"/>
<polygon fill="#9a32cd" stroke="#9a32cd" points="112.899,-239.585 103.36,-244.196 113.693,-246.54 112.899,-239.585"/>
<text text-anchor="middle" x="149" y="-245" font-family="Helvetica,sans-Serif" font-size="10.00"> dispatch</text>
</g>
<!-- Node12 -->
<g id="node12" class="node"><title>Node12</title>
<polygon fill="white" stroke="#bfbfbf" points="33.5,-202.5 33.5,-221.5 69.5,-221.5 69.5,-202.5 33.5,-202.5"/>
<text text-anchor="middle" x="51.5" y="-209.5" font-family="Helvetica,sans-Serif" font-size="10.00">int *</text>
</g>
<!-- Node12&#45;&gt;Node10 -->
<g id="edge11" class="edge"><title>Node12&#45;&gt;Node10</title>
<path fill="none" stroke="#9a32cd" stroke-dasharray="5,2" d="M80.218,-213.185C105.526,-214.514 143.92,-217.149 177,-222 182.755,-222.844 188.902,-224.009 194.668,-225.222"/>
<polygon fill="#9a32cd" stroke="#9a32cd" points="80.0617,-209.673 69.9019,-212.678 79.7181,-216.665 80.0617,-209.673"/>
<text text-anchor="middle" x="149" y="-225" font-family="Helvetica,sans-Serif" font-size="10.00"> bg_color</text>
</g>
<!-- Node13 -->
<g id="node13" class="node"><title>Node13</title>
<polygon fill="white" stroke="#bfbfbf" points="19,-164.5 19,-183.5 84,-183.5 84,-164.5 19,-164.5"/>
<text text-anchor="middle" x="51.5" y="-171.5" font-family="Helvetica,sans-Serif" font-size="10.00">short(*)[2]</text>
</g>
<!-- Node13&#45;&gt;Node10 -->
<g id="edge12" class="edge"><title>Node13&#45;&gt;Node10</title>
<path fill="none" stroke="#9a32cd" stroke-dasharray="5,2" d="M94.4047,-179.323C119.169,-183.461 150.719,-190.491 177,-202 188.201,-206.905 199.531,-214.949 207.595,-221.322"/>
<polygon fill="#9a32cd" stroke="#9a32cd" points="94.665,-175.821 84.2422,-177.723 93.5757,-182.736 94.665,-175.821"/>
<text text-anchor="middle" x="149" y="-205" font-family="Helvetica,sans-Serif" font-size="10.00"> brun</text>
</g>
<!-- Node14 -->
<g id="node14" class="node"><title>Node14</title>
<polygon fill="white" stroke="#bfbfbf" points="28,-126.5 28,-145.5 75,-145.5 75,-126.5 28,-126.5"/>
<text text-anchor="middle" x="51.5" y="-133.5" font-family="Helvetica,sans-Serif" font-size="10.00">FILE *</text>
</g>
<!-- Node14&#45;&gt;Node10 -->
<g id="edge14" class="edge"><title>Node14&#45;&gt;Node10</title>
<path fill="none" stroke="#9a32cd" stroke-dasharray="5,2" d="M85.1633,-139.071C111.917,-142.939 149.68,-151.617 177,-171 195.459,-184.096 208.554,-207.988 214.82,-221.331"/>
<polygon fill="#9a32cd" stroke="#9a32cd" points="85.5082,-135.587 75.1412,-137.772 84.6081,-142.529 85.5082,-135.587"/>
<text text-anchor="middle" x="149" y="-174" font-family="Helvetica,sans-Serif" font-size="10.00"> rle_file</text>
</g>
<!-- Node15 -->
<g id="node15" class="node"><title>Node15</title>
<polygon fill="white" stroke="#bfbfbf" points="37,-68.5 37,-87.5 66,-87.5 66,-68.5 37,-68.5"/>
<text text-anchor="middle" x="51.5" y="-75.5" font-family="Helvetica,sans-Serif" font-size="10.00"> </text>
</g>
<!-- Node15&#45;&gt;Node10 -->
<g id="edge16" class="edge"><title>Node15&#45;&gt;Node10</title>
<path fill="none" stroke="#9a32cd" stroke-dasharray="5,2" d="M76.3352,-82.7217C103.888,-89.3192 149.022,-103.797 177,-132 202.64,-157.847 213.588,-201.759 217.35,-221.218"/>
<polygon fill="#9a32cd" stroke="#9a32cd" points="76.8961,-79.2609 66.3737,-80.4973 75.3705,-86.0926 76.8961,-79.2609"/>
<text text-anchor="middle" x="149" y="-135" font-family="Helvetica,sans-Serif" font-size="10.00"> get</text>
</g>
<!-- Node15&#45;&gt;Node10 -->
<g id="edge18" class="edge"><title>Node15&#45;&gt;Node10</title>
<path fill="none" stroke="#9a32cd" stroke-dasharray="5,2" d="M76.0992,-71.4606C103.427,-65.4222 148.347,-60.4292 177,-83 199.345,-100.602 213.582,-191.37 217.734,-221.366"/>
<polygon fill="#9a32cd" stroke="#9a32cd" points="75.1173,-68.0973 66.2258,-73.8586 76.7693,-74.8996 75.1173,-68.0973"/>
<text text-anchor="middle" x="149" y="-86" font-family="Helvetica,sans-Serif" font-size="10.00"> put</text>
</g>
<!-- Node15&#45;&gt;Node10 -->
<g id="edge22" class="edge"><title>Node15&#45;&gt;Node10</title>
<path fill="none" stroke="#9a32cd" stroke-dasharray="5,2" d="M74.8433,-63.5085C101.877,-47.9941 147.433,-28.5676 177,-52 204.143,-73.5114 215.448,-187.17 218.263,-221.301"/>
<polygon fill="#9a32cd" stroke="#9a32cd" points="72.8791,-60.6055 66.1105,-68.7564 76.4847,-66.6055 72.8791,-60.6055"/>
<text text-anchor="middle" x="149" y="-55" font-family="Helvetica,sans-Serif" font-size="10.00"> priv</text>
</g>
<!-- Node16 -->
<g id="node16" class="node"><title>Node16</title>
<polygon fill="white" stroke="#bfbfbf" points="26,-0.5 26,-19.5 77,-19.5 77,-0.5 26,-0.5"/>
<text text-anchor="middle" x="51.5" y="-7.5" font-family="Helvetica,sans-Serif" font-size="10.00">long int</text>
</g>
<!-- Node16&#45;&gt;Node10 -->
<g id="edge17" class="edge"><title>Node16&#45;&gt;Node10</title>
<path fill="none" stroke="#9a32cd" stroke-dasharray="5,2" d="M87.1411,-4.79209C114.991,-2.68627 153.26,-4.80719 177,-27 205.99,-54.101 216.144,-184.703 218.45,-221.394"/>
<polygon fill="#9a32cd" stroke="#9a32cd" points="86.6447,-1.32373 77.0294,-5.77309 87.3207,-8.29101 86.6447,-1.32373"/>
<text text-anchor="middle" x="149" y="-30" font-family="Helvetica,sans-Serif" font-size="10.00"> is_init</text>
</g>
<!-- Node17 -->
<g id="node17" class="node"><title>Node17</title>
<polygon fill="white" stroke="#bfbfbf" points="33,-540.5 33,-559.5 70,-559.5 70,-540.5 33,-540.5"/>
<text text-anchor="middle" x="51.5" y="-547.5" font-family="Helvetica,sans-Serif" font-size="10.00">long</text>
</g>
<!-- Node17&#45;&gt;Node10 -->
<g id="edge19" class="edge"><title>Node17&#45;&gt;Node10</title>
<path fill="none" stroke="#9a32cd" stroke-dasharray="5,2" d="M80.4188,-548.788C112.969,-546.76 163.983,-541.473 177,-528 217.888,-485.68 219.316,-286.612 219.089,-240.537"/>
<polygon fill="#9a32cd" stroke="#9a32cd" points="79.9599,-545.308 70.1696,-549.357 80.3485,-552.297 79.9599,-545.308"/>
<text text-anchor="middle" x="149" y="-547" font-family="Helvetica,sans-Serif" font-size="10.00"> fileptr</text>
</g>
<!-- Node18 -->
<g id="node18" class="node"><title>Node18</title>
<polygon fill="white" stroke="#bfbfbf" points="11.5,-316.5 11.5,-335.5 91.5,-335.5 91.5,-316.5 11.5,-316.5"/>
<text text-anchor="middle" x="51.5" y="-323.5" font-family="Helvetica,sans-Serif" font-size="10.00">const char **</text>
</g>
<!-- Node18&#45;&gt;Node10 -->
<g id="edge20" class="edge"><title>Node18&#45;&gt;Node10</title>
<path fill="none" stroke="#9a32cd" stroke-dasharray="5,2" d="M101.741,-319.577C126.093,-314.55 154.918,-305.659 177,-290 195.051,-277.2 208.134,-254.113 214.547,-240.934"/>
<polygon fill="#9a32cd" stroke="#9a32cd" points="100.781,-316.197 91.6104,-321.504 102.088,-323.074 100.781,-316.197"/>
<text text-anchor="middle" x="149" y="-318" font-family="Helvetica,sans-Serif" font-size="10.00"> comments</text>
</g>
<!-- Node19 -->
<g id="node19" class="node"><title>Node19</title>
<polygon fill="white" stroke="#bfbfbf" points="20,-278.5 20,-297.5 83,-297.5 83,-278.5 20,-278.5"/>
<text text-anchor="middle" x="51.5" y="-285.5" font-family="Helvetica,sans-Serif" font-size="10.00">rle_map *</text>
</g>
<!-- Node19&#45;&gt;Node10 -->
<g id="edge21" class="edge"><title>Node19&#45;&gt;Node10</title>
<path fill="none" stroke="#9a32cd" stroke-dasharray="5,2" d="M92.8577,-281.251C117.735,-276.293 149.943,-268.413 177,-257 187.272,-252.667 197.942,-246.03 205.957,-240.546"/>
<polygon fill="#9a32cd" stroke="#9a32cd" points="92.1874,-277.816 83.0251,-283.136 93.5052,-284.691 92.1874,-277.816"/>
<text text-anchor="middle" x="149" y="-278" font-family="Helvetica,sans-Serif" font-size="10.00"> cmap</text>
</g>
</g>
</svg>
        <g id="navigator" transform="translate(0 0)" fill="#404254">
                <rect fill="#f2f5e9" fill-opacity="0.5" stroke="#606060" stroke-width=".5" x="0" y="0" width="60" height="60"/>
                <use id="zoomplus" xlink:href="#zoomPlus" x="17" y="9" onmousedown="handleZoom(evt,'in')"/>
                <use id="zoomminus" xlink:href="#zoomMin" x="42" y="9" onmousedown="handleZoom(evt,'out')"/>
                <use id="reset" xlink:href="#resetDef" x="30" y="36" onmousedown="handleReset()"/>
                <g id="arrowUp" xlink:href="#dirArrow" transform="translate(30 24)" onmousedown="handlePan(0,-1)">
                  <use xlink:href="#rim" fill="#404040">
                        <set attributeName="fill" to="#808080" begin="arrowUp.mouseover" end="arrowUp.mouseout"/>
                  </use>
                  <path fill="none" stroke="white" stroke-width="1.5" d="M0,-3.0v7 M-2.5,-0.5L0,-3.0L2.5,-0.5"/>
                </g>
                <g id="arrowRight" xlink:href="#dirArrow" transform="rotate(90) translate(36 -43)" onmousedown="handlePan(1,0)">
                  <use xlink:href="#rim" fill="#404040">
                        <set attributeName="fill" to="#808080" begin="arrowRight.mouseover" end="arrowRight.mouseout"/>
                  </use>
                  <path fill="none" stroke="white" stroke-width="1.5" d="M0,-3.0v7 M-2.5,-0.5L0,-3.0L2.5,-0.5"/>
                </g>
                <g id="arrowDown" xlink:href="#dirArrow" transform="rotate(180) translate(-30 -48)" onmousedown="handlePan(0,1)">
                  <use xlink:href="#rim" fill="#404040">
                        <set attributeName="fill" to="#808080" begin="arrowDown.mouseover" end="arrowDown.mouseout"/>
                  </use>
                  <path fill="none" stroke="white" stroke-width="1.5" d="M0,-3.0v7 M-2.5,-0.5L0,-3.0L2.5,-0.5"/>
                </g>
                <g id="arrowLeft" xlink:href="#dirArrow" transform="rotate(270) translate(-36 17)" onmousedown="handlePan(-1,0)">
                  <use xlink:href="#rim" fill="#404040">
                        <set attributeName="fill" to="#808080" begin="arrowLeft.mouseover" end="arrowLeft.mouseout"/>
                  </use>
                  <path fill="none" stroke="white" stroke-width="1.5" d="M0,-3.0v7 M-2.5,-0.5L0,-3.0L2.5,-0.5"/>
                </g>
        </g>
        <svg viewBox="0 0 15 15" width="100%" height="30px" preserveAspectRatio="xMaxYMin meet">
         <g id="arrow_out" transform="scale(0.3 0.3)">
          <a xlink:href="interfaceRLE__coll__graph_org.svg" target="_base">
           <rect id="button" ry="5" rx="5" y="6" x="6" height="38" width="38"
                fill="#f2f5e9" fill-opacity="0.5" stroke="#606060" stroke-width="1.0"/>
           <path id="arrow"
             d="M 11.500037,31.436501 C 11.940474,20.09759 22.043105,11.32322 32.158766,21.979434 L 37.068811,17.246167 C 37.068811,17.246167 37.088388,32 37.088388,32 L 22.160133,31.978069 C 22.160133,31.978069 26.997745,27.140456 26.997745,27.140456 C 18.528582,18.264221 13.291696,25.230495 11.500037,31.436501 z"
             style="fill:#404040;"/>
          </a>
         </g>
        </svg>
</svg>
