<?xml version="1.0" encoding="UTF-8" standalone="no"?>
<!DOCTYPE svg PUBLIC "-//W3C//DTD SVG 1.1//EN"
 "http://www.w3.org/Graphics/SVG/1.1/DTD/svg11.dtd">
<!-- Generated by graphviz version 2.38.0 (20140413.2041)
 -->
<!-- Title: rle_addhist Pages: 1 -->
<svg width="265pt" height="104pt"
 viewBox="0.00 0.00 265.00 104.00" xmlns="http://www.w3.org/2000/svg" xmlns:xlink="http://www.w3.org/1999/xlink">
<g id="graph0" class="graph" transform="scale(1 1) rotate(0) translate(4 100)">
<title>rle_addhist</title>
<polygon fill="white" stroke="none" points="-4,4 -4,-100 261,-100 261,4 -4,4"/>
<!-- Node1 -->
<g id="node1" class="node"><title>Node1</title>
<polygon fill="#bfbfbf" stroke="black" points="0,-38.5 0,-57.5 69,-57.5 69,-38.5 0,-38.5"/>
<text text-anchor="middle" x="34.5" y="-45.5" font-family="Helvetica,sans-Serif" font-size="10.00">rle_addhist</text>
</g>
<!-- Node2 -->
<g id="node2" class="node"><title>Node2</title>
<g id="a_node2"><a xlink:href="../../db/db2/rle__getcom_8c.html#a9cefd612c381bf82c9cdf1f3a3b12dd6" target="_top" xlink:title="rle_getcom">
<polygon fill="white" stroke="black" points="105,-76.5 105,-95.5 174,-95.5 174,-76.5 105,-76.5"/>
<text text-anchor="middle" x="139.5" y="-83.5" font-family="Helvetica,sans-Serif" font-size="10.00">rle_getcom</text>
</a>
</g>
</g>
<!-- Node1&#45;&gt;Node2 -->
<g id="edge1" class="edge"><title>Node1&#45;&gt;Node2</title>
<path fill="none" stroke="midnightblue" d="M61.4912,-57.589C74.0557,-62.2244 89.3301,-67.8596 102.952,-72.8853"/>
<polygon fill="midnightblue" stroke="midnightblue" points="101.924,-76.2364 112.517,-76.4141 104.347,-69.6691 101.924,-76.2364"/>
</g>
<!-- Node4 -->
<g id="node4" class="node"><title>Node4</title>
<g id="a_node4"><a xlink:href="../../d0/dcc/rletorla_8c.html#ab7e36af3707843f77cc5b4e831c2fa6d" target="_top" xlink:title="malloc">
<polygon fill="white" stroke="black" points="210,-38.5 210,-57.5 257,-57.5 257,-38.5 210,-38.5"/>
<text text-anchor="middle" x="233.5" y="-45.5" font-family="Helvetica,sans-Serif" font-size="10.00">malloc</text>
</a>
</g>
</g>
<!-- Node1&#45;&gt;Node4 -->
<g id="edge3" class="edge"><title>Node1&#45;&gt;Node4</title>
<path fill="none" stroke="midnightblue" d="M69.3655,-48C105.912,-48 163.711,-48 199.799,-48"/>
<polygon fill="midnightblue" stroke="midnightblue" points="199.809,-51.5001 209.809,-48 199.809,-44.5001 199.809,-51.5001"/>
</g>
<!-- Node5 -->
<g id="node5" class="node"><title>Node5</title>
<g id="a_node5"><a xlink:href="../../df/da5/rle__putcom_8c.html#a6fa8528c32d14763efe2a534e409e321" target="_top" xlink:title="rle_putcom">
<polygon fill="white" stroke="black" points="105.5,-0.5 105.5,-19.5 173.5,-19.5 173.5,-0.5 105.5,-0.5"/>
<text text-anchor="middle" x="139.5" y="-7.5" font-family="Helvetica,sans-Serif" font-size="10.00">rle_putcom</text>
</a>
</g>
</g>
<!-- Node1&#45;&gt;Node5 -->
<g id="edge4" class="edge"><title>Node1&#45;&gt;Node5</title>
<path fill="none" stroke="midnightblue" d="M61.4912,-38.411C74.0557,-33.7756 89.3301,-28.1404 102.952,-23.1147"/>
<polygon fill="midnightblue" stroke="midnightblue" points="104.347,-26.3309 112.517,-19.5859 101.924,-19.7636 104.347,-26.3309"/>
</g>
<!-- Node3 -->
<g id="node3" class="node"><title>Node3</title>
<g id="a_node3"><a xlink:href="../../db/db2/rle__getcom_8c.html#a7502c8b599724ce86fee5df1311a2337" target="_top" xlink:title="match">
<polygon fill="white" stroke="black" points="211,-76.5 211,-95.5 256,-95.5 256,-76.5 211,-76.5"/>
<text text-anchor="middle" x="233.5" y="-83.5" font-family="Helvetica,sans-Serif" font-size="10.00">match</text>
</a>
</g>
</g>
<!-- Node2&#45;&gt;Node3 -->
<g id="edge2" class="edge"><title>Node2&#45;&gt;Node3</title>
<path fill="none" stroke="midnightblue" d="M174.235,-86C182.817,-86 192.013,-86 200.505,-86"/>
<polygon fill="midnightblue" stroke="midnightblue" points="200.787,-89.5001 210.786,-86 200.786,-82.5001 200.787,-89.5001"/>
</g>
<!-- Node5&#45;&gt;Node4 -->
<g id="edge5" class="edge"><title>Node5&#45;&gt;Node4</title>
<path fill="none" stroke="midnightblue" d="M163.715,-19.589C174.888,-24.2038 188.46,-29.8096 200.586,-34.8182"/>
<polygon fill="midnightblue" stroke="midnightblue" points="199.349,-38.094 209.928,-38.6768 202.022,-31.6242 199.349,-38.094"/>
</g>
<!-- Node6 -->
<g id="node6" class="node"><title>Node6</title>
<g id="a_node6"><a xlink:href="../../df/da5/rle__putcom_8c.html#a7502c8b599724ce86fee5df1311a2337" target="_top" xlink:title="match">
<polygon fill="white" stroke="black" points="211,-0.5 211,-19.5 256,-19.5 256,-0.5 211,-0.5"/>
<text text-anchor="middle" x="233.5" y="-7.5" font-family="Helvetica,sans-Serif" font-size="10.00">match</text>
</a>
</g>
</g>
<!-- Node5&#45;&gt;Node6 -->
<g id="edge6" class="edge"><title>Node5&#45;&gt;Node6</title>
<path fill="none" stroke="midnightblue" d="M173.714,-10C182.496,-10 191.953,-10 200.661,-10"/>
<polygon fill="midnightblue" stroke="midnightblue" points="200.814,-13.5001 210.814,-10 200.814,-6.5001 200.814,-13.5001"/>
</g>
</g>
</svg>
