<?xml version="1.0" encoding="UTF-8" standalone="no"?>
<!DOCTYPE svg PUBLIC "-//W3C//DTD SVG 1.1//EN"
 "http://www.w3.org/Graphics/SVG/1.1/DTD/svg11.dtd">
<!-- Generated by graphviz version 2.38.0 (20140413.2041)
 -->
<!-- Title: getap.c Pages: 1 -->
<svg width="643pt" height="84pt"
 viewBox="0.00 0.00 642.50 84.00" xmlns="http://www.w3.org/2000/svg" xmlns:xlink="http://www.w3.org/1999/xlink">
<g id="graph0" class="graph" transform="scale(1 1) rotate(0) translate(4 80)">
<title>getap.c</title>
<polygon fill="white" stroke="none" points="-4,4 -4,-80 638.5,-80 638.5,4 -4,4"/>
<!-- Node1 -->
<g id="node1" class="node"><title>Node1</title>
<polygon fill="#bfbfbf" stroke="black" points="212,-56.5 212,-75.5 263,-75.5 263,-56.5 212,-56.5"/>
<text text-anchor="middle" x="237.5" y="-63.5" font-family="Helvetica,sans-Serif" font-size="10.00">getap.c</text>
</g>
<!-- Node2 -->
<g id="node2" class="node"><title>Node2</title>
<polygon fill="white" stroke="#bfbfbf" points="0,-0.5 0,-19.5 47,-19.5 47,-0.5 0,-0.5"/>
<text text-anchor="middle" x="23.5" y="-7.5" font-family="Helvetica,sans-Serif" font-size="10.00">stdio.h</text>
</g>
<!-- Node1&#45;&gt;Node2 -->
<g id="edge1" class="edge"><title>Node1&#45;&gt;Node2</title>
<path fill="none" stroke="midnightblue" d="M211.975,-58.8464C178.668,-50.7749 118.336,-36.0128 57.1066,-20.1138"/>
<polygon fill="midnightblue" stroke="midnightblue" points="57.8353,-16.6869 47.2759,-17.5532 56.0708,-23.4608 57.8353,-16.6869"/>
</g>
<!-- Node3 -->
<g id="node3" class="node"><title>Node3</title>
<polygon fill="white" stroke="#bfbfbf" points="65.5,-0.5 65.5,-19.5 113.5,-19.5 113.5,-0.5 65.5,-0.5"/>
<text text-anchor="middle" x="89.5" y="-7.5" font-family="Helvetica,sans-Serif" font-size="10.00">math.h</text>
</g>
<!-- Node1&#45;&gt;Node3 -->
<g id="edge2" class="edge"><title>Node1&#45;&gt;Node3</title>
<path fill="none" stroke="midnightblue" d="M214.049,-56.4435C189.367,-47.4381 150.315,-33.1891 122.523,-23.049"/>
<polygon fill="midnightblue" stroke="midnightblue" points="123.435,-19.6561 112.841,-19.5164 121.036,-26.2321 123.435,-19.6561"/>
</g>
<!-- Node4 -->
<g id="node4" class="node"><title>Node4</title>
<polygon fill="white" stroke="#bfbfbf" points="132,-0.5 132,-19.5 169,-19.5 169,-0.5 132,-0.5"/>
<text text-anchor="middle" x="150.5" y="-7.5" font-family="Helvetica,sans-Serif" font-size="10.00">rle.h</text>
</g>
<!-- Node1&#45;&gt;Node4 -->
<g id="edge3" class="edge"><title>Node1&#45;&gt;Node4</title>
<path fill="none" stroke="midnightblue" d="M223.522,-56.324C209.95,-47.9002 189.12,-34.9709 173.175,-25.0741"/>
<polygon fill="midnightblue" stroke="midnightblue" points="174.786,-21.9544 164.443,-19.6545 171.094,-27.9019 174.786,-21.9544"/>
</g>
<!-- Node5 -->
<g id="node5" class="node"><title>Node5</title>
<polygon fill="white" stroke="#bfbfbf" points="187,-0.5 187,-19.5 288,-19.5 288,-0.5 187,-0.5"/>
<text text-anchor="middle" x="237.5" y="-7.5" font-family="Helvetica,sans-Serif" font-size="10.00">/sys/ins/base.ins.c</text>
</g>
<!-- Node1&#45;&gt;Node5 -->
<g id="edge4" class="edge"><title>Node1&#45;&gt;Node5</title>
<path fill="none" stroke="midnightblue" d="M237.5,-56.083C237.5,-49.0059 237.5,-38.8611 237.5,-29.9865"/>
<polygon fill="midnightblue" stroke="midnightblue" points="241,-29.751 237.5,-19.7511 234,-29.7511 241,-29.751"/>
</g>
<!-- Node6 -->
<g id="node6" class="node"><title>Node6</title>
<polygon fill="white" stroke="#bfbfbf" points="306.5,-0.5 306.5,-19.5 400.5,-19.5 400.5,-0.5 306.5,-0.5"/>
<text text-anchor="middle" x="353.5" y="-7.5" font-family="Helvetica,sans-Serif" font-size="10.00">/sys/ins/gpr.ins.c</text>
</g>
<!-- Node1&#45;&gt;Node6 -->
<g id="edge5" class="edge"><title>Node1&#45;&gt;Node6</title>
<path fill="none" stroke="midnightblue" d="M255.881,-56.4435C274.716,-47.6751 304.231,-33.9355 325.879,-23.8579"/>
<polygon fill="midnightblue" stroke="midnightblue" points="327.617,-26.9098 335.205,-19.5164 324.662,-20.5637 327.617,-26.9098"/>
</g>
<!-- Node7 -->
<g id="node7" class="node"><title>Node7</title>
<polygon fill="white" stroke="#bfbfbf" points="419,-0.5 419,-19.5 520,-19.5 520,-0.5 419,-0.5"/>
<text text-anchor="middle" x="469.5" y="-7.5" font-family="Helvetica,sans-Serif" font-size="10.00">/sys/ins/error.ins.c</text>
</g>
<!-- Node1&#45;&gt;Node7 -->
<g id="edge6" class="edge"><title>Node1&#45;&gt;Node7</title>
<path fill="none" stroke="midnightblue" d="M263.214,-59.0147C301.654,-50.0676 374.71,-33.0632 422.757,-21.8798"/>
<polygon fill="midnightblue" stroke="midnightblue" points="423.663,-25.2627 432.609,-19.5868 422.076,-18.4449 423.663,-25.2627"/>
</g>
<!-- Node8 -->
<g id="node8" class="node"><title>Node8</title>
<polygon fill="white" stroke="#bfbfbf" points="538.5,-0.5 538.5,-19.5 634.5,-19.5 634.5,-0.5 538.5,-0.5"/>
<text text-anchor="middle" x="586.5" y="-7.5" font-family="Helvetica,sans-Serif" font-size="10.00">/sys/ins/pad.ins.c</text>
</g>
<!-- Node1&#45;&gt;Node8 -->
<g id="edge7" class="edge"><title>Node1&#45;&gt;Node8</title>
<path fill="none" stroke="midnightblue" d="M263.285,-61.059C312.596,-53.5152 423.933,-36.4489 528.231,-20.1936"/>
<polygon fill="midnightblue" stroke="midnightblue" points="528.959,-23.6225 538.3,-18.6234 527.88,-16.7061 528.959,-23.6225"/>
</g>
</g>
</svg>
