<?xml version="1.0" encoding="UTF-8" standalone="no"?>
<!DOCTYPE svg PUBLIC "-//W3C//DTD SVG 1.1//EN"
 "http://www.w3.org/Graphics/SVG/1.1/DTD/svg11.dtd">
<!-- Generated by graphviz version 2.38.0 (20140413.2041)
 -->
<!-- Title: main Pages: 1 -->
<svg width="391pt" height="104pt"
 viewBox="0.00 0.00 391.00 104.00" xmlns="http://www.w3.org/2000/svg" xmlns:xlink="http://www.w3.org/1999/xlink">
<g id="graph0" class="graph" transform="scale(1 1) rotate(0) translate(4 100)">
<title>main</title>
<polygon fill="white" stroke="none" points="-4,4 -4,-100 387,-100 387,4 -4,4"/>
<!-- Node1 -->
<g id="node1" class="node"><title>Node1</title>
<polygon fill="#bfbfbf" stroke="black" points="0,-38.5 0,-57.5 39,-57.5 39,-38.5 0,-38.5"/>
<text text-anchor="middle" x="19.5" y="-45.5" font-family="Helvetica,sans-Serif" font-size="10.00">main</text>
</g>
<!-- Node2 -->
<g id="node2" class="node"><title>Node2</title>
<g id="a_node2"><a xlink:href="../../d4/db0/scanargs_8c.html#a7ea6d702c0484056c8504d6ce7fede08" target="_top" xlink:title="scanargs">
<polygon fill="white" stroke="black" points="79,-76.5 79,-95.5 139,-95.5 139,-76.5 79,-76.5"/>
<text text-anchor="middle" x="109" y="-83.5" font-family="Helvetica,sans-Serif" font-size="10.00">scanargs</text>
</a>
</g>
</g>
<!-- Node1&#45;&gt;Node2 -->
<g id="edge1" class="edge"><title>Node1&#45;&gt;Node2</title>
<path fill="none" stroke="midnightblue" d="M39.0565,-56.0588C50.0099,-60.8157 64.1592,-66.9606 76.7867,-72.4445"/>
<polygon fill="midnightblue" stroke="midnightblue" points="75.5017,-75.7022 86.0683,-76.4754 78.2901,-69.2815 75.5017,-75.7022"/>
</g>
<!-- Node4 -->
<g id="node4" class="node"><title>Node4</title>
<g id="a_node4"><a xlink:href="../../de/d4e/rle__open__f_8c.html#a89733a45961817885603ae01210290b7" target="_top" xlink:title="rle_open_f">
<polygon fill="white" stroke="black" points="75,-38.5 75,-57.5 143,-57.5 143,-38.5 75,-38.5"/>
<text text-anchor="middle" x="109" y="-45.5" font-family="Helvetica,sans-Serif" font-size="10.00">rle_open_f</text>
</a>
</g>
</g>
<!-- Node1&#45;&gt;Node4 -->
<g id="edge3" class="edge"><title>Node1&#45;&gt;Node4</title>
<path fill="none" stroke="midnightblue" d="M39.0565,-48C46.6378,-48 55.7502,-48 64.8293,-48"/>
<polygon fill="midnightblue" stroke="midnightblue" points="64.9824,-51.5001 74.9824,-48 64.9823,-44.5001 64.9824,-51.5001"/>
</g>
<!-- Node9 -->
<g id="node9" class="node"><title>Node9</title>
<g id="a_node9"><a xlink:href="../../dd/dce/getsun_8c.html#af10e743b4136d1d71355ac6f1a48012a" target="_top" xlink:title="get_pic">
<polygon fill="white" stroke="black" points="83.5,-0.5 83.5,-19.5 134.5,-19.5 134.5,-0.5 83.5,-0.5"/>
<text text-anchor="middle" x="109" y="-7.5" font-family="Helvetica,sans-Serif" font-size="10.00">get_pic</text>
</a>
</g>
</g>
<!-- Node1&#45;&gt;Node9 -->
<g id="edge8" class="edge"><title>Node1&#45;&gt;Node9</title>
<path fill="none" stroke="midnightblue" d="M39.0565,-39.9412C50.0099,-35.1843 64.1592,-29.0394 76.7867,-23.5555"/>
<polygon fill="midnightblue" stroke="midnightblue" points="78.2901,-26.7185 86.0683,-19.5246 75.5017,-20.2978 78.2901,-26.7185"/>
</g>
<!-- Node3 -->
<g id="node3" class="node"><title>Node3</title>
<g id="a_node3"><a xlink:href="../../d4/db0/scanargs_8c.html#a862219039664df6eb3cfced58addf830" target="_top" xlink:title="_do_scanargs">
<polygon fill="white" stroke="black" points="188,-76.5 188,-95.5 272,-95.5 272,-76.5 188,-76.5"/>
<text text-anchor="middle" x="230" y="-83.5" font-family="Helvetica,sans-Serif" font-size="10.00">_do_scanargs</text>
</a>
</g>
</g>
<!-- Node2&#45;&gt;Node3 -->
<g id="edge2" class="edge"><title>Node2&#45;&gt;Node3</title>
<path fill="none" stroke="midnightblue" d="M139.111,-86C150.621,-86 164.205,-86 177.28,-86"/>
<polygon fill="midnightblue" stroke="midnightblue" points="177.607,-89.5001 187.607,-86 177.607,-82.5001 177.607,-89.5001"/>
</g>
<!-- Node5 -->
<g id="node5" class="node"><title>Node5</title>
<g id="a_node5"><a xlink:href="../../de/d4e/rle__open__f_8c.html#a5a0e62a00f907fce26e93b2f72adb2b0" target="_top" xlink:title="rle_open_f_noexit">
<polygon fill="white" stroke="black" points="179,-38.5 179,-57.5 281,-57.5 281,-38.5 179,-38.5"/>
<text text-anchor="middle" x="230" y="-45.5" font-family="Helvetica,sans-Serif" font-size="10.00">rle_open_f_noexit</text>
</a>
</g>
</g>
<!-- Node4&#45;&gt;Node5 -->
<g id="edge4" class="edge"><title>Node4&#45;&gt;Node5</title>
<path fill="none" stroke="midnightblue" d="M143.148,-48C151.057,-48 159.744,-48 168.461,-48"/>
<polygon fill="midnightblue" stroke="midnightblue" points="168.663,-51.5001 178.663,-48 168.663,-44.5001 168.663,-51.5001"/>
</g>
<!-- Node6 -->
<g id="node6" class="node"><title>Node6</title>
<g id="a_node6"><a xlink:href="../../de/d4e/rle__open__f_8c.html#a84fda810ae9b9bde82a6391d0b264ead" target="_top" xlink:title="my_popen">
<polygon fill="white" stroke="black" points="317,-76.5 317,-95.5 383,-95.5 383,-76.5 317,-76.5"/>
<text text-anchor="middle" x="350" y="-83.5" font-family="Helvetica,sans-Serif" font-size="10.00">my_popen</text>
</a>
</g>
</g>
<!-- Node5&#45;&gt;Node6 -->
<g id="edge5" class="edge"><title>Node5&#45;&gt;Node6</title>
<path fill="none" stroke="midnightblue" d="M260.776,-57.589C275.59,-62.3594 293.691,-68.1888 309.634,-73.3229"/>
<polygon fill="midnightblue" stroke="midnightblue" points="308.642,-76.6802 319.233,-76.4141 310.787,-70.0172 308.642,-76.6802"/>
</g>
<!-- Node7 -->
<g id="node7" class="node"><title>Node7</title>
<g id="a_node7"><a xlink:href="../../d0/dcc/rletorla_8c.html#ab7e36af3707843f77cc5b4e831c2fa6d" target="_top" xlink:title="malloc">
<polygon fill="white" stroke="black" points="326.5,-38.5 326.5,-57.5 373.5,-57.5 373.5,-38.5 326.5,-38.5"/>
<text text-anchor="middle" x="350" y="-45.5" font-family="Helvetica,sans-Serif" font-size="10.00">malloc</text>
</a>
</g>
</g>
<!-- Node5&#45;&gt;Node7 -->
<g id="edge6" class="edge"><title>Node5&#45;&gt;Node7</title>
<path fill="none" stroke="midnightblue" d="M281.043,-48C292.915,-48 305.282,-48 316.161,-48"/>
<polygon fill="midnightblue" stroke="midnightblue" points="316.471,-51.5001 326.471,-48 316.471,-44.5001 316.471,-51.5001"/>
</g>
<!-- Node8 -->
<g id="node8" class="node"><title>Node8</title>
<g id="a_node8"><a xlink:href="../../d0/dcc/rletorla_8c.html#aafde19f7d36ca163a143579c1b125b6d" target="_top" xlink:title="free">
<polygon fill="white" stroke="black" points="332.5,-0.5 332.5,-19.5 367.5,-19.5 367.5,-0.5 332.5,-0.5"/>
<text text-anchor="middle" x="350" y="-7.5" font-family="Helvetica,sans-Serif" font-size="10.00">free</text>
</a>
</g>
</g>
<!-- Node5&#45;&gt;Node8 -->
<g id="edge7" class="edge"><title>Node5&#45;&gt;Node8</title>
<path fill="none" stroke="midnightblue" d="M260.776,-38.411C279.813,-32.2805 304.281,-24.4012 322.618,-18.496"/>
<polygon fill="midnightblue" stroke="midnightblue" points="323.914,-21.7557 332.359,-15.3589 321.768,-15.0927 323.914,-21.7557"/>
</g>
</g>
</svg>
