<?xml version="1.0" encoding="UTF-8" standalone="no"?>
<!DOCTYPE svg PUBLIC "-//W3C//DTD SVG 1.1//EN"
 "http://www.w3.org/Graphics/SVG/1.1/DTD/svg11.dtd">
<!-- Generated by graphviz version 2.38.0 (20140413.2041)
 -->
<!-- Title: include/colorquant.h Pages: 1 -->
<svg width="200pt" height="84pt"
 viewBox="0.00 0.00 200.00 84.00" xmlns="http://www.w3.org/2000/svg" xmlns:xlink="http://www.w3.org/1999/xlink">
<g id="graph0" class="graph" transform="scale(1 1) rotate(0) translate(4 80)">
<title>include/colorquant.h</title>
<polygon fill="white" stroke="none" points="-4,4 -4,-80 196,-80 196,4 -4,4"/>
<!-- Node1 -->
<g id="node1" class="node"><title>Node1</title>
<polygon fill="#bfbfbf" stroke="black" points="40,-56.5 40,-75.5 150,-75.5 150,-56.5 40,-56.5"/>
<text text-anchor="middle" x="95" y="-63.5" font-family="Helvetica,sans-Serif" font-size="10.00">include/colorquant.h</text>
</g>
<!-- Node2 -->
<g id="node2" class="node"><title>Node2</title>
<g id="a_node2"><a xlink:href="../../de/dbf/colorquant_8c.html" target="_top" xlink:title="lib/colorquant.c">
<polygon fill="white" stroke="black" points="0,-0.5 0,-19.5 86,-19.5 86,-0.5 0,-0.5"/>
<text text-anchor="middle" x="43" y="-7.5" font-family="Helvetica,sans-Serif" font-size="10.00">lib/colorquant.c</text>
</a>
</g>
</g>
<!-- Node1&#45;&gt;Node2 -->
<g id="edge1" class="edge"><title>Node1&#45;&gt;Node2</title>
<path fill="none" stroke="midnightblue" d="M79.3206,-48.7175C70.1553,-39.1997 58.9474,-27.5608 51.427,-19.7511"/>
<polygon fill="midnightblue" stroke="midnightblue" points="76.9557,-51.3075 86.4133,-56.083 81.9979,-46.452 76.9557,-51.3075"/>
</g>
<!-- Node3 -->
<g id="node3" class="node"><title>Node3</title>
<g id="a_node3"><a xlink:href="../../dc/d5c/rlequant_8c.html" target="_top" xlink:title="tools/rlequant.c">
<polygon fill="white" stroke="black" points="104,-0.5 104,-19.5 192,-19.5 192,-0.5 104,-0.5"/>
<text text-anchor="middle" x="148" y="-7.5" font-family="Helvetica,sans-Serif" font-size="10.00">tools/rlequant.c</text>
</a>
</g>
</g>
<!-- Node1&#45;&gt;Node3 -->
<g id="edge2" class="edge"><title>Node1&#45;&gt;Node3</title>
<path fill="none" stroke="midnightblue" d="M110.981,-48.7175C120.322,-39.1997 131.746,-27.5608 139.411,-19.7511"/>
<polygon fill="midnightblue" stroke="midnightblue" points="108.259,-46.4945 103.752,-56.083 113.254,-51.3978 108.259,-46.4945"/>
</g>
</g>
</svg>
