<?xml version="1.0" encoding="UTF-8" standalone="no"?>
<!DOCTYPE svg PUBLIC "-//W3C//DTD SVG 1.1//EN"
 "http://www.w3.org/Graphics/SVG/1.1/DTD/svg11.dtd">
<!-- Generated by graphviz version 2.38.0 (20140413.2041)
 -->
<!-- Title: read_file Pages: 1 -->
<svg width="200pt" height="66pt"
 viewBox="0.00 0.00 200.00 66.00" xmlns="http://www.w3.org/2000/svg" xmlns:xlink="http://www.w3.org/1999/xlink">
<g id="graph0" class="graph" transform="scale(1 1) rotate(0) translate(4 62)">
<title>read_file</title>
<polygon fill="white" stroke="none" points="-4,4 -4,-62 196,-62 196,4 -4,4"/>
<!-- Node1 -->
<g id="node1" class="node"><title>Node1</title>
<polygon fill="#bfbfbf" stroke="black" points="0,-19.5 0,-38.5 58,-38.5 58,-19.5 0,-19.5"/>
<text text-anchor="middle" x="29" y="-26.5" font-family="Helvetica,sans-Serif" font-size="10.00">read_file</text>
</g>
<!-- Node2 -->
<g id="node2" class="node"><title>Node2</title>
<g id="a_node2"><a xlink:href="../../db/d53/rle__getrow_8c.html#a4e99978eade83633c8823001debae1a6" target="_top" xlink:title="rle_get_setup_ok">
<polygon fill="white" stroke="black" points="94,-38.5 94,-57.5 192,-57.5 192,-38.5 94,-38.5"/>
<text text-anchor="middle" x="143" y="-45.5" font-family="Helvetica,sans-Serif" font-size="10.00">rle_get_setup_ok</text>
</a>
</g>
</g>
<!-- Node1&#45;&gt;Node2 -->
<g id="edge1" class="edge"><title>Node1&#45;&gt;Node2</title>
<path fill="none" stroke="midnightblue" d="M58.2623,-33.7945C66.0782,-35.1204 74.8584,-36.6099 83.715,-38.1124"/>
<polygon fill="midnightblue" stroke="midnightblue" points="83.2549,-41.5842 93.6994,-39.8062 84.4257,-34.6828 83.2549,-41.5842"/>
</g>
<!-- Node3 -->
<g id="node3" class="node"><title>Node3</title>
<g id="a_node3"><a xlink:href="../../d2/df3/rle__hdr_8c.html#a8ba0e5b11d1e39ab7227f1686e676c86" target="_top" xlink:title="rle_hdr_init">
<polygon fill="white" stroke="black" points="108,-0.5 108,-19.5 178,-19.5 178,-0.5 108,-0.5"/>
<text text-anchor="middle" x="143" y="-7.5" font-family="Helvetica,sans-Serif" font-size="10.00">rle_hdr_init</text>
</a>
</g>
</g>
<!-- Node1&#45;&gt;Node3 -->
<g id="edge2" class="edge"><title>Node1&#45;&gt;Node3</title>
<path fill="none" stroke="midnightblue" d="M58.2623,-24.2055C70.2428,-22.1731 84.4892,-19.7563 97.8031,-17.4977"/>
<polygon fill="midnightblue" stroke="midnightblue" points="98.4759,-20.9336 107.75,-15.8103 97.3051,-14.0323 98.4759,-20.9336"/>
</g>
</g>
</svg>
