<?xml version="1.0" encoding="UTF-8" standalone="no"?>
<!DOCTYPE svg PUBLIC "-//W3C//DTD SVG 1.1//EN"
 "http://www.w3.org/Graphics/SVG/1.1/DTD/svg11.dtd">
<!-- Generated by graphviz version 2.38.0 (20140413.2041)
 -->
<!-- Title: init_panel Pages: 1 -->
<svg width="771pt" height="226pt"
 viewBox="0.00 0.00 771.00 225.76" xmlns="http://www.w3.org/2000/svg" xmlns:xlink="http://www.w3.org/1999/xlink">
<g id="graph0" class="graph" transform="scale(1 1) rotate(0) translate(4 221.757)">
<title>init_panel</title>
<polygon fill="white" stroke="none" points="-4,4 -4,-221.757 767,-221.757 767,4 -4,4"/>
<!-- Node1 -->
<g id="node1" class="node"><title>Node1</title>
<polygon fill="#bfbfbf" stroke="black" points="0,-85.5 0,-104.5 62,-104.5 62,-85.5 0,-85.5"/>
<text text-anchor="middle" x="31" y="-92.5" font-family="Helvetica,sans-Serif" font-size="10.00">init_panel</text>
</g>
<!-- Node2 -->
<g id="node2" class="node"><title>Node2</title>
<g id="a_node2"><a xlink:href="../../d6/d28/gettaac_8c.html#a706ac2958c938a2cba705bcbf46b0be6" target="_top" xlink:title="doexit">
<polygon fill="white" stroke="black" points="125.5,-142.5 125.5,-161.5 170.5,-161.5 170.5,-142.5 125.5,-142.5"/>
<text text-anchor="middle" x="148" y="-149.5" font-family="Helvetica,sans-Serif" font-size="10.00">doexit</text>
</a>
</g>
</g>
<!-- Node1&#45;&gt;Node2 -->
<g id="edge1" class="edge"><title>Node1&#45;&gt;Node2</title>
<path fill="none" stroke="midnightblue" d="M47.1115,-104.586C60.2632,-112.712 79.9893,-124.385 98,-133 103.589,-135.673 109.661,-138.266 115.566,-140.631"/>
<polygon fill="midnightblue" stroke="midnightblue" points="114.643,-144.027 125.232,-144.373 117.17,-137.499 114.643,-144.027"/>
</g>
<!-- Node3 -->
<g id="node3" class="node"><title>Node3</title>
<g id="a_node3"><a xlink:href="../../d6/d28/gettaac_8c.html#ac6597f5cb5e1205e800704d584f65e68" target="_top" xlink:title="read_file">
<polygon fill="white" stroke="black" points="119,-104.5 119,-123.5 177,-123.5 177,-104.5 119,-104.5"/>
<text text-anchor="middle" x="148" y="-111.5" font-family="Helvetica,sans-Serif" font-size="10.00">read_file</text>
</a>
</g>
</g>
<!-- Node1&#45;&gt;Node3 -->
<g id="edge2" class="edge"><title>Node1&#45;&gt;Node3</title>
<path fill="none" stroke="midnightblue" d="M62.2149,-99.992C76.4894,-102.35 93.6845,-105.191 108.848,-107.697"/>
<polygon fill="midnightblue" stroke="midnightblue" points="108.523,-111.19 118.96,-109.367 109.664,-104.284 108.523,-111.19"/>
</g>
<!-- Node17 -->
<g id="node17" class="node"><title>Node17</title>
<g id="a_node17"><a xlink:href="../../d6/d28/gettaac_8c.html#a642239320a6a16e46434e6d1e5b53db5" target="_top" xlink:title="format_select">
<polygon fill="white" stroke="black" points="108,-66.5 108,-85.5 188,-85.5 188,-66.5 108,-66.5"/>
<text text-anchor="middle" x="148" y="-73.5" font-family="Helvetica,sans-Serif" font-size="10.00">format_select</text>
</a>
</g>
</g>
<!-- Node1&#45;&gt;Node17 -->
<g id="edge26" class="edge"><title>Node1&#45;&gt;Node17</title>
<path fill="none" stroke="midnightblue" d="M62.2149,-90.008C73.1329,-88.2041 85.7595,-86.118 97.8786,-84.1157"/>
<polygon fill="midnightblue" stroke="midnightblue" points="98.595,-87.5449 107.891,-82.4615 97.4539,-80.6385 98.595,-87.5449"/>
</g>
<!-- Node18 -->
<g id="node18" class="node"><title>Node18</title>
<g id="a_node18"><a xlink:href="../../d6/d28/gettaac_8c.html#ab742c7d77fc9bcfb81e91b2b7cc18f8c" target="_top" xlink:title="make_new_name">
<polygon fill="white" stroke="black" points="98,-28.5 98,-47.5 198,-47.5 198,-28.5 98,-28.5"/>
<text text-anchor="middle" x="148" y="-35.5" font-family="Helvetica,sans-Serif" font-size="10.00">make_new_name</text>
</a>
</g>
</g>
<!-- Node1&#45;&gt;Node18 -->
<g id="edge27" class="edge"><title>Node1&#45;&gt;Node18</title>
<path fill="none" stroke="midnightblue" d="M47.1115,-85.4138C60.2632,-77.2877 79.9893,-65.6149 98,-57 102.092,-55.0426 106.443,-53.1288 110.798,-51.3155"/>
<polygon fill="midnightblue" stroke="midnightblue" points="112.261,-54.5 120.239,-47.5287 109.655,-48.0032 112.261,-54.5"/>
</g>
<!-- Node4 -->
<g id="node4" class="node"><title>Node4</title>
<g id="a_node4"><a xlink:href="../../d2/df3/rle__hdr_8c.html#a8ba0e5b11d1e39ab7227f1686e676c86" target="_top" xlink:title="rle_hdr_init">
<polygon fill="white" stroke="black" points="372.5,-161.5 372.5,-180.5 442.5,-180.5 442.5,-161.5 372.5,-161.5"/>
<text text-anchor="middle" x="407.5" y="-168.5" font-family="Helvetica,sans-Serif" font-size="10.00">rle_hdr_init</text>
</a>
</g>
</g>
<!-- Node3&#45;&gt;Node4 -->
<g id="edge3" class="edge"><title>Node3&#45;&gt;Node4</title>
<path fill="none" stroke="midnightblue" d="M175.172,-123.505C182.621,-126.383 190.694,-129.669 198,-133 214.462,-140.505 216.704,-146.694 234,-152 276.339,-164.989 326.928,-169.326 362.335,-170.664"/>
<polygon fill="midnightblue" stroke="midnightblue" points="362.249,-174.163 372.353,-170.978 362.468,-167.166 362.249,-174.163"/>
</g>
<!-- Node9 -->
<g id="node9" class="node"><title>Node9</title>
<g id="a_node9"><a xlink:href="../../d2/df3/rle__hdr_8c.html#a82e79385f2d45cc3b80ce0f4f369eae5" target="_top" xlink:title="rle_names">
<polygon fill="white" stroke="black" points="607,-152.5 607,-171.5 673,-171.5 673,-152.5 607,-152.5"/>
<text text-anchor="middle" x="640" y="-159.5" font-family="Helvetica,sans-Serif" font-size="10.00">rle_names</text>
</a>
</g>
</g>
<!-- Node3&#45;&gt;Node9 -->
<g id="edge12" class="edge"><title>Node3&#45;&gt;Node9</title>
<path fill="none" stroke="midnightblue" d="M177.128,-122.259C184.283,-125.054 191.718,-128.609 198,-133 217.875,-146.893 212.542,-162.704 234,-174 363.936,-242.398 419.498,-216.094 564,-190 579.629,-187.178 596.248,-181.297 609.859,-175.649"/>
<polygon fill="midnightblue" stroke="midnightblue" points="611.388,-178.802 619.182,-171.626 608.614,-172.375 611.388,-178.802"/>
</g>
<!-- Node10 -->
<g id="node10" class="node"><title>Node10</title>
<g id="a_node10"><a xlink:href="../../d6/d28/gettaac_8c.html#a678cb9ab98b110bbce419d825f78299a" target="_top" xlink:title="get_full_path">
<polygon fill="white" stroke="black" points="244.5,-85.5 244.5,-104.5 321.5,-104.5 321.5,-85.5 244.5,-85.5"/>
<text text-anchor="middle" x="283" y="-92.5" font-family="Helvetica,sans-Serif" font-size="10.00">get_full_path</text>
</a>
</g>
</g>
<!-- Node3&#45;&gt;Node10 -->
<g id="edge13" class="edge"><title>Node3&#45;&gt;Node10</title>
<path fill="none" stroke="midnightblue" d="M177.206,-109.971C193.753,-107.607 215.098,-104.557 234.201,-101.828"/>
<polygon fill="midnightblue" stroke="midnightblue" points="234.839,-105.273 244.243,-100.394 233.849,-98.3433 234.839,-105.273"/>
</g>
<!-- Node11 -->
<g id="node11" class="node"><title>Node11</title>
<g id="a_node11"><a xlink:href="../../db/d53/rle__getrow_8c.html#a2d56ca99b896abbcb4d2f3f97c93a3ce" target="_top" xlink:title="rle_get_setup_ok">
<polygon fill="white" stroke="black" points="234,-123.5 234,-142.5 332,-142.5 332,-123.5 234,-123.5"/>
<text text-anchor="middle" x="283" y="-130.5" font-family="Helvetica,sans-Serif" font-size="10.00">rle_get_setup_ok</text>
</a>
</g>
</g>
<!-- Node3&#45;&gt;Node11 -->
<g id="edge14" class="edge"><title>Node3&#45;&gt;Node11</title>
<path fill="none" stroke="midnightblue" d="M177.206,-118.029C190.845,-119.978 207.745,-122.392 223.963,-124.709"/>
<polygon fill="midnightblue" stroke="midnightblue" points="223.542,-128.184 233.937,-126.134 224.532,-121.255 223.542,-128.184"/>
</g>
<!-- Node15 -->
<g id="node15" class="node"><title>Node15</title>
<g id="a_node15"><a xlink:href="../../d6/d28/gettaac_8c.html#aabc71cb1bcd813a3f25b1bbabd17d916" target="_top" xlink:title="read_file_rgb">
<polygon fill="white" stroke="black" points="243.5,-47.5 243.5,-66.5 322.5,-66.5 322.5,-47.5 243.5,-47.5"/>
<text text-anchor="middle" x="283" y="-54.5" font-family="Helvetica,sans-Serif" font-size="10.00">read_file_rgb</text>
</a>
</g>
</g>
<!-- Node3&#45;&gt;Node15 -->
<g id="edge24" class="edge"><title>Node3&#45;&gt;Node15</title>
<path fill="none" stroke="midnightblue" d="M175.172,-104.495C182.621,-101.617 190.694,-98.3308 198,-95 214.462,-87.4949 217.565,-83.5627 234,-76 238.142,-74.094 242.534,-72.1951 246.912,-70.3759"/>
<polygon fill="midnightblue" stroke="midnightblue" points="248.415,-73.5433 256.373,-66.5486 245.79,-67.0541 248.415,-73.5433"/>
</g>
<!-- Node16 -->
<g id="node16" class="node"><title>Node16</title>
<g id="a_node16"><a xlink:href="../../d6/d28/gettaac_8c.html#a6083785416dc4dde64d52cc7abd4dbfa" target="_top" xlink:title="read_file_gray">
<polygon fill="white" stroke="black" points="240.5,-9.5 240.5,-28.5 325.5,-28.5 325.5,-9.5 240.5,-9.5"/>
<text text-anchor="middle" x="283" y="-16.5" font-family="Helvetica,sans-Serif" font-size="10.00">read_file_gray</text>
</a>
</g>
</g>
<!-- Node3&#45;&gt;Node16 -->
<g id="edge25" class="edge"><title>Node3&#45;&gt;Node16</title>
<path fill="none" stroke="midnightblue" d="M177.111,-106.589C184.424,-103.767 191.942,-99.9868 198,-95 221.134,-75.9577 210.933,-57.1232 234,-38 236.022,-36.3233 238.211,-34.7815 240.501,-33.3656"/>
<polygon fill="midnightblue" stroke="midnightblue" points="242.491,-36.273 249.702,-28.5102 239.224,-30.0822 242.491,-36.273"/>
</g>
<!-- Node5 -->
<g id="node5" class="node"><title>Node5</title>
<g id="a_node5"><a xlink:href="../../d2/df3/rle__hdr_8c.html#a16c4da6201b3b8cf55127b9ca968d253" target="_top" xlink:title="rle_hdr_clear">
<polygon fill="white" stroke="black" points="600,-0.5 600,-19.5 680,-19.5 680,-0.5 600,-0.5"/>
<text text-anchor="middle" x="640" y="-7.5" font-family="Helvetica,sans-Serif" font-size="10.00">rle_hdr_clear</text>
</a>
</g>
</g>
<!-- Node4&#45;&gt;Node5 -->
<g id="edge4" class="edge"><title>Node4&#45;&gt;Node5</title>
<path fill="none" stroke="midnightblue" d="M415.323,-161.5C423.249,-150.33 436.57,-131.138 447,-114 464.371,-85.4569 456.506,-68.3591 483,-48 513.515,-24.5511 556.488,-15.342 589.606,-11.8337"/>
<polygon fill="midnightblue" stroke="midnightblue" points="590.345,-15.2809 599.984,-10.8842 589.707,-8.30998 590.345,-15.2809"/>
</g>
<!-- Node7 -->
<g id="node7" class="node"><title>Node7</title>
<g id="a_node7"><a xlink:href="../../d2/df3/rle__hdr_8c.html#afc916e29aea8788e0878ca315ff69821" target="_top" xlink:title="rle_hdr_cp">
<polygon fill="white" stroke="black" points="489.5,-161.5 489.5,-180.5 557.5,-180.5 557.5,-161.5 489.5,-161.5"/>
<text text-anchor="middle" x="523.5" y="-168.5" font-family="Helvetica,sans-Serif" font-size="10.00">rle_hdr_cp</text>
</a>
</g>
</g>
<!-- Node4&#45;&gt;Node7 -->
<g id="edge6" class="edge"><title>Node4&#45;&gt;Node7</title>
<path fill="none" stroke="midnightblue" d="M442.704,-164.755C454.168,-164.22 467.105,-164.11 479.173,-164.426"/>
<polygon fill="midnightblue" stroke="midnightblue" points="479.371,-167.935 489.495,-164.812 479.633,-160.94 479.371,-167.935"/>
</g>
<!-- Node6 -->
<g id="node6" class="node"><title>Node6</title>
<g id="a_node6"><a xlink:href="../../d0/dcc/rletorla_8c.html#aafde19f7d36ca163a143579c1b125b6d" target="_top" xlink:title="free">
<polygon fill="white" stroke="black" points="722,-76.5 722,-95.5 757,-95.5 757,-76.5 722,-76.5"/>
<text text-anchor="middle" x="739.5" y="-83.5" font-family="Helvetica,sans-Serif" font-size="10.00">free</text>
</a>
</g>
</g>
<!-- Node5&#45;&gt;Node6 -->
<g id="edge5" class="edge"><title>Node5&#45;&gt;Node6</title>
<path fill="none" stroke="midnightblue" d="M663.966,-19.6788C669.414,-22.379 675.071,-25.5341 680,-29 696.21,-40.399 712.155,-56.3389 723.294,-68.465"/>
<polygon fill="midnightblue" stroke="midnightblue" points="720.901,-71.0385 730.182,-76.148 726.113,-66.3658 720.901,-71.0385"/>
</g>
<!-- Node7&#45;&gt;Node4 -->
<g id="edge7" class="edge"><title>Node7&#45;&gt;Node4</title>
<path fill="none" stroke="midnightblue" d="M489.495,-177.188C478.023,-177.758 464.963,-177.895 452.731,-177.597"/>
<polygon fill="midnightblue" stroke="midnightblue" points="452.82,-174.098 442.704,-177.245 452.575,-181.094 452.82,-174.098"/>
</g>
<!-- Node8 -->
<g id="node8" class="node"><title>Node8</title>
<g id="a_node8"><a xlink:href="../../d0/dcc/rletorla_8c.html#ab7e36af3707843f77cc5b4e831c2fa6d" target="_top" xlink:title="malloc">
<polygon fill="white" stroke="black" points="716,-152.5 716,-171.5 763,-171.5 763,-152.5 716,-152.5"/>
<text text-anchor="middle" x="739.5" y="-159.5" font-family="Helvetica,sans-Serif" font-size="10.00">malloc</text>
</a>
</g>
</g>
<!-- Node7&#45;&gt;Node8 -->
<g id="edge8" class="edge"><title>Node7&#45;&gt;Node8</title>
<path fill="none" stroke="midnightblue" d="M557.761,-177.358C589.381,-182.409 638.184,-187.62 680,-181 688.718,-179.62 697.905,-177.15 706.349,-174.438"/>
<polygon fill="midnightblue" stroke="midnightblue" points="707.515,-177.739 715.848,-171.195 705.253,-171.114 707.515,-177.739"/>
</g>
<!-- Node7&#45;&gt;Node9 -->
<g id="edge9" class="edge"><title>Node7&#45;&gt;Node9</title>
<path fill="none" stroke="midnightblue" d="M557.618,-168.397C569.813,-167.438 583.796,-166.339 596.692,-165.326"/>
<polygon fill="midnightblue" stroke="midnightblue" points="597.051,-168.808 606.746,-164.535 596.502,-161.83 597.051,-168.808"/>
</g>
<!-- Node9&#45;&gt;Node6 -->
<g id="edge10" class="edge"><title>Node9&#45;&gt;Node6</title>
<path fill="none" stroke="midnightblue" d="M653.348,-152.375C669.685,-139.64 698.694,-117.028 718.258,-101.778"/>
<polygon fill="midnightblue" stroke="midnightblue" points="720.517,-104.456 726.252,-95.5473 716.213,-98.9347 720.517,-104.456"/>
</g>
<!-- Node9&#45;&gt;Node8 -->
<g id="edge11" class="edge"><title>Node9&#45;&gt;Node8</title>
<path fill="none" stroke="midnightblue" d="M673.195,-162C683.679,-162 695.321,-162 705.838,-162"/>
<polygon fill="midnightblue" stroke="midnightblue" points="705.896,-165.5 715.896,-162 705.896,-158.5 705.896,-165.5"/>
</g>
<!-- Node11&#45;&gt;Node4 -->
<g id="edge15" class="edge"><title>Node11&#45;&gt;Node4</title>
<path fill="none" stroke="midnightblue" d="M314.912,-142.589C330.29,-147.359 349.082,-153.189 365.633,-158.323"/>
<polygon fill="midnightblue" stroke="midnightblue" points="365.01,-161.794 375.598,-161.414 367.084,-155.108 365.01,-161.794"/>
</g>
<!-- Node11&#45;&gt;Node9 -->
<g id="edge16" class="edge"><title>Node11&#45;&gt;Node9</title>
<path fill="none" stroke="midnightblue" d="M332.139,-135.317C387.987,-138.224 482.798,-143.84 564,-152 574.697,-153.075 586.22,-154.485 596.948,-155.905"/>
<polygon fill="midnightblue" stroke="midnightblue" points="596.557,-159.384 606.936,-157.26 597.497,-152.448 596.557,-159.384"/>
</g>
<!-- Node12 -->
<g id="node12" class="node"><title>Node12</title>
<g id="a_node12"><a xlink:href="../../d7/d24/rle__error_8c.html#af931d686cf3ca715c9b900527f0961c0" target="_top" xlink:title="rle_get_error">
<polygon fill="white" stroke="black" points="368,-85.5 368,-104.5 447,-104.5 447,-85.5 368,-85.5"/>
<text text-anchor="middle" x="407.5" y="-92.5" font-family="Helvetica,sans-Serif" font-size="10.00">rle_get_error</text>
</a>
</g>
</g>
<!-- Node11&#45;&gt;Node12 -->
<g id="edge17" class="edge"><title>Node11&#45;&gt;Node12</title>
<path fill="none" stroke="midnightblue" d="M314.912,-123.411C330.29,-118.641 349.082,-112.811 365.633,-107.677"/>
<polygon fill="midnightblue" stroke="midnightblue" points="367.084,-110.892 375.598,-104.586 365.01,-104.206 367.084,-110.892"/>
</g>
<!-- Node13 -->
<g id="node13" class="node"><title>Node13</title>
<g id="a_node13"><a xlink:href="../../db/d53/rle__getrow_8c.html#a619b27463c26e0a4a3d9648a9869ee52" target="_top" xlink:title="rle_get_setup">
<polygon fill="white" stroke="black" points="483,-57.5 483,-76.5 564,-76.5 564,-57.5 483,-57.5"/>
<text text-anchor="middle" x="523.5" y="-64.5" font-family="Helvetica,sans-Serif" font-size="10.00">rle_get_setup</text>
</a>
</g>
</g>
<!-- Node11&#45;&gt;Node13 -->
<g id="edge18" class="edge"><title>Node11&#45;&gt;Node13</title>
<path fill="none" stroke="midnightblue" d="M313.956,-123.479C320.178,-120.871 326.506,-117.716 332,-114 351.271,-100.967 346.905,-85.8103 368,-76 400.504,-60.8838 441.092,-59.0791 472.51,-60.8167"/>
<polygon fill="midnightblue" stroke="midnightblue" points="472.57,-64.3292 482.788,-61.5277 473.053,-57.3459 472.57,-64.3292"/>
</g>
<!-- Node13&#45;&gt;Node5 -->
<g id="edge19" class="edge"><title>Node13&#45;&gt;Node5</title>
<path fill="none" stroke="midnightblue" d="M543.393,-57.4058C558.644,-49.6816 580.669,-38.5729 600,-29 603.202,-27.4145 606.556,-25.7641 609.896,-24.1274"/>
<polygon fill="midnightblue" stroke="midnightblue" points="611.685,-27.1491 619.135,-19.6162 608.614,-20.8589 611.685,-27.1491"/>
</g>
<!-- Node13&#45;&gt;Node6 -->
<g id="edge22" class="edge"><title>Node13&#45;&gt;Node6</title>
<path fill="none" stroke="midnightblue" d="M564,-70.507C606.979,-74.3229 674.514,-80.319 711.706,-83.6211"/>
<polygon fill="midnightblue" stroke="midnightblue" points="711.51,-87.1174 721.781,-84.5156 712.129,-80.1448 711.51,-87.1174"/>
</g>
<!-- Node13&#45;&gt;Node8 -->
<g id="edge21" class="edge"><title>Node13&#45;&gt;Node8</title>
<path fill="none" stroke="midnightblue" d="M546.197,-76.6319C584.428,-93.6037 663.889,-128.878 707.755,-148.351"/>
<polygon fill="midnightblue" stroke="midnightblue" points="706.504,-151.625 717.064,-152.484 709.344,-145.227 706.504,-151.625"/>
</g>
<!-- Node13&#45;&gt;Node9 -->
<g id="edge20" class="edge"><title>Node13&#45;&gt;Node9</title>
<path fill="none" stroke="midnightblue" d="M533.711,-76.8532C547.402,-91.2124 574.279,-118.318 600,-138 604.049,-141.098 608.516,-144.15 612.938,-146.984"/>
<polygon fill="midnightblue" stroke="midnightblue" points="611.453,-150.18 621.804,-152.442 615.123,-144.219 611.453,-150.18"/>
</g>
<!-- Node14 -->
<g id="node14" class="node"><title>Node14</title>
<g id="a_node14"><a xlink:href="../../db/d53/rle__getrow_8c.html#a0ea68aa2ebeef9d4cade7282553b03d6" target="_top" xlink:title="vax_gshort">
<polygon fill="white" stroke="black" points="605.5,-38.5 605.5,-57.5 674.5,-57.5 674.5,-38.5 605.5,-38.5"/>
<text text-anchor="middle" x="640" y="-45.5" font-family="Helvetica,sans-Serif" font-size="10.00">vax_gshort</text>
</a>
</g>
</g>
<!-- Node13&#45;&gt;Node14 -->
<g id="edge23" class="edge"><title>Node13&#45;&gt;Node14</title>
<path fill="none" stroke="midnightblue" d="M564.225,-60.408C574.301,-58.736 585.179,-56.931 595.434,-55.2292"/>
<polygon fill="midnightblue" stroke="midnightblue" points="596.137,-58.6605 605.43,-53.5706 594.991,-51.7549 596.137,-58.6605"/>
</g>
</g>
</svg>
