<?xml version="1.0" encoding="UTF-8" standalone="no"?>
<!DOCTYPE svg PUBLIC "-//W3C//DTD SVG 1.1//EN"
 "http://www.w3.org/Graphics/SVG/1.1/DTD/svg11.dtd">
<!-- Generated by graphviz version 2.38.0 (20140413.2041)
 -->
<!-- Title: read_file_rgb Pages: 1 -->
<svg width="294pt" height="180pt"
 viewBox="0.00 0.00 294.00 180.00" xmlns="http://www.w3.org/2000/svg" xmlns:xlink="http://www.w3.org/1999/xlink">
<g id="graph0" class="graph" transform="scale(1 1) rotate(0) translate(4 176)">
<title>read_file_rgb</title>
<polygon fill="white" stroke="none" points="-4,4 -4,-176 290,-176 290,4 -4,4"/>
<!-- Node1 -->
<g id="node1" class="node"><title>Node1</title>
<polygon fill="#bfbfbf" stroke="black" points="0,-76.5 0,-95.5 79,-95.5 79,-76.5 0,-76.5"/>
<text text-anchor="middle" x="39.5" y="-83.5" font-family="Helvetica,sans-Serif" font-size="10.00">read_file_rgb</text>
</g>
<!-- Node2 -->
<g id="node2" class="node"><title>Node2</title>
<g id="a_node2"><a xlink:href="../../d4/df0/gamma_8c.html#aa61041b3d539ebd857f6d831c93a967b" target="_top" xlink:title="gamma">
<polygon fill="white" stroke="black" points="123,-152.5 123,-171.5 174,-171.5 174,-152.5 123,-152.5"/>
<text text-anchor="middle" x="148.5" y="-159.5" font-family="Helvetica,sans-Serif" font-size="10.00">gamma</text>
</a>
</g>
</g>
<!-- Node1&#45;&gt;Node2 -->
<g id="edge1" class="edge"><title>Node1&#45;&gt;Node2</title>
<path fill="none" stroke="midnightblue" d="M52.0378,-95.5465C66.4039,-107.263 91.8763,-127.482 115,-143 116.94,-144.302 118.972,-145.611 121.033,-146.899"/>
<polygon fill="midnightblue" stroke="midnightblue" points="119.679,-150.17 130.051,-152.333 123.292,-144.174 119.679,-150.17"/>
</g>
<!-- Node3 -->
<g id="node3" class="node"><title>Node3</title>
<g id="a_node3"><a xlink:href="../../d0/dcc/rletorla_8c.html#ab7e36af3707843f77cc5b4e831c2fa6d" target="_top" xlink:title="malloc">
<polygon fill="white" stroke="black" points="125,-114.5 125,-133.5 172,-133.5 172,-114.5 125,-114.5"/>
<text text-anchor="middle" x="148.5" y="-121.5" font-family="Helvetica,sans-Serif" font-size="10.00">malloc</text>
</a>
</g>
</g>
<!-- Node1&#45;&gt;Node3 -->
<g id="edge2" class="edge"><title>Node1&#45;&gt;Node3</title>
<path fill="none" stroke="midnightblue" d="M67.5006,-95.589C82.0253,-100.747 100.036,-107.144 115.289,-112.56"/>
<polygon fill="midnightblue" stroke="midnightblue" points="114.254,-115.907 124.849,-115.956 116.597,-109.311 114.254,-115.907"/>
</g>
<!-- Node4 -->
<g id="node4" class="node"><title>Node4</title>
<g id="a_node4"><a xlink:href="../../dc/d11/getami_8c.html#a8f31580e06aae736fd6f1ed3c414ed94" target="_top" xlink:title="buildmap">
<polygon fill="white" stroke="black" points="119.5,-76.5 119.5,-95.5 177.5,-95.5 177.5,-76.5 119.5,-76.5"/>
<text text-anchor="middle" x="148.5" y="-83.5" font-family="Helvetica,sans-Serif" font-size="10.00">buildmap</text>
</a>
</g>
</g>
<!-- Node1&#45;&gt;Node4 -->
<g id="edge3" class="edge"><title>Node1&#45;&gt;Node4</title>
<path fill="none" stroke="midnightblue" d="M79.1295,-86C88.8887,-86 99.365,-86 109.112,-86"/>
<polygon fill="midnightblue" stroke="midnightblue" points="109.335,-89.5001 119.335,-86 109.335,-82.5001 109.335,-89.5001"/>
</g>
<!-- Node5 -->
<g id="node5" class="node"><title>Node5</title>
<g id="a_node5"><a xlink:href="../../db/d53/rle__getrow_8c.html#a3602e1158189cba5e5b0f9b983cba776" target="_top" xlink:title="rle_getrow">
<polygon fill="white" stroke="black" points="115,-38.5 115,-57.5 182,-57.5 182,-38.5 115,-38.5"/>
<text text-anchor="middle" x="148.5" y="-45.5" font-family="Helvetica,sans-Serif" font-size="10.00">rle_getrow</text>
</a>
</g>
</g>
<!-- Node1&#45;&gt;Node5 -->
<g id="edge4" class="edge"><title>Node1&#45;&gt;Node5</title>
<path fill="none" stroke="midnightblue" d="M67.5006,-76.411C80.6797,-71.7306 96.729,-66.0308 110.984,-60.9685"/>
<polygon fill="midnightblue" stroke="midnightblue" points="112.256,-64.2308 120.508,-57.5859 109.913,-57.6344 112.256,-64.2308"/>
</g>
<!-- Node8 -->
<g id="node8" class="node"><title>Node8</title>
<g id="a_node8"><a xlink:href="../../d0/dcc/rletorla_8c.html#aafde19f7d36ca163a143579c1b125b6d" target="_top" xlink:title="free">
<polygon fill="white" stroke="black" points="131,-0.5 131,-19.5 166,-19.5 166,-0.5 131,-0.5"/>
<text text-anchor="middle" x="148.5" y="-7.5" font-family="Helvetica,sans-Serif" font-size="10.00">free</text>
</a>
</g>
</g>
<!-- Node1&#45;&gt;Node8 -->
<g id="edge7" class="edge"><title>Node1&#45;&gt;Node8</title>
<path fill="none" stroke="midnightblue" d="M52.0378,-76.4535C66.4039,-64.7375 91.8763,-44.5182 115,-29 117.184,-27.5341 119.485,-26.0594 121.812,-24.615"/>
<polygon fill="midnightblue" stroke="midnightblue" points="123.943,-27.4185 130.723,-19.2768 120.345,-21.4137 123.943,-27.4185"/>
</g>
<!-- Node6 -->
<g id="node6" class="node"><title>Node6</title>
<g id="a_node6"><a xlink:href="../../db/d53/rle__getrow_8c.html#a61ac0da96b0dd8bc3cbc98afcd9b5c44" target="_top" xlink:title="bfill">
<polygon fill="white" stroke="black" points="236,-57.5 236,-76.5 268,-76.5 268,-57.5 236,-57.5"/>
<text text-anchor="middle" x="252" y="-64.5" font-family="Helvetica,sans-Serif" font-size="10.00">bfill</text>
</a>
</g>
</g>
<!-- Node5&#45;&gt;Node6 -->
<g id="edge5" class="edge"><title>Node5&#45;&gt;Node6</title>
<path fill="none" stroke="midnightblue" d="M182.174,-54.1163C196.441,-56.787 212.901,-59.8681 226.146,-62.3475"/>
<polygon fill="midnightblue" stroke="midnightblue" points="225.502,-65.7877 235.976,-64.1875 226.79,-58.9073 225.502,-65.7877"/>
</g>
<!-- Node7 -->
<g id="node7" class="node"><title>Node7</title>
<g id="a_node7"><a xlink:href="../../d8/d7c/rle__getskip_8c.html#af6b1e1dc0867e9340f90668591c7c5b3" target="_top" xlink:title="rle_getskip">
<polygon fill="white" stroke="black" points="218,-19.5 218,-38.5 286,-38.5 286,-19.5 218,-19.5"/>
<text text-anchor="middle" x="252" y="-26.5" font-family="Helvetica,sans-Serif" font-size="10.00">rle_getskip</text>
</a>
</g>
</g>
<!-- Node5&#45;&gt;Node7 -->
<g id="edge6" class="edge"><title>Node5&#45;&gt;Node7</title>
<path fill="none" stroke="midnightblue" d="M182.174,-41.8837C190.338,-40.3554 199.22,-38.6928 207.807,-37.0854"/>
<polygon fill="midnightblue" stroke="midnightblue" points="208.505,-40.5156 217.69,-35.2353 207.217,-33.6351 208.505,-40.5156"/>
</g>
</g>
</svg>
