<?xml version="1.0" encoding="UTF-8" standalone="no"?>
<!DOCTYPE svg PUBLIC "-//W3C//DTD SVG 1.1//EN"
 "http://www.w3.org/Graphics/SVG/1.1/DTD/svg11.dtd">
<!-- Generated by graphviz version 2.38.0 (20140413.2041)
 -->
<!-- Title: read_file_gray Pages: 1 -->
<svg width="300pt" height="180pt"
 viewBox="0.00 0.00 300.00 180.00" xmlns="http://www.w3.org/2000/svg" xmlns:xlink="http://www.w3.org/1999/xlink">
<g id="graph0" class="graph" transform="scale(1 1) rotate(0) translate(4 176)">
<title>read_file_gray</title>
<polygon fill="white" stroke="none" points="-4,4 -4,-176 296,-176 296,4 -4,4"/>
<!-- Node1 -->
<g id="node1" class="node"><title>Node1</title>
<polygon fill="#bfbfbf" stroke="black" points="0,-76.5 0,-95.5 85,-95.5 85,-76.5 0,-76.5"/>
<text text-anchor="middle" x="42.5" y="-83.5" font-family="Helvetica,sans-Serif" font-size="10.00">read_file_gray</text>
</g>
<!-- Node2 -->
<g id="node2" class="node"><title>Node2</title>
<g id="a_node2"><a xlink:href="../../d4/df0/gamma_8c.html#aa61041b3d539ebd857f6d831c93a967b" target="_top" xlink:title="gamma">
<polygon fill="white" stroke="black" points="129,-152.5 129,-171.5 180,-171.5 180,-152.5 129,-152.5"/>
<text text-anchor="middle" x="154.5" y="-159.5" font-family="Helvetica,sans-Serif" font-size="10.00">gamma</text>
</a>
</g>
</g>
<!-- Node1&#45;&gt;Node2 -->
<g id="edge1" class="edge"><title>Node1&#45;&gt;Node2</title>
<path fill="none" stroke="midnightblue" d="M55.8297,-95.6952C70.8836,-107.384 97.2746,-127.402 121,-143 123.15,-144.414 125.408,-145.842 127.689,-147.247"/>
<polygon fill="midnightblue" stroke="midnightblue" points="126.047,-150.343 136.426,-152.47 129.639,-144.335 126.047,-150.343"/>
</g>
<!-- Node3 -->
<g id="node3" class="node"><title>Node3</title>
<g id="a_node3"><a xlink:href="../../d0/dcc/rletorla_8c.html#ab7e36af3707843f77cc5b4e831c2fa6d" target="_top" xlink:title="malloc">
<polygon fill="white" stroke="black" points="131,-114.5 131,-133.5 178,-133.5 178,-114.5 131,-114.5"/>
<text text-anchor="middle" x="154.5" y="-121.5" font-family="Helvetica,sans-Serif" font-size="10.00">malloc</text>
</a>
</g>
</g>
<!-- Node1&#45;&gt;Node3 -->
<g id="edge2" class="edge"><title>Node1&#45;&gt;Node3</title>
<path fill="none" stroke="midnightblue" d="M71.2576,-95.589C86.3984,-100.819 105.224,-107.323 121.042,-112.787"/>
<polygon fill="midnightblue" stroke="midnightblue" points="120.338,-116.247 130.933,-116.204 122.624,-109.631 120.338,-116.247"/>
</g>
<!-- Node4 -->
<g id="node4" class="node"><title>Node4</title>
<g id="a_node4"><a xlink:href="../../dc/d11/getami_8c.html#a8f31580e06aae736fd6f1ed3c414ed94" target="_top" xlink:title="buildmap">
<polygon fill="white" stroke="black" points="125.5,-76.5 125.5,-95.5 183.5,-95.5 183.5,-76.5 125.5,-76.5"/>
<text text-anchor="middle" x="154.5" y="-83.5" font-family="Helvetica,sans-Serif" font-size="10.00">buildmap</text>
</a>
</g>
</g>
<!-- Node1&#45;&gt;Node4 -->
<g id="edge3" class="edge"><title>Node1&#45;&gt;Node4</title>
<path fill="none" stroke="midnightblue" d="M85.0863,-86C94.9157,-86 105.354,-86 115.038,-86"/>
<polygon fill="midnightblue" stroke="midnightblue" points="115.186,-89.5001 125.186,-86 115.186,-82.5001 115.186,-89.5001"/>
</g>
<!-- Node5 -->
<g id="node5" class="node"><title>Node5</title>
<g id="a_node5"><a xlink:href="../../db/d53/rle__getrow_8c.html#a3602e1158189cba5e5b0f9b983cba776" target="_top" xlink:title="rle_getrow">
<polygon fill="white" stroke="black" points="121,-38.5 121,-57.5 188,-57.5 188,-38.5 121,-38.5"/>
<text text-anchor="middle" x="154.5" y="-45.5" font-family="Helvetica,sans-Serif" font-size="10.00">rle_getrow</text>
</a>
</g>
</g>
<!-- Node1&#45;&gt;Node5 -->
<g id="edge4" class="edge"><title>Node1&#45;&gt;Node5</title>
<path fill="none" stroke="midnightblue" d="M71.2576,-76.411C84.8062,-71.7306 101.305,-66.0308 115.96,-60.9685"/>
<polygon fill="midnightblue" stroke="midnightblue" points="117.442,-64.1594 125.751,-57.5859 115.156,-57.543 117.442,-64.1594"/>
</g>
<!-- Node8 -->
<g id="node8" class="node"><title>Node8</title>
<g id="a_node8"><a xlink:href="../../d0/dcc/rletorla_8c.html#aafde19f7d36ca163a143579c1b125b6d" target="_top" xlink:title="free">
<polygon fill="white" stroke="black" points="137,-0.5 137,-19.5 172,-19.5 172,-0.5 137,-0.5"/>
<text text-anchor="middle" x="154.5" y="-7.5" font-family="Helvetica,sans-Serif" font-size="10.00">free</text>
</a>
</g>
</g>
<!-- Node1&#45;&gt;Node8 -->
<g id="edge7" class="edge"><title>Node1&#45;&gt;Node8</title>
<path fill="none" stroke="midnightblue" d="M55.8297,-76.3048C70.8836,-64.6158 97.2746,-44.5981 121,-29 123.277,-27.5032 125.674,-25.9901 128.091,-24.5056"/>
<polygon fill="midnightblue" stroke="midnightblue" points="129.965,-27.4633 136.761,-19.3352 126.38,-21.4512 129.965,-27.4633"/>
</g>
<!-- Node6 -->
<g id="node6" class="node"><title>Node6</title>
<g id="a_node6"><a xlink:href="../../db/d53/rle__getrow_8c.html#a61ac0da96b0dd8bc3cbc98afcd9b5c44" target="_top" xlink:title="bfill">
<polygon fill="white" stroke="black" points="242,-57.5 242,-76.5 274,-76.5 274,-57.5 242,-57.5"/>
<text text-anchor="middle" x="258" y="-64.5" font-family="Helvetica,sans-Serif" font-size="10.00">bfill</text>
</a>
</g>
</g>
<!-- Node5&#45;&gt;Node6 -->
<g id="edge5" class="edge"><title>Node5&#45;&gt;Node6</title>
<path fill="none" stroke="midnightblue" d="M188.174,-54.1163C202.441,-56.787 218.901,-59.8681 232.146,-62.3475"/>
<polygon fill="midnightblue" stroke="midnightblue" points="231.502,-65.7877 241.976,-64.1875 232.79,-58.9073 231.502,-65.7877"/>
</g>
<!-- Node7 -->
<g id="node7" class="node"><title>Node7</title>
<g id="a_node7"><a xlink:href="../../d8/d7c/rle__getskip_8c.html#af6b1e1dc0867e9340f90668591c7c5b3" target="_top" xlink:title="rle_getskip">
<polygon fill="white" stroke="black" points="224,-19.5 224,-38.5 292,-38.5 292,-19.5 224,-19.5"/>
<text text-anchor="middle" x="258" y="-26.5" font-family="Helvetica,sans-Serif" font-size="10.00">rle_getskip</text>
</a>
</g>
</g>
<!-- Node5&#45;&gt;Node7 -->
<g id="edge6" class="edge"><title>Node5&#45;&gt;Node7</title>
<path fill="none" stroke="midnightblue" d="M188.174,-41.8837C196.338,-40.3554 205.22,-38.6928 213.807,-37.0854"/>
<polygon fill="midnightblue" stroke="midnightblue" points="214.505,-40.5156 223.69,-35.2353 213.217,-33.6351 214.505,-40.5156"/>
</g>
</g>
</svg>
