<?xml version="1.0" encoding="UTF-8" standalone="no"?>
<!DOCTYPE svg PUBLIC "-//W3C//DTD SVG 1.1//EN"
 "http://www.w3.org/Graphics/SVG/1.1/DTD/svg11.dtd">
<!-- Generated by graphviz version 2.38.0 (20140413.2041)
 -->
<!-- Title: read_file_gray Pages: 1 -->
<svg width="285pt" height="28pt"
 viewBox="0.00 0.00 285.00 28.00" xmlns="http://www.w3.org/2000/svg" xmlns:xlink="http://www.w3.org/1999/xlink">
<g id="graph0" class="graph" transform="scale(1 1) rotate(0) translate(4 24)">
<title>read_file_gray</title>
<polygon fill="white" stroke="none" points="-4,4 -4,-24 281,-24 281,4 -4,4"/>
<!-- Node1 -->
<g id="node1" class="node"><title>Node1</title>
<polygon fill="#bfbfbf" stroke="black" points="0,-0.5 0,-19.5 85,-19.5 85,-0.5 0,-0.5"/>
<text text-anchor="middle" x="42.5" y="-7.5" font-family="Helvetica,sans-Serif" font-size="10.00">read_file_gray</text>
</g>
<!-- Node2 -->
<g id="node2" class="node"><title>Node2</title>
<g id="a_node2"><a xlink:href="../../d6/d28/gettaac_8c.html#ac6597f5cb5e1205e800704d584f65e68" target="_top" xlink:title="read_file">
<polygon fill="white" stroke="black" points="121,-0.5 121,-19.5 179,-19.5 179,-0.5 121,-0.5"/>
<text text-anchor="middle" x="150" y="-7.5" font-family="Helvetica,sans-Serif" font-size="10.00">read_file</text>
</a>
</g>
</g>
<!-- Node1&#45;&gt;Node2 -->
<g id="edge1" class="edge"><title>Node1&#45;&gt;Node2</title>
<path fill="none" stroke="midnightblue" d="M95.4351,-10C104.218,-10 113.032,-10 120.901,-10"/>
<polygon fill="midnightblue" stroke="midnightblue" points="95.1964,-6.5001 85.1964,-10 95.1964,-13.5001 95.1964,-6.5001"/>
</g>
<!-- Node3 -->
<g id="node3" class="node"><title>Node3</title>
<g id="a_node3"><a xlink:href="../../d6/d28/gettaac_8c.html#a4f03a057a0e8afba60fcb95a988c80d1" target="_top" xlink:title="init_panel">
<polygon fill="white" stroke="black" points="215,-0.5 215,-19.5 277,-19.5 277,-0.5 215,-0.5"/>
<text text-anchor="middle" x="246" y="-7.5" font-family="Helvetica,sans-Serif" font-size="10.00">init_panel</text>
</a>
</g>
</g>
<!-- Node2&#45;&gt;Node3 -->
<g id="edge2" class="edge"><title>Node2&#45;&gt;Node3</title>
<path fill="none" stroke="midnightblue" d="M189.31,-10C197.82,-10 206.725,-10 214.854,-10"/>
<polygon fill="midnightblue" stroke="midnightblue" points="189.203,-6.5001 179.203,-10 189.203,-13.5001 189.203,-6.5001"/>
</g>
</g>
</svg>
