<?xml version="1.0" encoding="UTF-8" standalone="no"?>
<!DOCTYPE svg PUBLIC "-//W3C//DTD SVG 1.1//EN"
 "http://www.w3.org/Graphics/SVG/1.1/DTD/svg11.dtd">
<!-- Generated by graphviz version 2.38.0 (20140413.2041)
 -->
<!-- Title: main Pages: 1 -->
<svg width="547pt" height="522pt"
 viewBox="0.00 0.00 547.00 522.00" xmlns="http://www.w3.org/2000/svg" xmlns:xlink="http://www.w3.org/1999/xlink">
<g id="graph0" class="graph" transform="scale(1 1) rotate(0) translate(4 518)">
<title>main</title>
<polygon fill="white" stroke="none" points="-4,4 -4,-518 543,-518 543,4 -4,4"/>
<!-- Node1 -->
<g id="node1" class="node"><title>Node1</title>
<polygon fill="#bfbfbf" stroke="black" points="0,-190.5 0,-209.5 39,-209.5 39,-190.5 0,-190.5"/>
<text text-anchor="middle" x="19.5" y="-197.5" font-family="Helvetica,sans-Serif" font-size="10.00">main</text>
</g>
<!-- Node2 -->
<g id="node2" class="node"><title>Node2</title>
<g id="a_node2"><a xlink:href="../../d4/db0/scanargs_8c.html#a7ea6d702c0484056c8504d6ce7fede08" target="_top" xlink:title="scanargs">
<polygon fill="white" stroke="black" points="97,-399.5 97,-418.5 157,-418.5 157,-399.5 97,-399.5"/>
<text text-anchor="middle" x="127" y="-406.5" font-family="Helvetica,sans-Serif" font-size="10.00">scanargs</text>
</a>
</g>
</g>
<!-- Node1&#45;&gt;Node2 -->
<g id="edge1" class="edge"><title>Node1&#45;&gt;Node2</title>
<path fill="none" stroke="midnightblue" d="M20.8663,-209.908C22.4506,-239.451 30.8385,-328.211 75,-382 79.0467,-386.929 84.2343,-391.076 89.7452,-394.525"/>
<polygon fill="midnightblue" stroke="midnightblue" points="88.1069,-397.619 98.5537,-399.384 91.4876,-391.489 88.1069,-397.619"/>
</g>
<!-- Node4 -->
<g id="node4" class="node"><title>Node4</title>
<g id="a_node4"><a xlink:href="../../d2/df3/rle__hdr_8c.html#a8ba0e5b11d1e39ab7227f1686e676c86" target="_top" xlink:title="rle_hdr_init">
<polygon fill="white" stroke="black" points="92,-190.5 92,-209.5 162,-209.5 162,-190.5 92,-190.5"/>
<text text-anchor="middle" x="127" y="-197.5" font-family="Helvetica,sans-Serif" font-size="10.00">rle_hdr_init</text>
</a>
</g>
</g>
<!-- Node1&#45;&gt;Node4 -->
<g id="edge3" class="edge"><title>Node1&#45;&gt;Node4</title>
<path fill="none" stroke="midnightblue" d="M39.3613,-200C51.2076,-200 67.0083,-200 81.8705,-200"/>
<polygon fill="midnightblue" stroke="midnightblue" points="81.9498,-203.5 91.9497,-200 81.9497,-196.5 81.9498,-203.5"/>
</g>
<!-- Node9 -->
<g id="node9" class="node"><title>Node9</title>
<g id="a_node9"><a xlink:href="../../d2/df3/rle__hdr_8c.html#a82e79385f2d45cc3b80ce0f4f369eae5" target="_top" xlink:title="rle_names">
<polygon fill="white" stroke="black" points="353,-190.5 353,-209.5 419,-209.5 419,-190.5 353,-190.5"/>
<text text-anchor="middle" x="386" y="-197.5" font-family="Helvetica,sans-Serif" font-size="10.00">rle_names</text>
</a>
</g>
</g>
<!-- Node1&#45;&gt;Node9 -->
<g id="edge12" class="edge"><title>Node1&#45;&gt;Node9</title>
<path fill="none" stroke="midnightblue" d="M39.2556,-208.291C49.5796,-212.403 62.7492,-216.926 75,-219 173.159,-235.62 200.032,-229.802 299,-219 313.433,-217.425 328.991,-214.404 342.853,-211.227"/>
<polygon fill="midnightblue" stroke="midnightblue" points="343.69,-214.626 352.607,-208.904 342.069,-207.816 343.69,-214.626"/>
</g>
<!-- Node10 -->
<g id="node10" class="node"><title>Node10</title>
<g id="a_node10"><a xlink:href="../../d8/d30/cmd__name_8c.html#a271249070fdd12c176777c77d76f888f" target="_top" xlink:title="cmd_name">
<polygon fill="white" stroke="black" points="93,-114.5 93,-133.5 161,-133.5 161,-114.5 93,-114.5"/>
<text text-anchor="middle" x="127" y="-121.5" font-family="Helvetica,sans-Serif" font-size="10.00">cmd_name</text>
</a>
</g>
</g>
<!-- Node1&#45;&gt;Node10 -->
<g id="edge13" class="edge"><title>Node1&#45;&gt;Node10</title>
<path fill="none" stroke="midnightblue" d="M28.9682,-190.194C39.0699,-178.934 56.8779,-160.422 75,-148 80.3499,-144.333 86.3483,-140.956 92.3007,-137.965"/>
<polygon fill="midnightblue" stroke="midnightblue" points="93.9804,-141.042 101.517,-133.595 90.9816,-134.717 93.9804,-141.042"/>
</g>
<!-- Node11 -->
<g id="node11" class="node"><title>Node11</title>
<g id="a_node11"><a xlink:href="../../d5/da5/pgmtorle_8c.html#a947ea5539d2b9b6b758ace084895fb5b" target="_top" xlink:title="read_pgm_header">
<polygon fill="white" stroke="black" points="75,-76.5 75,-95.5 179,-95.5 179,-76.5 75,-76.5"/>
<text text-anchor="middle" x="127" y="-83.5" font-family="Helvetica,sans-Serif" font-size="10.00">read_pgm_header</text>
</a>
</g>
</g>
<!-- Node1&#45;&gt;Node11 -->
<g id="edge14" class="edge"><title>Node1&#45;&gt;Node11</title>
<path fill="none" stroke="midnightblue" d="M23.4914,-190.473C29.901,-171.548 46.7198,-128.979 75,-105 76.9863,-103.316 79.1362,-101.774 81.3912,-100.363"/>
<polygon fill="midnightblue" stroke="midnightblue" points="83.2856,-103.321 90.4874,-95.55 80.0116,-97.1336 83.2856,-103.321"/>
</g>
<!-- Node12 -->
<g id="node12" class="node"><title>Node12</title>
<g id="a_node12"><a xlink:href="../../de/d4e/rle__open__f_8c.html#a89733a45961817885603ae01210290b7" target="_top" xlink:title="rle_open_f">
<polygon fill="white" stroke="black" points="93,-353.5 93,-372.5 161,-372.5 161,-353.5 93,-353.5"/>
<text text-anchor="middle" x="127" y="-360.5" font-family="Helvetica,sans-Serif" font-size="10.00">rle_open_f</text>
</a>
</g>
</g>
<!-- Node1&#45;&gt;Node12 -->
<g id="edge15" class="edge"><title>Node1&#45;&gt;Node12</title>
<path fill="none" stroke="midnightblue" d="M23.0639,-209.79C29.1831,-231.799 46.3081,-286.137 75,-323 82.3327,-332.421 92.347,-340.903 101.561,-347.607"/>
<polygon fill="midnightblue" stroke="midnightblue" points="99.8187,-350.658 110.036,-353.462 103.797,-344.898 99.8187,-350.658"/>
</g>
<!-- Node15 -->
<g id="node15" class="node"><title>Node15</title>
<g id="a_node15"><a xlink:href="../../d8/def/rle__addhist_8c.html#a4f9433d6e4e203d0ecea1c7d3837afc3" target="_top" xlink:title="rle_addhist">
<polygon fill="white" stroke="black" points="222.5,-95.5 222.5,-114.5 291.5,-114.5 291.5,-95.5 222.5,-95.5"/>
<text text-anchor="middle" x="257" y="-102.5" font-family="Helvetica,sans-Serif" font-size="10.00">rle_addhist</text>
</a>
</g>
</g>
<!-- Node1&#45;&gt;Node15 -->
<g id="edge20" class="edge"><title>Node1&#45;&gt;Node15</title>
<path fill="none" stroke="midnightblue" d="M39.1696,-193.42C78.1478,-179.663 165.678,-148.661 179,-143 195.882,-135.826 214.324,-126.769 228.927,-119.297"/>
<polygon fill="midnightblue" stroke="midnightblue" points="230.637,-122.353 237.913,-114.652 227.423,-116.135 230.637,-122.353"/>
</g>
<!-- Node20 -->
<g id="node20" class="node"><title>Node20</title>
<g id="a_node20"><a xlink:href="../../d5/da5/pgmtorle_8c.html#a01b94ac6df1d57a85105d5ebeff06d5e" target="_top" xlink:title="write_rle_header">
<polygon fill="white" stroke="black" points="78.5,-19.5 78.5,-38.5 175.5,-38.5 175.5,-19.5 78.5,-19.5"/>
<text text-anchor="middle" x="127" y="-26.5" font-family="Helvetica,sans-Serif" font-size="10.00">write_rle_header</text>
</a>
</g>
</g>
<!-- Node1&#45;&gt;Node20 -->
<g id="edge27" class="edge"><title>Node1&#45;&gt;Node20</title>
<path fill="none" stroke="midnightblue" d="M22.5488,-190.406C27.8759,-167.204 43.9551,-107.028 75,-67 81.8008,-58.2313 91.122,-50.4909 99.9364,-44.3229"/>
<polygon fill="midnightblue" stroke="midnightblue" points="102.046,-47.1244 108.47,-38.6991 98.194,-41.2795 102.046,-47.1244"/>
</g>
<!-- Node23 -->
<g id="node23" class="node"><title>Node23</title>
<g id="a_node23"><a xlink:href="../../d5/da5/pgmtorle_8c.html#a59dedbceac7b3b0556882c5e2755cbae" target="_top" xlink:title="write_rle_data">
<polygon fill="white" stroke="black" points="215,-332.5 215,-351.5 299,-351.5 299,-332.5 215,-332.5"/>
<text text-anchor="middle" x="257" y="-339.5" font-family="Helvetica,sans-Serif" font-size="10.00">write_rle_data</text>
</a>
</g>
</g>
<!-- Node1&#45;&gt;Node23 -->
<g id="edge30" class="edge"><title>Node1&#45;&gt;Node23</title>
<path fill="none" stroke="midnightblue" d="M29.0161,-209.737C39.1628,-220.932 57.0131,-239.384 75,-252 122.341,-285.206 183.726,-312.952 221.463,-328.51"/>
<polygon fill="midnightblue" stroke="midnightblue" points="220.405,-331.857 230.987,-332.384 223.043,-325.373 220.405,-331.857"/>
</g>
<!-- Node3 -->
<g id="node3" class="node"><title>Node3</title>
<g id="a_node3"><a xlink:href="../../d4/db0/scanargs_8c.html#a862219039664df6eb3cfced58addf830" target="_top" xlink:title="_do_scanargs">
<polygon fill="white" stroke="black" points="215,-408.5 215,-427.5 299,-427.5 299,-408.5 215,-408.5"/>
<text text-anchor="middle" x="257" y="-415.5" font-family="Helvetica,sans-Serif" font-size="10.00">_do_scanargs</text>
</a>
</g>
</g>
<!-- Node2&#45;&gt;Node3 -->
<g id="edge2" class="edge"><title>Node2&#45;&gt;Node3</title>
<path fill="none" stroke="midnightblue" d="M157.045,-411.042C171.083,-412.029 188.357,-413.244 204.521,-414.38"/>
<polygon fill="midnightblue" stroke="midnightblue" points="204.718,-417.903 214.939,-415.113 205.209,-410.92 204.718,-417.903"/>
</g>
<!-- Node5 -->
<g id="node5" class="node"><title>Node5</title>
<g id="a_node5"><a xlink:href="../../d2/df3/rle__hdr_8c.html#a16c4da6201b3b8cf55127b9ca968d253" target="_top" xlink:title="rle_hdr_clear">
<polygon fill="white" stroke="black" points="217,-285.5 217,-304.5 297,-304.5 297,-285.5 217,-285.5"/>
<text text-anchor="middle" x="257" y="-292.5" font-family="Helvetica,sans-Serif" font-size="10.00">rle_hdr_clear</text>
</a>
</g>
</g>
<!-- Node4&#45;&gt;Node5 -->
<g id="edge4" class="edge"><title>Node4&#45;&gt;Node5</title>
<path fill="none" stroke="midnightblue" d="M141.216,-209.809C163.368,-226.249 208.172,-259.503 234.78,-279.251"/>
<polygon fill="midnightblue" stroke="midnightblue" points="232.93,-282.237 243.046,-285.386 237.102,-276.616 232.93,-282.237"/>
</g>
<!-- Node7 -->
<g id="node7" class="node"><title>Node7</title>
<g id="a_node7"><a xlink:href="../../d2/df3/rle__hdr_8c.html#afc916e29aea8788e0878ca315ff69821" target="_top" xlink:title="rle_hdr_cp">
<polygon fill="white" stroke="black" points="223,-190.5 223,-209.5 291,-209.5 291,-190.5 223,-190.5"/>
<text text-anchor="middle" x="257" y="-197.5" font-family="Helvetica,sans-Serif" font-size="10.00">rle_hdr_cp</text>
</a>
</g>
</g>
<!-- Node4&#45;&gt;Node7 -->
<g id="edge6" class="edge"><title>Node4&#45;&gt;Node7</title>
<path fill="none" stroke="midnightblue" d="M162.302,-193.943C177.731,-193.168 196.12,-193.043 212.504,-193.568"/>
<polygon fill="midnightblue" stroke="midnightblue" points="212.792,-197.083 222.93,-194.006 213.086,-190.089 212.792,-197.083"/>
</g>
<!-- Node6 -->
<g id="node6" class="node"><title>Node6</title>
<g id="a_node6"><a xlink:href="../../d0/dcc/rletorla_8c.html#aafde19f7d36ca163a143579c1b125b6d" target="_top" xlink:title="free">
<polygon fill="white" stroke="black" points="488.5,-380.5 488.5,-399.5 523.5,-399.5 523.5,-380.5 488.5,-380.5"/>
<text text-anchor="middle" x="506" y="-387.5" font-family="Helvetica,sans-Serif" font-size="10.00">free</text>
</a>
</g>
</g>
<!-- Node5&#45;&gt;Node6 -->
<g id="edge5" class="edge"><title>Node5&#45;&gt;Node6</title>
<path fill="none" stroke="midnightblue" d="M297.13,-297.814C334.632,-301.75 392.02,-311.083 437,-333 457.184,-342.835 476.426,-359.947 489.257,-372.862"/>
<polygon fill="midnightblue" stroke="midnightblue" points="486.915,-375.476 496.369,-380.259 491.961,-370.625 486.915,-375.476"/>
</g>
<!-- Node7&#45;&gt;Node4 -->
<g id="edge7" class="edge"><title>Node7&#45;&gt;Node4</title>
<path fill="none" stroke="midnightblue" d="M222.93,-205.994C207.517,-206.811 188.953,-206.966 172.344,-206.459"/>
<polygon fill="midnightblue" stroke="midnightblue" points="172.433,-202.96 162.302,-206.057 172.154,-209.954 172.433,-202.96"/>
</g>
<!-- Node8 -->
<g id="node8" class="node"><title>Node8</title>
<g id="a_node8"><a xlink:href="../../d0/dcc/rletorla_8c.html#ab7e36af3707843f77cc5b4e831c2fa6d" target="_top" xlink:title="malloc">
<polygon fill="white" stroke="black" points="482.5,-209.5 482.5,-228.5 529.5,-228.5 529.5,-209.5 482.5,-209.5"/>
<text text-anchor="middle" x="506" y="-216.5" font-family="Helvetica,sans-Serif" font-size="10.00">malloc</text>
</a>
</g>
</g>
<!-- Node7&#45;&gt;Node8 -->
<g id="edge8" class="edge"><title>Node7&#45;&gt;Node8</title>
<path fill="none" stroke="midnightblue" d="M287.624,-190.474C323.523,-180.382 385.589,-167.61 437,-181 453.85,-185.389 470.951,-194.975 483.789,-203.42"/>
<polygon fill="midnightblue" stroke="midnightblue" points="482.093,-206.502 492.318,-209.277 486.056,-200.731 482.093,-206.502"/>
</g>
<!-- Node7&#45;&gt;Node9 -->
<g id="edge9" class="edge"><title>Node7&#45;&gt;Node9</title>
<path fill="none" stroke="midnightblue" d="M291.036,-200C306.739,-200 325.699,-200 342.463,-200"/>
<polygon fill="midnightblue" stroke="midnightblue" points="342.569,-203.5 352.569,-200 342.569,-196.5 342.569,-203.5"/>
</g>
<!-- Node9&#45;&gt;Node6 -->
<g id="edge10" class="edge"><title>Node9&#45;&gt;Node6</title>
<path fill="none" stroke="midnightblue" d="M397.034,-209.873C407.765,-220.769 424.875,-239.138 437,-257 462.845,-295.074 485.532,-344.267 497.021,-370.871"/>
<polygon fill="midnightblue" stroke="midnightblue" points="493.852,-372.361 500.986,-380.193 500.293,-369.621 493.852,-372.361"/>
</g>
<!-- Node9&#45;&gt;Node8 -->
<g id="edge11" class="edge"><title>Node9&#45;&gt;Node8</title>
<path fill="none" stroke="midnightblue" d="M419.244,-205.192C435.589,-207.824 455.41,-211.015 471.877,-213.667"/>
<polygon fill="midnightblue" stroke="midnightblue" points="471.714,-217.185 482.144,-215.32 472.827,-210.274 471.714,-217.185"/>
</g>
<!-- Node13 -->
<g id="node13" class="node"><title>Node13</title>
<g id="a_node13"><a xlink:href="../../de/d4e/rle__open__f_8c.html#a5a0e62a00f907fce26e93b2f72adb2b0" target="_top" xlink:title="rle_open_f_noexit">
<polygon fill="white" stroke="black" points="335,-494.5 335,-513.5 437,-513.5 437,-494.5 335,-494.5"/>
<text text-anchor="middle" x="386" y="-501.5" font-family="Helvetica,sans-Serif" font-size="10.00">rle_open_f_noexit</text>
</a>
</g>
</g>
<!-- Node12&#45;&gt;Node13 -->
<g id="edge16" class="edge"><title>Node12&#45;&gt;Node13</title>
<path fill="none" stroke="midnightblue" d="M161.138,-361.322C198.717,-361.198 259.838,-366.617 299,-399 330.933,-425.405 305.217,-456.192 335,-485 336.627,-486.574 338.397,-488.02 340.269,-489.349"/>
<polygon fill="midnightblue" stroke="midnightblue" points="338.596,-492.425 348.995,-494.454 342.131,-486.383 338.596,-492.425"/>
</g>
<!-- Node13&#45;&gt;Node6 -->
<g id="edge19" class="edge"><title>Node13&#45;&gt;Node6</title>
<path fill="none" stroke="midnightblue" d="M420.458,-494.431C426.297,-491.907 432.071,-488.797 437,-485 464.05,-464.164 484.929,-429.652 496.056,-408.459"/>
<polygon fill="midnightblue" stroke="midnightblue" points="499.198,-410.002 500.594,-399.5 492.953,-406.839 499.198,-410.002"/>
</g>
<!-- Node13&#45;&gt;Node8 -->
<g id="edge18" class="edge"><title>Node13&#45;&gt;Node8</title>
<path fill="none" stroke="midnightblue" d="M425.359,-494.45C429.786,-491.988 433.839,-488.892 437,-485 501.676,-405.367 430.397,-350.324 473,-257 476.447,-249.448 481.826,-242.203 487.196,-236.102"/>
<polygon fill="midnightblue" stroke="midnightblue" points="489.995,-238.237 494.332,-228.57 484.914,-233.422 489.995,-238.237"/>
</g>
<!-- Node14 -->
<g id="node14" class="node"><title>Node14</title>
<g id="a_node14"><a xlink:href="../../de/d4e/rle__open__f_8c.html#a84fda810ae9b9bde82a6391d0b264ead" target="_top" xlink:title="my_popen">
<polygon fill="white" stroke="black" points="473,-494.5 473,-513.5 539,-513.5 539,-494.5 473,-494.5"/>
<text text-anchor="middle" x="506" y="-501.5" font-family="Helvetica,sans-Serif" font-size="10.00">my_popen</text>
</a>
</g>
</g>
<!-- Node13&#45;&gt;Node14 -->
<g id="edge17" class="edge"><title>Node13&#45;&gt;Node14</title>
<path fill="none" stroke="midnightblue" d="M437.043,-504C445.523,-504 454.255,-504 462.518,-504"/>
<polygon fill="midnightblue" stroke="midnightblue" points="462.678,-507.5 472.678,-504 462.678,-500.5 462.678,-507.5"/>
</g>
<!-- Node15&#45;&gt;Node8 -->
<g id="edge23" class="edge"><title>Node15&#45;&gt;Node8</title>
<path fill="none" stroke="midnightblue" d="M291.772,-114.552C328.614,-125.626 388.772,-145.649 437,-171 454.208,-180.045 472.109,-192.84 485.222,-202.945"/>
<polygon fill="midnightblue" stroke="midnightblue" points="483.068,-205.703 493.093,-209.13 487.393,-200.199 483.068,-205.703"/>
</g>
<!-- Node16 -->
<g id="node16" class="node"><title>Node16</title>
<g id="a_node16"><a xlink:href="../../db/db2/rle__getcom_8c.html#a9cefd612c381bf82c9cdf1f3a3b12dd6" target="_top" xlink:title="rle_getcom">
<polygon fill="white" stroke="black" points="351.5,-38.5 351.5,-57.5 420.5,-57.5 420.5,-38.5 351.5,-38.5"/>
<text text-anchor="middle" x="386" y="-45.5" font-family="Helvetica,sans-Serif" font-size="10.00">rle_getcom</text>
</a>
</g>
</g>
<!-- Node15&#45;&gt;Node16 -->
<g id="edge21" class="edge"><title>Node15&#45;&gt;Node16</title>
<path fill="none" stroke="midnightblue" d="M276.128,-95.4431C291.587,-87.4411 314.499,-75.9296 335,-67 339.448,-65.0624 344.164,-63.1243 348.852,-61.2665"/>
<polygon fill="midnightblue" stroke="midnightblue" points="350.281,-64.4666 358.342,-57.592 347.753,-57.9388 350.281,-64.4666"/>
</g>
<!-- Node18 -->
<g id="node18" class="node"><title>Node18</title>
<g id="a_node18"><a xlink:href="../../df/da5/rle__putcom_8c.html#a6fa8528c32d14763efe2a534e409e321" target="_top" xlink:title="rle_putcom">
<polygon fill="white" stroke="black" points="352,-76.5 352,-95.5 420,-95.5 420,-76.5 352,-76.5"/>
<text text-anchor="middle" x="386" y="-83.5" font-family="Helvetica,sans-Serif" font-size="10.00">rle_putcom</text>
</a>
</g>
</g>
<!-- Node15&#45;&gt;Node18 -->
<g id="edge24" class="edge"><title>Node15&#45;&gt;Node18</title>
<path fill="none" stroke="midnightblue" d="M291.7,-99.9582C306.891,-97.6856 325.024,-94.9727 341.248,-92.5456"/>
<polygon fill="midnightblue" stroke="midnightblue" points="342.211,-95.9406 351.583,-90.9994 341.175,-89.0176 342.211,-95.9406"/>
</g>
<!-- Node17 -->
<g id="node17" class="node"><title>Node17</title>
<g id="a_node17"><a xlink:href="../../db/db2/rle__getcom_8c.html#a7502c8b599724ce86fee5df1311a2337" target="_top" xlink:title="match">
<polygon fill="white" stroke="black" points="483.5,-38.5 483.5,-57.5 528.5,-57.5 528.5,-38.5 483.5,-38.5"/>
<text text-anchor="middle" x="506" y="-45.5" font-family="Helvetica,sans-Serif" font-size="10.00">match</text>
</a>
</g>
</g>
<!-- Node16&#45;&gt;Node17 -->
<g id="edge22" class="edge"><title>Node16&#45;&gt;Node17</title>
<path fill="none" stroke="midnightblue" d="M420.814,-48C437.35,-48 457.136,-48 473.37,-48"/>
<polygon fill="midnightblue" stroke="midnightblue" points="473.456,-51.5001 483.456,-48 473.456,-44.5001 473.456,-51.5001"/>
</g>
<!-- Node18&#45;&gt;Node8 -->
<g id="edge25" class="edge"><title>Node18&#45;&gt;Node8</title>
<path fill="none" stroke="midnightblue" d="M413.885,-95.5341C421.906,-99.2258 430.329,-104.027 437,-110 465.659,-135.662 486.568,-176.222 497.16,-199.958"/>
<polygon fill="midnightblue" stroke="midnightblue" points="494.007,-201.486 501.177,-209.287 500.437,-198.718 494.007,-201.486"/>
</g>
<!-- Node19 -->
<g id="node19" class="node"><title>Node19</title>
<g id="a_node19"><a xlink:href="../../df/da5/rle__putcom_8c.html#a7502c8b599724ce86fee5df1311a2337" target="_top" xlink:title="match">
<polygon fill="white" stroke="black" points="483.5,-76.5 483.5,-95.5 528.5,-95.5 528.5,-76.5 483.5,-76.5"/>
<text text-anchor="middle" x="506" y="-83.5" font-family="Helvetica,sans-Serif" font-size="10.00">match</text>
</a>
</g>
</g>
<!-- Node18&#45;&gt;Node19 -->
<g id="edge26" class="edge"><title>Node18&#45;&gt;Node19</title>
<path fill="none" stroke="midnightblue" d="M420.184,-86C436.735,-86 456.664,-86 473.044,-86"/>
<polygon fill="midnightblue" stroke="midnightblue" points="473.224,-89.5001 483.224,-86 473.224,-82.5001 473.224,-89.5001"/>
</g>
<!-- Node21 -->
<g id="node21" class="node"><title>Node21</title>
<g id="a_node21"><a xlink:href="../../d9/d2a/rle__putrow_8c.html#af88a82b331cd6f425d2a2cc1623944c6" target="_top" xlink:title="rle_put_setup">
<polygon fill="white" stroke="black" points="217,-10.5 217,-29.5 297,-29.5 297,-10.5 217,-10.5"/>
<text text-anchor="middle" x="257" y="-17.5" font-family="Helvetica,sans-Serif" font-size="10.00">rle_put_setup</text>
</a>
</g>
</g>
<!-- Node20&#45;&gt;Node21 -->
<g id="edge28" class="edge"><title>Node20&#45;&gt;Node21</title>
<path fill="none" stroke="midnightblue" d="M175.662,-25.6487C185.686,-24.944 196.282,-24.1989 206.375,-23.4893"/>
<polygon fill="midnightblue" stroke="midnightblue" points="206.936,-26.9585 216.666,-22.7657 206.445,-19.9758 206.936,-26.9585"/>
</g>
<!-- Node22 -->
<g id="node22" class="node"><title>Node22</title>
<g id="a_node22"><a xlink:href="../../d9/d2a/rle__putrow_8c.html#a46d9789104d5d1f09253a808fdad5346" target="_top" xlink:title="rle_put_init">
<polygon fill="white" stroke="black" points="352,-0.5 352,-19.5 420,-19.5 420,-0.5 352,-0.5"/>
<text text-anchor="middle" x="386" y="-7.5" font-family="Helvetica,sans-Serif" font-size="10.00">rle_put_init</text>
</a>
</g>
</g>
<!-- Node21&#45;&gt;Node22 -->
<g id="edge29" class="edge"><title>Node21&#45;&gt;Node22</title>
<path fill="none" stroke="midnightblue" d="M297.14,-16.9181C311.216,-15.8098 327.173,-14.5533 341.59,-13.4181"/>
<polygon fill="midnightblue" stroke="midnightblue" points="342.073,-16.891 351.767,-12.6168 341.523,-9.91263 342.073,-16.891"/>
</g>
<!-- Node23&#45;&gt;Node6 -->
<g id="edge40" class="edge"><title>Node23&#45;&gt;Node6</title>
<path fill="none" stroke="midnightblue" d="M279.124,-351.59C294.349,-358.094 315.555,-366.329 335,-371 384.767,-382.955 444.576,-387.425 478.349,-389.069"/>
<polygon fill="midnightblue" stroke="midnightblue" points="478.209,-392.566 488.354,-389.51 478.517,-385.573 478.209,-392.566"/>
</g>
<!-- Node23&#45;&gt;Node8 -->
<g id="edge31" class="edge"><title>Node23&#45;&gt;Node8</title>
<path fill="none" stroke="midnightblue" d="M275.146,-332.493C282.989,-327.619 292.058,-321.196 299,-314 319.804,-292.437 310.505,-274.255 335,-257 376.18,-227.992 435.737,-220.644 472.326,-219.052"/>
<polygon fill="midnightblue" stroke="midnightblue" points="472.566,-222.546 482.451,-218.733 472.345,-215.549 472.566,-222.546"/>
</g>
<!-- Node24 -->
<g id="node24" class="node"><title>Node24</title>
<g id="a_node24"><a xlink:href="../../da/dbc/rle__row__alc_8c.html#abf83029f1ab364a8cb72524f58d70a3b" target="_top" xlink:title="rle_row_alloc">
<polygon fill="white" stroke="black" points="346,-342.5 346,-361.5 426,-361.5 426,-342.5 346,-342.5"/>
<text text-anchor="middle" x="386" y="-349.5" font-family="Helvetica,sans-Serif" font-size="10.00">rle_row_alloc</text>
</a>
</g>
</g>
<!-- Node23&#45;&gt;Node24 -->
<g id="edge32" class="edge"><title>Node23&#45;&gt;Node24</title>
<path fill="none" stroke="midnightblue" d="M299.233,-345.247C310.773,-346.155 323.436,-347.152 335.406,-348.095"/>
<polygon fill="midnightblue" stroke="midnightblue" points="335.457,-351.61 345.701,-348.906 336.007,-344.631 335.457,-351.61"/>
</g>
<!-- Node25 -->
<g id="node25" class="node"><title>Node25</title>
<g id="a_node25"><a xlink:href="../../d9/d2a/rle__putrow_8c.html#aa26532b01bc4f49b7383765cdc23ea72" target="_top" xlink:title="rle_putrow">
<polygon fill="white" stroke="black" points="353,-266.5 353,-285.5 419,-285.5 419,-266.5 353,-266.5"/>
<text text-anchor="middle" x="386" y="-273.5" font-family="Helvetica,sans-Serif" font-size="10.00">rle_putrow</text>
</a>
</g>
</g>
<!-- Node23&#45;&gt;Node25 -->
<g id="edge35" class="edge"><title>Node23&#45;&gt;Node25</title>
<path fill="none" stroke="midnightblue" d="M276.467,-332.403C297.724,-321.356 332.851,-303.101 357.366,-290.361"/>
<polygon fill="midnightblue" stroke="midnightblue" points="359.251,-293.326 366.511,-285.609 356.024,-287.114 359.251,-293.326"/>
</g>
<!-- Node27 -->
<g id="node27" class="node"><title>Node27</title>
<g id="a_node27"><a xlink:href="../../da/dbc/rle__row__alc_8c.html#a4fa936a985e542d42e91d272f9f6092d" target="_top" xlink:title="rle_row_free">
<polygon fill="white" stroke="black" points="347.5,-456.5 347.5,-475.5 424.5,-475.5 424.5,-456.5 347.5,-456.5"/>
<text text-anchor="middle" x="386" y="-463.5" font-family="Helvetica,sans-Serif" font-size="10.00">rle_row_free</text>
</a>
</g>
</g>
<!-- Node23&#45;&gt;Node27 -->
<g id="edge38" class="edge"><title>Node23&#45;&gt;Node27</title>
<path fill="none" stroke="midnightblue" d="M280.267,-351.726C286.931,-355.45 293.831,-360.221 299,-366 325.263,-395.364 306.387,-419.921 335,-447 336.671,-448.582 338.488,-450.035 340.405,-451.371"/>
<polygon fill="midnightblue" stroke="midnightblue" points="338.911,-454.549 349.325,-456.5 342.401,-448.481 338.911,-454.549"/>
</g>
<!-- Node28 -->
<g id="node28" class="node"><title>Node28</title>
<g id="a_node28"><a xlink:href="../../d9/d2a/rle__putrow_8c.html#af4fab734a5d227ad2ae95840f56fff3b" target="_top" xlink:title="rle_puteof">
<polygon fill="white" stroke="black" points="354,-418.5 354,-437.5 418,-437.5 418,-418.5 354,-418.5"/>
<text text-anchor="middle" x="386" y="-425.5" font-family="Helvetica,sans-Serif" font-size="10.00">rle_puteof</text>
</a>
</g>
</g>
<!-- Node23&#45;&gt;Node28 -->
<g id="edge41" class="edge"><title>Node23&#45;&gt;Node28</title>
<path fill="none" stroke="midnightblue" d="M277.093,-351.695C284.256,-355.706 292.282,-360.667 299,-366 317.221,-380.465 316.201,-390.294 335,-404 339.984,-407.634 345.605,-410.952 351.232,-413.885"/>
<polygon fill="midnightblue" stroke="midnightblue" points="350.072,-417.213 360.595,-418.445 353.137,-410.92 350.072,-417.213"/>
</g>
<!-- Node24&#45;&gt;Node6 -->
<g id="edge34" class="edge"><title>Node24&#45;&gt;Node6</title>
<path fill="none" stroke="midnightblue" d="M416.776,-361.589C435.813,-367.72 460.281,-375.599 478.618,-381.504"/>
<polygon fill="midnightblue" stroke="midnightblue" points="477.768,-384.907 488.359,-384.641 479.914,-378.244 477.768,-384.907"/>
</g>
<!-- Node24&#45;&gt;Node8 -->
<g id="edge33" class="edge"><title>Node24&#45;&gt;Node8</title>
<path fill="none" stroke="midnightblue" d="M395.486,-342.435C415.206,-320.209 464.355,-264.812 489.559,-236.403"/>
<polygon fill="midnightblue" stroke="midnightblue" points="492.254,-238.64 496.272,-228.837 487.017,-233.995 492.254,-238.64"/>
</g>
<!-- Node25&#45;&gt;Node8 -->
<g id="edge36" class="edge"><title>Node25&#45;&gt;Node8</title>
<path fill="none" stroke="midnightblue" d="M406.96,-266.443C416.118,-262.052 427.114,-256.771 437,-252 449.869,-245.789 464.093,-238.891 476.191,-233.015"/>
<polygon fill="midnightblue" stroke="midnightblue" points="477.907,-236.072 485.371,-228.553 474.847,-229.776 477.907,-236.072"/>
</g>
<!-- Node26 -->
<g id="node26" class="node"><title>Node26</title>
<g id="a_node26"><a xlink:href="../../d9/d2a/rle__putrow_8c.html#aaa4133bf4a6cbf287444448497631f26" target="_top" xlink:title="findruns">
<polygon fill="white" stroke="black" points="479,-266.5 479,-285.5 533,-285.5 533,-266.5 479,-266.5"/>
<text text-anchor="middle" x="506" y="-273.5" font-family="Helvetica,sans-Serif" font-size="10.00">findruns</text>
</a>
</g>
</g>
<!-- Node25&#45;&gt;Node26 -->
<g id="edge37" class="edge"><title>Node25&#45;&gt;Node26</title>
<path fill="none" stroke="midnightblue" d="M419.244,-276C434.435,-276 452.629,-276 468.342,-276"/>
<polygon fill="midnightblue" stroke="midnightblue" points="468.757,-279.5 478.757,-276 468.757,-272.5 468.757,-279.5"/>
</g>
<!-- Node27&#45;&gt;Node6 -->
<g id="edge39" class="edge"><title>Node27&#45;&gt;Node6</title>
<path fill="none" stroke="midnightblue" d="M417.104,-456.428C423.851,-453.777 430.832,-450.617 437,-447 456.147,-435.771 475.284,-419.124 488.355,-406.716"/>
<polygon fill="midnightblue" stroke="midnightblue" points="490.921,-409.103 495.656,-399.625 486.044,-404.082 490.921,-409.103"/>
</g>
<!-- Node28&#45;&gt;Node6 -->
<g id="edge42" class="edge"><title>Node28&#45;&gt;Node6</title>
<path fill="none" stroke="midnightblue" d="M416.776,-418.411C435.813,-412.28 460.281,-404.401 478.618,-398.496"/>
<polygon fill="midnightblue" stroke="midnightblue" points="479.914,-401.756 488.359,-395.359 477.768,-395.093 479.914,-401.756"/>
</g>
</g>
</svg>
