<?xml version="1.0" encoding="UTF-8" standalone="no"?>
<!DOCTYPE svg PUBLIC "-//W3C//DTD SVG 1.1//EN"
 "http://www.w3.org/Graphics/SVG/1.1/DTD/svg11.dtd">
<!-- Generated by graphviz version 2.38.0 (20140413.2041)
 -->
<!-- Title: getmex.c Pages: 1 -->
<svg width="303pt" height="84pt"
 viewBox="0.00 0.00 303.00 84.00" xmlns="http://www.w3.org/2000/svg" xmlns:xlink="http://www.w3.org/1999/xlink">
<g id="graph0" class="graph" transform="scale(1 1) rotate(0) translate(4 80)">
<title>getmex.c</title>
<polygon fill="white" stroke="none" points="-4,4 -4,-80 299,-80 299,4 -4,4"/>
<!-- Node1 -->
<g id="node1" class="node"><title>Node1</title>
<polygon fill="#bfbfbf" stroke="black" points="119,-56.5 119,-75.5 178,-75.5 178,-56.5 119,-56.5"/>
<text text-anchor="middle" x="148.5" y="-63.5" font-family="Helvetica,sans-Serif" font-size="10.00">getmex.c</text>
</g>
<!-- Node2 -->
<g id="node2" class="node"><title>Node2</title>
<polygon fill="white" stroke="#bfbfbf" points="0,-0.5 0,-19.5 47,-19.5 47,-0.5 0,-0.5"/>
<text text-anchor="middle" x="23.5" y="-7.5" font-family="Helvetica,sans-Serif" font-size="10.00">stdio.h</text>
</g>
<!-- Node1&#45;&gt;Node2 -->
<g id="edge1" class="edge"><title>Node1&#45;&gt;Node2</title>
<path fill="none" stroke="midnightblue" d="M128.693,-56.4435C108.213,-47.5961 76.0173,-33.6875 52.6353,-23.5865"/>
<polygon fill="midnightblue" stroke="midnightblue" points="53.782,-20.2692 43.214,-19.5164 51.0059,-26.6953 53.782,-20.2692"/>
</g>
<!-- Node3 -->
<g id="node3" class="node"><title>Node3</title>
<polygon fill="white" stroke="#bfbfbf" points="65.5,-0.5 65.5,-19.5 113.5,-19.5 113.5,-0.5 65.5,-0.5"/>
<text text-anchor="middle" x="89.5" y="-7.5" font-family="Helvetica,sans-Serif" font-size="10.00">math.h</text>
</g>
<!-- Node1&#45;&gt;Node3 -->
<g id="edge2" class="edge"><title>Node1&#45;&gt;Node3</title>
<path fill="none" stroke="midnightblue" d="M139.021,-56.324C130.299,-48.3414 117.157,-36.3128 106.602,-26.6529"/>
<polygon fill="midnightblue" stroke="midnightblue" points="108.892,-24.0036 99.1519,-19.8339 104.166,-29.1674 108.892,-24.0036"/>
</g>
<!-- Node4 -->
<g id="node4" class="node"><title>Node4</title>
<polygon fill="white" stroke="#bfbfbf" points="132,-0.5 132,-19.5 165,-19.5 165,-0.5 132,-0.5"/>
<text text-anchor="middle" x="148.5" y="-7.5" font-family="Helvetica,sans-Serif" font-size="10.00">gl.h</text>
</g>
<!-- Node1&#45;&gt;Node4 -->
<g id="edge3" class="edge"><title>Node1&#45;&gt;Node4</title>
<path fill="none" stroke="midnightblue" d="M148.5,-56.083C148.5,-49.0059 148.5,-38.8611 148.5,-29.9865"/>
<polygon fill="midnightblue" stroke="midnightblue" points="152,-29.751 148.5,-19.7511 145,-29.7511 152,-29.751"/>
</g>
<!-- Node5 -->
<g id="node5" class="node"><title>Node5</title>
<polygon fill="white" stroke="#bfbfbf" points="183.5,-0.5 183.5,-19.5 239.5,-19.5 239.5,-0.5 183.5,-0.5"/>
<text text-anchor="middle" x="211.5" y="-7.5" font-family="Helvetica,sans-Serif" font-size="10.00">device.h</text>
</g>
<!-- Node1&#45;&gt;Node5 -->
<g id="edge4" class="edge"><title>Node1&#45;&gt;Node5</title>
<path fill="none" stroke="midnightblue" d="M158.622,-56.324C168.026,-48.2631 182.244,-36.0765 193.569,-26.3695"/>
<polygon fill="midnightblue" stroke="midnightblue" points="195.879,-28.9993 201.194,-19.8339 191.323,-23.6844 195.879,-28.9993"/>
</g>
<!-- Node6 -->
<g id="node6" class="node"><title>Node6</title>
<polygon fill="white" stroke="#bfbfbf" points="258,-0.5 258,-19.5 295,-19.5 295,-0.5 258,-0.5"/>
<text text-anchor="middle" x="276.5" y="-7.5" font-family="Helvetica,sans-Serif" font-size="10.00">rle.h</text>
</g>
<!-- Node1&#45;&gt;Node6 -->
<g id="edge5" class="edge"><title>Node1&#45;&gt;Node6</title>
<path fill="none" stroke="midnightblue" d="M168.782,-56.4435C190.343,-47.3475 224.584,-32.9019 248.662,-22.7442"/>
<polygon fill="midnightblue" stroke="midnightblue" points="250.122,-25.9269 257.975,-18.8151 247.401,-19.4774 250.122,-25.9269"/>
</g>
</g>
</svg>
