<?xml version="1.0" encoding="UTF-8" standalone="no"?>
<!DOCTYPE svg PUBLIC "-//W3C//DTD SVG 1.1//EN"
 "http://www.w3.org/Graphics/SVG/1.1/DTD/svg11.dtd">
<!-- Generated by graphviz version 2.38.0 (20140413.2041)
 -->
<!-- Title: gamma Pages: 1 -->
<svg width="328pt" height="256pt"
 viewBox="0.00 0.00 328.00 256.00" xmlns="http://www.w3.org/2000/svg" xmlns:xlink="http://www.w3.org/1999/xlink">
<g id="graph0" class="graph" transform="scale(1 1) rotate(0) translate(4 252)">
<title>gamma</title>
<polygon fill="white" stroke="none" points="-4,4 -4,-252 324,-252 324,4 -4,4"/>
<!-- Node1 -->
<g id="node1" class="node"><title>Node1</title>
<polygon fill="#bfbfbf" stroke="black" points="0,-114.5 0,-133.5 51,-133.5 51,-114.5 0,-114.5"/>
<text text-anchor="middle" x="25.5" y="-121.5" font-family="Helvetica,sans-Serif" font-size="10.00">gamma</text>
</g>
<!-- Node2 -->
<g id="node2" class="node"><title>Node2</title>
<g id="a_node2"><a xlink:href="../../df/dcf/buildmap_8c.html#a0683647be765d65564fe36af29edea5c" target="_top" xlink:title="buildmap">
<polygon fill="white" stroke="black" points="137,-228.5 137,-247.5 195,-247.5 195,-228.5 137,-228.5"/>
<text text-anchor="middle" x="166" y="-235.5" font-family="Helvetica,sans-Serif" font-size="10.00">buildmap</text>
</a>
</g>
</g>
<!-- Node1&#45;&gt;Node2 -->
<g id="edge1" class="edge"><title>Node1&#45;&gt;Node2</title>
<path fill="none" stroke="midnightblue" d="M33.4929,-143.011C42.4892,-164.758 60.2199,-199.828 87,-219 101.506,-229.385 121.006,-234.135 136.879,-236.289"/>
<polygon fill="midnightblue" stroke="midnightblue" points="36.6857,-141.565 29.7769,-133.533 30.1687,-144.12 36.6857,-141.565"/>
</g>
<!-- Node3 -->
<g id="node3" class="node"><title>Node3</title>
<g id="a_node3"><a xlink:href="../../d9/d3b/get__orion_8c.html#a406deb1e377243ebdf719c427deba5d3" target="_top" xlink:title="init_8_bit_colour_map">
<polygon fill="white" stroke="black" points="106.5,-190.5 106.5,-209.5 225.5,-209.5 225.5,-190.5 106.5,-190.5"/>
<text text-anchor="middle" x="166" y="-197.5" font-family="Helvetica,sans-Serif" font-size="10.00">init_8_bit_colour_map</text>
</a>
</g>
</g>
<!-- Node1&#45;&gt;Node3 -->
<g id="edge2" class="edge"><title>Node1&#45;&gt;Node3</title>
<path fill="none" stroke="midnightblue" d="M40.5325,-141.392C51.7889,-154.203 68.6888,-171.061 87,-181 94.1047,-184.856 101.994,-187.94 109.947,-190.404"/>
<polygon fill="midnightblue" stroke="midnightblue" points="43.1264,-139.039 33.9923,-133.671 37.785,-143.563 43.1264,-139.039"/>
</g>
<!-- Node5 -->
<g id="node5" class="node"><title>Node5</title>
<g id="a_node5"><a xlink:href="../../d9/d3b/get__orion_8c.html#a08786fe2a42c0696925051109f0f60d4" target="_top" xlink:title="init_monochrome_colour_map">
<polygon fill="white" stroke="black" points="87,-152.5 87,-171.5 245,-171.5 245,-152.5 87,-152.5"/>
<text text-anchor="middle" x="166" y="-159.5" font-family="Helvetica,sans-Serif" font-size="10.00">init_monochrome_colour_map</text>
</a>
</g>
</g>
<!-- Node1&#45;&gt;Node5 -->
<g id="edge4" class="edge"><title>Node1&#45;&gt;Node5</title>
<path fill="none" stroke="midnightblue" d="M60.7782,-135.193C69.3119,-137.861 78.4625,-140.622 87,-143 98.8155,-146.291 111.725,-149.564 123.579,-152.443"/>
<polygon fill="midnightblue" stroke="midnightblue" points="61.7073,-131.816 51.1172,-132.132 59.5929,-138.489 61.7073,-131.816"/>
</g>
<!-- Node6 -->
<g id="node6" class="node"><title>Node6</title>
<g id="a_node6"><a xlink:href="../../d6/d28/gettaac_8c.html#ac6c7cb12df36734a7352513af238a386" target="_top" xlink:title="read_file_rgb">
<polygon fill="white" stroke="black" points="126.5,-114.5 126.5,-133.5 205.5,-133.5 205.5,-114.5 126.5,-114.5"/>
<text text-anchor="middle" x="166" y="-121.5" font-family="Helvetica,sans-Serif" font-size="10.00">read_file_rgb</text>
</a>
</g>
</g>
<!-- Node1&#45;&gt;Node6 -->
<g id="edge6" class="edge"><title>Node1&#45;&gt;Node6</title>
<path fill="none" stroke="midnightblue" d="M61.3863,-124C81.1679,-124 105.961,-124 126.334,-124"/>
<polygon fill="midnightblue" stroke="midnightblue" points="61.2611,-120.5 51.261,-124 61.261,-127.5 61.2611,-120.5"/>
</g>
<!-- Node7 -->
<g id="node7" class="node"><title>Node7</title>
<g id="a_node7"><a xlink:href="../../d6/d28/gettaac_8c.html#a803641e408e57eb0d69c043f05374c80" target="_top" xlink:title="read_file_gray">
<polygon fill="white" stroke="black" points="123.5,-76.5 123.5,-95.5 208.5,-95.5 208.5,-76.5 123.5,-76.5"/>
<text text-anchor="middle" x="166" y="-83.5" font-family="Helvetica,sans-Serif" font-size="10.00">read_file_gray</text>
</a>
</g>
</g>
<!-- Node1&#45;&gt;Node7 -->
<g id="edge7" class="edge"><title>Node1&#45;&gt;Node7</title>
<path fill="none" stroke="midnightblue" d="M60.7782,-112.807C69.3119,-110.139 78.4625,-107.378 87,-105 98.8155,-101.709 111.725,-98.436 123.579,-95.5567"/>
<polygon fill="midnightblue" stroke="midnightblue" points="59.5929,-109.511 51.1172,-115.868 61.7073,-116.184 59.5929,-109.511"/>
</g>
<!-- Node8 -->
<g id="node8" class="node"><title>Node8</title>
<g id="a_node8"><a xlink:href="../../d7/d7d/rleldmap_8c.html#a70db8bd1d499619f7ff9c1ca2ff3c8df" target="_top" xlink:title="main">
<polygon fill="white" stroke="black" points="146.5,-38.5 146.5,-57.5 185.5,-57.5 185.5,-38.5 146.5,-38.5"/>
<text text-anchor="middle" x="166" y="-45.5" font-family="Helvetica,sans-Serif" font-size="10.00">main</text>
</a>
</g>
</g>
<!-- Node1&#45;&gt;Node8 -->
<g id="edge8" class="edge"><title>Node1&#45;&gt;Node8</title>
<path fill="none" stroke="midnightblue" d="M40.5325,-106.608C51.7889,-93.7966 68.6888,-76.9388 87,-67 105.742,-56.8274 129.942,-52.0276 146.382,-49.812"/>
<polygon fill="midnightblue" stroke="midnightblue" points="37.785,-104.437 33.9923,-114.329 43.1264,-108.961 37.785,-104.437"/>
</g>
<!-- Node9 -->
<g id="node9" class="node"><title>Node9</title>
<g id="a_node9"><a xlink:href="../../d7/d7d/rleldmap_8c.html#a7e7645599073050beb557d6877851aba" target="_top" xlink:title="gammap">
<polygon fill="white" stroke="black" points="137.5,-0.5 137.5,-19.5 194.5,-19.5 194.5,-0.5 137.5,-0.5"/>
<text text-anchor="middle" x="166" y="-7.5" font-family="Helvetica,sans-Serif" font-size="10.00">gammap</text>
</a>
</g>
</g>
<!-- Node1&#45;&gt;Node9 -->
<g id="edge9" class="edge"><title>Node1&#45;&gt;Node9</title>
<path fill="none" stroke="midnightblue" d="M33.4929,-104.989C42.4892,-83.242 60.2199,-48.1724 87,-29 101.619,-18.5338 121.311,-13.791 137.251,-11.6612"/>
<polygon fill="midnightblue" stroke="midnightblue" points="30.1687,-103.88 29.7769,-114.467 36.6857,-106.435 30.1687,-103.88"/>
</g>
<!-- Node4 -->
<g id="node4" class="node"><title>Node4</title>
<g id="a_node4"><a xlink:href="../../d9/d3b/get__orion_8c.html#a0708a0954f39ecdc7aa901286295ad01" target="_top" xlink:title="main">
<polygon fill="white" stroke="black" points="281,-171.5 281,-190.5 320,-190.5 320,-171.5 281,-171.5"/>
<text text-anchor="middle" x="300.5" y="-178.5" font-family="Helvetica,sans-Serif" font-size="10.00">main</text>
</a>
</g>
</g>
<!-- Node3&#45;&gt;Node4 -->
<g id="edge3" class="edge"><title>Node3&#45;&gt;Node4</title>
<path fill="none" stroke="midnightblue" d="M235.844,-190.128C252.468,-187.744 268.875,-185.392 280.867,-183.672"/>
<polygon fill="midnightblue" stroke="midnightblue" points="234.904,-186.727 225.502,-191.611 235.898,-193.656 234.904,-186.727"/>
</g>
<!-- Node5&#45;&gt;Node4 -->
<g id="edge5" class="edge"><title>Node5&#45;&gt;Node4</title>
<path fill="none" stroke="midnightblue" d="M243.793,-173.012C257.636,-174.997 270.849,-176.892 280.929,-178.337"/>
<polygon fill="midnightblue" stroke="midnightblue" points="244.034,-169.511 233.638,-171.556 243.04,-176.44 244.034,-169.511"/>
</g>
</g>
</svg>
