<?xml version="1.0" encoding="UTF-8" standalone="no"?>
<!DOCTYPE svg PUBLIC "-//W3C//DTD SVG 1.1//EN"
 "http://www.w3.org/Graphics/SVG/1.1/DTD/svg11.dtd">
<!-- Generated by graphviz version 2.38.0 (20140413.2041)
 -->
<!-- Title: rle_raw_alloc Pages: 1 -->
<svg width="205pt" height="142pt"
 viewBox="0.00 0.00 205.00 142.00" xmlns="http://www.w3.org/2000/svg" xmlns:xlink="http://www.w3.org/1999/xlink">
<g id="graph0" class="graph" transform="scale(1 1) rotate(0) translate(4 138)">
<title>rle_raw_alloc</title>
<polygon fill="white" stroke="none" points="-4,4 -4,-138 201,-138 201,4 -4,4"/>
<!-- Node1 -->
<g id="node1" class="node"><title>Node1</title>
<polygon fill="#bfbfbf" stroke="black" points="0,-57.5 0,-76.5 80,-76.5 80,-57.5 0,-57.5"/>
<text text-anchor="middle" x="40" y="-64.5" font-family="Helvetica,sans-Serif" font-size="10.00">rle_raw_alloc</text>
</g>
<!-- Node2 -->
<g id="node2" class="node"><title>Node2</title>
<g id="a_node2"><a xlink:href="../../d9/d55/mergechan_8c.html#a70db8bd1d499619f7ff9c1ca2ff3c8df" target="_top" xlink:title="main">
<polygon fill="white" stroke="black" points="137,-114.5 137,-133.5 176,-133.5 176,-114.5 137,-114.5"/>
<text text-anchor="middle" x="156.5" y="-121.5" font-family="Helvetica,sans-Serif" font-size="10.00">main</text>
</a>
</g>
</g>
<!-- Node1&#45;&gt;Node2 -->
<g id="edge1" class="edge"><title>Node1&#45;&gt;Node2</title>
<path fill="none" stroke="midnightblue" d="M68.912,-81.3142C82.9967,-88.4934 100.368,-97.2812 116,-105 122.823,-108.369 130.343,-112.005 136.974,-115.186"/>
<polygon fill="midnightblue" stroke="midnightblue" points="70.2456,-78.0652 59.7479,-76.6338 67.0617,-84.2993 70.2456,-78.0652"/>
</g>
<!-- Node3 -->
<g id="node3" class="node"><title>Node3</title>
<g id="a_node3"><a xlink:href="../../d4/d28/rle__box_8c.html#a072c32537af62c46c9b3b62552c0656f" target="_top" xlink:title="rle_box">
<polygon fill="white" stroke="black" points="131,-76.5 131,-95.5 182,-95.5 182,-76.5 131,-76.5"/>
<text text-anchor="middle" x="156.5" y="-83.5" font-family="Helvetica,sans-Serif" font-size="10.00">rle_box</text>
</a>
</g>
</g>
<!-- Node1&#45;&gt;Node3 -->
<g id="edge2" class="edge"><title>Node1&#45;&gt;Node3</title>
<path fill="none" stroke="midnightblue" d="M90.1715,-75.1595C104.255,-77.4965 119.004,-79.9439 130.917,-81.9207"/>
<polygon fill="midnightblue" stroke="midnightblue" points="90.5222,-71.6699 80.0842,-73.4856 89.3763,-78.5755 90.5222,-71.6699"/>
</g>
<!-- Node4 -->
<g id="node4" class="node"><title>Node4</title>
<g id="a_node4"><a xlink:href="../../d5/d42/rlezoom_8c.html#a93e7f36e1343b502769244ac9789c0ff" target="_top" xlink:title="integer_zoom">
<polygon fill="white" stroke="black" points="116,-38.5 116,-57.5 197,-57.5 197,-38.5 116,-38.5"/>
<text text-anchor="middle" x="156.5" y="-45.5" font-family="Helvetica,sans-Serif" font-size="10.00">integer_zoom</text>
</a>
</g>
</g>
<!-- Node1&#45;&gt;Node4 -->
<g id="edge3" class="edge"><title>Node1&#45;&gt;Node4</title>
<path fill="none" stroke="midnightblue" d="M90.0264,-58.8646C98.6357,-57.436 107.498,-55.9653 115.814,-54.5855"/>
<polygon fill="midnightblue" stroke="midnightblue" points="89.3763,-55.4245 80.0842,-60.5144 90.5222,-62.3301 89.3763,-55.4245"/>
</g>
<!-- Node5 -->
<g id="node5" class="node"><title>Node5</title>
<g id="a_node5"><a xlink:href="../../df/dfb/unslice_8c.html#a7090aec632931a42b5d606b6db234b9d" target="_top" xlink:title="do_slice">
<polygon fill="white" stroke="black" points="128.5,-0.5 128.5,-19.5 184.5,-19.5 184.5,-0.5 128.5,-0.5"/>
<text text-anchor="middle" x="156.5" y="-7.5" font-family="Helvetica,sans-Serif" font-size="10.00">do_slice</text>
</a>
</g>
</g>
<!-- Node1&#45;&gt;Node5 -->
<g id="edge4" class="edge"><title>Node1&#45;&gt;Node5</title>
<path fill="none" stroke="midnightblue" d="M68.912,-52.6858C82.9967,-45.5066 100.368,-36.7188 116,-29 122.277,-25.9004 129.144,-22.5748 135.366,-19.5859"/>
<polygon fill="midnightblue" stroke="midnightblue" points="67.0617,-49.7007 59.7479,-57.3662 70.2456,-55.9348 67.0617,-49.7007"/>
</g>
</g>
</svg>
