<?xml version="1.0" encoding="UTF-8" standalone="no"?>
<!DOCTYPE svg PUBLIC "-//W3C//DTD SVG 1.1//EN"
 "http://www.w3.org/Graphics/SVG/1.1/DTD/svg11.dtd">
<!-- Generated by graphviz version 2.38.0 (20140413.2041)
 -->
<!-- Title: write_rlb_data Pages: 1 -->
<svg width="311pt" height="161pt"
 viewBox="0.00 0.00 311.00 161.00" xmlns="http://www.w3.org/2000/svg" xmlns:xlink="http://www.w3.org/1999/xlink">
<g id="graph0" class="graph" transform="scale(1 1) rotate(0) translate(4 157)">
<title>write_rlb_data</title>
<polygon fill="white" stroke="none" points="-4,4 -4,-157 307,-157 307,4 -4,4"/>
<!-- Node1 -->
<g id="node1" class="node"><title>Node1</title>
<polygon fill="#bfbfbf" stroke="black" points="0,-76.5 0,-95.5 83,-95.5 83,-76.5 0,-76.5"/>
<text text-anchor="middle" x="41.5" y="-83.5" font-family="Helvetica,sans-Serif" font-size="10.00">write_rlb_data</text>
</g>
<!-- Node2 -->
<g id="node2" class="node"><title>Node2</title>
<g id="a_node2"><a xlink:href="../../d0/dcc/rletorla_8c.html#ab7e36af3707843f77cc5b4e831c2fa6d" target="_top" xlink:title="malloc">
<polygon fill="white" stroke="black" points="245.5,-133.5 245.5,-152.5 292.5,-152.5 292.5,-133.5 245.5,-133.5"/>
<text text-anchor="middle" x="269" y="-140.5" font-family="Helvetica,sans-Serif" font-size="10.00">malloc</text>
</a>
</g>
</g>
<!-- Node1&#45;&gt;Node2 -->
<g id="edge1" class="edge"><title>Node1&#45;&gt;Node2</title>
<path fill="none" stroke="midnightblue" d="M51.2417,-95.6073C64.3779,-109.249 90.7025,-133.617 119,-143 157.327,-155.709 204.311,-152.919 235.146,-148.806"/>
<polygon fill="midnightblue" stroke="midnightblue" points="235.948,-152.227 245.338,-147.32 234.938,-145.3 235.948,-152.227"/>
</g>
<!-- Node3 -->
<g id="node3" class="node"><title>Node3</title>
<g id="a_node3"><a xlink:href="../../da/dbc/rle__row__alc_8c.html#abf83029f1ab364a8cb72524f58d70a3b" target="_top" xlink:title="rle_row_alloc">
<polygon fill="white" stroke="black" points="119,-114.5 119,-133.5 199,-133.5 199,-114.5 119,-114.5"/>
<text text-anchor="middle" x="159" y="-121.5" font-family="Helvetica,sans-Serif" font-size="10.00">rle_row_alloc</text>
</a>
</g>
</g>
<!-- Node1&#45;&gt;Node3 -->
<g id="edge2" class="edge"><title>Node1&#45;&gt;Node3</title>
<path fill="none" stroke="midnightblue" d="M71.6455,-95.589C86.0083,-100.314 103.529,-106.079 119.026,-111.177"/>
<polygon fill="midnightblue" stroke="midnightblue" points="118.271,-114.613 128.864,-114.414 120.459,-107.964 118.271,-114.613"/>
</g>
<!-- Node4 -->
<g id="node4" class="node"><title>Node4</title>
<g id="a_node4"><a xlink:href="../../d0/dcc/rletorla_8c.html#aafde19f7d36ca163a143579c1b125b6d" target="_top" xlink:title="free">
<polygon fill="white" stroke="black" points="251.5,-95.5 251.5,-114.5 286.5,-114.5 286.5,-95.5 251.5,-95.5"/>
<text text-anchor="middle" x="269" y="-102.5" font-family="Helvetica,sans-Serif" font-size="10.00">free</text>
</a>
</g>
</g>
<!-- Node1&#45;&gt;Node4 -->
<g id="edge9" class="edge"><title>Node1&#45;&gt;Node4</title>
<path fill="none" stroke="midnightblue" d="M83.0753,-89.4188C128.858,-93.2763 202.031,-99.4416 241.196,-102.742"/>
<polygon fill="midnightblue" stroke="midnightblue" points="241.031,-106.24 251.29,-103.592 241.619,-99.2647 241.031,-106.24"/>
</g>
<!-- Node5 -->
<g id="node5" class="node"><title>Node5</title>
<g id="a_node5"><a xlink:href="../../db/d53/rle__getrow_8c.html#a3602e1158189cba5e5b0f9b983cba776" target="_top" xlink:title="rle_getrow">
<polygon fill="white" stroke="black" points="125.5,-38.5 125.5,-57.5 192.5,-57.5 192.5,-38.5 125.5,-38.5"/>
<text text-anchor="middle" x="159" y="-45.5" font-family="Helvetica,sans-Serif" font-size="10.00">rle_getrow</text>
</a>
</g>
</g>
<!-- Node1&#45;&gt;Node5 -->
<g id="edge5" class="edge"><title>Node1&#45;&gt;Node5</title>
<path fill="none" stroke="midnightblue" d="M71.6455,-76.411C86.0083,-71.6856 103.529,-65.9211 119.026,-60.8226"/>
<polygon fill="midnightblue" stroke="midnightblue" points="120.459,-64.0359 128.864,-57.5859 118.271,-57.3866 120.459,-64.0359"/>
</g>
<!-- Node8 -->
<g id="node8" class="node"><title>Node8</title>
<g id="a_node8"><a xlink:href="../../d0/dcc/rletorla_8c.html#a5107fa499e60b8359d2880201364bb10" target="_top" xlink:title="encode">
<polygon fill="white" stroke="black" points="133,-0.5 133,-19.5 185,-19.5 185,-0.5 133,-0.5"/>
<text text-anchor="middle" x="159" y="-7.5" font-family="Helvetica,sans-Serif" font-size="10.00">encode</text>
</a>
</g>
</g>
<!-- Node1&#45;&gt;Node8 -->
<g id="edge8" class="edge"><title>Node1&#45;&gt;Node8</title>
<path fill="none" stroke="midnightblue" d="M53.9446,-76.4012C68.498,-64.4521 94.6668,-43.8135 119,-29 121.68,-27.3686 124.52,-25.765 127.398,-24.2234"/>
<polygon fill="midnightblue" stroke="midnightblue" points="129.245,-27.2105 136.566,-19.5522 126.067,-20.9734 129.245,-27.2105"/>
</g>
<!-- Node3&#45;&gt;Node2 -->
<g id="edge3" class="edge"><title>Node3&#45;&gt;Node2</title>
<path fill="none" stroke="midnightblue" d="M199.296,-130.913C211.117,-132.993 223.956,-135.252 235.301,-137.247"/>
<polygon fill="midnightblue" stroke="midnightblue" points="234.773,-140.708 245.228,-138.994 235.986,-133.814 234.773,-140.708"/>
</g>
<!-- Node3&#45;&gt;Node4 -->
<g id="edge4" class="edge"><title>Node3&#45;&gt;Node4</title>
<path fill="none" stroke="midnightblue" d="M199.296,-117.087C213.337,-114.617 228.815,-111.894 241.519,-109.659"/>
<polygon fill="midnightblue" stroke="midnightblue" points="242.203,-113.092 251.446,-107.912 240.99,-106.198 242.203,-113.092"/>
</g>
<!-- Node6 -->
<g id="node6" class="node"><title>Node6</title>
<g id="a_node6"><a xlink:href="../../db/d53/rle__getrow_8c.html#a61ac0da96b0dd8bc3cbc98afcd9b5c44" target="_top" xlink:title="bfill">
<polygon fill="white" stroke="black" points="253,-57.5 253,-76.5 285,-76.5 285,-57.5 253,-57.5"/>
<text text-anchor="middle" x="269" y="-64.5" font-family="Helvetica,sans-Serif" font-size="10.00">bfill</text>
</a>
</g>
</g>
<!-- Node5&#45;&gt;Node6 -->
<g id="edge6" class="edge"><title>Node5&#45;&gt;Node6</title>
<path fill="none" stroke="midnightblue" d="M192.697,-53.7522C208.783,-56.5822 227.874,-59.9408 242.808,-62.5681"/>
<polygon fill="midnightblue" stroke="midnightblue" points="242.39,-66.0482 252.845,-64.3339 243.603,-59.1541 242.39,-66.0482"/>
</g>
<!-- Node7 -->
<g id="node7" class="node"><title>Node7</title>
<g id="a_node7"><a xlink:href="../../d8/d7c/rle__getskip_8c.html#af6b1e1dc0867e9340f90668591c7c5b3" target="_top" xlink:title="rle_getskip">
<polygon fill="white" stroke="black" points="235,-19.5 235,-38.5 303,-38.5 303,-19.5 235,-19.5"/>
<text text-anchor="middle" x="269" y="-26.5" font-family="Helvetica,sans-Serif" font-size="10.00">rle_getskip</text>
</a>
</g>
</g>
<!-- Node5&#45;&gt;Node7 -->
<g id="edge7" class="edge"><title>Node5&#45;&gt;Node7</title>
<path fill="none" stroke="midnightblue" d="M192.697,-42.2478C202.765,-40.4765 214.01,-38.4982 224.676,-36.6218"/>
<polygon fill="midnightblue" stroke="midnightblue" points="225.426,-40.0438 234.668,-34.864 224.213,-33.1496 225.426,-40.0438"/>
</g>
</g>
</svg>
