<?xml version="1.0" encoding="UTF-8" standalone="no"?>
<!DOCTYPE svg PUBLIC "-//W3C//DTD SVG 1.1//EN"
 "http://www.w3.org/Graphics/SVG/1.1/DTD/svg11.dtd">
<!-- Generated by graphviz version 2.38.0 (20140413.2041)
 -->
<!-- Title: encode Pages: 1 -->
<svg width="254pt" height="28pt"
 viewBox="0.00 0.00 254.00 28.00" xmlns="http://www.w3.org/2000/svg" xmlns:xlink="http://www.w3.org/1999/xlink">
<g id="graph0" class="graph" transform="scale(1 1) rotate(0) translate(4 24)">
<title>encode</title>
<polygon fill="white" stroke="none" points="-4,4 -4,-24 250,-24 250,4 -4,4"/>
<!-- Node1 -->
<g id="node1" class="node"><title>Node1</title>
<polygon fill="#bfbfbf" stroke="black" points="0,-0.5 0,-19.5 52,-19.5 52,-0.5 0,-0.5"/>
<text text-anchor="middle" x="26" y="-7.5" font-family="Helvetica,sans-Serif" font-size="10.00">encode</text>
</g>
<!-- Node2 -->
<g id="node2" class="node"><title>Node2</title>
<g id="a_node2"><a xlink:href="../../d0/dcc/rletorla_8c.html#a0f0bafd2d10f5ddf5abbdc19c3d33aee" target="_top" xlink:title="write_rlb_data">
<polygon fill="white" stroke="black" points="88,-0.5 88,-19.5 171,-19.5 171,-0.5 88,-0.5"/>
<text text-anchor="middle" x="129.5" y="-7.5" font-family="Helvetica,sans-Serif" font-size="10.00">write_rlb_data</text>
</a>
</g>
</g>
<!-- Node1&#45;&gt;Node2 -->
<g id="edge1" class="edge"><title>Node1&#45;&gt;Node2</title>
<path fill="none" stroke="midnightblue" d="M62.1906,-10C70.484,-10 79.3912,-10 87.9013,-10"/>
<polygon fill="midnightblue" stroke="midnightblue" points="62.0899,-6.5001 52.0899,-10 62.0899,-13.5001 62.0899,-6.5001"/>
</g>
<!-- Node3 -->
<g id="node3" class="node"><title>Node3</title>
<g id="a_node3"><a xlink:href="../../d0/dcc/rletorla_8c.html#a3c04138a5bfe5d72780bb7e82a18e627" target="_top" xlink:title="main">
<polygon fill="white" stroke="black" points="207,-0.5 207,-19.5 246,-19.5 246,-0.5 207,-0.5"/>
<text text-anchor="middle" x="226.5" y="-7.5" font-family="Helvetica,sans-Serif" font-size="10.00">main</text>
</a>
</g>
</g>
<!-- Node2&#45;&gt;Node3 -->
<g id="edge2" class="edge"><title>Node2&#45;&gt;Node3</title>
<path fill="none" stroke="midnightblue" d="M181.102,-10C190.358,-10 199.456,-10 206.982,-10"/>
<polygon fill="midnightblue" stroke="midnightblue" points="181.064,-6.5001 171.064,-10 181.064,-13.5001 181.064,-6.5001"/>
</g>
</g>
</svg>
