<?xml version="1.0" encoding="UTF-8" standalone="no"?>
<!DOCTYPE svg PUBLIC "-//W3C//DTD SVG 1.1//EN"
 "http://www.w3.org/Graphics/SVG/1.1/DTD/svg11.dtd">
<!-- Generated by graphviz version 2.38.0 (20140413.2041)
 -->
<!-- Title: read_rle_header Pages: 1 -->
<svg width="420pt" height="180pt"
 viewBox="0.00 0.00 420.00 180.00" xmlns="http://www.w3.org/2000/svg" xmlns:xlink="http://www.w3.org/1999/xlink">
<g id="graph0" class="graph" transform="scale(1 1) rotate(0) translate(4 176)">
<title>read_rle_header</title>
<polygon fill="white" stroke="none" points="-4,4 -4,-176 416,-176 416,4 -4,4"/>
<!-- Node1 -->
<g id="node1" class="node"><title>Node1</title>
<polygon fill="#bfbfbf" stroke="black" points="0,-76.5 0,-95.5 96,-95.5 96,-76.5 0,-76.5"/>
<text text-anchor="middle" x="48" y="-83.5" font-family="Helvetica,sans-Serif" font-size="10.00">read_rle_header</text>
</g>
<!-- Node2 -->
<g id="node2" class="node"><title>Node2</title>
<g id="a_node2"><a xlink:href="../../db/d53/rle__getrow_8c.html#a619b27463c26e0a4a3d9648a9869ee52" target="_top" xlink:title="rle_get_setup">
<polygon fill="white" stroke="black" points="132,-76.5 132,-95.5 213,-95.5 213,-76.5 132,-76.5"/>
<text text-anchor="middle" x="172.5" y="-83.5" font-family="Helvetica,sans-Serif" font-size="10.00">rle_get_setup</text>
</a>
</g>
</g>
<!-- Node1&#45;&gt;Node2 -->
<g id="edge1" class="edge"><title>Node1&#45;&gt;Node2</title>
<path fill="none" stroke="midnightblue" d="M96.0114,-86C104.454,-86 113.278,-86 121.794,-86"/>
<polygon fill="midnightblue" stroke="midnightblue" points="121.981,-89.5001 131.981,-86 121.981,-82.5001 121.981,-89.5001"/>
</g>
<!-- Node3 -->
<g id="node3" class="node"><title>Node3</title>
<g id="a_node3"><a xlink:href="../../d2/df3/rle__hdr_8c.html#a16c4da6201b3b8cf55127b9ca968d253" target="_top" xlink:title="rle_hdr_clear">
<polygon fill="white" stroke="black" points="249,-152.5 249,-171.5 329,-171.5 329,-152.5 249,-152.5"/>
<text text-anchor="middle" x="289" y="-159.5" font-family="Helvetica,sans-Serif" font-size="10.00">rle_hdr_clear</text>
</a>
</g>
</g>
<!-- Node2&#45;&gt;Node3 -->
<g id="edge2" class="edge"><title>Node2&#45;&gt;Node3</title>
<path fill="none" stroke="midnightblue" d="M186.997,-95.6068C201.992,-106.207 226.996,-123.666 249,-138 253.546,-140.962 258.441,-144.05 263.174,-146.987"/>
<polygon fill="midnightblue" stroke="midnightblue" points="261.592,-150.123 271.945,-152.375 265.256,-144.158 261.592,-150.123"/>
</g>
<!-- Node4 -->
<g id="node4" class="node"><title>Node4</title>
<g id="a_node4"><a xlink:href="../../d0/dcc/rletorla_8c.html#aafde19f7d36ca163a143579c1b125b6d" target="_top" xlink:title="free">
<polygon fill="white" stroke="black" points="371,-114.5 371,-133.5 406,-133.5 406,-114.5 371,-114.5"/>
<text text-anchor="middle" x="388.5" y="-121.5" font-family="Helvetica,sans-Serif" font-size="10.00">free</text>
</a>
</g>
</g>
<!-- Node2&#45;&gt;Node4 -->
<g id="edge8" class="edge"><title>Node2&#45;&gt;Node4</title>
<path fill="none" stroke="midnightblue" d="M207.9,-95.5069C220.73,-98.8277 235.465,-102.377 249,-105 287.494,-112.46 332.561,-118.071 360.574,-121.196"/>
<polygon fill="midnightblue" stroke="midnightblue" points="360.453,-124.704 370.774,-122.308 361.212,-117.745 360.453,-124.704"/>
</g>
<!-- Node5 -->
<g id="node5" class="node"><title>Node5</title>
<g id="a_node5"><a xlink:href="../../d2/df3/rle__hdr_8c.html#a82e79385f2d45cc3b80ce0f4f369eae5" target="_top" xlink:title="rle_names">
<polygon fill="white" stroke="black" points="256,-76.5 256,-95.5 322,-95.5 322,-76.5 256,-76.5"/>
<text text-anchor="middle" x="289" y="-83.5" font-family="Helvetica,sans-Serif" font-size="10.00">rle_names</text>
</a>
</g>
</g>
<!-- Node2&#45;&gt;Node5 -->
<g id="edge4" class="edge"><title>Node2&#45;&gt;Node5</title>
<path fill="none" stroke="midnightblue" d="M213.225,-86C223.689,-86 235.017,-86 245.615,-86"/>
<polygon fill="midnightblue" stroke="midnightblue" points="245.91,-89.5001 255.91,-86 245.91,-82.5001 245.91,-89.5001"/>
</g>
<!-- Node6 -->
<g id="node6" class="node"><title>Node6</title>
<g id="a_node6"><a xlink:href="../../d0/dcc/rletorla_8c.html#ab7e36af3707843f77cc5b4e831c2fa6d" target="_top" xlink:title="malloc">
<polygon fill="white" stroke="black" points="365,-57.5 365,-76.5 412,-76.5 412,-57.5 365,-57.5"/>
<text text-anchor="middle" x="388.5" y="-64.5" font-family="Helvetica,sans-Serif" font-size="10.00">malloc</text>
</a>
</g>
</g>
<!-- Node2&#45;&gt;Node6 -->
<g id="edge7" class="edge"><title>Node2&#45;&gt;Node6</title>
<path fill="none" stroke="midnightblue" d="M204.031,-76.4949C217.647,-72.7307 233.977,-68.8613 249,-67 284.971,-62.5433 326.602,-63.3351 354.755,-64.7397"/>
<polygon fill="midnightblue" stroke="midnightblue" points="354.667,-68.2401 364.845,-65.2984 355.054,-61.2508 354.667,-68.2401"/>
</g>
<!-- Node7 -->
<g id="node7" class="node"><title>Node7</title>
<g id="a_node7"><a xlink:href="../../db/d53/rle__getrow_8c.html#a0ea68aa2ebeef9d4cade7282553b03d6" target="_top" xlink:title="vax_gshort">
<polygon fill="white" stroke="black" points="254.5,-0.5 254.5,-19.5 323.5,-19.5 323.5,-0.5 254.5,-0.5"/>
<text text-anchor="middle" x="289" y="-7.5" font-family="Helvetica,sans-Serif" font-size="10.00">vax_gshort</text>
</a>
</g>
</g>
<!-- Node2&#45;&gt;Node7 -->
<g id="edge9" class="edge"><title>Node2&#45;&gt;Node7</title>
<path fill="none" stroke="midnightblue" d="M186.997,-76.3932C201.992,-65.7927 226.996,-48.3343 249,-34 253.546,-31.0383 258.441,-27.9499 263.174,-25.0129"/>
<polygon fill="midnightblue" stroke="midnightblue" points="265.256,-27.8416 271.945,-19.6248 261.592,-21.8772 265.256,-27.8416"/>
</g>
<!-- Node3&#45;&gt;Node4 -->
<g id="edge3" class="edge"><title>Node3&#45;&gt;Node4</title>
<path fill="none" stroke="midnightblue" d="M314.603,-152.411C328.904,-146.837 346.914,-139.818 361.454,-134.151"/>
<polygon fill="midnightblue" stroke="midnightblue" points="362.831,-137.371 370.878,-130.478 360.289,-130.849 362.831,-137.371"/>
</g>
<!-- Node5&#45;&gt;Node4 -->
<g id="edge5" class="edge"><title>Node5&#45;&gt;Node4</title>
<path fill="none" stroke="midnightblue" d="M314.603,-95.589C328.904,-101.163 346.914,-108.182 361.454,-113.849"/>
<polygon fill="midnightblue" stroke="midnightblue" points="360.289,-117.151 370.878,-117.522 362.831,-110.629 360.289,-117.151"/>
</g>
<!-- Node5&#45;&gt;Node6 -->
<g id="edge6" class="edge"><title>Node5&#45;&gt;Node6</title>
<path fill="none" stroke="midnightblue" d="M322.195,-79.726C332.679,-77.6831 344.321,-75.4143 354.838,-73.3648"/>
<polygon fill="midnightblue" stroke="midnightblue" points="355.75,-76.7531 364.896,-71.4049 354.411,-69.8823 355.75,-76.7531"/>
</g>
</g>
</svg>
