<?xml version="1.0" encoding="UTF-8" standalone="no"?>
<!DOCTYPE svg PUBLIC "-//W3C//DTD SVG 1.1//EN"
 "http://www.w3.org/Graphics/SVG/1.1/DTD/svg11.dtd">
<!-- Generated by graphviz version 2.38.0 (20140413.2041)
 -->
<!-- Title: main Pages: 1 -->
<!--zoomable 712 -->
<svg id="main" version="1.1" xmlns="http://www.w3.org/2000/svg" xmlns:xlink="http://www.w3.org/1999/xlink" xml:space="preserve" onload="init(evt)">
<style type="text/css"><![CDATA[
.edge:hover path { stroke: red; }
.edge:hover polygon { stroke: red; fill: red; }
]]></style>
<script type="text/javascript"><![CDATA[
var edges = document.getElementsByTagName('g');
if (edges && edges.length) {
  for (var i=0;i<edges.length;i++) {
    if (edges[i].id.substr(0,4)=='edge') {
      edges[i].setAttribute('class','edge');
    }
  }
}
]]></script>
        <defs>
                <circle id="rim" cx="0" cy="0" r="7"/>
                <circle id="rim2" cx="0" cy="0" r="3.5"/>
                <g id="zoomPlus">
                        <use xlink:href="#rim" fill="#404040">
                                <set attributeName="fill" to="#808080" begin="zoomplus.mouseover" end="zoomplus.mouseout"/>
                        </use>
                        <path d="M-4,0h8M0,-4v8" fill="none" stroke="white" stroke-width="1.5" pointer-events="none"/>
                </g>
                <g id="zoomMin">
                        <use xlink:href="#rim" fill="#404040">
                                <set attributeName="fill" to="#808080" begin="zoomminus.mouseover" end="zoomminus.mouseout"/>
                        </use>
                        <path d="M-4,0h8" fill="none" stroke="white" stroke-width="1.5" pointer-events="none"/>
                </g>
                <g id="dirArrow">
                        <path fill="none" stroke="white" stroke-width="1.5" d="M0,-3.0v7 M-2.5,-0.5L0,-3.0L2.5,-0.5"/>
                </g>
               <g id="resetDef">
                       <use xlink:href="#rim2" fill="#404040">
                               <set attributeName="fill" to="#808080" begin="reset.mouseover" end="reset.mouseout"/>
                       </use>
               </g>
        </defs>

<script type="text/javascript">
var viewWidth = 523;
var viewHeight = 712;
var sectionId = 'dynsection-1';
</script>
<script xlink:href="../../svgpan.js"/>
<svg id="graph" class="graph">
<g id="viewport">
<title>main</title>
<polygon fill="white" stroke="none" points="-4,4 -4,-708 519,-708 519,4 -4,4"/>
<!-- Node1 -->
<g id="node1" class="node"><title>Node1</title>
<polygon fill="#bfbfbf" stroke="black" points="0,-304.5 0,-323.5 39,-323.5 39,-304.5 0,-304.5"/>
<text text-anchor="middle" x="19.5" y="-311.5" font-family="Helvetica,sans-Serif" font-size="10.00">main</text>
</g>
<!-- Node2 -->
<g id="node2" class="node"><title>Node2</title>
<g id="a_node2"><a xlink:href="../../d2/df3/rle__hdr_8c.html#a8ba0e5b11d1e39ab7227f1686e676c86" target="_top" xlink:title="rle_hdr_init">
<polygon fill="white" stroke="black" points="80,-380.5 80,-399.5 150,-399.5 150,-380.5 80,-380.5"/>
<text text-anchor="middle" x="115" y="-387.5" font-family="Helvetica,sans-Serif" font-size="10.00">rle_hdr_init</text>
</a>
</g>
</g>
<!-- Node1&#45;&gt;Node2 -->
<g id="edge1" class="edge"><title>Node1&#45;&gt;Node2</title>
<path fill="none" stroke="midnightblue" d="M29.5969,-323.847C39.9958,-334.816 57.8074,-352.745 75,-366 79.0374,-369.113 83.4992,-372.172 87.9195,-375.009"/>
<polygon fill="midnightblue" stroke="midnightblue" points="86.4345,-378.205 96.785,-380.467 90.1042,-372.244 86.4345,-378.205"/>
</g>
<!-- Node5 -->
<g id="node5" class="node"><title>Node5</title>
<g id="a_node5"><a xlink:href="../../d2/df3/rle__hdr_8c.html#afc916e29aea8788e0878ca315ff69821" target="_top" xlink:title="rle_hdr_cp">
<polygon fill="white" stroke="black" points="199,-342.5 199,-361.5 267,-361.5 267,-342.5 199,-342.5"/>
<text text-anchor="middle" x="233" y="-349.5" font-family="Helvetica,sans-Serif" font-size="10.00">rle_hdr_cp</text>
</a>
</g>
</g>
<!-- Node1&#45;&gt;Node5 -->
<g id="edge25" class="edge"><title>Node1&#45;&gt;Node5</title>
<path fill="none" stroke="midnightblue" d="M39.3729,-321.706C49.7312,-325.647 62.8962,-330.192 75,-333 112.846,-341.779 156.822,-346.658 188.588,-349.266"/>
<polygon fill="midnightblue" stroke="midnightblue" points="188.625,-352.78 198.866,-350.066 189.168,-345.801 188.625,-352.78"/>
</g>
<!-- Node7 -->
<g id="node7" class="node"><title>Node7</title>
<g id="a_node7"><a xlink:href="../../d2/df3/rle__hdr_8c.html#a82e79385f2d45cc3b80ce0f4f369eae5" target="_top" xlink:title="rle_names">
<polygon fill="white" stroke="black" points="329,-380.5 329,-399.5 395,-399.5 395,-380.5 329,-380.5"/>
<text text-anchor="middle" x="362" y="-387.5" font-family="Helvetica,sans-Serif" font-size="10.00">rle_names</text>
</a>
</g>
</g>
<!-- Node1&#45;&gt;Node7 -->
<g id="edge18" class="edge"><title>Node1&#45;&gt;Node7</title>
<path fill="none" stroke="midnightblue" d="M22.6081,-323.514C27.6356,-343.62 42.4214,-390.131 75,-409 115.242,-432.307 249.173,-411.454 318.538,-398.499"/>
<polygon fill="midnightblue" stroke="midnightblue" points="319.517,-401.876 328.689,-396.573 318.212,-394.998 319.517,-401.876"/>
</g>
<!-- Node8 -->
<g id="node8" class="node"><title>Node8</title>
<g id="a_node8"><a xlink:href="../../d4/db0/scanargs_8c.html#a7ea6d702c0484056c8504d6ce7fede08" target="_top" xlink:title="scanargs">
<polygon fill="white" stroke="black" points="85,-228.5 85,-247.5 145,-247.5 145,-228.5 85,-228.5"/>
<text text-anchor="middle" x="115" y="-235.5" font-family="Helvetica,sans-Serif" font-size="10.00">scanargs</text>
</a>
</g>
</g>
<!-- Node1&#45;&gt;Node8 -->
<g id="edge10" class="edge"><title>Node1&#45;&gt;Node8</title>
<path fill="none" stroke="midnightblue" d="M29.5969,-304.153C39.9958,-293.184 57.8074,-275.255 75,-262 79.0374,-258.887 83.4992,-255.828 87.9195,-252.991"/>
<polygon fill="midnightblue" stroke="midnightblue" points="90.1042,-255.756 96.785,-247.533 86.4345,-249.795 90.1042,-255.756"/>
</g>
<!-- Node10 -->
<g id="node10" class="node"><title>Node10</title>
<g id="a_node10"><a xlink:href="../../de/d4e/rle__open__f_8c.html#a89733a45961817885603ae01210290b7" target="_top" xlink:title="rle_open_f">
<polygon fill="white" stroke="black" points="199,-570.5 199,-589.5 267,-589.5 267,-570.5 199,-570.5"/>
<text text-anchor="middle" x="233" y="-577.5" font-family="Helvetica,sans-Serif" font-size="10.00">rle_open_f</text>
</a>
</g>
</g>
<!-- Node1&#45;&gt;Node10 -->
<g id="edge12" class="edge"><title>Node1&#45;&gt;Node10</title>
<path fill="none" stroke="midnightblue" d="M20.4979,-323.788C21.0042,-354.671 26.5779,-451.36 75,-508 104.263,-542.229 153.221,-561.076 188.697,-570.809"/>
<polygon fill="midnightblue" stroke="midnightblue" points="188.218,-574.301 198.777,-573.431 189.98,-567.526 188.218,-574.301"/>
</g>
<!-- Node13 -->
<g id="node13" class="node"><title>Node13</title>
<g id="a_node13"><a xlink:href="../../d8/d30/cmd__name_8c.html#a271249070fdd12c176777c77d76f888f" target="_top" xlink:title="cmd_name">
<polygon fill="white" stroke="black" points="81,-190.5 81,-209.5 149,-209.5 149,-190.5 81,-190.5"/>
<text text-anchor="middle" x="115" y="-197.5" font-family="Helvetica,sans-Serif" font-size="10.00">cmd_name</text>
</a>
</g>
</g>
<!-- Node1&#45;&gt;Node13 -->
<g id="edge17" class="edge"><title>Node1&#45;&gt;Node13</title>
<path fill="none" stroke="midnightblue" d="M23.7996,-304.415C30.6483,-285.757 48.0509,-244.189 75,-219 76.4856,-217.611 78.0917,-216.304 79.7763,-215.077"/>
<polygon fill="midnightblue" stroke="midnightblue" points="81.9857,-217.827 88.6594,-209.598 78.3108,-211.869 81.9857,-217.827"/>
</g>
<!-- Node14 -->
<g id="node14" class="node"><title>Node14</title>
<g id="a_node14"><a xlink:href="../../db/d53/rle__getrow_8c.html#a619b27463c26e0a4a3d9648a9869ee52" target="_top" xlink:title="rle_get_setup">
<polygon fill="white" stroke="black" points="192.5,-494.5 192.5,-513.5 273.5,-513.5 273.5,-494.5 192.5,-494.5"/>
<text text-anchor="middle" x="233" y="-501.5" font-family="Helvetica,sans-Serif" font-size="10.00">rle_get_setup</text>
</a>
</g>
</g>
<!-- Node1&#45;&gt;Node14 -->
<g id="edge19" class="edge"><title>Node1&#45;&gt;Node14</title>
<path fill="none" stroke="midnightblue" d="M20.4323,-323.751C20.8047,-352.689 26.1569,-438.64 75,-480 104.272,-504.788 148.09,-509.723 182.003,-509.062"/>
<polygon fill="midnightblue" stroke="midnightblue" points="182.316,-512.553 192.182,-508.693 182.062,-505.558 182.316,-512.553"/>
</g>
<!-- Node16 -->
<g id="node16" class="node"><title>Node16</title>
<g id="a_node16"><a xlink:href="../../d8/def/rle__addhist_8c.html#a4f9433d6e4e203d0ecea1c7d3837afc3" target="_top" xlink:title="rle_addhist">
<polygon fill="white" stroke="black" points="198.5,-228.5 198.5,-247.5 267.5,-247.5 267.5,-228.5 198.5,-228.5"/>
<text text-anchor="middle" x="233" y="-235.5" font-family="Helvetica,sans-Serif" font-size="10.00">rle_addhist</text>
</a>
</g>
</g>
<!-- Node1&#45;&gt;Node16 -->
<g id="edge26" class="edge"><title>Node1&#45;&gt;Node16</title>
<path fill="none" stroke="midnightblue" d="M39.2692,-307.256C74.4008,-294.631 150.626,-267.241 195.979,-250.944"/>
<polygon fill="midnightblue" stroke="midnightblue" points="197.209,-254.221 205.436,-247.545 194.841,-247.633 197.209,-254.221"/>
</g>
<!-- Node21 -->
<g id="node21" class="node"><title>Node21</title>
<g id="a_node21"><a xlink:href="../../d9/d2a/rle__putrow_8c.html#af88a82b331cd6f425d2a2cc1623944c6" target="_top" xlink:title="rle_put_setup">
<polygon fill="white" stroke="black" points="75,-152.5 75,-171.5 155,-171.5 155,-152.5 75,-152.5"/>
<text text-anchor="middle" x="115" y="-159.5" font-family="Helvetica,sans-Serif" font-size="10.00">rle_put_setup</text>
</a>
</g>
</g>
<!-- Node1&#45;&gt;Node21 -->
<g id="edge33" class="edge"><title>Node1&#45;&gt;Node21</title>
<path fill="none" stroke="midnightblue" d="M22.0228,-304.363C26.2474,-280.543 40.1825,-218.136 75,-181 76.2041,-179.716 77.5135,-178.507 78.8989,-177.372"/>
<polygon fill="midnightblue" stroke="midnightblue" points="81.0945,-180.114 87.4607,-171.646 77.2027,-174.296 81.0945,-180.114"/>
</g>
<!-- Node23 -->
<g id="node23" class="node"><title>Node23</title>
<g id="a_node23"><a xlink:href="../../da/dbc/rle__row__alc_8c.html#abf83029f1ab364a8cb72524f58d70a3b" target="_top" xlink:title="rle_row_alloc">
<polygon fill="white" stroke="black" points="322,-418.5 322,-437.5 402,-437.5 402,-418.5 322,-418.5"/>
<text text-anchor="middle" x="362" y="-425.5" font-family="Helvetica,sans-Serif" font-size="10.00">rle_row_alloc</text>
</a>
</g>
</g>
<!-- Node1&#45;&gt;Node23 -->
<g id="edge35" class="edge"><title>Node1&#45;&gt;Node23</title>
<path fill="none" stroke="midnightblue" d="M21.6965,-323.582C25.1315,-346.484 37.3272,-404.254 75,-428 151.081,-475.956 262.671,-456.052 321.439,-440.307"/>
<polygon fill="midnightblue" stroke="midnightblue" points="322.735,-443.58 331.434,-437.532 320.862,-436.835 322.735,-443.58"/>
</g>
<!-- Node24 -->
<g id="node24" class="node"><title>Node24</title>
<g id="a_node24"><a xlink:href="../../db/d53/rle__getrow_8c.html#a3602e1158189cba5e5b0f9b983cba776" target="_top" xlink:title="rle_getrow">
<polygon fill="white" stroke="black" points="81.5,-114.5 81.5,-133.5 148.5,-133.5 148.5,-114.5 81.5,-114.5"/>
<text text-anchor="middle" x="115" y="-121.5" font-family="Helvetica,sans-Serif" font-size="10.00">rle_getrow</text>
</a>
</g>
</g>
<!-- Node1&#45;&gt;Node24 -->
<g id="edge38" class="edge"><title>Node1&#45;&gt;Node24</title>
<path fill="none" stroke="midnightblue" d="M21.0009,-304.215C22.9449,-275.855 32.1997,-192.494 75,-143 76.0161,-141.825 77.1216,-140.716 78.2955,-139.67"/>
<polygon fill="midnightblue" stroke="midnightblue" points="80.6676,-142.279 86.8132,-133.649 76.627,-136.563 80.6676,-142.279"/>
</g>
<!-- Node26 -->
<g id="node26" class="node"><title>Node26</title>
<g id="a_node26"><a xlink:href="../../d8/d7c/rle__getskip_8c.html#af6b1e1dc0867e9340f90668591c7c5b3" target="_top" xlink:title="rle_getskip">
<polygon fill="white" stroke="black" points="199,-76.5 199,-95.5 267,-95.5 267,-76.5 199,-76.5"/>
<text text-anchor="middle" x="233" y="-83.5" font-family="Helvetica,sans-Serif" font-size="10.00">rle_getskip</text>
</a>
</g>
</g>
<!-- Node1&#45;&gt;Node26 -->
<g id="edge44" class="edge"><title>Node1&#45;&gt;Node26</title>
<path fill="none" stroke="midnightblue" d="M21.5873,-304.373C26.014,-266.984 43.9372,-132.138 75,-105 105.73,-78.1522 153.697,-76.0742 188.528,-79.0542"/>
<polygon fill="midnightblue" stroke="midnightblue" points="188.576,-82.5776 198.882,-80.1196 189.293,-75.6143 188.576,-82.5776"/>
</g>
<!-- Node27 -->
<g id="node27" class="node"><title>Node27</title>
<g id="a_node27"><a xlink:href="../../d9/d2a/rle__putrow_8c.html#aa26532b01bc4f49b7383765cdc23ea72" target="_top" xlink:title="rle_putrow">
<polygon fill="white" stroke="black" points="82,-304.5 82,-323.5 148,-323.5 148,-304.5 82,-304.5"/>
<text text-anchor="middle" x="115" y="-311.5" font-family="Helvetica,sans-Serif" font-size="10.00">rle_putrow</text>
</a>
</g>
</g>
<!-- Node1&#45;&gt;Node27 -->
<g id="edge41" class="edge"><title>Node1&#45;&gt;Node27</title>
<path fill="none" stroke="midnightblue" d="M39.4211,-314C48.736,-314 60.3684,-314 71.6552,-314"/>
<polygon fill="midnightblue" stroke="midnightblue" points="71.8472,-317.5 81.8471,-314 71.8471,-310.5 71.8472,-317.5"/>
</g>
<!-- Node29 -->
<g id="node29" class="node"><title>Node29</title>
<g id="a_node29"><a xlink:href="../../da/dbc/rle__row__alc_8c.html#a4fa936a985e542d42e91d272f9f6092d" target="_top" xlink:title="rle_row_free">
<polygon fill="white" stroke="black" points="323.5,-684.5 323.5,-703.5 400.5,-703.5 400.5,-684.5 323.5,-684.5"/>
<text text-anchor="middle" x="362" y="-691.5" font-family="Helvetica,sans-Serif" font-size="10.00">rle_row_free</text>
</a>
</g>
</g>
<!-- Node1&#45;&gt;Node29 -->
<g id="edge45" class="edge"><title>Node1&#45;&gt;Node29</title>
<path fill="none" stroke="midnightblue" d="M21.2633,-323.527C24.9104,-367.011 41.7747,-546.39 75,-590 131.986,-664.798 247.971,-685.86 313.376,-691.751"/>
<polygon fill="midnightblue" stroke="midnightblue" points="313.17,-695.246 323.422,-692.572 313.741,-688.269 313.17,-695.246"/>
</g>
<!-- Node30 -->
<g id="node30" class="node"><title>Node30</title>
<g id="a_node30"><a xlink:href="../../d9/d2a/rle__putrow_8c.html#af4fab734a5d227ad2ae95840f56fff3b" target="_top" xlink:title="rle_puteof">
<polygon fill="white" stroke="black" points="330,-646.5 330,-665.5 394,-665.5 394,-646.5 330,-646.5"/>
<text text-anchor="middle" x="362" y="-653.5" font-family="Helvetica,sans-Serif" font-size="10.00">rle_puteof</text>
</a>
</g>
</g>
<!-- Node1&#45;&gt;Node30 -->
<g id="edge47" class="edge"><title>Node1&#45;&gt;Node30</title>
<path fill="none" stroke="midnightblue" d="M21.6078,-323.62C26.3101,-363.002 45.7285,-511.503 75,-547 136.965,-622.144 256.816,-645.561 319.893,-652.801"/>
<polygon fill="midnightblue" stroke="midnightblue" points="319.565,-656.286 329.88,-653.866 320.307,-649.326 319.565,-656.286"/>
</g>
<!-- Node31 -->
<g id="node31" class="node"><title>Node31</title>
<g id="a_node31"><a xlink:href="../../de/d4e/rle__open__f_8c.html#a4dea203fb8b9eb66db470a1eb5084b51" target="_top" xlink:title="rle_close_f">
<polygon fill="white" stroke="black" points="81,-38.5 81,-57.5 149,-57.5 149,-38.5 81,-38.5"/>
<text text-anchor="middle" x="115" y="-45.5" font-family="Helvetica,sans-Serif" font-size="10.00">rle_close_f</text>
</a>
</g>
</g>
<!-- Node1&#45;&gt;Node31 -->
<g id="edge49" class="edge"><title>Node1&#45;&gt;Node31</title>
<path fill="none" stroke="midnightblue" d="M20.1268,-304.156C19.2886,-269.051 20.6754,-148.042 75,-72 77.3252,-68.7453 80.2428,-65.8429 83.4301,-63.2801"/>
<polygon fill="midnightblue" stroke="midnightblue" points="85.4505,-66.1386 91.7251,-57.6016 81.4963,-60.3624 85.4505,-66.1386"/>
</g>
<!-- Node32 -->
<g id="node32" class="node"><title>Node32</title>
<g id="a_node32"><a xlink:href="../../d7/d24/rle__error_8c.html#af931d686cf3ca715c9b900527f0961c0" target="_top" xlink:title="rle_get_error">
<polygon fill="white" stroke="black" points="75.5,-0.5 75.5,-19.5 154.5,-19.5 154.5,-0.5 75.5,-0.5"/>
<text text-anchor="middle" x="115" y="-7.5" font-family="Helvetica,sans-Serif" font-size="10.00">rle_get_error</text>
</a>
</g>
</g>
<!-- Node1&#45;&gt;Node32 -->
<g id="edge50" class="edge"><title>Node1&#45;&gt;Node32</title>
<path fill="none" stroke="midnightblue" d="M21.1888,-304.455C24.5587,-260.056 40.5582,-74.0061 75,-29 75.9154,-27.8038 76.9259,-26.6785 78.0109,-25.6204"/>
<polygon fill="midnightblue" stroke="midnightblue" points="80.1575,-28.3853 86.0371,-19.5716 75.9445,-22.795 80.1575,-28.3853"/>
</g>
<!-- Node3 -->
<g id="node3" class="node"><title>Node3</title>
<g id="a_node3"><a xlink:href="../../d2/df3/rle__hdr_8c.html#a16c4da6201b3b8cf55127b9ca968d253" target="_top" xlink:title="rle_hdr_clear">
<polygon fill="white" stroke="black" points="322,-456.5 322,-475.5 402,-475.5 402,-456.5 322,-456.5"/>
<text text-anchor="middle" x="362" y="-463.5" font-family="Helvetica,sans-Serif" font-size="10.00">rle_hdr_clear</text>
</a>
</g>
</g>
<!-- Node2&#45;&gt;Node3 -->
<g id="edge2" class="edge"><title>Node2&#45;&gt;Node3</title>
<path fill="none" stroke="midnightblue" d="M147.029,-399.625C191.119,-413.302 271.936,-438.372 320.637,-453.479"/>
<polygon fill="midnightblue" stroke="midnightblue" points="319.635,-456.833 330.223,-456.453 321.708,-450.147 319.635,-456.833"/>
</g>
<!-- Node2&#45;&gt;Node5 -->
<g id="edge4" class="edge"><title>Node2&#45;&gt;Node5</title>
<path fill="none" stroke="midnightblue" d="M131.165,-380.301C145.837,-373.718 168.771,-365.601 189.063,-359.522"/>
<polygon fill="midnightblue" stroke="midnightblue" points="190.13,-362.857 198.764,-356.717 188.185,-356.133 190.13,-362.857"/>
</g>
<!-- Node4 -->
<g id="node4" class="node"><title>Node4</title>
<g id="a_node4"><a xlink:href="../../d0/dcc/rletorla_8c.html#aafde19f7d36ca163a143579c1b125b6d" target="_top" xlink:title="free">
<polygon fill="white" stroke="black" points="464.5,-532.5 464.5,-551.5 499.5,-551.5 499.5,-532.5 464.5,-532.5"/>
<text text-anchor="middle" x="482" y="-539.5" font-family="Helvetica,sans-Serif" font-size="10.00">free</text>
</a>
</g>
</g>
<!-- Node3&#45;&gt;Node4 -->
<g id="edge3" class="edge"><title>Node3&#45;&gt;Node4</title>
<path fill="none" stroke="midnightblue" d="M377.945,-475.625C398.071,-488.588 434.089,-511.786 457.765,-527.035"/>
<polygon fill="midnightblue" stroke="midnightblue" points="455.874,-529.98 466.177,-532.453 459.665,-524.095 455.874,-529.98"/>
</g>
<!-- Node5&#45;&gt;Node2 -->
<g id="edge5" class="edge"><title>Node5&#45;&gt;Node2</title>
<path fill="none" stroke="midnightblue" d="M216.998,-361.626C202.546,-368.126 179.97,-376.14 159.825,-382.211"/>
<polygon fill="midnightblue" stroke="midnightblue" points="158.799,-378.864 150.176,-385.02 160.756,-385.585 158.799,-378.864"/>
</g>
<!-- Node6 -->
<g id="node6" class="node"><title>Node6</title>
<g id="a_node6"><a xlink:href="../../d0/dcc/rletorla_8c.html#ab7e36af3707843f77cc5b4e831c2fa6d" target="_top" xlink:title="malloc">
<polygon fill="white" stroke="black" points="458.5,-361.5 458.5,-380.5 505.5,-380.5 505.5,-361.5 458.5,-361.5"/>
<text text-anchor="middle" x="482" y="-368.5" font-family="Helvetica,sans-Serif" font-size="10.00">malloc</text>
</a>
</g>
</g>
<!-- Node5&#45;&gt;Node6 -->
<g id="edge6" class="edge"><title>Node5&#45;&gt;Node6</title>
<path fill="none" stroke="midnightblue" d="M267.055,-354.543C314.474,-358.19 401.271,-364.867 448.423,-368.494"/>
<polygon fill="midnightblue" stroke="midnightblue" points="448.168,-371.985 458.407,-369.262 448.705,-365.005 448.168,-371.985"/>
</g>
<!-- Node5&#45;&gt;Node7 -->
<g id="edge7" class="edge"><title>Node5&#45;&gt;Node7</title>
<path fill="none" stroke="midnightblue" d="M266.047,-361.589C282.141,-366.404 301.841,-372.299 319.117,-377.468"/>
<polygon fill="midnightblue" stroke="midnightblue" points="318.379,-380.901 328.963,-380.414 320.386,-374.194 318.379,-380.901"/>
</g>
<!-- Node7&#45;&gt;Node4 -->
<g id="edge8" class="edge"><title>Node7&#45;&gt;Node4</title>
<path fill="none" stroke="midnightblue" d="M395.122,-398.201C401.545,-400.892 407.882,-404.414 413,-409 447.953,-440.321 467.47,-493.827 475.908,-522.497"/>
<polygon fill="midnightblue" stroke="midnightblue" points="472.637,-523.798 478.693,-532.492 479.381,-521.919 472.637,-523.798"/>
</g>
<!-- Node7&#45;&gt;Node6 -->
<g id="edge9" class="edge"><title>Node7&#45;&gt;Node6</title>
<path fill="none" stroke="midnightblue" d="M395.244,-384.808C411.589,-382.176 431.41,-378.985 447.877,-376.333"/>
<polygon fill="midnightblue" stroke="midnightblue" points="448.827,-379.726 458.144,-374.68 447.714,-372.815 448.827,-379.726"/>
</g>
<!-- Node9 -->
<g id="node9" class="node"><title>Node9</title>
<g id="a_node9"><a xlink:href="../../d4/db0/scanargs_8c.html#a862219039664df6eb3cfced58addf830" target="_top" xlink:title="_do_scanargs">
<polygon fill="white" stroke="black" points="191,-190.5 191,-209.5 275,-209.5 275,-190.5 191,-190.5"/>
<text text-anchor="middle" x="233" y="-197.5" font-family="Helvetica,sans-Serif" font-size="10.00">_do_scanargs</text>
</a>
</g>
</g>
<!-- Node8&#45;&gt;Node9 -->
<g id="edge11" class="edge"><title>Node8&#45;&gt;Node9</title>
<path fill="none" stroke="midnightblue" d="M145.272,-228.411C159.697,-223.686 177.293,-217.921 192.857,-212.823"/>
<polygon fill="midnightblue" stroke="midnightblue" points="194.324,-216.025 202.738,-209.586 192.145,-209.373 194.324,-216.025"/>
</g>
<!-- Node11 -->
<g id="node11" class="node"><title>Node11</title>
<g id="a_node11"><a xlink:href="../../de/d4e/rle__open__f_8c.html#a5a0e62a00f907fce26e93b2f72adb2b0" target="_top" xlink:title="rle_open_f_noexit">
<polygon fill="white" stroke="black" points="311,-608.5 311,-627.5 413,-627.5 413,-608.5 311,-608.5"/>
<text text-anchor="middle" x="362" y="-615.5" font-family="Helvetica,sans-Serif" font-size="10.00">rle_open_f_noexit</text>
</a>
</g>
</g>
<!-- Node10&#45;&gt;Node11 -->
<g id="edge13" class="edge"><title>Node10&#45;&gt;Node11</title>
<path fill="none" stroke="midnightblue" d="M266.047,-589.589C282.141,-594.404 301.841,-600.299 319.117,-605.468"/>
<polygon fill="midnightblue" stroke="midnightblue" points="318.379,-608.901 328.963,-608.414 320.386,-602.194 318.379,-608.901"/>
</g>
<!-- Node11&#45;&gt;Node4 -->
<g id="edge16" class="edge"><title>Node11&#45;&gt;Node4</title>
<path fill="none" stroke="midnightblue" d="M393.104,-608.428C399.851,-605.777 406.832,-602.617 413,-599 432.147,-587.771 451.284,-571.124 464.355,-558.716"/>
<polygon fill="midnightblue" stroke="midnightblue" points="466.921,-561.103 471.656,-551.625 462.044,-556.082 466.921,-561.103"/>
</g>
<!-- Node11&#45;&gt;Node6 -->
<g id="edge15" class="edge"><title>Node11&#45;&gt;Node6</title>
<path fill="none" stroke="midnightblue" d="M400.136,-608.435C404.919,-605.97 409.397,-602.877 413,-599 441.825,-567.981 468.096,-440.401 477.414,-390.827"/>
<polygon fill="midnightblue" stroke="midnightblue" points="480.902,-391.214 479.277,-380.745 474.019,-389.943 480.902,-391.214"/>
</g>
<!-- Node12 -->
<g id="node12" class="node"><title>Node12</title>
<g id="a_node12"><a xlink:href="../../de/d4e/rle__open__f_8c.html#a84fda810ae9b9bde82a6391d0b264ead" target="_top" xlink:title="my_popen">
<polygon fill="white" stroke="black" points="449,-608.5 449,-627.5 515,-627.5 515,-608.5 449,-608.5"/>
<text text-anchor="middle" x="482" y="-615.5" font-family="Helvetica,sans-Serif" font-size="10.00">my_popen</text>
</a>
</g>
</g>
<!-- Node11&#45;&gt;Node12 -->
<g id="edge14" class="edge"><title>Node11&#45;&gt;Node12</title>
<path fill="none" stroke="midnightblue" d="M413.043,-618C421.523,-618 430.255,-618 438.518,-618"/>
<polygon fill="midnightblue" stroke="midnightblue" points="438.678,-621.5 448.678,-618 438.678,-614.5 438.678,-621.5"/>
</g>
<!-- Node14&#45;&gt;Node3 -->
<g id="edge20" class="edge"><title>Node14&#45;&gt;Node3</title>
<path fill="none" stroke="midnightblue" d="M266.047,-494.411C282.141,-489.596 301.841,-483.701 319.117,-478.532"/>
<polygon fill="midnightblue" stroke="midnightblue" points="320.386,-481.806 328.963,-475.586 318.379,-475.099 320.386,-481.806"/>
</g>
<!-- Node14&#45;&gt;Node4 -->
<g id="edge23" class="edge"><title>Node14&#45;&gt;Node4</title>
<path fill="none" stroke="midnightblue" d="M273.516,-511.495C285.536,-513.691 298.794,-516.03 311,-518 361.449,-526.144 420.572,-534.144 454.125,-538.54"/>
<polygon fill="midnightblue" stroke="midnightblue" points="453.708,-542.015 464.076,-539.837 454.612,-535.074 453.708,-542.015"/>
</g>
<!-- Node14&#45;&gt;Node6 -->
<g id="edge22" class="edge"><title>Node14&#45;&gt;Node6</title>
<path fill="none" stroke="midnightblue" d="M273.597,-509.421C312.235,-512.629 371.149,-511.787 413,-485 447.46,-462.944 466.828,-416.651 475.464,-390.346"/>
<polygon fill="midnightblue" stroke="midnightblue" points="478.828,-391.315 478.433,-380.727 472.139,-389.25 478.828,-391.315"/>
</g>
<!-- Node14&#45;&gt;Node7 -->
<g id="edge21" class="edge"><title>Node14&#45;&gt;Node7</title>
<path fill="none" stroke="midnightblue" d="M239.49,-494.231C250.618,-475.252 277.633,-433.145 311,-409 313.671,-407.067 316.562,-405.305 319.562,-403.704"/>
<polygon fill="midnightblue" stroke="midnightblue" points="321.214,-406.795 328.773,-399.371 318.234,-400.461 321.214,-406.795"/>
</g>
<!-- Node15 -->
<g id="node15" class="node"><title>Node15</title>
<g id="a_node15"><a xlink:href="../../db/d53/rle__getrow_8c.html#a0ea68aa2ebeef9d4cade7282553b03d6" target="_top" xlink:title="vax_gshort">
<polygon fill="white" stroke="black" points="327.5,-570.5 327.5,-589.5 396.5,-589.5 396.5,-570.5 327.5,-570.5"/>
<text text-anchor="middle" x="362" y="-577.5" font-family="Helvetica,sans-Serif" font-size="10.00">vax_gshort</text>
</a>
</g>
</g>
<!-- Node14&#45;&gt;Node15 -->
<g id="edge24" class="edge"><title>Node14&#45;&gt;Node15</title>
<path fill="none" stroke="midnightblue" d="M246.976,-513.625C261.985,-524.552 287.632,-542.597 311,-556 317.061,-559.476 323.703,-562.91 330.11,-566.046"/>
<polygon fill="midnightblue" stroke="midnightblue" points="328.701,-569.252 339.233,-570.398 331.714,-562.934 328.701,-569.252"/>
</g>
<!-- Node16&#45;&gt;Node6 -->
<g id="edge29" class="edge"><title>Node16&#45;&gt;Node6</title>
<path fill="none" stroke="midnightblue" d="M267.618,-247.58C312.309,-260.664 388.499,-284.289 413,-300 435.306,-314.304 455.566,-337.371 468.058,-353.311"/>
<polygon fill="midnightblue" stroke="midnightblue" points="465.321,-355.495 474.162,-361.333 470.892,-351.256 465.321,-355.495"/>
</g>
<!-- Node17 -->
<g id="node17" class="node"><title>Node17</title>
<g id="a_node17"><a xlink:href="../../db/db2/rle__getcom_8c.html#a9cefd612c381bf82c9cdf1f3a3b12dd6" target="_top" xlink:title="rle_getcom">
<polygon fill="white" stroke="black" points="327.5,-190.5 327.5,-209.5 396.5,-209.5 396.5,-190.5 327.5,-190.5"/>
<text text-anchor="middle" x="362" y="-197.5" font-family="Helvetica,sans-Serif" font-size="10.00">rle_getcom</text>
</a>
</g>
</g>
<!-- Node16&#45;&gt;Node17 -->
<g id="edge27" class="edge"><title>Node16&#45;&gt;Node17</title>
<path fill="none" stroke="midnightblue" d="M266.047,-228.411C282.141,-223.596 301.841,-217.701 319.117,-212.532"/>
<polygon fill="midnightblue" stroke="midnightblue" points="320.386,-215.806 328.963,-209.586 318.379,-209.099 320.386,-215.806"/>
</g>
<!-- Node19 -->
<g id="node19" class="node"><title>Node19</title>
<g id="a_node19"><a xlink:href="../../df/da5/rle__putcom_8c.html#a6fa8528c32d14763efe2a534e409e321" target="_top" xlink:title="rle_putcom">
<polygon fill="white" stroke="black" points="328,-228.5 328,-247.5 396,-247.5 396,-228.5 328,-228.5"/>
<text text-anchor="middle" x="362" y="-235.5" font-family="Helvetica,sans-Serif" font-size="10.00">rle_putcom</text>
</a>
</g>
</g>
<!-- Node16&#45;&gt;Node19 -->
<g id="edge30" class="edge"><title>Node16&#45;&gt;Node19</title>
<path fill="none" stroke="midnightblue" d="M267.7,-238C282.891,-238 301.024,-238 317.248,-238"/>
<polygon fill="midnightblue" stroke="midnightblue" points="317.583,-241.5 327.583,-238 317.583,-234.5 317.583,-241.5"/>
</g>
<!-- Node18 -->
<g id="node18" class="node"><title>Node18</title>
<g id="a_node18"><a xlink:href="../../db/db2/rle__getcom_8c.html#a7502c8b599724ce86fee5df1311a2337" target="_top" xlink:title="match">
<polygon fill="white" stroke="black" points="459.5,-190.5 459.5,-209.5 504.5,-209.5 504.5,-190.5 459.5,-190.5"/>
<text text-anchor="middle" x="482" y="-197.5" font-family="Helvetica,sans-Serif" font-size="10.00">match</text>
</a>
</g>
</g>
<!-- Node17&#45;&gt;Node18 -->
<g id="edge28" class="edge"><title>Node17&#45;&gt;Node18</title>
<path fill="none" stroke="midnightblue" d="M396.814,-200C413.35,-200 433.136,-200 449.37,-200"/>
<polygon fill="midnightblue" stroke="midnightblue" points="449.456,-203.5 459.456,-200 449.456,-196.5 449.456,-203.5"/>
</g>
<!-- Node19&#45;&gt;Node6 -->
<g id="edge31" class="edge"><title>Node19&#45;&gt;Node6</title>
<path fill="none" stroke="midnightblue" d="M389.885,-247.534C397.906,-251.226 406.329,-256.027 413,-262 441.659,-287.662 462.568,-328.222 473.16,-351.958"/>
<polygon fill="midnightblue" stroke="midnightblue" points="470.007,-353.486 477.177,-361.287 476.437,-350.718 470.007,-353.486"/>
</g>
<!-- Node20 -->
<g id="node20" class="node"><title>Node20</title>
<g id="a_node20"><a xlink:href="../../df/da5/rle__putcom_8c.html#a7502c8b599724ce86fee5df1311a2337" target="_top" xlink:title="match">
<polygon fill="white" stroke="black" points="459.5,-228.5 459.5,-247.5 504.5,-247.5 504.5,-228.5 459.5,-228.5"/>
<text text-anchor="middle" x="482" y="-235.5" font-family="Helvetica,sans-Serif" font-size="10.00">match</text>
</a>
</g>
</g>
<!-- Node19&#45;&gt;Node20 -->
<g id="edge32" class="edge"><title>Node19&#45;&gt;Node20</title>
<path fill="none" stroke="midnightblue" d="M396.184,-238C412.735,-238 432.664,-238 449.044,-238"/>
<polygon fill="midnightblue" stroke="midnightblue" points="449.224,-241.5 459.224,-238 449.224,-234.5 449.224,-241.5"/>
</g>
<!-- Node22 -->
<g id="node22" class="node"><title>Node22</title>
<g id="a_node22"><a xlink:href="../../d9/d2a/rle__putrow_8c.html#a46d9789104d5d1f09253a808fdad5346" target="_top" xlink:title="rle_put_init">
<polygon fill="white" stroke="black" points="199,-152.5 199,-171.5 267,-171.5 267,-152.5 199,-152.5"/>
<text text-anchor="middle" x="233" y="-159.5" font-family="Helvetica,sans-Serif" font-size="10.00">rle_put_init</text>
</a>
</g>
</g>
<!-- Node21&#45;&gt;Node22 -->
<g id="edge34" class="edge"><title>Node21&#45;&gt;Node22</title>
<path fill="none" stroke="midnightblue" d="M155.272,-162C166.031,-162 177.753,-162 188.722,-162"/>
<polygon fill="midnightblue" stroke="midnightblue" points="188.953,-165.5 198.953,-162 188.953,-158.5 188.953,-165.5"/>
</g>
<!-- Node23&#45;&gt;Node4 -->
<g id="edge37" class="edge"><title>Node23&#45;&gt;Node4</title>
<path fill="none" stroke="midnightblue" d="M396.458,-437.569C402.297,-440.093 408.071,-443.203 413,-447 440.05,-467.836 460.929,-502.348 472.056,-523.541"/>
<polygon fill="midnightblue" stroke="midnightblue" points="468.953,-525.161 476.594,-532.5 475.198,-521.998 468.953,-525.161"/>
</g>
<!-- Node23&#45;&gt;Node6 -->
<g id="edge36" class="edge"><title>Node23&#45;&gt;Node6</title>
<path fill="none" stroke="midnightblue" d="M390.288,-418.457C397.745,-415.627 405.762,-412.375 413,-409 427.893,-402.055 443.967,-393.142 456.747,-385.694"/>
<polygon fill="midnightblue" stroke="midnightblue" points="458.576,-388.678 465.406,-380.578 455.016,-382.651 458.576,-388.678"/>
</g>
<!-- Node25 -->
<g id="node25" class="node"><title>Node25</title>
<g id="a_node25"><a xlink:href="../../db/d53/rle__getrow_8c.html#a61ac0da96b0dd8bc3cbc98afcd9b5c44" target="_top" xlink:title="bfill">
<polygon fill="white" stroke="black" points="217,-114.5 217,-133.5 249,-133.5 249,-114.5 217,-114.5"/>
<text text-anchor="middle" x="233" y="-121.5" font-family="Helvetica,sans-Serif" font-size="10.00">bfill</text>
</a>
</g>
</g>
<!-- Node24&#45;&gt;Node25 -->
<g id="edge39" class="edge"><title>Node24&#45;&gt;Node25</title>
<path fill="none" stroke="midnightblue" d="M148.621,-124C166.981,-124 189.568,-124 206.6,-124"/>
<polygon fill="midnightblue" stroke="midnightblue" points="206.89,-127.5 216.89,-124 206.89,-120.5 206.89,-127.5"/>
</g>
<!-- Node24&#45;&gt;Node26 -->
<g id="edge40" class="edge"><title>Node24&#45;&gt;Node26</title>
<path fill="none" stroke="midnightblue" d="M145.272,-114.411C159.697,-109.686 177.293,-103.921 192.857,-98.8226"/>
<polygon fill="midnightblue" stroke="midnightblue" points="194.324,-102.025 202.738,-95.5859 192.145,-95.373 194.324,-102.025"/>
</g>
<!-- Node27&#45;&gt;Node6 -->
<g id="edge42" class="edge"><title>Node27&#45;&gt;Node6</title>
<path fill="none" stroke="midnightblue" d="M148.308,-316.98C203.103,-322.34 317.608,-334.862 413,-354 424.693,-356.346 437.398,-359.387 448.627,-362.247"/>
<polygon fill="midnightblue" stroke="midnightblue" points="447.895,-365.673 458.454,-364.798 449.654,-358.898 447.895,-365.673"/>
</g>
<!-- Node28 -->
<g id="node28" class="node"><title>Node28</title>
<g id="a_node28"><a xlink:href="../../d9/d2a/rle__putrow_8c.html#aaa4133bf4a6cbf287444448497631f26" target="_top" xlink:title="findruns">
<polygon fill="white" stroke="black" points="206,-266.5 206,-285.5 260,-285.5 260,-266.5 206,-266.5"/>
<text text-anchor="middle" x="233" y="-273.5" font-family="Helvetica,sans-Serif" font-size="10.00">findruns</text>
</a>
</g>
</g>
<!-- Node27&#45;&gt;Node28 -->
<g id="edge43" class="edge"><title>Node27&#45;&gt;Node28</title>
<path fill="none" stroke="midnightblue" d="M145.272,-304.411C160.723,-299.349 179.814,-293.095 196.148,-287.745"/>
<polygon fill="midnightblue" stroke="midnightblue" points="197.491,-290.988 205.904,-284.549 195.311,-284.336 197.491,-290.988"/>
</g>
<!-- Node29&#45;&gt;Node4 -->
<g id="edge46" class="edge"><title>Node29&#45;&gt;Node4</title>
<path fill="none" stroke="midnightblue" d="M398.594,-684.413C403.822,-681.934 408.839,-678.844 413,-675 440.454,-649.639 431.841,-632.204 449,-599 455.77,-585.9 463.911,-571.413 470.288,-560.323"/>
<polygon fill="midnightblue" stroke="midnightblue" points="473.374,-561.978 475.359,-551.571 467.317,-558.469 473.374,-561.978"/>
</g>
<!-- Node30&#45;&gt;Node4 -->
<g id="edge48" class="edge"><title>Node30&#45;&gt;Node4</title>
<path fill="none" stroke="midnightblue" d="M394.104,-647.417C400.731,-644.731 407.409,-641.307 413,-637 440.05,-616.164 460.929,-581.652 472.056,-560.459"/>
<polygon fill="midnightblue" stroke="midnightblue" points="475.198,-562.002 476.594,-551.5 468.953,-558.839 475.198,-562.002"/>
</g>
</g>
</svg>
        <g id="navigator" transform="translate(0 0)" fill="#404254">
                <rect fill="#f2f5e9" fill-opacity="0.5" stroke="#606060" stroke-width=".5" x="0" y="0" width="60" height="60"/>
                <use id="zoomplus" xlink:href="#zoomPlus" x="17" y="9" onmousedown="handleZoom(evt,'in')"/>
                <use id="zoomminus" xlink:href="#zoomMin" x="42" y="9" onmousedown="handleZoom(evt,'out')"/>
                <use id="reset" xlink:href="#resetDef" x="30" y="36" onmousedown="handleReset()"/>
                <g id="arrowUp" xlink:href="#dirArrow" transform="translate(30 24)" onmousedown="handlePan(0,-1)">
                  <use xlink:href="#rim" fill="#404040">
                        <set attributeName="fill" to="#808080" begin="arrowUp.mouseover" end="arrowUp.mouseout"/>
                  </use>
                  <path fill="none" stroke="white" stroke-width="1.5" d="M0,-3.0v7 M-2.5,-0.5L0,-3.0L2.5,-0.5"/>
                </g>
                <g id="arrowRight" xlink:href="#dirArrow" transform="rotate(90) translate(36 -43)" onmousedown="handlePan(1,0)">
                  <use xlink:href="#rim" fill="#404040">
                        <set attributeName="fill" to="#808080" begin="arrowRight.mouseover" end="arrowRight.mouseout"/>
                  </use>
                  <path fill="none" stroke="white" stroke-width="1.5" d="M0,-3.0v7 M-2.5,-0.5L0,-3.0L2.5,-0.5"/>
                </g>
                <g id="arrowDown" xlink:href="#dirArrow" transform="rotate(180) translate(-30 -48)" onmousedown="handlePan(0,1)">
                  <use xlink:href="#rim" fill="#404040">
                        <set attributeName="fill" to="#808080" begin="arrowDown.mouseover" end="arrowDown.mouseout"/>
                  </use>
                  <path fill="none" stroke="white" stroke-width="1.5" d="M0,-3.0v7 M-2.5,-0.5L0,-3.0L2.5,-0.5"/>
                </g>
                <g id="arrowLeft" xlink:href="#dirArrow" transform="rotate(270) translate(-36 17)" onmousedown="handlePan(-1,0)">
                  <use xlink:href="#rim" fill="#404040">
                        <set attributeName="fill" to="#808080" begin="arrowLeft.mouseover" end="arrowLeft.mouseout"/>
                  </use>
                  <path fill="none" stroke="white" stroke-width="1.5" d="M0,-3.0v7 M-2.5,-0.5L0,-3.0L2.5,-0.5"/>
                </g>
        </g>
        <svg viewBox="0 0 15 15" width="100%" height="30px" preserveAspectRatio="xMaxYMin meet">
         <g id="arrow_out" transform="scale(0.3 0.3)">
          <a xlink:href="rleskel_8c_a5ea466849f21e6c2be4ef9b2eb8868d3_cgraph_org.svg" target="_base">
           <rect id="button" ry="5" rx="5" y="6" x="6" height="38" width="38"
                fill="#f2f5e9" fill-opacity="0.5" stroke="#606060" stroke-width="1.0"/>
           <path id="arrow"
             d="M 11.500037,31.436501 C 11.940474,20.09759 22.043105,11.32322 32.158766,21.979434 L 37.068811,17.246167 C 37.068811,17.246167 37.088388,32 37.088388,32 L 22.160133,31.978069 C 22.160133,31.978069 26.997745,27.140456 26.997745,27.140456 C 18.528582,18.264221 13.291696,25.230495 11.500037,31.436501 z"
             style="fill:#404040;"/>
          </a>
         </g>
        </svg>
</svg>
