<?xml version="1.0" encoding="UTF-8" standalone="no"?>
<!DOCTYPE svg PUBLIC "-//W3C//DTD SVG 1.1//EN"
 "http://www.w3.org/Graphics/SVG/1.1/DTD/svg11.dtd">
<!-- Generated by graphviz version 2.38.0 (20140413.2041)
 -->
<!-- Title: rle_op Pages: 1 -->
<svg width="183pt" height="128pt"
 viewBox="0.00 0.00 182.50 128.00" xmlns="http://www.w3.org/2000/svg" xmlns:xlink="http://www.w3.org/1999/xlink">
<g id="graph0" class="graph" transform="scale(1 1) rotate(0) translate(4 124)">
<title>rle_op</title>
<polygon fill="white" stroke="none" points="-4,4 -4,-124 178.5,-124 178.5,4 -4,4"/>
<!-- Node1 -->
<g id="node1" class="node"><title>Node1</title>
<polygon fill="#bfbfbf" stroke="black" points="56,-0.5 56,-19.5 103,-19.5 103,-0.5 56,-0.5"/>
<text text-anchor="middle" x="79.5" y="-7.5" font-family="Helvetica,sans-Serif" font-size="10.00">rle_op</text>
</g>
<!-- Node2 -->
<g id="node2" class="node"><title>Node2</title>
<polygon fill="white" stroke="#bfbfbf" points="0,-100.5 0,-119.5 29,-119.5 29,-100.5 0,-100.5"/>
<text text-anchor="middle" x="14.5" y="-107.5" font-family="Helvetica,sans-Serif" font-size="10.00"> </text>
</g>
<!-- Node2&#45;&gt;Node1 -->
<g id="edge1" class="edge"><title>Node2&#45;&gt;Node1</title>
<path fill="none" stroke="#9a32cd" stroke-dasharray="5,2" d="M25.8051,-91.9554C39.8165,-70.8305 63.1483,-35.6533 73.8374,-19.5374"/>
<polygon fill="#9a32cd" stroke="#9a32cd" points="22.879,-90.035 20.2683,-100.303 28.7125,-93.9042 22.879,-90.035"/>
<text text-anchor="middle" x="64" y="-57.5" font-family="Helvetica,sans-Serif" font-size="10.00"> u</text>
</g>
<!-- Node3 -->
<g id="node3" class="node"><title>Node3</title>
<polygon fill="white" stroke="#bfbfbf" points="47,-100.5 47,-119.5 112,-119.5 112,-100.5 47,-100.5"/>
<text text-anchor="middle" x="79.5" y="-107.5" font-family="Helvetica,sans-Serif" font-size="10.00">rle_pixel *</text>
</g>
<!-- Node3&#45;&gt;Node1 -->
<g id="edge2" class="edge"><title>Node3&#45;&gt;Node1</title>
<path fill="none" stroke="#9a32cd" stroke-dasharray="5,2" d="M79.5,-90.2203C79.5,-68.9514 79.5,-35.2197 79.5,-19.5374"/>
<polygon fill="#9a32cd" stroke="#9a32cd" points="76.0001,-90.3031 79.5,-100.303 83.0001,-90.3032 76.0001,-90.3031"/>
<text text-anchor="middle" x="95" y="-57.5" font-family="Helvetica,sans-Serif" font-size="10.00"> pixels</text>
</g>
<!-- Node4 -->
<g id="node4" class="node"><title>Node4</title>
<polygon fill="white" stroke="#bfbfbf" points="130,-100.5 130,-119.5 159,-119.5 159,-100.5 130,-100.5"/>
<text text-anchor="middle" x="144.5" y="-107.5" font-family="Helvetica,sans-Serif" font-size="10.00">int</text>
</g>
<!-- Node4&#45;&gt;Node1 -->
<g id="edge3" class="edge"><title>Node4&#45;&gt;Node1</title>
<path fill="none" stroke="#9a32cd" stroke-dasharray="5,2" d="M139.602,-90.6389C134.913,-75.4459 126.728,-53.8621 114.5,-38 108.877,-30.7065 100.836,-24.3181 93.8779,-19.5887"/>
<polygon fill="#9a32cd" stroke="#9a32cd" points="136.281,-91.7545 142.406,-100.399 143.008,-89.8213 136.281,-91.7545"/>
<text text-anchor="middle" x="155.5" y="-74" font-family="Helvetica,sans-Serif" font-size="10.00"> run_val</text>
<text text-anchor="middle" x="155.5" y="-63" font-family="Helvetica,sans-Serif" font-size="10.00">length</text>
<text text-anchor="middle" x="155.5" y="-52" font-family="Helvetica,sans-Serif" font-size="10.00">xloc</text>
<text text-anchor="middle" x="155.5" y="-41" font-family="Helvetica,sans-Serif" font-size="10.00">opcode</text>
</g>
</g>
</svg>
