<?xml version="1.0" encoding="UTF-8" standalone="no"?>
<!DOCTYPE svg PUBLIC "-//W3C//DTD SVG 1.1//EN"
 "http://www.w3.org/Graphics/SVG/1.1/DTD/svg11.dtd">
<!-- Generated by graphviz version 2.38.0 (20140413.2041)
 -->
<!-- Title: match Pages: 1 -->
<!--zoomable 446 -->
<svg id="main" version="1.1" xmlns="http://www.w3.org/2000/svg" xmlns:xlink="http://www.w3.org/1999/xlink" xml:space="preserve" onload="init(evt)">
<style type="text/css"><![CDATA[
.edge:hover path { stroke: red; }
.edge:hover polygon { stroke: red; fill: red; }
]]></style>
<script type="text/javascript"><![CDATA[
var edges = document.getElementsByTagName('g');
if (edges && edges.length) {
  for (var i=0;i<edges.length;i++) {
    if (edges[i].id.substr(0,4)=='edge') {
      edges[i].setAttribute('class','edge');
    }
  }
}
]]></script>
        <defs>
                <circle id="rim" cx="0" cy="0" r="7"/>
                <circle id="rim2" cx="0" cy="0" r="3.5"/>
                <g id="zoomPlus">
                        <use xlink:href="#rim" fill="#404040">
                                <set attributeName="fill" to="#808080" begin="zoomplus.mouseover" end="zoomplus.mouseout"/>
                        </use>
                        <path d="M-4,0h8M0,-4v8" fill="none" stroke="white" stroke-width="1.5" pointer-events="none"/>
                </g>
                <g id="zoomMin">
                        <use xlink:href="#rim" fill="#404040">
                                <set attributeName="fill" to="#808080" begin="zoomminus.mouseover" end="zoomminus.mouseout"/>
                        </use>
                        <path d="M-4,0h8" fill="none" stroke="white" stroke-width="1.5" pointer-events="none"/>
                </g>
                <g id="dirArrow">
                        <path fill="none" stroke="white" stroke-width="1.5" d="M0,-3.0v7 M-2.5,-0.5L0,-3.0L2.5,-0.5"/>
                </g>
               <g id="resetDef">
                       <use xlink:href="#rim2" fill="#404040">
                               <set attributeName="fill" to="#808080" begin="reset.mouseover" end="reset.mouseout"/>
                       </use>
               </g>
        </defs>

<script type="text/javascript">
var viewWidth = 692;
var viewHeight = 446;
var sectionId = 'dynsection-1';
</script>
<script xlink:href="../../svgpan.js"/>
<svg id="graph" class="graph">
<g id="viewport">
<title>match</title>
<polygon fill="white" stroke="none" points="-4,4 -4,-442 688,-442 688,4 -4,4"/>
<!-- Node1 -->
<g id="node1" class="node"><title>Node1</title>
<polygon fill="#bfbfbf" stroke="black" points="0,-209.5 0,-228.5 45,-228.5 45,-209.5 0,-209.5"/>
<text text-anchor="middle" x="22.5" y="-216.5" font-family="Helvetica,sans-Serif" font-size="10.00">match</text>
</g>
<!-- Node2 -->
<g id="node2" class="node"><title>Node2</title>
<g id="a_node2"><a xlink:href="../../db/db2/rle__getcom_8c.html#a9cefd612c381bf82c9cdf1f3a3b12dd6" target="_top" xlink:title="rle_getcom">
<polygon fill="white" stroke="black" points="81,-209.5 81,-228.5 150,-228.5 150,-209.5 81,-209.5"/>
<text text-anchor="middle" x="115.5" y="-216.5" font-family="Helvetica,sans-Serif" font-size="10.00">rle_getcom</text>
</a>
</g>
</g>
<!-- Node1&#45;&gt;Node2 -->
<g id="edge1" class="edge"><title>Node1&#45;&gt;Node2</title>
<path fill="none" stroke="midnightblue" d="M55.1741,-219C63.52,-219 72.5515,-219 80.9905,-219"/>
<polygon fill="midnightblue" stroke="midnightblue" points="55.0658,-215.5 45.0657,-219 55.0657,-222.5 55.0658,-215.5"/>
</g>
<!-- Node3 -->
<g id="node3" class="node"><title>Node3</title>
<g id="a_node3"><a xlink:href="../../df/dcf/buildmap_8c.html#a0683647be765d65564fe36af29edea5c" target="_top" xlink:title="buildmap">
<polygon fill="white" stroke="black" points="210.5,-418.5 210.5,-437.5 268.5,-437.5 268.5,-418.5 210.5,-418.5"/>
<text text-anchor="middle" x="239.5" y="-425.5" font-family="Helvetica,sans-Serif" font-size="10.00">buildmap</text>
</a>
</g>
</g>
<!-- Node2&#45;&gt;Node3 -->
<g id="edge2" class="edge"><title>Node2&#45;&gt;Node3</title>
<path fill="none" stroke="midnightblue" d="M118.33,-239.144C122.86,-277.43 137.976,-361.141 186,-409 192.591,-415.569 201.622,-419.883 210.335,-422.709"/>
<polygon fill="midnightblue" stroke="midnightblue" points="121.769,-238.388 117.239,-228.811 114.808,-239.123 121.769,-238.388"/>
</g>
<!-- Node4 -->
<g id="node4" class="node"><title>Node4</title>
<g id="a_node4"><a xlink:href="../../dc/d11/getami_8c.html#aa654afe741816fa93d1cd7e49ef583ec" target="_top" xlink:title="find_most_used">
<polygon fill="white" stroke="black" points="194,-380.5 194,-399.5 285,-399.5 285,-380.5 194,-380.5"/>
<text text-anchor="middle" x="239.5" y="-387.5" font-family="Helvetica,sans-Serif" font-size="10.00">find_most_used</text>
</a>
</g>
</g>
<!-- Node2&#45;&gt;Node4 -->
<g id="edge3" class="edge"><title>Node2&#45;&gt;Node4</title>
<path fill="none" stroke="midnightblue" d="M120.338,-238.643C127.594,-270.716 146.298,-334.413 186,-371 190.206,-374.876 195.261,-377.974 200.552,-380.447"/>
<polygon fill="midnightblue" stroke="midnightblue" points="123.731,-237.77 118.233,-228.714 116.883,-239.222 123.731,-237.77"/>
</g>
<!-- Node6 -->
<g id="node6" class="node"><title>Node6</title>
<g id="a_node6"><a xlink:href="../../dc/d11/getami_8c.html#a3a79557c0de5078d1ea9206ce5eb3e77" target="_top" xlink:title="display_rle">
<polygon fill="white" stroke="black" points="205.5,-342.5 205.5,-361.5 273.5,-361.5 273.5,-342.5 205.5,-342.5"/>
<text text-anchor="middle" x="239.5" y="-349.5" font-family="Helvetica,sans-Serif" font-size="10.00">display_rle</text>
</a>
</g>
</g>
<!-- Node2&#45;&gt;Node6 -->
<g id="edge5" class="edge"><title>Node2&#45;&gt;Node6</title>
<path fill="none" stroke="midnightblue" d="M123.538,-238.306C133.648,-263.482 154.593,-307.327 186,-333 191.629,-337.601 198.465,-341.137 205.319,-343.837"/>
<polygon fill="midnightblue" stroke="midnightblue" points="126.726,-236.844 119.869,-228.767 120.192,-239.357 126.726,-236.844"/>
</g>
<!-- Node7 -->
<g id="node7" class="node"><title>Node7</title>
<g id="a_node7"><a xlink:href="../../dd/dce/getsun_8c.html#af37dbffd297affdb588f6ae01659399a" target="_top" xlink:title="get_pic">
<polygon fill="white" stroke="black" points="214,-304.5 214,-323.5 265,-323.5 265,-304.5 214,-304.5"/>
<text text-anchor="middle" x="239.5" y="-311.5" font-family="Helvetica,sans-Serif" font-size="10.00">get_pic</text>
</a>
</g>
</g>
<!-- Node2&#45;&gt;Node7 -->
<g id="edge7" class="edge"><title>Node2&#45;&gt;Node7</title>
<path fill="none" stroke="midnightblue" d="M128.98,-237.06C141.596,-254.111 162.537,-279.337 186,-295 194.384,-300.597 204.621,-304.782 213.821,-307.779"/>
<polygon fill="midnightblue" stroke="midnightblue" points="131.54,-234.624 122.865,-228.541 125.853,-238.706 131.54,-234.624"/>
</g>
<!-- Node8 -->
<g id="node8" class="node"><title>Node8</title>
<g id="a_node8"><a xlink:href="../../d1/dea/getx10_8c.html#a3a4aae99912503bf4aecbbc4d0ebf6fb" target="_top" xlink:title="load_x_map">
<polygon fill="white" stroke="black" points="202.5,-266.5 202.5,-285.5 276.5,-285.5 276.5,-266.5 202.5,-266.5"/>
<text text-anchor="middle" x="239.5" y="-273.5" font-family="Helvetica,sans-Serif" font-size="10.00">load_x_map</text>
</a>
</g>
</g>
<!-- Node2&#45;&gt;Node8 -->
<g id="edge8" class="edge"><title>Node2&#45;&gt;Node8</title>
<path fill="none" stroke="midnightblue" d="M141.28,-233.755C154.339,-241.219 170.769,-250.129 186,-257 193.51,-260.388 201.821,-263.621 209.573,-266.428"/>
<polygon fill="midnightblue" stroke="midnightblue" points="142.838,-230.613 132.432,-228.624 139.327,-236.668 142.838,-230.613"/>
</g>
<!-- Node11 -->
<g id="node11" class="node"><title>Node11</title>
<g id="a_node11"><a xlink:href="../../dd/dc5/prototypes_8h.html#ae1128d04403165fcac7d44eb924e04ff" target="_top" xlink:title="check_mono_color">
<polygon fill="white" stroke="black" points="186.5,-228.5 186.5,-247.5 292.5,-247.5 292.5,-228.5 186.5,-228.5"/>
<text text-anchor="middle" x="239.5" y="-235.5" font-family="Helvetica,sans-Serif" font-size="10.00">check_mono_color</text>
</a>
</g>
</g>
<!-- Node2&#45;&gt;Node11 -->
<g id="edge11" class="edge"><title>Node2&#45;&gt;Node11</title>
<path fill="none" stroke="midnightblue" d="M160.16,-225.799C168.594,-227.113 177.51,-228.502 186.187,-229.853"/>
<polygon fill="midnightblue" stroke="midnightblue" points="160.579,-222.323 150.16,-224.242 159.502,-229.239 160.579,-222.323"/>
</g>
<!-- Node12 -->
<g id="node12" class="node"><title>Node12</title>
<g id="a_node12"><a xlink:href="../../d8/def/rle__addhist_8c.html#a4f9433d6e4e203d0ecea1c7d3837afc3" target="_top" xlink:title="rle_addhist">
<polygon fill="white" stroke="black" points="205,-190.5 205,-209.5 274,-209.5 274,-190.5 205,-190.5"/>
<text text-anchor="middle" x="239.5" y="-197.5" font-family="Helvetica,sans-Serif" font-size="10.00">rle_addhist</text>
</a>
</g>
</g>
<!-- Node2&#45;&gt;Node12 -->
<g id="edge12" class="edge"><title>Node2&#45;&gt;Node12</title>
<path fill="none" stroke="midnightblue" d="M160.093,-212.211C174.852,-209.912 191.095,-207.383 204.95,-205.225"/>
<polygon fill="midnightblue" stroke="midnightblue" points="159.502,-208.761 150.16,-213.758 160.579,-215.677 159.502,-208.761"/>
</g>
<!-- Node17 -->
<g id="node17" class="node"><title>Node17</title>
<g id="a_node17"><a xlink:href="../../d6/d6b/rlecat_8c.html#a70db8bd1d499619f7ff9c1ca2ff3c8df" target="_top" xlink:title="main">
<polygon fill="white" stroke="black" points="220,-152.5 220,-171.5 259,-171.5 259,-152.5 220,-152.5"/>
<text text-anchor="middle" x="239.5" y="-159.5" font-family="Helvetica,sans-Serif" font-size="10.00">main</text>
</a>
</g>
</g>
<!-- Node2&#45;&gt;Node17 -->
<g id="edge17" class="edge"><title>Node2&#45;&gt;Node17</title>
<path fill="none" stroke="midnightblue" d="M141.28,-204.245C154.339,-196.781 170.769,-187.871 186,-181 196.956,-176.057 209.616,-171.445 219.759,-168.003"/>
<polygon fill="midnightblue" stroke="midnightblue" points="139.327,-201.332 132.432,-209.376 142.838,-207.387 139.327,-201.332"/>
</g>
<!-- Node18 -->
<g id="node18" class="node"><title>Node18</title>
<g id="a_node18"><a xlink:href="../../d1/d2c/rlehdr_8c.html#a95ac9307244439a0e7fe8b4a2cd2ecf9" target="_top" xlink:title="print_brief_hdr">
<polygon fill="white" stroke="black" points="196.5,-114.5 196.5,-133.5 282.5,-133.5 282.5,-114.5 196.5,-114.5"/>
<text text-anchor="middle" x="239.5" y="-121.5" font-family="Helvetica,sans-Serif" font-size="10.00">print_brief_hdr</text>
</a>
</g>
</g>
<!-- Node2&#45;&gt;Node18 -->
<g id="edge18" class="edge"><title>Node2&#45;&gt;Node18</title>
<path fill="none" stroke="midnightblue" d="M128.98,-200.94C141.596,-183.889 162.537,-158.663 186,-143 191.643,-139.233 198.126,-136.105 204.566,-133.549"/>
<polygon fill="midnightblue" stroke="midnightblue" points="125.853,-199.294 122.865,-209.459 131.54,-203.376 125.853,-199.294"/>
</g>
<!-- Node19 -->
<g id="node19" class="node"><title>Node19</title>
<g id="a_node19"><a xlink:href="../../d1/d2c/rlehdr_8c.html#aa90eb89b08e14e162fe83a140fa0cd6f" target="_top" xlink:title="print_map">
<polygon fill="white" stroke="black" points="207.5,-76.5 207.5,-95.5 271.5,-95.5 271.5,-76.5 207.5,-76.5"/>
<text text-anchor="middle" x="239.5" y="-83.5" font-family="Helvetica,sans-Serif" font-size="10.00">print_map</text>
</a>
</g>
</g>
<!-- Node2&#45;&gt;Node19 -->
<g id="edge19" class="edge"><title>Node2&#45;&gt;Node19</title>
<path fill="none" stroke="midnightblue" d="M123.538,-199.694C133.648,-174.518 154.593,-130.673 186,-105 192.154,-99.9696 199.752,-96.2124 207.238,-93.4289"/>
<polygon fill="midnightblue" stroke="midnightblue" points="120.192,-198.643 119.869,-209.233 126.726,-201.156 120.192,-198.643"/>
</g>
<!-- Node20 -->
<g id="node20" class="node"><title>Node20</title>
<g id="a_node20"><a xlink:href="../../d4/d8c/rleinterp_8c.html#a05488d575c89d6d2abe7874791b7dd89" target="_top" xlink:title="comp_hdr">
<polygon fill="white" stroke="black" points="207.5,-38.5 207.5,-57.5 271.5,-57.5 271.5,-38.5 207.5,-38.5"/>
<text text-anchor="middle" x="239.5" y="-45.5" font-family="Helvetica,sans-Serif" font-size="10.00">comp_hdr</text>
</a>
</g>
</g>
<!-- Node2&#45;&gt;Node20 -->
<g id="edge20" class="edge"><title>Node2&#45;&gt;Node20</title>
<path fill="none" stroke="midnightblue" d="M120.338,-199.357C127.594,-167.284 146.298,-103.587 186,-67 191.988,-61.4823 199.698,-57.5399 207.357,-54.7331"/>
<polygon fill="midnightblue" stroke="midnightblue" points="116.883,-198.778 118.233,-209.286 123.731,-200.23 116.883,-198.778"/>
</g>
<!-- Node21 -->
<g id="node21" class="node"><title>Node21</title>
<g id="a_node21"><a xlink:href="../../dc/d21/rletocgm_8c.html#a03091eb1bcb91a053a4122b381aed501" target="_top" xlink:title="handle_color_table">
<polygon fill="white" stroke="black" points="186,-0.5 186,-19.5 293,-19.5 293,-0.5 186,-0.5"/>
<text text-anchor="middle" x="239.5" y="-7.5" font-family="Helvetica,sans-Serif" font-size="10.00">handle_color_table</text>
</a>
</g>
</g>
<!-- Node2&#45;&gt;Node21 -->
<g id="edge21" class="edge"><title>Node2&#45;&gt;Node21</title>
<path fill="none" stroke="midnightblue" d="M118.33,-198.856C122.86,-160.57 137.976,-76.8593 186,-29 189.914,-25.0999 194.687,-21.9946 199.744,-19.5236"/>
<polygon fill="midnightblue" stroke="midnightblue" points="114.808,-198.877 117.239,-209.189 121.769,-199.612 114.808,-198.877"/>
</g>
<!-- Node5 -->
<g id="node5" class="node"><title>Node5</title>
<g id="a_node5"><a xlink:href="../../dc/d11/getami_8c.html#a7be6d508b8d11374d4aef0a66817d9f0" target="_top" xlink:title="main">
<polygon fill="white" stroke="black" points="367.5,-361.5 367.5,-380.5 406.5,-380.5 406.5,-361.5 367.5,-361.5"/>
<text text-anchor="middle" x="387" y="-368.5" font-family="Helvetica,sans-Serif" font-size="10.00">main</text>
</a>
</g>
</g>
<!-- Node4&#45;&gt;Node5 -->
<g id="edge4" class="edge"><title>Node4&#45;&gt;Node5</title>
<path fill="none" stroke="midnightblue" d="M295.594,-382.806C320.9,-379.501 349.24,-375.8 367.331,-373.438"/>
<polygon fill="midnightblue" stroke="midnightblue" points="294.805,-379.379 285.342,-384.144 295.711,-386.32 294.805,-379.379"/>
</g>
<!-- Node6&#45;&gt;Node5 -->
<g id="edge6" class="edge"><title>Node6&#45;&gt;Node5</title>
<path fill="none" stroke="midnightblue" d="M283.433,-357.606C311.323,-361.248 346.283,-365.814 367.344,-368.564"/>
<polygon fill="midnightblue" stroke="midnightblue" points="283.885,-354.136 273.516,-356.311 282.979,-361.077 283.885,-354.136"/>
</g>
<!-- Node9 -->
<g id="node9" class="node"><title>Node9</title>
<g id="a_node9"><a xlink:href="../../d1/dea/getx10_8c.html#a867bbe68ed06015d6e2bcaf9c1119f17" target="_top" xlink:title="get_pic">
<polygon fill="white" stroke="black" points="361.5,-266.5 361.5,-285.5 412.5,-285.5 412.5,-266.5 361.5,-266.5"/>
<text text-anchor="middle" x="387" y="-273.5" font-family="Helvetica,sans-Serif" font-size="10.00">get_pic</text>
</a>
</g>
</g>
<!-- Node8&#45;&gt;Node9 -->
<g id="edge9" class="edge"><title>Node8&#45;&gt;Node9</title>
<path fill="none" stroke="midnightblue" d="M287.049,-276C311.618,-276 340.789,-276 361.065,-276"/>
<polygon fill="midnightblue" stroke="midnightblue" points="286.841,-272.5 276.84,-276 286.84,-279.5 286.841,-272.5"/>
</g>
<!-- Node10 -->
<g id="node10" class="node"><title>Node10</title>
<g id="a_node10"><a xlink:href="../../d1/dea/getx10_8c.html#a2e1c56207484e456874379d624fc0e67" target="_top" xlink:title="main">
<polygon fill="white" stroke="black" points="525.5,-266.5 525.5,-285.5 564.5,-285.5 564.5,-266.5 525.5,-266.5"/>
<text text-anchor="middle" x="545" y="-273.5" font-family="Helvetica,sans-Serif" font-size="10.00">main</text>
</a>
</g>
</g>
<!-- Node9&#45;&gt;Node10 -->
<g id="edge10" class="edge"><title>Node9&#45;&gt;Node10</title>
<path fill="none" stroke="midnightblue" d="M422.875,-276C454.531,-276 500.008,-276 525.272,-276"/>
<polygon fill="midnightblue" stroke="midnightblue" points="422.719,-272.5 412.719,-276 422.719,-279.5 422.719,-272.5"/>
</g>
<!-- Node13 -->
<g id="node13" class="node"><title>Node13</title>
<g id="a_node13"><a xlink:href="../../d7/def/applymap_8c.html#a70db8bd1d499619f7ff9c1ca2ff3c8df" target="_top" xlink:title="main">
<polygon fill="white" stroke="black" points="367.5,-228.5 367.5,-247.5 406.5,-247.5 406.5,-228.5 367.5,-228.5"/>
<text text-anchor="middle" x="387" y="-235.5" font-family="Helvetica,sans-Serif" font-size="10.00">main</text>
</a>
</g>
</g>
<!-- Node12&#45;&gt;Node13 -->
<g id="edge13" class="edge"><title>Node12&#45;&gt;Node13</title>
<path fill="none" stroke="midnightblue" d="M284.102,-211.388C311.785,-218.617 346.214,-227.609 367.128,-233.071"/>
<polygon fill="midnightblue" stroke="midnightblue" points="284.806,-207.954 274.246,-208.813 283.037,-214.727 284.806,-207.954"/>
</g>
<!-- Node14 -->
<g id="node14" class="node"><title>Node14</title>
<g id="a_node14"><a xlink:href="../../d5/dd9/rleClock_8c.html#a029cc0b8bfeacc031dd11bd48caf3a2d" target="_top" xlink:title="rasterWrite">
<polygon fill="white" stroke="black" points="352.5,-190.5 352.5,-209.5 421.5,-209.5 421.5,-190.5 352.5,-190.5"/>
<text text-anchor="middle" x="387" y="-197.5" font-family="Helvetica,sans-Serif" font-size="10.00">rasterWrite</text>
</a>
</g>
</g>
<!-- Node12&#45;&gt;Node14 -->
<g id="edge14" class="edge"><title>Node12&#45;&gt;Node14</title>
<path fill="none" stroke="midnightblue" d="M284.28,-200C306.144,-200 332.179,-200 352.437,-200"/>
<polygon fill="midnightblue" stroke="midnightblue" points="284.246,-196.5 274.246,-200 284.246,-203.5 284.246,-196.5"/>
</g>
<!-- Node15 -->
<g id="node15" class="node"><title>Node15</title>
<g id="a_node15"><a xlink:href="../../dc/d5c/rlequant_8c.html#a2d0b301e0b946a4cc922dbd1e2d49ccf" target="_top" xlink:title="copy_hdr">
<polygon fill="white" stroke="black" points="356.5,-152.5 356.5,-171.5 417.5,-171.5 417.5,-152.5 356.5,-152.5"/>
<text text-anchor="middle" x="387" y="-159.5" font-family="Helvetica,sans-Serif" font-size="10.00">copy_hdr</text>
</a>
</g>
</g>
<!-- Node12&#45;&gt;Node15 -->
<g id="edge15" class="edge"><title>Node12&#45;&gt;Node15</title>
<path fill="none" stroke="midnightblue" d="M283.933,-188.657C307.312,-182.551 335.541,-175.178 356.381,-169.736"/>
<polygon fill="midnightblue" stroke="midnightblue" points="283.037,-185.273 274.246,-191.187 284.806,-192.046 283.037,-185.273"/>
</g>
<!-- Node16 -->
<g id="node16" class="node"><title>Node16</title>
<g id="a_node16"><a xlink:href="../../df/dfb/unslice_8c.html#a7090aec632931a42b5d606b6db234b9d" target="_top" xlink:title="do_slice">
<polygon fill="white" stroke="black" points="359,-114.5 359,-133.5 415,-133.5 415,-114.5 359,-114.5"/>
<text text-anchor="middle" x="387" y="-121.5" font-family="Helvetica,sans-Serif" font-size="10.00">do_slice</text>
</a>
</g>
</g>
<!-- Node12&#45;&gt;Node16 -->
<g id="edge16" class="edge"><title>Node12&#45;&gt;Node16</title>
<path fill="none" stroke="midnightblue" d="M283.545,-186.338C286.838,-184.721 290.031,-182.944 293,-181 312.462,-168.254 309.377,-155.497 329,-143 338.062,-137.229 349.059,-133.026 358.968,-130.063"/>
<polygon fill="midnightblue" stroke="midnightblue" points="281.856,-183.257 274.105,-190.481 284.669,-189.667 281.856,-183.257"/>
</g>
<!-- Node22 -->
<g id="node22" class="node"><title>Node22</title>
<g id="a_node22"><a xlink:href="../../dc/d21/rletocgm_8c.html#add2c9fcd5032fc850935ccd2d9d9ec87" target="_top" xlink:title="begin_indexed_page">
<polygon fill="white" stroke="black" points="329,-0.5 329,-19.5 445,-19.5 445,-0.5 329,-0.5"/>
<text text-anchor="middle" x="387" y="-7.5" font-family="Helvetica,sans-Serif" font-size="10.00">begin_indexed_page</text>
</a>
</g>
</g>
<!-- Node21&#45;&gt;Node22 -->
<g id="edge22" class="edge"><title>Node21&#45;&gt;Node22</title>
<path fill="none" stroke="midnightblue" d="M303.207,-10C311.651,-10 320.279,-10 328.625,-10"/>
<polygon fill="midnightblue" stroke="midnightblue" points="303.029,-6.5001 293.029,-10 303.029,-13.5001 303.029,-6.5001"/>
</g>
<!-- Node23 -->
<g id="node23" class="node"><title>Node23</title>
<g id="a_node23"><a xlink:href="../../dc/d21/rletocgm_8c.html#a243dc5135972069e1dc4456356c8b498" target="_top" xlink:title="process_indexed_page">
<polygon fill="white" stroke="black" points="481,-0.5 481,-19.5 609,-19.5 609,-0.5 481,-0.5"/>
<text text-anchor="middle" x="545" y="-7.5" font-family="Helvetica,sans-Serif" font-size="10.00">process_indexed_page</text>
</a>
</g>
</g>
<!-- Node22&#45;&gt;Node23 -->
<g id="edge23" class="edge"><title>Node22&#45;&gt;Node23</title>
<path fill="none" stroke="midnightblue" d="M455.37,-10C463.796,-10 472.391,-10 480.751,-10"/>
<polygon fill="midnightblue" stroke="midnightblue" points="455.203,-6.5001 445.203,-10 455.203,-13.5001 455.203,-6.5001"/>
</g>
<!-- Node24 -->
<g id="node24" class="node"><title>Node24</title>
<g id="a_node24"><a xlink:href="../../dc/d21/rletocgm_8c.html#a5ea466849f21e6c2be4ef9b2eb8868d3" target="_top" xlink:title="main">
<polygon fill="white" stroke="black" points="645,-0.5 645,-19.5 684,-19.5 684,-0.5 645,-0.5"/>
<text text-anchor="middle" x="664.5" y="-7.5" font-family="Helvetica,sans-Serif" font-size="10.00">main</text>
</a>
</g>
</g>
<!-- Node23&#45;&gt;Node24 -->
<g id="edge24" class="edge"><title>Node23&#45;&gt;Node24</title>
<path fill="none" stroke="midnightblue" d="M619.499,-10C628.823,-10 637.618,-10 644.857,-10"/>
<polygon fill="midnightblue" stroke="midnightblue" points="619.221,-6.5001 609.221,-10 619.221,-13.5001 619.221,-6.5001"/>
</g>
</g>
</svg>
        <g id="navigator" transform="translate(0 0)" fill="#404254">
                <rect fill="#f2f5e9" fill-opacity="0.5" stroke="#606060" stroke-width=".5" x="0" y="0" width="60" height="60"/>
                <use id="zoomplus" xlink:href="#zoomPlus" x="17" y="9" onmousedown="handleZoom(evt,'in')"/>
                <use id="zoomminus" xlink:href="#zoomMin" x="42" y="9" onmousedown="handleZoom(evt,'out')"/>
                <use id="reset" xlink:href="#resetDef" x="30" y="36" onmousedown="handleReset()"/>
                <g id="arrowUp" xlink:href="#dirArrow" transform="translate(30 24)" onmousedown="handlePan(0,-1)">
                  <use xlink:href="#rim" fill="#404040">
                        <set attributeName="fill" to="#808080" begin="arrowUp.mouseover" end="arrowUp.mouseout"/>
                  </use>
                  <path fill="none" stroke="white" stroke-width="1.5" d="M0,-3.0v7 M-2.5,-0.5L0,-3.0L2.5,-0.5"/>
                </g>
                <g id="arrowRight" xlink:href="#dirArrow" transform="rotate(90) translate(36 -43)" onmousedown="handlePan(1,0)">
                  <use xlink:href="#rim" fill="#404040">
                        <set attributeName="fill" to="#808080" begin="arrowRight.mouseover" end="arrowRight.mouseout"/>
                  </use>
                  <path fill="none" stroke="white" stroke-width="1.5" d="M0,-3.0v7 M-2.5,-0.5L0,-3.0L2.5,-0.5"/>
                </g>
                <g id="arrowDown" xlink:href="#dirArrow" transform="rotate(180) translate(-30 -48)" onmousedown="handlePan(0,1)">
                  <use xlink:href="#rim" fill="#404040">
                        <set attributeName="fill" to="#808080" begin="arrowDown.mouseover" end="arrowDown.mouseout"/>
                  </use>
                  <path fill="none" stroke="white" stroke-width="1.5" d="M0,-3.0v7 M-2.5,-0.5L0,-3.0L2.5,-0.5"/>
                </g>
                <g id="arrowLeft" xlink:href="#dirArrow" transform="rotate(270) translate(-36 17)" onmousedown="handlePan(-1,0)">
                  <use xlink:href="#rim" fill="#404040">
                        <set attributeName="fill" to="#808080" begin="arrowLeft.mouseover" end="arrowLeft.mouseout"/>
                  </use>
                  <path fill="none" stroke="white" stroke-width="1.5" d="M0,-3.0v7 M-2.5,-0.5L0,-3.0L2.5,-0.5"/>
                </g>
        </g>
        <svg viewBox="0 0 15 15" width="100%" height="30px" preserveAspectRatio="xMaxYMin meet">
         <g id="arrow_out" transform="scale(0.3 0.3)">
          <a xlink:href="rle__getcom_8c_a7502c8b599724ce86fee5df1311a2337_icgraph_org.svg" target="_base">
           <rect id="button" ry="5" rx="5" y="6" x="6" height="38" width="38"
                fill="#f2f5e9" fill-opacity="0.5" stroke="#606060" stroke-width="1.0"/>
           <path id="arrow"
             d="M 11.500037,31.436501 C 11.940474,20.09759 22.043105,11.32322 32.158766,21.979434 L 37.068811,17.246167 C 37.068811,17.246167 37.088388,32 37.088388,32 L 22.160133,31.978069 C 22.160133,31.978069 26.997745,27.140456 26.997745,27.140456 C 18.528582,18.264221 13.291696,25.230495 11.500037,31.436501 z"
             style="fill:#404040;"/>
          </a>
         </g>
        </svg>
</svg>
