<?xml version="1.0" encoding="UTF-8" standalone="no"?>
<!DOCTYPE svg PUBLIC "-//W3C//DTD SVG 1.1//EN"
 "http://www.w3.org/Graphics/SVG/1.1/DTD/svg11.dtd">
<!-- Generated by graphviz version 2.38.0 (20140413.2041)
 -->
<!-- Title: rle_getcom Pages: 1 -->
<svg width="204pt" height="104pt"
 viewBox="0.00 0.00 204.00 104.00" xmlns="http://www.w3.org/2000/svg" xmlns:xlink="http://www.w3.org/1999/xlink">
<g id="graph0" class="graph" transform="scale(1 1) rotate(0) translate(4 100)">
<title>rle_getcom</title>
<polygon fill="white" stroke="none" points="-4,4 -4,-100 200,-100 200,4 -4,4"/>
<!-- Node1 -->
<g id="node1" class="node"><title>Node1</title>
<polygon fill="#bfbfbf" stroke="black" points="0,-38.5 0,-57.5 69,-57.5 69,-38.5 0,-38.5"/>
<text text-anchor="middle" x="34.5" y="-45.5" font-family="Helvetica,sans-Serif" font-size="10.00">rle_getcom</text>
</g>
<!-- Node2 -->
<g id="node2" class="node"><title>Node2</title>
<g id="a_node2"><a xlink:href="../../dc/d11/getami_8c.html#a3a79557c0de5078d1ea9206ce5eb3e77" target="_top" xlink:title="display_rle">
<polygon fill="white" stroke="black" points="116.5,-76.5 116.5,-95.5 184.5,-95.5 184.5,-76.5 116.5,-76.5"/>
<text text-anchor="middle" x="150.5" y="-83.5" font-family="Helvetica,sans-Serif" font-size="10.00">display_rle</text>
</a>
</g>
</g>
<!-- Node1&#45;&gt;Node2 -->
<g id="edge1" class="edge"><title>Node1&#45;&gt;Node2</title>
<path fill="none" stroke="midnightblue" d="M73.9778,-60.8259C89.2742,-65.9247 106.567,-71.6891 120.742,-76.4141"/>
<polygon fill="midnightblue" stroke="midnightblue" points="74.8607,-57.431 64.267,-57.589 72.647,-64.0717 74.8607,-57.431"/>
</g>
<!-- Node3 -->
<g id="node3" class="node"><title>Node3</title>
<g id="a_node3"><a xlink:href="../../dc/d11/getami_8c.html#aa654afe741816fa93d1cd7e49ef583ec" target="_top" xlink:title="find_most_used">
<polygon fill="white" stroke="black" points="105,-38.5 105,-57.5 196,-57.5 196,-38.5 105,-38.5"/>
<text text-anchor="middle" x="150.5" y="-45.5" font-family="Helvetica,sans-Serif" font-size="10.00">find_most_used</text>
</a>
</g>
</g>
<!-- Node1&#45;&gt;Node3 -->
<g id="edge2" class="edge"><title>Node1&#45;&gt;Node3</title>
<path fill="none" stroke="midnightblue" d="M79.3574,-48C87.6776,-48 96.393,-48 104.741,-48"/>
<polygon fill="midnightblue" stroke="midnightblue" points="79.0872,-44.5001 69.0872,-48 79.0871,-51.5001 79.0872,-44.5001"/>
</g>
<!-- Node4 -->
<g id="node4" class="node"><title>Node4</title>
<g id="a_node4"><a xlink:href="../../d1/dea/getx10_8c.html#a3a4aae99912503bf4aecbbc4d0ebf6fb" target="_top" xlink:title="load_x_map">
<polygon fill="white" stroke="black" points="113.5,-0.5 113.5,-19.5 187.5,-19.5 187.5,-0.5 113.5,-0.5"/>
<text text-anchor="middle" x="150.5" y="-7.5" font-family="Helvetica,sans-Serif" font-size="10.00">load_x_map</text>
</a>
</g>
</g>
<!-- Node1&#45;&gt;Node4 -->
<g id="edge3" class="edge"><title>Node1&#45;&gt;Node4</title>
<path fill="none" stroke="midnightblue" d="M73.9778,-35.1741C89.2742,-30.0753 106.567,-24.3109 120.742,-19.5859"/>
<polygon fill="midnightblue" stroke="midnightblue" points="72.647,-31.9283 64.267,-38.411 74.8607,-38.569 72.647,-31.9283"/>
</g>
</g>
</svg>
