<?xml version="1.0" encoding="UTF-8" standalone="no"?>
<!DOCTYPE svg PUBLIC "-//W3C//DTD SVG 1.1//EN"
 "http://www.w3.org/Graphics/SVG/1.1/DTD/svg11.dtd">
<!-- Generated by graphviz version 2.38.0 (20140413.2041)
 -->
<!-- Title: rle_getcom Pages: 1 -->
<!--zoomable 446 -->
<svg id="main" version="1.1" xmlns="http://www.w3.org/2000/svg" xmlns:xlink="http://www.w3.org/1999/xlink" xml:space="preserve" onload="init(evt)">
<style type="text/css"><![CDATA[
.edge:hover path { stroke: red; }
.edge:hover polygon { stroke: red; fill: red; }
]]></style>
<script type="text/javascript"><![CDATA[
var edges = document.getElementsByTagName('g');
if (edges && edges.length) {
  for (var i=0;i<edges.length;i++) {
    if (edges[i].id.substr(0,4)=='edge') {
      edges[i].setAttribute('class','edge');
    }
  }
}
]]></script>
        <defs>
                <circle id="rim" cx="0" cy="0" r="7"/>
                <circle id="rim2" cx="0" cy="0" r="3.5"/>
                <g id="zoomPlus">
                        <use xlink:href="#rim" fill="#404040">
                                <set attributeName="fill" to="#808080" begin="zoomplus.mouseover" end="zoomplus.mouseout"/>
                        </use>
                        <path d="M-4,0h8M0,-4v8" fill="none" stroke="white" stroke-width="1.5" pointer-events="none"/>
                </g>
                <g id="zoomMin">
                        <use xlink:href="#rim" fill="#404040">
                                <set attributeName="fill" to="#808080" begin="zoomminus.mouseover" end="zoomminus.mouseout"/>
                        </use>
                        <path d="M-4,0h8" fill="none" stroke="white" stroke-width="1.5" pointer-events="none"/>
                </g>
                <g id="dirArrow">
                        <path fill="none" stroke="white" stroke-width="1.5" d="M0,-3.0v7 M-2.5,-0.5L0,-3.0L2.5,-0.5"/>
                </g>
               <g id="resetDef">
                       <use xlink:href="#rim2" fill="#404040">
                               <set attributeName="fill" to="#808080" begin="reset.mouseover" end="reset.mouseout"/>
                       </use>
               </g>
        </defs>

<script type="text/javascript">
var viewWidth = 611;
var viewHeight = 446;
var sectionId = 'dynsection-3';
</script>
<script xlink:href="../../svgpan.js"/>
<svg id="graph" class="graph">
<g id="viewport">
<title>rle_getcom</title>
<polygon fill="white" stroke="none" points="-4,4 -4,-442 607,-442 607,4 -4,4"/>
<!-- Node1 -->
<g id="node1" class="node"><title>Node1</title>
<polygon fill="#bfbfbf" stroke="black" points="0,-209.5 0,-228.5 69,-228.5 69,-209.5 0,-209.5"/>
<text text-anchor="middle" x="34.5" y="-216.5" font-family="Helvetica,sans-Serif" font-size="10.00">rle_getcom</text>
</g>
<!-- Node2 -->
<g id="node2" class="node"><title>Node2</title>
<g id="a_node2"><a xlink:href="../../df/dcf/buildmap_8c.html#a0683647be765d65564fe36af29edea5c" target="_top" xlink:title="buildmap">
<polygon fill="white" stroke="black" points="129.5,-418.5 129.5,-437.5 187.5,-437.5 187.5,-418.5 129.5,-418.5"/>
<text text-anchor="middle" x="158.5" y="-425.5" font-family="Helvetica,sans-Serif" font-size="10.00">buildmap</text>
</a>
</g>
</g>
<!-- Node1&#45;&gt;Node2 -->
<g id="edge1" class="edge"><title>Node1&#45;&gt;Node2</title>
<path fill="none" stroke="midnightblue" d="M37.3295,-239.144C41.8602,-277.43 56.9763,-361.141 105,-409 111.591,-415.569 120.622,-419.883 129.335,-422.709"/>
<polygon fill="midnightblue" stroke="midnightblue" points="40.7692,-238.388 36.2386,-228.811 33.8079,-239.123 40.7692,-238.388"/>
</g>
<!-- Node3 -->
<g id="node3" class="node"><title>Node3</title>
<g id="a_node3"><a xlink:href="../../dc/d11/getami_8c.html#aa654afe741816fa93d1cd7e49ef583ec" target="_top" xlink:title="find_most_used">
<polygon fill="white" stroke="black" points="113,-380.5 113,-399.5 204,-399.5 204,-380.5 113,-380.5"/>
<text text-anchor="middle" x="158.5" y="-387.5" font-family="Helvetica,sans-Serif" font-size="10.00">find_most_used</text>
</a>
</g>
</g>
<!-- Node1&#45;&gt;Node3 -->
<g id="edge2" class="edge"><title>Node1&#45;&gt;Node3</title>
<path fill="none" stroke="midnightblue" d="M39.3378,-238.643C46.5943,-270.716 65.2984,-334.413 105,-371 109.206,-374.876 114.261,-377.974 119.552,-380.447"/>
<polygon fill="midnightblue" stroke="midnightblue" points="42.7307,-237.77 37.2328,-228.714 35.8829,-239.222 42.7307,-237.77"/>
</g>
<!-- Node5 -->
<g id="node5" class="node"><title>Node5</title>
<g id="a_node5"><a xlink:href="../../dc/d11/getami_8c.html#a3a79557c0de5078d1ea9206ce5eb3e77" target="_top" xlink:title="display_rle">
<polygon fill="white" stroke="black" points="124.5,-342.5 124.5,-361.5 192.5,-361.5 192.5,-342.5 124.5,-342.5"/>
<text text-anchor="middle" x="158.5" y="-349.5" font-family="Helvetica,sans-Serif" font-size="10.00">display_rle</text>
</a>
</g>
</g>
<!-- Node1&#45;&gt;Node5 -->
<g id="edge4" class="edge"><title>Node1&#45;&gt;Node5</title>
<path fill="none" stroke="midnightblue" d="M42.5379,-238.306C52.648,-263.482 73.5932,-307.327 105,-333 110.629,-337.601 117.465,-341.137 124.319,-343.837"/>
<polygon fill="midnightblue" stroke="midnightblue" points="45.7256,-236.844 38.8694,-228.767 39.1921,-239.357 45.7256,-236.844"/>
</g>
<!-- Node6 -->
<g id="node6" class="node"><title>Node6</title>
<g id="a_node6"><a xlink:href="../../dd/dce/getsun_8c.html#af37dbffd297affdb588f6ae01659399a" target="_top" xlink:title="get_pic">
<polygon fill="white" stroke="black" points="133,-304.5 133,-323.5 184,-323.5 184,-304.5 133,-304.5"/>
<text text-anchor="middle" x="158.5" y="-311.5" font-family="Helvetica,sans-Serif" font-size="10.00">get_pic</text>
</a>
</g>
</g>
<!-- Node1&#45;&gt;Node6 -->
<g id="edge6" class="edge"><title>Node1&#45;&gt;Node6</title>
<path fill="none" stroke="midnightblue" d="M47.98,-237.06C60.5955,-254.111 81.5373,-279.337 105,-295 113.384,-300.597 123.621,-304.782 132.821,-307.779"/>
<polygon fill="midnightblue" stroke="midnightblue" points="50.5396,-234.624 41.8648,-228.541 44.853,-238.706 50.5396,-234.624"/>
</g>
<!-- Node7 -->
<g id="node7" class="node"><title>Node7</title>
<g id="a_node7"><a xlink:href="../../d1/dea/getx10_8c.html#a3a4aae99912503bf4aecbbc4d0ebf6fb" target="_top" xlink:title="load_x_map">
<polygon fill="white" stroke="black" points="121.5,-266.5 121.5,-285.5 195.5,-285.5 195.5,-266.5 121.5,-266.5"/>
<text text-anchor="middle" x="158.5" y="-273.5" font-family="Helvetica,sans-Serif" font-size="10.00">load_x_map</text>
</a>
</g>
</g>
<!-- Node1&#45;&gt;Node7 -->
<g id="edge7" class="edge"><title>Node1&#45;&gt;Node7</title>
<path fill="none" stroke="midnightblue" d="M60.2799,-233.755C73.3391,-241.219 89.7688,-250.129 105,-257 112.51,-260.388 120.821,-263.621 128.573,-266.428"/>
<polygon fill="midnightblue" stroke="midnightblue" points="61.8385,-230.613 51.4318,-228.624 58.3272,-236.668 61.8385,-230.613"/>
</g>
<!-- Node10 -->
<g id="node10" class="node"><title>Node10</title>
<g id="a_node10"><a xlink:href="../../dd/dc5/prototypes_8h.html#ae1128d04403165fcac7d44eb924e04ff" target="_top" xlink:title="check_mono_color">
<polygon fill="white" stroke="black" points="105.5,-228.5 105.5,-247.5 211.5,-247.5 211.5,-228.5 105.5,-228.5"/>
<text text-anchor="middle" x="158.5" y="-235.5" font-family="Helvetica,sans-Serif" font-size="10.00">check_mono_color</text>
</a>
</g>
</g>
<!-- Node1&#45;&gt;Node10 -->
<g id="edge10" class="edge"><title>Node1&#45;&gt;Node10</title>
<path fill="none" stroke="midnightblue" d="M79.1599,-225.799C87.5939,-227.113 96.5103,-228.502 105.187,-229.853"/>
<polygon fill="midnightblue" stroke="midnightblue" points="79.5795,-222.323 69.16,-224.242 78.5023,-229.239 79.5795,-222.323"/>
</g>
<!-- Node11 -->
<g id="node11" class="node"><title>Node11</title>
<g id="a_node11"><a xlink:href="../../d8/def/rle__addhist_8c.html#a4f9433d6e4e203d0ecea1c7d3837afc3" target="_top" xlink:title="rle_addhist">
<polygon fill="white" stroke="black" points="124,-190.5 124,-209.5 193,-209.5 193,-190.5 124,-190.5"/>
<text text-anchor="middle" x="158.5" y="-197.5" font-family="Helvetica,sans-Serif" font-size="10.00">rle_addhist</text>
</a>
</g>
</g>
<!-- Node1&#45;&gt;Node11 -->
<g id="edge11" class="edge"><title>Node1&#45;&gt;Node11</title>
<path fill="none" stroke="midnightblue" d="M79.0931,-212.211C93.8519,-209.912 110.095,-207.383 123.95,-205.225"/>
<polygon fill="midnightblue" stroke="midnightblue" points="78.5023,-208.761 69.16,-213.758 79.5795,-215.677 78.5023,-208.761"/>
</g>
<!-- Node16 -->
<g id="node16" class="node"><title>Node16</title>
<g id="a_node16"><a xlink:href="../../d6/d6b/rlecat_8c.html#a70db8bd1d499619f7ff9c1ca2ff3c8df" target="_top" xlink:title="main">
<polygon fill="white" stroke="black" points="139,-152.5 139,-171.5 178,-171.5 178,-152.5 139,-152.5"/>
<text text-anchor="middle" x="158.5" y="-159.5" font-family="Helvetica,sans-Serif" font-size="10.00">main</text>
</a>
</g>
</g>
<!-- Node1&#45;&gt;Node16 -->
<g id="edge16" class="edge"><title>Node1&#45;&gt;Node16</title>
<path fill="none" stroke="midnightblue" d="M60.2799,-204.245C73.3391,-196.781 89.7688,-187.871 105,-181 115.956,-176.057 128.616,-171.445 138.759,-168.003"/>
<polygon fill="midnightblue" stroke="midnightblue" points="58.3272,-201.332 51.4318,-209.376 61.8385,-207.387 58.3272,-201.332"/>
</g>
<!-- Node17 -->
<g id="node17" class="node"><title>Node17</title>
<g id="a_node17"><a xlink:href="../../d1/d2c/rlehdr_8c.html#a95ac9307244439a0e7fe8b4a2cd2ecf9" target="_top" xlink:title="print_brief_hdr">
<polygon fill="white" stroke="black" points="115.5,-114.5 115.5,-133.5 201.5,-133.5 201.5,-114.5 115.5,-114.5"/>
<text text-anchor="middle" x="158.5" y="-121.5" font-family="Helvetica,sans-Serif" font-size="10.00">print_brief_hdr</text>
</a>
</g>
</g>
<!-- Node1&#45;&gt;Node17 -->
<g id="edge17" class="edge"><title>Node1&#45;&gt;Node17</title>
<path fill="none" stroke="midnightblue" d="M47.98,-200.94C60.5955,-183.889 81.5373,-158.663 105,-143 110.643,-139.233 117.126,-136.105 123.566,-133.549"/>
<polygon fill="midnightblue" stroke="midnightblue" points="44.853,-199.294 41.8648,-209.459 50.5396,-203.376 44.853,-199.294"/>
</g>
<!-- Node18 -->
<g id="node18" class="node"><title>Node18</title>
<g id="a_node18"><a xlink:href="../../d1/d2c/rlehdr_8c.html#aa90eb89b08e14e162fe83a140fa0cd6f" target="_top" xlink:title="print_map">
<polygon fill="white" stroke="black" points="126.5,-76.5 126.5,-95.5 190.5,-95.5 190.5,-76.5 126.5,-76.5"/>
<text text-anchor="middle" x="158.5" y="-83.5" font-family="Helvetica,sans-Serif" font-size="10.00">print_map</text>
</a>
</g>
</g>
<!-- Node1&#45;&gt;Node18 -->
<g id="edge18" class="edge"><title>Node1&#45;&gt;Node18</title>
<path fill="none" stroke="midnightblue" d="M42.5379,-199.694C52.648,-174.518 73.5932,-130.673 105,-105 111.154,-99.9696 118.752,-96.2124 126.238,-93.4289"/>
<polygon fill="midnightblue" stroke="midnightblue" points="39.1921,-198.643 38.8694,-209.233 45.7256,-201.156 39.1921,-198.643"/>
</g>
<!-- Node19 -->
<g id="node19" class="node"><title>Node19</title>
<g id="a_node19"><a xlink:href="../../d4/d8c/rleinterp_8c.html#a05488d575c89d6d2abe7874791b7dd89" target="_top" xlink:title="comp_hdr">
<polygon fill="white" stroke="black" points="126.5,-38.5 126.5,-57.5 190.5,-57.5 190.5,-38.5 126.5,-38.5"/>
<text text-anchor="middle" x="158.5" y="-45.5" font-family="Helvetica,sans-Serif" font-size="10.00">comp_hdr</text>
</a>
</g>
</g>
<!-- Node1&#45;&gt;Node19 -->
<g id="edge19" class="edge"><title>Node1&#45;&gt;Node19</title>
<path fill="none" stroke="midnightblue" d="M39.3378,-199.357C46.5943,-167.284 65.2984,-103.587 105,-67 110.988,-61.4823 118.698,-57.5399 126.357,-54.7331"/>
<polygon fill="midnightblue" stroke="midnightblue" points="35.8829,-198.778 37.2328,-209.286 42.7307,-200.23 35.8829,-198.778"/>
</g>
<!-- Node20 -->
<g id="node20" class="node"><title>Node20</title>
<g id="a_node20"><a xlink:href="../../dc/d21/rletocgm_8c.html#a03091eb1bcb91a053a4122b381aed501" target="_top" xlink:title="handle_color_table">
<polygon fill="white" stroke="black" points="105,-0.5 105,-19.5 212,-19.5 212,-0.5 105,-0.5"/>
<text text-anchor="middle" x="158.5" y="-7.5" font-family="Helvetica,sans-Serif" font-size="10.00">handle_color_table</text>
</a>
</g>
</g>
<!-- Node1&#45;&gt;Node20 -->
<g id="edge20" class="edge"><title>Node1&#45;&gt;Node20</title>
<path fill="none" stroke="midnightblue" d="M37.3295,-198.856C41.8602,-160.57 56.9763,-76.8593 105,-29 108.914,-25.0999 113.687,-21.9946 118.744,-19.5236"/>
<polygon fill="midnightblue" stroke="midnightblue" points="33.8079,-198.877 36.2386,-209.189 40.7692,-199.612 33.8079,-198.877"/>
</g>
<!-- Node4 -->
<g id="node4" class="node"><title>Node4</title>
<g id="a_node4"><a xlink:href="../../dc/d11/getami_8c.html#a7be6d508b8d11374d4aef0a66817d9f0" target="_top" xlink:title="main">
<polygon fill="white" stroke="black" points="286.5,-361.5 286.5,-380.5 325.5,-380.5 325.5,-361.5 286.5,-361.5"/>
<text text-anchor="middle" x="306" y="-368.5" font-family="Helvetica,sans-Serif" font-size="10.00">main</text>
</a>
</g>
</g>
<!-- Node3&#45;&gt;Node4 -->
<g id="edge3" class="edge"><title>Node3&#45;&gt;Node4</title>
<path fill="none" stroke="midnightblue" d="M214.594,-382.806C239.9,-379.501 268.24,-375.8 286.331,-373.438"/>
<polygon fill="midnightblue" stroke="midnightblue" points="213.805,-379.379 204.342,-384.144 214.711,-386.32 213.805,-379.379"/>
</g>
<!-- Node5&#45;&gt;Node4 -->
<g id="edge5" class="edge"><title>Node5&#45;&gt;Node4</title>
<path fill="none" stroke="midnightblue" d="M202.433,-357.606C230.323,-361.248 265.283,-365.814 286.344,-368.564"/>
<polygon fill="midnightblue" stroke="midnightblue" points="202.885,-354.136 192.516,-356.311 201.979,-361.077 202.885,-354.136"/>
</g>
<!-- Node8 -->
<g id="node8" class="node"><title>Node8</title>
<g id="a_node8"><a xlink:href="../../d1/dea/getx10_8c.html#a867bbe68ed06015d6e2bcaf9c1119f17" target="_top" xlink:title="get_pic">
<polygon fill="white" stroke="black" points="280.5,-266.5 280.5,-285.5 331.5,-285.5 331.5,-266.5 280.5,-266.5"/>
<text text-anchor="middle" x="306" y="-273.5" font-family="Helvetica,sans-Serif" font-size="10.00">get_pic</text>
</a>
</g>
</g>
<!-- Node7&#45;&gt;Node8 -->
<g id="edge8" class="edge"><title>Node7&#45;&gt;Node8</title>
<path fill="none" stroke="midnightblue" d="M206.049,-276C230.618,-276 259.789,-276 280.065,-276"/>
<polygon fill="midnightblue" stroke="midnightblue" points="205.841,-272.5 195.84,-276 205.84,-279.5 205.841,-272.5"/>
</g>
<!-- Node9 -->
<g id="node9" class="node"><title>Node9</title>
<g id="a_node9"><a xlink:href="../../d1/dea/getx10_8c.html#a2e1c56207484e456874379d624fc0e67" target="_top" xlink:title="main">
<polygon fill="white" stroke="black" points="444.5,-266.5 444.5,-285.5 483.5,-285.5 483.5,-266.5 444.5,-266.5"/>
<text text-anchor="middle" x="464" y="-273.5" font-family="Helvetica,sans-Serif" font-size="10.00">main</text>
</a>
</g>
</g>
<!-- Node8&#45;&gt;Node9 -->
<g id="edge9" class="edge"><title>Node8&#45;&gt;Node9</title>
<path fill="none" stroke="midnightblue" d="M341.875,-276C373.531,-276 419.008,-276 444.272,-276"/>
<polygon fill="midnightblue" stroke="midnightblue" points="341.719,-272.5 331.719,-276 341.719,-279.5 341.719,-272.5"/>
</g>
<!-- Node12 -->
<g id="node12" class="node"><title>Node12</title>
<g id="a_node12"><a xlink:href="../../d7/def/applymap_8c.html#a70db8bd1d499619f7ff9c1ca2ff3c8df" target="_top" xlink:title="main">
<polygon fill="white" stroke="black" points="286.5,-228.5 286.5,-247.5 325.5,-247.5 325.5,-228.5 286.5,-228.5"/>
<text text-anchor="middle" x="306" y="-235.5" font-family="Helvetica,sans-Serif" font-size="10.00">main</text>
</a>
</g>
</g>
<!-- Node11&#45;&gt;Node12 -->
<g id="edge12" class="edge"><title>Node11&#45;&gt;Node12</title>
<path fill="none" stroke="midnightblue" d="M203.102,-211.388C230.785,-218.617 265.214,-227.609 286.128,-233.071"/>
<polygon fill="midnightblue" stroke="midnightblue" points="203.806,-207.954 193.246,-208.813 202.037,-214.727 203.806,-207.954"/>
</g>
<!-- Node13 -->
<g id="node13" class="node"><title>Node13</title>
<g id="a_node13"><a xlink:href="../../d5/dd9/rleClock_8c.html#a029cc0b8bfeacc031dd11bd48caf3a2d" target="_top" xlink:title="rasterWrite">
<polygon fill="white" stroke="black" points="271.5,-190.5 271.5,-209.5 340.5,-209.5 340.5,-190.5 271.5,-190.5"/>
<text text-anchor="middle" x="306" y="-197.5" font-family="Helvetica,sans-Serif" font-size="10.00">rasterWrite</text>
</a>
</g>
</g>
<!-- Node11&#45;&gt;Node13 -->
<g id="edge13" class="edge"><title>Node11&#45;&gt;Node13</title>
<path fill="none" stroke="midnightblue" d="M203.28,-200C225.144,-200 251.179,-200 271.437,-200"/>
<polygon fill="midnightblue" stroke="midnightblue" points="203.246,-196.5 193.246,-200 203.246,-203.5 203.246,-196.5"/>
</g>
<!-- Node14 -->
<g id="node14" class="node"><title>Node14</title>
<g id="a_node14"><a xlink:href="../../dc/d5c/rlequant_8c.html#a2d0b301e0b946a4cc922dbd1e2d49ccf" target="_top" xlink:title="copy_hdr">
<polygon fill="white" stroke="black" points="275.5,-152.5 275.5,-171.5 336.5,-171.5 336.5,-152.5 275.5,-152.5"/>
<text text-anchor="middle" x="306" y="-159.5" font-family="Helvetica,sans-Serif" font-size="10.00">copy_hdr</text>
</a>
</g>
</g>
<!-- Node11&#45;&gt;Node14 -->
<g id="edge14" class="edge"><title>Node11&#45;&gt;Node14</title>
<path fill="none" stroke="midnightblue" d="M202.933,-188.657C226.312,-182.551 254.541,-175.178 275.381,-169.736"/>
<polygon fill="midnightblue" stroke="midnightblue" points="202.037,-185.273 193.246,-191.187 203.806,-192.046 202.037,-185.273"/>
</g>
<!-- Node15 -->
<g id="node15" class="node"><title>Node15</title>
<g id="a_node15"><a xlink:href="../../df/dfb/unslice_8c.html#a7090aec632931a42b5d606b6db234b9d" target="_top" xlink:title="do_slice">
<polygon fill="white" stroke="black" points="278,-114.5 278,-133.5 334,-133.5 334,-114.5 278,-114.5"/>
<text text-anchor="middle" x="306" y="-121.5" font-family="Helvetica,sans-Serif" font-size="10.00">do_slice</text>
</a>
</g>
</g>
<!-- Node11&#45;&gt;Node15 -->
<g id="edge15" class="edge"><title>Node11&#45;&gt;Node15</title>
<path fill="none" stroke="midnightblue" d="M202.545,-186.338C205.838,-184.721 209.031,-182.944 212,-181 231.462,-168.254 228.377,-155.497 248,-143 257.062,-137.229 268.059,-133.026 277.968,-130.063"/>
<polygon fill="midnightblue" stroke="midnightblue" points="200.856,-183.257 193.105,-190.481 203.669,-189.667 200.856,-183.257"/>
</g>
<!-- Node21 -->
<g id="node21" class="node"><title>Node21</title>
<g id="a_node21"><a xlink:href="../../dc/d21/rletocgm_8c.html#add2c9fcd5032fc850935ccd2d9d9ec87" target="_top" xlink:title="begin_indexed_page">
<polygon fill="white" stroke="black" points="248,-0.5 248,-19.5 364,-19.5 364,-0.5 248,-0.5"/>
<text text-anchor="middle" x="306" y="-7.5" font-family="Helvetica,sans-Serif" font-size="10.00">begin_indexed_page</text>
</a>
</g>
</g>
<!-- Node20&#45;&gt;Node21 -->
<g id="edge21" class="edge"><title>Node20&#45;&gt;Node21</title>
<path fill="none" stroke="midnightblue" d="M222.207,-10C230.651,-10 239.279,-10 247.625,-10"/>
<polygon fill="midnightblue" stroke="midnightblue" points="222.029,-6.5001 212.029,-10 222.029,-13.5001 222.029,-6.5001"/>
</g>
<!-- Node22 -->
<g id="node22" class="node"><title>Node22</title>
<g id="a_node22"><a xlink:href="../../dc/d21/rletocgm_8c.html#a243dc5135972069e1dc4456356c8b498" target="_top" xlink:title="process_indexed_page">
<polygon fill="white" stroke="black" points="400,-0.5 400,-19.5 528,-19.5 528,-0.5 400,-0.5"/>
<text text-anchor="middle" x="464" y="-7.5" font-family="Helvetica,sans-Serif" font-size="10.00">process_indexed_page</text>
</a>
</g>
</g>
<!-- Node21&#45;&gt;Node22 -->
<g id="edge22" class="edge"><title>Node21&#45;&gt;Node22</title>
<path fill="none" stroke="midnightblue" d="M374.37,-10C382.796,-10 391.391,-10 399.751,-10"/>
<polygon fill="midnightblue" stroke="midnightblue" points="374.203,-6.5001 364.203,-10 374.203,-13.5001 374.203,-6.5001"/>
</g>
<!-- Node23 -->
<g id="node23" class="node"><title>Node23</title>
<g id="a_node23"><a xlink:href="../../dc/d21/rletocgm_8c.html#a5ea466849f21e6c2be4ef9b2eb8868d3" target="_top" xlink:title="main">
<polygon fill="white" stroke="black" points="564,-0.5 564,-19.5 603,-19.5 603,-0.5 564,-0.5"/>
<text text-anchor="middle" x="583.5" y="-7.5" font-family="Helvetica,sans-Serif" font-size="10.00">main</text>
</a>
</g>
</g>
<!-- Node22&#45;&gt;Node23 -->
<g id="edge23" class="edge"><title>Node22&#45;&gt;Node23</title>
<path fill="none" stroke="midnightblue" d="M538.499,-10C547.823,-10 556.618,-10 563.857,-10"/>
<polygon fill="midnightblue" stroke="midnightblue" points="538.221,-6.5001 528.221,-10 538.221,-13.5001 538.221,-6.5001"/>
</g>
</g>
</svg>
        <g id="navigator" transform="translate(0 0)" fill="#404254">
                <rect fill="#f2f5e9" fill-opacity="0.5" stroke="#606060" stroke-width=".5" x="0" y="0" width="60" height="60"/>
                <use id="zoomplus" xlink:href="#zoomPlus" x="17" y="9" onmousedown="handleZoom(evt,'in')"/>
                <use id="zoomminus" xlink:href="#zoomMin" x="42" y="9" onmousedown="handleZoom(evt,'out')"/>
                <use id="reset" xlink:href="#resetDef" x="30" y="36" onmousedown="handleReset()"/>
                <g id="arrowUp" xlink:href="#dirArrow" transform="translate(30 24)" onmousedown="handlePan(0,-1)">
                  <use xlink:href="#rim" fill="#404040">
                        <set attributeName="fill" to="#808080" begin="arrowUp.mouseover" end="arrowUp.mouseout"/>
                  </use>
                  <path fill="none" stroke="white" stroke-width="1.5" d="M0,-3.0v7 M-2.5,-0.5L0,-3.0L2.5,-0.5"/>
                </g>
                <g id="arrowRight" xlink:href="#dirArrow" transform="rotate(90) translate(36 -43)" onmousedown="handlePan(1,0)">
                  <use xlink:href="#rim" fill="#404040">
                        <set attributeName="fill" to="#808080" begin="arrowRight.mouseover" end="arrowRight.mouseout"/>
                  </use>
                  <path fill="none" stroke="white" stroke-width="1.5" d="M0,-3.0v7 M-2.5,-0.5L0,-3.0L2.5,-0.5"/>
                </g>
                <g id="arrowDown" xlink:href="#dirArrow" transform="rotate(180) translate(-30 -48)" onmousedown="handlePan(0,1)">
                  <use xlink:href="#rim" fill="#404040">
                        <set attributeName="fill" to="#808080" begin="arrowDown.mouseover" end="arrowDown.mouseout"/>
                  </use>
                  <path fill="none" stroke="white" stroke-width="1.5" d="M0,-3.0v7 M-2.5,-0.5L0,-3.0L2.5,-0.5"/>
                </g>
                <g id="arrowLeft" xlink:href="#dirArrow" transform="rotate(270) translate(-36 17)" onmousedown="handlePan(-1,0)">
                  <use xlink:href="#rim" fill="#404040">
                        <set attributeName="fill" to="#808080" begin="arrowLeft.mouseover" end="arrowLeft.mouseout"/>
                  </use>
                  <path fill="none" stroke="white" stroke-width="1.5" d="M0,-3.0v7 M-2.5,-0.5L0,-3.0L2.5,-0.5"/>
                </g>
        </g>
        <svg viewBox="0 0 15 15" width="100%" height="30px" preserveAspectRatio="xMaxYMin meet">
         <g id="arrow_out" transform="scale(0.3 0.3)">
          <a xlink:href="rle__getcom_8c_a9cefd612c381bf82c9cdf1f3a3b12dd6_icgraph_org.svg" target="_base">
           <rect id="button" ry="5" rx="5" y="6" x="6" height="38" width="38"
                fill="#f2f5e9" fill-opacity="0.5" stroke="#606060" stroke-width="1.0"/>
           <path id="arrow"
             d="M 11.500037,31.436501 C 11.940474,20.09759 22.043105,11.32322 32.158766,21.979434 L 37.068811,17.246167 C 37.068811,17.246167 37.088388,32 37.088388,32 L 22.160133,31.978069 C 22.160133,31.978069 26.997745,27.140456 26.997745,27.140456 C 18.528582,18.264221 13.291696,25.230495 11.500037,31.436501 z"
             style="fill:#404040;"/>
          </a>
         </g>
        </svg>
</svg>
