<?xml version="1.0" encoding="UTF-8" standalone="no"?>
<!DOCTYPE svg PUBLIC "-//W3C//DTD SVG 1.1//EN"
 "http://www.w3.org/Graphics/SVG/1.1/DTD/svg11.dtd">
<!-- Generated by graphviz version 2.38.0 (20140413.2041)
 -->
<!-- Title: main Pages: 1 -->
<svg width="513pt" height="412pt"
 viewBox="0.00 0.00 513.00 411.50" xmlns="http://www.w3.org/2000/svg" xmlns:xlink="http://www.w3.org/1999/xlink">
<g id="graph0" class="graph" transform="scale(1 1) rotate(0) translate(4 407.504)">
<title>main</title>
<polygon fill="white" stroke="none" points="-4,4 -4,-407.504 509,-407.504 509,4 -4,4"/>
<!-- Node1 -->
<g id="node1" class="node"><title>Node1</title>
<polygon fill="#bfbfbf" stroke="black" points="0,-152.5 0,-171.5 39,-171.5 39,-152.5 0,-152.5"/>
<text text-anchor="middle" x="19.5" y="-159.5" font-family="Helvetica,sans-Serif" font-size="10.00">main</text>
</g>
<!-- Node2 -->
<g id="node2" class="node"><title>Node2</title>
<g id="a_node2"><a xlink:href="../../d2/df3/rle__hdr_8c.html#a8ba0e5b11d1e39ab7227f1686e676c86" target="_top" xlink:title="rle_hdr_init">
<polygon fill="white" stroke="black" points="75,-209.5 75,-228.5 145,-228.5 145,-209.5 75,-209.5"/>
<text text-anchor="middle" x="110" y="-216.5" font-family="Helvetica,sans-Serif" font-size="10.00">rle_hdr_init</text>
</a>
</g>
</g>
<!-- Node1&#45;&gt;Node2 -->
<g id="edge1" class="edge"><title>Node1&#45;&gt;Node2</title>
<path fill="none" stroke="midnightblue" d="M35.5128,-171.669C49.1994,-180.484 69.6404,-193.65 85.4919,-203.859"/>
<polygon fill="midnightblue" stroke="midnightblue" points="83.9065,-207.001 94.2089,-209.474 87.6969,-201.116 83.9065,-207.001"/>
</g>
<!-- Node6 -->
<g id="node6" class="node"><title>Node6</title>
<g id="a_node6"><a xlink:href="../../d0/dcc/rletorla_8c.html#ab7e36af3707843f77cc5b4e831c2fa6d" target="_top" xlink:title="malloc">
<polygon fill="white" stroke="black" points="448.5,-209.5 448.5,-228.5 495.5,-228.5 495.5,-209.5 448.5,-209.5"/>
<text text-anchor="middle" x="472" y="-216.5" font-family="Helvetica,sans-Serif" font-size="10.00">malloc</text>
</a>
</g>
</g>
<!-- Node1&#45;&gt;Node6 -->
<g id="edge25" class="edge"><title>Node1&#45;&gt;Node6</title>
<path fill="none" stroke="midnightblue" d="M39,-164.341C107.892,-173.057 350.117,-203.705 438.452,-214.882"/>
<polygon fill="midnightblue" stroke="midnightblue" points="438.079,-218.363 448.44,-216.146 438.958,-211.418 438.079,-218.363"/>
</g>
<!-- Node7 -->
<g id="node7" class="node"><title>Node7</title>
<g id="a_node7"><a xlink:href="../../d2/df3/rle__hdr_8c.html#a82e79385f2d45cc3b80ce0f4f369eae5" target="_top" xlink:title="rle_names">
<polygon fill="white" stroke="black" points="319,-247.5 319,-266.5 385,-266.5 385,-247.5 319,-247.5"/>
<text text-anchor="middle" x="352" y="-254.5" font-family="Helvetica,sans-Serif" font-size="10.00">rle_names</text>
</a>
</g>
</g>
<!-- Node1&#45;&gt;Node7 -->
<g id="edge12" class="edge"><title>Node1&#45;&gt;Node7</title>
<path fill="none" stroke="midnightblue" d="M24.1271,-171.554C31.0867,-188.389 48.0572,-222.975 75,-238 148.847,-279.182 251.646,-272.71 308.658,-264.649"/>
<polygon fill="midnightblue" stroke="midnightblue" points="309.382,-268.08 318.753,-263.137 308.345,-261.157 309.382,-268.08"/>
</g>
<!-- Node8 -->
<g id="node8" class="node"><title>Node8</title>
<g id="a_node8"><a xlink:href="../../d4/db0/scanargs_8c.html#a7ea6d702c0484056c8504d6ce7fede08" target="_top" xlink:title="scanargs">
<polygon fill="white" stroke="black" points="80,-95.5 80,-114.5 140,-114.5 140,-95.5 80,-95.5"/>
<text text-anchor="middle" x="110" y="-102.5" font-family="Helvetica,sans-Serif" font-size="10.00">scanargs</text>
</a>
</g>
</g>
<!-- Node1&#45;&gt;Node8 -->
<g id="edge10" class="edge"><title>Node1&#45;&gt;Node8</title>
<path fill="none" stroke="midnightblue" d="M33.6888,-152.253C44.5749,-144.343 60.5293,-133.057 75,-124 77.3375,-122.537 79.7931,-121.058 82.2698,-119.605"/>
<polygon fill="midnightblue" stroke="midnightblue" points="84.2079,-122.529 91.1593,-114.533 80.739,-116.449 84.2079,-122.529"/>
</g>
<!-- Node10 -->
<g id="node10" class="node"><title>Node10</title>
<g id="a_node10"><a xlink:href="../../d8/d30/cmd__name_8c.html#a271249070fdd12c176777c77d76f888f" target="_top" xlink:title="cmd_name">
<polygon fill="white" stroke="black" points="76,-57.5 76,-76.5 144,-76.5 144,-57.5 76,-57.5"/>
<text text-anchor="middle" x="110" y="-64.5" font-family="Helvetica,sans-Serif" font-size="10.00">cmd_name</text>
</a>
</g>
</g>
<!-- Node1&#45;&gt;Node10 -->
<g id="edge13" class="edge"><title>Node1&#45;&gt;Node10</title>
<path fill="none" stroke="midnightblue" d="M25.7212,-152.07C34.3132,-136.457 52.7208,-105.903 75,-86 76.475,-84.6823 78.0568,-83.4177 79.7017,-82.2112"/>
<polygon fill="midnightblue" stroke="midnightblue" points="81.7512,-85.054 88.2505,-76.6868 77.9519,-79.1748 81.7512,-85.054"/>
</g>
<!-- Node11 -->
<g id="node11" class="node"><title>Node11</title>
<g id="a_node11"><a xlink:href="../../de/d4e/rle__open__f_8c.html#a89733a45961817885603ae01210290b7" target="_top" xlink:title="rle_open_f">
<polygon fill="white" stroke="black" points="76,-133.5 76,-152.5 144,-152.5 144,-133.5 76,-133.5"/>
<text text-anchor="middle" x="110" y="-140.5" font-family="Helvetica,sans-Serif" font-size="10.00">rle_open_f</text>
</a>
</g>
</g>
<!-- Node1&#45;&gt;Node11 -->
<g id="edge14" class="edge"><title>Node1&#45;&gt;Node11</title>
<path fill="none" stroke="midnightblue" d="M39.2686,-157.971C47.0935,-156.291 56.531,-154.265 65.8998,-152.253"/>
<polygon fill="midnightblue" stroke="midnightblue" points="66.9168,-155.615 75.9594,-150.093 65.4474,-148.771 66.9168,-155.615"/>
</g>
<!-- Node14 -->
<g id="node14" class="node"><title>Node14</title>
<g id="a_node14"><a xlink:href="../../db/d53/rle__getrow_8c.html#a619b27463c26e0a4a3d9648a9869ee52" target="_top" xlink:title="rle_get_setup">
<polygon fill="white" stroke="black" points="182.5,-323.5 182.5,-342.5 263.5,-342.5 263.5,-323.5 182.5,-323.5"/>
<text text-anchor="middle" x="223" y="-330.5" font-family="Helvetica,sans-Serif" font-size="10.00">rle_get_setup</text>
</a>
</g>
</g>
<!-- Node1&#45;&gt;Node14 -->
<g id="edge19" class="edge"><title>Node1&#45;&gt;Node14</title>
<path fill="none" stroke="midnightblue" d="M22.8342,-171.522C28.3894,-192.312 44.284,-242.204 75,-271 102.168,-296.469 141.346,-312.287 172.425,-321.567"/>
<polygon fill="midnightblue" stroke="midnightblue" points="171.629,-324.979 182.205,-324.353 173.547,-318.247 171.629,-324.979"/>
</g>
<!-- Node16 -->
<g id="node16" class="node"><title>Node16</title>
<g id="a_node16"><a xlink:href="../../db/d53/rle__getrow_8c.html#a3602e1158189cba5e5b0f9b983cba776" target="_top" xlink:title="rle_getrow">
<polygon fill="white" stroke="black" points="76.5,-19.5 76.5,-38.5 143.5,-38.5 143.5,-19.5 76.5,-19.5"/>
<text text-anchor="middle" x="110" y="-26.5" font-family="Helvetica,sans-Serif" font-size="10.00">rle_getrow</text>
</a>
</g>
</g>
<!-- Node1&#45;&gt;Node16 -->
<g id="edge26" class="edge"><title>Node1&#45;&gt;Node16</title>
<path fill="none" stroke="midnightblue" d="M22.9598,-152.297C28.7658,-131.063 45.1291,-79.8351 75,-48 76.177,-46.7457 77.4557,-45.553 78.8044,-44.4221"/>
<polygon fill="midnightblue" stroke="midnightblue" points="80.8957,-47.2304 87.072,-38.6221 76.8755,-41.5 80.8957,-47.2304"/>
</g>
<!-- Node3 -->
<g id="node3" class="node"><title>Node3</title>
<g id="a_node3"><a xlink:href="../../d2/df3/rle__hdr_8c.html#a16c4da6201b3b8cf55127b9ca968d253" target="_top" xlink:title="rle_hdr_clear">
<polygon fill="white" stroke="black" points="312,-323.5 312,-342.5 392,-342.5 392,-323.5 312,-323.5"/>
<text text-anchor="middle" x="352" y="-330.5" font-family="Helvetica,sans-Serif" font-size="10.00">rle_hdr_clear</text>
</a>
</g>
</g>
<!-- Node2&#45;&gt;Node3 -->
<g id="edge2" class="edge"><title>Node2&#45;&gt;Node3</title>
<path fill="none" stroke="midnightblue" d="M131.049,-228.523C173.402,-248.641 272.141,-295.542 321.629,-319.049"/>
<polygon fill="midnightblue" stroke="midnightblue" points="320.304,-322.294 330.839,-323.423 323.308,-315.971 320.304,-322.294"/>
</g>
<!-- Node5 -->
<g id="node5" class="node"><title>Node5</title>
<g id="a_node5"><a xlink:href="../../d2/df3/rle__hdr_8c.html#afc916e29aea8788e0878ca315ff69821" target="_top" xlink:title="rle_hdr_cp">
<polygon fill="white" stroke="black" points="189,-209.5 189,-228.5 257,-228.5 257,-209.5 189,-209.5"/>
<text text-anchor="middle" x="223" y="-216.5" font-family="Helvetica,sans-Serif" font-size="10.00">rle_hdr_cp</text>
</a>
</g>
</g>
<!-- Node2&#45;&gt;Node5 -->
<g id="edge4" class="edge"><title>Node2&#45;&gt;Node5</title>
<path fill="none" stroke="midnightblue" d="M145.209,-212.712C155.841,-212.228 167.702,-212.124 178.86,-212.401"/>
<polygon fill="midnightblue" stroke="midnightblue" points="178.735,-215.899 188.855,-212.762 178.988,-208.903 178.735,-215.899"/>
</g>
<!-- Node4 -->
<g id="node4" class="node"><title>Node4</title>
<g id="a_node4"><a xlink:href="../../d0/dcc/rletorla_8c.html#aafde19f7d36ca163a143579c1b125b6d" target="_top" xlink:title="free">
<polygon fill="white" stroke="black" points="454.5,-285.5 454.5,-304.5 489.5,-304.5 489.5,-285.5 454.5,-285.5"/>
<text text-anchor="middle" x="472" y="-292.5" font-family="Helvetica,sans-Serif" font-size="10.00">free</text>
</a>
</g>
</g>
<!-- Node3&#45;&gt;Node4 -->
<g id="edge3" class="edge"><title>Node3&#45;&gt;Node4</title>
<path fill="none" stroke="midnightblue" d="M382.776,-323.411C401.813,-317.28 426.281,-309.401 444.618,-303.496"/>
<polygon fill="midnightblue" stroke="midnightblue" points="445.914,-306.756 454.359,-300.359 443.768,-300.093 445.914,-306.756"/>
</g>
<!-- Node5&#45;&gt;Node2 -->
<g id="edge5" class="edge"><title>Node5&#45;&gt;Node2</title>
<path fill="none" stroke="midnightblue" d="M188.855,-225.238C178.307,-225.748 166.467,-225.877 155.263,-225.626"/>
<polygon fill="midnightblue" stroke="midnightblue" points="155.321,-222.126 145.209,-225.288 155.086,-229.122 155.321,-222.126"/>
</g>
<!-- Node5&#45;&gt;Node6 -->
<g id="edge6" class="edge"><title>Node5&#45;&gt;Node6</title>
<path fill="none" stroke="midnightblue" d="M257.055,-219C304.374,-219 390.906,-219 438.125,-219"/>
<polygon fill="midnightblue" stroke="midnightblue" points="438.407,-222.5 448.407,-219 438.407,-215.5 438.407,-222.5"/>
</g>
<!-- Node5&#45;&gt;Node7 -->
<g id="edge7" class="edge"><title>Node5&#45;&gt;Node7</title>
<path fill="none" stroke="midnightblue" d="M256.047,-228.589C272.141,-233.404 291.841,-239.299 309.117,-244.468"/>
<polygon fill="midnightblue" stroke="midnightblue" points="308.379,-247.901 318.963,-247.414 310.386,-241.194 308.379,-247.901"/>
</g>
<!-- Node7&#45;&gt;Node4 -->
<g id="edge8" class="edge"><title>Node7&#45;&gt;Node4</title>
<path fill="none" stroke="midnightblue" d="M382.776,-266.589C401.813,-272.72 426.281,-280.599 444.618,-286.504"/>
<polygon fill="midnightblue" stroke="midnightblue" points="443.768,-289.907 454.359,-289.641 445.914,-283.244 443.768,-289.907"/>
</g>
<!-- Node7&#45;&gt;Node6 -->
<g id="edge9" class="edge"><title>Node7&#45;&gt;Node6</title>
<path fill="none" stroke="midnightblue" d="M382.776,-247.411C399.784,-241.934 421.127,-235.061 438.559,-229.447"/>
<polygon fill="midnightblue" stroke="midnightblue" points="439.864,-232.704 448.31,-226.307 437.718,-226.041 439.864,-232.704"/>
</g>
<!-- Node9 -->
<g id="node9" class="node"><title>Node9</title>
<g id="a_node9"><a xlink:href="../../d4/db0/scanargs_8c.html#a862219039664df6eb3cfced58addf830" target="_top" xlink:title="_do_scanargs">
<polygon fill="white" stroke="black" points="181,-95.5 181,-114.5 265,-114.5 265,-95.5 181,-95.5"/>
<text text-anchor="middle" x="223" y="-102.5" font-family="Helvetica,sans-Serif" font-size="10.00">_do_scanargs</text>
</a>
</g>
</g>
<!-- Node8&#45;&gt;Node9 -->
<g id="edge11" class="edge"><title>Node8&#45;&gt;Node9</title>
<path fill="none" stroke="midnightblue" d="M140.164,-105C149.607,-105 160.375,-105 170.927,-105"/>
<polygon fill="midnightblue" stroke="midnightblue" points="170.929,-108.5 180.929,-105 170.929,-101.5 170.929,-108.5"/>
</g>
<!-- Node12 -->
<g id="node12" class="node"><title>Node12</title>
<g id="a_node12"><a xlink:href="../../de/d4e/rle__open__f_8c.html#a5a0e62a00f907fce26e93b2f72adb2b0" target="_top" xlink:title="rle_open_f_noexit">
<polygon fill="white" stroke="black" points="301,-133.5 301,-152.5 403,-152.5 403,-133.5 301,-133.5"/>
<text text-anchor="middle" x="352" y="-140.5" font-family="Helvetica,sans-Serif" font-size="10.00">rle_open_f_noexit</text>
</a>
</g>
</g>
<!-- Node11&#45;&gt;Node12 -->
<g id="edge15" class="edge"><title>Node11&#45;&gt;Node12</title>
<path fill="none" stroke="midnightblue" d="M144.119,-143C181.777,-143 244.038,-143 290.438,-143"/>
<polygon fill="midnightblue" stroke="midnightblue" points="290.676,-146.5 300.676,-143 290.676,-139.5 290.676,-146.5"/>
</g>
<!-- Node12&#45;&gt;Node4 -->
<g id="edge18" class="edge"><title>Node12&#45;&gt;Node4</title>
<path fill="none" stroke="midnightblue" d="M360.381,-152.508C379.752,-177.46 432.266,-245.106 457.33,-277.392"/>
<polygon fill="midnightblue" stroke="midnightblue" points="454.724,-279.742 463.621,-285.495 460.254,-275.45 454.724,-279.742"/>
</g>
<!-- Node12&#45;&gt;Node6 -->
<g id="edge17" class="edge"><title>Node12&#45;&gt;Node6</title>
<path fill="none" stroke="midnightblue" d="M375.421,-152.567C384.232,-156.632 394.3,-161.664 403,-167 420.459,-177.709 438.827,-191.957 452.066,-202.831"/>
<polygon fill="midnightblue" stroke="midnightblue" points="450.042,-205.701 459.963,-209.418 454.526,-200.325 450.042,-205.701"/>
</g>
<!-- Node13 -->
<g id="node13" class="node"><title>Node13</title>
<g id="a_node13"><a xlink:href="../../de/d4e/rle__open__f_8c.html#a84fda810ae9b9bde82a6391d0b264ead" target="_top" xlink:title="my_popen">
<polygon fill="white" stroke="black" points="439,-133.5 439,-152.5 505,-152.5 505,-133.5 439,-133.5"/>
<text text-anchor="middle" x="472" y="-140.5" font-family="Helvetica,sans-Serif" font-size="10.00">my_popen</text>
</a>
</g>
</g>
<!-- Node12&#45;&gt;Node13 -->
<g id="edge16" class="edge"><title>Node12&#45;&gt;Node13</title>
<path fill="none" stroke="midnightblue" d="M403.043,-143C411.523,-143 420.255,-143 428.518,-143"/>
<polygon fill="midnightblue" stroke="midnightblue" points="428.678,-146.5 438.678,-143 428.678,-139.5 428.678,-146.5"/>
</g>
<!-- Node14&#45;&gt;Node3 -->
<g id="edge20" class="edge"><title>Node14&#45;&gt;Node3</title>
<path fill="none" stroke="midnightblue" d="M263.835,-333C275.77,-333 289.006,-333 301.484,-333"/>
<polygon fill="midnightblue" stroke="midnightblue" points="301.742,-336.5 311.742,-333 301.742,-329.5 301.742,-336.5"/>
</g>
<!-- Node14&#45;&gt;Node4 -->
<g id="edge23" class="edge"><title>Node14&#45;&gt;Node4</title>
<path fill="none" stroke="midnightblue" d="M232.812,-342.609C246.051,-356.252 272.569,-380.622 301,-390 344.052,-404.201 362.681,-410.724 403,-390 433.974,-374.08 453.989,-336.779 463.812,-313.94"/>
<polygon fill="midnightblue" stroke="midnightblue" points="467.088,-315.174 467.61,-304.593 460.603,-312.539 467.088,-315.174"/>
</g>
<!-- Node14&#45;&gt;Node6 -->
<g id="edge22" class="edge"><title>Node14&#45;&gt;Node6</title>
<path fill="none" stroke="midnightblue" d="M259.679,-323.412C304.38,-311.094 378.14,-289.677 403,-276 422.448,-265.301 441.547,-248.587 454.527,-236.02"/>
<polygon fill="midnightblue" stroke="midnightblue" points="457.144,-238.354 461.768,-228.821 452.208,-233.39 457.144,-238.354"/>
</g>
<!-- Node14&#45;&gt;Node7 -->
<g id="edge21" class="edge"><title>Node14&#45;&gt;Node7</title>
<path fill="none" stroke="midnightblue" d="M236.976,-323.375C251.985,-312.448 277.632,-294.403 301,-281 307.061,-277.524 313.703,-274.09 320.11,-270.954"/>
<polygon fill="midnightblue" stroke="midnightblue" points="321.714,-274.066 329.233,-266.602 318.701,-267.748 321.714,-274.066"/>
</g>
<!-- Node15 -->
<g id="node15" class="node"><title>Node15</title>
<g id="a_node15"><a xlink:href="../../db/d53/rle__getrow_8c.html#a0ea68aa2ebeef9d4cade7282553b03d6" target="_top" xlink:title="vax_gshort">
<polygon fill="white" stroke="black" points="317.5,-361.5 317.5,-380.5 386.5,-380.5 386.5,-361.5 317.5,-361.5"/>
<text text-anchor="middle" x="352" y="-368.5" font-family="Helvetica,sans-Serif" font-size="10.00">vax_gshort</text>
</a>
</g>
</g>
<!-- Node14&#45;&gt;Node15 -->
<g id="edge24" class="edge"><title>Node14&#45;&gt;Node15</title>
<path fill="none" stroke="midnightblue" d="M256.047,-342.589C272.141,-347.404 291.841,-353.299 309.117,-358.468"/>
<polygon fill="midnightblue" stroke="midnightblue" points="308.379,-361.901 318.963,-361.414 310.386,-355.194 308.379,-361.901"/>
</g>
<!-- Node17 -->
<g id="node17" class="node"><title>Node17</title>
<g id="a_node17"><a xlink:href="../../db/d53/rle__getrow_8c.html#a61ac0da96b0dd8bc3cbc98afcd9b5c44" target="_top" xlink:title="bfill">
<polygon fill="white" stroke="black" points="207,-0.5 207,-19.5 239,-19.5 239,-0.5 207,-0.5"/>
<text text-anchor="middle" x="223" y="-7.5" font-family="Helvetica,sans-Serif" font-size="10.00">bfill</text>
</a>
</g>
</g>
<!-- Node16&#45;&gt;Node17 -->
<g id="edge27" class="edge"><title>Node16&#45;&gt;Node17</title>
<path fill="none" stroke="midnightblue" d="M143.703,-23.4021C160.642,-20.5027 181.01,-17.0164 196.725,-14.3263"/>
<polygon fill="midnightblue" stroke="midnightblue" points="197.496,-17.7453 206.762,-12.6082 196.315,-10.8457 197.496,-17.7453"/>
</g>
<!-- Node18 -->
<g id="node18" class="node"><title>Node18</title>
<g id="a_node18"><a xlink:href="../../d8/d7c/rle__getskip_8c.html#af6b1e1dc0867e9340f90668591c7c5b3" target="_top" xlink:title="rle_getskip">
<polygon fill="white" stroke="black" points="189,-38.5 189,-57.5 257,-57.5 257,-38.5 189,-38.5"/>
<text text-anchor="middle" x="223" y="-45.5" font-family="Helvetica,sans-Serif" font-size="10.00">rle_getskip</text>
</a>
</g>
</g>
<!-- Node16&#45;&gt;Node18 -->
<g id="edge28" class="edge"><title>Node16&#45;&gt;Node18</title>
<path fill="none" stroke="midnightblue" d="M143.703,-34.5979C154.684,-36.4774 167.105,-38.6036 178.766,-40.5996"/>
<polygon fill="midnightblue" stroke="midnightblue" points="178.315,-44.0732 188.762,-42.3106 179.496,-37.1736 178.315,-44.0732"/>
</g>
</g>
</svg>
