<?xml version="1.0" encoding="UTF-8" standalone="no"?>
<!DOCTYPE svg PUBLIC "-//W3C//DTD SVG 1.1//EN"
 "http://www.w3.org/Graphics/SVG/1.1/DTD/svg11.dtd">
<!-- Generated by graphviz version 2.38.0 (20140413.2041)
 -->
<!-- Title: dvirle2.c Pages: 1 -->
<svg width="572pt" height="84pt"
 viewBox="0.00 0.00 571.50 84.00" xmlns="http://www.w3.org/2000/svg" xmlns:xlink="http://www.w3.org/1999/xlink">
<g id="graph0" class="graph" transform="scale(1 1) rotate(0) translate(4 80)">
<title>dvirle2.c</title>
<polygon fill="white" stroke="none" points="-4,4 -4,-80 567.5,-80 567.5,4 -4,4"/>
<!-- Node1 -->
<g id="node1" class="node"><title>Node1</title>
<polygon fill="#bfbfbf" stroke="black" points="272,-56.5 272,-75.5 328,-75.5 328,-56.5 272,-56.5"/>
<text text-anchor="middle" x="300" y="-63.5" font-family="Helvetica,sans-Serif" font-size="10.00">dvirle2.c</text>
</g>
<!-- Node2 -->
<g id="node2" class="node"><title>Node2</title>
<polygon fill="white" stroke="#bfbfbf" points="0,-0.5 0,-19.5 50,-19.5 50,-0.5 0,-0.5"/>
<text text-anchor="middle" x="25" y="-7.5" font-family="Helvetica,sans-Serif" font-size="10.00">errno.h</text>
</g>
<!-- Node1&#45;&gt;Node2 -->
<g id="edge1" class="edge"><title>Node1&#45;&gt;Node2</title>
<path fill="none" stroke="midnightblue" d="M271.663,-60.4099C228.197,-53.2179 142.271,-38.4046 59.9573,-20.0854"/>
<polygon fill="midnightblue" stroke="midnightblue" points="60.7238,-16.6704 50.1998,-17.8932 59.1893,-23.5002 60.7238,-16.6704"/>
</g>
<!-- Node3 -->
<g id="node3" class="node"><title>Node3</title>
<polygon fill="white" stroke="#bfbfbf" points="68,-0.5 68,-19.5 124,-19.5 124,-0.5 68,-0.5"/>
<text text-anchor="middle" x="96" y="-7.5" font-family="Helvetica,sans-Serif" font-size="10.00">setjmp.h</text>
</g>
<!-- Node1&#45;&gt;Node3 -->
<g id="edge2" class="edge"><title>Node1&#45;&gt;Node3</title>
<path fill="none" stroke="midnightblue" d="M271.635,-57.4915C235.781,-48.0008 173.936,-31.6302 134.019,-21.0638"/>
<polygon fill="midnightblue" stroke="midnightblue" points="134.687,-17.6202 124.124,-18.4447 132.896,-24.3872 134.687,-17.6202"/>
</g>
<!-- Node4 -->
<g id="node4" class="node"><title>Node4</title>
<polygon fill="white" stroke="#bfbfbf" points="142.5,-0.5 142.5,-19.5 189.5,-19.5 189.5,-0.5 142.5,-0.5"/>
<text text-anchor="middle" x="166" y="-7.5" font-family="Helvetica,sans-Serif" font-size="10.00">stdio.h</text>
</g>
<!-- Node1&#45;&gt;Node4 -->
<g id="edge3" class="edge"><title>Node1&#45;&gt;Node4</title>
<path fill="none" stroke="midnightblue" d="M278.767,-56.4435C256.616,-47.5171 221.681,-33.4387 196.564,-23.3168"/>
<polygon fill="midnightblue" stroke="midnightblue" points="197.717,-20.0079 187.133,-19.5164 195.1,-26.5006 197.717,-20.0079"/>
</g>
<!-- Node5 -->
<g id="node5" class="node"><title>Node5</title>
<polygon fill="white" stroke="#bfbfbf" points="208,-0.5 208,-19.5 258,-19.5 258,-0.5 208,-0.5"/>
<text text-anchor="middle" x="233" y="-7.5" font-family="Helvetica,sans-Serif" font-size="10.00">types.h</text>
</g>
<!-- Node1&#45;&gt;Node5 -->
<g id="edge4" class="edge"><title>Node1&#45;&gt;Node5</title>
<path fill="none" stroke="midnightblue" d="M289.235,-56.324C279.234,-48.2631 264.113,-36.0765 252.07,-26.3695"/>
<polygon fill="midnightblue" stroke="midnightblue" points="253.943,-23.3841 243.961,-19.8339 249.55,-28.8343 253.943,-23.3841"/>
</g>
<!-- Node6 -->
<g id="node6" class="node"><title>Node6</title>
<polygon fill="white" stroke="#bfbfbf" points="276.5,-0.5 276.5,-19.5 323.5,-19.5 323.5,-0.5 276.5,-0.5"/>
<text text-anchor="middle" x="300" y="-7.5" font-family="Helvetica,sans-Serif" font-size="10.00">conv.h</text>
</g>
<!-- Node1&#45;&gt;Node6 -->
<g id="edge5" class="edge"><title>Node1&#45;&gt;Node6</title>
<path fill="none" stroke="midnightblue" d="M300,-56.083C300,-49.0059 300,-38.8611 300,-29.9865"/>
<polygon fill="midnightblue" stroke="midnightblue" points="303.5,-29.751 300,-19.7511 296.5,-29.7511 303.5,-29.751"/>
</g>
<!-- Node7 -->
<g id="node7" class="node"><title>Node7</title>
<polygon fill="white" stroke="#bfbfbf" points="342,-0.5 342,-19.5 378,-19.5 378,-0.5 342,-0.5"/>
<text text-anchor="middle" x="360" y="-7.5" font-family="Helvetica,sans-Serif" font-size="10.00">fio.h</text>
</g>
<!-- Node1&#45;&gt;Node7 -->
<g id="edge6" class="edge"><title>Node1&#45;&gt;Node7</title>
<path fill="none" stroke="midnightblue" d="M309.64,-56.324C318.51,-48.3414 331.875,-36.3128 342.608,-26.6529"/>
<polygon fill="midnightblue" stroke="midnightblue" points="345.093,-29.1251 350.185,-19.8339 340.41,-23.922 345.093,-29.1251"/>
</g>
<!-- Node8 -->
<g id="node8" class="node"><title>Node8</title>
<g id="a_node8"><a xlink:href="../../d9/d67/font_8h.html" target="_top" xlink:title="font.h">
<polygon fill="white" stroke="black" points="396.5,-0.5 396.5,-19.5 439.5,-19.5 439.5,-0.5 396.5,-0.5"/>
<text text-anchor="middle" x="418" y="-7.5" font-family="Helvetica,sans-Serif" font-size="10.00">font.h</text>
</a>
</g>
</g>
<!-- Node1&#45;&gt;Node8 -->
<g id="edge7" class="edge"><title>Node1&#45;&gt;Node8</title>
<path fill="none" stroke="midnightblue" d="M318.697,-56.4435C337.944,-47.6356 368.152,-33.8116 390.2,-23.722"/>
<polygon fill="midnightblue" stroke="midnightblue" points="391.753,-26.8603 399.39,-19.5164 388.84,-20.4951 391.753,-26.8603"/>
</g>
<!-- Node9 -->
<g id="node9" class="node"><title>Node9</title>
<g id="a_node9"><a xlink:href="../../df/d5c/dvirle_8h.html" target="_top" xlink:title="dvirle.h">
<polygon fill="white" stroke="black" points="458,-0.5 458,-19.5 508,-19.5 508,-0.5 458,-0.5"/>
<text text-anchor="middle" x="483" y="-7.5" font-family="Helvetica,sans-Serif" font-size="10.00">dvirle.h</text>
</a>
</g>
</g>
<!-- Node1&#45;&gt;Node9 -->
<g id="edge8" class="edge"><title>Node1&#45;&gt;Node9</title>
<path fill="none" stroke="midnightblue" d="M328.193,-56.6808C360.405,-47.1757 413.148,-31.612 447.972,-21.3362"/>
<polygon fill="midnightblue" stroke="midnightblue" points="449.123,-24.6458 457.724,-18.4586 447.142,-17.932 449.123,-24.6458"/>
</g>
<!-- Node10 -->
<g id="node10" class="node"><title>Node10</title>
<polygon fill="white" stroke="#bfbfbf" points="526.5,-0.5 526.5,-19.5 563.5,-19.5 563.5,-0.5 526.5,-0.5"/>
<text text-anchor="middle" x="545" y="-7.5" font-family="Helvetica,sans-Serif" font-size="10.00">rle.h</text>
</g>
<!-- Node1&#45;&gt;Node10 -->
<g id="edge9" class="edge"><title>Node1&#45;&gt;Node10</title>
<path fill="none" stroke="midnightblue" d="M328.314,-60.1241C368.167,-53.0464 443.222,-38.9341 516.543,-19.8782"/>
<polygon fill="midnightblue" stroke="midnightblue" points="517.626,-23.2125 526.405,-17.2818 515.844,-16.4432 517.626,-23.2125"/>
</g>
</g>
</svg>
