<?xml version="1.0" encoding="UTF-8" standalone="no"?>
<!DOCTYPE svg PUBLIC "-//W3C//DTD SVG 1.1//EN"
 "http://www.w3.org/Graphics/SVG/1.1/DTD/svg11.dtd">
<!-- Generated by graphviz version 2.38.0 (20140413.2041)
 -->
<!-- Title: main Pages: 1 -->
<!--zoomable 697 -->
<svg id="main" version="1.1" xmlns="http://www.w3.org/2000/svg" xmlns:xlink="http://www.w3.org/1999/xlink" xml:space="preserve" onload="init(evt)">
<style type="text/css"><![CDATA[
.edge:hover path { stroke: red; }
.edge:hover polygon { stroke: red; fill: red; }
]]></style>
<script type="text/javascript"><![CDATA[
var edges = document.getElementsByTagName('g');
if (edges && edges.length) {
  for (var i=0;i<edges.length;i++) {
    if (edges[i].id.substr(0,4)=='edge') {
      edges[i].setAttribute('class','edge');
    }
  }
}
]]></script>
        <defs>
                <circle id="rim" cx="0" cy="0" r="7"/>
                <circle id="rim2" cx="0" cy="0" r="3.5"/>
                <g id="zoomPlus">
                        <use xlink:href="#rim" fill="#404040">
                                <set attributeName="fill" to="#808080" begin="zoomplus.mouseover" end="zoomplus.mouseout"/>
                        </use>
                        <path d="M-4,0h8M0,-4v8" fill="none" stroke="white" stroke-width="1.5" pointer-events="none"/>
                </g>
                <g id="zoomMin">
                        <use xlink:href="#rim" fill="#404040">
                                <set attributeName="fill" to="#808080" begin="zoomminus.mouseover" end="zoomminus.mouseout"/>
                        </use>
                        <path d="M-4,0h8" fill="none" stroke="white" stroke-width="1.5" pointer-events="none"/>
                </g>
                <g id="dirArrow">
                        <path fill="none" stroke="white" stroke-width="1.5" d="M0,-3.0v7 M-2.5,-0.5L0,-3.0L2.5,-0.5"/>
                </g>
               <g id="resetDef">
                       <use xlink:href="#rim2" fill="#404040">
                               <set attributeName="fill" to="#808080" begin="reset.mouseover" end="reset.mouseout"/>
                       </use>
               </g>
        </defs>

<script type="text/javascript">
var viewWidth = 523;
var viewHeight = 697;
var sectionId = 'dynsection-1';
</script>
<script xlink:href="../../svgpan.js"/>
<svg id="graph" class="graph">
<g id="viewport">
<title>main</title>
<polygon fill="white" stroke="none" points="-4,4 -4,-693.186 519,-693.186 519,4 -4,4"/>
<!-- Node1 -->
<g id="node1" class="node"><title>Node1</title>
<polygon fill="#bfbfbf" stroke="black" points="0,-351.5 0,-370.5 39,-370.5 39,-351.5 0,-351.5"/>
<text text-anchor="middle" x="19.5" y="-358.5" font-family="Helvetica,sans-Serif" font-size="10.00">main</text>
</g>
<!-- Node2 -->
<g id="node2" class="node"><title>Node2</title>
<g id="a_node2"><a xlink:href="../../d2/df3/rle__hdr_8c.html#a8ba0e5b11d1e39ab7227f1686e676c86" target="_top" xlink:title="rle_hdr_init">
<polygon fill="white" stroke="black" points="80,-408.5 80,-427.5 150,-427.5 150,-408.5 80,-408.5"/>
<text text-anchor="middle" x="115" y="-415.5" font-family="Helvetica,sans-Serif" font-size="10.00">rle_hdr_init</text>
</a>
</g>
</g>
<!-- Node1&#45;&gt;Node2 -->
<g id="edge1" class="edge"><title>Node1&#45;&gt;Node2</title>
<path fill="none" stroke="midnightblue" d="M33.1205,-370.642C43.9344,-378.697 60.0814,-390.237 75,-399 77.7052,-400.589 80.5626,-402.164 83.4512,-403.687"/>
<polygon fill="midnightblue" stroke="midnightblue" points="82.132,-406.942 92.6353,-408.332 85.2911,-400.696 82.132,-406.942"/>
</g>
<!-- Node4 -->
<g id="node4" class="node"><title>Node4</title>
<g id="a_node4"><a xlink:href="../../d0/dcc/rletorla_8c.html#aafde19f7d36ca163a143579c1b125b6d" target="_top" xlink:title="free">
<polygon fill="white" stroke="black" points="464.5,-522.5 464.5,-541.5 499.5,-541.5 499.5,-522.5 464.5,-522.5"/>
<text text-anchor="middle" x="482" y="-529.5" font-family="Helvetica,sans-Serif" font-size="10.00">free</text>
</a>
</g>
</g>
<!-- Node1&#45;&gt;Node4 -->
<g id="edge47" class="edge"><title>Node1&#45;&gt;Node4</title>
<path fill="none" stroke="midnightblue" d="M20.9101,-370.572C22.9972,-414.201 34.0003,-593.549 75,-627 191.396,-721.966 279.393,-695.672 413,-627 429.085,-618.733 455.757,-575.885 470.461,-550.646"/>
<polygon fill="midnightblue" stroke="midnightblue" points="473.684,-552.062 475.632,-541.648 467.615,-548.575 473.684,-552.062"/>
</g>
<!-- Node5 -->
<g id="node5" class="node"><title>Node5</title>
<g id="a_node5"><a xlink:href="../../d2/df3/rle__hdr_8c.html#afc916e29aea8788e0878ca315ff69821" target="_top" xlink:title="rle_hdr_cp">
<polygon fill="white" stroke="black" points="199,-370.5 199,-389.5 267,-389.5 267,-370.5 199,-370.5"/>
<text text-anchor="middle" x="233" y="-377.5" font-family="Helvetica,sans-Serif" font-size="10.00">rle_hdr_cp</text>
</a>
</g>
</g>
<!-- Node1&#45;&gt;Node5 -->
<g id="edge25" class="edge"><title>Node1&#45;&gt;Node5</title>
<path fill="none" stroke="midnightblue" d="M39.2986,-359.575C65.3808,-357.922 113.971,-356.013 155,-361 166.84,-362.439 179.484,-365.08 191.032,-367.944"/>
<polygon fill="midnightblue" stroke="midnightblue" points="190.291,-371.368 200.85,-370.494 192.051,-364.593 190.291,-371.368"/>
</g>
<!-- Node6 -->
<g id="node6" class="node"><title>Node6</title>
<g id="a_node6"><a xlink:href="../../d0/dcc/rletorla_8c.html#ab7e36af3707843f77cc5b4e831c2fa6d" target="_top" xlink:title="malloc">
<polygon fill="white" stroke="black" points="458.5,-294.5 458.5,-313.5 505.5,-313.5 505.5,-294.5 458.5,-294.5"/>
<text text-anchor="middle" x="482" y="-301.5" font-family="Helvetica,sans-Serif" font-size="10.00">malloc</text>
</a>
</g>
</g>
<!-- Node1&#45;&gt;Node6 -->
<g id="edge33" class="edge"><title>Node1&#45;&gt;Node6</title>
<path fill="none" stroke="midnightblue" d="M21.6215,-351.412C26.1758,-314.166 44.5128,-179.783 75,-152 113.614,-116.811 138.929,-137.236 191,-133 228.21,-129.973 239.884,-120.324 275,-133 361.615,-164.265 437.544,-249.553 467.452,-286.522"/>
<polygon fill="midnightblue" stroke="midnightblue" points="464.776,-288.78 473.74,-294.429 470.255,-284.424 464.776,-288.78"/>
</g>
<!-- Node7 -->
<g id="node7" class="node"><title>Node7</title>
<g id="a_node7"><a xlink:href="../../d2/df3/rle__hdr_8c.html#a82e79385f2d45cc3b80ce0f4f369eae5" target="_top" xlink:title="rle_names">
<polygon fill="white" stroke="black" points="329,-370.5 329,-389.5 395,-389.5 395,-370.5 329,-370.5"/>
<text text-anchor="middle" x="362" y="-377.5" font-family="Helvetica,sans-Serif" font-size="10.00">rle_names</text>
</a>
</g>
</g>
<!-- Node1&#45;&gt;Node7 -->
<g id="edge18" class="edge"><title>Node1&#45;&gt;Node7</title>
<path fill="none" stroke="midnightblue" d="M24.0274,-370.74C30.8287,-387.871 47.5569,-422.91 75,-437 118.269,-459.216 257.692,-415.976 324.562,-393.02"/>
<polygon fill="midnightblue" stroke="midnightblue" points="325.962,-396.239 334.264,-389.656 323.67,-389.625 325.962,-396.239"/>
</g>
<!-- Node8 -->
<g id="node8" class="node"><title>Node8</title>
<g id="a_node8"><a xlink:href="../../d4/db0/scanargs_8c.html#a7ea6d702c0484056c8504d6ce7fede08" target="_top" xlink:title="scanargs">
<polygon fill="white" stroke="black" points="85,-522.5 85,-541.5 145,-541.5 145,-522.5 85,-522.5"/>
<text text-anchor="middle" x="115" y="-529.5" font-family="Helvetica,sans-Serif" font-size="10.00">scanargs</text>
</a>
</g>
</g>
<!-- Node1&#45;&gt;Node8 -->
<g id="edge10" class="edge"><title>Node1&#45;&gt;Node8</title>
<path fill="none" stroke="midnightblue" d="M21.8549,-370.672C25.8177,-395.882 39.4355,-464.653 75,-508 77.5923,-511.16 80.7161,-514.018 84.0534,-516.569"/>
<polygon fill="midnightblue" stroke="midnightblue" points="82.3459,-519.637 92.6078,-522.272 86.229,-513.813 82.3459,-519.637"/>
</g>
<!-- Node10 -->
<g id="node10" class="node"><title>Node10</title>
<g id="a_node10"><a xlink:href="../../de/d4e/rle__open__f_8c.html#a89733a45961817885603ae01210290b7" target="_top" xlink:title="rle_open_f">
<polygon fill="white" stroke="black" points="81,-598.5 81,-617.5 149,-617.5 149,-598.5 81,-598.5"/>
<text text-anchor="middle" x="115" y="-605.5" font-family="Helvetica,sans-Serif" font-size="10.00">rle_open_f</text>
</a>
</g>
</g>
<!-- Node1&#45;&gt;Node10 -->
<g id="edge12" class="edge"><title>Node1&#45;&gt;Node10</title>
<path fill="none" stroke="midnightblue" d="M20.3642,-370.535C20.3642,-403.496 24.3232,-514.411 75,-584 77.3547,-587.233 80.2902,-590.123 83.4873,-592.679"/>
<polygon fill="midnightblue" stroke="midnightblue" points="81.5597,-595.601 91.7915,-598.351 85.5078,-589.82 81.5597,-595.601"/>
</g>
<!-- Node13 -->
<g id="node13" class="node"><title>Node13</title>
<g id="a_node13"><a xlink:href="../../d8/d30/cmd__name_8c.html#a271249070fdd12c176777c77d76f888f" target="_top" xlink:title="cmd_name">
<polygon fill="white" stroke="black" points="81,-370.5 81,-389.5 149,-389.5 149,-370.5 81,-370.5"/>
<text text-anchor="middle" x="115" y="-377.5" font-family="Helvetica,sans-Serif" font-size="10.00">cmd_name</text>
</a>
</g>
</g>
<!-- Node1&#45;&gt;Node13 -->
<g id="edge17" class="edge"><title>Node1&#45;&gt;Node13</title>
<path fill="none" stroke="midnightblue" d="M39.4211,-364.845C48.4909,-366.688 59.7578,-368.978 70.7635,-371.214"/>
<polygon fill="midnightblue" stroke="midnightblue" points="70.2301,-374.677 80.7268,-373.239 71.6241,-367.817 70.2301,-374.677"/>
</g>
<!-- Node14 -->
<g id="node14" class="node"><title>Node14</title>
<g id="a_node14"><a xlink:href="../../db/d53/rle__getrow_8c.html#a619b27463c26e0a4a3d9648a9869ee52" target="_top" xlink:title="rle_get_setup">
<polygon fill="white" stroke="black" points="192.5,-484.5 192.5,-503.5 273.5,-503.5 273.5,-484.5 192.5,-484.5"/>
<text text-anchor="middle" x="233" y="-491.5" font-family="Helvetica,sans-Serif" font-size="10.00">rle_get_setup</text>
</a>
</g>
</g>
<!-- Node1&#45;&gt;Node14 -->
<g id="edge19" class="edge"><title>Node1&#45;&gt;Node14</title>
<path fill="none" stroke="midnightblue" d="M22.2724,-370.79C26.7708,-392.574 40.7943,-445.09 75,-470 105.672,-492.336 148.733,-497.594 182.002,-497.68"/>
<polygon fill="midnightblue" stroke="midnightblue" points="182.479,-501.174 192.431,-497.542 182.386,-494.175 182.479,-501.174"/>
</g>
<!-- Node16 -->
<g id="node16" class="node"><title>Node16</title>
<g id="a_node16"><a xlink:href="../../d8/def/rle__addhist_8c.html#a4f9433d6e4e203d0ecea1c7d3837afc3" target="_top" xlink:title="rle_addhist">
<polygon fill="white" stroke="black" points="198.5,-47.5 198.5,-66.5 267.5,-66.5 267.5,-47.5 198.5,-47.5"/>
<text text-anchor="middle" x="233" y="-54.5" font-family="Helvetica,sans-Serif" font-size="10.00">rle_addhist</text>
</a>
</g>
</g>
<!-- Node1&#45;&gt;Node16 -->
<g id="edge26" class="edge"><title>Node1&#45;&gt;Node16</title>
<path fill="none" stroke="midnightblue" d="M21.1987,-351.27C24.462,-308.505 39.5636,-137.685 75,-100 103.986,-69.1754 152.768,-59.6981 188.277,-57.1418"/>
<polygon fill="midnightblue" stroke="midnightblue" points="188.585,-60.6301 198.372,-56.5732 188.191,-53.6412 188.585,-60.6301"/>
</g>
<!-- Node21 -->
<g id="node21" class="node"><title>Node21</title>
<g id="a_node21"><a xlink:href="../../db/d53/rle__getrow_8c.html#a3602e1158189cba5e5b0f9b983cba776" target="_top" xlink:title="rle_getrow">
<polygon fill="white" stroke="black" points="81.5,-256.5 81.5,-275.5 148.5,-275.5 148.5,-256.5 81.5,-256.5"/>
<text text-anchor="middle" x="115" y="-263.5" font-family="Helvetica,sans-Serif" font-size="10.00">rle_getrow</text>
</a>
</g>
</g>
<!-- Node1&#45;&gt;Node21 -->
<g id="edge34" class="edge"><title>Node1&#45;&gt;Node21</title>
<path fill="none" stroke="midnightblue" d="M26.2645,-351.38C35.3128,-336.836 53.999,-308.942 75,-290 78.4813,-286.86 82.4281,-283.893 86.4412,-281.186"/>
<polygon fill="midnightblue" stroke="midnightblue" points="88.5639,-283.987 95.1776,-275.71 84.8458,-278.056 88.5639,-283.987"/>
</g>
<!-- Node24 -->
<g id="node24" class="node"><title>Node24</title>
<g id="a_node24"><a xlink:href="../../d9/d2a/rle__putrow_8c.html#af88a82b331cd6f425d2a2cc1623944c6" target="_top" xlink:title="rle_put_setup">
<polygon fill="white" stroke="black" points="75,-161.5 75,-180.5 155,-180.5 155,-161.5 75,-161.5"/>
<text text-anchor="middle" x="115" y="-168.5" font-family="Helvetica,sans-Serif" font-size="10.00">rle_put_setup</text>
</a>
</g>
</g>
<!-- Node1&#45;&gt;Node24 -->
<g id="edge37" class="edge"><title>Node1&#45;&gt;Node24</title>
<path fill="none" stroke="midnightblue" d="M22.3511,-351.429C27.5115,-326.399 43.7718,-257.578 75,-209 80.0704,-201.113 87.0664,-193.633 93.7346,-187.428"/>
<polygon fill="midnightblue" stroke="midnightblue" points="96.0874,-190.02 101.277,-180.783 91.4599,-184.768 96.0874,-190.02"/>
</g>
<!-- Node26 -->
<g id="node26" class="node"><title>Node26</title>
<g id="a_node26"><a xlink:href="../../d9/d2a/rle__putrow_8c.html#aa26532b01bc4f49b7383765cdc23ea72" target="_top" xlink:title="rle_putrow">
<polygon fill="white" stroke="black" points="82,-218.5 82,-237.5 148,-237.5 148,-218.5 82,-218.5"/>
<text text-anchor="middle" x="115" y="-225.5" font-family="Helvetica,sans-Serif" font-size="10.00">rle_putrow</text>
</a>
</g>
</g>
<!-- Node1&#45;&gt;Node26 -->
<g id="edge39" class="edge"><title>Node1&#45;&gt;Node26</title>
<path fill="none" stroke="midnightblue" d="M22.7457,-351.491C28.2132,-330.203 44.0911,-278.138 75,-247 76.3928,-245.597 77.91,-244.282 79.5115,-243.051"/>
<polygon fill="midnightblue" stroke="midnightblue" points="81.5038,-245.932 88.0352,-237.589 77.7271,-240.038 81.5038,-245.932"/>
</g>
<!-- Node28 -->
<g id="node28" class="node"><title>Node28</title>
<g id="a_node28"><a xlink:href="../../da/dbc/rle__row__alc_8c.html#abf83029f1ab364a8cb72524f58d70a3b" target="_top" xlink:title="rle_row_alloc">
<polygon fill="white" stroke="black" points="322,-294.5 322,-313.5 402,-313.5 402,-294.5 322,-294.5"/>
<text text-anchor="middle" x="362" y="-301.5" font-family="Helvetica,sans-Serif" font-size="10.00">rle_row_alloc</text>
</a>
</g>
</g>
<!-- Node1&#45;&gt;Node28 -->
<g id="edge42" class="edge"><title>Node1&#45;&gt;Node28</title>
<path fill="none" stroke="midnightblue" d="M39.0369,-358.268C95.6764,-349.916 263.331,-325.157 275,-323 286.982,-320.785 299.837,-318.108 311.861,-315.471"/>
<polygon fill="midnightblue" stroke="midnightblue" points="312.727,-318.864 321.728,-313.276 311.207,-312.031 312.727,-318.864"/>
</g>
<!-- Node29 -->
<g id="node29" class="node"><title>Node29</title>
<g id="a_node29"><a xlink:href="../../d9/d2a/rle__putrow_8c.html#af4fab734a5d227ad2ae95840f56fff3b" target="_top" xlink:title="rle_puteof">
<polygon fill="white" stroke="black" points="330,-560.5 330,-579.5 394,-579.5 394,-560.5 330,-560.5"/>
<text text-anchor="middle" x="362" y="-567.5" font-family="Helvetica,sans-Serif" font-size="10.00">rle_puteof</text>
</a>
</g>
</g>
<!-- Node1&#45;&gt;Node29 -->
<g id="edge45" class="edge"><title>Node1&#45;&gt;Node29</title>
<path fill="none" stroke="midnightblue" d="M21.8217,-370.764C26.8366,-406.247 45.8891,-527.512 75,-551 145.109,-607.566 259.077,-593.633 319.818,-580.62"/>
<polygon fill="midnightblue" stroke="midnightblue" points="320.812,-583.985 329.806,-578.385 319.283,-577.154 320.812,-583.985"/>
</g>
<!-- Node30 -->
<g id="node30" class="node"><title>Node30</title>
<g id="a_node30"><a xlink:href="../../d7/d24/rle__error_8c.html#af931d686cf3ca715c9b900527f0961c0" target="_top" xlink:title="rle_get_error">
<polygon fill="white" stroke="black" points="75.5,-28.5 75.5,-47.5 154.5,-47.5 154.5,-28.5 75.5,-28.5"/>
<text text-anchor="middle" x="115" y="-35.5" font-family="Helvetica,sans-Serif" font-size="10.00">rle_get_error</text>
</a>
</g>
</g>
<!-- Node1&#45;&gt;Node30 -->
<g id="edge48" class="edge"><title>Node1&#45;&gt;Node30</title>
<path fill="none" stroke="midnightblue" d="M21.2066,-351.37C24.7117,-305.7 41.4218,-111.111 75,-62 77.1454,-58.8621 79.8499,-56.0592 82.8297,-53.5756"/>
<polygon fill="midnightblue" stroke="midnightblue" points="84.9834,-56.3402 91.1657,-47.7362 80.9672,-50.607 84.9834,-56.3402"/>
</g>
<!-- Node3 -->
<g id="node3" class="node"><title>Node3</title>
<g id="a_node3"><a xlink:href="../../d2/df3/rle__hdr_8c.html#a16c4da6201b3b8cf55127b9ca968d253" target="_top" xlink:title="rle_hdr_clear">
<polygon fill="white" stroke="black" points="322,-408.5 322,-427.5 402,-427.5 402,-408.5 322,-408.5"/>
<text text-anchor="middle" x="362" y="-415.5" font-family="Helvetica,sans-Serif" font-size="10.00">rle_hdr_clear</text>
</a>
</g>
</g>
<!-- Node2&#45;&gt;Node3 -->
<g id="edge2" class="edge"><title>Node2&#45;&gt;Node3</title>
<path fill="none" stroke="midnightblue" d="M150.066,-418C192.082,-418 263.817,-418 311.808,-418"/>
<polygon fill="midnightblue" stroke="midnightblue" points="311.967,-421.5 321.967,-418 311.967,-414.5 311.967,-421.5"/>
</g>
<!-- Node2&#45;&gt;Node5 -->
<g id="edge4" class="edge"><title>Node2&#45;&gt;Node5</title>
<path fill="none" stroke="midnightblue" d="M131.165,-408.301C145.837,-401.718 168.771,-393.601 189.063,-387.522"/>
<polygon fill="midnightblue" stroke="midnightblue" points="190.13,-390.857 198.764,-384.717 188.185,-384.133 190.13,-390.857"/>
</g>
<!-- Node3&#45;&gt;Node4 -->
<g id="edge3" class="edge"><title>Node3&#45;&gt;Node4</title>
<path fill="none" stroke="midnightblue" d="M373.061,-427.72C393.177,-447.154 438.573,-491.011 463.609,-515.199"/>
<polygon fill="midnightblue" stroke="midnightblue" points="461.341,-517.874 470.965,-522.305 466.205,-512.84 461.341,-517.874"/>
</g>
<!-- Node5&#45;&gt;Node2 -->
<g id="edge5" class="edge"><title>Node5&#45;&gt;Node2</title>
<path fill="none" stroke="midnightblue" d="M216.998,-389.626C202.546,-396.126 179.97,-404.14 159.825,-410.211"/>
<polygon fill="midnightblue" stroke="midnightblue" points="158.799,-406.864 150.176,-413.02 160.756,-413.585 158.799,-406.864"/>
</g>
<!-- Node5&#45;&gt;Node6 -->
<g id="edge6" class="edge"><title>Node5&#45;&gt;Node6</title>
<path fill="none" stroke="midnightblue" d="M265.283,-370.375C312.328,-355.899 400.852,-328.661 448.565,-313.98"/>
<polygon fill="midnightblue" stroke="midnightblue" points="449.847,-317.247 458.376,-310.961 447.789,-310.557 449.847,-317.247"/>
</g>
<!-- Node5&#45;&gt;Node7 -->
<g id="edge7" class="edge"><title>Node5&#45;&gt;Node7</title>
<path fill="none" stroke="midnightblue" d="M267.036,-380C282.739,-380 301.699,-380 318.463,-380"/>
<polygon fill="midnightblue" stroke="midnightblue" points="318.569,-383.5 328.569,-380 318.569,-376.5 318.569,-383.5"/>
</g>
<!-- Node7&#45;&gt;Node4 -->
<g id="edge8" class="edge"><title>Node7&#45;&gt;Node4</title>
<path fill="none" stroke="midnightblue" d="M395.122,-388.201C401.545,-390.892 407.882,-394.414 413,-399 447.953,-430.321 467.47,-483.827 475.908,-512.497"/>
<polygon fill="midnightblue" stroke="midnightblue" points="472.637,-513.798 478.693,-522.492 479.381,-511.919 472.637,-513.798"/>
</g>
<!-- Node7&#45;&gt;Node6 -->
<g id="edge9" class="edge"><title>Node7&#45;&gt;Node6</title>
<path fill="none" stroke="midnightblue" d="M385.421,-370.433C394.232,-366.368 404.3,-361.336 413,-356 430.459,-345.291 448.827,-331.043 462.066,-320.169"/>
<polygon fill="midnightblue" stroke="midnightblue" points="464.526,-322.675 469.963,-313.582 460.042,-317.299 464.526,-322.675"/>
</g>
<!-- Node9 -->
<g id="node9" class="node"><title>Node9</title>
<g id="a_node9"><a xlink:href="../../d4/db0/scanargs_8c.html#a862219039664df6eb3cfced58addf830" target="_top" xlink:title="_do_scanargs">
<polygon fill="white" stroke="black" points="191,-522.5 191,-541.5 275,-541.5 275,-522.5 191,-522.5"/>
<text text-anchor="middle" x="233" y="-529.5" font-family="Helvetica,sans-Serif" font-size="10.00">_do_scanargs</text>
</a>
</g>
</g>
<!-- Node8&#45;&gt;Node9 -->
<g id="edge11" class="edge"><title>Node8&#45;&gt;Node9</title>
<path fill="none" stroke="midnightblue" d="M145.272,-532C156.073,-532 168.654,-532 180.827,-532"/>
<polygon fill="midnightblue" stroke="midnightblue" points="180.909,-535.5 190.909,-532 180.909,-528.5 180.909,-535.5"/>
</g>
<!-- Node11 -->
<g id="node11" class="node"><title>Node11</title>
<g id="a_node11"><a xlink:href="../../de/d4e/rle__open__f_8c.html#a5a0e62a00f907fce26e93b2f72adb2b0" target="_top" xlink:title="rle_open_f_noexit">
<polygon fill="white" stroke="black" points="311,-598.5 311,-617.5 413,-617.5 413,-598.5 311,-598.5"/>
<text text-anchor="middle" x="362" y="-605.5" font-family="Helvetica,sans-Serif" font-size="10.00">rle_open_f_noexit</text>
</a>
</g>
</g>
<!-- Node10&#45;&gt;Node11 -->
<g id="edge13" class="edge"><title>Node10&#45;&gt;Node11</title>
<path fill="none" stroke="midnightblue" d="M149.042,-608C187.738,-608 252.62,-608 300.427,-608"/>
<polygon fill="midnightblue" stroke="midnightblue" points="300.658,-611.5 310.658,-608 300.658,-604.5 300.658,-611.5"/>
</g>
<!-- Node11&#45;&gt;Node4 -->
<g id="edge16" class="edge"><title>Node11&#45;&gt;Node4</title>
<path fill="none" stroke="midnightblue" d="M393.104,-598.428C399.851,-595.777 406.832,-592.617 413,-589 432.147,-577.771 451.284,-561.124 464.355,-548.716"/>
<polygon fill="midnightblue" stroke="midnightblue" points="466.921,-551.103 471.656,-541.625 462.044,-546.082 466.921,-551.103"/>
</g>
<!-- Node11&#45;&gt;Node6 -->
<g id="edge15" class="edge"><title>Node11&#45;&gt;Node6</title>
<path fill="none" stroke="midnightblue" d="M400.584,-598.483C405.244,-596.013 409.567,-592.906 413,-589 448.414,-548.699 471.635,-381.316 478.713,-323.637"/>
<polygon fill="midnightblue" stroke="midnightblue" points="482.197,-323.98 479.912,-313.634 475.246,-323.147 482.197,-323.98"/>
</g>
<!-- Node12 -->
<g id="node12" class="node"><title>Node12</title>
<g id="a_node12"><a xlink:href="../../de/d4e/rle__open__f_8c.html#a84fda810ae9b9bde82a6391d0b264ead" target="_top" xlink:title="my_popen">
<polygon fill="white" stroke="black" points="449,-598.5 449,-617.5 515,-617.5 515,-598.5 449,-598.5"/>
<text text-anchor="middle" x="482" y="-605.5" font-family="Helvetica,sans-Serif" font-size="10.00">my_popen</text>
</a>
</g>
</g>
<!-- Node11&#45;&gt;Node12 -->
<g id="edge14" class="edge"><title>Node11&#45;&gt;Node12</title>
<path fill="none" stroke="midnightblue" d="M413.043,-608C421.523,-608 430.255,-608 438.518,-608"/>
<polygon fill="midnightblue" stroke="midnightblue" points="438.678,-611.5 448.678,-608 438.678,-604.5 438.678,-611.5"/>
</g>
<!-- Node14&#45;&gt;Node3 -->
<g id="edge20" class="edge"><title>Node14&#45;&gt;Node3</title>
<path fill="none" stroke="midnightblue" d="M251.466,-484.45C258.862,-480.234 267.488,-475.088 275,-470 291.783,-458.633 293.765,-452.669 311,-442 316.695,-438.475 322.987,-435.093 329.131,-432.037"/>
<polygon fill="midnightblue" stroke="midnightblue" points="331.045,-435.002 338.557,-427.53 328.025,-428.687 331.045,-435.002"/>
</g>
<!-- Node14&#45;&gt;Node4 -->
<g id="edge23" class="edge"><title>Node14&#45;&gt;Node4</title>
<path fill="none" stroke="midnightblue" d="M268.675,-503.578C281.847,-506.946 297.039,-510.508 311,-513 361.169,-521.954 420.465,-527.441 454.11,-530.086"/>
<polygon fill="midnightblue" stroke="midnightblue" points="454.25,-533.607 464.486,-530.875 454.78,-526.627 454.25,-533.607"/>
</g>
<!-- Node14&#45;&gt;Node6 -->
<g id="edge22" class="edge"><title>Node14&#45;&gt;Node6</title>
<path fill="none" stroke="midnightblue" d="M269.001,-484.421C317.858,-470.815 401.806,-446.491 413,-437 448.957,-406.515 468.136,-352.265 476.234,-323.37"/>
<polygon fill="midnightblue" stroke="midnightblue" points="479.634,-324.202 478.807,-313.639 472.867,-322.412 479.634,-324.202"/>
</g>
<!-- Node14&#45;&gt;Node7 -->
<g id="edge21" class="edge"><title>Node14&#45;&gt;Node7</title>
<path fill="none" stroke="midnightblue" d="M255.667,-484.35C262.45,-480.581 269.573,-475.765 275,-470 299.252,-444.239 284.691,-422.656 311,-399 313.635,-396.631 316.595,-394.546 319.725,-392.713"/>
<polygon fill="midnightblue" stroke="midnightblue" points="321.457,-395.761 328.866,-388.188 318.352,-389.488 321.457,-395.761"/>
</g>
<!-- Node15 -->
<g id="node15" class="node"><title>Node15</title>
<g id="a_node15"><a xlink:href="../../db/d53/rle__getrow_8c.html#a0ea68aa2ebeef9d4cade7282553b03d6" target="_top" xlink:title="vax_gshort">
<polygon fill="white" stroke="black" points="327.5,-484.5 327.5,-503.5 396.5,-503.5 396.5,-484.5 327.5,-484.5"/>
<text text-anchor="middle" x="362" y="-491.5" font-family="Helvetica,sans-Serif" font-size="10.00">vax_gshort</text>
</a>
</g>
</g>
<!-- Node14&#45;&gt;Node15 -->
<g id="edge24" class="edge"><title>Node14&#45;&gt;Node15</title>
<path fill="none" stroke="midnightblue" d="M273.835,-494C287.516,-494 302.906,-494 316.905,-494"/>
<polygon fill="midnightblue" stroke="midnightblue" points="317.287,-497.5 327.287,-494 317.287,-490.5 317.287,-497.5"/>
</g>
<!-- Node16&#45;&gt;Node6 -->
<g id="edge29" class="edge"><title>Node16&#45;&gt;Node6</title>
<path fill="none" stroke="midnightblue" d="M267.522,-63.1477C313.289,-72.1572 392.049,-90.0563 413,-110 463.35,-157.928 476.447,-245.226 479.832,-284.242"/>
<polygon fill="midnightblue" stroke="midnightblue" points="476.348,-284.586 480.577,-294.3 483.328,-284.069 476.348,-284.586"/>
</g>
<!-- Node17 -->
<g id="node17" class="node"><title>Node17</title>
<g id="a_node17"><a xlink:href="../../db/db2/rle__getcom_8c.html#a9cefd612c381bf82c9cdf1f3a3b12dd6" target="_top" xlink:title="rle_getcom">
<polygon fill="white" stroke="black" points="327.5,-0.5 327.5,-19.5 396.5,-19.5 396.5,-0.5 327.5,-0.5"/>
<text text-anchor="middle" x="362" y="-7.5" font-family="Helvetica,sans-Serif" font-size="10.00">rle_getcom</text>
</a>
</g>
</g>
<!-- Node16&#45;&gt;Node17 -->
<g id="edge27" class="edge"><title>Node16&#45;&gt;Node17</title>
<path fill="none" stroke="midnightblue" d="M259.7,-47.4888C278.597,-40.4957 304.515,-30.9041 325.404,-23.1735"/>
<polygon fill="midnightblue" stroke="midnightblue" points="326.738,-26.4116 334.902,-19.6583 324.309,-19.8467 326.738,-26.4116"/>
</g>
<!-- Node19 -->
<g id="node19" class="node"><title>Node19</title>
<g id="a_node19"><a xlink:href="../../df/da5/rle__putcom_8c.html#a6fa8528c32d14763efe2a534e409e321" target="_top" xlink:title="rle_putcom">
<polygon fill="white" stroke="black" points="328,-38.5 328,-57.5 396,-57.5 396,-38.5 328,-38.5"/>
<text text-anchor="middle" x="362" y="-45.5" font-family="Helvetica,sans-Serif" font-size="10.00">rle_putcom</text>
</a>
</g>
</g>
<!-- Node16&#45;&gt;Node19 -->
<g id="edge30" class="edge"><title>Node16&#45;&gt;Node19</title>
<path fill="none" stroke="midnightblue" d="M267.7,-54.6118C282.891,-53.5353 301.024,-52.2502 317.248,-51.1006"/>
<polygon fill="midnightblue" stroke="midnightblue" points="317.855,-54.5664 327.583,-50.3681 317.361,-47.5839 317.855,-54.5664"/>
</g>
<!-- Node18 -->
<g id="node18" class="node"><title>Node18</title>
<g id="a_node18"><a xlink:href="../../db/db2/rle__getcom_8c.html#a7502c8b599724ce86fee5df1311a2337" target="_top" xlink:title="match">
<polygon fill="white" stroke="black" points="459.5,-0.5 459.5,-19.5 504.5,-19.5 504.5,-0.5 459.5,-0.5"/>
<text text-anchor="middle" x="482" y="-7.5" font-family="Helvetica,sans-Serif" font-size="10.00">match</text>
</a>
</g>
</g>
<!-- Node17&#45;&gt;Node18 -->
<g id="edge28" class="edge"><title>Node17&#45;&gt;Node18</title>
<path fill="none" stroke="midnightblue" d="M396.814,-10C413.35,-10 433.136,-10 449.37,-10"/>
<polygon fill="midnightblue" stroke="midnightblue" points="449.456,-13.5001 459.456,-10 449.456,-6.5001 449.456,-13.5001"/>
</g>
<!-- Node19&#45;&gt;Node6 -->
<g id="edge31" class="edge"><title>Node19&#45;&gt;Node6</title>
<path fill="none" stroke="midnightblue" d="M393.291,-57.5959C400.58,-61.1328 407.764,-65.8358 413,-72 467.13,-135.721 478.193,-240.746 480.437,-284.215"/>
<polygon fill="midnightblue" stroke="midnightblue" points="476.945,-284.472 480.852,-294.32 483.939,-284.185 476.945,-284.472"/>
</g>
<!-- Node20 -->
<g id="node20" class="node"><title>Node20</title>
<g id="a_node20"><a xlink:href="../../df/da5/rle__putcom_8c.html#a7502c8b599724ce86fee5df1311a2337" target="_top" xlink:title="match">
<polygon fill="white" stroke="black" points="459.5,-38.5 459.5,-57.5 504.5,-57.5 504.5,-38.5 459.5,-38.5"/>
<text text-anchor="middle" x="482" y="-45.5" font-family="Helvetica,sans-Serif" font-size="10.00">match</text>
</a>
</g>
</g>
<!-- Node19&#45;&gt;Node20 -->
<g id="edge32" class="edge"><title>Node19&#45;&gt;Node20</title>
<path fill="none" stroke="midnightblue" d="M396.184,-48C412.735,-48 432.664,-48 449.044,-48"/>
<polygon fill="midnightblue" stroke="midnightblue" points="449.224,-51.5001 459.224,-48 449.224,-44.5001 449.224,-51.5001"/>
</g>
<!-- Node22 -->
<g id="node22" class="node"><title>Node22</title>
<g id="a_node22"><a xlink:href="../../db/d53/rle__getrow_8c.html#a61ac0da96b0dd8bc3cbc98afcd9b5c44" target="_top" xlink:title="bfill">
<polygon fill="white" stroke="black" points="217,-294.5 217,-313.5 249,-313.5 249,-294.5 217,-294.5"/>
<text text-anchor="middle" x="233" y="-301.5" font-family="Helvetica,sans-Serif" font-size="10.00">bfill</text>
</a>
</g>
</g>
<!-- Node21&#45;&gt;Node22 -->
<g id="edge35" class="edge"><title>Node21&#45;&gt;Node22</title>
<path fill="none" stroke="midnightblue" d="M145.272,-275.589C164.437,-281.867 189.201,-289.98 207.357,-295.927"/>
<polygon fill="midnightblue" stroke="midnightblue" points="206.346,-299.279 216.939,-299.066 208.526,-292.627 206.346,-299.279"/>
</g>
<!-- Node23 -->
<g id="node23" class="node"><title>Node23</title>
<g id="a_node23"><a xlink:href="../../d8/d7c/rle__getskip_8c.html#af6b1e1dc0867e9340f90668591c7c5b3" target="_top" xlink:title="rle_getskip">
<polygon fill="white" stroke="black" points="199,-256.5 199,-275.5 267,-275.5 267,-256.5 199,-256.5"/>
<text text-anchor="middle" x="233" y="-263.5" font-family="Helvetica,sans-Serif" font-size="10.00">rle_getskip</text>
</a>
</g>
</g>
<!-- Node21&#45;&gt;Node23 -->
<g id="edge36" class="edge"><title>Node21&#45;&gt;Node23</title>
<path fill="none" stroke="midnightblue" d="M148.621,-266C160.994,-266 175.287,-266 188.505,-266"/>
<polygon fill="midnightblue" stroke="midnightblue" points="188.819,-269.5 198.819,-266 188.818,-262.5 188.819,-269.5"/>
</g>
<!-- Node25 -->
<g id="node25" class="node"><title>Node25</title>
<g id="a_node25"><a xlink:href="../../d9/d2a/rle__putrow_8c.html#a46d9789104d5d1f09253a808fdad5346" target="_top" xlink:title="rle_put_init">
<polygon fill="white" stroke="black" points="199,-142.5 199,-161.5 267,-161.5 267,-142.5 199,-142.5"/>
<text text-anchor="middle" x="233" y="-149.5" font-family="Helvetica,sans-Serif" font-size="10.00">rle_put_init</text>
</a>
</g>
</g>
<!-- Node24&#45;&gt;Node25 -->
<g id="edge38" class="edge"><title>Node24&#45;&gt;Node25</title>
<path fill="none" stroke="midnightblue" d="M155.272,-164.567C166.142,-162.787 177.995,-160.846 189.061,-159.033"/>
<polygon fill="midnightblue" stroke="midnightblue" points="189.65,-162.483 198.953,-157.413 188.519,-155.575 189.65,-162.483"/>
</g>
<!-- Node26&#45;&gt;Node6 -->
<g id="edge40" class="edge"><title>Node26&#45;&gt;Node6</title>
<path fill="none" stroke="midnightblue" d="M148.198,-230.423C180.475,-233.186 231.488,-238.459 275,-247 337.425,-259.253 351.699,-267.996 413,-285 424.576,-288.211 437.254,-291.748 448.494,-294.891"/>
<polygon fill="midnightblue" stroke="midnightblue" points="447.766,-298.321 458.339,-297.645 449.652,-291.58 447.766,-298.321"/>
</g>
<!-- Node27 -->
<g id="node27" class="node"><title>Node27</title>
<g id="a_node27"><a xlink:href="../../d9/d2a/rle__putrow_8c.html#aaa4133bf4a6cbf287444448497631f26" target="_top" xlink:title="findruns">
<polygon fill="white" stroke="black" points="206,-180.5 206,-199.5 260,-199.5 260,-180.5 206,-180.5"/>
<text text-anchor="middle" x="233" y="-187.5" font-family="Helvetica,sans-Serif" font-size="10.00">findruns</text>
</a>
</g>
</g>
<!-- Node26&#45;&gt;Node27 -->
<g id="edge41" class="edge"><title>Node26&#45;&gt;Node27</title>
<path fill="none" stroke="midnightblue" d="M145.272,-218.411C160.723,-213.349 179.814,-207.095 196.148,-201.745"/>
<polygon fill="midnightblue" stroke="midnightblue" points="197.491,-204.988 205.904,-198.549 195.311,-198.336 197.491,-204.988"/>
</g>
<!-- Node28&#45;&gt;Node4 -->
<g id="edge44" class="edge"><title>Node28&#45;&gt;Node4</title>
<path fill="none" stroke="midnightblue" d="M373.364,-313.66C384.379,-324.373 401.729,-342.587 413,-361 444.17,-411.922 466.068,-479.621 475.622,-512.468"/>
<polygon fill="midnightblue" stroke="midnightblue" points="472.286,-513.533 478.384,-522.197 479.019,-511.621 472.286,-513.533"/>
</g>
<!-- Node28&#45;&gt;Node6 -->
<g id="edge43" class="edge"><title>Node28&#45;&gt;Node6</title>
<path fill="none" stroke="midnightblue" d="M402.292,-304C417.145,-304 433.879,-304 448.087,-304"/>
<polygon fill="midnightblue" stroke="midnightblue" points="448.386,-307.5 458.386,-304 448.386,-300.5 448.386,-307.5"/>
</g>
<!-- Node29&#45;&gt;Node4 -->
<g id="edge46" class="edge"><title>Node29&#45;&gt;Node4</title>
<path fill="none" stroke="midnightblue" d="M392.776,-560.411C411.813,-554.28 436.281,-546.401 454.618,-540.496"/>
<polygon fill="midnightblue" stroke="midnightblue" points="455.914,-543.756 464.359,-537.359 453.768,-537.093 455.914,-543.756"/>
</g>
</g>
</svg>
        <g id="navigator" transform="translate(0 0)" fill="#404254">
                <rect fill="#f2f5e9" fill-opacity="0.5" stroke="#606060" stroke-width=".5" x="0" y="0" width="60" height="60"/>
                <use id="zoomplus" xlink:href="#zoomPlus" x="17" y="9" onmousedown="handleZoom(evt,'in')"/>
                <use id="zoomminus" xlink:href="#zoomMin" x="42" y="9" onmousedown="handleZoom(evt,'out')"/>
                <use id="reset" xlink:href="#resetDef" x="30" y="36" onmousedown="handleReset()"/>
                <g id="arrowUp" xlink:href="#dirArrow" transform="translate(30 24)" onmousedown="handlePan(0,-1)">
                  <use xlink:href="#rim" fill="#404040">
                        <set attributeName="fill" to="#808080" begin="arrowUp.mouseover" end="arrowUp.mouseout"/>
                  </use>
                  <path fill="none" stroke="white" stroke-width="1.5" d="M0,-3.0v7 M-2.5,-0.5L0,-3.0L2.5,-0.5"/>
                </g>
                <g id="arrowRight" xlink:href="#dirArrow" transform="rotate(90) translate(36 -43)" onmousedown="handlePan(1,0)">
                  <use xlink:href="#rim" fill="#404040">
                        <set attributeName="fill" to="#808080" begin="arrowRight.mouseover" end="arrowRight.mouseout"/>
                  </use>
                  <path fill="none" stroke="white" stroke-width="1.5" d="M0,-3.0v7 M-2.5,-0.5L0,-3.0L2.5,-0.5"/>
                </g>
                <g id="arrowDown" xlink:href="#dirArrow" transform="rotate(180) translate(-30 -48)" onmousedown="handlePan(0,1)">
                  <use xlink:href="#rim" fill="#404040">
                        <set attributeName="fill" to="#808080" begin="arrowDown.mouseover" end="arrowDown.mouseout"/>
                  </use>
                  <path fill="none" stroke="white" stroke-width="1.5" d="M0,-3.0v7 M-2.5,-0.5L0,-3.0L2.5,-0.5"/>
                </g>
                <g id="arrowLeft" xlink:href="#dirArrow" transform="rotate(270) translate(-36 17)" onmousedown="handlePan(-1,0)">
                  <use xlink:href="#rim" fill="#404040">
                        <set attributeName="fill" to="#808080" begin="arrowLeft.mouseover" end="arrowLeft.mouseout"/>
                  </use>
                  <path fill="none" stroke="white" stroke-width="1.5" d="M0,-3.0v7 M-2.5,-0.5L0,-3.0L2.5,-0.5"/>
                </g>
        </g>
        <svg viewBox="0 0 15 15" width="100%" height="30px" preserveAspectRatio="xMaxYMin meet">
         <g id="arrow_out" transform="scale(0.3 0.3)">
          <a xlink:href="rleflip_8c_ade521a0600ded19f1720b6f6df59b480_cgraph_org.svg" target="_base">
           <rect id="button" ry="5" rx="5" y="6" x="6" height="38" width="38"
                fill="#f2f5e9" fill-opacity="0.5" stroke="#606060" stroke-width="1.0"/>
           <path id="arrow"
             d="M 11.500037,31.436501 C 11.940474,20.09759 22.043105,11.32322 32.158766,21.979434 L 37.068811,17.246167 C 37.068811,17.246167 37.088388,32 37.088388,32 L 22.160133,31.978069 C 22.160133,31.978069 26.997745,27.140456 26.997745,27.140456 C 18.528582,18.264221 13.291696,25.230495 11.500037,31.436501 z"
             style="fill:#404040;"/>
          </a>
         </g>
        </svg>
</svg>
