<?xml version="1.0" encoding="UTF-8" standalone="no"?>
<!DOCTYPE svg PUBLIC "-//W3C//DTD SVG 1.1//EN"
 "http://www.w3.org/Graphics/SVG/1.1/DTD/svg11.dtd">
<!-- Generated by graphviz version 2.38.0 (20140413.2041)
 -->
<!-- Title: rle_putcom Pages: 1 -->
<svg width="209pt" height="66pt"
 viewBox="0.00 0.00 209.00 66.00" xmlns="http://www.w3.org/2000/svg" xmlns:xlink="http://www.w3.org/1999/xlink">
<g id="graph0" class="graph" transform="scale(1 1) rotate(0) translate(4 62)">
<title>rle_putcom</title>
<polygon fill="white" stroke="none" points="-4,4 -4,-62 205,-62 205,4 -4,4"/>
<!-- Node1 -->
<g id="node1" class="node"><title>Node1</title>
<polygon fill="#bfbfbf" stroke="black" points="0,-19.5 0,-38.5 68,-38.5 68,-19.5 0,-19.5"/>
<text text-anchor="middle" x="34" y="-26.5" font-family="Helvetica,sans-Serif" font-size="10.00">rle_putcom</text>
</g>
<!-- Node2 -->
<g id="node2" class="node"><title>Node2</title>
<g id="a_node2"><a xlink:href="../../dc/d11/getami_8c.html#aa654afe741816fa93d1cd7e49ef583ec" target="_top" xlink:title="find_most_used">
<polygon fill="white" stroke="black" points="107,-38.5 107,-57.5 198,-57.5 198,-38.5 107,-38.5"/>
<text text-anchor="middle" x="152.5" y="-45.5" font-family="Helvetica,sans-Serif" font-size="10.00">find_most_used</text>
</a>
</g>
</g>
<!-- Node1&#45;&gt;Node2 -->
<g id="edge1" class="edge"><title>Node1&#45;&gt;Node2</title>
<path fill="none" stroke="midnightblue" d="M78.2348,-36.0512C87.4882,-37.5603 97.2841,-39.1579 106.599,-40.677"/>
<polygon fill="midnightblue" stroke="midnightblue" points="78.5056,-32.5492 68.0726,-34.3938 77.3788,-39.4579 78.5056,-32.5492"/>
</g>
<!-- Node3 -->
<g id="node3" class="node"><title>Node3</title>
<g id="a_node3"><a xlink:href="../../dd/dcd/rlatorle_8c.html#a01b94ac6df1d57a85105d5ebeff06d5e" target="_top" xlink:title="write_rle_header">
<polygon fill="white" stroke="black" points="104,-0.5 104,-19.5 201,-19.5 201,-0.5 104,-0.5"/>
<text text-anchor="middle" x="152.5" y="-7.5" font-family="Helvetica,sans-Serif" font-size="10.00">write_rle_header</text>
</a>
</g>
</g>
<!-- Node1&#45;&gt;Node3 -->
<g id="edge2" class="edge"><title>Node1&#45;&gt;Node3</title>
<path fill="none" stroke="midnightblue" d="M78.0873,-21.9729C86.526,-20.5966 95.4209,-19.1459 103.994,-17.7477"/>
<polygon fill="midnightblue" stroke="midnightblue" points="77.3788,-18.5421 68.0726,-23.6062 78.5056,-25.4508 77.3788,-18.5421"/>
</g>
</g>
</svg>
