<?xml version="1.0" encoding="UTF-8" standalone="no"?>
<!DOCTYPE svg PUBLIC "-//W3C//DTD SVG 1.1//EN"
 "http://www.w3.org/Graphics/SVG/1.1/DTD/svg11.dtd">
<!-- Generated by graphviz version 2.38.0 (20140413.2041)
 -->
<!-- Title: match Pages: 1 -->
<svg width="496pt" height="256pt"
 viewBox="0.00 0.00 496.00 256.00" xmlns="http://www.w3.org/2000/svg" xmlns:xlink="http://www.w3.org/1999/xlink">
<g id="graph0" class="graph" transform="scale(1 1) rotate(0) translate(4 252)">
<title>match</title>
<polygon fill="white" stroke="none" points="-4,4 -4,-252 492,-252 492,4 -4,4"/>
<!-- Node1 -->
<g id="node1" class="node"><title>Node1</title>
<polygon fill="#bfbfbf" stroke="black" points="0,-76.5 0,-95.5 45,-95.5 45,-76.5 0,-76.5"/>
<text text-anchor="middle" x="22.5" y="-83.5" font-family="Helvetica,sans-Serif" font-size="10.00">match</text>
</g>
<!-- Node2 -->
<g id="node2" class="node"><title>Node2</title>
<g id="a_node2"><a xlink:href="../../df/da5/rle__putcom_8c.html#a6fa8528c32d14763efe2a534e409e321" target="_top" xlink:title="rle_putcom">
<polygon fill="white" stroke="black" points="81,-114.5 81,-133.5 149,-133.5 149,-114.5 81,-114.5"/>
<text text-anchor="middle" x="115" y="-121.5" font-family="Helvetica,sans-Serif" font-size="10.00">rle_putcom</text>
</a>
</g>
</g>
<!-- Node1&#45;&gt;Node2 -->
<g id="edge1" class="edge"><title>Node1&#45;&gt;Node2</title>
<path fill="none" stroke="midnightblue" d="M54.6796,-99.092C66.7296,-104.152 80.2579,-109.832 91.3491,-114.489"/>
<polygon fill="midnightblue" stroke="midnightblue" points="55.9827,-95.8432 45.4075,-95.1987 53.2727,-102.297 55.9827,-95.8432"/>
</g>
<!-- Node17 -->
<g id="node17" class="node"><title>Node17</title>
<g id="a_node17"><a xlink:href="../../df/da5/rle__putcom_8c.html#a436af4fe2b373da40f91fedb0fabb7fb" target="_top" xlink:title="rle_delcom">
<polygon fill="white" stroke="black" points="81,-38.5 81,-57.5 149,-57.5 149,-38.5 81,-38.5"/>
<text text-anchor="middle" x="115" y="-45.5" font-family="Helvetica,sans-Serif" font-size="10.00">rle_delcom</text>
</a>
</g>
</g>
<!-- Node1&#45;&gt;Node17 -->
<g id="edge16" class="edge"><title>Node1&#45;&gt;Node17</title>
<path fill="none" stroke="midnightblue" d="M54.6796,-72.908C66.7296,-67.8483 80.2579,-62.1679 91.3491,-57.5109"/>
<polygon fill="midnightblue" stroke="midnightblue" points="53.2727,-69.7027 45.4075,-76.8013 55.9827,-76.1568 53.2727,-69.7027"/>
</g>
<!-- Node3 -->
<g id="node3" class="node"><title>Node3</title>
<g id="a_node3"><a xlink:href="../../dc/d11/getami_8c.html#aa654afe741816fa93d1cd7e49ef583ec" target="_top" xlink:title="find_most_used">
<polygon fill="white" stroke="black" points="194,-228.5 194,-247.5 285,-247.5 285,-228.5 194,-228.5"/>
<text text-anchor="middle" x="239.5" y="-235.5" font-family="Helvetica,sans-Serif" font-size="10.00">find_most_used</text>
</a>
</g>
</g>
<!-- Node2&#45;&gt;Node3 -->
<g id="edge2" class="edge"><title>Node2&#45;&gt;Node3</title>
<path fill="none" stroke="midnightblue" d="M125.063,-142.561C136.341,-163.85 157.516,-198.454 185,-219 190.131,-222.836 196.106,-225.949 202.165,-228.459"/>
<polygon fill="midnightblue" stroke="midnightblue" points="128.129,-140.87 120.463,-133.557 121.896,-144.055 128.129,-140.87"/>
</g>
<!-- Node5 -->
<g id="node5" class="node"><title>Node5</title>
<g id="a_node5"><a xlink:href="../../d5/d6d/mcut_8c.html#a70db8bd1d499619f7ff9c1ca2ff3c8df" target="_top" xlink:title="main">
<polygon fill="white" stroke="black" points="220,-190.5 220,-209.5 259,-209.5 259,-190.5 220,-190.5"/>
<text text-anchor="middle" x="239.5" y="-197.5" font-family="Helvetica,sans-Serif" font-size="10.00">main</text>
</a>
</g>
</g>
<!-- Node2&#45;&gt;Node5 -->
<g id="edge4" class="edge"><title>Node2&#45;&gt;Node5</title>
<path fill="none" stroke="midnightblue" d="M132.863,-140.822C146.112,-153.286 165.524,-169.956 185,-181 195.975,-187.223 209.35,-191.973 219.981,-195.167"/>
<polygon fill="midnightblue" stroke="midnightblue" points="135.094,-138.111 125.464,-133.693 130.237,-143.152 135.094,-138.111"/>
</g>
<!-- Node6 -->
<g id="node6" class="node"><title>Node6</title>
<g id="a_node6"><a xlink:href="../../dd/dcd/rlatorle_8c.html#a01b94ac6df1d57a85105d5ebeff06d5e" target="_top" xlink:title="write_rle_header">
<polygon fill="white" stroke="black" points="191,-152.5 191,-171.5 288,-171.5 288,-152.5 191,-152.5"/>
<text text-anchor="middle" x="239.5" y="-159.5" font-family="Helvetica,sans-Serif" font-size="10.00">write_rle_header</text>
</a>
</g>
</g>
<!-- Node2&#45;&gt;Node6 -->
<g id="edge5" class="edge"><title>Node2&#45;&gt;Node6</title>
<path fill="none" stroke="midnightblue" d="M156.878,-136.68C173.429,-141.815 192.221,-147.644 207.598,-152.414"/>
<polygon fill="midnightblue" stroke="midnightblue" points="157.5,-133.209 146.912,-133.589 155.426,-139.895 157.5,-133.209"/>
</g>
<!-- Node8 -->
<g id="node8" class="node"><title>Node8</title>
<g id="a_node8"><a xlink:href="../../d8/def/rle__addhist_8c.html#a4f9433d6e4e203d0ecea1c7d3837afc3" target="_top" xlink:title="rle_addhist">
<polygon fill="white" stroke="black" points="205,-114.5 205,-133.5 274,-133.5 274,-114.5 205,-114.5"/>
<text text-anchor="middle" x="239.5" y="-121.5" font-family="Helvetica,sans-Serif" font-size="10.00">rle_addhist</text>
</a>
</g>
</g>
<!-- Node2&#45;&gt;Node8 -->
<g id="edge7" class="edge"><title>Node2&#45;&gt;Node8</title>
<path fill="none" stroke="midnightblue" d="M159.228,-124C174.221,-124 190.796,-124 204.897,-124"/>
<polygon fill="midnightblue" stroke="midnightblue" points="159.15,-120.5 149.15,-124 159.15,-127.5 159.15,-120.5"/>
</g>
<!-- Node13 -->
<g id="node13" class="node"><title>Node13</title>
<g id="a_node13"><a xlink:href="../../dc/d5c/rlequant_8c.html#a4b6861aad9a587cc1de2948b23347558" target="_top" xlink:title="setup_output">
<polygon fill="white" stroke="black" points="201,-76.5 201,-95.5 278,-95.5 278,-76.5 201,-76.5"/>
<text text-anchor="middle" x="239.5" y="-83.5" font-family="Helvetica,sans-Serif" font-size="10.00">setup_output</text>
</a>
</g>
</g>
<!-- Node2&#45;&gt;Node13 -->
<g id="edge12" class="edge"><title>Node2&#45;&gt;Node13</title>
<path fill="none" stroke="midnightblue" d="M156.878,-111.32C173.429,-106.185 192.221,-100.356 207.598,-95.5859"/>
<polygon fill="midnightblue" stroke="midnightblue" points="155.426,-108.105 146.912,-114.411 157.5,-114.791 155.426,-108.105"/>
</g>
<!-- Node14 -->
<g id="node14" class="node"><title>Node14</title>
<g id="a_node14"><a xlink:href="../../de/d5e/vcrtorle_8c.html#a6e75994f8aeb500d43ec159d8d5a70e5" target="_top" xlink:title="addVICARcomment">
<polygon fill="white" stroke="black" points="185,-38.5 185,-57.5 294,-57.5 294,-38.5 185,-38.5"/>
<text text-anchor="middle" x="239.5" y="-45.5" font-family="Helvetica,sans-Serif" font-size="10.00">addVICARcomment</text>
</a>
</g>
</g>
<!-- Node2&#45;&gt;Node14 -->
<g id="edge13" class="edge"><title>Node2&#45;&gt;Node14</title>
<path fill="none" stroke="midnightblue" d="M132.863,-107.178C146.112,-94.714 165.524,-78.044 185,-67 191.43,-63.3535 198.685,-60.2129 205.729,-57.5947"/>
<polygon fill="midnightblue" stroke="midnightblue" points="130.237,-104.848 125.464,-114.307 135.094,-109.889 130.237,-104.848"/>
</g>
<!-- Node4 -->
<g id="node4" class="node"><title>Node4</title>
<g id="a_node4"><a xlink:href="../../dc/d11/getami_8c.html#a7be6d508b8d11374d4aef0a66817d9f0" target="_top" xlink:title="main">
<polygon fill="white" stroke="black" points="352,-228.5 352,-247.5 391,-247.5 391,-228.5 352,-228.5"/>
<text text-anchor="middle" x="371.5" y="-235.5" font-family="Helvetica,sans-Serif" font-size="10.00">main</text>
</a>
</g>
</g>
<!-- Node3&#45;&gt;Node4 -->
<g id="edge3" class="edge"><title>Node3&#45;&gt;Node4</title>
<path fill="none" stroke="midnightblue" d="M295.303,-238C315.463,-238 336.965,-238 351.79,-238"/>
<polygon fill="midnightblue" stroke="midnightblue" points="295.239,-234.5 285.239,-238 295.239,-241.5 295.239,-234.5"/>
</g>
<!-- Node7 -->
<g id="node7" class="node"><title>Node7</title>
<g id="a_node7"><a xlink:href="../../dd/dcd/rlatorle_8c.html#a3c04138a5bfe5d72780bb7e82a18e627" target="_top" xlink:title="main">
<polygon fill="white" stroke="black" points="352,-190.5 352,-209.5 391,-209.5 391,-190.5 352,-190.5"/>
<text text-anchor="middle" x="371.5" y="-197.5" font-family="Helvetica,sans-Serif" font-size="10.00">main</text>
</a>
</g>
</g>
<!-- Node6&#45;&gt;Node7 -->
<g id="edge6" class="edge"><title>Node6&#45;&gt;Node7</title>
<path fill="none" stroke="midnightblue" d="M282.964,-174.413C306.228,-181.213 333.887,-189.298 351.796,-194.533"/>
<polygon fill="midnightblue" stroke="midnightblue" points="283.885,-171.035 273.304,-171.589 281.921,-177.754 283.885,-171.035"/>
</g>
<!-- Node9 -->
<g id="node9" class="node"><title>Node9</title>
<g id="a_node9"><a xlink:href="../../d7/def/applymap_8c.html#a70db8bd1d499619f7ff9c1ca2ff3c8df" target="_top" xlink:title="main">
<polygon fill="white" stroke="black" points="352,-152.5 352,-171.5 391,-171.5 391,-152.5 352,-152.5"/>
<text text-anchor="middle" x="371.5" y="-159.5" font-family="Helvetica,sans-Serif" font-size="10.00">main</text>
</a>
</g>
</g>
<!-- Node8&#45;&gt;Node9 -->
<g id="edge8" class="edge"><title>Node8&#45;&gt;Node9</title>
<path fill="none" stroke="midnightblue" d="M282.964,-136.413C306.228,-143.213 333.887,-151.298 351.796,-156.533"/>
<polygon fill="midnightblue" stroke="midnightblue" points="283.885,-133.035 273.304,-133.589 281.921,-139.754 283.885,-133.035"/>
</g>
<!-- Node10 -->
<g id="node10" class="node"><title>Node10</title>
<g id="a_node10"><a xlink:href="../../d5/dd9/rleClock_8c.html#a029cc0b8bfeacc031dd11bd48caf3a2d" target="_top" xlink:title="rasterWrite">
<polygon fill="white" stroke="black" points="337,-114.5 337,-133.5 406,-133.5 406,-114.5 337,-114.5"/>
<text text-anchor="middle" x="371.5" y="-121.5" font-family="Helvetica,sans-Serif" font-size="10.00">rasterWrite</text>
</a>
</g>
</g>
<!-- Node8&#45;&gt;Node10 -->
<g id="edge9" class="edge"><title>Node8&#45;&gt;Node10</title>
<path fill="none" stroke="midnightblue" d="M284.623,-124C301.699,-124 320.927,-124 336.853,-124"/>
<polygon fill="midnightblue" stroke="midnightblue" points="284.317,-120.5 274.317,-124 284.317,-127.5 284.317,-120.5"/>
</g>
<!-- Node11 -->
<g id="node11" class="node"><title>Node11</title>
<g id="a_node11"><a xlink:href="../../dc/d5c/rlequant_8c.html#a2d0b301e0b946a4cc922dbd1e2d49ccf" target="_top" xlink:title="copy_hdr">
<polygon fill="white" stroke="black" points="341,-76.5 341,-95.5 402,-95.5 402,-76.5 341,-76.5"/>
<text text-anchor="middle" x="371.5" y="-83.5" font-family="Helvetica,sans-Serif" font-size="10.00">copy_hdr</text>
</a>
</g>
</g>
<!-- Node8&#45;&gt;Node11 -->
<g id="edge10" class="edge"><title>Node8&#45;&gt;Node11</title>
<path fill="none" stroke="midnightblue" d="M283.157,-111.531C302.025,-106.016 323.753,-99.6644 340.818,-94.6763"/>
<polygon fill="midnightblue" stroke="midnightblue" points="281.921,-108.246 273.304,-114.411 283.885,-114.965 281.921,-108.246"/>
</g>
<!-- Node12 -->
<g id="node12" class="node"><title>Node12</title>
<g id="a_node12"><a xlink:href="../../df/dfb/unslice_8c.html#a7090aec632931a42b5d606b6db234b9d" target="_top" xlink:title="do_slice">
<polygon fill="white" stroke="black" points="343.5,-38.5 343.5,-57.5 399.5,-57.5 399.5,-38.5 343.5,-38.5"/>
<text text-anchor="middle" x="371.5" y="-45.5" font-family="Helvetica,sans-Serif" font-size="10.00">do_slice</text>
</a>
</g>
</g>
<!-- Node8&#45;&gt;Node12 -->
<g id="edge11" class="edge"><title>Node8&#45;&gt;Node12</title>
<path fill="none" stroke="midnightblue" d="M283.453,-110.829C287.131,-109.085 290.702,-107.146 294,-105 313.5,-92.3122 311.141,-80.6221 330,-67 334.911,-63.4529 340.589,-60.3035 346.111,-57.6387"/>
<polygon fill="midnightblue" stroke="midnightblue" points="282.018,-107.636 274.185,-114.769 284.757,-114.078 282.018,-107.636"/>
</g>
<!-- Node15 -->
<g id="node15" class="node"><title>Node15</title>
<g id="a_node15"><a xlink:href="../../de/d5e/vcrtorle_8c.html#af58a4643b68f5a3ff4f34d4bb6a804fd" target="_top" xlink:title="SetUpRLEFile">
<polygon fill="white" stroke="black" points="330,-0.5 330,-19.5 413,-19.5 413,-0.5 330,-0.5"/>
<text text-anchor="middle" x="371.5" y="-7.5" font-family="Helvetica,sans-Serif" font-size="10.00">SetUpRLEFile</text>
</a>
</g>
</g>
<!-- Node14&#45;&gt;Node15 -->
<g id="edge14" class="edge"><title>Node14&#45;&gt;Node15</title>
<path fill="none" stroke="midnightblue" d="M283.384,-35.4647C301.069,-30.2952 321.234,-24.4009 337.706,-19.5859"/>
<polygon fill="midnightblue" stroke="midnightblue" points="281.921,-32.2458 273.304,-38.411 283.885,-38.9647 281.921,-32.2458"/>
</g>
<!-- Node16 -->
<g id="node16" class="node"><title>Node16</title>
<g id="a_node16"><a xlink:href="../../de/d5e/vcrtorle_8c.html#afced8478b91af5c169926dfa4426333d" target="_top" xlink:title="main">
<polygon fill="white" stroke="black" points="449,-0.5 449,-19.5 488,-19.5 488,-0.5 449,-0.5"/>
<text text-anchor="middle" x="468.5" y="-7.5" font-family="Helvetica,sans-Serif" font-size="10.00">main</text>
</a>
</g>
</g>
<!-- Node15&#45;&gt;Node16 -->
<g id="edge15" class="edge"><title>Node15&#45;&gt;Node16</title>
<path fill="none" stroke="midnightblue" d="M423.102,-10C432.358,-10 441.456,-10 448.982,-10"/>
<polygon fill="midnightblue" stroke="midnightblue" points="423.064,-6.5001 413.064,-10 423.064,-13.5001 423.064,-6.5001"/>
</g>
<!-- Node18 -->
<g id="node18" class="node"><title>Node18</title>
<g id="a_node18"><a xlink:href="../../de/d53/rleaddcom_8c.html#a70db8bd1d499619f7ff9c1ca2ff3c8df" target="_top" xlink:title="main">
<polygon fill="white" stroke="black" points="220,-0.5 220,-19.5 259,-19.5 259,-0.5 220,-0.5"/>
<text text-anchor="middle" x="239.5" y="-7.5" font-family="Helvetica,sans-Serif" font-size="10.00">main</text>
</a>
</g>
</g>
<!-- Node17&#45;&gt;Node18 -->
<g id="edge17" class="edge"><title>Node17&#45;&gt;Node18</title>
<path fill="none" stroke="midnightblue" d="M156.71,-35.3717C178.028,-28.7588 203.1,-20.9813 219.812,-15.7972"/>
<polygon fill="midnightblue" stroke="midnightblue" points="155.426,-32.1053 146.912,-38.411 157.5,-38.791 155.426,-32.1053"/>
</g>
</g>
</svg>
