<?xml version="1.0" encoding="UTF-8" standalone="no"?>
<!DOCTYPE svg PUBLIC "-//W3C//DTD SVG 1.1//EN"
 "http://www.w3.org/Graphics/SVG/1.1/DTD/svg11.dtd">
<!-- Generated by graphviz version 2.38.0 (20140413.2041)
 -->
<!-- Title: error Pages: 1 -->
<svg width="241pt" height="47pt"
 viewBox="0.00 0.00 241.00 47.00" xmlns="http://www.w3.org/2000/svg" xmlns:xlink="http://www.w3.org/1999/xlink">
<g id="graph0" class="graph" transform="scale(1 1) rotate(0) translate(4 43)">
<title>error</title>
<polygon fill="white" stroke="none" points="-4,4 -4,-43 237,-43 237,4 -4,4"/>
<!-- Node1 -->
<g id="node1" class="node"><title>Node1</title>
<polygon fill="#bfbfbf" stroke="black" points="0,-19.5 0,-38.5 40,-38.5 40,-19.5 0,-19.5"/>
<text text-anchor="middle" x="20" y="-26.5" font-family="Helvetica,sans-Serif" font-size="10.00">error</text>
</g>
<!-- Node2 -->
<g id="node2" class="node"><title>Node2</title>
<g id="a_node2"><a xlink:href="../../d4/d1a/rletotiff_8c.html#ade521a0600ded19f1720b6f6df59b480" target="_top" xlink:title="main">
<polygon fill="white" stroke="black" points="194,-19.5 194,-38.5 233,-38.5 233,-19.5 194,-19.5"/>
<text text-anchor="middle" x="213.5" y="-26.5" font-family="Helvetica,sans-Serif" font-size="10.00">main</text>
</a>
</g>
</g>
<!-- Node1&#45;&gt;Node2 -->
<g id="edge1" class="edge"><title>Node1&#45;&gt;Node2</title>
<path fill="none" stroke="midnightblue" d="M50.2052,-29C90.0614,-29 160.349,-29 193.798,-29"/>
<polygon fill="midnightblue" stroke="midnightblue" points="50.0619,-25.5001 40.0619,-29 50.0618,-32.5001 50.0619,-25.5001"/>
</g>
<!-- Node3 -->
<g id="node3" class="node"><title>Node3</title>
<g id="a_node3"><a xlink:href="../../d4/d1a/rletotiff_8c.html#ae6289c0f5ad8df9d34452253a23b385b" target="_top" xlink:title="get_scanlines">
<polygon fill="white" stroke="black" points="76,-0.5 76,-19.5 158,-19.5 158,-0.5 76,-0.5"/>
<text text-anchor="middle" x="117" y="-7.5" font-family="Helvetica,sans-Serif" font-size="10.00">get_scanlines</text>
</a>
</g>
</g>
<!-- Node1&#45;&gt;Node3 -->
<g id="edge2" class="edge"><title>Node1&#45;&gt;Node3</title>
<path fill="none" stroke="midnightblue" d="M50.2066,-23.1587C58.2329,-21.5534 67.0816,-19.7837 75.6167,-18.0767"/>
<polygon fill="midnightblue" stroke="midnightblue" points="49.344,-19.7618 40.2247,-25.1551 50.7169,-26.6259 49.344,-19.7618"/>
</g>
<!-- Node3&#45;&gt;Node2 -->
<g id="edge3" class="edge"><title>Node3&#45;&gt;Node2</title>
<path fill="none" stroke="midnightblue" d="M168.095,-20.0721C177.338,-21.9303 186.434,-23.7592 193.964,-25.2731"/>
<polygon fill="midnightblue" stroke="midnightblue" points="168.57,-16.5976 158.077,-18.0577 167.19,-23.4603 168.57,-16.5976"/>
</g>
</g>
</svg>
