<?xml version="1.0" encoding="UTF-8" standalone="no"?>
<!DOCTYPE svg PUBLIC "-//W3C//DTD SVG 1.1//EN"
 "http://www.w3.org/Graphics/SVG/1.1/DTD/svg11.dtd">
<!-- Generated by graphviz version 2.38.0 (20140413.2041)
 -->
<!-- Title: main Pages: 1 -->
<svg width="658pt" height="551pt"
 viewBox="0.00 0.00 658.00 551.01" xmlns="http://www.w3.org/2000/svg" xmlns:xlink="http://www.w3.org/1999/xlink">
<g id="graph0" class="graph" transform="scale(1 1) rotate(0) translate(4 547.009)">
<title>main</title>
<polygon fill="white" stroke="none" points="-4,4 -4,-547.009 654,-547.009 654,4 -4,4"/>
<!-- Node1 -->
<g id="node1" class="node"><title>Node1</title>
<polygon fill="#bfbfbf" stroke="black" points="0,-190.5 0,-209.5 39,-209.5 39,-190.5 0,-190.5"/>
<text text-anchor="middle" x="19.5" y="-197.5" font-family="Helvetica,sans-Serif" font-size="10.00">main</text>
</g>
<!-- Node2 -->
<g id="node2" class="node"><title>Node2</title>
<g id="a_node2"><a xlink:href="../../d2/df3/rle__hdr_8c.html#a8ba0e5b11d1e39ab7227f1686e676c86" target="_top" xlink:title="rle_hdr_init">
<polygon fill="white" stroke="black" points="216,-342.5 216,-361.5 286,-361.5 286,-342.5 216,-342.5"/>
<text text-anchor="middle" x="251" y="-349.5" font-family="Helvetica,sans-Serif" font-size="10.00">rle_hdr_init</text>
</a>
</g>
</g>
<!-- Node1&#45;&gt;Node2 -->
<g id="edge1" class="edge"><title>Node1&#45;&gt;Node2</title>
<path fill="none" stroke="midnightblue" d="M21.4422,-209.638C24.3741,-233.945 35.6518,-297.946 75,-328 112.09,-356.33 166.93,-359.458 205.307,-357.336"/>
<polygon fill="midnightblue" stroke="midnightblue" points="205.933,-360.801 215.666,-356.615 205.447,-353.818 205.933,-360.801"/>
</g>
<!-- Node4 -->
<g id="node4" class="node"><title>Node4</title>
<g id="a_node4"><a xlink:href="../../d0/dcc/rletorla_8c.html#aafde19f7d36ca163a143579c1b125b6d" target="_top" xlink:title="free">
<polygon fill="white" stroke="black" points="599.5,-380.5 599.5,-399.5 634.5,-399.5 634.5,-380.5 599.5,-380.5"/>
<text text-anchor="middle" x="617" y="-387.5" font-family="Helvetica,sans-Serif" font-size="10.00">free</text>
</a>
</g>
</g>
<!-- Node1&#45;&gt;Node4 -->
<g id="edge39" class="edge"><title>Node1&#45;&gt;Node4</title>
<path fill="none" stroke="midnightblue" d="M20.8251,-209.639C22.3102,-241.044 30.4874,-342.231 75,-409 129.189,-490.284 152.309,-542 250,-542 250,-542 250,-542 370.5,-542 451.085,-542 482.468,-551.898 548,-505 581.338,-481.141 601.056,-435.408 610.07,-409.38"/>
<polygon fill="midnightblue" stroke="midnightblue" points="613.502,-410.145 613.285,-399.552 606.849,-407.968 613.502,-410.145"/>
</g>
<!-- Node6 -->
<g id="node6" class="node"><title>Node6</title>
<g id="a_node6"><a xlink:href="../../d0/dcc/rletorla_8c.html#ab7e36af3707843f77cc5b4e831c2fa6d" target="_top" xlink:title="malloc">
<polygon fill="white" stroke="black" points="593.5,-266.5 593.5,-285.5 640.5,-285.5 640.5,-266.5 593.5,-266.5"/>
<text text-anchor="middle" x="617" y="-273.5" font-family="Helvetica,sans-Serif" font-size="10.00">malloc</text>
</a>
</g>
</g>
<!-- Node1&#45;&gt;Node6 -->
<g id="edge37" class="edge"><title>Node1&#45;&gt;Node6</title>
<path fill="none" stroke="midnightblue" d="M39.2416,-200C78.3901,-200 171.707,-200 250,-200 250,-200 250,-200 370.5,-200 449.84,-200 476.891,-183.811 548,-219 568.851,-229.318 565.824,-242.478 584,-257 585.59,-258.27 587.273,-259.516 589.003,-260.723"/>
<polygon fill="midnightblue" stroke="midnightblue" points="587.511,-263.925 597.817,-266.382 591.293,-258.034 587.511,-263.925"/>
</g>
<!-- Node7 -->
<g id="node7" class="node"><title>Node7</title>
<g id="a_node7"><a xlink:href="../../d2/df3/rle__hdr_8c.html#a82e79385f2d45cc3b80ce0f4f369eae5" target="_top" xlink:title="rle_names">
<polygon fill="white" stroke="black" points="464,-342.5 464,-361.5 530,-361.5 530,-342.5 464,-342.5"/>
<text text-anchor="middle" x="497" y="-349.5" font-family="Helvetica,sans-Serif" font-size="10.00">rle_names</text>
</a>
</g>
</g>
<!-- Node1&#45;&gt;Node7 -->
<g id="edge13" class="edge"><title>Node1&#45;&gt;Node7</title>
<path fill="none" stroke="midnightblue" d="M24.3979,-209.55C31.6733,-226.062 48.9779,-259.736 75,-276 203.071,-356.046 261.775,-304.034 410,-333 424.37,-335.808 440.023,-339.174 453.988,-342.287"/>
<polygon fill="midnightblue" stroke="midnightblue" points="453.291,-345.718 463.816,-344.498 454.827,-338.889 453.291,-345.718"/>
</g>
<!-- Node8 -->
<g id="node8" class="node"><title>Node8</title>
<g id="a_node8"><a xlink:href="../../d4/d1a/rletotiff_8c.html#a7e15c8e2885871839fc2b820dfbdb4ce" target="_top" xlink:title="error">
<polygon fill="white" stroke="black" points="231,-76.5 231,-95.5 271,-95.5 271,-76.5 231,-76.5"/>
<text text-anchor="middle" x="251" y="-83.5" font-family="Helvetica,sans-Serif" font-size="10.00">error</text>
</a>
</g>
</g>
<!-- Node1&#45;&gt;Node8 -->
<g id="edge10" class="edge"><title>Node1&#45;&gt;Node8</title>
<path fill="none" stroke="midnightblue" d="M27.4855,-190.105C36.9028,-177.457 54.8329,-155.682 75,-143 99.6766,-127.483 178.073,-105.13 221.08,-93.5679"/>
<polygon fill="midnightblue" stroke="midnightblue" points="222.185,-96.8955 230.946,-90.9378 220.382,-90.1317 222.185,-96.8955"/>
</g>
<!-- Node9 -->
<g id="node9" class="node"><title>Node9</title>
<g id="a_node9"><a xlink:href="../../d4/db0/scanargs_8c.html#a7ea6d702c0484056c8504d6ce7fede08" target="_top" xlink:title="scanargs">
<polygon fill="white" stroke="black" points="94,-76.5 94,-95.5 154,-95.5 154,-76.5 94,-76.5"/>
<text text-anchor="middle" x="124" y="-83.5" font-family="Helvetica,sans-Serif" font-size="10.00">scanargs</text>
</a>
</g>
</g>
<!-- Node1&#45;&gt;Node9 -->
<g id="edge11" class="edge"><title>Node1&#45;&gt;Node9</title>
<path fill="none" stroke="midnightblue" d="M24.1816,-190.396C31.453,-172.514 49.2186,-133.777 75,-110 78.9232,-106.382 83.4938,-103.181 88.2259,-100.393"/>
<polygon fill="midnightblue" stroke="midnightblue" points="90.1975,-103.309 97.3967,-95.5358 86.9214,-97.1229 90.1975,-103.309"/>
</g>
<!-- Node11 -->
<g id="node11" class="node"><title>Node11</title>
<g id="a_node11"><a xlink:href="../../d8/d30/cmd__name_8c.html#a271249070fdd12c176777c77d76f888f" target="_top" xlink:title="cmd_name">
<polygon fill="white" stroke="black" points="90,-38.5 90,-57.5 158,-57.5 158,-38.5 90,-38.5"/>
<text text-anchor="middle" x="124" y="-45.5" font-family="Helvetica,sans-Serif" font-size="10.00">cmd_name</text>
</a>
</g>
</g>
<!-- Node1&#45;&gt;Node11 -->
<g id="edge14" class="edge"><title>Node1&#45;&gt;Node11</title>
<path fill="none" stroke="midnightblue" d="M21.8503,-190.195C25.6813,-165.992 38.7891,-102.779 75,-67 76.8409,-65.1811 78.8771,-63.5308 81.0413,-62.0342"/>
<polygon fill="midnightblue" stroke="midnightblue" points="82.9279,-64.9874 89.8796,-56.9921 79.4592,-58.9072 82.9279,-64.9874"/>
</g>
<!-- Node12 -->
<g id="node12" class="node"><title>Node12</title>
<g id="a_node12"><a xlink:href="../../de/d4e/rle__open__f_8c.html#a89733a45961817885603ae01210290b7" target="_top" xlink:title="rle_open_f">
<polygon fill="white" stroke="black" points="90,-247.5 90,-266.5 158,-266.5 158,-247.5 90,-247.5"/>
<text text-anchor="middle" x="124" y="-254.5" font-family="Helvetica,sans-Serif" font-size="10.00">rle_open_f</text>
</a>
</g>
</g>
<!-- Node1&#45;&gt;Node12 -->
<g id="edge15" class="edge"><title>Node1&#45;&gt;Node12</title>
<path fill="none" stroke="midnightblue" d="M37.8877,-209.669C54.1097,-218.69 78.5245,-232.267 97.051,-242.57"/>
<polygon fill="midnightblue" stroke="midnightblue" points="95.4285,-245.672 105.869,-247.474 98.8305,-239.555 95.4285,-245.672"/>
</g>
<!-- Node15 -->
<g id="node15" class="node"><title>Node15</title>
<g id="a_node15"><a xlink:href="../../db/d53/rle__getrow_8c.html#a2d56ca99b896abbcb4d2f3f97c93a3ce" target="_top" xlink:title="rle_get_setup_ok">
<polygon fill="white" stroke="black" points="75,-380.5 75,-399.5 173,-399.5 173,-380.5 75,-380.5"/>
<text text-anchor="middle" x="124" y="-387.5" font-family="Helvetica,sans-Serif" font-size="10.00">rle_get_setup_ok</text>
</a>
</g>
</g>
<!-- Node1&#45;&gt;Node15 -->
<g id="edge20" class="edge"><title>Node1&#45;&gt;Node15</title>
<path fill="none" stroke="midnightblue" d="M21.1473,-209.879C23.4626,-237.738 33.5714,-318.014 75,-366 78.0271,-369.506 81.689,-372.556 85.6248,-375.194"/>
<polygon fill="midnightblue" stroke="midnightblue" points="84.1264,-378.37 94.5385,-380.329 87.6208,-372.305 84.1264,-378.37"/>
</g>
<!-- Node19 -->
<g id="node19" class="node"><title>Node19</title>
<g id="a_node19"><a xlink:href="../../d4/d1a/rletotiff_8c.html#ae6289c0f5ad8df9d34452253a23b385b" target="_top" xlink:title="get_scanlines">
<polygon fill="white" stroke="black" points="83,-152.5 83,-171.5 165,-171.5 165,-152.5 83,-152.5"/>
<text text-anchor="middle" x="124" y="-159.5" font-family="Helvetica,sans-Serif" font-size="10.00">get_scanlines</text>
</a>
</g>
</g>
<!-- Node1&#45;&gt;Node19 -->
<g id="edge30" class="edge"><title>Node1&#45;&gt;Node19</title>
<path fill="none" stroke="midnightblue" d="M39.3001,-193.03C52.7969,-188.026 71.3946,-181.132 87.632,-175.112"/>
<polygon fill="midnightblue" stroke="midnightblue" points="89.2107,-178.26 97.3704,-171.502 86.7774,-171.696 89.2107,-178.26"/>
</g>
<!-- Node23 -->
<g id="node23" class="node"><title>Node23</title>
<g id="a_node23"><a xlink:href="../../d4/d1a/rletotiff_8c.html#a2582812180e2d752e54b9369965cdbe4" target="_top" xlink:title="get_tiff_scanline">
<polygon fill="white" stroke="black" points="77,-0.5 77,-19.5 171,-19.5 171,-0.5 77,-0.5"/>
<text text-anchor="middle" x="124" y="-7.5" font-family="Helvetica,sans-Serif" font-size="10.00">get_tiff_scanline</text>
</a>
</g>
</g>
<!-- Node1&#45;&gt;Node23 -->
<g id="edge38" class="edge"><title>Node1&#45;&gt;Node23</title>
<path fill="none" stroke="midnightblue" d="M20.8004,-190.461C22.2006,-162.059 30.1273,-77.0507 75,-29 76.2196,-27.694 77.5404,-26.4762 78.9391,-25.3408"/>
<polygon fill="midnightblue" stroke="midnightblue" points="81.1557,-28.075 87.6423,-19.698 77.3475,-22.2015 81.1557,-28.075"/>
</g>
<!-- Node3 -->
<g id="node3" class="node"><title>Node3</title>
<g id="a_node3"><a xlink:href="../../d2/df3/rle__hdr_8c.html#a16c4da6201b3b8cf55127b9ca968d253" target="_top" xlink:title="rle_hdr_clear">
<polygon fill="white" stroke="black" points="457,-418.5 457,-437.5 537,-437.5 537,-418.5 457,-418.5"/>
<text text-anchor="middle" x="497" y="-425.5" font-family="Helvetica,sans-Serif" font-size="10.00">rle_hdr_clear</text>
</a>
</g>
</g>
<!-- Node2&#45;&gt;Node3 -->
<g id="edge2" class="edge"><title>Node2&#45;&gt;Node3</title>
<path fill="none" stroke="midnightblue" d="M282.903,-361.625C326.721,-375.274 406.964,-400.267 455.497,-415.384"/>
<polygon fill="midnightblue" stroke="midnightblue" points="454.76,-418.82 465.348,-418.453 456.841,-412.137 454.76,-418.82"/>
</g>
<!-- Node5 -->
<g id="node5" class="node"><title>Node5</title>
<g id="a_node5"><a xlink:href="../../d2/df3/rle__hdr_8c.html#afc916e29aea8788e0878ca315ff69821" target="_top" xlink:title="rle_hdr_cp">
<polygon fill="white" stroke="black" points="335.5,-342.5 335.5,-361.5 403.5,-361.5 403.5,-342.5 335.5,-342.5"/>
<text text-anchor="middle" x="369.5" y="-349.5" font-family="Helvetica,sans-Serif" font-size="10.00">rle_hdr_cp</text>
</a>
</g>
</g>
<!-- Node2&#45;&gt;Node5 -->
<g id="edge4" class="edge"><title>Node2&#45;&gt;Node5</title>
<path fill="none" stroke="midnightblue" d="M286.01,-345.799C298.305,-345.209 312.353,-345.095 325.329,-345.455"/>
<polygon fill="midnightblue" stroke="midnightblue" points="325.324,-348.957 335.452,-345.846 325.594,-341.963 325.324,-348.957"/>
</g>
<!-- Node3&#45;&gt;Node4 -->
<g id="edge3" class="edge"><title>Node3&#45;&gt;Node4</title>
<path fill="none" stroke="midnightblue" d="M527.776,-418.411C546.813,-412.28 571.281,-404.401 589.618,-398.496"/>
<polygon fill="midnightblue" stroke="midnightblue" points="590.914,-401.756 599.359,-395.359 588.768,-395.093 590.914,-401.756"/>
</g>
<!-- Node5&#45;&gt;Node2 -->
<g id="edge5" class="edge"><title>Node5&#45;&gt;Node2</title>
<path fill="none" stroke="midnightblue" d="M335.452,-358.154C323.251,-358.768 309.222,-358.908 296.192,-358.572"/>
<polygon fill="midnightblue" stroke="midnightblue" points="296.131,-355.068 286.01,-358.201 295.876,-362.063 296.131,-355.068"/>
</g>
<!-- Node5&#45;&gt;Node6 -->
<g id="edge6" class="edge"><title>Node5&#45;&gt;Node6</title>
<path fill="none" stroke="midnightblue" d="M401.593,-342.375C448.232,-327.936 535.887,-300.801 583.395,-286.094"/>
<polygon fill="midnightblue" stroke="midnightblue" points="584.655,-289.368 593.173,-283.067 582.585,-282.681 584.655,-289.368"/>
</g>
<!-- Node5&#45;&gt;Node7 -->
<g id="edge7" class="edge"><title>Node5&#45;&gt;Node7</title>
<path fill="none" stroke="midnightblue" d="M403.802,-352C419.052,-352 437.302,-352 453.526,-352"/>
<polygon fill="midnightblue" stroke="midnightblue" points="453.844,-355.5 463.844,-352 453.844,-348.5 453.844,-355.5"/>
</g>
<!-- Node7&#45;&gt;Node4 -->
<g id="edge8" class="edge"><title>Node7&#45;&gt;Node4</title>
<path fill="none" stroke="midnightblue" d="M527.776,-361.589C546.813,-367.72 571.281,-375.599 589.618,-381.504"/>
<polygon fill="midnightblue" stroke="midnightblue" points="588.768,-384.907 599.359,-384.641 590.914,-378.244 588.768,-384.907"/>
</g>
<!-- Node7&#45;&gt;Node6 -->
<g id="edge9" class="edge"><title>Node7&#45;&gt;Node6</title>
<path fill="none" stroke="midnightblue" d="M512.945,-342.375C533.071,-329.412 569.089,-306.214 592.765,-290.965"/>
<polygon fill="midnightblue" stroke="midnightblue" points="594.665,-293.905 601.177,-285.547 590.874,-288.02 594.665,-293.905"/>
</g>
<!-- Node10 -->
<g id="node10" class="node"><title>Node10</title>
<g id="a_node10"><a xlink:href="../../d4/db0/scanargs_8c.html#a862219039664df6eb3cfced58addf830" target="_top" xlink:title="_do_scanargs">
<polygon fill="white" stroke="black" points="209,-38.5 209,-57.5 293,-57.5 293,-38.5 209,-38.5"/>
<text text-anchor="middle" x="251" y="-45.5" font-family="Helvetica,sans-Serif" font-size="10.00">_do_scanargs</text>
</a>
</g>
</g>
<!-- Node9&#45;&gt;Node10 -->
<g id="edge12" class="edge"><title>Node9&#45;&gt;Node10</title>
<path fill="none" stroke="midnightblue" d="M154.307,-77.0907C170.624,-72.1302 191.194,-65.8771 209.077,-60.4406"/>
<polygon fill="midnightblue" stroke="midnightblue" points="210.142,-63.7751 218.692,-57.5178 208.106,-57.0777 210.142,-63.7751"/>
</g>
<!-- Node13 -->
<g id="node13" class="node"><title>Node13</title>
<g id="a_node13"><a xlink:href="../../de/d4e/rle__open__f_8c.html#a5a0e62a00f907fce26e93b2f72adb2b0" target="_top" xlink:title="rle_open_f_noexit">
<polygon fill="white" stroke="black" points="446,-228.5 446,-247.5 548,-247.5 548,-228.5 446,-228.5"/>
<text text-anchor="middle" x="497" y="-235.5" font-family="Helvetica,sans-Serif" font-size="10.00">rle_open_f_noexit</text>
</a>
</g>
</g>
<!-- Node12&#45;&gt;Node13 -->
<g id="edge16" class="edge"><title>Node12&#45;&gt;Node13</title>
<path fill="none" stroke="midnightblue" d="M158.25,-255.297C220.719,-252.098 356.423,-245.148 435.487,-241.099"/>
<polygon fill="midnightblue" stroke="midnightblue" points="435.974,-244.579 445.782,-240.572 435.616,-237.588 435.974,-244.579"/>
</g>
<!-- Node13&#45;&gt;Node4 -->
<g id="edge19" class="edge"><title>Node13&#45;&gt;Node4</title>
<path fill="none" stroke="midnightblue" d="M505.89,-247.59C515.824,-259.709 533.364,-281.252 548,-300 567.293,-324.713 589.049,-353.714 602.643,-371.975"/>
<polygon fill="midnightblue" stroke="midnightblue" points="600.178,-374.526 608.951,-380.466 605.797,-370.352 600.178,-374.526"/>
</g>
<!-- Node13&#45;&gt;Node6 -->
<g id="edge18" class="edge"><title>Node13&#45;&gt;Node6</title>
<path fill="none" stroke="midnightblue" d="M527.776,-247.589C544.784,-253.066 566.127,-259.939 583.559,-265.553"/>
<polygon fill="midnightblue" stroke="midnightblue" points="582.718,-268.959 593.31,-268.693 584.864,-262.296 582.718,-268.959"/>
</g>
<!-- Node14 -->
<g id="node14" class="node"><title>Node14</title>
<g id="a_node14"><a xlink:href="../../de/d4e/rle__open__f_8c.html#a84fda810ae9b9bde82a6391d0b264ead" target="_top" xlink:title="my_popen">
<polygon fill="white" stroke="black" points="584,-228.5 584,-247.5 650,-247.5 650,-228.5 584,-228.5"/>
<text text-anchor="middle" x="617" y="-235.5" font-family="Helvetica,sans-Serif" font-size="10.00">my_popen</text>
</a>
</g>
</g>
<!-- Node13&#45;&gt;Node14 -->
<g id="edge17" class="edge"><title>Node13&#45;&gt;Node14</title>
<path fill="none" stroke="midnightblue" d="M548.043,-238C556.523,-238 565.255,-238 573.518,-238"/>
<polygon fill="midnightblue" stroke="midnightblue" points="573.678,-241.5 583.678,-238 573.678,-234.5 573.678,-241.5"/>
</g>
<!-- Node15&#45;&gt;Node2 -->
<g id="edge21" class="edge"><title>Node15&#45;&gt;Node2</title>
<path fill="none" stroke="midnightblue" d="M156.543,-380.411C172.383,-375.596 191.773,-369.701 208.776,-364.532"/>
<polygon fill="midnightblue" stroke="midnightblue" points="209.918,-367.843 218.467,-361.586 207.882,-361.146 209.918,-367.843"/>
</g>
<!-- Node15&#45;&gt;Node7 -->
<g id="edge22" class="edge"><title>Node15&#45;&gt;Node7</title>
<path fill="none" stroke="midnightblue" d="M173.135,-389.003C229.985,-387.315 327.284,-382.826 410,-371 424.495,-368.928 440.178,-365.747 454.134,-362.578"/>
<polygon fill="midnightblue" stroke="midnightblue" points="455.005,-365.969 463.948,-360.288 453.415,-359.152 455.005,-365.969"/>
</g>
<!-- Node16 -->
<g id="node16" class="node"><title>Node16</title>
<g id="a_node16"><a xlink:href="../../d7/d24/rle__error_8c.html#af931d686cf3ca715c9b900527f0961c0" target="_top" xlink:title="rle_get_error">
<polygon fill="white" stroke="black" points="211.5,-418.5 211.5,-437.5 290.5,-437.5 290.5,-418.5 211.5,-418.5"/>
<text text-anchor="middle" x="251" y="-425.5" font-family="Helvetica,sans-Serif" font-size="10.00">rle_get_error</text>
</a>
</g>
</g>
<!-- Node15&#45;&gt;Node16 -->
<g id="edge23" class="edge"><title>Node15&#45;&gt;Node16</title>
<path fill="none" stroke="midnightblue" d="M156.543,-399.589C172.383,-404.404 191.773,-410.299 208.776,-415.468"/>
<polygon fill="midnightblue" stroke="midnightblue" points="207.882,-418.854 218.467,-418.414 209.918,-412.157 207.882,-418.854"/>
</g>
<!-- Node17 -->
<g id="node17" class="node"><title>Node17</title>
<g id="a_node17"><a xlink:href="../../db/d53/rle__getrow_8c.html#a619b27463c26e0a4a3d9648a9869ee52" target="_top" xlink:title="rle_get_setup">
<polygon fill="white" stroke="black" points="329,-456.5 329,-475.5 410,-475.5 410,-456.5 329,-456.5"/>
<text text-anchor="middle" x="369.5" y="-463.5" font-family="Helvetica,sans-Serif" font-size="10.00">rle_get_setup</text>
</a>
</g>
</g>
<!-- Node15&#45;&gt;Node17 -->
<g id="edge24" class="edge"><title>Node15&#45;&gt;Node17</title>
<path fill="none" stroke="midnightblue" d="M135.458,-399.594C150.481,-412.755 179.612,-436.026 209,-447 244.242,-460.16 286.633,-464.727 318.851,-466.102"/>
<polygon fill="midnightblue" stroke="midnightblue" points="318.82,-469.603 328.933,-466.443 319.057,-462.607 318.82,-469.603"/>
</g>
<!-- Node17&#45;&gt;Node3 -->
<g id="edge25" class="edge"><title>Node17&#45;&gt;Node3</title>
<path fill="none" stroke="midnightblue" d="M402.169,-456.411C418.073,-451.596 437.54,-445.701 454.611,-440.532"/>
<polygon fill="midnightblue" stroke="midnightblue" points="455.785,-443.834 464.341,-437.586 453.756,-437.134 455.785,-443.834"/>
</g>
<!-- Node17&#45;&gt;Node4 -->
<g id="edge28" class="edge"><title>Node17&#45;&gt;Node4</title>
<path fill="none" stroke="midnightblue" d="M391.837,-475.509C426.64,-489.499 496.869,-511.281 548,-485 578.974,-469.08 598.989,-431.779 608.812,-408.94"/>
<polygon fill="midnightblue" stroke="midnightblue" points="612.088,-410.174 612.61,-399.593 605.603,-407.539 612.088,-410.174"/>
</g>
<!-- Node17&#45;&gt;Node6 -->
<g id="edge27" class="edge"><title>Node17&#45;&gt;Node6</title>
<path fill="none" stroke="midnightblue" d="M381.064,-456.432C395.069,-444.136 420.944,-422.742 446,-409 488.417,-385.737 509.578,-400.396 548,-371 575.118,-350.253 595.975,-315.713 607.08,-294.491"/>
<polygon fill="midnightblue" stroke="midnightblue" points="610.227,-296.022 611.608,-285.518 603.978,-292.868 610.227,-296.022"/>
</g>
<!-- Node17&#45;&gt;Node7 -->
<g id="edge26" class="edge"><title>Node17&#45;&gt;Node7</title>
<path fill="none" stroke="midnightblue" d="M376.497,-456.44C388.066,-438.632 415.069,-400.013 446,-376 450.775,-372.293 456.215,-368.961 461.707,-366.042"/>
<polygon fill="midnightblue" stroke="midnightblue" points="463.459,-369.081 470.89,-361.529 460.371,-362.799 463.459,-369.081"/>
</g>
<!-- Node18 -->
<g id="node18" class="node"><title>Node18</title>
<g id="a_node18"><a xlink:href="../../db/d53/rle__getrow_8c.html#a0ea68aa2ebeef9d4cade7282553b03d6" target="_top" xlink:title="vax_gshort">
<polygon fill="white" stroke="black" points="462.5,-456.5 462.5,-475.5 531.5,-475.5 531.5,-456.5 462.5,-456.5"/>
<text text-anchor="middle" x="497" y="-463.5" font-family="Helvetica,sans-Serif" font-size="10.00">vax_gshort</text>
</a>
</g>
</g>
<!-- Node17&#45;&gt;Node18 -->
<g id="edge29" class="edge"><title>Node17&#45;&gt;Node18</title>
<path fill="none" stroke="midnightblue" d="M410.209,-466C423.6,-466 438.616,-466 452.298,-466"/>
<polygon fill="midnightblue" stroke="midnightblue" points="452.451,-469.5 462.451,-466 452.451,-462.5 452.451,-469.5"/>
</g>
<!-- Node19&#45;&gt;Node4 -->
<g id="edge36" class="edge"><title>Node19&#45;&gt;Node4</title>
<path fill="none" stroke="midnightblue" d="M158.199,-171.503C231.768,-193.381 412.702,-251.733 548,-333 567.028,-344.429 586.179,-361.051 599.287,-373.399"/>
<polygon fill="midnightblue" stroke="midnightblue" points="596.98,-376.036 606.612,-380.45 601.835,-370.993 596.98,-376.036"/>
</g>
<!-- Node19&#45;&gt;Node6 -->
<g id="edge31" class="edge"><title>Node19&#45;&gt;Node6</title>
<path fill="none" stroke="midnightblue" d="M165.224,-159.326C258.4,-153.905 485.822,-145.342 548,-186 577.612,-205.363 559.829,-231.164 584,-257 585.048,-258.121 586.178,-259.197 587.364,-260.227"/>
<polygon fill="midnightblue" stroke="midnightblue" points="585.619,-263.286 595.762,-266.348 589.742,-257.629 585.619,-263.286"/>
</g>
<!-- Node19&#45;&gt;Node8 -->
<g id="edge32" class="edge"><title>Node19&#45;&gt;Node8</title>
<path fill="none" stroke="midnightblue" d="M147.229,-152.475C155.6,-148.484 165.018,-143.494 173,-138 190.88,-125.694 190.94,-117.039 209,-105 212.925,-102.384 217.268,-99.9483 221.616,-97.7532"/>
<polygon fill="midnightblue" stroke="midnightblue" points="223.418,-100.773 230.982,-93.3544 220.443,-94.4373 223.418,-100.773"/>
</g>
<!-- Node20 -->
<g id="node20" class="node"><title>Node20</title>
<g id="a_node20"><a xlink:href="../../db/d53/rle__getrow_8c.html#a3602e1158189cba5e5b0f9b983cba776" target="_top" xlink:title="rle_getrow">
<polygon fill="white" stroke="black" points="217.5,-114.5 217.5,-133.5 284.5,-133.5 284.5,-114.5 217.5,-114.5"/>
<text text-anchor="middle" x="251" y="-121.5" font-family="Helvetica,sans-Serif" font-size="10.00">rle_getrow</text>
</a>
</g>
</g>
<!-- Node19&#45;&gt;Node20 -->
<g id="edge33" class="edge"><title>Node19&#45;&gt;Node20</title>
<path fill="none" stroke="midnightblue" d="M156.543,-152.411C172.383,-147.596 191.773,-141.701 208.776,-136.532"/>
<polygon fill="midnightblue" stroke="midnightblue" points="209.918,-139.843 218.467,-133.586 207.882,-133.146 209.918,-139.843"/>
</g>
<!-- Node21 -->
<g id="node21" class="node"><title>Node21</title>
<g id="a_node21"><a xlink:href="../../db/d53/rle__getrow_8c.html#a61ac0da96b0dd8bc3cbc98afcd9b5c44" target="_top" xlink:title="bfill">
<polygon fill="white" stroke="black" points="353.5,-76.5 353.5,-95.5 385.5,-95.5 385.5,-76.5 353.5,-76.5"/>
<text text-anchor="middle" x="369.5" y="-83.5" font-family="Helvetica,sans-Serif" font-size="10.00">bfill</text>
</a>
</g>
</g>
<!-- Node20&#45;&gt;Node21 -->
<g id="edge34" class="edge"><title>Node20&#45;&gt;Node21</title>
<path fill="none" stroke="midnightblue" d="M281.398,-114.411C300.646,-108.133 325.516,-100.02 343.751,-94.0726"/>
<polygon fill="midnightblue" stroke="midnightblue" points="344.953,-97.3623 353.374,-90.9337 342.782,-90.7074 344.953,-97.3623"/>
</g>
<!-- Node22 -->
<g id="node22" class="node"><title>Node22</title>
<g id="a_node22"><a xlink:href="../../d8/d7c/rle__getskip_8c.html#af6b1e1dc0867e9340f90668591c7c5b3" target="_top" xlink:title="rle_getskip">
<polygon fill="white" stroke="black" points="335.5,-114.5 335.5,-133.5 403.5,-133.5 403.5,-114.5 335.5,-114.5"/>
<text text-anchor="middle" x="369.5" y="-121.5" font-family="Helvetica,sans-Serif" font-size="10.00">rle_getskip</text>
</a>
</g>
</g>
<!-- Node20&#45;&gt;Node22 -->
<g id="edge35" class="edge"><title>Node20&#45;&gt;Node22</title>
<path fill="none" stroke="midnightblue" d="M284.762,-124C297.188,-124 311.542,-124 324.818,-124"/>
<polygon fill="midnightblue" stroke="midnightblue" points="325.176,-127.5 335.175,-124 325.175,-120.5 325.176,-127.5"/>
</g>
</g>
</svg>
