<?xml version="1.0" encoding="UTF-8" standalone="no"?>
<!DOCTYPE svg PUBLIC "-//W3C//DTD SVG 1.1//EN"
 "http://www.w3.org/Graphics/SVG/1.1/DTD/svg11.dtd">
<!-- Generated by graphviz version 2.38.0 (20140413.2041)
 -->
<!-- Title: get_scanlines Pages: 1 -->
<svg width="297pt" height="142pt"
 viewBox="0.00 0.00 297.00 142.00" xmlns="http://www.w3.org/2000/svg" xmlns:xlink="http://www.w3.org/1999/xlink">
<g id="graph0" class="graph" transform="scale(1 1) rotate(0) translate(4 138)">
<title>get_scanlines</title>
<polygon fill="white" stroke="none" points="-4,4 -4,-138 293,-138 293,4 -4,4"/>
<!-- Node1 -->
<g id="node1" class="node"><title>Node1</title>
<polygon fill="#bfbfbf" stroke="black" points="0,-57.5 0,-76.5 82,-76.5 82,-57.5 0,-57.5"/>
<text text-anchor="middle" x="41" y="-64.5" font-family="Helvetica,sans-Serif" font-size="10.00">get_scanlines</text>
</g>
<!-- Node2 -->
<g id="node2" class="node"><title>Node2</title>
<g id="a_node2"><a xlink:href="../../d0/dcc/rletorla_8c.html#ab7e36af3707843f77cc5b4e831c2fa6d" target="_top" xlink:title="malloc">
<polygon fill="white" stroke="black" points="128,-114.5 128,-133.5 175,-133.5 175,-114.5 128,-114.5"/>
<text text-anchor="middle" x="151.5" y="-121.5" font-family="Helvetica,sans-Serif" font-size="10.00">malloc</text>
</a>
</g>
</g>
<!-- Node1&#45;&gt;Node2 -->
<g id="edge1" class="edge"><title>Node1&#45;&gt;Node2</title>
<path fill="none" stroke="midnightblue" d="M60.4055,-76.6693C77.6555,-85.7315 103.657,-99.3914 123.3,-109.711"/>
<polygon fill="midnightblue" stroke="midnightblue" points="121.886,-112.921 132.366,-114.474 125.141,-106.724 121.886,-112.921"/>
</g>
<!-- Node3 -->
<g id="node3" class="node"><title>Node3</title>
<g id="a_node3"><a xlink:href="../../d4/d1a/rletotiff_8c.html#a7e15c8e2885871839fc2b820dfbdb4ce" target="_top" xlink:title="error">
<polygon fill="white" stroke="black" points="131.5,-76.5 131.5,-95.5 171.5,-95.5 171.5,-76.5 131.5,-76.5"/>
<text text-anchor="middle" x="151.5" y="-83.5" font-family="Helvetica,sans-Serif" font-size="10.00">error</text>
</a>
</g>
</g>
<!-- Node1&#45;&gt;Node3 -->
<g id="edge2" class="edge"><title>Node1&#45;&gt;Node3</title>
<path fill="none" stroke="midnightblue" d="M82.0931,-74.0209C95.0729,-76.2939 109.215,-78.7704 121.254,-80.8786"/>
<polygon fill="midnightblue" stroke="midnightblue" points="120.757,-84.3447 131.211,-82.6222 121.964,-77.4496 120.757,-84.3447"/>
</g>
<!-- Node4 -->
<g id="node4" class="node"><title>Node4</title>
<g id="a_node4"><a xlink:href="../../db/d53/rle__getrow_8c.html#a3602e1158189cba5e5b0f9b983cba776" target="_top" xlink:title="rle_getrow">
<polygon fill="white" stroke="black" points="118,-38.5 118,-57.5 185,-57.5 185,-38.5 118,-38.5"/>
<text text-anchor="middle" x="151.5" y="-45.5" font-family="Helvetica,sans-Serif" font-size="10.00">rle_getrow</text>
</a>
</g>
</g>
<!-- Node1&#45;&gt;Node4 -->
<g id="edge3" class="edge"><title>Node1&#45;&gt;Node4</title>
<path fill="none" stroke="midnightblue" d="M82.0931,-59.9791C90.419,-58.5211 99.2231,-56.9794 107.644,-55.5048"/>
<polygon fill="midnightblue" stroke="midnightblue" points="108.421,-58.9221 117.667,-53.7496 107.213,-52.027 108.421,-58.9221"/>
</g>
<!-- Node7 -->
<g id="node7" class="node"><title>Node7</title>
<g id="a_node7"><a xlink:href="../../d0/dcc/rletorla_8c.html#aafde19f7d36ca163a143579c1b125b6d" target="_top" xlink:title="free">
<polygon fill="white" stroke="black" points="134,-0.5 134,-19.5 169,-19.5 169,-0.5 134,-0.5"/>
<text text-anchor="middle" x="151.5" y="-7.5" font-family="Helvetica,sans-Serif" font-size="10.00">free</text>
</a>
</g>
</g>
<!-- Node1&#45;&gt;Node7 -->
<g id="edge6" class="edge"><title>Node1&#45;&gt;Node7</title>
<path fill="none" stroke="midnightblue" d="M60.4055,-57.3307C78.0712,-48.0501 104.915,-33.9476 124.709,-23.5492"/>
<polygon fill="midnightblue" stroke="midnightblue" points="126.563,-26.5286 133.788,-18.7794 123.308,-20.3317 126.563,-26.5286"/>
</g>
<!-- Node5 -->
<g id="node5" class="node"><title>Node5</title>
<g id="a_node5"><a xlink:href="../../db/d53/rle__getrow_8c.html#a61ac0da96b0dd8bc3cbc98afcd9b5c44" target="_top" xlink:title="bfill">
<polygon fill="white" stroke="black" points="239,-57.5 239,-76.5 271,-76.5 271,-57.5 239,-57.5"/>
<text text-anchor="middle" x="255" y="-64.5" font-family="Helvetica,sans-Serif" font-size="10.00">bfill</text>
</a>
</g>
</g>
<!-- Node4&#45;&gt;Node5 -->
<g id="edge4" class="edge"><title>Node4&#45;&gt;Node5</title>
<path fill="none" stroke="midnightblue" d="M185.174,-54.1163C199.441,-56.787 215.901,-59.8681 229.146,-62.3475"/>
<polygon fill="midnightblue" stroke="midnightblue" points="228.502,-65.7877 238.976,-64.1875 229.79,-58.9073 228.502,-65.7877"/>
</g>
<!-- Node6 -->
<g id="node6" class="node"><title>Node6</title>
<g id="a_node6"><a xlink:href="../../d8/d7c/rle__getskip_8c.html#af6b1e1dc0867e9340f90668591c7c5b3" target="_top" xlink:title="rle_getskip">
<polygon fill="white" stroke="black" points="221,-19.5 221,-38.5 289,-38.5 289,-19.5 221,-19.5"/>
<text text-anchor="middle" x="255" y="-26.5" font-family="Helvetica,sans-Serif" font-size="10.00">rle_getskip</text>
</a>
</g>
</g>
<!-- Node4&#45;&gt;Node6 -->
<g id="edge5" class="edge"><title>Node4&#45;&gt;Node6</title>
<path fill="none" stroke="midnightblue" d="M185.174,-41.8837C193.338,-40.3554 202.22,-38.6928 210.807,-37.0854"/>
<polygon fill="midnightblue" stroke="midnightblue" points="211.505,-40.5156 220.69,-35.2353 210.217,-33.6351 211.505,-40.5156"/>
</g>
</g>
</svg>
