<?xml version="1.0" encoding="UTF-8" standalone="no"?>
<!DOCTYPE svg PUBLIC "-//W3C//DTD SVG 1.1//EN"
 "http://www.w3.org/Graphics/SVG/1.1/DTD/svg11.dtd">
<!-- Generated by graphviz version 2.38.0 (20140413.2041)
 -->
<!-- Title: Malloc Pages: 1 -->
<svg width="222pt" height="66pt"
 viewBox="0.00 0.00 222.00 66.00" xmlns="http://www.w3.org/2000/svg" xmlns:xlink="http://www.w3.org/1999/xlink">
<g id="graph0" class="graph" transform="scale(1 1) rotate(0) translate(4 62)">
<title>Malloc</title>
<polygon fill="white" stroke="none" points="-4,4 -4,-62 218,-62 218,4 -4,4"/>
<!-- Node1 -->
<g id="node1" class="node"><title>Node1</title>
<polygon fill="#bfbfbf" stroke="black" points="0,-19.5 0,-38.5 47,-38.5 47,-19.5 0,-19.5"/>
<text text-anchor="middle" x="23.5" y="-26.5" font-family="Helvetica,sans-Serif" font-size="10.00">Malloc</text>
</g>
<!-- Node2 -->
<g id="node2" class="node"><title>Node2</title>
<g id="a_node2"><a xlink:href="../../d6/d10/rletoalias_8c.html#a86cf5e03c7b351c5a62a6951d179f6a5" target="_top" xlink:title="read_rle">
<polygon fill="white" stroke="black" points="120.5,-38.5 120.5,-57.5 176.5,-57.5 176.5,-38.5 120.5,-38.5"/>
<text text-anchor="middle" x="148.5" y="-45.5" font-family="Helvetica,sans-Serif" font-size="10.00">read_rle</text>
</a>
</g>
</g>
<!-- Node1&#45;&gt;Node2 -->
<g id="edge1" class="edge"><title>Node1&#45;&gt;Node2</title>
<path fill="none" stroke="midnightblue" d="M57.1339,-34.041C76.8609,-37.0883 101.713,-40.9272 120.36,-43.8076"/>
<polygon fill="midnightblue" stroke="midnightblue" points="57.4772,-30.5526 47.0601,-32.4849 56.4085,-37.4706 57.4772,-30.5526"/>
</g>
<!-- Node3 -->
<g id="node3" class="node"><title>Node3</title>
<g id="a_node3"><a xlink:href="../../d6/d10/rletoalias_8c.html#a8ca5b34a00306ee0bd6d0abaa4a6134f" target="_top" xlink:title="rlecmap_to_bitmapcmap">
<polygon fill="white" stroke="black" points="83,-0.5 83,-19.5 214,-19.5 214,-0.5 83,-0.5"/>
<text text-anchor="middle" x="148.5" y="-7.5" font-family="Helvetica,sans-Serif" font-size="10.00">rlecmap_to_bitmapcmap</text>
</a>
</g>
</g>
<!-- Node1&#45;&gt;Node3 -->
<g id="edge2" class="edge"><title>Node1&#45;&gt;Node3</title>
<path fill="none" stroke="midnightblue" d="M56.9748,-23.9836C65.8871,-22.6069 75.8547,-21.0672 85.8283,-19.5265"/>
<polygon fill="midnightblue" stroke="midnightblue" points="56.4085,-20.5294 47.0601,-25.5151 57.4772,-27.4474 56.4085,-20.5294"/>
</g>
</g>
</svg>
