<?xml version="1.0" encoding="UTF-8" standalone="no"?>
<!DOCTYPE svg PUBLIC "-//W3C//DTD SVG 1.1//EN"
 "http://www.w3.org/Graphics/SVG/1.1/DTD/svg11.dtd">
<!-- Generated by graphviz version 2.38.0 (20140413.2041)
 -->
<!-- Title: read_rle Pages: 1 -->
<!--zoomable 465 -->
<svg id="main" version="1.1" xmlns="http://www.w3.org/2000/svg" xmlns:xlink="http://www.w3.org/1999/xlink" xml:space="preserve" onload="init(evt)">
<style type="text/css"><![CDATA[
.edge:hover path { stroke: red; }
.edge:hover polygon { stroke: red; fill: red; }
]]></style>
<script type="text/javascript"><![CDATA[
var edges = document.getElementsByTagName('g');
if (edges && edges.length) {
  for (var i=0;i<edges.length;i++) {
    if (edges[i].id.substr(0,4)=='edge') {
      edges[i].setAttribute('class','edge');
    }
  }
}
]]></script>
        <defs>
                <circle id="rim" cx="0" cy="0" r="7"/>
                <circle id="rim2" cx="0" cy="0" r="3.5"/>
                <g id="zoomPlus">
                        <use xlink:href="#rim" fill="#404040">
                                <set attributeName="fill" to="#808080" begin="zoomplus.mouseover" end="zoomplus.mouseout"/>
                        </use>
                        <path d="M-4,0h8M0,-4v8" fill="none" stroke="white" stroke-width="1.5" pointer-events="none"/>
                </g>
                <g id="zoomMin">
                        <use xlink:href="#rim" fill="#404040">
                                <set attributeName="fill" to="#808080" begin="zoomminus.mouseover" end="zoomminus.mouseout"/>
                        </use>
                        <path d="M-4,0h8" fill="none" stroke="white" stroke-width="1.5" pointer-events="none"/>
                </g>
                <g id="dirArrow">
                        <path fill="none" stroke="white" stroke-width="1.5" d="M0,-3.0v7 M-2.5,-0.5L0,-3.0L2.5,-0.5"/>
                </g>
               <g id="resetDef">
                       <use xlink:href="#rim2" fill="#404040">
                               <set attributeName="fill" to="#808080" begin="reset.mouseover" end="reset.mouseout"/>
                       </use>
               </g>
        </defs>

<script type="text/javascript">
var viewWidth = 662;
var viewHeight = 465;
var sectionId = 'dynsection-7';
</script>
<script xlink:href="../../svgpan.js"/>
<svg id="graph" class="graph">
<g id="viewport">
<title>read_rle</title>
<polygon fill="white" stroke="none" points="-4,4 -4,-461 658,-461 658,4 -4,4"/>
<!-- Node1 -->
<g id="node1" class="node"><title>Node1</title>
<polygon fill="#bfbfbf" stroke="black" points="0,-133.5 0,-152.5 56,-152.5 56,-133.5 0,-133.5"/>
<text text-anchor="middle" x="28" y="-140.5" font-family="Helvetica,sans-Serif" font-size="10.00">read_rle</text>
</g>
<!-- Node2 -->
<g id="node2" class="node"><title>Node2</title>
<g id="a_node2"><a xlink:href="../../db/d53/rle__getrow_8c.html#a2d56ca99b896abbcb4d2f3f97c93a3ce" target="_top" xlink:title="rle_get_setup_ok">
<polygon fill="white" stroke="black" points="108.5,-294.5 108.5,-313.5 206.5,-313.5 206.5,-294.5 108.5,-294.5"/>
<text text-anchor="middle" x="157.5" y="-301.5" font-family="Helvetica,sans-Serif" font-size="10.00">rle_get_setup_ok</text>
</a>
</g>
</g>
<!-- Node1&#45;&gt;Node2 -->
<g id="edge1" class="edge"><title>Node1&#45;&gt;Node2</title>
<path fill="none" stroke="midnightblue" d="M36.5939,-152.589C57.3615,-178.813 115.344,-252.031 142.339,-286.118"/>
<polygon fill="midnightblue" stroke="midnightblue" points="139.833,-288.591 148.785,-294.258 145.32,-284.245 139.833,-288.591"/>
</g>
<!-- Node5 -->
<g id="node5" class="node"><title>Node5</title>
<g id="a_node5"><a xlink:href="../../d0/dcc/rletorla_8c.html#aafde19f7d36ca163a143579c1b125b6d" target="_top" xlink:title="free">
<polygon fill="white" stroke="black" points="613,-247.5 613,-266.5 648,-266.5 648,-247.5 613,-247.5"/>
<text text-anchor="middle" x="630.5" y="-254.5" font-family="Helvetica,sans-Serif" font-size="10.00">free</text>
</a>
</g>
</g>
<!-- Node1&#45;&gt;Node5 -->
<g id="edge28" class="edge"><title>Node1&#45;&gt;Node5</title>
<path fill="none" stroke="midnightblue" d="M56.2992,-152.538C67.2702,-156.027 80.1143,-159.683 92,-162 182.028,-179.553 205.777,-181 297.5,-181 297.5,-181 297.5,-181 415.5,-181 485.125,-181 508.216,-169.904 571,-200 589.671,-208.95 606.075,-226.234 616.723,-239.433"/>
<polygon fill="midnightblue" stroke="midnightblue" points="613.979,-241.605 622.856,-247.388 619.523,-237.332 613.979,-241.605"/>
</g>
<!-- Node12 -->
<g id="node12" class="node"><title>Node12</title>
<g id="a_node12"><a xlink:href="../../d6/d10/rletoalias_8c.html#ac2c29217831f208a3b22bae552c5124f" target="_top" xlink:title="error">
<polygon fill="white" stroke="black" points="137.5,-133.5 137.5,-152.5 177.5,-152.5 177.5,-133.5 137.5,-133.5"/>
<text text-anchor="middle" x="157.5" y="-140.5" font-family="Helvetica,sans-Serif" font-size="10.00">error</text>
</a>
</g>
</g>
<!-- Node1&#45;&gt;Node12 -->
<g id="edge19" class="edge"><title>Node1&#45;&gt;Node12</title>
<path fill="none" stroke="midnightblue" d="M56.0395,-143C76.9257,-143 105.787,-143 127.217,-143"/>
<polygon fill="midnightblue" stroke="midnightblue" points="127.369,-146.5 137.369,-143 127.369,-139.5 127.369,-146.5"/>
</g>
<!-- Node13 -->
<g id="node13" class="node"><title>Node13</title>
<g id="a_node13"><a xlink:href="../../da/dbc/rle__row__alc_8c.html#abf83029f1ab364a8cb72524f58d70a3b" target="_top" xlink:title="rle_row_alloc">
<polygon fill="white" stroke="black" points="491,-437.5 491,-456.5 571,-456.5 571,-437.5 491,-437.5"/>
<text text-anchor="middle" x="531" y="-444.5" font-family="Helvetica,sans-Serif" font-size="10.00">rle_row_alloc</text>
</a>
</g>
</g>
<!-- Node1&#45;&gt;Node13 -->
<g id="edge20" class="edge"><title>Node1&#45;&gt;Node13</title>
<path fill="none" stroke="midnightblue" d="M29.7482,-152.531C32.5224,-181.743 44.6611,-271.176 92,-323 194.389,-435.09 389.74,-448.781 480.888,-448.631"/>
<polygon fill="midnightblue" stroke="midnightblue" points="480.977,-452.131 490.951,-448.557 480.926,-445.131 480.977,-452.131"/>
</g>
<!-- Node14 -->
<g id="node14" class="node"><title>Node14</title>
<g id="a_node14"><a xlink:href="../../d6/d10/rletoalias_8c.html#aebf7c8907c7157b430ee288f22563a9d" target="_top" xlink:title="Malloc">
<polygon fill="white" stroke="black" points="134,-95.5 134,-114.5 181,-114.5 181,-95.5 134,-95.5"/>
<text text-anchor="middle" x="157.5" y="-102.5" font-family="Helvetica,sans-Serif" font-size="10.00">Malloc</text>
</a>
</g>
</g>
<!-- Node1&#45;&gt;Node14 -->
<g id="edge23" class="edge"><title>Node1&#45;&gt;Node14</title>
<path fill="none" stroke="midnightblue" d="M56.2772,-134.732C67.3577,-131.384 80.2856,-127.492 92,-124 102.404,-120.899 113.761,-117.543 124.006,-114.528"/>
<polygon fill="midnightblue" stroke="midnightblue" points="125.197,-117.826 133.803,-111.647 123.222,-111.11 125.197,-117.826"/>
</g>
<!-- Node15 -->
<g id="node15" class="node"><title>Node15</title>
<g id="a_node15"><a xlink:href="../../d6/d10/rletoalias_8c.html#a6b4214641c18c7aadc89b1a466a70257" target="_top" xlink:title="rlecmap_to_bitmapcmap">
<polygon fill="white" stroke="black" points="92,-57.5 92,-76.5 223,-76.5 223,-57.5 92,-57.5"/>
<text text-anchor="middle" x="157.5" y="-64.5" font-family="Helvetica,sans-Serif" font-size="10.00">rlecmap_to_bitmapcmap</text>
</a>
</g>
</g>
<!-- Node1&#45;&gt;Node15 -->
<g id="edge24" class="edge"><title>Node1&#45;&gt;Node15</title>
<path fill="none" stroke="midnightblue" d="M36.9778,-133.499C48.0701,-120.875 69.356,-98.6945 92,-86 95.9442,-83.7888 100.171,-81.8118 104.506,-80.0487"/>
<polygon fill="midnightblue" stroke="midnightblue" points="105.919,-83.2583 114.097,-76.5228 103.504,-76.6881 105.919,-83.2583"/>
</g>
<!-- Node16 -->
<g id="node16" class="node"><title>Node16</title>
<g id="a_node16"><a xlink:href="../../db/d53/rle__getrow_8c.html#a3602e1158189cba5e5b0f9b983cba776" target="_top" xlink:title="rle_getrow">
<polygon fill="white" stroke="black" points="124,-19.5 124,-38.5 191,-38.5 191,-19.5 124,-19.5"/>
<text text-anchor="middle" x="157.5" y="-26.5" font-family="Helvetica,sans-Serif" font-size="10.00">rle_getrow</text>
</a>
</g>
</g>
<!-- Node1&#45;&gt;Node16 -->
<g id="edge25" class="edge"><title>Node1&#45;&gt;Node16</title>
<path fill="none" stroke="midnightblue" d="M32.7377,-133.292C40.6497,-114.042 60.9511,-70.9176 92,-48 98.6105,-43.1207 106.462,-39.4882 114.371,-36.7857"/>
<polygon fill="midnightblue" stroke="midnightblue" points="115.383,-40.1364 123.969,-33.9292 113.386,-33.4272 115.383,-40.1364"/>
</g>
<!-- Node3 -->
<g id="node3" class="node"><title>Node3</title>
<g id="a_node3"><a xlink:href="../../d2/df3/rle__hdr_8c.html#a8ba0e5b11d1e39ab7227f1686e676c86" target="_top" xlink:title="rle_hdr_init">
<polygon fill="white" stroke="black" points="263.5,-370.5 263.5,-389.5 333.5,-389.5 333.5,-370.5 263.5,-370.5"/>
<text text-anchor="middle" x="298.5" y="-377.5" font-family="Helvetica,sans-Serif" font-size="10.00">rle_hdr_init</text>
</a>
</g>
</g>
<!-- Node2&#45;&gt;Node3 -->
<g id="edge2" class="edge"><title>Node2&#45;&gt;Node3</title>
<path fill="none" stroke="midnightblue" d="M176.104,-313.625C200.126,-326.76 243.365,-350.401 271.229,-365.636"/>
<polygon fill="midnightblue" stroke="midnightblue" points="269.585,-368.726 280.038,-370.453 272.943,-362.584 269.585,-368.726"/>
</g>
<!-- Node8 -->
<g id="node8" class="node"><title>Node8</title>
<g id="a_node8"><a xlink:href="../../d2/df3/rle__hdr_8c.html#a82e79385f2d45cc3b80ce0f4f369eae5" target="_top" xlink:title="rle_names">
<polygon fill="white" stroke="black" points="498,-361.5 498,-380.5 564,-380.5 564,-361.5 498,-361.5"/>
<text text-anchor="middle" x="531" y="-368.5" font-family="Helvetica,sans-Serif" font-size="10.00">rle_names</text>
</a>
</g>
</g>
<!-- Node2&#45;&gt;Node8 -->
<g id="edge11" class="edge"><title>Node2&#45;&gt;Node8</title>
<path fill="none" stroke="midnightblue" d="M206.532,-313.197C223.143,-316.347 241.883,-319.866 259,-323 339.854,-337.803 434.419,-354.387 487.755,-363.673"/>
<polygon fill="midnightblue" stroke="midnightblue" points="487.405,-367.165 497.857,-365.43 488.604,-360.268 487.405,-367.165"/>
</g>
<!-- Node9 -->
<g id="node9" class="node"><title>Node9</title>
<g id="a_node9"><a xlink:href="../../d7/d24/rle__error_8c.html#af931d686cf3ca715c9b900527f0961c0" target="_top" xlink:title="rle_get_error">
<polygon fill="white" stroke="black" points="259,-294.5 259,-313.5 338,-313.5 338,-294.5 259,-294.5"/>
<text text-anchor="middle" x="298.5" y="-301.5" font-family="Helvetica,sans-Serif" font-size="10.00">rle_get_error</text>
</a>
</g>
</g>
<!-- Node2&#45;&gt;Node9 -->
<g id="edge12" class="edge"><title>Node2&#45;&gt;Node9</title>
<path fill="none" stroke="midnightblue" d="M206.725,-304C220.347,-304 235.175,-304 248.823,-304"/>
<polygon fill="midnightblue" stroke="midnightblue" points="248.99,-307.5 258.99,-304 248.99,-300.5 248.99,-307.5"/>
</g>
<!-- Node10 -->
<g id="node10" class="node"><title>Node10</title>
<g id="a_node10"><a xlink:href="../../db/d53/rle__getrow_8c.html#a619b27463c26e0a4a3d9648a9869ee52" target="_top" xlink:title="rle_get_setup">
<polygon fill="white" stroke="black" points="374,-275.5 374,-294.5 455,-294.5 455,-275.5 374,-275.5"/>
<text text-anchor="middle" x="414.5" y="-282.5" font-family="Helvetica,sans-Serif" font-size="10.00">rle_get_setup</text>
</a>
</g>
</g>
<!-- Node2&#45;&gt;Node10 -->
<g id="edge13" class="edge"><title>Node2&#45;&gt;Node10</title>
<path fill="none" stroke="midnightblue" d="M199.327,-294.489C217.487,-290.724 239.199,-286.855 259,-285 293.759,-281.743 333.11,-281.798 363.399,-282.639"/>
<polygon fill="midnightblue" stroke="midnightblue" points="363.607,-286.147 373.712,-282.965 363.828,-279.151 363.607,-286.147"/>
</g>
<!-- Node4 -->
<g id="node4" class="node"><title>Node4</title>
<g id="a_node4"><a xlink:href="../../d2/df3/rle__hdr_8c.html#a16c4da6201b3b8cf55127b9ca968d253" target="_top" xlink:title="rle_hdr_clear">
<polygon fill="white" stroke="black" points="491,-209.5 491,-228.5 571,-228.5 571,-209.5 491,-209.5"/>
<text text-anchor="middle" x="531" y="-216.5" font-family="Helvetica,sans-Serif" font-size="10.00">rle_hdr_clear</text>
</a>
</g>
</g>
<!-- Node3&#45;&gt;Node4 -->
<g id="edge3" class="edge"><title>Node3&#45;&gt;Node4</title>
<path fill="none" stroke="midnightblue" d="M306.131,-370.378C313.876,-359.095 327.028,-339.796 338,-323 354.387,-297.916 350.148,-284.135 374,-266 405.119,-242.34 448.104,-230.528 481.073,-224.668"/>
<polygon fill="midnightblue" stroke="midnightblue" points="481.664,-228.117 490.959,-223.033 480.522,-221.211 481.664,-228.117"/>
</g>
<!-- Node6 -->
<g id="node6" class="node"><title>Node6</title>
<g id="a_node6"><a xlink:href="../../d2/df3/rle__hdr_8c.html#afc916e29aea8788e0878ca315ff69821" target="_top" xlink:title="rle_hdr_cp">
<polygon fill="white" stroke="black" points="380.5,-370.5 380.5,-389.5 448.5,-389.5 448.5,-370.5 380.5,-370.5"/>
<text text-anchor="middle" x="414.5" y="-377.5" font-family="Helvetica,sans-Serif" font-size="10.00">rle_hdr_cp</text>
</a>
</g>
</g>
<!-- Node3&#45;&gt;Node6 -->
<g id="edge5" class="edge"><title>Node3&#45;&gt;Node6</title>
<path fill="none" stroke="midnightblue" d="M333.704,-373.755C345.168,-373.22 358.105,-373.11 370.173,-373.426"/>
<polygon fill="midnightblue" stroke="midnightblue" points="370.371,-376.935 380.495,-373.812 370.633,-369.94 370.371,-376.935"/>
</g>
<!-- Node4&#45;&gt;Node5 -->
<g id="edge4" class="edge"><title>Node4&#45;&gt;Node5</title>
<path fill="none" stroke="midnightblue" d="M556.603,-228.589C570.904,-234.163 588.914,-241.182 603.454,-246.849"/>
<polygon fill="midnightblue" stroke="midnightblue" points="602.289,-250.151 612.878,-250.522 604.831,-243.629 602.289,-250.151"/>
</g>
<!-- Node6&#45;&gt;Node3 -->
<g id="edge6" class="edge"><title>Node6&#45;&gt;Node3</title>
<path fill="none" stroke="midnightblue" d="M380.495,-386.188C369.023,-386.758 355.963,-386.895 343.731,-386.597"/>
<polygon fill="midnightblue" stroke="midnightblue" points="343.82,-383.098 333.704,-386.245 343.575,-390.094 343.82,-383.098"/>
</g>
<!-- Node7 -->
<g id="node7" class="node"><title>Node7</title>
<g id="a_node7"><a xlink:href="../../d0/dcc/rletorla_8c.html#ab7e36af3707843f77cc5b4e831c2fa6d" target="_top" xlink:title="malloc">
<polygon fill="white" stroke="black" points="607,-380.5 607,-399.5 654,-399.5 654,-380.5 607,-380.5"/>
<text text-anchor="middle" x="630.5" y="-387.5" font-family="Helvetica,sans-Serif" font-size="10.00">malloc</text>
</a>
</g>
</g>
<!-- Node6&#45;&gt;Node7 -->
<g id="edge7" class="edge"><title>Node6&#45;&gt;Node7</title>
<path fill="none" stroke="midnightblue" d="M448.856,-385.38C461.956,-387.24 477.147,-389.087 491,-390 527.168,-392.385 568.764,-391.961 596.855,-391.209"/>
<polygon fill="midnightblue" stroke="midnightblue" points="597.028,-394.706 606.92,-390.911 596.821,-387.709 597.028,-394.706"/>
</g>
<!-- Node6&#45;&gt;Node8 -->
<g id="edge8" class="edge"><title>Node6&#45;&gt;Node8</title>
<path fill="none" stroke="midnightblue" d="M448.618,-377.397C460.813,-376.438 474.796,-375.339 487.692,-374.326"/>
<polygon fill="midnightblue" stroke="midnightblue" points="488.051,-377.808 497.746,-373.535 487.502,-370.83 488.051,-377.808"/>
</g>
<!-- Node8&#45;&gt;Node5 -->
<g id="edge9" class="edge"><title>Node8&#45;&gt;Node5</title>
<path fill="none" stroke="midnightblue" d="M540.313,-361.28C556.79,-342.014 593.796,-298.746 614.59,-274.434"/>
<polygon fill="midnightblue" stroke="midnightblue" points="617.368,-276.57 621.208,-266.695 612.049,-272.02 617.368,-276.57"/>
</g>
<!-- Node8&#45;&gt;Node7 -->
<g id="edge10" class="edge"><title>Node8&#45;&gt;Node7</title>
<path fill="none" stroke="midnightblue" d="M564.195,-377.274C574.679,-379.317 586.321,-381.586 596.838,-383.635"/>
<polygon fill="midnightblue" stroke="midnightblue" points="596.411,-387.118 606.896,-385.595 597.75,-380.247 596.411,-387.118"/>
</g>
<!-- Node10&#45;&gt;Node4 -->
<g id="edge14" class="edge"><title>Node10&#45;&gt;Node4</title>
<path fill="none" stroke="midnightblue" d="M432.395,-275.261C451.446,-264.28 482.627,-246.307 504.611,-233.634"/>
<polygon fill="midnightblue" stroke="midnightblue" points="506.492,-236.59 513.408,-228.564 502.996,-230.526 506.492,-236.59"/>
</g>
<!-- Node10&#45;&gt;Node5 -->
<g id="edge17" class="edge"><title>Node10&#45;&gt;Node5</title>
<path fill="none" stroke="midnightblue" d="M455,-279.832C497.979,-274.208 565.514,-265.372 602.706,-260.506"/>
<polygon fill="midnightblue" stroke="midnightblue" points="603.319,-263.955 612.781,-259.188 602.411,-257.015 603.319,-263.955"/>
</g>
<!-- Node10&#45;&gt;Node7 -->
<g id="edge16" class="edge"><title>Node10&#45;&gt;Node7</title>
<path fill="none" stroke="midnightblue" d="M441.163,-294.514C472.508,-306.482 526.812,-328.348 571,-352 583.513,-358.697 596.828,-367.226 607.59,-374.506"/>
<polygon fill="midnightblue" stroke="midnightblue" points="605.732,-377.476 615.955,-380.26 609.699,-371.709 605.732,-377.476"/>
</g>
<!-- Node10&#45;&gt;Node8 -->
<g id="edge15" class="edge"><title>Node10&#45;&gt;Node8</title>
<path fill="none" stroke="midnightblue" d="M426.381,-294.733C440.729,-307.379 466.974,-329.862 491,-347 495.339,-350.095 500.079,-353.214 504.713,-356.133"/>
<polygon fill="midnightblue" stroke="midnightblue" points="503.007,-359.193 513.361,-361.441 506.669,-353.227 503.007,-359.193"/>
</g>
<!-- Node11 -->
<g id="node11" class="node"><title>Node11</title>
<g id="a_node11"><a xlink:href="../../db/d53/rle__getrow_8c.html#a0ea68aa2ebeef9d4cade7282553b03d6" target="_top" xlink:title="vax_gshort">
<polygon fill="white" stroke="black" points="496.5,-285.5 496.5,-304.5 565.5,-304.5 565.5,-285.5 496.5,-285.5"/>
<text text-anchor="middle" x="531" y="-292.5" font-family="Helvetica,sans-Serif" font-size="10.00">vax_gshort</text>
</a>
</g>
</g>
<!-- Node10&#45;&gt;Node11 -->
<g id="edge18" class="edge"><title>Node10&#45;&gt;Node11</title>
<path fill="none" stroke="midnightblue" d="M455.225,-288.469C465.301,-289.349 476.179,-290.299 486.434,-291.195"/>
<polygon fill="midnightblue" stroke="midnightblue" points="486.163,-294.685 496.43,-292.068 486.772,-287.711 486.163,-294.685"/>
</g>
<!-- Node13&#45;&gt;Node5 -->
<g id="edge22" class="edge"><title>Node13&#45;&gt;Node5</title>
<path fill="none" stroke="midnightblue" d="M539.487,-437.27C547.804,-426.2 561.332,-407.398 571,-390 592.646,-351.048 612.275,-302.52 622.363,-276.182"/>
<polygon fill="midnightblue" stroke="midnightblue" points="625.707,-277.234 625.97,-266.642 619.16,-274.758 625.707,-277.234"/>
</g>
<!-- Node13&#45;&gt;Node7 -->
<g id="edge21" class="edge"><title>Node13&#45;&gt;Node7</title>
<path fill="none" stroke="midnightblue" d="M548.54,-437.331C563.759,-428.433 586.559,-415.104 604.09,-404.855"/>
<polygon fill="midnightblue" stroke="midnightblue" points="606.338,-407.595 613.205,-399.526 602.805,-401.552 606.338,-407.595"/>
</g>
<!-- Node17 -->
<g id="node17" class="node"><title>Node17</title>
<g id="a_node17"><a xlink:href="../../db/d53/rle__getrow_8c.html#a61ac0da96b0dd8bc3cbc98afcd9b5c44" target="_top" xlink:title="bfill">
<polygon fill="white" stroke="black" points="282.5,-38.5 282.5,-57.5 314.5,-57.5 314.5,-38.5 282.5,-38.5"/>
<text text-anchor="middle" x="298.5" y="-45.5" font-family="Helvetica,sans-Serif" font-size="10.00">bfill</text>
</a>
</g>
</g>
<!-- Node16&#45;&gt;Node17 -->
<g id="edge26" class="edge"><title>Node16&#45;&gt;Node17</title>
<path fill="none" stroke="midnightblue" d="M191.089,-33.4547C215.889,-36.8445 249.521,-41.4417 272.287,-44.5536"/>
<polygon fill="midnightblue" stroke="midnightblue" points="271.825,-48.023 282.207,-45.9096 272.773,-41.0875 271.825,-48.023"/>
</g>
<!-- Node18 -->
<g id="node18" class="node"><title>Node18</title>
<g id="a_node18"><a xlink:href="../../d8/d7c/rle__getskip_8c.html#af6b1e1dc0867e9340f90668591c7c5b3" target="_top" xlink:title="rle_getskip">
<polygon fill="white" stroke="black" points="264.5,-0.5 264.5,-19.5 332.5,-19.5 332.5,-0.5 264.5,-0.5"/>
<text text-anchor="middle" x="298.5" y="-7.5" font-family="Helvetica,sans-Serif" font-size="10.00">rle_getskip</text>
</a>
</g>
</g>
<!-- Node16&#45;&gt;Node18 -->
<g id="edge27" class="edge"><title>Node16&#45;&gt;Node18</title>
<path fill="none" stroke="midnightblue" d="M191.089,-24.5453C209.898,-21.9744 233.788,-18.7089 254.164,-15.9236"/>
<polygon fill="midnightblue" stroke="midnightblue" points="254.716,-19.3809 264.149,-14.5587 253.768,-12.4454 254.716,-19.3809"/>
</g>
</g>
</svg>
        <g id="navigator" transform="translate(0 0)" fill="#404254">
                <rect fill="#f2f5e9" fill-opacity="0.5" stroke="#606060" stroke-width=".5" x="0" y="0" width="60" height="60"/>
                <use id="zoomplus" xlink:href="#zoomPlus" x="17" y="9" onmousedown="handleZoom(evt,'in')"/>
                <use id="zoomminus" xlink:href="#zoomMin" x="42" y="9" onmousedown="handleZoom(evt,'out')"/>
                <use id="reset" xlink:href="#resetDef" x="30" y="36" onmousedown="handleReset()"/>
                <g id="arrowUp" xlink:href="#dirArrow" transform="translate(30 24)" onmousedown="handlePan(0,-1)">
                  <use xlink:href="#rim" fill="#404040">
                        <set attributeName="fill" to="#808080" begin="arrowUp.mouseover" end="arrowUp.mouseout"/>
                  </use>
                  <path fill="none" stroke="white" stroke-width="1.5" d="M0,-3.0v7 M-2.5,-0.5L0,-3.0L2.5,-0.5"/>
                </g>
                <g id="arrowRight" xlink:href="#dirArrow" transform="rotate(90) translate(36 -43)" onmousedown="handlePan(1,0)">
                  <use xlink:href="#rim" fill="#404040">
                        <set attributeName="fill" to="#808080" begin="arrowRight.mouseover" end="arrowRight.mouseout"/>
                  </use>
                  <path fill="none" stroke="white" stroke-width="1.5" d="M0,-3.0v7 M-2.5,-0.5L0,-3.0L2.5,-0.5"/>
                </g>
                <g id="arrowDown" xlink:href="#dirArrow" transform="rotate(180) translate(-30 -48)" onmousedown="handlePan(0,1)">
                  <use xlink:href="#rim" fill="#404040">
                        <set attributeName="fill" to="#808080" begin="arrowDown.mouseover" end="arrowDown.mouseout"/>
                  </use>
                  <path fill="none" stroke="white" stroke-width="1.5" d="M0,-3.0v7 M-2.5,-0.5L0,-3.0L2.5,-0.5"/>
                </g>
                <g id="arrowLeft" xlink:href="#dirArrow" transform="rotate(270) translate(-36 17)" onmousedown="handlePan(-1,0)">
                  <use xlink:href="#rim" fill="#404040">
                        <set attributeName="fill" to="#808080" begin="arrowLeft.mouseover" end="arrowLeft.mouseout"/>
                  </use>
                  <path fill="none" stroke="white" stroke-width="1.5" d="M0,-3.0v7 M-2.5,-0.5L0,-3.0L2.5,-0.5"/>
                </g>
        </g>
        <svg viewBox="0 0 15 15" width="100%" height="30px" preserveAspectRatio="xMaxYMin meet">
         <g id="arrow_out" transform="scale(0.3 0.3)">
          <a xlink:href="rletoalias_8c_a86cf5e03c7b351c5a62a6951d179f6a5_cgraph_org.svg" target="_base">
           <rect id="button" ry="5" rx="5" y="6" x="6" height="38" width="38"
                fill="#f2f5e9" fill-opacity="0.5" stroke="#606060" stroke-width="1.0"/>
           <path id="arrow"
             d="M 11.500037,31.436501 C 11.940474,20.09759 22.043105,11.32322 32.158766,21.979434 L 37.068811,17.246167 C 37.068811,17.246167 37.088388,32 37.088388,32 L 22.160133,31.978069 C 22.160133,31.978069 26.997745,27.140456 26.997745,27.140456 C 18.528582,18.264221 13.291696,25.230495 11.500037,31.436501 z"
             style="fill:#404040;"/>
          </a>
         </g>
        </svg>
</svg>
