<?xml version="1.0" encoding="UTF-8" standalone="no"?>
<!DOCTYPE svg PUBLIC "-//W3C//DTD SVG 1.1//EN"
 "http://www.w3.org/Graphics/SVG/1.1/DTD/svg11.dtd">
<!-- Generated by graphviz version 2.38.0 (20140413.2041)
 -->
<!-- Title: write_rle_data Pages: 1 -->
<svg width="298pt" height="218pt"
 viewBox="0.00 0.00 298.00 218.00" xmlns="http://www.w3.org/2000/svg" xmlns:xlink="http://www.w3.org/1999/xlink">
<g id="graph0" class="graph" transform="scale(1 1) rotate(0) translate(4 214)">
<title>write_rle_data</title>
<polygon fill="white" stroke="none" points="-4,4 -4,-214 294,-214 294,4 -4,4"/>
<!-- Node1 -->
<g id="node1" class="node"><title>Node1</title>
<polygon fill="#bfbfbf" stroke="black" points="0,-95.5 0,-114.5 84,-114.5 84,-95.5 0,-95.5"/>
<text text-anchor="middle" x="42" y="-102.5" font-family="Helvetica,sans-Serif" font-size="10.00">write_rle_data</text>
</g>
<!-- Node2 -->
<g id="node2" class="node"><title>Node2</title>
<g id="a_node2"><a xlink:href="../../d0/dcc/rletorla_8c.html#ab7e36af3707843f77cc5b4e831c2fa6d" target="_top" xlink:title="malloc">
<polygon fill="white" stroke="black" points="239.5,-152.5 239.5,-171.5 286.5,-171.5 286.5,-152.5 239.5,-152.5"/>
<text text-anchor="middle" x="263" y="-159.5" font-family="Helvetica,sans-Serif" font-size="10.00">malloc</text>
</a>
</g>
</g>
<!-- Node1&#45;&gt;Node2 -->
<g id="edge1" class="edge"><title>Node1&#45;&gt;Node2</title>
<path fill="none" stroke="midnightblue" d="M58.5952,-114.593C73.7231,-123.432 97.6115,-136.179 120,-143 156.448,-154.104 200.121,-158.722 229.322,-160.641"/>
<polygon fill="midnightblue" stroke="midnightblue" points="229.197,-164.139 239.386,-161.233 229.608,-157.152 229.197,-164.139"/>
</g>
<!-- Node3 -->
<g id="node3" class="node"><title>Node3</title>
<g id="a_node3"><a xlink:href="../../da/dbc/rle__row__alc_8c.html#abf83029f1ab364a8cb72524f58d70a3b" target="_top" xlink:title="rle_row_alloc">
<polygon fill="white" stroke="black" points="120,-114.5 120,-133.5 200,-133.5 200,-114.5 120,-114.5"/>
<text text-anchor="middle" x="160" y="-121.5" font-family="Helvetica,sans-Serif" font-size="10.00">rle_row_alloc</text>
</a>
</g>
</g>
<!-- Node1&#45;&gt;Node3 -->
<g id="edge2" class="edge"><title>Node1&#45;&gt;Node3</title>
<path fill="none" stroke="midnightblue" d="M84.2239,-111.752C92.5552,-113.117 101.392,-114.564 109.961,-115.968"/>
<polygon fill="midnightblue" stroke="midnightblue" points="109.417,-119.425 119.852,-117.588 110.549,-112.517 109.417,-119.425"/>
</g>
<!-- Node4 -->
<g id="node4" class="node"><title>Node4</title>
<g id="a_node4"><a xlink:href="../../d0/dcc/rletorla_8c.html#aafde19f7d36ca163a143579c1b125b6d" target="_top" xlink:title="free">
<polygon fill="white" stroke="black" points="245.5,-57.5 245.5,-76.5 280.5,-76.5 280.5,-57.5 245.5,-57.5"/>
<text text-anchor="middle" x="263" y="-64.5" font-family="Helvetica,sans-Serif" font-size="10.00">free</text>
</a>
</g>
</g>
<!-- Node1&#45;&gt;Node4 -->
<g id="edge10" class="edge"><title>Node1&#45;&gt;Node4</title>
<path fill="none" stroke="midnightblue" d="M84.1922,-97.8525C128.399,-90.1819 197.336,-78.2202 235.072,-71.6725"/>
<polygon fill="midnightblue" stroke="midnightblue" points="236.026,-75.0592 245.281,-69.9011 234.83,-68.1623 236.026,-75.0592"/>
</g>
<!-- Node5 -->
<g id="node5" class="node"><title>Node5</title>
<g id="a_node5"><a xlink:href="../../d9/d2a/rle__putrow_8c.html#aa26532b01bc4f49b7383765cdc23ea72" target="_top" xlink:title="rle_putrow">
<polygon fill="white" stroke="black" points="127,-190.5 127,-209.5 193,-209.5 193,-190.5 127,-190.5"/>
<text text-anchor="middle" x="160" y="-197.5" font-family="Helvetica,sans-Serif" font-size="10.00">rle_putrow</text>
</a>
</g>
</g>
<!-- Node1&#45;&gt;Node5 -->
<g id="edge5" class="edge"><title>Node1&#45;&gt;Node5</title>
<path fill="none" stroke="midnightblue" d="M52.4313,-114.832C66.4411,-129.164 93.9095,-156.237 120,-176 124.064,-179.078 128.539,-182.12 132.964,-184.951"/>
<polygon fill="midnightblue" stroke="midnightblue" points="131.479,-188.147 141.83,-190.409 135.149,-182.186 131.479,-188.147"/>
</g>
<!-- Node7 -->
<g id="node7" class="node"><title>Node7</title>
<g id="a_node7"><a xlink:href="../../da/dbc/rle__row__alc_8c.html#a4fa936a985e542d42e91d272f9f6092d" target="_top" xlink:title="rle_row_free">
<polygon fill="white" stroke="black" points="121.5,-38.5 121.5,-57.5 198.5,-57.5 198.5,-38.5 121.5,-38.5"/>
<text text-anchor="middle" x="160" y="-45.5" font-family="Helvetica,sans-Serif" font-size="10.00">rle_row_free</text>
</a>
</g>
</g>
<!-- Node1&#45;&gt;Node7 -->
<g id="edge8" class="edge"><title>Node1&#45;&gt;Node7</title>
<path fill="none" stroke="midnightblue" d="M62.4158,-95.4595C80.9848,-86.335 109.21,-72.4656 130.361,-62.0726"/>
<polygon fill="midnightblue" stroke="midnightblue" points="132.089,-65.1231 139.521,-57.5716 129.002,-58.8406 132.089,-65.1231"/>
</g>
<!-- Node8 -->
<g id="node8" class="node"><title>Node8</title>
<g id="a_node8"><a xlink:href="../../d9/d2a/rle__putrow_8c.html#af4fab734a5d227ad2ae95840f56fff3b" target="_top" xlink:title="rle_puteof">
<polygon fill="white" stroke="black" points="128,-0.5 128,-19.5 192,-19.5 192,-0.5 128,-0.5"/>
<text text-anchor="middle" x="160" y="-7.5" font-family="Helvetica,sans-Serif" font-size="10.00">rle_puteof</text>
</a>
</g>
</g>
<!-- Node1&#45;&gt;Node8 -->
<g id="edge11" class="edge"><title>Node1&#45;&gt;Node8</title>
<path fill="none" stroke="midnightblue" d="M51.1529,-95.0857C64.3557,-79.4954 91.7938,-48.9711 120,-29 122.228,-27.4223 124.607,-25.9105 127.05,-24.4775"/>
<polygon fill="midnightblue" stroke="midnightblue" points="128.868,-27.4742 136.018,-19.6562 125.553,-21.3086 128.868,-27.4742"/>
</g>
<!-- Node3&#45;&gt;Node2 -->
<g id="edge3" class="edge"><title>Node3&#45;&gt;Node2</title>
<path fill="none" stroke="midnightblue" d="M186.487,-133.589C199.559,-138.507 215.624,-144.552 229.571,-149.799"/>
<polygon fill="midnightblue" stroke="midnightblue" points="228.687,-153.206 239.279,-153.451 231.152,-146.654 228.687,-153.206"/>
</g>
<!-- Node3&#45;&gt;Node4 -->
<g id="edge4" class="edge"><title>Node3&#45;&gt;Node4</title>
<path fill="none" stroke="midnightblue" d="M178.133,-114.331C194.141,-105.297 218.244,-91.6938 236.509,-81.386"/>
<polygon fill="midnightblue" stroke="midnightblue" points="238.466,-84.3006 245.454,-76.3376 235.025,-78.2044 238.466,-84.3006"/>
</g>
<!-- Node5&#45;&gt;Node2 -->
<g id="edge6" class="edge"><title>Node5&#45;&gt;Node2</title>
<path fill="none" stroke="midnightblue" d="M186.487,-190.411C199.559,-185.493 215.624,-179.448 229.571,-174.201"/>
<polygon fill="midnightblue" stroke="midnightblue" points="231.152,-177.346 239.279,-170.549 228.687,-170.794 231.152,-177.346"/>
</g>
<!-- Node6 -->
<g id="node6" class="node"><title>Node6</title>
<g id="a_node6"><a xlink:href="../../d9/d2a/rle__putrow_8c.html#aaa4133bf4a6cbf287444448497631f26" target="_top" xlink:title="findruns">
<polygon fill="white" stroke="black" points="236,-190.5 236,-209.5 290,-209.5 290,-190.5 236,-190.5"/>
<text text-anchor="middle" x="263" y="-197.5" font-family="Helvetica,sans-Serif" font-size="10.00">findruns</text>
</a>
</g>
</g>
<!-- Node5&#45;&gt;Node6 -->
<g id="edge7" class="edge"><title>Node5&#45;&gt;Node6</title>
<path fill="none" stroke="midnightblue" d="M193.235,-200C203.54,-200 215.017,-200 225.598,-200"/>
<polygon fill="midnightblue" stroke="midnightblue" points="225.802,-203.5 235.802,-200 225.802,-196.5 225.802,-203.5"/>
</g>
<!-- Node7&#45;&gt;Node4 -->
<g id="edge9" class="edge"><title>Node7&#45;&gt;Node4</title>
<path fill="none" stroke="midnightblue" d="M198.609,-55.0749C210.849,-57.3776 224.173,-59.884 235.432,-62.0021"/>
<polygon fill="midnightblue" stroke="midnightblue" points="235.017,-65.4853 245.491,-63.8944 236.311,-58.6059 235.017,-65.4853"/>
</g>
<!-- Node8&#45;&gt;Node4 -->
<g id="edge12" class="edge"><title>Node8&#45;&gt;Node4</title>
<path fill="none" stroke="midnightblue" d="M181.835,-19.6908C187.764,-22.5722 194.189,-25.8132 200,-29 212.927,-36.089 226.962,-44.618 238.404,-51.798"/>
<polygon fill="midnightblue" stroke="midnightblue" points="236.633,-54.8193 246.954,-57.2138 240.379,-48.9058 236.633,-54.8193"/>
</g>
</g>
</svg>
