<?xml version="1.0" encoding="UTF-8" standalone="no"?>
<!DOCTYPE svg PUBLIC "-//W3C//DTD SVG 1.1//EN"
 "http://www.w3.org/Graphics/SVG/1.1/DTD/svg11.dtd">
<!-- Generated by graphviz version 2.38.0 (20140413.2041)
 -->
<!-- Title: main Pages: 1 -->
<svg width="547pt" height="503pt"
 viewBox="0.00 0.00 547.00 503.40" xmlns="http://www.w3.org/2000/svg" xmlns:xlink="http://www.w3.org/1999/xlink">
<g id="graph0" class="graph" transform="scale(1 1) rotate(0) translate(4 499.403)">
<title>main</title>
<polygon fill="white" stroke="none" points="-4,4 -4,-499.403 543,-499.403 543,4 -4,4"/>
<!-- Node1 -->
<g id="node1" class="node"><title>Node1</title>
<polygon fill="#bfbfbf" stroke="black" points="0,-323.903 0,-342.903 39,-342.903 39,-323.903 0,-323.903"/>
<text text-anchor="middle" x="19.5" y="-330.903" font-family="Helvetica,sans-Serif" font-size="10.00">main</text>
</g>
<!-- Node2 -->
<g id="node2" class="node"><title>Node2</title>
<g id="a_node2"><a xlink:href="../../d4/db0/scanargs_8c.html#a7ea6d702c0484056c8504d6ce7fede08" target="_top" xlink:title="scanargs">
<polygon fill="white" stroke="black" points="97,-475.903 97,-494.903 157,-494.903 157,-475.903 97,-475.903"/>
<text text-anchor="middle" x="127" y="-482.903" font-family="Helvetica,sans-Serif" font-size="10.00">scanargs</text>
</a>
</g>
</g>
<!-- Node1&#45;&gt;Node2 -->
<g id="edge1" class="edge"><title>Node1&#45;&gt;Node2</title>
<path fill="none" stroke="midnightblue" d="M22.1666,-343.05C26.6454,-366.296 40.9833,-426.093 75,-461.403 78.6821,-465.225 83.093,-468.505 87.7587,-471.3"/>
<polygon fill="midnightblue" stroke="midnightblue" points="86.4375,-474.559 96.9204,-476.096 89.6835,-468.357 86.4375,-474.559"/>
</g>
<!-- Node4 -->
<g id="node4" class="node"><title>Node4</title>
<g id="a_node4"><a xlink:href="../../d2/df3/rle__hdr_8c.html#a8ba0e5b11d1e39ab7227f1686e676c86" target="_top" xlink:title="rle_hdr_init">
<polygon fill="white" stroke="black" points="92,-247.903 92,-266.903 162,-266.903 162,-247.903 92,-247.903"/>
<text text-anchor="middle" x="127" y="-254.903" font-family="Helvetica,sans-Serif" font-size="10.00">rle_hdr_init</text>
</a>
</g>
</g>
<!-- Node1&#45;&gt;Node4 -->
<g id="edge3" class="edge"><title>Node1&#45;&gt;Node4</title>
<path fill="none" stroke="midnightblue" d="M27.5683,-323.637C37.0752,-311.127 55.102,-289.503 75,-276.403 77.9299,-274.474 81.0826,-272.705 84.3318,-271.09"/>
<polygon fill="midnightblue" stroke="midnightblue" points="85.9304,-274.21 93.6396,-266.942 83.0809,-267.816 85.9304,-274.21"/>
</g>
<!-- Node9 -->
<g id="node9" class="node"><title>Node9</title>
<g id="a_node9"><a xlink:href="../../d2/df3/rle__hdr_8c.html#a82e79385f2d45cc3b80ce0f4f369eae5" target="_top" xlink:title="rle_names">
<polygon fill="white" stroke="black" points="353,-247.903 353,-266.903 419,-266.903 419,-247.903 353,-247.903"/>
<text text-anchor="middle" x="386" y="-254.903" font-family="Helvetica,sans-Serif" font-size="10.00">rle_names</text>
</a>
</g>
</g>
<!-- Node1&#45;&gt;Node9 -->
<g id="edge12" class="edge"><title>Node1&#45;&gt;Node9</title>
<path fill="none" stroke="midnightblue" d="M22.6081,-323.889C27.6356,-303.782 42.4214,-257.272 75,-238.403 163.877,-186.926 292.119,-222.573 351.941,-244.191"/>
<polygon fill="midnightblue" stroke="midnightblue" points="351.023,-247.583 361.616,-247.782 353.459,-241.021 351.023,-247.583"/>
</g>
<!-- Node10 -->
<g id="node10" class="node"><title>Node10</title>
<g id="a_node10"><a xlink:href="../../d8/d30/cmd__name_8c.html#a271249070fdd12c176777c77d76f888f" target="_top" xlink:title="cmd_name">
<polygon fill="white" stroke="black" points="93,-361.903 93,-380.903 161,-380.903 161,-361.903 93,-361.903"/>
<text text-anchor="middle" x="127" y="-368.903" font-family="Helvetica,sans-Serif" font-size="10.00">cmd_name</text>
</a>
</g>
</g>
<!-- Node1&#45;&gt;Node10 -->
<g id="edge13" class="edge"><title>Node1&#45;&gt;Node10</title>
<path fill="none" stroke="midnightblue" d="M39.3613,-340.196C53.3329,-345.229 72.8051,-352.243 89.7509,-358.346"/>
<polygon fill="midnightblue" stroke="midnightblue" points="88.7814,-361.717 99.3758,-361.813 91.1535,-355.131 88.7814,-361.717"/>
</g>
<!-- Node11 -->
<g id="node11" class="node"><title>Node11</title>
<g id="a_node11"><a xlink:href="../../de/d4e/rle__open__f_8c.html#a89733a45961817885603ae01210290b7" target="_top" xlink:title="rle_open_f">
<polygon fill="white" stroke="black" points="93,-399.903 93,-418.903 161,-418.903 161,-399.903 93,-399.903"/>
<text text-anchor="middle" x="127" y="-406.903" font-family="Helvetica,sans-Serif" font-size="10.00">rle_open_f</text>
</a>
</g>
</g>
<!-- Node1&#45;&gt;Node11 -->
<g id="edge14" class="edge"><title>Node1&#45;&gt;Node11</title>
<path fill="none" stroke="midnightblue" d="M27.5683,-343.169C37.0752,-355.678 55.102,-377.303 75,-390.403 77.9299,-392.332 81.0826,-394.101 84.3318,-395.716"/>
<polygon fill="midnightblue" stroke="midnightblue" points="83.0809,-398.99 93.6396,-399.864 85.9304,-392.596 83.0809,-398.99"/>
</g>
<!-- Node14 -->
<g id="node14" class="node"><title>Node14</title>
<g id="a_node14"><a xlink:href="../../d7/dac/ppmtorle_8c.html#aa550cb142979c95de761d92b5590b01f" target="_top" xlink:title="read_ppm_header">
<polygon fill="white" stroke="black" points="75,-285.903 75,-304.903 179,-304.903 179,-285.903 75,-285.903"/>
<text text-anchor="middle" x="127" y="-292.903" font-family="Helvetica,sans-Serif" font-size="10.00">read_ppm_header</text>
</a>
</g>
</g>
<!-- Node1&#45;&gt;Node14 -->
<g id="edge19" class="edge"><title>Node1&#45;&gt;Node14</title>
<path fill="none" stroke="midnightblue" d="M39.3613,-326.609C53.3329,-321.577 72.8051,-314.563 89.7509,-308.459"/>
<polygon fill="midnightblue" stroke="midnightblue" points="91.1535,-311.674 99.3758,-304.993 88.7814,-305.089 91.1535,-311.674"/>
</g>
<!-- Node15 -->
<g id="node15" class="node"><title>Node15</title>
<g id="a_node15"><a xlink:href="../../d8/def/rle__addhist_8c.html#a4f9433d6e4e203d0ecea1c7d3837afc3" target="_top" xlink:title="rle_addhist">
<polygon fill="white" stroke="black" points="222.5,-437.903 222.5,-456.903 291.5,-456.903 291.5,-437.903 222.5,-437.903"/>
<text text-anchor="middle" x="257" y="-444.903" font-family="Helvetica,sans-Serif" font-size="10.00">rle_addhist</text>
</a>
</g>
</g>
<!-- Node1&#45;&gt;Node15 -->
<g id="edge20" class="edge"><title>Node1&#45;&gt;Node15</title>
<path fill="none" stroke="midnightblue" d="M22.8484,-342.958C28.2582,-362.723 43.6116,-407.96 75,-428.403 115.831,-454.995 173.154,-456.443 212.28,-453.391"/>
<polygon fill="midnightblue" stroke="midnightblue" points="212.667,-456.871 222.309,-452.48 212.033,-449.9 212.667,-456.871"/>
</g>
<!-- Node20 -->
<g id="node20" class="node"><title>Node20</title>
<g id="a_node20"><a xlink:href="../../d7/dac/ppmtorle_8c.html#a01b94ac6df1d57a85105d5ebeff06d5e" target="_top" xlink:title="write_rle_header">
<polygon fill="white" stroke="black" points="78.5,-323.903 78.5,-342.903 175.5,-342.903 175.5,-323.903 78.5,-323.903"/>
<text text-anchor="middle" x="127" y="-330.903" font-family="Helvetica,sans-Serif" font-size="10.00">write_rle_header</text>
</a>
</g>
</g>
<!-- Node1&#45;&gt;Node20 -->
<g id="edge27" class="edge"><title>Node1&#45;&gt;Node20</title>
<path fill="none" stroke="midnightblue" d="M39.3613,-333.403C47.6256,-333.403 57.8143,-333.403 68.2664,-333.403"/>
<polygon fill="midnightblue" stroke="midnightblue" points="68.314,-336.903 78.3139,-333.403 68.3139,-329.903 68.314,-336.903"/>
</g>
<!-- Node23 -->
<g id="node23" class="node"><title>Node23</title>
<g id="a_node23"><a xlink:href="../../d7/dac/ppmtorle_8c.html#a59dedbceac7b3b0556882c5e2755cbae" target="_top" xlink:title="write_rle_data">
<polygon fill="white" stroke="black" points="215,-133.903 215,-152.903 299,-152.903 299,-133.903 215,-133.903"/>
<text text-anchor="middle" x="257" y="-140.903" font-family="Helvetica,sans-Serif" font-size="10.00">write_rle_data</text>
</a>
</g>
</g>
<!-- Node1&#45;&gt;Node23 -->
<g id="edge30" class="edge"><title>Node1&#45;&gt;Node23</title>
<path fill="none" stroke="midnightblue" d="M21.8665,-323.858C25.7343,-300.316 38.9197,-238.957 75,-205.403 110.689,-172.212 164.927,-156.701 204.727,-149.506"/>
<polygon fill="midnightblue" stroke="midnightblue" points="205.493,-152.927 214.771,-147.81 204.327,-146.024 205.493,-152.927"/>
</g>
<!-- Node3 -->
<g id="node3" class="node"><title>Node3</title>
<g id="a_node3"><a xlink:href="../../d4/db0/scanargs_8c.html#a862219039664df6eb3cfced58addf830" target="_top" xlink:title="_do_scanargs">
<polygon fill="white" stroke="black" points="215,-475.903 215,-494.903 299,-494.903 299,-475.903 215,-475.903"/>
<text text-anchor="middle" x="257" y="-482.903" font-family="Helvetica,sans-Serif" font-size="10.00">_do_scanargs</text>
</a>
</g>
</g>
<!-- Node2&#45;&gt;Node3 -->
<g id="edge2" class="edge"><title>Node2&#45;&gt;Node3</title>
<path fill="none" stroke="midnightblue" d="M157.045,-485.403C171.083,-485.403 188.357,-485.403 204.521,-485.403"/>
<polygon fill="midnightblue" stroke="midnightblue" points="204.939,-488.903 214.939,-485.403 204.939,-481.903 204.939,-488.903"/>
</g>
<!-- Node5 -->
<g id="node5" class="node"><title>Node5</title>
<g id="a_node5"><a xlink:href="../../d2/df3/rle__hdr_8c.html#a16c4da6201b3b8cf55127b9ca968d253" target="_top" xlink:title="rle_hdr_clear">
<polygon fill="white" stroke="black" points="217,-38.9029 217,-57.9029 297,-57.9029 297,-38.9029 217,-38.9029"/>
<text text-anchor="middle" x="257" y="-45.9029" font-family="Helvetica,sans-Serif" font-size="10.00">rle_hdr_clear</text>
</a>
</g>
</g>
<!-- Node4&#45;&gt;Node5 -->
<g id="edge4" class="edge"><title>Node4&#45;&gt;Node5</title>
<path fill="none" stroke="midnightblue" d="M133.833,-247.879C153.657,-215.51 218.663,-109.368 244.885,-66.551"/>
<polygon fill="midnightblue" stroke="midnightblue" points="247.895,-68.3379 250.133,-57.9822 241.926,-64.682 247.895,-68.3379"/>
</g>
<!-- Node7 -->
<g id="node7" class="node"><title>Node7</title>
<g id="a_node7"><a xlink:href="../../d2/df3/rle__hdr_8c.html#afc916e29aea8788e0878ca315ff69821" target="_top" xlink:title="rle_hdr_cp">
<polygon fill="white" stroke="black" points="223,-247.903 223,-266.903 291,-266.903 291,-247.903 223,-247.903"/>
<text text-anchor="middle" x="257" y="-254.903" font-family="Helvetica,sans-Serif" font-size="10.00">rle_hdr_cp</text>
</a>
</g>
</g>
<!-- Node4&#45;&gt;Node7 -->
<g id="edge6" class="edge"><title>Node4&#45;&gt;Node7</title>
<path fill="none" stroke="midnightblue" d="M162.302,-251.345C177.731,-250.571 196.12,-250.446 212.504,-250.971"/>
<polygon fill="midnightblue" stroke="midnightblue" points="212.792,-254.486 222.93,-251.409 213.086,-247.492 212.792,-254.486"/>
</g>
<!-- Node6 -->
<g id="node6" class="node"><title>Node6</title>
<g id="a_node6"><a xlink:href="../../d0/dcc/rletorla_8c.html#aafde19f7d36ca163a143579c1b125b6d" target="_top" xlink:title="free">
<polygon fill="white" stroke="black" points="488.5,-95.9029 488.5,-114.903 523.5,-114.903 523.5,-95.9029 488.5,-95.9029"/>
<text text-anchor="middle" x="506" y="-102.903" font-family="Helvetica,sans-Serif" font-size="10.00">free</text>
</a>
</g>
</g>
<!-- Node5&#45;&gt;Node6 -->
<g id="edge5" class="edge"><title>Node5&#45;&gt;Node6</title>
<path fill="none" stroke="midnightblue" d="M273.271,-38.7191C305.343,-19.7182 381.337,18.2071 437,-10.4029 467.974,-26.3233 487.989,-63.6242 497.812,-86.4632"/>
<polygon fill="midnightblue" stroke="midnightblue" points="494.603,-87.8639 501.61,-95.8104 501.088,-85.2284 494.603,-87.8639"/>
</g>
<!-- Node7&#45;&gt;Node4 -->
<g id="edge7" class="edge"><title>Node7&#45;&gt;Node4</title>
<path fill="none" stroke="midnightblue" d="M222.93,-263.397C207.517,-264.214 188.953,-264.369 172.344,-263.862"/>
<polygon fill="midnightblue" stroke="midnightblue" points="172.433,-260.362 162.302,-263.46 172.154,-267.357 172.433,-260.362"/>
</g>
<!-- Node8 -->
<g id="node8" class="node"><title>Node8</title>
<g id="a_node8"><a xlink:href="../../d0/dcc/rletorla_8c.html#ab7e36af3707843f77cc5b4e831c2fa6d" target="_top" xlink:title="malloc">
<polygon fill="white" stroke="black" points="482.5,-266.903 482.5,-285.903 529.5,-285.903 529.5,-266.903 482.5,-266.903"/>
<text text-anchor="middle" x="506" y="-273.903" font-family="Helvetica,sans-Serif" font-size="10.00">malloc</text>
</a>
</g>
</g>
<!-- Node7&#45;&gt;Node8 -->
<g id="edge8" class="edge"><title>Node7&#45;&gt;Node8</title>
<path fill="none" stroke="midnightblue" d="M289.15,-266.909C303.04,-270.673 319.691,-274.542 335,-276.403 382.322,-282.155 437.604,-280.649 471.962,-278.753"/>
<polygon fill="midnightblue" stroke="midnightblue" points="472.573,-282.223 482.346,-278.133 472.155,-275.236 472.573,-282.223"/>
</g>
<!-- Node7&#45;&gt;Node9 -->
<g id="edge9" class="edge"><title>Node7&#45;&gt;Node9</title>
<path fill="none" stroke="midnightblue" d="M291.036,-257.403C306.739,-257.403 325.699,-257.403 342.463,-257.403"/>
<polygon fill="midnightblue" stroke="midnightblue" points="342.569,-260.903 352.569,-257.403 342.569,-253.903 342.569,-260.903"/>
</g>
<!-- Node9&#45;&gt;Node6 -->
<g id="edge10" class="edge"><title>Node9&#45;&gt;Node6</title>
<path fill="none" stroke="midnightblue" d="M396.159,-247.569C406.427,-236.406 423.419,-217.522 437,-200.403 457.583,-174.458 479.573,-142.962 492.801,-123.551"/>
<polygon fill="midnightblue" stroke="midnightblue" points="495.836,-125.312 498.547,-115.07 490.041,-121.386 495.836,-125.312"/>
</g>
<!-- Node9&#45;&gt;Node8 -->
<g id="edge11" class="edge"><title>Node9&#45;&gt;Node8</title>
<path fill="none" stroke="midnightblue" d="M419.244,-262.595C435.589,-265.227 455.41,-268.418 471.877,-271.069"/>
<polygon fill="midnightblue" stroke="midnightblue" points="471.714,-274.588 482.144,-272.723 472.827,-267.677 471.714,-274.588"/>
</g>
<!-- Node12 -->
<g id="node12" class="node"><title>Node12</title>
<g id="a_node12"><a xlink:href="../../de/d4e/rle__open__f_8c.html#a5a0e62a00f907fce26e93b2f72adb2b0" target="_top" xlink:title="rle_open_f_noexit">
<polygon fill="white" stroke="black" points="335,-361.903 335,-380.903 437,-380.903 437,-361.903 335,-361.903"/>
<text text-anchor="middle" x="386" y="-368.903" font-family="Helvetica,sans-Serif" font-size="10.00">rle_open_f_noexit</text>
</a>
</g>
</g>
<!-- Node11&#45;&gt;Node12 -->
<g id="edge15" class="edge"><title>Node11&#45;&gt;Node12</title>
<path fill="none" stroke="midnightblue" d="M161.072,-404.513C202.378,-398.405 273.823,-387.841 324.908,-380.288"/>
<polygon fill="midnightblue" stroke="midnightblue" points="325.458,-383.745 334.839,-378.82 324.434,-376.82 325.458,-383.745"/>
</g>
<!-- Node12&#45;&gt;Node6 -->
<g id="edge18" class="edge"><title>Node12&#45;&gt;Node6</title>
<path fill="none" stroke="midnightblue" d="M425.249,-361.762C429.693,-359.314 433.779,-356.246 437,-352.403 492.201,-286.526 443.577,-243.157 473,-162.403 477.988,-148.713 486.022,-134.417 492.792,-123.567"/>
<polygon fill="midnightblue" stroke="midnightblue" points="495.825,-125.321 498.307,-115.021 489.944,-121.525 495.825,-125.321"/>
</g>
<!-- Node12&#45;&gt;Node8 -->
<g id="edge17" class="edge"><title>Node12&#45;&gt;Node8</title>
<path fill="none" stroke="midnightblue" d="M419.082,-361.826C425.3,-359.261 431.566,-356.137 437,-352.403 460.024,-336.583 480.498,-311.394 492.819,-294.394"/>
<polygon fill="midnightblue" stroke="midnightblue" points="495.9,-296.097 498.79,-285.904 490.175,-292.07 495.9,-296.097"/>
</g>
<!-- Node13 -->
<g id="node13" class="node"><title>Node13</title>
<g id="a_node13"><a xlink:href="../../de/d4e/rle__open__f_8c.html#a84fda810ae9b9bde82a6391d0b264ead" target="_top" xlink:title="my_popen">
<polygon fill="white" stroke="black" points="473,-361.903 473,-380.903 539,-380.903 539,-361.903 473,-361.903"/>
<text text-anchor="middle" x="506" y="-368.903" font-family="Helvetica,sans-Serif" font-size="10.00">my_popen</text>
</a>
</g>
</g>
<!-- Node12&#45;&gt;Node13 -->
<g id="edge16" class="edge"><title>Node12&#45;&gt;Node13</title>
<path fill="none" stroke="midnightblue" d="M437.043,-371.403C445.523,-371.403 454.255,-371.403 462.518,-371.403"/>
<polygon fill="midnightblue" stroke="midnightblue" points="462.678,-374.903 472.678,-371.403 462.678,-367.903 462.678,-374.903"/>
</g>
<!-- Node15&#45;&gt;Node8 -->
<g id="edge23" class="edge"><title>Node15&#45;&gt;Node8</title>
<path fill="none" stroke="midnightblue" d="M291.71,-438.067C340.276,-424.407 425.406,-399.6 437,-390.403 468.753,-365.214 488.972,-320.829 498.517,-295.512"/>
<polygon fill="midnightblue" stroke="midnightblue" points="501.869,-296.536 501.958,-285.942 495.281,-294.168 501.869,-296.536"/>
</g>
<!-- Node16 -->
<g id="node16" class="node"><title>Node16</title>
<g id="a_node16"><a xlink:href="../../db/db2/rle__getcom_8c.html#a9cefd612c381bf82c9cdf1f3a3b12dd6" target="_top" xlink:title="rle_getcom">
<polygon fill="white" stroke="black" points="351.5,-475.903 351.5,-494.903 420.5,-494.903 420.5,-475.903 351.5,-475.903"/>
<text text-anchor="middle" x="386" y="-482.903" font-family="Helvetica,sans-Serif" font-size="10.00">rle_getcom</text>
</a>
</g>
</g>
<!-- Node15&#45;&gt;Node16 -->
<g id="edge21" class="edge"><title>Node15&#45;&gt;Node16</title>
<path fill="none" stroke="midnightblue" d="M290.047,-456.992C306.141,-461.807 325.841,-467.702 343.117,-472.871"/>
<polygon fill="midnightblue" stroke="midnightblue" points="342.379,-476.303 352.963,-475.817 344.386,-469.597 342.379,-476.303"/>
</g>
<!-- Node18 -->
<g id="node18" class="node"><title>Node18</title>
<g id="a_node18"><a xlink:href="../../df/da5/rle__putcom_8c.html#a6fa8528c32d14763efe2a534e409e321" target="_top" xlink:title="rle_putcom">
<polygon fill="white" stroke="black" points="352,-437.903 352,-456.903 420,-456.903 420,-437.903 352,-437.903"/>
<text text-anchor="middle" x="386" y="-444.903" font-family="Helvetica,sans-Serif" font-size="10.00">rle_putcom</text>
</a>
</g>
</g>
<!-- Node15&#45;&gt;Node18 -->
<g id="edge24" class="edge"><title>Node15&#45;&gt;Node18</title>
<path fill="none" stroke="midnightblue" d="M291.7,-447.403C306.891,-447.403 325.024,-447.403 341.248,-447.403"/>
<polygon fill="midnightblue" stroke="midnightblue" points="341.583,-450.903 351.583,-447.403 341.583,-443.903 341.583,-450.903"/>
</g>
<!-- Node17 -->
<g id="node17" class="node"><title>Node17</title>
<g id="a_node17"><a xlink:href="../../db/db2/rle__getcom_8c.html#a7502c8b599724ce86fee5df1311a2337" target="_top" xlink:title="match">
<polygon fill="white" stroke="black" points="483.5,-475.903 483.5,-494.903 528.5,-494.903 528.5,-475.903 483.5,-475.903"/>
<text text-anchor="middle" x="506" y="-482.903" font-family="Helvetica,sans-Serif" font-size="10.00">match</text>
</a>
</g>
</g>
<!-- Node16&#45;&gt;Node17 -->
<g id="edge22" class="edge"><title>Node16&#45;&gt;Node17</title>
<path fill="none" stroke="midnightblue" d="M420.814,-485.403C437.35,-485.403 457.136,-485.403 473.37,-485.403"/>
<polygon fill="midnightblue" stroke="midnightblue" points="473.456,-488.903 483.456,-485.403 473.456,-481.903 473.456,-488.903"/>
</g>
<!-- Node18&#45;&gt;Node8 -->
<g id="edge25" class="edge"><title>Node18&#45;&gt;Node8</title>
<path fill="none" stroke="midnightblue" d="M415.391,-437.879C423.107,-434.266 430.984,-429.506 437,-423.403 446.654,-413.61 481.256,-332.957 497.045,-295.45"/>
<polygon fill="midnightblue" stroke="midnightblue" points="500.322,-296.685 500.962,-286.11 493.867,-293.977 500.322,-296.685"/>
</g>
<!-- Node19 -->
<g id="node19" class="node"><title>Node19</title>
<g id="a_node19"><a xlink:href="../../df/da5/rle__putcom_8c.html#a7502c8b599724ce86fee5df1311a2337" target="_top" xlink:title="match">
<polygon fill="white" stroke="black" points="483.5,-437.903 483.5,-456.903 528.5,-456.903 528.5,-437.903 483.5,-437.903"/>
<text text-anchor="middle" x="506" y="-444.903" font-family="Helvetica,sans-Serif" font-size="10.00">match</text>
</a>
</g>
</g>
<!-- Node18&#45;&gt;Node19 -->
<g id="edge26" class="edge"><title>Node18&#45;&gt;Node19</title>
<path fill="none" stroke="midnightblue" d="M420.184,-447.403C436.735,-447.403 456.664,-447.403 473.044,-447.403"/>
<polygon fill="midnightblue" stroke="midnightblue" points="473.224,-450.903 483.224,-447.403 473.224,-443.903 473.224,-450.903"/>
</g>
<!-- Node21 -->
<g id="node21" class="node"><title>Node21</title>
<g id="a_node21"><a xlink:href="../../d9/d2a/rle__putrow_8c.html#af88a82b331cd6f425d2a2cc1623944c6" target="_top" xlink:title="rle_put_setup">
<polygon fill="white" stroke="black" points="217,-323.903 217,-342.903 297,-342.903 297,-323.903 217,-323.903"/>
<text text-anchor="middle" x="257" y="-330.903" font-family="Helvetica,sans-Serif" font-size="10.00">rle_put_setup</text>
</a>
</g>
</g>
<!-- Node20&#45;&gt;Node21 -->
<g id="edge28" class="edge"><title>Node20&#45;&gt;Node21</title>
<path fill="none" stroke="midnightblue" d="M175.662,-333.403C185.686,-333.403 196.282,-333.403 206.375,-333.403"/>
<polygon fill="midnightblue" stroke="midnightblue" points="206.666,-336.903 216.666,-333.403 206.666,-329.903 206.666,-336.903"/>
</g>
<!-- Node22 -->
<g id="node22" class="node"><title>Node22</title>
<g id="a_node22"><a xlink:href="../../d9/d2a/rle__putrow_8c.html#a46d9789104d5d1f09253a808fdad5346" target="_top" xlink:title="rle_put_init">
<polygon fill="white" stroke="black" points="352,-323.903 352,-342.903 420,-342.903 420,-323.903 352,-323.903"/>
<text text-anchor="middle" x="386" y="-330.903" font-family="Helvetica,sans-Serif" font-size="10.00">rle_put_init</text>
</a>
</g>
</g>
<!-- Node21&#45;&gt;Node22 -->
<g id="edge29" class="edge"><title>Node21&#45;&gt;Node22</title>
<path fill="none" stroke="midnightblue" d="M297.14,-333.403C311.216,-333.403 327.173,-333.403 341.59,-333.403"/>
<polygon fill="midnightblue" stroke="midnightblue" points="341.767,-336.903 351.767,-333.403 341.767,-329.903 341.767,-336.903"/>
</g>
<!-- Node23&#45;&gt;Node6 -->
<g id="edge40" class="edge"><title>Node23&#45;&gt;Node6</title>
<path fill="none" stroke="midnightblue" d="M266.812,-133.794C280.051,-120.151 306.569,-95.7811 335,-86.4029 383.818,-70.3 444.339,-84.6593 478.419,-95.6488"/>
<polygon fill="midnightblue" stroke="midnightblue" points="477.511,-99.0359 488.105,-98.9136 479.747,-92.4026 477.511,-99.0359"/>
</g>
<!-- Node23&#45;&gt;Node8 -->
<g id="edge31" class="edge"><title>Node23&#45;&gt;Node8</title>
<path fill="none" stroke="midnightblue" d="M268.809,-152.954C283.131,-165.232 309.56,-186.606 335,-200.403 377.526,-223.466 393.09,-218.099 437,-238.403 451.915,-245.299 467.991,-254.21 480.765,-261.669"/>
<polygon fill="midnightblue" stroke="midnightblue" points="479.032,-264.71 489.42,-266.794 482.599,-258.687 479.032,-264.71"/>
</g>
<!-- Node24 -->
<g id="node24" class="node"><title>Node24</title>
<g id="a_node24"><a xlink:href="../../da/dbc/rle__row__alc_8c.html#abf83029f1ab364a8cb72524f58d70a3b" target="_top" xlink:title="rle_row_alloc">
<polygon fill="white" stroke="black" points="346,-133.903 346,-152.903 426,-152.903 426,-133.903 346,-133.903"/>
<text text-anchor="middle" x="386" y="-140.903" font-family="Helvetica,sans-Serif" font-size="10.00">rle_row_alloc</text>
</a>
</g>
</g>
<!-- Node23&#45;&gt;Node24 -->
<g id="edge32" class="edge"><title>Node23&#45;&gt;Node24</title>
<path fill="none" stroke="midnightblue" d="M299.233,-143.403C310.773,-143.403 323.436,-143.403 335.406,-143.403"/>
<polygon fill="midnightblue" stroke="midnightblue" points="335.701,-146.903 345.701,-143.403 335.701,-139.903 335.701,-146.903"/>
</g>
<!-- Node25 -->
<g id="node25" class="node"><title>Node25</title>
<g id="a_node25"><a xlink:href="../../d9/d2a/rle__putrow_8c.html#aa26532b01bc4f49b7383765cdc23ea72" target="_top" xlink:title="rle_putrow">
<polygon fill="white" stroke="black" points="353,-171.903 353,-190.903 419,-190.903 419,-171.903 353,-171.903"/>
<text text-anchor="middle" x="386" y="-178.903" font-family="Helvetica,sans-Serif" font-size="10.00">rle_putrow</text>
</a>
</g>
</g>
<!-- Node23&#45;&gt;Node25 -->
<g id="edge35" class="edge"><title>Node23&#45;&gt;Node25</title>
<path fill="none" stroke="midnightblue" d="M290.047,-152.992C306.141,-157.807 325.841,-163.702 343.117,-168.871"/>
<polygon fill="midnightblue" stroke="midnightblue" points="342.379,-172.303 352.963,-171.817 344.386,-165.597 342.379,-172.303"/>
</g>
<!-- Node27 -->
<g id="node27" class="node"><title>Node27</title>
<g id="a_node27"><a xlink:href="../../da/dbc/rle__row__alc_8c.html#a4fa936a985e542d42e91d272f9f6092d" target="_top" xlink:title="rle_row_free">
<polygon fill="white" stroke="black" points="347.5,-19.9029 347.5,-38.9029 424.5,-38.9029 424.5,-19.9029 347.5,-19.9029"/>
<text text-anchor="middle" x="386" y="-26.9029" font-family="Helvetica,sans-Serif" font-size="10.00">rle_row_free</text>
</a>
</g>
</g>
<!-- Node23&#45;&gt;Node27 -->
<g id="edge38" class="edge"><title>Node23&#45;&gt;Node27</title>
<path fill="none" stroke="midnightblue" d="M264.162,-133.852C276.036,-116.058 303.697,-77.4628 335,-53.4029 339.793,-49.719 345.242,-46.3986 350.737,-43.4849"/>
<polygon fill="midnightblue" stroke="midnightblue" points="352.489,-46.5238 359.922,-38.973 349.403,-40.241 352.489,-46.5238"/>
</g>
<!-- Node28 -->
<g id="node28" class="node"><title>Node28</title>
<g id="a_node28"><a xlink:href="../../d9/d2a/rle__putrow_8c.html#af4fab734a5d227ad2ae95840f56fff3b" target="_top" xlink:title="rle_puteof">
<polygon fill="white" stroke="black" points="354,-95.9029 354,-114.903 418,-114.903 418,-95.9029 354,-95.9029"/>
<text text-anchor="middle" x="386" y="-102.903" font-family="Helvetica,sans-Serif" font-size="10.00">rle_puteof</text>
</a>
</g>
</g>
<!-- Node23&#45;&gt;Node28 -->
<g id="edge41" class="edge"><title>Node23&#45;&gt;Node28</title>
<path fill="none" stroke="midnightblue" d="M290.047,-133.814C306.387,-128.925 326.443,-122.924 343.906,-117.699"/>
<polygon fill="midnightblue" stroke="midnightblue" points="345.264,-120.946 353.841,-114.726 343.257,-114.24 345.264,-120.946"/>
</g>
<!-- Node24&#45;&gt;Node6 -->
<g id="edge34" class="edge"><title>Node24&#45;&gt;Node6</title>
<path fill="none" stroke="midnightblue" d="M416.776,-133.814C435.813,-127.683 460.281,-119.804 478.618,-113.899"/>
<polygon fill="midnightblue" stroke="midnightblue" points="479.914,-117.159 488.359,-110.762 477.768,-110.496 479.914,-117.159"/>
</g>
<!-- Node24&#45;&gt;Node8 -->
<g id="edge33" class="edge"><title>Node24&#45;&gt;Node8</title>
<path fill="none" stroke="midnightblue" d="M421.504,-152.988C427.045,-155.486 432.447,-158.583 437,-162.403 467.896,-188.323 488.328,-232.078 498.164,-257.171"/>
<polygon fill="midnightblue" stroke="midnightblue" points="494.941,-258.544 501.731,-266.677 501.495,-256.085 494.941,-258.544"/>
</g>
<!-- Node25&#45;&gt;Node8 -->
<g id="edge36" class="edge"><title>Node25&#45;&gt;Node8</title>
<path fill="none" stroke="midnightblue" d="M411.388,-190.982C419.869,-194.853 429.204,-199.752 437,-205.403 458.221,-220.786 478.451,-243.261 491.243,-258.785"/>
<polygon fill="midnightblue" stroke="midnightblue" points="488.544,-261.014 497.544,-266.605 493.995,-256.622 488.544,-261.014"/>
</g>
<!-- Node26 -->
<g id="node26" class="node"><title>Node26</title>
<g id="a_node26"><a xlink:href="../../d9/d2a/rle__putrow_8c.html#aaa4133bf4a6cbf287444448497631f26" target="_top" xlink:title="findruns">
<polygon fill="white" stroke="black" points="479,-171.903 479,-190.903 533,-190.903 533,-171.903 479,-171.903"/>
<text text-anchor="middle" x="506" y="-178.903" font-family="Helvetica,sans-Serif" font-size="10.00">findruns</text>
</a>
</g>
</g>
<!-- Node25&#45;&gt;Node26 -->
<g id="edge37" class="edge"><title>Node25&#45;&gt;Node26</title>
<path fill="none" stroke="midnightblue" d="M419.244,-181.403C434.435,-181.403 452.629,-181.403 468.342,-181.403"/>
<polygon fill="midnightblue" stroke="midnightblue" points="468.757,-184.903 478.757,-181.403 468.757,-177.903 468.757,-184.903"/>
</g>
<!-- Node27&#45;&gt;Node6 -->
<g id="edge39" class="edge"><title>Node27&#45;&gt;Node6</title>
<path fill="none" stroke="midnightblue" d="M409.421,-38.9698C418.232,-43.0345 428.3,-48.0665 437,-53.4029 454.459,-64.1114 472.827,-78.36 486.066,-89.234"/>
<polygon fill="midnightblue" stroke="midnightblue" points="484.042,-92.1039 493.963,-95.8213 488.526,-86.7283 484.042,-92.1039"/>
</g>
<!-- Node28&#45;&gt;Node6 -->
<g id="edge42" class="edge"><title>Node28&#45;&gt;Node6</title>
<path fill="none" stroke="midnightblue" d="M418.003,-105.403C436.752,-105.403 460.411,-105.403 478.322,-105.403"/>
<polygon fill="midnightblue" stroke="midnightblue" points="478.379,-108.903 488.379,-105.403 478.379,-101.903 478.379,-108.903"/>
</g>
</g>
</svg>
