<?xml version="1.0" encoding="UTF-8" standalone="no"?>
<!DOCTYPE svg PUBLIC "-//W3C//DTD SVG 1.1//EN"
 "http://www.w3.org/Graphics/SVG/1.1/DTD/svg11.dtd">
<!-- Generated by graphviz version 2.38.0 (20140413.2041)
 -->
<!-- Title: main Pages: 1 -->
<svg width="568pt" height="560pt"
 viewBox="0.00 0.00 568.00 560.00" xmlns="http://www.w3.org/2000/svg" xmlns:xlink="http://www.w3.org/1999/xlink">
<g id="graph0" class="graph" transform="scale(1 1) rotate(0) translate(4 556)">
<title>main</title>
<polygon fill="white" stroke="none" points="-4,4 -4,-556 564,-556 564,4 -4,4"/>
<!-- Node1 -->
<g id="node1" class="node"><title>Node1</title>
<polygon fill="#bfbfbf" stroke="black" points="0,-247.5 0,-266.5 39,-266.5 39,-247.5 0,-247.5"/>
<text text-anchor="middle" x="19.5" y="-254.5" font-family="Helvetica,sans-Serif" font-size="10.00">main</text>
</g>
<!-- Node2 -->
<g id="node2" class="node"><title>Node2</title>
<g id="a_node2"><a xlink:href="../../d4/db0/scanargs_8c.html#a7ea6d702c0484056c8504d6ce7fede08" target="_top" xlink:title="scanargs">
<polygon fill="white" stroke="black" points="107.5,-532.5 107.5,-551.5 167.5,-551.5 167.5,-532.5 107.5,-532.5"/>
<text text-anchor="middle" x="137.5" y="-539.5" font-family="Helvetica,sans-Serif" font-size="10.00">scanargs</text>
</a>
</g>
</g>
<!-- Node1&#45;&gt;Node2 -->
<g id="edge1" class="edge"><title>Node1&#45;&gt;Node2</title>
<path fill="none" stroke="midnightblue" d="M21.2964,-266.642C24.9752,-309.037 41.5848,-478.512 75,-518 80.9171,-524.992 89.1338,-529.958 97.6375,-533.481"/>
<polygon fill="midnightblue" stroke="midnightblue" points="96.6583,-536.847 107.253,-536.876 98.9891,-530.246 96.6583,-536.847"/>
</g>
<!-- Node4 -->
<g id="node4" class="node"><title>Node4</title>
<g id="a_node4"><a xlink:href="../../d2/df3/rle__hdr_8c.html#a8ba0e5b11d1e39ab7227f1686e676c86" target="_top" xlink:title="rle_hdr_init">
<polygon fill="white" stroke="black" points="102.5,-342.5 102.5,-361.5 172.5,-361.5 172.5,-342.5 102.5,-342.5"/>
<text text-anchor="middle" x="137.5" y="-349.5" font-family="Helvetica,sans-Serif" font-size="10.00">rle_hdr_init</text>
</a>
</g>
</g>
<!-- Node1&#45;&gt;Node4 -->
<g id="edge3" class="edge"><title>Node1&#45;&gt;Node4</title>
<path fill="none" stroke="midnightblue" d="M24.874,-266.72C32.6386,-282.882 50.3627,-315.256 75,-333 80.2963,-336.814 86.3771,-339.877 92.6087,-342.333"/>
<polygon fill="midnightblue" stroke="midnightblue" points="91.8398,-345.77 102.434,-345.713 94.1168,-339.15 91.8398,-345.77"/>
</g>
<!-- Node9 -->
<g id="node9" class="node"><title>Node9</title>
<g id="a_node9"><a xlink:href="../../d2/df3/rle__hdr_8c.html#a82e79385f2d45cc3b80ce0f4f369eae5" target="_top" xlink:title="rle_names">
<polygon fill="white" stroke="black" points="374,-380.5 374,-399.5 440,-399.5 440,-380.5 374,-380.5"/>
<text text-anchor="middle" x="407" y="-387.5" font-family="Helvetica,sans-Serif" font-size="10.00">rle_names</text>
</a>
</g>
</g>
<!-- Node1&#45;&gt;Node9 -->
<g id="edge12" class="edge"><title>Node1&#45;&gt;Node9</title>
<path fill="none" stroke="midnightblue" d="M21.8404,-266.781C25.5446,-289.604 38.2055,-346.306 75,-371 163.42,-430.342 296.908,-413.838 364.148,-400.119"/>
<polygon fill="midnightblue" stroke="midnightblue" points="364.907,-403.536 373.964,-398.039 363.456,-396.688 364.907,-403.536"/>
</g>
<!-- Node10 -->
<g id="node10" class="node"><title>Node10</title>
<g id="a_node10"><a xlink:href="../../d8/d30/cmd__name_8c.html#a271249070fdd12c176777c77d76f888f" target="_top" xlink:title="cmd_name">
<polygon fill="white" stroke="black" points="103.5,-190.5 103.5,-209.5 171.5,-209.5 171.5,-190.5 103.5,-190.5"/>
<text text-anchor="middle" x="137.5" y="-197.5" font-family="Helvetica,sans-Serif" font-size="10.00">cmd_name</text>
</a>
</g>
</g>
<!-- Node1&#45;&gt;Node10 -->
<g id="edge13" class="edge"><title>Node1&#45;&gt;Node10</title>
<path fill="none" stroke="midnightblue" d="M31.9594,-247.422C42.558,-238.963 59.038,-226.795 75,-219 80.7991,-216.168 87.1115,-213.647 93.4104,-211.441"/>
<polygon fill="midnightblue" stroke="midnightblue" points="94.8048,-214.667 103.222,-208.233 92.6295,-208.014 94.8048,-214.667"/>
</g>
<!-- Node11 -->
<g id="node11" class="node"><title>Node11</title>
<g id="a_node11"><a xlink:href="../../d4/dd6/read98721_8c.html#a4aa2f9f7dbe1ffd7456f9479c806695c" target="_top" xlink:title="setup_graphics_device">
<polygon fill="white" stroke="black" points="75,-152.5 75,-171.5 200,-171.5 200,-152.5 75,-152.5"/>
<text text-anchor="middle" x="137.5" y="-159.5" font-family="Helvetica,sans-Serif" font-size="10.00">setup_graphics_device</text>
</a>
</g>
</g>
<!-- Node1&#45;&gt;Node11 -->
<g id="edge14" class="edge"><title>Node1&#45;&gt;Node11</title>
<path fill="none" stroke="midnightblue" d="M24.874,-247.28C32.6386,-231.118 50.3627,-198.744 75,-181 77.6751,-179.073 80.5503,-177.339 83.5439,-175.777"/>
<polygon fill="midnightblue" stroke="midnightblue" points="85.1289,-178.901 92.7988,-171.592 82.245,-172.523 85.1289,-178.901"/>
</g>
<!-- Node12 -->
<g id="node12" class="node"><title>Node12</title>
<g id="a_node12"><a xlink:href="../../d4/dd6/read98721_8c.html#a2fe411e42a7808d83fd26db26ff5c9dc" target="_top" xlink:title="clip">
<polygon fill="white" stroke="black" points="121.5,-114.5 121.5,-133.5 153.5,-133.5 153.5,-114.5 121.5,-114.5"/>
<text text-anchor="middle" x="137.5" y="-121.5" font-family="Helvetica,sans-Serif" font-size="10.00">clip</text>
</a>
</g>
</g>
<!-- Node1&#45;&gt;Node12 -->
<g id="edge15" class="edge"><title>Node1&#45;&gt;Node12</title>
<path fill="none" stroke="midnightblue" d="M22.3444,-247.465C27.0618,-225.66 41.6257,-171.817 75,-143 85.1401,-134.245 99.2699,-129.523 111.429,-126.977"/>
<polygon fill="midnightblue" stroke="midnightblue" points="112.195,-130.396 121.457,-125.253 111.009,-123.498 112.195,-130.396"/>
</g>
<!-- Node13 -->
<g id="node13" class="node"><title>Node13</title>
<g id="a_node13"><a xlink:href="../../de/d4e/rle__open__f_8c.html#a89733a45961817885603ae01210290b7" target="_top" xlink:title="rle_open_f">
<polygon fill="white" stroke="black" points="244,-456.5 244,-475.5 312,-475.5 312,-456.5 244,-456.5"/>
<text text-anchor="middle" x="278" y="-463.5" font-family="Helvetica,sans-Serif" font-size="10.00">rle_open_f</text>
</a>
</g>
</g>
<!-- Node1&#45;&gt;Node13 -->
<g id="edge16" class="edge"><title>Node1&#45;&gt;Node13</title>
<path fill="none" stroke="midnightblue" d="M19.9989,-266.572C18.953,-297.554 20.2559,-395.77 75,-442 118.931,-479.099 188.691,-478.716 233.655,-473.522"/>
<polygon fill="midnightblue" stroke="midnightblue" points="234.213,-476.979 243.687,-472.236 233.323,-470.036 234.213,-476.979"/>
</g>
<!-- Node16 -->
<g id="node16" class="node"><title>Node16</title>
<g id="a_node16"><a xlink:href="../../d4/dd6/read98721_8c.html#a6fd0fe586601190198f311fc5c77a9b9" target="_top" xlink:title="read_color_maps">
<polygon fill="white" stroke="black" points="88,-76.5 88,-95.5 187,-95.5 187,-76.5 88,-76.5"/>
<text text-anchor="middle" x="137.5" y="-83.5" font-family="Helvetica,sans-Serif" font-size="10.00">read_color_maps</text>
</a>
</g>
</g>
<!-- Node1&#45;&gt;Node16 -->
<g id="edge21" class="edge"><title>Node1&#45;&gt;Node16</title>
<path fill="none" stroke="midnightblue" d="M21.0849,-247.223C23.2184,-220.457 32.8585,-145.301 75,-105 76.6405,-103.431 78.4078,-101.992 80.2716,-100.671"/>
<polygon fill="midnightblue" stroke="midnightblue" points="82.0864,-103.664 88.9661,-95.6069 78.5633,-97.6154 82.0864,-103.664"/>
</g>
<!-- Node17 -->
<g id="node17" class="node"><title>Node17</title>
<g id="a_node17"><a xlink:href="../../df/da5/rle__putcom_8c.html#a6fa8528c32d14763efe2a534e409e321" target="_top" xlink:title="rle_putcom">
<polygon fill="white" stroke="black" points="244,-228.5 244,-247.5 312,-247.5 312,-228.5 244,-228.5"/>
<text text-anchor="middle" x="278" y="-235.5" font-family="Helvetica,sans-Serif" font-size="10.00">rle_putcom</text>
</a>
</g>
</g>
<!-- Node1&#45;&gt;Node17 -->
<g id="edge22" class="edge"><title>Node1&#45;&gt;Node17</title>
<path fill="none" stroke="midnightblue" d="M39.1948,-258.478C71.9276,-260.738 141.687,-264.088 200,-257 211.84,-255.561 224.484,-252.92 236.032,-250.056"/>
<polygon fill="midnightblue" stroke="midnightblue" points="237.051,-253.407 245.85,-247.506 235.291,-246.632 237.051,-253.407"/>
</g>
<!-- Node19 -->
<g id="node19" class="node"><title>Node19</title>
<g id="a_node19"><a xlink:href="../../d8/def/rle__addhist_8c.html#a4f9433d6e4e203d0ecea1c7d3837afc3" target="_top" xlink:title="rle_addhist">
<polygon fill="white" stroke="black" points="103,-304.5 103,-323.5 172,-323.5 172,-304.5 103,-304.5"/>
<text text-anchor="middle" x="137.5" y="-311.5" font-family="Helvetica,sans-Serif" font-size="10.00">rle_addhist</text>
</a>
</g>
</g>
<!-- Node1&#45;&gt;Node19 -->
<g id="edge25" class="edge"><title>Node1&#45;&gt;Node19</title>
<path fill="none" stroke="midnightblue" d="M34.9171,-266.67C45.686,-273.658 60.9138,-283.051 75,-290 82.8311,-293.863 91.4481,-297.552 99.6896,-300.829"/>
<polygon fill="midnightblue" stroke="midnightblue" points="98.5329,-304.134 109.122,-304.472 101.055,-297.605 98.5329,-304.134"/>
</g>
<!-- Node22 -->
<g id="node22" class="node"><title>Node22</title>
<g id="a_node22"><a xlink:href="../../d9/d2a/rle__putrow_8c.html#af88a82b331cd6f425d2a2cc1623944c6" target="_top" xlink:title="rle_put_setup">
<polygon fill="white" stroke="black" points="97.5,-38.5 97.5,-57.5 177.5,-57.5 177.5,-38.5 97.5,-38.5"/>
<text text-anchor="middle" x="137.5" y="-45.5" font-family="Helvetica,sans-Serif" font-size="10.00">rle_put_setup</text>
</a>
</g>
</g>
<!-- Node1&#45;&gt;Node22 -->
<g id="edge30" class="edge"><title>Node1&#45;&gt;Node22</title>
<path fill="none" stroke="midnightblue" d="M20.2663,-247.138C20.0851,-216.071 23.8422,-119.207 75,-67 78.7176,-63.2062 83.1748,-60.1662 87.9687,-57.7308"/>
<polygon fill="midnightblue" stroke="midnightblue" points="89.617,-60.8356 97.4971,-53.7536 86.9205,-54.3758 89.617,-60.8356"/>
</g>
<!-- Node24 -->
<g id="node24" class="node"><title>Node24</title>
<g id="a_node24"><a xlink:href="../../d4/dd6/read98721_8c.html#abaa12e01b8065576af00438bb83e53e8" target="_top" xlink:title="read_scanline">
<polygon fill="white" stroke="black" points="96,-0.5 96,-19.5 179,-19.5 179,-0.5 96,-0.5"/>
<text text-anchor="middle" x="137.5" y="-7.5" font-family="Helvetica,sans-Serif" font-size="10.00">read_scanline</text>
</a>
</g>
</g>
<!-- Node1&#45;&gt;Node24 -->
<g id="edge32" class="edge"><title>Node1&#45;&gt;Node24</title>
<path fill="none" stroke="midnightblue" d="M21.5235,-247.486C25.8929,-208.553 44.1808,-61.8908 75,-29 78.3119,-25.4655 82.2653,-22.5832 86.548,-20.2336"/>
<polygon fill="midnightblue" stroke="midnightblue" points="88.0145,-23.4118 95.7014,-16.1205 85.1454,-17.0268 88.0145,-23.4118"/>
</g>
<!-- Node25 -->
<g id="node25" class="node"><title>Node25</title>
<g id="a_node25"><a xlink:href="../../d9/d2a/rle__putrow_8c.html#aa26532b01bc4f49b7383765cdc23ea72" target="_top" xlink:title="rle_putrow">
<polygon fill="white" stroke="black" points="104.5,-228.5 104.5,-247.5 170.5,-247.5 170.5,-228.5 104.5,-228.5"/>
<text text-anchor="middle" x="137.5" y="-235.5" font-family="Helvetica,sans-Serif" font-size="10.00">rle_putrow</text>
</a>
</g>
</g>
<!-- Node1&#45;&gt;Node25 -->
<g id="edge33" class="edge"><title>Node1&#45;&gt;Node25</title>
<path fill="none" stroke="midnightblue" d="M39.1374,-253.947C54.0121,-251.511 75.4268,-248.003 94.3871,-244.898"/>
<polygon fill="midnightblue" stroke="midnightblue" points="95.0172,-248.341 104.32,-243.271 93.8857,-241.433 95.0172,-248.341"/>
</g>
<!-- Node27 -->
<g id="node27" class="node"><title>Node27</title>
<g id="a_node27"><a xlink:href="../../d9/d2a/rle__putrow_8c.html#af4fab734a5d227ad2ae95840f56fff3b" target="_top" xlink:title="rle_puteof">
<polygon fill="white" stroke="black" points="375,-494.5 375,-513.5 439,-513.5 439,-494.5 375,-494.5"/>
<text text-anchor="middle" x="407" y="-501.5" font-family="Helvetica,sans-Serif" font-size="10.00">rle_puteof</text>
</a>
</g>
</g>
<!-- Node1&#45;&gt;Node27 -->
<g id="edge36" class="edge"><title>Node1&#45;&gt;Node27</title>
<path fill="none" stroke="midnightblue" d="M21.4856,-266.708C25.5875,-305.057 42.6225,-445.254 75,-473 117.52,-509.437 285.744,-508.448 364.687,-505.835"/>
<polygon fill="midnightblue" stroke="midnightblue" points="364.891,-509.33 374.76,-505.476 364.642,-502.334 364.891,-509.33"/>
</g>
<!-- Node3 -->
<g id="node3" class="node"><title>Node3</title>
<g id="a_node3"><a xlink:href="../../d4/db0/scanargs_8c.html#a862219039664df6eb3cfced58addf830" target="_top" xlink:title="_do_scanargs">
<polygon fill="white" stroke="black" points="236,-532.5 236,-551.5 320,-551.5 320,-532.5 236,-532.5"/>
<text text-anchor="middle" x="278" y="-539.5" font-family="Helvetica,sans-Serif" font-size="10.00">_do_scanargs</text>
</a>
</g>
</g>
<!-- Node2&#45;&gt;Node3 -->
<g id="edge2" class="edge"><title>Node2&#45;&gt;Node3</title>
<path fill="none" stroke="midnightblue" d="M167.534,-542C184.421,-542 206.19,-542 225.862,-542"/>
<polygon fill="midnightblue" stroke="midnightblue" points="225.921,-545.5 235.921,-542 225.921,-538.5 225.921,-545.5"/>
</g>
<!-- Node5 -->
<g id="node5" class="node"><title>Node5</title>
<g id="a_node5"><a xlink:href="../../d2/df3/rle__hdr_8c.html#a16c4da6201b3b8cf55127b9ca968d253" target="_top" xlink:title="rle_hdr_clear">
<polygon fill="white" stroke="black" points="367,-418.5 367,-437.5 447,-437.5 447,-418.5 367,-418.5"/>
<text text-anchor="middle" x="407" y="-425.5" font-family="Helvetica,sans-Serif" font-size="10.00">rle_hdr_clear</text>
</a>
</g>
</g>
<!-- Node4&#45;&gt;Node5 -->
<g id="edge4" class="edge"><title>Node4&#45;&gt;Node5</title>
<path fill="none" stroke="midnightblue" d="M172.108,-361.548C220.357,-375.256 309.286,-400.522 362.496,-415.64"/>
<polygon fill="midnightblue" stroke="midnightblue" points="361.743,-419.065 372.319,-418.431 363.656,-412.331 361.743,-419.065"/>
</g>
<!-- Node7 -->
<g id="node7" class="node"><title>Node7</title>
<g id="a_node7"><a xlink:href="../../d2/df3/rle__hdr_8c.html#afc916e29aea8788e0878ca315ff69821" target="_top" xlink:title="rle_hdr_cp">
<polygon fill="white" stroke="black" points="244,-342.5 244,-361.5 312,-361.5 312,-342.5 244,-342.5"/>
<text text-anchor="middle" x="278" y="-349.5" font-family="Helvetica,sans-Serif" font-size="10.00">rle_hdr_cp</text>
</a>
</g>
</g>
<!-- Node4&#45;&gt;Node7 -->
<g id="edge6" class="edge"><title>Node4&#45;&gt;Node7</title>
<path fill="none" stroke="midnightblue" d="M172.736,-346.084C191.069,-345.128 213.846,-344.994 233.43,-345.681"/>
<polygon fill="midnightblue" stroke="midnightblue" points="233.491,-349.187 243.636,-346.131 233.8,-342.193 233.491,-349.187"/>
</g>
<!-- Node6 -->
<g id="node6" class="node"><title>Node6</title>
<g id="a_node6"><a xlink:href="../../d0/dcc/rletorla_8c.html#aafde19f7d36ca163a143579c1b125b6d" target="_top" xlink:title="free">
<polygon fill="white" stroke="black" points="509.5,-418.5 509.5,-437.5 544.5,-437.5 544.5,-418.5 509.5,-418.5"/>
<text text-anchor="middle" x="527" y="-425.5" font-family="Helvetica,sans-Serif" font-size="10.00">free</text>
</a>
</g>
</g>
<!-- Node5&#45;&gt;Node6 -->
<g id="edge5" class="edge"><title>Node5&#45;&gt;Node6</title>
<path fill="none" stroke="midnightblue" d="M447.292,-428C464.232,-428 483.621,-428 498.916,-428"/>
<polygon fill="midnightblue" stroke="midnightblue" points="499.236,-431.5 509.236,-428 499.236,-424.5 499.236,-431.5"/>
</g>
<!-- Node7&#45;&gt;Node4 -->
<g id="edge7" class="edge"><title>Node7&#45;&gt;Node4</title>
<path fill="none" stroke="midnightblue" d="M243.636,-357.869C225.362,-358.856 202.481,-359.014 182.735,-358.342"/>
<polygon fill="midnightblue" stroke="midnightblue" points="182.876,-354.845 172.736,-357.916 182.578,-361.839 182.876,-354.845"/>
</g>
<!-- Node8 -->
<g id="node8" class="node"><title>Node8</title>
<g id="a_node8"><a xlink:href="../../d0/dcc/rletorla_8c.html#ab7e36af3707843f77cc5b4e831c2fa6d" target="_top" xlink:title="malloc">
<polygon fill="white" stroke="black" points="503.5,-323.5 503.5,-342.5 550.5,-342.5 550.5,-323.5 503.5,-323.5"/>
<text text-anchor="middle" x="527" y="-330.5" font-family="Helvetica,sans-Serif" font-size="10.00">malloc</text>
</a>
</g>
</g>
<!-- Node7&#45;&gt;Node8 -->
<g id="edge8" class="edge"><title>Node7&#45;&gt;Node8</title>
<path fill="none" stroke="midnightblue" d="M312.055,-349.457C359.474,-345.81 446.271,-339.133 493.423,-335.506"/>
<polygon fill="midnightblue" stroke="midnightblue" points="493.705,-338.995 503.407,-334.738 493.168,-332.015 493.705,-338.995"/>
</g>
<!-- Node7&#45;&gt;Node9 -->
<g id="edge9" class="edge"><title>Node7&#45;&gt;Node9</title>
<path fill="none" stroke="midnightblue" d="M311.047,-361.589C327.141,-366.404 346.841,-372.299 364.117,-377.468"/>
<polygon fill="midnightblue" stroke="midnightblue" points="363.379,-380.901 373.963,-380.414 365.386,-374.194 363.379,-380.901"/>
</g>
<!-- Node9&#45;&gt;Node6 -->
<g id="edge10" class="edge"><title>Node9&#45;&gt;Node6</title>
<path fill="none" stroke="midnightblue" d="M437.776,-399.589C456.813,-405.72 481.281,-413.599 499.618,-419.504"/>
<polygon fill="midnightblue" stroke="midnightblue" points="498.768,-422.907 509.359,-422.641 500.914,-416.244 498.768,-422.907"/>
</g>
<!-- Node9&#45;&gt;Node8 -->
<g id="edge11" class="edge"><title>Node9&#45;&gt;Node8</title>
<path fill="none" stroke="midnightblue" d="M427.96,-380.443C437.118,-376.052 448.114,-370.771 458,-366 470.869,-359.789 485.093,-352.891 497.191,-347.015"/>
<polygon fill="midnightblue" stroke="midnightblue" points="498.907,-350.072 506.371,-342.553 495.847,-343.776 498.907,-350.072"/>
</g>
<!-- Node14 -->
<g id="node14" class="node"><title>Node14</title>
<g id="a_node14"><a xlink:href="../../de/d4e/rle__open__f_8c.html#a5a0e62a00f907fce26e93b2f72adb2b0" target="_top" xlink:title="rle_open_f_noexit">
<polygon fill="white" stroke="black" points="356,-456.5 356,-475.5 458,-475.5 458,-456.5 356,-456.5"/>
<text text-anchor="middle" x="407" y="-463.5" font-family="Helvetica,sans-Serif" font-size="10.00">rle_open_f_noexit</text>
</a>
</g>
</g>
<!-- Node13&#45;&gt;Node14 -->
<g id="edge17" class="edge"><title>Node13&#45;&gt;Node14</title>
<path fill="none" stroke="midnightblue" d="M312.036,-466C322.382,-466 334.141,-466 345.755,-466"/>
<polygon fill="midnightblue" stroke="midnightblue" points="345.885,-469.5 355.885,-466 345.885,-462.5 345.885,-469.5"/>
</g>
<!-- Node14&#45;&gt;Node6 -->
<g id="edge20" class="edge"><title>Node14&#45;&gt;Node6</title>
<path fill="none" stroke="midnightblue" d="M437.776,-456.411C456.813,-450.28 481.281,-442.401 499.618,-436.496"/>
<polygon fill="midnightblue" stroke="midnightblue" points="500.914,-439.756 509.359,-433.359 498.768,-433.093 500.914,-439.756"/>
</g>
<!-- Node14&#45;&gt;Node8 -->
<g id="edge19" class="edge"><title>Node14&#45;&gt;Node8</title>
<path fill="none" stroke="midnightblue" d="M442.504,-456.415C448.045,-453.917 453.447,-450.82 458,-447 488.896,-421.079 509.328,-377.325 519.164,-352.231"/>
<polygon fill="midnightblue" stroke="midnightblue" points="522.495,-353.318 522.731,-342.726 515.941,-350.859 522.495,-353.318"/>
</g>
<!-- Node15 -->
<g id="node15" class="node"><title>Node15</title>
<g id="a_node15"><a xlink:href="../../de/d4e/rle__open__f_8c.html#a84fda810ae9b9bde82a6391d0b264ead" target="_top" xlink:title="my_popen">
<polygon fill="white" stroke="black" points="494,-456.5 494,-475.5 560,-475.5 560,-456.5 494,-456.5"/>
<text text-anchor="middle" x="527" y="-463.5" font-family="Helvetica,sans-Serif" font-size="10.00">my_popen</text>
</a>
</g>
</g>
<!-- Node14&#45;&gt;Node15 -->
<g id="edge18" class="edge"><title>Node14&#45;&gt;Node15</title>
<path fill="none" stroke="midnightblue" d="M458.043,-466C466.523,-466 475.255,-466 483.518,-466"/>
<polygon fill="midnightblue" stroke="midnightblue" points="483.678,-469.5 493.678,-466 483.678,-462.5 483.678,-469.5"/>
</g>
<!-- Node17&#45;&gt;Node8 -->
<g id="edge23" class="edge"><title>Node17&#45;&gt;Node8</title>
<path fill="none" stroke="midnightblue" d="M299.645,-228.432C334.709,-213.707 407.047,-190.064 458,-219 493.754,-239.304 512.7,-286.68 520.901,-313.53"/>
<polygon fill="midnightblue" stroke="midnightblue" points="517.588,-314.677 523.694,-323.335 524.32,-312.759 517.588,-314.677"/>
</g>
<!-- Node18 -->
<g id="node18" class="node"><title>Node18</title>
<g id="a_node18"><a xlink:href="../../df/da5/rle__putcom_8c.html#a7502c8b599724ce86fee5df1311a2337" target="_top" xlink:title="match">
<polygon fill="white" stroke="black" points="384.5,-228.5 384.5,-247.5 429.5,-247.5 429.5,-228.5 384.5,-228.5"/>
<text text-anchor="middle" x="407" y="-235.5" font-family="Helvetica,sans-Serif" font-size="10.00">match</text>
</a>
</g>
</g>
<!-- Node17&#45;&gt;Node18 -->
<g id="edge24" class="edge"><title>Node17&#45;&gt;Node18</title>
<path fill="none" stroke="midnightblue" d="M312.036,-238C331.171,-238 355.142,-238 374.083,-238"/>
<polygon fill="midnightblue" stroke="midnightblue" points="374.302,-241.5 384.302,-238 374.302,-234.5 374.302,-241.5"/>
</g>
<!-- Node19&#45;&gt;Node8 -->
<g id="edge28" class="edge"><title>Node19&#45;&gt;Node8</title>
<path fill="none" stroke="midnightblue" d="M172.21,-315.653C245.77,-319.26 419.927,-327.799 492.914,-331.378"/>
<polygon fill="midnightblue" stroke="midnightblue" points="493.168,-334.894 503.327,-331.888 493.511,-327.903 493.168,-334.894"/>
</g>
<!-- Node19&#45;&gt;Node17 -->
<g id="edge29" class="edge"><title>Node19&#45;&gt;Node17</title>
<path fill="none" stroke="midnightblue" d="M169.596,-304.41C179.677,-300.646 190.66,-295.817 200,-290 218.424,-278.526 217.94,-269.039 236,-257 238.448,-255.368 241.058,-253.807 243.731,-252.33"/>
<polygon fill="midnightblue" stroke="midnightblue" points="245.589,-255.312 252.914,-247.657 242.415,-249.073 245.589,-255.312"/>
</g>
<!-- Node20 -->
<g id="node20" class="node"><title>Node20</title>
<g id="a_node20"><a xlink:href="../../db/db2/rle__getcom_8c.html#a9cefd612c381bf82c9cdf1f3a3b12dd6" target="_top" xlink:title="rle_getcom">
<polygon fill="white" stroke="black" points="243.5,-266.5 243.5,-285.5 312.5,-285.5 312.5,-266.5 243.5,-266.5"/>
<text text-anchor="middle" x="278" y="-273.5" font-family="Helvetica,sans-Serif" font-size="10.00">rle_getcom</text>
</a>
</g>
</g>
<!-- Node19&#45;&gt;Node20 -->
<g id="edge26" class="edge"><title>Node19&#45;&gt;Node20</title>
<path fill="none" stroke="midnightblue" d="M172.027,-304.801C190.518,-299.728 213.689,-293.37 233.555,-287.92"/>
<polygon fill="midnightblue" stroke="midnightblue" points="234.584,-291.267 243.302,-285.246 232.732,-284.516 234.584,-291.267"/>
</g>
<!-- Node21 -->
<g id="node21" class="node"><title>Node21</title>
<g id="a_node21"><a xlink:href="../../db/db2/rle__getcom_8c.html#a7502c8b599724ce86fee5df1311a2337" target="_top" xlink:title="match">
<polygon fill="white" stroke="black" points="384.5,-266.5 384.5,-285.5 429.5,-285.5 429.5,-266.5 384.5,-266.5"/>
<text text-anchor="middle" x="407" y="-273.5" font-family="Helvetica,sans-Serif" font-size="10.00">match</text>
</a>
</g>
</g>
<!-- Node20&#45;&gt;Node21 -->
<g id="edge27" class="edge"><title>Node20&#45;&gt;Node21</title>
<path fill="none" stroke="midnightblue" d="M312.7,-276C331.709,-276 355.325,-276 374.041,-276"/>
<polygon fill="midnightblue" stroke="midnightblue" points="374.148,-279.5 384.148,-276 374.148,-272.5 374.148,-279.5"/>
</g>
<!-- Node23 -->
<g id="node23" class="node"><title>Node23</title>
<g id="a_node23"><a xlink:href="../../d9/d2a/rle__putrow_8c.html#a46d9789104d5d1f09253a808fdad5346" target="_top" xlink:title="rle_put_init">
<polygon fill="white" stroke="black" points="244,-38.5 244,-57.5 312,-57.5 312,-38.5 244,-38.5"/>
<text text-anchor="middle" x="278" y="-45.5" font-family="Helvetica,sans-Serif" font-size="10.00">rle_put_init</text>
</a>
</g>
</g>
<!-- Node22&#45;&gt;Node23 -->
<g id="edge31" class="edge"><title>Node22&#45;&gt;Node23</title>
<path fill="none" stroke="midnightblue" d="M177.818,-48C195.2,-48 215.697,-48 233.533,-48"/>
<polygon fill="midnightblue" stroke="midnightblue" points="233.683,-51.5001 243.683,-48 233.683,-44.5001 233.683,-51.5001"/>
</g>
<!-- Node25&#45;&gt;Node8 -->
<g id="edge34" class="edge"><title>Node25&#45;&gt;Node8</title>
<path fill="none" stroke="midnightblue" d="M170.566,-229.359C241.714,-210.962 410.265,-171.894 458,-201 498.577,-225.742 515.977,-283.306 522.538,-313.586"/>
<polygon fill="midnightblue" stroke="midnightblue" points="519.105,-314.271 524.487,-323.397 525.971,-312.906 519.105,-314.271"/>
</g>
<!-- Node26 -->
<g id="node26" class="node"><title>Node26</title>
<g id="a_node26"><a xlink:href="../../d9/d2a/rle__putrow_8c.html#aaa4133bf4a6cbf287444448497631f26" target="_top" xlink:title="findruns">
<polygon fill="white" stroke="black" points="251,-114.5 251,-133.5 305,-133.5 305,-114.5 251,-114.5"/>
<text text-anchor="middle" x="278" y="-121.5" font-family="Helvetica,sans-Serif" font-size="10.00">findruns</text>
</a>
</g>
</g>
<!-- Node25&#45;&gt;Node26 -->
<g id="edge35" class="edge"><title>Node25&#45;&gt;Node26</title>
<path fill="none" stroke="midnightblue" d="M170.613,-233.203C180.877,-230.408 191.713,-225.988 200,-219 227.047,-196.192 211.748,-173.761 236,-148 239.138,-144.667 242.842,-141.651 246.72,-138.972"/>
<polygon fill="midnightblue" stroke="midnightblue" points="248.665,-141.884 255.333,-133.65 244.986,-135.929 248.665,-141.884"/>
</g>
<!-- Node27&#45;&gt;Node6 -->
<g id="edge37" class="edge"><title>Node27&#45;&gt;Node6</title>
<path fill="none" stroke="midnightblue" d="M439.211,-494.623C445.691,-492.006 452.282,-488.811 458,-485 477.36,-472.099 475.824,-461.522 494,-447 496.076,-445.341 498.311,-443.725 500.6,-442.181"/>
<polygon fill="midnightblue" stroke="midnightblue" points="502.845,-444.906 509.475,-436.642 499.139,-438.967 502.845,-444.906"/>
</g>
</g>
</svg>
