<?xml version="1.0" encoding="UTF-8" standalone="no"?>
<!DOCTYPE svg PUBLIC "-//W3C//DTD SVG 1.1//EN"
 "http://www.w3.org/Graphics/SVG/1.1/DTD/svg11.dtd">
<!-- Generated by graphviz version 2.38.0 (20140413.2041)
 -->
<!-- Title: main Pages: 1 -->
<!--zoomable 449 -->
<svg id="main" version="1.1" xmlns="http://www.w3.org/2000/svg" xmlns:xlink="http://www.w3.org/1999/xlink" xml:space="preserve" onload="init(evt)">
<style type="text/css"><![CDATA[
.edge:hover path { stroke: red; }
.edge:hover polygon { stroke: red; fill: red; }
]]></style>
<script type="text/javascript"><![CDATA[
var edges = document.getElementsByTagName('g');
if (edges && edges.length) {
  for (var i=0;i<edges.length;i++) {
    if (edges[i].id.substr(0,4)=='edge') {
      edges[i].setAttribute('class','edge');
    }
  }
}
]]></script>
        <defs>
                <circle id="rim" cx="0" cy="0" r="7"/>
                <circle id="rim2" cx="0" cy="0" r="3.5"/>
                <g id="zoomPlus">
                        <use xlink:href="#rim" fill="#404040">
                                <set attributeName="fill" to="#808080" begin="zoomplus.mouseover" end="zoomplus.mouseout"/>
                        </use>
                        <path d="M-4,0h8M0,-4v8" fill="none" stroke="white" stroke-width="1.5" pointer-events="none"/>
                </g>
                <g id="zoomMin">
                        <use xlink:href="#rim" fill="#404040">
                                <set attributeName="fill" to="#808080" begin="zoomminus.mouseover" end="zoomminus.mouseout"/>
                        </use>
                        <path d="M-4,0h8" fill="none" stroke="white" stroke-width="1.5" pointer-events="none"/>
                </g>
                <g id="dirArrow">
                        <path fill="none" stroke="white" stroke-width="1.5" d="M0,-3.0v7 M-2.5,-0.5L0,-3.0L2.5,-0.5"/>
                </g>
               <g id="resetDef">
                       <use xlink:href="#rim2" fill="#404040">
                               <set attributeName="fill" to="#808080" begin="reset.mouseover" end="reset.mouseout"/>
                       </use>
               </g>
        </defs>

<script type="text/javascript">
var viewWidth = 523;
var viewHeight = 449;
var sectionId = 'dynsection-1';
</script>
<script xlink:href="../../svgpan.js"/>
<svg id="graph" class="graph">
<g id="viewport">
<title>main</title>
<polygon fill="white" stroke="none" points="-4,4 -4,-445.247 519,-445.247 519,4 -4,4"/>
<!-- Node1 -->
<g id="node1" class="node"><title>Node1</title>
<polygon fill="#bfbfbf" stroke="black" points="0,-190.5 0,-209.5 39,-209.5 39,-190.5 0,-190.5"/>
<text text-anchor="middle" x="19.5" y="-197.5" font-family="Helvetica,sans-Serif" font-size="10.00">main</text>
</g>
<!-- Node2 -->
<g id="node2" class="node"><title>Node2</title>
<g id="a_node2"><a xlink:href="../../d2/df3/rle__hdr_8c.html#a8ba0e5b11d1e39ab7227f1686e676c86" target="_top" xlink:title="rle_hdr_init">
<polygon fill="white" stroke="black" points="80,-228.5 80,-247.5 150,-247.5 150,-228.5 80,-228.5"/>
<text text-anchor="middle" x="115" y="-235.5" font-family="Helvetica,sans-Serif" font-size="10.00">rle_hdr_init</text>
</a>
</g>
</g>
<!-- Node1&#45;&gt;Node2 -->
<g id="edge1" class="edge"><title>Node1&#45;&gt;Node2</title>
<path fill="none" stroke="midnightblue" d="M39.4211,-207.69C51.3874,-212.553 67.1782,-218.971 81.1479,-224.648"/>
<polygon fill="midnightblue" stroke="midnightblue" points="79.8769,-227.91 90.4588,-228.432 82.5125,-221.425 79.8769,-227.91"/>
</g>
<!-- Node7 -->
<g id="node7" class="node"><title>Node7</title>
<g id="a_node7"><a xlink:href="../../d2/df3/rle__hdr_8c.html#a82e79385f2d45cc3b80ce0f4f369eae5" target="_top" xlink:title="rle_names">
<polygon fill="white" stroke="black" points="329,-266.5 329,-285.5 395,-285.5 395,-266.5 329,-266.5"/>
<text text-anchor="middle" x="362" y="-273.5" font-family="Helvetica,sans-Serif" font-size="10.00">rle_names</text>
</a>
</g>
</g>
<!-- Node1&#45;&gt;Node7 -->
<g id="edge18" class="edge"><title>Node1&#45;&gt;Node7</title>
<path fill="none" stroke="midnightblue" d="M26.4461,-209.777C35.1967,-223.157 52.9204,-246.684 75,-257 154.58,-294.181 260.388,-289.122 318.421,-282.396"/>
<polygon fill="midnightblue" stroke="midnightblue" points="319.188,-285.828 328.684,-281.13 318.331,-278.88 319.188,-285.828"/>
</g>
<!-- Node8 -->
<g id="node8" class="node"><title>Node8</title>
<g id="a_node8"><a xlink:href="../../d4/db0/scanargs_8c.html#a7ea6d702c0484056c8504d6ce7fede08" target="_top" xlink:title="scanargs">
<polygon fill="white" stroke="black" points="85,-114.5 85,-133.5 145,-133.5 145,-114.5 85,-114.5"/>
<text text-anchor="middle" x="115" y="-121.5" font-family="Helvetica,sans-Serif" font-size="10.00">scanargs</text>
</a>
</g>
</g>
<!-- Node1&#45;&gt;Node8 -->
<g id="edge10" class="edge"><title>Node1&#45;&gt;Node8</title>
<path fill="none" stroke="midnightblue" d="M29.5969,-190.153C39.9958,-179.184 57.8074,-161.255 75,-148 79.0374,-144.887 83.4992,-141.828 87.9195,-138.991"/>
<polygon fill="midnightblue" stroke="midnightblue" points="90.1042,-141.756 96.785,-133.533 86.4345,-135.795 90.1042,-141.756"/>
</g>
<!-- Node10 -->
<g id="node10" class="node"><title>Node10</title>
<g id="a_node10"><a xlink:href="../../de/d4e/rle__open__f_8c.html#a89733a45961817885603ae01210290b7" target="_top" xlink:title="rle_open_f">
<polygon fill="white" stroke="black" points="199,-380.5 199,-399.5 267,-399.5 267,-380.5 199,-380.5"/>
<text text-anchor="middle" x="233" y="-387.5" font-family="Helvetica,sans-Serif" font-size="10.00">rle_open_f</text>
</a>
</g>
</g>
<!-- Node1&#45;&gt;Node10 -->
<g id="edge12" class="edge"><title>Node1&#45;&gt;Node10</title>
<path fill="none" stroke="midnightblue" d="M20.8283,-209.753C22.3044,-237.157 30.4171,-315.421 75,-355 105.944,-382.471 153.663,-389.867 188.372,-391.224"/>
<polygon fill="midnightblue" stroke="midnightblue" points="188.614,-394.73 198.694,-391.466 188.779,-387.732 188.614,-394.73"/>
</g>
<!-- Node13 -->
<g id="node13" class="node"><title>Node13</title>
<g id="a_node13"><a xlink:href="../../d8/d30/cmd__name_8c.html#a271249070fdd12c176777c77d76f888f" target="_top" xlink:title="cmd_name">
<polygon fill="white" stroke="black" points="81,-76.5 81,-95.5 149,-95.5 149,-76.5 81,-76.5"/>
<text text-anchor="middle" x="115" y="-83.5" font-family="Helvetica,sans-Serif" font-size="10.00">cmd_name</text>
</a>
</g>
</g>
<!-- Node1&#45;&gt;Node13 -->
<g id="edge17" class="edge"><title>Node1&#45;&gt;Node13</title>
<path fill="none" stroke="midnightblue" d="M23.7996,-190.415C30.6483,-171.757 48.0509,-130.189 75,-105 76.4856,-103.611 78.0917,-102.304 79.7763,-101.077"/>
<polygon fill="midnightblue" stroke="midnightblue" points="81.9857,-103.827 88.6594,-95.5979 78.3108,-97.8689 81.9857,-103.827"/>
</g>
<!-- Node14 -->
<g id="node14" class="node"><title>Node14</title>
<g id="a_node14"><a xlink:href="../../d8/def/rle__addhist_8c.html#a4f9433d6e4e203d0ecea1c7d3837afc3" target="_top" xlink:title="rle_addhist">
<polygon fill="white" stroke="black" points="198.5,-152.5 198.5,-171.5 267.5,-171.5 267.5,-152.5 198.5,-152.5"/>
<text text-anchor="middle" x="233" y="-159.5" font-family="Helvetica,sans-Serif" font-size="10.00">rle_addhist</text>
</a>
</g>
</g>
<!-- Node1&#45;&gt;Node14 -->
<g id="edge19" class="edge"><title>Node1&#45;&gt;Node14</title>
<path fill="none" stroke="midnightblue" d="M39.059,-194.742C49.5493,-191.894 62.9403,-188.464 75,-186 112.985,-178.238 156.606,-171.762 188.212,-167.502"/>
<polygon fill="midnightblue" stroke="midnightblue" points="188.993,-170.929 198.445,-166.143 188.072,-163.99 188.993,-170.929"/>
</g>
<!-- Node19 -->
<g id="node19" class="node"><title>Node19</title>
<g id="a_node19"><a xlink:href="../../d9/d2a/rle__putrow_8c.html#af88a82b331cd6f425d2a2cc1623944c6" target="_top" xlink:title="rle_put_setup">
<polygon fill="white" stroke="black" points="75,-38.5 75,-57.5 155,-57.5 155,-38.5 75,-38.5"/>
<text text-anchor="middle" x="115" y="-45.5" font-family="Helvetica,sans-Serif" font-size="10.00">rle_put_setup</text>
</a>
</g>
</g>
<!-- Node1&#45;&gt;Node19 -->
<g id="edge26" class="edge"><title>Node1&#45;&gt;Node19</title>
<path fill="none" stroke="midnightblue" d="M22.0228,-190.363C26.2474,-166.543 40.1825,-104.136 75,-67 76.2041,-65.7157 77.5135,-64.5075 78.8989,-63.3722"/>
<polygon fill="midnightblue" stroke="midnightblue" points="81.0945,-66.1145 87.4607,-57.6456 77.2027,-60.296 81.0945,-66.1145"/>
</g>
<!-- Node21 -->
<g id="node21" class="node"><title>Node21</title>
<g id="a_node21"><a xlink:href="../../df/d6e/rle__raw__alc_8c.html#a3f4a119f9ef60eb2599166c98946c339" target="_top" xlink:title="rle_raw_alloc">
<polygon fill="white" stroke="black" points="322,-190.5 322,-209.5 402,-209.5 402,-190.5 322,-190.5"/>
<text text-anchor="middle" x="362" y="-197.5" font-family="Helvetica,sans-Serif" font-size="10.00">rle_raw_alloc</text>
</a>
</g>
</g>
<!-- Node1&#45;&gt;Node21 -->
<g id="edge28" class="edge"><title>Node1&#45;&gt;Node21</title>
<path fill="none" stroke="midnightblue" d="M39.2918,-200C90.6897,-200 234.862,-200 311.559,-200"/>
<polygon fill="midnightblue" stroke="midnightblue" points="311.917,-203.5 321.917,-200 311.917,-196.5 311.917,-203.5"/>
</g>
<!-- Node22 -->
<g id="node22" class="node"><title>Node22</title>
<g id="a_node22"><a xlink:href="../../d6/d8c/rle__putraw_8c.html#ab36032e464af1d1505cdc69948fe9f17" target="_top" xlink:title="rle_putraw">
<polygon fill="white" stroke="black" points="82,-0.5 82,-19.5 148,-19.5 148,-0.5 82,-0.5"/>
<text text-anchor="middle" x="115" y="-7.5" font-family="Helvetica,sans-Serif" font-size="10.00">rle_putraw</text>
</a>
</g>
</g>
<!-- Node1&#45;&gt;Node22 -->
<g id="edge31" class="edge"><title>Node1&#45;&gt;Node22</title>
<path fill="none" stroke="midnightblue" d="M21.0009,-190.215C22.9449,-161.855 32.1997,-78.4943 75,-29 76.0161,-27.825 77.1216,-26.716 78.2955,-25.67"/>
<polygon fill="midnightblue" stroke="midnightblue" points="80.6676,-28.2794 86.8132,-19.6491 76.627,-22.5633 80.6676,-28.2794"/>
</g>
<!-- Node23 -->
<g id="node23" class="node"><title>Node23</title>
<g id="a_node23"><a xlink:href="../../df/d6e/rle__raw__alc_8c.html#a817fc2f8cdfed47915112d5aa3951afa" target="_top" xlink:title="rle_raw_free">
<polygon fill="white" stroke="black" points="194.5,-342.5 194.5,-361.5 271.5,-361.5 271.5,-342.5 194.5,-342.5"/>
<text text-anchor="middle" x="233" y="-349.5" font-family="Helvetica,sans-Serif" font-size="10.00">rle_raw_free</text>
</a>
</g>
</g>
<!-- Node1&#45;&gt;Node23 -->
<g id="edge32" class="edge"><title>Node1&#45;&gt;Node23</title>
<path fill="none" stroke="midnightblue" d="M21.4699,-209.602C24.4667,-233.825 35.8844,-297.644 75,-328 105.796,-351.9 150.459,-356.722 184.282,-356.249"/>
<polygon fill="midnightblue" stroke="midnightblue" points="184.511,-359.743 194.403,-355.947 184.303,-352.747 184.511,-359.743"/>
</g>
<!-- Node24 -->
<g id="node24" class="node"><title>Node24</title>
<g id="a_node24"><a xlink:href="../../d9/d2a/rle__putrow_8c.html#af4fab734a5d227ad2ae95840f56fff3b" target="_top" xlink:title="rle_puteof">
<polygon fill="white" stroke="black" points="83,-418.5 83,-437.5 147,-437.5 147,-418.5 83,-418.5"/>
<text text-anchor="middle" x="115" y="-425.5" font-family="Helvetica,sans-Serif" font-size="10.00">rle_puteof</text>
</a>
</g>
</g>
<!-- Node1&#45;&gt;Node24 -->
<g id="edge34" class="edge"><title>Node1&#45;&gt;Node24</title>
<path fill="none" stroke="midnightblue" d="M20.6359,-209.59C21.5412,-240.801 28.1438,-341.08 75,-404 77.3891,-407.208 80.3455,-410.082 83.5539,-412.63"/>
<polygon fill="midnightblue" stroke="midnightblue" points="81.6337,-415.557 91.8689,-418.293 85.5745,-409.771 81.6337,-415.557"/>
</g>
<!-- Node3 -->
<g id="node3" class="node"><title>Node3</title>
<g id="a_node3"><a xlink:href="../../d2/df3/rle__hdr_8c.html#a16c4da6201b3b8cf55127b9ca968d253" target="_top" xlink:title="rle_hdr_clear">
<polygon fill="white" stroke="black" points="322,-304.5 322,-323.5 402,-323.5 402,-304.5 322,-304.5"/>
<text text-anchor="middle" x="362" y="-311.5" font-family="Helvetica,sans-Serif" font-size="10.00">rle_hdr_clear</text>
</a>
</g>
</g>
<!-- Node2&#45;&gt;Node3 -->
<g id="edge2" class="edge"><title>Node2&#45;&gt;Node3</title>
<path fill="none" stroke="midnightblue" d="M147.029,-247.625C191.119,-261.302 271.936,-286.372 320.637,-301.479"/>
<polygon fill="midnightblue" stroke="midnightblue" points="319.635,-304.833 330.223,-304.453 321.708,-298.147 319.635,-304.833"/>
</g>
<!-- Node5 -->
<g id="node5" class="node"><title>Node5</title>
<g id="a_node5"><a xlink:href="../../d2/df3/rle__hdr_8c.html#afc916e29aea8788e0878ca315ff69821" target="_top" xlink:title="rle_hdr_cp">
<polygon fill="white" stroke="black" points="199,-228.5 199,-247.5 267,-247.5 267,-228.5 199,-228.5"/>
<text text-anchor="middle" x="233" y="-235.5" font-family="Helvetica,sans-Serif" font-size="10.00">rle_hdr_cp</text>
</a>
</g>
</g>
<!-- Node2&#45;&gt;Node5 -->
<g id="edge4" class="edge"><title>Node2&#45;&gt;Node5</title>
<path fill="none" stroke="midnightblue" d="M150.176,-231.784C162.185,-231.215 175.843,-231.101 188.513,-231.441"/>
<polygon fill="midnightblue" stroke="midnightblue" points="188.74,-234.952 198.866,-231.835 189.006,-227.958 188.74,-234.952"/>
</g>
<!-- Node4 -->
<g id="node4" class="node"><title>Node4</title>
<g id="a_node4"><a xlink:href="../../d0/dcc/rletorla_8c.html#aafde19f7d36ca163a143579c1b125b6d" target="_top" xlink:title="free">
<polygon fill="white" stroke="black" points="464.5,-323.5 464.5,-342.5 499.5,-342.5 499.5,-323.5 464.5,-323.5"/>
<text text-anchor="middle" x="482" y="-330.5" font-family="Helvetica,sans-Serif" font-size="10.00">free</text>
</a>
</g>
</g>
<!-- Node3&#45;&gt;Node4 -->
<g id="edge3" class="edge"><title>Node3&#45;&gt;Node4</title>
<path fill="none" stroke="midnightblue" d="M402.292,-320.327C419.397,-323.081 438.998,-326.237 454.361,-328.711"/>
<polygon fill="midnightblue" stroke="midnightblue" points="453.807,-332.166 464.236,-330.301 454.92,-325.256 453.807,-332.166"/>
</g>
<!-- Node5&#45;&gt;Node2 -->
<g id="edge5" class="edge"><title>Node5&#45;&gt;Node2</title>
<path fill="none" stroke="midnightblue" d="M198.866,-244.165C186.836,-244.767 173.046,-244.904 160.212,-244.578"/>
<polygon fill="midnightblue" stroke="midnightblue" points="160.296,-241.078 150.176,-244.216 160.044,-248.074 160.296,-241.078"/>
</g>
<!-- Node6 -->
<g id="node6" class="node"><title>Node6</title>
<g id="a_node6"><a xlink:href="../../d0/dcc/rletorla_8c.html#ab7e36af3707843f77cc5b4e831c2fa6d" target="_top" xlink:title="malloc">
<polygon fill="white" stroke="black" points="458.5,-209.5 458.5,-228.5 505.5,-228.5 505.5,-209.5 458.5,-209.5"/>
<text text-anchor="middle" x="482" y="-216.5" font-family="Helvetica,sans-Serif" font-size="10.00">malloc</text>
</a>
</g>
</g>
<!-- Node5&#45;&gt;Node6 -->
<g id="edge6" class="edge"><title>Node5&#45;&gt;Node6</title>
<path fill="none" stroke="midnightblue" d="M267.055,-235.457C314.474,-231.81 401.271,-225.133 448.423,-221.506"/>
<polygon fill="midnightblue" stroke="midnightblue" points="448.705,-224.995 458.407,-220.738 448.168,-218.015 448.705,-224.995"/>
</g>
<!-- Node5&#45;&gt;Node7 -->
<g id="edge7" class="edge"><title>Node5&#45;&gt;Node7</title>
<path fill="none" stroke="midnightblue" d="M266.047,-247.589C282.141,-252.404 301.841,-258.299 319.117,-263.468"/>
<polygon fill="midnightblue" stroke="midnightblue" points="318.379,-266.901 328.963,-266.414 320.386,-260.194 318.379,-266.901"/>
</g>
<!-- Node7&#45;&gt;Node4 -->
<g id="edge8" class="edge"><title>Node7&#45;&gt;Node4</title>
<path fill="none" stroke="midnightblue" d="M390.288,-285.543C397.745,-288.373 405.762,-291.625 413,-295 427.893,-301.945 443.967,-310.858 456.747,-318.306"/>
<polygon fill="midnightblue" stroke="midnightblue" points="455.016,-321.349 465.406,-323.422 458.576,-315.322 455.016,-321.349"/>
</g>
<!-- Node7&#45;&gt;Node6 -->
<g id="edge9" class="edge"><title>Node7&#45;&gt;Node6</title>
<path fill="none" stroke="midnightblue" d="M382.96,-266.443C392.118,-262.052 403.114,-256.771 413,-252 425.869,-245.789 440.093,-238.891 452.191,-233.015"/>
<polygon fill="midnightblue" stroke="midnightblue" points="453.907,-236.072 461.371,-228.553 450.847,-229.776 453.907,-236.072"/>
</g>
<!-- Node9 -->
<g id="node9" class="node"><title>Node9</title>
<g id="a_node9"><a xlink:href="../../d4/db0/scanargs_8c.html#a862219039664df6eb3cfced58addf830" target="_top" xlink:title="_do_scanargs">
<polygon fill="white" stroke="black" points="191,-114.5 191,-133.5 275,-133.5 275,-114.5 191,-114.5"/>
<text text-anchor="middle" x="233" y="-121.5" font-family="Helvetica,sans-Serif" font-size="10.00">_do_scanargs</text>
</a>
</g>
</g>
<!-- Node8&#45;&gt;Node9 -->
<g id="edge11" class="edge"><title>Node8&#45;&gt;Node9</title>
<path fill="none" stroke="midnightblue" d="M145.272,-124C156.073,-124 168.654,-124 180.827,-124"/>
<polygon fill="midnightblue" stroke="midnightblue" points="180.909,-127.5 190.909,-124 180.909,-120.5 180.909,-127.5"/>
</g>
<!-- Node11 -->
<g id="node11" class="node"><title>Node11</title>
<g id="a_node11"><a xlink:href="../../de/d4e/rle__open__f_8c.html#a5a0e62a00f907fce26e93b2f72adb2b0" target="_top" xlink:title="rle_open_f_noexit">
<polygon fill="white" stroke="black" points="311,-380.5 311,-399.5 413,-399.5 413,-380.5 311,-380.5"/>
<text text-anchor="middle" x="362" y="-387.5" font-family="Helvetica,sans-Serif" font-size="10.00">rle_open_f_noexit</text>
</a>
</g>
</g>
<!-- Node10&#45;&gt;Node11 -->
<g id="edge13" class="edge"><title>Node10&#45;&gt;Node11</title>
<path fill="none" stroke="midnightblue" d="M267.036,-390C277.382,-390 289.141,-390 300.755,-390"/>
<polygon fill="midnightblue" stroke="midnightblue" points="300.885,-393.5 310.885,-390 300.885,-386.5 300.885,-393.5"/>
</g>
<!-- Node11&#45;&gt;Node4 -->
<g id="edge16" class="edge"><title>Node11&#45;&gt;Node4</title>
<path fill="none" stroke="midnightblue" d="M382.96,-380.443C392.118,-376.052 403.114,-370.771 413,-366 426.938,-359.273 442.466,-351.74 455.16,-345.572"/>
<polygon fill="midnightblue" stroke="midnightblue" points="456.779,-348.677 464.243,-341.157 453.719,-342.381 456.779,-348.677"/>
</g>
<!-- Node11&#45;&gt;Node6 -->
<g id="edge15" class="edge"><title>Node11&#45;&gt;Node6</title>
<path fill="none" stroke="midnightblue" d="M372.428,-380.37C382.938,-369.391 400.145,-350.67 413,-333 436.265,-301.021 458.895,-260.689 471.287,-237.573"/>
<polygon fill="midnightblue" stroke="midnightblue" points="474.493,-238.999 476.085,-228.525 468.308,-235.72 474.493,-238.999"/>
</g>
<!-- Node12 -->
<g id="node12" class="node"><title>Node12</title>
<g id="a_node12"><a xlink:href="../../de/d4e/rle__open__f_8c.html#a84fda810ae9b9bde82a6391d0b264ead" target="_top" xlink:title="my_popen">
<polygon fill="white" stroke="black" points="449,-380.5 449,-399.5 515,-399.5 515,-380.5 449,-380.5"/>
<text text-anchor="middle" x="482" y="-387.5" font-family="Helvetica,sans-Serif" font-size="10.00">my_popen</text>
</a>
</g>
</g>
<!-- Node11&#45;&gt;Node12 -->
<g id="edge14" class="edge"><title>Node11&#45;&gt;Node12</title>
<path fill="none" stroke="midnightblue" d="M413.043,-390C421.523,-390 430.255,-390 438.518,-390"/>
<polygon fill="midnightblue" stroke="midnightblue" points="438.678,-393.5 448.678,-390 438.678,-386.5 438.678,-393.5"/>
</g>
<!-- Node14&#45;&gt;Node6 -->
<g id="edge22" class="edge"><title>Node14&#45;&gt;Node6</title>
<path fill="none" stroke="midnightblue" d="M267.813,-161.584C304.431,-162.047 364.155,-165.479 413,-181 429.387,-186.207 446.269,-195.615 459.113,-203.767"/>
<polygon fill="midnightblue" stroke="midnightblue" points="457.408,-206.834 467.687,-209.402 461.253,-200.985 457.408,-206.834"/>
</g>
<!-- Node15 -->
<g id="node15" class="node"><title>Node15</title>
<g id="a_node15"><a xlink:href="../../db/db2/rle__getcom_8c.html#a9cefd612c381bf82c9cdf1f3a3b12dd6" target="_top" xlink:title="rle_getcom">
<polygon fill="white" stroke="black" points="327.5,-76.5 327.5,-95.5 396.5,-95.5 396.5,-76.5 327.5,-76.5"/>
<text text-anchor="middle" x="362" y="-83.5" font-family="Helvetica,sans-Serif" font-size="10.00">rle_getcom</text>
</a>
</g>
</g>
<!-- Node14&#45;&gt;Node15 -->
<g id="edge20" class="edge"><title>Node14&#45;&gt;Node15</title>
<path fill="none" stroke="midnightblue" d="M258.694,-152.397C264.284,-149.73 270.031,-146.571 275,-143 293.891,-129.422 291.64,-117.901 311,-105 313.869,-103.088 316.957,-101.331 320.141,-99.7249"/>
<polygon fill="midnightblue" stroke="midnightblue" points="321.6,-102.906 329.264,-95.5907 318.71,-96.5306 321.6,-102.906"/>
</g>
<!-- Node17 -->
<g id="node17" class="node"><title>Node17</title>
<g id="a_node17"><a xlink:href="../../df/da5/rle__putcom_8c.html#a6fa8528c32d14763efe2a534e409e321" target="_top" xlink:title="rle_putcom">
<polygon fill="white" stroke="black" points="328,-114.5 328,-133.5 396,-133.5 396,-114.5 328,-114.5"/>
<text text-anchor="middle" x="362" y="-121.5" font-family="Helvetica,sans-Serif" font-size="10.00">rle_putcom</text>
</a>
</g>
</g>
<!-- Node14&#45;&gt;Node17 -->
<g id="edge23" class="edge"><title>Node14&#45;&gt;Node17</title>
<path fill="none" stroke="midnightblue" d="M266.047,-152.411C282.141,-147.596 301.841,-141.701 319.117,-136.532"/>
<polygon fill="midnightblue" stroke="midnightblue" points="320.386,-139.806 328.963,-133.586 318.379,-133.099 320.386,-139.806"/>
</g>
<!-- Node16 -->
<g id="node16" class="node"><title>Node16</title>
<g id="a_node16"><a xlink:href="../../db/db2/rle__getcom_8c.html#a7502c8b599724ce86fee5df1311a2337" target="_top" xlink:title="match">
<polygon fill="white" stroke="black" points="459.5,-76.5 459.5,-95.5 504.5,-95.5 504.5,-76.5 459.5,-76.5"/>
<text text-anchor="middle" x="482" y="-83.5" font-family="Helvetica,sans-Serif" font-size="10.00">match</text>
</a>
</g>
</g>
<!-- Node15&#45;&gt;Node16 -->
<g id="edge21" class="edge"><title>Node15&#45;&gt;Node16</title>
<path fill="none" stroke="midnightblue" d="M396.814,-86C413.35,-86 433.136,-86 449.37,-86"/>
<polygon fill="midnightblue" stroke="midnightblue" points="449.456,-89.5001 459.456,-86 449.456,-82.5001 449.456,-89.5001"/>
</g>
<!-- Node17&#45;&gt;Node6 -->
<g id="edge24" class="edge"><title>Node17&#45;&gt;Node6</title>
<path fill="none" stroke="midnightblue" d="M387.388,-133.579C395.869,-137.45 405.204,-142.349 413,-148 434.221,-163.383 454.451,-185.858 467.243,-201.382"/>
<polygon fill="midnightblue" stroke="midnightblue" points="464.544,-203.611 473.544,-209.202 469.995,-199.219 464.544,-203.611"/>
</g>
<!-- Node18 -->
<g id="node18" class="node"><title>Node18</title>
<g id="a_node18"><a xlink:href="../../df/da5/rle__putcom_8c.html#a7502c8b599724ce86fee5df1311a2337" target="_top" xlink:title="match">
<polygon fill="white" stroke="black" points="459.5,-114.5 459.5,-133.5 504.5,-133.5 504.5,-114.5 459.5,-114.5"/>
<text text-anchor="middle" x="482" y="-121.5" font-family="Helvetica,sans-Serif" font-size="10.00">match</text>
</a>
</g>
</g>
<!-- Node17&#45;&gt;Node18 -->
<g id="edge25" class="edge"><title>Node17&#45;&gt;Node18</title>
<path fill="none" stroke="midnightblue" d="M396.184,-124C412.735,-124 432.664,-124 449.044,-124"/>
<polygon fill="midnightblue" stroke="midnightblue" points="449.224,-127.5 459.224,-124 449.224,-120.5 449.224,-127.5"/>
</g>
<!-- Node20 -->
<g id="node20" class="node"><title>Node20</title>
<g id="a_node20"><a xlink:href="../../d9/d2a/rle__putrow_8c.html#a46d9789104d5d1f09253a808fdad5346" target="_top" xlink:title="rle_put_init">
<polygon fill="white" stroke="black" points="199,-38.5 199,-57.5 267,-57.5 267,-38.5 199,-38.5"/>
<text text-anchor="middle" x="233" y="-45.5" font-family="Helvetica,sans-Serif" font-size="10.00">rle_put_init</text>
</a>
</g>
</g>
<!-- Node19&#45;&gt;Node20 -->
<g id="edge27" class="edge"><title>Node19&#45;&gt;Node20</title>
<path fill="none" stroke="midnightblue" d="M155.272,-48C166.031,-48 177.753,-48 188.722,-48"/>
<polygon fill="midnightblue" stroke="midnightblue" points="188.953,-51.5001 198.953,-48 188.953,-44.5001 188.953,-51.5001"/>
</g>
<!-- Node21&#45;&gt;Node4 -->
<g id="edge30" class="edge"><title>Node21&#45;&gt;Node4</title>
<path fill="none" stroke="midnightblue" d="M371.486,-209.565C391.206,-231.791 440.355,-287.188 465.559,-315.597"/>
<polygon fill="midnightblue" stroke="midnightblue" points="463.017,-318.005 472.272,-323.163 468.254,-313.36 463.017,-318.005"/>
</g>
<!-- Node21&#45;&gt;Node6 -->
<g id="edge29" class="edge"><title>Node21&#45;&gt;Node6</title>
<path fill="none" stroke="midnightblue" d="M402.292,-206.327C417.29,-208.742 434.207,-211.466 448.504,-213.768"/>
<polygon fill="midnightblue" stroke="midnightblue" points="447.957,-217.224 458.386,-215.359 449.069,-210.313 447.957,-217.224"/>
</g>
<!-- Node23&#45;&gt;Node4 -->
<g id="edge33" class="edge"><title>Node23&#45;&gt;Node4</title>
<path fill="none" stroke="midnightblue" d="M271.514,-349.114C321.883,-345.24 410.135,-338.451 454.275,-335.056"/>
<polygon fill="midnightblue" stroke="midnightblue" points="454.545,-338.545 464.247,-334.289 454.008,-331.566 454.545,-338.545"/>
</g>
<!-- Node24&#45;&gt;Node4 -->
<g id="edge35" class="edge"><title>Node24&#45;&gt;Node4</title>
<path fill="none" stroke="midnightblue" d="M147.438,-433.419C203.873,-441.592 324.706,-451.911 413,-409 416.495,-407.302 447.18,-372.186 466.116,-350.289"/>
<polygon fill="midnightblue" stroke="midnightblue" points="468.833,-352.498 472.717,-342.641 463.534,-347.924 468.833,-352.498"/>
</g>
</g>
</svg>
        <g id="navigator" transform="translate(0 0)" fill="#404254">
                <rect fill="#f2f5e9" fill-opacity="0.5" stroke="#606060" stroke-width=".5" x="0" y="0" width="60" height="60"/>
                <use id="zoomplus" xlink:href="#zoomPlus" x="17" y="9" onmousedown="handleZoom(evt,'in')"/>
                <use id="zoomminus" xlink:href="#zoomMin" x="42" y="9" onmousedown="handleZoom(evt,'out')"/>
                <use id="reset" xlink:href="#resetDef" x="30" y="36" onmousedown="handleReset()"/>
                <g id="arrowUp" xlink:href="#dirArrow" transform="translate(30 24)" onmousedown="handlePan(0,-1)">
                  <use xlink:href="#rim" fill="#404040">
                        <set attributeName="fill" to="#808080" begin="arrowUp.mouseover" end="arrowUp.mouseout"/>
                  </use>
                  <path fill="none" stroke="white" stroke-width="1.5" d="M0,-3.0v7 M-2.5,-0.5L0,-3.0L2.5,-0.5"/>
                </g>
                <g id="arrowRight" xlink:href="#dirArrow" transform="rotate(90) translate(36 -43)" onmousedown="handlePan(1,0)">
                  <use xlink:href="#rim" fill="#404040">
                        <set attributeName="fill" to="#808080" begin="arrowRight.mouseover" end="arrowRight.mouseout"/>
                  </use>
                  <path fill="none" stroke="white" stroke-width="1.5" d="M0,-3.0v7 M-2.5,-0.5L0,-3.0L2.5,-0.5"/>
                </g>
                <g id="arrowDown" xlink:href="#dirArrow" transform="rotate(180) translate(-30 -48)" onmousedown="handlePan(0,1)">
                  <use xlink:href="#rim" fill="#404040">
                        <set attributeName="fill" to="#808080" begin="arrowDown.mouseover" end="arrowDown.mouseout"/>
                  </use>
                  <path fill="none" stroke="white" stroke-width="1.5" d="M0,-3.0v7 M-2.5,-0.5L0,-3.0L2.5,-0.5"/>
                </g>
                <g id="arrowLeft" xlink:href="#dirArrow" transform="rotate(270) translate(-36 17)" onmousedown="handlePan(-1,0)">
                  <use xlink:href="#rim" fill="#404040">
                        <set attributeName="fill" to="#808080" begin="arrowLeft.mouseover" end="arrowLeft.mouseout"/>
                  </use>
                  <path fill="none" stroke="white" stroke-width="1.5" d="M0,-3.0v7 M-2.5,-0.5L0,-3.0L2.5,-0.5"/>
                </g>
        </g>
        <svg viewBox="0 0 15 15" width="100%" height="30px" preserveAspectRatio="xMaxYMin meet">
         <g id="arrow_out" transform="scale(0.3 0.3)">
          <a xlink:href="rlegrid_8c_a70db8bd1d499619f7ff9c1ca2ff3c8df_cgraph_org.svg" target="_base">
           <rect id="button" ry="5" rx="5" y="6" x="6" height="38" width="38"
                fill="#f2f5e9" fill-opacity="0.5" stroke="#606060" stroke-width="1.0"/>
           <path id="arrow"
             d="M 11.500037,31.436501 C 11.940474,20.09759 22.043105,11.32322 32.158766,21.979434 L 37.068811,17.246167 C 37.068811,17.246167 37.088388,32 37.088388,32 L 22.160133,31.978069 C 22.160133,31.978069 26.997745,27.140456 26.997745,27.140456 C 18.528582,18.264221 13.291696,25.230495 11.500037,31.436501 z"
             style="fill:#404040;"/>
          </a>
         </g>
        </svg>
</svg>
