<?xml version="1.0" encoding="UTF-8" standalone="no"?>
<!DOCTYPE svg PUBLIC "-//W3C//DTD SVG 1.1//EN"
 "http://www.w3.org/Graphics/SVG/1.1/DTD/svg11.dtd">
<!-- Generated by graphviz version 2.38.0 (20140413.2041)
 -->
<!-- Title: rlecat.c Pages: 1 -->
<svg width="327pt" height="84pt"
 viewBox="0.00 0.00 326.50 84.00" xmlns="http://www.w3.org/2000/svg" xmlns:xlink="http://www.w3.org/1999/xlink">
<g id="graph0" class="graph" transform="scale(1 1) rotate(0) translate(4 80)">
<title>rlecat.c</title>
<polygon fill="white" stroke="none" points="-4,4 -4,-80 322.5,-80 322.5,4 -4,4"/>
<!-- Node1 -->
<g id="node1" class="node"><title>Node1</title>
<polygon fill="#bfbfbf" stroke="black" points="119.5,-56.5 119.5,-75.5 169.5,-75.5 169.5,-56.5 119.5,-56.5"/>
<text text-anchor="middle" x="144.5" y="-63.5" font-family="Helvetica,sans-Serif" font-size="10.00">rlecat.c</text>
</g>
<!-- Node2 -->
<g id="node2" class="node"><title>Node2</title>
<polygon fill="white" stroke="#bfbfbf" points="0,-0.5 0,-19.5 37,-19.5 37,-0.5 0,-0.5"/>
<text text-anchor="middle" x="18.5" y="-7.5" font-family="Helvetica,sans-Serif" font-size="10.00">rle.h</text>
</g>
<!-- Node1&#45;&gt;Node2 -->
<g id="edge1" class="edge"><title>Node1&#45;&gt;Node2</title>
<path fill="none" stroke="midnightblue" d="M124.535,-56.4435C103.527,-47.44 70.2884,-33.195 46.6291,-23.0553"/>
<polygon fill="midnightblue" stroke="midnightblue" points="47.7096,-19.7106 37.1394,-18.9883 44.9521,-26.1446 47.7096,-19.7106"/>
</g>
<!-- Node3 -->
<g id="node3" class="node"><title>Node3</title>
<polygon fill="white" stroke="#bfbfbf" points="55,-0.5 55,-19.5 102,-19.5 102,-0.5 55,-0.5"/>
<text text-anchor="middle" x="78.5" y="-7.5" font-family="Helvetica,sans-Serif" font-size="10.00">stdio.h</text>
</g>
<!-- Node1&#45;&gt;Node3 -->
<g id="edge2" class="edge"><title>Node1&#45;&gt;Node3</title>
<path fill="none" stroke="midnightblue" d="M133.896,-56.324C124.044,-48.2631 109.149,-36.0765 97.2849,-26.3695"/>
<polygon fill="midnightblue" stroke="midnightblue" points="99.2529,-23.4575 89.297,-19.8339 94.8202,-28.8752 99.2529,-23.4575"/>
</g>
<!-- Node4 -->
<g id="node4" class="node"><title>Node4</title>
<polygon fill="white" stroke="#bfbfbf" points="120,-0.5 120,-19.5 169,-19.5 169,-0.5 120,-0.5"/>
<text text-anchor="middle" x="144.5" y="-7.5" font-family="Helvetica,sans-Serif" font-size="10.00">stdlib.h</text>
</g>
<!-- Node1&#45;&gt;Node4 -->
<g id="edge3" class="edge"><title>Node1&#45;&gt;Node4</title>
<path fill="none" stroke="midnightblue" d="M144.5,-56.083C144.5,-49.0059 144.5,-38.8611 144.5,-29.9865"/>
<polygon fill="midnightblue" stroke="midnightblue" points="148,-29.751 144.5,-19.7511 141,-29.7511 148,-29.751"/>
</g>
<!-- Node5 -->
<g id="node5" class="node"><title>Node5</title>
<polygon fill="white" stroke="#bfbfbf" points="187,-0.5 187,-19.5 240,-19.5 240,-0.5 187,-0.5"/>
<text text-anchor="middle" x="213.5" y="-7.5" font-family="Helvetica,sans-Serif" font-size="10.00">unistd.h</text>
</g>
<!-- Node1&#45;&gt;Node5 -->
<g id="edge4" class="edge"><title>Node1&#45;&gt;Node5</title>
<path fill="none" stroke="midnightblue" d="M155.586,-56.324C165.986,-48.1849 181.761,-35.8395 194.222,-26.0874"/>
<polygon fill="midnightblue" stroke="midnightblue" points="196.494,-28.7533 202.212,-19.8339 192.18,-23.2407 196.494,-28.7533"/>
</g>
<!-- Node6 -->
<g id="node6" class="node"><title>Node6</title>
<polygon fill="white" stroke="#bfbfbf" points="258.5,-0.5 258.5,-19.5 318.5,-19.5 318.5,-0.5 258.5,-0.5"/>
<text text-anchor="middle" x="288.5" y="-7.5" font-family="Helvetica,sans-Serif" font-size="10.00">rle_raw.h</text>
</g>
<!-- Node1&#45;&gt;Node6 -->
<g id="edge5" class="edge"><title>Node1&#45;&gt;Node6</title>
<path fill="none" stroke="midnightblue" d="M167.317,-56.4435C191.332,-47.4381 229.329,-33.1891 256.369,-23.049"/>
<polygon fill="midnightblue" stroke="midnightblue" points="257.655,-26.3049 265.79,-19.5164 255.197,-19.7506 257.655,-26.3049"/>
</g>
</g>
</svg>
