<?xml version="1.0" encoding="UTF-8" standalone="no"?>
<!DOCTYPE svg PUBLIC "-//W3C//DTD SVG 1.1//EN"
 "http://www.w3.org/Graphics/SVG/1.1/DTD/svg11.dtd">
<!-- Generated by graphviz version 2.38.0 (20140413.2041)
 -->
<!-- Title: tools/rlecat.c Pages: 1 -->
<svg width="336pt" height="196pt"
 viewBox="0.00 0.00 335.50 196.00" xmlns="http://www.w3.org/2000/svg" xmlns:xlink="http://www.w3.org/1999/xlink">
<g id="graph0" class="graph" transform="scale(1 1) rotate(0) translate(4 192)">
<title>tools/rlecat.c</title>
<polygon fill="white" stroke="none" points="-4,4 -4,-192 331.5,-192 331.5,4 -4,4"/>
<!-- Node1 -->
<g id="node1" class="node"><title>Node1</title>
<polygon fill="#bfbfbf" stroke="black" points="126.5,-168.5 126.5,-187.5 202.5,-187.5 202.5,-168.5 126.5,-168.5"/>
<text text-anchor="middle" x="164.5" y="-175.5" font-family="Helvetica,sans-Serif" font-size="10.00">tools/rlecat.c</text>
</g>
<!-- Node2 -->
<g id="node2" class="node"><title>Node2</title>
<g id="a_node2"><a xlink:href="../../d7/d27/rle_8h.html" target="_top" xlink:title="rle.h">
<polygon fill="white" stroke="black" points="61,-112.5 61,-131.5 98,-131.5 98,-112.5 61,-112.5"/>
<text text-anchor="middle" x="79.5" y="-119.5" font-family="Helvetica,sans-Serif" font-size="10.00">rle.h</text>
</a>
</g>
</g>
<!-- Node1&#45;&gt;Node2 -->
<g id="edge1" class="edge"><title>Node1&#45;&gt;Node2</title>
<path fill="none" stroke="midnightblue" d="M150.843,-168.324C137.584,-159.9 117.232,-146.971 101.654,-137.074"/>
<polygon fill="midnightblue" stroke="midnightblue" points="103.44,-134.063 93.1228,-131.655 99.6867,-139.971 103.44,-134.063"/>
</g>
<!-- Node4 -->
<g id="node4" class="node"><title>Node4</title>
<polygon fill="white" stroke="#bfbfbf" points="109,-0.5 109,-19.5 158,-19.5 158,-0.5 109,-0.5"/>
<text text-anchor="middle" x="133.5" y="-7.5" font-family="Helvetica,sans-Serif" font-size="10.00">stdlib.h</text>
</g>
<!-- Node1&#45;&gt;Node4 -->
<g id="edge7" class="edge"><title>Node1&#45;&gt;Node4</title>
<path fill="none" stroke="midnightblue" d="M163.315,-168.451C160.515,-148.609 153.077,-97.9286 144.5,-56 142.705,-47.2244 140.39,-37.5671 138.347,-29.4564"/>
<polygon fill="midnightblue" stroke="midnightblue" points="141.687,-28.3941 135.804,-19.583 134.909,-30.1399 141.687,-28.3941"/>
</g>
<!-- Node6 -->
<g id="node6" class="node"><title>Node6</title>
<polygon fill="white" stroke="#bfbfbf" points="89,-56.5 89,-75.5 136,-75.5 136,-56.5 89,-56.5"/>
<text text-anchor="middle" x="112.5" y="-63.5" font-family="Helvetica,sans-Serif" font-size="10.00">stdio.h</text>
</g>
<!-- Node1&#45;&gt;Node6 -->
<g id="edge6" class="edge"><title>Node1&#45;&gt;Node6</title>
<path fill="none" stroke="midnightblue" d="M160.42,-168.368C151.952,-150.456 132.318,-108.923 120.985,-84.9482"/>
<polygon fill="midnightblue" stroke="midnightblue" points="124,-83.1363 116.561,-75.5914 117.671,-86.128 124,-83.1363"/>
</g>
<!-- Node7 -->
<g id="node7" class="node"><title>Node7</title>
<polygon fill="white" stroke="#bfbfbf" points="193,-112.5 193,-131.5 246,-131.5 246,-112.5 193,-112.5"/>
<text text-anchor="middle" x="219.5" y="-119.5" font-family="Helvetica,sans-Serif" font-size="10.00">unistd.h</text>
</g>
<!-- Node1&#45;&gt;Node7 -->
<g id="edge8" class="edge"><title>Node1&#45;&gt;Node7</title>
<path fill="none" stroke="midnightblue" d="M173.582,-168.083C181.671,-160.141 193.695,-148.335 203.41,-138.797"/>
<polygon fill="midnightblue" stroke="midnightblue" points="205.903,-141.254 210.587,-131.751 200.999,-136.26 205.903,-141.254"/>
</g>
<!-- Node8 -->
<g id="node8" class="node"><title>Node8</title>
<g id="a_node8"><a xlink:href="../../d3/d5d/rle__raw_8h.html" target="_top" xlink:title="rle_raw.h">
<polygon fill="white" stroke="black" points="264.5,-112.5 264.5,-131.5 324.5,-131.5 324.5,-112.5 264.5,-112.5"/>
<text text-anchor="middle" x="294.5" y="-119.5" font-family="Helvetica,sans-Serif" font-size="10.00">rle_raw.h</text>
</a>
</g>
</g>
<!-- Node1&#45;&gt;Node8 -->
<g id="edge9" class="edge"><title>Node1&#45;&gt;Node8</title>
<path fill="none" stroke="midnightblue" d="M185.099,-168.444C206.493,-159.557 240.181,-145.563 264.524,-135.451"/>
<polygon fill="midnightblue" stroke="midnightblue" points="266.105,-138.585 273.997,-131.516 263.42,-132.12 266.105,-138.585"/>
</g>
<!-- Node3 -->
<g id="node3" class="node"><title>Node3</title>
<g id="a_node3"><a xlink:href="../../df/dad/rle__config_8h.html" target="_top" xlink:title="rle_config.h">
<polygon fill="white" stroke="black" points="0,-56.5 0,-75.5 71,-75.5 71,-56.5 0,-56.5"/>
<text text-anchor="middle" x="35.5" y="-63.5" font-family="Helvetica,sans-Serif" font-size="10.00">rle_config.h</text>
</a>
</g>
</g>
<!-- Node2&#45;&gt;Node3 -->
<g id="edge2" class="edge"><title>Node2&#45;&gt;Node3</title>
<path fill="none" stroke="midnightblue" d="M72.2343,-112.083C65.9552,-104.377 56.7124,-93.0333 49.0692,-83.6531"/>
<polygon fill="midnightblue" stroke="midnightblue" points="51.6606,-81.2926 42.6305,-75.7511 46.2339,-85.7143 51.6606,-81.2926"/>
</g>
<!-- Node2&#45;&gt;Node6 -->
<g id="edge5" class="edge"><title>Node2&#45;&gt;Node6</title>
<path fill="none" stroke="midnightblue" d="M84.9493,-112.083C89.5145,-104.613 96.1684,-93.7244 101.793,-84.5199"/>
<polygon fill="midnightblue" stroke="midnightblue" points="104.924,-86.109 107.152,-75.7511 98.9511,-82.4588 104.924,-86.109"/>
</g>
<!-- Node3&#45;&gt;Node4 -->
<g id="edge3" class="edge"><title>Node3&#45;&gt;Node4</title>
<path fill="none" stroke="midnightblue" d="M51.2454,-56.324C66.8187,-47.7428 90.8773,-34.486 108.959,-24.5224"/>
<polygon fill="midnightblue" stroke="midnightblue" points="110.724,-27.546 117.794,-19.6545 107.346,-21.4152 110.724,-27.546"/>
</g>
<!-- Node5 -->
<g id="node5" class="node"><title>Node5</title>
<polygon fill="white" stroke="#bfbfbf" points="10,-0.5 10,-19.5 61,-19.5 61,-0.5 10,-0.5"/>
<text text-anchor="middle" x="35.5" y="-7.5" font-family="Helvetica,sans-Serif" font-size="10.00">string.h</text>
</g>
<!-- Node3&#45;&gt;Node5 -->
<g id="edge4" class="edge"><title>Node3&#45;&gt;Node5</title>
<path fill="none" stroke="midnightblue" d="M35.5,-56.083C35.5,-49.0059 35.5,-38.8611 35.5,-29.9865"/>
<polygon fill="midnightblue" stroke="midnightblue" points="39.0001,-29.751 35.5,-19.7511 32.0001,-29.7511 39.0001,-29.751"/>
</g>
<!-- Node9 -->
<g id="node9" class="node"><title>Node9</title>
<g id="a_node9"><a xlink:href="../../da/d8d/rle__code_8h.html" target="_top" xlink:title="rle_code.h">
<polygon fill="white" stroke="black" points="261.5,-56.5 261.5,-75.5 327.5,-75.5 327.5,-56.5 261.5,-56.5"/>
<text text-anchor="middle" x="294.5" y="-63.5" font-family="Helvetica,sans-Serif" font-size="10.00">rle_code.h</text>
</a>
</g>
</g>
<!-- Node8&#45;&gt;Node9 -->
<g id="edge10" class="edge"><title>Node8&#45;&gt;Node9</title>
<path fill="none" stroke="midnightblue" d="M294.5,-112.083C294.5,-105.006 294.5,-94.8611 294.5,-85.9865"/>
<polygon fill="midnightblue" stroke="midnightblue" points="298,-85.751 294.5,-75.7511 291,-85.7511 298,-85.751"/>
</g>
</g>
</svg>
