<?xml version="1.0" encoding="UTF-8" standalone="no"?>
<!DOCTYPE svg PUBLIC "-//W3C//DTD SVG 1.1//EN"
 "http://www.w3.org/Graphics/SVG/1.1/DTD/svg11.dtd">
<!-- Generated by graphviz version 2.38.0 (20140413.2041)
 -->
<!-- Title: sig_setup Pages: 1 -->
<svg width="351pt" height="28pt"
 viewBox="0.00 0.00 351.00 28.00" xmlns="http://www.w3.org/2000/svg" xmlns:xlink="http://www.w3.org/1999/xlink">
<g id="graph0" class="graph" transform="scale(1 1) rotate(0) translate(4 24)">
<title>sig_setup</title>
<polygon fill="white" stroke="none" points="-4,4 -4,-24 347,-24 347,4 -4,4"/>
<!-- Node1 -->
<g id="node1" class="node"><title>Node1</title>
<polygon fill="#bfbfbf" stroke="black" points="0,-0.5 0,-19.5 62,-19.5 62,-0.5 0,-0.5"/>
<text text-anchor="middle" x="31" y="-7.5" font-family="Helvetica,sans-Serif" font-size="10.00">sig_setup</text>
</g>
<!-- Node2 -->
<g id="node2" class="node"><title>Node2</title>
<g id="a_node2"><a xlink:href="../../da/d12/sig_8c.html#a7e0322bc0848d568cedd96d41c44706c" target="_top" xlink:title="sig_handler">
<polygon fill="white" stroke="black" points="98,-0.5 98,-19.5 170,-19.5 170,-0.5 98,-0.5"/>
<text text-anchor="middle" x="134" y="-7.5" font-family="Helvetica,sans-Serif" font-size="10.00">sig_handler</text>
</a>
</g>
</g>
<!-- Node1&#45;&gt;Node2 -->
<g id="edge1" class="edge"><title>Node1&#45;&gt;Node2</title>
<path fill="none" stroke="midnightblue" d="M62.0299,-10C70.138,-10 79.0935,-10 87.8335,-10"/>
<polygon fill="midnightblue" stroke="midnightblue" points="87.9309,-13.5001 97.9309,-10 87.9309,-6.5001 87.9309,-13.5001"/>
</g>
<!-- Node3 -->
<g id="node3" class="node"><title>Node3</title>
<g id="a_node3"><a xlink:href="../../d9/dea/getcx3d_8c.html#af4152c13a06d002f268af780c0433c3a" target="_top" xlink:title="done">
<polygon fill="white" stroke="black" points="206,-0.5 206,-19.5 247,-19.5 247,-0.5 206,-0.5"/>
<text text-anchor="middle" x="226.5" y="-7.5" font-family="Helvetica,sans-Serif" font-size="10.00">done</text>
</a>
</g>
</g>
<!-- Node2&#45;&gt;Node3 -->
<g id="edge2" class="edge"><title>Node2&#45;&gt;Node3</title>
<path fill="none" stroke="midnightblue" d="M170.249,-10C178.669,-10 187.575,-10 195.721,-10"/>
<polygon fill="midnightblue" stroke="midnightblue" points="195.887,-13.5001 205.887,-10 195.887,-6.5001 195.887,-13.5001"/>
</g>
<!-- Node4 -->
<g id="node4" class="node"><title>Node4</title>
<g id="a_node4"><a xlink:href="../../da/d12/sig_8c.html#aa189be24085654e9f5fa0718698ae248" target="_top" xlink:title="sig_block">
<polygon fill="white" stroke="black" points="283,-0.5 283,-19.5 343,-19.5 343,-0.5 283,-0.5"/>
<text text-anchor="middle" x="313" y="-7.5" font-family="Helvetica,sans-Serif" font-size="10.00">sig_block</text>
</a>
</g>
</g>
<!-- Node3&#45;&gt;Node4 -->
<g id="edge3" class="edge"><title>Node3&#45;&gt;Node4</title>
<path fill="none" stroke="midnightblue" d="M247.098,-10C254.738,-10 263.779,-10 272.65,-10"/>
<polygon fill="midnightblue" stroke="midnightblue" points="272.89,-13.5001 282.89,-10 272.89,-6.5001 272.89,-13.5001"/>
</g>
</g>
</svg>
