<?xml version="1.0" encoding="UTF-8" standalone="no"?>
<!DOCTYPE svg PUBLIC "-//W3C//DTD SVG 1.1//EN"
 "http://www.w3.org/Graphics/SVG/1.1/DTD/svg11.dtd">
<!-- Generated by graphviz version 2.38.0 (20140413.2041)
 -->
<!-- Title: sig_unblock Pages: 1 -->
<svg width="244pt" height="47pt"
 viewBox="0.00 0.00 244.00 47.00" xmlns="http://www.w3.org/2000/svg" xmlns:xlink="http://www.w3.org/1999/xlink">
<g id="graph0" class="graph" transform="scale(1 1) rotate(0) translate(4 43)">
<title>sig_unblock</title>
<polygon fill="white" stroke="none" points="-4,4 -4,-43 240,-43 240,4 -4,4"/>
<!-- Node1 -->
<g id="node1" class="node"><title>Node1</title>
<polygon fill="#bfbfbf" stroke="black" points="0,-0.5 0,-19.5 71,-19.5 71,-0.5 0,-0.5"/>
<text text-anchor="middle" x="35.5" y="-7.5" font-family="Helvetica,sans-Serif" font-size="10.00">sig_unblock</text>
</g>
<!-- Node2 -->
<g id="node2" class="node"><title>Node2</title>
<g id="a_node2"><a xlink:href="../../d9/dea/getcx3d_8c.html#ac43e38fef452c4a15d14abb67019a1b5" target="_top" xlink:title="getcx3d">
<polygon fill="white" stroke="black" points="107,-19.5 107,-38.5 161,-38.5 161,-19.5 107,-19.5"/>
<text text-anchor="middle" x="134" y="-26.5" font-family="Helvetica,sans-Serif" font-size="10.00">getcx3d</text>
</a>
</g>
</g>
<!-- Node1&#45;&gt;Node2 -->
<g id="edge1" class="edge"><title>Node1&#45;&gt;Node2</title>
<path fill="none" stroke="midnightblue" d="M80.9396,-18.7498C89.8066,-20.4956 98.8464,-22.2754 106.851,-23.8515"/>
<polygon fill="midnightblue" stroke="midnightblue" points="81.5539,-15.3036 71.0661,-16.8058 80.2016,-22.1717 81.5539,-15.3036"/>
</g>
<!-- Node3 -->
<g id="node3" class="node"><title>Node3</title>
<g id="a_node3"><a xlink:href="../../d9/dea/getcx3d_8c.html#a0708a0954f39ecdc7aa901286295ad01" target="_top" xlink:title="main">
<polygon fill="white" stroke="black" points="197,-0.5 197,-19.5 236,-19.5 236,-0.5 197,-0.5"/>
<text text-anchor="middle" x="216.5" y="-7.5" font-family="Helvetica,sans-Serif" font-size="10.00">main</text>
</a>
</g>
</g>
<!-- Node1&#45;&gt;Node3 -->
<g id="edge3" class="edge"><title>Node1&#45;&gt;Node3</title>
<path fill="none" stroke="midnightblue" d="M81.1402,-10C118.48,-10 169.869,-10 196.997,-10"/>
<polygon fill="midnightblue" stroke="midnightblue" points="81.013,-6.5001 71.013,-10 81.013,-13.5001 81.013,-6.5001"/>
</g>
<!-- Node2&#45;&gt;Node3 -->
<g id="edge2" class="edge"><title>Node2&#45;&gt;Node3</title>
<path fill="none" stroke="midnightblue" d="M171.215,-20.4523C180.129,-18.3484 189.31,-16.1816 196.984,-14.3702"/>
<polygon fill="midnightblue" stroke="midnightblue" points="170.287,-17.0751 161.359,-22.7787 171.895,-23.8879 170.287,-17.0751"/>
</g>
</g>
</svg>
