<?xml version="1.0" encoding="UTF-8" standalone="no"?>
<!DOCTYPE svg PUBLIC "-//W3C//DTD SVG 1.1//EN"
 "http://www.w3.org/Graphics/SVG/1.1/DTD/svg11.dtd">
<!-- Generated by graphviz version 2.38.0 (20140413.2041)
 -->
<!-- Title: sig_handler Pages: 1 -->
<svg width="253pt" height="28pt"
 viewBox="0.00 0.00 253.00 28.00" xmlns="http://www.w3.org/2000/svg" xmlns:xlink="http://www.w3.org/1999/xlink">
<g id="graph0" class="graph" transform="scale(1 1) rotate(0) translate(4 24)">
<title>sig_handler</title>
<polygon fill="white" stroke="none" points="-4,4 -4,-24 249,-24 249,4 -4,4"/>
<!-- Node1 -->
<g id="node1" class="node"><title>Node1</title>
<polygon fill="#bfbfbf" stroke="black" points="0,-0.5 0,-19.5 72,-19.5 72,-0.5 0,-0.5"/>
<text text-anchor="middle" x="36" y="-7.5" font-family="Helvetica,sans-Serif" font-size="10.00">sig_handler</text>
</g>
<!-- Node2 -->
<g id="node2" class="node"><title>Node2</title>
<g id="a_node2"><a xlink:href="../../d9/dea/getcx3d_8c.html#af4152c13a06d002f268af780c0433c3a" target="_top" xlink:title="done">
<polygon fill="white" stroke="black" points="108,-0.5 108,-19.5 149,-19.5 149,-0.5 108,-0.5"/>
<text text-anchor="middle" x="128.5" y="-7.5" font-family="Helvetica,sans-Serif" font-size="10.00">done</text>
</a>
</g>
</g>
<!-- Node1&#45;&gt;Node2 -->
<g id="edge1" class="edge"><title>Node1&#45;&gt;Node2</title>
<path fill="none" stroke="midnightblue" d="M72.2488,-10C80.669,-10 89.5754,-10 97.7215,-10"/>
<polygon fill="midnightblue" stroke="midnightblue" points="97.8873,-13.5001 107.887,-10 97.8872,-6.5001 97.8873,-13.5001"/>
</g>
<!-- Node3 -->
<g id="node3" class="node"><title>Node3</title>
<g id="a_node3"><a xlink:href="../../da/d12/sig_8c.html#aa189be24085654e9f5fa0718698ae248" target="_top" xlink:title="sig_block">
<polygon fill="white" stroke="black" points="185,-0.5 185,-19.5 245,-19.5 245,-0.5 185,-0.5"/>
<text text-anchor="middle" x="215" y="-7.5" font-family="Helvetica,sans-Serif" font-size="10.00">sig_block</text>
</a>
</g>
</g>
<!-- Node2&#45;&gt;Node3 -->
<g id="edge2" class="edge"><title>Node2&#45;&gt;Node3</title>
<path fill="none" stroke="midnightblue" d="M149.098,-10C156.738,-10 165.779,-10 174.65,-10"/>
<polygon fill="midnightblue" stroke="midnightblue" points="174.89,-13.5001 184.89,-10 174.89,-6.5001 174.89,-13.5001"/>
</g>
</g>
</svg>
