<?xml version="1.0" encoding="UTF-8" standalone="no"?>
<!DOCTYPE svg PUBLIC "-//W3C//DTD SVG 1.1//EN"
 "http://www.w3.org/Graphics/SVG/1.1/DTD/svg11.dtd">
<!-- Generated by graphviz version 2.38.0 (20140413.2041)
 -->
<!-- Title: init_8_bit_color_map Pages: 1 -->
<svg width="307pt" height="28pt"
 viewBox="0.00 0.00 307.00 28.00" xmlns="http://www.w3.org/2000/svg" xmlns:xlink="http://www.w3.org/1999/xlink">
<g id="graph0" class="graph" transform="scale(1 1) rotate(0) translate(4 24)">
<title>init_8_bit_color_map</title>
<polygon fill="white" stroke="none" points="-4,4 -4,-24 303,-24 303,4 -4,4"/>
<!-- Node1 -->
<g id="node1" class="node"><title>Node1</title>
<polygon fill="#bfbfbf" stroke="black" points="0,-0.5 0,-19.5 114,-19.5 114,-0.5 0,-0.5"/>
<text text-anchor="middle" x="57" y="-7.5" font-family="Helvetica,sans-Serif" font-size="10.00">init_8_bit_color_map</text>
</g>
<!-- Node2 -->
<g id="node2" class="node"><title>Node2</title>
<g id="a_node2"><a xlink:href="../../d2/db1/getbob_8c.html#a57256e4ad6aa2bbbb64b4e50a4a89c16" target="_top" xlink:title="direct_setup">
<polygon fill="white" stroke="black" points="150,-0.5 150,-19.5 224,-19.5 224,-0.5 150,-0.5"/>
<text text-anchor="middle" x="187" y="-7.5" font-family="Helvetica,sans-Serif" font-size="10.00">direct_setup</text>
</a>
</g>
</g>
<!-- Node1&#45;&gt;Node2 -->
<g id="edge1" class="edge"><title>Node1&#45;&gt;Node2</title>
<path fill="none" stroke="midnightblue" d="M124.395,-10C133.139,-10 141.823,-10 149.794,-10"/>
<polygon fill="midnightblue" stroke="midnightblue" points="124.143,-6.5001 114.143,-10 124.143,-13.5001 124.143,-6.5001"/>
</g>
<!-- Node3 -->
<g id="node3" class="node"><title>Node3</title>
<g id="a_node3"><a xlink:href="../../d2/db1/getbob_8c.html#a0708a0954f39ecdc7aa901286295ad01" target="_top" xlink:title="main">
<polygon fill="white" stroke="black" points="260,-0.5 260,-19.5 299,-19.5 299,-0.5 260,-0.5"/>
<text text-anchor="middle" x="279.5" y="-7.5" font-family="Helvetica,sans-Serif" font-size="10.00">main</text>
</a>
</g>
</g>
<!-- Node2&#45;&gt;Node3 -->
<g id="edge2" class="edge"><title>Node2&#45;&gt;Node3</title>
<path fill="none" stroke="midnightblue" d="M234.189,-10C243.238,-10 252.237,-10 259.738,-10"/>
<polygon fill="midnightblue" stroke="midnightblue" points="234.028,-6.5001 224.028,-10 234.028,-13.5001 234.028,-6.5001"/>
</g>
</g>
</svg>
