<?xml version="1.0" encoding="UTF-8" standalone="no"?>
<!DOCTYPE svg PUBLIC "-//W3C//DTD SVG 1.1//EN"
 "http://www.w3.org/Graphics/SVG/1.1/DTD/svg11.dtd">
<!-- Generated by graphviz version 2.38.0 (20140413.2041)
 -->
<!-- Title: main Pages: 1 -->
<svg width="553pt" height="1016pt"
 viewBox="0.00 0.00 553.00 1016.00" xmlns="http://www.w3.org/2000/svg" xmlns:xlink="http://www.w3.org/1999/xlink">
<g id="graph0" class="graph" transform="scale(1 1) rotate(0) translate(4 1012)">
<title>main</title>
<polygon fill="white" stroke="none" points="-4,4 -4,-1012 549,-1012 549,4 -4,4"/>
<!-- Node1 -->
<g id="node1" class="node"><title>Node1</title>
<polygon fill="#bfbfbf" stroke="black" points="0,-456.5 0,-475.5 39,-475.5 39,-456.5 0,-456.5"/>
<text text-anchor="middle" x="19.5" y="-463.5" font-family="Helvetica,sans-Serif" font-size="10.00">main</text>
</g>
<!-- Node2 -->
<g id="node2" class="node"><title>Node2</title>
<g id="a_node2"><a xlink:href="../../d8/d30/cmd__name_8c.html#a271249070fdd12c176777c77d76f888f" target="_top" xlink:title="cmd_name">
<polygon fill="white" stroke="black" points="96,-988.5 96,-1007.5 164,-1007.5 164,-988.5 96,-988.5"/>
<text text-anchor="middle" x="130" y="-995.5" font-family="Helvetica,sans-Serif" font-size="10.00">cmd_name</text>
</a>
</g>
</g>
<!-- Node1&#45;&gt;Node2 -->
<g id="edge1" class="edge"><title>Node1&#45;&gt;Node2</title>
<path fill="none" stroke="midnightblue" d="M20.267,-475.542C18.9178,-538.174 14.1432,-890.485 75,-974 78.1295,-978.295 82.2033,-981.834 86.7111,-984.748"/>
<polygon fill="midnightblue" stroke="midnightblue" points="85.3141,-987.97 95.7806,-989.614 88.6238,-981.802 85.3141,-987.97"/>
</g>
<!-- Node3 -->
<g id="node3" class="node"><title>Node3</title>
<g id="a_node3"><a xlink:href="../../d2/df3/rle__hdr_8c.html#a8ba0e5b11d1e39ab7227f1686e676c86" target="_top" xlink:title="rle_hdr_init">
<polygon fill="white" stroke="black" points="95,-684.5 95,-703.5 165,-703.5 165,-684.5 95,-684.5"/>
<text text-anchor="middle" x="130" y="-691.5" font-family="Helvetica,sans-Serif" font-size="10.00">rle_hdr_init</text>
</a>
</g>
</g>
<!-- Node1&#45;&gt;Node3 -->
<g id="edge2" class="edge"><title>Node1&#45;&gt;Node3</title>
<path fill="none" stroke="midnightblue" d="M20.3056,-475.854C20.199,-507.872 24.0535,-610.344 75,-670 78.1647,-673.706 82.0141,-676.862 86.1851,-679.547"/>
<polygon fill="midnightblue" stroke="midnightblue" points="84.6297,-682.685 95.0822,-684.416 87.9906,-676.545 84.6297,-682.685"/>
</g>
<!-- Node5 -->
<g id="node5" class="node"><title>Node5</title>
<g id="a_node5"><a xlink:href="../../d0/dcc/rletorla_8c.html#aafde19f7d36ca163a143579c1b125b6d" target="_top" xlink:title="free">
<polygon fill="white" stroke="black" points="494.5,-798.5 494.5,-817.5 529.5,-817.5 529.5,-798.5 494.5,-798.5"/>
<text text-anchor="middle" x="512" y="-805.5" font-family="Helvetica,sans-Serif" font-size="10.00">free</text>
</a>
</g>
</g>
<!-- Node1&#45;&gt;Node5 -->
<g id="edge57" class="edge"><title>Node1&#45;&gt;Node5</title>
<path fill="none" stroke="midnightblue" d="M20.7923,-475.559C22.4533,-523.622 32.2085,-738.458 75,-786 185.723,-909.015 282.147,-881.967 443,-843 459.199,-839.076 475.862,-830.584 488.639,-822.948"/>
<polygon fill="midnightblue" stroke="midnightblue" points="490.558,-825.877 497.193,-817.617 486.855,-819.936 490.558,-825.877"/>
</g>
<!-- Node6 -->
<g id="node6" class="node"><title>Node6</title>
<g id="a_node6"><a xlink:href="../../d2/df3/rle__hdr_8c.html#afc916e29aea8788e0878ca315ff69821" target="_top" xlink:title="rle_hdr_cp">
<polygon fill="white" stroke="black" points="229,-684.5 229,-703.5 297,-703.5 297,-684.5 229,-684.5"/>
<text text-anchor="middle" x="263" y="-691.5" font-family="Helvetica,sans-Serif" font-size="10.00">rle_hdr_cp</text>
</a>
</g>
</g>
<!-- Node1&#45;&gt;Node6 -->
<g id="edge29" class="edge"><title>Node1&#45;&gt;Node6</title>
<path fill="none" stroke="midnightblue" d="M20.7901,-475.784C22.1629,-504.086 30.0237,-586.892 75,-632 85.4647,-642.495 167.483,-667.201 219.365,-682.062"/>
<polygon fill="midnightblue" stroke="midnightblue" points="218.417,-685.431 228.993,-684.807 220.336,-678.7 218.417,-685.431"/>
</g>
<!-- Node7 -->
<g id="node7" class="node"><title>Node7</title>
<g id="a_node7"><a xlink:href="../../d0/dcc/rletorla_8c.html#ab7e36af3707843f77cc5b4e831c2fa6d" target="_top" xlink:title="malloc">
<polygon fill="white" stroke="black" points="488.5,-570.5 488.5,-589.5 535.5,-589.5 535.5,-570.5 488.5,-570.5"/>
<text text-anchor="middle" x="512" y="-577.5" font-family="Helvetica,sans-Serif" font-size="10.00">malloc</text>
</a>
</g>
</g>
<!-- Node1&#45;&gt;Node7 -->
<g id="edge43" class="edge"><title>Node1&#45;&gt;Node7</title>
<path fill="none" stroke="midnightblue" d="M26.5402,-475.584C35.4026,-488.733 53.2583,-511.99 75,-523 148.574,-560.258 361.232,-560.256 443,-571 454.453,-572.505 466.989,-574.161 478.144,-575.639"/>
<polygon fill="midnightblue" stroke="midnightblue" points="477.962,-579.145 488.335,-576.989 478.881,-572.206 477.962,-579.145"/>
</g>
<!-- Node8 -->
<g id="node8" class="node"><title>Node8</title>
<g id="a_node8"><a xlink:href="../../d2/df3/rle__hdr_8c.html#a82e79385f2d45cc3b80ce0f4f369eae5" target="_top" xlink:title="rle_names">
<polygon fill="white" stroke="black" points="359,-684.5 359,-703.5 425,-703.5 425,-684.5 359,-684.5"/>
<text text-anchor="middle" x="392" y="-691.5" font-family="Helvetica,sans-Serif" font-size="10.00">rle_names</text>
</a>
</g>
</g>
<!-- Node1&#45;&gt;Node8 -->
<g id="edge18" class="edge"><title>Node1&#45;&gt;Node8</title>
<path fill="none" stroke="midnightblue" d="M21.0806,-475.726C23.8043,-517.669 36.8295,-682.334 75,-713 154.69,-777.023 203.381,-724.092 305,-713 319.433,-711.425 334.991,-708.404 348.853,-705.227"/>
<polygon fill="midnightblue" stroke="midnightblue" points="349.69,-708.626 358.607,-702.904 348.069,-701.816 349.69,-708.626"/>
</g>
<!-- Node9 -->
<g id="node9" class="node"><title>Node9</title>
<g id="a_node9"><a xlink:href="../../d4/db0/scanargs_8c.html#a7ea6d702c0484056c8504d6ce7fede08" target="_top" xlink:title="scanargs">
<polygon fill="white" stroke="black" points="100,-380.5 100,-399.5 160,-399.5 160,-380.5 100,-380.5"/>
<text text-anchor="middle" x="130" y="-387.5" font-family="Helvetica,sans-Serif" font-size="10.00">scanargs</text>
</a>
</g>
</g>
<!-- Node1&#45;&gt;Node9 -->
<g id="edge11" class="edge"><title>Node1&#45;&gt;Node9</title>
<path fill="none" stroke="midnightblue" d="M28.921,-456.124C38.9783,-444.799 56.7447,-426.225 75,-414 80.7273,-410.165 87.1679,-406.689 93.5529,-403.649"/>
<polygon fill="midnightblue" stroke="midnightblue" points="95.0837,-406.799 102.778,-399.515 92.2213,-400.411 95.0837,-406.799"/>
</g>
<!-- Node11 -->
<g id="node11" class="node"><title>Node11</title>
<g id="a_node11"><a xlink:href="../../de/d4e/rle__open__f_8c.html#a89733a45961817885603ae01210290b7" target="_top" xlink:title="rle_open_f">
<polygon fill="white" stroke="black" points="229,-570.5 229,-589.5 297,-589.5 297,-570.5 229,-570.5"/>
<text text-anchor="middle" x="263" y="-577.5" font-family="Helvetica,sans-Serif" font-size="10.00">rle_open_f</text>
</a>
</g>
</g>
<!-- Node1&#45;&gt;Node11 -->
<g id="edge13" class="edge"><title>Node1&#45;&gt;Node11</title>
<path fill="none" stroke="midnightblue" d="M23.2235,-475.585C29.1512,-494.521 45.1465,-536.57 75,-556 117.901,-583.922 178.172,-586.686 218.581,-584.61"/>
<polygon fill="midnightblue" stroke="midnightblue" points="218.899,-588.097 228.657,-583.971 218.456,-581.111 218.899,-588.097"/>
</g>
<!-- Node14 -->
<g id="node14" class="node"><title>Node14</title>
<g id="a_node14"><a xlink:href="../../d1/ded/rledither_8c.html#ac28755f898735e09c03dc5960b6108a5" target="_top" xlink:title="allocmap">
<polygon fill="white" stroke="black" points="100.5,-342.5 100.5,-361.5 159.5,-361.5 159.5,-342.5 100.5,-342.5"/>
<text text-anchor="middle" x="130" y="-349.5" font-family="Helvetica,sans-Serif" font-size="10.00">allocmap</text>
</a>
</g>
</g>
<!-- Node1&#45;&gt;Node14 -->
<g id="edge19" class="edge"><title>Node1&#45;&gt;Node14</title>
<path fill="none" stroke="midnightblue" d="M23.4543,-456.429C29.797,-437.424 46.5016,-394.72 75,-371 79.6489,-367.131 85.1393,-364.027 90.8083,-361.544"/>
<polygon fill="midnightblue" stroke="midnightblue" points="92.2796,-364.73 100.401,-357.926 89.8088,-358.181 92.2796,-364.73"/>
</g>
<!-- Node15 -->
<g id="node15" class="node"><title>Node15</title>
<g id="a_node15"><a xlink:href="../../d1/ded/rledither_8c.html#ab0be8bee73fcbc08474b62e5f9eea431" target="_top" xlink:title="filemap">
<polygon fill="white" stroke="black" points="105,-304.5 105,-323.5 155,-323.5 155,-304.5 105,-304.5"/>
<text text-anchor="middle" x="130" y="-311.5" font-family="Helvetica,sans-Serif" font-size="10.00">filemap</text>
</a>
</g>
</g>
<!-- Node1&#45;&gt;Node15 -->
<g id="edge20" class="edge"><title>Node1&#45;&gt;Node15</title>
<path fill="none" stroke="midnightblue" d="M21.7128,-456.464C25.2797,-432.33 37.9248,-368.246 75,-333 80.5958,-327.68 87.7683,-323.84 95.0452,-321.07"/>
<polygon fill="midnightblue" stroke="midnightblue" points="96.4367,-324.3 104.895,-317.919 94.3038,-317.633 96.4367,-324.3"/>
</g>
<!-- Node16 -->
<g id="node16" class="node"><title>Node16</title>
<g id="a_node16"><a xlink:href="../../d1/ded/rledither_8c.html#aa21d69c82eaff0da90ce64b5797dd635" target="_top" xlink:title="copymap">
<polygon fill="white" stroke="black" points="100.5,-266.5 100.5,-285.5 159.5,-285.5 159.5,-266.5 100.5,-266.5"/>
<text text-anchor="middle" x="130" y="-273.5" font-family="Helvetica,sans-Serif" font-size="10.00">copymap</text>
</a>
</g>
</g>
<!-- Node1&#45;&gt;Node16 -->
<g id="edge21" class="edge"><title>Node1&#45;&gt;Node16</title>
<path fill="none" stroke="midnightblue" d="M20.7152,-456.379C21.8777,-427.752 29.2087,-342.176 75,-295 79.4517,-290.414 85.0748,-286.933 90.9997,-284.291"/>
<polygon fill="midnightblue" stroke="midnightblue" points="92.2746,-287.551 100.434,-280.792 89.8406,-280.988 92.2746,-287.551"/>
</g>
<!-- Node17 -->
<g id="node17" class="node"><title>Node17</title>
<g id="a_node17"><a xlink:href="../../d1/ded/rledither_8c.html#a540d37c59f628d39fa9ac83bf0abbf9f" target="_top" xlink:title="shiftmap">
<polygon fill="white" stroke="black" points="102,-228.5 102,-247.5 158,-247.5 158,-228.5 102,-228.5"/>
<text text-anchor="middle" x="130" y="-235.5" font-family="Helvetica,sans-Serif" font-size="10.00">shiftmap</text>
</a>
</g>
</g>
<!-- Node1&#45;&gt;Node17 -->
<g id="edge22" class="edge"><title>Node1&#45;&gt;Node17</title>
<path fill="none" stroke="midnightblue" d="M20.0456,-456.2C19.0744,-423.42 20.4137,-316.33 75,-257 79.7019,-251.889 85.8601,-248.153 92.3293,-245.422"/>
<polygon fill="midnightblue" stroke="midnightblue" points="93.6004,-248.686 101.897,-242.096 91.3018,-242.074 93.6004,-248.686"/>
</g>
<!-- Node18 -->
<g id="node18" class="node"><title>Node18</title>
<g id="a_node18"><a xlink:href="../../db/d53/rle__getrow_8c.html#a619b27463c26e0a4a3d9648a9869ee52" target="_top" xlink:title="rle_get_setup">
<polygon fill="white" stroke="black" points="222.5,-798.5 222.5,-817.5 303.5,-817.5 303.5,-798.5 222.5,-798.5"/>
<text text-anchor="middle" x="263" y="-805.5" font-family="Helvetica,sans-Serif" font-size="10.00">rle_get_setup</text>
</a>
</g>
</g>
<!-- Node1&#45;&gt;Node18 -->
<g id="edge23" class="edge"><title>Node1&#45;&gt;Node18</title>
<path fill="none" stroke="midnightblue" d="M21.1047,-475.779C24.0515,-520.395 38.2845,-704.26 75,-746 109.539,-785.265 169.524,-799.744 212.24,-805.038"/>
<polygon fill="midnightblue" stroke="midnightblue" points="212.105,-808.544 222.43,-806.168 212.877,-801.587 212.105,-808.544"/>
</g>
<!-- Node20 -->
<g id="node20" class="node"><title>Node20</title>
<g id="a_node20"><a xlink:href="../../d8/def/rle__addhist_8c.html#a4f9433d6e4e203d0ecea1c7d3837afc3" target="_top" xlink:title="rle_addhist">
<polygon fill="white" stroke="black" points="95.5,-456.5 95.5,-475.5 164.5,-475.5 164.5,-456.5 95.5,-456.5"/>
<text text-anchor="middle" x="130" y="-463.5" font-family="Helvetica,sans-Serif" font-size="10.00">rle_addhist</text>
</a>
</g>
</g>
<!-- Node1&#45;&gt;Node20 -->
<g id="edge30" class="edge"><title>Node1&#45;&gt;Node20</title>
<path fill="none" stroke="midnightblue" d="M39.3993,-466C52.0498,-466 69.2427,-466 85.186,-466"/>
<polygon fill="midnightblue" stroke="midnightblue" points="85.4223,-469.5 95.4222,-466 85.4222,-462.5 85.4223,-469.5"/>
</g>
<!-- Node23 -->
<g id="node23" class="node"><title>Node23</title>
<g id="a_node23"><a xlink:href="../../df/da5/rle__putcom_8c.html#a6fa8528c32d14763efe2a534e409e321" target="_top" xlink:title="rle_putcom">
<polygon fill="white" stroke="black" points="229,-342.5 229,-361.5 297,-361.5 297,-342.5 229,-342.5"/>
<text text-anchor="middle" x="263" y="-349.5" font-family="Helvetica,sans-Serif" font-size="10.00">rle_putcom</text>
</a>
</g>
</g>
<!-- Node1&#45;&gt;Node23 -->
<g id="edge37" class="edge"><title>Node1&#45;&gt;Node23</title>
<path fill="none" stroke="midnightblue" d="M39.1611,-459.48C49.6833,-455.807 63.0723,-451.139 75,-447 123.865,-430.042 140.564,-435.472 185,-409 203.647,-397.891 203.536,-388.888 221,-376 225.287,-372.836 230.02,-369.741 234.703,-366.882"/>
<polygon fill="midnightblue" stroke="midnightblue" points="236.656,-369.794 243.512,-361.716 233.115,-363.755 236.656,-369.794"/>
</g>
<!-- Node25 -->
<g id="node25" class="node"><title>Node25</title>
<g id="a_node25"><a xlink:href="../../d9/d2a/rle__putrow_8c.html#af88a82b331cd6f425d2a2cc1623944c6" target="_top" xlink:title="rle_put_setup">
<polygon fill="white" stroke="black" points="90,-190.5 90,-209.5 170,-209.5 170,-190.5 90,-190.5"/>
<text text-anchor="middle" x="130" y="-197.5" font-family="Helvetica,sans-Serif" font-size="10.00">rle_put_setup</text>
</a>
</g>
</g>
<!-- Node1&#45;&gt;Node25 -->
<g id="edge38" class="edge"><title>Node1&#45;&gt;Node25</title>
<path fill="none" stroke="midnightblue" d="M21.3916,-456.297C25.3533,-415.157 42.61,-255.573 75,-219 76.7585,-217.014 78.7372,-215.236 80.8711,-213.644"/>
<polygon fill="midnightblue" stroke="midnightblue" points="82.9244,-216.495 89.7332,-208.378 79.3485,-210.478 82.9244,-216.495"/>
</g>
<!-- Node27 -->
<g id="node27" class="node"><title>Node27</title>
<g id="a_node27"><a xlink:href="../../da/dbc/rle__row__alc_8c.html#abf83029f1ab364a8cb72524f58d70a3b" target="_top" xlink:title="rle_row_alloc">
<polygon fill="white" stroke="black" points="352,-646.5 352,-665.5 432,-665.5 432,-646.5 352,-646.5"/>
<text text-anchor="middle" x="392" y="-653.5" font-family="Helvetica,sans-Serif" font-size="10.00">rle_row_alloc</text>
</a>
</g>
</g>
<!-- Node1&#45;&gt;Node27 -->
<g id="edge40" class="edge"><title>Node1&#45;&gt;Node27</title>
<path fill="none" stroke="midnightblue" d="M22.0248,-475.705C26.1274,-498.423 39.587,-555.3 75,-584 115.58,-616.888 263.511,-639.943 341.736,-650.129"/>
<polygon fill="midnightblue" stroke="midnightblue" points="341.471,-653.624 351.834,-651.423 342.36,-646.68 341.471,-653.624"/>
</g>
<!-- Node28 -->
<g id="node28" class="node"><title>Node28</title>
<g id="a_node28"><a xlink:href="../../db/d53/rle__getrow_8c.html#a3602e1158189cba5e5b0f9b983cba776" target="_top" xlink:title="rle_getrow">
<polygon fill="white" stroke="black" points="96.5,-152.5 96.5,-171.5 163.5,-171.5 163.5,-152.5 96.5,-152.5"/>
<text text-anchor="middle" x="130" y="-159.5" font-family="Helvetica,sans-Serif" font-size="10.00">rle_getrow</text>
</a>
</g>
</g>
<!-- Node1&#45;&gt;Node28 -->
<g id="edge44" class="edge"><title>Node1&#45;&gt;Node28</title>
<path fill="none" stroke="midnightblue" d="M21.0775,-456.364C23.946,-411.558 38.0283,-223.952 75,-181 78.2722,-177.199 82.3529,-174.158 86.7962,-171.725"/>
<polygon fill="midnightblue" stroke="midnightblue" points="88.5482,-174.777 96.2831,-167.537 85.7213,-168.374 88.5482,-174.777"/>
</g>
<!-- Node31 -->
<g id="node31" class="node"><title>Node31</title>
<g id="a_node31"><a xlink:href="../../d1/ded/rledither_8c.html#aeb629bb76c6fd6af9f28a8e98865bdca" target="_top" xlink:title="copy_into_shortrow">
<polygon fill="white" stroke="black" points="75,-114.5 75,-133.5 185,-133.5 185,-114.5 75,-114.5"/>
<text text-anchor="middle" x="130" y="-121.5" font-family="Helvetica,sans-Serif" font-size="10.00">copy_into_shortrow</text>
</a>
</g>
</g>
<!-- Node1&#45;&gt;Node31 -->
<g id="edge47" class="edge"><title>Node1&#45;&gt;Node31</title>
<path fill="none" stroke="midnightblue" d="M20.8392,-456.405C22.7295,-408.152 33.4273,-192.375 75,-143 76.0202,-141.788 77.1226,-140.654 78.2931,-139.592"/>
<polygon fill="midnightblue" stroke="midnightblue" points="80.6831,-142.19 86.8557,-133.579 76.6605,-136.462 80.6831,-142.19"/>
</g>
<!-- Node32 -->
<g id="node32" class="node"><title>Node32</title>
<g id="a_node32"><a xlink:href="../../d1/ded/rledither_8c.html#a5a874fb61e6b89a59b8823a198418fcc" target="_top" xlink:title="edge_enhance">
<polygon fill="white" stroke="black" points="86,-76.5 86,-95.5 174,-95.5 174,-76.5 86,-76.5"/>
<text text-anchor="middle" x="130" y="-83.5" font-family="Helvetica,sans-Serif" font-size="10.00">edge_enhance</text>
</a>
</g>
</g>
<!-- Node1&#45;&gt;Node32 -->
<g id="edge48" class="edge"><title>Node1&#45;&gt;Node32</title>
<path fill="none" stroke="midnightblue" d="M20.6536,-456.329C21.6629,-404.595 28.84,-160.797 75,-105 76.0096,-103.78 77.1029,-102.637 78.2653,-101.569"/>
<polygon fill="midnightblue" stroke="midnightblue" points="80.6567,-104.164 86.7909,-95.5252 76.6086,-98.4529 80.6567,-104.164"/>
</g>
<!-- Node33 -->
<g id="node33" class="node"><title>Node33</title>
<g id="a_node33"><a xlink:href="../../d1/ded/rledither_8c.html#ad3cf6dc236aef4af464771cf487bf3f1" target="_top" xlink:title="fsdither">
<polygon fill="white" stroke="black" points="104,-38.5 104,-57.5 156,-57.5 156,-38.5 104,-38.5"/>
<text text-anchor="middle" x="130" y="-45.5" font-family="Helvetica,sans-Serif" font-size="10.00">fsdither</text>
</a>
</g>
</g>
<!-- Node1&#45;&gt;Node33 -->
<g id="edge49" class="edge"><title>Node1&#45;&gt;Node33</title>
<path fill="none" stroke="midnightblue" d="M20.4999,-456.417C20.6869,-401.725 24.1877,-129.309 75,-67 79.8795,-61.0165 86.7704,-56.9148 94.0026,-54.1038"/>
<polygon fill="midnightblue" stroke="midnightblue" points="95.4125,-57.3306 103.919,-51.0153 93.331,-50.6473 95.4125,-57.3306"/>
</g>
<!-- Node34 -->
<g id="node34" class="node"><title>Node34</title>
<g id="a_node34"><a xlink:href="../../d9/d2a/rle__putrow_8c.html#aa26532b01bc4f49b7383765cdc23ea72" target="_top" xlink:title="rle_putrow">
<polygon fill="white" stroke="black" points="97,-494.5 97,-513.5 163,-513.5 163,-494.5 97,-494.5"/>
<text text-anchor="middle" x="130" y="-501.5" font-family="Helvetica,sans-Serif" font-size="10.00">rle_putrow</text>
</a>
</g>
</g>
<!-- Node1&#45;&gt;Node34 -->
<g id="edge50" class="edge"><title>Node1&#45;&gt;Node34</title>
<path fill="none" stroke="midnightblue" d="M39.3993,-472.619C53.948,-477.715 74.5048,-484.914 92.2592,-491.132"/>
<polygon fill="midnightblue" stroke="midnightblue" points="91.1836,-494.464 101.778,-494.466 93.4974,-487.857 91.1836,-494.464"/>
</g>
<!-- Node36 -->
<g id="node36" class="node"><title>Node36</title>
<g id="a_node36"><a xlink:href="../../d9/d2a/rle__putrow_8c.html#af4fab734a5d227ad2ae95840f56fff3b" target="_top" xlink:title="rle_puteof">
<polygon fill="white" stroke="black" points="360,-950.5 360,-969.5 424,-969.5 424,-950.5 360,-950.5"/>
<text text-anchor="middle" x="392" y="-957.5" font-family="Helvetica,sans-Serif" font-size="10.00">rle_puteof</text>
</a>
</g>
</g>
<!-- Node1&#45;&gt;Node36 -->
<g id="edge53" class="edge"><title>Node1&#45;&gt;Node36</title>
<path fill="none" stroke="midnightblue" d="M20.9343,-475.674C23.8692,-539.023 41.6985,-893.054 75,-926 148.128,-998.347 282.332,-983.353 349.874,-969.861"/>
<polygon fill="midnightblue" stroke="midnightblue" points="350.656,-973.273 359.731,-967.807 349.228,-966.42 350.656,-973.273"/>
</g>
<!-- Node37 -->
<g id="node37" class="node"><title>Node37</title>
<g id="a_node37"><a xlink:href="../../da/dbc/rle__row__alc_8c.html#a4fa936a985e542d42e91d272f9f6092d" target="_top" xlink:title="rle_row_free">
<polygon fill="white" stroke="black" points="353.5,-912.5 353.5,-931.5 430.5,-931.5 430.5,-912.5 353.5,-912.5"/>
<text text-anchor="middle" x="392" y="-919.5" font-family="Helvetica,sans-Serif" font-size="10.00">rle_row_free</text>
</a>
</g>
</g>
<!-- Node1&#45;&gt;Node37 -->
<g id="edge55" class="edge"><title>Node1&#45;&gt;Node37</title>
<path fill="none" stroke="midnightblue" d="M21.0097,-475.882C24.2841,-537.536 43.2364,-867.777 75,-898 112.383,-933.57 264.64,-929.899 343.358,-925.396"/>
<polygon fill="midnightblue" stroke="midnightblue" points="343.726,-928.88 353.499,-924.788 343.307,-921.893 343.726,-928.88"/>
</g>
<!-- Node38 -->
<g id="node38" class="node"><title>Node38</title>
<g id="a_node38"><a xlink:href="../../d7/d24/rle__error_8c.html#af931d686cf3ca715c9b900527f0961c0" target="_top" xlink:title="rle_get_error">
<polygon fill="white" stroke="black" points="90.5,-0.5 90.5,-19.5 169.5,-19.5 169.5,-0.5 90.5,-0.5"/>
<text text-anchor="middle" x="130" y="-7.5" font-family="Helvetica,sans-Serif" font-size="10.00">rle_get_error</text>
</a>
</g>
</g>
<!-- Node1&#45;&gt;Node38 -->
<g id="edge58" class="edge"><title>Node1&#45;&gt;Node38</title>
<path fill="none" stroke="midnightblue" d="M20.3725,-456.279C19.8029,-398.246 19.5922,-97.7605 75,-29 76.9,-26.6421 79.1126,-24.5764 81.5366,-22.7666"/>
<polygon fill="midnightblue" stroke="midnightblue" points="83.5861,-25.6224 90.4449,-17.5472 80.0474,-19.5827 83.5861,-25.6224"/>
</g>
<!-- Node4 -->
<g id="node4" class="node"><title>Node4</title>
<g id="a_node4"><a xlink:href="../../d2/df3/rle__hdr_8c.html#a16c4da6201b3b8cf55127b9ca968d253" target="_top" xlink:title="rle_hdr_clear">
<polygon fill="white" stroke="black" points="352,-760.5 352,-779.5 432,-779.5 432,-760.5 352,-760.5"/>
<text text-anchor="middle" x="392" y="-767.5" font-family="Helvetica,sans-Serif" font-size="10.00">rle_hdr_clear</text>
</a>
</g>
</g>
<!-- Node3&#45;&gt;Node4 -->
<g id="edge3" class="edge"><title>Node3&#45;&gt;Node4</title>
<path fill="none" stroke="midnightblue" d="M163.666,-703.548C210.464,-717.228 296.638,-742.417 348.393,-757.546"/>
<polygon fill="midnightblue" stroke="midnightblue" points="347.683,-760.984 358.263,-760.431 349.647,-754.266 347.683,-760.984"/>
</g>
<!-- Node3&#45;&gt;Node6 -->
<g id="edge5" class="edge"><title>Node3&#45;&gt;Node6</title>
<path fill="none" stroke="midnightblue" d="M165.077,-687.994C181.4,-687.157 201.134,-687.026 218.525,-687.601"/>
<polygon fill="midnightblue" stroke="midnightblue" points="218.858,-691.119 228.999,-688.051 219.158,-684.125 218.858,-691.119"/>
</g>
<!-- Node4&#45;&gt;Node5 -->
<g id="edge4" class="edge"><title>Node4&#45;&gt;Node5</title>
<path fill="none" stroke="midnightblue" d="M422.776,-779.589C441.813,-785.72 466.281,-793.599 484.618,-799.504"/>
<polygon fill="midnightblue" stroke="midnightblue" points="483.768,-802.907 494.359,-802.641 485.914,-796.244 483.768,-802.907"/>
</g>
<!-- Node6&#45;&gt;Node3 -->
<g id="edge6" class="edge"><title>Node6&#45;&gt;Node3</title>
<path fill="none" stroke="midnightblue" d="M228.999,-699.949C212.677,-700.826 192.749,-700.983 175.135,-700.42"/>
<polygon fill="midnightblue" stroke="midnightblue" points="175.212,-696.92 165.077,-700.006 174.924,-703.915 175.212,-696.92"/>
</g>
<!-- Node6&#45;&gt;Node7 -->
<g id="edge7" class="edge"><title>Node6&#45;&gt;Node7</title>
<path fill="none" stroke="midnightblue" d="M268.537,-684.386C278.489,-664.508 304.306,-619.069 341,-599 383.975,-575.496 442.141,-574.391 478.085,-576.58"/>
<polygon fill="midnightblue" stroke="midnightblue" points="478.255,-580.102 488.485,-577.344 478.768,-573.12 478.255,-580.102"/>
</g>
<!-- Node6&#45;&gt;Node8 -->
<g id="edge8" class="edge"><title>Node6&#45;&gt;Node8</title>
<path fill="none" stroke="midnightblue" d="M297.036,-694C312.739,-694 331.699,-694 348.463,-694"/>
<polygon fill="midnightblue" stroke="midnightblue" points="348.569,-697.5 358.569,-694 348.569,-690.5 348.569,-697.5"/>
</g>
<!-- Node8&#45;&gt;Node5 -->
<g id="edge9" class="edge"><title>Node8&#45;&gt;Node5</title>
<path fill="none" stroke="midnightblue" d="M403.061,-703.72C423.177,-723.154 468.573,-767.011 493.609,-791.199"/>
<polygon fill="midnightblue" stroke="midnightblue" points="491.341,-793.874 500.965,-798.305 496.205,-788.84 491.341,-793.874"/>
</g>
<!-- Node8&#45;&gt;Node7 -->
<g id="edge10" class="edge"><title>Node8&#45;&gt;Node7</title>
<path fill="none" stroke="midnightblue" d="M425.228,-685.915C431.645,-683.218 437.952,-679.663 443,-675 470.454,-649.639 453.835,-626.634 479,-599 480.033,-597.865 481.15,-596.778 482.326,-595.738"/>
<polygon fill="midnightblue" stroke="midnightblue" points="484.709,-598.331 490.69,-589.586 480.561,-592.692 484.709,-598.331"/>
</g>
<!-- Node10 -->
<g id="node10" class="node"><title>Node10</title>
<g id="a_node10"><a xlink:href="../../d4/db0/scanargs_8c.html#a862219039664df6eb3cfced58addf830" target="_top" xlink:title="_do_scanargs">
<polygon fill="white" stroke="black" points="221,-304.5 221,-323.5 305,-323.5 305,-304.5 221,-304.5"/>
<text text-anchor="middle" x="263" y="-311.5" font-family="Helvetica,sans-Serif" font-size="10.00">_do_scanargs</text>
</a>
</g>
</g>
<!-- Node9&#45;&gt;Node10 -->
<g id="edge12" class="edge"><title>Node9&#45;&gt;Node10</title>
<path fill="none" stroke="midnightblue" d="M160.204,-382.533C168.594,-379.66 177.496,-375.867 185,-371 204.519,-358.341 202.109,-346.578 221,-333 223.329,-331.326 225.829,-329.742 228.404,-328.258"/>
<polygon fill="midnightblue" stroke="midnightblue" points="230.066,-331.339 237.306,-323.603 226.823,-325.135 230.066,-331.339"/>
</g>
<!-- Node12 -->
<g id="node12" class="node"><title>Node12</title>
<g id="a_node12"><a xlink:href="../../de/d4e/rle__open__f_8c.html#a5a0e62a00f907fce26e93b2f72adb2b0" target="_top" xlink:title="rle_open_f_noexit">
<polygon fill="white" stroke="black" points="341,-608.5 341,-627.5 443,-627.5 443,-608.5 341,-608.5"/>
<text text-anchor="middle" x="392" y="-615.5" font-family="Helvetica,sans-Serif" font-size="10.00">rle_open_f_noexit</text>
</a>
</g>
</g>
<!-- Node11&#45;&gt;Node12 -->
<g id="edge14" class="edge"><title>Node11&#45;&gt;Node12</title>
<path fill="none" stroke="midnightblue" d="M296.047,-589.589C312.141,-594.404 331.841,-600.299 349.117,-605.468"/>
<polygon fill="midnightblue" stroke="midnightblue" points="348.379,-608.901 358.963,-608.414 350.386,-602.194 348.379,-608.901"/>
</g>
<!-- Node12&#45;&gt;Node5 -->
<g id="edge17" class="edge"><title>Node12&#45;&gt;Node5</title>
<path fill="none" stroke="midnightblue" d="M429.322,-627.608C434.336,-630.074 439.096,-633.156 443,-637 486.341,-679.681 502.827,-753.462 508.431,-788.474"/>
<polygon fill="midnightblue" stroke="midnightblue" points="504.971,-789.006 509.888,-798.391 511.897,-787.988 504.971,-789.006"/>
</g>
<!-- Node12&#45;&gt;Node7 -->
<g id="edge16" class="edge"><title>Node12&#45;&gt;Node7</title>
<path fill="none" stroke="midnightblue" d="M422.776,-608.411C439.784,-602.934 461.127,-596.061 478.559,-590.447"/>
<polygon fill="midnightblue" stroke="midnightblue" points="479.864,-593.704 488.31,-587.307 477.718,-587.041 479.864,-593.704"/>
</g>
<!-- Node13 -->
<g id="node13" class="node"><title>Node13</title>
<g id="a_node13"><a xlink:href="../../de/d4e/rle__open__f_8c.html#a84fda810ae9b9bde82a6391d0b264ead" target="_top" xlink:title="my_popen">
<polygon fill="white" stroke="black" points="479,-608.5 479,-627.5 545,-627.5 545,-608.5 479,-608.5"/>
<text text-anchor="middle" x="512" y="-615.5" font-family="Helvetica,sans-Serif" font-size="10.00">my_popen</text>
</a>
</g>
</g>
<!-- Node12&#45;&gt;Node13 -->
<g id="edge15" class="edge"><title>Node12&#45;&gt;Node13</title>
<path fill="none" stroke="midnightblue" d="M443.043,-618C451.523,-618 460.255,-618 468.518,-618"/>
<polygon fill="midnightblue" stroke="midnightblue" points="468.678,-621.5 478.678,-618 468.678,-614.5 468.678,-621.5"/>
</g>
<!-- Node18&#45;&gt;Node4 -->
<g id="edge24" class="edge"><title>Node18&#45;&gt;Node4</title>
<path fill="none" stroke="midnightblue" d="M296.047,-798.411C312.141,-793.596 331.841,-787.701 349.117,-782.532"/>
<polygon fill="midnightblue" stroke="midnightblue" points="350.386,-785.806 358.963,-779.586 348.379,-779.099 350.386,-785.806"/>
</g>
<!-- Node18&#45;&gt;Node5 -->
<g id="edge27" class="edge"><title>Node18&#45;&gt;Node5</title>
<path fill="none" stroke="midnightblue" d="M295.15,-817.506C309.04,-821.27 325.691,-825.139 341,-827 386.002,-832.47 398.087,-833.157 443,-827 456.947,-825.088 472.065,-821.068 484.497,-817.216"/>
<polygon fill="midnightblue" stroke="midnightblue" points="485.786,-820.477 494.224,-814.069 483.632,-813.817 485.786,-820.477"/>
</g>
<!-- Node18&#45;&gt;Node7 -->
<g id="edge26" class="edge"><title>Node18&#45;&gt;Node7</title>
<path fill="none" stroke="midnightblue" d="M274.809,-798.448C289.131,-786.171 315.56,-764.797 341,-751 383.526,-727.937 409.671,-748.065 443,-713 479.605,-674.488 445.987,-640.633 479,-599 479.813,-597.975 480.697,-596.993 481.637,-596.054"/>
<polygon fill="midnightblue" stroke="midnightblue" points="483.998,-598.649 489.649,-589.687 479.643,-593.168 483.998,-598.649"/>
</g>
<!-- Node18&#45;&gt;Node8 -->
<g id="edge25" class="edge"><title>Node18&#45;&gt;Node8</title>
<path fill="none" stroke="midnightblue" d="M270.162,-798.449C282.036,-780.655 309.697,-742.06 341,-718 345.793,-714.316 351.242,-710.996 356.737,-708.082"/>
<polygon fill="midnightblue" stroke="midnightblue" points="358.489,-711.121 365.922,-703.57 355.403,-704.838 358.489,-711.121"/>
</g>
<!-- Node19 -->
<g id="node19" class="node"><title>Node19</title>
<g id="a_node19"><a xlink:href="../../db/d53/rle__getrow_8c.html#a0ea68aa2ebeef9d4cade7282553b03d6" target="_top" xlink:title="vax_gshort">
<polygon fill="white" stroke="black" points="357.5,-798.5 357.5,-817.5 426.5,-817.5 426.5,-798.5 357.5,-798.5"/>
<text text-anchor="middle" x="392" y="-805.5" font-family="Helvetica,sans-Serif" font-size="10.00">vax_gshort</text>
</a>
</g>
</g>
<!-- Node18&#45;&gt;Node19 -->
<g id="edge28" class="edge"><title>Node18&#45;&gt;Node19</title>
<path fill="none" stroke="midnightblue" d="M303.835,-808C317.516,-808 332.906,-808 346.905,-808"/>
<polygon fill="midnightblue" stroke="midnightblue" points="347.287,-811.5 357.287,-808 347.287,-804.5 347.287,-811.5"/>
</g>
<!-- Node20&#45;&gt;Node7 -->
<g id="edge33" class="edge"><title>Node20&#45;&gt;Node7</title>
<path fill="none" stroke="midnightblue" d="M157.159,-456.389C166.302,-452.515 176.419,-447.623 185,-442 203.154,-430.104 200.771,-416.869 221,-409 312.955,-373.231 361.353,-353.602 443,-409 494.033,-443.626 506.767,-523.258 509.944,-560.337"/>
<polygon fill="midnightblue" stroke="midnightblue" points="506.458,-560.653 510.655,-570.381 513.44,-560.159 506.458,-560.653"/>
</g>
<!-- Node21 -->
<g id="node21" class="node"><title>Node21</title>
<g id="a_node21"><a xlink:href="../../db/db2/rle__getcom_8c.html#a9cefd612c381bf82c9cdf1f3a3b12dd6" target="_top" xlink:title="rle_getcom">
<polygon fill="white" stroke="black" points="228.5,-418.5 228.5,-437.5 297.5,-437.5 297.5,-418.5 228.5,-418.5"/>
<text text-anchor="middle" x="263" y="-425.5" font-family="Helvetica,sans-Serif" font-size="10.00">rle_getcom</text>
</a>
</g>
</g>
<!-- Node20&#45;&gt;Node21 -->
<g id="edge31" class="edge"><title>Node20&#45;&gt;Node21</title>
<path fill="none" stroke="midnightblue" d="M164.057,-456.411C180.813,-451.551 201.358,-445.591 219.297,-440.387"/>
<polygon fill="midnightblue" stroke="midnightblue" points="220.325,-443.733 228.954,-437.586 218.375,-437.01 220.325,-443.733"/>
</g>
<!-- Node20&#45;&gt;Node23 -->
<g id="edge34" class="edge"><title>Node20&#45;&gt;Node23</title>
<path fill="none" stroke="midnightblue" d="M161.669,-456.465C169.907,-452.868 178.363,-448.12 185,-442 209.565,-419.351 197.733,-399.981 221,-376 224.254,-372.646 228.076,-369.601 232.055,-366.893"/>
<polygon fill="midnightblue" stroke="midnightblue" points="234.15,-369.714 240.857,-361.512 230.499,-363.742 234.15,-369.714"/>
</g>
<!-- Node22 -->
<g id="node22" class="node"><title>Node22</title>
<g id="a_node22"><a xlink:href="../../db/db2/rle__getcom_8c.html#a7502c8b599724ce86fee5df1311a2337" target="_top" xlink:title="match">
<polygon fill="white" stroke="black" points="369.5,-418.5 369.5,-437.5 414.5,-437.5 414.5,-418.5 369.5,-418.5"/>
<text text-anchor="middle" x="392" y="-425.5" font-family="Helvetica,sans-Serif" font-size="10.00">match</text>
</a>
</g>
</g>
<!-- Node21&#45;&gt;Node22 -->
<g id="edge32" class="edge"><title>Node21&#45;&gt;Node22</title>
<path fill="none" stroke="midnightblue" d="M297.7,-428C316.709,-428 340.325,-428 359.041,-428"/>
<polygon fill="midnightblue" stroke="midnightblue" points="359.148,-431.5 369.148,-428 359.148,-424.5 359.148,-431.5"/>
</g>
<!-- Node23&#45;&gt;Node7 -->
<g id="edge35" class="edge"><title>Node23&#45;&gt;Node7</title>
<path fill="none" stroke="midnightblue" d="M295.15,-342.494C309.04,-338.73 325.691,-334.861 341,-333 386.002,-327.53 406.94,-305.526 443,-333 479.828,-361.059 501.729,-506.839 508.624,-560.31"/>
<polygon fill="midnightblue" stroke="midnightblue" points="505.153,-560.756 509.868,-570.243 512.098,-559.886 505.153,-560.756"/>
</g>
<!-- Node24 -->
<g id="node24" class="node"><title>Node24</title>
<g id="a_node24"><a xlink:href="../../df/da5/rle__putcom_8c.html#a7502c8b599724ce86fee5df1311a2337" target="_top" xlink:title="match">
<polygon fill="white" stroke="black" points="369.5,-342.5 369.5,-361.5 414.5,-361.5 414.5,-342.5 369.5,-342.5"/>
<text text-anchor="middle" x="392" y="-349.5" font-family="Helvetica,sans-Serif" font-size="10.00">match</text>
</a>
</g>
</g>
<!-- Node23&#45;&gt;Node24 -->
<g id="edge36" class="edge"><title>Node23&#45;&gt;Node24</title>
<path fill="none" stroke="midnightblue" d="M297.036,-352C316.171,-352 340.142,-352 359.083,-352"/>
<polygon fill="midnightblue" stroke="midnightblue" points="359.302,-355.5 369.302,-352 359.302,-348.5 359.302,-355.5"/>
</g>
<!-- Node26 -->
<g id="node26" class="node"><title>Node26</title>
<g id="a_node26"><a xlink:href="../../d9/d2a/rle__putrow_8c.html#a46d9789104d5d1f09253a808fdad5346" target="_top" xlink:title="rle_put_init">
<polygon fill="white" stroke="black" points="229,-190.5 229,-209.5 297,-209.5 297,-190.5 229,-190.5"/>
<text text-anchor="middle" x="263" y="-197.5" font-family="Helvetica,sans-Serif" font-size="10.00">rle_put_init</text>
</a>
</g>
</g>
<!-- Node25&#45;&gt;Node26 -->
<g id="edge39" class="edge"><title>Node25&#45;&gt;Node26</title>
<path fill="none" stroke="midnightblue" d="M170.304,-200C185.49,-200 202.926,-200 218.488,-200"/>
<polygon fill="midnightblue" stroke="midnightblue" points="218.911,-203.5 228.911,-200 218.911,-196.5 218.911,-203.5"/>
</g>
<!-- Node27&#45;&gt;Node5 -->
<g id="edge42" class="edge"><title>Node27&#45;&gt;Node5</title>
<path fill="none" stroke="midnightblue" d="M428.235,-665.577C433.569,-668.062 438.712,-671.158 443,-675 477.953,-706.321 497.47,-759.827 505.908,-788.497"/>
<polygon fill="midnightblue" stroke="midnightblue" points="502.637,-789.798 508.693,-798.492 509.381,-787.919 502.637,-789.798"/>
</g>
<!-- Node27&#45;&gt;Node7 -->
<g id="edge41" class="edge"><title>Node27&#45;&gt;Node7</title>
<path fill="none" stroke="midnightblue" d="M424.736,-646.409C431.047,-643.832 437.436,-640.708 443,-637 462.36,-624.099 460.824,-613.522 479,-599 480.59,-597.73 482.273,-596.484 484.003,-595.277"/>
<polygon fill="midnightblue" stroke="midnightblue" points="486.293,-597.966 492.817,-589.618 482.511,-592.075 486.293,-597.966"/>
</g>
<!-- Node29 -->
<g id="node29" class="node"><title>Node29</title>
<g id="a_node29"><a xlink:href="../../db/d53/rle__getrow_8c.html#a61ac0da96b0dd8bc3cbc98afcd9b5c44" target="_top" xlink:title="bfill">
<polygon fill="white" stroke="black" points="247,-114.5 247,-133.5 279,-133.5 279,-114.5 247,-114.5"/>
<text text-anchor="middle" x="263" y="-121.5" font-family="Helvetica,sans-Serif" font-size="10.00">bfill</text>
</a>
</g>
</g>
<!-- Node28&#45;&gt;Node29 -->
<g id="edge45" class="edge"><title>Node28&#45;&gt;Node29</title>
<path fill="none" stroke="midnightblue" d="M163.719,-152.509C186.41,-145.927 216.172,-137.294 236.975,-131.259"/>
<polygon fill="midnightblue" stroke="midnightblue" points="238.046,-134.593 246.675,-128.445 236.096,-127.87 238.046,-134.593"/>
</g>
<!-- Node30 -->
<g id="node30" class="node"><title>Node30</title>
<g id="a_node30"><a xlink:href="../../d8/d7c/rle__getskip_8c.html#af6b1e1dc0867e9340f90668591c7c5b3" target="_top" xlink:title="rle_getskip">
<polygon fill="white" stroke="black" points="229,-152.5 229,-171.5 297,-171.5 297,-152.5 229,-152.5"/>
<text text-anchor="middle" x="263" y="-159.5" font-family="Helvetica,sans-Serif" font-size="10.00">rle_getskip</text>
</a>
</g>
</g>
<!-- Node28&#45;&gt;Node30 -->
<g id="edge46" class="edge"><title>Node28&#45;&gt;Node30</title>
<path fill="none" stroke="midnightblue" d="M163.719,-162C180.317,-162 200.698,-162 218.59,-162"/>
<polygon fill="midnightblue" stroke="midnightblue" points="218.788,-165.5 228.788,-162 218.788,-158.5 218.788,-165.5"/>
</g>
<!-- Node34&#45;&gt;Node7 -->
<g id="edge51" class="edge"><title>Node34&#45;&gt;Node7</title>
<path fill="none" stroke="midnightblue" d="M163.293,-500.62C221.417,-495.791 346.572,-491.174 443,-528 462.817,-535.568 481.675,-550.862 494.483,-562.914"/>
<polygon fill="midnightblue" stroke="midnightblue" points="492.382,-565.755 501.975,-570.252 497.28,-560.754 492.382,-565.755"/>
</g>
<!-- Node35 -->
<g id="node35" class="node"><title>Node35</title>
<g id="a_node35"><a xlink:href="../../d9/d2a/rle__putrow_8c.html#aaa4133bf4a6cbf287444448497631f26" target="_top" xlink:title="findruns">
<polygon fill="white" stroke="black" points="236,-456.5 236,-475.5 290,-475.5 290,-456.5 236,-456.5"/>
<text text-anchor="middle" x="263" y="-463.5" font-family="Helvetica,sans-Serif" font-size="10.00">findruns</text>
</a>
</g>
</g>
<!-- Node34&#45;&gt;Node35 -->
<g id="edge52" class="edge"><title>Node34&#45;&gt;Node35</title>
<path fill="none" stroke="midnightblue" d="M163.046,-494.704C182.139,-489.166 206.416,-482.124 226.145,-476.401"/>
<polygon fill="midnightblue" stroke="midnightblue" points="227.367,-479.69 235.996,-473.543 225.417,-472.968 227.367,-479.69"/>
</g>
<!-- Node36&#45;&gt;Node5 -->
<g id="edge54" class="edge"><title>Node36&#45;&gt;Node5</title>
<path fill="none" stroke="midnightblue" d="M424.08,-952.228C430.857,-949.486 437.606,-945.834 443,-941 477.953,-909.679 497.47,-856.173 505.908,-827.503"/>
<polygon fill="midnightblue" stroke="midnightblue" points="509.381,-828.081 508.693,-817.508 502.637,-826.202 509.381,-828.081"/>
</g>
<!-- Node37&#45;&gt;Node5 -->
<g id="edge56" class="edge"><title>Node37&#45;&gt;Node5</title>
<path fill="none" stroke="midnightblue" d="M418.795,-912.452C427.025,-908.691 435.845,-903.853 443,-898 468.011,-877.541 489.03,-846.067 500.812,-826.276"/>
<polygon fill="midnightblue" stroke="midnightblue" points="503.854,-828.007 505.832,-817.599 497.795,-824.502 503.854,-828.007"/>
</g>
</g>
</svg>
