<?xml version="1.0" encoding="UTF-8" standalone="no"?>
<!DOCTYPE svg PUBLIC "-//W3C//DTD SVG 1.1//EN"
 "http://www.w3.org/Graphics/SVG/1.1/DTD/svg11.dtd">
<!-- Generated by graphviz version 2.38.0 (20140413.2041)
 -->
<!-- Title: fsdither Pages: 1 -->
<svg width="169pt" height="104pt"
 viewBox="0.00 0.00 169.00 104.00" xmlns="http://www.w3.org/2000/svg" xmlns:xlink="http://www.w3.org/1999/xlink">
<g id="graph0" class="graph" transform="scale(1 1) rotate(0) translate(4 100)">
<title>fsdither</title>
<polygon fill="white" stroke="none" points="-4,4 -4,-100 165,-100 165,4 -4,4"/>
<!-- Node1 -->
<g id="node1" class="node"><title>Node1</title>
<polygon fill="#bfbfbf" stroke="black" points="0,-38.5 0,-57.5 52,-57.5 52,-38.5 0,-38.5"/>
<text text-anchor="middle" x="26" y="-45.5" font-family="Helvetica,sans-Serif" font-size="10.00">fsdither</text>
</g>
<!-- Node2 -->
<g id="node2" class="node"><title>Node2</title>
<g id="a_node2"><a xlink:href="../../d0/dcc/rletorla_8c.html#aafde19f7d36ca163a143579c1b125b6d" target="_top" xlink:title="free">
<polygon fill="white" stroke="black" points="107,-76.5 107,-95.5 142,-95.5 142,-76.5 107,-76.5"/>
<text text-anchor="middle" x="124.5" y="-83.5" font-family="Helvetica,sans-Serif" font-size="10.00">free</text>
</a>
</g>
</g>
<!-- Node1&#45;&gt;Node2 -->
<g id="edge1" class="edge"><title>Node1&#45;&gt;Node2</title>
<path fill="none" stroke="midnightblue" d="M51.351,-57.589C65.4144,-63.1269 83.1016,-70.0918 97.4438,-75.7395"/>
<polygon fill="midnightblue" stroke="midnightblue" points="96.166,-78.9979 106.753,-79.4053 98.7308,-72.4847 96.166,-78.9979"/>
</g>
<!-- Node3 -->
<g id="node3" class="node"><title>Node3</title>
<g id="a_node3"><a xlink:href="../../d0/dcc/rletorla_8c.html#ab7e36af3707843f77cc5b4e831c2fa6d" target="_top" xlink:title="malloc">
<polygon fill="white" stroke="black" points="101,-38.5 101,-57.5 148,-57.5 148,-38.5 101,-38.5"/>
<text text-anchor="middle" x="124.5" y="-45.5" font-family="Helvetica,sans-Serif" font-size="10.00">malloc</text>
</a>
</g>
</g>
<!-- Node1&#45;&gt;Node3 -->
<g id="edge2" class="edge"><title>Node1&#45;&gt;Node3</title>
<path fill="none" stroke="midnightblue" d="M52.1023,-48C63.8821,-48 78.0742,-48 90.6915,-48"/>
<polygon fill="midnightblue" stroke="midnightblue" points="90.8322,-51.5001 100.832,-48 90.8321,-44.5001 90.8322,-51.5001"/>
</g>
<!-- Node4 -->
<g id="node4" class="node"><title>Node4</title>
<g id="a_node4"><a xlink:href="../../d1/ded/rledither_8c.html#a5ed92f4524bc10fe48ae43ec2be3f19b" target="_top" xlink:title="find_closest">
<polygon fill="white" stroke="black" points="88,-0.5 88,-19.5 161,-19.5 161,-0.5 88,-0.5"/>
<text text-anchor="middle" x="124.5" y="-7.5" font-family="Helvetica,sans-Serif" font-size="10.00">find_closest</text>
</a>
</g>
</g>
<!-- Node1&#45;&gt;Node4 -->
<g id="edge3" class="edge"><title>Node1&#45;&gt;Node4</title>
<path fill="none" stroke="midnightblue" d="M51.351,-38.411C63.0082,-33.8206 77.1554,-28.2497 89.8235,-23.2612"/>
<polygon fill="midnightblue" stroke="midnightblue" points="91.1346,-26.5066 99.1568,-19.5859 88.5698,-19.9934 91.1346,-26.5066"/>
</g>
</g>
</svg>
