<?xml version="1.0" encoding="UTF-8" standalone="no"?>
<!DOCTYPE svg PUBLIC "-//W3C//DTD SVG 1.1//EN"
 "http://www.w3.org/Graphics/SVG/1.1/DTD/svg11.dtd">
<!-- Generated by graphviz version 2.38.0 (20140413.2041)
 -->
<!-- Title: print_map Pages: 1 -->
<svg width="258pt" height="28pt"
 viewBox="0.00 0.00 258.00 28.00" xmlns="http://www.w3.org/2000/svg" xmlns:xlink="http://www.w3.org/1999/xlink">
<g id="graph0" class="graph" transform="scale(1 1) rotate(0) translate(4 24)">
<title>print_map</title>
<polygon fill="white" stroke="none" points="-4,4 -4,-24 254,-24 254,4 -4,4"/>
<!-- Node1 -->
<g id="node1" class="node"><title>Node1</title>
<polygon fill="#bfbfbf" stroke="black" points="0,-0.5 0,-19.5 64,-19.5 64,-0.5 0,-0.5"/>
<text text-anchor="middle" x="32" y="-7.5" font-family="Helvetica,sans-Serif" font-size="10.00">print_map</text>
</g>
<!-- Node2 -->
<g id="node2" class="node"><title>Node2</title>
<g id="a_node2"><a xlink:href="../../db/db2/rle__getcom_8c.html#a9cefd612c381bf82c9cdf1f3a3b12dd6" target="_top" xlink:title="rle_getcom">
<polygon fill="white" stroke="black" points="100,-0.5 100,-19.5 169,-19.5 169,-0.5 100,-0.5"/>
<text text-anchor="middle" x="134.5" y="-7.5" font-family="Helvetica,sans-Serif" font-size="10.00">rle_getcom</text>
</a>
</g>
</g>
<!-- Node1&#45;&gt;Node2 -->
<g id="edge1" class="edge"><title>Node1&#45;&gt;Node2</title>
<path fill="none" stroke="midnightblue" d="M64.2479,-10C72.2771,-10 81.0653,-10 89.6047,-10"/>
<polygon fill="midnightblue" stroke="midnightblue" points="89.8297,-13.5001 99.8297,-10 89.8297,-6.5001 89.8297,-13.5001"/>
</g>
<!-- Node3 -->
<g id="node3" class="node"><title>Node3</title>
<g id="a_node3"><a xlink:href="../../db/db2/rle__getcom_8c.html#a7502c8b599724ce86fee5df1311a2337" target="_top" xlink:title="match">
<polygon fill="white" stroke="black" points="205,-0.5 205,-19.5 250,-19.5 250,-0.5 205,-0.5"/>
<text text-anchor="middle" x="227.5" y="-7.5" font-family="Helvetica,sans-Serif" font-size="10.00">match</text>
</a>
</g>
</g>
<!-- Node2&#45;&gt;Node3 -->
<g id="edge2" class="edge"><title>Node2&#45;&gt;Node3</title>
<path fill="none" stroke="midnightblue" d="M169.126,-10C177.528,-10 186.51,-10 194.814,-10"/>
<polygon fill="midnightblue" stroke="midnightblue" points="194.875,-13.5001 204.875,-10 194.875,-6.5001 194.875,-13.5001"/>
</g>
</g>
</svg>
