<?xml version="1.0" encoding="UTF-8" standalone="no"?>
<!DOCTYPE svg PUBLIC "-//W3C//DTD SVG 1.1//EN"
 "http://www.w3.org/Graphics/SVG/1.1/DTD/svg11.dtd">
<!-- Generated by graphviz version 2.38.0 (20140413.2041)
 -->
<!-- Title: print_codes Pages: 1 -->
<svg width="300pt" height="161pt"
 viewBox="0.00 0.00 300.00 161.00" xmlns="http://www.w3.org/2000/svg" xmlns:xlink="http://www.w3.org/1999/xlink">
<g id="graph0" class="graph" transform="scale(1 1) rotate(0) translate(4 157)">
<title>print_codes</title>
<polygon fill="white" stroke="none" points="-4,4 -4,-157 296,-157 296,4 -4,4"/>
<!-- Node1 -->
<g id="node1" class="node"><title>Node1</title>
<polygon fill="#bfbfbf" stroke="black" points="0,-76.5 0,-95.5 72,-95.5 72,-76.5 0,-76.5"/>
<text text-anchor="middle" x="36" y="-83.5" font-family="Helvetica,sans-Serif" font-size="10.00">print_codes</text>
</g>
<!-- Node2 -->
<g id="node2" class="node"><title>Node2</title>
<g id="a_node2"><a xlink:href="../../da/dbc/rle__row__alc_8c.html#abf83029f1ab364a8cb72524f58d70a3b" target="_top" xlink:title="rle_row_alloc">
<polygon fill="white" stroke="black" points="108,-133.5 108,-152.5 188,-152.5 188,-133.5 108,-133.5"/>
<text text-anchor="middle" x="148" y="-140.5" font-family="Helvetica,sans-Serif" font-size="10.00">rle_row_alloc</text>
</a>
</g>
</g>
<!-- Node1&#45;&gt;Node2 -->
<g id="edge1" class="edge"><title>Node1&#45;&gt;Node2</title>
<path fill="none" stroke="midnightblue" d="M54.4093,-95.5562C68.7231,-103.356 89.5744,-114.585 108,-124 111.182,-125.626 114.523,-127.301 117.856,-128.952"/>
<polygon fill="midnightblue" stroke="midnightblue" points="116.568,-132.219 127.087,-133.48 119.65,-125.934 116.568,-132.219"/>
</g>
<!-- Node5 -->
<g id="node5" class="node"><title>Node5</title>
<g id="a_node5"><a xlink:href="../../db/d53/rle__getrow_8c.html#a0e01db41714fa588d5458fed1fd0dd55" target="_top" xlink:title="rle_debug">
<polygon fill="white" stroke="black" points="116.5,-95.5 116.5,-114.5 179.5,-114.5 179.5,-95.5 116.5,-95.5"/>
<text text-anchor="middle" x="148" y="-102.5" font-family="Helvetica,sans-Serif" font-size="10.00">rle_debug</text>
</a>
</g>
</g>
<!-- Node1&#45;&gt;Node5 -->
<g id="edge4" class="edge"><title>Node1&#45;&gt;Node5</title>
<path fill="none" stroke="midnightblue" d="M72.1071,-92.064C82.9866,-93.9431 95.0662,-96.0296 106.292,-97.9686"/>
<polygon fill="midnightblue" stroke="midnightblue" points="105.853,-101.445 116.303,-99.6978 107.045,-94.5467 105.853,-101.445"/>
</g>
<!-- Node6 -->
<g id="node6" class="node"><title>Node6</title>
<g id="a_node6"><a xlink:href="../../db/d53/rle__getrow_8c.html#a3602e1158189cba5e5b0f9b983cba776" target="_top" xlink:title="rle_getrow">
<polygon fill="white" stroke="black" points="114.5,-19.5 114.5,-38.5 181.5,-38.5 181.5,-19.5 114.5,-19.5"/>
<text text-anchor="middle" x="148" y="-26.5" font-family="Helvetica,sans-Serif" font-size="10.00">rle_getrow</text>
</a>
</g>
</g>
<!-- Node1&#45;&gt;Node6 -->
<g id="edge5" class="edge"><title>Node1&#45;&gt;Node6</title>
<path fill="none" stroke="midnightblue" d="M54.4093,-76.4438C68.7231,-68.6444 89.5744,-57.4148 108,-48 111.182,-46.3744 114.523,-44.6988 117.856,-43.0476"/>
<polygon fill="midnightblue" stroke="midnightblue" points="119.65,-46.0662 127.087,-38.5204 116.568,-39.7813 119.65,-46.0662"/>
</g>
<!-- Node9 -->
<g id="node9" class="node"><title>Node9</title>
<g id="a_node9"><a xlink:href="../../da/dbc/rle__row__alc_8c.html#a4fa936a985e542d42e91d272f9f6092d" target="_top" xlink:title="rle_row_free">
<polygon fill="white" stroke="black" points="109.5,-57.5 109.5,-76.5 186.5,-76.5 186.5,-57.5 109.5,-57.5"/>
<text text-anchor="middle" x="148" y="-64.5" font-family="Helvetica,sans-Serif" font-size="10.00">rle_row_free</text>
</a>
</g>
</g>
<!-- Node1&#45;&gt;Node9 -->
<g id="edge8" class="edge"><title>Node1&#45;&gt;Node9</title>
<path fill="none" stroke="midnightblue" d="M72.1071,-79.936C80.6955,-78.4526 90.0318,-76.84 99.1058,-75.2726"/>
<polygon fill="midnightblue" stroke="midnightblue" points="99.9268,-78.6827 109.185,-73.5317 98.7353,-71.7849 99.9268,-78.6827"/>
</g>
<!-- Node3 -->
<g id="node3" class="node"><title>Node3</title>
<g id="a_node3"><a xlink:href="../../d0/dcc/rletorla_8c.html#ab7e36af3707843f77cc5b4e831c2fa6d" target="_top" xlink:title="malloc">
<polygon fill="white" stroke="black" points="234.5,-133.5 234.5,-152.5 281.5,-152.5 281.5,-133.5 234.5,-133.5"/>
<text text-anchor="middle" x="258" y="-140.5" font-family="Helvetica,sans-Serif" font-size="10.00">malloc</text>
</a>
</g>
</g>
<!-- Node2&#45;&gt;Node3 -->
<g id="edge2" class="edge"><title>Node2&#45;&gt;Node3</title>
<path fill="none" stroke="midnightblue" d="M188.296,-143C199.997,-143 212.694,-143 223.953,-143"/>
<polygon fill="midnightblue" stroke="midnightblue" points="224.228,-146.5 234.228,-143 224.228,-139.5 224.228,-146.5"/>
</g>
<!-- Node4 -->
<g id="node4" class="node"><title>Node4</title>
<g id="a_node4"><a xlink:href="../../d0/dcc/rletorla_8c.html#aafde19f7d36ca163a143579c1b125b6d" target="_top" xlink:title="free">
<polygon fill="white" stroke="black" points="240.5,-85.5 240.5,-104.5 275.5,-104.5 275.5,-85.5 240.5,-85.5"/>
<text text-anchor="middle" x="258" y="-92.5" font-family="Helvetica,sans-Serif" font-size="10.00">free</text>
</a>
</g>
</g>
<!-- Node2&#45;&gt;Node4 -->
<g id="edge3" class="edge"><title>Node2&#45;&gt;Node4</title>
<path fill="none" stroke="midnightblue" d="M170.596,-133.402C188.024,-125.656 212.597,-114.735 231.085,-106.518"/>
<polygon fill="midnightblue" stroke="midnightblue" points="232.67,-109.644 240.387,-102.384 229.827,-103.247 232.67,-109.644"/>
</g>
<!-- Node7 -->
<g id="node7" class="node"><title>Node7</title>
<g id="a_node7"><a xlink:href="../../db/d53/rle__getrow_8c.html#a61ac0da96b0dd8bc3cbc98afcd9b5c44" target="_top" xlink:title="bfill">
<polygon fill="white" stroke="black" points="242,-38.5 242,-57.5 274,-57.5 274,-38.5 242,-38.5"/>
<text text-anchor="middle" x="258" y="-45.5" font-family="Helvetica,sans-Serif" font-size="10.00">bfill</text>
</a>
</g>
</g>
<!-- Node6&#45;&gt;Node7 -->
<g id="edge6" class="edge"><title>Node6&#45;&gt;Node7</title>
<path fill="none" stroke="midnightblue" d="M181.697,-34.7522C197.783,-37.5822 216.874,-40.9408 231.808,-43.5681"/>
<polygon fill="midnightblue" stroke="midnightblue" points="231.39,-47.0482 241.845,-45.3339 232.603,-40.1541 231.39,-47.0482"/>
</g>
<!-- Node8 -->
<g id="node8" class="node"><title>Node8</title>
<g id="a_node8"><a xlink:href="../../d8/d7c/rle__getskip_8c.html#af6b1e1dc0867e9340f90668591c7c5b3" target="_top" xlink:title="rle_getskip">
<polygon fill="white" stroke="black" points="224,-0.5 224,-19.5 292,-19.5 292,-0.5 224,-0.5"/>
<text text-anchor="middle" x="258" y="-7.5" font-family="Helvetica,sans-Serif" font-size="10.00">rle_getskip</text>
</a>
</g>
</g>
<!-- Node6&#45;&gt;Node8 -->
<g id="edge7" class="edge"><title>Node6&#45;&gt;Node8</title>
<path fill="none" stroke="midnightblue" d="M181.697,-23.2478C191.765,-21.4765 203.01,-19.4982 213.676,-17.6218"/>
<polygon fill="midnightblue" stroke="midnightblue" points="214.426,-21.0438 223.668,-15.864 213.213,-14.1496 214.426,-21.0438"/>
</g>
<!-- Node9&#45;&gt;Node4 -->
<g id="edge9" class="edge"><title>Node9&#45;&gt;Node4</title>
<path fill="none" stroke="midnightblue" d="M185.865,-76.5577C200.427,-80.3329 216.843,-84.589 230.233,-88.0604"/>
<polygon fill="midnightblue" stroke="midnightblue" points="229.671,-91.5304 240.23,-90.6521 231.428,-84.7544 229.671,-91.5304"/>
</g>
</g>
</svg>
