<?xml version="1.0" encoding="UTF-8" standalone="no"?>
<!DOCTYPE svg PUBLIC "-//W3C//DTD SVG 1.1//EN"
 "http://www.w3.org/Graphics/SVG/1.1/DTD/svg11.dtd">
<!-- Generated by graphviz version 2.38.0 (20140413.2041)
 -->
<!-- Title: main Pages: 1 -->
<svg width="529pt" height="541pt"
 viewBox="0.00 0.00 529.00 541.00" xmlns="http://www.w3.org/2000/svg" xmlns:xlink="http://www.w3.org/1999/xlink">
<g id="graph0" class="graph" transform="scale(1 1) rotate(0) translate(4 537)">
<title>main</title>
<polygon fill="white" stroke="none" points="-4,4 -4,-537 525,-537 525,4 -4,4"/>
<!-- Node1 -->
<g id="node1" class="node"><title>Node1</title>
<polygon fill="#bfbfbf" stroke="black" points="0,-209.5 0,-228.5 39,-228.5 39,-209.5 0,-209.5"/>
<text text-anchor="middle" x="19.5" y="-216.5" font-family="Helvetica,sans-Serif" font-size="10.00">main</text>
</g>
<!-- Node2 -->
<g id="node2" class="node"><title>Node2</title>
<g id="a_node2"><a xlink:href="../../d2/df3/rle__hdr_8c.html#a8ba0e5b11d1e39ab7227f1686e676c86" target="_top" xlink:title="rle_hdr_init">
<polygon fill="white" stroke="black" points="83,-342.5 83,-361.5 153,-361.5 153,-342.5 83,-342.5"/>
<text text-anchor="middle" x="118" y="-349.5" font-family="Helvetica,sans-Serif" font-size="10.00">rle_hdr_init</text>
</a>
</g>
</g>
<!-- Node1&#45;&gt;Node2 -->
<g id="edge1" class="edge"><title>Node1&#45;&gt;Node2</title>
<path fill="none" stroke="midnightblue" d="M23.1918,-228.564C29.3531,-249.006 46.2116,-297.568 75,-328 78.2031,-331.386 81.9914,-334.432 85.9606,-337.126"/>
<polygon fill="midnightblue" stroke="midnightblue" points="84.4131,-340.28 94.7818,-342.457 88.0338,-334.289 84.4131,-340.28"/>
</g>
<!-- Node7 -->
<g id="node7" class="node"><title>Node7</title>
<g id="a_node7"><a xlink:href="../../d2/df3/rle__hdr_8c.html#a82e79385f2d45cc3b80ce0f4f369eae5" target="_top" xlink:title="rle_names">
<polygon fill="white" stroke="black" points="335,-361.5 335,-380.5 401,-380.5 401,-361.5 335,-361.5"/>
<text text-anchor="middle" x="368" y="-368.5" font-family="Helvetica,sans-Serif" font-size="10.00">rle_names</text>
</a>
</g>
</g>
<!-- Node1&#45;&gt;Node7 -->
<g id="edge18" class="edge"><title>Node1&#45;&gt;Node7</title>
<path fill="none" stroke="midnightblue" d="M20.4833,-228.677C21.0247,-256.541 26.8566,-337.117 75,-371 114.069,-398.496 253.892,-385.504 324.931,-376.738"/>
<polygon fill="midnightblue" stroke="midnightblue" points="325.41,-380.206 334.893,-375.481 324.533,-373.261 325.41,-380.206"/>
</g>
<!-- Node8 -->
<g id="node8" class="node"><title>Node8</title>
<g id="a_node8"><a xlink:href="../../d4/db0/scanargs_8c.html#a7ea6d702c0484056c8504d6ce7fede08" target="_top" xlink:title="scanargs">
<polygon fill="white" stroke="black" points="88,-266.5 88,-285.5 148,-285.5 148,-266.5 88,-266.5"/>
<text text-anchor="middle" x="118" y="-273.5" font-family="Helvetica,sans-Serif" font-size="10.00">scanargs</text>
</a>
</g>
</g>
<!-- Node1&#45;&gt;Node8 -->
<g id="edge10" class="edge"><title>Node1&#45;&gt;Node8</title>
<path fill="none" stroke="midnightblue" d="M33.057,-228.752C43.8322,-236.873 59.958,-248.45 75,-257 78.0853,-258.754 81.3619,-260.47 84.671,-262.109"/>
<polygon fill="midnightblue" stroke="midnightblue" points="83.4139,-265.386 93.951,-266.491 86.4031,-259.056 83.4139,-265.386"/>
</g>
<!-- Node10 -->
<g id="node10" class="node"><title>Node10</title>
<g id="a_node10"><a xlink:href="../../de/d4e/rle__open__f_8c.html#a89733a45961817885603ae01210290b7" target="_top" xlink:title="rle_open_f">
<polygon fill="white" stroke="black" points="205,-304.5 205,-323.5 273,-323.5 273,-304.5 205,-304.5"/>
<text text-anchor="middle" x="239" y="-311.5" font-family="Helvetica,sans-Serif" font-size="10.00">rle_open_f</text>
</a>
</g>
</g>
<!-- Node1&#45;&gt;Node10 -->
<g id="edge12" class="edge"><title>Node1&#45;&gt;Node10</title>
<path fill="none" stroke="midnightblue" d="M24.312,-228.692C31.4546,-245.423 48.56,-279.424 75,-295 111.261,-316.361 159.947,-319.397 194.646,-318.143"/>
<polygon fill="midnightblue" stroke="midnightblue" points="195.122,-321.624 204.936,-317.632 194.775,-314.632 195.122,-321.624"/>
</g>
<!-- Node13 -->
<g id="node13" class="node"><title>Node13</title>
<g id="a_node13"><a xlink:href="../../d8/d30/cmd__name_8c.html#a271249070fdd12c176777c77d76f888f" target="_top" xlink:title="cmd_name">
<polygon fill="white" stroke="black" points="84,-228.5 84,-247.5 152,-247.5 152,-228.5 84,-228.5"/>
<text text-anchor="middle" x="118" y="-235.5" font-family="Helvetica,sans-Serif" font-size="10.00">cmd_name</text>
</a>
</g>
</g>
<!-- Node1&#45;&gt;Node13 -->
<g id="edge17" class="edge"><title>Node1&#45;&gt;Node13</title>
<path fill="none" stroke="midnightblue" d="M39.1062,-222.663C49.0331,-224.618 61.6932,-227.111 73.9074,-229.515"/>
<polygon fill="midnightblue" stroke="midnightblue" points="73.5048,-233.003 83.9926,-231.501 74.8572,-226.135 73.5048,-233.003"/>
</g>
<!-- Node14 -->
<g id="node14" class="node"><title>Node14</title>
<g id="a_node14"><a xlink:href="../../db/d53/rle__getrow_8c.html#a619b27463c26e0a4a3d9648a9869ee52" target="_top" xlink:title="rle_get_setup">
<polygon fill="white" stroke="black" points="198.5,-437.5 198.5,-456.5 279.5,-456.5 279.5,-437.5 198.5,-437.5"/>
<text text-anchor="middle" x="239" y="-444.5" font-family="Helvetica,sans-Serif" font-size="10.00">rle_get_setup</text>
</a>
</g>
</g>
<!-- Node1&#45;&gt;Node14 -->
<g id="edge19" class="edge"><title>Node1&#45;&gt;Node14</title>
<path fill="none" stroke="midnightblue" d="M20.2674,-228.698C20.0895,-259.231 23.8553,-354.296 75,-404 104.895,-433.053 151.985,-443.088 187.881,-446.274"/>
<polygon fill="midnightblue" stroke="midnightblue" points="187.926,-449.787 198.156,-447.029 188.439,-442.805 187.926,-449.787"/>
</g>
<!-- Node16 -->
<g id="node16" class="node"><title>Node16</title>
<g id="a_node16"><a xlink:href="../../d1/d2c/rlehdr_8c.html#a6ffddf0dbd3bb378c01bfff5eeb2e207" target="_top" xlink:title="print_brief_hdr">
<polygon fill="white" stroke="black" points="75,-190.5 75,-209.5 161,-209.5 161,-190.5 75,-190.5"/>
<text text-anchor="middle" x="118" y="-197.5" font-family="Helvetica,sans-Serif" font-size="10.00">print_brief_hdr</text>
</a>
</g>
</g>
<!-- Node1&#45;&gt;Node16 -->
<g id="edge25" class="edge"><title>Node1&#45;&gt;Node16</title>
<path fill="none" stroke="midnightblue" d="M39.1062,-215.337C46.5873,-213.864 55.6207,-212.085 64.8458,-210.269"/>
<polygon fill="midnightblue" stroke="midnightblue" points="65.7312,-213.662 74.8667,-208.296 64.3789,-206.794 65.7312,-213.662"/>
</g>
<!-- Node17 -->
<g id="node17" class="node"><title>Node17</title>
<g id="a_node17"><a xlink:href="../../d1/d2c/rlehdr_8c.html#a8091ad6fa2c85b4f2f5d49dcac27d63d" target="_top" xlink:title="print_hdr">
<polygon fill="white" stroke="black" points="88.5,-152.5 88.5,-171.5 147.5,-171.5 147.5,-152.5 88.5,-152.5"/>
<text text-anchor="middle" x="118" y="-159.5" font-family="Helvetica,sans-Serif" font-size="10.00">print_hdr</text>
</a>
</g>
</g>
<!-- Node1&#45;&gt;Node17 -->
<g id="edge26" class="edge"><title>Node1&#45;&gt;Node17</title>
<path fill="none" stroke="midnightblue" d="M33.057,-209.248C43.8322,-201.127 59.958,-189.55 75,-181 78.0853,-179.246 81.3619,-177.53 84.671,-175.891"/>
<polygon fill="midnightblue" stroke="midnightblue" points="86.4031,-178.944 93.951,-171.509 83.4139,-172.614 86.4031,-178.944"/>
</g>
<!-- Node18 -->
<g id="node18" class="node"><title>Node18</title>
<g id="a_node18"><a xlink:href="../../d1/d2c/rlehdr_8c.html#afbc3df93f3885672340a3ee4ec133fad" target="_top" xlink:title="print_map">
<polygon fill="white" stroke="black" points="86,-114.5 86,-133.5 150,-133.5 150,-114.5 86,-114.5"/>
<text text-anchor="middle" x="118" y="-121.5" font-family="Helvetica,sans-Serif" font-size="10.00">print_map</text>
</a>
</g>
</g>
<!-- Node1&#45;&gt;Node18 -->
<g id="edge27" class="edge"><title>Node1&#45;&gt;Node18</title>
<path fill="none" stroke="midnightblue" d="M25.2578,-209.355C33.4584,-193.591 51.6465,-162.148 75,-143 76.9495,-141.402 79.0551,-139.909 81.2489,-138.52"/>
<polygon fill="midnightblue" stroke="midnightblue" points="82.9495,-141.579 90.0039,-133.674 79.5597,-135.455 82.9495,-141.579"/>
</g>
<!-- Node19 -->
<g id="node19" class="node"><title>Node19</title>
<g id="a_node19"><a xlink:href="../../d1/d2c/rlehdr_8c.html#a6dc6e10b72b23337090978b41df4b19f" target="_top" xlink:title="print_codes">
<polygon fill="white" stroke="black" points="82,-76.5 82,-95.5 154,-95.5 154,-76.5 82,-76.5"/>
<text text-anchor="middle" x="118" y="-83.5" font-family="Helvetica,sans-Serif" font-size="10.00">print_codes</text>
</a>
</g>
</g>
<!-- Node1&#45;&gt;Node19 -->
<g id="edge28" class="edge"><title>Node1&#45;&gt;Node19</title>
<path fill="none" stroke="midnightblue" d="M22.6824,-209.428C28.0204,-188.009 43.6504,-135.694 75,-105 76.4582,-103.572 78.0426,-102.24 79.7137,-101"/>
<polygon fill="midnightblue" stroke="midnightblue" points="81.9224,-103.75 88.6072,-95.5306 78.2555,-97.7875 81.9224,-103.75"/>
</g>
<!-- Node20 -->
<g id="node20" class="node"><title>Node20</title>
<g id="a_node20"><a xlink:href="../../d8/d7c/rle__getskip_8c.html#af6b1e1dc0867e9340f90668591c7c5b3" target="_top" xlink:title="rle_getskip">
<polygon fill="white" stroke="black" points="84,-38.5 84,-57.5 152,-57.5 152,-38.5 84,-38.5"/>
<text text-anchor="middle" x="118" y="-45.5" font-family="Helvetica,sans-Serif" font-size="10.00">rle_getskip</text>
</a>
</g>
</g>
<!-- Node1&#45;&gt;Node20 -->
<g id="edge29" class="edge"><title>Node1&#45;&gt;Node20</title>
<path fill="none" stroke="midnightblue" d="M21.3595,-209.493C24.1947,-183.416 35.462,-109.859 75,-67 76.1938,-65.7059 77.4927,-64.4939 78.8696,-63.3594"/>
<polygon fill="midnightblue" stroke="midnightblue" points="81.0296,-66.1266 87.4232,-57.6783 77.1567,-60.2955 81.0296,-66.1266"/>
</g>
<!-- Node21 -->
<g id="node21" class="node"><title>Node21</title>
<g id="a_node21"><a xlink:href="../../d7/d24/rle__error_8c.html#af931d686cf3ca715c9b900527f0961c0" target="_top" xlink:title="rle_get_error">
<polygon fill="white" stroke="black" points="78.5,-0.5 78.5,-19.5 157.5,-19.5 157.5,-0.5 78.5,-0.5"/>
<text text-anchor="middle" x="118" y="-7.5" font-family="Helvetica,sans-Serif" font-size="10.00">rle_get_error</text>
</a>
</g>
</g>
<!-- Node1&#45;&gt;Node21 -->
<g id="edge30" class="edge"><title>Node1&#45;&gt;Node21</title>
<path fill="none" stroke="midnightblue" d="M20.5512,-209.4C21.2159,-179.111 27.2081,-84.3049 75,-29 76.0138,-27.8268 77.1148,-26.7223 78.2839,-25.6829"/>
<polygon fill="midnightblue" stroke="midnightblue" points="80.6032,-28.3316 86.7867,-19.7284 76.5878,-22.5978 80.6032,-28.3316"/>
</g>
<!-- Node3 -->
<g id="node3" class="node"><title>Node3</title>
<g id="a_node3"><a xlink:href="../../d2/df3/rle__hdr_8c.html#a16c4da6201b3b8cf55127b9ca968d253" target="_top" xlink:title="rle_hdr_clear">
<polygon fill="white" stroke="black" points="328,-513.5 328,-532.5 408,-532.5 408,-513.5 328,-513.5"/>
<text text-anchor="middle" x="368" y="-520.5" font-family="Helvetica,sans-Serif" font-size="10.00">rle_hdr_clear</text>
</a>
</g>
</g>
<!-- Node2&#45;&gt;Node3 -->
<g id="edge2" class="edge"><title>Node2&#45;&gt;Node3</title>
<path fill="none" stroke="midnightblue" d="M122.929,-361.501C132.391,-383.235 158.544,-436.939 197,-466 232.64,-492.933 281.744,-507.582 318.017,-515.256"/>
<polygon fill="midnightblue" stroke="midnightblue" points="317.392,-518.7 327.886,-517.239 318.772,-511.837 317.392,-518.7"/>
</g>
<!-- Node5 -->
<g id="node5" class="node"><title>Node5</title>
<g id="a_node5"><a xlink:href="../../d2/df3/rle__hdr_8c.html#afc916e29aea8788e0878ca315ff69821" target="_top" xlink:title="rle_hdr_cp">
<polygon fill="white" stroke="black" points="205,-342.5 205,-361.5 273,-361.5 273,-342.5 205,-342.5"/>
<text text-anchor="middle" x="239" y="-349.5" font-family="Helvetica,sans-Serif" font-size="10.00">rle_hdr_cp</text>
</a>
</g>
</g>
<!-- Node2&#45;&gt;Node5 -->
<g id="edge4" class="edge"><title>Node2&#45;&gt;Node5</title>
<path fill="none" stroke="midnightblue" d="M153.101,-345.829C166.017,-345.203 180.899,-345.085 194.56,-345.473"/>
<polygon fill="midnightblue" stroke="midnightblue" points="194.587,-348.977 204.716,-345.87 194.86,-341.982 194.587,-348.977"/>
</g>
<!-- Node4 -->
<g id="node4" class="node"><title>Node4</title>
<g id="a_node4"><a xlink:href="../../d0/dcc/rletorla_8c.html#aafde19f7d36ca163a143579c1b125b6d" target="_top" xlink:title="free">
<polygon fill="white" stroke="black" points="470.5,-418.5 470.5,-437.5 505.5,-437.5 505.5,-418.5 470.5,-418.5"/>
<text text-anchor="middle" x="488" y="-425.5" font-family="Helvetica,sans-Serif" font-size="10.00">free</text>
</a>
</g>
</g>
<!-- Node3&#45;&gt;Node4 -->
<g id="edge3" class="edge"><title>Node3&#45;&gt;Node4</title>
<path fill="none" stroke="midnightblue" d="M401.082,-513.423C407.3,-510.858 413.566,-507.734 419,-504 442.024,-488.18 462.498,-462.991 474.819,-445.991"/>
<polygon fill="midnightblue" stroke="midnightblue" points="477.9,-447.694 480.79,-437.501 472.175,-443.667 477.9,-447.694"/>
</g>
<!-- Node5&#45;&gt;Node2 -->
<g id="edge5" class="edge"><title>Node5&#45;&gt;Node2</title>
<path fill="none" stroke="midnightblue" d="M204.716,-358.13C191.884,-358.778 177.019,-358.918 163.308,-358.551"/>
<polygon fill="midnightblue" stroke="midnightblue" points="163.224,-355.045 153.101,-358.171 162.964,-362.04 163.224,-355.045"/>
</g>
<!-- Node6 -->
<g id="node6" class="node"><title>Node6</title>
<g id="a_node6"><a xlink:href="../../d0/dcc/rletorla_8c.html#ab7e36af3707843f77cc5b4e831c2fa6d" target="_top" xlink:title="malloc">
<polygon fill="white" stroke="black" points="464.5,-342.5 464.5,-361.5 511.5,-361.5 511.5,-342.5 464.5,-342.5"/>
<text text-anchor="middle" x="488" y="-349.5" font-family="Helvetica,sans-Serif" font-size="10.00">malloc</text>
</a>
</g>
</g>
<!-- Node5&#45;&gt;Node6 -->
<g id="edge6" class="edge"><title>Node5&#45;&gt;Node6</title>
<path fill="none" stroke="midnightblue" d="M273.055,-352C320.374,-352 406.906,-352 454.125,-352"/>
<polygon fill="midnightblue" stroke="midnightblue" points="454.407,-355.5 464.407,-352 454.407,-348.5 454.407,-355.5"/>
</g>
<!-- Node5&#45;&gt;Node7 -->
<g id="edge7" class="edge"><title>Node5&#45;&gt;Node7</title>
<path fill="none" stroke="midnightblue" d="M273.036,-356.942C288.739,-359.292 307.699,-362.128 324.463,-364.636"/>
<polygon fill="midnightblue" stroke="midnightblue" points="324.161,-368.13 334.569,-366.148 325.197,-361.207 324.161,-368.13"/>
</g>
<!-- Node7&#45;&gt;Node4 -->
<g id="edge8" class="edge"><title>Node7&#45;&gt;Node4</title>
<path fill="none" stroke="midnightblue" d="M388.751,-380.541C408.639,-390.148 439.418,-405.016 461.22,-415.547"/>
<polygon fill="midnightblue" stroke="midnightblue" points="459.717,-418.708 470.244,-419.906 462.762,-412.405 459.717,-418.708"/>
</g>
<!-- Node7&#45;&gt;Node6 -->
<g id="edge9" class="edge"><title>Node7&#45;&gt;Node6</title>
<path fill="none" stroke="midnightblue" d="M401.244,-365.808C417.589,-363.176 437.41,-359.985 453.877,-357.333"/>
<polygon fill="midnightblue" stroke="midnightblue" points="454.827,-360.726 464.144,-355.68 453.714,-353.815 454.827,-360.726"/>
</g>
<!-- Node9 -->
<g id="node9" class="node"><title>Node9</title>
<g id="a_node9"><a xlink:href="../../d4/db0/scanargs_8c.html#a862219039664df6eb3cfced58addf830" target="_top" xlink:title="_do_scanargs">
<polygon fill="white" stroke="black" points="197,-266.5 197,-285.5 281,-285.5 281,-266.5 197,-266.5"/>
<text text-anchor="middle" x="239" y="-273.5" font-family="Helvetica,sans-Serif" font-size="10.00">_do_scanargs</text>
</a>
</g>
</g>
<!-- Node8&#45;&gt;Node9 -->
<g id="edge11" class="edge"><title>Node8&#45;&gt;Node9</title>
<path fill="none" stroke="midnightblue" d="M148.111,-276C159.621,-276 173.205,-276 186.28,-276"/>
<polygon fill="midnightblue" stroke="midnightblue" points="186.607,-279.5 196.607,-276 186.607,-272.5 186.607,-279.5"/>
</g>
<!-- Node11 -->
<g id="node11" class="node"><title>Node11</title>
<g id="a_node11"><a xlink:href="../../de/d4e/rle__open__f_8c.html#a5a0e62a00f907fce26e93b2f72adb2b0" target="_top" xlink:title="rle_open_f_noexit">
<polygon fill="white" stroke="black" points="317,-285.5 317,-304.5 419,-304.5 419,-285.5 317,-285.5"/>
<text text-anchor="middle" x="368" y="-292.5" font-family="Helvetica,sans-Serif" font-size="10.00">rle_open_f_noexit</text>
</a>
</g>
</g>
<!-- Node10&#45;&gt;Node11 -->
<g id="edge13" class="edge"><title>Node10&#45;&gt;Node11</title>
<path fill="none" stroke="midnightblue" d="M273.036,-309.058C283.382,-307.51 295.141,-305.751 306.755,-304.013"/>
<polygon fill="midnightblue" stroke="midnightblue" points="307.513,-307.439 316.885,-302.498 306.477,-300.516 307.513,-307.439"/>
</g>
<!-- Node11&#45;&gt;Node4 -->
<g id="edge16" class="edge"><title>Node11&#45;&gt;Node4</title>
<path fill="none" stroke="midnightblue" d="M377.486,-304.565C397.206,-326.791 446.355,-382.188 471.559,-410.597"/>
<polygon fill="midnightblue" stroke="midnightblue" points="469.017,-413.005 478.272,-418.163 474.254,-408.36 469.017,-413.005"/>
</g>
<!-- Node11&#45;&gt;Node6 -->
<g id="edge15" class="edge"><title>Node11&#45;&gt;Node6</title>
<path fill="none" stroke="midnightblue" d="M388.96,-304.557C398.118,-308.948 409.114,-314.229 419,-319 431.869,-325.211 446.093,-332.109 458.191,-337.985"/>
<polygon fill="midnightblue" stroke="midnightblue" points="456.847,-341.224 467.371,-342.447 459.907,-334.928 456.847,-341.224"/>
</g>
<!-- Node12 -->
<g id="node12" class="node"><title>Node12</title>
<g id="a_node12"><a xlink:href="../../de/d4e/rle__open__f_8c.html#a84fda810ae9b9bde82a6391d0b264ead" target="_top" xlink:title="my_popen">
<polygon fill="white" stroke="black" points="455,-285.5 455,-304.5 521,-304.5 521,-285.5 455,-285.5"/>
<text text-anchor="middle" x="488" y="-292.5" font-family="Helvetica,sans-Serif" font-size="10.00">my_popen</text>
</a>
</g>
</g>
<!-- Node11&#45;&gt;Node12 -->
<g id="edge14" class="edge"><title>Node11&#45;&gt;Node12</title>
<path fill="none" stroke="midnightblue" d="M419.043,-295C427.523,-295 436.255,-295 444.518,-295"/>
<polygon fill="midnightblue" stroke="midnightblue" points="444.678,-298.5 454.678,-295 444.678,-291.5 444.678,-298.5"/>
</g>
<!-- Node14&#45;&gt;Node3 -->
<g id="edge20" class="edge"><title>Node14&#45;&gt;Node3</title>
<path fill="none" stroke="midnightblue" d="M250.823,-456.526C265.159,-468.776 291.605,-490.12 317,-504 320.667,-506.004 324.589,-507.891 328.565,-509.639"/>
<polygon fill="midnightblue" stroke="midnightblue" points="327.261,-512.887 337.84,-513.459 329.926,-506.415 327.261,-512.887"/>
</g>
<!-- Node14&#45;&gt;Node4 -->
<g id="edge23" class="edge"><title>Node14&#45;&gt;Node4</title>
<path fill="none" stroke="midnightblue" d="M279.685,-443.947C330.348,-440.05 416.643,-433.412 460.184,-430.063"/>
<polygon fill="midnightblue" stroke="midnightblue" points="460.583,-433.543 470.285,-429.286 460.046,-426.563 460.583,-433.543"/>
</g>
<!-- Node14&#45;&gt;Node6 -->
<g id="edge22" class="edge"><title>Node14&#45;&gt;Node6</title>
<path fill="none" stroke="midnightblue" d="M277.476,-437.438C314.254,-427.507 371.569,-410.555 419,-390 434.277,-383.379 450.588,-374.338 463.404,-366.735"/>
<polygon fill="midnightblue" stroke="midnightblue" points="465.305,-369.676 472.054,-361.509 461.685,-363.684 465.305,-369.676"/>
</g>
<!-- Node14&#45;&gt;Node7 -->
<g id="edge21" class="edge"><title>Node14&#45;&gt;Node7</title>
<path fill="none" stroke="midnightblue" d="M252.976,-437.375C267.985,-426.448 293.632,-408.403 317,-395 323.061,-391.524 329.703,-388.09 336.11,-384.954"/>
<polygon fill="midnightblue" stroke="midnightblue" points="337.714,-388.066 345.233,-380.602 334.701,-381.748 337.714,-388.066"/>
</g>
<!-- Node15 -->
<g id="node15" class="node"><title>Node15</title>
<g id="a_node15"><a xlink:href="../../db/d53/rle__getrow_8c.html#a0ea68aa2ebeef9d4cade7282553b03d6" target="_top" xlink:title="vax_gshort">
<polygon fill="white" stroke="black" points="333.5,-475.5 333.5,-494.5 402.5,-494.5 402.5,-475.5 333.5,-475.5"/>
<text text-anchor="middle" x="368" y="-482.5" font-family="Helvetica,sans-Serif" font-size="10.00">vax_gshort</text>
</a>
</g>
</g>
<!-- Node14&#45;&gt;Node15 -->
<g id="edge24" class="edge"><title>Node14&#45;&gt;Node15</title>
<path fill="none" stroke="midnightblue" d="M272.047,-456.589C288.141,-461.404 307.841,-467.299 325.117,-472.468"/>
<polygon fill="midnightblue" stroke="midnightblue" points="324.379,-475.901 334.963,-475.414 326.386,-469.194 324.379,-475.901"/>
</g>
</g>
</svg>
