<?xml version="1.0" encoding="UTF-8" standalone="no"?>
<!DOCTYPE svg PUBLIC "-//W3C//DTD SVG 1.1//EN"
 "http://www.w3.org/Graphics/SVG/1.1/DTD/svg11.dtd">
<!-- Generated by graphviz version 2.38.0 (20140413.2041)
 -->
<!-- Title: cnv/rletoiris.c Pages: 1 -->
<svg width="189pt" height="196pt"
 viewBox="0.00 0.00 189.00 196.00" xmlns="http://www.w3.org/2000/svg" xmlns:xlink="http://www.w3.org/1999/xlink">
<g id="graph0" class="graph" transform="scale(1 1) rotate(0) translate(4 192)">
<title>cnv/rletoiris.c</title>
<polygon fill="white" stroke="none" points="-4,4 -4,-192 185,-192 185,4 -4,4"/>
<!-- Node1 -->
<g id="node1" class="node"><title>Node1</title>
<polygon fill="#bfbfbf" stroke="black" points="19.5,-168.5 19.5,-187.5 97.5,-187.5 97.5,-168.5 19.5,-168.5"/>
<text text-anchor="middle" x="58.5" y="-175.5" font-family="Helvetica,sans-Serif" font-size="10.00">cnv/rletoiris.c</text>
</g>
<!-- Node2 -->
<g id="node2" class="node"><title>Node2</title>
<polygon fill="white" stroke="#bfbfbf" points="0,-56.5 0,-75.5 47,-75.5 47,-56.5 0,-56.5"/>
<text text-anchor="middle" x="23.5" y="-63.5" font-family="Helvetica,sans-Serif" font-size="10.00">stdio.h</text>
</g>
<!-- Node1&#45;&gt;Node2 -->
<g id="edge1" class="edge"><title>Node1&#45;&gt;Node2</title>
<path fill="none" stroke="midnightblue" d="M48.3379,-168.185C39.5916,-159.87 27.6,-146.539 22.5,-132 17.2466,-117.024 18.0665,-98.8872 19.8726,-85.5815"/>
<polygon fill="midnightblue" stroke="midnightblue" points="23.3253,-86.1544 21.51,-75.7163 16.4198,-85.0082 23.3253,-86.1544"/>
</g>
<!-- Node3 -->
<g id="node3" class="node"><title>Node3</title>
<polygon fill="white" stroke="#bfbfbf" points="32,-112.5 32,-131.5 85,-131.5 85,-112.5 32,-112.5"/>
<text text-anchor="middle" x="58.5" y="-119.5" font-family="Helvetica,sans-Serif" font-size="10.00">image.h</text>
</g>
<!-- Node1&#45;&gt;Node3 -->
<g id="edge2" class="edge"><title>Node1&#45;&gt;Node3</title>
<path fill="none" stroke="midnightblue" d="M58.5,-168.083C58.5,-161.006 58.5,-150.861 58.5,-141.986"/>
<polygon fill="midnightblue" stroke="midnightblue" points="62.0001,-141.751 58.5,-131.751 55.0001,-141.751 62.0001,-141.751"/>
</g>
<!-- Node4 -->
<g id="node4" class="node"><title>Node4</title>
<g id="a_node4"><a xlink:href="../../d7/d27/rle_8h.html" target="_top" xlink:title="rle.h">
<polygon fill="white" stroke="black" points="103,-112.5 103,-131.5 140,-131.5 140,-112.5 103,-112.5"/>
<text text-anchor="middle" x="121.5" y="-119.5" font-family="Helvetica,sans-Serif" font-size="10.00">rle.h</text>
</a>
</g>
</g>
<!-- Node1&#45;&gt;Node4 -->
<g id="edge3" class="edge"><title>Node1&#45;&gt;Node4</title>
<path fill="none" stroke="midnightblue" d="M68.622,-168.324C78.0264,-160.263 92.2441,-148.077 103.569,-138.369"/>
<polygon fill="midnightblue" stroke="midnightblue" points="105.879,-140.999 111.194,-131.834 101.323,-135.684 105.879,-140.999"/>
</g>
<!-- Node4&#45;&gt;Node2 -->
<g id="edge7" class="edge"><title>Node4&#45;&gt;Node2</title>
<path fill="none" stroke="midnightblue" d="M105.755,-112.324C90.1813,-103.743 66.1227,-90.486 48.0407,-80.5224"/>
<polygon fill="midnightblue" stroke="midnightblue" points="49.6539,-77.4152 39.2063,-75.6545 46.2756,-83.546 49.6539,-77.4152"/>
</g>
<!-- Node5 -->
<g id="node5" class="node"><title>Node5</title>
<g id="a_node5"><a xlink:href="../../df/dad/rle__config_8h.html" target="_top" xlink:title="rle_config.h">
<polygon fill="white" stroke="black" points="86,-56.5 86,-75.5 157,-75.5 157,-56.5 86,-56.5"/>
<text text-anchor="middle" x="121.5" y="-63.5" font-family="Helvetica,sans-Serif" font-size="10.00">rle_config.h</text>
</a>
</g>
</g>
<!-- Node4&#45;&gt;Node5 -->
<g id="edge4" class="edge"><title>Node4&#45;&gt;Node5</title>
<path fill="none" stroke="midnightblue" d="M121.5,-112.083C121.5,-105.006 121.5,-94.8611 121.5,-85.9865"/>
<polygon fill="midnightblue" stroke="midnightblue" points="125,-85.751 121.5,-75.7511 118,-85.7511 125,-85.751"/>
</g>
<!-- Node6 -->
<g id="node6" class="node"><title>Node6</title>
<polygon fill="white" stroke="#bfbfbf" points="63,-0.5 63,-19.5 112,-19.5 112,-0.5 63,-0.5"/>
<text text-anchor="middle" x="87.5" y="-7.5" font-family="Helvetica,sans-Serif" font-size="10.00">stdlib.h</text>
</g>
<!-- Node5&#45;&gt;Node6 -->
<g id="edge5" class="edge"><title>Node5&#45;&gt;Node6</title>
<path fill="none" stroke="midnightblue" d="M115.886,-56.083C111.133,-48.5341 104.182,-37.4948 98.3484,-28.2298"/>
<polygon fill="midnightblue" stroke="midnightblue" points="101.3,-26.3486 93.0099,-19.7511 95.3763,-30.0783 101.3,-26.3486"/>
</g>
<!-- Node7 -->
<g id="node7" class="node"><title>Node7</title>
<polygon fill="white" stroke="#bfbfbf" points="130,-0.5 130,-19.5 181,-19.5 181,-0.5 130,-0.5"/>
<text text-anchor="middle" x="155.5" y="-7.5" font-family="Helvetica,sans-Serif" font-size="10.00">string.h</text>
</g>
<!-- Node5&#45;&gt;Node7 -->
<g id="edge6" class="edge"><title>Node5&#45;&gt;Node7</title>
<path fill="none" stroke="midnightblue" d="M127.114,-56.083C131.867,-48.5341 138.818,-37.4948 144.652,-28.2298"/>
<polygon fill="midnightblue" stroke="midnightblue" points="147.624,-30.0783 149.99,-19.7511 141.7,-26.3486 147.624,-30.0783"/>
</g>
</g>
</svg>
