<?xml version="1.0" encoding="UTF-8" standalone="no"?>
<!DOCTYPE svg PUBLIC "-//W3C//DTD SVG 1.1//EN"
 "http://www.w3.org/Graphics/SVG/1.1/DTD/svg11.dtd">
<!-- Generated by graphviz version 2.38.0 (20140413.2041)
 -->
<!-- Title: hilbert_c2i Pages: 1 -->
<svg width="167pt" height="66pt"
 viewBox="0.00 0.00 167.00 66.00" xmlns="http://www.w3.org/2000/svg" xmlns:xlink="http://www.w3.org/1999/xlink">
<g id="graph0" class="graph" transform="scale(1 1) rotate(0) translate(4 62)">
<title>hilbert_c2i</title>
<polygon fill="white" stroke="none" points="-4,4 -4,-62 163,-62 163,4 -4,4"/>
<!-- Node1 -->
<g id="node1" class="node"><title>Node1</title>
<polygon fill="#bfbfbf" stroke="black" points="0,-19.5 0,-38.5 65,-38.5 65,-19.5 0,-19.5"/>
<text text-anchor="middle" x="32.5" y="-26.5" font-family="Helvetica,sans-Serif" font-size="10.00">hilbert_c2i</text>
</g>
<!-- Node2 -->
<g id="node2" class="node"><title>Node2</title>
<g id="a_node2"><a xlink:href="../../d2/d6d/rleccube_8c.html#a70db8bd1d499619f7ff9c1ca2ff3c8df" target="_top" xlink:title="main">
<polygon fill="white" stroke="black" points="110.5,-38.5 110.5,-57.5 149.5,-57.5 149.5,-38.5 110.5,-38.5"/>
<text text-anchor="middle" x="130" y="-45.5" font-family="Helvetica,sans-Serif" font-size="10.00">main</text>
</a>
</g>
</g>
<!-- Node1&#45;&gt;Node2 -->
<g id="edge1" class="edge"><title>Node1&#45;&gt;Node2</title>
<path fill="none" stroke="midnightblue" d="M75.1501,-37.2864C87.432,-39.7299 100.261,-42.2823 110.316,-44.2827"/>
<polygon fill="midnightblue" stroke="midnightblue" points="75.5257,-33.7926 65.0349,-35.274 74.1597,-40.6581 75.5257,-33.7926"/>
</g>
<!-- Node3 -->
<g id="node3" class="node"><title>Node3</title>
<g id="a_node3"><a xlink:href="../../d0/daf/rlesortmap_8c.html#a4636f26c5da9a67e959ef09a711d07d1" target="_top" xlink:title="pcompar">
<polygon fill="white" stroke="black" points="101,-0.5 101,-19.5 159,-19.5 159,-0.5 101,-0.5"/>
<text text-anchor="middle" x="130" y="-7.5" font-family="Helvetica,sans-Serif" font-size="10.00">pcompar</text>
</a>
</g>
</g>
<!-- Node1&#45;&gt;Node3 -->
<g id="edge2" class="edge"><title>Node1&#45;&gt;Node3</title>
<path fill="none" stroke="midnightblue" d="M75.0219,-20.7391C83.6985,-19.0129 92.6541,-17.2311 100.716,-15.6271"/>
<polygon fill="midnightblue" stroke="midnightblue" points="74.1597,-17.3419 65.0349,-22.726 75.5257,-24.2074 74.1597,-17.3419"/>
</g>
</g>
</svg>
