<?xml version="1.0" encoding="UTF-8" standalone="no"?>
<!DOCTYPE svg PUBLIC "-//W3C//DTD SVG 1.1//EN"
 "http://www.w3.org/Graphics/SVG/1.1/DTD/svg11.dtd">
<!-- Generated by graphviz version 2.38.0 (20140413.2041)
 -->
<!-- Title: allocate_pixmap Pages: 1 -->
<svg width="403pt" height="66pt"
 viewBox="0.00 0.00 403.00 66.00" xmlns="http://www.w3.org/2000/svg" xmlns:xlink="http://www.w3.org/1999/xlink">
<g id="graph0" class="graph" transform="scale(1 1) rotate(0) translate(4 62)">
<title>allocate_pixmap</title>
<polygon fill="white" stroke="none" points="-4,4 -4,-62 399,-62 399,4 -4,4"/>
<!-- Node1 -->
<g id="node1" class="node"><title>Node1</title>
<polygon fill="#bfbfbf" stroke="black" points="0,-19.5 0,-38.5 93,-38.5 93,-19.5 0,-19.5"/>
<text text-anchor="middle" x="46.5" y="-26.5" font-family="Helvetica,sans-Serif" font-size="10.00">allocate_pixmap</text>
</g>
<!-- Node2 -->
<g id="node2" class="node"><title>Node2</title>
<g id="a_node2"><a xlink:href="../../dd/d17/x11__stuff_8c.html#a5514147cc2e2519281b7930a56c39dde" target="_top" xlink:title="free_X_pixmap">
<polygon fill="white" stroke="black" points="152.5,-38.5 152.5,-57.5 240.5,-57.5 240.5,-38.5 152.5,-38.5"/>
<text text-anchor="middle" x="196.5" y="-45.5" font-family="Helvetica,sans-Serif" font-size="10.00">free_X_pixmap</text>
</a>
</g>
</g>
<!-- Node1&#45;&gt;Node2 -->
<g id="edge1" class="edge"><title>Node1&#45;&gt;Node2</title>
<path fill="none" stroke="midnightblue" d="M93.1125,-34.8557C108.58,-36.8413 125.997,-39.0773 142.021,-41.1344"/>
<polygon fill="midnightblue" stroke="midnightblue" points="141.95,-44.654 152.315,-42.4559 142.842,-37.711 141.95,-44.654"/>
</g>
<!-- Node3 -->
<g id="node3" class="node"><title>Node3</title>
<g id="a_node3"><a xlink:href="../../dd/d17/x11__stuff_8c.html#ad518b27a85450f7cb1930f799f78716f" target="_top" xlink:title="check_pixmap_allocation">
<polygon fill="white" stroke="black" points="129,-0.5 129,-19.5 264,-19.5 264,-0.5 129,-0.5"/>
<text text-anchor="middle" x="196.5" y="-7.5" font-family="Helvetica,sans-Serif" font-size="10.00">check_pixmap_allocation</text>
</a>
</g>
</g>
<!-- Node1&#45;&gt;Node3 -->
<g id="edge2" class="edge"><title>Node1&#45;&gt;Node3</title>
<path fill="none" stroke="midnightblue" d="M93.1125,-23.1443C101.32,-22.0907 110.076,-20.9665 118.882,-19.8361"/>
<polygon fill="midnightblue" stroke="midnightblue" points="119.346,-23.3053 128.819,-18.5604 118.455,-16.3623 119.346,-23.3053"/>
</g>
<!-- Node4 -->
<g id="node4" class="node"><title>Node4</title>
<g id="a_node4"><a xlink:href="../../dd/d17/x11__stuff_8c.html#af5943022edd547455fead4fb49e0eeb0" target="_top" xlink:title="handle_x_errors">
<polygon fill="white" stroke="black" points="300,-0.5 300,-19.5 395,-19.5 395,-0.5 300,-0.5"/>
<text text-anchor="middle" x="347.5" y="-7.5" font-family="Helvetica,sans-Serif" font-size="10.00">handle_x_errors</text>
</a>
</g>
</g>
<!-- Node3&#45;&gt;Node4 -->
<g id="edge3" class="edge"><title>Node3&#45;&gt;Node4</title>
<path fill="none" stroke="midnightblue" d="M264.156,-10C272.749,-10 281.483,-10 289.894,-10"/>
<polygon fill="midnightblue" stroke="midnightblue" points="289.962,-13.5001 299.962,-10 289.962,-6.5001 289.962,-13.5001"/>
</g>
</g>
</svg>
