<?xml version="1.0" encoding="UTF-8" standalone="no"?>
<!DOCTYPE svg PUBLIC "-//W3C//DTD SVG 1.1//EN"
 "http://www.w3.org/Graphics/SVG/1.1/DTD/svg11.dtd">
<!-- Generated by graphviz version 2.38.0 (20140413.2041)
 -->
<!-- Title: main Pages: 1 -->
<svg width="529pt" height="427pt"
 viewBox="0.00 0.00 529.00 427.00" xmlns="http://www.w3.org/2000/svg" xmlns:xlink="http://www.w3.org/1999/xlink">
<g id="graph0" class="graph" transform="scale(1 1) rotate(0) translate(4 423)">
<title>main</title>
<polygon fill="white" stroke="none" points="-4,4 -4,-423 525,-423 525,4 -4,4"/>
<!-- Node1 -->
<g id="node1" class="node"><title>Node1</title>
<polygon fill="#bfbfbf" stroke="black" points="0,-190.5 0,-209.5 39,-209.5 39,-190.5 0,-190.5"/>
<text text-anchor="middle" x="19.5" y="-197.5" font-family="Helvetica,sans-Serif" font-size="10.00">main</text>
</g>
<!-- Node2 -->
<g id="node2" class="node"><title>Node2</title>
<g id="a_node2"><a xlink:href="../../d4/db0/scanargs_8c.html#a7ea6d702c0484056c8504d6ce7fede08" target="_top" xlink:title="scanargs">
<polygon fill="white" stroke="black" points="88,-399.5 88,-418.5 148,-418.5 148,-399.5 88,-399.5"/>
<text text-anchor="middle" x="118" y="-406.5" font-family="Helvetica,sans-Serif" font-size="10.00">scanargs</text>
</a>
</g>
</g>
<!-- Node1&#45;&gt;Node2 -->
<g id="edge1" class="edge"><title>Node1&#45;&gt;Node2</title>
<path fill="none" stroke="midnightblue" d="M20.8746,-209.582C22.4898,-238.989 30.972,-329.321 75,-385 77.6371,-388.335 80.8736,-391.289 84.3695,-393.884"/>
<polygon fill="midnightblue" stroke="midnightblue" points="82.5252,-396.859 92.8368,-399.292 86.2933,-390.959 82.5252,-396.859"/>
</g>
<!-- Node4 -->
<g id="node4" class="node"><title>Node4</title>
<g id="a_node4"><a xlink:href="../../d2/df3/rle__hdr_8c.html#a8ba0e5b11d1e39ab7227f1686e676c86" target="_top" xlink:title="rle_hdr_init">
<polygon fill="white" stroke="black" points="83,-228.5 83,-247.5 153,-247.5 153,-228.5 83,-228.5"/>
<text text-anchor="middle" x="118" y="-235.5" font-family="Helvetica,sans-Serif" font-size="10.00">rle_hdr_init</text>
</a>
</g>
</g>
<!-- Node1&#45;&gt;Node4 -->
<g id="edge3" class="edge"><title>Node1&#45;&gt;Node4</title>
<path fill="none" stroke="midnightblue" d="M39.1062,-207.327C51.5961,-212.245 68.4128,-218.867 83.2242,-224.7"/>
<polygon fill="midnightblue" stroke="midnightblue" points="82.0152,-227.985 92.6022,-228.393 84.58,-221.472 82.0152,-227.985"/>
</g>
<!-- Node9 -->
<g id="node9" class="node"><title>Node9</title>
<g id="a_node9"><a xlink:href="../../d2/df3/rle__hdr_8c.html#a82e79385f2d45cc3b80ce0f4f369eae5" target="_top" xlink:title="rle_names">
<polygon fill="white" stroke="black" points="335,-247.5 335,-266.5 401,-266.5 401,-247.5 335,-247.5"/>
<text text-anchor="middle" x="368" y="-254.5" font-family="Helvetica,sans-Serif" font-size="10.00">rle_names</text>
</a>
</g>
</g>
<!-- Node1&#45;&gt;Node9 -->
<g id="edge12" class="edge"><title>Node1&#45;&gt;Node9</title>
<path fill="none" stroke="midnightblue" d="M26.0663,-209.527C34.6008,-223.069 52.3386,-247.314 75,-257 157.673,-292.335 265.941,-278.711 324.662,-267.005"/>
<polygon fill="midnightblue" stroke="midnightblue" points="325.605,-270.384 334.687,-264.928 324.185,-263.53 325.605,-270.384"/>
</g>
<!-- Node10 -->
<g id="node10" class="node"><title>Node10</title>
<g id="a_node10"><a xlink:href="../../d8/d30/cmd__name_8c.html#a271249070fdd12c176777c77d76f888f" target="_top" xlink:title="cmd_name">
<polygon fill="white" stroke="black" points="84,-114.5 84,-133.5 152,-133.5 152,-114.5 84,-114.5"/>
<text text-anchor="middle" x="118" y="-121.5" font-family="Helvetica,sans-Serif" font-size="10.00">cmd_name</text>
</a>
</g>
</g>
<!-- Node1&#45;&gt;Node10 -->
<g id="edge13" class="edge"><title>Node1&#45;&gt;Node10</title>
<path fill="none" stroke="midnightblue" d="M29.1478,-190.445C39.4182,-179.422 57.3846,-161.13 75,-148 79.3494,-144.758 84.1778,-141.624 88.9667,-138.75"/>
<polygon fill="midnightblue" stroke="midnightblue" points="91.0513,-141.59 97.9906,-133.584 87.5733,-135.515 91.0513,-141.59"/>
</g>
<!-- Node11 -->
<g id="node11" class="node"><title>Node11</title>
<g id="a_node11"><a xlink:href="../../de/d4e/rle__open__f_8c.html#a89733a45961817885603ae01210290b7" target="_top" xlink:title="rle_open_f">
<polygon fill="white" stroke="black" points="205,-361.5 205,-380.5 273,-380.5 273,-361.5 205,-361.5"/>
<text text-anchor="middle" x="239" y="-368.5" font-family="Helvetica,sans-Serif" font-size="10.00">rle_open_f</text>
</a>
</g>
</g>
<!-- Node1&#45;&gt;Node11 -->
<g id="edge14" class="edge"><title>Node1&#45;&gt;Node11</title>
<path fill="none" stroke="midnightblue" d="M20.8903,-209.807C22.5264,-236.591 31.013,-311.359 75,-347 108.375,-374.043 158.686,-377.617 194.577,-375.95"/>
<polygon fill="midnightblue" stroke="midnightblue" points="194.989,-379.432 204.754,-375.321 194.557,-372.445 194.989,-379.432"/>
</g>
<!-- Node14 -->
<g id="node14" class="node"><title>Node14</title>
<g id="a_node14"><a xlink:href="../../d0/daa/cubitorle_8c.html#ac10946f74f90b4ab8a0ac5bb9a6cff09" target="_top" xlink:title="read_cubi_hdr">
<polygon fill="white" stroke="black" points="76,-76.5 76,-95.5 160,-95.5 160,-76.5 76,-76.5"/>
<text text-anchor="middle" x="118" y="-83.5" font-family="Helvetica,sans-Serif" font-size="10.00">read_cubi_hdr</text>
</a>
</g>
</g>
<!-- Node1&#45;&gt;Node14 -->
<g id="edge19" class="edge"><title>Node1&#45;&gt;Node14</title>
<path fill="none" stroke="midnightblue" d="M23.7369,-190.347C30.4757,-171.57 47.6947,-129.802 75,-105 76.6847,-103.47 78.5133,-102.045 80.4332,-100.721"/>
<polygon fill="midnightblue" stroke="midnightblue" points="82.4075,-103.621 89.2707,-95.5499 78.8721,-97.5796 82.4075,-103.621"/>
</g>
<!-- Node15 -->
<g id="node15" class="node"><title>Node15</title>
<g id="a_node15"><a xlink:href="../../d8/def/rle__addhist_8c.html#a4f9433d6e4e203d0ecea1c7d3837afc3" target="_top" xlink:title="rle_addhist">
<polygon fill="white" stroke="black" points="204.5,-95.5 204.5,-114.5 273.5,-114.5 273.5,-95.5 204.5,-95.5"/>
<text text-anchor="middle" x="239" y="-102.5" font-family="Helvetica,sans-Serif" font-size="10.00">rle_addhist</text>
</a>
</g>
</g>
<!-- Node1&#45;&gt;Node15 -->
<g id="edge20" class="edge"><title>Node1&#45;&gt;Node15</title>
<path fill="none" stroke="midnightblue" d="M39.3918,-193.027C66.6097,-182.826 118.28,-162.878 161,-143 177.403,-135.368 180.787,-132.028 197,-124 200.361,-122.335 203.897,-120.63 207.426,-118.957"/>
<polygon fill="midnightblue" stroke="midnightblue" points="209.047,-122.062 216.621,-114.654 206.08,-115.722 209.047,-122.062"/>
</g>
<!-- Node20 -->
<g id="node20" class="node"><title>Node20</title>
<g id="a_node20"><a xlink:href="../../d9/d2a/rle__putrow_8c.html#af88a82b331cd6f425d2a2cc1623944c6" target="_top" xlink:title="rle_put_setup">
<polygon fill="white" stroke="black" points="78,-38.5 78,-57.5 158,-57.5 158,-38.5 78,-38.5"/>
<text text-anchor="middle" x="118" y="-45.5" font-family="Helvetica,sans-Serif" font-size="10.00">rle_put_setup</text>
</a>
</g>
</g>
<!-- Node1&#45;&gt;Node20 -->
<g id="edge27" class="edge"><title>Node1&#45;&gt;Node20</title>
<path fill="none" stroke="midnightblue" d="M21.9577,-190.302C26.0338,-166.34 39.6568,-103.636 75,-67 76.3752,-65.5745 77.8771,-64.247 79.4683,-63.0119"/>
<polygon fill="midnightblue" stroke="midnightblue" points="81.4415,-65.9048 87.9957,-57.5805 77.681,-60.0007 81.4415,-65.9048"/>
</g>
<!-- Node22 -->
<g id="node22" class="node"><title>Node22</title>
<g id="a_node22"><a xlink:href="../../da/dbc/rle__row__alc_8c.html#abf83029f1ab364a8cb72524f58d70a3b" target="_top" xlink:title="rle_row_alloc">
<polygon fill="white" stroke="black" points="328,-285.5 328,-304.5 408,-304.5 408,-285.5 328,-285.5"/>
<text text-anchor="middle" x="368" y="-292.5" font-family="Helvetica,sans-Serif" font-size="10.00">rle_row_alloc</text>
</a>
</g>
</g>
<!-- Node1&#45;&gt;Node22 -->
<g id="edge29" class="edge"><title>Node1&#45;&gt;Node22</title>
<path fill="none" stroke="midnightblue" d="M23.7515,-209.571C30.306,-227.21 46.9245,-264.544 75,-281 150.332,-325.154 256.294,-316.283 317.692,-305.716"/>
<polygon fill="midnightblue" stroke="midnightblue" points="318.667,-309.097 327.885,-303.875 317.423,-302.208 318.667,-309.097"/>
</g>
<!-- Node23 -->
<g id="node23" class="node"><title>Node23</title>
<g id="a_node23"><a xlink:href="../../d0/daa/cubitorle_8c.html#aba805b90c53e90aaabeaa9b211e1987a" target="_top" xlink:title="read_cubi_row">
<polygon fill="white" stroke="black" points="75,-0.5 75,-19.5 161,-19.5 161,-0.5 75,-0.5"/>
<text text-anchor="middle" x="118" y="-7.5" font-family="Helvetica,sans-Serif" font-size="10.00">read_cubi_row</text>
</a>
</g>
</g>
<!-- Node1&#45;&gt;Node23 -->
<g id="edge32" class="edge"><title>Node1&#45;&gt;Node23</title>
<path fill="none" stroke="midnightblue" d="M20.933,-190.155C22.6929,-161.634 31.4986,-77.8792 75,-29 76.1705,-27.6848 77.4501,-26.4553 78.8112,-25.3065"/>
<polygon fill="midnightblue" stroke="midnightblue" points="80.9757,-28.0683 87.3087,-19.5746 77.0612,-22.2651 80.9757,-28.0683"/>
</g>
<!-- Node24 -->
<g id="node24" class="node"><title>Node24</title>
<g id="a_node24"><a xlink:href="../../d9/d2a/rle__putrow_8c.html#aa26532b01bc4f49b7383765cdc23ea72" target="_top" xlink:title="rle_putrow">
<polygon fill="white" stroke="black" points="85,-190.5 85,-209.5 151,-209.5 151,-190.5 85,-190.5"/>
<text text-anchor="middle" x="118" y="-197.5" font-family="Helvetica,sans-Serif" font-size="10.00">rle_putrow</text>
</a>
</g>
</g>
<!-- Node1&#45;&gt;Node24 -->
<g id="edge33" class="edge"><title>Node1&#45;&gt;Node24</title>
<path fill="none" stroke="midnightblue" d="M39.1062,-200C49.2042,-200 62.1306,-200 74.5388,-200"/>
<polygon fill="midnightblue" stroke="midnightblue" points="74.7663,-203.5 84.7663,-200 74.7663,-196.5 74.7663,-203.5"/>
</g>
<!-- Node3 -->
<g id="node3" class="node"><title>Node3</title>
<g id="a_node3"><a xlink:href="../../d4/db0/scanargs_8c.html#a862219039664df6eb3cfced58addf830" target="_top" xlink:title="_do_scanargs">
<polygon fill="white" stroke="black" points="197,-399.5 197,-418.5 281,-418.5 281,-399.5 197,-399.5"/>
<text text-anchor="middle" x="239" y="-406.5" font-family="Helvetica,sans-Serif" font-size="10.00">_do_scanargs</text>
</a>
</g>
</g>
<!-- Node2&#45;&gt;Node3 -->
<g id="edge2" class="edge"><title>Node2&#45;&gt;Node3</title>
<path fill="none" stroke="midnightblue" d="M148.111,-409C159.621,-409 173.205,-409 186.28,-409"/>
<polygon fill="midnightblue" stroke="midnightblue" points="186.607,-412.5 196.607,-409 186.607,-405.5 186.607,-412.5"/>
</g>
<!-- Node5 -->
<g id="node5" class="node"><title>Node5</title>
<g id="a_node5"><a xlink:href="../../d2/df3/rle__hdr_8c.html#a16c4da6201b3b8cf55127b9ca968d253" target="_top" xlink:title="rle_hdr_clear">
<polygon fill="white" stroke="black" points="328,-323.5 328,-342.5 408,-342.5 408,-323.5 328,-323.5"/>
<text text-anchor="middle" x="368" y="-330.5" font-family="Helvetica,sans-Serif" font-size="10.00">rle_hdr_clear</text>
</a>
</g>
</g>
<!-- Node4&#45;&gt;Node5 -->
<g id="edge4" class="edge"><title>Node4&#45;&gt;Node5</title>
<path fill="none" stroke="midnightblue" d="M143.684,-247.505C181.137,-261.92 254.569,-290.157 317,-314 321.916,-315.878 327.106,-317.855 332.208,-319.796"/>
<polygon fill="midnightblue" stroke="midnightblue" points="331.223,-323.166 341.814,-323.448 333.71,-316.623 331.223,-323.166"/>
</g>
<!-- Node7 -->
<g id="node7" class="node"><title>Node7</title>
<g id="a_node7"><a xlink:href="../../d2/df3/rle__hdr_8c.html#afc916e29aea8788e0878ca315ff69821" target="_top" xlink:title="rle_hdr_cp">
<polygon fill="white" stroke="black" points="205,-209.5 205,-228.5 273,-228.5 273,-209.5 205,-209.5"/>
<text text-anchor="middle" x="239" y="-216.5" font-family="Helvetica,sans-Serif" font-size="10.00">rle_hdr_cp</text>
</a>
</g>
</g>
<!-- Node4&#45;&gt;Node7 -->
<g id="edge6" class="edge"><title>Node4&#45;&gt;Node7</title>
<path fill="none" stroke="midnightblue" d="M143.657,-228.47C158.315,-225.022 177.329,-221.674 194.443,-219.425"/>
<polygon fill="midnightblue" stroke="midnightblue" points="195.289,-222.848 204.797,-218.175 194.45,-215.898 195.289,-222.848"/>
</g>
<!-- Node6 -->
<g id="node6" class="node"><title>Node6</title>
<g id="a_node6"><a xlink:href="../../d0/dcc/rletorla_8c.html#aafde19f7d36ca163a143579c1b125b6d" target="_top" xlink:title="free">
<polygon fill="white" stroke="black" points="470.5,-304.5 470.5,-323.5 505.5,-323.5 505.5,-304.5 470.5,-304.5"/>
<text text-anchor="middle" x="488" y="-311.5" font-family="Helvetica,sans-Serif" font-size="10.00">free</text>
</a>
</g>
</g>
<!-- Node5&#45;&gt;Node6 -->
<g id="edge5" class="edge"><title>Node5&#45;&gt;Node6</title>
<path fill="none" stroke="midnightblue" d="M408.292,-326.673C425.397,-323.919 444.998,-320.763 460.361,-318.289"/>
<polygon fill="midnightblue" stroke="midnightblue" points="460.92,-321.744 470.236,-316.699 459.807,-314.834 460.92,-321.744"/>
</g>
<!-- Node7&#45;&gt;Node4 -->
<g id="edge7" class="edge"><title>Node7&#45;&gt;Node4</title>
<path fill="none" stroke="midnightblue" d="M213.348,-228.528C198.915,-231.924 180.258,-235.223 163.349,-237.471"/>
<polygon fill="midnightblue" stroke="midnightblue" points="162.601,-234.036 153.101,-238.726 163.452,-240.984 162.601,-234.036"/>
</g>
<!-- Node8 -->
<g id="node8" class="node"><title>Node8</title>
<g id="a_node8"><a xlink:href="../../d0/dcc/rletorla_8c.html#ab7e36af3707843f77cc5b4e831c2fa6d" target="_top" xlink:title="malloc">
<polygon fill="white" stroke="black" points="464.5,-209.5 464.5,-228.5 511.5,-228.5 511.5,-209.5 464.5,-209.5"/>
<text text-anchor="middle" x="488" y="-216.5" font-family="Helvetica,sans-Serif" font-size="10.00">malloc</text>
</a>
</g>
</g>
<!-- Node7&#45;&gt;Node8 -->
<g id="edge8" class="edge"><title>Node7&#45;&gt;Node8</title>
<path fill="none" stroke="midnightblue" d="M273.055,-219C320.374,-219 406.906,-219 454.125,-219"/>
<polygon fill="midnightblue" stroke="midnightblue" points="454.407,-222.5 464.407,-219 454.407,-215.5 454.407,-222.5"/>
</g>
<!-- Node7&#45;&gt;Node9 -->
<g id="edge9" class="edge"><title>Node7&#45;&gt;Node9</title>
<path fill="none" stroke="midnightblue" d="M272.047,-228.589C288.141,-233.404 307.841,-239.299 325.117,-244.468"/>
<polygon fill="midnightblue" stroke="midnightblue" points="324.379,-247.901 334.963,-247.414 326.386,-241.194 324.379,-247.901"/>
</g>
<!-- Node9&#45;&gt;Node6 -->
<g id="edge10" class="edge"><title>Node9&#45;&gt;Node6</title>
<path fill="none" stroke="midnightblue" d="M396.288,-266.543C403.745,-269.373 411.762,-272.625 419,-276 433.893,-282.945 449.967,-291.858 462.747,-299.306"/>
<polygon fill="midnightblue" stroke="midnightblue" points="461.016,-302.349 471.406,-304.422 464.576,-296.322 461.016,-302.349"/>
</g>
<!-- Node9&#45;&gt;Node8 -->
<g id="edge11" class="edge"><title>Node9&#45;&gt;Node8</title>
<path fill="none" stroke="midnightblue" d="M398.776,-247.411C415.784,-241.934 437.127,-235.061 454.559,-229.447"/>
<polygon fill="midnightblue" stroke="midnightblue" points="455.864,-232.704 464.31,-226.307 453.718,-226.041 455.864,-232.704"/>
</g>
<!-- Node12 -->
<g id="node12" class="node"><title>Node12</title>
<g id="a_node12"><a xlink:href="../../de/d4e/rle__open__f_8c.html#a5a0e62a00f907fce26e93b2f72adb2b0" target="_top" xlink:title="rle_open_f_noexit">
<polygon fill="white" stroke="black" points="317,-361.5 317,-380.5 419,-380.5 419,-361.5 317,-361.5"/>
<text text-anchor="middle" x="368" y="-368.5" font-family="Helvetica,sans-Serif" font-size="10.00">rle_open_f_noexit</text>
</a>
</g>
</g>
<!-- Node11&#45;&gt;Node12 -->
<g id="edge15" class="edge"><title>Node11&#45;&gt;Node12</title>
<path fill="none" stroke="midnightblue" d="M273.036,-371C283.382,-371 295.141,-371 306.755,-371"/>
<polygon fill="midnightblue" stroke="midnightblue" points="306.885,-374.5 316.885,-371 306.885,-367.5 306.885,-374.5"/>
</g>
<!-- Node12&#45;&gt;Node6 -->
<g id="edge18" class="edge"><title>Node12&#45;&gt;Node6</title>
<path fill="none" stroke="midnightblue" d="M396.288,-361.457C403.745,-358.627 411.762,-355.375 419,-352 433.893,-345.055 449.967,-336.142 462.747,-328.694"/>
<polygon fill="midnightblue" stroke="midnightblue" points="464.576,-331.678 471.406,-323.578 461.016,-325.651 464.576,-331.678"/>
</g>
<!-- Node12&#45;&gt;Node8 -->
<g id="edge17" class="edge"><title>Node12&#45;&gt;Node8</title>
<path fill="none" stroke="midnightblue" d="M404.235,-361.423C409.569,-358.938 414.712,-355.842 419,-352 437.299,-335.603 465.765,-270.609 479.321,-237.946"/>
<polygon fill="midnightblue" stroke="midnightblue" points="482.606,-239.159 483.167,-228.579 476.131,-236.501 482.606,-239.159"/>
</g>
<!-- Node13 -->
<g id="node13" class="node"><title>Node13</title>
<g id="a_node13"><a xlink:href="../../de/d4e/rle__open__f_8c.html#a84fda810ae9b9bde82a6391d0b264ead" target="_top" xlink:title="my_popen">
<polygon fill="white" stroke="black" points="455,-361.5 455,-380.5 521,-380.5 521,-361.5 455,-361.5"/>
<text text-anchor="middle" x="488" y="-368.5" font-family="Helvetica,sans-Serif" font-size="10.00">my_popen</text>
</a>
</g>
</g>
<!-- Node12&#45;&gt;Node13 -->
<g id="edge16" class="edge"><title>Node12&#45;&gt;Node13</title>
<path fill="none" stroke="midnightblue" d="M419.043,-371C427.523,-371 436.255,-371 444.518,-371"/>
<polygon fill="midnightblue" stroke="midnightblue" points="444.678,-374.5 454.678,-371 444.678,-367.5 444.678,-374.5"/>
</g>
<!-- Node15&#45;&gt;Node8 -->
<g id="edge23" class="edge"><title>Node15&#45;&gt;Node8</title>
<path fill="none" stroke="midnightblue" d="M273.655,-113.195C310.658,-122.981 371.201,-141.311 419,-167 437.256,-176.811 455.801,-191.364 468.902,-202.581"/>
<polygon fill="midnightblue" stroke="midnightblue" points="466.841,-205.428 476.668,-209.387 471.455,-200.164 466.841,-205.428"/>
</g>
<!-- Node16 -->
<g id="node16" class="node"><title>Node16</title>
<g id="a_node16"><a xlink:href="../../db/db2/rle__getcom_8c.html#a9cefd612c381bf82c9cdf1f3a3b12dd6" target="_top" xlink:title="rle_getcom">
<polygon fill="white" stroke="black" points="333.5,-57.5 333.5,-76.5 402.5,-76.5 402.5,-57.5 333.5,-57.5"/>
<text text-anchor="middle" x="368" y="-64.5" font-family="Helvetica,sans-Serif" font-size="10.00">rle_getcom</text>
</a>
</g>
</g>
<!-- Node15&#45;&gt;Node16 -->
<g id="edge21" class="edge"><title>Node15&#45;&gt;Node16</title>
<path fill="none" stroke="midnightblue" d="M272.047,-95.411C288.141,-90.5956 307.841,-84.7012 325.117,-79.532"/>
<polygon fill="midnightblue" stroke="midnightblue" points="326.386,-82.8057 334.963,-76.5859 324.379,-76.0994 326.386,-82.8057"/>
</g>
<!-- Node18 -->
<g id="node18" class="node"><title>Node18</title>
<g id="a_node18"><a xlink:href="../../df/da5/rle__putcom_8c.html#a6fa8528c32d14763efe2a534e409e321" target="_top" xlink:title="rle_putcom">
<polygon fill="white" stroke="black" points="334,-95.5 334,-114.5 402,-114.5 402,-95.5 334,-95.5"/>
<text text-anchor="middle" x="368" y="-102.5" font-family="Helvetica,sans-Serif" font-size="10.00">rle_putcom</text>
</a>
</g>
</g>
<!-- Node15&#45;&gt;Node18 -->
<g id="edge24" class="edge"><title>Node15&#45;&gt;Node18</title>
<path fill="none" stroke="midnightblue" d="M273.7,-105C288.891,-105 307.024,-105 323.248,-105"/>
<polygon fill="midnightblue" stroke="midnightblue" points="323.583,-108.5 333.583,-105 323.583,-101.5 323.583,-108.5"/>
</g>
<!-- Node17 -->
<g id="node17" class="node"><title>Node17</title>
<g id="a_node17"><a xlink:href="../../db/db2/rle__getcom_8c.html#a7502c8b599724ce86fee5df1311a2337" target="_top" xlink:title="match">
<polygon fill="white" stroke="black" points="465.5,-57.5 465.5,-76.5 510.5,-76.5 510.5,-57.5 465.5,-57.5"/>
<text text-anchor="middle" x="488" y="-64.5" font-family="Helvetica,sans-Serif" font-size="10.00">match</text>
</a>
</g>
</g>
<!-- Node16&#45;&gt;Node17 -->
<g id="edge22" class="edge"><title>Node16&#45;&gt;Node17</title>
<path fill="none" stroke="midnightblue" d="M402.814,-67C419.35,-67 439.136,-67 455.37,-67"/>
<polygon fill="midnightblue" stroke="midnightblue" points="455.456,-70.5001 465.456,-67 455.456,-63.5001 455.456,-70.5001"/>
</g>
<!-- Node18&#45;&gt;Node8 -->
<g id="edge25" class="edge"><title>Node18&#45;&gt;Node8</title>
<path fill="none" stroke="midnightblue" d="M394.795,-114.548C403.025,-118.309 411.845,-123.147 419,-129 444.011,-149.459 465.03,-180.933 476.812,-200.724"/>
<polygon fill="midnightblue" stroke="midnightblue" points="473.795,-202.498 481.832,-209.401 479.854,-198.993 473.795,-202.498"/>
</g>
<!-- Node19 -->
<g id="node19" class="node"><title>Node19</title>
<g id="a_node19"><a xlink:href="../../df/da5/rle__putcom_8c.html#a7502c8b599724ce86fee5df1311a2337" target="_top" xlink:title="match">
<polygon fill="white" stroke="black" points="465.5,-95.5 465.5,-114.5 510.5,-114.5 510.5,-95.5 465.5,-95.5"/>
<text text-anchor="middle" x="488" y="-102.5" font-family="Helvetica,sans-Serif" font-size="10.00">match</text>
</a>
</g>
</g>
<!-- Node18&#45;&gt;Node19 -->
<g id="edge26" class="edge"><title>Node18&#45;&gt;Node19</title>
<path fill="none" stroke="midnightblue" d="M402.184,-105C418.735,-105 438.664,-105 455.044,-105"/>
<polygon fill="midnightblue" stroke="midnightblue" points="455.224,-108.5 465.224,-105 455.224,-101.5 455.224,-108.5"/>
</g>
<!-- Node21 -->
<g id="node21" class="node"><title>Node21</title>
<g id="a_node21"><a xlink:href="../../d9/d2a/rle__putrow_8c.html#a46d9789104d5d1f09253a808fdad5346" target="_top" xlink:title="rle_put_init">
<polygon fill="white" stroke="black" points="205,-38.5 205,-57.5 273,-57.5 273,-38.5 205,-38.5"/>
<text text-anchor="middle" x="239" y="-45.5" font-family="Helvetica,sans-Serif" font-size="10.00">rle_put_init</text>
</a>
</g>
</g>
<!-- Node20&#45;&gt;Node21 -->
<g id="edge28" class="edge"><title>Node20&#45;&gt;Node21</title>
<path fill="none" stroke="midnightblue" d="M158.295,-48C169.919,-48 182.711,-48 194.58,-48"/>
<polygon fill="midnightblue" stroke="midnightblue" points="194.72,-51.5001 204.72,-48 194.72,-44.5001 194.72,-51.5001"/>
</g>
<!-- Node22&#45;&gt;Node6 -->
<g id="edge31" class="edge"><title>Node22&#45;&gt;Node6</title>
<path fill="none" stroke="midnightblue" d="M408.292,-301.327C425.397,-304.081 444.998,-307.237 460.361,-309.711"/>
<polygon fill="midnightblue" stroke="midnightblue" points="459.807,-313.166 470.236,-311.301 460.92,-306.256 459.807,-313.166"/>
</g>
<!-- Node22&#45;&gt;Node8 -->
<g id="edge30" class="edge"><title>Node22&#45;&gt;Node8</title>
<path fill="none" stroke="midnightblue" d="M399.104,-285.428C405.851,-282.777 412.832,-279.617 419,-276 438.147,-264.771 457.284,-248.124 470.355,-235.716"/>
<polygon fill="midnightblue" stroke="midnightblue" points="472.921,-238.103 477.656,-228.625 468.044,-233.082 472.921,-238.103"/>
</g>
<!-- Node24&#45;&gt;Node8 -->
<g id="edge34" class="edge"><title>Node24&#45;&gt;Node8</title>
<path fill="none" stroke="midnightblue" d="M151.294,-199.127C184.004,-198.449 236.048,-197.931 281,-200 342.423,-202.827 413.822,-210.37 454.384,-215.057"/>
<polygon fill="midnightblue" stroke="midnightblue" points="454.151,-218.554 464.49,-216.24 454.965,-211.601 454.151,-218.554"/>
</g>
<!-- Node25 -->
<g id="node25" class="node"><title>Node25</title>
<g id="a_node25"><a xlink:href="../../d9/d2a/rle__putrow_8c.html#aaa4133bf4a6cbf287444448497631f26" target="_top" xlink:title="findruns">
<polygon fill="white" stroke="black" points="212,-133.5 212,-152.5 266,-152.5 266,-133.5 212,-133.5"/>
<text text-anchor="middle" x="239" y="-140.5" font-family="Helvetica,sans-Serif" font-size="10.00">findruns</text>
</a>
</g>
</g>
<!-- Node24&#45;&gt;Node25 -->
<g id="edge35" class="edge"><title>Node24&#45;&gt;Node25</title>
<path fill="none" stroke="midnightblue" d="M138.918,-190.459C158.053,-181.294 187.184,-167.341 208.913,-156.932"/>
<polygon fill="midnightblue" stroke="midnightblue" points="210.51,-160.048 218.017,-152.572 207.486,-153.735 210.51,-160.048"/>
</g>
</g>
</svg>
