<?xml version="1.0" encoding="UTF-8" standalone="no"?>
<!DOCTYPE svg PUBLIC "-//W3C//DTD SVG 1.1//EN"
 "http://www.w3.org/Graphics/SVG/1.1/DTD/svg11.dtd">
<!-- Generated by graphviz version 2.38.0 (20140413.2041)
 -->
<!-- Title: rle_get_setup_ok Pages: 1 -->
<svg width="313pt" height="256pt"
 viewBox="0.00 0.00 313.00 256.00" xmlns="http://www.w3.org/2000/svg" xmlns:xlink="http://www.w3.org/1999/xlink">
<g id="graph0" class="graph" transform="scale(1 1) rotate(0) translate(4 252)">
<title>rle_get_setup_ok</title>
<polygon fill="white" stroke="none" points="-4,4 -4,-252 309,-252 309,4 -4,4"/>
<!-- Node1 -->
<g id="node1" class="node"><title>Node1</title>
<polygon fill="#bfbfbf" stroke="black" points="0,-114.5 0,-133.5 98,-133.5 98,-114.5 0,-114.5"/>
<text text-anchor="middle" x="49" y="-121.5" font-family="Helvetica,sans-Serif" font-size="10.00">rle_get_setup_ok</text>
</g>
<!-- Node2 -->
<g id="node2" class="node"><title>Node2</title>
<g id="a_node2"><a xlink:href="../../d2/db1/getbob_8c.html#a0708a0954f39ecdc7aa901286295ad01" target="_top" xlink:title="main">
<polygon fill="white" stroke="black" points="151,-228.5 151,-247.5 190,-247.5 190,-228.5 151,-228.5"/>
<text text-anchor="middle" x="170.5" y="-235.5" font-family="Helvetica,sans-Serif" font-size="10.00">main</text>
</a>
</g>
</g>
<!-- Node1&#45;&gt;Node2 -->
<g id="edge1" class="edge"><title>Node1&#45;&gt;Node2</title>
<path fill="none" stroke="midnightblue" d="M62.6361,-141.782C77.8397,-162.266 104.968,-196.042 134,-219 139.045,-222.989 145.048,-226.565 150.67,-229.509"/>
<polygon fill="midnightblue" stroke="midnightblue" points="65.4206,-139.66 56.7024,-133.64 59.7634,-143.783 65.4206,-139.66"/>
</g>
<!-- Node3 -->
<g id="node3" class="node"><title>Node3</title>
<g id="a_node3"><a xlink:href="../../dc/d7d/getmex_8c.html#ae0bd10121c9d36b3e835d5fee4c1476d" target="_top" xlink:title="get_pic">
<polygon fill="white" stroke="black" points="145,-190.5 145,-209.5 196,-209.5 196,-190.5 145,-190.5"/>
<text text-anchor="middle" x="170.5" y="-197.5" font-family="Helvetica,sans-Serif" font-size="10.00">get_pic</text>
</a>
</g>
</g>
<!-- Node1&#45;&gt;Node3 -->
<g id="edge2" class="edge"><title>Node1&#45;&gt;Node3</title>
<path fill="none" stroke="midnightblue" d="M71.5976,-139.575C88.3259,-151.411 112.24,-167.844 134,-181 139.384,-184.255 145.37,-187.57 150.869,-190.5"/>
<polygon fill="midnightblue" stroke="midnightblue" points="73.2778,-136.474 63.1026,-133.522 69.2156,-142.175 73.2778,-136.474"/>
</g>
<!-- Node5 -->
<g id="node5" class="node"><title>Node5</title>
<g id="a_node5"><a xlink:href="../../d6/d28/gettaac_8c.html#ac6597f5cb5e1205e800704d584f65e68" target="_top" xlink:title="read_file">
<polygon fill="white" stroke="black" points="141.5,-152.5 141.5,-171.5 199.5,-171.5 199.5,-152.5 141.5,-152.5"/>
<text text-anchor="middle" x="170.5" y="-159.5" font-family="Helvetica,sans-Serif" font-size="10.00">read_file</text>
</a>
</g>
</g>
<!-- Node1&#45;&gt;Node5 -->
<g id="edge4" class="edge"><title>Node1&#45;&gt;Node5</title>
<path fill="none" stroke="midnightblue" d="M89.7859,-136.652C106.698,-142.03 126.021,-148.174 141.407,-153.067"/>
<polygon fill="midnightblue" stroke="midnightblue" points="90.7453,-133.284 80.1549,-133.589 88.624,-139.955 90.7453,-133.284"/>
</g>
<!-- Node7 -->
<g id="node7" class="node"><title>Node7</title>
<g id="a_node7"><a xlink:href="../../dd/d78/rle_8c.html#a478b503fdb4cd225b8220ac26c163ba7" target="_top" xlink:title="rasterInit">
<polygon fill="white" stroke="black" points="141,-114.5 141,-133.5 200,-133.5 200,-114.5 141,-114.5"/>
<text text-anchor="middle" x="170.5" y="-121.5" font-family="Helvetica,sans-Serif" font-size="10.00">rasterInit</text>
</a>
</g>
</g>
<!-- Node1&#45;&gt;Node7 -->
<g id="edge6" class="edge"><title>Node1&#45;&gt;Node7</title>
<path fill="none" stroke="midnightblue" d="M108.479,-124C119.673,-124 130.926,-124 140.666,-124"/>
<polygon fill="midnightblue" stroke="midnightblue" points="108.261,-120.5 98.2608,-124 108.261,-127.5 108.261,-120.5"/>
</g>
<!-- Node8 -->
<g id="node8" class="node"><title>Node8</title>
<g id="a_node8"><a xlink:href="../../d6/d10/rletoalias_8c.html#a86cf5e03c7b351c5a62a6951d179f6a5" target="_top" xlink:title="read_rle">
<polygon fill="white" stroke="black" points="142.5,-76.5 142.5,-95.5 198.5,-95.5 198.5,-76.5 142.5,-76.5"/>
<text text-anchor="middle" x="170.5" y="-83.5" font-family="Helvetica,sans-Serif" font-size="10.00">read_rle</text>
</a>
</g>
</g>
<!-- Node1&#45;&gt;Node8 -->
<g id="edge7" class="edge"><title>Node1&#45;&gt;Node8</title>
<path fill="none" stroke="midnightblue" d="M89.9324,-111.302C107.107,-105.84 126.746,-99.5954 142.215,-94.6763"/>
<polygon fill="midnightblue" stroke="midnightblue" points="88.624,-108.045 80.1549,-114.411 90.7453,-114.716 88.624,-108.045"/>
</g>
<!-- Node9 -->
<g id="node9" class="node"><title>Node9</title>
<g id="a_node9"><a xlink:href="../../d5/da8/rletovcr_8c.html#aba26f4d31d659f02d1106070249cda49" target="_top" xlink:title="read_image">
<polygon fill="white" stroke="black" points="134,-38.5 134,-57.5 207,-57.5 207,-38.5 134,-38.5"/>
<text text-anchor="middle" x="170.5" y="-45.5" font-family="Helvetica,sans-Serif" font-size="10.00">read_image</text>
</a>
</g>
</g>
<!-- Node1&#45;&gt;Node9 -->
<g id="edge8" class="edge"><title>Node1&#45;&gt;Node9</title>
<path fill="none" stroke="midnightblue" d="M71.5976,-108.425C88.3259,-96.5886 112.24,-80.1564 134,-67 139.384,-63.7449 145.37,-60.4302 150.869,-57.5001"/>
<polygon fill="midnightblue" stroke="midnightblue" points="69.2156,-105.825 63.1026,-114.478 73.2778,-111.526 69.2156,-105.825"/>
</g>
<!-- Node11 -->
<g id="node11" class="node"><title>Node11</title>
<g id="a_node11"><a xlink:href="../../df/dfb/unslice_8c.html#a7090aec632931a42b5d606b6db234b9d" target="_top" xlink:title="do_slice">
<polygon fill="white" stroke="black" points="142.5,-0.5 142.5,-19.5 198.5,-19.5 198.5,-0.5 142.5,-0.5"/>
<text text-anchor="middle" x="170.5" y="-7.5" font-family="Helvetica,sans-Serif" font-size="10.00">do_slice</text>
</a>
</g>
</g>
<!-- Node1&#45;&gt;Node11 -->
<g id="edge10" class="edge"><title>Node1&#45;&gt;Node11</title>
<path fill="none" stroke="midnightblue" d="M62.6361,-106.218C77.8397,-85.7343 104.968,-51.9584 134,-29 138.387,-25.5312 143.498,-22.3749 148.454,-19.6746"/>
<polygon fill="midnightblue" stroke="midnightblue" points="59.7634,-104.217 56.7024,-114.36 65.4206,-108.34 59.7634,-104.217"/>
</g>
<!-- Node4 -->
<g id="node4" class="node"><title>Node4</title>
<g id="a_node4"><a xlink:href="../../dc/d7d/getmex_8c.html#a2e1c56207484e456874379d624fc0e67" target="_top" xlink:title="main">
<polygon fill="white" stroke="black" points="254.5,-190.5 254.5,-209.5 293.5,-209.5 293.5,-190.5 254.5,-190.5"/>
<text text-anchor="middle" x="274" y="-197.5" font-family="Helvetica,sans-Serif" font-size="10.00">main</text>
</a>
</g>
</g>
<!-- Node3&#45;&gt;Node4 -->
<g id="edge3" class="edge"><title>Node3&#45;&gt;Node4</title>
<path fill="none" stroke="midnightblue" d="M206.252,-200C222.393,-200 240.94,-200 254.38,-200"/>
<polygon fill="midnightblue" stroke="midnightblue" points="206.07,-196.5 196.07,-200 206.07,-203.5 206.07,-196.5"/>
</g>
<!-- Node6 -->
<g id="node6" class="node"><title>Node6</title>
<g id="a_node6"><a xlink:href="../../d6/d28/gettaac_8c.html#a4f03a057a0e8afba60fcb95a988c80d1" target="_top" xlink:title="init_panel">
<polygon fill="white" stroke="black" points="243,-152.5 243,-171.5 305,-171.5 305,-152.5 243,-152.5"/>
<text text-anchor="middle" x="274" y="-159.5" font-family="Helvetica,sans-Serif" font-size="10.00">init_panel</text>
</a>
</g>
</g>
<!-- Node5&#45;&gt;Node6 -->
<g id="edge5" class="edge"><title>Node5&#45;&gt;Node6</title>
<path fill="none" stroke="midnightblue" d="M209.713,-162C220.704,-162 232.533,-162 242.955,-162"/>
<polygon fill="midnightblue" stroke="midnightblue" points="209.504,-158.5 199.504,-162 209.504,-165.5 209.504,-158.5"/>
</g>
<!-- Node10 -->
<g id="node10" class="node"><title>Node10</title>
<g id="a_node10"><a xlink:href="../../d5/da8/rletovcr_8c.html#afced8478b91af5c169926dfa4426333d" target="_top" xlink:title="main">
<polygon fill="white" stroke="black" points="254.5,-38.5 254.5,-57.5 293.5,-57.5 293.5,-38.5 254.5,-38.5"/>
<text text-anchor="middle" x="274" y="-45.5" font-family="Helvetica,sans-Serif" font-size="10.00">main</text>
</a>
</g>
</g>
<!-- Node9&#45;&gt;Node10 -->
<g id="edge9" class="edge"><title>Node9&#45;&gt;Node10</title>
<path fill="none" stroke="midnightblue" d="M217.546,-48C230.534,-48 243.936,-48 254.31,-48"/>
<polygon fill="midnightblue" stroke="midnightblue" points="217.285,-44.5001 207.285,-48 217.285,-51.5001 217.285,-44.5001"/>
</g>
</g>
</svg>
