<?xml version="1.0" encoding="UTF-8" standalone="no"?>
<!DOCTYPE svg PUBLIC "-//W3C//DTD SVG 1.1//EN"
 "http://www.w3.org/Graphics/SVG/1.1/DTD/svg11.dtd">
<!-- Generated by graphviz version 2.38.0 (20140413.2041)
 -->
<!-- Title: rle_getrow Pages: 1 -->
<!--zoomable 902 -->
<svg id="main" version="1.1" xmlns="http://www.w3.org/2000/svg" xmlns:xlink="http://www.w3.org/1999/xlink" xml:space="preserve" onload="init(evt)">
<style type="text/css"><![CDATA[
.edge:hover path { stroke: red; }
.edge:hover polygon { stroke: red; fill: red; }
]]></style>
<script type="text/javascript"><![CDATA[
var edges = document.getElementsByTagName('g');
if (edges && edges.length) {
  for (var i=0;i<edges.length;i++) {
    if (edges[i].id.substr(0,4)=='edge') {
      edges[i].setAttribute('class','edge');
    }
  }
}
]]></script>
        <defs>
                <circle id="rim" cx="0" cy="0" r="7"/>
                <circle id="rim2" cx="0" cy="0" r="3.5"/>
                <g id="zoomPlus">
                        <use xlink:href="#rim" fill="#404040">
                                <set attributeName="fill" to="#808080" begin="zoomplus.mouseover" end="zoomplus.mouseout"/>
                        </use>
                        <path d="M-4,0h8M0,-4v8" fill="none" stroke="white" stroke-width="1.5" pointer-events="none"/>
                </g>
                <g id="zoomMin">
                        <use xlink:href="#rim" fill="#404040">
                                <set attributeName="fill" to="#808080" begin="zoomminus.mouseover" end="zoomminus.mouseout"/>
                        </use>
                        <path d="M-4,0h8" fill="none" stroke="white" stroke-width="1.5" pointer-events="none"/>
                </g>
                <g id="dirArrow">
                        <path fill="none" stroke="white" stroke-width="1.5" d="M0,-3.0v7 M-2.5,-0.5L0,-3.0L2.5,-0.5"/>
                </g>
               <g id="resetDef">
                       <use xlink:href="#rim2" fill="#404040">
                               <set attributeName="fill" to="#808080" begin="reset.mouseover" end="reset.mouseout"/>
                       </use>
               </g>
        </defs>

<script type="text/javascript">
var viewWidth = 314;
var viewHeight = 902;
var sectionId = 'dynsection-8';
</script>
<script xlink:href="../../svgpan.js"/>
<svg id="graph" class="graph">
<g id="viewport">
<title>rle_getrow</title>
<polygon fill="white" stroke="none" points="-4,4 -4,-898 310,-898 310,4 -4,4"/>
<!-- Node1 -->
<g id="node1" class="node"><title>Node1</title>
<polygon fill="#bfbfbf" stroke="black" points="0,-437.5 0,-456.5 67,-456.5 67,-437.5 0,-437.5"/>
<text text-anchor="middle" x="33.5" y="-444.5" font-family="Helvetica,sans-Serif" font-size="10.00">rle_getrow</text>
</g>
<!-- Node2 -->
<g id="node2" class="node"><title>Node2</title>
<g id="a_node2"><a xlink:href="../../d6/dcb/avg4_8c.html#ade521a0600ded19f1720b6f6df59b480" target="_top" xlink:title="main">
<polygon fill="white" stroke="black" points="147.5,-874.5 147.5,-893.5 186.5,-893.5 186.5,-874.5 147.5,-874.5"/>
<text text-anchor="middle" x="167" y="-881.5" font-family="Helvetica,sans-Serif" font-size="10.00">main</text>
</a>
</g>
</g>
<!-- Node1&#45;&gt;Node2 -->
<g id="edge1" class="edge"><title>Node1&#45;&gt;Node2</title>
<path fill="none" stroke="midnightblue" d="M35.0581,-467.088C37.5423,-542.092 49.9442,-804.527 103,-865 114.075,-877.624 133.204,-882.015 147.486,-883.465"/>
<polygon fill="midnightblue" stroke="midnightblue" points="38.5451,-466.608 34.7398,-456.72 31.5484,-466.822 38.5451,-466.608"/>
</g>
<!-- Node3 -->
<g id="node3" class="node"><title>Node3</title>
<g id="a_node3"><a xlink:href="../../dd/ddd/fant_8c.html#a2a393adf5cfdf56d9378b9b420ee8107" target="_top" xlink:title="getraster">
<polygon fill="white" stroke="black" points="137.5,-836.5 137.5,-855.5 196.5,-855.5 196.5,-836.5 137.5,-836.5"/>
<text text-anchor="middle" x="167" y="-843.5" font-family="Helvetica,sans-Serif" font-size="10.00">getraster</text>
</a>
</g>
</g>
<!-- Node1&#45;&gt;Node3 -->
<g id="edge2" class="edge"><title>Node1&#45;&gt;Node3</title>
<path fill="none" stroke="midnightblue" d="M35.3952,-466.605C38.977,-536.558 54.5098,-772.61 103,-827 111.667,-836.721 125.108,-841.552 137.352,-843.921"/>
<polygon fill="midnightblue" stroke="midnightblue" points="38.8868,-466.345 34.9045,-456.527 31.8951,-466.685 38.8868,-466.345"/>
</g>
<!-- Node4 -->
<g id="node4" class="node"><title>Node4</title>
<g id="a_node4"><a xlink:href="../../d3/d46/get4d_8c.html#af1e5f57fa511be9fa99aee630ceba576" target="_top" xlink:title="get_pic">
<polygon fill="white" stroke="black" points="141.5,-798.5 141.5,-817.5 192.5,-817.5 192.5,-798.5 141.5,-798.5"/>
<text text-anchor="middle" x="167" y="-805.5" font-family="Helvetica,sans-Serif" font-size="10.00">get_pic</text>
</a>
</g>
</g>
<!-- Node1&#45;&gt;Node4 -->
<g id="edge3" class="edge"><title>Node1&#45;&gt;Node4</title>
<path fill="none" stroke="midnightblue" d="M35.8331,-466.722C40.6442,-532.179 59.196,-740.812 103,-789 112.682,-799.651 128.095,-804.42 141.252,-806.517"/>
<polygon fill="midnightblue" stroke="midnightblue" points="39.3102,-466.274 35.1127,-456.546 32.3277,-466.768 39.3102,-466.274"/>
</g>
<!-- Node6 -->
<g id="node6" class="node"><title>Node6</title>
<g id="a_node6"><a xlink:href="../../dc/d11/getami_8c.html#aa654afe741816fa93d1cd7e49ef583ec" target="_top" xlink:title="find_most_used">
<polygon fill="white" stroke="black" points="121.5,-760.5 121.5,-779.5 212.5,-779.5 212.5,-760.5 121.5,-760.5"/>
<text text-anchor="middle" x="167" y="-767.5" font-family="Helvetica,sans-Serif" font-size="10.00">find_most_used</text>
</a>
</g>
</g>
<!-- Node1&#45;&gt;Node6 -->
<g id="edge5" class="edge"><title>Node1&#45;&gt;Node6</title>
<path fill="none" stroke="midnightblue" d="M36.3842,-466.863C42.526,-527.552 63.8619,-708.968 103,-751 107.982,-756.351 114.411,-760.214 121.252,-762.998"/>
<polygon fill="midnightblue" stroke="midnightblue" points="39.847,-466.312 35.3853,-456.703 32.8806,-466.997 39.847,-466.312"/>
</g>
<!-- Node8 -->
<g id="node8" class="node"><title>Node8</title>
<g id="a_node8"><a xlink:href="../../dc/d11/getami_8c.html#a3a79557c0de5078d1ea9206ce5eb3e77" target="_top" xlink:title="display_rle">
<polygon fill="white" stroke="black" points="133,-722.5 133,-741.5 201,-741.5 201,-722.5 133,-722.5"/>
<text text-anchor="middle" x="167" y="-729.5" font-family="Helvetica,sans-Serif" font-size="10.00">display_rle</text>
</a>
</g>
</g>
<!-- Node1&#45;&gt;Node8 -->
<g id="edge7" class="edge"><title>Node1&#45;&gt;Node8</title>
<path fill="none" stroke="midnightblue" d="M37.0757,-466.871C44.6433,-522.321 68.4694,-677.028 103,-713 110.832,-721.159 122.028,-725.849 132.815,-728.533"/>
<polygon fill="midnightblue" stroke="midnightblue" points="40.5004,-466.073 35.7096,-456.624 33.5618,-466.998 40.5004,-466.073"/>
</g>
<!-- Node9 -->
<g id="node9" class="node"><title>Node9</title>
<g id="a_node9"><a xlink:href="../../d9/dea/getcx3d_8c.html#ac43e38fef452c4a15d14abb67019a1b5" target="_top" xlink:title="getcx3d">
<polygon fill="white" stroke="black" points="140,-684.5 140,-703.5 194,-703.5 194,-684.5 140,-684.5"/>
<text text-anchor="middle" x="167" y="-691.5" font-family="Helvetica,sans-Serif" font-size="10.00">getcx3d</text>
</a>
</g>
</g>
<!-- Node1&#45;&gt;Node9 -->
<g id="edge9" class="edge"><title>Node1&#45;&gt;Node9</title>
<path fill="none" stroke="midnightblue" d="M34.5267,-467.09C35.7045,-511.104 44.8135,-616.752 103,-675 112.689,-684.699 127.137,-689.48 139.754,-691.822"/>
<polygon fill="midnightblue" stroke="midnightblue" points="38.0227,-466.79 34.3717,-456.844 31.0235,-466.896 38.0227,-466.79"/>
</g>
<!-- Node11 -->
<g id="node11" class="node"><title>Node11</title>
<g id="a_node11"><a xlink:href="../../d6/d28/gettaac_8c.html#ac6c7cb12df36734a7352513af238a386" target="_top" xlink:title="read_file_rgb">
<polygon fill="white" stroke="black" points="127.5,-646.5 127.5,-665.5 206.5,-665.5 206.5,-646.5 127.5,-646.5"/>
<text text-anchor="middle" x="167" y="-653.5" font-family="Helvetica,sans-Serif" font-size="10.00">read_file_rgb</text>
</a>
</g>
</g>
<!-- Node1&#45;&gt;Node11 -->
<g id="edge11" class="edge"><title>Node1&#45;&gt;Node11</title>
<path fill="none" stroke="midnightblue" d="M35.9798,-467.378C39.8921,-506.063 53.8854,-590.427 103,-637 109.715,-643.367 118.487,-647.607 127.343,-650.429"/>
<polygon fill="midnightblue" stroke="midnightblue" points="39.4238,-466.586 35.0615,-456.931 32.4507,-467.199 39.4238,-466.586"/>
</g>
<!-- Node12 -->
<g id="node12" class="node"><title>Node12</title>
<g id="a_node12"><a xlink:href="../../d6/d28/gettaac_8c.html#a803641e408e57eb0d69c043f05374c80" target="_top" xlink:title="read_file_gray">
<polygon fill="white" stroke="black" points="124.5,-608.5 124.5,-627.5 209.5,-627.5 209.5,-608.5 124.5,-608.5"/>
<text text-anchor="middle" x="167" y="-615.5" font-family="Helvetica,sans-Serif" font-size="10.00">read_file_gray</text>
</a>
</g>
</g>
<!-- Node1&#45;&gt;Node12 -->
<g id="edge12" class="edge"><title>Node1&#45;&gt;Node12</title>
<path fill="none" stroke="midnightblue" d="M37.9796,-466.882C44.6955,-499.3 62.5166,-563.482 103,-599 109.097,-604.349 116.658,-608.193 124.402,-610.954"/>
<polygon fill="midnightblue" stroke="midnightblue" points="41.3739,-465.999 36.0484,-456.84 34.4999,-467.321 41.3739,-465.999"/>
</g>
<!-- Node13 -->
<g id="node13" class="node"><title>Node13</title>
<g id="a_node13"><a xlink:href="../../d5/d6d/mcut_8c.html#ae8f2544df07a04da1f08ffc3b430c6c0" target="_top" xlink:title="quantize_rle">
<polygon fill="white" stroke="black" points="130,-570.5 130,-589.5 204,-589.5 204,-570.5 130,-570.5"/>
<text text-anchor="middle" x="167" y="-577.5" font-family="Helvetica,sans-Serif" font-size="10.00">quantize_rle</text>
</a>
</g>
</g>
<!-- Node1&#45;&gt;Node13 -->
<g id="edge13" class="edge"><title>Node1&#45;&gt;Node13</title>
<path fill="none" stroke="midnightblue" d="M41.0122,-466.183C50.6077,-491.581 70.952,-536.059 103,-561 110.753,-567.034 120.407,-571.158 129.81,-573.975"/>
<polygon fill="midnightblue" stroke="midnightblue" points="44.235,-464.802 37.5551,-456.578 37.6487,-467.172 44.235,-464.802"/>
</g>
<!-- Node14 -->
<g id="node14" class="node"><title>Node14</title>
<g id="a_node14"><a xlink:href="../../d5/d6d/mcut_8c.html#a9cc66ce9d63f137600680f9dc62a64e2" target="_top" xlink:title="quantize_dither_rle">
<polygon fill="white" stroke="black" points="113.5,-532.5 113.5,-551.5 220.5,-551.5 220.5,-532.5 113.5,-532.5"/>
<text text-anchor="middle" x="167" y="-539.5" font-family="Helvetica,sans-Serif" font-size="10.00">quantize_dither_rle</text>
</a>
</g>
</g>
<!-- Node1&#45;&gt;Node14 -->
<g id="edge14" class="edge"><title>Node1&#45;&gt;Node14</title>
<path fill="none" stroke="midnightblue" d="M46.5599,-465.35C58.8166,-482.614 79.3303,-507.992 103,-523 109.078,-526.854 115.98,-529.962 122.933,-532.457"/>
<polygon fill="midnightblue" stroke="midnightblue" points="49.1761,-462.976 40.6325,-456.711 43.4041,-466.937 49.1761,-462.976"/>
</g>
<!-- Node15 -->
<g id="node15" class="node"><title>Node15</title>
<g id="a_node15"><a xlink:href="../../df/d69/pyrlib_8c.html#a0df7ee8b612e9251716158b046c62143" target="_top" xlink:title="rle_to_pyramids">
<polygon fill="white" stroke="black" points="121,-494.5 121,-513.5 213,-513.5 213,-494.5 121,-494.5"/>
<text text-anchor="middle" x="167" y="-501.5" font-family="Helvetica,sans-Serif" font-size="10.00">rle_to_pyramids</text>
</a>
</g>
</g>
<!-- Node1&#45;&gt;Node15 -->
<g id="edge15" class="edge"><title>Node1&#45;&gt;Node15</title>
<path fill="none" stroke="midnightblue" d="M58.2416,-461.82C71.1444,-469.447 87.5762,-478.484 103,-485 111.419,-488.556 120.728,-491.746 129.55,-494.45"/>
<polygon fill="midnightblue" stroke="midnightblue" points="59.9062,-458.737 49.5349,-456.572 56.2926,-464.732 59.9062,-458.737"/>
</g>
<!-- Node16 -->
<g id="node16" class="node"><title>Node16</title>
<g id="a_node16"><a xlink:href="../../dd/d78/rle_8c.html#abf86d78ed4afb4806e8946de14b62fb4" target="_top" xlink:title="rasterRowGet">
<polygon fill="white" stroke="black" points="125.5,-456.5 125.5,-475.5 208.5,-475.5 208.5,-456.5 125.5,-456.5"/>
<text text-anchor="middle" x="167" y="-463.5" font-family="Helvetica,sans-Serif" font-size="10.00">rasterRowGet</text>
</a>
</g>
</g>
<!-- Node1&#45;&gt;Node16 -->
<g id="edge16" class="edge"><title>Node1&#45;&gt;Node16</title>
<path fill="none" stroke="midnightblue" d="M77.3384,-453.19C92.7801,-455.421 110.149,-457.93 125.394,-460.133"/>
<polygon fill="midnightblue" stroke="midnightblue" points="77.4034,-449.663 67.0056,-451.697 76.4023,-456.591 77.4034,-449.663"/>
</g>
<!-- Node17 -->
<g id="node17" class="node"><title>Node17</title>
<g id="a_node17"><a xlink:href="../../d4/dc6/interfaceRLE.html#a151be2ba0debedc4c36f7305a74354ec" target="_top" xlink:title="&#45;[RLE open:]">
<polygon fill="white" stroke="black" points="129.5,-418.5 129.5,-437.5 204.5,-437.5 204.5,-418.5 129.5,-418.5"/>
<text text-anchor="middle" x="167" y="-425.5" font-family="Helvetica,sans-Serif" font-size="10.00">&#45;[RLE open:]</text>
</a>
</g>
</g>
<!-- Node1&#45;&gt;Node17 -->
<g id="edge17" class="edge"><title>Node1&#45;&gt;Node17</title>
<path fill="none" stroke="midnightblue" d="M77.1235,-440.841C93.928,-438.413 113.042,-435.652 129.228,-433.313"/>
<polygon fill="midnightblue" stroke="midnightblue" points="76.4023,-437.409 67.0056,-442.303 77.4034,-444.337 76.4023,-437.409"/>
</g>
<!-- Node18 -->
<g id="node18" class="node"><title>Node18</title>
<g id="a_node18"><a xlink:href="../../d5/d2c/rlecomp_8c.html#ac0d599df6554bdc4183a566b919b9a57" target="_top" xlink:title="get_scanline">
<polygon fill="white" stroke="black" points="128.5,-380.5 128.5,-399.5 205.5,-399.5 205.5,-380.5 128.5,-380.5"/>
<text text-anchor="middle" x="167" y="-387.5" font-family="Helvetica,sans-Serif" font-size="10.00">get_scanline</text>
</a>
</g>
</g>
<!-- Node1&#45;&gt;Node18 -->
<g id="edge18" class="edge"><title>Node1&#45;&gt;Node18</title>
<path fill="none" stroke="midnightblue" d="M58.2416,-432.18C71.1444,-424.553 87.5762,-415.516 103,-409 111.419,-405.444 120.728,-402.254 129.55,-399.55"/>
<polygon fill="midnightblue" stroke="midnightblue" points="56.2926,-429.268 49.5349,-437.428 59.9062,-435.263 56.2926,-429.268"/>
</g>
<!-- Node19 -->
<g id="node19" class="node"><title>Node19</title>
<g id="a_node19"><a xlink:href="../../d1/d2c/rlehdr_8c.html#af162404c5103b31d3afbd772f64f520a" target="_top" xlink:title="print_codes">
<polygon fill="white" stroke="black" points="131,-342.5 131,-361.5 203,-361.5 203,-342.5 131,-342.5"/>
<text text-anchor="middle" x="167" y="-349.5" font-family="Helvetica,sans-Serif" font-size="10.00">print_codes</text>
</a>
</g>
</g>
<!-- Node1&#45;&gt;Node19 -->
<g id="edge19" class="edge"><title>Node1&#45;&gt;Node19</title>
<path fill="none" stroke="midnightblue" d="M46.5599,-428.65C58.8166,-411.386 79.3303,-386.008 103,-371 111.394,-365.678 121.359,-361.779 130.857,-358.95"/>
<polygon fill="midnightblue" stroke="midnightblue" points="43.4041,-427.063 40.6325,-437.289 49.1761,-431.024 43.4041,-427.063"/>
</g>
<!-- Node20 -->
<g id="node20" class="node"><title>Node20</title>
<g id="a_node20"><a xlink:href="../../dc/d5c/rlequant_8c.html#af5748bff1d2364682152642404e87aea" target="_top" xlink:title="read_input">
<polygon fill="white" stroke="black" points="133.5,-304.5 133.5,-323.5 200.5,-323.5 200.5,-304.5 133.5,-304.5"/>
<text text-anchor="middle" x="167" y="-311.5" font-family="Helvetica,sans-Serif" font-size="10.00">read_input</text>
</a>
</g>
</g>
<!-- Node1&#45;&gt;Node20 -->
<g id="edge20" class="edge"><title>Node1&#45;&gt;Node20</title>
<path fill="none" stroke="midnightblue" d="M41.0122,-427.817C50.6077,-402.419 70.952,-357.941 103,-333 111.745,-326.194 122.908,-321.818 133.401,-319.008"/>
<polygon fill="midnightblue" stroke="midnightblue" points="37.6487,-426.828 37.5551,-437.422 44.235,-429.198 37.6487,-426.828"/>
</g>
<!-- Node21 -->
<g id="node21" class="node"><title>Node21</title>
<g id="a_node21"><a xlink:href="../../da/d9d/rletoabA60_8c.html#a5a84a0a5332db8d82f290bd845eecc62" target="_top" xlink:title="read_image">
<polygon fill="white" stroke="black" points="130.5,-266.5 130.5,-285.5 203.5,-285.5 203.5,-266.5 130.5,-266.5"/>
<text text-anchor="middle" x="167" y="-273.5" font-family="Helvetica,sans-Serif" font-size="10.00">read_image</text>
</a>
</g>
</g>
<!-- Node1&#45;&gt;Node21 -->
<g id="edge21" class="edge"><title>Node1&#45;&gt;Node21</title>
<path fill="none" stroke="midnightblue" d="M37.9796,-427.118C44.6955,-394.7 62.5166,-330.518 103,-295 110.643,-288.295 120.586,-283.955 130.306,-281.147"/>
<polygon fill="midnightblue" stroke="midnightblue" points="34.4999,-426.679 36.0484,-437.16 41.3739,-428.001 34.4999,-426.679"/>
</g>
<!-- Node22 -->
<g id="node22" class="node"><title>Node22</title>
<g id="a_node22"><a xlink:href="../../d6/d10/rletoalias_8c.html#a86cf5e03c7b351c5a62a6951d179f6a5" target="_top" xlink:title="read_rle">
<polygon fill="white" stroke="black" points="139,-228.5 139,-247.5 195,-247.5 195,-228.5 139,-228.5"/>
<text text-anchor="middle" x="167" y="-235.5" font-family="Helvetica,sans-Serif" font-size="10.00">read_rle</text>
</a>
</g>
</g>
<!-- Node1&#45;&gt;Node22 -->
<g id="edge22" class="edge"><title>Node1&#45;&gt;Node22</title>
<path fill="none" stroke="midnightblue" d="M35.9798,-426.622C39.8921,-387.937 53.8854,-303.573 103,-257 112.616,-247.882 126.453,-243.126 138.711,-240.651"/>
<polygon fill="midnightblue" stroke="midnightblue" points="32.4507,-426.801 35.0615,-437.069 39.4238,-427.414 32.4507,-426.801"/>
</g>
<!-- Node23 -->
<g id="node23" class="node"><title>Node23</title>
<g id="a_node23"><a xlink:href="../../dc/d21/rletocgm_8c.html#a243dc5135972069e1dc4456356c8b498" target="_top" xlink:title="process_indexed_page">
<polygon fill="white" stroke="black" points="103,-190.5 103,-209.5 231,-209.5 231,-190.5 103,-190.5"/>
<text text-anchor="middle" x="167" y="-197.5" font-family="Helvetica,sans-Serif" font-size="10.00">process_indexed_page</text>
</a>
</g>
</g>
<!-- Node1&#45;&gt;Node23 -->
<g id="edge23" class="edge"><title>Node1&#45;&gt;Node23</title>
<path fill="none" stroke="midnightblue" d="M34.5267,-426.91C35.7045,-382.896 44.8135,-277.248 103,-219 106.875,-215.12 111.512,-212.028 116.489,-209.563"/>
<polygon fill="midnightblue" stroke="midnightblue" points="31.0235,-427.104 34.3717,-437.156 38.0227,-427.21 31.0235,-427.104"/>
</g>
<!-- Node25 -->
<g id="node25" class="node"><title>Node25</title>
<g id="a_node25"><a xlink:href="../../dc/d21/rletocgm_8c.html#a2aa020f076ba227eadc417c63ef8c5fa" target="_top" xlink:title="process_direct_page">
<polygon fill="white" stroke="black" points="109,-152.5 109,-171.5 225,-171.5 225,-152.5 109,-152.5"/>
<text text-anchor="middle" x="167" y="-159.5" font-family="Helvetica,sans-Serif" font-size="10.00">process_direct_page</text>
</a>
</g>
</g>
<!-- Node1&#45;&gt;Node25 -->
<g id="edge25" class="edge"><title>Node1&#45;&gt;Node25</title>
<path fill="none" stroke="midnightblue" d="M37.0757,-427.129C44.6433,-371.679 68.4694,-216.972 103,-181 106.718,-177.127 111.195,-174.035 116.026,-171.569"/>
<polygon fill="midnightblue" stroke="midnightblue" points="33.5618,-427.002 35.7096,-437.376 40.5004,-427.927 33.5618,-427.002"/>
</g>
<!-- Node26 -->
<g id="node26" class="node"><title>Node26</title>
<g id="a_node26"><a xlink:href="../../d7/d4a/rletogif_8c.html#ae6289c0f5ad8df9d34452253a23b385b" target="_top" xlink:title="get_scanlines">
<polygon fill="white" stroke="black" points="126,-114.5 126,-133.5 208,-133.5 208,-114.5 126,-114.5"/>
<text text-anchor="middle" x="167" y="-121.5" font-family="Helvetica,sans-Serif" font-size="10.00">get_scanlines</text>
</a>
</g>
</g>
<!-- Node1&#45;&gt;Node26 -->
<g id="edge27" class="edge"><title>Node1&#45;&gt;Node26</title>
<path fill="none" stroke="midnightblue" d="M36.3842,-427.137C42.526,-366.448 63.8619,-185.032 103,-143 109.072,-136.479 117.293,-132.167 125.789,-129.325"/>
<polygon fill="midnightblue" stroke="midnightblue" points="32.8806,-427.003 35.3853,-437.297 39.847,-427.688 32.8806,-427.003"/>
</g>
<!-- Node28 -->
<g id="node28" class="node"><title>Node28</title>
<g id="a_node28"><a xlink:href="../../d1/d55/rletoppm_8c.html#acc32e62ee705887470ad5627ec215e24" target="_top" xlink:title="write_ppm_data">
<polygon fill="white" stroke="black" points="121,-76.5 121,-95.5 213,-95.5 213,-76.5 121,-76.5"/>
<text text-anchor="middle" x="167" y="-83.5" font-family="Helvetica,sans-Serif" font-size="10.00">write_ppm_data</text>
</a>
</g>
</g>
<!-- Node1&#45;&gt;Node28 -->
<g id="edge29" class="edge"><title>Node1&#45;&gt;Node28</title>
<path fill="none" stroke="midnightblue" d="M35.8331,-427.278C40.6442,-361.821 59.196,-153.188 103,-105 107.841,-99.6744 114.115,-95.8192 120.823,-93.0334"/>
<polygon fill="midnightblue" stroke="midnightblue" points="32.3277,-427.232 35.1127,-437.454 39.3102,-427.726 32.3277,-427.232"/>
</g>
<!-- Node30 -->
<g id="node30" class="node"><title>Node30</title>
<g id="a_node30"><a xlink:href="../../d0/dcc/rletorla_8c.html#a0f0bafd2d10f5ddf5abbdc19c3d33aee" target="_top" xlink:title="write_rlb_data">
<polygon fill="white" stroke="black" points="125.5,-38.5 125.5,-57.5 208.5,-57.5 208.5,-38.5 125.5,-38.5"/>
<text text-anchor="middle" x="167" y="-45.5" font-family="Helvetica,sans-Serif" font-size="10.00">write_rlb_data</text>
</a>
</g>
</g>
<!-- Node1&#45;&gt;Node30 -->
<g id="edge31" class="edge"><title>Node1&#45;&gt;Node30</title>
<path fill="none" stroke="midnightblue" d="M35.3952,-427.395C38.977,-357.442 54.5098,-121.39 103,-67 108.854,-60.434 116.886,-56.0989 125.256,-53.2468"/>
<polygon fill="midnightblue" stroke="midnightblue" points="31.8951,-427.315 34.9045,-437.473 38.8868,-427.655 31.8951,-427.315"/>
</g>
<!-- Node32 -->
<g id="node32" class="node"><title>Node32</title>
<g id="a_node32"><a xlink:href="../../d5/d42/rlezoom_8c.html#a1b7fcf5f9dbabbb794956526d2599b5d" target="_top" xlink:title="advance_fp">
<polygon fill="white" stroke="black" points="131,-0.5 131,-19.5 203,-19.5 203,-0.5 131,-0.5"/>
<text text-anchor="middle" x="167" y="-7.5" font-family="Helvetica,sans-Serif" font-size="10.00">advance_fp</text>
</a>
</g>
</g>
<!-- Node1&#45;&gt;Node32 -->
<g id="edge33" class="edge"><title>Node1&#45;&gt;Node32</title>
<path fill="none" stroke="midnightblue" d="M35.0581,-426.912C37.5423,-351.908 49.9442,-89.4729 103,-29 110.082,-20.9277 120.457,-16.2218 130.753,-13.4985"/>
<polygon fill="midnightblue" stroke="midnightblue" points="31.5484,-427.178 34.7398,-437.28 38.5451,-427.392 31.5484,-427.178"/>
</g>
<!-- Node5 -->
<g id="node5" class="node"><title>Node5</title>
<g id="a_node5"><a xlink:href="../../d3/d46/get4d_8c.html#a2e1c56207484e456874379d624fc0e67" target="_top" xlink:title="main">
<polygon fill="white" stroke="black" points="267,-798.5 267,-817.5 306,-817.5 306,-798.5 267,-798.5"/>
<text text-anchor="middle" x="286.5" y="-805.5" font-family="Helvetica,sans-Serif" font-size="10.00">main</text>
</a>
</g>
</g>
<!-- Node4&#45;&gt;Node5 -->
<g id="edge4" class="edge"><title>Node4&#45;&gt;Node5</title>
<path fill="none" stroke="midnightblue" d="M202.753,-808C223.68,-808 249.512,-808 266.691,-808"/>
<polygon fill="midnightblue" stroke="midnightblue" points="202.632,-804.5 192.632,-808 202.632,-811.5 202.632,-804.5"/>
</g>
<!-- Node7 -->
<g id="node7" class="node"><title>Node7</title>
<g id="a_node7"><a xlink:href="../../dc/d11/getami_8c.html#a7be6d508b8d11374d4aef0a66817d9f0" target="_top" xlink:title="main">
<polygon fill="white" stroke="black" points="267,-741.5 267,-760.5 306,-760.5 306,-741.5 267,-741.5"/>
<text text-anchor="middle" x="286.5" y="-748.5" font-family="Helvetica,sans-Serif" font-size="10.00">main</text>
</a>
</g>
</g>
<!-- Node6&#45;&gt;Node7 -->
<g id="edge6" class="edge"><title>Node6&#45;&gt;Node7</title>
<path fill="none" stroke="midnightblue" d="M223.044,-761.099C238.85,-758.543 255.016,-755.929 266.94,-754.001"/>
<polygon fill="midnightblue" stroke="midnightblue" points="222.07,-757.711 212.757,-762.763 223.187,-764.621 222.07,-757.711"/>
</g>
<!-- Node8&#45;&gt;Node7 -->
<g id="edge8" class="edge"><title>Node8&#45;&gt;Node7</title>
<path fill="none" stroke="midnightblue" d="M211.123,-738.973C230.348,-742.082 251.982,-745.58 266.94,-747.999"/>
<polygon fill="midnightblue" stroke="midnightblue" points="211.473,-735.484 201.043,-737.343 210.356,-742.395 211.473,-735.484"/>
</g>
<!-- Node10 -->
<g id="node10" class="node"><title>Node10</title>
<g id="a_node10"><a xlink:href="../../d9/dea/getcx3d_8c.html#a0708a0954f39ecdc7aa901286295ad01" target="_top" xlink:title="main">
<polygon fill="white" stroke="black" points="267,-684.5 267,-703.5 306,-703.5 306,-684.5 267,-684.5"/>
<text text-anchor="middle" x="286.5" y="-691.5" font-family="Helvetica,sans-Serif" font-size="10.00">main</text>
</a>
</g>
</g>
<!-- Node9&#45;&gt;Node10 -->
<g id="edge10" class="edge"><title>Node9&#45;&gt;Node10</title>
<path fill="none" stroke="midnightblue" d="M204.136,-694C224.852,-694 249.994,-694 266.797,-694"/>
<polygon fill="midnightblue" stroke="midnightblue" points="204.077,-690.5 194.077,-694 204.077,-697.5 204.077,-690.5"/>
</g>
<!-- Node24 -->
<g id="node24" class="node"><title>Node24</title>
<g id="a_node24"><a xlink:href="../../dc/d21/rletocgm_8c.html#a5ea466849f21e6c2be4ef9b2eb8868d3" target="_top" xlink:title="main">
<polygon fill="white" stroke="black" points="267,-171.5 267,-190.5 306,-190.5 306,-171.5 267,-171.5"/>
<text text-anchor="middle" x="286.5" y="-178.5" font-family="Helvetica,sans-Serif" font-size="10.00">main</text>
</a>
</g>
</g>
<!-- Node23&#45;&gt;Node24 -->
<g id="edge24" class="edge"><title>Node23&#45;&gt;Node24</title>
<path fill="none" stroke="midnightblue" d="M237.171,-188.815C248.042,-187.057 258.42,-185.379 266.754,-184.031"/>
<polygon fill="midnightblue" stroke="midnightblue" points="236.407,-185.393 227.094,-190.444 237.525,-192.303 236.407,-185.393"/>
</g>
<!-- Node25&#45;&gt;Node24 -->
<g id="edge26" class="edge"><title>Node25&#45;&gt;Node24</title>
<path fill="none" stroke="midnightblue" d="M234.909,-172.819C246.597,-174.709 257.847,-176.528 266.757,-177.969"/>
<polygon fill="midnightblue" stroke="midnightblue" points="235.46,-169.363 225.029,-171.222 234.342,-176.273 235.46,-169.363"/>
</g>
<!-- Node27 -->
<g id="node27" class="node"><title>Node27</title>
<g id="a_node27"><a xlink:href="../../d7/d4a/rletogif_8c.html#ade521a0600ded19f1720b6f6df59b480" target="_top" xlink:title="main">
<polygon fill="white" stroke="black" points="267,-114.5 267,-133.5 306,-133.5 306,-114.5 267,-114.5"/>
<text text-anchor="middle" x="286.5" y="-121.5" font-family="Helvetica,sans-Serif" font-size="10.00">main</text>
</a>
</g>
</g>
<!-- Node26&#45;&gt;Node27 -->
<g id="edge28" class="edge"><title>Node26&#45;&gt;Node27</title>
<path fill="none" stroke="midnightblue" d="M218.136,-124C235.447,-124 253.778,-124 266.941,-124"/>
<polygon fill="midnightblue" stroke="midnightblue" points="218.108,-120.5 208.108,-124 218.108,-127.5 218.108,-120.5"/>
</g>
<!-- Node29 -->
<g id="node29" class="node"><title>Node29</title>
<g id="a_node29"><a xlink:href="../../d1/d55/rletoppm_8c.html#a3c04138a5bfe5d72780bb7e82a18e627" target="_top" xlink:title="main">
<polygon fill="white" stroke="black" points="267,-76.5 267,-95.5 306,-95.5 306,-76.5 267,-76.5"/>
<text text-anchor="middle" x="286.5" y="-83.5" font-family="Helvetica,sans-Serif" font-size="10.00">main</text>
</a>
</g>
</g>
<!-- Node28&#45;&gt;Node29 -->
<g id="edge30" class="edge"><title>Node28&#45;&gt;Node29</title>
<path fill="none" stroke="midnightblue" d="M223.281,-86C238.929,-86 254.906,-86 266.752,-86"/>
<polygon fill="midnightblue" stroke="midnightblue" points="223.093,-82.5001 213.093,-86 223.092,-89.5001 223.093,-82.5001"/>
</g>
<!-- Node31 -->
<g id="node31" class="node"><title>Node31</title>
<g id="a_node31"><a xlink:href="../../d0/dcc/rletorla_8c.html#a3c04138a5bfe5d72780bb7e82a18e627" target="_top" xlink:title="main">
<polygon fill="white" stroke="black" points="267,-38.5 267,-57.5 306,-57.5 306,-38.5 267,-38.5"/>
<text text-anchor="middle" x="286.5" y="-45.5" font-family="Helvetica,sans-Serif" font-size="10.00">main</text>
</a>
</g>
</g>
<!-- Node30&#45;&gt;Node31 -->
<g id="edge32" class="edge"><title>Node30&#45;&gt;Node31</title>
<path fill="none" stroke="midnightblue" d="M219.165,-48C236.128,-48 253.948,-48 266.842,-48"/>
<polygon fill="midnightblue" stroke="midnightblue" points="218.766,-44.5001 208.766,-48 218.766,-51.5001 218.766,-44.5001"/>
</g>
</g>
</svg>
        <g id="navigator" transform="translate(0 0)" fill="#404254">
                <rect fill="#f2f5e9" fill-opacity="0.5" stroke="#606060" stroke-width=".5" x="0" y="0" width="60" height="60"/>
                <use id="zoomplus" xlink:href="#zoomPlus" x="17" y="9" onmousedown="handleZoom(evt,'in')"/>
                <use id="zoomminus" xlink:href="#zoomMin" x="42" y="9" onmousedown="handleZoom(evt,'out')"/>
                <use id="reset" xlink:href="#resetDef" x="30" y="36" onmousedown="handleReset()"/>
                <g id="arrowUp" xlink:href="#dirArrow" transform="translate(30 24)" onmousedown="handlePan(0,-1)">
                  <use xlink:href="#rim" fill="#404040">
                        <set attributeName="fill" to="#808080" begin="arrowUp.mouseover" end="arrowUp.mouseout"/>
                  </use>
                  <path fill="none" stroke="white" stroke-width="1.5" d="M0,-3.0v7 M-2.5,-0.5L0,-3.0L2.5,-0.5"/>
                </g>
                <g id="arrowRight" xlink:href="#dirArrow" transform="rotate(90) translate(36 -43)" onmousedown="handlePan(1,0)">
                  <use xlink:href="#rim" fill="#404040">
                        <set attributeName="fill" to="#808080" begin="arrowRight.mouseover" end="arrowRight.mouseout"/>
                  </use>
                  <path fill="none" stroke="white" stroke-width="1.5" d="M0,-3.0v7 M-2.5,-0.5L0,-3.0L2.5,-0.5"/>
                </g>
                <g id="arrowDown" xlink:href="#dirArrow" transform="rotate(180) translate(-30 -48)" onmousedown="handlePan(0,1)">
                  <use xlink:href="#rim" fill="#404040">
                        <set attributeName="fill" to="#808080" begin="arrowDown.mouseover" end="arrowDown.mouseout"/>
                  </use>
                  <path fill="none" stroke="white" stroke-width="1.5" d="M0,-3.0v7 M-2.5,-0.5L0,-3.0L2.5,-0.5"/>
                </g>
                <g id="arrowLeft" xlink:href="#dirArrow" transform="rotate(270) translate(-36 17)" onmousedown="handlePan(-1,0)">
                  <use xlink:href="#rim" fill="#404040">
                        <set attributeName="fill" to="#808080" begin="arrowLeft.mouseover" end="arrowLeft.mouseout"/>
                  </use>
                  <path fill="none" stroke="white" stroke-width="1.5" d="M0,-3.0v7 M-2.5,-0.5L0,-3.0L2.5,-0.5"/>
                </g>
        </g>
        <svg viewBox="0 0 15 15" width="100%" height="30px" preserveAspectRatio="xMaxYMin meet">
         <g id="arrow_out" transform="scale(0.3 0.3)">
          <a xlink:href="rle__getrow_8c_a3602e1158189cba5e5b0f9b983cba776_icgraph_org.svg" target="_base">
           <rect id="button" ry="5" rx="5" y="6" x="6" height="38" width="38"
                fill="#f2f5e9" fill-opacity="0.5" stroke="#606060" stroke-width="1.0"/>
           <path id="arrow"
             d="M 11.500037,31.436501 C 11.940474,20.09759 22.043105,11.32322 32.158766,21.979434 L 37.068811,17.246167 C 37.068811,17.246167 37.088388,32 37.088388,32 L 22.160133,31.978069 C 22.160133,31.978069 26.997745,27.140456 26.997745,27.140456 C 18.528582,18.264221 13.291696,25.230495 11.500037,31.436501 z"
             style="fill:#404040;"/>
          </a>
         </g>
        </svg>
</svg>
