<?xml version="1.0" encoding="UTF-8" standalone="no"?>
<!DOCTYPE svg PUBLIC "-//W3C//DTD SVG 1.1//EN"
 "http://www.w3.org/Graphics/SVG/1.1/DTD/svg11.dtd">
<!-- Generated by graphviz version 2.38.0 (20140413.2041)
 -->
<!-- Title: bfill Pages: 1 -->
<svg width="382pt" height="902pt"
 viewBox="0.00 0.00 382.00 902.00" xmlns="http://www.w3.org/2000/svg" xmlns:xlink="http://www.w3.org/1999/xlink">
<g id="graph0" class="graph" transform="scale(1 1) rotate(0) translate(4 898)">
<title>bfill</title>
<polygon fill="white" stroke="none" points="-4,4 -4,-898 378,-898 378,4 -4,4"/>
<!-- Node1 -->
<g id="node1" class="node"><title>Node1</title>
<polygon fill="#bfbfbf" stroke="black" points="0,-437.5 0,-456.5 32,-456.5 32,-437.5 0,-437.5"/>
<text text-anchor="middle" x="16" y="-444.5" font-family="Helvetica,sans-Serif" font-size="10.00">bfill</text>
</g>
<!-- Node2 -->
<g id="node2" class="node"><title>Node2</title>
<g id="a_node2"><a xlink:href="../../db/d53/rle__getrow_8c.html#a3602e1158189cba5e5b0f9b983cba776" target="_top" xlink:title="rle_getrow">
<polygon fill="white" stroke="black" points="68,-437.5 68,-456.5 135,-456.5 135,-437.5 68,-437.5"/>
<text text-anchor="middle" x="101.5" y="-444.5" font-family="Helvetica,sans-Serif" font-size="10.00">rle_getrow</text>
</a>
</g>
</g>
<!-- Node1&#45;&gt;Node2 -->
<g id="edge1" class="edge"><title>Node1&#45;&gt;Node2</title>
<path fill="none" stroke="midnightblue" d="M42.5371,-447C50.5654,-447 59.5406,-447 67.9851,-447"/>
<polygon fill="midnightblue" stroke="midnightblue" points="42.3152,-443.5 32.3152,-447 42.3152,-450.5 42.3152,-443.5"/>
</g>
<!-- Node3 -->
<g id="node3" class="node"><title>Node3</title>
<g id="a_node3"><a xlink:href="../../d6/dcb/avg4_8c.html#ade521a0600ded19f1720b6f6df59b480" target="_top" xlink:title="main">
<polygon fill="white" stroke="black" points="215.5,-874.5 215.5,-893.5 254.5,-893.5 254.5,-874.5 215.5,-874.5"/>
<text text-anchor="middle" x="235" y="-881.5" font-family="Helvetica,sans-Serif" font-size="10.00">main</text>
</a>
</g>
</g>
<!-- Node2&#45;&gt;Node3 -->
<g id="edge2" class="edge"><title>Node2&#45;&gt;Node3</title>
<path fill="none" stroke="midnightblue" d="M103.058,-467.088C105.542,-542.092 117.944,-804.527 171,-865 182.075,-877.624 201.204,-882.015 215.486,-883.465"/>
<polygon fill="midnightblue" stroke="midnightblue" points="106.545,-466.608 102.74,-456.72 99.5484,-466.822 106.545,-466.608"/>
</g>
<!-- Node4 -->
<g id="node4" class="node"><title>Node4</title>
<g id="a_node4"><a xlink:href="../../dd/ddd/fant_8c.html#a2a393adf5cfdf56d9378b9b420ee8107" target="_top" xlink:title="getraster">
<polygon fill="white" stroke="black" points="205.5,-836.5 205.5,-855.5 264.5,-855.5 264.5,-836.5 205.5,-836.5"/>
<text text-anchor="middle" x="235" y="-843.5" font-family="Helvetica,sans-Serif" font-size="10.00">getraster</text>
</a>
</g>
</g>
<!-- Node2&#45;&gt;Node4 -->
<g id="edge3" class="edge"><title>Node2&#45;&gt;Node4</title>
<path fill="none" stroke="midnightblue" d="M103.395,-466.605C106.977,-536.558 122.51,-772.61 171,-827 179.667,-836.721 193.108,-841.552 205.352,-843.921"/>
<polygon fill="midnightblue" stroke="midnightblue" points="106.887,-466.345 102.905,-456.527 99.8951,-466.685 106.887,-466.345"/>
</g>
<!-- Node5 -->
<g id="node5" class="node"><title>Node5</title>
<g id="a_node5"><a xlink:href="../../d3/d46/get4d_8c.html#af1e5f57fa511be9fa99aee630ceba576" target="_top" xlink:title="get_pic">
<polygon fill="white" stroke="black" points="209.5,-798.5 209.5,-817.5 260.5,-817.5 260.5,-798.5 209.5,-798.5"/>
<text text-anchor="middle" x="235" y="-805.5" font-family="Helvetica,sans-Serif" font-size="10.00">get_pic</text>
</a>
</g>
</g>
<!-- Node2&#45;&gt;Node5 -->
<g id="edge4" class="edge"><title>Node2&#45;&gt;Node5</title>
<path fill="none" stroke="midnightblue" d="M103.833,-466.722C108.644,-532.179 127.196,-740.812 171,-789 180.682,-799.651 196.095,-804.42 209.252,-806.517"/>
<polygon fill="midnightblue" stroke="midnightblue" points="107.31,-466.274 103.113,-456.546 100.328,-466.768 107.31,-466.274"/>
</g>
<!-- Node7 -->
<g id="node7" class="node"><title>Node7</title>
<g id="a_node7"><a xlink:href="../../dc/d11/getami_8c.html#aa654afe741816fa93d1cd7e49ef583ec" target="_top" xlink:title="find_most_used">
<polygon fill="white" stroke="black" points="189.5,-760.5 189.5,-779.5 280.5,-779.5 280.5,-760.5 189.5,-760.5"/>
<text text-anchor="middle" x="235" y="-767.5" font-family="Helvetica,sans-Serif" font-size="10.00">find_most_used</text>
</a>
</g>
</g>
<!-- Node2&#45;&gt;Node7 -->
<g id="edge6" class="edge"><title>Node2&#45;&gt;Node7</title>
<path fill="none" stroke="midnightblue" d="M104.384,-466.863C110.526,-527.552 131.862,-708.968 171,-751 175.982,-756.351 182.411,-760.214 189.252,-762.998"/>
<polygon fill="midnightblue" stroke="midnightblue" points="107.847,-466.312 103.385,-456.703 100.881,-466.997 107.847,-466.312"/>
</g>
<!-- Node9 -->
<g id="node9" class="node"><title>Node9</title>
<g id="a_node9"><a xlink:href="../../dc/d11/getami_8c.html#a3a79557c0de5078d1ea9206ce5eb3e77" target="_top" xlink:title="display_rle">
<polygon fill="white" stroke="black" points="201,-722.5 201,-741.5 269,-741.5 269,-722.5 201,-722.5"/>
<text text-anchor="middle" x="235" y="-729.5" font-family="Helvetica,sans-Serif" font-size="10.00">display_rle</text>
</a>
</g>
</g>
<!-- Node2&#45;&gt;Node9 -->
<g id="edge8" class="edge"><title>Node2&#45;&gt;Node9</title>
<path fill="none" stroke="midnightblue" d="M105.076,-466.871C112.643,-522.321 136.469,-677.028 171,-713 178.832,-721.159 190.028,-725.849 200.815,-728.533"/>
<polygon fill="midnightblue" stroke="midnightblue" points="108.5,-466.073 103.71,-456.624 101.562,-466.998 108.5,-466.073"/>
</g>
<!-- Node10 -->
<g id="node10" class="node"><title>Node10</title>
<g id="a_node10"><a xlink:href="../../d9/dea/getcx3d_8c.html#ac43e38fef452c4a15d14abb67019a1b5" target="_top" xlink:title="getcx3d">
<polygon fill="white" stroke="black" points="208,-684.5 208,-703.5 262,-703.5 262,-684.5 208,-684.5"/>
<text text-anchor="middle" x="235" y="-691.5" font-family="Helvetica,sans-Serif" font-size="10.00">getcx3d</text>
</a>
</g>
</g>
<!-- Node2&#45;&gt;Node10 -->
<g id="edge10" class="edge"><title>Node2&#45;&gt;Node10</title>
<path fill="none" stroke="midnightblue" d="M102.527,-467.09C103.704,-511.104 112.814,-616.752 171,-675 180.689,-684.699 195.137,-689.48 207.754,-691.822"/>
<polygon fill="midnightblue" stroke="midnightblue" points="106.023,-466.79 102.372,-456.844 99.0235,-466.896 106.023,-466.79"/>
</g>
<!-- Node12 -->
<g id="node12" class="node"><title>Node12</title>
<g id="a_node12"><a xlink:href="../../d6/d28/gettaac_8c.html#ac6c7cb12df36734a7352513af238a386" target="_top" xlink:title="read_file_rgb">
<polygon fill="white" stroke="black" points="195.5,-646.5 195.5,-665.5 274.5,-665.5 274.5,-646.5 195.5,-646.5"/>
<text text-anchor="middle" x="235" y="-653.5" font-family="Helvetica,sans-Serif" font-size="10.00">read_file_rgb</text>
</a>
</g>
</g>
<!-- Node2&#45;&gt;Node12 -->
<g id="edge12" class="edge"><title>Node2&#45;&gt;Node12</title>
<path fill="none" stroke="midnightblue" d="M103.98,-467.378C107.892,-506.063 121.885,-590.427 171,-637 177.715,-643.367 186.487,-647.607 195.343,-650.429"/>
<polygon fill="midnightblue" stroke="midnightblue" points="107.424,-466.586 103.062,-456.931 100.451,-467.199 107.424,-466.586"/>
</g>
<!-- Node13 -->
<g id="node13" class="node"><title>Node13</title>
<g id="a_node13"><a xlink:href="../../d6/d28/gettaac_8c.html#a803641e408e57eb0d69c043f05374c80" target="_top" xlink:title="read_file_gray">
<polygon fill="white" stroke="black" points="192.5,-608.5 192.5,-627.5 277.5,-627.5 277.5,-608.5 192.5,-608.5"/>
<text text-anchor="middle" x="235" y="-615.5" font-family="Helvetica,sans-Serif" font-size="10.00">read_file_gray</text>
</a>
</g>
</g>
<!-- Node2&#45;&gt;Node13 -->
<g id="edge13" class="edge"><title>Node2&#45;&gt;Node13</title>
<path fill="none" stroke="midnightblue" d="M105.98,-466.882C112.695,-499.3 130.517,-563.482 171,-599 177.097,-604.349 184.658,-608.193 192.402,-610.954"/>
<polygon fill="midnightblue" stroke="midnightblue" points="109.374,-465.999 104.048,-456.84 102.5,-467.321 109.374,-465.999"/>
</g>
<!-- Node14 -->
<g id="node14" class="node"><title>Node14</title>
<g id="a_node14"><a xlink:href="../../d5/d6d/mcut_8c.html#ae8f2544df07a04da1f08ffc3b430c6c0" target="_top" xlink:title="quantize_rle">
<polygon fill="white" stroke="black" points="198,-570.5 198,-589.5 272,-589.5 272,-570.5 198,-570.5"/>
<text text-anchor="middle" x="235" y="-577.5" font-family="Helvetica,sans-Serif" font-size="10.00">quantize_rle</text>
</a>
</g>
</g>
<!-- Node2&#45;&gt;Node14 -->
<g id="edge14" class="edge"><title>Node2&#45;&gt;Node14</title>
<path fill="none" stroke="midnightblue" d="M109.012,-466.183C118.608,-491.581 138.952,-536.059 171,-561 178.753,-567.034 188.407,-571.158 197.81,-573.975"/>
<polygon fill="midnightblue" stroke="midnightblue" points="112.235,-464.802 105.555,-456.578 105.649,-467.172 112.235,-464.802"/>
</g>
<!-- Node15 -->
<g id="node15" class="node"><title>Node15</title>
<g id="a_node15"><a xlink:href="../../d5/d6d/mcut_8c.html#a9cc66ce9d63f137600680f9dc62a64e2" target="_top" xlink:title="quantize_dither_rle">
<polygon fill="white" stroke="black" points="181.5,-532.5 181.5,-551.5 288.5,-551.5 288.5,-532.5 181.5,-532.5"/>
<text text-anchor="middle" x="235" y="-539.5" font-family="Helvetica,sans-Serif" font-size="10.00">quantize_dither_rle</text>
</a>
</g>
</g>
<!-- Node2&#45;&gt;Node15 -->
<g id="edge15" class="edge"><title>Node2&#45;&gt;Node15</title>
<path fill="none" stroke="midnightblue" d="M114.56,-465.35C126.817,-482.614 147.33,-507.992 171,-523 177.078,-526.854 183.98,-529.962 190.933,-532.457"/>
<polygon fill="midnightblue" stroke="midnightblue" points="117.176,-462.976 108.633,-456.711 111.404,-466.937 117.176,-462.976"/>
</g>
<!-- Node16 -->
<g id="node16" class="node"><title>Node16</title>
<g id="a_node16"><a xlink:href="../../df/d69/pyrlib_8c.html#a0df7ee8b612e9251716158b046c62143" target="_top" xlink:title="rle_to_pyramids">
<polygon fill="white" stroke="black" points="189,-494.5 189,-513.5 281,-513.5 281,-494.5 189,-494.5"/>
<text text-anchor="middle" x="235" y="-501.5" font-family="Helvetica,sans-Serif" font-size="10.00">rle_to_pyramids</text>
</a>
</g>
</g>
<!-- Node2&#45;&gt;Node16 -->
<g id="edge16" class="edge"><title>Node2&#45;&gt;Node16</title>
<path fill="none" stroke="midnightblue" d="M126.242,-461.82C139.144,-469.447 155.576,-478.484 171,-485 179.419,-488.556 188.728,-491.746 197.55,-494.45"/>
<polygon fill="midnightblue" stroke="midnightblue" points="127.906,-458.737 117.535,-456.572 124.293,-464.732 127.906,-458.737"/>
</g>
<!-- Node17 -->
<g id="node17" class="node"><title>Node17</title>
<g id="a_node17"><a xlink:href="../../dd/d78/rle_8c.html#abf86d78ed4afb4806e8946de14b62fb4" target="_top" xlink:title="rasterRowGet">
<polygon fill="white" stroke="black" points="193.5,-456.5 193.5,-475.5 276.5,-475.5 276.5,-456.5 193.5,-456.5"/>
<text text-anchor="middle" x="235" y="-463.5" font-family="Helvetica,sans-Serif" font-size="10.00">rasterRowGet</text>
</a>
</g>
</g>
<!-- Node2&#45;&gt;Node17 -->
<g id="edge17" class="edge"><title>Node2&#45;&gt;Node17</title>
<path fill="none" stroke="midnightblue" d="M145.338,-453.19C160.78,-455.421 178.149,-457.93 193.394,-460.133"/>
<polygon fill="midnightblue" stroke="midnightblue" points="145.403,-449.663 135.006,-451.697 144.402,-456.591 145.403,-449.663"/>
</g>
<!-- Node18 -->
<g id="node18" class="node"><title>Node18</title>
<g id="a_node18"><a xlink:href="../../d4/dc6/interfaceRLE.html#a151be2ba0debedc4c36f7305a74354ec" target="_top" xlink:title="&#45;[RLE open:]">
<polygon fill="white" stroke="black" points="197.5,-418.5 197.5,-437.5 272.5,-437.5 272.5,-418.5 197.5,-418.5"/>
<text text-anchor="middle" x="235" y="-425.5" font-family="Helvetica,sans-Serif" font-size="10.00">&#45;[RLE open:]</text>
</a>
</g>
</g>
<!-- Node2&#45;&gt;Node18 -->
<g id="edge18" class="edge"><title>Node2&#45;&gt;Node18</title>
<path fill="none" stroke="midnightblue" d="M145.124,-440.841C161.928,-438.413 181.042,-435.652 197.228,-433.313"/>
<polygon fill="midnightblue" stroke="midnightblue" points="144.402,-437.409 135.006,-442.303 145.403,-444.337 144.402,-437.409"/>
</g>
<!-- Node19 -->
<g id="node19" class="node"><title>Node19</title>
<g id="a_node19"><a xlink:href="../../d5/d2c/rlecomp_8c.html#ac0d599df6554bdc4183a566b919b9a57" target="_top" xlink:title="get_scanline">
<polygon fill="white" stroke="black" points="196.5,-380.5 196.5,-399.5 273.5,-399.5 273.5,-380.5 196.5,-380.5"/>
<text text-anchor="middle" x="235" y="-387.5" font-family="Helvetica,sans-Serif" font-size="10.00">get_scanline</text>
</a>
</g>
</g>
<!-- Node2&#45;&gt;Node19 -->
<g id="edge19" class="edge"><title>Node2&#45;&gt;Node19</title>
<path fill="none" stroke="midnightblue" d="M126.242,-432.18C139.144,-424.553 155.576,-415.516 171,-409 179.419,-405.444 188.728,-402.254 197.55,-399.55"/>
<polygon fill="midnightblue" stroke="midnightblue" points="124.293,-429.268 117.535,-437.428 127.906,-435.263 124.293,-429.268"/>
</g>
<!-- Node20 -->
<g id="node20" class="node"><title>Node20</title>
<g id="a_node20"><a xlink:href="../../d1/d2c/rlehdr_8c.html#af162404c5103b31d3afbd772f64f520a" target="_top" xlink:title="print_codes">
<polygon fill="white" stroke="black" points="199,-342.5 199,-361.5 271,-361.5 271,-342.5 199,-342.5"/>
<text text-anchor="middle" x="235" y="-349.5" font-family="Helvetica,sans-Serif" font-size="10.00">print_codes</text>
</a>
</g>
</g>
<!-- Node2&#45;&gt;Node20 -->
<g id="edge20" class="edge"><title>Node2&#45;&gt;Node20</title>
<path fill="none" stroke="midnightblue" d="M114.56,-428.65C126.817,-411.386 147.33,-386.008 171,-371 179.394,-365.678 189.359,-361.779 198.857,-358.95"/>
<polygon fill="midnightblue" stroke="midnightblue" points="111.404,-427.063 108.633,-437.289 117.176,-431.024 111.404,-427.063"/>
</g>
<!-- Node21 -->
<g id="node21" class="node"><title>Node21</title>
<g id="a_node21"><a xlink:href="../../dc/d5c/rlequant_8c.html#af5748bff1d2364682152642404e87aea" target="_top" xlink:title="read_input">
<polygon fill="white" stroke="black" points="201.5,-304.5 201.5,-323.5 268.5,-323.5 268.5,-304.5 201.5,-304.5"/>
<text text-anchor="middle" x="235" y="-311.5" font-family="Helvetica,sans-Serif" font-size="10.00">read_input</text>
</a>
</g>
</g>
<!-- Node2&#45;&gt;Node21 -->
<g id="edge21" class="edge"><title>Node2&#45;&gt;Node21</title>
<path fill="none" stroke="midnightblue" d="M109.012,-427.817C118.608,-402.419 138.952,-357.941 171,-333 179.745,-326.194 190.908,-321.818 201.401,-319.008"/>
<polygon fill="midnightblue" stroke="midnightblue" points="105.649,-426.828 105.555,-437.422 112.235,-429.198 105.649,-426.828"/>
</g>
<!-- Node22 -->
<g id="node22" class="node"><title>Node22</title>
<g id="a_node22"><a xlink:href="../../da/d9d/rletoabA60_8c.html#a5a84a0a5332db8d82f290bd845eecc62" target="_top" xlink:title="read_image">
<polygon fill="white" stroke="black" points="198.5,-266.5 198.5,-285.5 271.5,-285.5 271.5,-266.5 198.5,-266.5"/>
<text text-anchor="middle" x="235" y="-273.5" font-family="Helvetica,sans-Serif" font-size="10.00">read_image</text>
</a>
</g>
</g>
<!-- Node2&#45;&gt;Node22 -->
<g id="edge22" class="edge"><title>Node2&#45;&gt;Node22</title>
<path fill="none" stroke="midnightblue" d="M105.98,-427.118C112.695,-394.7 130.517,-330.518 171,-295 178.643,-288.295 188.586,-283.955 198.306,-281.147"/>
<polygon fill="midnightblue" stroke="midnightblue" points="102.5,-426.679 104.048,-437.16 109.374,-428.001 102.5,-426.679"/>
</g>
<!-- Node23 -->
<g id="node23" class="node"><title>Node23</title>
<g id="a_node23"><a xlink:href="../../d6/d10/rletoalias_8c.html#a86cf5e03c7b351c5a62a6951d179f6a5" target="_top" xlink:title="read_rle">
<polygon fill="white" stroke="black" points="207,-228.5 207,-247.5 263,-247.5 263,-228.5 207,-228.5"/>
<text text-anchor="middle" x="235" y="-235.5" font-family="Helvetica,sans-Serif" font-size="10.00">read_rle</text>
</a>
</g>
</g>
<!-- Node2&#45;&gt;Node23 -->
<g id="edge23" class="edge"><title>Node2&#45;&gt;Node23</title>
<path fill="none" stroke="midnightblue" d="M103.98,-426.622C107.892,-387.937 121.885,-303.573 171,-257 180.616,-247.882 194.453,-243.126 206.711,-240.651"/>
<polygon fill="midnightblue" stroke="midnightblue" points="100.451,-426.801 103.062,-437.069 107.424,-427.414 100.451,-426.801"/>
</g>
<!-- Node24 -->
<g id="node24" class="node"><title>Node24</title>
<g id="a_node24"><a xlink:href="../../dc/d21/rletocgm_8c.html#a243dc5135972069e1dc4456356c8b498" target="_top" xlink:title="process_indexed_page">
<polygon fill="white" stroke="black" points="171,-190.5 171,-209.5 299,-209.5 299,-190.5 171,-190.5"/>
<text text-anchor="middle" x="235" y="-197.5" font-family="Helvetica,sans-Serif" font-size="10.00">process_indexed_page</text>
</a>
</g>
</g>
<!-- Node2&#45;&gt;Node24 -->
<g id="edge24" class="edge"><title>Node2&#45;&gt;Node24</title>
<path fill="none" stroke="midnightblue" d="M102.527,-426.91C103.704,-382.896 112.814,-277.248 171,-219 174.875,-215.12 179.512,-212.028 184.489,-209.563"/>
<polygon fill="midnightblue" stroke="midnightblue" points="99.0235,-427.104 102.372,-437.156 106.023,-427.21 99.0235,-427.104"/>
</g>
<!-- Node26 -->
<g id="node26" class="node"><title>Node26</title>
<g id="a_node26"><a xlink:href="../../dc/d21/rletocgm_8c.html#a2aa020f076ba227eadc417c63ef8c5fa" target="_top" xlink:title="process_direct_page">
<polygon fill="white" stroke="black" points="177,-152.5 177,-171.5 293,-171.5 293,-152.5 177,-152.5"/>
<text text-anchor="middle" x="235" y="-159.5" font-family="Helvetica,sans-Serif" font-size="10.00">process_direct_page</text>
</a>
</g>
</g>
<!-- Node2&#45;&gt;Node26 -->
<g id="edge26" class="edge"><title>Node2&#45;&gt;Node26</title>
<path fill="none" stroke="midnightblue" d="M105.076,-427.129C112.643,-371.679 136.469,-216.972 171,-181 174.718,-177.127 179.195,-174.035 184.026,-171.569"/>
<polygon fill="midnightblue" stroke="midnightblue" points="101.562,-427.002 103.71,-437.376 108.5,-427.927 101.562,-427.002"/>
</g>
<!-- Node27 -->
<g id="node27" class="node"><title>Node27</title>
<g id="a_node27"><a xlink:href="../../d7/d4a/rletogif_8c.html#ae6289c0f5ad8df9d34452253a23b385b" target="_top" xlink:title="get_scanlines">
<polygon fill="white" stroke="black" points="194,-114.5 194,-133.5 276,-133.5 276,-114.5 194,-114.5"/>
<text text-anchor="middle" x="235" y="-121.5" font-family="Helvetica,sans-Serif" font-size="10.00">get_scanlines</text>
</a>
</g>
</g>
<!-- Node2&#45;&gt;Node27 -->
<g id="edge28" class="edge"><title>Node2&#45;&gt;Node27</title>
<path fill="none" stroke="midnightblue" d="M104.384,-427.137C110.526,-366.448 131.862,-185.032 171,-143 177.072,-136.479 185.293,-132.167 193.789,-129.325"/>
<polygon fill="midnightblue" stroke="midnightblue" points="100.881,-427.003 103.385,-437.297 107.847,-427.688 100.881,-427.003"/>
</g>
<!-- Node29 -->
<g id="node29" class="node"><title>Node29</title>
<g id="a_node29"><a xlink:href="../../d1/d55/rletoppm_8c.html#acc32e62ee705887470ad5627ec215e24" target="_top" xlink:title="write_ppm_data">
<polygon fill="white" stroke="black" points="189,-76.5 189,-95.5 281,-95.5 281,-76.5 189,-76.5"/>
<text text-anchor="middle" x="235" y="-83.5" font-family="Helvetica,sans-Serif" font-size="10.00">write_ppm_data</text>
</a>
</g>
</g>
<!-- Node2&#45;&gt;Node29 -->
<g id="edge30" class="edge"><title>Node2&#45;&gt;Node29</title>
<path fill="none" stroke="midnightblue" d="M103.833,-427.278C108.644,-361.821 127.196,-153.188 171,-105 175.841,-99.6744 182.115,-95.8192 188.823,-93.0334"/>
<polygon fill="midnightblue" stroke="midnightblue" points="100.328,-427.232 103.113,-437.454 107.31,-427.726 100.328,-427.232"/>
</g>
<!-- Node31 -->
<g id="node31" class="node"><title>Node31</title>
<g id="a_node31"><a xlink:href="../../d0/dcc/rletorla_8c.html#a0f0bafd2d10f5ddf5abbdc19c3d33aee" target="_top" xlink:title="write_rlb_data">
<polygon fill="white" stroke="black" points="193.5,-38.5 193.5,-57.5 276.5,-57.5 276.5,-38.5 193.5,-38.5"/>
<text text-anchor="middle" x="235" y="-45.5" font-family="Helvetica,sans-Serif" font-size="10.00">write_rlb_data</text>
</a>
</g>
</g>
<!-- Node2&#45;&gt;Node31 -->
<g id="edge32" class="edge"><title>Node2&#45;&gt;Node31</title>
<path fill="none" stroke="midnightblue" d="M103.395,-427.395C106.977,-357.442 122.51,-121.39 171,-67 176.854,-60.434 184.886,-56.0989 193.256,-53.2468"/>
<polygon fill="midnightblue" stroke="midnightblue" points="99.8951,-427.315 102.905,-437.473 106.887,-427.655 99.8951,-427.315"/>
</g>
<!-- Node33 -->
<g id="node33" class="node"><title>Node33</title>
<g id="a_node33"><a xlink:href="../../d5/d42/rlezoom_8c.html#a1b7fcf5f9dbabbb794956526d2599b5d" target="_top" xlink:title="advance_fp">
<polygon fill="white" stroke="black" points="199,-0.5 199,-19.5 271,-19.5 271,-0.5 199,-0.5"/>
<text text-anchor="middle" x="235" y="-7.5" font-family="Helvetica,sans-Serif" font-size="10.00">advance_fp</text>
</a>
</g>
</g>
<!-- Node2&#45;&gt;Node33 -->
<g id="edge34" class="edge"><title>Node2&#45;&gt;Node33</title>
<path fill="none" stroke="midnightblue" d="M103.058,-426.912C105.542,-351.908 117.944,-89.4729 171,-29 178.082,-20.9277 188.457,-16.2218 198.753,-13.4985"/>
<polygon fill="midnightblue" stroke="midnightblue" points="99.5484,-427.178 102.74,-437.28 106.545,-427.392 99.5484,-427.178"/>
</g>
<!-- Node6 -->
<g id="node6" class="node"><title>Node6</title>
<g id="a_node6"><a xlink:href="../../d3/d46/get4d_8c.html#a2e1c56207484e456874379d624fc0e67" target="_top" xlink:title="main">
<polygon fill="white" stroke="black" points="335,-798.5 335,-817.5 374,-817.5 374,-798.5 335,-798.5"/>
<text text-anchor="middle" x="354.5" y="-805.5" font-family="Helvetica,sans-Serif" font-size="10.00">main</text>
</a>
</g>
</g>
<!-- Node5&#45;&gt;Node6 -->
<g id="edge5" class="edge"><title>Node5&#45;&gt;Node6</title>
<path fill="none" stroke="midnightblue" d="M270.753,-808C291.68,-808 317.512,-808 334.691,-808"/>
<polygon fill="midnightblue" stroke="midnightblue" points="270.632,-804.5 260.632,-808 270.632,-811.5 270.632,-804.5"/>
</g>
<!-- Node8 -->
<g id="node8" class="node"><title>Node8</title>
<g id="a_node8"><a xlink:href="../../dc/d11/getami_8c.html#a7be6d508b8d11374d4aef0a66817d9f0" target="_top" xlink:title="main">
<polygon fill="white" stroke="black" points="335,-741.5 335,-760.5 374,-760.5 374,-741.5 335,-741.5"/>
<text text-anchor="middle" x="354.5" y="-748.5" font-family="Helvetica,sans-Serif" font-size="10.00">main</text>
</a>
</g>
</g>
<!-- Node7&#45;&gt;Node8 -->
<g id="edge7" class="edge"><title>Node7&#45;&gt;Node8</title>
<path fill="none" stroke="midnightblue" d="M291.044,-761.099C306.85,-758.543 323.016,-755.929 334.94,-754.001"/>
<polygon fill="midnightblue" stroke="midnightblue" points="290.07,-757.711 280.757,-762.763 291.187,-764.621 290.07,-757.711"/>
</g>
<!-- Node9&#45;&gt;Node8 -->
<g id="edge9" class="edge"><title>Node9&#45;&gt;Node8</title>
<path fill="none" stroke="midnightblue" d="M279.123,-738.973C298.348,-742.082 319.982,-745.58 334.94,-747.999"/>
<polygon fill="midnightblue" stroke="midnightblue" points="279.473,-735.484 269.043,-737.343 278.356,-742.395 279.473,-735.484"/>
</g>
<!-- Node11 -->
<g id="node11" class="node"><title>Node11</title>
<g id="a_node11"><a xlink:href="../../d9/dea/getcx3d_8c.html#a0708a0954f39ecdc7aa901286295ad01" target="_top" xlink:title="main">
<polygon fill="white" stroke="black" points="335,-684.5 335,-703.5 374,-703.5 374,-684.5 335,-684.5"/>
<text text-anchor="middle" x="354.5" y="-691.5" font-family="Helvetica,sans-Serif" font-size="10.00">main</text>
</a>
</g>
</g>
<!-- Node10&#45;&gt;Node11 -->
<g id="edge11" class="edge"><title>Node10&#45;&gt;Node11</title>
<path fill="none" stroke="midnightblue" d="M272.136,-694C292.852,-694 317.994,-694 334.797,-694"/>
<polygon fill="midnightblue" stroke="midnightblue" points="272.077,-690.5 262.077,-694 272.077,-697.5 272.077,-690.5"/>
</g>
<!-- Node25 -->
<g id="node25" class="node"><title>Node25</title>
<g id="a_node25"><a xlink:href="../../dc/d21/rletocgm_8c.html#a5ea466849f21e6c2be4ef9b2eb8868d3" target="_top" xlink:title="main">
<polygon fill="white" stroke="black" points="335,-171.5 335,-190.5 374,-190.5 374,-171.5 335,-171.5"/>
<text text-anchor="middle" x="354.5" y="-178.5" font-family="Helvetica,sans-Serif" font-size="10.00">main</text>
</a>
</g>
</g>
<!-- Node24&#45;&gt;Node25 -->
<g id="edge25" class="edge"><title>Node24&#45;&gt;Node25</title>
<path fill="none" stroke="midnightblue" d="M305.171,-188.815C316.042,-187.057 326.42,-185.379 334.754,-184.031"/>
<polygon fill="midnightblue" stroke="midnightblue" points="304.407,-185.393 295.094,-190.444 305.525,-192.303 304.407,-185.393"/>
</g>
<!-- Node26&#45;&gt;Node25 -->
<g id="edge27" class="edge"><title>Node26&#45;&gt;Node25</title>
<path fill="none" stroke="midnightblue" d="M302.909,-172.819C314.597,-174.709 325.847,-176.528 334.757,-177.969"/>
<polygon fill="midnightblue" stroke="midnightblue" points="303.46,-169.363 293.029,-171.222 302.342,-176.273 303.46,-169.363"/>
</g>
<!-- Node28 -->
<g id="node28" class="node"><title>Node28</title>
<g id="a_node28"><a xlink:href="../../d7/d4a/rletogif_8c.html#ade521a0600ded19f1720b6f6df59b480" target="_top" xlink:title="main">
<polygon fill="white" stroke="black" points="335,-114.5 335,-133.5 374,-133.5 374,-114.5 335,-114.5"/>
<text text-anchor="middle" x="354.5" y="-121.5" font-family="Helvetica,sans-Serif" font-size="10.00">main</text>
</a>
</g>
</g>
<!-- Node27&#45;&gt;Node28 -->
<g id="edge29" class="edge"><title>Node27&#45;&gt;Node28</title>
<path fill="none" stroke="midnightblue" d="M286.136,-124C303.447,-124 321.778,-124 334.941,-124"/>
<polygon fill="midnightblue" stroke="midnightblue" points="286.108,-120.5 276.108,-124 286.108,-127.5 286.108,-120.5"/>
</g>
<!-- Node30 -->
<g id="node30" class="node"><title>Node30</title>
<g id="a_node30"><a xlink:href="../../d1/d55/rletoppm_8c.html#a3c04138a5bfe5d72780bb7e82a18e627" target="_top" xlink:title="main">
<polygon fill="white" stroke="black" points="335,-76.5 335,-95.5 374,-95.5 374,-76.5 335,-76.5"/>
<text text-anchor="middle" x="354.5" y="-83.5" font-family="Helvetica,sans-Serif" font-size="10.00">main</text>
</a>
</g>
</g>
<!-- Node29&#45;&gt;Node30 -->
<g id="edge31" class="edge"><title>Node29&#45;&gt;Node30</title>
<path fill="none" stroke="midnightblue" d="M291.281,-86C306.929,-86 322.906,-86 334.752,-86"/>
<polygon fill="midnightblue" stroke="midnightblue" points="291.093,-82.5001 281.093,-86 291.092,-89.5001 291.093,-82.5001"/>
</g>
<!-- Node32 -->
<g id="node32" class="node"><title>Node32</title>
<g id="a_node32"><a xlink:href="../../d0/dcc/rletorla_8c.html#a3c04138a5bfe5d72780bb7e82a18e627" target="_top" xlink:title="main">
<polygon fill="white" stroke="black" points="335,-38.5 335,-57.5 374,-57.5 374,-38.5 335,-38.5"/>
<text text-anchor="middle" x="354.5" y="-45.5" font-family="Helvetica,sans-Serif" font-size="10.00">main</text>
</a>
</g>
</g>
<!-- Node31&#45;&gt;Node32 -->
<g id="edge33" class="edge"><title>Node31&#45;&gt;Node32</title>
<path fill="none" stroke="midnightblue" d="M287.165,-48C304.128,-48 321.948,-48 334.842,-48"/>
<polygon fill="midnightblue" stroke="midnightblue" points="286.766,-44.5001 276.766,-48 286.766,-51.5001 286.766,-44.5001"/>
</g>
</g>
</svg>
