<?xml version="1.0" encoding="UTF-8" standalone="no"?>
<!DOCTYPE svg PUBLIC "-//W3C//DTD SVG 1.1//EN"
 "http://www.w3.org/Graphics/SVG/1.1/DTD/svg11.dtd">
<!-- Generated by graphviz version 2.38.0 (20140413.2041)
 -->
<!-- Title: rle_debug Pages: 1 -->
<svg width="254pt" height="104pt"
 viewBox="0.00 0.00 254.00 104.00" xmlns="http://www.w3.org/2000/svg" xmlns:xlink="http://www.w3.org/1999/xlink">
<g id="graph0" class="graph" transform="scale(1 1) rotate(0) translate(4 100)">
<title>rle_debug</title>
<polygon fill="white" stroke="none" points="-4,4 -4,-100 250,-100 250,4 -4,4"/>
<!-- Node1 -->
<g id="node1" class="node"><title>Node1</title>
<polygon fill="#bfbfbf" stroke="black" points="0,-38.5 0,-57.5 63,-57.5 63,-38.5 0,-38.5"/>
<text text-anchor="middle" x="31.5" y="-45.5" font-family="Helvetica,sans-Serif" font-size="10.00">rle_debug</text>
</g>
<!-- Node2 -->
<g id="node2" class="node"><title>Node2</title>
<g id="a_node2"><a xlink:href="../../d3/d46/get4d_8c.html#af1e5f57fa511be9fa99aee630ceba576" target="_top" xlink:title="get_pic">
<polygon fill="white" stroke="black" points="109.5,-76.5 109.5,-95.5 160.5,-95.5 160.5,-76.5 109.5,-76.5"/>
<text text-anchor="middle" x="135" y="-83.5" font-family="Helvetica,sans-Serif" font-size="10.00">get_pic</text>
</a>
</g>
</g>
<!-- Node1&#45;&gt;Node2 -->
<g id="edge1" class="edge"><title>Node1&#45;&gt;Node2</title>
<path fill="none" stroke="midnightblue" d="M67.7629,-61.2019C81.5132,-66.3498 96.9412,-72.1258 109.446,-76.8073"/>
<polygon fill="midnightblue" stroke="midnightblue" points="68.7051,-57.8174 58.1127,-57.589 66.2507,-64.3731 68.7051,-57.8174"/>
</g>
<!-- Node4 -->
<g id="node4" class="node"><title>Node4</title>
<g id="a_node4"><a xlink:href="../../d9/d3b/get__orion_8c.html#a0708a0954f39ecdc7aa901286295ad01" target="_top" xlink:title="main">
<polygon fill="white" stroke="black" points="115.5,-38.5 115.5,-57.5 154.5,-57.5 154.5,-38.5 115.5,-38.5"/>
<text text-anchor="middle" x="135" y="-45.5" font-family="Helvetica,sans-Serif" font-size="10.00">main</text>
</a>
</g>
</g>
<!-- Node1&#45;&gt;Node4 -->
<g id="edge3" class="edge"><title>Node1&#45;&gt;Node4</title>
<path fill="none" stroke="midnightblue" d="M73.5503,-48C88.0915,-48 103.736,-48 115.466,-48"/>
<polygon fill="midnightblue" stroke="midnightblue" points="73.2288,-44.5001 63.2288,-48 73.2288,-51.5001 73.2288,-44.5001"/>
</g>
<!-- Node5 -->
<g id="node5" class="node"><title>Node5</title>
<g id="a_node5"><a xlink:href="../../d1/d2c/rlehdr_8c.html#af162404c5103b31d3afbd772f64f520a" target="_top" xlink:title="print_codes">
<polygon fill="white" stroke="black" points="99,-0.5 99,-19.5 171,-19.5 171,-0.5 99,-0.5"/>
<text text-anchor="middle" x="135" y="-7.5" font-family="Helvetica,sans-Serif" font-size="10.00">print_codes</text>
</a>
</g>
</g>
<!-- Node1&#45;&gt;Node5 -->
<g id="edge4" class="edge"><title>Node1&#45;&gt;Node5</title>
<path fill="none" stroke="midnightblue" d="M67.5389,-34.882C80.9634,-29.8561 96.0152,-24.2209 108.395,-19.5859"/>
<polygon fill="midnightblue" stroke="midnightblue" points="66.2507,-31.6269 58.1127,-38.411 68.7051,-38.1826 66.2507,-31.6269"/>
</g>
<!-- Node3 -->
<g id="node3" class="node"><title>Node3</title>
<g id="a_node3"><a xlink:href="../../d3/d46/get4d_8c.html#a2e1c56207484e456874379d624fc0e67" target="_top" xlink:title="main">
<polygon fill="white" stroke="black" points="207,-76.5 207,-95.5 246,-95.5 246,-76.5 207,-76.5"/>
<text text-anchor="middle" x="226.5" y="-83.5" font-family="Helvetica,sans-Serif" font-size="10.00">main</text>
</a>
</g>
</g>
<!-- Node2&#45;&gt;Node3 -->
<g id="edge2" class="edge"><title>Node2&#45;&gt;Node3</title>
<path fill="none" stroke="midnightblue" d="M171.29,-86C183.476,-86 196.642,-86 206.947,-86"/>
<polygon fill="midnightblue" stroke="midnightblue" points="170.931,-82.5001 160.931,-86 170.931,-89.5001 170.931,-82.5001"/>
</g>
</g>
</svg>
