<?xml version="1.0" encoding="UTF-8" standalone="no"?>
<!DOCTYPE svg PUBLIC "-//W3C//DTD SVG 1.1//EN"
 "http://www.w3.org/Graphics/SVG/1.1/DTD/svg11.dtd">
<!-- Generated by graphviz version 2.38.0 (20140413.2041)
 -->
<!-- Title: rle_get_setup_ok Pages: 1 -->
<svg width="537pt" height="218pt"
 viewBox="0.00 0.00 537.00 218.00" xmlns="http://www.w3.org/2000/svg" xmlns:xlink="http://www.w3.org/1999/xlink">
<g id="graph0" class="graph" transform="scale(1 1) rotate(0) translate(4 214)">
<title>rle_get_setup_ok</title>
<polygon fill="white" stroke="none" points="-4,4 -4,-214 533,-214 533,4 -4,4"/>
<!-- Node1 -->
<g id="node1" class="node"><title>Node1</title>
<polygon fill="#bfbfbf" stroke="black" points="0,-57.5 0,-76.5 98,-76.5 98,-57.5 0,-57.5"/>
<text text-anchor="middle" x="49" y="-64.5" font-family="Helvetica,sans-Serif" font-size="10.00">rle_get_setup_ok</text>
</g>
<!-- Node2 -->
<g id="node2" class="node"><title>Node2</title>
<g id="a_node2"><a xlink:href="../../d2/df3/rle__hdr_8c.html#a8ba0e5b11d1e39ab7227f1686e676c86" target="_top" xlink:title="rle_hdr_init">
<polygon fill="white" stroke="black" points="138.5,-38.5 138.5,-57.5 208.5,-57.5 208.5,-38.5 138.5,-38.5"/>
<text text-anchor="middle" x="173.5" y="-45.5" font-family="Helvetica,sans-Serif" font-size="10.00">rle_hdr_init</text>
</a>
</g>
</g>
<!-- Node1&#45;&gt;Node2 -->
<g id="edge1" class="edge"><title>Node1&#45;&gt;Node2</title>
<path fill="none" stroke="midnightblue" d="M98.0637,-59.5452C108.013,-58.002 118.45,-56.3832 128.256,-54.8624"/>
<polygon fill="midnightblue" stroke="midnightblue" points="128.853,-58.3116 138.199,-53.3202 127.78,-51.3943 128.853,-58.3116"/>
</g>
<!-- Node7 -->
<g id="node7" class="node"><title>Node7</title>
<g id="a_node7"><a xlink:href="../../d2/df3/rle__hdr_8c.html#a82e79385f2d45cc3b80ce0f4f369eae5" target="_top" xlink:title="rle_names">
<polygon fill="white" stroke="black" points="373,-38.5 373,-57.5 439,-57.5 439,-38.5 373,-38.5"/>
<text text-anchor="middle" x="406" y="-45.5" font-family="Helvetica,sans-Serif" font-size="10.00">rle_names</text>
</a>
</g>
</g>
<!-- Node1&#45;&gt;Node7 -->
<g id="edge10" class="edge"><title>Node1&#45;&gt;Node7</title>
<path fill="none" stroke="midnightblue" d="M98.0334,-70.5973C153.983,-73.9568 249.082,-77.0903 330,-67 341.43,-65.5748 353.617,-62.9726 364.772,-60.1417"/>
<polygon fill="midnightblue" stroke="midnightblue" points="365.913,-63.4601 374.676,-57.505 364.112,-56.6958 365.913,-63.4601"/>
</g>
<!-- Node8 -->
<g id="node8" class="node"><title>Node8</title>
<g id="a_node8"><a xlink:href="../../d7/d24/rle__error_8c.html#af931d686cf3ca715c9b900527f0961c0" target="_top" xlink:title="rle_get_error">
<polygon fill="white" stroke="black" points="134,-0.5 134,-19.5 213,-19.5 213,-0.5 134,-0.5"/>
<text text-anchor="middle" x="173.5" y="-7.5" font-family="Helvetica,sans-Serif" font-size="10.00">rle_get_error</text>
</a>
</g>
</g>
<!-- Node1&#45;&gt;Node8 -->
<g id="edge11" class="edge"><title>Node1&#45;&gt;Node8</title>
<path fill="none" stroke="midnightblue" d="M70.5037,-57.4595C90.2899,-48.2528 120.458,-34.2153 142.858,-23.7926"/>
<polygon fill="midnightblue" stroke="midnightblue" points="144.339,-26.9637 151.929,-19.5716 141.386,-20.6171 144.339,-26.9637"/>
</g>
<!-- Node9 -->
<g id="node9" class="node"><title>Node9</title>
<g id="a_node9"><a xlink:href="../../db/d53/rle__getrow_8c.html#a619b27463c26e0a4a3d9648a9869ee52" target="_top" xlink:title="rle_get_setup">
<polygon fill="white" stroke="black" points="249,-114.5 249,-133.5 330,-133.5 330,-114.5 249,-114.5"/>
<text text-anchor="middle" x="289.5" y="-121.5" font-family="Helvetica,sans-Serif" font-size="10.00">rle_get_setup</text>
</a>
</g>
</g>
<!-- Node1&#45;&gt;Node9 -->
<g id="edge12" class="edge"><title>Node1&#45;&gt;Node9</title>
<path fill="none" stroke="midnightblue" d="M70.6252,-76.5817C87.37,-83.9968 111.767,-93.9849 134,-100 168.488,-109.331 208.354,-115.411 238.951,-119.117"/>
<polygon fill="midnightblue" stroke="midnightblue" points="238.612,-122.601 248.95,-120.284 239.423,-115.648 238.612,-122.601"/>
</g>
<!-- Node3 -->
<g id="node3" class="node"><title>Node3</title>
<g id="a_node3"><a xlink:href="../../d2/df3/rle__hdr_8c.html#a16c4da6201b3b8cf55127b9ca968d253" target="_top" xlink:title="rle_hdr_clear">
<polygon fill="white" stroke="black" points="366,-190.5 366,-209.5 446,-209.5 446,-190.5 366,-190.5"/>
<text text-anchor="middle" x="406" y="-197.5" font-family="Helvetica,sans-Serif" font-size="10.00">rle_hdr_clear</text>
</a>
</g>
</g>
<!-- Node2&#45;&gt;Node3 -->
<g id="edge2" class="edge"><title>Node2&#45;&gt;Node3</title>
<path fill="none" stroke="midnightblue" d="M179.541,-57.5207C190.013,-76.4352 215.928,-118.986 249,-143 281.035,-166.261 323.579,-180.966 356.146,-189.603"/>
<polygon fill="midnightblue" stroke="midnightblue" points="355.355,-193.013 365.91,-192.091 357.084,-186.23 355.355,-193.013"/>
</g>
<!-- Node5 -->
<g id="node5" class="node"><title>Node5</title>
<g id="a_node5"><a xlink:href="../../d2/df3/rle__hdr_8c.html#afc916e29aea8788e0878ca315ff69821" target="_top" xlink:title="rle_hdr_cp">
<polygon fill="white" stroke="black" points="255.5,-38.5 255.5,-57.5 323.5,-57.5 323.5,-38.5 255.5,-38.5"/>
<text text-anchor="middle" x="289.5" y="-45.5" font-family="Helvetica,sans-Serif" font-size="10.00">rle_hdr_cp</text>
</a>
</g>
</g>
<!-- Node2&#45;&gt;Node5 -->
<g id="edge4" class="edge"><title>Node2&#45;&gt;Node5</title>
<path fill="none" stroke="midnightblue" d="M208.704,-41.7547C220.168,-41.2197 233.105,-41.1101 245.173,-41.4257"/>
<polygon fill="midnightblue" stroke="midnightblue" points="245.371,-44.9355 255.495,-41.8125 245.633,-37.9404 245.371,-44.9355"/>
</g>
<!-- Node4 -->
<g id="node4" class="node"><title>Node4</title>
<g id="a_node4"><a xlink:href="../../d0/dcc/rletorla_8c.html#aafde19f7d36ca163a143579c1b125b6d" target="_top" xlink:title="free">
<polygon fill="white" stroke="black" points="488,-152.5 488,-171.5 523,-171.5 523,-152.5 488,-152.5"/>
<text text-anchor="middle" x="505.5" y="-159.5" font-family="Helvetica,sans-Serif" font-size="10.00">free</text>
</a>
</g>
</g>
<!-- Node3&#45;&gt;Node4 -->
<g id="edge3" class="edge"><title>Node3&#45;&gt;Node4</title>
<path fill="none" stroke="midnightblue" d="M431.603,-190.411C445.904,-184.837 463.914,-177.818 478.454,-172.151"/>
<polygon fill="midnightblue" stroke="midnightblue" points="479.831,-175.371 487.878,-168.478 477.289,-168.849 479.831,-175.371"/>
</g>
<!-- Node5&#45;&gt;Node2 -->
<g id="edge5" class="edge"><title>Node5&#45;&gt;Node2</title>
<path fill="none" stroke="midnightblue" d="M255.495,-54.1875C244.023,-54.758 230.963,-54.8945 218.731,-54.5972"/>
<polygon fill="midnightblue" stroke="midnightblue" points="218.82,-51.0982 208.704,-54.2453 218.575,-58.0939 218.82,-51.0982"/>
</g>
<!-- Node6 -->
<g id="node6" class="node"><title>Node6</title>
<g id="a_node6"><a xlink:href="../../d0/dcc/rletorla_8c.html#ab7e36af3707843f77cc5b4e831c2fa6d" target="_top" xlink:title="malloc">
<polygon fill="white" stroke="black" points="482,-38.5 482,-57.5 529,-57.5 529,-38.5 482,-38.5"/>
<text text-anchor="middle" x="505.5" y="-45.5" font-family="Helvetica,sans-Serif" font-size="10.00">malloc</text>
</a>
</g>
</g>
<!-- Node5&#45;&gt;Node6 -->
<g id="edge6" class="edge"><title>Node5&#45;&gt;Node6</title>
<path fill="none" stroke="midnightblue" d="M321.031,-38.4949C334.647,-34.7307 350.977,-30.8613 366,-29 401.286,-24.6282 410.882,-23.44 446,-29 454.718,-30.3802 463.905,-32.8499 472.349,-35.5616"/>
<polygon fill="midnightblue" stroke="midnightblue" points="471.253,-38.8859 481.848,-38.8054 473.515,-32.2615 471.253,-38.8859"/>
</g>
<!-- Node5&#45;&gt;Node7 -->
<g id="edge7" class="edge"><title>Node5&#45;&gt;Node7</title>
<path fill="none" stroke="midnightblue" d="M323.618,-48C335.813,-48 349.796,-48 362.692,-48"/>
<polygon fill="midnightblue" stroke="midnightblue" points="362.746,-51.5001 372.746,-48 362.746,-44.5001 362.746,-51.5001"/>
</g>
<!-- Node7&#45;&gt;Node4 -->
<g id="edge8" class="edge"><title>Node7&#45;&gt;Node4</title>
<path fill="none" stroke="midnightblue" d="M415.313,-57.7196C431.79,-76.9858 468.796,-120.254 489.59,-144.566"/>
<polygon fill="midnightblue" stroke="midnightblue" points="487.049,-146.98 496.208,-152.305 492.368,-142.43 487.049,-146.98"/>
</g>
<!-- Node7&#45;&gt;Node6 -->
<g id="edge9" class="edge"><title>Node7&#45;&gt;Node6</title>
<path fill="none" stroke="midnightblue" d="M439.195,-48C449.679,-48 461.321,-48 471.838,-48"/>
<polygon fill="midnightblue" stroke="midnightblue" points="471.896,-51.5001 481.896,-48 471.896,-44.5001 471.896,-51.5001"/>
</g>
<!-- Node9&#45;&gt;Node3 -->
<g id="edge13" class="edge"><title>Node9&#45;&gt;Node3</title>
<path fill="none" stroke="midnightblue" d="M303.997,-133.607C318.992,-144.207 343.996,-161.666 366,-176 370.546,-178.962 375.441,-182.05 380.174,-184.987"/>
<polygon fill="midnightblue" stroke="midnightblue" points="378.592,-188.123 388.945,-190.375 382.256,-182.158 378.592,-188.123"/>
</g>
<!-- Node9&#45;&gt;Node4 -->
<g id="edge16" class="edge"><title>Node9&#45;&gt;Node4</title>
<path fill="none" stroke="midnightblue" d="M324.9,-133.507C337.73,-136.828 352.465,-140.377 366,-143 404.494,-150.46 449.561,-156.071 477.574,-159.196"/>
<polygon fill="midnightblue" stroke="midnightblue" points="477.453,-162.704 487.774,-160.308 478.212,-155.745 477.453,-162.704"/>
</g>
<!-- Node9&#45;&gt;Node6 -->
<g id="edge15" class="edge"><title>Node9&#45;&gt;Node6</title>
<path fill="none" stroke="midnightblue" d="M317.603,-114.375C357.066,-100.36 430.213,-74.3822 472.345,-59.4195"/>
<polygon fill="midnightblue" stroke="midnightblue" points="473.595,-62.69 481.847,-56.0451 471.252,-56.0936 473.595,-62.69"/>
</g>
<!-- Node9&#45;&gt;Node7 -->
<g id="edge14" class="edge"><title>Node9&#45;&gt;Node7</title>
<path fill="none" stroke="midnightblue" d="M307.297,-114.374C314.418,-110.145 322.733,-105.009 330,-100 346.689,-88.4961 349.344,-83.5512 366,-72 370.379,-68.9631 375.139,-65.8711 379.78,-62.9611"/>
<polygon fill="midnightblue" stroke="midnightblue" points="381.736,-65.8671 388.426,-57.6517 378.073,-59.902 381.736,-65.8671"/>
</g>
<!-- Node10 -->
<g id="node10" class="node"><title>Node10</title>
<g id="a_node10"><a xlink:href="../../db/d53/rle__getrow_8c.html#a0ea68aa2ebeef9d4cade7282553b03d6" target="_top" xlink:title="vax_gshort">
<polygon fill="white" stroke="black" points="371.5,-114.5 371.5,-133.5 440.5,-133.5 440.5,-114.5 371.5,-114.5"/>
<text text-anchor="middle" x="406" y="-121.5" font-family="Helvetica,sans-Serif" font-size="10.00">vax_gshort</text>
</a>
</g>
</g>
<!-- Node9&#45;&gt;Node10 -->
<g id="edge17" class="edge"><title>Node9&#45;&gt;Node10</title>
<path fill="none" stroke="midnightblue" d="M330.225,-124C340.196,-124 350.952,-124 361.114,-124"/>
<polygon fill="midnightblue" stroke="midnightblue" points="361.43,-127.5 371.43,-124 361.429,-120.5 361.43,-127.5"/>
</g>
</g>
</svg>
