<?xml version="1.0" encoding="UTF-8" standalone="no"?>
<!DOCTYPE svg PUBLIC "-//W3C//DTD SVG 1.1//EN"
 "http://www.w3.org/Graphics/SVG/1.1/DTD/svg11.dtd">
<!-- Generated by graphviz version 2.38.0 (20140413.2041)
 -->
<!-- Title: vax_gshort Pages: 1 -->
<!--zoomable 446 -->
<svg id="main" version="1.1" xmlns="http://www.w3.org/2000/svg" xmlns:xlink="http://www.w3.org/1999/xlink" xml:space="preserve" onload="init(evt)">
<style type="text/css"><![CDATA[
.edge:hover path { stroke: red; }
.edge:hover polygon { stroke: red; fill: red; }
]]></style>
<script type="text/javascript"><![CDATA[
var edges = document.getElementsByTagName('g');
if (edges && edges.length) {
  for (var i=0;i<edges.length;i++) {
    if (edges[i].id.substr(0,4)=='edge') {
      edges[i].setAttribute('class','edge');
    }
  }
}
]]></script>
        <defs>
                <circle id="rim" cx="0" cy="0" r="7"/>
                <circle id="rim2" cx="0" cy="0" r="3.5"/>
                <g id="zoomPlus">
                        <use xlink:href="#rim" fill="#404040">
                                <set attributeName="fill" to="#808080" begin="zoomplus.mouseover" end="zoomplus.mouseout"/>
                        </use>
                        <path d="M-4,0h8M0,-4v8" fill="none" stroke="white" stroke-width="1.5" pointer-events="none"/>
                </g>
                <g id="zoomMin">
                        <use xlink:href="#rim" fill="#404040">
                                <set attributeName="fill" to="#808080" begin="zoomminus.mouseover" end="zoomminus.mouseout"/>
                        </use>
                        <path d="M-4,0h8" fill="none" stroke="white" stroke-width="1.5" pointer-events="none"/>
                </g>
                <g id="dirArrow">
                        <path fill="none" stroke="white" stroke-width="1.5" d="M0,-3.0v7 M-2.5,-0.5L0,-3.0L2.5,-0.5"/>
                </g>
               <g id="resetDef">
                       <use xlink:href="#rim2" fill="#404040">
                               <set attributeName="fill" to="#808080" begin="reset.mouseover" end="reset.mouseout"/>
                       </use>
               </g>
        </defs>

<script type="text/javascript">
var viewWidth = 535;
var viewHeight = 446;
var sectionId = 'dynsection-9';
</script>
<script xlink:href="../../svgpan.js"/>
<svg id="graph" class="graph">
<g id="viewport">
<title>vax_gshort</title>
<polygon fill="white" stroke="none" points="-4,4 -4,-442 531,-442 531,4 -4,4"/>
<!-- Node1 -->
<g id="node1" class="node"><title>Node1</title>
<polygon fill="#bfbfbf" stroke="black" points="0,-228.5 0,-247.5 69,-247.5 69,-228.5 0,-228.5"/>
<text text-anchor="middle" x="34.5" y="-235.5" font-family="Helvetica,sans-Serif" font-size="10.00">vax_gshort</text>
</g>
<!-- Node2 -->
<g id="node2" class="node"><title>Node2</title>
<g id="a_node2"><a xlink:href="../../db/d53/rle__getrow_8c.html#a619b27463c26e0a4a3d9648a9869ee52" target="_top" xlink:title="rle_get_setup">
<polygon fill="white" stroke="black" points="105,-228.5 105,-247.5 186,-247.5 186,-228.5 105,-228.5"/>
<text text-anchor="middle" x="145.5" y="-235.5" font-family="Helvetica,sans-Serif" font-size="10.00">rle_get_setup</text>
</a>
</g>
</g>
<!-- Node1&#45;&gt;Node2 -->
<g id="edge1" class="edge"><title>Node1&#45;&gt;Node2</title>
<path fill="none" stroke="midnightblue" d="M79.1513,-238C87.5915,-238 96.3935,-238 104.703,-238"/>
<polygon fill="midnightblue" stroke="midnightblue" points="79.093,-234.5 69.093,-238 79.093,-241.5 79.093,-234.5"/>
</g>
<!-- Node3 -->
<g id="node3" class="node"><title>Node3</title>
<g id="a_node3"><a xlink:href="../../d7/def/applymap_8c.html#a70db8bd1d499619f7ff9c1ca2ff3c8df" target="_top" xlink:title="main">
<polygon fill="white" stroke="black" points="251.5,-418.5 251.5,-437.5 290.5,-437.5 290.5,-418.5 251.5,-418.5"/>
<text text-anchor="middle" x="271" y="-425.5" font-family="Helvetica,sans-Serif" font-size="10.00">main</text>
</a>
</g>
</g>
<!-- Node2&#45;&gt;Node3 -->
<g id="edge2" class="edge"><title>Node2&#45;&gt;Node3</title>
<path fill="none" stroke="midnightblue" d="M150.06,-257.496C157.414,-292.461 177.469,-366.167 222,-409 230.01,-416.704 241.522,-421.403 251.264,-424.2"/>
<polygon fill="midnightblue" stroke="midnightblue" points="153.476,-256.725 148.104,-247.593 146.608,-258.082 153.476,-256.725"/>
</g>
<!-- Node4 -->
<g id="node4" class="node"><title>Node4</title>
<g id="a_node4"><a xlink:href="../../d3/d46/get4d_8c.html#af1e5f57fa511be9fa99aee630ceba576" target="_top" xlink:title="get_pic">
<polygon fill="white" stroke="black" points="245.5,-380.5 245.5,-399.5 296.5,-399.5 296.5,-380.5 245.5,-380.5"/>
<text text-anchor="middle" x="271" y="-387.5" font-family="Helvetica,sans-Serif" font-size="10.00">get_pic</text>
</a>
</g>
</g>
<!-- Node2&#45;&gt;Node4 -->
<g id="edge3" class="edge"><title>Node2&#45;&gt;Node4</title>
<path fill="none" stroke="midnightblue" d="M152.824,-257.49C163.036,-286.102 185.756,-339.486 222,-371 228.628,-376.763 237.216,-380.898 245.291,-383.807"/>
<polygon fill="midnightblue" stroke="midnightblue" points="156.069,-256.163 149.52,-247.834 149.446,-258.429 156.069,-256.163"/>
</g>
<!-- Node6 -->
<g id="node6" class="node"><title>Node6</title>
<g id="a_node6"><a xlink:href="../../dc/d11/getami_8c.html#aa654afe741816fa93d1cd7e49ef583ec" target="_top" xlink:title="find_most_used">
<polygon fill="white" stroke="black" points="225.5,-342.5 225.5,-361.5 316.5,-361.5 316.5,-342.5 225.5,-342.5"/>
<text text-anchor="middle" x="271" y="-349.5" font-family="Helvetica,sans-Serif" font-size="10.00">find_most_used</text>
</a>
</g>
</g>
<!-- Node2&#45;&gt;Node6 -->
<g id="edge5" class="edge"><title>Node2&#45;&gt;Node6</title>
<path fill="none" stroke="midnightblue" d="M156.999,-256.397C169.874,-277.497 193.531,-311.888 222,-333 227.039,-336.737 232.912,-339.851 238.785,-342.403"/>
<polygon fill="midnightblue" stroke="midnightblue" points="159.974,-254.551 151.864,-247.734 153.952,-258.121 159.974,-254.551"/>
</g>
<!-- Node8 -->
<g id="node8" class="node"><title>Node8</title>
<g id="a_node8"><a xlink:href="../../dc/d11/getami_8c.html#a3a79557c0de5078d1ea9206ce5eb3e77" target="_top" xlink:title="display_rle">
<polygon fill="white" stroke="black" points="237,-304.5 237,-323.5 305,-323.5 305,-304.5 237,-304.5"/>
<text text-anchor="middle" x="271" y="-311.5" font-family="Helvetica,sans-Serif" font-size="10.00">display_rle</text>
</a>
</g>
</g>
<!-- Node2&#45;&gt;Node8 -->
<g id="edge7" class="edge"><title>Node2&#45;&gt;Node8</title>
<path fill="none" stroke="midnightblue" d="M165.436,-254.589C180.134,-266.881 201.412,-283.435 222,-295 228.329,-298.555 235.459,-301.763 242.249,-304.487"/>
<polygon fill="midnightblue" stroke="midnightblue" points="167.48,-251.733 157.597,-247.915 162.942,-257.063 167.48,-251.733"/>
</g>
<!-- Node9 -->
<g id="node9" class="node"><title>Node9</title>
<g id="a_node9"><a xlink:href="../../d9/dea/getcx3d_8c.html#ac43e38fef452c4a15d14abb67019a1b5" target="_top" xlink:title="getcx3d">
<polygon fill="white" stroke="black" points="244,-266.5 244,-285.5 298,-285.5 298,-266.5 244,-266.5"/>
<text text-anchor="middle" x="271" y="-273.5" font-family="Helvetica,sans-Serif" font-size="10.00">getcx3d</text>
</a>
</g>
</g>
<!-- Node2&#45;&gt;Node9 -->
<g id="edge9" class="edge"><title>Node2&#45;&gt;Node9</title>
<path fill="none" stroke="midnightblue" d="M187.375,-250.577C205.985,-256.303 227.463,-262.912 243.856,-267.956"/>
<polygon fill="midnightblue" stroke="midnightblue" points="188.251,-247.185 177.664,-247.589 186.193,-253.875 188.251,-247.185"/>
</g>
<!-- Node11 -->
<g id="node11" class="node"><title>Node11</title>
<g id="a_node11"><a xlink:href="../../df/d69/pyrlib_8c.html#a0df7ee8b612e9251716158b046c62143" target="_top" xlink:title="rle_to_pyramids">
<polygon fill="white" stroke="black" points="225,-228.5 225,-247.5 317,-247.5 317,-228.5 225,-228.5"/>
<text text-anchor="middle" x="271" y="-235.5" font-family="Helvetica,sans-Serif" font-size="10.00">rle_to_pyramids</text>
</a>
</g>
</g>
<!-- Node2&#45;&gt;Node11 -->
<g id="edge11" class="edge"><title>Node2&#45;&gt;Node11</title>
<path fill="none" stroke="midnightblue" d="M196.272,-238C205.682,-238 215.477,-238 224.739,-238"/>
<polygon fill="midnightblue" stroke="midnightblue" points="196.256,-234.5 186.256,-238 196.256,-241.5 196.256,-234.5"/>
</g>
<!-- Node12 -->
<g id="node12" class="node"><title>Node12</title>
<g id="a_node12"><a xlink:href="../../d4/dc6/interfaceRLE.html#a151be2ba0debedc4c36f7305a74354ec" target="_top" xlink:title="&#45;[RLE open:]">
<polygon fill="white" stroke="black" points="233.5,-190.5 233.5,-209.5 308.5,-209.5 308.5,-190.5 233.5,-190.5"/>
<text text-anchor="middle" x="271" y="-197.5" font-family="Helvetica,sans-Serif" font-size="10.00">&#45;[RLE open:]</text>
</a>
</g>
</g>
<!-- Node2&#45;&gt;Node12 -->
<g id="edge12" class="edge"><title>Node2&#45;&gt;Node12</title>
<path fill="none" stroke="midnightblue" d="M187.24,-225.465C204.04,-220.295 223.197,-214.401 238.846,-209.586"/>
<polygon fill="midnightblue" stroke="midnightblue" points="186.193,-222.125 177.664,-228.411 188.251,-228.815 186.193,-222.125"/>
</g>
<!-- Node13 -->
<g id="node13" class="node"><title>Node13</title>
<g id="a_node13"><a xlink:href="../../db/d53/rle__getrow_8c.html#a2d56ca99b896abbcb4d2f3f97c93a3ce" target="_top" xlink:title="rle_get_setup_ok">
<polygon fill="white" stroke="black" points="222,-152.5 222,-171.5 320,-171.5 320,-152.5 222,-152.5"/>
<text text-anchor="middle" x="271" y="-159.5" font-family="Helvetica,sans-Serif" font-size="10.00">rle_get_setup_ok</text>
</a>
</g>
</g>
<!-- Node2&#45;&gt;Node13 -->
<g id="edge13" class="edge"><title>Node2&#45;&gt;Node13</title>
<path fill="none" stroke="midnightblue" d="M165.436,-221.411C180.134,-209.119 201.412,-192.565 222,-181 228.329,-177.445 235.459,-174.237 242.249,-171.513"/>
<polygon fill="midnightblue" stroke="midnightblue" points="162.942,-218.937 157.597,-228.085 167.48,-224.267 162.942,-218.937"/>
</g>
<!-- Node24 -->
<g id="node24" class="node"><title>Node24</title>
<g id="a_node24"><a xlink:href="../../d7/d7d/rleldmap_8c.html#a46c3c4a1e84c992d331d569094ab0cf2" target="_top" xlink:title="get_rle_map">
<polygon fill="white" stroke="black" points="233,-114.5 233,-133.5 309,-133.5 309,-114.5 233,-114.5"/>
<text text-anchor="middle" x="271" y="-121.5" font-family="Helvetica,sans-Serif" font-size="10.00">get_rle_map</text>
</a>
</g>
</g>
<!-- Node2&#45;&gt;Node24 -->
<g id="edge24" class="edge"><title>Node2&#45;&gt;Node24</title>
<path fill="none" stroke="midnightblue" d="M156.999,-219.603C169.874,-198.503 193.531,-164.112 222,-143 227.039,-139.263 232.912,-136.149 238.785,-133.597"/>
<polygon fill="midnightblue" stroke="midnightblue" points="153.952,-217.879 151.864,-228.266 159.974,-221.449 153.952,-217.879"/>
</g>
<!-- Node25 -->
<g id="node25" class="node"><title>Node25</title>
<g id="a_node25"><a xlink:href="../../da/d04/rlestereo_8c.html#af7f5a992a89fd5f1d23a0e2de4a05bcd" target="_top" xlink:title="get_rle_setup">
<polygon fill="white" stroke="black" points="230.5,-76.5 230.5,-95.5 311.5,-95.5 311.5,-76.5 230.5,-76.5"/>
<text text-anchor="middle" x="271" y="-83.5" font-family="Helvetica,sans-Serif" font-size="10.00">get_rle_setup</text>
</a>
</g>
</g>
<!-- Node2&#45;&gt;Node25 -->
<g id="edge25" class="edge"><title>Node2&#45;&gt;Node25</title>
<path fill="none" stroke="midnightblue" d="M152.824,-218.51C163.036,-189.898 185.756,-136.514 222,-105 226.329,-101.236 231.493,-98.1671 236.804,-95.6801"/>
<polygon fill="midnightblue" stroke="midnightblue" points="149.446,-217.571 149.52,-228.166 156.069,-219.837 149.446,-217.571"/>
</g>
<!-- Node26 -->
<g id="node26" class="node"><title>Node26</title>
<g id="a_node26"><a xlink:href="../../d1/d55/rletoppm_8c.html#a613466880d5af08f3e98a3d2068ce8bc" target="_top" xlink:title="read_rle_header">
<polygon fill="white" stroke="black" points="223,-19.5 223,-38.5 319,-38.5 319,-19.5 223,-19.5"/>
<text text-anchor="middle" x="271" y="-26.5" font-family="Helvetica,sans-Serif" font-size="10.00">read_rle_header</text>
</a>
</g>
</g>
<!-- Node2&#45;&gt;Node26 -->
<g id="edge26" class="edge"><title>Node2&#45;&gt;Node26</title>
<path fill="none" stroke="midnightblue" d="M151.784,-218.307C161.505,-184.689 184.712,-115.197 222,-67 230.845,-55.5672 243.839,-45.5571 254.078,-38.6848"/>
<polygon fill="midnightblue" stroke="midnightblue" points="148.326,-217.676 149.003,-228.249 155.067,-219.562 148.326,-217.676"/>
</g>
<!-- Node5 -->
<g id="node5" class="node"><title>Node5</title>
<g id="a_node5"><a xlink:href="../../d3/d46/get4d_8c.html#a2e1c56207484e456874379d624fc0e67" target="_top" xlink:title="main">
<polygon fill="white" stroke="black" points="373,-380.5 373,-399.5 412,-399.5 412,-380.5 373,-380.5"/>
<text text-anchor="middle" x="392.5" y="-387.5" font-family="Helvetica,sans-Serif" font-size="10.00">main</text>
</a>
</g>
</g>
<!-- Node4&#45;&gt;Node5 -->
<g id="edge4" class="edge"><title>Node4&#45;&gt;Node5</title>
<path fill="none" stroke="midnightblue" d="M306.825,-390C328.311,-390 355.038,-390 372.649,-390"/>
<polygon fill="midnightblue" stroke="midnightblue" points="306.761,-386.5 296.76,-390 306.76,-393.5 306.761,-386.5"/>
</g>
<!-- Node7 -->
<g id="node7" class="node"><title>Node7</title>
<g id="a_node7"><a xlink:href="../../dc/d11/getami_8c.html#a7be6d508b8d11374d4aef0a66817d9f0" target="_top" xlink:title="main">
<polygon fill="white" stroke="black" points="373,-342.5 373,-361.5 412,-361.5 412,-342.5 373,-342.5"/>
<text text-anchor="middle" x="392.5" y="-349.5" font-family="Helvetica,sans-Serif" font-size="10.00">main</text>
</a>
</g>
</g>
<!-- Node6&#45;&gt;Node7 -->
<g id="edge6" class="edge"><title>Node6&#45;&gt;Node7</title>
<path fill="none" stroke="midnightblue" d="M326.961,-352C343.394,-352 360.312,-352 372.703,-352"/>
<polygon fill="midnightblue" stroke="midnightblue" points="326.837,-348.5 316.837,-352 326.837,-355.5 326.837,-348.5"/>
</g>
<!-- Node8&#45;&gt;Node7 -->
<g id="edge8" class="edge"><title>Node8&#45;&gt;Node7</title>
<path fill="none" stroke="midnightblue" d="M311.932,-326.698C332.532,-333.249 356.675,-340.926 372.918,-346.091"/>
<polygon fill="midnightblue" stroke="midnightblue" points="312.745,-323.284 302.155,-323.589 310.624,-329.955 312.745,-323.284"/>
</g>
<!-- Node10 -->
<g id="node10" class="node"><title>Node10</title>
<g id="a_node10"><a xlink:href="../../d9/dea/getcx3d_8c.html#a0708a0954f39ecdc7aa901286295ad01" target="_top" xlink:title="main">
<polygon fill="white" stroke="black" points="373,-304.5 373,-323.5 412,-323.5 412,-304.5 373,-304.5"/>
<text text-anchor="middle" x="392.5" y="-311.5" font-family="Helvetica,sans-Serif" font-size="10.00">main</text>
</a>
</g>
</g>
<!-- Node9&#45;&gt;Node10 -->
<g id="edge10" class="edge"><title>Node9&#45;&gt;Node10</title>
<path fill="none" stroke="midnightblue" d="M307.941,-287.429C329.272,-294.212 355.443,-302.534 372.75,-308.038"/>
<polygon fill="midnightblue" stroke="midnightblue" points="308.815,-284.034 298.225,-284.339 306.694,-290.705 308.815,-284.034"/>
</g>
<!-- Node14 -->
<g id="node14" class="node"><title>Node14</title>
<g id="a_node14"><a xlink:href="../../d2/db1/getbob_8c.html#a0708a0954f39ecdc7aa901286295ad01" target="_top" xlink:title="main">
<polygon fill="white" stroke="black" points="373,-266.5 373,-285.5 412,-285.5 412,-266.5 373,-266.5"/>
<text text-anchor="middle" x="392.5" y="-273.5" font-family="Helvetica,sans-Serif" font-size="10.00">main</text>
</a>
</g>
</g>
<!-- Node13&#45;&gt;Node14 -->
<g id="edge14" class="edge"><title>Node13&#45;&gt;Node14</title>
<path fill="none" stroke="midnightblue" d="M314.679,-176.721C316.564,-178.033 318.352,-179.457 320,-181 347.279,-206.549 330.227,-229.931 356,-257 360.627,-261.86 366.777,-265.747 372.655,-268.707"/>
<polygon fill="midnightblue" stroke="midnightblue" points="316.337,-173.637 305.93,-171.652 312.828,-179.694 316.337,-173.637"/>
</g>
<!-- Node15 -->
<g id="node15" class="node"><title>Node15</title>
<g id="a_node15"><a xlink:href="../../dc/d7d/getmex_8c.html#ae0bd10121c9d36b3e835d5fee4c1476d" target="_top" xlink:title="get_pic">
<polygon fill="white" stroke="black" points="367,-228.5 367,-247.5 418,-247.5 418,-228.5 367,-228.5"/>
<text text-anchor="middle" x="392.5" y="-235.5" font-family="Helvetica,sans-Serif" font-size="10.00">get_pic</text>
</a>
</g>
</g>
<!-- Node13&#45;&gt;Node15 -->
<g id="edge15" class="edge"><title>Node13&#45;&gt;Node15</title>
<path fill="none" stroke="midnightblue" d="M311.251,-175.845C314.298,-177.425 317.253,-179.142 320,-181 339.271,-194.033 337.507,-204.885 356,-219 360.557,-222.478 365.836,-225.677 370.909,-228.419"/>
<polygon fill="midnightblue" stroke="midnightblue" points="312.5,-172.566 301.956,-171.521 309.547,-178.913 312.5,-172.566"/>
</g>
<!-- Node17 -->
<g id="node17" class="node"><title>Node17</title>
<g id="a_node17"><a xlink:href="../../d6/d28/gettaac_8c.html#ac6597f5cb5e1205e800704d584f65e68" target="_top" xlink:title="read_file">
<polygon fill="white" stroke="black" points="363.5,-190.5 363.5,-209.5 421.5,-209.5 421.5,-190.5 363.5,-190.5"/>
<text text-anchor="middle" x="392.5" y="-197.5" font-family="Helvetica,sans-Serif" font-size="10.00">read_file</text>
</a>
</g>
</g>
<!-- Node13&#45;&gt;Node17 -->
<g id="edge17" class="edge"><title>Node13&#45;&gt;Node17</title>
<path fill="none" stroke="midnightblue" d="M311.786,-174.652C328.698,-180.03 348.021,-186.174 363.407,-191.067"/>
<polygon fill="midnightblue" stroke="midnightblue" points="312.745,-171.284 302.155,-171.589 310.624,-177.955 312.745,-171.284"/>
</g>
<!-- Node19 -->
<g id="node19" class="node"><title>Node19</title>
<g id="a_node19"><a xlink:href="../../dd/d78/rle_8c.html#a478b503fdb4cd225b8220ac26c163ba7" target="_top" xlink:title="rasterInit">
<polygon fill="white" stroke="black" points="363,-152.5 363,-171.5 422,-171.5 422,-152.5 363,-152.5"/>
<text text-anchor="middle" x="392.5" y="-159.5" font-family="Helvetica,sans-Serif" font-size="10.00">rasterInit</text>
</a>
</g>
</g>
<!-- Node13&#45;&gt;Node19 -->
<g id="edge19" class="edge"><title>Node13&#45;&gt;Node19</title>
<path fill="none" stroke="midnightblue" d="M330.479,-162C341.673,-162 352.926,-162 362.666,-162"/>
<polygon fill="midnightblue" stroke="midnightblue" points="330.261,-158.5 320.261,-162 330.261,-165.5 330.261,-158.5"/>
</g>
<!-- Node20 -->
<g id="node20" class="node"><title>Node20</title>
<g id="a_node20"><a xlink:href="../../d6/d10/rletoalias_8c.html#a86cf5e03c7b351c5a62a6951d179f6a5" target="_top" xlink:title="read_rle">
<polygon fill="white" stroke="black" points="364.5,-114.5 364.5,-133.5 420.5,-133.5 420.5,-114.5 364.5,-114.5"/>
<text text-anchor="middle" x="392.5" y="-121.5" font-family="Helvetica,sans-Serif" font-size="10.00">read_rle</text>
</a>
</g>
</g>
<!-- Node13&#45;&gt;Node20 -->
<g id="edge20" class="edge"><title>Node13&#45;&gt;Node20</title>
<path fill="none" stroke="midnightblue" d="M311.932,-149.302C329.107,-143.84 348.746,-137.595 364.215,-132.676"/>
<polygon fill="midnightblue" stroke="midnightblue" points="310.624,-146.045 302.155,-152.411 312.745,-152.716 310.624,-146.045"/>
</g>
<!-- Node21 -->
<g id="node21" class="node"><title>Node21</title>
<g id="a_node21"><a xlink:href="../../d5/da8/rletovcr_8c.html#aba26f4d31d659f02d1106070249cda49" target="_top" xlink:title="read_image">
<polygon fill="white" stroke="black" points="356,-76.5 356,-95.5 429,-95.5 429,-76.5 356,-76.5"/>
<text text-anchor="middle" x="392.5" y="-83.5" font-family="Helvetica,sans-Serif" font-size="10.00">read_image</text>
</a>
</g>
</g>
<!-- Node13&#45;&gt;Node21 -->
<g id="edge21" class="edge"><title>Node13&#45;&gt;Node21</title>
<path fill="none" stroke="midnightblue" d="M311.251,-148.155C314.298,-146.575 317.253,-144.858 320,-143 339.271,-129.967 337.507,-119.115 356,-105 360.557,-101.522 365.836,-98.323 370.909,-95.5807"/>
<polygon fill="midnightblue" stroke="midnightblue" points="309.547,-145.087 301.956,-152.479 312.5,-151.434 309.547,-145.087"/>
</g>
<!-- Node23 -->
<g id="node23" class="node"><title>Node23</title>
<g id="a_node23"><a xlink:href="../../df/dfb/unslice_8c.html#a7090aec632931a42b5d606b6db234b9d" target="_top" xlink:title="do_slice">
<polygon fill="white" stroke="black" points="364.5,-38.5 364.5,-57.5 420.5,-57.5 420.5,-38.5 364.5,-38.5"/>
<text text-anchor="middle" x="392.5" y="-45.5" font-family="Helvetica,sans-Serif" font-size="10.00">do_slice</text>
</a>
</g>
</g>
<!-- Node13&#45;&gt;Node23 -->
<g id="edge23" class="edge"><title>Node13&#45;&gt;Node23</title>
<path fill="none" stroke="midnightblue" d="M314.679,-147.279C316.564,-145.967 318.352,-144.543 320,-143 347.279,-117.451 330.227,-94.0686 356,-67 359.471,-63.3549 363.797,-60.2572 368.224,-57.6874"/>
<polygon fill="midnightblue" stroke="midnightblue" points="312.828,-144.306 305.93,-152.348 316.337,-150.363 312.828,-144.306"/>
</g>
<!-- Node16 -->
<g id="node16" class="node"><title>Node16</title>
<g id="a_node16"><a xlink:href="../../dc/d7d/getmex_8c.html#a2e1c56207484e456874379d624fc0e67" target="_top" xlink:title="main">
<polygon fill="white" stroke="black" points="476.5,-228.5 476.5,-247.5 515.5,-247.5 515.5,-228.5 476.5,-228.5"/>
<text text-anchor="middle" x="496" y="-235.5" font-family="Helvetica,sans-Serif" font-size="10.00">main</text>
</a>
</g>
</g>
<!-- Node15&#45;&gt;Node16 -->
<g id="edge16" class="edge"><title>Node15&#45;&gt;Node16</title>
<path fill="none" stroke="midnightblue" d="M428.252,-238C444.393,-238 462.94,-238 476.38,-238"/>
<polygon fill="midnightblue" stroke="midnightblue" points="428.07,-234.5 418.07,-238 428.07,-241.5 428.07,-234.5"/>
</g>
<!-- Node18 -->
<g id="node18" class="node"><title>Node18</title>
<g id="a_node18"><a xlink:href="../../d6/d28/gettaac_8c.html#a4f03a057a0e8afba60fcb95a988c80d1" target="_top" xlink:title="init_panel">
<polygon fill="white" stroke="black" points="465,-190.5 465,-209.5 527,-209.5 527,-190.5 465,-190.5"/>
<text text-anchor="middle" x="496" y="-197.5" font-family="Helvetica,sans-Serif" font-size="10.00">init_panel</text>
</a>
</g>
</g>
<!-- Node17&#45;&gt;Node18 -->
<g id="edge18" class="edge"><title>Node17&#45;&gt;Node18</title>
<path fill="none" stroke="midnightblue" d="M431.713,-200C442.704,-200 454.533,-200 464.955,-200"/>
<polygon fill="midnightblue" stroke="midnightblue" points="431.504,-196.5 421.504,-200 431.504,-203.5 431.504,-196.5"/>
</g>
<!-- Node22 -->
<g id="node22" class="node"><title>Node22</title>
<g id="a_node22"><a xlink:href="../../d5/da8/rletovcr_8c.html#afced8478b91af5c169926dfa4426333d" target="_top" xlink:title="main">
<polygon fill="white" stroke="black" points="476.5,-76.5 476.5,-95.5 515.5,-95.5 515.5,-76.5 476.5,-76.5"/>
<text text-anchor="middle" x="496" y="-83.5" font-family="Helvetica,sans-Serif" font-size="10.00">main</text>
</a>
</g>
</g>
<!-- Node21&#45;&gt;Node22 -->
<g id="edge22" class="edge"><title>Node21&#45;&gt;Node22</title>
<path fill="none" stroke="midnightblue" d="M439.546,-86C452.534,-86 465.936,-86 476.31,-86"/>
<polygon fill="midnightblue" stroke="midnightblue" points="439.285,-82.5001 429.285,-86 439.285,-89.5001 439.285,-82.5001"/>
</g>
<!-- Node27 -->
<g id="node27" class="node"><title>Node27</title>
<g id="a_node27"><a xlink:href="../../d1/d55/rletoppm_8c.html#a3c04138a5bfe5d72780bb7e82a18e627" target="_top" xlink:title="main">
<polygon fill="white" stroke="black" points="373,-0.5 373,-19.5 412,-19.5 412,-0.5 373,-0.5"/>
<text text-anchor="middle" x="392.5" y="-7.5" font-family="Helvetica,sans-Serif" font-size="10.00">main</text>
</a>
</g>
</g>
<!-- Node26&#45;&gt;Node27 -->
<g id="edge27" class="edge"><title>Node26&#45;&gt;Node27</title>
<path fill="none" stroke="midnightblue" d="M329.48,-19.861C345.193,-17.3626 361.116,-14.8309 372.894,-12.9583"/>
<polygon fill="midnightblue" stroke="midnightblue" points="328.556,-16.4638 319.23,-21.4907 329.655,-23.377 328.556,-16.4638"/>
</g>
</g>
</svg>
        <g id="navigator" transform="translate(0 0)" fill="#404254">
                <rect fill="#f2f5e9" fill-opacity="0.5" stroke="#606060" stroke-width=".5" x="0" y="0" width="60" height="60"/>
                <use id="zoomplus" xlink:href="#zoomPlus" x="17" y="9" onmousedown="handleZoom(evt,'in')"/>
                <use id="zoomminus" xlink:href="#zoomMin" x="42" y="9" onmousedown="handleZoom(evt,'out')"/>
                <use id="reset" xlink:href="#resetDef" x="30" y="36" onmousedown="handleReset()"/>
                <g id="arrowUp" xlink:href="#dirArrow" transform="translate(30 24)" onmousedown="handlePan(0,-1)">
                  <use xlink:href="#rim" fill="#404040">
                        <set attributeName="fill" to="#808080" begin="arrowUp.mouseover" end="arrowUp.mouseout"/>
                  </use>
                  <path fill="none" stroke="white" stroke-width="1.5" d="M0,-3.0v7 M-2.5,-0.5L0,-3.0L2.5,-0.5"/>
                </g>
                <g id="arrowRight" xlink:href="#dirArrow" transform="rotate(90) translate(36 -43)" onmousedown="handlePan(1,0)">
                  <use xlink:href="#rim" fill="#404040">
                        <set attributeName="fill" to="#808080" begin="arrowRight.mouseover" end="arrowRight.mouseout"/>
                  </use>
                  <path fill="none" stroke="white" stroke-width="1.5" d="M0,-3.0v7 M-2.5,-0.5L0,-3.0L2.5,-0.5"/>
                </g>
                <g id="arrowDown" xlink:href="#dirArrow" transform="rotate(180) translate(-30 -48)" onmousedown="handlePan(0,1)">
                  <use xlink:href="#rim" fill="#404040">
                        <set attributeName="fill" to="#808080" begin="arrowDown.mouseover" end="arrowDown.mouseout"/>
                  </use>
                  <path fill="none" stroke="white" stroke-width="1.5" d="M0,-3.0v7 M-2.5,-0.5L0,-3.0L2.5,-0.5"/>
                </g>
                <g id="arrowLeft" xlink:href="#dirArrow" transform="rotate(270) translate(-36 17)" onmousedown="handlePan(-1,0)">
                  <use xlink:href="#rim" fill="#404040">
                        <set attributeName="fill" to="#808080" begin="arrowLeft.mouseover" end="arrowLeft.mouseout"/>
                  </use>
                  <path fill="none" stroke="white" stroke-width="1.5" d="M0,-3.0v7 M-2.5,-0.5L0,-3.0L2.5,-0.5"/>
                </g>
        </g>
        <svg viewBox="0 0 15 15" width="100%" height="30px" preserveAspectRatio="xMaxYMin meet">
         <g id="arrow_out" transform="scale(0.3 0.3)">
          <a xlink:href="rle__getrow_8c_a0ea68aa2ebeef9d4cade7282553b03d6_icgraph_org.svg" target="_base">
           <rect id="button" ry="5" rx="5" y="6" x="6" height="38" width="38"
                fill="#f2f5e9" fill-opacity="0.5" stroke="#606060" stroke-width="1.0"/>
           <path id="arrow"
             d="M 11.500037,31.436501 C 11.940474,20.09759 22.043105,11.32322 32.158766,21.979434 L 37.068811,17.246167 C 37.068811,17.246167 37.088388,32 37.088388,32 L 22.160133,31.978069 C 22.160133,31.978069 26.997745,27.140456 26.997745,27.140456 C 18.528582,18.264221 13.291696,25.230495 11.500037,31.436501 z"
             style="fill:#404040;"/>
          </a>
         </g>
        </svg>
</svg>
