<?xml version="1.0" encoding="UTF-8" standalone="no"?>
<!DOCTYPE svg PUBLIC "-//W3C//DTD SVG 1.1//EN"
 "http://www.w3.org/Graphics/SVG/1.1/DTD/svg11.dtd">
<!-- Generated by graphviz version 2.38.0 (20140413.2041)
 -->
<!-- Title: RASF.m Pages: 1 -->
<svg width="810pt" height="196pt"
 viewBox="0.00 0.00 809.50 196.00" xmlns="http://www.w3.org/2000/svg" xmlns:xlink="http://www.w3.org/1999/xlink">
<g id="graph0" class="graph" transform="scale(1 1) rotate(0) translate(4 192)">
<title>RASF.m</title>
<polygon fill="white" stroke="none" points="-4,4 -4,-192 805.5,-192 805.5,4 -4,4"/>
<!-- Node1 -->
<g id="node1" class="node"><title>Node1</title>
<polygon fill="#bfbfbf" stroke="black" points="386.5,-168.5 386.5,-187.5 440.5,-187.5 440.5,-168.5 386.5,-168.5"/>
<text text-anchor="middle" x="413.5" y="-175.5" font-family="Helvetica,sans-Serif" font-size="10.00">RASF.m</text>
</g>
<!-- Node2 -->
<g id="node2" class="node"><title>Node2</title>
<g id="a_node2"><a xlink:href="../../d6/daf/RASF_8h.html" target="_top" xlink:title="RASF.h">
<polygon fill="white" stroke="black" points="132.5,-112.5 132.5,-131.5 184.5,-131.5 184.5,-112.5 132.5,-112.5"/>
<text text-anchor="middle" x="158.5" y="-119.5" font-family="Helvetica,sans-Serif" font-size="10.00">RASF.h</text>
</a>
</g>
</g>
<!-- Node1&#45;&gt;Node2 -->
<g id="edge1" class="edge"><title>Node1&#45;&gt;Node2</title>
<path fill="none" stroke="midnightblue" d="M386.211,-171.221C340.053,-161.447 246.561,-141.648 194.885,-130.705"/>
<polygon fill="midnightblue" stroke="midnightblue" points="195.337,-127.223 184.829,-128.576 193.887,-134.071 195.337,-127.223"/>
</g>
<!-- Node5 -->
<g id="node5" class="node"><title>Node5</title>
<polygon fill="white" stroke="#bfbfbf" points="218.5,-0.5 218.5,-19.5 266.5,-19.5 266.5,-0.5 218.5,-0.5"/>
<text text-anchor="middle" x="242.5" y="-7.5" font-family="Helvetica,sans-Serif" font-size="10.00">zone.h</text>
</g>
<!-- Node1&#45;&gt;Node5 -->
<g id="edge9" class="edge"><title>Node1&#45;&gt;Node5</title>
<path fill="none" stroke="midnightblue" d="M386.493,-173.209C345.237,-166.827 269.503,-152.587 252.5,-132 228.53,-102.978 233.135,-55.5683 238.113,-29.5454"/>
<polygon fill="midnightblue" stroke="midnightblue" points="241.587,-30.0375 240.256,-19.5266 234.742,-28.5732 241.587,-30.0375"/>
</g>
<!-- Node7 -->
<g id="node7" class="node"><title>Node7</title>
<polygon fill="white" stroke="#bfbfbf" points="261,-112.5 261,-131.5 308,-131.5 308,-112.5 261,-112.5"/>
<text text-anchor="middle" x="284.5" y="-119.5" font-family="Helvetica,sans-Serif" font-size="10.00">stdio.h</text>
</g>
<!-- Node1&#45;&gt;Node7 -->
<g id="edge6" class="edge"><title>Node1&#45;&gt;Node7</title>
<path fill="none" stroke="midnightblue" d="M393.06,-168.444C371.83,-159.557 338.401,-145.563 314.245,-135.451"/>
<polygon fill="midnightblue" stroke="midnightblue" points="315.421,-132.149 304.845,-131.516 312.718,-138.606 315.421,-132.149"/>
</g>
<!-- Node8 -->
<g id="node8" class="node"><title>Node8</title>
<polygon fill="white" stroke="#bfbfbf" points="326,-112.5 326,-131.5 375,-131.5 375,-112.5 326,-112.5"/>
<text text-anchor="middle" x="350.5" y="-119.5" font-family="Helvetica,sans-Serif" font-size="10.00">stdlib.h</text>
</g>
<!-- Node1&#45;&gt;Node8 -->
<g id="edge7" class="edge"><title>Node1&#45;&gt;Node8</title>
<path fill="none" stroke="midnightblue" d="M403.378,-168.324C393.974,-160.263 379.756,-148.077 368.431,-138.369"/>
<polygon fill="midnightblue" stroke="midnightblue" points="370.677,-135.684 360.806,-131.834 366.121,-140.999 370.677,-135.684"/>
</g>
<!-- Node9 -->
<g id="node9" class="node"><title>Node9</title>
<polygon fill="white" stroke="#bfbfbf" points="393.5,-112.5 393.5,-131.5 433.5,-131.5 433.5,-112.5 393.5,-112.5"/>
<text text-anchor="middle" x="413.5" y="-119.5" font-family="Helvetica,sans-Serif" font-size="10.00">libc.h</text>
</g>
<!-- Node1&#45;&gt;Node9 -->
<g id="edge8" class="edge"><title>Node1&#45;&gt;Node9</title>
<path fill="none" stroke="midnightblue" d="M413.5,-168.083C413.5,-161.006 413.5,-150.861 413.5,-141.986"/>
<polygon fill="midnightblue" stroke="midnightblue" points="417,-141.751 413.5,-131.751 410,-141.751 417,-141.751"/>
</g>
<!-- Node10 -->
<g id="node10" class="node"><title>Node10</title>
<polygon fill="white" stroke="#bfbfbf" points="451.5,-112.5 451.5,-131.5 501.5,-131.5 501.5,-112.5 451.5,-112.5"/>
<text text-anchor="middle" x="476.5" y="-119.5" font-family="Helvetica,sans-Serif" font-size="10.00">mach.h</text>
</g>
<!-- Node1&#45;&gt;Node10 -->
<g id="edge10" class="edge"><title>Node1&#45;&gt;Node10</title>
<path fill="none" stroke="midnightblue" d="M423.622,-168.324C433.026,-160.263 447.244,-148.077 458.569,-138.369"/>
<polygon fill="midnightblue" stroke="midnightblue" points="460.879,-140.999 466.194,-131.834 456.323,-135.684 460.879,-140.999"/>
</g>
<!-- Node11 -->
<g id="node11" class="node"><title>Node11</title>
<polygon fill="white" stroke="#bfbfbf" points="519.5,-112.5 519.5,-131.5 613.5,-131.5 613.5,-112.5 519.5,-112.5"/>
<text text-anchor="middle" x="566.5" y="-119.5" font-family="Helvetica,sans-Serif" font-size="10.00">appkit/Window.h</text>
</g>
<!-- Node1&#45;&gt;Node11 -->
<g id="edge11" class="edge"><title>Node1&#45;&gt;Node11</title>
<path fill="none" stroke="midnightblue" d="M437.743,-168.444C463.371,-159.399 503.985,-145.064 532.738,-134.916"/>
<polygon fill="midnightblue" stroke="midnightblue" points="534.105,-138.145 542.37,-131.516 531.775,-131.544 534.105,-138.145"/>
</g>
<!-- Node12 -->
<g id="node12" class="node"><title>Node12</title>
<polygon fill="white" stroke="#bfbfbf" points="632,-112.5 632,-131.5 715,-131.5 715,-112.5 632,-112.5"/>
<text text-anchor="middle" x="673.5" y="-119.5" font-family="Helvetica,sans-Serif" font-size="10.00">appkit/Panel.h</text>
</g>
<!-- Node1&#45;&gt;Node12 -->
<g id="edge12" class="edge"><title>Node1&#45;&gt;Node12</title>
<path fill="none" stroke="midnightblue" d="M440.833,-171.323C483.915,-162.375 568.297,-144.85 622.727,-133.545"/>
<polygon fill="midnightblue" stroke="midnightblue" points="623.446,-136.971 632.525,-131.51 622.022,-130.117 623.446,-136.971"/>
</g>
<!-- Node13 -->
<g id="node13" class="node"><title>Node13</title>
<polygon fill="white" stroke="#bfbfbf" points="733.5,-112.5 733.5,-131.5 801.5,-131.5 801.5,-112.5 733.5,-112.5"/>
<text text-anchor="middle" x="767.5" y="-119.5" font-family="Helvetica,sans-Serif" font-size="10.00">appkit/tiff.h</text>
</g>
<!-- Node1&#45;&gt;Node13 -->
<g id="edge13" class="edge"><title>Node1&#45;&gt;Node13</title>
<path fill="none" stroke="midnightblue" d="M440.631,-173.655C493.187,-167.052 612.734,-151.427 723.287,-132.124"/>
<polygon fill="midnightblue" stroke="midnightblue" points="724.028,-135.547 733.27,-130.366 722.814,-128.653 724.028,-135.547"/>
</g>
<!-- Node3 -->
<g id="node3" class="node"><title>Node3</title>
<g id="a_node3"><a xlink:href="../../d8/d0f/Image_8h.html" target="_top" xlink:title="Image.h">
<polygon fill="white" stroke="black" points="131.5,-56.5 131.5,-75.5 185.5,-75.5 185.5,-56.5 131.5,-56.5"/>
<text text-anchor="middle" x="158.5" y="-63.5" font-family="Helvetica,sans-Serif" font-size="10.00">Image.h</text>
</a>
</g>
</g>
<!-- Node2&#45;&gt;Node3 -->
<g id="edge2" class="edge"><title>Node2&#45;&gt;Node3</title>
<path fill="none" stroke="midnightblue" d="M158.5,-112.083C158.5,-105.006 158.5,-94.8611 158.5,-85.9865"/>
<polygon fill="midnightblue" stroke="midnightblue" points="162,-85.751 158.5,-75.7511 155,-85.7511 162,-85.751"/>
</g>
<!-- Node4 -->
<g id="node4" class="node"><title>Node4</title>
<polygon fill="white" stroke="#bfbfbf" points="0,-0.5 0,-19.5 79,-19.5 79,-0.5 0,-0.5"/>
<text text-anchor="middle" x="39.5" y="-7.5" font-family="Helvetica,sans-Serif" font-size="10.00">appkit/View.h</text>
</g>
<!-- Node3&#45;&gt;Node4 -->
<g id="edge3" class="edge"><title>Node3&#45;&gt;Node4</title>
<path fill="none" stroke="midnightblue" d="M139.644,-56.4435C120.234,-47.6356 89.7699,-33.8116 67.5355,-23.722"/>
<polygon fill="midnightblue" stroke="midnightblue" points="68.8203,-20.4615 58.2677,-19.5164 65.9277,-26.836 68.8203,-20.4615"/>
</g>
<!-- Node3&#45;&gt;Node5 -->
<g id="edge4" class="edge"><title>Node3&#45;&gt;Node5</title>
<path fill="none" stroke="midnightblue" d="M171.996,-56.324C185.1,-47.9002 205.212,-34.9709 220.607,-25.0741"/>
<polygon fill="midnightblue" stroke="midnightblue" points="222.518,-28.0063 229.037,-19.6545 218.733,-22.118 222.518,-28.0063"/>
</g>
<!-- Node6 -->
<g id="node6" class="node"><title>Node6</title>
<polygon fill="white" stroke="#bfbfbf" points="97,-0.5 97,-19.5 200,-19.5 200,-0.5 97,-0.5"/>
<text text-anchor="middle" x="148.5" y="-7.5" font-family="Helvetica,sans-Serif" font-size="10.00">streams/streams.h</text>
</g>
<!-- Node3&#45;&gt;Node6 -->
<g id="edge5" class="edge"><title>Node3&#45;&gt;Node6</title>
<path fill="none" stroke="midnightblue" d="M156.849,-56.083C155.524,-48.9272 153.618,-38.6353 151.961,-29.6911"/>
<polygon fill="midnightblue" stroke="midnightblue" points="155.383,-28.9466 150.121,-19.7511 148.5,-30.2212 155.383,-28.9466"/>
</g>
</g>
</svg>
