<?xml version="1.0" encoding="UTF-8" standalone="no"?>
<!DOCTYPE svg PUBLIC "-//W3C//DTD SVG 1.1//EN"
 "http://www.w3.org/Graphics/SVG/1.1/DTD/svg11.dtd">
<!-- Generated by graphviz version 2.38.0 (20140413.2041)
 -->
<!-- Title: ComputeRGBMap Pages: 1 -->
<svg width="287pt" height="28pt"
 viewBox="0.00 0.00 287.00 28.00" xmlns="http://www.w3.org/2000/svg" xmlns:xlink="http://www.w3.org/1999/xlink">
<g id="graph0" class="graph" transform="scale(1 1) rotate(0) translate(4 24)">
<title>ComputeRGBMap</title>
<polygon fill="white" stroke="none" points="-4,4 -4,-24 283,-24 283,4 -4,4"/>
<!-- Node1 -->
<g id="node1" class="node"><title>Node1</title>
<polygon fill="#bfbfbf" stroke="black" points="0,-0.5 0,-19.5 102,-19.5 102,-0.5 0,-0.5"/>
<text text-anchor="middle" x="51" y="-7.5" font-family="Helvetica,sans-Serif" font-size="10.00">ComputeRGBMap</text>
</g>
<!-- Node2 -->
<g id="node2" class="node"><title>Node2</title>
<g id="a_node2"><a xlink:href="../../de/dbf/colorquant_8c.html#af7e23053060bba6342204f086e5bdd13" target="_top" xlink:title="colorquant">
<polygon fill="white" stroke="black" points="138,-0.5 138,-19.5 204,-19.5 204,-0.5 138,-0.5"/>
<text text-anchor="middle" x="171" y="-7.5" font-family="Helvetica,sans-Serif" font-size="10.00">colorquant</text>
</a>
</g>
</g>
<!-- Node1&#45;&gt;Node2 -->
<g id="edge1" class="edge"><title>Node1&#45;&gt;Node2</title>
<path fill="none" stroke="midnightblue" d="M112.294,-10C121.05,-10 129.769,-10 137.678,-10"/>
<polygon fill="midnightblue" stroke="midnightblue" points="112.043,-6.5001 102.043,-10 112.043,-13.5001 112.043,-6.5001"/>
</g>
<!-- Node3 -->
<g id="node3" class="node"><title>Node3</title>
<g id="a_node3"><a xlink:href="../../dc/d5c/rlequant_8c.html#a70db8bd1d499619f7ff9c1ca2ff3c8df" target="_top" xlink:title="main">
<polygon fill="white" stroke="black" points="240,-0.5 240,-19.5 279,-19.5 279,-0.5 240,-0.5"/>
<text text-anchor="middle" x="259.5" y="-7.5" font-family="Helvetica,sans-Serif" font-size="10.00">main</text>
</a>
</g>
</g>
<!-- Node2&#45;&gt;Node3 -->
<g id="edge2" class="edge"><title>Node2&#45;&gt;Node3</title>
<path fill="none" stroke="midnightblue" d="M214.457,-10C223.278,-10 232.143,-10 239.584,-10"/>
<polygon fill="midnightblue" stroke="midnightblue" points="214.209,-6.5001 204.209,-10 214.209,-13.5001 214.209,-6.5001"/>
</g>
</g>
</svg>
