<?xml version="1.0" encoding="UTF-8" standalone="no"?>
<!DOCTYPE svg PUBLIC "-//W3C//DTD SVG 1.1//EN"
 "http://www.w3.org/Graphics/SVG/1.1/DTD/svg11.dtd">
<!-- Generated by graphviz version 2.38.0 (20140413.2041)
 -->
<!-- Title: colorquant Pages: 1 -->
<svg width="212pt" height="180pt"
 viewBox="0.00 0.00 212.00 180.00" xmlns="http://www.w3.org/2000/svg" xmlns:xlink="http://www.w3.org/1999/xlink">
<g id="graph0" class="graph" transform="scale(1 1) rotate(0) translate(4 176)">
<title>colorquant</title>
<polygon fill="white" stroke="none" points="-4,4 -4,-176 208,-176 208,4 -4,4"/>
<!-- Node1 -->
<g id="node1" class="node"><title>Node1</title>
<polygon fill="#bfbfbf" stroke="black" points="0,-76.5 0,-95.5 66,-95.5 66,-76.5 0,-76.5"/>
<text text-anchor="middle" x="33" y="-83.5" font-family="Helvetica,sans-Serif" font-size="10.00">colorquant</text>
</g>
<!-- Node2 -->
<g id="node2" class="node"><title>Node2</title>
<g id="a_node2"><a xlink:href="../../d0/dcc/rletorla_8c.html#ab7e36af3707843f77cc5b4e831c2fa6d" target="_top" xlink:title="malloc">
<polygon fill="white" stroke="black" points="129.5,-152.5 129.5,-171.5 176.5,-171.5 176.5,-152.5 129.5,-152.5"/>
<text text-anchor="middle" x="153" y="-159.5" font-family="Helvetica,sans-Serif" font-size="10.00">malloc</text>
</a>
</g>
</g>
<!-- Node1&#45;&gt;Node2 -->
<g id="edge1" class="edge"><title>Node1&#45;&gt;Node2</title>
<path fill="none" stroke="midnightblue" d="M43.3442,-95.6246C55.7736,-107.981 78.8787,-129.441 102,-143 107.572,-146.268 113.808,-149.162 119.935,-151.646"/>
<polygon fill="midnightblue" stroke="midnightblue" points="118.772,-154.948 129.364,-155.204 121.243,-148.398 118.772,-154.948"/>
</g>
<!-- Node3 -->
<g id="node3" class="node"><title>Node3</title>
<g id="a_node3"><a xlink:href="../../de/dbf/colorquant_8c.html#a1b278b5575a6dd444c2d8bfd1c3273df" target="_top" xlink:title="QuantHistogram">
<polygon fill="white" stroke="black" points="106.5,-114.5 106.5,-133.5 199.5,-133.5 199.5,-114.5 106.5,-114.5"/>
<text text-anchor="middle" x="153" y="-121.5" font-family="Helvetica,sans-Serif" font-size="10.00">QuantHistogram</text>
</a>
</g>
</g>
<!-- Node1&#45;&gt;Node3 -->
<g id="edge2" class="edge"><title>Node1&#45;&gt;Node3</title>
<path fill="none" stroke="midnightblue" d="M63.7764,-95.589C78.5898,-100.359 96.6914,-106.189 112.634,-111.323"/>
<polygon fill="midnightblue" stroke="midnightblue" points="111.642,-114.68 122.233,-114.414 113.787,-108.017 111.642,-114.68"/>
</g>
<!-- Node4 -->
<g id="node4" class="node"><title>Node4</title>
<g id="a_node4"><a xlink:href="../../de/dbf/colorquant_8c.html#a8d4d713b29edf0061f02f75826cbb616" target="_top" xlink:title="CutBoxes">
<polygon fill="white" stroke="black" points="122,-76.5 122,-95.5 184,-95.5 184,-76.5 122,-76.5"/>
<text text-anchor="middle" x="153" y="-83.5" font-family="Helvetica,sans-Serif" font-size="10.00">CutBoxes</text>
</a>
</g>
</g>
<!-- Node1&#45;&gt;Node4 -->
<g id="edge3" class="edge"><title>Node1&#45;&gt;Node4</title>
<path fill="none" stroke="midnightblue" d="M66.244,-86C80.1911,-86 96.669,-86 111.434,-86"/>
<polygon fill="midnightblue" stroke="midnightblue" points="111.823,-89.5001 121.823,-86 111.823,-82.5001 111.823,-89.5001"/>
</g>
<!-- Node5 -->
<g id="node5" class="node"><title>Node5</title>
<g id="a_node5"><a xlink:href="../../de/dbf/colorquant_8c.html#a0233005d5a3719522750cc8e091ec3d1" target="_top" xlink:title="ComputeRGBMap">
<polygon fill="white" stroke="black" points="102,-38.5 102,-57.5 204,-57.5 204,-38.5 102,-38.5"/>
<text text-anchor="middle" x="153" y="-45.5" font-family="Helvetica,sans-Serif" font-size="10.00">ComputeRGBMap</text>
</a>
</g>
</g>
<!-- Node1&#45;&gt;Node5 -->
<g id="edge4" class="edge"><title>Node1&#45;&gt;Node5</title>
<path fill="none" stroke="midnightblue" d="M63.7764,-76.411C78.5898,-71.6406 96.6914,-65.8112 112.634,-60.6771"/>
<polygon fill="midnightblue" stroke="midnightblue" points="113.787,-63.9828 122.233,-57.5859 111.642,-57.3198 113.787,-63.9828"/>
</g>
<!-- Node6 -->
<g id="node6" class="node"><title>Node6</title>
<g id="a_node6"><a xlink:href="../../d0/dcc/rletorla_8c.html#aafde19f7d36ca163a143579c1b125b6d" target="_top" xlink:title="free">
<polygon fill="white" stroke="black" points="135.5,-0.5 135.5,-19.5 170.5,-19.5 170.5,-0.5 135.5,-0.5"/>
<text text-anchor="middle" x="153" y="-7.5" font-family="Helvetica,sans-Serif" font-size="10.00">free</text>
</a>
</g>
</g>
<!-- Node1&#45;&gt;Node6 -->
<g id="edge5" class="edge"><title>Node1&#45;&gt;Node6</title>
<path fill="none" stroke="midnightblue" d="M43.3442,-76.3754C55.7736,-64.0189 78.8787,-42.5591 102,-29 109.322,-24.7061 117.79,-21.0563 125.651,-18.138"/>
<polygon fill="midnightblue" stroke="midnightblue" points="126.855,-21.4252 135.154,-14.8393 124.559,-14.8124 126.855,-21.4252"/>
</g>
</g>
</svg>
