<?xml version="1.0" encoding="UTF-8" standalone="no"?>
<!DOCTYPE svg PUBLIC "-//W3C//DTD SVG 1.1//EN"
 "http://www.w3.org/Graphics/SVG/1.1/DTD/svg11.dtd">
<!-- Generated by graphviz version 2.38.0 (20140413.2041)
 -->
<!-- Title: ComputeRGBMap Pages: 1 -->
<svg width="221pt" height="66pt"
 viewBox="0.00 0.00 221.00 66.00" xmlns="http://www.w3.org/2000/svg" xmlns:xlink="http://www.w3.org/1999/xlink">
<g id="graph0" class="graph" transform="scale(1 1) rotate(0) translate(4 62)">
<title>ComputeRGBMap</title>
<polygon fill="white" stroke="none" points="-4,4 -4,-62 217,-62 217,4 -4,4"/>
<!-- Node1 -->
<g id="node1" class="node"><title>Node1</title>
<polygon fill="#bfbfbf" stroke="black" points="0,-19.5 0,-38.5 102,-38.5 102,-19.5 0,-19.5"/>
<text text-anchor="middle" x="51" y="-26.5" font-family="Helvetica,sans-Serif" font-size="10.00">ComputeRGBMap</text>
</g>
<!-- Node2 -->
<g id="node2" class="node"><title>Node2</title>
<g id="a_node2"><a xlink:href="../../de/dbf/colorquant_8c.html#a57bfeebe95de44eb3992f81122bf69e4" target="_top" xlink:title="SetRGBmap">
<polygon fill="white" stroke="black" points="138,-38.5 138,-57.5 213,-57.5 213,-38.5 138,-38.5"/>
<text text-anchor="middle" x="175.5" y="-45.5" font-family="Helvetica,sans-Serif" font-size="10.00">SetRGBmap</text>
</a>
</g>
</g>
<!-- Node1&#45;&gt;Node2 -->
<g id="edge1" class="edge"><title>Node1&#45;&gt;Node2</title>
<path fill="none" stroke="midnightblue" d="M102.179,-36.7828C110.634,-38.0943 119.381,-39.4509 127.745,-40.7482"/>
<polygon fill="midnightblue" stroke="midnightblue" points="127.294,-44.22 137.712,-42.2941 128.367,-37.3027 127.294,-44.22"/>
</g>
<!-- Node3 -->
<g id="node3" class="node"><title>Node3</title>
<g id="a_node3"><a xlink:href="../../de/dbf/colorquant_8c.html#ae5a3402dd91ddff893ffac062ddb7996" target="_top" xlink:title="inv_cmap">
<polygon fill="white" stroke="black" points="144.5,-0.5 144.5,-19.5 206.5,-19.5 206.5,-0.5 144.5,-0.5"/>
<text text-anchor="middle" x="175.5" y="-7.5" font-family="Helvetica,sans-Serif" font-size="10.00">inv_cmap</text>
</a>
</g>
</g>
<!-- Node1&#45;&gt;Node3 -->
<g id="edge2" class="edge"><title>Node1&#45;&gt;Node3</title>
<path fill="none" stroke="midnightblue" d="M102.179,-21.2172C112.883,-19.5569 124.054,-17.8243 134.324,-16.2314"/>
<polygon fill="midnightblue" stroke="midnightblue" points="134.898,-19.6842 144.244,-14.6928 133.825,-12.767 134.898,-19.6842"/>
</g>
</g>
</svg>
