<?xml version="1.0" encoding="UTF-8" standalone="no"?>
<!DOCTYPE svg PUBLIC "-//W3C//DTD SVG 1.1//EN"
 "http://www.w3.org/Graphics/SVG/1.1/DTD/svg11.dtd">
<!-- Generated by graphviz version 2.38.0 (20140413.2041)
 -->
<!-- Title: FindCutpoint Pages: 1 -->
<svg width="229pt" height="66pt"
 viewBox="0.00 0.00 229.00 66.00" xmlns="http://www.w3.org/2000/svg" xmlns:xlink="http://www.w3.org/1999/xlink">
<g id="graph0" class="graph" transform="scale(1 1) rotate(0) translate(4 62)">
<title>FindCutpoint</title>
<polygon fill="white" stroke="none" points="-4,4 -4,-62 225,-62 225,4 -4,4"/>
<!-- Node1 -->
<g id="node1" class="node"><title>Node1</title>
<polygon fill="#bfbfbf" stroke="black" points="0,-19.5 0,-38.5 76,-38.5 76,-19.5 0,-19.5"/>
<text text-anchor="middle" x="38" y="-26.5" font-family="Helvetica,sans-Serif" font-size="10.00">FindCutpoint</text>
</g>
<!-- Node2 -->
<g id="node2" class="node"><title>Node2</title>
<g id="a_node2"><a xlink:href="../../de/dbf/colorquant_8c.html#a9429c7871c9d4d031128d52c7bc61788" target="_top" xlink:title="UpdateFrequencies">
<polygon fill="white" stroke="black" points="112,-38.5 112,-57.5 221,-57.5 221,-38.5 112,-38.5"/>
<text text-anchor="middle" x="166.5" y="-45.5" font-family="Helvetica,sans-Serif" font-size="10.00">UpdateFrequencies</text>
</a>
</g>
</g>
<!-- Node1&#45;&gt;Node2 -->
<g id="edge1" class="edge"><title>Node1&#45;&gt;Node2</title>
<path fill="none" stroke="midnightblue" d="M76.27,-34.5979C84.2321,-35.7938 92.859,-37.0895 101.504,-38.388"/>
<polygon fill="midnightblue" stroke="midnightblue" points="101.214,-41.8836 111.623,-39.9078 102.254,-34.9613 101.214,-41.8836"/>
</g>
<!-- Node3 -->
<g id="node3" class="node"><title>Node3</title>
<g id="a_node3"><a xlink:href="../../de/dbf/colorquant_8c.html#a5f86702dc6eea46af2b1b9eae5e0f0ba" target="_top" xlink:title="BoxStats">
<polygon fill="white" stroke="black" points="137,-0.5 137,-19.5 196,-19.5 196,-0.5 137,-0.5"/>
<text text-anchor="middle" x="166.5" y="-7.5" font-family="Helvetica,sans-Serif" font-size="10.00">BoxStats</text>
</a>
</g>
</g>
<!-- Node1&#45;&gt;Node3 -->
<g id="edge2" class="edge"><title>Node1&#45;&gt;Node3</title>
<path fill="none" stroke="midnightblue" d="M76.27,-23.4021C92.1725,-21.0136 110.727,-18.2268 126.785,-15.8149"/>
<polygon fill="midnightblue" stroke="midnightblue" points="127.554,-19.2387 136.924,-14.2921 126.515,-12.3163 127.554,-19.2387"/>
</g>
</g>
</svg>
