<?xml version="1.0" encoding="UTF-8" standalone="no"?>
<!DOCTYPE svg PUBLIC "-//W3C//DTD SVG 1.1//EN"
 "http://www.w3.org/Graphics/SVG/1.1/DTD/svg11.dtd">
<!-- Generated by graphviz version 2.38.0 (20140413.2041)
 -->
<!-- Title: main Pages: 1 -->
<!--zoomable 826 -->
<svg id="main" version="1.1" xmlns="http://www.w3.org/2000/svg" xmlns:xlink="http://www.w3.org/1999/xlink" xml:space="preserve" onload="init(evt)">
<style type="text/css"><![CDATA[
.edge:hover path { stroke: red; }
.edge:hover polygon { stroke: red; fill: red; }
]]></style>
<script type="text/javascript"><![CDATA[
var edges = document.getElementsByTagName('g');
if (edges && edges.length) {
  for (var i=0;i<edges.length;i++) {
    if (edges[i].id.substr(0,4)=='edge') {
      edges[i].setAttribute('class','edge');
    }
  }
}
]]></script>
        <defs>
                <circle id="rim" cx="0" cy="0" r="7"/>
                <circle id="rim2" cx="0" cy="0" r="3.5"/>
                <g id="zoomPlus">
                        <use xlink:href="#rim" fill="#404040">
                                <set attributeName="fill" to="#808080" begin="zoomplus.mouseover" end="zoomplus.mouseout"/>
                        </use>
                        <path d="M-4,0h8M0,-4v8" fill="none" stroke="white" stroke-width="1.5" pointer-events="none"/>
                </g>
                <g id="zoomMin">
                        <use xlink:href="#rim" fill="#404040">
                                <set attributeName="fill" to="#808080" begin="zoomminus.mouseover" end="zoomminus.mouseout"/>
                        </use>
                        <path d="M-4,0h8" fill="none" stroke="white" stroke-width="1.5" pointer-events="none"/>
                </g>
                <g id="dirArrow">
                        <path fill="none" stroke="white" stroke-width="1.5" d="M0,-3.0v7 M-2.5,-0.5L0,-3.0L2.5,-0.5"/>
                </g>
               <g id="resetDef">
                       <use xlink:href="#rim2" fill="#404040">
                               <set attributeName="fill" to="#808080" begin="reset.mouseover" end="reset.mouseout"/>
                       </use>
               </g>
        </defs>

<script type="text/javascript">
var viewWidth = 523;
var viewHeight = 826;
var sectionId = 'dynsection-1';
</script>
<script xlink:href="../../svgpan.js"/>
<svg id="graph" class="graph">
<g id="viewport">
<title>main</title>
<polygon fill="white" stroke="none" points="-4,4 -4,-822 519,-822 519,4 -4,4"/>
<!-- Node1 -->
<g id="node1" class="node"><title>Node1</title>
<polygon fill="#bfbfbf" stroke="black" points="0,-361.5 0,-380.5 39,-380.5 39,-361.5 0,-361.5"/>
<text text-anchor="middle" x="19.5" y="-368.5" font-family="Helvetica,sans-Serif" font-size="10.00">main</text>
</g>
<!-- Node2 -->
<g id="node2" class="node"><title>Node2</title>
<g id="a_node2"><a xlink:href="../../d2/df3/rle__hdr_8c.html#a8ba0e5b11d1e39ab7227f1686e676c86" target="_top" xlink:title="rle_hdr_init">
<polygon fill="white" stroke="black" points="80,-456.5 80,-475.5 150,-475.5 150,-456.5 80,-456.5"/>
<text text-anchor="middle" x="115" y="-463.5" font-family="Helvetica,sans-Serif" font-size="10.00">rle_hdr_init</text>
</a>
</g>
</g>
<!-- Node1&#45;&gt;Node2 -->
<g id="edge1" class="edge"><title>Node1&#45;&gt;Node2</title>
<path fill="none" stroke="midnightblue" d="M26.2645,-380.62C35.3128,-395.164 53.999,-423.058 75,-442 78.4813,-445.14 82.4281,-448.107 86.4412,-450.814"/>
<polygon fill="midnightblue" stroke="midnightblue" points="84.8458,-453.944 95.1776,-456.29 88.5639,-448.013 84.8458,-453.944"/>
</g>
<!-- Node5 -->
<g id="node5" class="node"><title>Node5</title>
<g id="a_node5"><a xlink:href="../../d2/df3/rle__hdr_8c.html#afc916e29aea8788e0878ca315ff69821" target="_top" xlink:title="rle_hdr_cp">
<polygon fill="white" stroke="black" points="199,-418.5 199,-437.5 267,-437.5 267,-418.5 199,-418.5"/>
<text text-anchor="middle" x="233" y="-425.5" font-family="Helvetica,sans-Serif" font-size="10.00">rle_hdr_cp</text>
</a>
</g>
</g>
<!-- Node1&#45;&gt;Node5 -->
<g id="edge24" class="edge"><title>Node1&#45;&gt;Node5</title>
<path fill="none" stroke="midnightblue" d="M39.3904,-379.519C49.754,-383.964 62.9183,-389.243 75,-393 112.898,-404.786 157.104,-414.272 188.935,-420.381"/>
<polygon fill="midnightblue" stroke="midnightblue" points="188.335,-423.829 198.811,-422.244 189.633,-416.95 188.335,-423.829"/>
</g>
<!-- Node7 -->
<g id="node7" class="node"><title>Node7</title>
<g id="a_node7"><a xlink:href="../../d2/df3/rle__hdr_8c.html#a82e79385f2d45cc3b80ce0f4f369eae5" target="_top" xlink:title="rle_names">
<polygon fill="white" stroke="black" points="329,-456.5 329,-475.5 395,-475.5 395,-456.5 329,-456.5"/>
<text text-anchor="middle" x="362" y="-463.5" font-family="Helvetica,sans-Serif" font-size="10.00">rle_names</text>
</a>
</g>
</g>
<!-- Node1&#45;&gt;Node7 -->
<g id="edge17" class="edge"><title>Node1&#45;&gt;Node7</title>
<path fill="none" stroke="midnightblue" d="M21.6965,-380.582C25.1315,-403.484 37.3272,-461.254 75,-485 114.391,-509.829 249.029,-488.203 318.607,-474.773"/>
<polygon fill="midnightblue" stroke="midnightblue" points="319.647,-478.136 328.786,-472.777 318.3,-471.267 319.647,-478.136"/>
</g>
<!-- Node8 -->
<g id="node8" class="node"><title>Node8</title>
<g id="a_node8"><a xlink:href="../../d4/db0/scanargs_8c.html#a7ea6d702c0484056c8504d6ce7fede08" target="_top" xlink:title="scanargs">
<polygon fill="white" stroke="black" points="85,-228.5 85,-247.5 145,-247.5 145,-228.5 85,-228.5"/>
<text text-anchor="middle" x="115" y="-235.5" font-family="Helvetica,sans-Serif" font-size="10.00">scanargs</text>
</a>
</g>
</g>
<!-- Node1&#45;&gt;Node8 -->
<g id="edge10" class="edge"><title>Node1&#45;&gt;Node8</title>
<path fill="none" stroke="midnightblue" d="M22.7457,-361.491C28.2132,-340.203 44.0911,-288.138 75,-257 76.3928,-255.597 77.91,-254.282 79.5115,-253.051"/>
<polygon fill="midnightblue" stroke="midnightblue" points="81.5038,-255.932 88.0352,-247.589 77.7271,-250.038 81.5038,-255.932"/>
</g>
<!-- Node10 -->
<g id="node10" class="node"><title>Node10</title>
<g id="a_node10"><a xlink:href="../../de/d4e/rle__open__f_8c.html#a5a0e62a00f907fce26e93b2f72adb2b0" target="_top" xlink:title="rle_open_f_noexit">
<polygon fill="white" stroke="black" points="311,-798.5 311,-817.5 413,-817.5 413,-798.5 311,-798.5"/>
<text text-anchor="middle" x="362" y="-805.5" font-family="Helvetica,sans-Serif" font-size="10.00">rle_open_f_noexit</text>
</a>
</g>
</g>
<!-- Node1&#45;&gt;Node10 -->
<g id="edge12" class="edge"><title>Node1&#45;&gt;Node10</title>
<path fill="none" stroke="midnightblue" d="M20.6566,-380.776C21.6717,-431.984 28.8367,-668.979 75,-722 131.475,-786.865 234.839,-803.777 300.617,-807.646"/>
<polygon fill="midnightblue" stroke="midnightblue" points="300.676,-811.154 310.839,-808.161 301.027,-804.162 300.676,-811.154"/>
</g>
<!-- Node12 -->
<g id="node12" class="node"><title>Node12</title>
<g id="a_node12"><a xlink:href="../../d8/d30/cmd__name_8c.html#a271249070fdd12c176777c77d76f888f" target="_top" xlink:title="cmd_name">
<polygon fill="white" stroke="black" points="81,-190.5 81,-209.5 149,-209.5 149,-190.5 81,-190.5"/>
<text text-anchor="middle" x="115" y="-197.5" font-family="Helvetica,sans-Serif" font-size="10.00">cmd_name</text>
</a>
</g>
</g>
<!-- Node1&#45;&gt;Node12 -->
<g id="edge16" class="edge"><title>Node1&#45;&gt;Node12</title>
<path fill="none" stroke="midnightblue" d="M21.4683,-361.175C24.538,-334.922 36.264,-262.209 75,-219 76.1752,-217.689 77.4609,-216.459 78.8272,-215.306"/>
<polygon fill="midnightblue" stroke="midnightblue" points="81.0285,-218.042 87.3244,-209.521 77.0887,-212.256 81.0285,-218.042"/>
</g>
<!-- Node13 -->
<g id="node13" class="node"><title>Node13</title>
<g id="a_node13"><a xlink:href="../../db/d53/rle__getrow_8c.html#a619b27463c26e0a4a3d9648a9869ee52" target="_top" xlink:title="rle_get_setup">
<polygon fill="white" stroke="black" points="192.5,-570.5 192.5,-589.5 273.5,-589.5 273.5,-570.5 192.5,-570.5"/>
<text text-anchor="middle" x="233" y="-577.5" font-family="Helvetica,sans-Serif" font-size="10.00">rle_get_setup</text>
</a>
</g>
</g>
<!-- Node1&#45;&gt;Node13 -->
<g id="edge18" class="edge"><title>Node1&#45;&gt;Node13</title>
<path fill="none" stroke="midnightblue" d="M20.0502,-380.934C19.2273,-412.167 21.2885,-509.081 75,-556 103.982,-581.317 148.025,-586.163 182.095,-585.334"/>
<polygon fill="midnightblue" stroke="midnightblue" points="182.473,-588.821 192.32,-584.911 182.184,-581.827 182.473,-588.821"/>
</g>
<!-- Node15 -->
<g id="node15" class="node"><title>Node15</title>
<g id="a_node15"><a xlink:href="../../d8/def/rle__addhist_8c.html#a4f9433d6e4e203d0ecea1c7d3837afc3" target="_top" xlink:title="rle_addhist">
<polygon fill="white" stroke="black" points="80.5,-342.5 80.5,-361.5 149.5,-361.5 149.5,-342.5 80.5,-342.5"/>
<text text-anchor="middle" x="115" y="-349.5" font-family="Helvetica,sans-Serif" font-size="10.00">rle_addhist</text>
</a>
</g>
</g>
<!-- Node1&#45;&gt;Node15 -->
<g id="edge25" class="edge"><title>Node1&#45;&gt;Node15</title>
<path fill="none" stroke="midnightblue" d="M39.4211,-367.155C48.4092,-365.329 59.5549,-363.064 70.466,-360.846"/>
<polygon fill="midnightblue" stroke="midnightblue" points="71.249,-364.259 80.3517,-358.838 69.855,-357.399 71.249,-364.259"/>
</g>
<!-- Node16 -->
<g id="node16" class="node"><title>Node16</title>
<g id="a_node16"><a xlink:href="../../db/db2/rle__getcom_8c.html#a9cefd612c381bf82c9cdf1f3a3b12dd6" target="_top" xlink:title="rle_getcom">
<polygon fill="white" stroke="black" points="198.5,-304.5 198.5,-323.5 267.5,-323.5 267.5,-304.5 198.5,-304.5"/>
<text text-anchor="middle" x="233" y="-311.5" font-family="Helvetica,sans-Serif" font-size="10.00">rle_getcom</text>
</a>
</g>
</g>
<!-- Node1&#45;&gt;Node16 -->
<g id="edge32" class="edge"><title>Node1&#45;&gt;Node16</title>
<path fill="none" stroke="midnightblue" d="M30.8599,-361.415C41.2039,-352.451 57.9735,-339.499 75,-333 111.57,-319.04 156.102,-314.736 188.384,-313.663"/>
<polygon fill="midnightblue" stroke="midnightblue" points="188.498,-317.161 198.41,-313.42 188.328,-310.163 188.498,-317.161"/>
</g>
<!-- Node18 -->
<g id="node18" class="node"><title>Node18</title>
<g id="a_node18"><a xlink:href="../../df/da5/rle__putcom_8c.html#a6fa8528c32d14763efe2a534e409e321" target="_top" xlink:title="rle_putcom">
<polygon fill="white" stroke="black" points="199,-380.5 199,-399.5 267,-399.5 267,-380.5 199,-380.5"/>
<text text-anchor="middle" x="233" y="-387.5" font-family="Helvetica,sans-Serif" font-size="10.00">rle_putcom</text>
</a>
</g>
</g>
<!-- Node1&#45;&gt;Node18 -->
<g id="edge33" class="edge"><title>Node1&#45;&gt;Node18</title>
<path fill="none" stroke="midnightblue" d="M39.2692,-372.686C72.5653,-375.677 142.773,-381.984 188.628,-386.104"/>
<polygon fill="midnightblue" stroke="midnightblue" points="188.598,-389.615 198.871,-387.024 189.225,-382.643 188.598,-389.615"/>
</g>
<!-- Node20 -->
<g id="node20" class="node"><title>Node20</title>
<g id="a_node20"><a xlink:href="../../d9/d2a/rle__putrow_8c.html#af88a82b331cd6f425d2a2cc1623944c6" target="_top" xlink:title="rle_put_setup">
<polygon fill="white" stroke="black" points="75,-152.5 75,-171.5 155,-171.5 155,-152.5 75,-152.5"/>
<text text-anchor="middle" x="115" y="-159.5" font-family="Helvetica,sans-Serif" font-size="10.00">rle_put_setup</text>
</a>
</g>
</g>
<!-- Node1&#45;&gt;Node20 -->
<g id="edge34" class="edge"><title>Node1&#45;&gt;Node20</title>
<path fill="none" stroke="midnightblue" d="M20.6184,-361.457C21.4823,-331.338 28.0012,-236.98 75,-181 75.9988,-179.81 77.0898,-178.689 78.2517,-177.633"/>
<polygon fill="midnightblue" stroke="midnightblue" points="80.6265,-180.237 86.7219,-171.571 76.5528,-174.545 80.6265,-180.237"/>
</g>
<!-- Node22 -->
<g id="node22" class="node"><title>Node22</title>
<g id="a_node22"><a xlink:href="../../df/d6e/rle__raw__alc_8c.html#a3f4a119f9ef60eb2599166c98946c339" target="_top" xlink:title="rle_raw_alloc">
<polygon fill="white" stroke="black" points="322,-494.5 322,-513.5 402,-513.5 402,-494.5 322,-494.5"/>
<text text-anchor="middle" x="362" y="-501.5" font-family="Helvetica,sans-Serif" font-size="10.00">rle_raw_alloc</text>
</a>
</g>
</g>
<!-- Node1&#45;&gt;Node22 -->
<g id="edge36" class="edge"><title>Node1&#45;&gt;Node22</title>
<path fill="none" stroke="midnightblue" d="M21.0112,-380.59C22.9461,-406.024 32.1057,-475.221 75,-504 150.421,-554.602 264.078,-532.892 322.823,-516.372"/>
<polygon fill="midnightblue" stroke="midnightblue" points="323.825,-519.726 332.45,-513.572 321.87,-513.004 323.825,-519.726"/>
</g>
<!-- Node23 -->
<g id="node23" class="node"><title>Node23</title>
<g id="a_node23"><a xlink:href="../../df/dce/rle__getraw_8c.html#a5ed570d65cead1b5587e84134c31e246" target="_top" xlink:title="rle_getraw">
<polygon fill="white" stroke="black" points="81.5,-266.5 81.5,-285.5 148.5,-285.5 148.5,-266.5 81.5,-266.5"/>
<text text-anchor="middle" x="115" y="-273.5" font-family="Helvetica,sans-Serif" font-size="10.00">rle_getraw</text>
</a>
</g>
</g>
<!-- Node1&#45;&gt;Node23 -->
<g id="edge39" class="edge"><title>Node1&#45;&gt;Node23</title>
<path fill="none" stroke="midnightblue" d="M26.2645,-361.38C35.3128,-346.836 53.999,-318.942 75,-300 78.4813,-296.86 82.4281,-293.893 86.4412,-291.186"/>
<polygon fill="midnightblue" stroke="midnightblue" points="88.5639,-293.987 95.1776,-285.71 84.8458,-288.056 88.5639,-293.987"/>
</g>
<!-- Node25 -->
<g id="node25" class="node"><title>Node25</title>
<g id="a_node25"><a xlink:href="../../d9/d2a/rle__putrow_8c.html#a018d4b7d6fe20504c07c24b9bd8fc304" target="_top" xlink:title="rle_skiprow">
<polygon fill="white" stroke="black" points="79.5,-114.5 79.5,-133.5 150.5,-133.5 150.5,-114.5 79.5,-114.5"/>
<text text-anchor="middle" x="115" y="-121.5" font-family="Helvetica,sans-Serif" font-size="10.00">rle_skiprow</text>
</a>
</g>
</g>
<!-- Node1&#45;&gt;Node25 -->
<g id="edge42" class="edge"><title>Node1&#45;&gt;Node25</title>
<path fill="none" stroke="midnightblue" d="M20.0472,-361.063C19.0114,-326.746 19.9944,-211.573 75,-143 75.9425,-141.825 76.9758,-140.718 78.0799,-139.674"/>
<polygon fill="midnightblue" stroke="midnightblue" points="80.2211,-142.444 86.1834,-133.686 76.0609,-136.815 80.2211,-142.444"/>
</g>
<!-- Node26 -->
<g id="node26" class="node"><title>Node26</title>
<g id="a_node26"><a xlink:href="../../d6/d8c/rle__putraw_8c.html#ab36032e464af1d1505cdc69948fe9f17" target="_top" xlink:title="rle_putraw">
<polygon fill="white" stroke="black" points="82,-76.5 82,-95.5 148,-95.5 148,-76.5 82,-76.5"/>
<text text-anchor="middle" x="115" y="-83.5" font-family="Helvetica,sans-Serif" font-size="10.00">rle_putraw</text>
</a>
</g>
</g>
<!-- Node1&#45;&gt;Node26 -->
<g id="edge43" class="edge"><title>Node1&#45;&gt;Node26</title>
<path fill="none" stroke="midnightblue" d="M21.3509,-361.24C25.2612,-318.316 42.7111,-146.623 75,-105 75.9233,-103.81 76.9403,-102.69 78.0309,-101.636"/>
<polygon fill="midnightblue" stroke="midnightblue" points="80.176,-104.402 86.0795,-95.6042 75.9782,-98.8003 80.176,-104.402"/>
</g>
<!-- Node27 -->
<g id="node27" class="node"><title>Node27</title>
<g id="a_node27"><a xlink:href="../../df/dce/rle__getraw_8c.html#ad4a764bcb2dc8e45f3f57171022dbf2b" target="_top" xlink:title="rle_freeraw">
<polygon fill="white" stroke="black" points="197.5,-722.5 197.5,-741.5 268.5,-741.5 268.5,-722.5 197.5,-722.5"/>
<text text-anchor="middle" x="233" y="-729.5" font-family="Helvetica,sans-Serif" font-size="10.00">rle_freeraw</text>
</a>
</g>
</g>
<!-- Node1&#45;&gt;Node27 -->
<g id="edge44" class="edge"><title>Node1&#45;&gt;Node27</title>
<path fill="none" stroke="midnightblue" d="M20.7955,-380.505C22.4722,-428.296 32.2919,-641.906 75,-689 103.251,-720.153 151.708,-729.617 187.334,-732.082"/>
<polygon fill="midnightblue" stroke="midnightblue" points="187.306,-735.585 197.478,-732.621 187.678,-728.595 187.306,-735.585"/>
</g>
<!-- Node28 -->
<g id="node28" class="node"><title>Node28</title>
<g id="a_node28"><a xlink:href="../../df/d6e/rle__raw__alc_8c.html#a817fc2f8cdfed47915112d5aa3951afa" target="_top" xlink:title="rle_raw_free">
<polygon fill="white" stroke="black" points="323.5,-722.5 323.5,-741.5 400.5,-741.5 400.5,-722.5 323.5,-722.5"/>
<text text-anchor="middle" x="362" y="-729.5" font-family="Helvetica,sans-Serif" font-size="10.00">rle_raw_free</text>
</a>
</g>
</g>
<!-- Node1&#45;&gt;Node28 -->
<g id="edge46" class="edge"><title>Node1&#45;&gt;Node28</title>
<path fill="none" stroke="midnightblue" d="M21.4636,-380.505C25.7201,-420.809 44.0113,-577.213 75,-614 107.514,-652.597 246.392,-698.11 317.967,-719.589"/>
<polygon fill="midnightblue" stroke="midnightblue" points="317.019,-722.959 327.602,-722.457 319.016,-716.25 317.019,-722.959"/>
</g>
<!-- Node29 -->
<g id="node29" class="node"><title>Node29</title>
<g id="a_node29"><a xlink:href="../../d9/d2a/rle__putrow_8c.html#af4fab734a5d227ad2ae95840f56fff3b" target="_top" xlink:title="rle_puteof">
<polygon fill="white" stroke="black" points="201,-608.5 201,-627.5 265,-627.5 265,-608.5 201,-608.5"/>
<text text-anchor="middle" x="233" y="-615.5" font-family="Helvetica,sans-Serif" font-size="10.00">rle_puteof</text>
</a>
</g>
</g>
<!-- Node1&#45;&gt;Node29 -->
<g id="edge48" class="edge"><title>Node1&#45;&gt;Node29</title>
<path fill="none" stroke="midnightblue" d="M21.6363,-380.724C26.2462,-418.501 44.7629,-554.868 75,-584 105.487,-613.373 155.02,-619.866 190.293,-620.286"/>
<polygon fill="midnightblue" stroke="midnightblue" points="190.76,-623.784 200.745,-620.24 190.729,-616.784 190.76,-623.784"/>
</g>
<!-- Node30 -->
<g id="node30" class="node"><title>Node30</title>
<g id="a_node30"><a xlink:href="../../d6/d6b/rlecat_8c.html#a7918e69cf40a8cf1cc24d66a9d4ee207" target="_top" xlink:title="rep_file">
<polygon fill="white" stroke="black" points="89,-38.5 89,-57.5 141,-57.5 141,-38.5 89,-38.5"/>
<text text-anchor="middle" x="115" y="-45.5" font-family="Helvetica,sans-Serif" font-size="10.00">rep_file</text>
</a>
</g>
</g>
<!-- Node1&#45;&gt;Node30 -->
<g id="edge50" class="edge"><title>Node1&#45;&gt;Node30</title>
<path fill="none" stroke="midnightblue" d="M21.0644,-361.445C23.9601,-315.252 38.4563,-115.329 75,-67 76.5502,-64.9499 78.38,-63.1088 80.3875,-61.4574"/>
<polygon fill="midnightblue" stroke="midnightblue" points="82.3215,-64.3747 88.7943,-55.987 78.5037,-58.5075 82.3215,-64.3747"/>
</g>
<!-- Node31 -->
<g id="node31" class="node"><title>Node31</title>
<g id="a_node31"><a xlink:href="../../d7/d24/rle__error_8c.html#af931d686cf3ca715c9b900527f0961c0" target="_top" xlink:title="rle_get_error">
<polygon fill="white" stroke="black" points="75.5,-0.5 75.5,-19.5 154.5,-19.5 154.5,-0.5 75.5,-0.5"/>
<text text-anchor="middle" x="115" y="-7.5" font-family="Helvetica,sans-Serif" font-size="10.00">rle_get_error</text>
</a>
</g>
</g>
<!-- Node1&#45;&gt;Node31 -->
<g id="edge51" class="edge"><title>Node1&#45;&gt;Node31</title>
<path fill="none" stroke="midnightblue" d="M20.862,-361.271C22.893,-311.325 34.281,-83.9484 75,-29 75.7819,-27.9448 76.6383,-26.9452 77.5553,-25.9986"/>
<polygon fill="midnightblue" stroke="midnightblue" points="79.8357,-28.6582 85.5444,-19.7328 75.5158,-23.1501 79.8357,-28.6582"/>
</g>
<!-- Node3 -->
<g id="node3" class="node"><title>Node3</title>
<g id="a_node3"><a xlink:href="../../d2/df3/rle__hdr_8c.html#a16c4da6201b3b8cf55127b9ca968d253" target="_top" xlink:title="rle_hdr_clear">
<polygon fill="white" stroke="black" points="322,-532.5 322,-551.5 402,-551.5 402,-532.5 322,-532.5"/>
<text text-anchor="middle" x="362" y="-539.5" font-family="Helvetica,sans-Serif" font-size="10.00">rle_hdr_clear</text>
</a>
</g>
</g>
<!-- Node2&#45;&gt;Node3 -->
<g id="edge2" class="edge"><title>Node2&#45;&gt;Node3</title>
<path fill="none" stroke="midnightblue" d="M147.029,-475.625C191.119,-489.302 271.936,-514.372 320.637,-529.479"/>
<polygon fill="midnightblue" stroke="midnightblue" points="319.635,-532.833 330.223,-532.453 321.708,-526.147 319.635,-532.833"/>
</g>
<!-- Node2&#45;&gt;Node5 -->
<g id="edge4" class="edge"><title>Node2&#45;&gt;Node5</title>
<path fill="none" stroke="midnightblue" d="M131.165,-456.301C145.837,-449.718 168.771,-441.601 189.063,-435.522"/>
<polygon fill="midnightblue" stroke="midnightblue" points="190.13,-438.857 198.764,-432.717 188.185,-432.133 190.13,-438.857"/>
</g>
<!-- Node4 -->
<g id="node4" class="node"><title>Node4</title>
<g id="a_node4"><a xlink:href="../../d0/dcc/rletorla_8c.html#aafde19f7d36ca163a143579c1b125b6d" target="_top" xlink:title="free">
<polygon fill="white" stroke="black" points="464.5,-665.5 464.5,-684.5 499.5,-684.5 499.5,-665.5 464.5,-665.5"/>
<text text-anchor="middle" x="482" y="-672.5" font-family="Helvetica,sans-Serif" font-size="10.00">free</text>
</a>
</g>
</g>
<!-- Node3&#45;&gt;Node4 -->
<g id="edge3" class="edge"><title>Node3&#45;&gt;Node4</title>
<path fill="none" stroke="midnightblue" d="M397.504,-551.585C403.045,-554.083 408.447,-557.18 413,-561 443.896,-586.921 464.328,-630.675 474.164,-655.769"/>
<polygon fill="midnightblue" stroke="midnightblue" points="470.941,-657.141 477.731,-665.274 477.495,-654.682 470.941,-657.141"/>
</g>
<!-- Node5&#45;&gt;Node2 -->
<g id="edge5" class="edge"><title>Node5&#45;&gt;Node2</title>
<path fill="none" stroke="midnightblue" d="M216.998,-437.626C202.546,-444.126 179.97,-452.14 159.825,-458.211"/>
<polygon fill="midnightblue" stroke="midnightblue" points="158.799,-454.864 150.176,-461.02 160.756,-461.585 158.799,-454.864"/>
</g>
<!-- Node6 -->
<g id="node6" class="node"><title>Node6</title>
<g id="a_node6"><a xlink:href="../../d0/dcc/rletorla_8c.html#ab7e36af3707843f77cc5b4e831c2fa6d" target="_top" xlink:title="malloc">
<polygon fill="white" stroke="black" points="458.5,-437.5 458.5,-456.5 505.5,-456.5 505.5,-437.5 458.5,-437.5"/>
<text text-anchor="middle" x="482" y="-444.5" font-family="Helvetica,sans-Serif" font-size="10.00">malloc</text>
</a>
</g>
</g>
<!-- Node5&#45;&gt;Node6 -->
<g id="edge6" class="edge"><title>Node5&#45;&gt;Node6</title>
<path fill="none" stroke="midnightblue" d="M267.055,-430.543C314.474,-434.19 401.271,-440.867 448.423,-444.494"/>
<polygon fill="midnightblue" stroke="midnightblue" points="448.168,-447.985 458.407,-445.262 448.705,-441.005 448.168,-447.985"/>
</g>
<!-- Node5&#45;&gt;Node7 -->
<g id="edge7" class="edge"><title>Node5&#45;&gt;Node7</title>
<path fill="none" stroke="midnightblue" d="M266.047,-437.589C282.141,-442.404 301.841,-448.299 319.117,-453.468"/>
<polygon fill="midnightblue" stroke="midnightblue" points="318.379,-456.901 328.963,-456.414 320.386,-450.194 318.379,-456.901"/>
</g>
<!-- Node7&#45;&gt;Node4 -->
<g id="edge8" class="edge"><title>Node7&#45;&gt;Node4</title>
<path fill="none" stroke="midnightblue" d="M395.067,-473.497C401.644,-476.24 408.058,-479.961 413,-485 460.353,-533.284 474.957,-616.779 479.276,-654.933"/>
<polygon fill="midnightblue" stroke="midnightblue" points="475.829,-655.629 480.312,-665.229 482.794,-654.929 475.829,-655.629"/>
</g>
<!-- Node7&#45;&gt;Node6 -->
<g id="edge9" class="edge"><title>Node7&#45;&gt;Node6</title>
<path fill="none" stroke="midnightblue" d="M395.244,-460.808C411.589,-458.176 431.41,-454.985 447.877,-452.333"/>
<polygon fill="midnightblue" stroke="midnightblue" points="448.827,-455.726 458.144,-450.68 447.714,-448.815 448.827,-455.726"/>
</g>
<!-- Node9 -->
<g id="node9" class="node"><title>Node9</title>
<g id="a_node9"><a xlink:href="../../d4/db0/scanargs_8c.html#a862219039664df6eb3cfced58addf830" target="_top" xlink:title="_do_scanargs">
<polygon fill="white" stroke="black" points="191,-190.5 191,-209.5 275,-209.5 275,-190.5 191,-190.5"/>
<text text-anchor="middle" x="233" y="-197.5" font-family="Helvetica,sans-Serif" font-size="10.00">_do_scanargs</text>
</a>
</g>
</g>
<!-- Node8&#45;&gt;Node9 -->
<g id="edge11" class="edge"><title>Node8&#45;&gt;Node9</title>
<path fill="none" stroke="midnightblue" d="M145.272,-228.411C159.697,-223.686 177.293,-217.921 192.857,-212.823"/>
<polygon fill="midnightblue" stroke="midnightblue" points="194.324,-216.025 202.738,-209.586 192.145,-209.373 194.324,-216.025"/>
</g>
<!-- Node10&#45;&gt;Node4 -->
<g id="edge15" class="edge"><title>Node10&#45;&gt;Node4</title>
<path fill="none" stroke="midnightblue" d="M389.885,-798.466C397.906,-794.774 406.329,-789.973 413,-784 441.659,-758.338 462.568,-717.778 473.16,-694.042"/>
<polygon fill="midnightblue" stroke="midnightblue" points="476.437,-695.282 477.177,-684.713 470.007,-692.514 476.437,-695.282"/>
</g>
<!-- Node10&#45;&gt;Node6 -->
<g id="edge14" class="edge"><title>Node10&#45;&gt;Node6</title>
<path fill="none" stroke="midnightblue" d="M374.366,-798.278C385.884,-787.788 403.341,-770.012 413,-751 463.224,-652.143 476.617,-516.638 479.959,-466.598"/>
<polygon fill="midnightblue" stroke="midnightblue" points="483.459,-466.711 480.57,-456.518 476.472,-466.288 483.459,-466.711"/>
</g>
<!-- Node11 -->
<g id="node11" class="node"><title>Node11</title>
<g id="a_node11"><a xlink:href="../../de/d4e/rle__open__f_8c.html#a84fda810ae9b9bde82a6391d0b264ead" target="_top" xlink:title="my_popen">
<polygon fill="white" stroke="black" points="449,-798.5 449,-817.5 515,-817.5 515,-798.5 449,-798.5"/>
<text text-anchor="middle" x="482" y="-805.5" font-family="Helvetica,sans-Serif" font-size="10.00">my_popen</text>
</a>
</g>
</g>
<!-- Node10&#45;&gt;Node11 -->
<g id="edge13" class="edge"><title>Node10&#45;&gt;Node11</title>
<path fill="none" stroke="midnightblue" d="M413.043,-808C421.523,-808 430.255,-808 438.518,-808"/>
<polygon fill="midnightblue" stroke="midnightblue" points="438.678,-811.5 448.678,-808 438.678,-804.5 438.678,-811.5"/>
</g>
<!-- Node13&#45;&gt;Node3 -->
<g id="edge19" class="edge"><title>Node13&#45;&gt;Node3</title>
<path fill="none" stroke="midnightblue" d="M266.047,-570.411C282.141,-565.596 301.841,-559.701 319.117,-554.532"/>
<polygon fill="midnightblue" stroke="midnightblue" points="320.386,-557.806 328.963,-551.586 318.379,-551.099 320.386,-557.806"/>
</g>
<!-- Node13&#45;&gt;Node4 -->
<g id="edge22" class="edge"><title>Node13&#45;&gt;Node4</title>
<path fill="none" stroke="midnightblue" d="M258.086,-589.657C263.815,-592.358 269.778,-595.519 275,-599 293.06,-611.039 291.899,-621.692 311,-632 357.416,-657.048 418.868,-667.887 453.745,-672.277"/>
<polygon fill="midnightblue" stroke="midnightblue" points="453.744,-675.801 464.082,-673.486 454.557,-668.848 453.744,-675.801"/>
</g>
<!-- Node13&#45;&gt;Node6 -->
<g id="edge21" class="edge"><title>Node13&#45;&gt;Node6</title>
<path fill="none" stroke="midnightblue" d="M253.623,-589.577C288.707,-605.186 363.174,-631.295 413,-599 458.771,-569.334 474.011,-500.834 478.861,-466.855"/>
<polygon fill="midnightblue" stroke="midnightblue" points="482.355,-467.121 480.137,-456.761 475.411,-466.243 482.355,-467.121"/>
</g>
<!-- Node13&#45;&gt;Node7 -->
<g id="edge20" class="edge"><title>Node13&#45;&gt;Node7</title>
<path fill="none" stroke="midnightblue" d="M239.49,-570.231C250.618,-551.252 277.633,-509.145 311,-485 313.671,-483.067 316.562,-481.305 319.562,-479.704"/>
<polygon fill="midnightblue" stroke="midnightblue" points="321.214,-482.795 328.773,-475.371 318.234,-476.461 321.214,-482.795"/>
</g>
<!-- Node14 -->
<g id="node14" class="node"><title>Node14</title>
<g id="a_node14"><a xlink:href="../../db/d53/rle__getrow_8c.html#a0ea68aa2ebeef9d4cade7282553b03d6" target="_top" xlink:title="vax_gshort">
<polygon fill="white" stroke="black" points="327.5,-570.5 327.5,-589.5 396.5,-589.5 396.5,-570.5 327.5,-570.5"/>
<text text-anchor="middle" x="362" y="-577.5" font-family="Helvetica,sans-Serif" font-size="10.00">vax_gshort</text>
</a>
</g>
</g>
<!-- Node13&#45;&gt;Node14 -->
<g id="edge23" class="edge"><title>Node13&#45;&gt;Node14</title>
<path fill="none" stroke="midnightblue" d="M273.835,-580C287.516,-580 302.906,-580 316.905,-580"/>
<polygon fill="midnightblue" stroke="midnightblue" points="317.287,-583.5 327.287,-580 317.287,-576.5 317.287,-583.5"/>
</g>
<!-- Node15&#45;&gt;Node6 -->
<g id="edge28" class="edge"><title>Node15&#45;&gt;Node6</title>
<path fill="none" stroke="midnightblue" d="M149.74,-347.772C222.74,-338.922 390.592,-320.275 413,-333 448.754,-353.304 467.7,-400.68 475.901,-427.53"/>
<polygon fill="midnightblue" stroke="midnightblue" points="472.588,-428.677 478.694,-437.335 479.32,-426.759 472.588,-428.677"/>
</g>
<!-- Node15&#45;&gt;Node16 -->
<g id="edge26" class="edge"><title>Node15&#45;&gt;Node16</title>
<path fill="none" stroke="midnightblue" d="M145.272,-342.411C159.697,-337.686 177.293,-331.921 192.857,-326.823"/>
<polygon fill="midnightblue" stroke="midnightblue" points="194.324,-330.025 202.738,-323.586 192.145,-323.373 194.324,-330.025"/>
</g>
<!-- Node15&#45;&gt;Node18 -->
<g id="edge29" class="edge"><title>Node15&#45;&gt;Node18</title>
<path fill="none" stroke="midnightblue" d="M145.272,-361.589C159.697,-366.314 177.293,-372.079 192.857,-377.177"/>
<polygon fill="midnightblue" stroke="midnightblue" points="192.145,-380.627 202.738,-380.414 194.324,-373.975 192.145,-380.627"/>
</g>
<!-- Node17 -->
<g id="node17" class="node"><title>Node17</title>
<g id="a_node17"><a xlink:href="../../db/db2/rle__getcom_8c.html#a7502c8b599724ce86fee5df1311a2337" target="_top" xlink:title="match">
<polygon fill="white" stroke="black" points="339.5,-266.5 339.5,-285.5 384.5,-285.5 384.5,-266.5 339.5,-266.5"/>
<text text-anchor="middle" x="362" y="-273.5" font-family="Helvetica,sans-Serif" font-size="10.00">match</text>
</a>
</g>
</g>
<!-- Node16&#45;&gt;Node17 -->
<g id="edge27" class="edge"><title>Node16&#45;&gt;Node17</title>
<path fill="none" stroke="midnightblue" d="M266.047,-304.411C285.481,-298.596 310.173,-291.208 329.506,-285.424"/>
<polygon fill="midnightblue" stroke="midnightblue" points="330.771,-288.698 339.348,-282.478 328.765,-281.992 330.771,-288.698"/>
</g>
<!-- Node18&#45;&gt;Node6 -->
<g id="edge30" class="edge"><title>Node18&#45;&gt;Node6</title>
<path fill="none" stroke="midnightblue" d="M267.048,-397.125C303.013,-404.939 362.182,-417.972 413,-430 424.605,-432.747 437.29,-435.882 448.527,-438.705"/>
<polygon fill="midnightblue" stroke="midnightblue" points="447.815,-442.135 458.368,-441.191 449.53,-435.348 447.815,-442.135"/>
</g>
<!-- Node19 -->
<g id="node19" class="node"><title>Node19</title>
<g id="a_node19"><a xlink:href="../../df/da5/rle__putcom_8c.html#a7502c8b599724ce86fee5df1311a2337" target="_top" xlink:title="match">
<polygon fill="white" stroke="black" points="339.5,-342.5 339.5,-361.5 384.5,-361.5 384.5,-342.5 339.5,-342.5"/>
<text text-anchor="middle" x="362" y="-349.5" font-family="Helvetica,sans-Serif" font-size="10.00">match</text>
</a>
</g>
</g>
<!-- Node18&#45;&gt;Node19 -->
<g id="edge31" class="edge"><title>Node18&#45;&gt;Node19</title>
<path fill="none" stroke="midnightblue" d="M266.047,-380.411C285.481,-374.596 310.173,-367.208 329.506,-361.424"/>
<polygon fill="midnightblue" stroke="midnightblue" points="330.771,-364.698 339.348,-358.478 328.765,-357.992 330.771,-364.698"/>
</g>
<!-- Node21 -->
<g id="node21" class="node"><title>Node21</title>
<g id="a_node21"><a xlink:href="../../d9/d2a/rle__putrow_8c.html#a46d9789104d5d1f09253a808fdad5346" target="_top" xlink:title="rle_put_init">
<polygon fill="white" stroke="black" points="199,-152.5 199,-171.5 267,-171.5 267,-152.5 199,-152.5"/>
<text text-anchor="middle" x="233" y="-159.5" font-family="Helvetica,sans-Serif" font-size="10.00">rle_put_init</text>
</a>
</g>
</g>
<!-- Node20&#45;&gt;Node21 -->
<g id="edge35" class="edge"><title>Node20&#45;&gt;Node21</title>
<path fill="none" stroke="midnightblue" d="M155.272,-162C166.031,-162 177.753,-162 188.722,-162"/>
<polygon fill="midnightblue" stroke="midnightblue" points="188.953,-165.5 198.953,-162 188.953,-158.5 188.953,-165.5"/>
</g>
<!-- Node22&#45;&gt;Node4 -->
<g id="edge38" class="edge"><title>Node22&#45;&gt;Node4</title>
<path fill="none" stroke="midnightblue" d="M398.667,-513.509C403.886,-515.997 408.881,-519.111 413,-523 452.113,-559.925 470.292,-623.469 477.305,-655.433"/>
<polygon fill="midnightblue" stroke="midnightblue" points="473.897,-656.235 479.336,-665.326 480.754,-654.827 473.897,-656.235"/>
</g>
<!-- Node22&#45;&gt;Node6 -->
<g id="edge37" class="edge"><title>Node22&#45;&gt;Node6</title>
<path fill="none" stroke="midnightblue" d="M390.288,-494.457C397.745,-491.627 405.762,-488.375 413,-485 427.893,-478.055 443.967,-469.142 456.747,-461.694"/>
<polygon fill="midnightblue" stroke="midnightblue" points="458.576,-464.678 465.406,-456.578 455.016,-458.651 458.576,-464.678"/>
</g>
<!-- Node23&#45;&gt;Node6 -->
<g id="edge40" class="edge"><title>Node23&#45;&gt;Node6</title>
<path fill="none" stroke="midnightblue" d="M137.117,-266.455C189.392,-244.411 326.822,-196.312 413,-257 469.174,-296.559 479.188,-387.003 480.8,-427.161"/>
<polygon fill="midnightblue" stroke="midnightblue" points="477.304,-427.373 481.065,-437.278 484.302,-427.189 477.304,-427.373"/>
</g>
<!-- Node24 -->
<g id="node24" class="node"><title>Node24</title>
<g id="a_node24"><a xlink:href="../../d8/d7c/rle__getskip_8c.html#af6b1e1dc0867e9340f90668591c7c5b3" target="_top" xlink:title="rle_getskip">
<polygon fill="white" stroke="black" points="199,-266.5 199,-285.5 267,-285.5 267,-266.5 199,-266.5"/>
<text text-anchor="middle" x="233" y="-273.5" font-family="Helvetica,sans-Serif" font-size="10.00">rle_getskip</text>
</a>
</g>
</g>
<!-- Node23&#45;&gt;Node24 -->
<g id="edge41" class="edge"><title>Node23&#45;&gt;Node24</title>
<path fill="none" stroke="midnightblue" d="M148.621,-276C160.994,-276 175.287,-276 188.505,-276"/>
<polygon fill="midnightblue" stroke="midnightblue" points="188.819,-279.5 198.819,-276 188.818,-272.5 188.819,-279.5"/>
</g>
<!-- Node27&#45;&gt;Node4 -->
<g id="edge45" class="edge"><title>Node27&#45;&gt;Node4</title>
<path fill="none" stroke="midnightblue" d="M256.917,-741.556C292.133,-754.711 360.934,-774.279 413,-751 439.289,-739.246 459.622,-711.749 470.955,-693.259"/>
<polygon fill="midnightblue" stroke="midnightblue" points="474.025,-694.942 476.045,-684.541 467.98,-691.412 474.025,-694.942"/>
</g>
<!-- Node28&#45;&gt;Node4 -->
<g id="edge47" class="edge"><title>Node28&#45;&gt;Node4</title>
<path fill="none" stroke="midnightblue" d="M382.96,-722.443C392.118,-718.052 403.114,-712.771 413,-708 426.938,-701.273 442.466,-693.74 455.16,-687.572"/>
<polygon fill="midnightblue" stroke="midnightblue" points="456.779,-690.677 464.243,-683.157 453.719,-684.381 456.779,-690.677"/>
</g>
<!-- Node29&#45;&gt;Node4 -->
<g id="edge49" class="edge"><title>Node29&#45;&gt;Node4</title>
<path fill="none" stroke="midnightblue" d="M243.942,-627.51C257.716,-639.98 283.978,-661.294 311,-670 359.437,-685.606 419.706,-682.465 453.923,-678.746"/>
<polygon fill="midnightblue" stroke="midnightblue" points="454.551,-682.196 464.068,-677.542 453.725,-675.245 454.551,-682.196"/>
</g>
</g>
</svg>
        <g id="navigator" transform="translate(0 0)" fill="#404254">
                <rect fill="#f2f5e9" fill-opacity="0.5" stroke="#606060" stroke-width=".5" x="0" y="0" width="60" height="60"/>
                <use id="zoomplus" xlink:href="#zoomPlus" x="17" y="9" onmousedown="handleZoom(evt,'in')"/>
                <use id="zoomminus" xlink:href="#zoomMin" x="42" y="9" onmousedown="handleZoom(evt,'out')"/>
                <use id="reset" xlink:href="#resetDef" x="30" y="36" onmousedown="handleReset()"/>
                <g id="arrowUp" xlink:href="#dirArrow" transform="translate(30 24)" onmousedown="handlePan(0,-1)">
                  <use xlink:href="#rim" fill="#404040">
                        <set attributeName="fill" to="#808080" begin="arrowUp.mouseover" end="arrowUp.mouseout"/>
                  </use>
                  <path fill="none" stroke="white" stroke-width="1.5" d="M0,-3.0v7 M-2.5,-0.5L0,-3.0L2.5,-0.5"/>
                </g>
                <g id="arrowRight" xlink:href="#dirArrow" transform="rotate(90) translate(36 -43)" onmousedown="handlePan(1,0)">
                  <use xlink:href="#rim" fill="#404040">
                        <set attributeName="fill" to="#808080" begin="arrowRight.mouseover" end="arrowRight.mouseout"/>
                  </use>
                  <path fill="none" stroke="white" stroke-width="1.5" d="M0,-3.0v7 M-2.5,-0.5L0,-3.0L2.5,-0.5"/>
                </g>
                <g id="arrowDown" xlink:href="#dirArrow" transform="rotate(180) translate(-30 -48)" onmousedown="handlePan(0,1)">
                  <use xlink:href="#rim" fill="#404040">
                        <set attributeName="fill" to="#808080" begin="arrowDown.mouseover" end="arrowDown.mouseout"/>
                  </use>
                  <path fill="none" stroke="white" stroke-width="1.5" d="M0,-3.0v7 M-2.5,-0.5L0,-3.0L2.5,-0.5"/>
                </g>
                <g id="arrowLeft" xlink:href="#dirArrow" transform="rotate(270) translate(-36 17)" onmousedown="handlePan(-1,0)">
                  <use xlink:href="#rim" fill="#404040">
                        <set attributeName="fill" to="#808080" begin="arrowLeft.mouseover" end="arrowLeft.mouseout"/>
                  </use>
                  <path fill="none" stroke="white" stroke-width="1.5" d="M0,-3.0v7 M-2.5,-0.5L0,-3.0L2.5,-0.5"/>
                </g>
        </g>
        <svg viewBox="0 0 15 15" width="100%" height="30px" preserveAspectRatio="xMaxYMin meet">
         <g id="arrow_out" transform="scale(0.3 0.3)">
          <a xlink:href="rlecat_8c_a70db8bd1d499619f7ff9c1ca2ff3c8df_cgraph_org.svg" target="_base">
           <rect id="button" ry="5" rx="5" y="6" x="6" height="38" width="38"
                fill="#f2f5e9" fill-opacity="0.5" stroke="#606060" stroke-width="1.0"/>
           <path id="arrow"
             d="M 11.500037,31.436501 C 11.940474,20.09759 22.043105,11.32322 32.158766,21.979434 L 37.068811,17.246167 C 37.068811,17.246167 37.088388,32 37.088388,32 L 22.160133,31.978069 C 22.160133,31.978069 26.997745,27.140456 26.997745,27.140456 C 18.528582,18.264221 13.291696,25.230495 11.500037,31.436501 z"
             style="fill:#404040;"/>
          </a>
         </g>
        </svg>
</svg>
