<?xml version="1.0" encoding="UTF-8" standalone="no"?>
<!DOCTYPE svg PUBLIC "-//W3C//DTD SVG 1.1//EN"
 "http://www.w3.org/Graphics/SVG/1.1/DTD/svg11.dtd">
<!-- Generated by graphviz version 2.38.0 (20140413.2041)
 -->
<!-- Title: getopt.c Pages: 1 -->
<svg width="144pt" height="84pt"
 viewBox="0.00 0.00 144.00 84.00" xmlns="http://www.w3.org/2000/svg" xmlns:xlink="http://www.w3.org/1999/xlink">
<g id="graph0" class="graph" transform="scale(1 1) rotate(0) translate(4 80)">
<title>getopt.c</title>
<polygon fill="white" stroke="none" points="-4,4 -4,-80 140,-80 140,4 -4,4"/>
<!-- Node1 -->
<g id="node1" class="node"><title>Node1</title>
<polygon fill="#bfbfbf" stroke="black" points="46.5,-56.5 46.5,-75.5 100.5,-75.5 100.5,-56.5 46.5,-56.5"/>
<text text-anchor="middle" x="73.5" y="-63.5" font-family="Helvetica,sans-Serif" font-size="10.00">getopt.c</text>
</g>
<!-- Node2 -->
<g id="node2" class="node"><title>Node2</title>
<polygon fill="white" stroke="#bfbfbf" points="0,-0.5 0,-19.5 71,-19.5 71,-0.5 0,-0.5"/>
<text text-anchor="middle" x="35.5" y="-7.5" font-family="Helvetica,sans-Serif" font-size="10.00">rle_config.h</text>
</g>
<!-- Node1&#45;&gt;Node2 -->
<g id="edge1" class="edge"><title>Node1&#45;&gt;Node2</title>
<path fill="none" stroke="midnightblue" d="M67.2251,-56.083C61.8575,-48.4554 53.9824,-37.2645 47.4213,-27.9408"/>
<polygon fill="midnightblue" stroke="midnightblue" points="50.2755,-25.9149 41.6582,-19.7511 44.5508,-29.9434 50.2755,-25.9149"/>
</g>
<!-- Node3 -->
<g id="node3" class="node"><title>Node3</title>
<polygon fill="white" stroke="#bfbfbf" points="89,-0.5 89,-19.5 136,-19.5 136,-0.5 89,-0.5"/>
<text text-anchor="middle" x="112.5" y="-7.5" font-family="Helvetica,sans-Serif" font-size="10.00">stdio.h</text>
</g>
<!-- Node1&#45;&gt;Node3 -->
<g id="edge2" class="edge"><title>Node1&#45;&gt;Node3</title>
<path fill="none" stroke="midnightblue" d="M79.9401,-56.083C85.4489,-48.4554 93.5312,-37.2645 100.265,-27.9408"/>
<polygon fill="midnightblue" stroke="midnightblue" points="103.162,-29.9071 106.18,-19.7511 97.4874,-25.8087 103.162,-29.9071"/>
</g>
</g>
</svg>
