<?xml version="1.0" encoding="UTF-8" standalone="no"?>
<!DOCTYPE svg PUBLIC "-//W3C//DTD SVG 1.1//EN"
 "http://www.w3.org/Graphics/SVG/1.1/DTD/svg11.dtd">
<!-- Generated by graphviz version 2.38.0 (20140413.2041)
 -->
<!-- Title: float_to_exp.c Pages: 1 -->
<svg width="177pt" height="84pt"
 viewBox="0.00 0.00 176.50 84.00" xmlns="http://www.w3.org/2000/svg" xmlns:xlink="http://www.w3.org/1999/xlink">
<g id="graph0" class="graph" transform="scale(1 1) rotate(0) translate(4 80)">
<title>float_to_exp.c</title>
<polygon fill="white" stroke="none" points="-4,4 -4,-80 172.5,-80 172.5,4 -4,4"/>
<!-- Node1 -->
<g id="node1" class="node"><title>Node1</title>
<polygon fill="#bfbfbf" stroke="black" points="42,-56.5 42,-75.5 125,-75.5 125,-56.5 42,-56.5"/>
<text text-anchor="middle" x="83.5" y="-63.5" font-family="Helvetica,sans-Serif" font-size="10.00">float_to_exp.c</text>
</g>
<!-- Node2 -->
<g id="node2" class="node"><title>Node2</title>
<polygon fill="white" stroke="#bfbfbf" points="0,-0.5 0,-19.5 47,-19.5 47,-0.5 0,-0.5"/>
<text text-anchor="middle" x="23.5" y="-7.5" font-family="Helvetica,sans-Serif" font-size="10.00">stdio.h</text>
</g>
<!-- Node1&#45;&gt;Node2 -->
<g id="edge1" class="edge"><title>Node1&#45;&gt;Node2</title>
<path fill="none" stroke="midnightblue" d="M73.86,-56.324C64.9904,-48.3414 51.6253,-36.3128 40.8921,-26.6529"/>
<polygon fill="midnightblue" stroke="midnightblue" points="43.0898,-23.922 33.3154,-19.8339 38.407,-29.1251 43.0898,-23.922"/>
</g>
<!-- Node3 -->
<g id="node3" class="node"><title>Node3</title>
<polygon fill="white" stroke="#bfbfbf" points="65,-0.5 65,-19.5 102,-19.5 102,-0.5 65,-0.5"/>
<text text-anchor="middle" x="83.5" y="-7.5" font-family="Helvetica,sans-Serif" font-size="10.00">rle.h</text>
</g>
<!-- Node1&#45;&gt;Node3 -->
<g id="edge2" class="edge"><title>Node1&#45;&gt;Node3</title>
<path fill="none" stroke="midnightblue" d="M83.5,-56.083C83.5,-49.0059 83.5,-38.8611 83.5,-29.9865"/>
<polygon fill="midnightblue" stroke="midnightblue" points="87.0001,-29.751 83.5,-19.7511 80.0001,-29.7511 87.0001,-29.751"/>
</g>
<!-- Node4 -->
<g id="node4" class="node"><title>Node4</title>
<polygon fill="white" stroke="#bfbfbf" points="120.5,-0.5 120.5,-19.5 168.5,-19.5 168.5,-0.5 120.5,-0.5"/>
<text text-anchor="middle" x="144.5" y="-7.5" font-family="Helvetica,sans-Serif" font-size="10.00">math.h</text>
</g>
<!-- Node1&#45;&gt;Node4 -->
<g id="edge3" class="edge"><title>Node1&#45;&gt;Node4</title>
<path fill="none" stroke="midnightblue" d="M93.3007,-56.324C102.318,-48.3414 115.906,-36.3128 126.818,-26.6529"/>
<polygon fill="midnightblue" stroke="midnightblue" points="129.353,-29.083 134.521,-19.8339 124.713,-23.8416 129.353,-29.083"/>
</g>
</g>
</svg>
