<?xml version="1.0" encoding="UTF-8" standalone="no"?>
<!DOCTYPE svg PUBLIC "-//W3C//DTD SVG 1.1//EN"
 "http://www.w3.org/Graphics/SVG/1.1/DTD/svg11.dtd">
<!-- Generated by graphviz version 2.38.0 (20140413.2041)
 -->
<!-- Title: include/rle_code.h Pages: 1 -->
<!--zoomable 140 -->
<svg id="main" version="1.1" xmlns="http://www.w3.org/2000/svg" xmlns:xlink="http://www.w3.org/1999/xlink" xml:space="preserve" onload="init(evt)">
<style type="text/css"><![CDATA[
.edge:hover path { stroke: red; }
.edge:hover polygon { stroke: red; fill: red; }
]]></style>
<script type="text/javascript"><![CDATA[
var edges = document.getElementsByTagName('g');
if (edges && edges.length) {
  for (var i=0;i<edges.length;i++) {
    if (edges[i].id.substr(0,4)=='edge') {
      edges[i].setAttribute('class','edge');
    }
  }
}
]]></script>
        <defs>
                <circle id="rim" cx="0" cy="0" r="7"/>
                <circle id="rim2" cx="0" cy="0" r="3.5"/>
                <g id="zoomPlus">
                        <use xlink:href="#rim" fill="#404040">
                                <set attributeName="fill" to="#808080" begin="zoomplus.mouseover" end="zoomplus.mouseout"/>
                        </use>
                        <path d="M-4,0h8M0,-4v8" fill="none" stroke="white" stroke-width="1.5" pointer-events="none"/>
                </g>
                <g id="zoomMin">
                        <use xlink:href="#rim" fill="#404040">
                                <set attributeName="fill" to="#808080" begin="zoomminus.mouseover" end="zoomminus.mouseout"/>
                        </use>
                        <path d="M-4,0h8" fill="none" stroke="white" stroke-width="1.5" pointer-events="none"/>
                </g>
                <g id="dirArrow">
                        <path fill="none" stroke="white" stroke-width="1.5" d="M0,-3.0v7 M-2.5,-0.5L0,-3.0L2.5,-0.5"/>
                </g>
               <g id="resetDef">
                       <use xlink:href="#rim2" fill="#404040">
                               <set attributeName="fill" to="#808080" begin="reset.mouseover" end="reset.mouseout"/>
                       </use>
               </g>
        </defs>

<script type="text/javascript">
var viewWidth = 2083;
var viewHeight = 140;
var sectionId = 'dynsection-0';
</script>
<script xlink:href="../../svgpan.js"/>
<svg id="graph" class="graph">
<g id="viewport">
<title>include/rle_code.h</title>
<polygon fill="white" stroke="none" points="-4,4 -4,-136 2078.5,-136 2078.5,4 -4,4"/>
<!-- Node1 -->
<g id="node1" class="node"><title>Node1</title>
<polygon fill="#bfbfbf" stroke="black" points="1004.5,-112.5 1004.5,-131.5 1106.5,-131.5 1106.5,-112.5 1004.5,-112.5"/>
<text text-anchor="middle" x="1055.5" y="-119.5" font-family="Helvetica,sans-Serif" font-size="10.00">include/rle_code.h</text>
</g>
<!-- Node2 -->
<g id="node2" class="node"><title>Node2</title>
<g id="a_node2"><a xlink:href="../../d0/d2c/getgmr_8c.html" target="_top" xlink:title="get/gmr27/getgmr.c">
<polygon fill="white" stroke="black" points="647.5,-56.5 647.5,-75.5 755.5,-75.5 755.5,-56.5 647.5,-56.5"/>
<text text-anchor="middle" x="701.5" y="-63.5" font-family="Helvetica,sans-Serif" font-size="10.00">get/gmr27/getgmr.c</text>
</a>
</g>
</g>
<!-- Node1&#45;&gt;Node2 -->
<g id="edge1" class="edge"><title>Node1&#45;&gt;Node2</title>
<path fill="none" stroke="midnightblue" d="M994.376,-111.676C927.151,-101.421 820.143,-85.0981 755.777,-75.2795"/>
<polygon fill="midnightblue" stroke="midnightblue" points="993.99,-115.158 1004.4,-113.206 995.046,-108.238 993.99,-115.158"/>
</g>
<!-- Node3 -->
<g id="node3" class="node"><title>Node3</title>
<g id="a_node3"><a xlink:href="../../dc/dd9/XtndRunget_8c.html" target="_top" xlink:title="get/gmr27/XtndRunget.c">
<polygon fill="white" stroke="black" points="774,-56.5 774,-75.5 905,-75.5 905,-56.5 774,-56.5"/>
<text text-anchor="middle" x="839.5" y="-63.5" font-family="Helvetica,sans-Serif" font-size="10.00">get/gmr27/XtndRunget.c</text>
</a>
</g>
</g>
<!-- Node1&#45;&gt;Node3 -->
<g id="edge2" class="edge"><title>Node1&#45;&gt;Node3</title>
<path fill="none" stroke="midnightblue" d="M1011.34,-109.959C970.539,-99.7598 910.787,-84.8217 873.566,-75.5164"/>
<polygon fill="midnightblue" stroke="midnightblue" points="1010.72,-113.414 1021.27,-112.444 1012.42,-106.623 1010.72,-113.414"/>
</g>
<!-- Node4 -->
<g id="node4" class="node"><title>Node4</title>
<g id="a_node4"><a xlink:href="../../d9/dd6/rle__cp_8c.html" target="_top" xlink:title="lib/rle_cp.c">
<polygon fill="white" stroke="black" points="923.5,-56.5 923.5,-75.5 989.5,-75.5 989.5,-56.5 923.5,-56.5"/>
<text text-anchor="middle" x="956.5" y="-63.5" font-family="Helvetica,sans-Serif" font-size="10.00">lib/rle_cp.c</text>
</a>
</g>
</g>
<!-- Node1&#45;&gt;Node4 -->
<g id="edge3" class="edge"><title>Node1&#45;&gt;Node4</title>
<path fill="none" stroke="midnightblue" d="M1030.66,-107.453C1012.39,-97.4835 988.084,-84.2279 972.367,-75.6545"/>
<polygon fill="midnightblue" stroke="midnightblue" points="1029.14,-110.608 1039.59,-112.324 1032.49,-104.463 1029.14,-110.608"/>
</g>
<!-- Node5 -->
<g id="node5" class="node"><title>Node5</title>
<g id="a_node5"><a xlink:href="../../d3/d5d/rle__raw_8h.html" target="_top" xlink:title="include/rle_raw.h">
<polygon fill="white" stroke="black" points="1007.5,-56.5 1007.5,-75.5 1103.5,-75.5 1103.5,-56.5 1007.5,-56.5"/>
<text text-anchor="middle" x="1055.5" y="-63.5" font-family="Helvetica,sans-Serif" font-size="10.00">include/rle_raw.h</text>
</a>
</g>
</g>
<!-- Node1&#45;&gt;Node5 -->
<g id="edge4" class="edge"><title>Node1&#45;&gt;Node5</title>
<path fill="none" stroke="midnightblue" d="M1055.5,-101.805C1055.5,-92.9102 1055.5,-82.7798 1055.5,-75.7511"/>
<polygon fill="midnightblue" stroke="midnightblue" points="1052,-102.083 1055.5,-112.083 1059,-102.083 1052,-102.083"/>
</g>
<!-- Node26 -->
<g id="node26" class="node"><title>Node26</title>
<g id="a_node26"><a xlink:href="../../db/d53/rle__getrow_8c.html" target="_top" xlink:title="lib/rle_getrow.c">
<polygon fill="white" stroke="black" points="1122,-56.5 1122,-75.5 1209,-75.5 1209,-56.5 1122,-56.5"/>
<text text-anchor="middle" x="1165.5" y="-63.5" font-family="Helvetica,sans-Serif" font-size="10.00">lib/rle_getrow.c</text>
</a>
</g>
</g>
<!-- Node1&#45;&gt;Node26 -->
<g id="edge25" class="edge"><title>Node1&#45;&gt;Node26</title>
<path fill="none" stroke="midnightblue" d="M1082.26,-107.862C1102.66,-97.8492 1130.17,-84.3458 1147.87,-75.6545"/>
<polygon fill="midnightblue" stroke="midnightblue" points="1080.61,-104.775 1073.17,-112.324 1083.69,-111.059 1080.61,-104.775"/>
</g>
<!-- Node27 -->
<g id="node27" class="node"><title>Node27</title>
<g id="a_node27"><a xlink:href="../../d8/d7c/rle__getskip_8c.html" target="_top" xlink:title="lib/rle_getskip.c">
<polygon fill="white" stroke="black" points="1227,-56.5 1227,-75.5 1316,-75.5 1316,-56.5 1227,-56.5"/>
<text text-anchor="middle" x="1271.5" y="-63.5" font-family="Helvetica,sans-Serif" font-size="10.00">lib/rle_getskip.c</text>
</a>
</g>
</g>
<!-- Node1&#45;&gt;Node27 -->
<g id="edge26" class="edge"><title>Node1&#45;&gt;Node27</title>
<path fill="none" stroke="midnightblue" d="M1099.66,-109.959C1140.46,-99.7598 1200.21,-84.8217 1237.43,-75.5164"/>
<polygon fill="midnightblue" stroke="midnightblue" points="1098.58,-106.623 1089.73,-112.444 1100.28,-113.414 1098.58,-106.623"/>
</g>
<!-- Node28 -->
<g id="node28" class="node"><title>Node28</title>
<g id="a_node28"><a xlink:href="../../de/d10/Runput_8c.html" target="_top" xlink:title="lib/Runput.c">
<polygon fill="white" stroke="black" points="1334.5,-56.5 1334.5,-75.5 1404.5,-75.5 1404.5,-56.5 1334.5,-56.5"/>
<text text-anchor="middle" x="1369.5" y="-63.5" font-family="Helvetica,sans-Serif" font-size="10.00">lib/Runput.c</text>
</a>
</g>
</g>
<!-- Node1&#45;&gt;Node28 -->
<g id="edge27" class="edge"><title>Node1&#45;&gt;Node28</title>
<path fill="none" stroke="midnightblue" d="M1116.51,-111.486C1171.3,-102.785 1253.91,-89.2825 1325.5,-76 1328.41,-75.4595 1331.43,-74.8811 1334.46,-74.2881"/>
<polygon fill="midnightblue" stroke="midnightblue" points="1115.94,-108.033 1106.61,-113.054 1117.03,-114.946 1115.94,-108.033"/>
</g>
<!-- Node6 -->
<g id="node6" class="node"><title>Node6</title>
<g id="a_node6"><a xlink:href="../../df/dce/rle__getraw_8c.html" target="_top" xlink:title="lib/rle_getraw.c">
<polygon fill="white" stroke="black" points="0,-0.5 0,-19.5 87,-19.5 87,-0.5 0,-0.5"/>
<text text-anchor="middle" x="43.5" y="-7.5" font-family="Helvetica,sans-Serif" font-size="10.00">lib/rle_getraw.c</text>
</a>
</g>
</g>
<!-- Node5&#45;&gt;Node6 -->
<g id="edge5" class="edge"><title>Node5&#45;&gt;Node6</title>
<path fill="none" stroke="midnightblue" d="M997.248,-56.0054C597.485,-17.3878 492.226,-61.3239 96.5,-20 93.4367,-19.6801 90.2825,-19.2932 87.1117,-18.8617"/>
<polygon fill="midnightblue" stroke="midnightblue" points="997.056,-59.5031 1007.35,-56.9925 997.737,-52.5363 997.056,-59.5031"/>
</g>
<!-- Node7 -->
<g id="node7" class="node"><title>Node7</title>
<g id="a_node7"><a xlink:href="../../d6/d8c/rle__putraw_8c.html" target="_top" xlink:title="lib/rle_putraw.c">
<polygon fill="white" stroke="black" points="105.5,-0.5 105.5,-19.5 191.5,-19.5 191.5,-0.5 105.5,-0.5"/>
<text text-anchor="middle" x="148.5" y="-7.5" font-family="Helvetica,sans-Serif" font-size="10.00">lib/rle_putraw.c</text>
</a>
</g>
</g>
<!-- Node5&#45;&gt;Node7 -->
<g id="edge6" class="edge"><title>Node5&#45;&gt;Node7</title>
<path fill="none" stroke="midnightblue" d="M997.339,-56.0066C643.55,-20.9591 550.176,-57.9941 200.5,-20 197.585,-19.6833 194.587,-19.3052 191.571,-18.8859"/>
<polygon fill="midnightblue" stroke="midnightblue" points="997.048,-59.4948 1007.35,-57.0102 997.746,-52.5297 997.048,-59.4948"/>
</g>
<!-- Node8 -->
<g id="node8" class="node"><title>Node8</title>
<g id="a_node8"><a xlink:href="../../df/d6e/rle__raw__alc_8c.html" target="_top" xlink:title="lib/rle_raw_alc.c">
<polygon fill="white" stroke="black" points="209.5,-0.5 209.5,-19.5 301.5,-19.5 301.5,-0.5 209.5,-0.5"/>
<text text-anchor="middle" x="255.5" y="-7.5" font-family="Helvetica,sans-Serif" font-size="10.00">lib/rle_raw_alc.c</text>
</a>
</g>
</g>
<!-- Node5&#45;&gt;Node8 -->
<g id="edge7" class="edge"><title>Node5&#45;&gt;Node8</title>
<path fill="none" stroke="midnightblue" d="M997.326,-55.9939C692.248,-24.6884 611.667,-52.421 310.5,-20 307.614,-19.6893 304.649,-19.3279 301.663,-18.9318"/>
<polygon fill="midnightblue" stroke="midnightblue" points="997.036,-59.4825 1007.34,-57.0348 997.76,-52.52 997.036,-59.4825"/>
</g>
<!-- Node9 -->
<g id="node9" class="node"><title>Node9</title>
<g id="a_node9"><a xlink:href="../../d9/d87/rle__rawrow_8c.html" target="_top" xlink:title="lib/rle_rawrow.c">
<polygon fill="white" stroke="black" points="320,-0.5 320,-19.5 409,-19.5 409,-0.5 320,-0.5"/>
<text text-anchor="middle" x="364.5" y="-7.5" font-family="Helvetica,sans-Serif" font-size="10.00">lib/rle_rawrow.c</text>
</a>
</g>
</g>
<!-- Node5&#45;&gt;Node9 -->
<g id="edge8" class="edge"><title>Node5&#45;&gt;Node9</title>
<path fill="none" stroke="midnightblue" d="M997.305,-55.9771C739.598,-28.3411 671.244,-49.3215 417.5,-20 414.811,-19.6893 412.052,-19.3335 409.272,-18.9468"/>
<polygon fill="midnightblue" stroke="midnightblue" points="997.021,-59.4668 1007.34,-57.0675 997.778,-52.5077 997.021,-59.4668"/>
</g>
<!-- Node10 -->
<g id="node10" class="node"><title>Node10</title>
<g id="a_node10"><a xlink:href="../../d7/def/applymap_8c.html" target="_top" xlink:title="tools/applymap.c">
<polygon fill="white" stroke="black" points="427,-0.5 427,-19.5 522,-19.5 522,-0.5 427,-0.5"/>
<text text-anchor="middle" x="474.5" y="-7.5" font-family="Helvetica,sans-Serif" font-size="10.00">tools/applymap.c</text>
</a>
</g>
</g>
<!-- Node5&#45;&gt;Node10 -->
<g id="edge9" class="edge"><title>Node5&#45;&gt;Node10</title>
<path fill="none" stroke="midnightblue" d="M997.326,-55.955C789.59,-32.1054 734.425,-44.1883 530.5,-20 527.762,-19.6752 524.953,-19.3139 522.121,-18.9277"/>
<polygon fill="midnightblue" stroke="midnightblue" points="996.998,-59.4403 1007.34,-57.1182 997.806,-52.4871 996.998,-59.4403"/>
</g>
<!-- Node11 -->
<g id="node11" class="node"><title>Node11</title>
<g id="a_node11"><a xlink:href="../../d9/d55/mergechan_8c.html" target="_top" xlink:title="tools/mergechan.c">
<polygon fill="white" stroke="black" points="540,-0.5 540,-19.5 643,-19.5 643,-0.5 540,-0.5"/>
<text text-anchor="middle" x="591.5" y="-7.5" font-family="Helvetica,sans-Serif" font-size="10.00">tools/mergechan.c</text>
</a>
</g>
</g>
<!-- Node5&#45;&gt;Node11 -->
<g id="edge10" class="edge"><title>Node5&#45;&gt;Node11</title>
<path fill="none" stroke="midnightblue" d="M997.042,-55.8722C843.458,-36.07 802.604,-38.8734 652.5,-20 649.42,-19.6127 646.255,-19.1977 643.063,-18.7662"/>
<polygon fill="midnightblue" stroke="midnightblue" points="996.956,-59.3903 1007.32,-57.2097 997.859,-52.4488 996.956,-59.3903"/>
</g>
<!-- Node12 -->
<g id="node12" class="node"><title>Node12</title>
<g id="a_node12"><a xlink:href="../../d4/d28/rle__box_8c.html" target="_top" xlink:title="tools/rle_box.c">
<polygon fill="white" stroke="black" points="661.5,-0.5 661.5,-19.5 745.5,-19.5 745.5,-0.5 661.5,-0.5"/>
<text text-anchor="middle" x="703.5" y="-7.5" font-family="Helvetica,sans-Serif" font-size="10.00">tools/rle_box.c</text>
</a>
</g>
</g>
<!-- Node5&#45;&gt;Node12 -->
<g id="edge11" class="edge"><title>Node5&#45;&gt;Node12</title>
<path fill="none" stroke="midnightblue" d="M997.27,-55.8259C888.91,-39.3455 860.139,-36.8039 755.5,-20 752.334,-19.4916 749.061,-18.9539 745.771,-18.4046"/>
<polygon fill="midnightblue" stroke="midnightblue" points="996.889,-59.3082 1007.3,-57.3569 997.945,-52.3883 996.889,-59.3082"/>
</g>
<!-- Node13 -->
<g id="node13" class="node"><title>Node13</title>
<g id="a_node13"><a xlink:href="../../dc/d22/rleaddeof_8c.html" target="_top" xlink:title="tools/rleaddeof.c">
<polygon fill="white" stroke="black" points="764,-0.5 764,-19.5 859,-19.5 859,-0.5 764,-0.5"/>
<text text-anchor="middle" x="811.5" y="-7.5" font-family="Helvetica,sans-Serif" font-size="10.00">tools/rleaddeof.c</text>
</a>
</g>
</g>
<!-- Node5&#45;&gt;Node13 -->
<g id="edge12" class="edge"><title>Node5&#45;&gt;Node13</title>
<path fill="none" stroke="midnightblue" d="M1007.07,-54.2815C960.959,-44.0769 892.473,-28.9203 849.982,-19.5164"/>
<polygon fill="midnightblue" stroke="midnightblue" points="1006.32,-57.6999 1016.84,-56.4435 1007.83,-50.8653 1006.32,-57.6999"/>
</g>
<!-- Node14 -->
<g id="node14" class="node"><title>Node14</title>
<g id="a_node14"><a xlink:href="../../d6/d62/rlebg_8c.html" target="_top" xlink:title="tools/rlebg.c">
<polygon fill="white" stroke="black" points="877,-0.5 877,-19.5 950,-19.5 950,-0.5 877,-0.5"/>
<text text-anchor="middle" x="913.5" y="-7.5" font-family="Helvetica,sans-Serif" font-size="10.00">tools/rlebg.c</text>
</a>
</g>
</g>
<!-- Node5&#45;&gt;Node14 -->
<g id="edge13" class="edge"><title>Node5&#45;&gt;Node14</title>
<path fill="none" stroke="midnightblue" d="M1023.34,-52.772C996.672,-42.6287 959.431,-28.4669 935.895,-19.5164"/>
<polygon fill="midnightblue" stroke="midnightblue" points="1022.41,-56.1604 1033,-56.4435 1024.9,-49.6176 1022.41,-56.1604"/>
</g>
<!-- Node15 -->
<g id="node15" class="node"><title>Node15</title>
<g id="a_node15"><a xlink:href="../../de/dcd/rlebox_8c.html" target="_top" xlink:title="tools/rlebox.c">
<polygon fill="white" stroke="black" points="968.5,-0.5 968.5,-19.5 1046.5,-19.5 1046.5,-0.5 968.5,-0.5"/>
<text text-anchor="middle" x="1007.5" y="-7.5" font-family="Helvetica,sans-Serif" font-size="10.00">tools/rlebox.c</text>
</a>
</g>
</g>
<!-- Node5&#45;&gt;Node15 -->
<g id="edge14" class="edge"><title>Node5&#45;&gt;Node15</title>
<path fill="none" stroke="midnightblue" d="M1040.77,-48.4314C1032.36,-38.9673 1022.15,-27.4827 1015.28,-19.7511"/>
<polygon fill="midnightblue" stroke="midnightblue" points="1038.31,-50.9342 1047.57,-56.083 1043.55,-46.2836 1038.31,-50.9342"/>
</g>
<!-- Node16 -->
<g id="node16" class="node"><title>Node16</title>
<g id="a_node16"><a xlink:href="../../d6/d6b/rlecat_8c.html" target="_top" xlink:title="tools/rlecat.c">
<polygon fill="white" stroke="black" points="1064.5,-0.5 1064.5,-19.5 1140.5,-19.5 1140.5,-0.5 1064.5,-0.5"/>
<text text-anchor="middle" x="1102.5" y="-7.5" font-family="Helvetica,sans-Serif" font-size="10.00">tools/rlecat.c</text>
</a>
</g>
</g>
<!-- Node5&#45;&gt;Node16 -->
<g id="edge15" class="edge"><title>Node5&#45;&gt;Node16</title>
<path fill="none" stroke="midnightblue" d="M1069.92,-48.4314C1078.16,-38.9673 1088.15,-27.4827 1094.88,-19.7511"/>
<polygon fill="midnightblue" stroke="midnightblue" points="1067.19,-46.2421 1063.26,-56.083 1072.47,-50.8378 1067.19,-46.2421"/>
</g>
<!-- Node17 -->
<g id="node17" class="node"><title>Node17</title>
<g id="a_node17"><a xlink:href="../../d5/d2c/rlecomp_8c.html" target="_top" xlink:title="tools/rlecomp.c">
<polygon fill="white" stroke="black" points="1159,-0.5 1159,-19.5 1246,-19.5 1246,-0.5 1159,-0.5"/>
<text text-anchor="middle" x="1202.5" y="-7.5" font-family="Helvetica,sans-Serif" font-size="10.00">tools/rlecomp.c</text>
</a>
</g>
</g>
<!-- Node5&#45;&gt;Node17 -->
<g id="edge16" class="edge"><title>Node5&#45;&gt;Node17</title>
<path fill="none" stroke="midnightblue" d="M1088.42,-52.9058C1116.06,-42.7536 1154.84,-28.5063 1179.32,-19.5164"/>
<polygon fill="midnightblue" stroke="midnightblue" points="1086.97,-49.71 1078.79,-56.4435 1089.39,-56.2806 1086.97,-49.71"/>
</g>
<!-- Node18 -->
<g id="node18" class="node"><title>Node18</title>
<g id="a_node18"><a xlink:href="../../de/df4/rlegrid_8c.html" target="_top" xlink:title="tools/rlegrid.c">
<polygon fill="white" stroke="black" points="1264.5,-0.5 1264.5,-19.5 1344.5,-19.5 1344.5,-0.5 1264.5,-0.5"/>
<text text-anchor="middle" x="1304.5" y="-7.5" font-family="Helvetica,sans-Serif" font-size="10.00">tools/rlegrid.c</text>
</a>
</g>
</g>
<!-- Node5&#45;&gt;Node18 -->
<g id="edge17" class="edge"><title>Node5&#45;&gt;Node18</title>
<path fill="none" stroke="midnightblue" d="M1104.92,-54.2815C1151.98,-44.0769 1221.87,-28.9203 1265.23,-19.5164"/>
<polygon fill="midnightblue" stroke="midnightblue" points="1103.99,-50.9036 1094.95,-56.4435 1105.47,-57.7445 1103.99,-50.9036"/>
</g>
<!-- Node19 -->
<g id="node19" class="node"><title>Node19</title>
<g id="a_node19"><a xlink:href="../../d1/d7f/rlescale_8c.html" target="_top" xlink:title="tools/rlescale.c">
<polygon fill="white" stroke="black" points="1362.5,-0.5 1362.5,-19.5 1448.5,-19.5 1448.5,-0.5 1362.5,-0.5"/>
<text text-anchor="middle" x="1405.5" y="-7.5" font-family="Helvetica,sans-Serif" font-size="10.00">tools/rlescale.c</text>
</a>
</g>
</g>
<!-- Node5&#45;&gt;Node19 -->
<g id="edge18" class="edge"><title>Node5&#45;&gt;Node19</title>
<path fill="none" stroke="midnightblue" d="M1113.2,-56.0462C1113.3,-56.0308 1113.4,-56.0154 1113.5,-56 1220.13,-39.7305 1247.02,-37.1984 1353.5,-20 1356.39,-19.5325 1359.38,-19.0413 1362.38,-18.5395"/>
<polygon fill="midnightblue" stroke="midnightblue" points="1112.96,-52.5419 1103.6,-57.5164 1114.02,-59.4611 1112.96,-52.5419"/>
</g>
<!-- Node20 -->
<g id="node20" class="node"><title>Node20</title>
<g id="a_node20"><a xlink:href="../../d0/daf/rlesortmap_8c.html" target="_top" xlink:title="tools/rlesortmap.c">
<polygon fill="white" stroke="black" points="1466.5,-0.5 1466.5,-19.5 1566.5,-19.5 1566.5,-0.5 1466.5,-0.5"/>
<text text-anchor="middle" x="1516.5" y="-7.5" font-family="Helvetica,sans-Serif" font-size="10.00">tools/rlesortmap.c</text>
</a>
</g>
</g>
<!-- Node5&#45;&gt;Node20 -->
<g id="edge19" class="edge"><title>Node5&#45;&gt;Node20</title>
<path fill="none" stroke="midnightblue" d="M1113.2,-56.0395C1113.3,-56.0263 1113.4,-56.0131 1113.5,-56 1265.94,-36.2081 1305.03,-39.5961 1457.5,-20 1460.38,-19.6302 1463.33,-19.2336 1466.31,-18.8205"/>
<polygon fill="midnightblue" stroke="midnightblue" points="1113.02,-52.5316 1103.58,-57.351 1113.96,-59.4674 1113.02,-52.5316"/>
</g>
<!-- Node21 -->
<g id="node21" class="node"><title>Node21</title>
<g id="a_node21"><a xlink:href="../../d0/d79/rlespiff_8c.html" target="_top" xlink:title="tools/rlespiff.c">
<polygon fill="white" stroke="black" points="1585,-0.5 1585,-19.5 1666,-19.5 1666,-0.5 1585,-0.5"/>
<text text-anchor="middle" x="1625.5" y="-7.5" font-family="Helvetica,sans-Serif" font-size="10.00">tools/rlespiff.c</text>
</a>
</g>
</g>
<!-- Node5&#45;&gt;Node21 -->
<g id="edge20" class="edge"><title>Node5&#45;&gt;Node21</title>
<path fill="none" stroke="midnightblue" d="M1113.2,-56.0355C1113.3,-56.0236 1113.4,-56.0118 1113.5,-56 1318.08,-32.1924 1371.23,-46.2759 1575.5,-20 1578.56,-19.6062 1581.72,-19.1518 1584.89,-18.6608"/>
<polygon fill="midnightblue" stroke="midnightblue" points="1113.05,-52.5259 1103.57,-57.2525 1113.93,-59.4707 1113.05,-52.5259"/>
</g>
<!-- Node22 -->
<g id="node22" class="node"><title>Node22</title>
<g id="a_node22"><a xlink:href="../../d5/dfa/rlesplit_8c.html" target="_top" xlink:title="tools/rlesplit.c">
<polygon fill="white" stroke="black" points="1684.5,-0.5 1684.5,-19.5 1764.5,-19.5 1764.5,-0.5 1684.5,-0.5"/>
<text text-anchor="middle" x="1724.5" y="-7.5" font-family="Helvetica,sans-Serif" font-size="10.00">tools/rlesplit.c</text>
</a>
</g>
</g>
<!-- Node5&#45;&gt;Node22 -->
<g id="edge21" class="edge"><title>Node5&#45;&gt;Node22</title>
<path fill="none" stroke="midnightblue" d="M1113.2,-56.0334C1113.3,-56.0222 1113.4,-56.0111 1113.5,-56 1362.31,-28.7831 1427.1,-50.6607 1675.5,-20 1678.42,-19.6398 1681.43,-19.2165 1684.45,-18.7532"/>
<polygon fill="midnightblue" stroke="midnightblue" points="1113.07,-52.5231 1103.56,-57.2012 1113.91,-59.4722 1113.07,-52.5231"/>
</g>
<!-- Node23 -->
<g id="node23" class="node"><title>Node23</title>
<g id="a_node23"><a xlink:href="../../d9/d4b/rleswap_8c.html" target="_top" xlink:title="tools/rleswap.c">
<polygon fill="white" stroke="black" points="1782.5,-0.5 1782.5,-19.5 1868.5,-19.5 1868.5,-0.5 1782.5,-0.5"/>
<text text-anchor="middle" x="1825.5" y="-7.5" font-family="Helvetica,sans-Serif" font-size="10.00">tools/rleswap.c</text>
</a>
</g>
</g>
<!-- Node5&#45;&gt;Node23 -->
<g id="edge22" class="edge"><title>Node5&#45;&gt;Node23</title>
<path fill="none" stroke="midnightblue" d="M1113.2,-56.032C1113.3,-56.0213 1113.4,-56.0106 1113.5,-56 1405.68,-25.4393 1481.6,-53.1064 1773.5,-20 1776.41,-19.6696 1779.41,-19.2812 1782.43,-18.8544"/>
<polygon fill="midnightblue" stroke="midnightblue" points="1113.08,-52.5212 1103.56,-57.1659 1113.9,-59.4732 1113.08,-52.5212"/>
</g>
<!-- Node24 -->
<g id="node24" class="node"><title>Node24</title>
<g id="a_node24"><a xlink:href="../../d5/d42/rlezoom_8c.html" target="_top" xlink:title="tools/rlezoom.c">
<polygon fill="white" stroke="black" points="1887,-0.5 1887,-19.5 1974,-19.5 1974,-0.5 1887,-0.5"/>
<text text-anchor="middle" x="1930.5" y="-7.5" font-family="Helvetica,sans-Serif" font-size="10.00">tools/rlezoom.c</text>
</a>
</g>
</g>
<!-- Node5&#45;&gt;Node24 -->
<g id="edge23" class="edge"><title>Node5&#45;&gt;Node24</title>
<path fill="none" stroke="midnightblue" d="M1113.2,-56.0308C1113.3,-56.0205 1113.4,-56.0102 1113.5,-56 1451.72,-21.8892 1539.54,-56.5218 1877.5,-20 1880.56,-19.6691 1883.72,-19.274 1886.89,-18.8366"/>
<polygon fill="midnightblue" stroke="midnightblue" points="1113.09,-52.5197 1103.56,-57.1383 1113.89,-59.474 1113.09,-52.5197"/>
</g>
<!-- Node25 -->
<g id="node25" class="node"><title>Node25</title>
<g id="a_node25"><a xlink:href="../../df/dfb/unslice_8c.html" target="_top" xlink:title="tools/unslice.c">
<polygon fill="white" stroke="black" points="1992.5,-0.5 1992.5,-19.5 2074.5,-19.5 2074.5,-0.5 1992.5,-0.5"/>
<text text-anchor="middle" x="2033.5" y="-7.5" font-family="Helvetica,sans-Serif" font-size="10.00">tools/unslice.c</text>
</a>
</g>
</g>
<!-- Node5&#45;&gt;Node25 -->
<g id="edge24" class="edge"><title>Node5&#45;&gt;Node25</title>
<path fill="none" stroke="midnightblue" d="M1113.2,-56.03C1113.3,-56.0199 1113.4,-56.0099 1113.5,-56 1498.65,-18.2696 1598.83,-62.3779 1983.5,-20 1986.39,-19.6813 1989.37,-19.2952 1992.36,-18.8644"/>
<polygon fill="midnightblue" stroke="midnightblue" points="1113.1,-52.5186 1103.55,-57.1169 1113.88,-59.4746 1113.1,-52.5186"/>
</g>
</g>
</svg>
        <g id="navigator" transform="translate(0 0)" fill="#404254">
                <rect fill="#f2f5e9" fill-opacity="0.5" stroke="#606060" stroke-width=".5" x="0" y="0" width="60" height="60"/>
                <use id="zoomplus" xlink:href="#zoomPlus" x="17" y="9" onmousedown="handleZoom(evt,'in')"/>
                <use id="zoomminus" xlink:href="#zoomMin" x="42" y="9" onmousedown="handleZoom(evt,'out')"/>
                <use id="reset" xlink:href="#resetDef" x="30" y="36" onmousedown="handleReset()"/>
                <g id="arrowUp" xlink:href="#dirArrow" transform="translate(30 24)" onmousedown="handlePan(0,-1)">
                  <use xlink:href="#rim" fill="#404040">
                        <set attributeName="fill" to="#808080" begin="arrowUp.mouseover" end="arrowUp.mouseout"/>
                  </use>
                  <path fill="none" stroke="white" stroke-width="1.5" d="M0,-3.0v7 M-2.5,-0.5L0,-3.0L2.5,-0.5"/>
                </g>
                <g id="arrowRight" xlink:href="#dirArrow" transform="rotate(90) translate(36 -43)" onmousedown="handlePan(1,0)">
                  <use xlink:href="#rim" fill="#404040">
                        <set attributeName="fill" to="#808080" begin="arrowRight.mouseover" end="arrowRight.mouseout"/>
                  </use>
                  <path fill="none" stroke="white" stroke-width="1.5" d="M0,-3.0v7 M-2.5,-0.5L0,-3.0L2.5,-0.5"/>
                </g>
                <g id="arrowDown" xlink:href="#dirArrow" transform="rotate(180) translate(-30 -48)" onmousedown="handlePan(0,1)">
                  <use xlink:href="#rim" fill="#404040">
                        <set attributeName="fill" to="#808080" begin="arrowDown.mouseover" end="arrowDown.mouseout"/>
                  </use>
                  <path fill="none" stroke="white" stroke-width="1.5" d="M0,-3.0v7 M-2.5,-0.5L0,-3.0L2.5,-0.5"/>
                </g>
                <g id="arrowLeft" xlink:href="#dirArrow" transform="rotate(270) translate(-36 17)" onmousedown="handlePan(-1,0)">
                  <use xlink:href="#rim" fill="#404040">
                        <set attributeName="fill" to="#808080" begin="arrowLeft.mouseover" end="arrowLeft.mouseout"/>
                  </use>
                  <path fill="none" stroke="white" stroke-width="1.5" d="M0,-3.0v7 M-2.5,-0.5L0,-3.0L2.5,-0.5"/>
                </g>
        </g>
        <svg viewBox="0 0 15 15" width="100%" height="30px" preserveAspectRatio="xMaxYMin meet">
         <g id="arrow_out" transform="scale(0.3 0.3)">
          <a xlink:href="rle__code_8h__dep__incl_org.svg" target="_base">
           <rect id="button" ry="5" rx="5" y="6" x="6" height="38" width="38"
                fill="#f2f5e9" fill-opacity="0.5" stroke="#606060" stroke-width="1.0"/>
           <path id="arrow"
             d="M 11.500037,31.436501 C 11.940474,20.09759 22.043105,11.32322 32.158766,21.979434 L 37.068811,17.246167 C 37.068811,17.246167 37.088388,32 37.088388,32 L 22.160133,31.978069 C 22.160133,31.978069 26.997745,27.140456 26.997745,27.140456 C 18.528582,18.264221 13.291696,25.230495 11.500037,31.436501 z"
             style="fill:#404040;"/>
          </a>
         </g>
        </svg>
</svg>
