<?xml version="1.0" encoding="UTF-8" standalone="no"?>
<!DOCTYPE svg PUBLIC "-//W3C//DTD SVG 1.1//EN"
 "http://www.w3.org/Graphics/SVG/1.1/DTD/svg11.dtd">
<!-- Generated by graphviz version 2.38.0 (20140413.2041)
 -->
<!-- Title: get/next/RASF.h Pages: 1 -->
<svg width="222pt" height="84pt"
 viewBox="0.00 0.00 222.00 84.00" xmlns="http://www.w3.org/2000/svg" xmlns:xlink="http://www.w3.org/1999/xlink">
<g id="graph0" class="graph" transform="scale(1 1) rotate(0) translate(4 80)">
<title>get/next/RASF.h</title>
<polygon fill="white" stroke="none" points="-4,4 -4,-80 218,-80 218,4 -4,4"/>
<!-- Node1 -->
<g id="node1" class="node"><title>Node1</title>
<polygon fill="#bfbfbf" stroke="black" points="62,-56.5 62,-75.5 155,-75.5 155,-56.5 62,-56.5"/>
<text text-anchor="middle" x="108.5" y="-63.5" font-family="Helvetica,sans-Serif" font-size="10.00">get/next/RASF.h</text>
</g>
<!-- Node2 -->
<g id="node2" class="node"><title>Node2</title>
<g id="a_node2"><a xlink:href="../../d9/d10/Myapp_8m.html" target="_top" xlink:title="get/next/Myapp.m">
<polygon fill="white" stroke="black" points="0,-0.5 0,-19.5 101,-19.5 101,-0.5 0,-0.5"/>
<text text-anchor="middle" x="50.5" y="-7.5" font-family="Helvetica,sans-Serif" font-size="10.00">get/next/Myapp.m</text>
</a>
</g>
</g>
<!-- Node1&#45;&gt;Node2 -->
<g id="edge1" class="edge"><title>Node1&#45;&gt;Node2</title>
<path fill="none" stroke="midnightblue" d="M91.5869,-49.2533C81.297,-39.6731 68.5343,-27.7906 59.9883,-19.8339"/>
<polygon fill="midnightblue" stroke="midnightblue" points="89.4774,-52.0714 99.1813,-56.324 94.2473,-46.9481 89.4774,-52.0714"/>
</g>
<!-- Node3 -->
<g id="node3" class="node"><title>Node3</title>
<g id="a_node3"><a xlink:href="../../d8/d95/RASF_8m.html" target="_top" xlink:title="get/next/RASF.m">
<polygon fill="white" stroke="black" points="119,-0.5 119,-19.5 214,-19.5 214,-0.5 119,-0.5"/>
<text text-anchor="middle" x="166.5" y="-7.5" font-family="Helvetica,sans-Serif" font-size="10.00">get/next/RASF.m</text>
</a>
</g>
</g>
<!-- Node1&#45;&gt;Node3 -->
<g id="edge2" class="edge"><title>Node1&#45;&gt;Node3</title>
<path fill="none" stroke="midnightblue" d="M125.413,-49.2533C135.703,-39.6731 148.466,-27.7906 157.012,-19.8339"/>
<polygon fill="midnightblue" stroke="midnightblue" points="122.753,-46.9481 117.819,-56.324 127.523,-52.0714 122.753,-46.9481"/>
</g>
</g>
</svg>
