<?xml version="1.0" encoding="UTF-8" standalone="no"?>
<!DOCTYPE svg PUBLIC "-//W3C//DTD SVG 1.1//EN"
 "http://www.w3.org/Graphics/SVG/1.1/DTD/svg11.dtd">
<!-- Generated by graphviz version 2.38.0 (20140413.2041)
 -->
<!-- Title: cnv/rletorast.c Pages: 1 -->
<svg width="249pt" height="196pt"
 viewBox="0.00 0.00 248.71 196.00" xmlns="http://www.w3.org/2000/svg" xmlns:xlink="http://www.w3.org/1999/xlink">
<g id="graph0" class="graph" transform="scale(1 1) rotate(0) translate(4 192)">
<title>cnv/rletorast.c</title>
<polygon fill="white" stroke="none" points="-4,4 -4,-192 244.715,-192 244.715,4 -4,4"/>
<!-- Node1 -->
<g id="node1" class="node"><title>Node1</title>
<polygon fill="#bfbfbf" stroke="black" points="31.7149,-168.5 31.7149,-187.5 114.715,-187.5 114.715,-168.5 31.7149,-168.5"/>
<text text-anchor="middle" x="73.2149" y="-175.5" font-family="Helvetica,sans-Serif" font-size="10.00">cnv/rletorast.c</text>
</g>
<!-- Node2 -->
<g id="node2" class="node"><title>Node2</title>
<polygon fill="white" stroke="#bfbfbf" points="20.7149,-56.5 20.7149,-75.5 67.7149,-75.5 67.7149,-56.5 20.7149,-56.5"/>
<text text-anchor="middle" x="44.2149" y="-63.5" font-family="Helvetica,sans-Serif" font-size="10.00">stdio.h</text>
</g>
<!-- Node1&#45;&gt;Node2 -->
<g id="edge1" class="edge"><title>Node1&#45;&gt;Node2</title>
<path fill="none" stroke="midnightblue" d="M48.7456,-168.438C32.6479,-161.378 12.8379,-149.626 3.21491,-132 -6.38715,-114.412 9.38872,-95.0891 24.0704,-82.1202"/>
<polygon fill="midnightblue" stroke="midnightblue" points="26.4614,-84.6849 31.9463,-75.6203 22.0058,-79.2861 26.4614,-84.6849"/>
</g>
<!-- Node3 -->
<g id="node3" class="node"><title>Node3</title>
<polygon fill="white" stroke="#bfbfbf" points="12.2149,-112.5 12.2149,-131.5 60.2149,-131.5 60.2149,-112.5 12.2149,-112.5"/>
<text text-anchor="middle" x="36.2149" y="-119.5" font-family="Helvetica,sans-Serif" font-size="10.00">math.h</text>
</g>
<!-- Node1&#45;&gt;Node3 -->
<g id="edge2" class="edge"><title>Node1&#45;&gt;Node3</title>
<path fill="none" stroke="midnightblue" d="M67.1051,-168.083C61.9327,-160.534 54.3688,-149.495 48.0205,-140.23"/>
<polygon fill="midnightblue" stroke="midnightblue" points="50.7506,-138.022 42.211,-131.751 44.9761,-141.979 50.7506,-138.022"/>
</g>
<!-- Node4 -->
<g id="node4" class="node"><title>Node4</title>
<polygon fill="white" stroke="#bfbfbf" points="78.2149,-112.5 78.2149,-131.5 144.215,-131.5 144.215,-112.5 78.2149,-112.5"/>
<text text-anchor="middle" x="111.215" y="-119.5" font-family="Helvetica,sans-Serif" font-size="10.00">rasterfile.h</text>
</g>
<!-- Node1&#45;&gt;Node4 -->
<g id="edge3" class="edge"><title>Node1&#45;&gt;Node4</title>
<path fill="none" stroke="midnightblue" d="M79.4898,-168.083C84.8574,-160.455 92.7325,-149.264 99.2936,-139.941"/>
<polygon fill="midnightblue" stroke="midnightblue" points="102.164,-141.943 105.057,-131.751 96.4394,-137.915 102.164,-141.943"/>
</g>
<!-- Node5 -->
<g id="node5" class="node"><title>Node5</title>
<g id="a_node5"><a xlink:href="../../d7/d27/rle_8h.html" target="_top" xlink:title="rle.h">
<polygon fill="white" stroke="black" points="162.715,-112.5 162.715,-131.5 199.715,-131.5 199.715,-112.5 162.715,-112.5"/>
<text text-anchor="middle" x="181.215" y="-119.5" font-family="Helvetica,sans-Serif" font-size="10.00">rle.h</text>
</a>
</g>
</g>
<!-- Node1&#45;&gt;Node5 -->
<g id="edge4" class="edge"><title>Node1&#45;&gt;Node5</title>
<path fill="none" stroke="midnightblue" d="M90.567,-168.324C107.887,-159.664 134.73,-146.242 154.717,-136.249"/>
<polygon fill="midnightblue" stroke="midnightblue" points="156.527,-139.257 163.906,-131.655 153.396,-132.996 156.527,-139.257"/>
</g>
<!-- Node5&#45;&gt;Node2 -->
<g id="edge8" class="edge"><title>Node5&#45;&gt;Node2</title>
<path fill="none" stroke="midnightblue" d="M162.453,-113.605C140.001,-104.755 102.082,-89.8087 75.2452,-79.2309"/>
<polygon fill="midnightblue" stroke="midnightblue" points="76.4957,-75.9618 65.9088,-75.5509 73.9287,-82.4741 76.4957,-75.9618"/>
</g>
<!-- Node6 -->
<g id="node6" class="node"><title>Node6</title>
<g id="a_node6"><a xlink:href="../../df/dad/rle__config_8h.html" target="_top" xlink:title="rle_config.h">
<polygon fill="white" stroke="black" points="145.715,-56.5 145.715,-75.5 216.715,-75.5 216.715,-56.5 145.715,-56.5"/>
<text text-anchor="middle" x="181.215" y="-63.5" font-family="Helvetica,sans-Serif" font-size="10.00">rle_config.h</text>
</a>
</g>
</g>
<!-- Node5&#45;&gt;Node6 -->
<g id="edge5" class="edge"><title>Node5&#45;&gt;Node6</title>
<path fill="none" stroke="midnightblue" d="M181.215,-112.083C181.215,-105.006 181.215,-94.8611 181.215,-85.9865"/>
<polygon fill="midnightblue" stroke="midnightblue" points="184.715,-85.751 181.215,-75.7511 177.715,-85.7511 184.715,-85.751"/>
</g>
<!-- Node7 -->
<g id="node7" class="node"><title>Node7</title>
<polygon fill="white" stroke="#bfbfbf" points="122.715,-0.5 122.715,-19.5 171.715,-19.5 171.715,-0.5 122.715,-0.5"/>
<text text-anchor="middle" x="147.215" y="-7.5" font-family="Helvetica,sans-Serif" font-size="10.00">stdlib.h</text>
</g>
<!-- Node6&#45;&gt;Node7 -->
<g id="edge6" class="edge"><title>Node6&#45;&gt;Node7</title>
<path fill="none" stroke="midnightblue" d="M175.6,-56.083C170.847,-48.5341 163.897,-37.4948 158.063,-28.2298"/>
<polygon fill="midnightblue" stroke="midnightblue" points="161.015,-26.3486 152.725,-19.7511 155.091,-30.0783 161.015,-26.3486"/>
</g>
<!-- Node8 -->
<g id="node8" class="node"><title>Node8</title>
<polygon fill="white" stroke="#bfbfbf" points="189.715,-0.5 189.715,-19.5 240.715,-19.5 240.715,-0.5 189.715,-0.5"/>
<text text-anchor="middle" x="215.215" y="-7.5" font-family="Helvetica,sans-Serif" font-size="10.00">string.h</text>
</g>
<!-- Node6&#45;&gt;Node8 -->
<g id="edge7" class="edge"><title>Node6&#45;&gt;Node8</title>
<path fill="none" stroke="midnightblue" d="M186.829,-56.083C191.582,-48.5341 198.533,-37.4948 204.367,-28.2298"/>
<polygon fill="midnightblue" stroke="midnightblue" points="207.339,-30.0783 209.705,-19.7511 201.415,-26.3486 207.339,-30.0783"/>
</g>
</g>
</svg>
