<?xml version="1.0" encoding="UTF-8" standalone="no"?>
<!DOCTYPE svg PUBLIC "-//W3C//DTD SVG 1.1//EN"
 "http://www.w3.org/Graphics/SVG/1.1/DTD/svg11.dtd">
<!-- Generated by graphviz version 2.38.0 (20140413.2041)
 -->
<!-- Title: rle_names Pages: 1 -->
<svg width="641pt" height="812pt"
 viewBox="0.00 0.00 641.00 811.71" xmlns="http://www.w3.org/2000/svg" xmlns:xlink="http://www.w3.org/1999/xlink">
<g id="graph0" class="graph" transform="scale(1 1) rotate(0) translate(4 807.713)">
<title>rle_names</title>
<polygon fill="white" stroke="none" points="-4,4 -4,-807.713 637,-807.713 637,4 -4,4"/>
<!-- Node1 -->
<g id="node1" class="node"><title>Node1</title>
<polygon fill="#bfbfbf" stroke="black" points="0,-347.213 0,-366.213 66,-366.213 66,-347.213 0,-347.213"/>
<text text-anchor="middle" x="33" y="-354.213" font-family="Helvetica,sans-Serif" font-size="10.00">rle_names</text>
</g>
<!-- Node2 -->
<g id="node2" class="node"><title>Node2</title>
<g id="a_node2"><a xlink:href="../../dd/dc5/prototypes_8h.html#a70db8bd1d499619f7ff9c1ca2ff3c8df" target="_top" xlink:title="main">
<polygon fill="white" stroke="black" points="357.5,-328.213 357.5,-347.213 396.5,-347.213 396.5,-328.213 357.5,-328.213"/>
<text text-anchor="middle" x="377" y="-335.213" font-family="Helvetica,sans-Serif" font-size="10.00">main</text>
</a>
</g>
</g>
<!-- Node1&#45;&gt;Node2 -->
<g id="edge1" class="edge"><title>Node1&#45;&gt;Node2</title>
<path fill="none" stroke="midnightblue" d="M76.1866,-354.369C150.947,-350.216 303.828,-341.723 357.15,-338.76"/>
<polygon fill="midnightblue" stroke="midnightblue" points="75.965,-350.876 66.1745,-354.926 76.3533,-357.866 75.965,-350.876"/>
</g>
<!-- Node3 -->
<g id="node3" class="node"><title>Node3</title>
<g id="a_node3"><a xlink:href="../../d3/d46/get4d_8c.html#af1e5f57fa511be9fa99aee630ceba576" target="_top" xlink:title="get_pic">
<polygon fill="white" stroke="black" points="351.5,-480.213 351.5,-499.213 402.5,-499.213 402.5,-480.213 351.5,-480.213"/>
<text text-anchor="middle" x="377" y="-487.213" font-family="Helvetica,sans-Serif" font-size="10.00">get_pic</text>
</a>
</g>
</g>
<!-- Node1&#45;&gt;Node3 -->
<g id="edge2" class="edge"><title>Node1&#45;&gt;Node3</title>
<path fill="none" stroke="midnightblue" d="M45.509,-375.329C57.4511,-393.054 77.7592,-419.128 102,-433.713 183.542,-482.775 300.836,-489.537 351.339,-490.012"/>
<polygon fill="midnightblue" stroke="midnightblue" points="48.1402,-372.954 39.7635,-366.467 42.2666,-376.762 48.1402,-372.954"/>
</g>
<!-- Node5 -->
<g id="node5" class="node"><title>Node5</title>
<g id="a_node5"><a xlink:href="../../d9/dea/getcx3d_8c.html#ac43e38fef452c4a15d14abb67019a1b5" target="_top" xlink:title="getcx3d">
<polygon fill="white" stroke="black" points="350,-442.213 350,-461.213 404,-461.213 404,-442.213 350,-442.213"/>
<text text-anchor="middle" x="377" y="-449.213" font-family="Helvetica,sans-Serif" font-size="10.00">getcx3d</text>
</a>
</g>
</g>
<!-- Node1&#45;&gt;Node5 -->
<g id="edge4" class="edge"><title>Node1&#45;&gt;Node5</title>
<path fill="none" stroke="midnightblue" d="M50.2679,-373.346C63.1413,-385.456 82.1948,-401.174 102,-409.713 187.291,-446.488 299.714,-451.685 349.882,-452.016"/>
<polygon fill="midnightblue" stroke="midnightblue" points="52.7068,-370.836 43.0996,-366.369 47.8243,-375.852 52.7068,-370.836"/>
</g>
<!-- Node7 -->
<g id="node7" class="node"><title>Node7</title>
<g id="a_node7"><a xlink:href="../../d6/d28/gettaac_8c.html#ac6597f5cb5e1205e800704d584f65e68" target="_top" xlink:title="read_file">
<polygon fill="white" stroke="black" points="469.5,-290.213 469.5,-309.213 527.5,-309.213 527.5,-290.213 469.5,-290.213"/>
<text text-anchor="middle" x="498.5" y="-297.213" font-family="Helvetica,sans-Serif" font-size="10.00">read_file</text>
</a>
</g>
</g>
<!-- Node1&#45;&gt;Node7 -->
<g id="edge6" class="edge"><title>Node1&#45;&gt;Node7</title>
<path fill="none" stroke="midnightblue" d="M75.9144,-367.303C150.177,-383.828 308.129,-408.783 426,-356.713 447.281,-347.312 443.507,-332.828 462,-318.713 466.557,-315.235 471.836,-312.036 476.909,-309.294"/>
<polygon fill="midnightblue" stroke="midnightblue" points="76.5326,-363.854 66.0039,-365.036 74.9717,-370.678 76.5326,-363.854"/>
</g>
<!-- Node9 -->
<g id="node9" class="node"><title>Node9</title>
<g id="a_node9"><a xlink:href="../../d1/dad/giftorle_8c.html#a4a32ad17d41944729fd2ecacccf68d07" target="_top" xlink:title="ReadRaster">
<polygon fill="white" stroke="black" points="340,-214.213 340,-233.213 414,-233.213 414,-214.213 340,-214.213"/>
<text text-anchor="middle" x="377" y="-221.213" font-family="Helvetica,sans-Serif" font-size="10.00">ReadRaster</text>
</a>
</g>
</g>
<!-- Node1&#45;&gt;Node9 -->
<g id="edge8" class="edge"><title>Node1&#45;&gt;Node9</title>
<path fill="none" stroke="midnightblue" d="M63.1939,-342.822C97.1355,-326.904 155.023,-300.473 206,-280.713 253.745,-262.206 310.325,-243.948 344.67,-233.26"/>
<polygon fill="midnightblue" stroke="midnightblue" points="61.4279,-339.784 53.8722,-347.212 64.4104,-346.117 61.4279,-339.784"/>
</g>
<!-- Node10 -->
<g id="node10" class="node"><title>Node10</title>
<g id="a_node10"><a xlink:href="../../dd/d78/rle_8c.html#a478b503fdb4cd225b8220ac26c163ba7" target="_top" xlink:title="rasterInit">
<polygon fill="white" stroke="black" points="469,-252.213 469,-271.213 528,-271.213 528,-252.213 469,-252.213"/>
<text text-anchor="middle" x="498.5" y="-259.213" font-family="Helvetica,sans-Serif" font-size="10.00">rasterInit</text>
</a>
</g>
</g>
<!-- Node1&#45;&gt;Node10 -->
<g id="edge9" class="edge"><title>Node1&#45;&gt;Node10</title>
<path fill="none" stroke="midnightblue" d="M42.0405,-337.745C52.7233,-314.515 73.606,-275.239 102,-250.713 183.094,-180.666 222.001,-182.433 328,-166.713 371.084,-160.324 387.026,-147.267 426,-166.713 462.572,-184.961 485.344,-231.811 493.784,-252.104"/>
<polygon fill="midnightblue" stroke="midnightblue" points="38.8332,-336.344 37.9767,-346.904 45.2316,-339.183 38.8332,-336.344"/>
</g>
<!-- Node11 -->
<g id="node11" class="node"><title>Node11</title>
<g id="a_node11"><a xlink:href="../../d4/dc6/interfaceRLE.html#a151be2ba0debedc4c36f7305a74354ec" target="_top" xlink:title="&#45;[RLE open:]">
<polygon fill="white" stroke="black" points="339.5,-784.213 339.5,-803.213 414.5,-803.213 414.5,-784.213 339.5,-784.213"/>
<text text-anchor="middle" x="377" y="-791.213" font-family="Helvetica,sans-Serif" font-size="10.00">&#45;[RLE open:]</text>
</a>
</g>
</g>
<!-- Node1&#45;&gt;Node11 -->
<g id="edge10" class="edge"><title>Node1&#45;&gt;Node11</title>
<path fill="none" stroke="midnightblue" d="M38.432,-376.453C46.9029,-411.508 67.6658,-486.071 102,-540.713 178.925,-663.137 207.845,-694.289 328,-774.713 333.512,-778.402 339.847,-781.546 346.071,-784.152"/>
<polygon fill="midnightblue" stroke="midnightblue" points="41.7978,-375.475 36.112,-366.535 34.9818,-377.07 41.7978,-375.475"/>
</g>
<!-- Node12 -->
<g id="node12" class="node"><title>Node12</title>
<g id="a_node12"><a xlink:href="../../db/d53/rle__getrow_8c.html#a619b27463c26e0a4a3d9648a9869ee52" target="_top" xlink:title="rle_get_setup">
<polygon fill="white" stroke="black" points="208.5,-575.213 208.5,-594.213 289.5,-594.213 289.5,-575.213 208.5,-575.213"/>
<text text-anchor="middle" x="249" y="-582.213" font-family="Helvetica,sans-Serif" font-size="10.00">rle_get_setup</text>
</a>
</g>
</g>
<!-- Node1&#45;&gt;Node12 -->
<g id="edge11" class="edge"><title>Node1&#45;&gt;Node12</title>
<path fill="none" stroke="midnightblue" d="M38.8252,-376.326C47.1733,-406.796 66.8807,-465.922 102,-503.713 135.052,-539.279 187.356,-562.98 219.569,-575.117"/>
<polygon fill="midnightblue" stroke="midnightblue" points="42.1696,-375.281 36.256,-366.49 35.3967,-377.05 42.1696,-375.281"/>
</g>
<!-- Node18 -->
<g id="node18" class="node"><title>Node18</title>
<g id="a_node18"><a xlink:href="../../db/d53/rle__getrow_8c.html#a2d56ca99b896abbcb4d2f3f97c93a3ce" target="_top" xlink:title="rle_get_setup_ok">
<polygon fill="white" stroke="black" points="328,-404.213 328,-423.213 426,-423.213 426,-404.213 328,-404.213"/>
<text text-anchor="middle" x="377" y="-411.213" font-family="Helvetica,sans-Serif" font-size="10.00">rle_get_setup_ok</text>
</a>
</g>
</g>
<!-- Node1&#45;&gt;Node18 -->
<g id="edge35" class="edge"><title>Node1&#45;&gt;Node18</title>
<path fill="none" stroke="midnightblue" d="M58.4803,-371.287C71.0561,-378.065 86.8813,-385.536 102,-389.713 178.865,-410.952 272.046,-414.694 327.546,-414.729"/>
<polygon fill="midnightblue" stroke="midnightblue" points="59.9994,-368.126 49.5623,-366.305 56.5854,-374.237 59.9994,-368.126"/>
</g>
<!-- Node25 -->
<g id="node25" class="node"><title>Node25</title>
<g id="a_node25"><a xlink:href="../../df/dfb/unslice_8c.html#a7090aec632931a42b5d606b6db234b9d" target="_top" xlink:title="do_slice">
<polygon fill="white" stroke="black" points="470.5,-24.2132 470.5,-43.2132 526.5,-43.2132 526.5,-24.2132 470.5,-24.2132"/>
<text text-anchor="middle" x="498.5" y="-31.2132" font-family="Helvetica,sans-Serif" font-size="10.00">do_slice</text>
</a>
</g>
</g>
<!-- Node1&#45;&gt;Node25 -->
<g id="edge52" class="edge"><title>Node1&#45;&gt;Node25</title>
<path fill="none" stroke="midnightblue" d="M36.0749,-336.928C43.9369,-273.829 78.2791,-78.1505 206,-20.7132 295.63,19.5943 416.817,-8.65485 470.26,-24.7023"/>
<polygon fill="midnightblue" stroke="midnightblue" points="32.5702,-336.768 34.8985,-347.104 39.5239,-337.572 32.5702,-336.768"/>
</g>
<!-- Node30 -->
<g id="node30" class="node"><title>Node30</title>
<g id="a_node30"><a xlink:href="../../d2/df3/rle__hdr_8c.html#afc916e29aea8788e0878ca315ff69821" target="_top" xlink:title="rle_hdr_cp">
<polygon fill="white" stroke="black" points="102,-138.213 102,-157.213 170,-157.213 170,-138.213 102,-138.213"/>
<text text-anchor="middle" x="136" y="-145.213" font-family="Helvetica,sans-Serif" font-size="10.00">rle_hdr_cp</text>
</a>
</g>
</g>
<!-- Node1&#45;&gt;Node30 -->
<g id="edge36" class="edge"><title>Node1&#45;&gt;Node30</title>
<path fill="none" stroke="midnightblue" d="M37.3698,-336.732C44.2548,-300.684 62.721,-223.692 102,-171.713 106.271,-166.061 112.241,-161.163 117.93,-157.292"/>
<polygon fill="midnightblue" stroke="midnightblue" points="33.864,-336.451 35.5296,-346.914 40.7524,-337.696 33.864,-336.451"/>
</g>
<!-- Node34 -->
<g id="node34" class="node"><title>Node34</title>
<g id="a_node34"><a xlink:href="../../d5/dd9/rleClock_8c.html#a029cc0b8bfeacc031dd11bd48caf3a2d" target="_top" xlink:title="rasterWrite">
<polygon fill="white" stroke="black" points="342.5,-176.213 342.5,-195.213 411.5,-195.213 411.5,-176.213 342.5,-176.213"/>
<text text-anchor="middle" x="377" y="-183.213" font-family="Helvetica,sans-Serif" font-size="10.00">rasterWrite</text>
</a>
</g>
</g>
<!-- Node1&#45;&gt;Node34 -->
<g id="edge51" class="edge"><title>Node1&#45;&gt;Node34</title>
<path fill="none" stroke="midnightblue" d="M49.1612,-339.173C62.1114,-324.99 81.8027,-305.226 102,-291.713 180.214,-239.385 288.009,-207.425 342.121,-193.655"/>
<polygon fill="midnightblue" stroke="midnightblue" points="46.4106,-336.999 42.3624,-346.789 51.6328,-341.66 46.4106,-336.999"/>
</g>
<!-- Node4 -->
<g id="node4" class="node"><title>Node4</title>
<g id="a_node4"><a xlink:href="../../d3/d46/get4d_8c.html#a2e1c56207484e456874379d624fc0e67" target="_top" xlink:title="main">
<polygon fill="white" stroke="black" points="479,-518.213 479,-537.213 518,-537.213 518,-518.213 479,-518.213"/>
<text text-anchor="middle" x="498.5" y="-525.213" font-family="Helvetica,sans-Serif" font-size="10.00">main</text>
</a>
</g>
</g>
<!-- Node3&#45;&gt;Node4 -->
<g id="edge3" class="edge"><title>Node3&#45;&gt;Node4</title>
<path fill="none" stroke="midnightblue" d="M412.532,-500.694C434.068,-507.542 460.958,-516.093 478.649,-521.719"/>
<polygon fill="midnightblue" stroke="midnightblue" points="413.351,-497.282 402.76,-497.587 411.23,-503.953 413.351,-497.282"/>
</g>
<!-- Node6 -->
<g id="node6" class="node"><title>Node6</title>
<g id="a_node6"><a xlink:href="../../d9/dea/getcx3d_8c.html#a0708a0954f39ecdc7aa901286295ad01" target="_top" xlink:title="main">
<polygon fill="white" stroke="black" points="479,-480.213 479,-499.213 518,-499.213 518,-480.213 479,-480.213"/>
<text text-anchor="middle" x="498.5" y="-487.213" font-family="Helvetica,sans-Serif" font-size="10.00">main</text>
</a>
</g>
</g>
<!-- Node5&#45;&gt;Node6 -->
<g id="edge5" class="edge"><title>Node5&#45;&gt;Node6</title>
<path fill="none" stroke="midnightblue" d="M413.941,-463.142C435.272,-469.925 461.443,-478.247 478.75,-483.751"/>
<polygon fill="midnightblue" stroke="midnightblue" points="414.815,-459.747 404.225,-460.052 412.694,-466.418 414.815,-459.747"/>
</g>
<!-- Node8 -->
<g id="node8" class="node"><title>Node8</title>
<g id="a_node8"><a xlink:href="../../d6/d28/gettaac_8c.html#a4f03a057a0e8afba60fcb95a988c80d1" target="_top" xlink:title="init_panel">
<polygon fill="white" stroke="black" points="571,-290.213 571,-309.213 633,-309.213 633,-290.213 571,-290.213"/>
<text text-anchor="middle" x="602" y="-297.213" font-family="Helvetica,sans-Serif" font-size="10.00">init_panel</text>
</a>
</g>
</g>
<!-- Node7&#45;&gt;Node8 -->
<g id="edge7" class="edge"><title>Node7&#45;&gt;Node8</title>
<path fill="none" stroke="midnightblue" d="M537.713,-299.713C548.704,-299.713 560.533,-299.713 570.955,-299.713"/>
<polygon fill="midnightblue" stroke="midnightblue" points="537.504,-296.213 527.504,-299.713 537.504,-303.213 537.504,-296.213"/>
</g>
<!-- Node12&#45;&gt;Node3 -->
<g id="edge13" class="edge"><title>Node12&#45;&gt;Node3</title>
<path fill="none" stroke="midnightblue" d="M264.408,-567.091C278.973,-550.219 302.863,-524.991 328,-508.713 335.071,-504.134 343.422,-500.356 351.158,-497.408"/>
<polygon fill="midnightblue" stroke="midnightblue" points="261.458,-565.161 257.685,-575.061 266.809,-569.674 261.458,-565.161"/>
</g>
<!-- Node12&#45;&gt;Node5 -->
<g id="edge18" class="edge"><title>Node12&#45;&gt;Node5</title>
<path fill="none" stroke="midnightblue" d="M258.473,-565.895C270.58,-540.947 295.059,-497.017 328,-470.713 334.303,-465.68 342.107,-461.837 349.577,-458.97"/>
<polygon fill="midnightblue" stroke="midnightblue" points="255.266,-564.491 254.184,-575.031 261.602,-567.466 255.266,-564.491"/>
</g>
<!-- Node12&#45;&gt;Node11 -->
<g id="edge20" class="edge"><title>Node12&#45;&gt;Node11</title>
<path fill="none" stroke="midnightblue" d="M275.479,-600.261C281.695,-605.148 287.767,-611.037 292,-617.713 330.337,-678.172 281.355,-720.406 328,-774.713 331.27,-778.521 335.407,-781.571 339.874,-784.014"/>
<polygon fill="midnightblue" stroke="midnightblue" points="277.241,-597.218 267.073,-594.241 273.165,-602.909 277.241,-597.218"/>
</g>
<!-- Node13 -->
<g id="node13" class="node"><title>Node13</title>
<g id="a_node13"><a xlink:href="../../d7/def/applymap_8c.html#a70db8bd1d499619f7ff9c1ca2ff3c8df" target="_top" xlink:title="main">
<polygon fill="white" stroke="black" points="357.5,-708.213 357.5,-727.213 396.5,-727.213 396.5,-708.213 357.5,-708.213"/>
<text text-anchor="middle" x="377" y="-715.213" font-family="Helvetica,sans-Serif" font-size="10.00">main</text>
</a>
</g>
</g>
<!-- Node12&#45;&gt;Node13 -->
<g id="edge12" class="edge"><title>Node12&#45;&gt;Node13</title>
<path fill="none" stroke="midnightblue" d="M274.347,-600.611C280.661,-605.547 287.065,-611.375 292,-617.713 316.201,-648.798 299.574,-671.438 328,-698.713 336.019,-706.408 347.531,-711.106 357.271,-713.905"/>
<polygon fill="midnightblue" stroke="midnightblue" points="276.078,-597.541 265.939,-594.467 271.948,-603.193 276.078,-597.541"/>
</g>
<!-- Node14 -->
<g id="node14" class="node"><title>Node14</title>
<g id="a_node14"><a xlink:href="../../dc/d11/getami_8c.html#aa654afe741816fa93d1cd7e49ef583ec" target="_top" xlink:title="find_most_used">
<polygon fill="white" stroke="black" points="331.5,-632.213 331.5,-651.213 422.5,-651.213 422.5,-632.213 331.5,-632.213"/>
<text text-anchor="middle" x="377" y="-639.213" font-family="Helvetica,sans-Serif" font-size="10.00">find_most_used</text>
</a>
</g>
</g>
<!-- Node12&#45;&gt;Node14 -->
<g id="edge14" class="edge"><title>Node12&#45;&gt;Node14</title>
<path fill="none" stroke="midnightblue" d="M277.836,-598.915C292.612,-606.291 311.152,-615.288 328,-622.713 335.381,-625.966 343.505,-629.28 350.937,-632.211"/>
<polygon fill="midnightblue" stroke="midnightblue" points="279.231,-595.699 268.725,-594.335 276.087,-601.954 279.231,-595.699"/>
</g>
<!-- Node16 -->
<g id="node16" class="node"><title>Node16</title>
<g id="a_node16"><a xlink:href="../../dc/d11/getami_8c.html#a3a79557c0de5078d1ea9206ce5eb3e77" target="_top" xlink:title="display_rle">
<polygon fill="white" stroke="black" points="343,-746.213 343,-765.213 411,-765.213 411,-746.213 343,-746.213"/>
<text text-anchor="middle" x="377" y="-753.213" font-family="Helvetica,sans-Serif" font-size="10.00">display_rle</text>
</a>
</g>
</g>
<!-- Node12&#45;&gt;Node16 -->
<g id="edge16" class="edge"><title>Node12&#45;&gt;Node16</title>
<path fill="none" stroke="midnightblue" d="M275.178,-600.46C281.394,-605.346 287.541,-611.185 292,-617.713 323.168,-663.34 290.586,-696.051 328,-736.713 332.005,-741.066 337.136,-744.437 342.545,-747.044"/>
<polygon fill="midnightblue" stroke="midnightblue" points="276.966,-597.434 266.811,-594.413 272.866,-603.107 276.966,-597.434"/>
</g>
<!-- Node17 -->
<g id="node17" class="node"><title>Node17</title>
<g id="a_node17"><a xlink:href="../../df/d69/pyrlib_8c.html#a0df7ee8b612e9251716158b046c62143" target="_top" xlink:title="rle_to_pyramids">
<polygon fill="white" stroke="black" points="331,-670.213 331,-689.213 423,-689.213 423,-670.213 331,-670.213"/>
<text text-anchor="middle" x="377" y="-677.213" font-family="Helvetica,sans-Serif" font-size="10.00">rle_to_pyramids</text>
</a>
</g>
</g>
<!-- Node12&#45;&gt;Node17 -->
<g id="edge19" class="edge"><title>Node12&#45;&gt;Node17</title>
<path fill="none" stroke="midnightblue" d="M271.908,-600.543C278.601,-605.738 285.82,-611.723 292,-617.713 309.896,-635.062 307.792,-646.123 328,-660.713 333.159,-664.438 339.149,-667.558 345.111,-670.123"/>
<polygon fill="midnightblue" stroke="midnightblue" points="273.92,-597.676 263.83,-594.443 269.701,-603.262 273.92,-597.676"/>
</g>
<!-- Node12&#45;&gt;Node18 -->
<g id="edge21" class="edge"><title>Node12&#45;&gt;Node18</title>
<path fill="none" stroke="midnightblue" d="M255.132,-565.181C264.464,-533.268 287.127,-469.794 328,-432.713 332.248,-428.859 337.372,-425.745 342.669,-423.241"/>
<polygon fill="midnightblue" stroke="midnightblue" points="251.693,-564.485 252.379,-575.058 258.436,-566.365 251.693,-564.485"/>
</g>
<!-- Node26 -->
<g id="node26" class="node"><title>Node26</title>
<g id="a_node26"><a xlink:href="../../d7/d7d/rleldmap_8c.html#a46c3c4a1e84c992d331d569094ab0cf2" target="_top" xlink:title="get_rle_map">
<polygon fill="white" stroke="black" points="339,-556.213 339,-575.213 415,-575.213 415,-556.213 339,-556.213"/>
<text text-anchor="middle" x="377" y="-563.213" font-family="Helvetica,sans-Serif" font-size="10.00">get_rle_map</text>
</a>
</g>
</g>
<!-- Node12&#45;&gt;Node26 -->
<g id="edge31" class="edge"><title>Node12&#45;&gt;Node26</title>
<path fill="none" stroke="midnightblue" d="M299.737,-577.213C312.742,-575.252 326.537,-573.172 338.767,-571.328"/>
<polygon fill="midnightblue" stroke="midnightblue" points="298.888,-573.802 289.521,-578.754 299.932,-580.723 298.888,-573.802"/>
</g>
<!-- Node27 -->
<g id="node27" class="node"><title>Node27</title>
<g id="a_node27"><a xlink:href="../../da/d04/rlestereo_8c.html#af7f5a992a89fd5f1d23a0e2de4a05bcd" target="_top" xlink:title="get_rle_setup">
<polygon fill="white" stroke="black" points="336.5,-518.213 336.5,-537.213 417.5,-537.213 417.5,-518.213 336.5,-518.213"/>
<text text-anchor="middle" x="377" y="-525.213" font-family="Helvetica,sans-Serif" font-size="10.00">get_rle_setup</text>
</a>
</g>
</g>
<!-- Node12&#45;&gt;Node27 -->
<g id="edge32" class="edge"><title>Node12&#45;&gt;Node27</title>
<path fill="none" stroke="midnightblue" d="M277.836,-570.511C292.612,-563.136 311.152,-554.138 328,-546.713 335.381,-543.46 343.505,-540.146 350.937,-537.216"/>
<polygon fill="midnightblue" stroke="midnightblue" points="276.087,-567.473 268.725,-575.091 279.231,-573.727 276.087,-567.473"/>
</g>
<!-- Node28 -->
<g id="node28" class="node"><title>Node28</title>
<g id="a_node28"><a xlink:href="../../d1/d55/rletoppm_8c.html#a613466880d5af08f3e98a3d2068ce8bc" target="_top" xlink:title="read_rle_header">
<polygon fill="white" stroke="black" points="329,-594.213 329,-613.213 425,-613.213 425,-594.213 329,-594.213"/>
<text text-anchor="middle" x="377" y="-601.213" font-family="Helvetica,sans-Serif" font-size="10.00">read_rle_header</text>
</a>
</g>
</g>
<!-- Node12&#45;&gt;Node28 -->
<g id="edge33" class="edge"><title>Node12&#45;&gt;Node28</title>
<path fill="none" stroke="midnightblue" d="M299.67,-592.203C309.218,-593.643 319.193,-595.147 328.665,-596.575"/>
<polygon fill="midnightblue" stroke="midnightblue" points="299.932,-588.703 289.521,-590.673 298.888,-595.625 299.932,-588.703"/>
</g>
<!-- Node15 -->
<g id="node15" class="node"><title>Node15</title>
<g id="a_node15"><a xlink:href="../../dc/d11/getami_8c.html#a7be6d508b8d11374d4aef0a66817d9f0" target="_top" xlink:title="main">
<polygon fill="white" stroke="black" points="479,-689.213 479,-708.213 518,-708.213 518,-689.213 479,-689.213"/>
<text text-anchor="middle" x="498.5" y="-696.213" font-family="Helvetica,sans-Serif" font-size="10.00">main</text>
</a>
</g>
</g>
<!-- Node14&#45;&gt;Node15 -->
<g id="edge15" class="edge"><title>Node14&#45;&gt;Node15</title>
<path fill="none" stroke="midnightblue" d="M413.093,-655.078C417.471,-656.899 421.861,-658.801 426,-660.713 445.143,-669.555 466.4,-681.082 480.722,-689.111"/>
<polygon fill="midnightblue" stroke="midnightblue" points="414.216,-651.756 403.633,-651.248 411.589,-658.245 414.216,-651.756"/>
</g>
<!-- Node16&#45;&gt;Node15 -->
<g id="edge17" class="edge"><title>Node16&#45;&gt;Node15</title>
<path fill="none" stroke="midnightblue" d="M413.093,-742.349C417.471,-740.528 421.861,-738.625 426,-736.713 445.143,-727.871 466.4,-716.345 480.722,-708.315"/>
<polygon fill="midnightblue" stroke="midnightblue" points="411.589,-739.182 403.633,-746.178 414.216,-745.67 411.589,-739.182"/>
</g>
<!-- Node18&#45;&gt;Node7 -->
<g id="edge25" class="edge"><title>Node18&#45;&gt;Node7</title>
<path fill="none" stroke="midnightblue" d="M413.968,-399.008C418.322,-396.314 422.47,-393.224 426,-389.713 451.088,-364.766 437.261,-344.006 462,-318.713 465.617,-315.015 470.109,-311.867 474.668,-309.261"/>
<polygon fill="midnightblue" stroke="midnightblue" points="411.965,-396.114 404.873,-403.985 415.326,-402.254 411.965,-396.114"/>
</g>
<!-- Node18&#45;&gt;Node10 -->
<g id="edge26" class="edge"><title>Node18&#45;&gt;Node10</title>
<path fill="none" stroke="midnightblue" d="M394.674,-396.335C404.543,-385.493 416.86,-370.937 426,-356.713 446.205,-325.269 436.227,-307.782 462,-280.713 465.471,-277.068 469.797,-273.97 474.224,-271.401"/>
<polygon fill="midnightblue" stroke="midnightblue" points="391.946,-394.129 387.698,-403.835 397.072,-398.897 391.946,-394.129"/>
</g>
<!-- Node19 -->
<g id="node19" class="node"><title>Node19</title>
<g id="a_node19"><a xlink:href="../../d2/db1/getbob_8c.html#a0708a0954f39ecdc7aa901286295ad01" target="_top" xlink:title="main">
<polygon fill="white" stroke="black" points="479,-442.213 479,-461.213 518,-461.213 518,-442.213 479,-442.213"/>
<text text-anchor="middle" x="498.5" y="-449.213" font-family="Helvetica,sans-Serif" font-size="10.00">main</text>
</a>
</g>
</g>
<!-- Node18&#45;&gt;Node19 -->
<g id="edge22" class="edge"><title>Node18&#45;&gt;Node19</title>
<path fill="none" stroke="midnightblue" d="M417.932,-426.411C438.532,-432.962 462.675,-440.639 478.918,-445.804"/>
<polygon fill="midnightblue" stroke="midnightblue" points="418.745,-422.997 408.155,-423.302 416.624,-429.668 418.745,-422.997"/>
</g>
<!-- Node20 -->
<g id="node20" class="node"><title>Node20</title>
<g id="a_node20"><a xlink:href="../../dc/d7d/getmex_8c.html#ae0bd10121c9d36b3e835d5fee4c1476d" target="_top" xlink:title="get_pic">
<polygon fill="white" stroke="black" points="473,-404.213 473,-423.213 524,-423.213 524,-404.213 473,-404.213"/>
<text text-anchor="middle" x="498.5" y="-411.213" font-family="Helvetica,sans-Serif" font-size="10.00">get_pic</text>
</a>
</g>
</g>
<!-- Node18&#45;&gt;Node20 -->
<g id="edge23" class="edge"><title>Node18&#45;&gt;Node20</title>
<path fill="none" stroke="midnightblue" d="M436.451,-413.713C449.235,-413.713 462.098,-413.713 472.698,-413.713"/>
<polygon fill="midnightblue" stroke="midnightblue" points="436.261,-410.213 426.261,-413.713 436.261,-417.213 436.261,-410.213"/>
</g>
<!-- Node22 -->
<g id="node22" class="node"><title>Node22</title>
<g id="a_node22"><a xlink:href="../../d6/d10/rletoalias_8c.html#a86cf5e03c7b351c5a62a6951d179f6a5" target="_top" xlink:title="read_rle">
<polygon fill="white" stroke="black" points="470.5,-366.213 470.5,-385.213 526.5,-385.213 526.5,-366.213 470.5,-366.213"/>
<text text-anchor="middle" x="498.5" y="-373.213" font-family="Helvetica,sans-Serif" font-size="10.00">read_rle</text>
</a>
</g>
</g>
<!-- Node18&#45;&gt;Node22 -->
<g id="edge27" class="edge"><title>Node18&#45;&gt;Node22</title>
<path fill="none" stroke="midnightblue" d="M417.932,-401.015C435.107,-395.553 454.746,-389.309 470.215,-384.389"/>
<polygon fill="midnightblue" stroke="midnightblue" points="416.624,-397.758 408.155,-404.124 418.745,-404.429 416.624,-397.758"/>
</g>
<!-- Node23 -->
<g id="node23" class="node"><title>Node23</title>
<g id="a_node23"><a xlink:href="../../d5/da8/rletovcr_8c.html#aba26f4d31d659f02d1106070249cda49" target="_top" xlink:title="read_image">
<polygon fill="white" stroke="black" points="462,-328.213 462,-347.213 535,-347.213 535,-328.213 462,-328.213"/>
<text text-anchor="middle" x="498.5" y="-335.213" font-family="Helvetica,sans-Serif" font-size="10.00">read_image</text>
</a>
</g>
</g>
<!-- Node18&#45;&gt;Node23 -->
<g id="edge28" class="edge"><title>Node18&#45;&gt;Node23</title>
<path fill="none" stroke="midnightblue" d="M409.544,-399.521C415.184,-396.545 420.887,-393.232 426,-389.713 443.88,-377.407 444.293,-369.266 462,-356.713 466.79,-353.317 472.259,-350.104 477.445,-347.32"/>
<polygon fill="midnightblue" stroke="midnightblue" points="407.602,-396.579 400.229,-404.188 410.738,-402.838 407.602,-396.579"/>
</g>
<!-- Node18&#45;&gt;Node25 -->
<g id="edge30" class="edge"><title>Node18&#45;&gt;Node25</title>
<path fill="none" stroke="midnightblue" d="M396.239,-396.617C406.46,-386.053 418.602,-371.687 426,-356.713 454.81,-298.398 488.611,-90.4256 496.018,-43.2689"/>
<polygon fill="midnightblue" stroke="midnightblue" points="393.534,-394.371 388.908,-403.902 398.468,-399.336 393.534,-394.371"/>
</g>
<!-- Node21 -->
<g id="node21" class="node"><title>Node21</title>
<g id="a_node21"><a xlink:href="../../dc/d7d/getmex_8c.html#a2e1c56207484e456874379d624fc0e67" target="_top" xlink:title="main">
<polygon fill="white" stroke="black" points="582.5,-404.213 582.5,-423.213 621.5,-423.213 621.5,-404.213 582.5,-404.213"/>
<text text-anchor="middle" x="602" y="-411.213" font-family="Helvetica,sans-Serif" font-size="10.00">main</text>
</a>
</g>
</g>
<!-- Node20&#45;&gt;Node21 -->
<g id="edge24" class="edge"><title>Node20&#45;&gt;Node21</title>
<path fill="none" stroke="midnightblue" d="M534.252,-413.713C550.393,-413.713 568.94,-413.713 582.38,-413.713"/>
<polygon fill="midnightblue" stroke="midnightblue" points="534.07,-410.213 524.07,-413.713 534.07,-417.213 534.07,-410.213"/>
</g>
<!-- Node24 -->
<g id="node24" class="node"><title>Node24</title>
<g id="a_node24"><a xlink:href="../../d5/da8/rletovcr_8c.html#afced8478b91af5c169926dfa4426333d" target="_top" xlink:title="main">
<polygon fill="white" stroke="black" points="582.5,-328.213 582.5,-347.213 621.5,-347.213 621.5,-328.213 582.5,-328.213"/>
<text text-anchor="middle" x="602" y="-335.213" font-family="Helvetica,sans-Serif" font-size="10.00">main</text>
</a>
</g>
</g>
<!-- Node23&#45;&gt;Node24 -->
<g id="edge29" class="edge"><title>Node23&#45;&gt;Node24</title>
<path fill="none" stroke="midnightblue" d="M545.546,-337.713C558.534,-337.713 571.936,-337.713 582.31,-337.713"/>
<polygon fill="midnightblue" stroke="midnightblue" points="545.285,-334.213 535.285,-337.713 545.285,-341.213 545.285,-334.213"/>
</g>
<!-- Node29 -->
<g id="node29" class="node"><title>Node29</title>
<g id="a_node29"><a xlink:href="../../d1/d55/rletoppm_8c.html#a3c04138a5bfe5d72780bb7e82a18e627" target="_top" xlink:title="main">
<polygon fill="white" stroke="black" points="479,-594.213 479,-613.213 518,-613.213 518,-594.213 479,-594.213"/>
<text text-anchor="middle" x="498.5" y="-601.213" font-family="Helvetica,sans-Serif" font-size="10.00">main</text>
</a>
</g>
</g>
<!-- Node28&#45;&gt;Node29 -->
<g id="edge34" class="edge"><title>Node28&#45;&gt;Node29</title>
<path fill="none" stroke="midnightblue" d="M435.48,-603.713C451.193,-603.713 467.116,-603.713 478.894,-603.713"/>
<polygon fill="midnightblue" stroke="midnightblue" points="435.23,-600.213 425.23,-603.713 435.23,-607.213 435.23,-600.213"/>
</g>
<!-- Node30&#45;&gt;Node25 -->
<g id="edge50" class="edge"><title>Node30&#45;&gt;Node25</title>
<path fill="none" stroke="midnightblue" d="M144.703,-128.749C154.982,-106.206 175.504,-69.5263 206,-52.7132 292.604,-4.96631 416.405,-18.9347 470.487,-28.3025"/>
<polygon fill="midnightblue" stroke="midnightblue" points="141.463,-127.423 140.702,-137.99 147.887,-130.204 141.463,-127.423"/>
</g>
<!-- Node31 -->
<g id="node31" class="node"><title>Node31</title>
<g id="a_node31"><a xlink:href="../../d6/dcb/avg4_8c.html#ade521a0600ded19f1720b6f6df59b480" target="_top" xlink:title="main">
<polygon fill="white" stroke="black" points="229.5,-62.2132 229.5,-81.2132 268.5,-81.2132 268.5,-62.2132 229.5,-62.2132"/>
<text text-anchor="middle" x="249" y="-69.2132" font-family="Helvetica,sans-Serif" font-size="10.00">main</text>
</a>
</g>
</g>
<!-- Node30&#45;&gt;Node31 -->
<g id="edge37" class="edge"><title>Node30&#45;&gt;Node31</title>
<path fill="none" stroke="midnightblue" d="M154.601,-130.929C167.978,-118.75 187.221,-102.425 206,-90.7132 213.334,-86.1392 221.955,-82.043 229.472,-78.8354"/>
<polygon fill="midnightblue" stroke="midnightblue" points="152.039,-128.531 147.087,-137.898 156.799,-133.664 152.039,-128.531"/>
</g>
<!-- Node32 -->
<g id="node32" class="node"><title>Node32</title>
<g id="a_node32"><a xlink:href="../../df/d69/pyrlib_8c.html#a8ea97ad59589726a4ef46f30e636d1c5" target="_top" xlink:title="dump_pyramid">
<polygon fill="white" stroke="black" points="206,-138.213 206,-157.213 292,-157.213 292,-138.213 206,-138.213"/>
<text text-anchor="middle" x="249" y="-145.213" font-family="Helvetica,sans-Serif" font-size="10.00">dump_pyramid</text>
</a>
</g>
</g>
<!-- Node30&#45;&gt;Node32 -->
<g id="edge38" class="edge"><title>Node30&#45;&gt;Node32</title>
<path fill="none" stroke="midnightblue" d="M180.072,-147.713C188.538,-147.713 197.412,-147.713 205.848,-147.713"/>
<polygon fill="midnightblue" stroke="midnightblue" points="180.003,-144.213 170.003,-147.713 180.003,-151.213 180.003,-144.213"/>
</g>
<!-- Node33 -->
<g id="node33" class="node"><title>Node33</title>
<g id="a_node33"><a xlink:href="../../d2/df3/rle__hdr_8c.html#a8ba0e5b11d1e39ab7227f1686e676c86" target="_top" xlink:title="rle_hdr_init">
<polygon fill="white" stroke="black" points="214,-290.213 214,-309.213 284,-309.213 284,-290.213 214,-290.213"/>
<text text-anchor="middle" x="249" y="-297.213" font-family="Helvetica,sans-Serif" font-size="10.00">rle_hdr_init</text>
</a>
</g>
</g>
<!-- Node30&#45;&gt;Node33 -->
<g id="edge39" class="edge"><title>Node30&#45;&gt;Node33</title>
<path fill="none" stroke="midnightblue" d="M153.568,-165.424C179.32,-197.785 227.603,-264.563 243.087,-289.993"/>
<polygon fill="midnightblue" stroke="midnightblue" points="156.261,-163.189 147.244,-157.627 150.825,-167.598 156.261,-163.189"/>
</g>
<!-- Node35 -->
<g id="node35" class="node"><title>Node35</title>
<g id="a_node35"><a xlink:href="../../dc/d5c/rlequant_8c.html#a2d0b301e0b946a4cc922dbd1e2d49ccf" target="_top" xlink:title="copy_hdr">
<polygon fill="white" stroke="black" points="218.5,-100.213 218.5,-119.213 279.5,-119.213 279.5,-100.213 218.5,-100.213"/>
<text text-anchor="middle" x="249" y="-107.213" font-family="Helvetica,sans-Serif" font-size="10.00">copy_hdr</text>
</a>
</g>
</g>
<!-- Node30&#45;&gt;Node35 -->
<g id="edge49" class="edge"><title>Node30&#45;&gt;Node35</title>
<path fill="none" stroke="midnightblue" d="M174.891,-134.741C189.68,-129.679 206.329,-123.979 219.999,-119.299"/>
<polygon fill="midnightblue" stroke="midnightblue" points="173.337,-131.574 165.01,-138.124 175.605,-138.197 173.337,-131.574"/>
</g>
<!-- Node33&#45;&gt;Node2 -->
<g id="edge40" class="edge"><title>Node33&#45;&gt;Node2</title>
<path fill="none" stroke="midnightblue" d="M291.638,-312.271C313.772,-318.946 339.896,-326.825 357.145,-332.027"/>
<polygon fill="midnightblue" stroke="midnightblue" points="292.38,-308.839 281.795,-309.302 290.359,-315.541 292.38,-308.839"/>
</g>
<!-- Node33&#45;&gt;Node3 -->
<g id="edge41" class="edge"><title>Node33&#45;&gt;Node3</title>
<path fill="none" stroke="midnightblue" d="M253.869,-319.217C261.773,-354.194 282.964,-427.919 328,-470.713 334.497,-476.887 343.242,-481.136 351.488,-484.023"/>
<polygon fill="midnightblue" stroke="midnightblue" points="257.265,-318.361 251.757,-309.311 250.419,-319.821 257.265,-318.361"/>
</g>
<!-- Node33&#45;&gt;Node5 -->
<g id="edge42" class="edge"><title>Node33&#45;&gt;Node5</title>
<path fill="none" stroke="midnightblue" d="M256.709,-319.203C267.483,-347.816 291.237,-401.2 328,-432.713 334.26,-438.079 342.22,-442.042 349.85,-444.918"/>
<polygon fill="midnightblue" stroke="midnightblue" points="259.909,-317.76 253.215,-309.548 253.327,-320.142 259.909,-317.76"/>
</g>
<!-- Node33&#45;&gt;Node7 -->
<g id="edge43" class="edge"><title>Node33&#45;&gt;Node7</title>
<path fill="none" stroke="midnightblue" d="M294.18,-299.713C344.936,-299.713 426.7,-299.713 469.434,-299.713"/>
<polygon fill="midnightblue" stroke="midnightblue" points="294.154,-296.213 284.154,-299.713 294.154,-303.213 294.154,-296.213"/>
</g>
<!-- Node33&#45;&gt;Node9 -->
<g id="edge44" class="edge"><title>Node33&#45;&gt;Node9</title>
<path fill="none" stroke="midnightblue" d="M277.119,-284.97C282.144,-282.027 287.29,-278.867 292,-275.713 308.842,-264.434 310.852,-258.52 328,-247.713 336.355,-242.448 346.021,-237.428 354.479,-233.353"/>
<polygon fill="midnightblue" stroke="midnightblue" points="275.278,-281.99 268.325,-289.984 278.746,-288.071 275.278,-281.99"/>
</g>
<!-- Node33&#45;&gt;Node10 -->
<g id="edge45" class="edge"><title>Node33&#45;&gt;Node10</title>
<path fill="none" stroke="midnightblue" d="M294.123,-292.939C344.584,-285.191 425.745,-272.73 468.693,-266.136"/>
<polygon fill="midnightblue" stroke="midnightblue" points="293.507,-289.492 284.154,-294.469 294.569,-296.411 293.507,-289.492"/>
</g>
<!-- Node33&#45;&gt;Node18 -->
<g id="edge46" class="edge"><title>Node33&#45;&gt;Node18</title>
<path fill="none" stroke="midnightblue" d="M268.257,-316.232C294.936,-340.369 343.734,-384.52 365.285,-404.018"/>
<polygon fill="midnightblue" stroke="midnightblue" points="270.506,-313.547 260.743,-309.433 265.81,-318.737 270.506,-313.547"/>
</g>
<!-- Node33&#45;&gt;Node30 -->
<g id="edge47" class="edge"><title>Node33&#45;&gt;Node30</title>
<path fill="none" stroke="midnightblue" d="M231.491,-282.076C205.834,-249.844 157.709,-183.297 142.058,-157.671"/>
<polygon fill="midnightblue" stroke="midnightblue" points="228.773,-284.282 237.792,-289.842 234.209,-279.871 228.773,-284.282"/>
</g>
<!-- Node33&#45;&gt;Node34 -->
<g id="edge48" class="edge"><title>Node33&#45;&gt;Node34</title>
<path fill="none" stroke="midnightblue" d="M260.989,-281.331C274.426,-260.246 298.994,-225.868 328,-204.713 333.141,-200.964 339.123,-197.832 345.083,-195.265"/>
<polygon fill="midnightblue" stroke="midnightblue" points="257.917,-279.645 255.623,-289.988 263.867,-283.332 257.917,-279.645"/>
</g>
</g>
</svg>
