<?xml version="1.0" encoding="UTF-8" standalone="no"?>
<!DOCTYPE svg PUBLIC "-//W3C//DTD SVG 1.1//EN"
 "http://www.w3.org/Graphics/SVG/1.1/DTD/svg11.dtd">
<!-- Generated by graphviz version 2.38.0 (20140413.2041)
 -->
<!-- Title: rle_hdr_init Pages: 1 -->
<svg width="432pt" height="446pt"
 viewBox="0.00 0.00 432.00 446.00" xmlns="http://www.w3.org/2000/svg" xmlns:xlink="http://www.w3.org/1999/xlink">
<g id="graph0" class="graph" transform="scale(1 1) rotate(0) translate(4 442)">
<title>rle_hdr_init</title>
<polygon fill="white" stroke="none" points="-4,4 -4,-442 428,-442 428,4 -4,4"/>
<!-- Node1 -->
<g id="node1" class="node"><title>Node1</title>
<polygon fill="#bfbfbf" stroke="black" points="0,-247.5 0,-266.5 70,-266.5 70,-247.5 0,-247.5"/>
<text text-anchor="middle" x="35" y="-254.5" font-family="Helvetica,sans-Serif" font-size="10.00">rle_hdr_init</text>
</g>
<!-- Node2 -->
<g id="node2" class="node"><title>Node2</title>
<g id="a_node2"><a xlink:href="../../dd/dc5/prototypes_8h.html#a70db8bd1d499619f7ff9c1ca2ff3c8df" target="_top" xlink:title="main">
<polygon fill="white" stroke="black" points="135.5,-418.5 135.5,-437.5 174.5,-437.5 174.5,-418.5 135.5,-418.5"/>
<text text-anchor="middle" x="155" y="-425.5" font-family="Helvetica,sans-Serif" font-size="10.00">main</text>
</a>
</g>
</g>
<!-- Node1&#45;&gt;Node2 -->
<g id="edge1" class="edge"><title>Node1&#45;&gt;Node2</title>
<path fill="none" stroke="midnightblue" d="M40.0296,-276.514C47.5748,-308.4 66.7461,-371.835 106,-409 114.07,-416.641 125.584,-421.337 135.312,-424.149"/>
<polygon fill="midnightblue" stroke="midnightblue" points="43.4221,-275.645 37.8318,-266.645 36.5895,-277.167 43.4221,-275.645"/>
</g>
<!-- Node3 -->
<g id="node3" class="node"><title>Node3</title>
<g id="a_node3"><a xlink:href="../../d3/d46/get4d_8c.html#af1e5f57fa511be9fa99aee630ceba576" target="_top" xlink:title="get_pic">
<polygon fill="white" stroke="black" points="129.5,-380.5 129.5,-399.5 180.5,-399.5 180.5,-380.5 129.5,-380.5"/>
<text text-anchor="middle" x="155" y="-387.5" font-family="Helvetica,sans-Serif" font-size="10.00">get_pic</text>
</a>
</g>
</g>
<!-- Node1&#45;&gt;Node3 -->
<g id="edge2" class="edge"><title>Node1&#45;&gt;Node3</title>
<path fill="none" stroke="midnightblue" d="M43.241,-276.166C53.5928,-301.188 74.8751,-344.863 106,-371 112.726,-376.648 121.337,-380.756 129.403,-383.676"/>
<polygon fill="midnightblue" stroke="midnightblue" points="46.4215,-274.692 39.4769,-266.691 39.9159,-277.276 46.4215,-274.692"/>
</g>
<!-- Node5 -->
<g id="node5" class="node"><title>Node5</title>
<g id="a_node5"><a xlink:href="../../d9/dea/getcx3d_8c.html#ac43e38fef452c4a15d14abb67019a1b5" target="_top" xlink:title="getcx3d">
<polygon fill="white" stroke="black" points="128,-342.5 128,-361.5 182,-361.5 182,-342.5 128,-342.5"/>
<text text-anchor="middle" x="155" y="-349.5" font-family="Helvetica,sans-Serif" font-size="10.00">getcx3d</text>
</a>
</g>
</g>
<!-- Node1&#45;&gt;Node5 -->
<g id="edge4" class="edge"><title>Node1&#45;&gt;Node5</title>
<path fill="none" stroke="midnightblue" d="M50.323,-274.504C63.599,-289.953 84.4913,-312.381 106,-328 113.69,-333.584 122.872,-338.528 131.136,-342.456"/>
<polygon fill="midnightblue" stroke="midnightblue" points="52.8935,-272.123 43.7755,-266.728 47.5387,-276.632 52.8935,-272.123"/>
</g>
<!-- Node7 -->
<g id="node7" class="node"><title>Node7</title>
<g id="a_node7"><a xlink:href="../../d6/d28/gettaac_8c.html#ac6597f5cb5e1205e800704d584f65e68" target="_top" xlink:title="read_file">
<polygon fill="white" stroke="black" points="254,-342.5 254,-361.5 312,-361.5 312,-342.5 254,-342.5"/>
<text text-anchor="middle" x="283" y="-349.5" font-family="Helvetica,sans-Serif" font-size="10.00">read_file</text>
</a>
</g>
</g>
<!-- Node1&#45;&gt;Node7 -->
<g id="edge6" class="edge"><title>Node1&#45;&gt;Node7</title>
<path fill="none" stroke="midnightblue" d="M58.7577,-272.15C72.1135,-280.572 89.5503,-290.777 106,-298 156.334,-320.103 218.481,-336.882 253.846,-345.513"/>
<polygon fill="midnightblue" stroke="midnightblue" points="60.5297,-269.129 50.2257,-266.664 56.7435,-275.016 60.5297,-269.129"/>
</g>
<!-- Node9 -->
<g id="node9" class="node"><title>Node9</title>
<g id="a_node9"><a xlink:href="../../d1/dad/giftorle_8c.html#a4a32ad17d41944729fd2ecacccf68d07" target="_top" xlink:title="ReadRaster">
<polygon fill="white" stroke="black" points="118,-114.5 118,-133.5 192,-133.5 192,-114.5 118,-114.5"/>
<text text-anchor="middle" x="155" y="-121.5" font-family="Helvetica,sans-Serif" font-size="10.00">ReadRaster</text>
</a>
</g>
</g>
<!-- Node1&#45;&gt;Node9 -->
<g id="edge8" class="edge"><title>Node1&#45;&gt;Node9</title>
<path fill="none" stroke="midnightblue" d="M43.241,-237.834C53.5928,-212.812 74.8751,-169.137 106,-143 110.53,-139.196 115.914,-136.091 121.412,-133.576"/>
<polygon fill="midnightblue" stroke="midnightblue" points="39.9159,-236.724 39.4769,-247.309 46.4215,-239.308 39.9159,-236.724"/>
</g>
<!-- Node10 -->
<g id="node10" class="node"><title>Node10</title>
<g id="a_node10"><a xlink:href="../../dd/d78/rle_8c.html#a478b503fdb4cd225b8220ac26c163ba7" target="_top" xlink:title="rasterInit">
<polygon fill="white" stroke="black" points="253.5,-304.5 253.5,-323.5 312.5,-323.5 312.5,-304.5 253.5,-304.5"/>
<text text-anchor="middle" x="283" y="-311.5" font-family="Helvetica,sans-Serif" font-size="10.00">rasterInit</text>
</a>
</g>
</g>
<!-- Node1&#45;&gt;Node10 -->
<g id="edge9" class="edge"><title>Node1&#45;&gt;Node10</title>
<path fill="none" stroke="midnightblue" d="M80.1266,-267.224C130.326,-278.856 210.841,-297.512 253.435,-307.381"/>
<polygon fill="midnightblue" stroke="midnightblue" points="80.7372,-263.773 70.2052,-264.926 79.1571,-270.593 80.7372,-263.773"/>
</g>
<!-- Node11 -->
<g id="node11" class="node"><title>Node11</title>
<g id="a_node11"><a xlink:href="../../db/d53/rle__getrow_8c.html#a2d56ca99b896abbcb4d2f3f97c93a3ce" target="_top" xlink:title="rle_get_setup_ok">
<polygon fill="white" stroke="black" points="106,-228.5 106,-247.5 204,-247.5 204,-228.5 106,-228.5"/>
<text text-anchor="middle" x="155" y="-235.5" font-family="Helvetica,sans-Serif" font-size="10.00">rle_get_setup_ok</text>
</a>
</g>
</g>
<!-- Node1&#45;&gt;Node11 -->
<g id="edge10" class="edge"><title>Node1&#45;&gt;Node11</title>
<path fill="none" stroke="midnightblue" d="M80.125,-249.895C88.5353,-248.541 97.377,-247.117 105.904,-245.744"/>
<polygon fill="midnightblue" stroke="midnightblue" points="79.4469,-246.459 70.1305,-251.504 80.5597,-253.37 79.4469,-246.459"/>
</g>
<!-- Node19 -->
<g id="node19" class="node"><title>Node19</title>
<g id="a_node19"><a xlink:href="../../d2/df3/rle__hdr_8c.html#afc916e29aea8788e0878ca315ff69821" target="_top" xlink:title="rle_hdr_cp">
<polygon fill="white" stroke="black" points="121,-152.5 121,-171.5 189,-171.5 189,-152.5 121,-152.5"/>
<text text-anchor="middle" x="155" y="-159.5" font-family="Helvetica,sans-Serif" font-size="10.00">rle_hdr_cp</text>
</a>
</g>
</g>
<!-- Node1&#45;&gt;Node19 -->
<g id="edge20" class="edge"><title>Node1&#45;&gt;Node19</title>
<path fill="none" stroke="midnightblue" d="M51.0887,-240.162C72.7769,-220.071 112.703,-187.816 135.934,-171.52"/>
<polygon fill="midnightblue" stroke="midnightblue" points="48.537,-237.759 43.7423,-247.207 53.3822,-242.811 48.537,-237.759"/>
</g>
<!-- Node23 -->
<g id="node23" class="node"><title>Node23</title>
<g id="a_node23"><a xlink:href="../../d5/dd9/rleClock_8c.html#a029cc0b8bfeacc031dd11bd48caf3a2d" target="_top" xlink:title="rasterWrite">
<polygon fill="white" stroke="black" points="120.5,-76.5 120.5,-95.5 189.5,-95.5 189.5,-76.5 120.5,-76.5"/>
<text text-anchor="middle" x="155" y="-83.5" font-family="Helvetica,sans-Serif" font-size="10.00">rasterWrite</text>
</a>
</g>
</g>
<!-- Node1&#45;&gt;Node23 -->
<g id="edge26" class="edge"><title>Node1&#45;&gt;Node23</title>
<path fill="none" stroke="midnightblue" d="M40.0296,-237.486C47.5748,-205.6 66.7461,-142.165 106,-105 110.035,-101.18 114.931,-98.0954 120.034,-95.6146"/>
<polygon fill="midnightblue" stroke="midnightblue" points="36.5895,-236.833 37.8318,-247.355 43.4221,-238.355 36.5895,-236.833"/>
</g>
<!-- Node4 -->
<g id="node4" class="node"><title>Node4</title>
<g id="a_node4"><a xlink:href="../../d3/d46/get4d_8c.html#a2e1c56207484e456874379d624fc0e67" target="_top" xlink:title="main">
<polygon fill="white" stroke="black" points="263.5,-418.5 263.5,-437.5 302.5,-437.5 302.5,-418.5 263.5,-418.5"/>
<text text-anchor="middle" x="283" y="-425.5" font-family="Helvetica,sans-Serif" font-size="10.00">main</text>
</a>
</g>
</g>
<!-- Node3&#45;&gt;Node4 -->
<g id="edge3" class="edge"><title>Node3&#45;&gt;Node4</title>
<path fill="none" stroke="midnightblue" d="M190.192,-400.312C213.684,-407.397 243.986,-416.536 263.212,-422.334"/>
<polygon fill="midnightblue" stroke="midnightblue" points="191.178,-396.954 180.593,-397.417 189.157,-403.655 191.178,-396.954"/>
</g>
<!-- Node6 -->
<g id="node6" class="node"><title>Node6</title>
<g id="a_node6"><a xlink:href="../../d9/dea/getcx3d_8c.html#a0708a0954f39ecdc7aa901286295ad01" target="_top" xlink:title="main">
<polygon fill="white" stroke="black" points="263.5,-380.5 263.5,-399.5 302.5,-399.5 302.5,-380.5 263.5,-380.5"/>
<text text-anchor="middle" x="283" y="-387.5" font-family="Helvetica,sans-Serif" font-size="10.00">main</text>
</a>
</g>
</g>
<!-- Node5&#45;&gt;Node6 -->
<g id="edge5" class="edge"><title>Node5&#45;&gt;Node6</title>
<path fill="none" stroke="midnightblue" d="M191.979,-362.851C215.235,-369.865 244.551,-378.706 263.29,-384.357"/>
<polygon fill="midnightblue" stroke="midnightblue" points="192.692,-359.41 182.107,-359.874 190.671,-366.112 192.692,-359.41"/>
</g>
<!-- Node8 -->
<g id="node8" class="node"><title>Node8</title>
<g id="a_node8"><a xlink:href="../../d6/d28/gettaac_8c.html#a4f03a057a0e8afba60fcb95a988c80d1" target="_top" xlink:title="init_panel">
<polygon fill="white" stroke="black" points="362,-342.5 362,-361.5 424,-361.5 424,-342.5 362,-342.5"/>
<text text-anchor="middle" x="393" y="-349.5" font-family="Helvetica,sans-Serif" font-size="10.00">init_panel</text>
</a>
</g>
</g>
<!-- Node7&#45;&gt;Node8 -->
<g id="edge7" class="edge"><title>Node7&#45;&gt;Node8</title>
<path fill="none" stroke="midnightblue" d="M322.162,-352C335.155,-352 349.49,-352 361.775,-352"/>
<polygon fill="midnightblue" stroke="midnightblue" points="322.094,-348.5 312.094,-352 322.094,-355.5 322.094,-348.5"/>
</g>
<!-- Node11&#45;&gt;Node7 -->
<g id="edge14" class="edge"><title>Node11&#45;&gt;Node7</title>
<path fill="none" stroke="midnightblue" d="M170.211,-255.792C189.734,-279.923 224.224,-321.356 240,-333 244.894,-336.612 250.584,-339.754 256.165,-342.386"/>
<polygon fill="midnightblue" stroke="midnightblue" points="172.753,-253.369 163.757,-247.772 167.299,-257.757 172.753,-253.369"/>
</g>
<!-- Node11&#45;&gt;Node10 -->
<g id="edge15" class="edge"><title>Node11&#45;&gt;Node10</title>
<path fill="none" stroke="midnightblue" d="M187.544,-252.192C193.184,-255.168 198.887,-258.481 204,-262 221.88,-274.306 221.885,-283.044 240,-295 245.343,-298.527 251.449,-301.705 257.318,-304.408"/>
<polygon fill="midnightblue" stroke="midnightblue" points="188.738,-248.875 178.229,-247.525 185.602,-255.134 188.738,-248.875"/>
</g>
<!-- Node12 -->
<g id="node12" class="node"><title>Node12</title>
<g id="a_node12"><a xlink:href="../../d2/db1/getbob_8c.html#a0708a0954f39ecdc7aa901286295ad01" target="_top" xlink:title="main">
<polygon fill="white" stroke="black" points="263.5,-266.5 263.5,-285.5 302.5,-285.5 302.5,-266.5 263.5,-266.5"/>
<text text-anchor="middle" x="283" y="-273.5" font-family="Helvetica,sans-Serif" font-size="10.00">main</text>
</a>
</g>
</g>
<!-- Node11&#45;&gt;Node12 -->
<g id="edge11" class="edge"><title>Node11&#45;&gt;Node12</title>
<path fill="none" stroke="midnightblue" d="M197.638,-250.557C219.772,-257.233 245.896,-265.112 263.145,-270.314"/>
<polygon fill="midnightblue" stroke="midnightblue" points="198.38,-247.126 187.795,-247.589 196.359,-253.827 198.38,-247.126"/>
</g>
<!-- Node13 -->
<g id="node13" class="node"><title>Node13</title>
<g id="a_node13"><a xlink:href="../../dc/d7d/getmex_8c.html#ae0bd10121c9d36b3e835d5fee4c1476d" target="_top" xlink:title="get_pic">
<polygon fill="white" stroke="black" points="257.5,-228.5 257.5,-247.5 308.5,-247.5 308.5,-228.5 257.5,-228.5"/>
<text text-anchor="middle" x="283" y="-235.5" font-family="Helvetica,sans-Serif" font-size="10.00">get_pic</text>
</a>
</g>
</g>
<!-- Node11&#45;&gt;Node13 -->
<g id="edge12" class="edge"><title>Node11&#45;&gt;Node13</title>
<path fill="none" stroke="midnightblue" d="M214.641,-238C229.637,-238 244.963,-238 257.2,-238"/>
<polygon fill="midnightblue" stroke="midnightblue" points="214.355,-234.5 204.355,-238 214.355,-241.5 214.355,-234.5"/>
</g>
<!-- Node15 -->
<g id="node15" class="node"><title>Node15</title>
<g id="a_node15"><a xlink:href="../../d6/d10/rletoalias_8c.html#a86cf5e03c7b351c5a62a6951d179f6a5" target="_top" xlink:title="read_rle">
<polygon fill="white" stroke="black" points="255,-190.5 255,-209.5 311,-209.5 311,-190.5 255,-190.5"/>
<text text-anchor="middle" x="283" y="-197.5" font-family="Helvetica,sans-Serif" font-size="10.00">read_rle</text>
</a>
</g>
</g>
<!-- Node11&#45;&gt;Node15 -->
<g id="edge16" class="edge"><title>Node11&#45;&gt;Node15</title>
<path fill="none" stroke="midnightblue" d="M197.37,-225.523C216.277,-219.821 238.143,-213.227 254.912,-208.169"/>
<polygon fill="midnightblue" stroke="midnightblue" points="196.359,-222.173 187.795,-228.411 198.38,-228.874 196.359,-222.173"/>
</g>
<!-- Node16 -->
<g id="node16" class="node"><title>Node16</title>
<g id="a_node16"><a xlink:href="../../d5/da8/rletovcr_8c.html#aba26f4d31d659f02d1106070249cda49" target="_top" xlink:title="read_image">
<polygon fill="white" stroke="black" points="246.5,-152.5 246.5,-171.5 319.5,-171.5 319.5,-152.5 246.5,-152.5"/>
<text text-anchor="middle" x="283" y="-159.5" font-family="Helvetica,sans-Serif" font-size="10.00">read_image</text>
</a>
</g>
</g>
<!-- Node11&#45;&gt;Node16 -->
<g id="edge17" class="edge"><title>Node11&#45;&gt;Node16</title>
<path fill="none" stroke="midnightblue" d="M177.064,-222.218C193.675,-210.143 217.685,-193.497 240,-181 246.005,-177.637 252.715,-174.389 258.979,-171.559"/>
<polygon fill="midnightblue" stroke="midnightblue" points="174.638,-219.657 168.654,-228.401 178.784,-225.297 174.638,-219.657"/>
</g>
<!-- Node18 -->
<g id="node18" class="node"><title>Node18</title>
<g id="a_node18"><a xlink:href="../../df/dfb/unslice_8c.html#a7090aec632931a42b5d606b6db234b9d" target="_top" xlink:title="do_slice">
<polygon fill="white" stroke="black" points="255,-114.5 255,-133.5 311,-133.5 311,-114.5 255,-114.5"/>
<text text-anchor="middle" x="283" y="-121.5" font-family="Helvetica,sans-Serif" font-size="10.00">do_slice</text>
</a>
</g>
</g>
<!-- Node11&#45;&gt;Node18 -->
<g id="edge19" class="edge"><title>Node11&#45;&gt;Node18</title>
<path fill="none" stroke="midnightblue" d="M170.84,-220.429C192.72,-194.647 231.923,-148.961 240,-143 244.894,-139.388 250.584,-136.246 256.165,-133.614"/>
<polygon fill="midnightblue" stroke="midnightblue" points="167.946,-218.43 164.154,-228.324 173.288,-222.954 167.946,-218.43"/>
</g>
<!-- Node14 -->
<g id="node14" class="node"><title>Node14</title>
<g id="a_node14"><a xlink:href="../../dc/d7d/getmex_8c.html#a2e1c56207484e456874379d624fc0e67" target="_top" xlink:title="main">
<polygon fill="white" stroke="black" points="373.5,-228.5 373.5,-247.5 412.5,-247.5 412.5,-228.5 373.5,-228.5"/>
<text text-anchor="middle" x="393" y="-235.5" font-family="Helvetica,sans-Serif" font-size="10.00">main</text>
</a>
</g>
</g>
<!-- Node13&#45;&gt;Node14 -->
<g id="edge13" class="edge"><title>Node13&#45;&gt;Node14</title>
<path fill="none" stroke="midnightblue" d="M318.72,-238C336.847,-238 358.311,-238 373.307,-238"/>
<polygon fill="midnightblue" stroke="midnightblue" points="318.507,-234.5 308.507,-238 318.507,-241.5 318.507,-234.5"/>
</g>
<!-- Node17 -->
<g id="node17" class="node"><title>Node17</title>
<g id="a_node17"><a xlink:href="../../d5/da8/rletovcr_8c.html#afced8478b91af5c169926dfa4426333d" target="_top" xlink:title="main">
<polygon fill="white" stroke="black" points="373.5,-152.5 373.5,-171.5 412.5,-171.5 412.5,-152.5 373.5,-152.5"/>
<text text-anchor="middle" x="393" y="-159.5" font-family="Helvetica,sans-Serif" font-size="10.00">main</text>
</a>
</g>
</g>
<!-- Node16&#45;&gt;Node17 -->
<g id="edge18" class="edge"><title>Node16&#45;&gt;Node17</title>
<path fill="none" stroke="midnightblue" d="M330.016,-162C345.26,-162 361.372,-162 373.348,-162"/>
<polygon fill="midnightblue" stroke="midnightblue" points="329.663,-158.5 319.663,-162 329.663,-165.5 329.663,-158.5"/>
</g>
<!-- Node19&#45;&gt;Node1 -->
<g id="edge23" class="edge"><title>Node19&#45;&gt;Node1</title>
<path fill="none" stroke="midnightblue" d="M138.986,-178.77C117.349,-198.823 77.4528,-231.061 54.1789,-247.4"/>
<polygon fill="midnightblue" stroke="midnightblue" points="141.52,-181.189 146.311,-171.739 136.673,-176.138 141.52,-181.189"/>
</g>
<!-- Node19&#45;&gt;Node18 -->
<g id="edge25" class="edge"><title>Node19&#45;&gt;Node18</title>
<path fill="none" stroke="midnightblue" d="M197.37,-149.523C216.277,-143.821 238.143,-137.227 254.912,-132.169"/>
<polygon fill="midnightblue" stroke="midnightblue" points="196.359,-146.173 187.795,-152.411 198.38,-152.874 196.359,-146.173"/>
</g>
<!-- Node20 -->
<g id="node20" class="node"><title>Node20</title>
<g id="a_node20"><a xlink:href="../../d6/dcb/avg4_8c.html#ade521a0600ded19f1720b6f6df59b480" target="_top" xlink:title="main">
<polygon fill="white" stroke="black" points="263.5,-76.5 263.5,-95.5 302.5,-95.5 302.5,-76.5 263.5,-76.5"/>
<text text-anchor="middle" x="283" y="-83.5" font-family="Helvetica,sans-Serif" font-size="10.00">main</text>
</a>
</g>
</g>
<!-- Node19&#45;&gt;Node20 -->
<g id="edge21" class="edge"><title>Node19&#45;&gt;Node20</title>
<path fill="none" stroke="midnightblue" d="M195.251,-148.155C198.298,-146.575 201.253,-144.858 204,-143 223.271,-129.967 221.047,-118.491 240,-105 247.042,-99.9876 255.617,-95.8228 263.179,-92.6826"/>
<polygon fill="midnightblue" stroke="midnightblue" points="193.547,-145.087 185.956,-152.479 196.5,-151.434 193.547,-145.087"/>
</g>
<!-- Node21 -->
<g id="node21" class="node"><title>Node21</title>
<g id="a_node21"><a xlink:href="../../df/d69/pyrlib_8c.html#a8ea97ad59589726a4ef46f30e636d1c5" target="_top" xlink:title="dump_pyramid">
<polygon fill="white" stroke="black" points="240,-38.5 240,-57.5 326,-57.5 326,-38.5 240,-38.5"/>
<text text-anchor="middle" x="283" y="-45.5" font-family="Helvetica,sans-Serif" font-size="10.00">dump_pyramid</text>
</a>
</g>
</g>
<!-- Node19&#45;&gt;Node21 -->
<g id="edge22" class="edge"><title>Node19&#45;&gt;Node21</title>
<path fill="none" stroke="midnightblue" d="M198.497,-147.406C200.449,-146.058 202.299,-144.593 204,-143 231.279,-117.451 213.341,-93.1957 240,-67 243.882,-63.1858 248.665,-60.0573 253.596,-57.5193"/>
<polygon fill="midnightblue" stroke="midnightblue" points="196.38,-144.584 189.435,-152.585 199.854,-150.661 196.38,-144.584"/>
</g>
<!-- Node22 -->
<g id="node22" class="node"><title>Node22</title>
<g id="a_node22"><a xlink:href="../../dc/d5c/rlequant_8c.html#a2d0b301e0b946a4cc922dbd1e2d49ccf" target="_top" xlink:title="copy_hdr">
<polygon fill="white" stroke="black" points="252.5,-0.5 252.5,-19.5 313.5,-19.5 313.5,-0.5 252.5,-0.5"/>
<text text-anchor="middle" x="283" y="-7.5" font-family="Helvetica,sans-Serif" font-size="10.00">copy_hdr</text>
</a>
</g>
</g>
<!-- Node19&#45;&gt;Node22 -->
<g id="edge24" class="edge"><title>Node19&#45;&gt;Node22</title>
<path fill="none" stroke="midnightblue" d="M198.141,-148.143C200.26,-146.602 202.236,-144.894 204,-143 240.213,-104.119 204.729,-68.7375 240,-29 243.4,-25.1693 247.725,-22.0665 252.3,-19.567"/>
<polygon fill="midnightblue" stroke="midnightblue" points="196.247,-145.196 189.412,-153.291 199.803,-151.225 196.247,-145.196"/>
</g>
</g>
</svg>
