<?xml version="1.0" encoding="UTF-8" standalone="no"?>
<!DOCTYPE svg PUBLIC "-//W3C//DTD SVG 1.1//EN"
 "http://www.w3.org/Graphics/SVG/1.1/DTD/svg11.dtd">
<!-- Generated by graphviz version 2.38.0 (20140413.2041)
 -->
<!-- Title: rle_hdr_cp Pages: 1 -->
<svg width="369pt" height="104pt"
 viewBox="0.00 0.00 369.00 104.00" xmlns="http://www.w3.org/2000/svg" xmlns:xlink="http://www.w3.org/1999/xlink">
<g id="graph0" class="graph" transform="scale(1 1) rotate(0) translate(4 100)">
<title>rle_hdr_cp</title>
<polygon fill="white" stroke="none" points="-4,4 -4,-100 365,-100 365,4 -4,4"/>
<!-- Node1 -->
<g id="node1" class="node"><title>Node1</title>
<polygon fill="#bfbfbf" stroke="black" points="0,-57.5 0,-76.5 68,-76.5 68,-57.5 0,-57.5"/>
<text text-anchor="middle" x="34" y="-64.5" font-family="Helvetica,sans-Serif" font-size="10.00">rle_hdr_cp</text>
</g>
<!-- Node2 -->
<g id="node2" class="node"><title>Node2</title>
<g id="a_node2"><a xlink:href="../../d2/df3/rle__hdr_8c.html#a8ba0e5b11d1e39ab7227f1686e676c86" target="_top" xlink:title="rle_hdr_init">
<polygon fill="white" stroke="black" points="104,-76.5 104,-95.5 174,-95.5 174,-76.5 104,-76.5"/>
<text text-anchor="middle" x="139" y="-83.5" font-family="Helvetica,sans-Serif" font-size="10.00">rle_hdr_init</text>
</a>
</g>
</g>
<!-- Node1&#45;&gt;Node2 -->
<g id="edge1" class="edge"><title>Node1&#45;&gt;Node2</title>
<path fill="none" stroke="midnightblue" d="M68.1568,-66.7622C80.5618,-68.4928 94.6001,-71.1139 106.82,-73.989"/>
<polygon fill="midnightblue" stroke="midnightblue" points="106.03,-77.3991 116.582,-76.4498 107.741,-70.6115 106.03,-77.3991"/>
</g>
<!-- Node5 -->
<g id="node5" class="node"><title>Node5</title>
<g id="a_node5"><a xlink:href="../../d0/dcc/rletorla_8c.html#ab7e36af3707843f77cc5b4e831c2fa6d" target="_top" xlink:title="malloc">
<polygon fill="white" stroke="black" points="226.5,-38.5 226.5,-57.5 273.5,-57.5 273.5,-38.5 226.5,-38.5"/>
<text text-anchor="middle" x="250" y="-45.5" font-family="Helvetica,sans-Serif" font-size="10.00">malloc</text>
</a>
</g>
</g>
<!-- Node1&#45;&gt;Node5 -->
<g id="edge5" class="edge"><title>Node1&#45;&gt;Node5</title>
<path fill="none" stroke="midnightblue" d="M68.4375,-64.0312C108.796,-60.448 176.217,-54.462 216.261,-50.9068"/>
<polygon fill="midnightblue" stroke="midnightblue" points="216.65,-54.3861 226.301,-50.0153 216.03,-47.4135 216.65,-54.3861"/>
</g>
<!-- Node6 -->
<g id="node6" class="node"><title>Node6</title>
<g id="a_node6"><a xlink:href="../../d2/df3/rle__hdr_8c.html#a82e79385f2d45cc3b80ce0f4f369eae5" target="_top" xlink:title="rle_names">
<polygon fill="white" stroke="black" points="106,-0.5 106,-19.5 172,-19.5 172,-0.5 106,-0.5"/>
<text text-anchor="middle" x="139" y="-7.5" font-family="Helvetica,sans-Serif" font-size="10.00">rle_names</text>
</a>
</g>
</g>
<!-- Node1&#45;&gt;Node6 -->
<g id="edge6" class="edge"><title>Node1&#45;&gt;Node6</title>
<path fill="none" stroke="midnightblue" d="M52.4725,-57.3307C68.7737,-48.3097 93.3076,-34.7327 111.924,-24.4302"/>
<polygon fill="midnightblue" stroke="midnightblue" points="113.731,-27.4309 120.785,-19.5265 110.341,-21.3062 113.731,-27.4309"/>
</g>
<!-- Node2&#45;&gt;Node1 -->
<g id="edge4" class="edge"><title>Node2&#45;&gt;Node1</title>
<path fill="none" stroke="midnightblue" d="M103.711,-86.0781C91.6061,-84.3506 78.0671,-81.806 66.2286,-79.0226"/>
<polygon fill="midnightblue" stroke="midnightblue" points="66.8939,-75.5808 56.3417,-76.5295 65.1824,-82.3684 66.8939,-75.5808"/>
</g>
<!-- Node3 -->
<g id="node3" class="node"><title>Node3</title>
<g id="a_node3"><a xlink:href="../../d2/df3/rle__hdr_8c.html#a16c4da6201b3b8cf55127b9ca968d253" target="_top" xlink:title="rle_hdr_clear">
<polygon fill="white" stroke="black" points="210,-76.5 210,-95.5 290,-95.5 290,-76.5 210,-76.5"/>
<text text-anchor="middle" x="250" y="-83.5" font-family="Helvetica,sans-Serif" font-size="10.00">rle_hdr_clear</text>
</a>
</g>
</g>
<!-- Node2&#45;&gt;Node3 -->
<g id="edge2" class="edge"><title>Node2&#45;&gt;Node3</title>
<path fill="none" stroke="midnightblue" d="M174.189,-86C182.356,-86 191.234,-86 199.925,-86"/>
<polygon fill="midnightblue" stroke="midnightblue" points="199.989,-89.5001 209.989,-86 199.989,-82.5001 199.989,-89.5001"/>
</g>
<!-- Node4 -->
<g id="node4" class="node"><title>Node4</title>
<g id="a_node4"><a xlink:href="../../d0/dcc/rletorla_8c.html#aafde19f7d36ca163a143579c1b125b6d" target="_top" xlink:title="free">
<polygon fill="white" stroke="black" points="326,-38.5 326,-57.5 361,-57.5 361,-38.5 326,-38.5"/>
<text text-anchor="middle" x="343.5" y="-45.5" font-family="Helvetica,sans-Serif" font-size="10.00">free</text>
</a>
</g>
</g>
<!-- Node3&#45;&gt;Node4 -->
<g id="edge3" class="edge"><title>Node3&#45;&gt;Node4</title>
<path fill="none" stroke="midnightblue" d="M274.089,-76.411C286.914,-71.0847 302.918,-64.4384 316.221,-58.9135"/>
<polygon fill="midnightblue" stroke="midnightblue" points="317.878,-62.0155 325.771,-54.9477 315.193,-55.5508 317.878,-62.0155"/>
</g>
<!-- Node6&#45;&gt;Node4 -->
<g id="edge7" class="edge"><title>Node6&#45;&gt;Node4</title>
<path fill="none" stroke="midnightblue" d="M172.266,-12.0153C202.898,-14.4134 250.064,-19.37 290,-29 298.709,-31.1 307.972,-34.1602 316.255,-37.2134"/>
<polygon fill="midnightblue" stroke="midnightblue" points="315.178,-40.5491 325.768,-40.8694 317.689,-34.015 315.178,-40.5491"/>
</g>
<!-- Node6&#45;&gt;Node5 -->
<g id="edge8" class="edge"><title>Node6&#45;&gt;Node5</title>
<path fill="none" stroke="midnightblue" d="M167.505,-19.589C182.405,-24.7834 200.906,-31.2332 216.512,-36.6739"/>
<polygon fill="midnightblue" stroke="midnightblue" points="215.688,-40.0931 226.283,-40.0802 217.992,-33.4833 215.688,-40.0931"/>
</g>
</g>
</svg>
