<?xml version="1.0" encoding="UTF-8" standalone="no"?>
<!DOCTYPE svg PUBLIC "-//W3C//DTD SVG 1.1//EN"
 "http://www.w3.org/Graphics/SVG/1.1/DTD/svg11.dtd">
<!-- Generated by graphviz version 2.38.0 (20140413.2041)
 -->
<!-- Title: get/getami/getami.c Pages: 1 -->
<!--zoomable 196 -->
<svg id="main" version="1.1" xmlns="http://www.w3.org/2000/svg" xmlns:xlink="http://www.w3.org/1999/xlink" xml:space="preserve" onload="init(evt)">
<style type="text/css"><![CDATA[
.edge:hover path { stroke: red; }
.edge:hover polygon { stroke: red; fill: red; }
]]></style>
<script type="text/javascript"><![CDATA[
var edges = document.getElementsByTagName('g');
if (edges && edges.length) {
  for (var i=0;i<edges.length;i++) {
    if (edges[i].id.substr(0,4)=='edge') {
      edges[i].setAttribute('class','edge');
    }
  }
}
]]></script>
        <defs>
                <circle id="rim" cx="0" cy="0" r="7"/>
                <circle id="rim2" cx="0" cy="0" r="3.5"/>
                <g id="zoomPlus">
                        <use xlink:href="#rim" fill="#404040">
                                <set attributeName="fill" to="#808080" begin="zoomplus.mouseover" end="zoomplus.mouseout"/>
                        </use>
                        <path d="M-4,0h8M0,-4v8" fill="none" stroke="white" stroke-width="1.5" pointer-events="none"/>
                </g>
                <g id="zoomMin">
                        <use xlink:href="#rim" fill="#404040">
                                <set attributeName="fill" to="#808080" begin="zoomminus.mouseover" end="zoomminus.mouseout"/>
                        </use>
                        <path d="M-4,0h8" fill="none" stroke="white" stroke-width="1.5" pointer-events="none"/>
                </g>
                <g id="dirArrow">
                        <path fill="none" stroke="white" stroke-width="1.5" d="M0,-3.0v7 M-2.5,-0.5L0,-3.0L2.5,-0.5"/>
                </g>
               <g id="resetDef">
                       <use xlink:href="#rim2" fill="#404040">
                               <set attributeName="fill" to="#808080" begin="reset.mouseover" end="reset.mouseout"/>
                       </use>
               </g>
        </defs>

<script type="text/javascript">
var viewWidth = 965;
var viewHeight = 196;
var sectionId = 'dynsection-0';
</script>
<script xlink:href="../../svgpan.js"/>
<svg id="graph" class="graph">
<g id="viewport">
<title>get/getami/getami.c</title>
<polygon fill="white" stroke="none" points="-4,4 -4,-192 960.92,-192 960.92,4 -4,4"/>
<!-- Node1 -->
<g id="node1" class="node"><title>Node1</title>
<polygon fill="#bfbfbf" stroke="black" points="357.42,-168.5 357.42,-187.5 465.42,-187.5 465.42,-168.5 357.42,-168.5"/>
<text text-anchor="middle" x="411.42" y="-175.5" font-family="Helvetica,sans-Serif" font-size="10.00">get/getami/getami.c</text>
</g>
<!-- Node2 -->
<g id="node2" class="node"><title>Node2</title>
<polygon fill="white" stroke="#bfbfbf" points="11.9205,-56.5 11.9205,-75.5 58.9205,-75.5 58.9205,-56.5 11.9205,-56.5"/>
<text text-anchor="middle" x="35.4205" y="-63.5" font-family="Helvetica,sans-Serif" font-size="10.00">stdio.h</text>
</g>
<!-- Node1&#45;&gt;Node2 -->
<g id="edge1" class="edge"><title>Node1&#45;&gt;Node2</title>
<path fill="none" stroke="midnightblue" d="M357.185,-174.548C276.501,-170.07 129.517,-158.471 84.4205,-132 65.8251,-121.085 51.9896,-100.091 43.8458,-84.9098"/>
<polygon fill="midnightblue" stroke="midnightblue" points="46.9497,-83.2917 39.3232,-75.9374 40.6989,-86.4425 46.9497,-83.2917"/>
</g>
<!-- Node3 -->
<g id="node3" class="node"><title>Node3</title>
<polygon fill="white" stroke="#bfbfbf" points="204.42,-112.5 204.42,-131.5 304.42,-131.5 304.42,-112.5 204.42,-112.5"/>
<text text-anchor="middle" x="254.42" y="-119.5" font-family="Helvetica,sans-Serif" font-size="10.00">intuition/intuition.h</text>
</g>
<!-- Node1&#45;&gt;Node3 -->
<g id="edge2" class="edge"><title>Node1&#45;&gt;Node3</title>
<path fill="none" stroke="midnightblue" d="M386.543,-168.444C360.131,-159.359 318.205,-144.939 288.679,-134.783"/>
<polygon fill="midnightblue" stroke="midnightblue" points="289.776,-131.459 279.181,-131.516 287.499,-138.079 289.776,-131.459"/>
</g>
<!-- Node4 -->
<g id="node4" class="node"><title>Node4</title>
<polygon fill="white" stroke="#bfbfbf" points="322.42,-112.5 322.42,-131.5 404.42,-131.5 404.42,-112.5 322.42,-112.5"/>
<text text-anchor="middle" x="363.42" y="-119.5" font-family="Helvetica,sans-Serif" font-size="10.00">libraries/dos.h</text>
</g>
<!-- Node1&#45;&gt;Node4 -->
<g id="edge3" class="edge"><title>Node1&#45;&gt;Node4</title>
<path fill="none" stroke="midnightblue" d="M403.494,-168.083C396.574,-160.298 386.355,-148.801 377.969,-139.367"/>
<polygon fill="midnightblue" stroke="midnightblue" points="380.459,-136.9 371.199,-131.751 375.227,-141.55 380.459,-136.9"/>
</g>
<!-- Node5 -->
<g id="node5" class="node"><title>Node5</title>
<polygon fill="white" stroke="#bfbfbf" points="422.42,-112.5 422.42,-131.5 498.42,-131.5 498.42,-112.5 422.42,-112.5"/>
<text text-anchor="middle" x="460.42" y="-119.5" font-family="Helvetica,sans-Serif" font-size="10.00">exec/types.h</text>
</g>
<!-- Node1&#45;&gt;Node5 -->
<g id="edge4" class="edge"><title>Node1&#45;&gt;Node5</title>
<path fill="none" stroke="midnightblue" d="M419.512,-168.083C426.576,-160.298 437.008,-148.801 445.569,-139.367"/>
<polygon fill="midnightblue" stroke="midnightblue" points="448.352,-141.509 452.48,-131.751 443.168,-136.805 448.352,-141.509"/>
</g>
<!-- Node6 -->
<g id="node6" class="node"><title>Node6</title>
<polygon fill="white" stroke="#bfbfbf" points="516.42,-112.5 516.42,-131.5 604.42,-131.5 604.42,-112.5 516.42,-112.5"/>
<text text-anchor="middle" x="560.42" y="-119.5" font-family="Helvetica,sans-Serif" font-size="10.00">exec/memory.h</text>
</g>
<!-- Node1&#45;&gt;Node6 -->
<g id="edge5" class="edge"><title>Node1&#45;&gt;Node6</title>
<path fill="none" stroke="midnightblue" d="M435.03,-168.444C459.878,-159.438 499.195,-145.189 527.174,-135.049"/>
<polygon fill="midnightblue" stroke="midnightblue" points="528.712,-138.214 536.921,-131.516 526.327,-131.633 528.712,-138.214"/>
</g>
<!-- Node7 -->
<g id="node7" class="node"><title>Node7</title>
<polygon fill="white" stroke="#bfbfbf" points="622.92,-112.5 622.92,-131.5 727.92,-131.5 727.92,-112.5 622.92,-112.5"/>
<text text-anchor="middle" x="675.42" y="-119.5" font-family="Helvetica,sans-Serif" font-size="10.00">graphics/gfxbase.h</text>
</g>
<!-- Node1&#45;&gt;Node7 -->
<g id="edge6" class="edge"><title>Node1&#45;&gt;Node7</title>
<path fill="none" stroke="midnightblue" d="M453.252,-168.444C499.499,-158.984 574.033,-143.738 623.856,-133.547"/>
<polygon fill="midnightblue" stroke="midnightblue" points="624.689,-136.949 633.785,-131.516 623.286,-130.091 624.689,-136.949"/>
</g>
<!-- Node8 -->
<g id="node8" class="node"><title>Node8</title>
<polygon fill="white" stroke="#bfbfbf" points="745.92,-112.5 745.92,-131.5 834.92,-131.5 834.92,-112.5 745.92,-112.5"/>
<text text-anchor="middle" x="790.42" y="-119.5" font-family="Helvetica,sans-Serif" font-size="10.00">graphics/view.h</text>
</g>
<!-- Node1&#45;&gt;Node8 -->
<g id="edge7" class="edge"><title>Node1&#45;&gt;Node8</title>
<path fill="none" stroke="midnightblue" d="M465.43,-170.067C528.067,-161.909 634.696,-147.663 735.822,-132.21"/>
<polygon fill="midnightblue" stroke="midnightblue" points="736.551,-135.639 745.904,-130.662 735.488,-128.72 736.551,-135.639"/>
</g>
<!-- Node9 -->
<g id="node9" class="node"><title>Node9</title>
<polygon fill="white" stroke="#bfbfbf" points="852.92,-112.5 852.92,-131.5 885.92,-131.5 885.92,-112.5 852.92,-112.5"/>
<text text-anchor="middle" x="869.42" y="-119.5" font-family="Helvetica,sans-Serif" font-size="10.00">iff.h</text>
</g>
<!-- Node1&#45;&gt;Node9 -->
<g id="edge8" class="edge"><title>Node1&#45;&gt;Node9</title>
<path fill="none" stroke="midnightblue" d="M465.43,-175.571C546.106,-172.525 702.758,-163.086 842.856,-131.861"/>
<polygon fill="midnightblue" stroke="midnightblue" points="843.938,-135.204 852.913,-129.575 842.386,-128.378 843.938,-135.204"/>
</g>
<!-- Node10 -->
<g id="node10" class="node"><title>Node10</title>
<g id="a_node10"><a xlink:href="../../d7/d27/rle_8h.html" target="_top" xlink:title="rle.h">
<polygon fill="white" stroke="black" points="93.9205,-112.5 93.9205,-131.5 130.92,-131.5 130.92,-112.5 93.9205,-112.5"/>
<text text-anchor="middle" x="112.42" y="-119.5" font-family="Helvetica,sans-Serif" font-size="10.00">rle.h</text>
</a>
</g>
</g>
<!-- Node1&#45;&gt;Node10 -->
<g id="edge9" class="edge"><title>Node1&#45;&gt;Node10</title>
<path fill="none" stroke="midnightblue" d="M364.043,-168.444C301.32,-157.116 192.657,-137.491 141.125,-128.184"/>
<polygon fill="midnightblue" stroke="midnightblue" points="141.495,-124.694 131.032,-126.361 140.251,-131.583 141.495,-124.694"/>
</g>
<!-- Node12 -->
<g id="node12" class="node"><title>Node12</title>
<polygon fill="white" stroke="#bfbfbf" points="21.9205,-0.5 21.9205,-19.5 70.9205,-19.5 70.9205,-0.5 21.9205,-0.5"/>
<text text-anchor="middle" x="46.4205" y="-7.5" font-family="Helvetica,sans-Serif" font-size="10.00">stdlib.h</text>
</g>
<!-- Node1&#45;&gt;Node12 -->
<g id="edge14" class="edge"><title>Node1&#45;&gt;Node12</title>
<path fill="none" stroke="midnightblue" d="M357.388,-174.298C272.12,-169.336 110.758,-156.916 59.4205,-132 27.4708,-116.494 16.1561,-108.75 2.4205,-76 -5.40622,-57.3386 10.6529,-38.4555 25.5201,-25.8872"/>
<polygon fill="midnightblue" stroke="midnightblue" points="27.8129,-28.5365 33.4978,-19.596 23.4783,-23.04 27.8129,-28.5365"/>
</g>
<!-- Node13 -->
<g id="node13" class="node"><title>Node13</title>
<polygon fill="white" stroke="#bfbfbf" points="118.92,-0.5 118.92,-19.5 169.92,-19.5 169.92,-0.5 118.92,-0.5"/>
<text text-anchor="middle" x="144.42" y="-7.5" font-family="Helvetica,sans-Serif" font-size="10.00">string.h</text>
</g>
<!-- Node1&#45;&gt;Node13 -->
<g id="edge15" class="edge"><title>Node1&#45;&gt;Node13</title>
<path fill="none" stroke="midnightblue" d="M357.178,-171.476C301.498,-164.815 219.672,-151.961 195.42,-132 178.96,-118.452 159.33,-60.1149 149.947,-29.665"/>
<polygon fill="midnightblue" stroke="midnightblue" points="153.222,-28.4029 146.979,-19.843 146.521,-30.4279 153.222,-28.4029"/>
</g>
<!-- Node14 -->
<g id="node14" class="node"><title>Node14</title>
<polygon fill="white" stroke="#bfbfbf" points="903.92,-112.5 903.92,-131.5 956.92,-131.5 956.92,-112.5 903.92,-112.5"/>
<text text-anchor="middle" x="930.42" y="-119.5" font-family="Helvetica,sans-Serif" font-size="10.00">signal.h</text>
</g>
<!-- Node1&#45;&gt;Node14 -->
<g id="edge16" class="edge"><title>Node1&#45;&gt;Node14</title>
<path fill="none" stroke="midnightblue" d="M465.506,-174.779C553.507,-170.552 733.211,-159.367 893.708,-132.057"/>
<polygon fill="midnightblue" stroke="midnightblue" points="894.504,-135.472 903.762,-130.321 893.313,-128.574 894.504,-135.472"/>
</g>
<!-- Node10&#45;&gt;Node2 -->
<g id="edge13" class="edge"><title>Node10&#45;&gt;Node2</title>
<path fill="none" stroke="midnightblue" d="M100.049,-112.324C88.262,-104.058 70.2882,-91.4527 56.285,-81.6322"/>
<polygon fill="midnightblue" stroke="midnightblue" points="57.9581,-78.5307 47.7612,-75.6545 53.9389,-84.2619 57.9581,-78.5307"/>
</g>
<!-- Node11 -->
<g id="node11" class="node"><title>Node11</title>
<g id="a_node11"><a xlink:href="../../df/dad/rle__config_8h.html" target="_top" xlink:title="rle_config.h">
<polygon fill="white" stroke="black" points="76.9205,-56.5 76.9205,-75.5 147.92,-75.5 147.92,-56.5 76.9205,-56.5"/>
<text text-anchor="middle" x="112.42" y="-63.5" font-family="Helvetica,sans-Serif" font-size="10.00">rle_config.h</text>
</a>
</g>
</g>
<!-- Node10&#45;&gt;Node11 -->
<g id="edge10" class="edge"><title>Node10&#45;&gt;Node11</title>
<path fill="none" stroke="midnightblue" d="M112.42,-112.083C112.42,-105.006 112.42,-94.8611 112.42,-85.9865"/>
<polygon fill="midnightblue" stroke="midnightblue" points="115.921,-85.751 112.42,-75.7511 108.921,-85.7511 115.921,-85.751"/>
</g>
<!-- Node11&#45;&gt;Node12 -->
<g id="edge11" class="edge"><title>Node11&#45;&gt;Node12</title>
<path fill="none" stroke="midnightblue" d="M101.816,-56.324C91.9643,-48.2631 77.0696,-36.0765 65.2054,-26.3695"/>
<polygon fill="midnightblue" stroke="midnightblue" points="67.1734,-23.4575 57.2175,-19.8339 62.7407,-28.8752 67.1734,-23.4575"/>
</g>
<!-- Node11&#45;&gt;Node13 -->
<g id="edge12" class="edge"><title>Node11&#45;&gt;Node13</title>
<path fill="none" stroke="midnightblue" d="M117.705,-56.083C122.131,-48.6127 128.584,-37.7244 134.038,-28.5199"/>
<polygon fill="midnightblue" stroke="midnightblue" points="137.148,-30.1383 139.235,-19.7511 131.126,-26.5697 137.148,-30.1383"/>
</g>
</g>
</svg>
        <g id="navigator" transform="translate(0 0)" fill="#404254">
                <rect fill="#f2f5e9" fill-opacity="0.5" stroke="#606060" stroke-width=".5" x="0" y="0" width="60" height="60"/>
                <use id="zoomplus" xlink:href="#zoomPlus" x="17" y="9" onmousedown="handleZoom(evt,'in')"/>
                <use id="zoomminus" xlink:href="#zoomMin" x="42" y="9" onmousedown="handleZoom(evt,'out')"/>
                <use id="reset" xlink:href="#resetDef" x="30" y="36" onmousedown="handleReset()"/>
                <g id="arrowUp" xlink:href="#dirArrow" transform="translate(30 24)" onmousedown="handlePan(0,-1)">
                  <use xlink:href="#rim" fill="#404040">
                        <set attributeName="fill" to="#808080" begin="arrowUp.mouseover" end="arrowUp.mouseout"/>
                  </use>
                  <path fill="none" stroke="white" stroke-width="1.5" d="M0,-3.0v7 M-2.5,-0.5L0,-3.0L2.5,-0.5"/>
                </g>
                <g id="arrowRight" xlink:href="#dirArrow" transform="rotate(90) translate(36 -43)" onmousedown="handlePan(1,0)">
                  <use xlink:href="#rim" fill="#404040">
                        <set attributeName="fill" to="#808080" begin="arrowRight.mouseover" end="arrowRight.mouseout"/>
                  </use>
                  <path fill="none" stroke="white" stroke-width="1.5" d="M0,-3.0v7 M-2.5,-0.5L0,-3.0L2.5,-0.5"/>
                </g>
                <g id="arrowDown" xlink:href="#dirArrow" transform="rotate(180) translate(-30 -48)" onmousedown="handlePan(0,1)">
                  <use xlink:href="#rim" fill="#404040">
                        <set attributeName="fill" to="#808080" begin="arrowDown.mouseover" end="arrowDown.mouseout"/>
                  </use>
                  <path fill="none" stroke="white" stroke-width="1.5" d="M0,-3.0v7 M-2.5,-0.5L0,-3.0L2.5,-0.5"/>
                </g>
                <g id="arrowLeft" xlink:href="#dirArrow" transform="rotate(270) translate(-36 17)" onmousedown="handlePan(-1,0)">
                  <use xlink:href="#rim" fill="#404040">
                        <set attributeName="fill" to="#808080" begin="arrowLeft.mouseover" end="arrowLeft.mouseout"/>
                  </use>
                  <path fill="none" stroke="white" stroke-width="1.5" d="M0,-3.0v7 M-2.5,-0.5L0,-3.0L2.5,-0.5"/>
                </g>
        </g>
        <svg viewBox="0 0 15 15" width="100%" height="30px" preserveAspectRatio="xMaxYMin meet">
         <g id="arrow_out" transform="scale(0.3 0.3)">
          <a xlink:href="getami_8c__incl_org.svg" target="_base">
           <rect id="button" ry="5" rx="5" y="6" x="6" height="38" width="38"
                fill="#f2f5e9" fill-opacity="0.5" stroke="#606060" stroke-width="1.0"/>
           <path id="arrow"
             d="M 11.500037,31.436501 C 11.940474,20.09759 22.043105,11.32322 32.158766,21.979434 L 37.068811,17.246167 C 37.068811,17.246167 37.088388,32 37.088388,32 L 22.160133,31.978069 C 22.160133,31.978069 26.997745,27.140456 26.997745,27.140456 C 18.528582,18.264221 13.291696,25.230495 11.500037,31.436501 z"
             style="fill:#404040;"/>
          </a>
         </g>
        </svg>
</svg>
