<?xml version="1.0" encoding="UTF-8" standalone="no"?>
<!DOCTYPE svg PUBLIC "-//W3C//DTD SVG 1.1//EN"
 "http://www.w3.org/Graphics/SVG/1.1/DTD/svg11.dtd">
<!-- Generated by graphviz version 2.38.0 (20140413.2041)
 -->
<!-- Title: getami.c Pages: 1 -->
<svg width="1017pt" height="84pt"
 viewBox="0.00 0.00 1017.00 84.00" xmlns="http://www.w3.org/2000/svg" xmlns:xlink="http://www.w3.org/1999/xlink">
<g id="graph0" class="graph" transform="scale(1 1) rotate(0) translate(4 80)">
<title>getami.c</title>
<polygon fill="white" stroke="none" points="-4,4 -4,-80 1013,-80 1013,4 -4,4"/>
<!-- Node1 -->
<g id="node1" class="node"><title>Node1</title>
<polygon fill="#bfbfbf" stroke="black" points="565.5,-56.5 565.5,-75.5 621.5,-75.5 621.5,-56.5 565.5,-56.5"/>
<text text-anchor="middle" x="593.5" y="-63.5" font-family="Helvetica,sans-Serif" font-size="10.00">getami.c</text>
</g>
<!-- Node2 -->
<g id="node2" class="node"><title>Node2</title>
<polygon fill="white" stroke="#bfbfbf" points="0,-0.5 0,-19.5 47,-19.5 47,-0.5 0,-0.5"/>
<text text-anchor="middle" x="23.5" y="-7.5" font-family="Helvetica,sans-Serif" font-size="10.00">stdio.h</text>
</g>
<!-- Node1&#45;&gt;Node2 -->
<g id="edge1" class="edge"><title>Node1&#45;&gt;Node2</title>
<path fill="none" stroke="midnightblue" d="M565.315,-64.4476C486.453,-62.5212 256.843,-54.3089 57.2571,-19.7842"/>
<polygon fill="midnightblue" stroke="midnightblue" points="57.6303,-16.2962 47.1755,-18.013 56.4191,-23.1906 57.6303,-16.2962"/>
</g>
<!-- Node3 -->
<g id="node3" class="node"><title>Node3</title>
<polygon fill="white" stroke="#bfbfbf" points="65.5,-0.5 65.5,-19.5 165.5,-19.5 165.5,-0.5 65.5,-0.5"/>
<text text-anchor="middle" x="115.5" y="-7.5" font-family="Helvetica,sans-Serif" font-size="10.00">intuition/intuition.h</text>
</g>
<!-- Node1&#45;&gt;Node3 -->
<g id="edge2" class="edge"><title>Node1&#45;&gt;Node3</title>
<path fill="none" stroke="midnightblue" d="M565.499,-62.426C499.526,-56.269 328.958,-39.8129 175.755,-20.1134"/>
<polygon fill="midnightblue" stroke="midnightblue" points="176.057,-16.6233 165.691,-18.8112 175.159,-23.5654 176.057,-16.6233"/>
</g>
<!-- Node4 -->
<g id="node4" class="node"><title>Node4</title>
<polygon fill="white" stroke="#bfbfbf" points="183.5,-0.5 183.5,-19.5 265.5,-19.5 265.5,-0.5 183.5,-0.5"/>
<text text-anchor="middle" x="224.5" y="-7.5" font-family="Helvetica,sans-Serif" font-size="10.00">libraries/dos.h</text>
</g>
<!-- Node1&#45;&gt;Node4 -->
<g id="edge3" class="edge"><title>Node1&#45;&gt;Node4</title>
<path fill="none" stroke="midnightblue" d="M565.282,-61.3853C511.166,-54.3744 388.823,-38.146 275.558,-20.1206"/>
<polygon fill="midnightblue" stroke="midnightblue" points="276.107,-16.6639 265.68,-18.5401 275.001,-23.576 276.107,-16.6639"/>
</g>
<!-- Node5 -->
<g id="node5" class="node"><title>Node5</title>
<polygon fill="white" stroke="#bfbfbf" points="283.5,-0.5 283.5,-19.5 359.5,-19.5 359.5,-0.5 283.5,-0.5"/>
<text text-anchor="middle" x="321.5" y="-7.5" font-family="Helvetica,sans-Serif" font-size="10.00">exec/types.h</text>
</g>
<!-- Node1&#45;&gt;Node5 -->
<g id="edge4" class="edge"><title>Node1&#45;&gt;Node5</title>
<path fill="none" stroke="midnightblue" d="M565.416,-59.4244C519.191,-50.2475 426.547,-31.8549 369.684,-20.566"/>
<polygon fill="midnightblue" stroke="midnightblue" points="370.337,-17.1274 359.847,-18.613 368.974,-23.9934 370.337,-17.1274"/>
</g>
<!-- Node6 -->
<g id="node6" class="node"><title>Node6</title>
<polygon fill="white" stroke="#bfbfbf" points="377.5,-0.5 377.5,-19.5 465.5,-19.5 465.5,-0.5 377.5,-0.5"/>
<text text-anchor="middle" x="421.5" y="-7.5" font-family="Helvetica,sans-Serif" font-size="10.00">exec/memory.h</text>
</g>
<!-- Node1&#45;&gt;Node6 -->
<g id="edge5" class="edge"><title>Node1&#45;&gt;Node6</title>
<path fill="none" stroke="midnightblue" d="M566.246,-56.4435C537.059,-47.2801 490.579,-32.6876 458.191,-22.5192"/>
<polygon fill="midnightblue" stroke="midnightblue" points="459.216,-19.1726 448.626,-19.5164 457.119,-25.8512 459.216,-19.1726"/>
</g>
<!-- Node7 -->
<g id="node7" class="node"><title>Node7</title>
<polygon fill="white" stroke="#bfbfbf" points="484,-0.5 484,-19.5 589,-19.5 589,-0.5 484,-0.5"/>
<text text-anchor="middle" x="536.5" y="-7.5" font-family="Helvetica,sans-Serif" font-size="10.00">graphics/gfxbase.h</text>
</g>
<!-- Node1&#45;&gt;Node7 -->
<g id="edge6" class="edge"><title>Node1&#45;&gt;Node7</title>
<path fill="none" stroke="midnightblue" d="M584.342,-56.324C575.999,-48.4196 563.468,-36.5482 553.323,-26.9377"/>
<polygon fill="midnightblue" stroke="midnightblue" points="555.491,-24.1705 545.825,-19.8339 550.677,-29.2522 555.491,-24.1705"/>
</g>
<!-- Node8 -->
<g id="node8" class="node"><title>Node8</title>
<polygon fill="white" stroke="#bfbfbf" points="607,-0.5 607,-19.5 696,-19.5 696,-0.5 607,-0.5"/>
<text text-anchor="middle" x="651.5" y="-7.5" font-family="Helvetica,sans-Serif" font-size="10.00">graphics/view.h</text>
</g>
<!-- Node1&#45;&gt;Node8 -->
<g id="edge7" class="edge"><title>Node1&#45;&gt;Node8</title>
<path fill="none" stroke="midnightblue" d="M602.819,-56.324C611.393,-48.3414 624.312,-36.3128 634.688,-26.6529"/>
<polygon fill="midnightblue" stroke="midnightblue" points="637.078,-29.2098 642.012,-19.8339 632.308,-24.0865 637.078,-29.2098"/>
</g>
<!-- Node9 -->
<g id="node9" class="node"><title>Node9</title>
<polygon fill="white" stroke="#bfbfbf" points="714,-0.5 714,-19.5 747,-19.5 747,-0.5 714,-0.5"/>
<text text-anchor="middle" x="730.5" y="-7.5" font-family="Helvetica,sans-Serif" font-size="10.00">iff.h</text>
</g>
<!-- Node1&#45;&gt;Node9 -->
<g id="edge8" class="edge"><title>Node1&#45;&gt;Node9</title>
<path fill="none" stroke="midnightblue" d="M615.208,-56.4435C639.32,-46.9395 678.249,-31.5952 704.104,-21.4041"/>
<polygon fill="midnightblue" stroke="midnightblue" points="705.624,-24.5671 713.644,-17.6439 703.057,-18.0548 705.624,-24.5671"/>
</g>
<!-- Node10 -->
<g id="node10" class="node"><title>Node10</title>
<polygon fill="white" stroke="#bfbfbf" points="765,-0.5 765,-19.5 802,-19.5 802,-0.5 765,-0.5"/>
<text text-anchor="middle" x="783.5" y="-7.5" font-family="Helvetica,sans-Serif" font-size="10.00">rle.h</text>
</g>
<!-- Node1&#45;&gt;Node10 -->
<g id="edge9" class="edge"><title>Node1&#45;&gt;Node10</title>
<path fill="none" stroke="midnightblue" d="M621.606,-57.7196C652.285,-49.6687 703.06,-36.0409 755.202,-20.2902"/>
<polygon fill="midnightblue" stroke="midnightblue" points="756.401,-23.584 764.95,-17.3254 754.364,-16.8869 756.401,-23.584"/>
</g>
<!-- Node11 -->
<g id="node11" class="node"><title>Node11</title>
<polygon fill="white" stroke="#bfbfbf" points="820,-0.5 820,-19.5 869,-19.5 869,-0.5 820,-0.5"/>
<text text-anchor="middle" x="844.5" y="-7.5" font-family="Helvetica,sans-Serif" font-size="10.00">stdlib.h</text>
</g>
<!-- Node1&#45;&gt;Node11 -->
<g id="edge10" class="edge"><title>Node1&#45;&gt;Node11</title>
<path fill="none" stroke="midnightblue" d="M621.845,-59.7375C661.764,-52.1989 737.02,-37.5228 809.881,-20.2859"/>
<polygon fill="midnightblue" stroke="midnightblue" points="810.762,-23.674 819.677,-17.9491 809.137,-16.8651 810.762,-23.674"/>
</g>
<!-- Node12 -->
<g id="node12" class="node"><title>Node12</title>
<polygon fill="white" stroke="#bfbfbf" points="887,-0.5 887,-19.5 938,-19.5 938,-0.5 887,-0.5"/>
<text text-anchor="middle" x="912.5" y="-7.5" font-family="Helvetica,sans-Serif" font-size="10.00">string.h</text>
</g>
<!-- Node1&#45;&gt;Node12 -->
<g id="edge11" class="edge"><title>Node1&#45;&gt;Node12</title>
<path fill="none" stroke="midnightblue" d="M621.586,-61.5341C671.247,-55.1983 777.955,-40.6542 877.073,-20.1333"/>
<polygon fill="midnightblue" stroke="midnightblue" points="877.878,-23.5407 886.947,-18.0635 876.442,-16.6896 877.878,-23.5407"/>
</g>
<!-- Node13 -->
<g id="node13" class="node"><title>Node13</title>
<polygon fill="white" stroke="#bfbfbf" points="956,-0.5 956,-19.5 1009,-19.5 1009,-0.5 956,-0.5"/>
<text text-anchor="middle" x="982.5" y="-7.5" font-family="Helvetica,sans-Serif" font-size="10.00">signal.h</text>
</g>
<!-- Node1&#45;&gt;Node13 -->
<g id="edge12" class="edge"><title>Node1&#45;&gt;Node13</title>
<path fill="none" stroke="midnightblue" d="M621.682,-62.6268C680.292,-57.4339 819.713,-43.7436 945.627,-20.1639"/>
<polygon fill="midnightblue" stroke="midnightblue" points="946.654,-23.5314 955.825,-18.2264 945.347,-16.6544 946.654,-23.5314"/>
</g>
</g>
</svg>
