<?xml version="1.0" encoding="UTF-8" standalone="no"?>
<!DOCTYPE svg PUBLIC "-//W3C//DTD SVG 1.1//EN"
 "http://www.w3.org/Graphics/SVG/1.1/DTD/svg11.dtd">
<!-- Generated by graphviz version 2.38.0 (20140413.2041)
 -->
<!-- Title: get/getx11/XGetHClrs.c Pages: 1 -->
<svg width="319pt" height="84pt"
 viewBox="0.00 0.00 318.50 84.00" xmlns="http://www.w3.org/2000/svg" xmlns:xlink="http://www.w3.org/1999/xlink">
<g id="graph0" class="graph" transform="scale(1 1) rotate(0) translate(4 80)">
<title>get/getx11/XGetHClrs.c</title>
<polygon fill="white" stroke="none" points="-4,4 -4,-80 314.5,-80 314.5,4 -4,4"/>
<!-- Node1 -->
<g id="node1" class="node"><title>Node1</title>
<polygon fill="#bfbfbf" stroke="black" points="79.5,-56.5 79.5,-75.5 207.5,-75.5 207.5,-56.5 79.5,-56.5"/>
<text text-anchor="middle" x="143.5" y="-63.5" font-family="Helvetica,sans-Serif" font-size="10.00">get/getx11/XGetHClrs.c</text>
</g>
<!-- Node2 -->
<g id="node2" class="node"><title>Node2</title>
<polygon fill="white" stroke="#bfbfbf" points="0,-0.5 0,-19.5 53,-19.5 53,-0.5 0,-0.5"/>
<text text-anchor="middle" x="26.5" y="-7.5" font-family="Helvetica,sans-Serif" font-size="10.00">X11/X.h</text>
</g>
<!-- Node1&#45;&gt;Node2 -->
<g id="edge1" class="edge"><title>Node1&#45;&gt;Node2</title>
<path fill="none" stroke="midnightblue" d="M124.961,-56.4435C105.877,-47.6356 75.9251,-33.8116 54.0643,-23.722"/>
<polygon fill="midnightblue" stroke="midnightblue" points="55.4986,-20.5292 44.9523,-19.5164 52.5651,-26.8849 55.4986,-20.5292"/>
</g>
<!-- Node3 -->
<g id="node3" class="node"><title>Node3</title>
<polygon fill="white" stroke="#bfbfbf" points="71,-0.5 71,-19.5 134,-19.5 134,-0.5 71,-0.5"/>
<text text-anchor="middle" x="102.5" y="-7.5" font-family="Helvetica,sans-Serif" font-size="10.00">X11/Xlib.h</text>
</g>
<!-- Node1&#45;&gt;Node3 -->
<g id="edge2" class="edge"><title>Node1&#45;&gt;Node3</title>
<path fill="none" stroke="midnightblue" d="M136.73,-56.083C130.938,-48.4554 122.442,-37.2645 115.362,-27.9408"/>
<polygon fill="midnightblue" stroke="midnightblue" points="117.979,-25.5991 109.144,-19.7511 112.404,-29.8321 117.979,-25.5991"/>
</g>
<!-- Node4 -->
<g id="node4" class="node"><title>Node4</title>
<polygon fill="white" stroke="#bfbfbf" points="152.5,-0.5 152.5,-19.5 218.5,-19.5 218.5,-0.5 152.5,-0.5"/>
<text text-anchor="middle" x="185.5" y="-7.5" font-family="Helvetica,sans-Serif" font-size="10.00">X11/Xutil.h</text>
</g>
<!-- Node1&#45;&gt;Node4 -->
<g id="edge3" class="edge"><title>Node1&#45;&gt;Node4</title>
<path fill="none" stroke="midnightblue" d="M150.435,-56.083C156.429,-48.3768 165.252,-37.0333 172.548,-27.6531"/>
<polygon fill="midnightblue" stroke="midnightblue" points="175.317,-29.7934 178.694,-19.7511 169.791,-25.4958 175.317,-29.7934"/>
</g>
<!-- Node5 -->
<g id="node5" class="node"><title>Node5</title>
<polygon fill="white" stroke="#bfbfbf" points="236.5,-0.5 236.5,-19.5 310.5,-19.5 310.5,-0.5 236.5,-0.5"/>
<text text-anchor="middle" x="273.5" y="-7.5" font-family="Helvetica,sans-Serif" font-size="10.00">X11/Xlibint.h</text>
</g>
<!-- Node1&#45;&gt;Node5 -->
<g id="edge4" class="edge"><title>Node1&#45;&gt;Node5</title>
<path fill="none" stroke="midnightblue" d="M164.099,-56.4435C185.493,-47.5566 219.181,-33.5632 243.524,-23.4514"/>
<polygon fill="midnightblue" stroke="midnightblue" points="245.105,-26.5848 252.997,-19.5164 242.42,-20.1203 245.105,-26.5848"/>
</g>
</g>
</svg>
