<?xml version="1.0" encoding="UTF-8" standalone="no"?>
<!DOCTYPE svg PUBLIC "-//W3C//DTD SVG 1.1//EN"
 "http://www.w3.org/Graphics/SVG/1.1/DTD/svg11.dtd">
<!-- Generated by graphviz version 2.38.0 (20140413.2041)
 -->
<!-- Title: main Pages: 1 -->
<svg width="166pt" height="142pt"
 viewBox="0.00 0.00 166.00 142.00" xmlns="http://www.w3.org/2000/svg" xmlns:xlink="http://www.w3.org/1999/xlink">
<g id="graph0" class="graph" transform="scale(1 1) rotate(0) translate(4 138)">
<title>main</title>
<polygon fill="white" stroke="none" points="-4,4 -4,-138 162,-138 162,4 -4,4"/>
<!-- Node1 -->
<g id="node1" class="node"><title>Node1</title>
<polygon fill="#bfbfbf" stroke="black" points="0,-57.5 0,-76.5 39,-76.5 39,-57.5 0,-57.5"/>
<text text-anchor="middle" x="19.5" y="-64.5" font-family="Helvetica,sans-Serif" font-size="10.00">main</text>
</g>
<!-- Node2 -->
<g id="node2" class="node"><title>Node2</title>
<g id="a_node2"><a xlink:href="../../d3/d6f/show3_8c.html#a88eaf5e9246922c444929f2279d7137d" target="_top" xlink:title="Fail">
<polygon fill="white" stroke="black" points="100,-114.5 100,-133.5 133,-133.5 133,-114.5 100,-114.5"/>
<text text-anchor="middle" x="116.5" y="-121.5" font-family="Helvetica,sans-Serif" font-size="10.00">Fail</text>
</a>
</g>
</g>
<!-- Node1&#45;&gt;Node2 -->
<g id="edge1" class="edge"><title>Node1&#45;&gt;Node2</title>
<path fill="none" stroke="midnightblue" d="M33.0876,-76.6989C43.8815,-84.7876 60.0174,-96.3465 75,-105 79.96,-107.865 85.4234,-110.656 90.6885,-113.178"/>
<polygon fill="midnightblue" stroke="midnightblue" points="89.2539,-116.37 99.8001,-117.385 92.1883,-110.015 89.2539,-116.37"/>
</g>
<!-- Node3 -->
<g id="node3" class="node"><title>Node3</title>
<g id="a_node3"><a xlink:href="../../d3/d6f/show3_8c.html#a9fa936d1db5c5c119d4c2cab817243b5" target="_top" xlink:title="OpenLibrary">
<polygon fill="white" stroke="black" points="79,-76.5 79,-95.5 154,-95.5 154,-76.5 79,-76.5"/>
<text text-anchor="middle" x="116.5" y="-83.5" font-family="Helvetica,sans-Serif" font-size="10.00">OpenLibrary</text>
</a>
</g>
</g>
<!-- Node1&#45;&gt;Node3 -->
<g id="edge2" class="edge"><title>Node1&#45;&gt;Node3</title>
<path fill="none" stroke="midnightblue" d="M39.2689,-70.7538C47.7924,-72.4585 58.2928,-74.5586 68.7451,-76.649"/>
<polygon fill="midnightblue" stroke="midnightblue" points="68.1933,-80.1079 78.6855,-78.6371 69.5662,-73.2438 68.1933,-80.1079"/>
</g>
<!-- Node4 -->
<g id="node4" class="node"><title>Node4</title>
<g id="a_node4"><a xlink:href="../../d3/d6f/show3_8c.html#a5e6be312a43e04a4a77d1921d97f829b" target="_top" xlink:title="OpenScreen">
<polygon fill="white" stroke="black" points="78,-38.5 78,-57.5 155,-57.5 155,-38.5 78,-38.5"/>
<text text-anchor="middle" x="116.5" y="-45.5" font-family="Helvetica,sans-Serif" font-size="10.00">OpenScreen</text>
</a>
</g>
</g>
<!-- Node1&#45;&gt;Node4 -->
<g id="edge3" class="edge"><title>Node1&#45;&gt;Node4</title>
<path fill="none" stroke="midnightblue" d="M39.2689,-63.2462C47.5423,-61.5915 57.6783,-59.5643 67.825,-57.535"/>
<polygon fill="midnightblue" stroke="midnightblue" points="68.7872,-60.912 77.9066,-55.5187 67.4143,-54.0479 68.7872,-60.912"/>
</g>
<!-- Node5 -->
<g id="node5" class="node"><title>Node5</title>
<g id="a_node5"><a xlink:href="../../d3/d6f/show3_8c.html#abd0615dcf858ba7e81d9cfe23e2a17ff" target="_top" xlink:title="CenterScreen">
<polygon fill="white" stroke="black" points="75,-0.5 75,-19.5 158,-19.5 158,-0.5 75,-0.5"/>
<text text-anchor="middle" x="116.5" y="-7.5" font-family="Helvetica,sans-Serif" font-size="10.00">CenterScreen</text>
</a>
</g>
</g>
<!-- Node1&#45;&gt;Node5 -->
<g id="edge4" class="edge"><title>Node1&#45;&gt;Node5</title>
<path fill="none" stroke="midnightblue" d="M33.0876,-57.3011C43.8815,-49.2124 60.0174,-37.6535 75,-29 77.8919,-27.3297 80.955,-25.6845 84.0501,-24.103"/>
<polygon fill="midnightblue" stroke="midnightblue" points="85.8432,-27.1224 93.2925,-19.5886 82.771,-20.8326 85.8432,-27.1224"/>
</g>
</g>
</svg>
