<?xml version="1.0" encoding="UTF-8" standalone="no"?>
<!DOCTYPE svg PUBLIC "-//W3C//DTD SVG 1.1//EN"
 "http://www.w3.org/Graphics/SVG/1.1/DTD/svg11.dtd">
<!-- Generated by graphviz version 2.38.0 (20140413.2041)
 -->
<!-- Title: tools/clock/font.h Pages: 1 -->
<svg width="457pt" height="84pt"
 viewBox="0.00 0.00 456.50 84.00" xmlns="http://www.w3.org/2000/svg" xmlns:xlink="http://www.w3.org/1999/xlink">
<g id="graph0" class="graph" transform="scale(1 1) rotate(0) translate(4 80)">
<title>tools/clock/font.h</title>
<polygon fill="white" stroke="none" points="-4,4 -4,-80 452.5,-80 452.5,4 -4,4"/>
<!-- Node1 -->
<g id="node1" class="node"><title>Node1</title>
<polygon fill="#bfbfbf" stroke="black" points="164.5,-56.5 164.5,-75.5 259.5,-75.5 259.5,-56.5 164.5,-56.5"/>
<text text-anchor="middle" x="212" y="-63.5" font-family="Helvetica,sans-Serif" font-size="10.00">tools/clock/font.h</text>
</g>
<!-- Node2 -->
<g id="node2" class="node"><title>Node2</title>
<g id="a_node2"><a xlink:href="../../df/d17/dvirle1_8c.html" target="_top" xlink:title="cnv/tex/dvirle1.c">
<polygon fill="white" stroke="black" points="0,-0.5 0,-19.5 92,-19.5 92,-0.5 0,-0.5"/>
<text text-anchor="middle" x="46" y="-7.5" font-family="Helvetica,sans-Serif" font-size="10.00">cnv/tex/dvirle1.c</text>
</a>
</g>
</g>
<!-- Node1&#45;&gt;Node2 -->
<g id="edge1" class="edge"><title>Node1&#45;&gt;Node2</title>
<path fill="none" stroke="midnightblue" d="M176.047,-53.3044C144.768,-43.1294 100.179,-28.6246 72.1801,-19.5164"/>
<polygon fill="midnightblue" stroke="midnightblue" points="175.105,-56.6783 185.697,-56.4435 177.27,-50.0217 175.105,-56.6783"/>
</g>
<!-- Node3 -->
<g id="node3" class="node"><title>Node3</title>
<g id="a_node3"><a xlink:href="../../d6/d0d/dvirle2_8c.html" target="_top" xlink:title="cnv/tex/dvirle2.c">
<polygon fill="white" stroke="black" points="110,-0.5 110,-19.5 202,-19.5 202,-0.5 110,-0.5"/>
<text text-anchor="middle" x="156" y="-7.5" font-family="Helvetica,sans-Serif" font-size="10.00">cnv/tex/dvirle2.c</text>
</a>
</g>
</g>
<!-- Node1&#45;&gt;Node3 -->
<g id="edge2" class="edge"><title>Node1&#45;&gt;Node3</title>
<path fill="none" stroke="midnightblue" d="M195.67,-49.2533C185.735,-39.6731 173.412,-27.7906 165.161,-19.8339"/>
<polygon fill="midnightblue" stroke="midnightblue" points="193.375,-51.902 203.003,-56.324 198.234,-46.8631 193.375,-51.902"/>
</g>
<!-- Node4 -->
<g id="node4" class="node"><title>Node4</title>
<g id="a_node4"><a xlink:href="../../da/d8c/font_8c.html" target="_top" xlink:title="tools/clock/font.c">
<polygon fill="white" stroke="black" points="220.5,-0.5 220.5,-19.5 315.5,-19.5 315.5,-0.5 220.5,-0.5"/>
<text text-anchor="middle" x="268" y="-7.5" font-family="Helvetica,sans-Serif" font-size="10.00">tools/clock/font.c</text>
</a>
</g>
</g>
<!-- Node1&#45;&gt;Node4 -->
<g id="edge3" class="edge"><title>Node1&#45;&gt;Node4</title>
<path fill="none" stroke="midnightblue" d="M228.33,-49.2533C238.265,-39.6731 250.588,-27.7906 258.839,-19.8339"/>
<polygon fill="midnightblue" stroke="midnightblue" points="225.766,-46.8631 220.997,-56.324 230.625,-51.902 225.766,-46.8631"/>
</g>
<!-- Node5 -->
<g id="node5" class="node"><title>Node5</title>
<g id="a_node5"><a xlink:href="../../d5/dd9/rleClock_8c.html" target="_top" xlink:title="tools/clock/rleClock.c">
<polygon fill="white" stroke="black" points="333.5,-0.5 333.5,-19.5 448.5,-19.5 448.5,-0.5 333.5,-0.5"/>
<text text-anchor="middle" x="391" y="-7.5" font-family="Helvetica,sans-Serif" font-size="10.00">tools/clock/rleClock.c</text>
</a>
</g>
</g>
<!-- Node1&#45;&gt;Node5 -->
<g id="edge4" class="edge"><title>Node1&#45;&gt;Node5</title>
<path fill="none" stroke="midnightblue" d="M250.331,-53.4363C284.08,-43.2551 332.447,-28.664 362.77,-19.5164"/>
<polygon fill="midnightblue" stroke="midnightblue" points="248.926,-50.2044 240.363,-56.4435 250.948,-56.9061 248.926,-50.2044"/>
</g>
</g>
</svg>
