<?xml version="1.0" encoding="UTF-8" standalone="no"?>
<!DOCTYPE svg PUBLIC "-//W3C//DTD SVG 1.1//EN"
 "http://www.w3.org/Graphics/SVG/1.1/DTD/svg11.dtd">
<!-- Generated by graphviz version 2.38.0 (20140413.2041)
 -->
<!-- Title: unexp.c Pages: 1 -->
<svg width="177pt" height="84pt"
 viewBox="0.00 0.00 177.00 84.00" xmlns="http://www.w3.org/2000/svg" xmlns:xlink="http://www.w3.org/1999/xlink">
<g id="graph0" class="graph" transform="scale(1 1) rotate(0) translate(4 80)">
<title>unexp.c</title>
<polygon fill="white" stroke="none" points="-4,4 -4,-80 173,-80 173,4 -4,4"/>
<!-- Node1 -->
<g id="node1" class="node"><title>Node1</title>
<polygon fill="#bfbfbf" stroke="black" points="63,-56.5 63,-75.5 116,-75.5 116,-56.5 63,-56.5"/>
<text text-anchor="middle" x="89.5" y="-63.5" font-family="Helvetica,sans-Serif" font-size="10.00">unexp.c</text>
</g>
<!-- Node2 -->
<g id="node2" class="node"><title>Node2</title>
<polygon fill="white" stroke="#bfbfbf" points="0,-0.5 0,-19.5 47,-19.5 47,-0.5 0,-0.5"/>
<text text-anchor="middle" x="23.5" y="-7.5" font-family="Helvetica,sans-Serif" font-size="10.00">stdio.h</text>
</g>
<!-- Node1&#45;&gt;Node2 -->
<g id="edge1" class="edge"><title>Node1&#45;&gt;Node2</title>
<path fill="none" stroke="midnightblue" d="M78.896,-56.324C69.0438,-48.2631 54.1491,-36.0765 42.2849,-26.3695"/>
<polygon fill="midnightblue" stroke="midnightblue" points="44.2529,-23.4575 34.297,-19.8339 39.8202,-28.8752 44.2529,-23.4575"/>
</g>
<!-- Node3 -->
<g id="node3" class="node"><title>Node3</title>
<polygon fill="white" stroke="#bfbfbf" points="65.5,-0.5 65.5,-19.5 113.5,-19.5 113.5,-0.5 65.5,-0.5"/>
<text text-anchor="middle" x="89.5" y="-7.5" font-family="Helvetica,sans-Serif" font-size="10.00">math.h</text>
</g>
<!-- Node1&#45;&gt;Node3 -->
<g id="edge2" class="edge"><title>Node1&#45;&gt;Node3</title>
<path fill="none" stroke="midnightblue" d="M89.5,-56.083C89.5,-49.0059 89.5,-38.8611 89.5,-29.9865"/>
<polygon fill="midnightblue" stroke="midnightblue" points="93.0001,-29.751 89.5,-19.7511 86.0001,-29.7511 93.0001,-29.751"/>
</g>
<!-- Node4 -->
<g id="node4" class="node"><title>Node4</title>
<polygon fill="white" stroke="#bfbfbf" points="132,-0.5 132,-19.5 169,-19.5 169,-0.5 132,-0.5"/>
<text text-anchor="middle" x="150.5" y="-7.5" font-family="Helvetica,sans-Serif" font-size="10.00">rle.h</text>
</g>
<!-- Node1&#45;&gt;Node4 -->
<g id="edge3" class="edge"><title>Node1&#45;&gt;Node4</title>
<path fill="none" stroke="midnightblue" d="M99.3007,-56.324C108.318,-48.3414 121.906,-36.3128 132.818,-26.6529"/>
<polygon fill="midnightblue" stroke="midnightblue" points="135.353,-29.083 140.521,-19.8339 130.713,-23.8416 135.353,-29.083"/>
</g>
</g>
</svg>
