<?xml version="1.0" encoding="UTF-8" standalone="no"?>
<!DOCTYPE svg PUBLIC "-//W3C//DTD SVG 1.1//EN"
 "http://www.w3.org/Graphics/SVG/1.1/DTD/svg11.dtd">
<!-- Generated by graphviz version 2.38.0 (20140413.2041)
 -->
<!-- Title: find_most_used Pages: 1 -->
<!--zoomable 526 -->
<svg id="main" version="1.1" xmlns="http://www.w3.org/2000/svg" xmlns:xlink="http://www.w3.org/1999/xlink" xml:space="preserve" onload="init(evt)">
<style type="text/css"><![CDATA[
.edge:hover path { stroke: red; }
.edge:hover polygon { stroke: red; fill: red; }
]]></style>
<script type="text/javascript"><![CDATA[
var edges = document.getElementsByTagName('g');
if (edges && edges.length) {
  for (var i=0;i<edges.length;i++) {
    if (edges[i].id.substr(0,4)=='edge') {
      edges[i].setAttribute('class','edge');
    }
  }
}
]]></script>
        <defs>
                <circle id="rim" cx="0" cy="0" r="7"/>
                <circle id="rim2" cx="0" cy="0" r="3.5"/>
                <g id="zoomPlus">
                        <use xlink:href="#rim" fill="#404040">
                                <set attributeName="fill" to="#808080" begin="zoomplus.mouseover" end="zoomplus.mouseout"/>
                        </use>
                        <path d="M-4,0h8M0,-4v8" fill="none" stroke="white" stroke-width="1.5" pointer-events="none"/>
                </g>
                <g id="zoomMin">
                        <use xlink:href="#rim" fill="#404040">
                                <set attributeName="fill" to="#808080" begin="zoomminus.mouseover" end="zoomminus.mouseout"/>
                        </use>
                        <path d="M-4,0h8" fill="none" stroke="white" stroke-width="1.5" pointer-events="none"/>
                </g>
                <g id="dirArrow">
                        <path fill="none" stroke="white" stroke-width="1.5" d="M0,-3.0v7 M-2.5,-0.5L0,-3.0L2.5,-0.5"/>
                </g>
               <g id="resetDef">
                       <use xlink:href="#rim2" fill="#404040">
                               <set attributeName="fill" to="#808080" begin="reset.mouseover" end="reset.mouseout"/>
                       </use>
               </g>
        </defs>

<script type="text/javascript">
var viewWidth = 415;
var viewHeight = 526;
var sectionId = 'dynsection-9';
</script>
<script xlink:href="../../svgpan.js"/>
<svg id="graph" class="graph">
<g id="viewport">
<title>find_most_used</title>
<polygon fill="white" stroke="none" points="-4,4 -4,-521.53 411,-521.53 411,4 -4,4"/>
<!-- Node1 -->
<g id="node1" class="node"><title>Node1</title>
<polygon fill="#bfbfbf" stroke="black" points="0,-195.671 0,-214.671 91,-214.671 91,-195.671 0,-195.671"/>
<text text-anchor="middle" x="45.5" y="-202.671" font-family="Helvetica,sans-Serif" font-size="10.00">find_most_used</text>
</g>
<!-- Node2 -->
<g id="node2" class="node"><title>Node2</title>
<g id="a_node2"><a xlink:href="../../db/d53/rle__getrow_8c.html#a619b27463c26e0a4a3d9648a9869ee52" target="_top" xlink:title="rle_get_setup">
<polygon fill="white" stroke="black" points="127,-385.671 127,-404.671 208,-404.671 208,-385.671 127,-385.671"/>
<text text-anchor="middle" x="167.5" y="-392.671" font-family="Helvetica,sans-Serif" font-size="10.00">rle_get_setup</text>
</a>
</g>
</g>
<!-- Node1&#45;&gt;Node2 -->
<g id="edge1" class="edge"><title>Node1&#45;&gt;Node2</title>
<path fill="none" stroke="midnightblue" d="M52.6158,-214.854C71.5486,-244.831 129.431,-336.478 154.602,-376.332"/>
<polygon fill="midnightblue" stroke="midnightblue" points="151.953,-378.693 160.253,-385.279 157.872,-374.955 151.953,-378.693"/>
</g>
<!-- Node4 -->
<g id="node4" class="node"><title>Node4</title>
<g id="a_node4"><a xlink:href="../../d0/dcc/rletorla_8c.html#aafde19f7d36ca163a143579c1b125b6d" target="_top" xlink:title="free">
<polygon fill="white" stroke="black" points="366,-461.671 366,-480.671 401,-480.671 401,-461.671 366,-461.671"/>
<text text-anchor="middle" x="383.5" y="-468.671" font-family="Helvetica,sans-Serif" font-size="10.00">free</text>
</a>
</g>
</g>
<!-- Node1&#45;&gt;Node4 -->
<g id="edge13" class="edge"><title>Node1&#45;&gt;Node4</title>
<path fill="none" stroke="midnightblue" d="M48.3404,-214.766C54.7008,-246.033 78.0965,-346.848 127,-414.171 166.367,-468.365 180.874,-486.77 244,-509.171 277.508,-521.062 289.909,-519.271 324,-509.171 338.66,-504.828 353.088,-495.526 363.948,-487.213"/>
<polygon fill="midnightblue" stroke="midnightblue" points="366.232,-489.868 371.828,-480.872 361.843,-484.415 366.232,-489.868"/>
</g>
<!-- Node6 -->
<g id="node6" class="node"><title>Node6</title>
<g id="a_node6"><a xlink:href="../../d0/dcc/rletorla_8c.html#ab7e36af3707843f77cc5b4e831c2fa6d" target="_top" xlink:title="malloc">
<polygon fill="white" stroke="black" points="360,-290.671 360,-309.671 407,-309.671 407,-290.671 360,-290.671"/>
<text text-anchor="middle" x="383.5" y="-297.671" font-family="Helvetica,sans-Serif" font-size="10.00">malloc</text>
</a>
</g>
</g>
<!-- Node1&#45;&gt;Node6 -->
<g id="edge12" class="edge"><title>Node1&#45;&gt;Node6</title>
<path fill="none" stroke="midnightblue" d="M53.1305,-214.782C65.4292,-231.707 93.588,-266.433 127,-281.171 201.278,-313.936 299.515,-309.639 349.791,-304.472"/>
<polygon fill="midnightblue" stroke="midnightblue" points="350.211,-307.947 359.766,-303.369 349.442,-300.99 350.211,-307.947"/>
</g>
<!-- Node8 -->
<g id="node8" class="node"><title>Node8</title>
<g id="a_node8"><a xlink:href="../../db/db2/rle__getcom_8c.html#a9cefd612c381bf82c9cdf1f3a3b12dd6" target="_top" xlink:title="rle_getcom">
<polygon fill="white" stroke="black" points="133,-252.671 133,-271.671 202,-271.671 202,-252.671 133,-252.671"/>
<text text-anchor="middle" x="167.5" y="-259.671" font-family="Helvetica,sans-Serif" font-size="10.00">rle_getcom</text>
</a>
</g>
</g>
<!-- Node1&#45;&gt;Node8 -->
<g id="edge10" class="edge"><title>Node1&#45;&gt;Node8</title>
<path fill="none" stroke="midnightblue" d="M66.5853,-214.712C85.8812,-223.877 115.257,-237.831 137.169,-248.239"/>
<polygon fill="midnightblue" stroke="midnightblue" points="135.815,-251.47 146.349,-252.599 138.818,-245.147 135.815,-251.47"/>
</g>
<!-- Node10 -->
<g id="node10" class="node"><title>Node10</title>
<g id="a_node10"><a xlink:href="../../df/da5/rle__putcom_8c.html#a6fa8528c32d14763efe2a534e409e321" target="_top" xlink:title="rle_putcom">
<polygon fill="white" stroke="black" points="133.5,-214.671 133.5,-233.671 201.5,-233.671 201.5,-214.671 133.5,-214.671"/>
<text text-anchor="middle" x="167.5" y="-221.671" font-family="Helvetica,sans-Serif" font-size="10.00">rle_putcom</text>
</a>
</g>
</g>
<!-- Node1&#45;&gt;Node10 -->
<g id="edge14" class="edge"><title>Node1&#45;&gt;Node10</title>
<path fill="none" stroke="midnightblue" d="M91.1836,-212.246C101.679,-213.908 112.844,-215.675 123.274,-217.327"/>
<polygon fill="midnightblue" stroke="midnightblue" points="122.982,-220.824 133.407,-218.931 124.077,-213.91 122.982,-220.824"/>
</g>
<!-- Node12 -->
<g id="node12" class="node"><title>Node12</title>
<g id="a_node12"><a xlink:href="../../dc/d11/getami_8c.html#a8f31580e06aae736fd6f1ed3c414ed94" target="_top" xlink:title="buildmap">
<polygon fill="white" stroke="black" points="138.5,-176.671 138.5,-195.671 196.5,-195.671 196.5,-176.671 138.5,-176.671"/>
<text text-anchor="middle" x="167.5" y="-183.671" font-family="Helvetica,sans-Serif" font-size="10.00">buildmap</text>
</a>
</g>
</g>
<!-- Node1&#45;&gt;Node12 -->
<g id="edge17" class="edge"><title>Node1&#45;&gt;Node12</title>
<path fill="none" stroke="midnightblue" d="M91.1836,-198.096C103.347,-196.17 116.41,-194.102 128.185,-192.237"/>
<polygon fill="midnightblue" stroke="midnightblue" points="128.818,-195.681 138.147,-190.66 127.723,-188.767 128.818,-195.681"/>
</g>
<!-- Node13 -->
<g id="node13" class="node"><title>Node13</title>
<g id="a_node13"><a xlink:href="../../d9/d2a/rle__putrow_8c.html#af88a82b331cd6f425d2a2cc1623944c6" target="_top" xlink:title="rle_put_setup">
<polygon fill="white" stroke="black" points="127.5,-138.671 127.5,-157.671 207.5,-157.671 207.5,-138.671 127.5,-138.671"/>
<text text-anchor="middle" x="167.5" y="-145.671" font-family="Helvetica,sans-Serif" font-size="10.00">rle_put_setup</text>
</a>
</g>
</g>
<!-- Node1&#45;&gt;Node13 -->
<g id="edge18" class="edge"><title>Node1&#45;&gt;Node13</title>
<path fill="none" stroke="midnightblue" d="M66.5853,-195.63C85.8812,-186.465 115.257,-172.512 137.169,-162.103"/>
<polygon fill="midnightblue" stroke="midnightblue" points="138.818,-165.195 146.349,-157.743 135.815,-158.872 138.818,-165.195"/>
</g>
<!-- Node15 -->
<g id="node15" class="node"><title>Node15</title>
<g id="a_node15"><a xlink:href="../../db/d53/rle__getrow_8c.html#a3602e1158189cba5e5b0f9b983cba776" target="_top" xlink:title="rle_getrow">
<polygon fill="white" stroke="black" points="134,-100.671 134,-119.671 201,-119.671 201,-100.671 134,-100.671"/>
<text text-anchor="middle" x="167.5" y="-107.671" font-family="Helvetica,sans-Serif" font-size="10.00">rle_getrow</text>
</a>
</g>
</g>
<!-- Node1&#45;&gt;Node15 -->
<g id="edge20" class="edge"><title>Node1&#45;&gt;Node15</title>
<path fill="none" stroke="midnightblue" d="M55.1066,-195.273C69.0234,-179.706 97.8619,-149.212 127,-129.171 129.273,-127.608 131.694,-126.106 134.176,-124.68"/>
<polygon fill="midnightblue" stroke="midnightblue" points="136.068,-127.639 143.274,-119.872 132.797,-121.45 136.068,-127.639"/>
</g>
<!-- Node18 -->
<g id="node18" class="node"><title>Node18</title>
<g id="a_node18"><a xlink:href="../../d9/d2a/rle__putrow_8c.html#aa26532b01bc4f49b7383765cdc23ea72" target="_top" xlink:title="rle_putrow">
<polygon fill="white" stroke="black" points="134.5,-43.671 134.5,-62.671 200.5,-62.671 200.5,-43.671 134.5,-43.671"/>
<text text-anchor="middle" x="167.5" y="-50.671" font-family="Helvetica,sans-Serif" font-size="10.00">rle_putrow</text>
</a>
</g>
</g>
<!-- Node1&#45;&gt;Node18 -->
<g id="edge23" class="edge"><title>Node1&#45;&gt;Node18</title>
<path fill="none" stroke="midnightblue" d="M52.4001,-195.565C64.9922,-175.367 95.8951,-127.374 127,-91.171 133.329,-83.8044 140.89,-76.2717 147.695,-69.8762"/>
<polygon fill="midnightblue" stroke="midnightblue" points="150.218,-72.3109 155.216,-62.9689 145.483,-67.1551 150.218,-72.3109"/>
</g>
<!-- Node20 -->
<g id="node20" class="node"><title>Node20</title>
<g id="a_node20"><a xlink:href="../../dc/d11/getami_8c.html#a3b82ea520595ce222a1d4725d2360feb" target="_top" xlink:title="compare">
<polygon fill="white" stroke="black" points="138.5,-5.67101 138.5,-24.671 196.5,-24.671 196.5,-5.67101 138.5,-5.67101"/>
<text text-anchor="middle" x="167.5" y="-12.671" font-family="Helvetica,sans-Serif" font-size="10.00">compare</text>
</a>
</g>
</g>
<!-- Node1&#45;&gt;Node20 -->
<g id="edge26" class="edge"><title>Node1&#45;&gt;Node20</title>
<path fill="none" stroke="midnightblue" d="M48.6636,-195.331C55.3936,-166.822 78.4798,-83.0985 127,-34.171 128.407,-32.7526 129.94,-31.4254 131.559,-30.1854"/>
<polygon fill="midnightblue" stroke="midnightblue" points="133.628,-33.0179 140.185,-24.6961 129.869,-27.1124 133.628,-33.0179"/>
</g>
<!-- Node3 -->
<g id="node3" class="node"><title>Node3</title>
<g id="a_node3"><a xlink:href="../../d2/df3/rle__hdr_8c.html#a16c4da6201b3b8cf55127b9ca968d253" target="_top" xlink:title="rle_hdr_clear">
<polygon fill="white" stroke="black" points="244,-480.671 244,-499.671 324,-499.671 324,-480.671 244,-480.671"/>
<text text-anchor="middle" x="284" y="-487.671" font-family="Helvetica,sans-Serif" font-size="10.00">rle_hdr_clear</text>
</a>
</g>
</g>
<!-- Node2&#45;&gt;Node3 -->
<g id="edge2" class="edge"><title>Node2&#45;&gt;Node3</title>
<path fill="none" stroke="midnightblue" d="M177.711,-405.024C191.402,-419.383 218.279,-446.489 244,-466.171 248.049,-469.269 252.516,-472.321 256.938,-475.155"/>
<polygon fill="midnightblue" stroke="midnightblue" points="255.453,-478.351 265.804,-480.613 259.123,-472.39 255.453,-478.351"/>
</g>
<!-- Node2&#45;&gt;Node4 -->
<g id="edge8" class="edge"><title>Node2&#45;&gt;Node4</title>
<path fill="none" stroke="midnightblue" d="M185.154,-404.763C200.169,-413.115 223.044,-425.114 244,-433.171 281.971,-447.769 327.799,-459.195 356.046,-465.562"/>
<polygon fill="midnightblue" stroke="midnightblue" points="355.438,-469.012 365.958,-467.751 356.948,-462.177 355.438,-469.012"/>
</g>
<!-- Node5 -->
<g id="node5" class="node"><title>Node5</title>
<g id="a_node5"><a xlink:href="../../d2/df3/rle__hdr_8c.html#a82e79385f2d45cc3b80ce0f4f369eae5" target="_top" xlink:title="rle_names">
<polygon fill="white" stroke="black" points="251,-404.671 251,-423.671 317,-423.671 317,-404.671 251,-404.671"/>
<text text-anchor="middle" x="284" y="-411.671" font-family="Helvetica,sans-Serif" font-size="10.00">rle_names</text>
</a>
</g>
</g>
<!-- Node2&#45;&gt;Node5 -->
<g id="edge4" class="edge"><title>Node2&#45;&gt;Node5</title>
<path fill="none" stroke="midnightblue" d="M208.225,-401.763C218.798,-403.517 230.253,-405.418 240.946,-407.193"/>
<polygon fill="midnightblue" stroke="midnightblue" points="240.472,-410.662 250.91,-408.846 241.618,-403.756 240.472,-410.662"/>
</g>
<!-- Node2&#45;&gt;Node6 -->
<g id="edge7" class="edge"><title>Node2&#45;&gt;Node6</title>
<path fill="none" stroke="midnightblue" d="M186.62,-385.565C201.798,-377.636 224.111,-366.253 244,-357.171 279.968,-340.746 322.076,-323.722 350.338,-312.606"/>
<polygon fill="midnightblue" stroke="midnightblue" points="351.688,-315.836 359.724,-308.931 349.136,-309.317 351.688,-315.836"/>
</g>
<!-- Node7 -->
<g id="node7" class="node"><title>Node7</title>
<g id="a_node7"><a xlink:href="../../db/d53/rle__getrow_8c.html#a0ea68aa2ebeef9d4cade7282553b03d6" target="_top" xlink:title="vax_gshort">
<polygon fill="white" stroke="black" points="249.5,-366.671 249.5,-385.671 318.5,-385.671 318.5,-366.671 249.5,-366.671"/>
<text text-anchor="middle" x="284" y="-373.671" font-family="Helvetica,sans-Serif" font-size="10.00">vax_gshort</text>
</a>
</g>
</g>
<!-- Node2&#45;&gt;Node7 -->
<g id="edge9" class="edge"><title>Node2&#45;&gt;Node7</title>
<path fill="none" stroke="midnightblue" d="M208.225,-388.579C218.301,-386.907 229.179,-385.102 239.434,-383.4"/>
<polygon fill="midnightblue" stroke="midnightblue" points="240.137,-386.832 249.43,-381.742 238.991,-379.926 240.137,-386.832"/>
</g>
<!-- Node3&#45;&gt;Node4 -->
<g id="edge3" class="edge"><title>Node3&#45;&gt;Node4</title>
<path fill="none" stroke="midnightblue" d="M324.095,-482.552C334.678,-480.49 345.893,-478.305 355.636,-476.406"/>
<polygon fill="midnightblue" stroke="midnightblue" points="356.385,-479.826 365.531,-474.478 355.046,-472.955 356.385,-479.826"/>
</g>
<!-- Node5&#45;&gt;Node4 -->
<g id="edge5" class="edge"><title>Node5&#45;&gt;Node4</title>
<path fill="none" stroke="midnightblue" d="M301.54,-423.84C316.759,-432.738 339.559,-446.067 357.09,-456.316"/>
<polygon fill="midnightblue" stroke="midnightblue" points="355.805,-459.619 366.205,-461.645 359.338,-453.576 355.805,-459.619"/>
</g>
<!-- Node5&#45;&gt;Node6 -->
<g id="edge6" class="edge"><title>Node5&#45;&gt;Node6</title>
<path fill="none" stroke="midnightblue" d="M310.252,-404.477C315.138,-401.908 319.981,-398.812 324,-395.171 347.823,-373.589 365.344,-340.063 374.721,-319.15"/>
<polygon fill="midnightblue" stroke="midnightblue" points="378.029,-320.318 378.768,-309.749 371.6,-317.551 378.029,-320.318"/>
</g>
<!-- Node9 -->
<g id="node9" class="node"><title>Node9</title>
<g id="a_node9"><a xlink:href="../../db/db2/rle__getcom_8c.html#a7502c8b599724ce86fee5df1311a2337" target="_top" xlink:title="match">
<polygon fill="white" stroke="black" points="261.5,-252.671 261.5,-271.671 306.5,-271.671 306.5,-252.671 261.5,-252.671"/>
<text text-anchor="middle" x="284" y="-259.671" font-family="Helvetica,sans-Serif" font-size="10.00">match</text>
</a>
</g>
</g>
<!-- Node8&#45;&gt;Node9 -->
<g id="edge11" class="edge"><title>Node8&#45;&gt;Node9</title>
<path fill="none" stroke="midnightblue" d="M202.234,-262.171C217.778,-262.171 236.12,-262.171 251.393,-262.171"/>
<polygon fill="midnightblue" stroke="midnightblue" points="251.405,-265.671 261.405,-262.171 251.405,-258.671 251.405,-265.671"/>
</g>
<!-- Node10&#45;&gt;Node6 -->
<g id="edge15" class="edge"><title>Node10&#45;&gt;Node6</title>
<path fill="none" stroke="midnightblue" d="M201.762,-222.236C234.464,-221.676 285.005,-224.478 324,-243.171 342.671,-252.121 359.075,-269.405 369.723,-282.604"/>
<polygon fill="midnightblue" stroke="midnightblue" points="366.979,-284.776 375.856,-290.559 372.523,-280.503 366.979,-284.776"/>
</g>
<!-- Node11 -->
<g id="node11" class="node"><title>Node11</title>
<g id="a_node11"><a xlink:href="../../df/da5/rle__putcom_8c.html#a7502c8b599724ce86fee5df1311a2337" target="_top" xlink:title="match">
<polygon fill="white" stroke="black" points="261.5,-176.671 261.5,-195.671 306.5,-195.671 306.5,-176.671 261.5,-176.671"/>
<text text-anchor="middle" x="284" y="-183.671" font-family="Helvetica,sans-Serif" font-size="10.00">match</text>
</a>
</g>
</g>
<!-- Node10&#45;&gt;Node11 -->
<g id="edge16" class="edge"><title>Node10&#45;&gt;Node11</title>
<path fill="none" stroke="midnightblue" d="M197.393,-214.582C213.852,-209.12 234.494,-202.269 251.385,-196.663"/>
<polygon fill="midnightblue" stroke="midnightblue" points="252.957,-199.829 261.346,-193.358 250.752,-193.186 252.957,-199.829"/>
</g>
<!-- Node14 -->
<g id="node14" class="node"><title>Node14</title>
<g id="a_node14"><a xlink:href="../../d9/d2a/rle__putrow_8c.html#a46d9789104d5d1f09253a808fdad5346" target="_top" xlink:title="rle_put_init">
<polygon fill="white" stroke="black" points="250,-138.671 250,-157.671 318,-157.671 318,-138.671 250,-138.671"/>
<text text-anchor="middle" x="284" y="-145.671" font-family="Helvetica,sans-Serif" font-size="10.00">rle_put_init</text>
</a>
</g>
</g>
<!-- Node13&#45;&gt;Node14 -->
<g id="edge19" class="edge"><title>Node13&#45;&gt;Node14</title>
<path fill="none" stroke="midnightblue" d="M207.584,-148.171C217.885,-148.171 229.061,-148.171 239.575,-148.171"/>
<polygon fill="midnightblue" stroke="midnightblue" points="239.812,-151.671 249.812,-148.171 239.812,-144.671 239.812,-151.671"/>
</g>
<!-- Node16 -->
<g id="node16" class="node"><title>Node16</title>
<g id="a_node16"><a xlink:href="../../db/d53/rle__getrow_8c.html#a61ac0da96b0dd8bc3cbc98afcd9b5c44" target="_top" xlink:title="bfill">
<polygon fill="white" stroke="black" points="268,-62.671 268,-81.671 300,-81.671 300,-62.671 268,-62.671"/>
<text text-anchor="middle" x="284" y="-69.671" font-family="Helvetica,sans-Serif" font-size="10.00">bfill</text>
</a>
</g>
</g>
<!-- Node15&#45;&gt;Node16 -->
<g id="edge21" class="edge"><title>Node15&#45;&gt;Node16</title>
<path fill="none" stroke="midnightblue" d="M197.393,-100.582C216.112,-94.3697 240.241,-86.3617 258.109,-80.4318"/>
<polygon fill="midnightblue" stroke="midnightblue" points="259.429,-83.6815 267.817,-77.2098 257.224,-77.0378 259.429,-83.6815"/>
</g>
<!-- Node17 -->
<g id="node17" class="node"><title>Node17</title>
<g id="a_node17"><a xlink:href="../../d8/d7c/rle__getskip_8c.html#af6b1e1dc0867e9340f90668591c7c5b3" target="_top" xlink:title="rle_getskip">
<polygon fill="white" stroke="black" points="250,-100.671 250,-119.671 318,-119.671 318,-100.671 250,-100.671"/>
<text text-anchor="middle" x="284" y="-107.671" font-family="Helvetica,sans-Serif" font-size="10.00">rle_getskip</text>
</a>
</g>
</g>
<!-- Node15&#45;&gt;Node17 -->
<g id="edge22" class="edge"><title>Node15&#45;&gt;Node17</title>
<path fill="none" stroke="midnightblue" d="M201.005,-110.171C213.004,-110.171 226.799,-110.171 239.608,-110.171"/>
<polygon fill="midnightblue" stroke="midnightblue" points="239.617,-113.671 249.617,-110.171 239.617,-106.671 239.617,-113.671"/>
</g>
<!-- Node18&#45;&gt;Node6 -->
<g id="edge24" class="edge"><title>Node18&#45;&gt;Node6</title>
<path fill="none" stroke="midnightblue" d="M188.666,-43.6494C194.889,-40.6631 201.749,-37.3228 208,-34.171 254.649,-10.6517 283.515,17.848 324,-15.171 365.375,-48.9161 378.309,-221.285 381.56,-280.312"/>
<polygon fill="midnightblue" stroke="midnightblue" points="378.076,-280.725 382.086,-290.531 385.067,-280.365 378.076,-280.725"/>
</g>
<!-- Node19 -->
<g id="node19" class="node"><title>Node19</title>
<g id="a_node19"><a xlink:href="../../d9/d2a/rle__putrow_8c.html#aaa4133bf4a6cbf287444448497631f26" target="_top" xlink:title="findruns">
<polygon fill="white" stroke="black" points="257,-24.671 257,-43.671 311,-43.671 311,-24.671 257,-24.671"/>
<text text-anchor="middle" x="284" y="-31.671" font-family="Helvetica,sans-Serif" font-size="10.00">findruns</text>
</a>
</g>
</g>
<!-- Node18&#45;&gt;Node19 -->
<g id="edge25" class="edge"><title>Node18&#45;&gt;Node19</title>
<path fill="none" stroke="midnightblue" d="M200.699,-47.8279C214.964,-45.4608 231.813,-42.6649 246.539,-40.2213"/>
<polygon fill="midnightblue" stroke="midnightblue" points="247.527,-43.6053 256.819,-38.5155 246.381,-36.6998 247.527,-43.6053"/>
</g>
</g>
</svg>
        <g id="navigator" transform="translate(0 0)" fill="#404254">
                <rect fill="#f2f5e9" fill-opacity="0.5" stroke="#606060" stroke-width=".5" x="0" y="0" width="60" height="60"/>
                <use id="zoomplus" xlink:href="#zoomPlus" x="17" y="9" onmousedown="handleZoom(evt,'in')"/>
                <use id="zoomminus" xlink:href="#zoomMin" x="42" y="9" onmousedown="handleZoom(evt,'out')"/>
                <use id="reset" xlink:href="#resetDef" x="30" y="36" onmousedown="handleReset()"/>
                <g id="arrowUp" xlink:href="#dirArrow" transform="translate(30 24)" onmousedown="handlePan(0,-1)">
                  <use xlink:href="#rim" fill="#404040">
                        <set attributeName="fill" to="#808080" begin="arrowUp.mouseover" end="arrowUp.mouseout"/>
                  </use>
                  <path fill="none" stroke="white" stroke-width="1.5" d="M0,-3.0v7 M-2.5,-0.5L0,-3.0L2.5,-0.5"/>
                </g>
                <g id="arrowRight" xlink:href="#dirArrow" transform="rotate(90) translate(36 -43)" onmousedown="handlePan(1,0)">
                  <use xlink:href="#rim" fill="#404040">
                        <set attributeName="fill" to="#808080" begin="arrowRight.mouseover" end="arrowRight.mouseout"/>
                  </use>
                  <path fill="none" stroke="white" stroke-width="1.5" d="M0,-3.0v7 M-2.5,-0.5L0,-3.0L2.5,-0.5"/>
                </g>
                <g id="arrowDown" xlink:href="#dirArrow" transform="rotate(180) translate(-30 -48)" onmousedown="handlePan(0,1)">
                  <use xlink:href="#rim" fill="#404040">
                        <set attributeName="fill" to="#808080" begin="arrowDown.mouseover" end="arrowDown.mouseout"/>
                  </use>
                  <path fill="none" stroke="white" stroke-width="1.5" d="M0,-3.0v7 M-2.5,-0.5L0,-3.0L2.5,-0.5"/>
                </g>
                <g id="arrowLeft" xlink:href="#dirArrow" transform="rotate(270) translate(-36 17)" onmousedown="handlePan(-1,0)">
                  <use xlink:href="#rim" fill="#404040">
                        <set attributeName="fill" to="#808080" begin="arrowLeft.mouseover" end="arrowLeft.mouseout"/>
                  </use>
                  <path fill="none" stroke="white" stroke-width="1.5" d="M0,-3.0v7 M-2.5,-0.5L0,-3.0L2.5,-0.5"/>
                </g>
        </g>
        <svg viewBox="0 0 15 15" width="100%" height="30px" preserveAspectRatio="xMaxYMin meet">
         <g id="arrow_out" transform="scale(0.3 0.3)">
          <a xlink:href="getami_8c_aa654afe741816fa93d1cd7e49ef583ec_cgraph_org.svg" target="_base">
           <rect id="button" ry="5" rx="5" y="6" x="6" height="38" width="38"
                fill="#f2f5e9" fill-opacity="0.5" stroke="#606060" stroke-width="1.0"/>
           <path id="arrow"
             d="M 11.500037,31.436501 C 11.940474,20.09759 22.043105,11.32322 32.158766,21.979434 L 37.068811,17.246167 C 37.068811,17.246167 37.088388,32 37.088388,32 L 22.160133,31.978069 C 22.160133,31.978069 26.997745,27.140456 26.997745,27.140456 C 18.528582,18.264221 13.291696,25.230495 11.500037,31.436501 z"
             style="fill:#404040;"/>
          </a>
         </g>
        </svg>
</svg>
