<?xml version="1.0" encoding="UTF-8" standalone="no"?>
<!DOCTYPE svg PUBLIC "-//W3C//DTD SVG 1.1//EN"
 "http://www.w3.org/Graphics/SVG/1.1/DTD/svg11.dtd">
<!-- Generated by graphviz version 2.38.0 (20140413.2041)
 -->
<!-- Title: show_rgb Pages: 1 -->
<svg width="249pt" height="28pt"
 viewBox="0.00 0.00 249.00 28.00" xmlns="http://www.w3.org/2000/svg" xmlns:xlink="http://www.w3.org/1999/xlink">
<g id="graph0" class="graph" transform="scale(1 1) rotate(0) translate(4 24)">
<title>show_rgb</title>
<polygon fill="white" stroke="none" points="-4,4 -4,-24 245,-24 245,4 -4,4"/>
<!-- Node1 -->
<g id="node1" class="node"><title>Node1</title>
<polygon fill="#bfbfbf" stroke="black" points="0,-0.5 0,-19.5 62,-19.5 62,-0.5 0,-0.5"/>
<text text-anchor="middle" x="31" y="-7.5" font-family="Helvetica,sans-Serif" font-size="10.00">show_rgb</text>
</g>
<!-- Node2 -->
<g id="node2" class="node"><title>Node2</title>
<g id="a_node2"><a xlink:href="../../dc/d11/getami_8c.html#a3a79557c0de5078d1ea9206ce5eb3e77" target="_top" xlink:title="display_rle">
<polygon fill="white" stroke="black" points="98,-0.5 98,-19.5 166,-19.5 166,-0.5 98,-0.5"/>
<text text-anchor="middle" x="132" y="-7.5" font-family="Helvetica,sans-Serif" font-size="10.00">display_rle</text>
</a>
</g>
</g>
<!-- Node1&#45;&gt;Node2 -->
<g id="edge1" class="edge"><title>Node1&#45;&gt;Node2</title>
<path fill="none" stroke="midnightblue" d="M72.3295,-10C80.8088,-10 89.6602,-10 97.8408,-10"/>
<polygon fill="midnightblue" stroke="midnightblue" points="72.2412,-6.5001 62.2412,-10 72.2412,-13.5001 72.2412,-6.5001"/>
</g>
<!-- Node3 -->
<g id="node3" class="node"><title>Node3</title>
<g id="a_node3"><a xlink:href="../../dc/d11/getami_8c.html#a7be6d508b8d11374d4aef0a66817d9f0" target="_top" xlink:title="main">
<polygon fill="white" stroke="black" points="202,-0.5 202,-19.5 241,-19.5 241,-0.5 202,-0.5"/>
<text text-anchor="middle" x="221.5" y="-7.5" font-family="Helvetica,sans-Serif" font-size="10.00">main</text>
</a>
</g>
</g>
<!-- Node2&#45;&gt;Node3 -->
<g id="edge2" class="edge"><title>Node2&#45;&gt;Node3</title>
<path fill="none" stroke="midnightblue" d="M176.101,-10C185.062,-10 194.059,-10 201.588,-10"/>
<polygon fill="midnightblue" stroke="midnightblue" points="176.08,-6.5001 166.08,-10 176.08,-13.5001 176.08,-6.5001"/>
</g>
</g>
</svg>
