<?xml version="1.0" encoding="UTF-8" standalone="no"?>
<!DOCTYPE svg PUBLIC "-//W3C//DTD SVG 1.1//EN"
 "http://www.w3.org/Graphics/SVG/1.1/DTD/svg11.dtd">
<!-- Generated by graphviz version 2.38.0 (20140413.2041)
 -->
<!-- Title: if Pages: 1 -->
<svg width="229pt" height="104pt"
 viewBox="0.00 0.00 229.00 104.00" xmlns="http://www.w3.org/2000/svg" xmlns:xlink="http://www.w3.org/1999/xlink">
<g id="graph0" class="graph" transform="scale(1 1) rotate(0) translate(4 100)">
<title>if</title>
<polygon fill="white" stroke="none" points="-4,4 -4,-100 225,-100 225,4 -4,4"/>
<!-- Node1 -->
<g id="node1" class="node"><title>Node1</title>
<polygon fill="#bfbfbf" stroke="black" points="0,-38.5 0,-57.5 29,-57.5 29,-38.5 0,-38.5"/>
<text text-anchor="middle" x="14.5" y="-45.5" font-family="Helvetica,sans-Serif" font-size="10.00">if</text>
</g>
<!-- Node2 -->
<g id="node2" class="node"><title>Node2</title>
<g id="a_node2"><a xlink:href="../../d9/d3b/get__orion_8c.html#a0708a0954f39ecdc7aa901286295ad01" target="_top" xlink:title="main">
<polygon fill="white" stroke="black" points="86,-76.5 86,-95.5 125,-95.5 125,-76.5 86,-76.5"/>
<text text-anchor="middle" x="105.5" y="-83.5" font-family="Helvetica,sans-Serif" font-size="10.00">main</text>
</a>
</g>
</g>
<!-- Node1&#45;&gt;Node2 -->
<g id="edge1" class="edge"><title>Node1&#45;&gt;Node2</title>
<path fill="none" stroke="midnightblue" d="M38.4437,-57.7962C53.1842,-64.0899 72.0855,-72.1601 85.8901,-78.0542"/>
<polygon fill="midnightblue" stroke="midnightblue" points="39.5884,-54.4793 29.0172,-53.7714 36.8396,-60.917 39.5884,-54.4793"/>
</g>
<!-- Node3 -->
<g id="node3" class="node"><title>Node3</title>
<g id="a_node3"><a xlink:href="../../db/d50/getx11_8c.html#a3ed74bd65535ad004b2474fcddb67431" target="_top" xlink:title="get_pic">
<polygon fill="white" stroke="black" points="80,-38.5 80,-57.5 131,-57.5 131,-38.5 80,-38.5"/>
<text text-anchor="middle" x="105.5" y="-45.5" font-family="Helvetica,sans-Serif" font-size="10.00">get_pic</text>
</a>
</g>
</g>
<!-- Node1&#45;&gt;Node3 -->
<g id="edge2" class="edge"><title>Node1&#45;&gt;Node3</title>
<path fill="none" stroke="midnightblue" d="M39.15,-48C51.6723,-48 67.0406,-48 79.727,-48"/>
<polygon fill="midnightblue" stroke="midnightblue" points="39.0172,-44.5001 29.0172,-48 39.0171,-51.5001 39.0172,-44.5001"/>
</g>
<!-- Node4 -->
<g id="node4" class="node"><title>Node4</title>
<g id="a_node4"><a xlink:href="../../de/dd9/rlesplice_8c.html#aa9911368defb623ea04a0e32db20f379" target="_top" xlink:title="rle_row_clear">
<polygon fill="white" stroke="black" points="65,-0.5 65,-19.5 146,-19.5 146,-0.5 65,-0.5"/>
<text text-anchor="middle" x="105.5" y="-7.5" font-family="Helvetica,sans-Serif" font-size="10.00">rle_row_clear</text>
</a>
</g>
</g>
<!-- Node1&#45;&gt;Node4 -->
<g id="edge3" class="edge"><title>Node1&#45;&gt;Node4</title>
<path fill="none" stroke="midnightblue" d="M38.5146,-38.1736C51.9644,-32.431 68.8596,-25.2173 82.1869,-19.5269"/>
<polygon fill="midnightblue" stroke="midnightblue" points="36.8396,-35.083 29.0172,-42.2286 39.5884,-41.5207 36.8396,-35.083"/>
</g>
<!-- Node5 -->
<g id="node5" class="node"><title>Node5</title>
<g id="a_node5"><a xlink:href="../../de/dd9/rlesplice_8c.html#ade521a0600ded19f1720b6f6df59b480" target="_top" xlink:title="main">
<polygon fill="white" stroke="black" points="182,-0.5 182,-19.5 221,-19.5 221,-0.5 182,-0.5"/>
<text text-anchor="middle" x="201.5" y="-7.5" font-family="Helvetica,sans-Serif" font-size="10.00">main</text>
</a>
</g>
</g>
<!-- Node4&#45;&gt;Node5 -->
<g id="edge4" class="edge"><title>Node4&#45;&gt;Node5</title>
<path fill="none" stroke="midnightblue" d="M156.385,-10C165.512,-10 174.494,-10 181.946,-10"/>
<polygon fill="midnightblue" stroke="midnightblue" points="156.092,-6.5001 146.092,-10 156.092,-13.5001 156.092,-6.5001"/>
</g>
</g>
</svg>
