<?xml version="1.0" encoding="UTF-8" standalone="no"?>
<!DOCTYPE svg PUBLIC "-//W3C//DTD SVG 1.1//EN"
 "http://www.w3.org/Graphics/SVG/1.1/DTD/svg11.dtd">
<!-- Generated by graphviz version 2.38.0 (20140413.2041)
 -->
<!-- Title: FixColors Pages: 1 -->
<svg width="219pt" height="28pt"
 viewBox="0.00 0.00 219.00 28.00" xmlns="http://www.w3.org/2000/svg" xmlns:xlink="http://www.w3.org/1999/xlink">
<g id="graph0" class="graph" transform="scale(1 1) rotate(0) translate(4 24)">
<title>FixColors</title>
<polygon fill="white" stroke="none" points="-4,4 -4,-24 215,-24 215,4 -4,4"/>
<!-- Node1 -->
<g id="node1" class="node"><title>Node1</title>
<polygon fill="#bfbfbf" stroke="black" points="0,-0.5 0,-19.5 61,-19.5 61,-0.5 0,-0.5"/>
<text text-anchor="middle" x="30.5" y="-7.5" font-family="Helvetica,sans-Serif" font-size="10.00">FixColors</text>
</g>
<!-- Node2 -->
<g id="node2" class="node"><title>Node2</title>
<g id="a_node2"><a xlink:href="../../dc/d11/getami_8c.html#a1e03263353a7ba1bf855a8fe86b072e6" target="_top" xlink:title="save">
<polygon fill="white" stroke="black" points="97,-0.5 97,-19.5 136,-19.5 136,-0.5 97,-0.5"/>
<text text-anchor="middle" x="116.5" y="-7.5" font-family="Helvetica,sans-Serif" font-size="10.00">save</text>
</a>
</g>
</g>
<!-- Node1&#45;&gt;Node2 -->
<g id="edge1" class="edge"><title>Node1&#45;&gt;Node2</title>
<path fill="none" stroke="midnightblue" d="M71.6201,-10C80.4921,-10 89.4762,-10 96.9846,-10"/>
<polygon fill="midnightblue" stroke="midnightblue" points="71.3518,-6.5001 61.3518,-10 71.3517,-13.5001 71.3518,-6.5001"/>
</g>
<!-- Node3 -->
<g id="node3" class="node"><title>Node3</title>
<g id="a_node3"><a xlink:href="../../dc/d11/getami_8c.html#a7be6d508b8d11374d4aef0a66817d9f0" target="_top" xlink:title="main">
<polygon fill="white" stroke="black" points="172,-0.5 172,-19.5 211,-19.5 211,-0.5 172,-0.5"/>
<text text-anchor="middle" x="191.5" y="-7.5" font-family="Helvetica,sans-Serif" font-size="10.00">main</text>
</a>
</g>
</g>
<!-- Node2&#45;&gt;Node3 -->
<g id="edge2" class="edge"><title>Node2&#45;&gt;Node3</title>
<path fill="none" stroke="midnightblue" d="M146.313,-10C154.873,-10 164.023,-10 171.764,-10"/>
<polygon fill="midnightblue" stroke="midnightblue" points="146.299,-6.5001 136.299,-10 146.299,-13.5001 146.299,-6.5001"/>
</g>
</g>
</svg>
