<?xml version="1.0" encoding="UTF-8" standalone="no"?>
<!DOCTYPE svg PUBLIC "-//W3C//DTD SVG 1.1//EN"
 "http://www.w3.org/Graphics/SVG/1.1/DTD/svg11.dtd">
<!-- Generated by graphviz version 2.38.0 (20140413.2041)
 -->
<!-- Title: display_rle Pages: 1 -->
<svg width="394pt" height="387pt"
 viewBox="0.00 0.00 394.00 387.30" xmlns="http://www.w3.org/2000/svg" xmlns:xlink="http://www.w3.org/1999/xlink">
<g id="graph0" class="graph" transform="scale(1 1) rotate(0) translate(4 383.298)">
<title>display_rle</title>
<polygon fill="white" stroke="none" points="-4,4 -4,-383.298 390,-383.298 390,4 -4,4"/>
<!-- Node1 -->
<g id="node1" class="node"><title>Node1</title>
<polygon fill="#bfbfbf" stroke="black" points="0,-114.5 0,-133.5 68,-133.5 68,-114.5 0,-114.5"/>
<text text-anchor="middle" x="34" y="-121.5" font-family="Helvetica,sans-Serif" font-size="10.00">display_rle</text>
</g>
<!-- Node2 -->
<g id="node2" class="node"><title>Node2</title>
<g id="a_node2"><a xlink:href="../../db/d53/rle__getrow_8c.html#a619b27463c26e0a4a3d9648a9869ee52" target="_top" xlink:title="rle_get_setup">
<polygon fill="white" stroke="black" points="105,-247.5 105,-266.5 186,-266.5 186,-247.5 105,-247.5"/>
<text text-anchor="middle" x="145.5" y="-254.5" font-family="Helvetica,sans-Serif" font-size="10.00">rle_get_setup</text>
</a>
</g>
</g>
<!-- Node1&#45;&gt;Node2 -->
<g id="edge1" class="edge"><title>Node1&#45;&gt;Node2</title>
<path fill="none" stroke="midnightblue" d="M42.875,-133.565C61.0956,-155.696 106.392,-210.713 129.869,-239.229"/>
<polygon fill="midnightblue" stroke="midnightblue" points="127.343,-241.667 136.401,-247.163 132.747,-237.218 127.343,-241.667"/>
</g>
<!-- Node4 -->
<g id="node4" class="node"><title>Node4</title>
<g id="a_node4"><a xlink:href="../../d0/dcc/rletorla_8c.html#aafde19f7d36ca163a143579c1b125b6d" target="_top" xlink:title="free">
<polygon fill="white" stroke="black" points="345,-323.5 345,-342.5 380,-342.5 380,-323.5 345,-323.5"/>
<text text-anchor="middle" x="362.5" y="-330.5" font-family="Helvetica,sans-Serif" font-size="10.00">free</text>
</a>
</g>
</g>
<!-- Node1&#45;&gt;Node4 -->
<g id="edge13" class="edge"><title>Node1&#45;&gt;Node4</title>
<path fill="none" stroke="midnightblue" d="M37.6707,-133.739C44.9933,-159.177 67.3212,-228.896 104,-276 145.579,-329.396 159.128,-348.632 223,-371 256.557,-382.752 268.909,-381.1 303,-371 317.66,-366.657 332.088,-357.355 342.948,-349.042"/>
<polygon fill="midnightblue" stroke="midnightblue" points="345.232,-351.697 350.828,-342.701 340.843,-346.244 345.232,-351.697"/>
</g>
<!-- Node6 -->
<g id="node6" class="node"><title>Node6</title>
<g id="a_node6"><a xlink:href="../../d0/dcc/rletorla_8c.html#ab7e36af3707843f77cc5b4e831c2fa6d" target="_top" xlink:title="malloc">
<polygon fill="white" stroke="black" points="339,-190.5 339,-209.5 386,-209.5 386,-190.5 339,-190.5"/>
<text text-anchor="middle" x="362.5" y="-197.5" font-family="Helvetica,sans-Serif" font-size="10.00">malloc</text>
</a>
</g>
</g>
<!-- Node1&#45;&gt;Node6 -->
<g id="edge12" class="edge"><title>Node1&#45;&gt;Node6</title>
<path fill="none" stroke="midnightblue" d="M68.2511,-133.524C79.5633,-136.666 92.3026,-140.097 104,-143 184.318,-162.934 279.576,-183.132 328.644,-193.286"/>
<polygon fill="midnightblue" stroke="midnightblue" points="328.174,-196.763 338.675,-195.355 329.588,-189.907 328.174,-196.763"/>
</g>
<!-- Node8 -->
<g id="node8" class="node"><title>Node8</title>
<g id="a_node8"><a xlink:href="../../db/db2/rle__getcom_8c.html#a9cefd612c381bf82c9cdf1f3a3b12dd6" target="_top" xlink:title="rle_getcom">
<polygon fill="white" stroke="black" points="111,-114.5 111,-133.5 180,-133.5 180,-114.5 111,-114.5"/>
<text text-anchor="middle" x="145.5" y="-121.5" font-family="Helvetica,sans-Serif" font-size="10.00">rle_getcom</text>
</a>
</g>
</g>
<!-- Node1&#45;&gt;Node8 -->
<g id="edge10" class="edge"><title>Node1&#45;&gt;Node8</title>
<path fill="none" stroke="midnightblue" d="M68.1508,-124C78.3589,-124 89.7602,-124 100.575,-124"/>
<polygon fill="midnightblue" stroke="midnightblue" points="100.705,-127.5 110.705,-124 100.705,-120.5 100.705,-127.5"/>
</g>
<!-- Node10 -->
<g id="node10" class="node"><title>Node10</title>
<g id="a_node10"><a xlink:href="../../db/d53/rle__getrow_8c.html#a3602e1158189cba5e5b0f9b983cba776" target="_top" xlink:title="rle_getrow">
<polygon fill="white" stroke="black" points="112,-76.5 112,-95.5 179,-95.5 179,-76.5 112,-76.5"/>
<text text-anchor="middle" x="145.5" y="-83.5" font-family="Helvetica,sans-Serif" font-size="10.00">rle_getrow</text>
</a>
</g>
</g>
<!-- Node1&#45;&gt;Node10 -->
<g id="edge14" class="edge"><title>Node1&#45;&gt;Node10</title>
<path fill="none" stroke="midnightblue" d="M62.6315,-114.411C76.1185,-109.731 92.5427,-104.031 107.13,-98.9685"/>
<polygon fill="midnightblue" stroke="midnightblue" points="108.578,-102.171 116.877,-95.5859 106.283,-95.558 108.578,-102.171"/>
</g>
<!-- Node13 -->
<g id="node13" class="node"><title>Node13</title>
<g id="a_node13"><a xlink:href="../../dc/d11/getami_8c.html#a0045615d25b54c3ce23ca37698f9f467" target="_top" xlink:title="handleIDCMP">
<polygon fill="white" stroke="black" points="104,-38.5 104,-57.5 187,-57.5 187,-38.5 104,-38.5"/>
<text text-anchor="middle" x="145.5" y="-45.5" font-family="Helvetica,sans-Serif" font-size="10.00">handleIDCMP</text>
</a>
</g>
</g>
<!-- Node1&#45;&gt;Node13 -->
<g id="edge17" class="edge"><title>Node1&#45;&gt;Node13</title>
<path fill="none" stroke="midnightblue" d="M45.1189,-114.235C58.0353,-102.114 81.4217,-81.299 104,-67 106.606,-65.3495 109.378,-63.7538 112.203,-62.2357"/>
<polygon fill="midnightblue" stroke="midnightblue" points="113.901,-65.2994 121.261,-57.6782 110.755,-59.0463 113.901,-65.2994"/>
</g>
<!-- Node14 -->
<g id="node14" class="node"><title>Node14</title>
<g id="a_node14"><a xlink:href="../../dc/d11/getami_8c.html#a5e2d1f9897e19186a0e0cb368074ae80" target="_top" xlink:title="show_rgb">
<polygon fill="white" stroke="black" points="114.5,-0.5 114.5,-19.5 176.5,-19.5 176.5,-0.5 114.5,-0.5"/>
<text text-anchor="middle" x="145.5" y="-7.5" font-family="Helvetica,sans-Serif" font-size="10.00">show_rgb</text>
</a>
</g>
</g>
<!-- Node1&#45;&gt;Node14 -->
<g id="edge18" class="edge"><title>Node1&#45;&gt;Node14</title>
<path fill="none" stroke="midnightblue" d="M39.8172,-114.415C49.6093,-95.7588 73.5167,-54.1918 104,-29 105.8,-27.5126 107.735,-26.1126 109.75,-24.7999"/>
<polygon fill="midnightblue" stroke="midnightblue" points="111.941,-27.581 118.913,-19.6036 108.488,-21.4919 111.941,-27.581"/>
</g>
<!-- Node3 -->
<g id="node3" class="node"><title>Node3</title>
<g id="a_node3"><a xlink:href="../../d2/df3/rle__hdr_8c.html#a16c4da6201b3b8cf55127b9ca968d253" target="_top" xlink:title="rle_hdr_clear">
<polygon fill="white" stroke="black" points="223,-342.5 223,-361.5 303,-361.5 303,-342.5 223,-342.5"/>
<text text-anchor="middle" x="263" y="-349.5" font-family="Helvetica,sans-Serif" font-size="10.00">rle_hdr_clear</text>
</a>
</g>
</g>
<!-- Node2&#45;&gt;Node3 -->
<g id="edge2" class="edge"><title>Node2&#45;&gt;Node3</title>
<path fill="none" stroke="midnightblue" d="M155.858,-266.839C169.762,-281.181 197.033,-308.264 223,-328 227.059,-331.085 231.531,-334.13 235.956,-336.962"/>
<polygon fill="midnightblue" stroke="midnightblue" points="234.471,-340.158 244.821,-342.42 238.14,-334.197 234.471,-340.158"/>
</g>
<!-- Node2&#45;&gt;Node4 -->
<g id="edge8" class="edge"><title>Node2&#45;&gt;Node4</title>
<path fill="none" stroke="midnightblue" d="M163.391,-266.577C178.616,-274.92 201.801,-286.914 223,-295 261.01,-309.498 306.827,-320.951 335.061,-327.352"/>
<polygon fill="midnightblue" stroke="midnightblue" points="334.447,-330.801 344.968,-329.553 335.965,-323.967 334.447,-330.801"/>
</g>
<!-- Node5 -->
<g id="node5" class="node"><title>Node5</title>
<g id="a_node5"><a xlink:href="../../d2/df3/rle__hdr_8c.html#a82e79385f2d45cc3b80ce0f4f369eae5" target="_top" xlink:title="rle_names">
<polygon fill="white" stroke="black" points="230,-266.5 230,-285.5 296,-285.5 296,-266.5 230,-266.5"/>
<text text-anchor="middle" x="263" y="-273.5" font-family="Helvetica,sans-Serif" font-size="10.00">rle_names</text>
</a>
</g>
</g>
<!-- Node2&#45;&gt;Node5 -->
<g id="edge4" class="edge"><title>Node2&#45;&gt;Node5</title>
<path fill="none" stroke="midnightblue" d="M186.249,-263.539C197.029,-265.312 208.739,-267.238 219.656,-269.034"/>
<polygon fill="midnightblue" stroke="midnightblue" points="219.389,-272.537 229.824,-270.707 220.525,-265.63 219.389,-272.537"/>
</g>
<!-- Node2&#45;&gt;Node6 -->
<g id="edge7" class="edge"><title>Node2&#45;&gt;Node6</title>
<path fill="none" stroke="midnightblue" d="M161.99,-247.42C177.017,-238.591 200.748,-225.851 223,-219 258.172,-208.171 300.267,-203.504 328.746,-201.499"/>
<polygon fill="midnightblue" stroke="midnightblue" points="329.192,-204.978 338.951,-200.854 328.75,-197.992 329.192,-204.978"/>
</g>
<!-- Node7 -->
<g id="node7" class="node"><title>Node7</title>
<g id="a_node7"><a xlink:href="../../db/d53/rle__getrow_8c.html#a0ea68aa2ebeef9d4cade7282553b03d6" target="_top" xlink:title="vax_gshort">
<polygon fill="white" stroke="black" points="228.5,-228.5 228.5,-247.5 297.5,-247.5 297.5,-228.5 228.5,-228.5"/>
<text text-anchor="middle" x="263" y="-235.5" font-family="Helvetica,sans-Serif" font-size="10.00">vax_gshort</text>
</a>
</g>
</g>
<!-- Node2&#45;&gt;Node7 -->
<g id="edge9" class="edge"><title>Node2&#45;&gt;Node7</title>
<path fill="none" stroke="midnightblue" d="M186.249,-250.461C196.633,-248.753 207.881,-246.903 218.451,-245.164"/>
<polygon fill="midnightblue" stroke="midnightblue" points="219.029,-248.616 228.328,-243.539 217.893,-241.709 219.029,-248.616"/>
</g>
<!-- Node3&#45;&gt;Node4 -->
<g id="edge3" class="edge"><title>Node3&#45;&gt;Node4</title>
<path fill="none" stroke="midnightblue" d="M303.095,-344.381C313.678,-342.319 324.893,-340.134 334.636,-338.235"/>
<polygon fill="midnightblue" stroke="midnightblue" points="335.385,-341.655 344.531,-336.307 334.046,-334.784 335.385,-341.655"/>
</g>
<!-- Node5&#45;&gt;Node4 -->
<g id="edge5" class="edge"><title>Node5&#45;&gt;Node4</title>
<path fill="none" stroke="midnightblue" d="M280.54,-285.669C295.759,-294.567 318.559,-307.896 336.09,-318.145"/>
<polygon fill="midnightblue" stroke="midnightblue" points="334.805,-321.448 345.205,-323.474 338.338,-315.405 334.805,-321.448"/>
</g>
<!-- Node5&#45;&gt;Node6 -->
<g id="edge6" class="edge"><title>Node5&#45;&gt;Node6</title>
<path fill="none" stroke="midnightblue" d="M286.966,-266.321C292.414,-263.621 298.071,-260.466 303,-257 319.21,-245.601 335.155,-229.661 346.294,-217.535"/>
<polygon fill="midnightblue" stroke="midnightblue" points="349.113,-219.634 353.182,-209.852 343.901,-214.962 349.113,-219.634"/>
</g>
<!-- Node9 -->
<g id="node9" class="node"><title>Node9</title>
<g id="a_node9"><a xlink:href="../../db/db2/rle__getcom_8c.html#a7502c8b599724ce86fee5df1311a2337" target="_top" xlink:title="match">
<polygon fill="white" stroke="black" points="240.5,-114.5 240.5,-133.5 285.5,-133.5 285.5,-114.5 240.5,-114.5"/>
<text text-anchor="middle" x="263" y="-121.5" font-family="Helvetica,sans-Serif" font-size="10.00">match</text>
</a>
</g>
</g>
<!-- Node8&#45;&gt;Node9 -->
<g id="edge11" class="edge"><title>Node8&#45;&gt;Node9</title>
<path fill="none" stroke="midnightblue" d="M180.218,-124C196.015,-124 214.732,-124 230.272,-124"/>
<polygon fill="midnightblue" stroke="midnightblue" points="230.447,-127.5 240.447,-124 230.447,-120.5 230.447,-127.5"/>
</g>
<!-- Node11 -->
<g id="node11" class="node"><title>Node11</title>
<g id="a_node11"><a xlink:href="../../db/d53/rle__getrow_8c.html#a61ac0da96b0dd8bc3cbc98afcd9b5c44" target="_top" xlink:title="bfill">
<polygon fill="white" stroke="black" points="247,-76.5 247,-95.5 279,-95.5 279,-76.5 247,-76.5"/>
<text text-anchor="middle" x="263" y="-83.5" font-family="Helvetica,sans-Serif" font-size="10.00">bfill</text>
</a>
</g>
</g>
<!-- Node10&#45;&gt;Node11 -->
<g id="edge15" class="edge"><title>Node10&#45;&gt;Node11</title>
<path fill="none" stroke="midnightblue" d="M179.289,-86C197.452,-86 219.695,-86 236.538,-86"/>
<polygon fill="midnightblue" stroke="midnightblue" points="236.73,-89.5001 246.73,-86 236.73,-82.5001 236.73,-89.5001"/>
</g>
<!-- Node12 -->
<g id="node12" class="node"><title>Node12</title>
<g id="a_node12"><a xlink:href="../../d8/d7c/rle__getskip_8c.html#af6b1e1dc0867e9340f90668591c7c5b3" target="_top" xlink:title="rle_getskip">
<polygon fill="white" stroke="black" points="229,-38.5 229,-57.5 297,-57.5 297,-38.5 229,-38.5"/>
<text text-anchor="middle" x="263" y="-45.5" font-family="Helvetica,sans-Serif" font-size="10.00">rle_getskip</text>
</a>
</g>
</g>
<!-- Node10&#45;&gt;Node12 -->
<g id="edge16" class="edge"><title>Node10&#45;&gt;Node12</title>
<path fill="none" stroke="midnightblue" d="M175.646,-76.411C190.008,-71.6856 207.529,-65.9211 223.026,-60.8226"/>
<polygon fill="midnightblue" stroke="midnightblue" points="224.459,-64.0359 232.864,-57.5859 222.271,-57.3866 224.459,-64.0359"/>
</g>
</g>
</svg>
