<?xml version="1.0" encoding="UTF-8" standalone="no"?>
<!DOCTYPE svg PUBLIC "-//W3C//DTD SVG 1.1//EN"
 "http://www.w3.org/Graphics/SVG/1.1/DTD/svg11.dtd">
<!-- Generated by graphviz version 2.38.0 (20140413.2041)
 -->
<!-- Title: find_most_used Pages: 1 -->
<svg width="216pt" height="256pt"
 viewBox="0.00 0.00 216.00 256.00" xmlns="http://www.w3.org/2000/svg" xmlns:xlink="http://www.w3.org/1999/xlink">
<g id="graph0" class="graph" transform="scale(1 1) rotate(0) translate(4 252)">
<title>find_most_used</title>
<polygon fill="white" stroke="none" points="-4,4 -4,-252 212,-252 212,4 -4,4"/>
<!-- Node1 -->
<g id="node1" class="node"><title>Node1</title>
<polygon fill="#bfbfbf" stroke="black" points="0,-114.5 0,-133.5 91,-133.5 91,-114.5 0,-114.5"/>
<text text-anchor="middle" x="45.5" y="-121.5" font-family="Helvetica,sans-Serif" font-size="10.00">find_most_used</text>
</g>
<!-- Node2 -->
<g id="node2" class="node"><title>Node2</title>
<g id="a_node2"><a xlink:href="../../df/dcf/buildmap_8c.html#a0683647be765d65564fe36af29edea5c" target="_top" xlink:title="buildmap">
<polygon fill="white" stroke="black" points="138.5,-228.5 138.5,-247.5 196.5,-247.5 196.5,-228.5 138.5,-228.5"/>
<text text-anchor="middle" x="167.5" y="-235.5" font-family="Helvetica,sans-Serif" font-size="10.00">buildmap</text>
</a>
</g>
</g>
<!-- Node1&#45;&gt;Node2 -->
<g id="edge1" class="edge"><title>Node1&#45;&gt;Node2</title>
<path fill="none" stroke="midnightblue" d="M52.5394,-133.504C64.6986,-152.019 93.8194,-193.35 127,-219 129.055,-220.588 131.263,-222.091 133.548,-223.502"/>
<polygon fill="midnightblue" stroke="midnightblue" points="132.131,-226.717 142.577,-228.482 135.511,-220.587 132.131,-226.717"/>
</g>
<!-- Node3 -->
<g id="node3" class="node"><title>Node3</title>
<g id="a_node3"><a xlink:href="../../db/d53/rle__getrow_8c.html#a619b27463c26e0a4a3d9648a9869ee52" target="_top" xlink:title="rle_get_setup">
<polygon fill="white" stroke="black" points="127,-190.5 127,-209.5 208,-209.5 208,-190.5 127,-190.5"/>
<text text-anchor="middle" x="167.5" y="-197.5" font-family="Helvetica,sans-Serif" font-size="10.00">rle_get_setup</text>
</a>
</g>
</g>
<!-- Node1&#45;&gt;Node3 -->
<g id="edge2" class="edge"><title>Node1&#45;&gt;Node3</title>
<path fill="none" stroke="midnightblue" d="M58.6159,-133.556C74.0055,-145.46 101.62,-166.053 127,-181 129.82,-182.661 132.806,-184.299 135.825,-185.877"/>
<polygon fill="midnightblue" stroke="midnightblue" points="134.329,-189.042 144.838,-190.386 137.461,-182.782 134.329,-189.042"/>
</g>
<!-- Node4 -->
<g id="node4" class="node"><title>Node4</title>
<g id="a_node4"><a xlink:href="../../db/db2/rle__getcom_8c.html#aa27b5b87bd79d94a914627210674c7b6" target="_top" xlink:title="rle_getcom">
<polygon fill="white" stroke="black" points="133,-152.5 133,-171.5 202,-171.5 202,-152.5 133,-152.5"/>
<text text-anchor="middle" x="167.5" y="-159.5" font-family="Helvetica,sans-Serif" font-size="10.00">rle_getcom</text>
</a>
</g>
</g>
<!-- Node1&#45;&gt;Node4 -->
<g id="edge3" class="edge"><title>Node1&#45;&gt;Node4</title>
<path fill="none" stroke="midnightblue" d="M76.7811,-133.589C91.8456,-138.359 110.254,-144.189 126.467,-149.323"/>
<polygon fill="midnightblue" stroke="midnightblue" points="125.639,-152.732 136.229,-152.414 127.752,-146.058 125.639,-152.732"/>
</g>
<!-- Node5 -->
<g id="node5" class="node"><title>Node5</title>
<g id="a_node5"><a xlink:href="../../db/d53/rle__getrow_8c.html#a3602e1158189cba5e5b0f9b983cba776" target="_top" xlink:title="rle_getrow">
<polygon fill="white" stroke="black" points="134,-114.5 134,-133.5 201,-133.5 201,-114.5 134,-114.5"/>
<text text-anchor="middle" x="167.5" y="-121.5" font-family="Helvetica,sans-Serif" font-size="10.00">rle_getrow</text>
</a>
</g>
</g>
<!-- Node1&#45;&gt;Node5 -->
<g id="edge4" class="edge"><title>Node1&#45;&gt;Node5</title>
<path fill="none" stroke="midnightblue" d="M91.1836,-124C101.779,-124 113.057,-124 123.572,-124"/>
<polygon fill="midnightblue" stroke="midnightblue" points="123.779,-127.5 133.779,-124 123.779,-120.5 123.779,-127.5"/>
</g>
<!-- Node6 -->
<g id="node6" class="node"><title>Node6</title>
<g id="a_node6"><a xlink:href="../../d9/d2a/rle__putrow_8c.html#af88a82b331cd6f425d2a2cc1623944c6" target="_top" xlink:title="rle_put_setup">
<polygon fill="white" stroke="black" points="127.5,-76.5 127.5,-95.5 207.5,-95.5 207.5,-76.5 127.5,-76.5"/>
<text text-anchor="middle" x="167.5" y="-83.5" font-family="Helvetica,sans-Serif" font-size="10.00">rle_put_setup</text>
</a>
</g>
</g>
<!-- Node1&#45;&gt;Node6 -->
<g id="edge5" class="edge"><title>Node1&#45;&gt;Node6</title>
<path fill="none" stroke="midnightblue" d="M76.7811,-114.411C91.8456,-109.641 110.254,-103.811 126.467,-98.6771"/>
<polygon fill="midnightblue" stroke="midnightblue" points="127.752,-101.942 136.229,-95.5859 125.639,-95.2682 127.752,-101.942"/>
</g>
<!-- Node7 -->
<g id="node7" class="node"><title>Node7</title>
<g id="a_node7"><a xlink:href="../../df/da5/rle__putcom_8c.html#af9b05ed59c704cfa641e337db63ee862" target="_top" xlink:title="rle_putcom">
<polygon fill="white" stroke="black" points="133.5,-38.5 133.5,-57.5 201.5,-57.5 201.5,-38.5 133.5,-38.5"/>
<text text-anchor="middle" x="167.5" y="-45.5" font-family="Helvetica,sans-Serif" font-size="10.00">rle_putcom</text>
</a>
</g>
</g>
<!-- Node1&#45;&gt;Node7 -->
<g id="edge6" class="edge"><title>Node1&#45;&gt;Node7</title>
<path fill="none" stroke="midnightblue" d="M58.6159,-114.444C74.0055,-102.54 101.62,-81.9468 127,-67 129.82,-65.3395 132.806,-63.7008 135.825,-62.1233"/>
<polygon fill="midnightblue" stroke="midnightblue" points="137.461,-65.2185 144.838,-57.6145 134.329,-58.958 137.461,-65.2185"/>
</g>
<!-- Node8 -->
<g id="node8" class="node"><title>Node8</title>
<g id="a_node8"><a xlink:href="../../d9/d2a/rle__putrow_8c.html#aa26532b01bc4f49b7383765cdc23ea72" target="_top" xlink:title="rle_putrow">
<polygon fill="white" stroke="black" points="134.5,-0.5 134.5,-19.5 200.5,-19.5 200.5,-0.5 134.5,-0.5"/>
<text text-anchor="middle" x="167.5" y="-7.5" font-family="Helvetica,sans-Serif" font-size="10.00">rle_putrow</text>
</a>
</g>
</g>
<!-- Node1&#45;&gt;Node8 -->
<g id="edge7" class="edge"><title>Node1&#45;&gt;Node8</title>
<path fill="none" stroke="midnightblue" d="M52.5394,-114.496C64.6986,-95.9809 93.8194,-54.6501 127,-29 129.055,-27.4118 131.263,-25.9094 133.548,-24.4981"/>
<polygon fill="midnightblue" stroke="midnightblue" points="135.511,-27.4125 142.577,-19.5181 132.131,-21.2831 135.511,-27.4125"/>
</g>
</g>
</svg>
