<?xml version="1.0" encoding="UTF-8" standalone="no"?>
<!DOCTYPE svg PUBLIC "-//W3C//DTD SVG 1.1//EN"
 "http://www.w3.org/Graphics/SVG/1.1/DTD/svg11.dtd">
<!-- Generated by graphviz version 2.38.0 (20140413.2041)
 -->
<!-- Title: main Pages: 1 -->
<svg width="520pt" height="788pt"
 viewBox="0.00 0.00 520.00 788.00" xmlns="http://www.w3.org/2000/svg" xmlns:xlink="http://www.w3.org/1999/xlink">
<g id="graph0" class="graph" transform="scale(1 1) rotate(0) translate(4 784)">
<title>main</title>
<polygon fill="white" stroke="none" points="-4,4 -4,-784 516,-784 516,4 -4,4"/>
<!-- Node1 -->
<g id="node1" class="node"><title>Node1</title>
<polygon fill="#bfbfbf" stroke="black" points="0,-342.5 0,-361.5 39,-361.5 39,-342.5 0,-342.5"/>
<text text-anchor="middle" x="19.5" y="-349.5" font-family="Helvetica,sans-Serif" font-size="10.00">main</text>
</g>
<!-- Node2 -->
<g id="node2" class="node"><title>Node2</title>
<g id="a_node2"><a xlink:href="../../d9/dea/getcx3d_8c.html#af4152c13a06d002f268af780c0433c3a" target="_top" xlink:title="done">
<polygon fill="white" stroke="black" points="100,-760.5 100,-779.5 141,-779.5 141,-760.5 100,-760.5"/>
<text text-anchor="middle" x="120.5" y="-767.5" font-family="Helvetica,sans-Serif" font-size="10.00">done</text>
</a>
</g>
</g>
<!-- Node1&#45;&gt;Node2 -->
<g id="edge1" class="edge"><title>Node1&#45;&gt;Node2</title>
<path fill="none" stroke="midnightblue" d="M20.5636,-361.533C21.105,-415.945 26.246,-687.067 75,-751 78.9446,-756.173 84.5745,-759.954 90.5093,-762.714"/>
<polygon fill="midnightblue" stroke="midnightblue" points="89.2963,-765.997 99.8879,-766.26 91.7725,-759.449 89.2963,-765.997"/>
</g>
<!-- Node4 -->
<g id="node4" class="node"><title>Node4</title>
<g id="a_node4"><a xlink:href="../../dc/d53/getopt_8c.html#a1484840539d6adef4a97ad6e239458ea" target="_top" xlink:title="getopt">
<polygon fill="white" stroke="black" points="97,-722.5 97,-741.5 144,-741.5 144,-722.5 97,-722.5"/>
<text text-anchor="middle" x="120.5" y="-729.5" font-family="Helvetica,sans-Serif" font-size="10.00">getopt</text>
</a>
</g>
</g>
<!-- Node1&#45;&gt;Node4 -->
<g id="edge3" class="edge"><title>Node1&#45;&gt;Node4</title>
<path fill="none" stroke="midnightblue" d="M20.7174,-361.62C22.059,-413.088 30.6835,-655.728 75,-713 78.258,-717.21 82.6301,-720.501 87.365,-723.068"/>
<polygon fill="midnightblue" stroke="midnightblue" points="86.156,-726.36 96.72,-727.167 88.9652,-719.948 86.156,-726.36"/>
</g>
<!-- Node6 -->
<g id="node6" class="node"><title>Node6</title>
<g id="a_node6"><a xlink:href="../../dc/d11/getami_8c.html#a90805504fda2908d2627e897a0f89e03" target="_top" xlink:title="mktemp">
<polygon fill="white" stroke="black" points="94,-684.5 94,-703.5 147,-703.5 147,-684.5 94,-684.5"/>
<text text-anchor="middle" x="120.5" y="-691.5" font-family="Helvetica,sans-Serif" font-size="10.00">mktemp</text>
</a>
</g>
</g>
<!-- Node1&#45;&gt;Node6 -->
<g id="edge5" class="edge"><title>Node1&#45;&gt;Node6</title>
<path fill="none" stroke="midnightblue" d="M20.902,-361.544C23.0991,-409.547 35.059,-624.295 75,-675 77.69,-678.415 81.111,-681.226 84.8573,-683.537"/>
<polygon fill="midnightblue" stroke="midnightblue" points="83.4851,-686.763 93.9988,-688.073 86.5964,-680.493 83.4851,-686.763"/>
</g>
<!-- Node7 -->
<g id="node7" class="node"><title>Node7</title>
<g id="a_node7"><a xlink:href="../../dc/d11/getami_8c.html#a5c45730fc295287531be906fadca4a61" target="_top" xlink:title="OpenLibrary">
<polygon fill="white" stroke="black" points="83,-646.5 83,-665.5 158,-665.5 158,-646.5 83,-646.5"/>
<text text-anchor="middle" x="120.5" y="-653.5" font-family="Helvetica,sans-Serif" font-size="10.00">OpenLibrary</text>
</a>
</g>
</g>
<!-- Node1&#45;&gt;Node7 -->
<g id="edge6" class="edge"><title>Node1&#45;&gt;Node7</title>
<path fill="none" stroke="midnightblue" d="M21.2762,-361.641C24.9808,-405.647 42.0605,-587.22 75,-632 77.5161,-635.42 80.6702,-638.405 84.1315,-640.997"/>
<polygon fill="midnightblue" stroke="midnightblue" points="82.2852,-643.97 92.6093,-646.35 86.0227,-638.052 82.2852,-643.97"/>
</g>
<!-- Node8 -->
<g id="node8" class="node"><title>Node8</title>
<g id="a_node8"><a xlink:href="../../dc/d11/getami_8c.html#aa654afe741816fa93d1cd7e49ef583ec" target="_top" xlink:title="find_most_used">
<polygon fill="white" stroke="black" points="75,-456.5 75,-475.5 166,-475.5 166,-456.5 75,-456.5"/>
<text text-anchor="middle" x="120.5" y="-463.5" font-family="Helvetica,sans-Serif" font-size="10.00">find_most_used</text>
</a>
</g>
</g>
<!-- Node1&#45;&gt;Node8 -->
<g id="edge7" class="edge"><title>Node1&#45;&gt;Node8</title>
<path fill="none" stroke="midnightblue" d="M28.9407,-361.72C45.6719,-380.986 83.2465,-424.254 104.36,-448.566"/>
<polygon fill="midnightblue" stroke="midnightblue" points="101.881,-451.05 111.081,-456.305 107.166,-446.46 101.881,-451.05"/>
</g>
<!-- Node28 -->
<g id="node28" class="node"><title>Node28</title>
<g id="a_node28"><a xlink:href="../../dc/d11/getami_8c.html#a79e95ecaf05e62883d348ea95bbe1d3d" target="_top" xlink:title="CalcWidth">
<polygon fill="white" stroke="black" points="88,-285.5 88,-304.5 153,-304.5 153,-285.5 88,-285.5"/>
<text text-anchor="middle" x="120.5" y="-292.5" font-family="Helvetica,sans-Serif" font-size="10.00">CalcWidth</text>
</a>
</g>
</g>
<!-- Node1&#45;&gt;Node28 -->
<g id="edge34" class="edge"><title>Node1&#45;&gt;Node28</title>
<path fill="none" stroke="midnightblue" d="M36.1176,-342.26C46.9478,-335.576 61.7497,-326.578 75,-319 80.467,-315.873 86.3651,-312.614 92.0232,-309.542"/>
<polygon fill="midnightblue" stroke="midnightblue" points="94.0517,-312.425 101.2,-304.605 90.7355,-306.26 94.0517,-312.425"/>
</g>
<!-- Node29 -->
<g id="node29" class="node"><title>Node29</title>
<g id="a_node29"><a xlink:href="../../dc/d11/getami_8c.html#a5b293e708c2a15ec43d48b02acd60c2c" target="_top" xlink:title="CalcHeight">
<polygon fill="white" stroke="black" points="86.5,-247.5 86.5,-266.5 154.5,-266.5 154.5,-247.5 86.5,-247.5"/>
<text text-anchor="middle" x="120.5" y="-254.5" font-family="Helvetica,sans-Serif" font-size="10.00">CalcHeight</text>
</a>
</g>
</g>
<!-- Node1&#45;&gt;Node29 -->
<g id="edge35" class="edge"><title>Node1&#45;&gt;Node29</title>
<path fill="none" stroke="midnightblue" d="M25.2124,-342.299C33.3476,-326.455 51.4439,-294.898 75,-276 77.0067,-274.39 79.1701,-272.894 81.424,-271.506"/>
<polygon fill="midnightblue" stroke="midnightblue" points="83.2612,-274.493 90.4259,-266.688 79.9577,-268.321 83.2612,-274.493"/>
</g>
<!-- Node30 -->
<g id="node30" class="node"><title>Node30</title>
<g id="a_node30"><a xlink:href="../../dc/d11/getami_8c.html#ab75c23b719e7ef9d86e2b9c52679874c" target="_top" xlink:title="CalcHAMWidth">
<polygon fill="white" stroke="black" points="76.5,-209.5 76.5,-228.5 164.5,-228.5 164.5,-209.5 76.5,-209.5"/>
<text text-anchor="middle" x="120.5" y="-216.5" font-family="Helvetica,sans-Serif" font-size="10.00">CalcHAMWidth</text>
</a>
</g>
</g>
<!-- Node1&#45;&gt;Node30 -->
<g id="edge36" class="edge"><title>Node1&#45;&gt;Node30</title>
<path fill="none" stroke="midnightblue" d="M22.6357,-342.38C27.8782,-320.862 43.3254,-268.359 75,-238 76.6261,-236.441 78.3997,-235.001 80.2721,-233.671"/>
<polygon fill="midnightblue" stroke="midnightblue" points="82.1428,-236.631 88.9628,-228.523 78.5752,-230.608 82.1428,-236.631"/>
</g>
<!-- Node31 -->
<g id="node31" class="node"><title>Node31</title>
<g id="a_node31"><a xlink:href="../../dc/d11/getami_8c.html#a74c45cb6cebf087c4d4e74f447e4c06b" target="_top" xlink:title="OpenScreen">
<polygon fill="white" stroke="black" points="82,-171.5 82,-190.5 159,-190.5 159,-171.5 82,-171.5"/>
<text text-anchor="middle" x="120.5" y="-178.5" font-family="Helvetica,sans-Serif" font-size="10.00">OpenScreen</text>
</a>
</g>
</g>
<!-- Node1&#45;&gt;Node31 -->
<g id="edge37" class="edge"><title>Node1&#45;&gt;Node31</title>
<path fill="none" stroke="midnightblue" d="M21.3116,-342.448C24.0244,-316.257 35.0079,-242.435 75,-200 76.2279,-198.697 77.5598,-197.479 78.9698,-196.342"/>
<polygon fill="midnightblue" stroke="midnightblue" points="81.2349,-199.044 87.7202,-190.666 77.4258,-193.172 81.2349,-199.044"/>
</g>
<!-- Node32 -->
<g id="node32" class="node"><title>Node32</title>
<g id="a_node32"><a xlink:href="../../dc/d11/getami_8c.html#a900f2889d0a2eea40d215f2e62ddb992" target="_top" xlink:title="AdjustScreen">
<polygon fill="white" stroke="black" points="81,-133.5 81,-152.5 160,-152.5 160,-133.5 81,-133.5"/>
<text text-anchor="middle" x="120.5" y="-140.5" font-family="Helvetica,sans-Serif" font-size="10.00">AdjustScreen</text>
</a>
</g>
</g>
<!-- Node1&#45;&gt;Node32 -->
<g id="edge38" class="edge"><title>Node1&#45;&gt;Node32</title>
<path fill="none" stroke="midnightblue" d="M20.5016,-342.357C21.019,-311.939 26.6219,-216.793 75,-162 76.1467,-160.701 77.3975,-159.488 78.7282,-158.356"/>
<polygon fill="midnightblue" stroke="midnightblue" points="80.7393,-161.221 87.054,-152.714 76.8123,-155.426 80.7393,-161.221"/>
</g>
<!-- Node33 -->
<g id="node33" class="node"><title>Node33</title>
<g id="a_node33"><a xlink:href="../../dc/d11/getami_8c.html#a75ab1b132f337a2996ae5c406bace6d1" target="_top" xlink:title="OpenWindow">
<polygon fill="white" stroke="black" points="80.5,-95.5 80.5,-114.5 160.5,-114.5 160.5,-95.5 80.5,-95.5"/>
<text text-anchor="middle" x="120.5" y="-102.5" font-family="Helvetica,sans-Serif" font-size="10.00">OpenWindow</text>
</a>
</g>
</g>
<!-- Node1&#45;&gt;Node33 -->
<g id="edge39" class="edge"><title>Node1&#45;&gt;Node33</title>
<path fill="none" stroke="midnightblue" d="M19.9434,-342.437C18.4861,-308.387 18.0415,-191.494 75,-124 76.1174,-122.676 77.3436,-121.442 78.6539,-120.292"/>
<polygon fill="midnightblue" stroke="midnightblue" points="80.6714,-123.152 86.904,-114.584 76.6889,-117.395 80.6714,-123.152"/>
</g>
<!-- Node34 -->
<g id="node34" class="node"><title>Node34</title>
<g id="a_node34"><a xlink:href="../../dc/d11/getami_8c.html#a3a79557c0de5078d1ea9206ce5eb3e77" target="_top" xlink:title="display_rle">
<polygon fill="white" stroke="black" points="86.5,-361.5 86.5,-380.5 154.5,-380.5 154.5,-361.5 86.5,-361.5"/>
<text text-anchor="middle" x="120.5" y="-368.5" font-family="Helvetica,sans-Serif" font-size="10.00">display_rle</text>
</a>
</g>
</g>
<!-- Node1&#45;&gt;Node34 -->
<g id="edge40" class="edge"><title>Node1&#45;&gt;Node34</title>
<path fill="none" stroke="midnightblue" d="M39.1211,-355.574C49.5515,-357.576 63.0275,-360.162 75.9539,-362.643"/>
<polygon fill="midnightblue" stroke="midnightblue" points="75.6536,-366.149 86.1341,-364.596 76.973,-359.274 75.6536,-366.149"/>
</g>
<!-- Node35 -->
<g id="node35" class="node"><title>Node35</title>
<g id="a_node35"><a xlink:href="../../dc/d11/getami_8c.html#a0045615d25b54c3ce23ca37698f9f467" target="_top" xlink:title="handleIDCMP">
<polygon fill="white" stroke="black" points="202,-0.5 202,-19.5 285,-19.5 285,-0.5 202,-0.5"/>
<text text-anchor="middle" x="243.5" y="-7.5" font-family="Helvetica,sans-Serif" font-size="10.00">handleIDCMP</text>
</a>
</g>
</g>
<!-- Node1&#45;&gt;Node35 -->
<g id="edge53" class="edge"><title>Node1&#45;&gt;Node35</title>
<path fill="none" stroke="midnightblue" d="M39.2317,-353.188C70.6423,-354.052 133.663,-350.751 166,-314 248.883,-219.804 133.045,-138.822 202,-34 204.1,-30.8078 206.783,-27.9812 209.768,-25.493"/>
<polygon fill="midnightblue" stroke="midnightblue" points="211.94,-28.2458 218.174,-19.6786 207.958,-22.4887 211.94,-28.2458"/>
</g>
<!-- Node37 -->
<g id="node37" class="node"><title>Node37</title>
<g id="a_node37"><a xlink:href="../../dc/d11/getami_8c.html#a1e03263353a7ba1bf855a8fe86b072e6" target="_top" xlink:title="save">
<polygon fill="white" stroke="black" points="341.5,-684.5 341.5,-703.5 380.5,-703.5 380.5,-684.5 341.5,-684.5"/>
<text text-anchor="middle" x="361" y="-691.5" font-family="Helvetica,sans-Serif" font-size="10.00">save</text>
</a>
</g>
</g>
<!-- Node1&#45;&gt;Node37 -->
<g id="edge48" class="edge"><title>Node1&#45;&gt;Node37</title>
<path fill="none" stroke="midnightblue" d="M23.703,-361.648C31.2774,-383.984 51.4365,-440.723 75,-485 86.9295,-507.416 180.36,-661.714 202,-675 241.729,-699.392 297.729,-699.884 331.29,-697.385"/>
<polygon fill="midnightblue" stroke="midnightblue" points="331.696,-700.862 341.348,-696.495 331.079,-693.89 331.696,-700.862"/>
</g>
<!-- Node3 -->
<g id="node3" class="node"><title>Node3</title>
<g id="a_node3"><a xlink:href="../../da/d12/sig_8c.html#aa189be24085654e9f5fa0718698ae248" target="_top" xlink:title="sig_block">
<polygon fill="white" stroke="black" points="213.5,-760.5 213.5,-779.5 273.5,-779.5 273.5,-760.5 213.5,-760.5"/>
<text text-anchor="middle" x="243.5" y="-767.5" font-family="Helvetica,sans-Serif" font-size="10.00">sig_block</text>
</a>
</g>
</g>
<!-- Node2&#45;&gt;Node3 -->
<g id="edge2" class="edge"><title>Node2&#45;&gt;Node3</title>
<path fill="none" stroke="midnightblue" d="M141.21,-770C157.938,-770 182.454,-770 203.176,-770"/>
<polygon fill="midnightblue" stroke="midnightblue" points="203.299,-773.5 213.298,-770 203.298,-766.5 203.299,-773.5"/>
</g>
<!-- Node5 -->
<g id="node5" class="node"><title>Node5</title>
<g id="a_node5"><a xlink:href="../../dc/d53/getopt_8c.html#aa4a0de5bffcb84a01c711ce72ef194a9" target="_top" xlink:title="index">
<polygon fill="white" stroke="black" points="222.5,-722.5 222.5,-741.5 264.5,-741.5 264.5,-722.5 222.5,-722.5"/>
<text text-anchor="middle" x="243.5" y="-729.5" font-family="Helvetica,sans-Serif" font-size="10.00">index</text>
</a>
</g>
</g>
<!-- Node4&#45;&gt;Node5 -->
<g id="edge4" class="edge"><title>Node4&#45;&gt;Node5</title>
<path fill="none" stroke="midnightblue" d="M144.259,-732C163.468,-732 191.129,-732 212.208,-732"/>
<polygon fill="midnightblue" stroke="midnightblue" points="212.256,-735.5 222.256,-732 212.256,-728.5 212.256,-735.5"/>
</g>
<!-- Node9 -->
<g id="node9" class="node"><title>Node9</title>
<g id="a_node9"><a xlink:href="../../db/d53/rle__getrow_8c.html#a619b27463c26e0a4a3d9648a9869ee52" target="_top" xlink:title="rle_get_setup">
<polygon fill="white" stroke="black" points="203,-285.5 203,-304.5 284,-304.5 284,-285.5 203,-285.5"/>
<text text-anchor="middle" x="243.5" y="-292.5" font-family="Helvetica,sans-Serif" font-size="10.00">rle_get_setup</text>
</a>
</g>
</g>
<!-- Node8&#45;&gt;Node9 -->
<g id="edge8" class="edge"><title>Node8&#45;&gt;Node9</title>
<path fill="none" stroke="midnightblue" d="M128.352,-456.316C147.902,-428.687 204.178,-349.158 229.673,-313.127"/>
<polygon fill="midnightblue" stroke="midnightblue" points="232.804,-314.762 235.723,-304.577 227.09,-310.719 232.804,-314.762"/>
</g>
<!-- Node11 -->
<g id="node11" class="node"><title>Node11</title>
<g id="a_node11"><a xlink:href="../../d0/dcc/rletorla_8c.html#aafde19f7d36ca163a143579c1b125b6d" target="_top" xlink:title="free">
<polygon fill="white" stroke="black" points="457,-228.5 457,-247.5 492,-247.5 492,-228.5 457,-228.5"/>
<text text-anchor="middle" x="474.5" y="-235.5" font-family="Helvetica,sans-Serif" font-size="10.00">free</text>
</a>
</g>
</g>
<!-- Node8&#45;&gt;Node11 -->
<g id="edge20" class="edge"><title>Node8&#45;&gt;Node11</title>
<path fill="none" stroke="midnightblue" d="M166.171,-461.942C235.718,-454.807 365.587,-437.96 401,-409 448.751,-369.951 465.621,-293.776 471.098,-257.766"/>
<polygon fill="midnightblue" stroke="midnightblue" points="474.603,-257.967 472.501,-247.583 467.669,-257.012 474.603,-257.967"/>
</g>
<!-- Node13 -->
<g id="node13" class="node"><title>Node13</title>
<g id="a_node13"><a xlink:href="../../d0/dcc/rletorla_8c.html#ab7e36af3707843f77cc5b4e831c2fa6d" target="_top" xlink:title="malloc">
<polygon fill="white" stroke="black" points="451,-456.5 451,-475.5 498,-475.5 498,-456.5 451,-456.5"/>
<text text-anchor="middle" x="474.5" y="-463.5" font-family="Helvetica,sans-Serif" font-size="10.00">malloc</text>
</a>
</g>
</g>
<!-- Node8&#45;&gt;Node13 -->
<g id="edge19" class="edge"><title>Node8&#45;&gt;Node13</title>
<path fill="none" stroke="midnightblue" d="M166.081,-466C237.782,-466 377.09,-466 440.563,-466"/>
<polygon fill="midnightblue" stroke="midnightblue" points="440.79,-469.5 450.79,-466 440.789,-462.5 440.79,-469.5"/>
</g>
<!-- Node15 -->
<g id="node15" class="node"><title>Node15</title>
<g id="a_node15"><a xlink:href="../../db/db2/rle__getcom_8c.html#a9cefd612c381bf82c9cdf1f3a3b12dd6" target="_top" xlink:title="rle_getcom">
<polygon fill="white" stroke="black" points="209,-380.5 209,-399.5 278,-399.5 278,-380.5 209,-380.5"/>
<text text-anchor="middle" x="243.5" y="-387.5" font-family="Helvetica,sans-Serif" font-size="10.00">rle_getcom</text>
</a>
</g>
</g>
<!-- Node8&#45;&gt;Node15 -->
<g id="edge17" class="edge"><title>Node8&#45;&gt;Node15</title>
<path fill="none" stroke="midnightblue" d="M135.935,-456.436C151.963,-445.874 178.657,-428.448 202,-414 206.865,-410.989 212.097,-407.83 217.132,-404.829"/>
<polygon fill="midnightblue" stroke="midnightblue" points="219.037,-407.77 225.861,-399.665 215.472,-401.745 219.037,-407.77"/>
</g>
<!-- Node17 -->
<g id="node17" class="node"><title>Node17</title>
<g id="a_node17"><a xlink:href="../../df/da5/rle__putcom_8c.html#a6fa8528c32d14763efe2a534e409e321" target="_top" xlink:title="rle_putcom">
<polygon fill="white" stroke="black" points="209.5,-494.5 209.5,-513.5 277.5,-513.5 277.5,-494.5 209.5,-494.5"/>
<text text-anchor="middle" x="243.5" y="-501.5" font-family="Helvetica,sans-Serif" font-size="10.00">rle_putcom</text>
</a>
</g>
</g>
<!-- Node8&#45;&gt;Node17 -->
<g id="edge21" class="edge"><title>Node8&#45;&gt;Node17</title>
<path fill="none" stroke="midnightblue" d="M152.033,-475.589C167.223,-480.359 185.785,-486.189 202.133,-491.323"/>
<polygon fill="midnightblue" stroke="midnightblue" points="201.387,-494.757 211.976,-494.414 203.484,-488.079 201.387,-494.757"/>
</g>
<!-- Node19 -->
<g id="node19" class="node"><title>Node19</title>
<g id="a_node19"><a xlink:href="../../dc/d11/getami_8c.html#a8f31580e06aae736fd6f1ed3c414ed94" target="_top" xlink:title="buildmap">
<polygon fill="white" stroke="black" points="214.5,-646.5 214.5,-665.5 272.5,-665.5 272.5,-646.5 214.5,-646.5"/>
<text text-anchor="middle" x="243.5" y="-653.5" font-family="Helvetica,sans-Serif" font-size="10.00">buildmap</text>
</a>
</g>
</g>
<!-- Node8&#45;&gt;Node19 -->
<g id="edge24" class="edge"><title>Node8&#45;&gt;Node19</title>
<path fill="none" stroke="midnightblue" d="M123.641,-475.863C130.309,-504.433 153.243,-588.308 202,-637 203.401,-638.399 204.925,-639.709 206.534,-640.932"/>
<polygon fill="midnightblue" stroke="midnightblue" points="204.778,-643.962 215.101,-646.348 208.518,-638.045 204.778,-643.962"/>
</g>
<!-- Node20 -->
<g id="node20" class="node"><title>Node20</title>
<g id="a_node20"><a xlink:href="../../d9/d2a/rle__putrow_8c.html#af88a82b331cd6f425d2a2cc1623944c6" target="_top" xlink:title="rle_put_setup">
<polygon fill="white" stroke="black" points="203.5,-608.5 203.5,-627.5 283.5,-627.5 283.5,-608.5 203.5,-608.5"/>
<text text-anchor="middle" x="243.5" y="-615.5" font-family="Helvetica,sans-Serif" font-size="10.00">rle_put_setup</text>
</a>
</g>
</g>
<!-- Node8&#45;&gt;Node20 -->
<g id="edge25" class="edge"><title>Node8&#45;&gt;Node20</title>
<path fill="none" stroke="midnightblue" d="M125.048,-475.675C134.252,-499.584 161.065,-562.176 202,-599 203.689,-600.519 205.521,-601.939 207.44,-603.263"/>
<polygon fill="midnightblue" stroke="midnightblue" points="205.86,-606.395 216.252,-608.459 209.416,-600.365 205.86,-606.395"/>
</g>
<!-- Node22 -->
<g id="node22" class="node"><title>Node22</title>
<g id="a_node22"><a xlink:href="../../db/d53/rle__getrow_8c.html#a3602e1158189cba5e5b0f9b983cba776" target="_top" xlink:title="rle_getrow">
<polygon fill="white" stroke="black" points="210,-247.5 210,-266.5 277,-266.5 277,-247.5 210,-247.5"/>
<text text-anchor="middle" x="243.5" y="-254.5" font-family="Helvetica,sans-Serif" font-size="10.00">rle_getrow</text>
</a>
</g>
</g>
<!-- Node8&#45;&gt;Node22 -->
<g id="edge27" class="edge"><title>Node8&#45;&gt;Node22</title>
<path fill="none" stroke="midnightblue" d="M128.301,-456.061C137.757,-441.901 154.957,-414.875 166,-390 187.558,-341.437 167.004,-315.98 202,-276 203.023,-274.831 204.133,-273.729 205.311,-272.69"/>
<polygon fill="midnightblue" stroke="midnightblue" points="207.662,-275.318 213.853,-266.72 203.651,-269.58 207.662,-275.318"/>
</g>
<!-- Node25 -->
<g id="node25" class="node"><title>Node25</title>
<g id="a_node25"><a xlink:href="../../d9/d2a/rle__putrow_8c.html#aa26532b01bc4f49b7383765cdc23ea72" target="_top" xlink:title="rle_putrow">
<polygon fill="white" stroke="black" points="210.5,-570.5 210.5,-589.5 276.5,-589.5 276.5,-570.5 210.5,-570.5"/>
<text text-anchor="middle" x="243.5" y="-577.5" font-family="Helvetica,sans-Serif" font-size="10.00">rle_putrow</text>
</a>
</g>
</g>
<!-- Node8&#45;&gt;Node25 -->
<g id="edge30" class="edge"><title>Node8&#45;&gt;Node25</title>
<path fill="none" stroke="midnightblue" d="M127.518,-475.532C139.639,-494.097 168.695,-535.511 202,-561 204.051,-562.569 206.252,-564.052 208.53,-565.443"/>
<polygon fill="midnightblue" stroke="midnightblue" points="207.085,-568.641 217.541,-570.35 210.433,-562.494 207.085,-568.641"/>
</g>
<!-- Node27 -->
<g id="node27" class="node"><title>Node27</title>
<g id="a_node27"><a xlink:href="../../dc/d11/getami_8c.html#a3b82ea520595ce222a1d4725d2360feb" target="_top" xlink:title="compare">
<polygon fill="white" stroke="black" points="214.5,-532.5 214.5,-551.5 272.5,-551.5 272.5,-532.5 214.5,-532.5"/>
<text text-anchor="middle" x="243.5" y="-539.5" font-family="Helvetica,sans-Serif" font-size="10.00">compare</text>
</a>
</g>
</g>
<!-- Node8&#45;&gt;Node27 -->
<g id="edge33" class="edge"><title>Node8&#45;&gt;Node27</title>
<path fill="none" stroke="midnightblue" d="M133.593,-475.596C148.958,-487.541 176.548,-508.176 202,-523 204.886,-524.681 207.945,-526.333 211.037,-527.919"/>
<polygon fill="midnightblue" stroke="midnightblue" points="209.756,-531.188 220.276,-532.439 212.832,-524.9 209.756,-531.188"/>
</g>
<!-- Node10 -->
<g id="node10" class="node"><title>Node10</title>
<g id="a_node10"><a xlink:href="../../d2/df3/rle__hdr_8c.html#a16c4da6201b3b8cf55127b9ca968d253" target="_top" xlink:title="rle_hdr_clear">
<polygon fill="white" stroke="black" points="321,-190.5 321,-209.5 401,-209.5 401,-190.5 321,-190.5"/>
<text text-anchor="middle" x="361" y="-197.5" font-family="Helvetica,sans-Serif" font-size="10.00">rle_hdr_clear</text>
</a>
</g>
</g>
<!-- Node9&#45;&gt;Node10 -->
<g id="edge9" class="edge"><title>Node9&#45;&gt;Node10</title>
<path fill="none" stroke="midnightblue" d="M270.693,-285.398C275.769,-282.822 280.807,-279.7 285,-276 307.466,-256.174 298.681,-238.991 321,-219 322.687,-217.489 324.515,-216.072 326.428,-214.746"/>
<polygon fill="midnightblue" stroke="midnightblue" points="328.395,-217.648 335.187,-209.517 324.807,-211.637 328.395,-217.648"/>
</g>
<!-- Node9&#45;&gt;Node11 -->
<g id="edge15" class="edge"><title>Node9&#45;&gt;Node11</title>
<path fill="none" stroke="midnightblue" d="M272.556,-285.352C277.137,-282.845 281.517,-279.76 285,-276 315.684,-242.876 283.844,-206.654 321,-181 350.259,-160.798 367.399,-169.373 401,-181 423.767,-188.878 444.817,-207.187 458.304,-220.943"/>
<polygon fill="midnightblue" stroke="midnightblue" points="455.923,-223.521 465.326,-228.404 461.02,-218.723 455.923,-223.521"/>
</g>
<!-- Node12 -->
<g id="node12" class="node"><title>Node12</title>
<g id="a_node12"><a xlink:href="../../d2/df3/rle__hdr_8c.html#a82e79385f2d45cc3b80ce0f4f369eae5" target="_top" xlink:title="rle_names">
<polygon fill="white" stroke="black" points="328,-266.5 328,-285.5 394,-285.5 394,-266.5 328,-266.5"/>
<text text-anchor="middle" x="361" y="-273.5" font-family="Helvetica,sans-Serif" font-size="10.00">rle_names</text>
</a>
</g>
</g>
<!-- Node9&#45;&gt;Node12 -->
<g id="edge11" class="edge"><title>Node9&#45;&gt;Node12</title>
<path fill="none" stroke="midnightblue" d="M284.249,-288.461C295.029,-286.688 306.739,-284.762 317.656,-282.966"/>
<polygon fill="midnightblue" stroke="midnightblue" points="318.525,-286.37 327.824,-281.293 317.389,-279.463 318.525,-286.37"/>
</g>
<!-- Node9&#45;&gt;Node13 -->
<g id="edge14" class="edge"><title>Node9&#45;&gt;Node13</title>
<path fill="none" stroke="midnightblue" d="M284.271,-297.493C318.375,-301.456 367.212,-311.68 401,-338 437.285,-366.265 458.398,-418.109 467.728,-446.368"/>
<polygon fill="midnightblue" stroke="midnightblue" points="464.499,-447.769 470.829,-456.265 471.179,-445.676 464.499,-447.769"/>
</g>
<!-- Node14 -->
<g id="node14" class="node"><title>Node14</title>
<g id="a_node14"><a xlink:href="../../db/d53/rle__getrow_8c.html#a0ea68aa2ebeef9d4cade7282553b03d6" target="_top" xlink:title="vax_gshort">
<polygon fill="white" stroke="black" points="326.5,-228.5 326.5,-247.5 395.5,-247.5 395.5,-228.5 326.5,-228.5"/>
<text text-anchor="middle" x="361" y="-235.5" font-family="Helvetica,sans-Serif" font-size="10.00">vax_gshort</text>
</a>
</g>
</g>
<!-- Node9&#45;&gt;Node14 -->
<g id="edge16" class="edge"><title>Node9&#45;&gt;Node14</title>
<path fill="none" stroke="midnightblue" d="M265.61,-285.325C271.88,-282.39 278.743,-279.117 285,-276 301.194,-267.934 304.866,-265.185 321,-257 324.186,-255.384 327.531,-253.714 330.866,-252.066"/>
<polygon fill="midnightblue" stroke="midnightblue" points="332.658,-255.085 340.098,-247.542 329.578,-248.799 332.658,-255.085"/>
</g>
<!-- Node10&#45;&gt;Node11 -->
<g id="edge10" class="edge"><title>Node10&#45;&gt;Node11</title>
<path fill="none" stroke="midnightblue" d="M390.136,-209.589C407.553,-215.525 429.78,-223.1 446.902,-228.935"/>
<polygon fill="midnightblue" stroke="midnightblue" points="446.22,-232.401 456.815,-232.314 448.479,-225.775 446.22,-232.401"/>
</g>
<!-- Node12&#45;&gt;Node11 -->
<g id="edge12" class="edge"><title>Node12&#45;&gt;Node11</title>
<path fill="none" stroke="midnightblue" d="M390.136,-266.411C407.553,-260.475 429.78,-252.9 446.902,-247.065"/>
<polygon fill="midnightblue" stroke="midnightblue" points="448.479,-250.225 456.815,-243.686 446.22,-243.599 448.479,-250.225"/>
</g>
<!-- Node12&#45;&gt;Node13 -->
<g id="edge13" class="edge"><title>Node12&#45;&gt;Node13</title>
<path fill="none" stroke="midnightblue" d="M382.793,-285.655C389.258,-289.424 395.994,-294.239 401,-300 439.736,-344.571 460.652,-413.067 469.05,-446.41"/>
<polygon fill="midnightblue" stroke="midnightblue" points="465.684,-447.381 471.426,-456.285 472.49,-445.744 465.684,-447.381"/>
</g>
<!-- Node16 -->
<g id="node16" class="node"><title>Node16</title>
<g id="a_node16"><a xlink:href="../../db/db2/rle__getcom_8c.html#a7502c8b599724ce86fee5df1311a2337" target="_top" xlink:title="match">
<polygon fill="white" stroke="black" points="338.5,-380.5 338.5,-399.5 383.5,-399.5 383.5,-380.5 338.5,-380.5"/>
<text text-anchor="middle" x="361" y="-387.5" font-family="Helvetica,sans-Serif" font-size="10.00">match</text>
</a>
</g>
</g>
<!-- Node15&#45;&gt;Node16 -->
<g id="edge18" class="edge"><title>Node15&#45;&gt;Node16</title>
<path fill="none" stroke="midnightblue" d="M278.218,-390C294.015,-390 312.732,-390 328.272,-390"/>
<polygon fill="midnightblue" stroke="midnightblue" points="328.447,-393.5 338.447,-390 328.447,-386.5 328.447,-393.5"/>
</g>
<!-- Node17&#45;&gt;Node13 -->
<g id="edge22" class="edge"><title>Node17&#45;&gt;Node13</title>
<path fill="none" stroke="midnightblue" d="M277.534,-499.312C309.249,-494.722 358.477,-487.363 401,-480 414.026,-477.744 428.322,-475.034 440.752,-472.602"/>
<polygon fill="midnightblue" stroke="midnightblue" points="441.552,-476.011 450.684,-470.64 440.196,-469.144 441.552,-476.011"/>
</g>
<!-- Node18 -->
<g id="node18" class="node"><title>Node18</title>
<g id="a_node18"><a xlink:href="../../df/da5/rle__putcom_8c.html#a7502c8b599724ce86fee5df1311a2337" target="_top" xlink:title="match">
<polygon fill="white" stroke="black" points="338.5,-532.5 338.5,-551.5 383.5,-551.5 383.5,-532.5 338.5,-532.5"/>
<text text-anchor="middle" x="361" y="-539.5" font-family="Helvetica,sans-Serif" font-size="10.00">match</text>
</a>
</g>
</g>
<!-- Node17&#45;&gt;Node18 -->
<g id="edge23" class="edge"><title>Node17&#45;&gt;Node18</title>
<path fill="none" stroke="midnightblue" d="M273.646,-513.589C290.405,-519.103 311.464,-526.031 328.59,-531.666"/>
<polygon fill="midnightblue" stroke="midnightblue" points="327.564,-535.013 338.157,-534.813 329.751,-528.363 327.564,-535.013"/>
</g>
<!-- Node21 -->
<g id="node21" class="node"><title>Node21</title>
<g id="a_node21"><a xlink:href="../../d9/d2a/rle__putrow_8c.html#a46d9789104d5d1f09253a808fdad5346" target="_top" xlink:title="rle_put_init">
<polygon fill="white" stroke="black" points="327,-646.5 327,-665.5 395,-665.5 395,-646.5 327,-646.5"/>
<text text-anchor="middle" x="361" y="-653.5" font-family="Helvetica,sans-Serif" font-size="10.00">rle_put_init</text>
</a>
</g>
</g>
<!-- Node20&#45;&gt;Node21 -->
<g id="edge26" class="edge"><title>Node20&#45;&gt;Node21</title>
<path fill="none" stroke="midnightblue" d="M273.646,-627.589C288.008,-632.314 305.529,-638.079 321.026,-643.177"/>
<polygon fill="midnightblue" stroke="midnightblue" points="320.271,-646.613 330.864,-646.414 322.459,-639.964 320.271,-646.613"/>
</g>
<!-- Node23 -->
<g id="node23" class="node"><title>Node23</title>
<g id="a_node23"><a xlink:href="../../db/d53/rle__getrow_8c.html#a61ac0da96b0dd8bc3cbc98afcd9b5c44" target="_top" xlink:title="bfill">
<polygon fill="white" stroke="black" points="345,-76.5 345,-95.5 377,-95.5 377,-76.5 345,-76.5"/>
<text text-anchor="middle" x="361" y="-83.5" font-family="Helvetica,sans-Serif" font-size="10.00">bfill</text>
</a>
</g>
</g>
<!-- Node22&#45;&gt;Node23 -->
<g id="edge28" class="edge"><title>Node22&#45;&gt;Node23</title>
<path fill="none" stroke="midnightblue" d="M273.28,-247.394C277.676,-244.899 281.805,-241.807 285,-238 324.368,-191.093 281.977,-152.195 321,-105 324.78,-100.429 329.924,-96.8723 335.237,-94.1385"/>
<polygon fill="midnightblue" stroke="midnightblue" points="336.914,-97.2272 344.721,-90.0647 334.152,-90.7953 336.914,-97.2272"/>
</g>
<!-- Node24 -->
<g id="node24" class="node"><title>Node24</title>
<g id="a_node24"><a xlink:href="../../d8/d7c/rle__getskip_8c.html#af6b1e1dc0867e9340f90668591c7c5b3" target="_top" xlink:title="rle_getskip">
<polygon fill="white" stroke="black" points="327,-114.5 327,-133.5 395,-133.5 395,-114.5 327,-114.5"/>
<text text-anchor="middle" x="361" y="-121.5" font-family="Helvetica,sans-Serif" font-size="10.00">rle_getskip</text>
</a>
</g>
</g>
<!-- Node22&#45;&gt;Node24 -->
<g id="edge29" class="edge"><title>Node22&#45;&gt;Node24</title>
<path fill="none" stroke="midnightblue" d="M272.499,-247.299C277.087,-244.797 281.482,-241.728 285,-238 314.565,-206.664 293.252,-180.955 321,-148 323.765,-144.716 327.099,-141.75 330.639,-139.113"/>
<polygon fill="midnightblue" stroke="midnightblue" points="332.657,-141.975 339.1,-133.565 328.819,-136.121 332.657,-141.975"/>
</g>
<!-- Node25&#45;&gt;Node13 -->
<g id="edge31" class="edge"><title>Node25&#45;&gt;Node13</title>
<path fill="none" stroke="midnightblue" d="M263.89,-589.539C295.121,-603.418 357.463,-624.853 401,-599 442.687,-574.246 461.932,-516.169 469.439,-485.602"/>
<polygon fill="midnightblue" stroke="midnightblue" points="472.886,-486.225 471.693,-475.698 466.061,-484.672 472.886,-486.225"/>
</g>
<!-- Node26 -->
<g id="node26" class="node"><title>Node26</title>
<g id="a_node26"><a xlink:href="../../d9/d2a/rle__putrow_8c.html#aaa4133bf4a6cbf287444448497631f26" target="_top" xlink:title="findruns">
<polygon fill="white" stroke="black" points="334,-570.5 334,-589.5 388,-589.5 388,-570.5 334,-570.5"/>
<text text-anchor="middle" x="361" y="-577.5" font-family="Helvetica,sans-Serif" font-size="10.00">findruns</text>
</a>
</g>
</g>
<!-- Node25&#45;&gt;Node26 -->
<g id="edge32" class="edge"><title>Node25&#45;&gt;Node26</title>
<path fill="none" stroke="midnightblue" d="M276.673,-580C291.316,-580 308.709,-580 323.806,-580"/>
<polygon fill="midnightblue" stroke="midnightblue" points="323.83,-583.5 333.83,-580 323.83,-576.5 323.83,-583.5"/>
</g>
<!-- Node34&#45;&gt;Node9 -->
<g id="edge41" class="edge"><title>Node34&#45;&gt;Node9</title>
<path fill="none" stroke="midnightblue" d="M140.36,-361.376C148.371,-357.148 157.747,-352.012 166,-347 185.047,-335.432 205.922,-321.126 221.047,-310.45"/>
<polygon fill="midnightblue" stroke="midnightblue" points="223.109,-313.278 229.231,-304.631 219.053,-307.573 223.109,-313.278"/>
</g>
<!-- Node34&#45;&gt;Node11 -->
<g id="edge44" class="edge"><title>Node34&#45;&gt;Node11</title>
<path fill="none" stroke="midnightblue" d="M146.812,-361.354C153.929,-357.542 161.064,-352.488 166,-346 206.464,-292.81 170.793,-259.099 202,-200 239.037,-129.86 248.59,-99.3752 321,-67 353.459,-52.4873 371.355,-47.3693 401,-67 452.897,-101.366 467.751,-181.13 471.918,-218.29"/>
<polygon fill="midnightblue" stroke="midnightblue" points="468.446,-218.743 472.898,-228.357 475.413,-218.065 468.446,-218.743"/>
</g>
<!-- Node34&#45;&gt;Node13 -->
<g id="edge43" class="edge"><title>Node34&#45;&gt;Node13</title>
<path fill="none" stroke="midnightblue" d="M154.62,-362.022C209.214,-349.111 320.105,-330.975 401,-371 432.929,-386.798 454.642,-424.141 465.48,-447.02"/>
<polygon fill="midnightblue" stroke="midnightblue" points="462.398,-448.701 469.692,-456.386 468.782,-445.83 462.398,-448.701"/>
</g>
<!-- Node34&#45;&gt;Node15 -->
<g id="edge42" class="edge"><title>Node34&#45;&gt;Node15</title>
<path fill="none" stroke="midnightblue" d="M154.564,-376.192C168.077,-378.314 183.908,-380.8 198.384,-383.073"/>
<polygon fill="midnightblue" stroke="midnightblue" points="198.212,-386.588 208.634,-384.682 199.298,-379.673 198.212,-386.588"/>
</g>
<!-- Node34&#45;&gt;Node22 -->
<g id="edge45" class="edge"><title>Node34&#45;&gt;Node22</title>
<path fill="none" stroke="midnightblue" d="M145.487,-361.429C152.71,-357.713 160.24,-352.908 166,-347 190.698,-321.667 176.602,-300.632 202,-276 203.463,-274.581 205.053,-273.253 206.726,-272.012"/>
<polygon fill="midnightblue" stroke="midnightblue" points="208.943,-274.756 215.609,-266.521 205.263,-268.802 208.943,-274.756"/>
</g>
<!-- Node34&#45;&gt;Node35 -->
<g id="edge46" class="edge"><title>Node34&#45;&gt;Node35</title>
<path fill="none" stroke="midnightblue" d="M149.171,-361.323C155.653,-357.787 161.865,-353.105 166,-347 244.528,-231.063 125.827,-151.497 202,-34 204.079,-30.7939 206.749,-27.9584 209.725,-25.465"/>
<polygon fill="midnightblue" stroke="midnightblue" points="211.897,-28.218 218.122,-19.6447 207.909,-22.4649 211.897,-28.218"/>
</g>
<!-- Node36 -->
<g id="node36" class="node"><title>Node36</title>
<g id="a_node36"><a xlink:href="../../dc/d11/getami_8c.html#a5e2d1f9897e19186a0e0cb368074ae80" target="_top" xlink:title="show_rgb">
<polygon fill="white" stroke="black" points="212.5,-209.5 212.5,-228.5 274.5,-228.5 274.5,-209.5 212.5,-209.5"/>
<text text-anchor="middle" x="243.5" y="-216.5" font-family="Helvetica,sans-Serif" font-size="10.00">show_rgb</text>
</a>
</g>
</g>
<!-- Node34&#45;&gt;Node36 -->
<g id="edge47" class="edge"><title>Node34&#45;&gt;Node36</title>
<path fill="none" stroke="midnightblue" d="M146.966,-361.45C153.919,-357.818 160.925,-353.054 166,-347 198.773,-307.9 168.146,-276.168 202,-238 203.169,-236.682 204.449,-235.448 205.811,-234.294"/>
<polygon fill="midnightblue" stroke="midnightblue" points="208.001,-237.038 214.309,-228.525 204.069,-231.246 208.001,-237.038"/>
</g>
<!-- Node37&#45;&gt;Node11 -->
<g id="edge51" class="edge"><title>Node37&#45;&gt;Node11</title>
<path fill="none" stroke="midnightblue" d="M380.778,-689.008C388.179,-686.104 396.072,-681.66 401,-675 462.021,-592.532 420.175,-548.2 437,-447 448.606,-377.191 463.35,-294.448 469.985,-257.503"/>
<polygon fill="midnightblue" stroke="midnightblue" points="473.445,-258.035 471.771,-247.573 466.556,-256.796 473.445,-258.035"/>
</g>
<!-- Node37&#45;&gt;Node13 -->
<g id="edge50" class="edge"><title>Node37&#45;&gt;Node13</title>
<path fill="none" stroke="midnightblue" d="M380.62,-688.393C387.817,-685.417 395.602,-681.085 401,-675 450.982,-618.661 466.932,-525.995 471.659,-485.717"/>
<polygon fill="midnightblue" stroke="midnightblue" points="475.157,-485.926 472.734,-475.612 468.196,-485.186 475.157,-485.926"/>
</g>
<!-- Node38 -->
<g id="node38" class="node"><title>Node38</title>
<g id="a_node38"><a xlink:href="../../dc/d11/getami_8c.html#ad1cfec657e28b39d512914e19ca49380" target="_top" xlink:title="ResetColors">
<polygon fill="white" stroke="black" points="437,-703.5 437,-722.5 512,-722.5 512,-703.5 437,-703.5"/>
<text text-anchor="middle" x="474.5" y="-710.5" font-family="Helvetica,sans-Serif" font-size="10.00">ResetColors</text>
</a>
</g>
</g>
<!-- Node37&#45;&gt;Node38 -->
<g id="edge49" class="edge"><title>Node37&#45;&gt;Node38</title>
<path fill="none" stroke="midnightblue" d="M380.663,-697.18C393.292,-699.332 410.569,-702.276 426.795,-705.041"/>
<polygon fill="midnightblue" stroke="midnightblue" points="426.266,-708.502 436.712,-706.731 427.442,-701.601 426.266,-708.502"/>
</g>
<!-- Node39 -->
<g id="node39" class="node"><title>Node39</title>
<g id="a_node39"><a xlink:href="../../dc/d11/getami_8c.html#a72942d3ecdd5bab06bc1e707c8354911" target="_top" xlink:title="FixColors">
<polygon fill="white" stroke="black" points="444,-665.5 444,-684.5 505,-684.5 505,-665.5 444,-665.5"/>
<text text-anchor="middle" x="474.5" y="-672.5" font-family="Helvetica,sans-Serif" font-size="10.00">FixColors</text>
</a>
</g>
</g>
<!-- Node37&#45;&gt;Node39 -->
<g id="edge52" class="edge"><title>Node37&#45;&gt;Node39</title>
<path fill="none" stroke="midnightblue" d="M380.663,-690.82C395.137,-688.353 415.715,-684.847 433.821,-681.761"/>
<polygon fill="midnightblue" stroke="midnightblue" points="434.58,-685.183 443.85,-680.052 433.404,-678.282 434.58,-685.183"/>
</g>
</g>
</svg>
