<?xml version="1.0" encoding="UTF-8" standalone="no"?>
<!DOCTYPE svg PUBLIC "-//W3C//DTD SVG 1.1//EN"
 "http://www.w3.org/Graphics/SVG/1.1/DTD/svg11.dtd">
<!-- Generated by graphviz version 2.38.0 (20140413.2041)
 -->
<!-- Title: include/rle_config.h Pages: 1 -->
<!--zoomable 140 -->
<svg id="main" version="1.1" xmlns="http://www.w3.org/2000/svg" xmlns:xlink="http://www.w3.org/1999/xlink" xml:space="preserve" onload="init(evt)">
<style type="text/css"><![CDATA[
.edge:hover path { stroke: red; }
.edge:hover polygon { stroke: red; fill: red; }
]]></style>
<script type="text/javascript"><![CDATA[
var edges = document.getElementsByTagName('g');
if (edges && edges.length) {
  for (var i=0;i<edges.length;i++) {
    if (edges[i].id.substr(0,4)=='edge') {
      edges[i].setAttribute('class','edge');
    }
  }
}
]]></script>
        <defs>
                <circle id="rim" cx="0" cy="0" r="7"/>
                <circle id="rim2" cx="0" cy="0" r="3.5"/>
                <g id="zoomPlus">
                        <use xlink:href="#rim" fill="#404040">
                                <set attributeName="fill" to="#808080" begin="zoomplus.mouseover" end="zoomplus.mouseout"/>
                        </use>
                        <path d="M-4,0h8M0,-4v8" fill="none" stroke="white" stroke-width="1.5" pointer-events="none"/>
                </g>
                <g id="zoomMin">
                        <use xlink:href="#rim" fill="#404040">
                                <set attributeName="fill" to="#808080" begin="zoomminus.mouseover" end="zoomminus.mouseout"/>
                        </use>
                        <path d="M-4,0h8" fill="none" stroke="white" stroke-width="1.5" pointer-events="none"/>
                </g>
                <g id="dirArrow">
                        <path fill="none" stroke="white" stroke-width="1.5" d="M0,-3.0v7 M-2.5,-0.5L0,-3.0L2.5,-0.5"/>
                </g>
               <g id="resetDef">
                       <use xlink:href="#rim2" fill="#404040">
                               <set attributeName="fill" to="#808080" begin="reset.mouseover" end="reset.mouseout"/>
                       </use>
               </g>
        </defs>

<script type="text/javascript">
var viewWidth = 3954;
var viewHeight = 140;
var sectionId = 'dynsection-1';
</script>
<script xlink:href="../../svgpan.js"/>
<svg id="graph" class="graph">
<g id="viewport">
<title>include/rle_config.h</title>
<polygon fill="white" stroke="none" points="-4,4 -4,-136 3949.5,-136 3949.5,4 -4,4"/>
<!-- Node1 -->
<g id="node1" class="node"><title>Node1</title>
<polygon fill="#bfbfbf" stroke="black" points="2575.5,-112.5 2575.5,-131.5 2682.5,-131.5 2682.5,-112.5 2575.5,-112.5"/>
<text text-anchor="middle" x="2629" y="-119.5" font-family="Helvetica,sans-Serif" font-size="10.00">include/rle_config.h</text>
</g>
<!-- Node2 -->
<g id="node2" class="node"><title>Node2</title>
<g id="a_node2"><a xlink:href="../../d7/d27/rle_8h.html" target="_top" xlink:title="include/rle.h">
<polygon fill="white" stroke="red" points="1981.5,-56.5 1981.5,-75.5 2054.5,-75.5 2054.5,-56.5 1981.5,-56.5"/>
<text text-anchor="middle" x="2018" y="-63.5" font-family="Helvetica,sans-Serif" font-size="10.00">include/rle.h</text>
</a>
</g>
</g>
<!-- Node1&#45;&gt;Node2 -->
<g id="edge1" class="edge"><title>Node1&#45;&gt;Node2</title>
<path fill="none" stroke="midnightblue" d="M2565.32,-118.292C2460.43,-113.302 2244.91,-100.82 2064,-76 2060.94,-75.5797 2057.77,-75.0859 2054.6,-74.5496"/>
<polygon fill="midnightblue" stroke="midnightblue" points="2565.27,-121.793 2575.42,-118.766 2565.6,-114.801 2565.27,-121.793"/>
</g>
<!-- Node41 -->
<g id="node41" class="node"><title>Node41</title>
<g id="a_node41"><a xlink:href="../../d8/d5b/compgif_8c.html" target="_top" xlink:title="cnv/rletogif/compgif.c">
<polygon fill="white" stroke="black" points="2073,-56.5 2073,-75.5 2189,-75.5 2189,-56.5 2073,-56.5"/>
<text text-anchor="middle" x="2131" y="-63.5" font-family="Helvetica,sans-Serif" font-size="10.00">cnv/rletogif/compgif.c</text>
</a>
</g>
</g>
<!-- Node1&#45;&gt;Node41 -->
<g id="edge40" class="edge"><title>Node1&#45;&gt;Node41</title>
<path fill="none" stroke="midnightblue" d="M2565.01,-114.914C2480.79,-106.767 2328.16,-91.5332 2198,-76 2195.09,-75.6523 2192.1,-75.2867 2189.09,-74.91"/>
<polygon fill="midnightblue" stroke="midnightblue" points="2564.9,-118.419 2575.19,-115.896 2565.57,-111.452 2564.9,-118.419"/>
</g>
<!-- Node42 -->
<g id="node42" class="node"><title>Node42</title>
<g id="a_node42"><a xlink:href="../../df/d17/dvirle1_8c.html" target="_top" xlink:title="cnv/tex/dvirle1.c">
<polygon fill="white" stroke="black" points="2207,-56.5 2207,-75.5 2299,-75.5 2299,-56.5 2207,-56.5"/>
<text text-anchor="middle" x="2253" y="-63.5" font-family="Helvetica,sans-Serif" font-size="10.00">cnv/tex/dvirle1.c</text>
</a>
</g>
</g>
<!-- Node1&#45;&gt;Node42 -->
<g id="edge41" class="edge"><title>Node1&#45;&gt;Node42</title>
<path fill="none" stroke="midnightblue" d="M2565.42,-112.433C2500.8,-103.64 2397.86,-89.3875 2309,-76 2305.79,-75.5159 2302.47,-75.0071 2299.13,-74.4879"/>
<polygon fill="midnightblue" stroke="midnightblue" points="2565.07,-115.918 2575.45,-113.796 2566.01,-108.982 2565.07,-115.918"/>
</g>
<!-- Node43 -->
<g id="node43" class="node"><title>Node43</title>
<g id="a_node43"><a xlink:href="../../df/d41/timer_8c.html" target="_top" xlink:title="get/getx11/timer.c">
<polygon fill="white" stroke="black" points="2317.5,-56.5 2317.5,-75.5 2418.5,-75.5 2418.5,-56.5 2317.5,-56.5"/>
<text text-anchor="middle" x="2368" y="-63.5" font-family="Helvetica,sans-Serif" font-size="10.00">get/getx11/timer.c</text>
</a>
</g>
</g>
<!-- Node1&#45;&gt;Node43 -->
<g id="edge42" class="edge"><title>Node1&#45;&gt;Node43</title>
<path fill="none" stroke="midnightblue" d="M2577.81,-110.41C2528.49,-100.204 2454.81,-84.9597 2409.16,-75.5164"/>
<polygon fill="midnightblue" stroke="midnightblue" points="2577.14,-113.845 2587.64,-112.444 2578.56,-106.99 2577.14,-113.845"/>
</g>
<!-- Node44 -->
<g id="node44" class="node"><title>Node44</title>
<g id="a_node44"><a xlink:href="../../d0/d2c/getgmr_8c.html" target="_top" xlink:title="get/gmr27/getgmr.c">
<polygon fill="white" stroke="black" points="2437,-56.5 2437,-75.5 2545,-75.5 2545,-56.5 2437,-56.5"/>
<text text-anchor="middle" x="2491" y="-63.5" font-family="Helvetica,sans-Serif" font-size="10.00">get/gmr27/getgmr.c</text>
</a>
</g>
</g>
<!-- Node1&#45;&gt;Node44 -->
<g id="edge43" class="edge"><title>Node1&#45;&gt;Node44</title>
<path fill="none" stroke="midnightblue" d="M2597.75,-108.772C2571.83,-98.6287 2535.64,-84.4669 2512.76,-75.5164"/>
<polygon fill="midnightblue" stroke="midnightblue" points="2596.55,-112.059 2607.13,-112.444 2599.1,-105.54 2596.55,-112.059"/>
</g>
<!-- Node45 -->
<g id="node45" class="node"><title>Node45</title>
<g id="a_node45"><a xlink:href="../../dc/dd9/XtndRunget_8c.html" target="_top" xlink:title="get/gmr27/XtndRunget.c">
<polygon fill="white" stroke="black" points="2563.5,-56.5 2563.5,-75.5 2694.5,-75.5 2694.5,-56.5 2563.5,-56.5"/>
<text text-anchor="middle" x="2629" y="-63.5" font-family="Helvetica,sans-Serif" font-size="10.00">get/gmr27/XtndRunget.c</text>
</a>
</g>
</g>
<!-- Node1&#45;&gt;Node45 -->
<g id="edge44" class="edge"><title>Node1&#45;&gt;Node45</title>
<path fill="none" stroke="midnightblue" d="M2629,-101.805C2629,-92.9102 2629,-82.7798 2629,-75.7511"/>
<polygon fill="midnightblue" stroke="midnightblue" points="2625.5,-102.083 2629,-112.083 2632.5,-102.083 2625.5,-102.083"/>
</g>
<!-- Node46 -->
<g id="node46" class="node"><title>Node46</title>
<g id="a_node46"><a xlink:href="../../de/dbf/colorquant_8c.html" target="_top" xlink:title="lib/colorquant.c">
<polygon fill="white" stroke="black" points="2713,-56.5 2713,-75.5 2799,-75.5 2799,-56.5 2713,-56.5"/>
<text text-anchor="middle" x="2756" y="-63.5" font-family="Helvetica,sans-Serif" font-size="10.00">lib/colorquant.c</text>
</a>
</g>
</g>
<!-- Node1&#45;&gt;Node46 -->
<g id="edge45" class="edge"><title>Node1&#45;&gt;Node46</title>
<path fill="none" stroke="midnightblue" d="M2658.39,-108.503C2682.2,-98.3795 2715.11,-84.388 2735.97,-75.5164"/>
<polygon fill="midnightblue" stroke="midnightblue" points="2656.96,-105.31 2649.12,-112.444 2659.7,-111.751 2656.96,-105.31"/>
</g>
<!-- Node47 -->
<g id="node47" class="node"><title>Node47</title>
<g id="a_node47"><a xlink:href="../../dc/d53/getopt_8c.html" target="_top" xlink:title="lib/getopt.c">
<polygon fill="white" stroke="black" points="2817.5,-56.5 2817.5,-75.5 2884.5,-75.5 2884.5,-56.5 2817.5,-56.5"/>
<text text-anchor="middle" x="2851" y="-63.5" font-family="Helvetica,sans-Serif" font-size="10.00">lib/getopt.c</text>
</a>
</g>
</g>
<!-- Node1&#45;&gt;Node47 -->
<g id="edge46" class="edge"><title>Node1&#45;&gt;Node47</title>
<path fill="none" stroke="midnightblue" d="M2673.98,-110.059C2716.45,-99.7284 2779.18,-84.4698 2817.44,-75.1629"/>
<polygon fill="midnightblue" stroke="midnightblue" points="2673.07,-106.679 2664.18,-112.444 2674.72,-113.481 2673.07,-106.679"/>
</g>
<!-- Node48 -->
<g id="node48" class="node"><title>Node48</title>
<g id="a_node48"><a xlink:href="../../de/d4e/rle__open__f_8c.html" target="_top" xlink:title="lib/rle_open_f.c">
<polygon fill="white" stroke="black" points="2903,-56.5 2903,-75.5 2991,-75.5 2991,-56.5 2903,-56.5"/>
<text text-anchor="middle" x="2947" y="-63.5" font-family="Helvetica,sans-Serif" font-size="10.00">lib/rle_open_f.c</text>
</a>
</g>
</g>
<!-- Node1&#45;&gt;Node48 -->
<g id="edge47" class="edge"><title>Node1&#45;&gt;Node48</title>
<path fill="none" stroke="midnightblue" d="M2689.48,-110.73C2751.81,-100.145 2847.49,-83.8971 2902.99,-74.473"/>
<polygon fill="midnightblue" stroke="midnightblue" points="2688.66,-107.319 2679.39,-112.444 2689.83,-114.22 2688.66,-107.319"/>
</g>
<!-- Node49 -->
<g id="node49" class="node"><title>Node49</title>
<g id="a_node49"><a xlink:href="../../d4/db0/scanargs_8c.html" target="_top" xlink:title="lib/scanargs.c">
<polygon fill="white" stroke="black" points="3009,-56.5 3009,-75.5 3089,-75.5 3089,-56.5 3009,-56.5"/>
<text text-anchor="middle" x="3049" y="-63.5" font-family="Helvetica,sans-Serif" font-size="10.00">lib/scanargs.c</text>
</a>
</g>
</g>
<!-- Node1&#45;&gt;Node49 -->
<g id="edge48" class="edge"><title>Node1&#45;&gt;Node49</title>
<path fill="none" stroke="midnightblue" d="M2692.69,-114.469C2766.72,-106.601 2892.49,-92.3783 3000,-76 3002.91,-75.5571 3005.91,-75.0731 3008.92,-74.5668"/>
<polygon fill="midnightblue" stroke="midnightblue" points="2692.17,-111.004 2682.59,-115.537 2692.9,-117.965 2692.17,-111.004"/>
</g>
<!-- Node50 -->
<g id="node50" class="node"><title>Node50</title>
<g id="a_node50"><a xlink:href="../../d3/dd5/into_8c.html" target="_top" xlink:title="tools/into.c">
<polygon fill="white" stroke="black" points="3107.5,-56.5 3107.5,-75.5 3174.5,-75.5 3174.5,-56.5 3107.5,-56.5"/>
<text text-anchor="middle" x="3141" y="-63.5" font-family="Helvetica,sans-Serif" font-size="10.00">tools/into.c</text>
</a>
</g>
</g>
<!-- Node1&#45;&gt;Node50 -->
<g id="edge49" class="edge"><title>Node1&#45;&gt;Node50</title>
<path fill="none" stroke="midnightblue" d="M2692.79,-117.126C2783.28,-111.121 2953.95,-97.9172 3098,-76 3101.02,-75.5411 3104.14,-75.0059 3107.26,-74.4294"/>
<polygon fill="midnightblue" stroke="midnightblue" points="2692.44,-113.641 2682.69,-117.788 2692.9,-120.626 2692.44,-113.641"/>
</g>
<!-- Node3 -->
<g id="node3" class="node"><title>Node3</title>
<g id="a_node3"><a xlink:href="../../dc/d7b/aliastorle_8c.html" target="_top" xlink:title="cnv/aliastorle.c">
<polygon fill="white" stroke="black" points="0,-0.5 0,-19.5 86,-19.5 86,-0.5 0,-0.5"/>
<text text-anchor="middle" x="43" y="-7.5" font-family="Helvetica,sans-Serif" font-size="10.00">cnv/aliastorle.c</text>
</a>
</g>
</g>
<!-- Node2&#45;&gt;Node3 -->
<g id="edge2" class="edge"><title>Node2&#45;&gt;Node3</title>
<path fill="none" stroke="midnightblue" d="M1971.29,-64.8456C1714.84,-63.8552 475.68,-57.1913 95,-20 92.0821,-19.7149 89.0811,-19.3605 86.0635,-18.9585"/>
<polygon fill="midnightblue" stroke="midnightblue" points="1971.37,-68.3458 1981.38,-64.8835 1971.4,-61.3458 1971.37,-68.3458"/>
</g>
<!-- Node4 -->
<g id="node4" class="node"><title>Node4</title>
<g id="a_node4"><a xlink:href="../../d0/daa/cubitorle_8c.html" target="_top" xlink:title="cnv/cubitorle.c">
<polygon fill="white" stroke="black" points="104.5,-0.5 104.5,-19.5 187.5,-19.5 187.5,-0.5 104.5,-0.5"/>
<text text-anchor="middle" x="146" y="-7.5" font-family="Helvetica,sans-Serif" font-size="10.00">cnv/cubitorle.c</text>
</a>
</g>
</g>
<!-- Node2&#45;&gt;Node4 -->
<g id="edge3" class="edge"><title>Node2&#45;&gt;Node4</title>
<path fill="none" stroke="midnightblue" d="M1971.01,-64.7941C1722.18,-63.5583 556.076,-55.9151 197,-20 193.958,-19.6958 190.825,-19.3136 187.678,-18.8795"/>
<polygon fill="midnightblue" stroke="midnightblue" points="1971.15,-68.2947 1981.16,-64.8434 1971.18,-61.2948 1971.15,-68.2947"/>
</g>
<!-- Node5 -->
<g id="node5" class="node"><title>Node5</title>
<g id="a_node5"><a xlink:href="../../d1/dad/giftorle_8c.html" target="_top" xlink:title="cnv/giftorle.c">
<polygon fill="white" stroke="black" points="206,-0.5 206,-19.5 282,-19.5 282,-0.5 206,-0.5"/>
<text text-anchor="middle" x="244" y="-7.5" font-family="Helvetica,sans-Serif" font-size="10.00">cnv/giftorle.c</text>
</a>
</g>
</g>
<!-- Node2&#45;&gt;Node5 -->
<g id="edge4" class="edge"><title>Node2&#45;&gt;Node5</title>
<path fill="none" stroke="midnightblue" d="M1971.14,-64.8135C1730.33,-63.6975 630.184,-56.6462 291,-20 288.109,-19.6877 285.13,-19.2925 282.141,-18.843"/>
<polygon fill="midnightblue" stroke="midnightblue" points="1971.29,-68.3141 1981.31,-64.8594 1971.32,-61.3142 1971.29,-68.3141"/>
</g>
<!-- Node6 -->
<g id="node6" class="node"><title>Node6</title>
<g id="a_node6"><a xlink:href="../../d4/dac/graytorle_8c.html" target="_top" xlink:title="cnv/graytorle.c">
<polygon fill="white" stroke="black" points="300,-0.5 300,-19.5 386,-19.5 386,-0.5 300,-0.5"/>
<text text-anchor="middle" x="343" y="-7.5" font-family="Helvetica,sans-Serif" font-size="10.00">cnv/graytorle.c</text>
</a>
</g>
</g>
<!-- Node2&#45;&gt;Node6 -->
<g id="edge5" class="edge"><title>Node2&#45;&gt;Node6</title>
<path fill="none" stroke="midnightblue" d="M1971.02,-64.6094C1738.88,-62.5402 712.674,-51.729 395,-20 392.083,-19.7086 389.082,-19.3495 386.065,-18.944"/>
<polygon fill="midnightblue" stroke="midnightblue" points="1971.13,-68.1104 1981.16,-64.6987 1971.19,-61.1107 1971.13,-68.1104"/>
</g>
<!-- Node7 -->
<g id="node7" class="node"><title>Node7</title>
<g id="a_node7"><a xlink:href="../../df/d1f/iristorle_8c.html" target="_top" xlink:title="cnv/iristorle.c">
<polygon fill="white" stroke="black" points="404,-0.5 404,-19.5 482,-19.5 482,-0.5 404,-0.5"/>
<text text-anchor="middle" x="443" y="-7.5" font-family="Helvetica,sans-Serif" font-size="10.00">cnv/iristorle.c</text>
</a>
</g>
</g>
<!-- Node2&#45;&gt;Node7 -->
<g id="edge6" class="edge"><title>Node2&#45;&gt;Node7</title>
<path fill="none" stroke="midnightblue" d="M1971.3,-64.6056C1748.09,-62.5701 788.533,-52.0798 491,-20 488.134,-19.691 485.182,-19.3053 482.219,-18.8687"/>
<polygon fill="midnightblue" stroke="midnightblue" points="1971.34,-68.1059 1981.37,-64.6962 1971.4,-61.1062 1971.34,-68.1059"/>
</g>
<!-- Node8 -->
<g id="node8" class="node"><title>Node8</title>
<g id="a_node8"><a xlink:href="../../d2/d80/painttorle_8c.html" target="_top" xlink:title="cnv/painttorle.c">
<polygon fill="white" stroke="black" points="500,-0.5 500,-19.5 588,-19.5 588,-0.5 500,-0.5"/>
<text text-anchor="middle" x="544" y="-7.5" font-family="Helvetica,sans-Serif" font-size="10.00">cnv/painttorle.c</text>
</a>
</g>
</g>
<!-- Node2&#45;&gt;Node8 -->
<g id="edge7" class="edge"><title>Node2&#45;&gt;Node8</title>
<path fill="none" stroke="midnightblue" d="M1971.16,-64.3776C1757.35,-61.4046 872.631,-47.6364 597,-20 594.121,-19.7114 591.162,-19.3606 588.185,-18.9671"/>
<polygon fill="midnightblue" stroke="midnightblue" points="1971.36,-67.8807 1981.41,-64.519 1971.46,-60.8813 1971.36,-67.8807"/>
</g>
<!-- Node9 -->
<g id="node9" class="node"><title>Node9</title>
<g id="a_node9"><a xlink:href="../../d5/da5/pgmtorle_8c.html" target="_top" xlink:title="cnv/pgmtorle.c">
<polygon fill="white" stroke="black" points="606.5,-0.5 606.5,-19.5 691.5,-19.5 691.5,-0.5 606.5,-0.5"/>
<text text-anchor="middle" x="649" y="-7.5" font-family="Helvetica,sans-Serif" font-size="10.00">cnv/pgmtorle.c</text>
</a>
</g>
</g>
<!-- Node2&#45;&gt;Node9 -->
<g id="edge8" class="edge"><title>Node2&#45;&gt;Node9</title>
<path fill="none" stroke="midnightblue" d="M1971.27,-64.2864C1767.33,-61.0363 954.17,-46.6323 700,-20 697.228,-19.7095 694.379,-19.3575 691.514,-18.9629"/>
<polygon fill="midnightblue" stroke="midnightblue" points="1971.29,-67.7871 1981.35,-64.4458 1971.4,-60.788 1971.29,-67.7871"/>
</g>
<!-- Node10 -->
<g id="node10" class="node"><title>Node10</title>
<g id="a_node10"><a xlink:href="../../d7/dac/ppmtorle_8c.html" target="_top" xlink:title="cnv/ppmtorle.c">
<polygon fill="white" stroke="black" points="709.5,-0.5 709.5,-19.5 794.5,-19.5 794.5,-0.5 709.5,-0.5"/>
<text text-anchor="middle" x="752" y="-7.5" font-family="Helvetica,sans-Serif" font-size="10.00">cnv/ppmtorle.c</text>
</a>
</g>
</g>
<!-- Node2&#45;&gt;Node10 -->
<g id="edge9" class="edge"><title>Node2&#45;&gt;Node10</title>
<path fill="none" stroke="midnightblue" d="M1971.27,-65.5205C1809.27,-66.8462 1256.85,-67.3653 804,-20 800.902,-19.6759 797.709,-19.2792 794.502,-18.8348"/>
<polygon fill="midnightblue" stroke="midnightblue" points="1971.41,-69.0196 1981.37,-65.4325 1971.34,-62.0199 1971.41,-69.0196"/>
</g>
<!-- Node11 -->
<g id="node11" class="node"><title>Node11</title>
<g id="a_node11"><a xlink:href="../../d8/d81/rastorle_8c.html" target="_top" xlink:title="cnv/rastorle.c">
<polygon fill="white" stroke="black" points="813,-0.5 813,-19.5 893,-19.5 893,-0.5 813,-0.5"/>
<text text-anchor="middle" x="853" y="-7.5" font-family="Helvetica,sans-Serif" font-size="10.00">cnv/rastorle.c</text>
</a>
</g>
</g>
<!-- Node2&#45;&gt;Node11 -->
<g id="edge10" class="edge"><title>Node2&#45;&gt;Node11</title>
<path fill="none" stroke="midnightblue" d="M1971.22,-65.4734C1817.55,-66.5253 1314.57,-65.9733 902,-20 899.077,-19.6743 896.067,-19.2764 893.043,-18.8312"/>
<polygon fill="midnightblue" stroke="midnightblue" points="1971.28,-68.9732 1981.25,-65.3989 1971.22,-61.9734 1971.28,-68.9732"/>
</g>
<!-- Node12 -->
<g id="node12" class="node"><title>Node12</title>
<g id="a_node12"><a xlink:href="../../d1/d77/rawtorle_8c.html" target="_top" xlink:title="cnv/rawtorle.c">
<polygon fill="white" stroke="black" points="911,-0.5 911,-19.5 993,-19.5 993,-0.5 911,-0.5"/>
<text text-anchor="middle" x="952" y="-7.5" font-family="Helvetica,sans-Serif" font-size="10.00">cnv/rawtorle.c</text>
</a>
</g>
</g>
<!-- Node2&#45;&gt;Node12 -->
<g id="edge11" class="edge"><title>Node2&#45;&gt;Node12</title>
<path fill="none" stroke="midnightblue" d="M1971.13,-65.1494C1826.41,-65.1345 1373.91,-61.5188 1002,-20 999.107,-19.6771 996.13,-19.2878 993.137,-18.8548"/>
<polygon fill="midnightblue" stroke="midnightblue" points="1971.42,-68.6493 1981.41,-65.1443 1971.41,-61.6493 1971.42,-68.6493"/>
</g>
<!-- Node13 -->
<g id="node13" class="node"><title>Node13</title>
<g id="a_node13"><a xlink:href="../../dd/dcd/rlatorle_8c.html" target="_top" xlink:title="cnv/rlatorle.c">
<polygon fill="white" stroke="black" points="1011.5,-0.5 1011.5,-19.5 1088.5,-19.5 1088.5,-0.5 1011.5,-0.5"/>
<text text-anchor="middle" x="1050" y="-7.5" font-family="Helvetica,sans-Serif" font-size="10.00">cnv/rlatorle.c</text>
</a>
</g>
</g>
<!-- Node2&#45;&gt;Node13 -->
<g id="edge12" class="edge"><title>Node2&#45;&gt;Node13</title>
<path fill="none" stroke="midnightblue" d="M1971.39,-65.0283C1835.88,-64.6157 1430.46,-59.8737 1097,-20 1094.28,-19.6745 1091.48,-19.2833 1088.66,-18.8489"/>
<polygon fill="midnightblue" stroke="midnightblue" points="1971.42,-68.5283 1981.43,-65.0523 1971.44,-61.5283 1971.42,-68.5283"/>
</g>
<!-- Node14 -->
<g id="node14" class="node"><title>Node14</title>
<g id="a_node14"><a xlink:href="../../da/d9d/rletoabA60_8c.html" target="_top" xlink:title="cnv/rletoabA60.c">
<polygon fill="white" stroke="black" points="1106.5,-0.5 1106.5,-19.5 1201.5,-19.5 1201.5,-0.5 1106.5,-0.5"/>
<text text-anchor="middle" x="1154" y="-7.5" font-family="Helvetica,sans-Serif" font-size="10.00">cnv/rletoabA60.c</text>
</a>
</g>
</g>
<!-- Node2&#45;&gt;Node14 -->
<g id="edge13" class="edge"><title>Node2&#45;&gt;Node14</title>
<path fill="none" stroke="midnightblue" d="M1971,-64.0359C1846.64,-61.1266 1498.77,-50.6629 1211,-20 1207.91,-19.6709 1204.74,-19.2896 1201.54,-18.8735"/>
<polygon fill="midnightblue" stroke="midnightblue" points="1971.22,-67.5417 1981.3,-64.2713 1971.38,-60.5436 1971.22,-67.5417"/>
</g>
<!-- Node15 -->
<g id="node15" class="node"><title>Node15</title>
<g id="a_node15"><a xlink:href="../../dd/d78/rle_8c.html" target="_top" xlink:title="cnv/rletoabA62/rle.c">
<polygon fill="white" stroke="black" points="1220,-0.5 1220,-19.5 1330,-19.5 1330,-0.5 1220,-0.5"/>
<text text-anchor="middle" x="1275" y="-7.5" font-family="Helvetica,sans-Serif" font-size="10.00">cnv/rletoabA62/rle.c</text>
</a>
</g>
</g>
<!-- Node2&#45;&gt;Node15 -->
<g id="edge14" class="edge"><title>Node2&#45;&gt;Node15</title>
<path fill="none" stroke="midnightblue" d="M1971.37,-63.0932C1861.17,-58.3283 1576.08,-44.4921 1339,-20 1336.1,-19.7002 1333.13,-19.3685 1330.13,-19.0144"/>
<polygon fill="midnightblue" stroke="midnightblue" points="1971.35,-66.595 1981.49,-63.526 1971.64,-59.6014 1971.35,-66.595"/>
</g>
<!-- Node16 -->
<g id="node16" class="node"><title>Node16</title>
<g id="a_node16"><a xlink:href="../../d6/d10/rletoalias_8c.html" target="_top" xlink:title="cnv/rletoalias.c">
<polygon fill="white" stroke="black" points="1348,-0.5 1348,-19.5 1434,-19.5 1434,-0.5 1348,-0.5"/>
<text text-anchor="middle" x="1391" y="-7.5" font-family="Helvetica,sans-Serif" font-size="10.00">cnv/rletoalias.c</text>
</a>
</g>
</g>
<!-- Node2&#45;&gt;Node16 -->
<g id="edge15" class="edge"><title>Node2&#45;&gt;Node16</title>
<path fill="none" stroke="midnightblue" d="M1971.02,-62.8111C1872.73,-57.9042 1638.32,-44.491 1443,-20 1440.09,-19.6352 1437.1,-19.221 1434.08,-18.7754"/>
<polygon fill="midnightblue" stroke="midnightblue" points="1971.06,-66.3169 1981.22,-63.3137 1971.4,-59.3253 1971.06,-66.3169"/>
</g>
<!-- Node17 -->
<g id="node17" class="node"><title>Node17</title>
<g id="a_node17"><a xlink:href="../../dc/dd0/rletoascii_8c.html" target="_top" xlink:title="cnv/rletoascii.c">
<polygon fill="white" stroke="black" points="1452,-0.5 1452,-19.5 1538,-19.5 1538,-0.5 1452,-0.5"/>
<text text-anchor="middle" x="1495" y="-7.5" font-family="Helvetica,sans-Serif" font-size="10.00">cnv/rletoascii.c</text>
</a>
</g>
</g>
<!-- Node2&#45;&gt;Node17 -->
<g id="edge16" class="edge"><title>Node2&#45;&gt;Node17</title>
<path fill="none" stroke="midnightblue" d="M1971.17,-61.7129C1886.35,-55.4959 1701.75,-40.7532 1547,-20 1544.09,-19.6103 1541.1,-19.1774 1538.09,-18.7182"/>
<polygon fill="midnightblue" stroke="midnightblue" points="1971.02,-65.2115 1981.25,-62.4461 1971.53,-58.23 1971.02,-65.2115"/>
</g>
<!-- Node18 -->
<g id="node18" class="node"><title>Node18</title>
<g id="a_node18"><a xlink:href="../../dc/d21/rletocgm_8c.html" target="_top" xlink:title="cnv/rletocgm.c">
<polygon fill="white" stroke="black" points="1556,-0.5 1556,-19.5 1640,-19.5 1640,-0.5 1556,-0.5"/>
<text text-anchor="middle" x="1598" y="-7.5" font-family="Helvetica,sans-Serif" font-size="10.00">cnv/rletocgm.c</text>
</a>
</g>
</g>
<!-- Node2&#45;&gt;Node18 -->
<g id="edge17" class="edge"><title>Node2&#45;&gt;Node18</title>
<path fill="none" stroke="midnightblue" d="M1970.97,-60.077C1900.74,-52.5418 1764.36,-37.2002 1649,-20 1646.15,-19.5757 1643.22,-19.1169 1640.27,-18.6387"/>
<polygon fill="midnightblue" stroke="midnightblue" points="1970.94,-63.5932 1981.25,-61.175 1971.68,-56.6328 1970.94,-63.5932"/>
</g>
<!-- Node19 -->
<g id="node19" class="node"><title>Node19</title>
<g id="a_node19"><a xlink:href="../../d6/de6/gifencod_8c.html" target="_top" xlink:title="cnv/rletogif/gifencod.c">
<polygon fill="white" stroke="black" points="1658.5,-0.5 1658.5,-19.5 1777.5,-19.5 1777.5,-0.5 1658.5,-0.5"/>
<text text-anchor="middle" x="1718" y="-7.5" font-family="Helvetica,sans-Serif" font-size="10.00">cnv/rletogif/gifencod.c</text>
</a>
</g>
</g>
<!-- Node2&#45;&gt;Node19 -->
<g id="edge18" class="edge"><title>Node2&#45;&gt;Node19</title>
<path fill="none" stroke="midnightblue" d="M1971.2,-56.5762C1915.16,-46.4886 1821.81,-29.6865 1765.47,-19.5453"/>
<polygon fill="midnightblue" stroke="midnightblue" points="1970.75,-60.0516 1981.21,-58.3785 1971.99,-53.1623 1970.75,-60.0516"/>
</g>
<!-- Node20 -->
<g id="node20" class="node"><title>Node20</title>
<g id="a_node20"><a xlink:href="../../d7/d4a/rletogif_8c.html" target="_top" xlink:title="cnv/rletogif/rletogif.c">
<polygon fill="white" stroke="black" points="1795.5,-0.5 1795.5,-19.5 1906.5,-19.5 1906.5,-0.5 1795.5,-0.5"/>
<text text-anchor="middle" x="1851" y="-7.5" font-family="Helvetica,sans-Serif" font-size="10.00">cnv/rletogif/rletogif.c</text>
</a>
</g>
</g>
<!-- Node2&#45;&gt;Node20 -->
<g id="edge19" class="edge"><title>Node2&#45;&gt;Node20</title>
<path fill="none" stroke="midnightblue" d="M1981.83,-53.3044C1950.36,-43.1294 1905.51,-28.6246 1877.34,-19.5164"/>
<polygon fill="midnightblue" stroke="midnightblue" points="1980.95,-56.697 1991.54,-56.4435 1983.1,-50.0366 1980.95,-56.697"/>
</g>
<!-- Node21 -->
<g id="node21" class="node"><title>Node21</title>
<g id="a_node21"><a xlink:href="../../d0/d59/rletogray_8c.html" target="_top" xlink:title="cnv/rletogray.c">
<polygon fill="white" stroke="black" points="1925,-0.5 1925,-19.5 2011,-19.5 2011,-0.5 1925,-0.5"/>
<text text-anchor="middle" x="1968" y="-7.5" font-family="Helvetica,sans-Serif" font-size="10.00">cnv/rletogray.c</text>
</a>
</g>
</g>
<!-- Node2&#45;&gt;Node21 -->
<g id="edge20" class="edge"><title>Node2&#45;&gt;Node21</title>
<path fill="none" stroke="midnightblue" d="M2002.92,-48.7175C1994.11,-39.1997 1983.33,-27.5608 1976.1,-19.7511"/>
<polygon fill="midnightblue" stroke="midnightblue" points="2000.38,-51.1233 2009.74,-56.083 2005.52,-46.3674 2000.38,-51.1233"/>
</g>
<!-- Node22 -->
<g id="node22" class="node"><title>Node22</title>
<g id="a_node22"><a xlink:href="../../d1/d68/rletoiris_8c.html" target="_top" xlink:title="cnv/rletoiris.c">
<polygon fill="white" stroke="black" points="2029,-0.5 2029,-19.5 2107,-19.5 2107,-0.5 2029,-0.5"/>
<text text-anchor="middle" x="2068" y="-7.5" font-family="Helvetica,sans-Serif" font-size="10.00">cnv/rletoiris.c</text>
</a>
</g>
</g>
<!-- Node2&#45;&gt;Node22 -->
<g id="edge21" class="edge"><title>Node2&#45;&gt;Node22</title>
<path fill="none" stroke="midnightblue" d="M2033.08,-48.7175C2041.89,-39.1997 2052.67,-27.5608 2059.9,-19.7511"/>
<polygon fill="midnightblue" stroke="midnightblue" points="2030.48,-46.3674 2026.26,-56.083 2035.62,-51.1233 2030.48,-46.3674"/>
</g>
<!-- Node23 -->
<g id="node23" class="node"><title>Node23</title>
<g id="a_node23"><a xlink:href="../../dc/d72/rletopaint_8c.html" target="_top" xlink:title="cnv/rletopaint.c">
<polygon fill="white" stroke="black" points="2125,-0.5 2125,-19.5 2213,-19.5 2213,-0.5 2125,-0.5"/>
<text text-anchor="middle" x="2169" y="-7.5" font-family="Helvetica,sans-Serif" font-size="10.00">cnv/rletopaint.c</text>
</a>
</g>
</g>
<!-- Node2&#45;&gt;Node23 -->
<g id="edge22" class="edge"><title>Node2&#45;&gt;Node23</title>
<path fill="none" stroke="midnightblue" d="M2051.45,-53.0392C2079.86,-42.8786 2119.94,-28.5457 2145.19,-19.5164"/>
<polygon fill="midnightblue" stroke="midnightblue" points="2050.16,-49.7806 2041.93,-56.4435 2052.52,-56.3718 2050.16,-49.7806"/>
</g>
<!-- Node24 -->
<g id="node24" class="node"><title>Node24</title>
<g id="a_node24"><a xlink:href="../../d1/d55/rletoppm_8c.html" target="_top" xlink:title="cnv/rletoppm.c">
<polygon fill="white" stroke="black" points="2231.5,-0.5 2231.5,-19.5 2316.5,-19.5 2316.5,-0.5 2231.5,-0.5"/>
<text text-anchor="middle" x="2274" y="-7.5" font-family="Helvetica,sans-Serif" font-size="10.00">cnv/rletoppm.c</text>
</a>
</g>
</g>
<!-- Node2&#45;&gt;Node24 -->
<g id="edge23" class="edge"><title>Node2&#45;&gt;Node24</title>
<path fill="none" stroke="midnightblue" d="M2064.57,-55.1772C2112.89,-44.985 2187.68,-29.2081 2233.59,-19.5243"/>
<polygon fill="midnightblue" stroke="midnightblue" points="2063.74,-51.7744 2054.68,-57.2631 2065.19,-58.6237 2063.74,-51.7744"/>
</g>
<!-- Node25 -->
<g id="node25" class="node"><title>Node25</title>
<g id="a_node25"><a xlink:href="../../da/dda/rletops_8c.html" target="_top" xlink:title="cnv/rletops.c">
<polygon fill="white" stroke="black" points="2335,-0.5 2335,-19.5 2411,-19.5 2411,-0.5 2335,-0.5"/>
<text text-anchor="middle" x="2373" y="-7.5" font-family="Helvetica,sans-Serif" font-size="10.00">cnv/rletops.c</text>
</a>
</g>
</g>
<!-- Node2&#45;&gt;Node25 -->
<g id="edge24" class="edge"><title>Node2&#45;&gt;Node25</title>
<path fill="none" stroke="midnightblue" d="M2064.69,-55.9744C2181.65,-36.8205 2213.19,-38.5383 2326,-20 2328.87,-19.5285 2331.83,-19.0177 2334.81,-18.4871"/>
<polygon fill="midnightblue" stroke="midnightblue" points="2063.92,-52.555 2054.62,-57.6402 2065.06,-59.4612 2063.92,-52.555"/>
</g>
<!-- Node26 -->
<g id="node26" class="node"><title>Node26</title>
<g id="a_node26"><a xlink:href="../../d7/dc1/rletorast_8c.html" target="_top" xlink:title="cnv/rletorast.c">
<polygon fill="white" stroke="black" points="2429.5,-0.5 2429.5,-19.5 2512.5,-19.5 2512.5,-0.5 2429.5,-0.5"/>
<text text-anchor="middle" x="2471" y="-7.5" font-family="Helvetica,sans-Serif" font-size="10.00">cnv/rletorast.c</text>
</a>
</g>
</g>
<!-- Node2&#45;&gt;Node26 -->
<g id="edge25" class="edge"><title>Node2&#45;&gt;Node26</title>
<path fill="none" stroke="midnightblue" d="M2064.71,-56.037C2223.05,-33.0687 2265.71,-41.3856 2420,-20 2423.03,-19.5803 2426.15,-19.1133 2429.29,-18.6191"/>
<polygon fill="midnightblue" stroke="midnightblue" points="2063.99,-52.6044 2054.61,-57.5213 2065.01,-59.53 2063.99,-52.6044"/>
</g>
<!-- Node27 -->
<g id="node27" class="node"><title>Node27</title>
<g id="a_node27"><a xlink:href="../../d6/d95/rletoraw_8c.html" target="_top" xlink:title="cnv/rletoraw.c">
<polygon fill="white" stroke="black" points="2531,-0.5 2531,-19.5 2613,-19.5 2613,-0.5 2531,-0.5"/>
<text text-anchor="middle" x="2572" y="-7.5" font-family="Helvetica,sans-Serif" font-size="10.00">cnv/rletoraw.c</text>
</a>
</g>
</g>
<!-- Node2&#45;&gt;Node27 -->
<g id="edge26" class="edge"><title>Node2&#45;&gt;Node27</title>
<path fill="none" stroke="midnightblue" d="M2064.71,-56.0766C2268.06,-28.9129 2322.76,-45.6974 2522,-20 2524.89,-19.6277 2527.86,-19.2018 2530.85,-18.7424"/>
<polygon fill="midnightblue" stroke="midnightblue" points="2064.03,-52.6357 2054.6,-57.447 2064.97,-59.5722 2064.03,-52.6357"/>
</g>
<!-- Node28 -->
<g id="node28" class="node"><title>Node28</title>
<g id="a_node28"><a xlink:href="../../d0/dcc/rletorla_8c.html" target="_top" xlink:title="cnv/rletorla.c">
<polygon fill="white" stroke="black" points="2631.5,-0.5 2631.5,-19.5 2708.5,-19.5 2708.5,-0.5 2631.5,-0.5"/>
<text text-anchor="middle" x="2670" y="-7.5" font-family="Helvetica,sans-Serif" font-size="10.00">cnv/rletorla.c</text>
</a>
</g>
</g>
<!-- Node2&#45;&gt;Node28 -->
<g id="edge27" class="edge"><title>Node2&#45;&gt;Node28</title>
<path fill="none" stroke="midnightblue" d="M2064.61,-56.1133C2312.2,-24.7736 2378.67,-50.5477 2622,-20 2625.03,-19.6198 2628.15,-19.1686 2631.29,-18.6738"/>
<polygon fill="midnightblue" stroke="midnightblue" points="2064.06,-52.6549 2054.59,-57.4002 2064.95,-59.5979 2064.06,-52.6549"/>
</g>
<!-- Node29 -->
<g id="node29" class="node"><title>Node29</title>
<g id="a_node29"><a xlink:href="../../d4/d9e/rletotarga_8c.html" target="_top" xlink:title="cnv/rletotarga.c">
<polygon fill="white" stroke="black" points="2726.5,-0.5 2726.5,-19.5 2815.5,-19.5 2815.5,-0.5 2726.5,-0.5"/>
<text text-anchor="middle" x="2771" y="-7.5" font-family="Helvetica,sans-Serif" font-size="10.00">cnv/rletotarga.c</text>
</a>
</g>
</g>
<!-- Node2&#45;&gt;Node29 -->
<g id="edge28" class="edge"><title>Node2&#45;&gt;Node29</title>
<path fill="none" stroke="midnightblue" d="M2064.55,-56.1348C2354.6,-20.6868 2431.95,-52.0556 2718,-20 2720.69,-19.6986 2723.45,-19.3499 2726.23,-18.9687"/>
<polygon fill="midnightblue" stroke="midnightblue" points="2064.08,-52.6664 2054.58,-57.3687 2064.94,-59.6134 2064.08,-52.6664"/>
</g>
<!-- Node30 -->
<g id="node30" class="node"><title>Node30</title>
<g id="a_node30"><a xlink:href="../../d4/d1a/rletotiff_8c.html" target="_top" xlink:title="cnv/rletotiff.c">
<polygon fill="white" stroke="black" points="2834,-0.5 2834,-19.5 2910,-19.5 2910,-0.5 2834,-0.5"/>
<text text-anchor="middle" x="2872" y="-7.5" font-family="Helvetica,sans-Serif" font-size="10.00">cnv/rletotiff.c</text>
</a>
</g>
</g>
<!-- Node2&#45;&gt;Node30 -->
<g id="edge29" class="edge"><title>Node2&#45;&gt;Node30</title>
<path fill="none" stroke="midnightblue" d="M2064.63,-56.1383C2401.91,-16.2465 2492.05,-59.5512 2825,-20 2827.89,-19.657 2830.86,-19.2396 2833.85,-18.7744"/>
<polygon fill="midnightblue" stroke="midnightblue" points="2064.09,-52.6777 2054.58,-57.343 2064.93,-59.628 2064.09,-52.6777"/>
</g>
<!-- Node31 -->
<g id="node31" class="node"><title>Node31</title>
<g id="a_node31"><a xlink:href="../../d5/da8/rletovcr_8c.html" target="_top" xlink:title="cnv/rletovcr.c">
<polygon fill="white" stroke="black" points="2928.5,-0.5 2928.5,-19.5 3007.5,-19.5 3007.5,-0.5 2928.5,-0.5"/>
<text text-anchor="middle" x="2968" y="-7.5" font-family="Helvetica,sans-Serif" font-size="10.00">cnv/rletovcr.c</text>
</a>
</g>
</g>
<!-- Node2&#45;&gt;Node31 -->
<g id="edge30" class="edge"><title>Node2&#45;&gt;Node31</title>
<path fill="none" stroke="midnightblue" d="M2064.72,-56.136C2443.48,-12.2491 2544.36,-62.0844 2919,-20 2922.09,-19.6524 2925.29,-19.2246 2928.49,-18.746"/>
<polygon fill="midnightblue" stroke="midnightblue" points="2064.1,-52.6843 2054.58,-57.3256 2064.92,-59.6366 2064.1,-52.6843"/>
</g>
<!-- Node32 -->
<g id="node32" class="node"><title>Node32</title>
<g id="a_node32"><a xlink:href="../../d8/d35/targatorle_8c.html" target="_top" xlink:title="cnv/targatorle.c">
<polygon fill="white" stroke="black" points="3025.5,-0.5 3025.5,-19.5 3114.5,-19.5 3114.5,-0.5 3025.5,-0.5"/>
<text text-anchor="middle" x="3070" y="-7.5" font-family="Helvetica,sans-Serif" font-size="10.00">cnv/targatorle.c</text>
</a>
</g>
</g>
<!-- Node2&#45;&gt;Node32 -->
<g id="edge31" class="edge"><title>Node2&#45;&gt;Node32</title>
<path fill="none" stroke="midnightblue" d="M2064.61,-56.1552C2486.78,-8.0351 2598.68,-63.2322 3017,-20 3019.69,-19.7218 3022.45,-19.3911 3025.24,-19.0234"/>
<polygon fill="midnightblue" stroke="midnightblue" points="2064.11,-52.6892 2054.58,-57.3112 2064.91,-59.6432 2064.11,-52.6892"/>
</g>
<!-- Node33 -->
<g id="node33" class="node"><title>Node33</title>
<g id="a_node33"><a xlink:href="../../d6/d0d/dvirle2_8c.html" target="_top" xlink:title="cnv/tex/dvirle2.c">
<polygon fill="white" stroke="black" points="3133,-0.5 3133,-19.5 3225,-19.5 3225,-0.5 3133,-0.5"/>
<text text-anchor="middle" x="3179" y="-7.5" font-family="Helvetica,sans-Serif" font-size="10.00">cnv/tex/dvirle2.c</text>
</a>
</g>
</g>
<!-- Node2&#45;&gt;Node33 -->
<g id="edge32" class="edge"><title>Node2&#45;&gt;Node33</title>
<path fill="none" stroke="midnightblue" d="M2064.67,-56.1538C2534.1,-3.47004 2658.2,-65.8295 3124,-20 3126.89,-19.7158 3129.86,-19.3746 3132.84,-18.9936"/>
<polygon fill="midnightblue" stroke="midnightblue" points="2064.12,-52.694 2054.58,-57.2985 2064.91,-59.6494 2064.12,-52.694"/>
</g>
<!-- Node34 -->
<g id="node34" class="node"><title>Node34</title>
<g id="a_node34"><a xlink:href="../../df/db4/tifftorle_8c.html" target="_top" xlink:title="cnv/tifftorle.c">
<polygon fill="white" stroke="black" points="3243,-0.5 3243,-19.5 3319,-19.5 3319,-0.5 3243,-0.5"/>
<text text-anchor="middle" x="3281" y="-7.5" font-family="Helvetica,sans-Serif" font-size="10.00">cnv/tifftorle.c</text>
</a>
</g>
</g>
<!-- Node2&#45;&gt;Node34 -->
<g id="edge33" class="edge"><title>Node2&#45;&gt;Node34</title>
<path fill="none" stroke="midnightblue" d="M2064.55,-56.1728C2582.73,1.13785 2720.18,-76.7386 3234,-20 3236.89,-19.6808 3239.87,-19.2807 3242.86,-18.8278"/>
<polygon fill="midnightblue" stroke="midnightblue" points="2064.12,-52.6988 2054.58,-57.2878 2064.9,-59.6555 2064.12,-52.6988"/>
</g>
<!-- Node35 -->
<g id="node35" class="node"><title>Node35</title>
<g id="a_node35"><a xlink:href="../../de/d5e/vcrtorle_8c.html" target="_top" xlink:title="cnv/vcrtorle.c">
<polygon fill="white" stroke="black" points="3337.5,-0.5 3337.5,-19.5 3416.5,-19.5 3416.5,-0.5 3337.5,-0.5"/>
<text text-anchor="middle" x="3377" y="-7.5" font-family="Helvetica,sans-Serif" font-size="10.00">cnv/vcrtorle.c</text>
</a>
</g>
</g>
<!-- Node2&#45;&gt;Node35 -->
<g id="edge34" class="edge"><title>Node2&#45;&gt;Node35</title>
<path fill="none" stroke="midnightblue" d="M2064.52,-56.1801C2624.29,5.17421 2772.37,-78.591 3328,-20 3331.1,-19.6735 3334.29,-19.2608 3337.5,-18.7927"/>
<polygon fill="midnightblue" stroke="midnightblue" points="2064.13,-52.7014 2054.57,-57.2802 2064.9,-59.659 2064.13,-52.7014"/>
</g>
<!-- Node36 -->
<g id="node36" class="node"><title>Node36</title>
<g id="a_node36"><a xlink:href="../../d7/d4e/wasatchrle_8c.html" target="_top" xlink:title="cnv/wasatchrle.c">
<polygon fill="white" stroke="black" points="3434.5,-0.5 3434.5,-19.5 3529.5,-19.5 3529.5,-0.5 3434.5,-0.5"/>
<text text-anchor="middle" x="3482" y="-7.5" font-family="Helvetica,sans-Serif" font-size="10.00">cnv/wasatchrle.c</text>
</a>
</g>
</g>
<!-- Node2&#45;&gt;Node36 -->
<g id="edge35" class="edge"><title>Node2&#45;&gt;Node36</title>
<path fill="none" stroke="midnightblue" d="M2064.83,-56.1484C2667.68,9.39913 2826.45,-75.852 3426,-20 3428.75,-19.7443 3431.56,-19.4368 3434.4,-19.092"/>
<polygon fill="midnightblue" stroke="midnightblue" points="2064.13,-52.7037 2054.57,-57.2733 2064.9,-59.662 2064.13,-52.7037"/>
</g>
<!-- Node37 -->
<g id="node37" class="node"><title>Node37</title>
<g id="a_node37"><a xlink:href="../../d6/d6c/xbmtorle_8c.html" target="_top" xlink:title="cnv/xbmtorle.c">
<polygon fill="white" stroke="black" points="3547.5,-0.5 3547.5,-19.5 3630.5,-19.5 3630.5,-0.5 3547.5,-0.5"/>
<text text-anchor="middle" x="3589" y="-7.5" font-family="Helvetica,sans-Serif" font-size="10.00">cnv/xbmtorle.c</text>
</a>
</g>
</g>
<!-- Node2&#45;&gt;Node37 -->
<g id="edge36" class="edge"><title>Node2&#45;&gt;Node37</title>
<path fill="none" stroke="midnightblue" d="M2064.71,-56.1655C2717.64,14.1731 2889.95,-85.9399 3539,-20 3541.72,-19.7236 3544.51,-19.3822 3547.33,-18.9956"/>
<polygon fill="midnightblue" stroke="midnightblue" points="2064.14,-52.7067 2054.57,-57.2666 2064.89,-59.6657 2064.14,-52.7067"/>
</g>
<!-- Node38 -->
<g id="node38" class="node"><title>Node38</title>
<g id="a_node38"><a xlink:href="../../d9/dea/getcx3d_8c.html" target="_top" xlink:title="get/cx3d/getcx3d.c">
<polygon fill="white" stroke="black" points="3648.5,-0.5 3648.5,-19.5 3753.5,-19.5 3753.5,-0.5 3648.5,-0.5"/>
<text text-anchor="middle" x="3701" y="-7.5" font-family="Helvetica,sans-Serif" font-size="10.00">get/cx3d/getcx3d.c</text>
</a>
</g>
</g>
<!-- Node2&#45;&gt;Node38 -->
<g id="edge37" class="edge"><title>Node2&#45;&gt;Node38</title>
<path fill="none" stroke="midnightblue" d="M2064.62,-56.1764C2762.28,18.6012 2945.21,-78.9632 3640,-20 3642.77,-19.7646 3645.61,-19.4843 3648.48,-19.1704"/>
<polygon fill="midnightblue" stroke="midnightblue" points="2064.14,-52.7078 2054.57,-57.2613 2064.89,-59.6674 2064.14,-52.7078"/>
</g>
<!-- Node39 -->
<g id="node39" class="node"><title>Node39</title>
<g id="a_node39"><a xlink:href="../../d3/d46/get4d_8c.html" target="_top" xlink:title="get/get4d.c">
<polygon fill="white" stroke="black" points="3771.5,-0.5 3771.5,-19.5 3840.5,-19.5 3840.5,-0.5 3771.5,-0.5"/>
<text text-anchor="middle" x="3806" y="-7.5" font-family="Helvetica,sans-Serif" font-size="10.00">get/get4d.c</text>
</a>
</g>
</g>
<!-- Node2&#45;&gt;Node39 -->
<g id="edge38" class="edge"><title>Node2&#45;&gt;Node39</title>
<path fill="none" stroke="midnightblue" d="M2064.56,-56.1862C2816.69,23.6669 3015.9,-105.355 3763,-20 3765.73,-19.6883 3768.54,-19.2863 3771.36,-18.8256"/>
<polygon fill="midnightblue" stroke="midnightblue" points="2064.14,-52.7112 2054.57,-57.2558 2064.89,-59.6714 2064.14,-52.7112"/>
</g>
<!-- Node40 -->
<g id="node40" class="node"><title>Node40</title>
<g id="a_node40"><a xlink:href="../../d9/d3b/get__orion_8c.html" target="_top" xlink:title="get/get_orion.c">
<polygon fill="white" stroke="black" points="3858.5,-0.5 3858.5,-19.5 3945.5,-19.5 3945.5,-0.5 3858.5,-0.5"/>
<text text-anchor="middle" x="3902" y="-7.5" font-family="Helvetica,sans-Serif" font-size="10.00">get/get_orion.c</text>
</a>
</g>
</g>
<!-- Node2&#45;&gt;Node40 -->
<g id="edge39" class="edge"><title>Node2&#45;&gt;Node40</title>
<path fill="none" stroke="midnightblue" d="M2064.78,-56.1642C2855.2,27.4792 3063.08,-95.5923 3850,-20 3852.74,-19.7372 3855.54,-19.4124 3858.37,-19.0437"/>
<polygon fill="midnightblue" stroke="midnightblue" points="2064.14,-52.7119 2054.57,-57.2523 2064.89,-59.6725 2064.14,-52.7119"/>
</g>
</g>
</svg>
        <g id="navigator" transform="translate(0 0)" fill="#404254">
                <rect fill="#f2f5e9" fill-opacity="0.5" stroke="#606060" stroke-width=".5" x="0" y="0" width="60" height="60"/>
                <use id="zoomplus" xlink:href="#zoomPlus" x="17" y="9" onmousedown="handleZoom(evt,'in')"/>
                <use id="zoomminus" xlink:href="#zoomMin" x="42" y="9" onmousedown="handleZoom(evt,'out')"/>
                <use id="reset" xlink:href="#resetDef" x="30" y="36" onmousedown="handleReset()"/>
                <g id="arrowUp" xlink:href="#dirArrow" transform="translate(30 24)" onmousedown="handlePan(0,-1)">
                  <use xlink:href="#rim" fill="#404040">
                        <set attributeName="fill" to="#808080" begin="arrowUp.mouseover" end="arrowUp.mouseout"/>
                  </use>
                  <path fill="none" stroke="white" stroke-width="1.5" d="M0,-3.0v7 M-2.5,-0.5L0,-3.0L2.5,-0.5"/>
                </g>
                <g id="arrowRight" xlink:href="#dirArrow" transform="rotate(90) translate(36 -43)" onmousedown="handlePan(1,0)">
                  <use xlink:href="#rim" fill="#404040">
                        <set attributeName="fill" to="#808080" begin="arrowRight.mouseover" end="arrowRight.mouseout"/>
                  </use>
                  <path fill="none" stroke="white" stroke-width="1.5" d="M0,-3.0v7 M-2.5,-0.5L0,-3.0L2.5,-0.5"/>
                </g>
                <g id="arrowDown" xlink:href="#dirArrow" transform="rotate(180) translate(-30 -48)" onmousedown="handlePan(0,1)">
                  <use xlink:href="#rim" fill="#404040">
                        <set attributeName="fill" to="#808080" begin="arrowDown.mouseover" end="arrowDown.mouseout"/>
                  </use>
                  <path fill="none" stroke="white" stroke-width="1.5" d="M0,-3.0v7 M-2.5,-0.5L0,-3.0L2.5,-0.5"/>
                </g>
                <g id="arrowLeft" xlink:href="#dirArrow" transform="rotate(270) translate(-36 17)" onmousedown="handlePan(-1,0)">
                  <use xlink:href="#rim" fill="#404040">
                        <set attributeName="fill" to="#808080" begin="arrowLeft.mouseover" end="arrowLeft.mouseout"/>
                  </use>
                  <path fill="none" stroke="white" stroke-width="1.5" d="M0,-3.0v7 M-2.5,-0.5L0,-3.0L2.5,-0.5"/>
                </g>
        </g>
        <svg viewBox="0 0 15 15" width="100%" height="30px" preserveAspectRatio="xMaxYMin meet">
         <g id="arrow_out" transform="scale(0.3 0.3)">
          <a xlink:href="rle__config_8h__dep__incl_org.svg" target="_base">
           <rect id="button" ry="5" rx="5" y="6" x="6" height="38" width="38"
                fill="#f2f5e9" fill-opacity="0.5" stroke="#606060" stroke-width="1.0"/>
           <path id="arrow"
             d="M 11.500037,31.436501 C 11.940474,20.09759 22.043105,11.32322 32.158766,21.979434 L 37.068811,17.246167 C 37.068811,17.246167 37.088388,32 37.088388,32 L 22.160133,31.978069 C 22.160133,31.978069 26.997745,27.140456 26.997745,27.140456 C 18.528582,18.264221 13.291696,25.230495 11.500037,31.436501 z"
             style="fill:#404040;"/>
          </a>
         </g>
        </svg>
</svg>
