<?xml version="1.0" encoding="UTF-8" standalone="no"?>
<!DOCTYPE svg PUBLIC "-//W3C//DTD SVG 1.1//EN"
 "http://www.w3.org/Graphics/SVG/1.1/DTD/svg11.dtd">
<!-- Generated by graphviz version 2.38.0 (20140413.2041)
 -->
<!-- Title: bread Pages: 1 -->
<svg width="237pt" height="28pt"
 viewBox="0.00 0.00 237.00 28.00" xmlns="http://www.w3.org/2000/svg" xmlns:xlink="http://www.w3.org/1999/xlink">
<g id="graph0" class="graph" transform="scale(1 1) rotate(0) translate(4 24)">
<title>bread</title>
<polygon fill="white" stroke="none" points="-4,4 -4,-24 233,-24 233,4 -4,4"/>
<!-- Node1 -->
<g id="node1" class="node"><title>Node1</title>
<polygon fill="#bfbfbf" stroke="black" points="0,-0.5 0,-19.5 44,-19.5 44,-0.5 0,-0.5"/>
<text text-anchor="middle" x="22" y="-7.5" font-family="Helvetica,sans-Serif" font-size="10.00">bread</text>
</g>
<!-- Node2 -->
<g id="node2" class="node"><title>Node2</title>
<g id="a_node2"><a xlink:href="../../dc/dd9/XtndRunget_8c.html#a53094ca52d4ba6e2fcad76ee780d9ac5" target="_top" xlink:title="XtndRunGet">
<polygon fill="white" stroke="black" points="80,-0.5 80,-19.5 154,-19.5 154,-0.5 80,-0.5"/>
<text text-anchor="middle" x="117" y="-7.5" font-family="Helvetica,sans-Serif" font-size="10.00">XtndRunGet</text>
</a>
</g>
</g>
<!-- Node1&#45;&gt;Node2 -->
<g id="edge1" class="edge"><title>Node1&#45;&gt;Node2</title>
<path fill="none" stroke="midnightblue" d="M54.3015,-10C62.4391,-10 71.2745,-10 79.6484,-10"/>
<polygon fill="midnightblue" stroke="midnightblue" points="54.1032,-6.5001 44.1031,-10 54.1031,-13.5001 54.1032,-6.5001"/>
</g>
<!-- Node3 -->
<g id="node3" class="node"><title>Node3</title>
<g id="a_node3"><a xlink:href="../../d0/d2c/getgmr_8c.html#a2e1c56207484e456874379d624fc0e67" target="_top" xlink:title="main">
<polygon fill="white" stroke="black" points="190,-0.5 190,-19.5 229,-19.5 229,-0.5 190,-0.5"/>
<text text-anchor="middle" x="209.5" y="-7.5" font-family="Helvetica,sans-Serif" font-size="10.00">main</text>
</a>
</g>
</g>
<!-- Node2&#45;&gt;Node3 -->
<g id="edge2" class="edge"><title>Node2&#45;&gt;Node3</title>
<path fill="none" stroke="midnightblue" d="M164.189,-10C173.238,-10 182.237,-10 189.738,-10"/>
<polygon fill="midnightblue" stroke="midnightblue" points="164.028,-6.5001 154.028,-10 164.028,-13.5001 164.028,-6.5001"/>
</g>
</g>
</svg>
