<?xml version="1.0" encoding="UTF-8" standalone="no"?>
<!DOCTYPE svg PUBLIC "-//W3C//DTD SVG 1.1//EN"
 "http://www.w3.org/Graphics/SVG/1.1/DTD/svg11.dtd">
<!-- Generated by graphviz version 2.38.0 (20140413.2041)
 -->
<!-- Title: get_scanline Pages: 1 -->
<svg width="303pt" height="142pt"
 viewBox="0.00 0.00 303.00 142.00" xmlns="http://www.w3.org/2000/svg" xmlns:xlink="http://www.w3.org/1999/xlink">
<g id="graph0" class="graph" transform="scale(1 1) rotate(0) translate(4 138)">
<title>get_scanline</title>
<polygon fill="white" stroke="none" points="-4,4 -4,-138 299,-138 299,4 -4,4"/>
<!-- Node1 -->
<g id="node1" class="node"><title>Node1</title>
<polygon fill="#bfbfbf" stroke="black" points="0,-76.5 0,-95.5 77,-95.5 77,-76.5 0,-76.5"/>
<text text-anchor="middle" x="38.5" y="-83.5" font-family="Helvetica,sans-Serif" font-size="10.00">get_scanline</text>
</g>
<!-- Node2 -->
<g id="node2" class="node"><title>Node2</title>
<g id="a_node2"><a xlink:href="../../d9/d87/rle__rawrow_8c.html#a3f2afe7476d4e563999daf97822f7375" target="_top" xlink:title="rle_rawtorow">
<polygon fill="white" stroke="black" points="113,-114.5 113,-133.5 191,-133.5 191,-114.5 113,-114.5"/>
<text text-anchor="middle" x="152" y="-121.5" font-family="Helvetica,sans-Serif" font-size="10.00">rle_rawtorow</text>
</a>
</g>
</g>
<!-- Node1&#45;&gt;Node2 -->
<g id="edge1" class="edge"><title>Node1&#45;&gt;Node2</title>
<path fill="none" stroke="midnightblue" d="M67.6362,-95.589C81.5015,-100.314 98.4156,-106.079 113.376,-111.177"/>
<polygon fill="midnightblue" stroke="midnightblue" points="112.278,-114.501 122.873,-114.414 114.537,-107.875 112.278,-114.501"/>
</g>
<!-- Node3 -->
<g id="node3" class="node"><title>Node3</title>
<g id="a_node3"><a xlink:href="../../df/dce/rle__getraw_8c.html#ad4a764bcb2dc8e45f3f57171022dbf2b" target="_top" xlink:title="rle_freeraw">
<polygon fill="white" stroke="black" points="116.5,-76.5 116.5,-95.5 187.5,-95.5 187.5,-76.5 116.5,-76.5"/>
<text text-anchor="middle" x="152" y="-83.5" font-family="Helvetica,sans-Serif" font-size="10.00">rle_freeraw</text>
</a>
</g>
</g>
<!-- Node1&#45;&gt;Node3 -->
<g id="edge2" class="edge"><title>Node1&#45;&gt;Node3</title>
<path fill="none" stroke="midnightblue" d="M77.2488,-86C86.528,-86 96.5526,-86 106.131,-86"/>
<polygon fill="midnightblue" stroke="midnightblue" points="106.294,-89.5001 116.294,-86 106.294,-82.5001 106.294,-89.5001"/>
</g>
<!-- Node5 -->
<g id="node5" class="node"><title>Node5</title>
<g id="a_node5"><a xlink:href="../../db/d53/rle__getrow_8c.html#a3602e1158189cba5e5b0f9b983cba776" target="_top" xlink:title="rle_getrow">
<polygon fill="white" stroke="black" points="118.5,-38.5 118.5,-57.5 185.5,-57.5 185.5,-38.5 118.5,-38.5"/>
<text text-anchor="middle" x="152" y="-45.5" font-family="Helvetica,sans-Serif" font-size="10.00">rle_getrow</text>
</a>
</g>
</g>
<!-- Node1&#45;&gt;Node5 -->
<g id="edge4" class="edge"><title>Node1&#45;&gt;Node5</title>
<path fill="none" stroke="midnightblue" d="M67.6362,-76.411C81.5015,-71.6856 98.4156,-65.9211 113.376,-60.8226"/>
<polygon fill="midnightblue" stroke="midnightblue" points="114.537,-64.1248 122.873,-57.5859 112.278,-57.499 114.537,-64.1248"/>
</g>
<!-- Node4 -->
<g id="node4" class="node"><title>Node4</title>
<g id="a_node4"><a xlink:href="../../d0/dcc/rletorla_8c.html#aafde19f7d36ca163a143579c1b125b6d" target="_top" xlink:title="free">
<polygon fill="white" stroke="black" points="243.5,-76.5 243.5,-95.5 278.5,-95.5 278.5,-76.5 243.5,-76.5"/>
<text text-anchor="middle" x="261" y="-83.5" font-family="Helvetica,sans-Serif" font-size="10.00">free</text>
</a>
</g>
</g>
<!-- Node3&#45;&gt;Node4 -->
<g id="edge3" class="edge"><title>Node3&#45;&gt;Node4</title>
<path fill="none" stroke="midnightblue" d="M187.74,-86C202.474,-86 219.381,-86 233.136,-86"/>
<polygon fill="midnightblue" stroke="midnightblue" points="233.389,-89.5001 243.389,-86 233.389,-82.5001 233.389,-89.5001"/>
</g>
<!-- Node6 -->
<g id="node6" class="node"><title>Node6</title>
<g id="a_node6"><a xlink:href="../../db/d53/rle__getrow_8c.html#a61ac0da96b0dd8bc3cbc98afcd9b5c44" target="_top" xlink:title="bfill">
<polygon fill="white" stroke="black" points="245,-38.5 245,-57.5 277,-57.5 277,-38.5 245,-38.5"/>
<text text-anchor="middle" x="261" y="-45.5" font-family="Helvetica,sans-Serif" font-size="10.00">bfill</text>
</a>
</g>
</g>
<!-- Node5&#45;&gt;Node6 -->
<g id="edge5" class="edge"><title>Node5&#45;&gt;Node6</title>
<path fill="none" stroke="midnightblue" d="M185.685,-48C201.357,-48 219.852,-48 234.471,-48"/>
<polygon fill="midnightblue" stroke="midnightblue" points="234.783,-51.5001 244.783,-48 234.783,-44.5001 234.783,-51.5001"/>
</g>
<!-- Node7 -->
<g id="node7" class="node"><title>Node7</title>
<g id="a_node7"><a xlink:href="../../d8/d7c/rle__getskip_8c.html#af6b1e1dc0867e9340f90668591c7c5b3" target="_top" xlink:title="rle_getskip">
<polygon fill="white" stroke="black" points="227,-0.5 227,-19.5 295,-19.5 295,-0.5 227,-0.5"/>
<text text-anchor="middle" x="261" y="-7.5" font-family="Helvetica,sans-Serif" font-size="10.00">rle_getskip</text>
</a>
</g>
</g>
<!-- Node5&#45;&gt;Node7 -->
<g id="edge6" class="edge"><title>Node5&#45;&gt;Node7</title>
<path fill="none" stroke="midnightblue" d="M180.001,-38.411C193.18,-33.7306 209.229,-28.0308 223.484,-22.9685"/>
<polygon fill="midnightblue" stroke="midnightblue" points="224.756,-26.2308 233.008,-19.5859 222.413,-19.6344 224.756,-26.2308"/>
</g>
</g>
</svg>
