<?xml version="1.0" encoding="UTF-8" standalone="no"?>
<!DOCTYPE svg PUBLIC "-//W3C//DTD SVG 1.1//EN"
 "http://www.w3.org/Graphics/SVG/1.1/DTD/svg11.dtd">
<!-- Generated by graphviz version 2.38.0 (20140413.2041)
 -->
<!-- Title: XtndRsetup Pages: 1 -->
<svg width="96pt" height="183pt"
 viewBox="0.00 0.00 95.50 183.00" xmlns="http://www.w3.org/2000/svg" xmlns:xlink="http://www.w3.org/1999/xlink">
<g id="graph0" class="graph" transform="scale(1 1) rotate(0) translate(4 179)">
<title>XtndRsetup</title>
<polygon fill="white" stroke="none" points="-4,4 -4,-179 91.5,-179 91.5,4 -4,4"/>
<!-- Node1 -->
<g id="node1" class="node"><title>Node1</title>
<polygon fill="#bfbfbf" stroke="black" points="0,-0.5 0,-19.5 71,-19.5 71,-0.5 0,-0.5"/>
<text text-anchor="middle" x="35.5" y="-7.5" font-family="Helvetica,sans-Serif" font-size="10.00">XtndRsetup</text>
</g>
<!-- Node2 -->
<g id="node2" class="node"><title>Node2</title>
<polygon fill="white" stroke="#bfbfbf" points="16.5,-155.5 16.5,-174.5 54.5,-174.5 54.5,-155.5 16.5,-155.5"/>
<text text-anchor="middle" x="35.5" y="-162.5" font-family="Helvetica,sans-Serif" font-size="10.00">char</text>
</g>
<!-- Node2&#45;&gt;Node1 -->
<g id="edge1" class="edge"><title>Node2&#45;&gt;Node1</title>
<path fill="none" stroke="#9a32cd" stroke-dasharray="5,2" d="M35.5,-145.105C35.5,-111.716 35.5,-43.5423 35.5,-19.5693"/>
<polygon fill="#9a32cd" stroke="#9a32cd" points="32.0001,-145.336 35.5,-155.336 39.0001,-145.336 32.0001,-145.336"/>
<text text-anchor="middle" x="61.5" y="-129" font-family="Helvetica,sans-Serif" font-size="10.00"> h_flags</text>
<text text-anchor="middle" x="61.5" y="-118" font-family="Helvetica,sans-Serif" font-size="10.00">hc_ypos</text>
<text text-anchor="middle" x="61.5" y="-107" font-family="Helvetica,sans-Serif" font-size="10.00">hc_xpos</text>
<text text-anchor="middle" x="61.5" y="-96" font-family="Helvetica,sans-Serif" font-size="10.00">h_ncmap</text>
<text text-anchor="middle" x="61.5" y="-85" font-family="Helvetica,sans-Serif" font-size="10.00">h_ncolors</text>
<text text-anchor="middle" x="61.5" y="-74" font-family="Helvetica,sans-Serif" font-size="10.00">h_cmaplen</text>
<text text-anchor="middle" x="61.5" y="-63" font-family="Helvetica,sans-Serif" font-size="10.00">h_pixelbits</text>
<text text-anchor="middle" x="61.5" y="-52" font-family="Helvetica,sans-Serif" font-size="10.00">hc_ylen</text>
<text text-anchor="middle" x="61.5" y="-41" font-family="Helvetica,sans-Serif" font-size="10.00">hc_xlen</text>
</g>
</g>
</svg>
