<?xml version="1.0" encoding="UTF-8" standalone="no"?>
<!DOCTYPE svg PUBLIC "-//W3C//DTD SVG 1.1//EN"
 "http://www.w3.org/Graphics/SVG/1.1/DTD/svg11.dtd">
<!-- Generated by graphviz version 2.38.0 (20140413.2041)
 -->
<!-- Title: fb_getbox Pages: 1 -->
<svg width="96pt" height="161pt"
 viewBox="0.00 0.00 96.00 161.00" xmlns="http://www.w3.org/2000/svg" xmlns:xlink="http://www.w3.org/1999/xlink">
<g id="graph0" class="graph" transform="scale(1 1) rotate(0) translate(4 157)">
<title>fb_getbox</title>
<polygon fill="white" stroke="none" points="-4,4 -4,-157 92,-157 92,4 -4,4"/>
<!-- Node1 -->
<g id="node1" class="node"><title>Node1</title>
<polygon fill="#bfbfbf" stroke="black" points="15.5,-0.5 15.5,-19.5 77.5,-19.5 77.5,-0.5 15.5,-0.5"/>
<text text-anchor="middle" x="46.5" y="-7.5" font-family="Helvetica,sans-Serif" font-size="10.00">fb_getbox</text>
</g>
<!-- Node2 -->
<g id="node2" class="node"><title>Node2</title>
<polygon fill="white" stroke="#bfbfbf" points="0,-133.5 0,-152.5 41,-152.5 41,-133.5 0,-133.5"/>
<text text-anchor="middle" x="20.5" y="-140.5" font-family="Helvetica,sans-Serif" font-size="10.00">short</text>
</g>
<!-- Node2&#45;&gt;Node1 -->
<g id="edge1" class="edge"><title>Node2&#45;&gt;Node1</title>
<path fill="none" stroke="#9a32cd" stroke-dasharray="5,2" d="M17.4084,-123.234C14.6931,-101.829 12.6712,-66.1524 23.5,-38 26.1528,-31.1034 31.3723,-24.7397 36.1693,-19.9247"/>
<polygon fill="#9a32cd" stroke="#9a32cd" points="13.9646,-123.875 18.8689,-133.266 20.8916,-122.866 13.9646,-123.875"/>
<text text-anchor="middle" x="37.5" y="-107" font-family="Helvetica,sans-Serif" font-size="10.00"> xfreq</text>
<text text-anchor="middle" x="37.5" y="-96" font-family="Helvetica,sans-Serif" font-size="10.00">yfreq</text>
<text text-anchor="middle" x="37.5" y="-85" font-family="Helvetica,sans-Serif" font-size="10.00">ymin</text>
<text text-anchor="middle" x="37.5" y="-74" font-family="Helvetica,sans-Serif" font-size="10.00">ymax</text>
<text text-anchor="middle" x="37.5" y="-63" font-family="Helvetica,sans-Serif" font-size="10.00">xmin</text>
<text text-anchor="middle" x="37.5" y="-52" font-family="Helvetica,sans-Serif" font-size="10.00">xmax</text>
<text text-anchor="middle" x="37.5" y="-41" font-family="Helvetica,sans-Serif" font-size="10.00">buf</text>
</g>
<!-- Node3 -->
<g id="node3" class="node"><title>Node3</title>
<polygon fill="white" stroke="#bfbfbf" points="59,-133.5 59,-152.5 88,-152.5 88,-133.5 59,-133.5"/>
<text text-anchor="middle" x="73.5" y="-140.5" font-family="Helvetica,sans-Serif" font-size="10.00">int</text>
</g>
<!-- Node3&#45;&gt;Node1 -->
<g id="edge2" class="edge"><title>Node3&#45;&gt;Node1</title>
<path fill="none" stroke="#9a32cd" stroke-dasharray="5,2" d="M69.6812,-123.472C63.7785,-94.8329 52.6658,-40.9156 48.3135,-19.7987"/>
<polygon fill="#9a32cd" stroke="#9a32cd" points="66.2818,-124.317 71.7285,-133.405 73.1377,-122.904 66.2818,-124.317"/>
<text text-anchor="middle" x="72.5" y="-74" font-family="Helvetica,sans-Serif" font-size="10.00"> n</text>
</g>
</g>
</svg>
