<?xml version="1.0" encoding="UTF-8" standalone="no"?>
<!DOCTYPE svg PUBLIC "-//W3C//DTD SVG 1.1//EN"
 "http://www.w3.org/Graphics/SVG/1.1/DTD/svg11.dtd">
<!-- Generated by graphviz version 2.38.0 (20140413.2041)
 -->
<!-- Title: main Pages: 1 -->
<svg width="523pt" height="671pt"
 viewBox="0.00 0.00 523.00 671.00" xmlns="http://www.w3.org/2000/svg" xmlns:xlink="http://www.w3.org/1999/xlink">
<g id="graph0" class="graph" transform="scale(1 1) rotate(0) translate(4 667)">
<title>main</title>
<polygon fill="white" stroke="none" points="-4,4 -4,-667 519,-667 519,4 -4,4"/>
<!-- Node1 -->
<g id="node1" class="node"><title>Node1</title>
<polygon fill="#bfbfbf" stroke="black" points="0,-320.5 0,-339.5 39,-339.5 39,-320.5 0,-320.5"/>
<text text-anchor="middle" x="19.5" y="-327.5" font-family="Helvetica,sans-Serif" font-size="10.00">main</text>
</g>
<!-- Node2 -->
<g id="node2" class="node"><title>Node2</title>
<g id="a_node2"><a xlink:href="../../d8/d30/cmd__name_8c.html#a271249070fdd12c176777c77d76f888f" target="_top" xlink:title="cmd_name">
<polygon fill="white" stroke="black" points="81,-605.5 81,-624.5 149,-624.5 149,-605.5 81,-605.5"/>
<text text-anchor="middle" x="115" y="-612.5" font-family="Helvetica,sans-Serif" font-size="10.00">cmd_name</text>
</a>
</g>
</g>
<!-- Node1&#45;&gt;Node2 -->
<g id="edge1" class="edge"><title>Node1&#45;&gt;Node2</title>
<path fill="none" stroke="midnightblue" d="M21.4742,-339.505C25.9084,-381.316 45.2604,-548.675 75,-591 77.2996,-594.273 80.2017,-597.186 83.3807,-599.755"/>
<polygon fill="midnightblue" stroke="midnightblue" points="81.4413,-602.669 91.6676,-605.439 85.4008,-596.896 81.4413,-602.669"/>
</g>
<!-- Node3 -->
<g id="node3" class="node"><title>Node3</title>
<g id="a_node3"><a xlink:href="../../d2/df3/rle__hdr_8c.html#a8ba0e5b11d1e39ab7227f1686e676c86" target="_top" xlink:title="rle_hdr_init">
<polygon fill="white" stroke="black" points="80,-339.5 80,-358.5 150,-358.5 150,-339.5 80,-339.5"/>
<text text-anchor="middle" x="115" y="-346.5" font-family="Helvetica,sans-Serif" font-size="10.00">rle_hdr_init</text>
</a>
</g>
</g>
<!-- Node1&#45;&gt;Node3 -->
<g id="edge2" class="edge"><title>Node1&#45;&gt;Node3</title>
<path fill="none" stroke="midnightblue" d="M39.4211,-333.845C48.3275,-335.655 59.3525,-337.895 70.1683,-340.093"/>
<polygon fill="midnightblue" stroke="midnightblue" points="69.479,-343.524 79.9757,-342.086 70.873,-336.665 69.479,-343.524"/>
</g>
<!-- Node6 -->
<g id="node6" class="node"><title>Node6</title>
<g id="a_node6"><a xlink:href="../../d2/df3/rle__hdr_8c.html#afc916e29aea8788e0878ca315ff69821" target="_top" xlink:title="rle_hdr_cp">
<polygon fill="white" stroke="black" points="199,-301.5 199,-320.5 267,-320.5 267,-301.5 199,-301.5"/>
<text text-anchor="middle" x="233" y="-308.5" font-family="Helvetica,sans-Serif" font-size="10.00">rle_hdr_cp</text>
</a>
</g>
</g>
<!-- Node1&#45;&gt;Node6 -->
<g id="edge25" class="edge"><title>Node1&#45;&gt;Node6</title>
<path fill="none" stroke="midnightblue" d="M39.2692,-328.314C72.5653,-325.323 142.773,-319.016 188.628,-314.896"/>
<polygon fill="midnightblue" stroke="midnightblue" points="189.225,-318.357 198.871,-313.976 188.598,-311.385 189.225,-318.357"/>
</g>
<!-- Node8 -->
<g id="node8" class="node"><title>Node8</title>
<g id="a_node8"><a xlink:href="../../d2/df3/rle__hdr_8c.html#a82e79385f2d45cc3b80ce0f4f369eae5" target="_top" xlink:title="rle_names">
<polygon fill="white" stroke="black" points="329,-339.5 329,-358.5 395,-358.5 395,-339.5 329,-339.5"/>
<text text-anchor="middle" x="362" y="-346.5" font-family="Helvetica,sans-Serif" font-size="10.00">rle_names</text>
</a>
</g>
</g>
<!-- Node1&#45;&gt;Node8 -->
<g id="edge18" class="edge"><title>Node1&#45;&gt;Node8</title>
<path fill="none" stroke="midnightblue" d="M30.3163,-339.69C40.5058,-349.007 57.3932,-362.468 75,-368 158.524,-394.244 262.326,-375.441 319.084,-361.114"/>
<polygon fill="midnightblue" stroke="midnightblue" points="319.987,-364.495 328.785,-358.592 318.226,-357.721 319.987,-364.495"/>
</g>
<!-- Node9 -->
<g id="node9" class="node"><title>Node9</title>
<g id="a_node9"><a xlink:href="../../d4/db0/scanargs_8c.html#a7ea6d702c0484056c8504d6ce7fede08" target="_top" xlink:title="scanargs">
<polygon fill="white" stroke="black" points="85,-159.5 85,-178.5 145,-178.5 145,-159.5 85,-159.5"/>
<text text-anchor="middle" x="115" y="-166.5" font-family="Helvetica,sans-Serif" font-size="10.00">scanargs</text>
</a>
</g>
</g>
<!-- Node1&#45;&gt;Node9 -->
<g id="edge11" class="edge"><title>Node1&#45;&gt;Node9</title>
<path fill="none" stroke="midnightblue" d="M22.9754,-320.224C29.0197,-297.695 46.1821,-241.068 75,-202 79.6332,-195.719 85.6895,-189.856 91.643,-184.867"/>
<polygon fill="midnightblue" stroke="midnightblue" points="93.856,-187.58 99.5544,-178.648 89.5297,-182.077 93.856,-187.58"/>
</g>
<!-- Node11 -->
<g id="node11" class="node"><title>Node11</title>
<g id="a_node11"><a xlink:href="../../de/d4e/rle__open__f_8c.html#a89733a45961817885603ae01210290b7" target="_top" xlink:title="rle_open_f">
<polygon fill="white" stroke="black" points="81,-491.5 81,-510.5 149,-510.5 149,-491.5 81,-491.5"/>
<text text-anchor="middle" x="115" y="-498.5" font-family="Helvetica,sans-Serif" font-size="10.00">rle_open_f</text>
</a>
</g>
</g>
<!-- Node1&#45;&gt;Node11 -->
<g id="edge13" class="edge"><title>Node1&#45;&gt;Node11</title>
<path fill="none" stroke="midnightblue" d="M21.8549,-339.672C25.8177,-364.882 39.4355,-433.653 75,-477 77.5923,-480.16 80.7161,-483.018 84.0534,-485.569"/>
<polygon fill="midnightblue" stroke="midnightblue" points="82.3459,-488.637 92.6078,-491.272 86.229,-482.813 82.3459,-488.637"/>
</g>
<!-- Node14 -->
<g id="node14" class="node"><title>Node14</title>
<g id="a_node14"><a xlink:href="../../db/d53/rle__getrow_8c.html#a619b27463c26e0a4a3d9648a9869ee52" target="_top" xlink:title="rle_get_setup">
<polygon fill="white" stroke="black" points="192.5,-453.5 192.5,-472.5 273.5,-472.5 273.5,-453.5 192.5,-453.5"/>
<text text-anchor="middle" x="233" y="-460.5" font-family="Helvetica,sans-Serif" font-size="10.00">rle_get_setup</text>
</a>
</g>
</g>
<!-- Node1&#45;&gt;Node14 -->
<g id="edge19" class="edge"><title>Node1&#45;&gt;Node14</title>
<path fill="none" stroke="midnightblue" d="M22.2724,-339.79C26.7708,-361.574 40.7943,-414.09 75,-439 105.672,-461.336 148.733,-466.594 182.002,-466.68"/>
<polygon fill="midnightblue" stroke="midnightblue" points="182.479,-470.174 192.431,-466.542 182.386,-463.175 182.479,-470.174"/>
</g>
<!-- Node16 -->
<g id="node16" class="node"><title>Node16</title>
<g id="a_node16"><a xlink:href="../../d8/def/rle__addhist_8c.html#a4f9433d6e4e203d0ecea1c7d3837afc3" target="_top" xlink:title="rle_addhist">
<polygon fill="white" stroke="black" points="198.5,-187.5 198.5,-206.5 267.5,-206.5 267.5,-187.5 198.5,-187.5"/>
<text text-anchor="middle" x="233" y="-194.5" font-family="Helvetica,sans-Serif" font-size="10.00">rle_addhist</text>
</a>
</g>
</g>
<!-- Node1&#45;&gt;Node16 -->
<g id="edge26" class="edge"><title>Node1&#45;&gt;Node16</title>
<path fill="none" stroke="midnightblue" d="M24.9696,-320.409C32.875,-304.438 50.8013,-272.338 75,-254 108.616,-228.526 154.716,-213.598 188.261,-205.456"/>
<polygon fill="midnightblue" stroke="midnightblue" points="189.29,-208.811 198.241,-203.143 187.709,-201.992 189.29,-208.811"/>
</g>
<!-- Node21 -->
<g id="node21" class="node"><title>Node21</title>
<g id="a_node21"><a xlink:href="../../d9/d2a/rle__putrow_8c.html#af88a82b331cd6f425d2a2cc1623944c6" target="_top" xlink:title="rle_put_setup">
<polygon fill="white" stroke="black" points="75,-116.5 75,-135.5 155,-135.5 155,-116.5 75,-116.5"/>
<text text-anchor="middle" x="115" y="-123.5" font-family="Helvetica,sans-Serif" font-size="10.00">rle_put_setup</text>
</a>
</g>
</g>
<!-- Node1&#45;&gt;Node21 -->
<g id="edge33" class="edge"><title>Node1&#45;&gt;Node21</title>
<path fill="none" stroke="midnightblue" d="M21.0618,-320.328C23.1919,-291.465 32.947,-204.57 75,-150 77.4947,-146.763 80.56,-143.858 83.8663,-141.283"/>
<polygon fill="midnightblue" stroke="midnightblue" points="86.042,-144.038 92.3934,-135.557 82.1401,-138.226 86.042,-144.038"/>
</g>
<!-- Node23 -->
<g id="node23" class="node"><title>Node23</title>
<g id="a_node23"><a xlink:href="../../da/dbc/rle__row__alc_8c.html#abf83029f1ab364a8cb72524f58d70a3b" target="_top" xlink:title="rle_row_alloc">
<polygon fill="white" stroke="black" points="322,-377.5 322,-396.5 402,-396.5 402,-377.5 322,-377.5"/>
<text text-anchor="middle" x="362" y="-384.5" font-family="Helvetica,sans-Serif" font-size="10.00">rle_row_alloc</text>
</a>
</g>
</g>
<!-- Node1&#45;&gt;Node23 -->
<g id="edge35" class="edge"><title>Node1&#45;&gt;Node23</title>
<path fill="none" stroke="midnightblue" d="M26.0337,-339.664C34.5277,-353.405 52.2155,-378.028 75,-388 152.454,-421.9 253.402,-410.261 312.324,-398.665"/>
<polygon fill="midnightblue" stroke="midnightblue" points="313.375,-402.022 322.469,-396.586 311.97,-395.165 313.375,-402.022"/>
</g>
<!-- Node24 -->
<g id="node24" class="node"><title>Node24</title>
<g id="a_node24"><a xlink:href="../../db/d53/rle__getrow_8c.html#a3602e1158189cba5e5b0f9b983cba776" target="_top" xlink:title="rle_getrow">
<polygon fill="white" stroke="black" points="81.5,-76.5 81.5,-95.5 148.5,-95.5 148.5,-76.5 81.5,-76.5"/>
<text text-anchor="middle" x="115" y="-83.5" font-family="Helvetica,sans-Serif" font-size="10.00">rle_getrow</text>
</a>
</g>
</g>
<!-- Node1&#45;&gt;Node24 -->
<g id="edge38" class="edge"><title>Node1&#45;&gt;Node24</title>
<path fill="none" stroke="midnightblue" d="M20.2187,-320.356C19.7433,-287.038 22.3365,-175.098 75,-107 76.5642,-104.977 78.38,-103.126 80.3556,-101.435"/>
<polygon fill="midnightblue" stroke="midnightblue" points="82.3836,-104.288 88.5737,-95.6895 78.3726,-98.5511 82.3836,-104.288"/>
</g>
<!-- Node26 -->
<g id="node26" class="node"><title>Node26</title>
<g id="a_node26"><a xlink:href="../../d8/d7c/rle__getskip_8c.html#af6b1e1dc0867e9340f90668591c7c5b3" target="_top" xlink:title="rle_getskip">
<polygon fill="white" stroke="black" points="199,-35.5 199,-54.5 267,-54.5 267,-35.5 199,-35.5"/>
<text text-anchor="middle" x="233" y="-42.5" font-family="Helvetica,sans-Serif" font-size="10.00">rle_getskip</text>
</a>
</g>
</g>
<!-- Node1&#45;&gt;Node26 -->
<g id="edge46" class="edge"><title>Node1&#45;&gt;Node26</title>
<path fill="none" stroke="midnightblue" d="M21.0553,-320.373C23.7456,-277.286 36.8886,-102.707 75,-67 105.071,-38.8254 153.67,-36.0815 188.838,-38.6591"/>
<polygon fill="midnightblue" stroke="midnightblue" points="188.556,-42.1477 198.83,-39.5586 189.184,-35.1759 188.556,-42.1477"/>
</g>
<!-- Node27 -->
<g id="node27" class="node"><title>Node27</title>
<g id="a_node27"><a xlink:href="../../d9/d2a/rle__putrow_8c.html#aa26532b01bc4f49b7383765cdc23ea72" target="_top" xlink:title="rle_putrow">
<polygon fill="white" stroke="black" points="82,-263.5 82,-282.5 148,-282.5 148,-263.5 82,-263.5"/>
<text text-anchor="middle" x="115" y="-270.5" font-family="Helvetica,sans-Serif" font-size="10.00">rle_putrow</text>
</a>
</g>
</g>
<!-- Node1&#45;&gt;Node27 -->
<g id="edge41" class="edge"><title>Node1&#45;&gt;Node27</title>
<path fill="none" stroke="midnightblue" d="M36.361,-320.331C50.9559,-311.433 72.8209,-298.104 89.632,-287.855"/>
<polygon fill="midnightblue" stroke="midnightblue" points="91.6566,-290.72 98.3732,-282.526 88.0129,-284.743 91.6566,-290.72"/>
</g>
<!-- Node29 -->
<g id="node29" class="node"><title>Node29</title>
<g id="a_node29"><a xlink:href="../../d9/d2a/rle__putrow_8c.html#af4fab734a5d227ad2ae95840f56fff3b" target="_top" xlink:title="rle_puteof">
<polygon fill="white" stroke="black" points="330,-643.5 330,-662.5 394,-662.5 394,-643.5 330,-643.5"/>
<text text-anchor="middle" x="362" y="-650.5" font-family="Helvetica,sans-Serif" font-size="10.00">rle_puteof</text>
</a>
</g>
</g>
<!-- Node1&#45;&gt;Node29 -->
<g id="edge44" class="edge"><title>Node1&#45;&gt;Node29</title>
<path fill="none" stroke="midnightblue" d="M19.9735,-339.663C18.6969,-372.993 18.988,-484.532 75,-547 108.483,-584.343 249.016,-624.462 319.836,-642.801"/>
<polygon fill="midnightblue" stroke="midnightblue" points="319.202,-646.251 329.758,-645.346 320.941,-639.471 319.202,-646.251"/>
</g>
<!-- Node30 -->
<g id="node30" class="node"><title>Node30</title>
<g id="a_node30"><a xlink:href="../../da/dbc/rle__row__alc_8c.html#a4fa936a985e542d42e91d272f9f6092d" target="_top" xlink:title="rle_row_free">
<polygon fill="white" stroke="black" points="194.5,-529.5 194.5,-548.5 271.5,-548.5 271.5,-529.5 194.5,-529.5"/>
<text text-anchor="middle" x="233" y="-536.5" font-family="Helvetica,sans-Serif" font-size="10.00">rle_row_free</text>
</a>
</g>
</g>
<!-- Node1&#45;&gt;Node30 -->
<g id="edge47" class="edge"><title>Node1&#45;&gt;Node30</title>
<path fill="none" stroke="midnightblue" d="M19.9068,-339.817C18.5784,-371.597 19.1145,-472.358 75,-520 104.728,-545.343 149.908,-548.385 184.181,-546.086"/>
<polygon fill="midnightblue" stroke="midnightblue" points="184.769,-549.549 194.439,-545.22 184.18,-542.574 184.769,-549.549"/>
</g>
<!-- Node31 -->
<g id="node31" class="node"><title>Node31</title>
<g id="a_node31"><a xlink:href="../../d7/d24/rle__error_8c.html#af931d686cf3ca715c9b900527f0961c0" target="_top" xlink:title="rle_get_error">
<polygon fill="white" stroke="black" points="75.5,-0.5 75.5,-19.5 154.5,-19.5 154.5,-0.5 75.5,-0.5"/>
<text text-anchor="middle" x="115" y="-7.5" font-family="Helvetica,sans-Serif" font-size="10.00">rle_get_error</text>
</a>
</g>
</g>
<!-- Node1&#45;&gt;Node31 -->
<g id="edge49" class="edge"><title>Node1&#45;&gt;Node31</title>
<path fill="none" stroke="midnightblue" d="M21.2186,-320.466C24.779,-275.252 41.7044,-82.6042 75,-34 77.1482,-30.8641 79.8544,-28.0623 82.8352,-25.5794"/>
<polygon fill="midnightblue" stroke="midnightblue" points="84.989,-28.344 91.1723,-19.7407 80.9735,-22.6103 84.989,-28.344"/>
</g>
<!-- Node4 -->
<g id="node4" class="node"><title>Node4</title>
<g id="a_node4"><a xlink:href="../../d2/df3/rle__hdr_8c.html#a16c4da6201b3b8cf55127b9ca968d253" target="_top" xlink:title="rle_hdr_clear">
<polygon fill="white" stroke="black" points="322,-415.5 322,-434.5 402,-434.5 402,-415.5 322,-415.5"/>
<text text-anchor="middle" x="362" y="-422.5" font-family="Helvetica,sans-Serif" font-size="10.00">rle_hdr_clear</text>
</a>
</g>
</g>
<!-- Node3&#45;&gt;Node4 -->
<g id="edge3" class="edge"><title>Node3&#45;&gt;Node4</title>
<path fill="none" stroke="midnightblue" d="M147.029,-358.625C191.119,-372.302 271.936,-397.372 320.637,-412.479"/>
<polygon fill="midnightblue" stroke="midnightblue" points="319.635,-415.833 330.223,-415.453 321.708,-409.147 319.635,-415.833"/>
</g>
<!-- Node3&#45;&gt;Node6 -->
<g id="edge5" class="edge"><title>Node3&#45;&gt;Node6</title>
<path fill="none" stroke="midnightblue" d="M131.165,-339.301C145.837,-332.718 168.771,-324.601 189.063,-318.522"/>
<polygon fill="midnightblue" stroke="midnightblue" points="190.13,-321.857 198.764,-315.717 188.185,-315.133 190.13,-321.857"/>
</g>
<!-- Node5 -->
<g id="node5" class="node"><title>Node5</title>
<g id="a_node5"><a xlink:href="../../d0/dcc/rletorla_8c.html#aafde19f7d36ca163a143579c1b125b6d" target="_top" xlink:title="free">
<polygon fill="white" stroke="black" points="464.5,-491.5 464.5,-510.5 499.5,-510.5 499.5,-491.5 464.5,-491.5"/>
<text text-anchor="middle" x="482" y="-498.5" font-family="Helvetica,sans-Serif" font-size="10.00">free</text>
</a>
</g>
</g>
<!-- Node4&#45;&gt;Node5 -->
<g id="edge4" class="edge"><title>Node4&#45;&gt;Node5</title>
<path fill="none" stroke="midnightblue" d="M377.945,-434.625C398.071,-447.588 434.089,-470.786 457.765,-486.035"/>
<polygon fill="midnightblue" stroke="midnightblue" points="455.874,-488.98 466.177,-491.453 459.665,-483.095 455.874,-488.98"/>
</g>
<!-- Node6&#45;&gt;Node3 -->
<g id="edge6" class="edge"><title>Node6&#45;&gt;Node3</title>
<path fill="none" stroke="midnightblue" d="M216.998,-320.626C202.546,-327.126 179.97,-335.14 159.825,-341.211"/>
<polygon fill="midnightblue" stroke="midnightblue" points="158.799,-337.864 150.176,-344.02 160.756,-344.585 158.799,-337.864"/>
</g>
<!-- Node7 -->
<g id="node7" class="node"><title>Node7</title>
<g id="a_node7"><a xlink:href="../../d0/dcc/rletorla_8c.html#ab7e36af3707843f77cc5b4e831c2fa6d" target="_top" xlink:title="malloc">
<polygon fill="white" stroke="black" points="458.5,-320.5 458.5,-339.5 505.5,-339.5 505.5,-320.5 458.5,-320.5"/>
<text text-anchor="middle" x="482" y="-327.5" font-family="Helvetica,sans-Serif" font-size="10.00">malloc</text>
</a>
</g>
</g>
<!-- Node6&#45;&gt;Node7 -->
<g id="edge7" class="edge"><title>Node6&#45;&gt;Node7</title>
<path fill="none" stroke="midnightblue" d="M267.055,-313.543C314.474,-317.19 401.271,-323.867 448.423,-327.494"/>
<polygon fill="midnightblue" stroke="midnightblue" points="448.168,-330.985 458.407,-328.262 448.705,-324.005 448.168,-330.985"/>
</g>
<!-- Node6&#45;&gt;Node8 -->
<g id="edge8" class="edge"><title>Node6&#45;&gt;Node8</title>
<path fill="none" stroke="midnightblue" d="M266.047,-320.589C282.141,-325.404 301.841,-331.299 319.117,-336.468"/>
<polygon fill="midnightblue" stroke="midnightblue" points="318.379,-339.901 328.963,-339.414 320.386,-333.194 318.379,-339.901"/>
</g>
<!-- Node8&#45;&gt;Node5 -->
<g id="edge9" class="edge"><title>Node8&#45;&gt;Node5</title>
<path fill="none" stroke="midnightblue" d="M395.122,-357.201C401.545,-359.892 407.882,-363.414 413,-368 447.953,-399.321 467.47,-452.827 475.908,-481.497"/>
<polygon fill="midnightblue" stroke="midnightblue" points="472.637,-482.798 478.693,-491.492 479.381,-480.919 472.637,-482.798"/>
</g>
<!-- Node8&#45;&gt;Node7 -->
<g id="edge10" class="edge"><title>Node8&#45;&gt;Node7</title>
<path fill="none" stroke="midnightblue" d="M395.244,-343.808C411.589,-341.176 431.41,-337.985 447.877,-335.333"/>
<polygon fill="midnightblue" stroke="midnightblue" points="448.827,-338.726 458.144,-333.68 447.714,-331.815 448.827,-338.726"/>
</g>
<!-- Node10 -->
<g id="node10" class="node"><title>Node10</title>
<g id="a_node10"><a xlink:href="../../d4/db0/scanargs_8c.html#a862219039664df6eb3cfced58addf830" target="_top" xlink:title="_do_scanargs">
<polygon fill="white" stroke="black" points="191,-149.5 191,-168.5 275,-168.5 275,-149.5 191,-149.5"/>
<text text-anchor="middle" x="233" y="-156.5" font-family="Helvetica,sans-Serif" font-size="10.00">_do_scanargs</text>
</a>
</g>
</g>
<!-- Node9&#45;&gt;Node10 -->
<g id="edge12" class="edge"><title>Node9&#45;&gt;Node10</title>
<path fill="none" stroke="midnightblue" d="M145.272,-166.477C156.073,-165.545 168.654,-164.461 180.827,-163.411"/>
<polygon fill="midnightblue" stroke="midnightblue" points="181.246,-166.888 190.909,-162.542 180.645,-159.914 181.246,-166.888"/>
</g>
<!-- Node12 -->
<g id="node12" class="node"><title>Node12</title>
<g id="a_node12"><a xlink:href="../../de/d4e/rle__open__f_8c.html#a5a0e62a00f907fce26e93b2f72adb2b0" target="_top" xlink:title="rle_open_f_noexit">
<polygon fill="white" stroke="black" points="311,-567.5 311,-586.5 413,-586.5 413,-567.5 311,-567.5"/>
<text text-anchor="middle" x="362" y="-574.5" font-family="Helvetica,sans-Serif" font-size="10.00">rle_open_f_noexit</text>
</a>
</g>
</g>
<!-- Node11&#45;&gt;Node12 -->
<g id="edge14" class="edge"><title>Node11&#45;&gt;Node12</title>
<path fill="none" stroke="midnightblue" d="M149.227,-498.595C182.756,-497.583 235.131,-499.964 275,-520 295.787,-530.446 291.64,-545.099 311,-558 313.869,-559.912 316.957,-561.669 320.141,-563.275"/>
<polygon fill="midnightblue" stroke="midnightblue" points="318.71,-566.469 329.264,-567.409 321.6,-560.094 318.71,-566.469"/>
</g>
<!-- Node12&#45;&gt;Node5 -->
<g id="edge17" class="edge"><title>Node12&#45;&gt;Node5</title>
<path fill="none" stroke="midnightblue" d="M393.104,-567.428C399.851,-564.777 406.832,-561.617 413,-558 432.147,-546.771 451.284,-530.124 464.355,-517.716"/>
<polygon fill="midnightblue" stroke="midnightblue" points="466.921,-520.103 471.656,-510.625 462.044,-515.082 466.921,-520.103"/>
</g>
<!-- Node12&#45;&gt;Node7 -->
<g id="edge16" class="edge"><title>Node12&#45;&gt;Node7</title>
<path fill="none" stroke="midnightblue" d="M400.136,-567.435C404.919,-564.97 409.397,-561.877 413,-558 441.825,-526.981 468.096,-399.401 477.414,-349.827"/>
<polygon fill="midnightblue" stroke="midnightblue" points="480.902,-350.214 479.277,-339.745 474.019,-348.943 480.902,-350.214"/>
</g>
<!-- Node13 -->
<g id="node13" class="node"><title>Node13</title>
<g id="a_node13"><a xlink:href="../../de/d4e/rle__open__f_8c.html#a84fda810ae9b9bde82a6391d0b264ead" target="_top" xlink:title="my_popen">
<polygon fill="white" stroke="black" points="449,-567.5 449,-586.5 515,-586.5 515,-567.5 449,-567.5"/>
<text text-anchor="middle" x="482" y="-574.5" font-family="Helvetica,sans-Serif" font-size="10.00">my_popen</text>
</a>
</g>
</g>
<!-- Node12&#45;&gt;Node13 -->
<g id="edge15" class="edge"><title>Node12&#45;&gt;Node13</title>
<path fill="none" stroke="midnightblue" d="M413.043,-577C421.523,-577 430.255,-577 438.518,-577"/>
<polygon fill="midnightblue" stroke="midnightblue" points="438.678,-580.5 448.678,-577 438.678,-573.5 438.678,-580.5"/>
</g>
<!-- Node14&#45;&gt;Node4 -->
<g id="edge20" class="edge"><title>Node14&#45;&gt;Node4</title>
<path fill="none" stroke="midnightblue" d="M266.047,-453.411C282.141,-448.596 301.841,-442.701 319.117,-437.532"/>
<polygon fill="midnightblue" stroke="midnightblue" points="320.386,-440.806 328.963,-434.586 318.379,-434.099 320.386,-440.806"/>
</g>
<!-- Node14&#45;&gt;Node5 -->
<g id="edge23" class="edge"><title>Node14&#45;&gt;Node5</title>
<path fill="none" stroke="midnightblue" d="M273.516,-470.495C285.536,-472.691 298.794,-475.03 311,-477 361.449,-485.144 420.572,-493.144 454.125,-497.54"/>
<polygon fill="midnightblue" stroke="midnightblue" points="453.708,-501.015 464.076,-498.837 454.612,-494.074 453.708,-501.015"/>
</g>
<!-- Node14&#45;&gt;Node7 -->
<g id="edge22" class="edge"><title>Node14&#45;&gt;Node7</title>
<path fill="none" stroke="midnightblue" d="M273.597,-468.421C312.235,-471.629 371.149,-470.787 413,-444 447.46,-421.944 466.828,-375.651 475.464,-349.346"/>
<polygon fill="midnightblue" stroke="midnightblue" points="478.828,-350.315 478.433,-339.727 472.139,-348.25 478.828,-350.315"/>
</g>
<!-- Node14&#45;&gt;Node8 -->
<g id="edge21" class="edge"><title>Node14&#45;&gt;Node8</title>
<path fill="none" stroke="midnightblue" d="M239.49,-453.231C250.618,-434.252 277.633,-392.145 311,-368 313.671,-366.067 316.562,-364.305 319.562,-362.704"/>
<polygon fill="midnightblue" stroke="midnightblue" points="321.214,-365.795 328.773,-358.371 318.234,-359.461 321.214,-365.795"/>
</g>
<!-- Node15 -->
<g id="node15" class="node"><title>Node15</title>
<g id="a_node15"><a xlink:href="../../db/d53/rle__getrow_8c.html#a0ea68aa2ebeef9d4cade7282553b03d6" target="_top" xlink:title="vax_gshort">
<polygon fill="white" stroke="black" points="327.5,-529.5 327.5,-548.5 396.5,-548.5 396.5,-529.5 327.5,-529.5"/>
<text text-anchor="middle" x="362" y="-536.5" font-family="Helvetica,sans-Serif" font-size="10.00">vax_gshort</text>
</a>
</g>
</g>
<!-- Node14&#45;&gt;Node15 -->
<g id="edge24" class="edge"><title>Node14&#45;&gt;Node15</title>
<path fill="none" stroke="midnightblue" d="M251.466,-472.55C258.862,-476.766 267.488,-481.912 275,-487 291.783,-498.367 293.765,-504.331 311,-515 316.695,-518.525 322.987,-521.907 329.131,-524.963"/>
<polygon fill="midnightblue" stroke="midnightblue" points="328.025,-528.313 338.557,-529.47 331.045,-521.998 328.025,-528.313"/>
</g>
<!-- Node16&#45;&gt;Node7 -->
<g id="edge29" class="edge"><title>Node16&#45;&gt;Node7</title>
<path fill="none" stroke="midnightblue" d="M267.618,-206.58C312.309,-219.664 388.499,-243.289 413,-259 435.306,-273.304 455.566,-296.371 468.058,-312.311"/>
<polygon fill="midnightblue" stroke="midnightblue" points="465.321,-314.495 474.162,-320.333 470.892,-310.256 465.321,-314.495"/>
</g>
<!-- Node17 -->
<g id="node17" class="node"><title>Node17</title>
<g id="a_node17"><a xlink:href="../../db/db2/rle__getcom_8c.html#a9cefd612c381bf82c9cdf1f3a3b12dd6" target="_top" xlink:title="rle_getcom">
<polygon fill="white" stroke="black" points="327.5,-149.5 327.5,-168.5 396.5,-168.5 396.5,-149.5 327.5,-149.5"/>
<text text-anchor="middle" x="362" y="-156.5" font-family="Helvetica,sans-Serif" font-size="10.00">rle_getcom</text>
</a>
</g>
</g>
<!-- Node16&#45;&gt;Node17 -->
<g id="edge27" class="edge"><title>Node16&#45;&gt;Node17</title>
<path fill="none" stroke="midnightblue" d="M266.047,-187.411C282.141,-182.596 301.841,-176.701 319.117,-171.532"/>
<polygon fill="midnightblue" stroke="midnightblue" points="320.386,-174.806 328.963,-168.586 318.379,-168.099 320.386,-174.806"/>
</g>
<!-- Node19 -->
<g id="node19" class="node"><title>Node19</title>
<g id="a_node19"><a xlink:href="../../df/da5/rle__putcom_8c.html#a6fa8528c32d14763efe2a534e409e321" target="_top" xlink:title="rle_putcom">
<polygon fill="white" stroke="black" points="328,-187.5 328,-206.5 396,-206.5 396,-187.5 328,-187.5"/>
<text text-anchor="middle" x="362" y="-194.5" font-family="Helvetica,sans-Serif" font-size="10.00">rle_putcom</text>
</a>
</g>
</g>
<!-- Node16&#45;&gt;Node19 -->
<g id="edge30" class="edge"><title>Node16&#45;&gt;Node19</title>
<path fill="none" stroke="midnightblue" d="M267.7,-197C282.891,-197 301.024,-197 317.248,-197"/>
<polygon fill="midnightblue" stroke="midnightblue" points="317.583,-200.5 327.583,-197 317.583,-193.5 317.583,-200.5"/>
</g>
<!-- Node18 -->
<g id="node18" class="node"><title>Node18</title>
<g id="a_node18"><a xlink:href="../../db/db2/rle__getcom_8c.html#a7502c8b599724ce86fee5df1311a2337" target="_top" xlink:title="match">
<polygon fill="white" stroke="black" points="459.5,-149.5 459.5,-168.5 504.5,-168.5 504.5,-149.5 459.5,-149.5"/>
<text text-anchor="middle" x="482" y="-156.5" font-family="Helvetica,sans-Serif" font-size="10.00">match</text>
</a>
</g>
</g>
<!-- Node17&#45;&gt;Node18 -->
<g id="edge28" class="edge"><title>Node17&#45;&gt;Node18</title>
<path fill="none" stroke="midnightblue" d="M396.814,-159C413.35,-159 433.136,-159 449.37,-159"/>
<polygon fill="midnightblue" stroke="midnightblue" points="449.456,-162.5 459.456,-159 449.456,-155.5 449.456,-162.5"/>
</g>
<!-- Node19&#45;&gt;Node7 -->
<g id="edge31" class="edge"><title>Node19&#45;&gt;Node7</title>
<path fill="none" stroke="midnightblue" d="M389.885,-206.534C397.906,-210.226 406.329,-215.027 413,-221 441.659,-246.662 462.568,-287.222 473.16,-310.958"/>
<polygon fill="midnightblue" stroke="midnightblue" points="470.007,-312.486 477.177,-320.287 476.437,-309.718 470.007,-312.486"/>
</g>
<!-- Node20 -->
<g id="node20" class="node"><title>Node20</title>
<g id="a_node20"><a xlink:href="../../df/da5/rle__putcom_8c.html#a7502c8b599724ce86fee5df1311a2337" target="_top" xlink:title="match">
<polygon fill="white" stroke="black" points="459.5,-187.5 459.5,-206.5 504.5,-206.5 504.5,-187.5 459.5,-187.5"/>
<text text-anchor="middle" x="482" y="-194.5" font-family="Helvetica,sans-Serif" font-size="10.00">match</text>
</a>
</g>
</g>
<!-- Node19&#45;&gt;Node20 -->
<g id="edge32" class="edge"><title>Node19&#45;&gt;Node20</title>
<path fill="none" stroke="midnightblue" d="M396.184,-197C412.735,-197 432.664,-197 449.044,-197"/>
<polygon fill="midnightblue" stroke="midnightblue" points="449.224,-200.5 459.224,-197 449.224,-193.5 449.224,-200.5"/>
</g>
<!-- Node22 -->
<g id="node22" class="node"><title>Node22</title>
<g id="a_node22"><a xlink:href="../../d9/d2a/rle__putrow_8c.html#a46d9789104d5d1f09253a808fdad5346" target="_top" xlink:title="rle_put_init">
<polygon fill="white" stroke="black" points="199,-111.5 199,-130.5 267,-130.5 267,-111.5 199,-111.5"/>
<text text-anchor="middle" x="233" y="-118.5" font-family="Helvetica,sans-Serif" font-size="10.00">rle_put_init</text>
</a>
</g>
</g>
<!-- Node21&#45;&gt;Node22 -->
<g id="edge34" class="edge"><title>Node21&#45;&gt;Node22</title>
<path fill="none" stroke="midnightblue" d="M155.272,-124.307C166.031,-123.843 177.753,-123.338 188.722,-122.865"/>
<polygon fill="midnightblue" stroke="midnightblue" points="189.113,-126.352 198.953,-122.424 188.812,-119.358 189.113,-126.352"/>
</g>
<!-- Node23&#45;&gt;Node5 -->
<g id="edge37" class="edge"><title>Node23&#45;&gt;Node5</title>
<path fill="none" stroke="midnightblue" d="M396.458,-396.569C402.297,-399.093 408.071,-402.203 413,-406 440.05,-426.836 460.929,-461.348 472.056,-482.541"/>
<polygon fill="midnightblue" stroke="midnightblue" points="468.953,-484.161 476.594,-491.5 475.198,-480.998 468.953,-484.161"/>
</g>
<!-- Node23&#45;&gt;Node7 -->
<g id="edge36" class="edge"><title>Node23&#45;&gt;Node7</title>
<path fill="none" stroke="midnightblue" d="M390.288,-377.457C397.745,-374.627 405.762,-371.375 413,-368 427.893,-361.055 443.967,-352.142 456.747,-344.694"/>
<polygon fill="midnightblue" stroke="midnightblue" points="458.576,-347.678 465.406,-339.578 455.016,-341.651 458.576,-347.678"/>
</g>
<!-- Node25 -->
<g id="node25" class="node"><title>Node25</title>
<g id="a_node25"><a xlink:href="../../db/d53/rle__getrow_8c.html#a61ac0da96b0dd8bc3cbc98afcd9b5c44" target="_top" xlink:title="bfill">
<polygon fill="white" stroke="black" points="217,-73.5 217,-92.5 249,-92.5 249,-73.5 217,-73.5"/>
<text text-anchor="middle" x="233" y="-80.5" font-family="Helvetica,sans-Serif" font-size="10.00">bfill</text>
</a>
</g>
</g>
<!-- Node24&#45;&gt;Node25 -->
<g id="edge39" class="edge"><title>Node24&#45;&gt;Node25</title>
<path fill="none" stroke="midnightblue" d="M148.621,-85.1563C166.981,-84.6815 189.568,-84.0974 206.6,-83.6569"/>
<polygon fill="midnightblue" stroke="midnightblue" points="206.984,-87.1482 216.89,-83.3908 206.803,-80.1506 206.984,-87.1482"/>
</g>
<!-- Node24&#45;&gt;Node26 -->
<g id="edge40" class="edge"><title>Node24&#45;&gt;Node26</title>
<path fill="none" stroke="midnightblue" d="M142.904,-76.4907C158.458,-70.9933 178.247,-63.9988 195.223,-57.9987"/>
<polygon fill="midnightblue" stroke="midnightblue" points="196.578,-61.2322 204.84,-54.5997 194.245,-54.6323 196.578,-61.2322"/>
</g>
<!-- Node27&#45;&gt;Node7 -->
<g id="edge42" class="edge"><title>Node27&#45;&gt;Node7</title>
<path fill="none" stroke="midnightblue" d="M148.308,-275.98C203.103,-281.34 317.608,-293.862 413,-313 424.693,-315.346 437.398,-318.387 448.627,-321.247"/>
<polygon fill="midnightblue" stroke="midnightblue" points="447.895,-324.673 458.454,-323.798 449.654,-317.898 447.895,-324.673"/>
</g>
<!-- Node28 -->
<g id="node28" class="node"><title>Node28</title>
<g id="a_node28"><a xlink:href="../../d9/d2a/rle__putrow_8c.html#aaa4133bf4a6cbf287444448497631f26" target="_top" xlink:title="findruns">
<polygon fill="white" stroke="black" points="206,-225.5 206,-244.5 260,-244.5 260,-225.5 206,-225.5"/>
<text text-anchor="middle" x="233" y="-232.5" font-family="Helvetica,sans-Serif" font-size="10.00">findruns</text>
</a>
</g>
</g>
<!-- Node27&#45;&gt;Node28 -->
<g id="edge43" class="edge"><title>Node27&#45;&gt;Node28</title>
<path fill="none" stroke="midnightblue" d="M145.272,-263.411C160.723,-258.349 179.814,-252.095 196.148,-246.745"/>
<polygon fill="midnightblue" stroke="midnightblue" points="197.491,-249.988 205.904,-243.549 195.311,-243.336 197.491,-249.988"/>
</g>
<!-- Node29&#45;&gt;Node5 -->
<g id="edge45" class="edge"><title>Node29&#45;&gt;Node5</title>
<path fill="none" stroke="midnightblue" d="M390.993,-643.458C398.787,-639.826 406.806,-635.061 413,-629 438.288,-604.256 432.336,-589.21 449,-558 455.945,-544.992 464.084,-530.504 470.416,-519.39"/>
<polygon fill="midnightblue" stroke="midnightblue" points="473.509,-521.031 475.439,-510.613 467.434,-517.554 473.509,-521.031"/>
</g>
<!-- Node30&#45;&gt;Node5 -->
<g id="edge48" class="edge"><title>Node30&#45;&gt;Node5</title>
<path fill="none" stroke="midnightblue" d="M252.488,-548.716C259.727,-552.802 267.965,-557.809 275,-563 292.464,-575.888 290.771,-588.131 311,-596 353.25,-612.434 372.681,-616.724 413,-596 429.085,-587.733 455.757,-544.885 470.461,-519.646"/>
<polygon fill="midnightblue" stroke="midnightblue" points="473.684,-521.062 475.632,-510.648 467.615,-517.575 473.684,-521.062"/>
</g>
</g>
</svg>
