<?xml version="1.0" encoding="UTF-8" standalone="no"?>
<!DOCTYPE svg PUBLIC "-//W3C//DTD SVG 1.1//EN"
 "http://www.w3.org/Graphics/SVG/1.1/DTD/svg11.dtd">
<!-- Generated by graphviz version 2.38.0 (20140413.2041)
 -->
<!-- Title: get/getsun.c Pages: 1 -->
<svg width="473pt" height="196pt"
 viewBox="0.00 0.00 473.19 196.00" xmlns="http://www.w3.org/2000/svg" xmlns:xlink="http://www.w3.org/1999/xlink">
<g id="graph0" class="graph" transform="scale(1 1) rotate(0) translate(4 192)">
<title>get/getsun.c</title>
<polygon fill="white" stroke="none" points="-4,4 -4,-192 469.188,-192 469.188,4 -4,4"/>
<!-- Node1 -->
<g id="node1" class="node"><title>Node1</title>
<polygon fill="#bfbfbf" stroke="black" points="121.688,-168.5 121.688,-187.5 195.688,-187.5 195.688,-168.5 121.688,-168.5"/>
<text text-anchor="middle" x="158.688" y="-175.5" font-family="Helvetica,sans-Serif" font-size="10.00">get/getsun.c</text>
</g>
<!-- Node2 -->
<g id="node2" class="node"><title>Node2</title>
<polygon fill="white" stroke="#bfbfbf" points="134.188,-56.5 134.188,-75.5 181.188,-75.5 181.188,-56.5 134.188,-56.5"/>
<text text-anchor="middle" x="157.688" y="-63.5" font-family="Helvetica,sans-Serif" font-size="10.00">stdio.h</text>
</g>
<!-- Node1&#45;&gt;Node2 -->
<g id="edge1" class="edge"><title>Node1&#45;&gt;Node2</title>
<path fill="none" stroke="midnightblue" d="M121.373,-177.63C85.4949,-175.983 32.9545,-167.17 6.68777,-132 -25.2543,-89.231 70.075,-74.2607 123.759,-69.2986"/>
<polygon fill="midnightblue" stroke="midnightblue" points="124.224,-72.7718 133.89,-68.4344 123.629,-65.7971 124.224,-72.7718"/>
</g>
<!-- Node3 -->
<g id="node3" class="node"><title>Node3</title>
<polygon fill="white" stroke="#bfbfbf" points="15.6878,-112.5 15.6878,-131.5 63.6878,-131.5 63.6878,-112.5 15.6878,-112.5"/>
<text text-anchor="middle" x="39.6878" y="-119.5" font-family="Helvetica,sans-Serif" font-size="10.00">math.h</text>
</g>
<!-- Node1&#45;&gt;Node3 -->
<g id="edge2" class="edge"><title>Node1&#45;&gt;Node3</title>
<path fill="none" stroke="midnightblue" d="M139.832,-168.444C120.422,-159.636 89.9577,-145.812 67.7232,-135.722"/>
<polygon fill="midnightblue" stroke="midnightblue" points="69.0081,-132.462 58.4555,-131.516 66.1154,-138.836 69.0081,-132.462"/>
</g>
<!-- Node4 -->
<g id="node4" class="node"><title>Node4</title>
<polygon fill="white" stroke="#bfbfbf" points="82.1878,-112.5 82.1878,-131.5 139.188,-131.5 139.188,-112.5 82.1878,-112.5"/>
<text text-anchor="middle" x="110.688" y="-119.5" font-family="Helvetica,sans-Serif" font-size="10.00">sys/file.h</text>
</g>
<!-- Node1&#45;&gt;Node4 -->
<g id="edge3" class="edge"><title>Node1&#45;&gt;Node4</title>
<path fill="none" stroke="midnightblue" d="M150.762,-168.083C143.842,-160.298 133.622,-148.801 125.236,-139.367"/>
<polygon fill="midnightblue" stroke="midnightblue" points="127.726,-136.9 118.467,-131.751 122.494,-141.55 127.726,-136.9"/>
</g>
<!-- Node5 -->
<g id="node5" class="node"><title>Node5</title>
<polygon fill="white" stroke="#bfbfbf" points="157.188,-112.5 157.188,-131.5 256.188,-131.5 256.188,-112.5 157.188,-112.5"/>
<text text-anchor="middle" x="206.688" y="-119.5" font-family="Helvetica,sans-Serif" font-size="10.00">suntool/sunview.h</text>
</g>
<!-- Node1&#45;&gt;Node5 -->
<g id="edge4" class="edge"><title>Node1&#45;&gt;Node5</title>
<path fill="none" stroke="midnightblue" d="M166.614,-168.083C173.534,-160.298 183.753,-148.801 192.14,-139.367"/>
<polygon fill="midnightblue" stroke="midnightblue" points="194.881,-141.55 198.909,-131.751 189.649,-136.9 194.881,-141.55"/>
</g>
<!-- Node6 -->
<g id="node6" class="node"><title>Node6</title>
<polygon fill="white" stroke="#bfbfbf" points="274.188,-112.5 274.188,-131.5 369.188,-131.5 369.188,-112.5 274.188,-112.5"/>
<text text-anchor="middle" x="321.688" y="-119.5" font-family="Helvetica,sans-Serif" font-size="10.00">suntool/canvas.h</text>
</g>
<!-- Node1&#45;&gt;Node6 -->
<g id="edge5" class="edge"><title>Node1&#45;&gt;Node6</title>
<path fill="none" stroke="midnightblue" d="M184.516,-168.444C211.937,-159.359 255.465,-144.939 286.12,-134.783"/>
<polygon fill="midnightblue" stroke="midnightblue" points="287.589,-137.984 295.981,-131.516 285.387,-131.339 287.589,-137.984"/>
</g>
<!-- Node7 -->
<g id="node7" class="node"><title>Node7</title>
<g id="a_node7"><a xlink:href="../../d7/d27/rle_8h.html" target="_top" xlink:title="rle.h">
<polygon fill="white" stroke="black" points="387.188,-112.5 387.188,-131.5 424.188,-131.5 424.188,-112.5 387.188,-112.5"/>
<text text-anchor="middle" x="405.688" y="-119.5" font-family="Helvetica,sans-Serif" font-size="10.00">rle.h</text>
</a>
</g>
</g>
<!-- Node1&#45;&gt;Node7 -->
<g id="edge6" class="edge"><title>Node1&#45;&gt;Node7</title>
<path fill="none" stroke="midnightblue" d="M195.782,-170.645C237.6,-163.202 307.766,-149.88 377.291,-131.86"/>
<polygon fill="midnightblue" stroke="midnightblue" points="378.311,-135.211 387.094,-129.287 376.533,-128.441 378.311,-135.211"/>
</g>
<!-- Node7&#45;&gt;Node2 -->
<g id="edge10" class="edge"><title>Node7&#45;&gt;Node2</title>
<path fill="none" stroke="midnightblue" d="M387.095,-114.711C383.971,-113.745 380.75,-112.803 377.688,-112 312.366,-94.8758 234.719,-80.3228 191.332,-72.7014"/>
<polygon fill="midnightblue" stroke="midnightblue" points="191.777,-69.2263 181.325,-70.9601 190.577,-76.1227 191.777,-69.2263"/>
</g>
<!-- Node8 -->
<g id="node8" class="node"><title>Node8</title>
<g id="a_node8"><a xlink:href="../../df/dad/rle__config_8h.html" target="_top" xlink:title="rle_config.h">
<polygon fill="white" stroke="black" points="370.188,-56.5 370.188,-75.5 441.188,-75.5 441.188,-56.5 370.188,-56.5"/>
<text text-anchor="middle" x="405.688" y="-63.5" font-family="Helvetica,sans-Serif" font-size="10.00">rle_config.h</text>
</a>
</g>
</g>
<!-- Node7&#45;&gt;Node8 -->
<g id="edge7" class="edge"><title>Node7&#45;&gt;Node8</title>
<path fill="none" stroke="midnightblue" d="M405.688,-112.083C405.688,-105.006 405.688,-94.8611 405.688,-85.9865"/>
<polygon fill="midnightblue" stroke="midnightblue" points="409.188,-85.751 405.688,-75.7511 402.188,-85.7511 409.188,-85.751"/>
</g>
<!-- Node9 -->
<g id="node9" class="node"><title>Node9</title>
<polygon fill="white" stroke="#bfbfbf" points="347.188,-0.5 347.188,-19.5 396.188,-19.5 396.188,-0.5 347.188,-0.5"/>
<text text-anchor="middle" x="371.688" y="-7.5" font-family="Helvetica,sans-Serif" font-size="10.00">stdlib.h</text>
</g>
<!-- Node8&#45;&gt;Node9 -->
<g id="edge8" class="edge"><title>Node8&#45;&gt;Node9</title>
<path fill="none" stroke="midnightblue" d="M400.073,-56.083C395.32,-48.5341 388.37,-37.4948 382.536,-28.2298"/>
<polygon fill="midnightblue" stroke="midnightblue" points="385.488,-26.3486 377.198,-19.7511 379.564,-30.0783 385.488,-26.3486"/>
</g>
<!-- Node10 -->
<g id="node10" class="node"><title>Node10</title>
<polygon fill="white" stroke="#bfbfbf" points="414.188,-0.5 414.188,-19.5 465.188,-19.5 465.188,-0.5 414.188,-0.5"/>
<text text-anchor="middle" x="439.688" y="-7.5" font-family="Helvetica,sans-Serif" font-size="10.00">string.h</text>
</g>
<!-- Node8&#45;&gt;Node10 -->
<g id="edge9" class="edge"><title>Node8&#45;&gt;Node10</title>
<path fill="none" stroke="midnightblue" d="M411.302,-56.083C416.055,-48.5341 423.006,-37.4948 428.839,-28.2298"/>
<polygon fill="midnightblue" stroke="midnightblue" points="431.811,-30.0783 434.178,-19.7511 425.888,-26.3486 431.811,-30.0783"/>
</g>
</g>
</svg>
