<?xml version="1.0" encoding="UTF-8" standalone="no"?>
<!DOCTYPE svg PUBLIC "-//W3C//DTD SVG 1.1//EN"
 "http://www.w3.org/Graphics/SVG/1.1/DTD/svg11.dtd">
<!-- Generated by graphviz version 2.38.0 (20140413.2041)
 -->
<!-- Title: main Pages: 1 -->
<!--zoomable 446 -->
<svg id="main" version="1.1" xmlns="http://www.w3.org/2000/svg" xmlns:xlink="http://www.w3.org/1999/xlink" xml:space="preserve" onload="init(evt)">
<style type="text/css"><![CDATA[
.edge:hover path { stroke: red; }
.edge:hover polygon { stroke: red; fill: red; }
]]></style>
<script type="text/javascript"><![CDATA[
var edges = document.getElementsByTagName('g');
if (edges && edges.length) {
  for (var i=0;i<edges.length;i++) {
    if (edges[i].id.substr(0,4)=='edge') {
      edges[i].setAttribute('class','edge');
    }
  }
}
]]></script>
        <defs>
                <circle id="rim" cx="0" cy="0" r="7"/>
                <circle id="rim2" cx="0" cy="0" r="3.5"/>
                <g id="zoomPlus">
                        <use xlink:href="#rim" fill="#404040">
                                <set attributeName="fill" to="#808080" begin="zoomplus.mouseover" end="zoomplus.mouseout"/>
                        </use>
                        <path d="M-4,0h8M0,-4v8" fill="none" stroke="white" stroke-width="1.5" pointer-events="none"/>
                </g>
                <g id="zoomMin">
                        <use xlink:href="#rim" fill="#404040">
                                <set attributeName="fill" to="#808080" begin="zoomminus.mouseover" end="zoomminus.mouseout"/>
                        </use>
                        <path d="M-4,0h8" fill="none" stroke="white" stroke-width="1.5" pointer-events="none"/>
                </g>
                <g id="dirArrow">
                        <path fill="none" stroke="white" stroke-width="1.5" d="M0,-3.0v7 M-2.5,-0.5L0,-3.0L2.5,-0.5"/>
                </g>
               <g id="resetDef">
                       <use xlink:href="#rim2" fill="#404040">
                               <set attributeName="fill" to="#808080" begin="reset.mouseover" end="reset.mouseout"/>
                       </use>
               </g>
        </defs>

<script type="text/javascript">
var viewWidth = 513;
var viewHeight = 446;
var sectionId = 'dynsection-5';
</script>
<script xlink:href="../../svgpan.js"/>
<svg id="graph" class="graph">
<g id="viewport">
<title>main</title>
<polygon fill="white" stroke="none" points="-4,4 -4,-442.032 509,-442.032 509,4 -4,4"/>
<!-- Node1 -->
<g id="node1" class="node"><title>Node1</title>
<polygon fill="#bfbfbf" stroke="black" points="0,-190.5 0,-209.5 39,-209.5 39,-190.5 0,-190.5"/>
<text text-anchor="middle" x="19.5" y="-197.5" font-family="Helvetica,sans-Serif" font-size="10.00">main</text>
</g>
<!-- Node2 -->
<g id="node2" class="node"><title>Node2</title>
<g id="a_node2"><a xlink:href="../../d2/df3/rle__hdr_8c.html#a8ba0e5b11d1e39ab7227f1686e676c86" target="_top" xlink:title="rle_hdr_init">
<polygon fill="white" stroke="black" points="75,-361.5 75,-380.5 145,-380.5 145,-361.5 75,-361.5"/>
<text text-anchor="middle" x="110" y="-368.5" font-family="Helvetica,sans-Serif" font-size="10.00">rle_hdr_init</text>
</a>
</g>
</g>
<!-- Node1&#45;&gt;Node2 -->
<g id="edge1" class="edge"><title>Node1&#45;&gt;Node2</title>
<path fill="none" stroke="midnightblue" d="M23.6426,-209.733C30.9467,-231.703 50.3392,-286.464 75,-328 80.2382,-336.823 87.0946,-345.841 93.2772,-353.325"/>
<polygon fill="midnightblue" stroke="midnightblue" points="90.9331,-355.969 100.088,-361.302 96.2567,-351.424 90.9331,-355.969"/>
</g>
<!-- Node6 -->
<g id="node6" class="node"><title>Node6</title>
<g id="a_node6"><a xlink:href="../../d0/dcc/rletorla_8c.html#ab7e36af3707843f77cc5b4e831c2fa6d" target="_top" xlink:title="malloc">
<polygon fill="white" stroke="black" points="448.5,-361.5 448.5,-380.5 495.5,-380.5 495.5,-361.5 448.5,-361.5"/>
<text text-anchor="middle" x="472" y="-368.5" font-family="Helvetica,sans-Serif" font-size="10.00">malloc</text>
</a>
</g>
</g>
<!-- Node1&#45;&gt;Node6 -->
<g id="edge22" class="edge"><title>Node1&#45;&gt;Node6</title>
<path fill="none" stroke="midnightblue" d="M20.0181,-209.69C19.0308,-241.081 20.4931,-340.786 75,-390 179.171,-484.054 368.633,-416.222 441.424,-384.723"/>
<polygon fill="midnightblue" stroke="midnightblue" points="443.165,-387.78 450.9,-380.54 440.338,-381.376 443.165,-387.78"/>
</g>
<!-- Node7 -->
<g id="node7" class="node"><title>Node7</title>
<g id="a_node7"><a xlink:href="../../d2/df3/rle__hdr_8c.html#a82e79385f2d45cc3b80ce0f4f369eae5" target="_top" xlink:title="rle_names">
<polygon fill="white" stroke="black" points="319,-342.5 319,-361.5 385,-361.5 385,-342.5 319,-342.5"/>
<text text-anchor="middle" x="352" y="-349.5" font-family="Helvetica,sans-Serif" font-size="10.00">rle_names</text>
</a>
</g>
</g>
<!-- Node1&#45;&gt;Node7 -->
<g id="edge12" class="edge"><title>Node1&#45;&gt;Node7</title>
<path fill="none" stroke="midnightblue" d="M26.3188,-209.561C35.1679,-223.322 53.2936,-248.63 75,-263 148.904,-311.925 251.682,-335.649 308.674,-345.695"/>
<polygon fill="midnightblue" stroke="midnightblue" points="308.32,-349.185 318.766,-347.415 309.496,-342.285 308.32,-349.185"/>
</g>
<!-- Node8 -->
<g id="node8" class="node"><title>Node8</title>
<g id="a_node8"><a xlink:href="../../d4/db0/scanargs_8c.html#a7ea6d702c0484056c8504d6ce7fede08" target="_top" xlink:title="scanargs">
<polygon fill="white" stroke="black" points="80,-190.5 80,-209.5 140,-209.5 140,-190.5 80,-190.5"/>
<text text-anchor="middle" x="110" y="-197.5" font-family="Helvetica,sans-Serif" font-size="10.00">scanargs</text>
</a>
</g>
</g>
<!-- Node1&#45;&gt;Node8 -->
<g id="edge10" class="edge"><title>Node1&#45;&gt;Node8</title>
<path fill="none" stroke="midnightblue" d="M39.2686,-200C48.0972,-200 58.9786,-200 69.498,-200"/>
<polygon fill="midnightblue" stroke="midnightblue" points="69.8072,-203.5 79.8072,-200 69.8072,-196.5 69.8072,-203.5"/>
</g>
<!-- Node10 -->
<g id="node10" class="node"><title>Node10</title>
<g id="a_node10"><a xlink:href="../../d8/d30/cmd__name_8c.html#a271249070fdd12c176777c77d76f888f" target="_top" xlink:title="cmd_name">
<polygon fill="white" stroke="black" points="76,-152.5 76,-171.5 144,-171.5 144,-152.5 76,-152.5"/>
<text text-anchor="middle" x="110" y="-159.5" font-family="Helvetica,sans-Serif" font-size="10.00">cmd_name</text>
</a>
</g>
</g>
<!-- Node1&#45;&gt;Node10 -->
<g id="edge13" class="edge"><title>Node1&#45;&gt;Node10</title>
<path fill="none" stroke="midnightblue" d="M39.2686,-191.941C50.3471,-187.184 64.6582,-181.039 77.43,-175.555"/>
<polygon fill="midnightblue" stroke="midnightblue" points="79.0098,-178.686 86.8176,-171.525 76.2479,-172.254 79.0098,-178.686"/>
</g>
<!-- Node11 -->
<g id="node11" class="node"><title>Node11</title>
<g id="a_node11"><a xlink:href="../../de/d4e/rle__open__f_8c.html#a89733a45961817885603ae01210290b7" target="_top" xlink:title="rle_open_f">
<polygon fill="white" stroke="black" points="189,-228.5 189,-247.5 257,-247.5 257,-228.5 189,-228.5"/>
<text text-anchor="middle" x="223" y="-235.5" font-family="Helvetica,sans-Serif" font-size="10.00">rle_open_f</text>
</a>
</g>
</g>
<!-- Node1&#45;&gt;Node11 -->
<g id="edge14" class="edge"><title>Node1&#45;&gt;Node11</title>
<path fill="none" stroke="midnightblue" d="M39.382,-207.667C49.7431,-211.596 62.9077,-216.143 75,-219 109.5,-227.15 149.436,-232.031 178.969,-234.801"/>
<polygon fill="midnightblue" stroke="midnightblue" points="178.682,-238.289 188.955,-235.694 179.306,-231.317 178.682,-238.289"/>
</g>
<!-- Node14 -->
<g id="node14" class="node"><title>Node14</title>
<g id="a_node14"><a xlink:href="../../dc/d7b/aliastorle_8c.html#a9f2617d760ec139a329c0f5363f42b16" target="_top" xlink:title="read_alias">
<polygon fill="white" stroke="black" points="77,-114.5 77,-133.5 143,-133.5 143,-114.5 77,-114.5"/>
<text text-anchor="middle" x="110" y="-121.5" font-family="Helvetica,sans-Serif" font-size="10.00">read_alias</text>
</a>
</g>
</g>
<!-- Node1&#45;&gt;Node14 -->
<g id="edge19" class="edge"><title>Node1&#45;&gt;Node14</title>
<path fill="none" stroke="midnightblue" d="M28.2377,-190.272C38.1769,-178.19 56.3777,-157.414 75,-143 76.7813,-141.621 78.6747,-140.28 80.6209,-138.989"/>
<polygon fill="midnightblue" stroke="midnightblue" points="82.5882,-141.889 89.3074,-133.697 78.9463,-135.911 82.5882,-141.889"/>
</g>
<!-- Node15 -->
<g id="node15" class="node"><title>Node15</title>
<g id="a_node15"><a xlink:href="../../de/d4e/rle__open__f_8c.html#a4dea203fb8b9eb66db470a1eb5084b51" target="_top" xlink:title="rle_close_f">
<polygon fill="white" stroke="black" points="76,-76.5 76,-95.5 144,-95.5 144,-76.5 76,-76.5"/>
<text text-anchor="middle" x="110" y="-83.5" font-family="Helvetica,sans-Serif" font-size="10.00">rle_close_f</text>
</a>
</g>
</g>
<!-- Node1&#45;&gt;Node15 -->
<g id="edge20" class="edge"><title>Node1&#45;&gt;Node15</title>
<path fill="none" stroke="midnightblue" d="M24.0363,-190.26C31.18,-171.695 48.9052,-130.803 75,-105 76.2561,-103.758 77.61,-102.571 79.0285,-101.442"/>
<polygon fill="midnightblue" stroke="midnightblue" points="81.3167,-104.12 87.6303,-95.6114 77.389,-98.3253 81.3167,-104.12"/>
</g>
<!-- Node16 -->
<g id="node16" class="node"><title>Node16</title>
<g id="a_node16"><a xlink:href="../../dc/d7b/aliastorle_8c.html#af2db8746e4167f3497ffcda5cf84f210" target="_top" xlink:title="write_rle">
<polygon fill="white" stroke="black" points="81.5,-38.5 81.5,-57.5 138.5,-57.5 138.5,-38.5 81.5,-38.5"/>
<text text-anchor="middle" x="110" y="-45.5" font-family="Helvetica,sans-Serif" font-size="10.00">write_rle</text>
</a>
</g>
</g>
<!-- Node1&#45;&gt;Node16 -->
<g id="edge21" class="edge"><title>Node1&#45;&gt;Node16</title>
<path fill="none" stroke="midnightblue" d="M22.1537,-190.483C26.6772,-166.935 41.2407,-105.101 75,-67 76.009,-65.8613 77.1032,-64.7759 78.26,-63.7434"/>
<polygon fill="midnightblue" stroke="midnightblue" points="80.5432,-66.4102 86.5594,-57.6892 76.4178,-60.7549 80.5432,-66.4102"/>
</g>
<!-- Node17 -->
<g id="node17" class="node"><title>Node17</title>
<g id="a_node17"><a xlink:href="../../df/dfb/unslice_8c.html#a2a14c4a1e92129bef253b1278401c6ed" target="_top" xlink:title="do_slice">
<polygon fill="white" stroke="black" points="82,-0.5 82,-19.5 138,-19.5 138,-0.5 82,-0.5"/>
<text text-anchor="middle" x="110" y="-7.5" font-family="Helvetica,sans-Serif" font-size="10.00">do_slice</text>
</a>
</g>
</g>
<!-- Node1&#45;&gt;Node17 -->
<g id="edge23" class="edge"><title>Node1&#45;&gt;Node17</title>
<path fill="none" stroke="midnightblue" d="M21.1373,-190.329C23.4512,-162.281 33.6085,-79.6784 75,-29 75.8421,-27.9689 76.7558,-26.9841 77.725,-26.0445"/>
<polygon fill="midnightblue" stroke="midnightblue" points="80.1767,-28.5748 85.978,-19.7094 75.9143,-23.0221 80.1767,-28.5748"/>
</g>
<!-- Node18 -->
<g id="node18" class="node"><title>Node18</title>
<g id="a_node18"><a xlink:href="../../d9/d2a/rle__putrow_8c.html#af4fab734a5d227ad2ae95840f56fff3b" target="_top" xlink:title="rle_puteof">
<polygon fill="white" stroke="black" points="191,-266.5 191,-285.5 255,-285.5 255,-266.5 191,-266.5"/>
<text text-anchor="middle" x="223" y="-273.5" font-family="Helvetica,sans-Serif" font-size="10.00">rle_puteof</text>
</a>
</g>
</g>
<!-- Node1&#45;&gt;Node18 -->
<g id="edge24" class="edge"><title>Node1&#45;&gt;Node18</title>
<path fill="none" stroke="midnightblue" d="M31.8749,-209.757C42.4165,-218.336 58.8605,-230.58 75,-238 108.957,-253.611 150.391,-263.586 180.604,-269.38"/>
<polygon fill="midnightblue" stroke="midnightblue" points="180.324,-272.887 190.792,-271.257 181.592,-266.003 180.324,-272.887"/>
</g>
<!-- Node3 -->
<g id="node3" class="node"><title>Node3</title>
<g id="a_node3"><a xlink:href="../../d2/df3/rle__hdr_8c.html#a16c4da6201b3b8cf55127b9ca968d253" target="_top" xlink:title="rle_hdr_clear">
<polygon fill="white" stroke="black" points="312,-304.5 312,-323.5 392,-323.5 392,-304.5 312,-304.5"/>
<text text-anchor="middle" x="352" y="-311.5" font-family="Helvetica,sans-Serif" font-size="10.00">rle_hdr_clear</text>
</a>
</g>
</g>
<!-- Node2&#45;&gt;Node3 -->
<g id="edge2" class="edge"><title>Node2&#45;&gt;Node3</title>
<path fill="none" stroke="midnightblue" d="M145.131,-362.894C186.124,-353.158 255.191,-336.755 301.905,-325.66"/>
<polygon fill="midnightblue" stroke="midnightblue" points="302.887,-329.024 311.807,-323.308 301.269,-322.214 302.887,-329.024"/>
</g>
<!-- Node5 -->
<g id="node5" class="node"><title>Node5</title>
<g id="a_node5"><a xlink:href="../../d2/df3/rle__hdr_8c.html#afc916e29aea8788e0878ca315ff69821" target="_top" xlink:title="rle_hdr_cp">
<polygon fill="white" stroke="black" points="189,-380.5 189,-399.5 257,-399.5 257,-380.5 189,-380.5"/>
<text text-anchor="middle" x="223" y="-387.5" font-family="Helvetica,sans-Serif" font-size="10.00">rle_hdr_cp</text>
</a>
</g>
</g>
<!-- Node2&#45;&gt;Node5 -->
<g id="edge4" class="edge"><title>Node2&#45;&gt;Node5</title>
<path fill="none" stroke="midnightblue" d="M145.209,-370.568C159.118,-372.315 175.129,-375.073 188.92,-378.103"/>
<polygon fill="midnightblue" stroke="midnightblue" points="188.426,-381.582 198.962,-380.461 190.026,-374.768 188.426,-381.582"/>
</g>
<!-- Node4 -->
<g id="node4" class="node"><title>Node4</title>
<g id="a_node4"><a xlink:href="../../d0/dcc/rletorla_8c.html#aafde19f7d36ca163a143579c1b125b6d" target="_top" xlink:title="free">
<polygon fill="white" stroke="black" points="454.5,-285.5 454.5,-304.5 489.5,-304.5 489.5,-285.5 454.5,-285.5"/>
<text text-anchor="middle" x="472" y="-292.5" font-family="Helvetica,sans-Serif" font-size="10.00">free</text>
</a>
</g>
</g>
<!-- Node3&#45;&gt;Node4 -->
<g id="edge3" class="edge"><title>Node3&#45;&gt;Node4</title>
<path fill="none" stroke="midnightblue" d="M392.292,-307.673C409.397,-304.919 428.998,-301.763 444.361,-299.289"/>
<polygon fill="midnightblue" stroke="midnightblue" points="444.92,-302.744 454.236,-297.699 443.807,-295.834 444.92,-302.744"/>
</g>
<!-- Node5&#45;&gt;Node2 -->
<g id="edge5" class="edge"><title>Node5&#45;&gt;Node2</title>
<path fill="none" stroke="midnightblue" d="M188.924,-390.573C174.684,-388.826 158.076,-385.98 143.86,-382.848"/>
<polygon fill="midnightblue" stroke="midnightblue" points="144.535,-379.412 133.999,-380.53 142.932,-386.226 144.535,-379.412"/>
</g>
<!-- Node5&#45;&gt;Node6 -->
<g id="edge6" class="edge"><title>Node5&#45;&gt;Node6</title>
<path fill="none" stroke="midnightblue" d="M257.055,-387.457C304.474,-383.81 391.271,-377.133 438.423,-373.506"/>
<polygon fill="midnightblue" stroke="midnightblue" points="438.705,-376.995 448.407,-372.738 438.168,-370.015 438.705,-376.995"/>
</g>
<!-- Node5&#45;&gt;Node7 -->
<g id="edge7" class="edge"><title>Node5&#45;&gt;Node7</title>
<path fill="none" stroke="midnightblue" d="M256.047,-380.411C272.141,-375.596 291.841,-369.701 309.117,-364.532"/>
<polygon fill="midnightblue" stroke="midnightblue" points="310.386,-367.806 318.963,-361.586 308.379,-361.099 310.386,-367.806"/>
</g>
<!-- Node7&#45;&gt;Node4 -->
<g id="edge8" class="edge"><title>Node7&#45;&gt;Node4</title>
<path fill="none" stroke="midnightblue" d="M380.288,-342.457C387.745,-339.627 395.762,-336.375 403,-333 417.893,-326.055 433.967,-317.142 446.747,-309.694"/>
<polygon fill="midnightblue" stroke="midnightblue" points="448.576,-312.678 455.406,-304.578 445.016,-306.651 448.576,-312.678"/>
</g>
<!-- Node7&#45;&gt;Node6 -->
<g id="edge9" class="edge"><title>Node7&#45;&gt;Node6</title>
<path fill="none" stroke="midnightblue" d="M385.244,-357.192C401.589,-359.824 421.41,-363.015 437.877,-365.667"/>
<polygon fill="midnightblue" stroke="midnightblue" points="437.714,-369.185 448.144,-367.32 438.827,-362.274 437.714,-369.185"/>
</g>
<!-- Node9 -->
<g id="node9" class="node"><title>Node9</title>
<g id="a_node9"><a xlink:href="../../d4/db0/scanargs_8c.html#a862219039664df6eb3cfced58addf830" target="_top" xlink:title="_do_scanargs">
<polygon fill="white" stroke="black" points="181,-190.5 181,-209.5 265,-209.5 265,-190.5 181,-190.5"/>
<text text-anchor="middle" x="223" y="-197.5" font-family="Helvetica,sans-Serif" font-size="10.00">_do_scanargs</text>
</a>
</g>
</g>
<!-- Node8&#45;&gt;Node9 -->
<g id="edge11" class="edge"><title>Node8&#45;&gt;Node9</title>
<path fill="none" stroke="midnightblue" d="M140.164,-200C149.607,-200 160.375,-200 170.927,-200"/>
<polygon fill="midnightblue" stroke="midnightblue" points="170.929,-203.5 180.929,-200 170.929,-196.5 170.929,-203.5"/>
</g>
<!-- Node12 -->
<g id="node12" class="node"><title>Node12</title>
<g id="a_node12"><a xlink:href="../../de/d4e/rle__open__f_8c.html#a5a0e62a00f907fce26e93b2f72adb2b0" target="_top" xlink:title="rle_open_f_noexit">
<polygon fill="white" stroke="black" points="301,-228.5 301,-247.5 403,-247.5 403,-228.5 301,-228.5"/>
<text text-anchor="middle" x="352" y="-235.5" font-family="Helvetica,sans-Serif" font-size="10.00">rle_open_f_noexit</text>
</a>
</g>
</g>
<!-- Node11&#45;&gt;Node12 -->
<g id="edge15" class="edge"><title>Node11&#45;&gt;Node12</title>
<path fill="none" stroke="midnightblue" d="M257.036,-238C267.382,-238 279.141,-238 290.755,-238"/>
<polygon fill="midnightblue" stroke="midnightblue" points="290.885,-241.5 300.885,-238 290.885,-234.5 290.885,-241.5"/>
</g>
<!-- Node12&#45;&gt;Node4 -->
<g id="edge18" class="edge"><title>Node12&#45;&gt;Node4</title>
<path fill="none" stroke="midnightblue" d="M372.96,-247.557C382.118,-251.948 393.114,-257.229 403,-262 416.938,-268.727 432.466,-276.26 445.16,-282.428"/>
<polygon fill="midnightblue" stroke="midnightblue" points="443.719,-285.619 454.243,-286.843 446.779,-279.323 443.719,-285.619"/>
</g>
<!-- Node12&#45;&gt;Node6 -->
<g id="edge17" class="edge"><title>Node12&#45;&gt;Node6</title>
<path fill="none" stroke="midnightblue" d="M361.486,-247.565C381.206,-269.791 430.355,-325.188 455.559,-353.597"/>
<polygon fill="midnightblue" stroke="midnightblue" points="453.017,-356.005 462.272,-361.163 458.254,-351.36 453.017,-356.005"/>
</g>
<!-- Node13 -->
<g id="node13" class="node"><title>Node13</title>
<g id="a_node13"><a xlink:href="../../de/d4e/rle__open__f_8c.html#a84fda810ae9b9bde82a6391d0b264ead" target="_top" xlink:title="my_popen">
<polygon fill="white" stroke="black" points="439,-228.5 439,-247.5 505,-247.5 505,-228.5 439,-228.5"/>
<text text-anchor="middle" x="472" y="-235.5" font-family="Helvetica,sans-Serif" font-size="10.00">my_popen</text>
</a>
</g>
</g>
<!-- Node12&#45;&gt;Node13 -->
<g id="edge16" class="edge"><title>Node12&#45;&gt;Node13</title>
<path fill="none" stroke="midnightblue" d="M403.043,-238C411.523,-238 420.255,-238 428.518,-238"/>
<polygon fill="midnightblue" stroke="midnightblue" points="428.678,-241.5 438.678,-238 428.678,-234.5 428.678,-241.5"/>
</g>
<!-- Node18&#45;&gt;Node4 -->
<g id="edge25" class="edge"><title>Node18&#45;&gt;Node4</title>
<path fill="none" stroke="midnightblue" d="M255.283,-278.406C304.316,-282.178 398.406,-289.416 444.387,-292.953"/>
<polygon fill="midnightblue" stroke="midnightblue" points="444.231,-296.451 454.47,-293.728 444.768,-289.472 444.231,-296.451"/>
</g>
</g>
</svg>
        <g id="navigator" transform="translate(0 0)" fill="#404254">
                <rect fill="#f2f5e9" fill-opacity="0.5" stroke="#606060" stroke-width=".5" x="0" y="0" width="60" height="60"/>
                <use id="zoomplus" xlink:href="#zoomPlus" x="17" y="9" onmousedown="handleZoom(evt,'in')"/>
                <use id="zoomminus" xlink:href="#zoomMin" x="42" y="9" onmousedown="handleZoom(evt,'out')"/>
                <use id="reset" xlink:href="#resetDef" x="30" y="36" onmousedown="handleReset()"/>
                <g id="arrowUp" xlink:href="#dirArrow" transform="translate(30 24)" onmousedown="handlePan(0,-1)">
                  <use xlink:href="#rim" fill="#404040">
                        <set attributeName="fill" to="#808080" begin="arrowUp.mouseover" end="arrowUp.mouseout"/>
                  </use>
                  <path fill="none" stroke="white" stroke-width="1.5" d="M0,-3.0v7 M-2.5,-0.5L0,-3.0L2.5,-0.5"/>
                </g>
                <g id="arrowRight" xlink:href="#dirArrow" transform="rotate(90) translate(36 -43)" onmousedown="handlePan(1,0)">
                  <use xlink:href="#rim" fill="#404040">
                        <set attributeName="fill" to="#808080" begin="arrowRight.mouseover" end="arrowRight.mouseout"/>
                  </use>
                  <path fill="none" stroke="white" stroke-width="1.5" d="M0,-3.0v7 M-2.5,-0.5L0,-3.0L2.5,-0.5"/>
                </g>
                <g id="arrowDown" xlink:href="#dirArrow" transform="rotate(180) translate(-30 -48)" onmousedown="handlePan(0,1)">
                  <use xlink:href="#rim" fill="#404040">
                        <set attributeName="fill" to="#808080" begin="arrowDown.mouseover" end="arrowDown.mouseout"/>
                  </use>
                  <path fill="none" stroke="white" stroke-width="1.5" d="M0,-3.0v7 M-2.5,-0.5L0,-3.0L2.5,-0.5"/>
                </g>
                <g id="arrowLeft" xlink:href="#dirArrow" transform="rotate(270) translate(-36 17)" onmousedown="handlePan(-1,0)">
                  <use xlink:href="#rim" fill="#404040">
                        <set attributeName="fill" to="#808080" begin="arrowLeft.mouseover" end="arrowLeft.mouseout"/>
                  </use>
                  <path fill="none" stroke="white" stroke-width="1.5" d="M0,-3.0v7 M-2.5,-0.5L0,-3.0L2.5,-0.5"/>
                </g>
        </g>
        <svg viewBox="0 0 15 15" width="100%" height="30px" preserveAspectRatio="xMaxYMin meet">
         <g id="arrow_out" transform="scale(0.3 0.3)">
          <a xlink:href="unslice_8c_a70db8bd1d499619f7ff9c1ca2ff3c8df_cgraph_org.svg" target="_base">
           <rect id="button" ry="5" rx="5" y="6" x="6" height="38" width="38"
                fill="#f2f5e9" fill-opacity="0.5" stroke="#606060" stroke-width="1.0"/>
           <path id="arrow"
             d="M 11.500037,31.436501 C 11.940474,20.09759 22.043105,11.32322 32.158766,21.979434 L 37.068811,17.246167 C 37.068811,17.246167 37.088388,32 37.088388,32 L 22.160133,31.978069 C 22.160133,31.978069 26.997745,27.140456 26.997745,27.140456 C 18.528582,18.264221 13.291696,25.230495 11.500037,31.436501 z"
             style="fill:#404040;"/>
          </a>
         </g>
        </svg>
</svg>
