<?xml version="1.0" encoding="UTF-8" standalone="no"?>
<!DOCTYPE svg PUBLIC "-//W3C//DTD SVG 1.1//EN"
 "http://www.w3.org/Graphics/SVG/1.1/DTD/svg11.dtd">
<!-- Generated by graphviz version 2.38.0 (20140413.2041)
 -->
<!-- Title: copy_scanline Pages: 1 -->
<svg width="303pt" height="142pt"
 viewBox="0.00 0.00 303.00 142.00" xmlns="http://www.w3.org/2000/svg" xmlns:xlink="http://www.w3.org/1999/xlink">
<g id="graph0" class="graph" transform="scale(1 1) rotate(0) translate(4 138)">
<title>copy_scanline</title>
<polygon fill="white" stroke="none" points="-4,4 -4,-138 299,-138 299,4 -4,4"/>
<!-- Node1 -->
<g id="node1" class="node"><title>Node1</title>
<polygon fill="#bfbfbf" stroke="black" points="0,-57.5 0,-76.5 84,-76.5 84,-57.5 0,-57.5"/>
<text text-anchor="middle" x="42" y="-64.5" font-family="Helvetica,sans-Serif" font-size="10.00">copy_scanline</text>
</g>
<!-- Node2 -->
<g id="node2" class="node"><title>Node2</title>
<g id="a_node2"><a xlink:href="../../d9/d2a/rle__putrow_8c.html#a018d4b7d6fe20504c07c24b9bd8fc304" target="_top" xlink:title="rle_skiprow">
<polygon fill="white" stroke="black" points="120,-114.5 120,-133.5 191,-133.5 191,-114.5 120,-114.5"/>
<text text-anchor="middle" x="155.5" y="-121.5" font-family="Helvetica,sans-Serif" font-size="10.00">rle_skiprow</text>
</a>
</g>
</g>
<!-- Node1&#45;&gt;Node2 -->
<g id="edge1" class="edge"><title>Node1&#45;&gt;Node2</title>
<path fill="none" stroke="midnightblue" d="M61.6626,-76.5405C79.4309,-85.6239 106.398,-99.4096 126.697,-109.787"/>
<polygon fill="midnightblue" stroke="midnightblue" points="125.279,-112.993 135.777,-114.428 128.466,-106.76 125.279,-112.993"/>
</g>
<!-- Node3 -->
<g id="node3" class="node"><title>Node3</title>
<g id="a_node3"><a xlink:href="../../df/dce/rle__getraw_8c.html#a5ed570d65cead1b5587e84134c31e246" target="_top" xlink:title="rle_getraw">
<polygon fill="white" stroke="black" points="122,-76.5 122,-95.5 189,-95.5 189,-76.5 122,-76.5"/>
<text text-anchor="middle" x="155.5" y="-83.5" font-family="Helvetica,sans-Serif" font-size="10.00">rle_getraw</text>
</a>
</g>
</g>
<!-- Node1&#45;&gt;Node3 -->
<g id="edge2" class="edge"><title>Node1&#45;&gt;Node3</title>
<path fill="none" stroke="midnightblue" d="M84.2017,-74.0209C93.2162,-75.557 102.776,-77.1861 111.846,-78.7317"/>
<polygon fill="midnightblue" stroke="midnightblue" points="111.377,-82.2021 121.823,-80.4318 112.553,-75.3016 111.377,-82.2021"/>
</g>
<!-- Node6 -->
<g id="node6" class="node"><title>Node6</title>
<g id="a_node6"><a xlink:href="../../d6/d8c/rle__putraw_8c.html#ab36032e464af1d1505cdc69948fe9f17" target="_top" xlink:title="rle_putraw">
<polygon fill="white" stroke="black" points="122.5,-38.5 122.5,-57.5 188.5,-57.5 188.5,-38.5 122.5,-38.5"/>
<text text-anchor="middle" x="155.5" y="-45.5" font-family="Helvetica,sans-Serif" font-size="10.00">rle_putraw</text>
</a>
</g>
</g>
<!-- Node1&#45;&gt;Node6 -->
<g id="edge5" class="edge"><title>Node1&#45;&gt;Node6</title>
<path fill="none" stroke="midnightblue" d="M84.2017,-59.9791C93.3064,-58.4276 102.968,-56.7813 112.118,-55.222"/>
<polygon fill="midnightblue" stroke="midnightblue" points="112.906,-58.6383 122.176,-53.5081 111.73,-51.7378 112.906,-58.6383"/>
</g>
<!-- Node7 -->
<g id="node7" class="node"><title>Node7</title>
<g id="a_node7"><a xlink:href="../../df/dce/rle__getraw_8c.html#ad4a764bcb2dc8e45f3f57171022dbf2b" target="_top" xlink:title="rle_freeraw">
<polygon fill="white" stroke="black" points="120,-0.5 120,-19.5 191,-19.5 191,-0.5 120,-0.5"/>
<text text-anchor="middle" x="155.5" y="-7.5" font-family="Helvetica,sans-Serif" font-size="10.00">rle_freeraw</text>
</a>
</g>
</g>
<!-- Node1&#45;&gt;Node7 -->
<g id="edge6" class="edge"><title>Node1&#45;&gt;Node7</title>
<path fill="none" stroke="midnightblue" d="M61.6626,-57.4595C79.4309,-48.3761 106.398,-34.5904 126.697,-24.2133"/>
<polygon fill="midnightblue" stroke="midnightblue" points="128.466,-27.2399 135.777,-19.5716 125.279,-21.0071 128.466,-27.2399"/>
</g>
<!-- Node4 -->
<g id="node4" class="node"><title>Node4</title>
<g id="a_node4"><a xlink:href="../../d0/dcc/rletorla_8c.html#ab7e36af3707843f77cc5b4e831c2fa6d" target="_top" xlink:title="malloc">
<polygon fill="white" stroke="black" points="237.5,-95.5 237.5,-114.5 284.5,-114.5 284.5,-95.5 237.5,-95.5"/>
<text text-anchor="middle" x="261" y="-102.5" font-family="Helvetica,sans-Serif" font-size="10.00">malloc</text>
</a>
</g>
</g>
<!-- Node3&#45;&gt;Node4 -->
<g id="edge3" class="edge"><title>Node3&#45;&gt;Node4</title>
<path fill="none" stroke="midnightblue" d="M189.248,-92.0117C201.341,-94.2316 215.041,-96.7466 227.143,-98.9683"/>
<polygon fill="midnightblue" stroke="midnightblue" points="226.819,-102.467 237.286,-100.83 228.083,-95.5822 226.819,-102.467"/>
</g>
<!-- Node5 -->
<g id="node5" class="node"><title>Node5</title>
<g id="a_node5"><a xlink:href="../../d8/d7c/rle__getskip_8c.html#af6b1e1dc0867e9340f90668591c7c5b3" target="_top" xlink:title="rle_getskip">
<polygon fill="white" stroke="black" points="227,-57.5 227,-76.5 295,-76.5 295,-57.5 227,-57.5"/>
<text text-anchor="middle" x="261" y="-64.5" font-family="Helvetica,sans-Serif" font-size="10.00">rle_getskip</text>
</a>
</g>
</g>
<!-- Node3&#45;&gt;Node5 -->
<g id="edge4" class="edge"><title>Node3&#45;&gt;Node5</title>
<path fill="none" stroke="midnightblue" d="M189.248,-79.9883C197.94,-78.3927 207.462,-76.6446 216.625,-74.9626"/>
<polygon fill="midnightblue" stroke="midnightblue" points="217.55,-78.3513 226.754,-73.1032 216.286,-71.4664 217.55,-78.3513"/>
</g>
<!-- Node8 -->
<g id="node8" class="node"><title>Node8</title>
<g id="a_node8"><a xlink:href="../../d0/dcc/rletorla_8c.html#aafde19f7d36ca163a143579c1b125b6d" target="_top" xlink:title="free">
<polygon fill="white" stroke="black" points="243.5,-0.5 243.5,-19.5 278.5,-19.5 278.5,-0.5 243.5,-0.5"/>
<text text-anchor="middle" x="261" y="-7.5" font-family="Helvetica,sans-Serif" font-size="10.00">free</text>
</a>
</g>
</g>
<!-- Node7&#45;&gt;Node8 -->
<g id="edge7" class="edge"><title>Node7&#45;&gt;Node8</title>
<path fill="none" stroke="midnightblue" d="M191.252,-10C205.016,-10 220.585,-10 233.421,-10"/>
<polygon fill="midnightblue" stroke="midnightblue" points="233.462,-13.5001 243.462,-10 233.462,-6.5001 233.462,-13.5001"/>
</g>
</g>
</svg>
