<?xml version="1.0" encoding="UTF-8" standalone="no"?>
<!DOCTYPE svg PUBLIC "-//W3C//DTD SVG 1.1//EN"
 "http://www.w3.org/Graphics/SVG/1.1/DTD/svg11.dtd">
<!-- Generated by graphviz version 2.38.0 (20140413.2041)
 -->
<!-- Title: getx11.c Pages: 1 -->
<svg width="769pt" height="140pt"
 viewBox="0.00 0.00 769.00 140.00" xmlns="http://www.w3.org/2000/svg" xmlns:xlink="http://www.w3.org/1999/xlink">
<g id="graph0" class="graph" transform="scale(1 1) rotate(0) translate(4 136)">
<title>getx11.c</title>
<polygon fill="white" stroke="none" points="-4,4 -4,-136 765,-136 765,4 -4,4"/>
<!-- Node1 -->
<g id="node1" class="node"><title>Node1</title>
<polygon fill="#bfbfbf" stroke="black" points="280.5,-112.5 280.5,-131.5 336.5,-131.5 336.5,-112.5 280.5,-112.5"/>
<text text-anchor="middle" x="308.5" y="-119.5" font-family="Helvetica,sans-Serif" font-size="10.00">getx11.c</text>
</g>
<!-- Node2 -->
<g id="node2" class="node"><title>Node2</title>
<polygon fill="white" stroke="#bfbfbf" points="246,-56.5 246,-75.5 299,-75.5 299,-56.5 246,-56.5"/>
<text text-anchor="middle" x="272.5" y="-63.5" font-family="Helvetica,sans-Serif" font-size="10.00">unistd.h</text>
</g>
<!-- Node1&#45;&gt;Node2 -->
<g id="edge1" class="edge"><title>Node1&#45;&gt;Node2</title>
<path fill="none" stroke="midnightblue" d="M302.555,-112.083C297.523,-104.534 290.163,-93.4948 283.987,-84.2298"/>
<polygon fill="midnightblue" stroke="midnightblue" points="286.793,-82.1301 278.334,-75.7511 280.969,-86.0131 286.793,-82.1301"/>
</g>
<!-- Node3 -->
<g id="node3" class="node"><title>Node3</title>
<g id="a_node3"><a xlink:href="../../da/d3e/getx11_8h.html" target="_top" xlink:title="getx11.h">
<polygon fill="white" stroke="black" points="317,-56.5 317,-75.5 374,-75.5 374,-56.5 317,-56.5"/>
<text text-anchor="middle" x="345.5" y="-63.5" font-family="Helvetica,sans-Serif" font-size="10.00">getx11.h</text>
</a>
</g>
</g>
<!-- Node1&#45;&gt;Node3 -->
<g id="edge2" class="edge"><title>Node1&#45;&gt;Node3</title>
<path fill="none" stroke="midnightblue" d="M314.61,-112.083C319.782,-104.534 327.346,-93.4948 333.694,-84.2298"/>
<polygon fill="midnightblue" stroke="midnightblue" points="336.739,-85.9787 339.504,-75.7511 330.964,-82.0221 336.739,-85.9787"/>
</g>
<!-- Node4 -->
<g id="node4" class="node"><title>Node4</title>
<polygon fill="white" stroke="#bfbfbf" points="0,-0.5 0,-19.5 47,-19.5 47,-0.5 0,-0.5"/>
<text text-anchor="middle" x="23.5" y="-7.5" font-family="Helvetica,sans-Serif" font-size="10.00">stdio.h</text>
</g>
<!-- Node3&#45;&gt;Node4 -->
<g id="edge3" class="edge"><title>Node3&#45;&gt;Node4</title>
<path fill="none" stroke="midnightblue" d="M316.925,-57.9409C313.754,-57.2444 310.564,-56.5813 307.5,-56 199.914,-35.5872 168.612,-42.447 57.1612,-19.8916"/>
<polygon fill="midnightblue" stroke="midnightblue" points="57.7084,-16.4309 47.2081,-17.843 56.2972,-23.2872 57.7084,-16.4309"/>
</g>
<!-- Node5 -->
<g id="node5" class="node"><title>Node5</title>
<polygon fill="white" stroke="#bfbfbf" points="65.5,-0.5 65.5,-19.5 113.5,-19.5 113.5,-0.5 65.5,-0.5"/>
<text text-anchor="middle" x="89.5" y="-7.5" font-family="Helvetica,sans-Serif" font-size="10.00">math.h</text>
</g>
<!-- Node3&#45;&gt;Node5 -->
<g id="edge4" class="edge"><title>Node3&#45;&gt;Node5</title>
<path fill="none" stroke="midnightblue" d="M316.894,-58.0944C313.729,-57.3691 310.549,-56.6574 307.5,-56 228.656,-38.9992 205.756,-39.0071 123.392,-20.0696"/>
<polygon fill="midnightblue" stroke="midnightblue" points="124.131,-16.648 113.598,-17.7936 122.546,-23.4663 124.131,-16.648"/>
</g>
<!-- Node6 -->
<g id="node6" class="node"><title>Node6</title>
<polygon fill="white" stroke="#bfbfbf" points="131.5,-0.5 131.5,-19.5 181.5,-19.5 181.5,-0.5 131.5,-0.5"/>
<text text-anchor="middle" x="156.5" y="-7.5" font-family="Helvetica,sans-Serif" font-size="10.00">ctype.h</text>
</g>
<!-- Node3&#45;&gt;Node6 -->
<g id="edge5" class="edge"><title>Node3&#45;&gt;Node6</title>
<path fill="none" stroke="midnightblue" d="M316.795,-56.7986C283.097,-47.1706 227.241,-31.2116 191.159,-20.9026"/>
<polygon fill="midnightblue" stroke="midnightblue" points="192.118,-17.5366 181.541,-18.1547 190.195,-24.2673 192.118,-17.5366"/>
</g>
<!-- Node7 -->
<g id="node7" class="node"><title>Node7</title>
<polygon fill="white" stroke="#bfbfbf" points="200,-0.5 200,-19.5 253,-19.5 253,-0.5 200,-0.5"/>
<text text-anchor="middle" x="226.5" y="-7.5" font-family="Helvetica,sans-Serif" font-size="10.00">X11/X.h</text>
</g>
<!-- Node3&#45;&gt;Node7 -->
<g id="edge6" class="edge"><title>Node3&#45;&gt;Node7</title>
<path fill="none" stroke="midnightblue" d="M326.644,-56.4435C307.234,-47.6356 276.77,-33.8116 254.535,-23.722"/>
<polygon fill="midnightblue" stroke="midnightblue" points="255.82,-20.4615 245.268,-19.5164 252.928,-26.836 255.82,-20.4615"/>
</g>
<!-- Node8 -->
<g id="node8" class="node"><title>Node8</title>
<polygon fill="white" stroke="#bfbfbf" points="271,-0.5 271,-19.5 334,-19.5 334,-0.5 271,-0.5"/>
<text text-anchor="middle" x="302.5" y="-7.5" font-family="Helvetica,sans-Serif" font-size="10.00">X11/Xlib.h</text>
</g>
<!-- Node3&#45;&gt;Node8 -->
<g id="edge7" class="edge"><title>Node3&#45;&gt;Node8</title>
<path fill="none" stroke="midnightblue" d="M338.399,-56.083C332.263,-48.3768 323.23,-37.0333 315.761,-27.6531"/>
<polygon fill="midnightblue" stroke="midnightblue" points="318.436,-25.3936 309.468,-19.7511 312.96,-29.7542 318.436,-25.3936"/>
</g>
<!-- Node9 -->
<g id="node9" class="node"><title>Node9</title>
<polygon fill="white" stroke="#bfbfbf" points="352.5,-0.5 352.5,-19.5 426.5,-19.5 426.5,-0.5 352.5,-0.5"/>
<text text-anchor="middle" x="389.5" y="-7.5" font-family="Helvetica,sans-Serif" font-size="10.00">X11/Xlibint.h</text>
</g>
<!-- Node3&#45;&gt;Node9 -->
<g id="edge8" class="edge"><title>Node3&#45;&gt;Node9</title>
<path fill="none" stroke="midnightblue" d="M352.766,-56.083C359.045,-48.3768 368.288,-37.0333 375.931,-27.6531"/>
<polygon fill="midnightblue" stroke="midnightblue" points="378.766,-29.7143 382.369,-19.7511 373.339,-25.2926 378.766,-29.7143"/>
</g>
<!-- Node10 -->
<g id="node10" class="node"><title>Node10</title>
<polygon fill="white" stroke="#bfbfbf" points="444.5,-0.5 444.5,-19.5 510.5,-19.5 510.5,-0.5 444.5,-0.5"/>
<text text-anchor="middle" x="477.5" y="-7.5" font-family="Helvetica,sans-Serif" font-size="10.00">X11/Xutil.h</text>
</g>
<!-- Node3&#45;&gt;Node10 -->
<g id="edge9" class="edge"><title>Node3&#45;&gt;Node10</title>
<path fill="none" stroke="midnightblue" d="M366.416,-56.4435C388.236,-47.5171 422.65,-33.4387 447.392,-23.3168"/>
<polygon fill="midnightblue" stroke="midnightblue" points="448.752,-26.5422 456.682,-19.5164 446.101,-20.0634 448.752,-26.5422"/>
</g>
<!-- Node11 -->
<g id="node11" class="node"><title>Node11</title>
<polygon fill="white" stroke="#bfbfbf" points="528.5,-0.5 528.5,-19.5 622.5,-19.5 622.5,-0.5 528.5,-0.5"/>
<text text-anchor="middle" x="575.5" y="-7.5" font-family="Helvetica,sans-Serif" font-size="10.00">X11/cursorfont.h</text>
</g>
<!-- Node3&#45;&gt;Node11 -->
<g id="edge10" class="edge"><title>Node3&#45;&gt;Node11</title>
<path fill="none" stroke="midnightblue" d="M374.165,-58.27C413.094,-49.13 483.13,-32.6869 529.471,-21.8069"/>
<polygon fill="midnightblue" stroke="midnightblue" points="530.332,-25.2 539.267,-19.5069 528.732,-18.3853 530.332,-25.2"/>
</g>
<!-- Node12 -->
<g id="node12" class="node"><title>Node12</title>
<polygon fill="white" stroke="#bfbfbf" points="641,-0.5 641,-19.5 678,-19.5 678,-0.5 641,-0.5"/>
<text text-anchor="middle" x="659.5" y="-7.5" font-family="Helvetica,sans-Serif" font-size="10.00">rle.h</text>
</g>
<!-- Node3&#45;&gt;Node12 -->
<g id="edge11" class="edge"><title>Node3&#45;&gt;Node12</title>
<path fill="none" stroke="midnightblue" d="M374.201,-61.976C424.382,-56.37 531.401,-42.9993 631.013,-19.764"/>
<polygon fill="midnightblue" stroke="midnightblue" points="632.015,-23.1235 640.938,-17.4099 630.4,-16.3125 632.015,-23.1235"/>
</g>
<!-- Node13 -->
<g id="node13" class="node"><title>Node13</title>
<g id="a_node13"><a xlink:href="../../d7/dd0/fn__decls_8h.html" target="_top" xlink:title="fn_decls.h">
<polygon fill="white" stroke="black" points="696,-0.5 696,-19.5 761,-19.5 761,-0.5 696,-0.5"/>
<text text-anchor="middle" x="728.5" y="-7.5" font-family="Helvetica,sans-Serif" font-size="10.00">fn_decls.h</text>
</a>
</g>
</g>
<!-- Node3&#45;&gt;Node13 -->
<g id="edge12" class="edge"><title>Node3&#45;&gt;Node13</title>
<path fill="none" stroke="midnightblue" d="M374.001,-62.0814C431.222,-56.0438 564.339,-41.105 685.673,-20.2013"/>
<polygon fill="midnightblue" stroke="midnightblue" points="686.625,-23.5882 695.876,-18.4242 685.424,-16.692 686.625,-23.5882"/>
</g>
</g>
</svg>
