<?xml version="1.0" encoding="UTF-8" standalone="no"?>
<!DOCTYPE svg PUBLIC "-//W3C//DTD SVG 1.1//EN"
 "http://www.w3.org/Graphics/SVG/1.1/DTD/svg11.dtd">
<!-- Generated by graphviz version 2.38.0 (20140413.2041)
 -->
<!-- Title: get/getx11/getx11.c Pages: 1 -->
<svg width="1020pt" height="252pt"
 viewBox="0.00 0.00 1019.92 252.00" xmlns="http://www.w3.org/2000/svg" xmlns:xlink="http://www.w3.org/1999/xlink">
<g id="graph0" class="graph" transform="scale(1 1) rotate(0) translate(4 248)">
<title>get/getx11/getx11.c</title>
<polygon fill="white" stroke="none" points="-4,4 -4,-248 1015.92,-248 1015.92,4 -4,4"/>
<!-- Node1 -->
<g id="node1" class="node"><title>Node1</title>
<polygon fill="#bfbfbf" stroke="black" points="333.419,-224.5 333.419,-243.5 443.419,-243.5 443.419,-224.5 333.419,-224.5"/>
<text text-anchor="middle" x="388.419" y="-231.5" font-family="Helvetica,sans-Serif" font-size="10.00">get/getx11/getx11.c</text>
</g>
<!-- Node2 -->
<g id="node2" class="node"><title>Node2</title>
<polygon fill="white" stroke="#bfbfbf" points="325.919,-168.5 325.919,-187.5 378.919,-187.5 378.919,-168.5 325.919,-168.5"/>
<text text-anchor="middle" x="352.419" y="-175.5" font-family="Helvetica,sans-Serif" font-size="10.00">unistd.h</text>
</g>
<!-- Node1&#45;&gt;Node2 -->
<g id="edge1" class="edge"><title>Node1&#45;&gt;Node2</title>
<path fill="none" stroke="midnightblue" d="M382.475,-224.083C377.442,-216.534 370.082,-205.495 363.906,-196.23"/>
<polygon fill="midnightblue" stroke="midnightblue" points="366.712,-194.13 358.253,-187.751 360.888,-198.013 366.712,-194.13"/>
</g>
<!-- Node3 -->
<g id="node3" class="node"><title>Node3</title>
<g id="a_node3"><a xlink:href="../../da/d3e/getx11_8h.html" target="_top" xlink:title="getx11.h">
<polygon fill="white" stroke="black" points="396.919,-168.5 396.919,-187.5 453.919,-187.5 453.919,-168.5 396.919,-168.5"/>
<text text-anchor="middle" x="425.419" y="-175.5" font-family="Helvetica,sans-Serif" font-size="10.00">getx11.h</text>
</a>
</g>
</g>
<!-- Node1&#45;&gt;Node3 -->
<g id="edge2" class="edge"><title>Node1&#45;&gt;Node3</title>
<path fill="none" stroke="midnightblue" d="M394.529,-224.083C399.701,-216.534 407.265,-205.495 413.614,-196.23"/>
<polygon fill="midnightblue" stroke="midnightblue" points="416.658,-197.979 419.423,-187.751 410.883,-194.022 416.658,-197.979"/>
</g>
<!-- Node4 -->
<g id="node4" class="node"><title>Node4</title>
<polygon fill="white" stroke="#bfbfbf" points="233.919,-56.5 233.919,-75.5 280.919,-75.5 280.919,-56.5 233.919,-56.5"/>
<text text-anchor="middle" x="257.419" y="-63.5" font-family="Helvetica,sans-Serif" font-size="10.00">stdio.h</text>
</g>
<!-- Node3&#45;&gt;Node4 -->
<g id="edge3" class="edge"><title>Node3&#45;&gt;Node4</title>
<path fill="none" stroke="midnightblue" d="M396.871,-169.79C393.695,-169.122 390.496,-168.507 387.419,-168 345.244,-161.058 33.1942,-163.607 4.41918,-132 -1.56489,-125.427 -1.28941,-118.814 4.41918,-112 31.9775,-79.1075 160.982,-70.2387 223.407,-67.862"/>
<polygon fill="midnightblue" stroke="midnightblue" points="223.667,-71.3552 233.54,-67.5113 223.425,-64.3594 223.667,-71.3552"/>
</g>
<!-- Node5 -->
<g id="node5" class="node"><title>Node5</title>
<polygon fill="white" stroke="#bfbfbf" points="13.4192,-112.5 13.4192,-131.5 61.4192,-131.5 61.4192,-112.5 13.4192,-112.5"/>
<text text-anchor="middle" x="37.4192" y="-119.5" font-family="Helvetica,sans-Serif" font-size="10.00">math.h</text>
</g>
<!-- Node3&#45;&gt;Node5 -->
<g id="edge4" class="edge"><title>Node3&#45;&gt;Node5</title>
<path fill="none" stroke="midnightblue" d="M396.861,-169.85C393.686,-169.17 390.491,-168.536 387.419,-168 251.011,-144.189 211.511,-158.046 71.7115,-131.965"/>
<polygon fill="midnightblue" stroke="midnightblue" points="71.9478,-128.447 61.4699,-130.017 70.6398,-135.324 71.9478,-128.447"/>
</g>
<!-- Node6 -->
<g id="node6" class="node"><title>Node6</title>
<polygon fill="white" stroke="#bfbfbf" points="79.4192,-112.5 79.4192,-131.5 129.419,-131.5 129.419,-112.5 79.4192,-112.5"/>
<text text-anchor="middle" x="104.419" y="-119.5" font-family="Helvetica,sans-Serif" font-size="10.00">ctype.h</text>
</g>
<!-- Node3&#45;&gt;Node6 -->
<g id="edge5" class="edge"><title>Node3&#45;&gt;Node6</title>
<path fill="none" stroke="midnightblue" d="M396.844,-169.944C393.672,-169.247 390.483,-168.583 387.419,-168 280.684,-147.686 249.722,-153.956 139.442,-132.002"/>
<polygon fill="midnightblue" stroke="midnightblue" points="140.089,-128.562 129.594,-130.01 138.701,-135.423 140.089,-128.562"/>
</g>
<!-- Node7 -->
<g id="node7" class="node"><title>Node7</title>
<polygon fill="white" stroke="#bfbfbf" points="147.919,-112.5 147.919,-131.5 200.919,-131.5 200.919,-112.5 147.919,-112.5"/>
<text text-anchor="middle" x="174.419" y="-119.5" font-family="Helvetica,sans-Serif" font-size="10.00">X11/X.h</text>
</g>
<!-- Node3&#45;&gt;Node7 -->
<g id="edge6" class="edge"><title>Node3&#45;&gt;Node7</title>
<path fill="none" stroke="midnightblue" d="M396.808,-170.117C393.644,-169.387 390.465,-168.669 387.419,-168 311.662,-151.373 289.777,-150.132 211.03,-132.284"/>
<polygon fill="midnightblue" stroke="midnightblue" points="211.666,-128.839 201.137,-130.023 210.106,-135.663 211.666,-128.839"/>
</g>
<!-- Node8 -->
<g id="node8" class="node"><title>Node8</title>
<polygon fill="white" stroke="#bfbfbf" points="218.919,-112.5 218.919,-131.5 281.919,-131.5 281.919,-112.5 218.919,-112.5"/>
<text text-anchor="middle" x="250.419" y="-119.5" font-family="Helvetica,sans-Serif" font-size="10.00">X11/Xlib.h</text>
</g>
<!-- Node3&#45;&gt;Node8 -->
<g id="edge7" class="edge"><title>Node3&#45;&gt;Node8</title>
<path fill="none" stroke="midnightblue" d="M397.69,-168.444C367.994,-159.28 320.703,-144.688 287.75,-134.519"/>
<polygon fill="midnightblue" stroke="midnightblue" points="288.606,-131.121 278.019,-131.516 286.542,-137.809 288.606,-131.121"/>
</g>
<!-- Node9 -->
<g id="node9" class="node"><title>Node9</title>
<polygon fill="white" stroke="#bfbfbf" points="300.419,-112.5 300.419,-131.5 374.419,-131.5 374.419,-112.5 300.419,-112.5"/>
<text text-anchor="middle" x="337.419" y="-119.5" font-family="Helvetica,sans-Serif" font-size="10.00">X11/Xlibint.h</text>
</g>
<!-- Node3&#45;&gt;Node9 -->
<g id="edge8" class="edge"><title>Node3&#45;&gt;Node9</title>
<path fill="none" stroke="midnightblue" d="M411.28,-168.324C397.553,-159.9 376.483,-146.971 360.355,-137.074"/>
<polygon fill="midnightblue" stroke="midnightblue" points="361.877,-133.902 351.523,-131.655 358.215,-139.868 361.877,-133.902"/>
</g>
<!-- Node10 -->
<g id="node10" class="node"><title>Node10</title>
<polygon fill="white" stroke="#bfbfbf" points="392.419,-112.5 392.419,-131.5 458.419,-131.5 458.419,-112.5 392.419,-112.5"/>
<text text-anchor="middle" x="425.419" y="-119.5" font-family="Helvetica,sans-Serif" font-size="10.00">X11/Xutil.h</text>
</g>
<!-- Node3&#45;&gt;Node10 -->
<g id="edge9" class="edge"><title>Node3&#45;&gt;Node10</title>
<path fill="none" stroke="midnightblue" d="M425.419,-168.083C425.419,-161.006 425.419,-150.861 425.419,-141.986"/>
<polygon fill="midnightblue" stroke="midnightblue" points="428.919,-141.751 425.419,-131.751 421.919,-141.751 428.919,-141.751"/>
</g>
<!-- Node11 -->
<g id="node11" class="node"><title>Node11</title>
<polygon fill="white" stroke="#bfbfbf" points="476.419,-112.5 476.419,-131.5 570.419,-131.5 570.419,-112.5 476.419,-112.5"/>
<text text-anchor="middle" x="523.419" y="-119.5" font-family="Helvetica,sans-Serif" font-size="10.00">X11/cursorfont.h</text>
</g>
<!-- Node3&#45;&gt;Node11 -->
<g id="edge10" class="edge"><title>Node3&#45;&gt;Node11</title>
<path fill="none" stroke="midnightblue" d="M441.165,-168.324C456.738,-159.743 480.796,-146.486 498.878,-136.522"/>
<polygon fill="midnightblue" stroke="midnightblue" points="500.644,-139.546 507.713,-131.655 497.265,-133.415 500.644,-139.546"/>
</g>
<!-- Node12 -->
<g id="node12" class="node"><title>Node12</title>
<g id="a_node12"><a xlink:href="../../d7/d27/rle_8h.html" target="_top" xlink:title="rle.h">
<polygon fill="white" stroke="black" points="588.919,-112.5 588.919,-131.5 625.919,-131.5 625.919,-112.5 588.919,-112.5"/>
<text text-anchor="middle" x="607.419" y="-119.5" font-family="Helvetica,sans-Serif" font-size="10.00">rle.h</text>
</a>
</g>
</g>
<!-- Node3&#45;&gt;Node12 -->
<g id="edge11" class="edge"><title>Node3&#45;&gt;Node12</title>
<path fill="none" stroke="midnightblue" d="M454.154,-168.852C483.263,-160.543 529.808,-147.109 579.186,-132.011"/>
<polygon fill="midnightblue" stroke="midnightblue" points="580.231,-135.352 588.765,-129.072 578.178,-128.66 580.231,-135.352"/>
</g>
<!-- Node16 -->
<g id="node16" class="node"><title>Node16</title>
<polygon fill="white" stroke="#bfbfbf" points="643.919,-112.5 643.919,-131.5 700.919,-131.5 700.919,-112.5 643.919,-112.5"/>
<text text-anchor="middle" x="672.419" y="-119.5" font-family="Helvetica,sans-Serif" font-size="10.00">sys/ipc.h</text>
</g>
<!-- Node3&#45;&gt;Node16 -->
<g id="edge16" class="edge"><title>Node3&#45;&gt;Node16</title>
<path fill="none" stroke="midnightblue" d="M454.196,-170.999C492.722,-162.922 563.436,-147.95 633.867,-132.088"/>
<polygon fill="midnightblue" stroke="midnightblue" points="634.817,-135.462 643.8,-129.845 633.274,-128.634 634.817,-135.462"/>
</g>
<!-- Node17 -->
<g id="node17" class="node"><title>Node17</title>
<polygon fill="white" stroke="#bfbfbf" points="718.919,-112.5 718.919,-131.5 781.919,-131.5 781.919,-112.5 718.919,-112.5"/>
<text text-anchor="middle" x="750.419" y="-119.5" font-family="Helvetica,sans-Serif" font-size="10.00">sys/shm.h</text>
</g>
<!-- Node3&#45;&gt;Node17 -->
<g id="edge17" class="edge"><title>Node3&#45;&gt;Node17</title>
<path fill="none" stroke="midnightblue" d="M454.137,-173.021C503.853,-166.01 609.373,-150.588 708.766,-132.027"/>
<polygon fill="midnightblue" stroke="midnightblue" points="709.493,-135.452 718.673,-130.162 708.198,-128.572 709.493,-135.452"/>
</g>
<!-- Node18 -->
<g id="node18" class="node"><title>Node18</title>
<polygon fill="white" stroke="#bfbfbf" points="800.419,-112.5 800.419,-131.5 928.419,-131.5 928.419,-112.5 800.419,-112.5"/>
<text text-anchor="middle" x="864.419" y="-119.5" font-family="Helvetica,sans-Serif" font-size="10.00">X11/extensions/XShm.h</text>
</g>
<!-- Node3&#45;&gt;Node18 -->
<g id="edge18" class="edge"><title>Node3&#45;&gt;Node18</title>
<path fill="none" stroke="midnightblue" d="M454.362,-173.445C514.656,-166.038 658.382,-148.378 790.06,-132.167"/>
<polygon fill="midnightblue" stroke="midnightblue" points="790.828,-135.599 800.325,-130.903 789.972,-128.651 790.828,-135.599"/>
</g>
<!-- Node19 -->
<g id="node19" class="node"><title>Node19</title>
<g id="a_node19"><a xlink:href="../../d7/dd0/fn__decls_8h.html" target="_top" xlink:title="fn_decls.h">
<polygon fill="white" stroke="black" points="946.919,-112.5 946.919,-131.5 1011.92,-131.5 1011.92,-112.5 946.919,-112.5"/>
<text text-anchor="middle" x="979.419" y="-119.5" font-family="Helvetica,sans-Serif" font-size="10.00">fn_decls.h</text>
</a>
</g>
</g>
<!-- Node3&#45;&gt;Node19 -->
<g id="edge19" class="edge"><title>Node3&#45;&gt;Node19</title>
<path fill="none" stroke="midnightblue" d="M454.154,-175.72C530.831,-172.041 746.774,-159.958 936.326,-131.979"/>
<polygon fill="midnightblue" stroke="midnightblue" points="937.102,-135.402 946.475,-130.461 936.067,-128.478 937.102,-135.402"/>
</g>
<!-- Node12&#45;&gt;Node4 -->
<g id="edge15" class="edge"><title>Node12&#45;&gt;Node4</title>
<path fill="none" stroke="midnightblue" d="M588.867,-114.544C585.739,-113.598 582.505,-112.706 579.419,-112 475.819,-88.2966 350.432,-75.1182 291.346,-69.8047"/>
<polygon fill="midnightblue" stroke="midnightblue" points="291.373,-66.2937 281.105,-68.9034 290.759,-73.2667 291.373,-66.2937"/>
</g>
<!-- Node13 -->
<g id="node13" class="node"><title>Node13</title>
<g id="a_node13"><a xlink:href="../../df/dad/rle__config_8h.html" target="_top" xlink:title="rle_config.h">
<polygon fill="white" stroke="black" points="571.919,-56.5 571.919,-75.5 642.919,-75.5 642.919,-56.5 571.919,-56.5"/>
<text text-anchor="middle" x="607.419" y="-63.5" font-family="Helvetica,sans-Serif" font-size="10.00">rle_config.h</text>
</a>
</g>
</g>
<!-- Node12&#45;&gt;Node13 -->
<g id="edge12" class="edge"><title>Node12&#45;&gt;Node13</title>
<path fill="none" stroke="midnightblue" d="M607.419,-112.083C607.419,-105.006 607.419,-94.8611 607.419,-85.9865"/>
<polygon fill="midnightblue" stroke="midnightblue" points="610.919,-85.751 607.419,-75.7511 603.919,-85.7511 610.919,-85.751"/>
</g>
<!-- Node14 -->
<g id="node14" class="node"><title>Node14</title>
<polygon fill="white" stroke="#bfbfbf" points="548.919,-0.5 548.919,-19.5 597.919,-19.5 597.919,-0.5 548.919,-0.5"/>
<text text-anchor="middle" x="573.419" y="-7.5" font-family="Helvetica,sans-Serif" font-size="10.00">stdlib.h</text>
</g>
<!-- Node13&#45;&gt;Node14 -->
<g id="edge13" class="edge"><title>Node13&#45;&gt;Node14</title>
<path fill="none" stroke="midnightblue" d="M601.805,-56.083C597.052,-48.5341 590.101,-37.4948 584.268,-28.2298"/>
<polygon fill="midnightblue" stroke="midnightblue" points="587.219,-26.3486 578.929,-19.7511 581.295,-30.0783 587.219,-26.3486"/>
</g>
<!-- Node15 -->
<g id="node15" class="node"><title>Node15</title>
<polygon fill="white" stroke="#bfbfbf" points="615.919,-0.5 615.919,-19.5 666.919,-19.5 666.919,-0.5 615.919,-0.5"/>
<text text-anchor="middle" x="641.419" y="-7.5" font-family="Helvetica,sans-Serif" font-size="10.00">string.h</text>
</g>
<!-- Node13&#45;&gt;Node15 -->
<g id="edge14" class="edge"><title>Node13&#45;&gt;Node15</title>
<path fill="none" stroke="midnightblue" d="M613.034,-56.083C617.787,-48.5341 624.737,-37.4948 630.571,-28.2298"/>
<polygon fill="midnightblue" stroke="midnightblue" points="633.543,-30.0783 635.909,-19.7511 627.619,-26.3486 633.543,-30.0783"/>
</g>
</g>
</svg>
