<?xml version="1.0" encoding="UTF-8" standalone="no"?>
<!DOCTYPE svg PUBLIC "-//W3C//DTD SVG 1.1//EN"
 "http://www.w3.org/Graphics/SVG/1.1/DTD/svg11.dtd">
<!-- Generated by graphviz version 2.38.0 (20140413.2041)
 -->
<!-- Title: RunSetup Pages: 1 -->
<svg width="175pt" height="104pt"
 viewBox="0.00 0.00 175.00 104.00" xmlns="http://www.w3.org/2000/svg" xmlns:xlink="http://www.w3.org/1999/xlink">
<g id="graph0" class="graph" transform="scale(1 1) rotate(0) translate(4 100)">
<title>RunSetup</title>
<polygon fill="white" stroke="none" points="-4,4 -4,-100 171,-100 171,4 -4,4"/>
<!-- Node1 -->
<g id="node1" class="node"><title>Node1</title>
<polygon fill="#bfbfbf" stroke="black" points="0,-38.5 0,-57.5 62,-57.5 62,-38.5 0,-38.5"/>
<text text-anchor="middle" x="31" y="-45.5" font-family="Helvetica,sans-Serif" font-size="10.00">RunSetup</text>
</g>
<!-- Node2 -->
<g id="node2" class="node"><title>Node2</title>
<g id="a_node2"><a xlink:href="../../de/d10/Runput_8c.html#af828ff51deed93a7af458343edd273c1" target="_top" xlink:title="vax_pshort">
<polygon fill="white" stroke="black" points="98,-76.5 98,-95.5 167,-95.5 167,-76.5 98,-76.5"/>
<text text-anchor="middle" x="132.5" y="-83.5" font-family="Helvetica,sans-Serif" font-size="10.00">vax_pshort</text>
</a>
</g>
</g>
<!-- Node1&#45;&gt;Node2 -->
<g id="edge1" class="edge"><title>Node1&#45;&gt;Node2</title>
<path fill="none" stroke="midnightblue" d="M57.1081,-57.589C69.1277,-62.1794 83.7147,-67.7503 96.7765,-72.7388"/>
<polygon fill="midnightblue" stroke="midnightblue" points="95.8093,-76.1159 106.4,-76.4141 98.3068,-69.5766 95.8093,-76.1159"/>
</g>
<!-- Node3 -->
<g id="node3" class="node"><title>Node3</title>
<g id="a_node3"><a xlink:href="../../d0/dcc/rletorla_8c.html#ab7e36af3707843f77cc5b4e831c2fa6d" target="_top" xlink:title="malloc">
<polygon fill="white" stroke="black" points="109,-38.5 109,-57.5 156,-57.5 156,-38.5 109,-38.5"/>
<text text-anchor="middle" x="132.5" y="-45.5" font-family="Helvetica,sans-Serif" font-size="10.00">malloc</text>
</a>
</g>
</g>
<!-- Node1&#45;&gt;Node3 -->
<g id="edge2" class="edge"><title>Node1&#45;&gt;Node3</title>
<path fill="none" stroke="midnightblue" d="M62.1233,-48C73.5969,-48 86.7291,-48 98.4592,-48"/>
<polygon fill="midnightblue" stroke="midnightblue" points="98.7497,-51.5001 108.75,-48 98.7497,-44.5001 98.7497,-51.5001"/>
</g>
<!-- Node4 -->
<g id="node4" class="node"><title>Node4</title>
<g id="a_node4"><a xlink:href="../../d0/dcc/rletorla_8c.html#aafde19f7d36ca163a143579c1b125b6d" target="_top" xlink:title="free">
<polygon fill="white" stroke="black" points="115,-0.5 115,-19.5 150,-19.5 150,-0.5 115,-0.5"/>
<text text-anchor="middle" x="132.5" y="-7.5" font-family="Helvetica,sans-Serif" font-size="10.00">free</text>
</a>
</g>
</g>
<!-- Node1&#45;&gt;Node4 -->
<g id="edge3" class="edge"><title>Node1&#45;&gt;Node4</title>
<path fill="none" stroke="midnightblue" d="M57.1081,-38.411C71.7957,-32.8016 90.317,-25.7282 105.204,-20.0425"/>
<polygon fill="midnightblue" stroke="midnightblue" points="106.746,-23.2005 114.839,-16.363 104.248,-16.6612 106.746,-23.2005"/>
</g>
</g>
</svg>
