<?xml version="1.0" encoding="UTF-8" standalone="no"?>
<!DOCTYPE svg PUBLIC "-//W3C//DTD SVG 1.1//EN"
 "http://www.w3.org/Graphics/SVG/1.1/DTD/svg11.dtd">
<!-- Generated by graphviz version 2.38.0 (20140413.2041)
 -->
<!-- Title: getren.c Pages: 1 -->
<svg width="201pt" height="84pt"
 viewBox="0.00 0.00 201.00 84.00" xmlns="http://www.w3.org/2000/svg" xmlns:xlink="http://www.w3.org/1999/xlink">
<g id="graph0" class="graph" transform="scale(1 1) rotate(0) translate(4 80)">
<title>getren.c</title>
<polygon fill="white" stroke="none" points="-4,4 -4,-80 197,-80 197,4 -4,4"/>
<!-- Node1 -->
<g id="node1" class="node"><title>Node1</title>
<polygon fill="#bfbfbf" stroke="black" points="74,-56.5 74,-75.5 129,-75.5 129,-56.5 74,-56.5"/>
<text text-anchor="middle" x="101.5" y="-63.5" font-family="Helvetica,sans-Serif" font-size="10.00">getren.c</text>
</g>
<!-- Node2 -->
<g id="node2" class="node"><title>Node2</title>
<polygon fill="white" stroke="#bfbfbf" points="0,-0.5 0,-19.5 47,-19.5 47,-0.5 0,-0.5"/>
<text text-anchor="middle" x="23.5" y="-7.5" font-family="Helvetica,sans-Serif" font-size="10.00">stdio.h</text>
</g>
<!-- Node1&#45;&gt;Node2 -->
<g id="edge1" class="edge"><title>Node1&#45;&gt;Node2</title>
<path fill="none" stroke="midnightblue" d="M88.968,-56.324C76.9141,-47.979 58.4732,-35.2122 44.2313,-25.3524"/>
<polygon fill="midnightblue" stroke="midnightblue" points="46.2151,-22.469 36.0009,-19.6545 42.2306,-28.2243 46.2151,-22.469"/>
</g>
<!-- Node3 -->
<g id="node3" class="node"><title>Node3</title>
<polygon fill="white" stroke="#bfbfbf" points="65,-0.5 65,-19.5 138,-19.5 138,-0.5 65,-0.5"/>
<text text-anchor="middle" x="101.5" y="-7.5" font-family="Helvetica,sans-Serif" font-size="10.00">starbase.c.h</text>
</g>
<!-- Node1&#45;&gt;Node3 -->
<g id="edge2" class="edge"><title>Node1&#45;&gt;Node3</title>
<path fill="none" stroke="midnightblue" d="M101.5,-56.083C101.5,-49.0059 101.5,-38.8611 101.5,-29.9865"/>
<polygon fill="midnightblue" stroke="midnightblue" points="105,-29.751 101.5,-19.7511 98.0001,-29.7511 105,-29.751"/>
</g>
<!-- Node4 -->
<g id="node4" class="node"><title>Node4</title>
<polygon fill="white" stroke="#bfbfbf" points="156,-0.5 156,-19.5 193,-19.5 193,-0.5 156,-0.5"/>
<text text-anchor="middle" x="174.5" y="-7.5" font-family="Helvetica,sans-Serif" font-size="10.00">rle.h</text>
</g>
<!-- Node1&#45;&gt;Node4 -->
<g id="edge3" class="edge"><title>Node1&#45;&gt;Node4</title>
<path fill="none" stroke="midnightblue" d="M113.229,-56.324C124.337,-48.1066 141.242,-35.6017 154.483,-25.8069"/>
<polygon fill="midnightblue" stroke="midnightblue" points="156.6,-28.5948 162.558,-19.8339 152.437,-22.9671 156.6,-28.5948"/>
</g>
</g>
</svg>
