<?xml version="1.0" encoding="UTF-8" standalone="no"?>
<!DOCTYPE svg PUBLIC "-//W3C//DTD SVG 1.1//EN"
 "http://www.w3.org/Graphics/SVG/1.1/DTD/svg11.dtd">
<!-- Generated by graphviz version 2.38.0 (20140413.2041)
 -->
<!-- Title: get/read98721.c Pages: 1 -->
<svg width="246pt" height="196pt"
 viewBox="0.00 0.00 246.00 196.00" xmlns="http://www.w3.org/2000/svg" xmlns:xlink="http://www.w3.org/1999/xlink">
<g id="graph0" class="graph" transform="scale(1 1) rotate(0) translate(4 192)">
<title>get/read98721.c</title>
<polygon fill="white" stroke="none" points="-4,4 -4,-192 242,-192 242,4 -4,4"/>
<!-- Node1 -->
<g id="node1" class="node"><title>Node1</title>
<polygon fill="#bfbfbf" stroke="black" points="54.5,-168.5 54.5,-187.5 148.5,-187.5 148.5,-168.5 54.5,-168.5"/>
<text text-anchor="middle" x="101.5" y="-175.5" font-family="Helvetica,sans-Serif" font-size="10.00">get/read98721.c</text>
</g>
<!-- Node2 -->
<g id="node2" class="node"><title>Node2</title>
<polygon fill="white" stroke="#bfbfbf" points="0,-112.5 0,-131.5 73,-131.5 73,-112.5 0,-112.5"/>
<text text-anchor="middle" x="36.5" y="-119.5" font-family="Helvetica,sans-Serif" font-size="10.00">starbase.c.h</text>
</g>
<!-- Node1&#45;&gt;Node2 -->
<g id="edge1" class="edge"><title>Node1&#45;&gt;Node2</title>
<path fill="none" stroke="midnightblue" d="M91.0566,-168.324C81.3538,-160.263 66.6847,-148.077 55.0003,-138.369"/>
<polygon fill="midnightblue" stroke="midnightblue" points="57.0619,-135.532 47.1334,-131.834 52.5887,-140.916 57.0619,-135.532"/>
</g>
<!-- Node3 -->
<g id="node3" class="node"><title>Node3</title>
<polygon fill="white" stroke="#bfbfbf" points="78,-56.5 78,-75.5 125,-75.5 125,-56.5 78,-56.5"/>
<text text-anchor="middle" x="101.5" y="-63.5" font-family="Helvetica,sans-Serif" font-size="10.00">stdio.h</text>
</g>
<!-- Node1&#45;&gt;Node3 -->
<g id="edge2" class="edge"><title>Node1&#45;&gt;Node3</title>
<path fill="none" stroke="midnightblue" d="M101.5,-168.368C101.5,-150.617 101.5,-109.666 101.5,-85.5974"/>
<polygon fill="midnightblue" stroke="midnightblue" points="105,-85.5914 101.5,-75.5914 98.0001,-85.5915 105,-85.5914"/>
</g>
<!-- Node4 -->
<g id="node4" class="node"><title>Node4</title>
<g id="a_node4"><a xlink:href="../../d7/d27/rle_8h.html" target="_top" xlink:title="rle.h">
<polygon fill="white" stroke="black" points="130,-112.5 130,-131.5 167,-131.5 167,-112.5 130,-112.5"/>
<text text-anchor="middle" x="148.5" y="-119.5" font-family="Helvetica,sans-Serif" font-size="10.00">rle.h</text>
</a>
</g>
</g>
<!-- Node1&#45;&gt;Node4 -->
<g id="edge3" class="edge"><title>Node1&#45;&gt;Node4</title>
<path fill="none" stroke="midnightblue" d="M109.261,-168.083C116.037,-160.298 126.043,-148.801 134.255,-139.367"/>
<polygon fill="midnightblue" stroke="midnightblue" points="136.958,-141.592 140.883,-131.751 131.678,-136.996 136.958,-141.592"/>
</g>
<!-- Node4&#45;&gt;Node3 -->
<g id="edge7" class="edge"><title>Node4&#45;&gt;Node3</title>
<path fill="none" stroke="midnightblue" d="M140.739,-112.083C133.963,-104.298 123.957,-92.8015 115.745,-83.3665"/>
<polygon fill="midnightblue" stroke="midnightblue" points="118.322,-80.9963 109.117,-75.7511 113.042,-85.592 118.322,-80.9963"/>
</g>
<!-- Node5 -->
<g id="node5" class="node"><title>Node5</title>
<g id="a_node5"><a xlink:href="../../df/dad/rle__config_8h.html" target="_top" xlink:title="rle_config.h">
<polygon fill="white" stroke="black" points="143,-56.5 143,-75.5 214,-75.5 214,-56.5 143,-56.5"/>
<text text-anchor="middle" x="178.5" y="-63.5" font-family="Helvetica,sans-Serif" font-size="10.00">rle_config.h</text>
</a>
</g>
</g>
<!-- Node4&#45;&gt;Node5 -->
<g id="edge4" class="edge"><title>Node4&#45;&gt;Node5</title>
<path fill="none" stroke="midnightblue" d="M153.454,-112.083C157.604,-104.613 163.653,-93.7244 168.767,-84.5199"/>
<polygon fill="midnightblue" stroke="midnightblue" points="171.841,-86.1924 173.638,-75.7511 165.722,-82.7929 171.841,-86.1924"/>
</g>
<!-- Node6 -->
<g id="node6" class="node"><title>Node6</title>
<polygon fill="white" stroke="#bfbfbf" points="120,-0.5 120,-19.5 169,-19.5 169,-0.5 120,-0.5"/>
<text text-anchor="middle" x="144.5" y="-7.5" font-family="Helvetica,sans-Serif" font-size="10.00">stdlib.h</text>
</g>
<!-- Node5&#45;&gt;Node6 -->
<g id="edge5" class="edge"><title>Node5&#45;&gt;Node6</title>
<path fill="none" stroke="midnightblue" d="M172.886,-56.083C168.133,-48.5341 161.182,-37.4948 155.348,-28.2298"/>
<polygon fill="midnightblue" stroke="midnightblue" points="158.3,-26.3486 150.01,-19.7511 152.376,-30.0783 158.3,-26.3486"/>
</g>
<!-- Node7 -->
<g id="node7" class="node"><title>Node7</title>
<polygon fill="white" stroke="#bfbfbf" points="187,-0.5 187,-19.5 238,-19.5 238,-0.5 187,-0.5"/>
<text text-anchor="middle" x="212.5" y="-7.5" font-family="Helvetica,sans-Serif" font-size="10.00">string.h</text>
</g>
<!-- Node5&#45;&gt;Node7 -->
<g id="edge6" class="edge"><title>Node5&#45;&gt;Node7</title>
<path fill="none" stroke="midnightblue" d="M184.114,-56.083C188.867,-48.5341 195.818,-37.4948 201.652,-28.2298"/>
<polygon fill="midnightblue" stroke="midnightblue" points="204.624,-30.0783 206.99,-19.7511 198.7,-26.3486 204.624,-30.0783"/>
</g>
</g>
</svg>
